<?xml version="1.0" encoding="utf-8"?>
<!-- Generator: Adobe Illustrator 26.0.1, SVG Export Plug-In . SVG Version: 6.00 Build 0)  -->
<svg version="1.1" id="Layer_1" xmlns="http://www.w3.org/2000/svg" xmlns:xlink="http://www.w3.org/1999/xlink" x="0px" y="0px"
	 viewBox="0 0 660.9 72.9" style="enable-background:new 0 0 660.9 72.9;" xml:space="preserve">
<style type="text/css">
	.st0{fill:#EC7E30;}
	.st1{opacity:0.9;fill:#FFFFFF;enable-background:new    ;}
	.st2{fill:none;stroke:#EC7E30;stroke-miterlimit:10;}
	.st3{fill:#A5A4A4;}
	.st4{fill:#4A72B8;}
	.st5{fill:#FDC015;}
	.st6{fill:#009444;}
</style>
<g>
	<polygon class="st0" points="140.4,33.4 140.4,33.4 105.6,66.8 0,66.8 34.8,33.4 34.8,33.4 0,0.1 105.6,0.1 	"/>
	<g>
		<path class="st1" d="M152.6,72.3H58.3c-1.9,0-3.4-1.5-3.4-3.4V30.5c0-1.9,1.5-3.4,3.4-3.4h94.3c1.9,0,3.4,1.5,3.4,3.4v38.4
			C156,70.8,154.4,72.3,152.6,72.3z"/>
		<path class="st2" d="M152.6,72.3H58.3c-1.9,0-3.4-1.5-3.4-3.4V30.5c0-1.9,1.5-3.4,3.4-3.4h94.3c1.9,0,3.4,1.5,3.4,3.4v38.4
			C156,70.8,154.4,72.3,152.6,72.3z"/>
	</g>
	<polygon class="st3" points="308.6,33.4 308.6,33.4 273.7,66.7 168.1,66.7 203,33.4 203,33.4 168.1,0 273.7,0 	"/>
	<g>
		<path class="st1" d="M320.7,72.4h-94.3c-1.9,0-3.4-1.5-3.4-3.4V30.6c0-1.9,1.5-3.4,3.4-3.4h94.3c1.9,0,3.4,1.5,3.4,3.4V69
			C324.1,70.9,322.6,72.4,320.7,72.4z"/>
		<path class="st2" d="M320.7,72.4h-94.3c-1.9,0-3.4-1.5-3.4-3.4V30.6c0-1.9,1.5-3.4,3.4-3.4h94.3c1.9,0,3.4,1.5,3.4,3.4V69
			C324.1,70.9,322.6,72.4,320.7,72.4z"/>
	</g>
	<polygon class="st4" points="644.9,33.4 644.9,33.4 610,66.7 504.4,66.7 539.3,33.4 539.3,33.4 504.4,0 610,0 	"/>
	<g>
		<path class="st1" d="M657,72.4h-94.3c-1.9,0-3.4-1.5-3.4-3.4V30.6c0-1.9,1.5-3.4,3.4-3.4H657c1.9,0,3.4,1.5,3.4,3.4V69
			C660.4,70.9,658.9,72.4,657,72.4z"/>
		<path class="st2" d="M657,72.4h-94.3c-1.9,0-3.4-1.5-3.4-3.4V30.6c0-1.9,1.5-3.4,3.4-3.4H657c1.9,0,3.4,1.5,3.4,3.4V69
			C660.4,70.9,658.9,72.4,657,72.4z"/>
	</g>
	<polygon class="st5" points="476.7,33.4 476.7,33.4 441.9,66.8 336.3,66.8 371.1,33.4 371.1,33.4 336.3,0.1 441.9,0.1 	"/>
	<g>
		<path class="st1" d="M488.8,72.3h-94.3c-1.9,0-3.4-1.5-3.4-3.4V30.5c0-1.9,1.5-3.4,3.4-3.4h94.3c1.9,0,3.4,1.5,3.4,3.4v38.4
			C492.3,70.8,490.7,72.3,488.8,72.3z"/>
		<path class="st2" d="M488.8,72.3h-94.3c-1.9,0-3.4-1.5-3.4-3.4V30.5c0-1.9,1.5-3.4,3.4-3.4h94.3c1.9,0,3.4,1.5,3.4,3.4v38.4
			C492.3,70.8,490.7,72.3,488.8,72.3z"/>
	</g>
	<g>
		<path d="M93.5,40.3c-0.1-0.4-0.3-0.8-0.6-1c-0.4-0.2-0.8-0.4-1.3-0.4c-0.4,0-0.7,0.1-1,0.2c-0.3,0.1-0.5,0.3-0.7,0.5
			s-0.2,0.5-0.2,0.7c0,0.2,0.1,0.4,0.2,0.6c0.1,0.2,0.3,0.3,0.4,0.4c0.2,0.1,0.4,0.2,0.6,0.3c0.2,0.1,0.4,0.1,0.5,0.2l0.9,0.2
			c0.2,0.1,0.5,0.1,0.8,0.2c0.3,0.1,0.5,0.2,0.8,0.4c0.3,0.2,0.5,0.4,0.6,0.7c0.2,0.3,0.3,0.6,0.3,1c0,0.5-0.1,0.9-0.4,1.3
			c-0.2,0.4-0.6,0.7-1.1,0.9c-0.5,0.2-1,0.3-1.7,0.3c-0.6,0-1.2-0.1-1.6-0.3s-0.8-0.5-1.1-0.8c-0.3-0.4-0.4-0.8-0.4-1.3h1.1
			c0,0.3,0.1,0.6,0.3,0.8c0.2,0.2,0.4,0.4,0.7,0.5c0.3,0.1,0.6,0.2,1,0.2c0.4,0,0.8-0.1,1.1-0.2c0.3-0.1,0.6-0.3,0.8-0.6
			s0.3-0.5,0.3-0.8c0-0.3-0.1-0.5-0.2-0.7c-0.2-0.2-0.4-0.3-0.6-0.4c-0.3-0.1-0.5-0.2-0.9-0.3l-1.1-0.3c-0.7-0.2-1.2-0.5-1.6-0.8
			s-0.6-0.8-0.6-1.4c0-0.5,0.1-0.9,0.4-1.3c0.3-0.4,0.6-0.6,1.1-0.9s1-0.3,1.5-0.3c0.6,0,1.1,0.1,1.5,0.3c0.4,0.2,0.8,0.5,1,0.8
			c0.3,0.3,0.4,0.7,0.4,1.2H93.5z"/>
		<path d="M99,47c-0.6,0-1.2-0.1-1.6-0.4s-0.8-0.7-1.1-1.2c-0.2-0.5-0.4-1.1-0.4-1.8s0.1-1.3,0.4-1.8c0.2-0.5,0.6-0.9,1-1.2
			c0.4-0.3,1-0.4,1.5-0.4c0.3,0,0.7,0.1,1,0.2c0.3,0.1,0.6,0.3,0.9,0.6c0.3,0.3,0.5,0.6,0.7,1c0.2,0.4,0.2,0.9,0.2,1.5V44h-5v-0.9h4
			c0-0.4-0.1-0.7-0.2-1c-0.1-0.3-0.4-0.5-0.6-0.7c-0.3-0.2-0.6-0.3-0.9-0.3c-0.4,0-0.7,0.1-1,0.3c-0.3,0.2-0.5,0.5-0.7,0.8
			c-0.2,0.3-0.2,0.7-0.2,1v0.6c0,0.5,0.1,0.9,0.3,1.3s0.4,0.6,0.7,0.8c0.3,0.2,0.7,0.3,1.1,0.3c0.3,0,0.5,0,0.7-0.1
			c0.2-0.1,0.4-0.2,0.6-0.3c0.2-0.2,0.3-0.3,0.4-0.6l1,0.3c-0.1,0.3-0.3,0.6-0.5,0.9s-0.5,0.4-0.9,0.6C99.9,47,99.5,47,99,47z"/>
		<path d="M104.3,38.2v8.7h-1v-8.7H104.3z"/>
		<path d="M108.9,47c-0.6,0-1.2-0.1-1.6-0.4s-0.8-0.7-1.1-1.2c-0.2-0.5-0.4-1.1-0.4-1.8s0.1-1.3,0.4-1.8c0.2-0.5,0.6-0.9,1-1.2
			c0.4-0.3,1-0.4,1.5-0.4c0.3,0,0.7,0.1,1,0.2c0.3,0.1,0.6,0.3,0.9,0.6c0.3,0.3,0.5,0.6,0.7,1c0.2,0.4,0.2,0.9,0.2,1.5V44h-5v-0.9h4
			c0-0.4-0.1-0.7-0.2-1c-0.1-0.3-0.4-0.5-0.6-0.7c-0.3-0.2-0.6-0.3-0.9-0.3c-0.4,0-0.7,0.1-1,0.3c-0.3,0.2-0.5,0.5-0.7,0.8
			c-0.2,0.3-0.2,0.7-0.2,1v0.6c0,0.5,0.1,0.9,0.3,1.3s0.4,0.6,0.7,0.8c0.3,0.2,0.7,0.3,1.1,0.3c0.3,0,0.5,0,0.7-0.1
			c0.2-0.1,0.4-0.2,0.6-0.3c0.2-0.2,0.3-0.3,0.4-0.6l1,0.3c-0.1,0.3-0.3,0.6-0.5,0.9s-0.5,0.4-0.9,0.6C109.7,47,109.3,47,108.9,47z"
			/>
		<path d="M115.8,47c-0.6,0-1.1-0.1-1.6-0.4c-0.4-0.3-0.8-0.7-1-1.2c-0.2-0.5-0.4-1.1-0.4-1.7c0-0.7,0.1-1.3,0.4-1.8
			c0.2-0.5,0.6-0.9,1-1.2c0.4-0.3,1-0.4,1.5-0.4c0.5,0,0.9,0.1,1.2,0.3c0.4,0.2,0.7,0.4,0.9,0.7c0.2,0.3,0.4,0.7,0.4,1.1h-1
			c-0.1-0.3-0.2-0.6-0.5-0.8s-0.6-0.3-1.1-0.3c-0.4,0-0.7,0.1-1,0.3s-0.5,0.5-0.7,0.9c-0.2,0.4-0.2,0.8-0.2,1.3
			c0,0.5,0.1,0.9,0.2,1.3s0.4,0.7,0.7,0.9s0.6,0.3,1,0.3c0.3,0,0.5,0,0.7-0.1c0.2-0.1,0.4-0.2,0.5-0.4c0.1-0.2,0.3-0.4,0.3-0.6h1
			c-0.1,0.4-0.2,0.7-0.4,1c-0.2,0.3-0.5,0.6-0.9,0.7S116.3,47,115.8,47z"/>
		<path d="M122.7,40.3v0.9h-3.4v-0.9H122.7z M120.3,38.8h1V45c0,0.3,0,0.5,0.1,0.6c0.1,0.1,0.2,0.2,0.3,0.3c0.1,0,0.3,0.1,0.4,0.1
			c0.1,0,0.2,0,0.3,0c0.1,0,0.1,0,0.2,0l0.2,0.9c-0.1,0-0.2,0.1-0.3,0.1c-0.1,0-0.3,0-0.5,0c-0.3,0-0.6-0.1-0.8-0.2
			s-0.5-0.3-0.7-0.6s-0.3-0.6-0.3-0.9V38.8z"/>
		<path class="st6" d="M79.1,61.3l-2.5-8.7h1.7l1.6,6.4H80l1.7-6.4h1.5l1.7,6.4H85l1.6-6.4h1.7l-2.5,8.7h-1.6l-1.7-6.1h-0.1
			l-1.8,6.1H79.1z"/>
		<path class="st6" d="M91.1,61.4c-0.4,0-0.8-0.1-1.1-0.2c-0.3-0.1-0.6-0.4-0.8-0.7c-0.2-0.3-0.3-0.7-0.3-1.1c0-0.4,0.1-0.7,0.2-0.9
			c0.1-0.2,0.3-0.4,0.6-0.6c0.2-0.1,0.5-0.3,0.8-0.3s0.6-0.1,0.9-0.2c0.4,0,0.7-0.1,0.9-0.1c0.2,0,0.4-0.1,0.5-0.2
			c0.1-0.1,0.2-0.2,0.2-0.3v0c0-0.3-0.1-0.6-0.3-0.7s-0.5-0.3-0.8-0.3c-0.4,0-0.7,0.1-0.9,0.2c-0.2,0.2-0.4,0.4-0.4,0.6l-1.4-0.2
			c0.1-0.4,0.3-0.7,0.6-1c0.3-0.3,0.6-0.5,1-0.6s0.8-0.2,1.3-0.2c0.3,0,0.6,0,0.9,0.1c0.3,0.1,0.6,0.2,0.9,0.4
			c0.3,0.2,0.5,0.4,0.6,0.7c0.2,0.3,0.2,0.7,0.2,1.1v4.4h-1.5v-0.9h-0.1c-0.1,0.2-0.2,0.4-0.4,0.5c-0.2,0.2-0.4,0.3-0.6,0.4
			C91.8,61.4,91.5,61.4,91.1,61.4z M91.5,60.3c0.3,0,0.6-0.1,0.8-0.2c0.2-0.1,0.4-0.3,0.5-0.5c0.1-0.2,0.2-0.4,0.2-0.7v-0.8
			c0,0-0.1,0.1-0.2,0.1c-0.1,0-0.2,0.1-0.4,0.1c-0.1,0-0.3,0-0.4,0.1c-0.1,0-0.3,0-0.4,0.1c-0.2,0-0.4,0.1-0.6,0.2
			c-0.2,0.1-0.3,0.2-0.4,0.3c-0.1,0.1-0.2,0.3-0.2,0.5c0,0.3,0.1,0.5,0.3,0.6C91,60.2,91.2,60.3,91.5,60.3z"/>
		<path class="st6" d="M99.4,54.7v1.2h-3.8v-1.2H99.4z M96.6,53.2h1.5v6.1c0,0.2,0,0.4,0.1,0.5c0.1,0.1,0.1,0.2,0.3,0.2
			c0.1,0,0.2,0.1,0.3,0.1c0.1,0,0.2,0,0.3,0c0.1,0,0.1,0,0.2,0l0.3,1.2c-0.1,0-0.2,0.1-0.4,0.1c-0.2,0-0.3,0.1-0.6,0.1
			c-0.4,0-0.7,0-1-0.2s-0.6-0.3-0.7-0.6c-0.2-0.3-0.3-0.6-0.3-1V53.2z"/>
		<path class="st6" d="M103.6,61.4c-0.7,0-1.2-0.1-1.7-0.4c-0.5-0.3-0.8-0.7-1.1-1.2c-0.3-0.5-0.4-1.1-0.4-1.8
			c0-0.7,0.1-1.3,0.4-1.8c0.3-0.5,0.6-0.9,1.1-1.2c0.5-0.3,1-0.4,1.7-0.4c0.5,0,1,0.1,1.4,0.3c0.4,0.2,0.7,0.5,1,0.8
			c0.2,0.4,0.4,0.8,0.4,1.2h-1.5c-0.1-0.3-0.2-0.6-0.4-0.8c-0.2-0.2-0.5-0.3-0.9-0.3c-0.3,0-0.6,0.1-0.8,0.3
			c-0.2,0.2-0.4,0.4-0.6,0.7c-0.1,0.3-0.2,0.7-0.2,1.1c0,0.4,0.1,0.8,0.2,1.1c0.1,0.3,0.3,0.6,0.6,0.7s0.5,0.3,0.8,0.3
			c0.2,0,0.4,0,0.6-0.1c0.2-0.1,0.3-0.2,0.5-0.4c0.1-0.2,0.2-0.4,0.3-0.6h1.5c0,0.5-0.2,0.9-0.4,1.2c-0.2,0.4-0.6,0.6-1,0.8
			C104.6,61.3,104.1,61.4,103.6,61.4z"/>
		<path class="st6" d="M109.2,57.5v3.8h-1.5v-8.7h1.5v3.3h0.1c0.2-0.4,0.4-0.7,0.7-0.9c0.3-0.2,0.7-0.3,1.2-0.3
			c0.5,0,0.9,0.1,1.2,0.3s0.6,0.5,0.8,0.8c0.2,0.4,0.3,0.8,0.3,1.3v4.2h-1.5v-3.9c0-0.4-0.1-0.8-0.3-1S111,56,110.6,56
			c-0.3,0-0.5,0.1-0.7,0.2c-0.2,0.1-0.4,0.3-0.5,0.5S109.2,57.1,109.2,57.5z"/>
		<path class="st6" d="M119.5,52.6v8.7H118v-8.7H119.5z"/>
		<path class="st6" d="M121.9,53.8c-0.2,0-0.5-0.1-0.6-0.2c-0.2-0.2-0.3-0.4-0.3-0.6s0.1-0.4,0.3-0.6c0.2-0.2,0.4-0.2,0.6-0.2
			c0.2,0,0.5,0.1,0.6,0.2c0.2,0.2,0.3,0.4,0.3,0.6s-0.1,0.4-0.3,0.6C122.3,53.7,122.1,53.8,121.9,53.8z M121.1,61.3v-6.5h1.5v6.5
			H121.1z"/>
		<path class="st6" d="M129.4,56.5l-1.4,0.2c0-0.1-0.1-0.3-0.2-0.4c-0.1-0.1-0.2-0.2-0.4-0.3s-0.4-0.1-0.6-0.1
			c-0.3,0-0.6,0.1-0.8,0.2c-0.2,0.1-0.3,0.3-0.3,0.5c0,0.2,0.1,0.3,0.2,0.5s0.4,0.2,0.7,0.3l1.1,0.2c0.6,0.1,1.1,0.3,1.4,0.6
			c0.3,0.3,0.5,0.7,0.5,1.1c0,0.4-0.1,0.8-0.4,1.1c-0.2,0.3-0.6,0.6-1,0.7c-0.4,0.2-0.9,0.3-1.4,0.3c-0.8,0-1.4-0.2-1.9-0.5
			c-0.5-0.3-0.8-0.8-0.9-1.4l1.5-0.1c0.1,0.3,0.2,0.5,0.4,0.7c0.2,0.2,0.5,0.2,0.9,0.2c0.4,0,0.7-0.1,0.9-0.2
			c0.2-0.2,0.3-0.3,0.3-0.6c0-0.2-0.1-0.3-0.2-0.5s-0.4-0.2-0.7-0.3l-1.1-0.2c-0.6-0.1-1.1-0.4-1.4-0.7s-0.5-0.7-0.4-1.2
			c0-0.4,0.1-0.8,0.3-1.1s0.5-0.5,0.9-0.7c0.4-0.2,0.9-0.2,1.4-0.2c0.8,0,1.4,0.2,1.8,0.5C129,55.5,129.3,55.9,129.4,56.5z"/>
		<path class="st6" d="M134.1,54.7v1.2h-3.8v-1.2H134.1z M131.3,53.2h1.5v6.1c0,0.2,0,0.4,0.1,0.5c0.1,0.1,0.1,0.2,0.3,0.2
			c0.1,0,0.2,0.1,0.3,0.1c0.1,0,0.2,0,0.3,0s0.1,0,0.2,0l0.3,1.2c-0.1,0-0.2,0.1-0.4,0.1s-0.3,0.1-0.6,0.1c-0.4,0-0.7,0-1-0.2
			s-0.6-0.3-0.7-0.6c-0.2-0.3-0.3-0.6-0.3-1V53.2z"/>
	</g>
	<g>
		<path d="M261.4,40.4c-0.1-0.4-0.3-0.8-0.6-1c-0.4-0.2-0.8-0.4-1.3-0.4c-0.4,0-0.7,0.1-1,0.2c-0.3,0.1-0.5,0.3-0.7,0.5
			c-0.2,0.2-0.2,0.5-0.2,0.7c0,0.2,0.1,0.4,0.2,0.6c0.1,0.2,0.3,0.3,0.4,0.4s0.4,0.2,0.6,0.3c0.2,0.1,0.4,0.1,0.5,0.2l0.9,0.2
			c0.2,0.1,0.5,0.1,0.8,0.2c0.3,0.1,0.5,0.2,0.8,0.4c0.3,0.2,0.5,0.4,0.6,0.7s0.3,0.6,0.3,1c0,0.5-0.1,0.9-0.4,1.3s-0.6,0.7-1.1,0.9
			c-0.5,0.2-1,0.3-1.7,0.3c-0.6,0-1.2-0.1-1.6-0.3s-0.8-0.5-1.1-0.8c-0.3-0.4-0.4-0.8-0.4-1.3h1.1c0,0.3,0.1,0.6,0.3,0.8
			c0.2,0.2,0.4,0.4,0.7,0.5c0.3,0.1,0.6,0.2,1,0.2c0.4,0,0.8-0.1,1.1-0.2c0.3-0.1,0.6-0.3,0.8-0.6s0.3-0.5,0.3-0.8
			c0-0.3-0.1-0.5-0.2-0.7c-0.2-0.2-0.4-0.3-0.6-0.4c-0.3-0.1-0.5-0.2-0.9-0.3l-1.1-0.3c-0.7-0.2-1.2-0.5-1.6-0.8
			c-0.4-0.4-0.6-0.8-0.6-1.4c0-0.5,0.1-0.9,0.4-1.3c0.3-0.4,0.6-0.6,1.1-0.9s1-0.3,1.5-0.3c0.6,0,1.1,0.1,1.5,0.3
			c0.4,0.2,0.8,0.5,1,0.8c0.3,0.3,0.4,0.7,0.4,1.2H261.4z"/>
		<path d="M266.9,47.1c-0.6,0-1.2-0.1-1.6-0.4s-0.8-0.7-1.1-1.2c-0.2-0.5-0.4-1.1-0.4-1.8s0.1-1.3,0.4-1.8c0.2-0.5,0.6-0.9,1-1.2
			c0.4-0.3,1-0.4,1.5-0.4c0.3,0,0.7,0.1,1,0.2c0.3,0.1,0.6,0.3,0.9,0.6c0.3,0.3,0.5,0.6,0.7,1c0.2,0.4,0.2,0.9,0.2,1.5V44h-5v-0.9h4
			c0-0.4-0.1-0.7-0.2-1c-0.1-0.3-0.4-0.5-0.6-0.7c-0.3-0.2-0.6-0.3-0.9-0.3c-0.4,0-0.7,0.1-1,0.3c-0.3,0.2-0.5,0.5-0.7,0.8
			c-0.2,0.3-0.2,0.7-0.2,1v0.6c0,0.5,0.1,0.9,0.3,1.3s0.4,0.6,0.7,0.8c0.3,0.2,0.7,0.3,1.1,0.3c0.3,0,0.5,0,0.7-0.1s0.4-0.2,0.6-0.3
			c0.2-0.2,0.3-0.3,0.4-0.6l1,0.3c-0.1,0.3-0.3,0.6-0.5,0.9c-0.2,0.2-0.5,0.4-0.9,0.6C267.8,47,267.4,47.1,266.9,47.1z"/>
		<path d="M272.2,38.2v8.7h-1v-8.7H272.2z"/>
		<path d="M276.8,47.1c-0.6,0-1.2-0.1-1.6-0.4s-0.8-0.7-1.1-1.2c-0.2-0.5-0.4-1.1-0.4-1.8s0.1-1.3,0.4-1.8c0.2-0.5,0.6-0.9,1-1.2
			c0.4-0.3,1-0.4,1.5-0.4c0.3,0,0.7,0.1,1,0.2c0.3,0.1,0.6,0.3,0.9,0.6c0.3,0.3,0.5,0.6,0.7,1c0.2,0.4,0.2,0.9,0.2,1.5V44h-5v-0.9h4
			c0-0.4-0.1-0.7-0.2-1c-0.1-0.3-0.4-0.5-0.6-0.7c-0.3-0.2-0.6-0.3-0.9-0.3c-0.4,0-0.7,0.1-1,0.3c-0.3,0.2-0.5,0.5-0.7,0.8
			c-0.2,0.3-0.2,0.7-0.2,1v0.6c0,0.5,0.1,0.9,0.3,1.3s0.4,0.6,0.7,0.8c0.3,0.2,0.7,0.3,1.1,0.3c0.3,0,0.5,0,0.7-0.1s0.4-0.2,0.6-0.3
			c0.2-0.2,0.3-0.3,0.4-0.6l1,0.3c-0.1,0.3-0.3,0.6-0.5,0.9c-0.2,0.2-0.5,0.4-0.9,0.6C277.6,47,277.2,47.1,276.8,47.1z"/>
		<path d="M283.7,47.1c-0.6,0-1.1-0.1-1.6-0.4c-0.4-0.3-0.8-0.7-1-1.2c-0.2-0.5-0.4-1.1-0.4-1.7c0-0.7,0.1-1.3,0.4-1.8
			c0.2-0.5,0.6-0.9,1-1.2c0.4-0.3,1-0.4,1.5-0.4c0.5,0,0.9,0.1,1.2,0.3c0.4,0.2,0.7,0.4,0.9,0.7c0.2,0.3,0.4,0.7,0.4,1.1h-1
			c-0.1-0.3-0.2-0.6-0.5-0.8c-0.3-0.2-0.6-0.3-1.1-0.3c-0.4,0-0.7,0.1-1,0.3s-0.5,0.5-0.7,0.9c-0.2,0.4-0.2,0.8-0.2,1.3
			c0,0.5,0.1,0.9,0.2,1.3c0.2,0.4,0.4,0.7,0.7,0.9s0.6,0.3,1,0.3c0.3,0,0.5,0,0.7-0.1c0.2-0.1,0.4-0.2,0.5-0.4
			c0.1-0.2,0.3-0.4,0.3-0.6h1c-0.1,0.4-0.2,0.7-0.4,1c-0.2,0.3-0.5,0.6-0.9,0.7S284.2,47.1,283.7,47.1z"/>
		<path d="M290.6,40.4v0.9h-3.4v-0.9H290.6z M288.2,38.8h1v6.2c0,0.3,0,0.5,0.1,0.6c0.1,0.1,0.2,0.2,0.3,0.3c0.1,0,0.3,0.1,0.4,0.1
			c0.1,0,0.2,0,0.3,0c0.1,0,0.1,0,0.2,0l0.2,0.9c-0.1,0-0.2,0.1-0.3,0.1c-0.1,0-0.3,0-0.5,0c-0.3,0-0.6-0.1-0.8-0.2
			s-0.5-0.3-0.7-0.6s-0.3-0.6-0.3-0.9V38.8z"/>
		<path class="st6" d="M246.7,61.3v-8.7h5.6v1.3h-4v2.4h3.6v1.3h-3.6v3.7H246.7z"/>
		<path class="st6" d="M255.6,61.5c-0.4,0-0.8-0.1-1.1-0.2c-0.3-0.1-0.6-0.4-0.8-0.7c-0.2-0.3-0.3-0.7-0.3-1.1
			c0-0.4,0.1-0.7,0.2-0.9c0.1-0.2,0.3-0.4,0.6-0.6c0.2-0.1,0.5-0.3,0.8-0.3s0.6-0.1,0.9-0.2c0.4,0,0.7-0.1,0.9-0.1
			c0.2,0,0.4-0.1,0.5-0.2c0.1-0.1,0.2-0.2,0.2-0.3v0c0-0.3-0.1-0.6-0.3-0.7c-0.2-0.2-0.5-0.3-0.8-0.3c-0.4,0-0.7,0.1-0.9,0.2
			c-0.2,0.2-0.4,0.4-0.4,0.6l-1.4-0.2c0.1-0.4,0.3-0.7,0.6-1s0.6-0.5,1-0.6s0.8-0.2,1.3-0.2c0.3,0,0.6,0,0.9,0.1
			c0.3,0.1,0.6,0.2,0.9,0.4c0.3,0.2,0.5,0.4,0.6,0.7c0.2,0.3,0.2,0.7,0.2,1.1v4.4h-1.5v-0.9h-0.1c-0.1,0.2-0.2,0.4-0.4,0.5
			c-0.2,0.2-0.4,0.3-0.6,0.4S255.9,61.5,255.6,61.5z M256,60.3c0.3,0,0.6-0.1,0.8-0.2c0.2-0.1,0.4-0.3,0.5-0.5
			c0.1-0.2,0.2-0.4,0.2-0.7v-0.8c0,0-0.1,0.1-0.2,0.1c-0.1,0-0.2,0.1-0.4,0.1c-0.1,0-0.3,0-0.4,0.1c-0.1,0-0.3,0-0.4,0.1
			c-0.2,0-0.4,0.1-0.6,0.2c-0.2,0.1-0.3,0.2-0.4,0.3c-0.1,0.1-0.2,0.3-0.2,0.5c0,0.3,0.1,0.5,0.3,0.6
			C255.4,60.3,255.7,60.3,256,60.3z"/>
		<path class="st6" d="M266.4,54.8l-2.3,6.5h-1.7l-2.3-6.5h1.6l1.5,4.9h0.1l1.5-4.9H266.4z"/>
		<path class="st6" d="M270.4,61.5c-0.6,0-1.2-0.1-1.7-0.4s-0.8-0.7-1.1-1.2c-0.3-0.5-0.4-1.1-0.4-1.8s0.1-1.3,0.4-1.8
			c0.3-0.5,0.6-0.9,1.1-1.2s1-0.4,1.7-0.4c0.6,0,1.2,0.1,1.7,0.4s0.8,0.7,1.1,1.2c0.3,0.5,0.4,1.1,0.4,1.8s-0.1,1.3-0.4,1.8
			c-0.3,0.5-0.6,0.9-1.1,1.2S271,61.5,270.4,61.5z M270.4,60.2c0.3,0,0.6-0.1,0.9-0.3s0.4-0.4,0.5-0.8c0.1-0.3,0.2-0.7,0.2-1.1
			c0-0.4-0.1-0.8-0.2-1.1c-0.1-0.3-0.3-0.6-0.5-0.8c-0.2-0.2-0.5-0.3-0.9-0.3c-0.4,0-0.6,0.1-0.9,0.3c-0.2,0.2-0.4,0.5-0.5,0.8
			c-0.1,0.3-0.2,0.7-0.2,1.1c0,0.4,0.1,0.8,0.2,1.1c0.1,0.3,0.3,0.6,0.5,0.8S270,60.2,270.4,60.2z"/>
		<path class="st6" d="M279,58.6v-3.8h1.5v6.5H279v-1.2H279c-0.1,0.4-0.4,0.7-0.7,0.9c-0.3,0.2-0.8,0.3-1.2,0.3
			c-0.4,0-0.8-0.1-1.1-0.3c-0.3-0.2-0.6-0.5-0.8-0.8c-0.2-0.4-0.3-0.8-0.3-1.3v-4.2h1.5v3.9c0,0.4,0.1,0.7,0.3,1
			c0.2,0.2,0.5,0.4,0.9,0.4c0.2,0,0.4-0.1,0.7-0.2c0.2-0.1,0.4-0.3,0.5-0.5S279,58.9,279,58.6z"/>
		<path class="st6" d="M282.1,61.3v-6.5h1.5v1.1h0.1c0.1-0.4,0.3-0.7,0.6-0.9c0.3-0.2,0.6-0.3,1-0.3c0.1,0,0.2,0,0.3,0
			c0.1,0,0.2,0,0.3,0v1.4c-0.1,0-0.2,0-0.3-0.1s-0.3,0-0.4,0c-0.3,0-0.5,0.1-0.8,0.2s-0.4,0.3-0.5,0.5c-0.1,0.2-0.2,0.5-0.2,0.7v3.8
			H282.1z"/>
		<path class="st6" d="M287.6,53.9c-0.2,0-0.5-0.1-0.6-0.2c-0.2-0.2-0.3-0.4-0.3-0.6s0.1-0.4,0.3-0.6c0.2-0.2,0.4-0.2,0.6-0.2
			c0.2,0,0.5,0.1,0.6,0.2c0.2,0.2,0.3,0.4,0.3,0.6s-0.1,0.4-0.3,0.6C288.1,53.8,287.9,53.9,287.6,53.9z M286.9,61.3v-6.5h1.5v6.5
			H286.9z"/>
		<path class="st6" d="M293.3,54.8V56h-3.8v-1.2H293.3z M290.4,53.2h1.5v6.1c0,0.2,0,0.4,0.1,0.5s0.1,0.2,0.3,0.2
			c0.1,0,0.2,0.1,0.3,0.1c0.1,0,0.2,0,0.3,0c0.1,0,0.1,0,0.2,0l0.3,1.2c-0.1,0-0.2,0.1-0.4,0.1c-0.2,0-0.3,0.1-0.6,0.1
			c-0.4,0-0.7,0-1-0.2s-0.6-0.3-0.7-0.6c-0.2-0.3-0.3-0.6-0.3-1V53.2z"/>
		<path class="st6" d="M297.5,61.5c-0.7,0-1.2-0.1-1.7-0.4c-0.5-0.3-0.8-0.7-1.1-1.2c-0.3-0.5-0.4-1.1-0.4-1.8
			c0-0.7,0.1-1.3,0.4-1.8c0.3-0.5,0.6-0.9,1.1-1.2c0.5-0.3,1-0.4,1.6-0.4c0.4,0,0.8,0.1,1.1,0.2c0.4,0.1,0.7,0.3,1,0.6
			c0.3,0.3,0.5,0.6,0.7,1c0.2,0.4,0.2,0.9,0.2,1.5v0.5H295v-1h3.9c0-0.3-0.1-0.6-0.2-0.8s-0.3-0.4-0.5-0.5c-0.2-0.1-0.5-0.2-0.8-0.2
			c-0.3,0-0.6,0.1-0.8,0.2c-0.2,0.2-0.4,0.4-0.6,0.6c-0.1,0.2-0.2,0.5-0.2,0.8v0.9c0,0.4,0.1,0.7,0.2,1s0.3,0.5,0.6,0.6
			s0.5,0.2,0.9,0.2c0.2,0,0.4,0,0.6-0.1c0.2-0.1,0.3-0.2,0.5-0.3c0.1-0.1,0.2-0.3,0.3-0.5l1.4,0.2c-0.1,0.4-0.3,0.7-0.5,1
			s-0.6,0.5-1,0.7S298,61.5,297.5,61.5z"/>
	</g>
	<g>
		<path d="M429.9,39.2c-0.1-0.4-0.3-0.8-0.6-1c-0.4-0.2-0.8-0.4-1.3-0.4c-0.4,0-0.7,0.1-1,0.2c-0.3,0.1-0.5,0.3-0.7,0.5
			c-0.2,0.2-0.2,0.5-0.2,0.7c0,0.2,0.1,0.4,0.2,0.6c0.1,0.2,0.3,0.3,0.4,0.4s0.4,0.2,0.6,0.3c0.2,0.1,0.4,0.1,0.5,0.2l0.9,0.2
			c0.2,0.1,0.5,0.1,0.8,0.2c0.3,0.1,0.5,0.2,0.8,0.4c0.3,0.2,0.5,0.4,0.6,0.7s0.3,0.6,0.3,1c0,0.5-0.1,0.9-0.4,1.3s-0.6,0.7-1.1,0.9
			c-0.5,0.2-1,0.3-1.7,0.3c-0.6,0-1.2-0.1-1.6-0.3s-0.8-0.5-1.1-0.8c-0.3-0.4-0.4-0.8-0.4-1.3h1.1c0,0.3,0.1,0.6,0.3,0.8
			c0.2,0.2,0.4,0.4,0.7,0.5c0.3,0.1,0.6,0.2,1,0.2c0.4,0,0.8-0.1,1.1-0.2c0.3-0.1,0.6-0.3,0.8-0.6s0.3-0.5,0.3-0.8
			c0-0.3-0.1-0.5-0.2-0.7c-0.2-0.2-0.4-0.3-0.6-0.4c-0.3-0.1-0.5-0.2-0.9-0.3l-1.1-0.3c-0.7-0.2-1.2-0.5-1.6-0.8
			c-0.4-0.4-0.6-0.8-0.6-1.4c0-0.5,0.1-0.9,0.4-1.3c0.3-0.4,0.6-0.6,1.1-0.9s1-0.3,1.5-0.3c0.6,0,1.1,0.1,1.5,0.3
			c0.4,0.2,0.8,0.5,1,0.8c0.3,0.3,0.4,0.7,0.4,1.2H429.9z"/>
		<path d="M435.4,45.9c-0.6,0-1.2-0.1-1.6-0.4s-0.8-0.7-1.1-1.2c-0.2-0.5-0.4-1.1-0.4-1.8s0.1-1.3,0.4-1.8c0.2-0.5,0.6-0.9,1-1.2
			c0.4-0.3,1-0.4,1.5-0.4c0.3,0,0.7,0.1,1,0.2c0.3,0.1,0.6,0.3,0.9,0.6c0.3,0.3,0.5,0.6,0.7,1c0.2,0.4,0.2,0.9,0.2,1.5v0.4h-5v-0.9
			h4c0-0.4-0.1-0.7-0.2-1c-0.1-0.3-0.4-0.5-0.6-0.7c-0.3-0.2-0.6-0.3-0.9-0.3c-0.4,0-0.7,0.1-1,0.3c-0.3,0.2-0.5,0.5-0.7,0.8
			c-0.2,0.3-0.2,0.7-0.2,1v0.6c0,0.5,0.1,0.9,0.3,1.3s0.4,0.6,0.7,0.8c0.3,0.2,0.7,0.3,1.1,0.3c0.3,0,0.5,0,0.7-0.1s0.4-0.2,0.6-0.3
			c0.2-0.2,0.3-0.3,0.4-0.6l1,0.3c-0.1,0.3-0.3,0.6-0.5,0.9c-0.2,0.2-0.5,0.4-0.9,0.6C436.2,45.8,435.8,45.9,435.4,45.9z"/>
		<path d="M440.6,37v8.7h-1V37H440.6z"/>
		<path d="M445.2,45.9c-0.6,0-1.2-0.1-1.6-0.4s-0.8-0.7-1.1-1.2c-0.2-0.5-0.4-1.1-0.4-1.8s0.1-1.3,0.4-1.8c0.2-0.5,0.6-0.9,1-1.2
			c0.4-0.3,1-0.4,1.5-0.4c0.3,0,0.7,0.1,1,0.2c0.3,0.1,0.6,0.3,0.9,0.6c0.3,0.3,0.5,0.6,0.7,1c0.2,0.4,0.2,0.9,0.2,1.5v0.4h-5v-0.9
			h4c0-0.4-0.1-0.7-0.2-1c-0.1-0.3-0.4-0.5-0.6-0.7c-0.3-0.2-0.6-0.3-0.9-0.3c-0.4,0-0.7,0.1-1,0.3c-0.3,0.2-0.5,0.5-0.7,0.8
			c-0.2,0.3-0.2,0.7-0.2,1v0.6c0,0.5,0.1,0.9,0.3,1.3s0.4,0.6,0.7,0.8c0.3,0.2,0.7,0.3,1.1,0.3c0.3,0,0.5,0,0.7-0.1s0.4-0.2,0.6-0.3
			c0.2-0.2,0.3-0.3,0.4-0.6l1,0.3c-0.1,0.3-0.3,0.6-0.5,0.9c-0.2,0.2-0.5,0.4-0.9,0.6C446.1,45.8,445.7,45.9,445.2,45.9z"/>
		<path d="M452.1,45.9c-0.6,0-1.1-0.1-1.6-0.4c-0.4-0.3-0.8-0.7-1-1.2c-0.2-0.5-0.4-1.1-0.4-1.7c0-0.7,0.1-1.3,0.4-1.8
			c0.2-0.5,0.6-0.9,1-1.2c0.4-0.3,1-0.4,1.5-0.4c0.5,0,0.9,0.1,1.2,0.3c0.4,0.2,0.7,0.4,0.9,0.7c0.2,0.3,0.4,0.7,0.4,1.1h-1
			c-0.1-0.3-0.2-0.6-0.5-0.8c-0.3-0.2-0.6-0.3-1.1-0.3c-0.4,0-0.7,0.1-1,0.3s-0.5,0.5-0.7,0.9c-0.2,0.4-0.2,0.8-0.2,1.3
			c0,0.5,0.1,0.9,0.2,1.3c0.2,0.4,0.4,0.7,0.7,0.9s0.6,0.3,1,0.3c0.3,0,0.5,0,0.7-0.1c0.2-0.1,0.4-0.2,0.5-0.4
			c0.1-0.2,0.3-0.4,0.3-0.6h1c-0.1,0.4-0.2,0.7-0.4,1c-0.2,0.3-0.5,0.6-0.9,0.7S452.6,45.9,452.1,45.9z"/>
		<path d="M459,39.2V40h-3.4v-0.9H459z M456.6,37.6h1v6.2c0,0.3,0,0.5,0.1,0.6c0.1,0.1,0.2,0.2,0.3,0.3c0.1,0,0.3,0.1,0.4,0.1
			c0.1,0,0.2,0,0.3,0c0.1,0,0.1,0,0.2,0l0.2,0.9c-0.1,0-0.2,0.1-0.3,0.1c-0.1,0-0.3,0-0.5,0c-0.3,0-0.6-0.1-0.8-0.2
			s-0.5-0.3-0.7-0.6s-0.3-0.6-0.3-0.9V37.6z"/>
		<path class="st6" d="M425.7,53.8c0-0.4-0.2-0.7-0.5-0.9c-0.3-0.2-0.7-0.3-1.1-0.3c-0.3,0-0.6,0-0.8,0.1s-0.4,0.2-0.5,0.4
			c-0.1,0.2-0.2,0.4-0.2,0.6c0,0.2,0,0.3,0.1,0.5c0.1,0.1,0.2,0.2,0.3,0.3s0.3,0.2,0.5,0.2s0.4,0.1,0.5,0.2l0.8,0.2
			c0.3,0.1,0.6,0.2,1,0.3s0.6,0.3,0.8,0.5c0.2,0.2,0.4,0.4,0.6,0.7s0.2,0.6,0.2,1c0,0.5-0.1,1-0.4,1.3c-0.3,0.4-0.6,0.7-1.1,0.9
			c-0.5,0.2-1.1,0.3-1.8,0.3c-0.7,0-1.3-0.1-1.8-0.3c-0.5-0.2-0.9-0.5-1.2-0.9c-0.3-0.4-0.4-0.9-0.5-1.5h1.6c0,0.3,0.1,0.6,0.3,0.8
			c0.2,0.2,0.4,0.4,0.6,0.5c0.3,0.1,0.6,0.1,0.9,0.1c0.3,0,0.6-0.1,0.9-0.2c0.3-0.1,0.5-0.2,0.6-0.4c0.1-0.2,0.2-0.4,0.2-0.7
			c0-0.2-0.1-0.4-0.2-0.6c-0.1-0.1-0.3-0.3-0.5-0.4c-0.2-0.1-0.5-0.2-0.8-0.3l-1-0.3c-0.7-0.2-1.3-0.5-1.7-0.8
			c-0.4-0.4-0.6-0.9-0.6-1.5c0-0.5,0.1-1,0.4-1.4s0.7-0.7,1.1-0.9s1-0.3,1.6-0.3c0.6,0,1.2,0.1,1.6,0.3s0.8,0.5,1.1,0.9
			s0.4,0.8,0.4,1.3H425.7z"/>
		<path class="st6" d="M429.6,62.6c-0.2,0-0.4,0-0.6,0c-0.2,0-0.3-0.1-0.4-0.1l0.4-1.2c0.2,0.1,0.4,0.1,0.6,0.1s0.3-0.1,0.5-0.2
			c0.1-0.1,0.2-0.3,0.3-0.5l0.1-0.4l-2.4-6.7h1.6l1.5,4.9h0.1l1.5-4.9h1.6l-2.6,7.3c-0.1,0.3-0.3,0.6-0.5,0.9
			c-0.2,0.2-0.4,0.4-0.7,0.6C430.4,62.5,430,62.6,429.6,62.6z"/>
		<path class="st6" d="M435.6,60.1v-6.5h1.5v1.1h0.1c0.1-0.4,0.4-0.7,0.7-0.9c0.3-0.2,0.7-0.3,1.1-0.3c0.4,0,0.8,0.1,1.1,0.3
			c0.3,0.2,0.5,0.5,0.6,0.9h0.1c0.1-0.4,0.4-0.7,0.7-0.9s0.8-0.3,1.2-0.3c0.6,0,1.1,0.2,1.5,0.6c0.4,0.4,0.6,0.9,0.6,1.7v4.4h-1.5
			V56c0-0.4-0.1-0.7-0.3-0.9s-0.5-0.3-0.8-0.3c-0.4,0-0.7,0.1-0.9,0.3c-0.2,0.2-0.3,0.5-0.3,0.9v4.1h-1.5v-4.2
			c0-0.3-0.1-0.6-0.3-0.8s-0.5-0.3-0.8-0.3c-0.2,0-0.4,0.1-0.6,0.2c-0.2,0.1-0.3,0.3-0.4,0.5s-0.2,0.4-0.2,0.7v4H435.6z"/>
		<path class="st6" d="M446.4,60.1v-8.7h1.5v3.3h0.1c0.1-0.2,0.2-0.3,0.3-0.5c0.1-0.2,0.3-0.3,0.6-0.5c0.2-0.1,0.6-0.2,0.9-0.2
			c0.5,0,1,0.1,1.4,0.4c0.4,0.3,0.7,0.6,1,1.1c0.2,0.5,0.4,1.1,0.4,1.8c0,0.7-0.1,1.3-0.4,1.8c-0.2,0.5-0.6,0.9-1,1.2
			s-0.9,0.4-1.4,0.4c-0.4,0-0.7-0.1-0.9-0.2s-0.4-0.3-0.6-0.5c-0.1-0.2-0.3-0.3-0.3-0.5h-0.1v1H446.4z M447.9,56.9
			c0,0.4,0.1,0.8,0.2,1.1c0.1,0.3,0.3,0.6,0.5,0.7c0.2,0.2,0.5,0.3,0.8,0.3c0.3,0,0.6-0.1,0.9-0.3c0.2-0.2,0.4-0.4,0.5-0.8
			c0.1-0.3,0.2-0.7,0.2-1.1c0-0.4-0.1-0.8-0.2-1.1c-0.1-0.3-0.3-0.6-0.5-0.7c-0.2-0.2-0.5-0.3-0.9-0.3c-0.3,0-0.6,0.1-0.8,0.3
			c-0.2,0.2-0.4,0.4-0.5,0.7C448,56.1,447.9,56.4,447.9,56.9z"/>
		<path class="st6" d="M456.8,60.3c-0.6,0-1.2-0.1-1.7-0.4s-0.8-0.7-1.1-1.2c-0.3-0.5-0.4-1.1-0.4-1.8s0.1-1.3,0.4-1.8
			c0.3-0.5,0.6-0.9,1.1-1.2s1-0.4,1.7-0.4c0.6,0,1.2,0.1,1.7,0.4s0.8,0.7,1.1,1.2c0.3,0.5,0.4,1.1,0.4,1.8s-0.1,1.3-0.4,1.8
			c-0.3,0.5-0.6,0.9-1.1,1.2S457.4,60.3,456.8,60.3z M456.8,59c0.3,0,0.6-0.1,0.9-0.3s0.4-0.4,0.5-0.8c0.1-0.3,0.2-0.7,0.2-1.1
			c0-0.4-0.1-0.8-0.2-1.1c-0.1-0.3-0.3-0.6-0.5-0.8c-0.2-0.2-0.5-0.3-0.9-0.3c-0.4,0-0.6,0.1-0.9,0.3c-0.2,0.2-0.4,0.5-0.5,0.8
			c-0.1,0.3-0.2,0.7-0.2,1.1c0,0.4,0.1,0.8,0.2,1.1c0.1,0.3,0.3,0.6,0.5,0.8S456.4,59,456.8,59z"/>
		<path class="st6" d="M462.8,51.4v8.7h-1.5v-8.7H462.8z"/>
	</g>
	<g>
		<path d="M597.6,40.4c-0.1-0.4-0.3-0.8-0.6-1c-0.4-0.2-0.8-0.4-1.3-0.4c-0.4,0-0.7,0.1-1,0.2c-0.3,0.1-0.5,0.3-0.7,0.5
			c-0.2,0.2-0.2,0.5-0.2,0.7c0,0.2,0.1,0.4,0.2,0.6c0.1,0.2,0.3,0.3,0.4,0.4s0.4,0.2,0.6,0.3c0.2,0.1,0.4,0.1,0.5,0.2l0.9,0.2
			c0.2,0.1,0.5,0.1,0.8,0.2c0.3,0.1,0.5,0.2,0.8,0.4c0.3,0.2,0.5,0.4,0.6,0.7s0.3,0.6,0.3,1c0,0.5-0.1,0.9-0.4,1.3s-0.6,0.7-1.1,0.9
			c-0.5,0.2-1,0.3-1.7,0.3c-0.6,0-1.2-0.1-1.6-0.3s-0.8-0.5-1.1-0.8c-0.3-0.4-0.4-0.8-0.4-1.3h1.1c0,0.3,0.1,0.6,0.3,0.8
			c0.2,0.2,0.4,0.4,0.7,0.5c0.3,0.1,0.6,0.2,1,0.2c0.4,0,0.8-0.1,1.1-0.2c0.3-0.1,0.6-0.3,0.8-0.6s0.3-0.5,0.3-0.8
			c0-0.3-0.1-0.5-0.2-0.7c-0.2-0.2-0.4-0.3-0.6-0.4c-0.3-0.1-0.5-0.2-0.9-0.3l-1.1-0.3c-0.7-0.2-1.2-0.5-1.6-0.8
			c-0.4-0.4-0.6-0.8-0.6-1.4c0-0.5,0.1-0.9,0.4-1.3c0.3-0.4,0.6-0.6,1.1-0.9s1-0.3,1.5-0.3c0.6,0,1.1,0.1,1.5,0.3
			c0.4,0.2,0.8,0.5,1,0.8c0.3,0.3,0.4,0.7,0.4,1.2H597.6z"/>
		<path d="M603.1,47.1c-0.6,0-1.2-0.1-1.6-0.4s-0.8-0.7-1.1-1.2c-0.2-0.5-0.4-1.1-0.4-1.8s0.1-1.3,0.4-1.8c0.2-0.5,0.6-0.9,1-1.2
			c0.4-0.3,1-0.4,1.5-0.4c0.3,0,0.7,0.1,1,0.2c0.3,0.1,0.6,0.3,0.9,0.6c0.3,0.3,0.5,0.6,0.7,1c0.2,0.4,0.2,0.9,0.2,1.5V44h-5v-0.9h4
			c0-0.4-0.1-0.7-0.2-1c-0.1-0.3-0.4-0.5-0.6-0.7c-0.3-0.2-0.6-0.3-0.9-0.3c-0.4,0-0.7,0.1-1,0.3c-0.3,0.2-0.5,0.5-0.7,0.8
			c-0.2,0.3-0.2,0.7-0.2,1v0.6c0,0.5,0.1,0.9,0.3,1.3s0.4,0.6,0.7,0.8c0.3,0.2,0.7,0.3,1.1,0.3c0.3,0,0.5,0,0.7-0.1s0.4-0.2,0.6-0.3
			c0.2-0.2,0.3-0.3,0.4-0.6l1,0.3c-0.1,0.3-0.3,0.6-0.5,0.9c-0.2,0.2-0.5,0.4-0.9,0.6C604,47,603.6,47.1,603.1,47.1z"/>
		<path d="M608.4,38.2v8.7h-1v-8.7H608.4z"/>
		<path d="M613,47.1c-0.6,0-1.2-0.1-1.6-0.4s-0.8-0.7-1.1-1.2c-0.2-0.5-0.4-1.1-0.4-1.8s0.1-1.3,0.4-1.8c0.2-0.5,0.6-0.9,1-1.2
			c0.4-0.3,1-0.4,1.5-0.4c0.3,0,0.7,0.1,1,0.2c0.3,0.1,0.6,0.3,0.9,0.6c0.3,0.3,0.5,0.6,0.7,1c0.2,0.4,0.2,0.9,0.2,1.5V44h-5v-0.9h4
			c0-0.4-0.1-0.7-0.2-1c-0.1-0.3-0.4-0.5-0.6-0.7c-0.3-0.2-0.6-0.3-0.9-0.3c-0.4,0-0.7,0.1-1,0.3c-0.3,0.2-0.5,0.5-0.7,0.8
			c-0.2,0.3-0.2,0.7-0.2,1v0.6c0,0.5,0.1,0.9,0.3,1.3s0.4,0.6,0.7,0.8c0.3,0.2,0.7,0.3,1.1,0.3c0.3,0,0.5,0,0.7-0.1s0.4-0.2,0.6-0.3
			c0.2-0.2,0.3-0.3,0.4-0.6l1,0.3c-0.1,0.3-0.3,0.6-0.5,0.9c-0.2,0.2-0.5,0.4-0.9,0.6C613.8,47,613.4,47.1,613,47.1z"/>
		<path d="M619.9,47.1c-0.6,0-1.1-0.1-1.6-0.4c-0.4-0.3-0.8-0.7-1-1.2c-0.2-0.5-0.4-1.1-0.4-1.7c0-0.7,0.1-1.3,0.4-1.8
			c0.2-0.5,0.6-0.9,1-1.2c0.4-0.3,1-0.4,1.5-0.4c0.5,0,0.9,0.1,1.2,0.3c0.4,0.2,0.7,0.4,0.9,0.7c0.2,0.3,0.4,0.7,0.4,1.1h-1
			c-0.1-0.3-0.2-0.6-0.5-0.8c-0.3-0.2-0.6-0.3-1.1-0.3c-0.4,0-0.7,0.1-1,0.3s-0.5,0.5-0.7,0.9c-0.2,0.4-0.2,0.8-0.2,1.3
			c0,0.5,0.1,0.9,0.2,1.3c0.2,0.4,0.4,0.7,0.7,0.9s0.6,0.3,1,0.3c0.3,0,0.5,0,0.7-0.1c0.2-0.1,0.4-0.2,0.5-0.4
			c0.1-0.2,0.3-0.4,0.3-0.6h1c-0.1,0.4-0.2,0.7-0.4,1c-0.2,0.3-0.5,0.6-0.9,0.7S620.3,47.1,619.9,47.1z"/>
		<path d="M626.7,40.4v0.9h-3.4v-0.9H626.7z M624.3,38.8h1v6.2c0,0.3,0,0.5,0.1,0.6c0.1,0.1,0.2,0.2,0.3,0.3c0.1,0,0.3,0.1,0.4,0.1
			c0.1,0,0.2,0,0.3,0c0.1,0,0.1,0,0.2,0l0.2,0.9c-0.1,0-0.2,0.1-0.3,0.1c-0.1,0-0.3,0-0.5,0c-0.3,0-0.6-0.1-0.8-0.2
			s-0.5-0.3-0.7-0.6s-0.3-0.6-0.3-0.9V38.8z"/>
		<path class="st6" d="M573.3,61.3h-3v-8.7h3c0.9,0,1.6,0.2,2.2,0.5c0.6,0.3,1.1,0.8,1.4,1.5c0.3,0.7,0.5,1.4,0.5,2.3
			c0,0.9-0.2,1.7-0.5,2.3c-0.3,0.7-0.8,1.2-1.5,1.5C575,61.2,574.2,61.3,573.3,61.3z M571.9,60h1.3c0.6,0,1.1-0.1,1.5-0.3
			c0.4-0.2,0.7-0.6,0.9-1c0.2-0.4,0.3-1,0.3-1.7s-0.1-1.2-0.3-1.7c-0.2-0.4-0.5-0.8-0.9-1c-0.4-0.2-0.9-0.3-1.5-0.3h-1.3V60z"/>
		<path class="st6" d="M581.9,61.5c-0.7,0-1.2-0.1-1.7-0.4c-0.5-0.3-0.8-0.7-1.1-1.2c-0.3-0.5-0.4-1.1-0.4-1.8
			c0-0.7,0.1-1.3,0.4-1.8c0.3-0.5,0.6-0.9,1.1-1.2c0.5-0.3,1-0.4,1.6-0.4c0.4,0,0.8,0.1,1.1,0.2c0.4,0.1,0.7,0.3,1,0.6
			c0.3,0.3,0.5,0.6,0.7,1c0.2,0.4,0.2,0.9,0.2,1.5v0.5h-5.4v-1h3.9c0-0.3-0.1-0.6-0.2-0.8s-0.3-0.4-0.5-0.5
			c-0.2-0.1-0.5-0.2-0.8-0.2c-0.3,0-0.6,0.1-0.8,0.2c-0.2,0.2-0.4,0.4-0.6,0.6c-0.1,0.2-0.2,0.5-0.2,0.8v0.9c0,0.4,0.1,0.7,0.2,1
			s0.3,0.5,0.6,0.6s0.5,0.2,0.9,0.2c0.2,0,0.4,0,0.6-0.1c0.2-0.1,0.3-0.2,0.5-0.3c0.1-0.1,0.2-0.3,0.3-0.5l1.4,0.2
			c-0.1,0.4-0.3,0.7-0.5,1s-0.6,0.5-1,0.7S582.4,61.5,581.9,61.5z"/>
		<path class="st6" d="M589.4,54.8V56h-3.8v-1.2H589.4z M586.5,53.2h1.5v6.1c0,0.2,0,0.4,0.1,0.5s0.1,0.2,0.3,0.2
			c0.1,0,0.2,0.1,0.3,0.1c0.1,0,0.2,0,0.3,0c0.1,0,0.1,0,0.2,0l0.3,1.2c-0.1,0-0.2,0.1-0.4,0.1c-0.2,0-0.3,0.1-0.6,0.1
			c-0.4,0-0.7,0-1-0.2s-0.6-0.3-0.7-0.6c-0.2-0.3-0.3-0.6-0.3-1V53.2z"/>
		<path class="st6" d="M592.5,61.5c-0.4,0-0.8-0.1-1.1-0.2c-0.3-0.1-0.6-0.4-0.8-0.7c-0.2-0.3-0.3-0.7-0.3-1.1
			c0-0.4,0.1-0.7,0.2-0.9c0.1-0.2,0.3-0.4,0.6-0.6c0.2-0.1,0.5-0.3,0.8-0.3s0.6-0.1,0.9-0.2c0.4,0,0.7-0.1,0.9-0.1
			c0.2,0,0.4-0.1,0.5-0.2c0.1-0.1,0.2-0.2,0.2-0.3v0c0-0.3-0.1-0.6-0.3-0.7c-0.2-0.2-0.5-0.3-0.8-0.3c-0.4,0-0.7,0.1-0.9,0.2
			c-0.2,0.2-0.4,0.4-0.4,0.6l-1.4-0.2c0.1-0.4,0.3-0.7,0.6-1s0.6-0.5,1-0.6s0.8-0.2,1.3-0.2c0.3,0,0.6,0,0.9,0.1
			c0.3,0.1,0.6,0.2,0.9,0.4c0.3,0.2,0.5,0.4,0.6,0.7c0.2,0.3,0.2,0.7,0.2,1.1v4.4h-1.5v-0.9h-0.1c-0.1,0.2-0.2,0.4-0.4,0.5
			c-0.2,0.2-0.4,0.3-0.6,0.4S592.9,61.5,592.5,61.5z M592.9,60.3c0.3,0,0.6-0.1,0.8-0.2c0.2-0.1,0.4-0.3,0.5-0.5
			c0.1-0.2,0.2-0.4,0.2-0.7v-0.8c0,0-0.1,0.1-0.2,0.1c-0.1,0-0.2,0.1-0.4,0.1c-0.1,0-0.3,0-0.4,0.1c-0.1,0-0.3,0-0.4,0.1
			c-0.2,0-0.4,0.1-0.6,0.2c-0.2,0.1-0.3,0.2-0.4,0.3c-0.1,0.1-0.2,0.3-0.2,0.5c0,0.3,0.1,0.5,0.3,0.6
			C592.4,60.3,592.6,60.3,592.9,60.3z"/>
		<path class="st6" d="M598.3,53.9c-0.2,0-0.5-0.1-0.6-0.2c-0.2-0.2-0.3-0.4-0.3-0.6s0.1-0.4,0.3-0.6c0.2-0.2,0.4-0.2,0.6-0.2
			c0.2,0,0.5,0.1,0.6,0.2c0.2,0.2,0.3,0.4,0.3,0.6s-0.1,0.4-0.3,0.6C598.8,53.8,598.6,53.9,598.3,53.9z M597.5,61.3v-6.5h1.5v6.5
			H597.5z"/>
		<path class="st6" d="M602.2,52.6v8.7h-1.5v-8.7H602.2z"/>
		<path class="st6" d="M606.7,61.5c-0.7,0-1.2-0.1-1.7-0.4c-0.5-0.3-0.8-0.7-1.1-1.2c-0.3-0.5-0.4-1.1-0.4-1.8
			c0-0.7,0.1-1.3,0.4-1.8c0.3-0.5,0.6-0.9,1.1-1.2c0.5-0.3,1-0.4,1.6-0.4c0.4,0,0.8,0.1,1.1,0.2c0.4,0.1,0.7,0.3,1,0.6
			c0.3,0.3,0.5,0.6,0.7,1c0.2,0.4,0.2,0.9,0.2,1.5v0.5h-5.4v-1h3.9c0-0.3-0.1-0.6-0.2-0.8s-0.3-0.4-0.5-0.5
			c-0.2-0.1-0.5-0.2-0.8-0.2c-0.3,0-0.6,0.1-0.8,0.2c-0.2,0.2-0.4,0.4-0.6,0.6c-0.1,0.2-0.2,0.5-0.2,0.8v0.9c0,0.4,0.1,0.7,0.2,1
			s0.3,0.5,0.6,0.6s0.5,0.2,0.9,0.2c0.2,0,0.4,0,0.6-0.1c0.2-0.1,0.3-0.2,0.5-0.3c0.1-0.1,0.2-0.3,0.3-0.5l1.4,0.2
			c-0.1,0.4-0.3,0.7-0.5,1s-0.6,0.5-1,0.7S607.2,61.5,606.7,61.5z"/>
		<path class="st6" d="M613.3,61.5c-0.5,0-1-0.1-1.4-0.4s-0.7-0.6-1-1.2c-0.2-0.5-0.4-1.1-0.4-1.8c0-0.7,0.1-1.3,0.4-1.8
			c0.2-0.5,0.6-0.9,1-1.1c0.4-0.3,0.9-0.4,1.4-0.4c0.4,0,0.7,0.1,0.9,0.2c0.2,0.1,0.4,0.3,0.6,0.5c0.1,0.2,0.3,0.4,0.3,0.5h0.1v-3.3
			h1.5v8.7h-1.5v-1h-0.1c-0.1,0.2-0.2,0.3-0.3,0.5c-0.2,0.2-0.3,0.3-0.6,0.5S613.7,61.5,613.3,61.5z M613.8,60.2
			c0.3,0,0.6-0.1,0.8-0.3c0.2-0.2,0.4-0.4,0.5-0.7c0.1-0.3,0.2-0.7,0.2-1.1c0-0.4-0.1-0.8-0.2-1.1c-0.1-0.3-0.3-0.6-0.5-0.7
			c-0.2-0.2-0.5-0.3-0.8-0.3c-0.3,0-0.6,0.1-0.9,0.3c-0.2,0.2-0.4,0.4-0.5,0.7c-0.1,0.3-0.2,0.7-0.2,1.1c0,0.4,0.1,0.8,0.2,1.1
			c0.1,0.3,0.3,0.6,0.5,0.8C613.2,60.1,613.4,60.2,613.8,60.2z"/>
		<path class="st6" d="M622.7,52.6l2.3,6.9h0.1l2.3-6.9h1.7l-3.1,8.7h-2l-3.1-8.7H622.7z"/>
		<path class="st6" d="M630.9,53.9c-0.2,0-0.5-0.1-0.6-0.2c-0.2-0.2-0.3-0.4-0.3-0.6s0.1-0.4,0.3-0.6c0.2-0.2,0.4-0.2,0.6-0.2
			c0.2,0,0.5,0.1,0.6,0.2c0.2,0.2,0.3,0.4,0.3,0.6s-0.1,0.4-0.3,0.6C631.4,53.8,631.2,53.9,630.9,53.9z M630.1,61.3v-6.5h1.5v6.5
			H630.1z"/>
		<path class="st6" d="M636.2,61.5c-0.7,0-1.2-0.1-1.7-0.4c-0.5-0.3-0.8-0.7-1.1-1.2c-0.3-0.5-0.4-1.1-0.4-1.8
			c0-0.7,0.1-1.3,0.4-1.8c0.3-0.5,0.6-0.9,1.1-1.2c0.5-0.3,1-0.4,1.6-0.4c0.4,0,0.8,0.1,1.1,0.2c0.4,0.1,0.7,0.3,1,0.6
			c0.3,0.3,0.5,0.6,0.7,1c0.2,0.4,0.2,0.9,0.2,1.5v0.5h-5.4v-1h3.9c0-0.3-0.1-0.6-0.2-0.8s-0.3-0.4-0.5-0.5
			c-0.2-0.1-0.5-0.2-0.8-0.2c-0.3,0-0.6,0.1-0.8,0.2c-0.2,0.2-0.4,0.4-0.6,0.6c-0.1,0.2-0.2,0.5-0.2,0.8v0.9c0,0.4,0.1,0.7,0.2,1
			s0.3,0.5,0.6,0.6s0.5,0.2,0.9,0.2c0.2,0,0.4,0,0.6-0.1c0.2-0.1,0.3-0.2,0.5-0.3c0.1-0.1,0.2-0.3,0.3-0.5l1.4,0.2
			c-0.1,0.4-0.3,0.7-0.5,1s-0.6,0.5-1,0.7S636.7,61.5,636.2,61.5z"/>
		<path class="st6" d="M641.7,61.3l-1.8-6.5h1.6l1.2,4.6h0.1l1.2-4.6h1.6l1.2,4.6h0.1l1.1-4.6h1.6l-1.9,6.5h-1.6l-1.2-4.4h-0.1
			l-1.2,4.4H641.7z"/>
	</g>
</g>
</svg>
