<svg id="Layer_1" data-name="Layer 1" xmlns="http://www.w3.org/2000/svg" xmlns:xlink="http://www.w3.org/1999/xlink" viewBox="0 0 108 108"><defs><style>.cls-1,.cls-4,.cls-5{fill:none;}.cls-2{clip-path:url(#clip-path);}.cls-3{fill:#fff;}.cls-4{stroke:#fff;stroke-miterlimit:10;stroke-width:1.21px;}.cls-5{stroke:#fb4959;stroke-linecap:round;stroke-linejoin:round;stroke-width:2.1px;}.cls-6{fill:#fb4959;}</style><clipPath id="clip-path"><circle class="cls-1" cx="54" cy="54" r="49.66"/></clipPath></defs><g class="cls-2"><rect class="cls-3" x="9.69" y="35.11" width="5.75" height="58.99"/><rect class="cls-3" x="19.93" y="19.36" width="5.75" height="36.8"/><line class="cls-4" x1="43.29" y1="14.78" x2="43.29" y2="74.88"/><line class="cls-4" x1="23.32" y1="11.51" x2="23.32" y2="71.61"/><line class="cls-4" x1="33.65" y1="22.35" x2="33.65" y2="82.46"/><line class="cls-4" x1="53.53" y1="27.71" x2="53.53" y2="87.81"/><line class="cls-4" x1="63.77" y1="39.18" x2="63.77" y2="99.28"/><line class="cls-4" x1="74.01" y1="8.73" x2="74.01" y2="89.79"/><line class="cls-4" x1="84.25" y1="-6.92" x2="84.25" y2="58.44"/><line class="cls-4" x1="12.56" y1="26.74" x2="12.56" y2="102.47"/><rect class="cls-3" x="30.17" y="34.8" width="5.75" height="38.49"/><rect class="cls-3" x="40.41" y="23.43" width="5.75" height="42.8"/><rect class="cls-3" x="50.65" y="38.01" width="5.75" height="39.49"/><rect class="cls-3" x="60.9" y="44.74" width="5.75" height="48.99"/><rect class="cls-3" x="71.14" y="14.24" width="5.75" height="70.04"/><rect class="cls-3" x="81.38" y="1.55" width="5.75" height="48.41"/><path class="cls-5" d="M7.76,83.21,34.4,52.51a.93.93,0,0,1,1.28-.34L56.33,64.29A.92.92,0,0,0,57.6,64l25-35.22"/><polygon class="cls-6" points="85.55 39.4 83.46 39.68 82.09 29.39 71.93 31.51 71.5 29.45 83.88 26.87 85.55 39.4"/></g><path class="cls-3" d="M93.74,72.82a3.17,3.17,0,0,1-1-.18,3.88,3.88,0,0,1-1-.51,3,3,0,0,1-.77-.79,1.85,1.85,0,0,1-.3-1V63.94H89.42l-1.15-1.45h2.44V59.8a.72.72,0,0,0-.59-.78,2.18,2.18,0,0,0-1.33.13,1.79,1.79,0,0,1-.56-1,1.13,1.13,0,0,1,.2-.81,1.61,1.61,0,0,1,.7-.55,2.56,2.56,0,0,1,1-.19,2.09,2.09,0,0,1,1,.2,1.86,1.86,0,0,1,.63.55,2.67,2.67,0,0,1,.4.77,4.94,4.94,0,0,1,.21.9,7.77,7.77,0,0,1,.08,1c0,.34,0,.67,0,1l0,.75c0,.25,0,.49,0,.71h.93L94.44,64H92.36v5.72a2.1,2.1,0,0,0,.17.92.9.9,0,0,0,.46.46,1.42,1.42,0,0,0,.69,0,3.08,3.08,0,0,0,.85-.27,5.76,5.76,0,0,0,.87-.55,6.32,6.32,0,0,0,.75-.7,3.76,3.76,0,0,0,.52-.75,1.23,1.23,0,0,0,.08-1.17,2,2,0,0,1-1,.19A1.52,1.52,0,0,1,94.52,67a2.21,2.21,0,0,1-.24-.78,2.56,2.56,0,0,1,.06-.87,2.06,2.06,0,0,1,.39-.8,2.25,2.25,0,0,1,.76-.59,2.6,2.6,0,0,1,1.14-.23,2.16,2.16,0,0,1,1.36.41,2.31,2.31,0,0,1,.76,1.07A4.38,4.38,0,0,1,99,66.69a6.51,6.51,0,0,1-.25,1.63A7.74,7.74,0,0,1,98,70,6.29,6.29,0,0,1,97,71.39a5.06,5.06,0,0,1-1.44,1A3.84,3.84,0,0,1,93.74,72.82Z"/></svg>