<svg id="Layer_1" data-name="Layer 1" xmlns="http://www.w3.org/2000/svg" viewBox="0 0 108 108"><defs><style>.cls-1{fill:#fdfdfe;}.cls-2{fill:#038443;}.cls-3{fill:#f59120;}</style></defs><path class="cls-1" d="M85.24,63.28c-.67-.7-1.29-1.38-1.94-2a1.16,1.16,0,0,0-1.38-.37,1.32,1.32,0,0,0-.82,1.3c0,4,0,8.06,0,12.08a1.18,1.18,0,0,0,1.26,1.31c4.1,0,8.2,0,12.29,0a1.12,1.12,0,0,0,1.13-.73,1.23,1.23,0,0,0-.24-1.34c-.38-.4-.77-.78-1.16-1.16-1.1-1.1-1.08-1.09-.34-2.4a31.08,31.08,0,0,0,4.36-13.19,16.35,16.35,0,0,0-3.34-11.52,1.42,1.42,0,0,0-1.59-.65,1.33,1.33,0,0,0-.9,1.34,30.16,30.16,0,0,1-1.26,6.31A29.05,29.05,0,0,1,85.24,63.28Z"/><path class="cls-1" d="M44.14,18.66c.42,3.56,2,5.59,5,6.4,5.43,1.45,10.85,3,16.3,4.34a15.89,15.89,0,0,1,7.34,4.05C74,34.62,75.2,35.81,76.37,37a11.91,11.91,0,0,0,10.5,3.43c.73-.09,1-.25.78-1.12-.81-2.75-1.51-5.53-2.25-8.29-1.94-7.21-3.86-14.43-5.81-21.63-.11-.41,0-1-.74-1.06A25.42,25.42,0,0,1,73.9,7.1c-6.66-1.89-13.25-4-20.07-5.29-1.67-.31-3.33-.57-5,.32C44.65,4.41,40.4,6.59,36.17,8.8L23.83,15.24c-2.63,1.38-3.89,3.82-3.33,6.39A6.66,6.66,0,0,0,30,26c2.39-1.17,4.72-2.45,7.08-3.68Z"/><path class="cls-1" d="M90.76,3.53l-.86.12c-.81.11-1.21.4-.85,1.33a23.75,23.75,0,0,1,.74,2.66c.69,2.53,1.37,5.07,2,7.6a1.14,1.14,0,0,1-.8,1.54A1.17,1.17,0,0,1,89.5,16a5.45,5.45,0,0,1-.22-.79c-.86-3.23-1.76-6.45-2.55-9.69-.21-.86-.56-.9-1.25-.68-.88.29-1.77.51-2.66.76-1.23.34-1.49.75-1.16,2q2.52,9.5,5,19l3.45,13c.39,1.45.85,1.71,2.28,1.34,2.18-.57,4.36-1.13,6.53-1.72a4.34,4.34,0,0,0,3.31-5.71q-1.47-5.53-3-11.06-2.06-7.71-4.12-15.42A4.37,4.37,0,0,0,90.76,3.53Z"/><path class="cls-2" d="M44.14,18.66l-7,3.69C34.74,23.58,32.41,24.86,30,26a6.66,6.66,0,0,1-9.52-4.4c-.56-2.57.7-5,3.33-6.39L36.17,8.8c4.23-2.21,8.48-4.39,12.67-6.67,1.66-.89,3.32-.63,5-.32C60.65,3.08,67.24,5.21,73.9,7.1a25.42,25.42,0,0,0,4.95,1.23c.7.06.63.65.74,1.06,2,7.2,3.87,14.42,5.81,21.63.74,2.76,1.44,5.54,2.25,8.29.26.87-.05,1-.78,1.12A11.91,11.91,0,0,1,76.37,37c-1.17-1.19-2.35-2.38-3.55-3.55a15.89,15.89,0,0,0-7.34-4.05C60,28,54.61,26.51,49.18,25.06,46.18,24.25,44.56,22.22,44.14,18.66Z"/><path class="cls-2" d="M90.76,3.53a4.37,4.37,0,0,1,4.45,3.4q2.07,7.71,4.12,15.42,1.47,5.52,3,11.06A4.34,4.34,0,0,1,99,39.12c-2.17.59-4.35,1.15-6.53,1.72-1.43.37-1.89.11-2.28-1.34L86.71,26.55q-2.52-9.5-5-19c-.33-1.25-.07-1.66,1.16-2,.89-.25,1.78-.47,2.66-.76.69-.22,1-.18,1.25.68.79,3.24,1.69,6.46,2.55,9.69a5.45,5.45,0,0,0,.22.79,1.17,1.17,0,0,0,1.54.81,1.14,1.14,0,0,0,.8-1.54c-.68-2.53-1.36-5.07-2-7.6A23.75,23.75,0,0,0,89.05,5c-.36-.93,0-1.22.85-1.33Z"/><path class="cls-1" d="M17.24,104.43a5.77,5.77,0,0,0,.73-.08c1.23-.26,1.23-.26.9-1.51q-1.31-4.89-2.59-9.79c-.28-1.06,0-1.73.73-1.93s1.3.19,1.59,1.28c.93,3.39,1.87,6.77,2.76,10.17.16.63.42.75,1,.59,1-.27,2-.51,3-.78s1.38-.83,1.09-1.91q-4.34-16.14-8.69-32.29c-.3-1.14-.82-1.43-2-1.13q-3.42.9-6.82,1.83C6.15,69.66,5,71.7,5.73,74.51Q7.32,80.43,8.9,86.36c1.31,4.88,2.6,9.75,3.91,14.62A4.29,4.29,0,0,0,17.24,104.43Z"/><path class="cls-2" d="M55.45,106.48c-1.6-.57-3.3-.69-4.94-1.1-6.45-1.6-12.84-3.45-19.2-5.37a3.12,3.12,0,0,0-.88-.26c-1.59.11-1.93-.88-2.28-2.18q-3.79-14.44-7.74-28.85c-.26-.94,0-1.11.87-1.23,4.48-.61,8.08,1,11.12,4.2a27,27,0,0,0,5.65,5,13.37,13.37,0,0,0,3.36,1.46c5.51,1.46,11,3,16.51,4.4,3.49.89,5.7,2.81,5.9,6.77.51-.26.92-.46,1.32-.68,4.26-2.23,8.5-4.49,12.79-6.68a6.62,6.62,0,0,1,9.6,4.34,5.82,5.82,0,0,1-3.15,6.31c-3.13,1.67-6.29,3.3-9.43,4.94l-15.42,8.06c-.6.31-1.21.57-1.82.85Z"/><path class="cls-2" d="M17.24,104.43A4.29,4.29,0,0,1,12.81,101c-1.31-4.87-2.6-9.74-3.91-14.62Q7.32,80.44,5.73,74.51c-.74-2.81.42-4.85,3.21-5.63q3.41-.93,6.82-1.83c1.14-.3,1.66,0,2,1.13q4.35,16.14,8.69,32.29c.29,1.08,0,1.61-1.09,1.91s-2,.51-3,.78c-.57.16-.83,0-1-.59-.89-3.4-1.83-6.78-2.76-10.17-.29-1.09-.81-1.49-1.59-1.28s-1,.87-.73,1.93q1.29,4.9,2.59,9.79c.33,1.25.33,1.25-.9,1.51A5.77,5.77,0,0,1,17.24,104.43Z"/><path class="cls-2" d="M85.24,63.28a29.05,29.05,0,0,0,6.08-11.05,30.16,30.16,0,0,0,1.26-6.31,1.33,1.33,0,0,1,.9-1.34,1.42,1.42,0,0,1,1.59.65,16.35,16.35,0,0,1,3.34,11.52,31.08,31.08,0,0,1-4.36,13.19c-.74,1.31-.76,1.3.34,2.4.39.38.78.76,1.16,1.16a1.23,1.23,0,0,1,.24,1.34,1.12,1.12,0,0,1-1.13.73c-4.09,0-8.19,0-12.29,0a1.18,1.18,0,0,1-1.26-1.31c0-4,0-8.05,0-12.08a1.32,1.32,0,0,1,.82-1.3,1.16,1.16,0,0,1,1.38.37C84,61.9,84.57,62.58,85.24,63.28Z"/><path class="cls-2" d="M24.57,37.91v5.75c0,.64-.07,1.24-.76,1.53s-1.16-.11-1.61-.57c-.26-.27-.54-.52-.8-.78-1.08-1.06-1.08-1.06-2,.09A31.71,31.71,0,0,0,13.05,60.1c-.08.68-.28,1.21-1,1.42s-1.13-.24-1.53-.75c-3.27-4.17-3.9-8.92-3-14a32.47,32.47,0,0,1,4.24-11c.48-.78.41-1.25-.26-1.79a12.68,12.68,0,0,1-1.17-1.15c-.46-.45-.84-.92-.52-1.61a1.47,1.47,0,0,1,1.54-.79h11c2,0,2.2.19,2.2,2.25Z"/><path class="cls-3" d="M54,30.81A22.82,22.82,0,1,0,76.83,53.67,22.85,22.85,0,0,0,54,30.81Zm0,40.5A17.68,17.68,0,1,1,71.69,53.67,17.69,17.69,0,0,1,54,71.31Z"/><path class="cls-3" d="M54,37.66a16,16,0,1,0,16,16A16,16,0,0,0,54,37.66Zm6.85,20.81a9.73,9.73,0,0,1-.94,2.14,8.47,8.47,0,0,1-1.46,2A7.9,7.9,0,0,1,56.54,64a5.52,5.52,0,0,1-2.4.51,3.26,3.26,0,0,1-1.28-.26,4.09,4.09,0,0,1-1.37-.68,3,3,0,0,1-1-1A2.55,2.55,0,0,1,50,61.12V52.65H48.4l-1.54-2h3.26v-3.6a1,1,0,0,0-.77-1,2.76,2.76,0,0,0-1.8.17,3.11,3.11,0,0,1-.77-1.37,1.34,1.34,0,0,1,.34-1,1.67,1.67,0,0,1,.94-.77,2.75,2.75,0,0,1,1.2-.26,2.9,2.9,0,0,1,1.29.26,2.37,2.37,0,0,1,.85.77,2,2,0,0,1,.52,1,2.8,2.8,0,0,1,.25,1.2,6.34,6.34,0,0,1,.17,1.29v1.28c0,.34-.08.69-.08,1v.94h1.2l1.62,2.06H52.34v7.62a4.08,4.08,0,0,0,.17,1.19,1.13,1.13,0,0,0,.69.6,1,1,0,0,0,.86.09,6.65,6.65,0,0,0,1.19-.34A4.41,4.41,0,0,0,56.37,61a5.12,5.12,0,0,0,1-.95,3.63,3.63,0,0,0,.69-.94,2.23,2.23,0,0,0,.26-.94,2.44,2.44,0,0,0-.17-.6,2.33,2.33,0,0,1-1.29.17,1.65,1.65,0,0,1-1-.34,2.07,2.07,0,0,1-.68-.77,2.31,2.31,0,0,1-.26-1A2.47,2.47,0,0,1,55,54.53a2.51,2.51,0,0,1,.51-1.11,2.29,2.29,0,0,1,1-.77A3.15,3.15,0,0,1,58,52.3a2.79,2.79,0,0,1,1.89.6,2.65,2.65,0,0,1,.94,1.37,5,5,0,0,1,.34,2A19.08,19.08,0,0,1,60.82,58.47Z"/></svg>