<svg id="Layer_1" data-name="Layer 1" xmlns="http://www.w3.org/2000/svg" viewBox="0 0 108 108"><defs><style>.cls-1{fill:#038443;}.cls-2{fill:#f59120;}.cls-3,.cls-5,.cls-8,.cls-9{fill:none;stroke-miterlimit:10;}.cls-3{stroke:#f59120;stroke-width:0.63px;}.cls-4{fill:#6ba583;}.cls-5{stroke:#737375;stroke-width:0.28px;}.cls-6{fill:#d75442;}.cls-7{fill:#fff;}.cls-8{stroke:#9cff64;}.cls-8,.cls-9{stroke-width:0.15px;}.cls-9{stroke:#71002c;}</style></defs><path class="cls-1" d="M100.4,107.55V82.18a.61.61,0,0,0-.61-.6H90.72a.6.6,0,0,0-.61.6v25.37Z"/><path class="cls-2" d="M54.39,107.55V59.4a.6.6,0,0,0-.6-.6H44.71a.6.6,0,0,0-.6.6v48.15Z"/><path class="cls-1" d="M42.89,107.55V69.41a.6.6,0,0,0-.6-.61H33.21a.6.6,0,0,0-.6.61v38.14Z"/><path class="cls-1" d="M88.9,107.55V69.41a.61.61,0,0,0-.61-.61H79.22a.61.61,0,0,0-.61.61v38.14Z"/><path class="cls-2" d="M77.39,107.55V66.19a.6.6,0,0,0-.6-.6H67.71a.6.6,0,0,0-.6.6v41.36Z"/><path class="cls-1" d="M65.89,107.55V74.26a.61.61,0,0,0-.6-.61H56.21a.61.61,0,0,0-.6.61v33.29Z"/><path class="cls-2" d="M31.39,107.55V66.19a.6.6,0,0,0-.6-.6H21.71a.6.6,0,0,0-.6.6v41.36Z"/><path class="cls-1" d="M19.89,107.55V74.26a.61.61,0,0,0-.6-.61H10.21a.61.61,0,0,0-.6.61v33.29Z"/><polyline class="cls-3" points="15.03 64.92 26.3 54.63 37.46 61 48.92 49.05 60.47 58.65 90.24 63.35 95.27 69.09"/><circle class="cls-1" cx="14.75" cy="65.04" r="1.58"/><circle class="cls-1" cx="26.31" cy="54.73" r="1.58"/><circle class="cls-1" cx="37.35" cy="60.92" r="1.58"/><circle class="cls-1" cx="48.9" cy="49.22" r="1.58"/><circle class="cls-1" cx="60.56" cy="58.47" r="1.58"/><circle class="cls-1" cx="72.03" cy="60.53" r="1.58"/><circle class="cls-1" cx="83.23" cy="62.24" r="1.58"/><circle class="cls-1" cx="95.12" cy="69.05" r="1.58"/><rect class="cls-4" x="51.11" y="33.18" width="2.93" height="11.23"/><line class="cls-5" x1="13.43" y1="13.73" x2="13.43" y2="21.77"/><rect class="cls-4" x="11.94" y="2.71" width="2.98" height="11.23"/><line class="cls-5" x1="18.35" y1="11.03" x2="18.35" y2="19.07"/><line class="cls-5" x1="18.35" y1="24.31" x2="18.35" y2="37.74"/><rect class="cls-6" x="16.9" y="18.93" width="2.91" height="5.6"/><line class="cls-5" x1="23.23" y1="45.85" x2="23.23" y2="51.63"/><rect class="cls-4" x="21.78" y="21.57" width="2.91" height="24.78"/><line class="cls-5" x1="28.12" y1="38.38" x2="28.12" y2="44.16"/><rect class="cls-6" x="26.67" y="6.37" width="2.91" height="32.63"/><line class="cls-5" x1="33" y1="30.34" x2="33" y2="41.36"/><line class="cls-5" x1="33" y1="6.3" x2="33" y2="11.07"/><rect class="cls-4" x="31.55" y="9.06" width="2.91" height="21.68"/><line class="cls-5" x1="37.89" y1="0.45" x2="37.89" y2="14.87"/><line class="cls-5" x1="37.89" y1="19.18" x2="37.89" y2="24.96"/><rect class="cls-6" x="36.43" y="14.26" width="2.91" height="5.92"/><line class="cls-5" x1="42.77" y1="14.3" x2="42.77" y2="28.73"/><line class="cls-5" x1="42.77" y1="30.67" x2="42.77" y2="38.64"/><rect class="cls-6" x="41.32" y="27.87" width="2.91" height="2.94"/><line class="cls-5" x1="47.67" y1="19.9" x2="47.67" y2="34.33"/><line class="cls-5" x1="47.67" y1="39.35" x2="47.67" y2="46.53"/><rect class="cls-4" x="46.2" y="27.87" width="2.93" height="13.78"/><line class="cls-5" x1="57.47" y1="35.19" x2="57.47" y2="42.37"/><rect class="cls-6" x="56.01" y="41.4" width="2.93" height="3.01"/><rect class="cls-4" x="90.24" y="7.66" width="2.93" height="11.23"/><line class="cls-5" x1="62.37" y1="6.22" x2="62.37" y2="0.45"/><rect class="cls-6" x="60.91" y="5.72" width="2.91" height="24.78"/><line class="cls-5" x1="67.25" y1="13.69" x2="67.25" y2="7.91"/><rect class="cls-6" x="65.8" y="13.08" width="2.91" height="32.63"/><line class="cls-5" x1="72.13" y1="21.73" x2="72.13" y2="10.71"/><line class="cls-5" x1="72.13" y1="45.78" x2="72.13" y2="41"/><rect class="cls-4" x="70.68" y="21.34" width="2.91" height="21.68"/><line class="cls-5" x1="77.02" y1="51.63" x2="77.02" y2="37.2"/><line class="cls-5" x1="77.02" y1="32.89" x2="77.02" y2="27.11"/><rect class="cls-6" x="75.57" y="31.89" width="2.91" height="5.92"/><line class="cls-5" x1="81.9" y1="37.77" x2="81.9" y2="23.35"/><line class="cls-5" x1="81.9" y1="21.41" x2="81.9" y2="13.44"/><rect class="cls-4" x="80.45" y="21.26" width="2.91" height="2.94"/><line class="cls-5" x1="86.8" y1="32.18" x2="86.8" y2="17.75"/><line class="cls-5" x1="86.8" y1="12.72" x2="86.8" y2="5.54"/><rect class="cls-6" x="85.33" y="10.42" width="2.93" height="13.78"/><line class="cls-5" x1="96.6" y1="16.88" x2="96.6" y2="9.71"/><rect class="cls-4" x="95.14" y="7.66" width="2.93" height="3.01"/><path class="cls-2" d="M7.42,46.86a7.59,7.59,0,1,0,9.86,4.28A7.6,7.6,0,0,0,7.42,46.86Z"/><polygon class="cls-2" points="91.06 53.27 89.83 52.8 95.99 36.59 97.23 37.06 91.06 53.27"/><path class="cls-2" d="M90.23,42.83a3.12,3.12,0,1,1,3.12-3.12A3.12,3.12,0,0,1,90.23,42.83Zm0-4.69a1.57,1.57,0,1,0,1.57,1.57A1.57,1.57,0,0,0,90.23,38.14Z"/><path class="cls-2" d="M96.61,53.27a3.12,3.12,0,1,1,3.12-3.12A3.13,3.13,0,0,1,96.61,53.27Zm0-4.69a1.57,1.57,0,1,0,1.57,1.57A1.57,1.57,0,0,0,96.61,48.58Z"/><path class="cls-7" d="M7.42,46.86a7.59,7.59,0,1,0,9.86,4.28A7.6,7.6,0,0,0,7.42,46.86Zm4.95,12.53a5.88,5.88,0,1,1,3.32-7.62A5.88,5.88,0,0,1,12.37,59.39Z"/><path class="cls-7" d="M8.25,49a5.31,5.31,0,1,0,6.91,3A5.34,5.34,0,0,0,8.25,49Zm4.66,5.58a2.67,2.67,0,0,1,0,.8,2.33,2.33,0,0,1-.62,1.41,1.89,1.89,0,0,1-.67.47,2.15,2.15,0,0,1-.44.09,3.08,3.08,0,0,1-.48,0,1.54,1.54,0,0,1-.47-.21,1.07,1.07,0,0,1-.28-.4l-1-2.6-.54.21-.71-.42,1-.4-.44-1.11a.3.3,0,0,0-.36-.22.8.8,0,0,0-.52.25.54.54,0,0,1-.4-.31.43.43,0,0,1-.07-.36.82.82,0,0,1,.22-.36,1.11,1.11,0,0,1,.34-.22,1.74,1.74,0,0,1,.43-.09,1.16,1.16,0,0,1,.37.13c.1.08.18.16.29.24a2.26,2.26,0,0,1,.21.34,1.62,1.62,0,0,1,.19.4l.3.74a.64.64,0,0,1,.07.28L9.69,53l.76.45-.88.34.93,2.37a1.25,1.25,0,0,0,.22.34.62.62,0,0,0,.28.13,1,1,0,0,0,.27-.11c.14,0,.21-.16.33-.25a2,2,0,0,0,.25-.37.91.91,0,0,0,.18-.42,2.53,2.53,0,0,0,.12-.4,1.14,1.14,0,0,0,0-.3.65.65,0,0,0-.11-.19.72.72,0,0,1-.38.23.48.48,0,0,1-.35,0,.46.46,0,0,1-.29-.16.56.56,0,0,1-.24-.3,1.2,1.2,0,0,1-.13-.33,1.37,1.37,0,0,1,0-.41,2.44,2.44,0,0,1,.21-.36,1.11,1.11,0,0,1,.44-.28,1,1,0,0,1,.64-.06,1.23,1.23,0,0,1,.48.32,2.05,2.05,0,0,1,.34.57A2.28,2.28,0,0,1,12.91,54.57Z"/><path class="cls-8" d="M6.61,100.52s7.38-5.15,8.2-4.45,3.64-1.17,3.64-1.17l6.32-7s5.16-2.81,5.63-2.58a30.8,30.8,0,0,1,7.73,4.34c3.75,2.92,5.27,2.69,7.15,1.64s.82-2.35,3.63-3,3.86-2.34,4.22-2.34,1.17-.71,3.16.7,5.86.23,8.08.35,6.33-3.4,6.33-3.4,3-2.69,4.45-1.75,7.73-.12,7.73-.12,3.75-2,5.86-.12a53.2,53.2,0,0,0,8.32,6c1.76.82,3.51,5.15,4.8,4.21s1.76-5.62,3.52-6.09"/><path class="cls-9" d="M6.38,88.1s3.16-1.29,5.51.24,3.28,3,4.1,3a68.24,68.24,0,0,1,6.56,1.88l5.5-1.06s7.62-1.87,7.62-3.39a6.42,6.42,0,0,1,2.58-4.57c1.17-.59,3.39-4.22,6.79-4.92s7.5-1.53,7.5-1.53,7.85,3.75,8.2,4.22S63,82.6,63,82.6l3.39,3.28a30.52,30.52,0,0,0,3.52,3.75c2,1.75,1.76,6.79,5.15,6.79s2.46,3.28,5.39,4.92a9,9,0,0,0,5.74,1.06l4.69-2.11,5.39,3.63,7.85,2.81"/></svg>