<?xml version="1.0" encoding="utf-8"?>
<!-- Generator: Adobe Illustrator 26.0.1, SVG Export Plug-In . SVG Version: 6.00 Build 0)  -->
<svg version="1.1" id="Layer_1" xmlns="http://www.w3.org/2000/svg" xmlns:xlink="http://www.w3.org/1999/xlink" x="0px" y="0px"
	 viewBox="0 0 123.26 122.67" style="enable-background:new 0 0 123.26 122.67;" xml:space="preserve">
<style type="text/css">
	.st0{fill:#FFFFFF;}
	.st1{fill:#00B050;}
	.st2{fill:#ED7D31;}
	.st3{fill-rule:evenodd;clip-rule:evenodd;fill:#FFA05F;}
	.st4{fill-rule:evenodd;clip-rule:evenodd;fill:#ED7D31;}
	
		.st5{clip-path:url(#SVGID_00000012470301043345025970000005889612120670193341_);fill:url(#SVGID_00000066502433548009876560000003017541735047950776_);}
	
		.st6{opacity:0.07;clip-path:url(#SVGID_00000012470301043345025970000005889612120670193341_);fill:url(#SVGID_00000078046130396471673600000007677285627755106480_);}
	.st7{fill:#F28F22;}
	.st8{fill:#AFAFB1;}
	.st9{fill:#232020;}
	.st10{fill-rule:evenodd;clip-rule:evenodd;fill:#058246;}
	.st11{fill:#231F20;}
</style>
<g>
	<g>
		<circle class="st0" cx="61.63" cy="61.33" r="60.71"/>
	</g>
	<g>
		<path class="st2" d="M86.73,51.94L61.65,83.47L36.53,51.94h11.91c0.72,0,1.3-0.58,1.3-1.3v-25.3h23.8v25.3
			c0,0.72,0.58,1.3,1.3,1.3H86.73z"/>
		<path class="st2" d="M103.56,78.61v13.52c0,2.88-2.33,5.21-5.21,5.21H24.91c-2.88,0-5.21-2.33-5.21-5.21V78.61
			c0-2.88,2.33-5.21,5.21-5.21h21.74l13.87,16.54c0.59,0.7,1.66,0.7,2.25,0L76.61,73.4h21.74C101.23,73.4,103.56,75.73,103.56,78.61
			z"/>
		<g>
			<circle class="st0" cx="84.04" cy="85.37" r="3.84"/>
			<circle class="st0" cx="95.52" cy="85.37" r="3.84"/>
		</g>
	</g>
</g>
</svg>
