<?xml version="1.0" encoding="utf-8"?>
<!-- Generator: Adobe Illustrator 26.0.1, SVG Export Plug-In . SVG Version: 6.00 Build 0)  -->
<svg version="1.1" id="Layer_1" xmlns="http://www.w3.org/2000/svg" xmlns:xlink="http://www.w3.org/1999/xlink" x="0px" y="0px"
	 viewBox="0 0 473.5 498.5" style="enable-background:new 0 0 473.5 498.5;" xml:space="preserve">
<style type="text/css">
	.st0{fill:none;stroke:#038643;stroke-width:0.5;stroke-miterlimit:10;}
	.st1{fill:#038643;}
	.st2{fill:#231F20;}
	.st3{fill:#FFFFFF;}
	.st4{fill:#F68831;}
	.st5{fill:#028141;}
</style>
<g>
	<path class="st1" d="M276.44,347.75L276.44,347.75c2.12,0,4.11,1.15,5.19,2.99l11.96,20.73l1.12,1.95l0.26,0.45l0.52,0l26.17,0.03
		l-13.09,22.59l-0.26,0.45l0.26,0.45l0.99,1.71l11.75,20.35c1.07,1.85,1.07,4.14,0,5.99l-39.67,68.73c-1.07,1.85-3.06,3-5.19,3
		l-79.37,0c-2.15,0-4.13-1.15-5.19-2.99l-39.68-68.72c-1.06-1.85-1.07-4.14,0-5.99l11.32-19.61l24.65,0c1.28,0,2.47-0.69,3.12-1.8
		c0.66-1.12,0.66-2.5,0-3.61l-12.33-21.34l12.91-22.36c1.06-1.85,3.05-2.99,5.19-2.99L276.44,347.75 M276.44,346.84
		C276.44,346.84,276.44,346.84,276.44,346.84l-79.37,0c-2.45,0-4.75,1.32-5.97,3.45l-13.17,22.81l12.6,21.8
		c0.49,0.83,0.49,1.88,0,2.71c-0.49,0.83-1.37,1.35-2.35,1.35l-25.17,0l-11.58,20.06c-1.23,2.13-1.23,4.76,0,6.89l39.68,68.72
		c1.23,2.15,3.52,3.45,5.97,3.45c0,0,0,0,0,0l79.37,0c2.45,0,4.73-1.3,5.97-3.45l39.67-68.73c1.23-2.13,1.23-4.76,0-6.89
		l-11.75-20.35l-0.99-1.71l13.09-22.59c0.35-0.6-0.08-1.35-0.78-1.35l-26.17-0.03l-1.12-1.95l-11.96-20.73
		C281.17,348.16,278.89,346.84,276.44,346.84L276.44,346.84z"/>
</g>
<g>
	<path class="st1" d="M100.6,261.14l25.82,0c2.13,0,4.12,1.15,5.18,3l39.69,68.74c1.06,1.84,1.06,4.14,0,5.99l-11.97,20.72
		l-1.13,1.94l-0.26,0.45l0.26,0.45l13.06,22.68l-26.11-0.04l-0.52,0l-0.26,0.45l-0.99,1.72l-11.75,20.35
		c-1.07,1.85-3.06,2.99-5.19,3l-79.36,0.01c-2.14,0-4.13-1.15-5.19-3L2.2,338.86c-1.07-1.86-1.07-4.15,0-5.99l39.68-68.73
		c1.07-1.85,3.06-2.99,5.19-3l22.65,0l12.33,21.35c0.64,1.1,1.83,1.8,3.14,1.81c1.28,0,2.48-0.69,3.11-1.8L100.6,261.14
		 M100.08,260.23L87.5,282.04c-0.47,0.83-1.37,1.35-2.33,1.35c-0.01,0-0.01,0-0.02,0c-0.96-0.01-1.86-0.51-2.34-1.35l-12.59-21.8
		l-23.17,0c-2.46,0-4.74,1.32-5.97,3.45L1.41,332.41c-1.25,2.14-1.23,4.77,0,6.9l39.69,68.74c1.23,2.13,3.49,3.44,5.97,3.45
		l79.36-0.01c2.46,0,4.74-1.32,5.97-3.45l11.75-20.35l0.99-1.72l26.11,0.04c0,0,0,0,0,0c0.69,0,1.13-0.75,0.78-1.35l-13.06-22.68
		l1.13-1.94l11.97-20.73c1.22-2.14,1.23-4.77,0-6.9l-39.69-68.74c-1.23-2.12-3.51-3.45-5.97-3.45c0,0,0,0-0.01,0L100.08,260.23
		L100.08,260.23z"/>
</g>
<g>
	<path class="st1" d="M126.42,87.92L126.42,87.92c2.13,0,4.12,1.15,5.19,2.99l11.32,19.61l-12.32,21.35c-0.64,1.1-0.64,2.49,0,3.6
		c0.63,1.12,1.83,1.81,3.13,1.81l24.65-0.01l12.91,22.36c1.07,1.85,1.07,4.14,0,5.99l-39.68,68.74c-1.06,1.84-3.05,2.99-5.19,3
		l-23.93,0l-2.25-0.01l-0.52,0l-0.26,0.45l-13.11,22.65l-13.02-22.63l-0.26-0.45l-0.52,0l-1.98,0l-23.5,0
		c-2.13,0-4.12-1.15-5.19-2.99L2.19,165.66c-1.07-1.85-1.06-4.15,0-5.99l39.68-68.74c1.07-1.85,3.04-3,5.19-3L126.42,87.92
		 M126.42,87.02l-79.36,0c-0.01,0-0.02,0-0.03,0c-2.46,0-4.72,1.33-5.94,3.45L1.4,159.21c-1.23,2.13-1.24,4.74,0,6.9l39.68,68.72
		c1.23,2.13,3.51,3.44,5.97,3.45l23.5,0l1.98,0l13.02,22.63c0.17,0.3,0.48,0.45,0.78,0.45c0.3,0,0.61-0.15,0.78-0.45l13.11-22.65
		l2.25,0.01l23.94,0c2.47-0.01,4.74-1.32,5.97-3.45l39.68-68.74c1.23-2.13,1.23-4.77,0-6.9l-13.17-22.81l-25.17,0.01
		c-0.01,0-0.01,0-0.02,0c-0.96,0-1.85-0.52-2.32-1.35c-0.48-0.84-0.49-1.86,0-2.71l12.58-21.8l-11.59-20.06
		C131.15,88.34,128.87,87.02,126.42,87.02L126.42,87.02z"/>
</g>
<g>
	<path class="st1" d="M276.42,1.32L276.42,1.32c2.15,0,4.13,1.15,5.19,3l39.68,68.72c1.07,1.85,1.07,4.14,0,5.99l-11.32,19.61
		l-24.65,0c-1.28,0-2.47,0.69-3.12,1.8c-0.66,1.12-0.66,2.5,0,3.61l12.33,21.34l-12.91,22.36c-1.06,1.85-3.05,2.99-5.19,2.99
		l-79.37,0c-2.12,0-4.11-1.15-5.19-2.99l-11.96-20.73l-1.12-1.95l-0.26-0.45l-0.52,0l-26.17-0.03L164.93,102l0.26-0.45l-0.26-0.45
		l-0.99-1.71l-11.75-20.35c-1.06-1.85-1.07-4.14,0-5.99l39.67-68.73c1.07-1.85,3.06-3,5.19-3L276.42,1.32 M276.42,0.41
		C276.42,0.41,276.42,0.41,276.42,0.41l-79.37,0c-2.45,0-4.73,1.3-5.97,3.45l-39.67,68.73c-1.23,2.13-1.23,4.76,0,6.89l11.75,20.35
		l0.99,1.71l-13.09,22.59c-0.35,0.6,0.08,1.35,0.78,1.35l26.17,0.03l1.12,1.95l11.96,20.73c1.25,2.13,3.52,3.45,5.97,3.45
		c0,0,0,0,0,0l79.37,0c2.45,0,4.75-1.32,5.97-3.45l13.17-22.81l-12.6-21.8c-0.49-0.83-0.49-1.88,0-2.71
		c0.49-0.83,1.37-1.35,2.35-1.35l25.17,0l11.58-20.06c1.23-2.13,1.23-4.76,0-6.89L282.4,3.86C281.17,1.71,278.88,0.41,276.42,0.41
		L276.42,0.41z"/>
</g>
<g>
	<path class="st1" d="M426.43,87.91L426.43,87.91c2.13,0,4.12,1.15,5.19,3l39.69,68.74c1.07,1.86,1.07,4.15,0,5.99l-39.68,68.73
		c-1.07,1.85-3.06,2.99-5.19,3l-22.65,0l-12.33-21.35c-0.64-1.1-1.83-1.8-3.14-1.81c-1.28,0-2.48,0.69-3.11,1.8l-12.32,21.35
		l-25.82,0c-2.13,0-4.12-1.15-5.18-3l-39.69-68.74c-1.06-1.84-1.06-4.14,0-5.99l11.97-20.72l1.13-1.94l0.26-0.45l-0.26-0.45
		l-13.06-22.68l26.11,0.04l0.52,0l0.26-0.45l0.99-1.72l11.75-20.35c1.07-1.85,3.06-2.99,5.19-3L426.43,87.91 M426.43,87.01
		l-79.36,0.01c-2.46,0-4.74,1.32-5.97,3.45l-11.75,20.35l-0.99,1.72l-26.11-0.04c0,0,0,0,0,0c-0.69,0-1.13,0.75-0.78,1.35
		l13.06,22.68l-1.13,1.94l-11.97,20.73c-1.22,2.14-1.23,4.77,0,6.9l39.69,68.74c1.23,2.12,3.51,3.45,5.96,3.45c0,0,0,0,0.01,0
		l26.34,0L386,216.46c0.47-0.83,1.37-1.35,2.33-1.35c0.01,0,0.01,0,0.02,0c0.96,0.01,1.86,0.51,2.34,1.35l12.59,21.8l23.17,0
		c2.46,0,4.74-1.32,5.97-3.45l39.68-68.73c1.25-2.14,1.23-4.77,0-6.9L432.4,90.45C431.17,88.33,428.91,87.01,426.43,87.01
		L426.43,87.01z"/>
</g>
<g>
	<path class="st1" d="M387.16,238.04l13.02,22.63l0.26,0.45l0.52,0l1.98,0l23.5,0c2.13,0,4.12,1.15,5.19,2.99l39.68,68.72
		c1.06,1.85,1.06,4.15,0,5.99l-39.68,68.74c-1.07,1.85-3.04,3-5.19,3l-79.36,0c-2.13,0-4.12-1.15-5.19-2.99l-11.32-19.61
		l12.32-21.35c0.64-1.1,0.64-2.49,0-3.6c-0.63-1.12-1.83-1.81-3.13-1.81l-24.65,0.01l-12.91-22.36c-1.07-1.85-1.07-4.14,0-5.99
		l39.68-68.74c1.06-1.84,3.05-2.99,5.19-3l23.93,0l2.25,0.01l0.52,0l0.26-0.45L387.16,238.04
		C387.16,238.04,387.16,238.04,387.16,238.04L387.16,238.04 M387.16,237.14c-0.3,0-0.61,0.15-0.78,0.45l-13.11,22.65l-2.25-0.01
		l-23.94,0c-2.47,0.01-4.74,1.32-5.97,3.45l-39.68,68.74c-1.23,2.13-1.23,4.77,0,6.9l13.17,22.81l25.17-0.01c0.01,0,0.01,0,0.02,0
		c0.96,0,1.85,0.52,2.32,1.35c0.48,0.84,0.49,1.86,0,2.71l-12.58,21.8l11.59,20.06c1.23,2.13,3.51,3.44,5.97,3.45l79.36,0
		c0.01,0,0.02,0,0.03,0c2.46,0,4.72-1.33,5.94-3.45l39.68-68.74c1.23-2.13,1.24-4.74,0-6.9l-39.68-68.72
		c-1.23-2.13-3.51-3.44-5.97-3.45l-23.5,0l-1.98,0l-13.02-22.63C387.77,237.29,387.47,237.14,387.16,237.14L387.16,237.14z"/>
</g>
<g>
	<polyline class="st2" points="168.38,232.26 159.13,232.26 152.15,265 148.94,265 155.92,232.26 146.69,232.26 147.29,229.42 
		168.98,229.42 168.38,232.26 	"/>
	<path class="st2" d="M175.32,241.13c-0.8-0.1-1.4-0.15-1.8-0.15c-1.6,0-3.09,0.64-4.45,1.94c-1.53,1.4-2.55,3.25-3.05,5.58
		l-3.44,16.5h-3l5.58-26.37h3.01l-0.9,4.24h0.05c2.05-3.25,4.56-4.88,7.51-4.88c0.2,0,0.42,0.02,0.67,0.07
		c0.25,0.05,0.41,0.07,0.48,0.07L175.32,241.13"/>
	<path class="st2" d="M189.86,265.06c-0.21,0-0.54,0.03-1,0.07c-0.47,0.05-0.86,0.07-1.19,0.07c-1.66,0-2.5-0.68-2.5-2.04
		c0-0.3,0.04-0.65,0.1-1.05l0.2-0.75h-0.05c-0.87,1.3-2.03,2.34-3.51,3.12c-1.48,0.78-2.86,1.17-4.16,1.17
		c-3.69,0-5.53-1.75-5.53-5.24c0-0.73,0.1-1.55,0.3-2.44c0.5-2.36,1.51-4.13,3.03-5.29c1.16-0.9,2.93-1.64,5.32-2.24
		c1.43-0.34,3.29-0.85,5.61-1.55c1.1-0.4,1.82-1.51,2.19-3.34c0.14-0.7,0.2-1.33,0.2-1.89c0-2.19-1.22-3.29-3.68-3.29
		c-3.47,0-5.64,1.99-6.5,5.98h-2.93c1.2-5.58,4.47-8.37,9.82-8.37c4.32,0,6.48,1.59,6.48,4.78c0,0.7-0.1,1.49-0.3,2.39l-3.44,16.1
		c-0.23,1.13,0.1,1.69,0.99,1.69c0.2,0,0.53,0,0.99,0L189.86,265.06 M186.36,256.59l1.32-6.43c-0.67,0.6-1.7,1.09-3.11,1.5
		c-1.23,0.32-2.49,0.66-3.75,0.99c-1.51,0.46-2.64,1.06-3.41,1.79c-0.87,0.83-1.47,2.01-1.8,3.54c-0.14,0.63-0.2,1.22-0.2,1.74
		c0,2.36,1.11,3.54,3.36,3.54c1.61,0,3.1-0.53,4.47-1.59C184.85,260.44,185.89,258.74,186.36,256.59z"/>
	<path class="st2" d="M207.61,265h-2.91l0.94-4.18l-0.05,0c-1.8,3.22-4.21,4.84-7.24,4.84c-4.2,0-6.3-2.58-6.3-7.73
		c0-1.76,0.25-3.81,0.75-6.13c1.96-9.21,5.67-13.8,11.14-13.8c1.43,0,2.63,0.41,3.59,1.22c0.96,0.81,1.54,1.93,1.74,3.36l0.05-0.01
		l2.8-13.15h3.07L207.61,265 M207.55,251.79c0.44-2.06,0.65-3.85,0.65-5.35c0-3.94-1.43-5.92-4.29-5.92
		c-3.76,0-6.43,3.76-8.03,11.27c-0.5,2.37-0.75,4.34-0.75,5.91c0,3.6,1.37,5.4,4.1,5.4C203.19,263.11,205.96,259.34,207.55,251.79z"
		/>
	<path class="st2" d="M229.89,251.94h-14.36c-0.53,2.46-0.79,4.49-0.79,6.08c0,3.49,1.4,5.23,4.18,5.23c1.63,0,3.05-0.61,4.24-1.84
		c1.2-1.23,2.06-2.91,2.59-5.03h2.99c-0.59,2.62-1.82,4.8-3.68,6.53c-1.97,1.79-4.23,2.71-6.79,2.75c-4.42,0.02-6.63-2.5-6.63-7.58
		c0-1.83,0.27-3.99,0.8-6.48c1.93-9.07,5.92-13.61,11.96-13.61c4.32,0,6.48,2.29,6.48,6.88
		C230.88,246.72,230.55,249.09,229.89,251.94 M227.3,249.56c0.36-1.77,0.55-3.26,0.55-4.49c0-3.12-1.33-4.68-3.99-4.68
		c-3.88,0-6.48,3.05-7.78,9.17H227.3z"/>
	<polyline class="st3" points="261.83,240.22 261.97,240.05 261.87,240.05 261.83,240.22 	"/>
	<path class="st2" d="M275.76,248.77c-0.54,2.57-1.54,4.53-2.98,5.87c-1.44,1.35-3.07,2.02-4.89,2.02c-1.16,0-2.06-0.29-2.7-0.87
		c-0.36-0.32-0.67-0.79-0.94-1.4l-1.61,7.6h-3.77l4.32-20.32h3.65l-0.45,2.16c0.54-0.63,1.09-1.13,1.63-1.49
		c0.98-0.66,2.05-0.98,3.23-0.98c1.7,0,3.01,0.63,3.92,1.89C276.08,244.49,276.27,246.34,275.76,248.77 M269.43,244.68
		c-1.38,0-2.47,0.66-3.26,1.97c-0.41,0.69-0.73,1.58-0.96,2.65c-0.36,1.69-0.16,2.89,0.59,3.57c0.45,0.4,1.04,0.6,1.78,0.6
		c1.06,0,1.95-0.41,2.68-1.23c0.73-0.82,1.24-1.91,1.52-3.28c0.24-1.12,0.2-2.12-0.14-2.98
		C271.32,245.12,270.58,244.68,269.43,244.68z"/>
	<path class="st2" d="M286.68,241.35l-0.83,3.91c-0.24-0.03-0.45-0.04-0.64-0.06c-0.18,0-0.33-0.01-0.46-0.01
		c-1.53,0-2.67,0.5-3.41,1.5c-0.41,0.57-0.74,1.43-0.99,2.59l-1.47,6.98h-3.84l3.09-14.59h3.63l-0.53,2.55
		c0.79-0.97,1.44-1.64,1.95-1.99c0.84-0.6,1.84-0.9,2.98-0.9l0.18,0.01C286.41,241.34,286.52,241.34,286.68,241.35"/>
	<path class="st2" d="M298.86,244.12c0.39,0.87,0.55,1.87,0.47,3.01c-0.03,0.67-0.19,1.63-0.48,2.89h-9.98
		c-0.26,1.47-0.01,2.49,0.73,3.07c0.44,0.37,1.04,0.55,1.78,0.55c0.78,0,1.47-0.22,2.06-0.67c0.31-0.24,0.62-0.57,0.92-1h3.89
		c-0.28,0.87-0.93,1.74-1.91,2.64c-1.55,1.41-3.45,2.13-5.7,2.13c-1.85,0-3.36-0.6-4.52-1.8c-1.17-1.19-1.46-3.13-0.9-5.83
		c0.54-2.53,1.59-4.46,3.15-5.8c1.57-1.35,3.37-2.02,5.41-2.02c1.21,0,2.25,0.23,3.13,0.68
		C297.8,242.42,298.44,243.14,298.86,244.12 M289.5,247.5h5.92c0.16-1.01,0.01-1.77-0.44-2.29c-0.44-0.52-1.07-0.78-1.87-0.78
		c-0.89,0-1.63,0.27-2.23,0.82C290.28,245.81,289.82,246.56,289.5,247.5z"/>
	<path class="st2" d="M302.67,251.6c-0.06,0.68,0.01,1.16,0.23,1.45c0.36,0.51,1.17,0.76,2.45,0.76c0.74,0,1.36-0.11,1.85-0.34
		c0.49-0.22,0.79-0.55,0.88-1c0.09-0.43-0.03-0.75-0.33-0.98c-0.31-0.22-1.57-0.61-3.74-1.15c-1.56-0.42-2.61-0.93-3.16-1.54
		c-0.55-0.6-0.7-1.48-0.45-2.62c0.28-1.35,1.06-2.5,2.32-3.47c1.26-0.96,2.85-1.45,4.76-1.45c1.82,0,3.22,0.37,4.21,1.09
		c0.99,0.73,1.38,1.99,1.18,3.76h-3.81c0.04-0.48-0.02-0.87-0.17-1.16c-0.31-0.51-0.97-0.77-1.98-0.77c-0.83,0-1.45,0.13-1.85,0.39
		c-0.41,0.26-0.65,0.56-0.72,0.91c-0.09,0.44,0.02,0.76,0.36,0.95c0.33,0.21,1.58,0.56,3.74,1.05c1.44,0.36,2.46,0.89,3.06,1.62
		c0.61,0.73,0.78,1.65,0.55,2.74c-0.31,1.44-1.1,2.62-2.37,3.54c-1.26,0.91-3.02,1.37-5.27,1.37c-2.3,0-3.88-0.49-4.77-1.46
		c-0.89-0.96-1.18-2.2-0.87-3.7H302.67"/>
	<path class="st2" d="M316.54,251.6c-0.07,0.68,0.02,1.16,0.22,1.45c0.36,0.51,1.17,0.76,2.45,0.76c0.75,0,1.37-0.11,1.86-0.34
		c0.5-0.22,0.79-0.55,0.89-1c0.09-0.43-0.03-0.75-0.34-0.98c-0.31-0.22-1.55-0.61-3.73-1.15c-1.56-0.42-2.61-0.93-3.15-1.54
		c-0.55-0.6-0.71-1.48-0.45-2.62c0.28-1.35,1.06-2.5,2.31-3.47c1.26-0.96,2.85-1.45,4.77-1.45c1.82,0,3.22,0.37,4.21,1.09
		c0.99,0.73,1.39,1.99,1.18,3.76h-3.81c0.05-0.48-0.01-0.87-0.17-1.16c-0.31-0.51-0.97-0.77-1.98-0.77c-0.83,0-1.45,0.13-1.85,0.39
		c-0.41,0.26-0.64,0.56-0.72,0.91c-0.1,0.44,0.02,0.76,0.36,0.95c0.33,0.21,1.58,0.56,3.74,1.05c1.44,0.36,2.46,0.89,3.06,1.62
		c0.6,0.73,0.78,1.65,0.55,2.74c-0.31,1.44-1.11,2.62-2.37,3.54c-1.27,0.91-3.03,1.37-5.27,1.37c-2.29,0-3.88-0.49-4.76-1.46
		c-0.89-0.96-1.18-2.2-0.86-3.7H316.54"/>
	<g>
		<polyline class="st2" points="243.33,249.76 224.13,223.54 220.51,223.55 241.99,249.99 229.73,266.61 230.1,266.61 
			243.33,249.76 		"/>
		<polyline class="st4" points="250.48,244.63 234.21,266.61 234.54,266.61 252.07,244.37 236.43,223.01 223.74,223.01 
			224.13,223.54 233.32,223.53 250.48,244.63 		"/>
		<polyline class="st4" points="230.1,266.61 234.21,266.61 250.48,244.63 233.32,223.53 224.13,223.54 243.33,249.76 230.1,266.61 
					"/>
		<polyline class="st2" points="264.29,262.08 263.95,263.62 256.86,263.62 258.73,254.92 253.96,248.81 272,224.34 267.54,224.35 
			245.5,254.14 261.95,275.42 274.61,275.4 264.29,262.08 		"/>
		<polyline class="st5" points="263.95,263.62 256.86,263.62 258.98,253.7 255.26,248.6 274.64,223.9 270.23,223.9 246.54,253.96 
			262.17,275.49 274.92,275.49 264.48,261.23 263.95,263.62 		"/>
	</g>
</g>
<g>
	<path d="M205.38,51.78c0.7-0.14,1.71-0.22,2.67-0.22c1.49,0,2.45,0.27,3.12,0.88c0.54,0.48,0.85,1.22,0.85,2.05
		c0,1.42-0.9,2.37-2.03,2.75v0.05c0.83,0.29,1.33,1.06,1.58,2.18c0.35,1.5,0.61,2.55,0.83,2.96h-1.44c-0.18-0.3-0.42-1.23-0.72-2.58
		c-0.32-1.49-0.9-2.05-2.16-2.1h-1.31v4.67h-1.39V51.78z M206.77,56.7h1.42c1.49,0,2.43-0.82,2.43-2.05c0-1.39-1.01-2-2.48-2.02
		c-0.67,0-1.15,0.06-1.38,0.13V56.7z"/>
	<path d="M214.79,58.81c0.03,1.9,1.25,2.69,2.66,2.69c1.01,0,1.62-0.18,2.15-0.4l0.24,1.01c-0.5,0.22-1.34,0.48-2.58,0.48
		c-2.39,0-3.81-1.57-3.81-3.91s1.38-4.18,3.63-4.18c2.53,0,3.2,2.23,3.2,3.65c0,0.29-0.03,0.51-0.05,0.66H214.79z M218.92,57.8
		c0.02-0.9-0.37-2.29-1.95-2.29c-1.42,0-2.05,1.31-2.16,2.29H218.92z"/>
	<path d="M226.31,62.43l-0.11-0.98h-0.05c-0.43,0.61-1.26,1.15-2.37,1.15c-1.57,0-2.37-1.1-2.37-2.23c0-1.87,1.67-2.9,4.66-2.88
		v-0.16c0-0.64-0.18-1.79-1.76-1.79c-0.72,0-1.47,0.22-2.02,0.58l-0.32-0.93c0.64-0.42,1.57-0.69,2.54-0.69
		c2.37,0,2.95,1.62,2.95,3.17v2.9c0,0.67,0.03,1.33,0.13,1.86H226.31z M226.1,58.48c-1.54-0.03-3.28,0.24-3.28,1.74
		c0,0.91,0.61,1.34,1.33,1.34c1.01,0,1.65-0.64,1.87-1.3c0.05-0.14,0.08-0.3,0.08-0.45V58.48z"/>
	<path d="M229.73,51.06h1.41v11.36h-1.41V51.06z"/>
	<path d="M236.77,57.58v1.04h-3.95v-1.04H236.77z"/>
	<path d="M239.72,52.82h-3.28v-1.18h7.99v1.18h-3.3v9.6h-1.41V52.82z"/>
	<path d="M246.95,52.51c0.02,0.48-0.34,0.86-0.9,0.86c-0.5,0-0.85-0.38-0.85-0.86c0-0.5,0.37-0.88,0.88-0.88
		C246.61,51.62,246.95,52.01,246.95,52.51z M245.38,62.43v-7.75h1.41v7.75H245.38z"/>
	<path d="M249.13,56.78c0-0.8-0.02-1.46-0.06-2.1h1.23l0.06,1.25h0.05c0.43-0.74,1.15-1.42,2.43-1.42c1.06,0,1.86,0.64,2.19,1.55
		h0.03c0.24-0.43,0.54-0.77,0.86-1.01c0.46-0.35,0.98-0.54,1.71-0.54c1.02,0,2.54,0.67,2.54,3.36v4.56h-1.38v-4.39
		c0-1.49-0.54-2.38-1.68-2.38c-0.8,0-1.42,0.59-1.67,1.28c-0.06,0.19-0.11,0.45-0.11,0.7v4.79h-1.38v-4.64
		c0-1.23-0.54-2.13-1.62-2.13c-0.88,0-1.52,0.7-1.74,1.41c-0.08,0.21-0.11,0.45-0.11,0.69v4.67h-1.38V56.78z"/>
	<path d="M263.25,58.81c0.03,1.9,1.25,2.69,2.66,2.69c1.01,0,1.62-0.18,2.14-0.4l0.24,1.01c-0.5,0.22-1.34,0.48-2.58,0.48
		c-2.38,0-3.81-1.57-3.81-3.91s1.38-4.18,3.63-4.18c2.53,0,3.2,2.23,3.2,3.65c0,0.29-0.03,0.51-0.05,0.66H263.25z M267.38,57.8
		c0.02-0.9-0.37-2.29-1.95-2.29c-1.42,0-2.05,1.31-2.16,2.29H267.38z"/>
	<path d="M206.65,72.03h-3.28v-1.18h7.99v1.18h-3.3v9.6h-1.41V72.03z"/>
	<path d="M211.79,76.3c0-0.91-0.02-1.7-0.06-2.42h1.23l0.05,1.52h0.06c0.35-1.04,1.2-1.7,2.14-1.7c0.16,0,0.27,0.02,0.4,0.05v1.33
		c-0.14-0.03-0.29-0.05-0.48-0.05c-0.99,0-1.7,0.75-1.89,1.81c-0.03,0.19-0.06,0.42-0.06,0.66v4.13h-1.39V76.3z"/>
	<path d="M221.23,81.63l-0.11-0.98h-0.05c-0.43,0.61-1.26,1.15-2.37,1.15c-1.57,0-2.37-1.1-2.37-2.23c0-1.87,1.67-2.9,4.66-2.88
		v-0.16c0-0.64-0.18-1.79-1.76-1.79c-0.72,0-1.47,0.22-2.02,0.58l-0.32-0.93c0.64-0.42,1.57-0.69,2.54-0.69
		c2.37,0,2.95,1.62,2.95,3.17v2.9c0,0.67,0.03,1.33,0.13,1.86H221.23z M221.02,77.68c-1.54-0.03-3.28,0.24-3.28,1.74
		c0,0.91,0.61,1.34,1.33,1.34c1.01,0,1.65-0.64,1.87-1.3c0.05-0.14,0.08-0.3,0.08-0.45V77.68z"/>
	<path d="M231.34,70.26v9.36c0,0.69,0.02,1.47,0.06,2h-1.26l-0.06-1.34h-0.03c-0.43,0.86-1.38,1.52-2.64,1.52
		c-1.87,0-3.31-1.58-3.31-3.94c-0.02-2.58,1.58-4.16,3.47-4.16c1.18,0,1.98,0.56,2.34,1.18h0.03v-4.63H231.34z M229.94,77.04
		c0-0.18-0.02-0.42-0.06-0.59c-0.21-0.9-0.98-1.63-2.03-1.63c-1.46,0-2.32,1.28-2.32,2.99c0,1.57,0.77,2.87,2.29,2.87
		c0.94,0,1.81-0.62,2.06-1.68c0.05-0.19,0.06-0.38,0.06-0.61V77.04z"/>
	<path d="M235.25,71.71c0.02,0.48-0.34,0.86-0.9,0.86c-0.5,0-0.85-0.38-0.85-0.86c0-0.5,0.37-0.88,0.88-0.88
		C234.91,70.82,235.25,71.21,235.25,71.71z M233.68,81.63v-7.75h1.41v7.75H233.68z"/>
	<path d="M237.42,75.98c0-0.8-0.02-1.46-0.06-2.1h1.25l0.08,1.28h0.03c0.38-0.74,1.28-1.46,2.56-1.46c1.07,0,2.74,0.64,2.74,3.3
		v4.63h-1.41v-4.47c0-1.25-0.46-2.29-1.79-2.29c-0.93,0-1.65,0.66-1.89,1.44c-0.06,0.18-0.1,0.42-0.1,0.66v4.66h-1.41V75.98z"/>
	<path d="M252.98,73.88c-0.03,0.56-0.06,1.18-0.06,2.13v4.5c0,1.78-0.35,2.87-1.1,3.54c-0.75,0.7-1.84,0.93-2.82,0.93
		c-0.93,0-1.95-0.22-2.58-0.64l0.35-1.07c0.51,0.32,1.31,0.61,2.27,0.61c1.44,0,2.5-0.75,2.5-2.71V80.3h-0.03
		c-0.43,0.72-1.26,1.3-2.46,1.3c-1.92,0-3.3-1.63-3.3-3.78c0-2.62,1.71-4.11,3.49-4.11c1.34,0,2.08,0.7,2.42,1.34h0.03l0.06-1.17
		H252.98z M251.52,76.94c0-0.24-0.02-0.45-0.08-0.64c-0.26-0.82-0.94-1.49-1.97-1.49c-1.34,0-2.31,1.14-2.31,2.93
		c0,1.52,0.77,2.79,2.29,2.79c0.86,0,1.65-0.54,1.95-1.44c0.08-0.24,0.11-0.51,0.11-0.75V76.94z"/>
	<path d="M260.21,71.71c0.02,0.48-0.34,0.86-0.9,0.86c-0.5,0-0.85-0.38-0.85-0.86c0-0.5,0.37-0.88,0.88-0.88
		C259.87,70.82,260.21,71.21,260.21,71.71z M258.64,81.63v-7.75h1.41v7.75H258.64z"/>
	<path d="M262.38,75.98c0-0.8-0.02-1.46-0.06-2.1h1.25l0.08,1.28h0.03c0.38-0.74,1.28-1.46,2.56-1.46c1.07,0,2.74,0.64,2.74,3.3
		v4.63h-1.41v-4.47c0-1.25-0.46-2.29-1.79-2.29c-0.93,0-1.65,0.66-1.89,1.44c-0.06,0.18-0.1,0.42-0.1,0.66v4.66h-1.41V75.98z"/>
	<path d="M204,90.18c0.85-0.13,1.86-0.22,2.96-0.22c2,0,3.43,0.46,4.37,1.34c0.96,0.88,1.52,2.13,1.52,3.87
		c0,1.76-0.54,3.2-1.55,4.19c-1.01,1.01-2.67,1.55-4.77,1.55c-0.99,0-1.82-0.05-2.53-0.13V90.18z M205.39,99.72
		c0.35,0.06,0.86,0.08,1.41,0.08c2.98,0,4.59-1.66,4.59-4.58c0.02-2.55-1.42-4.16-4.37-4.16c-0.72,0-1.26,0.06-1.63,0.14V99.72z"/>
	<path d="M214.46,99.13c0.62,0.38,1.54,0.7,2.5,0.7c1.42,0,2.26-0.75,2.26-1.84c0-1.01-0.58-1.58-2.03-2.15
		c-1.76-0.62-2.85-1.54-2.85-3.06c0-1.68,1.39-2.93,3.49-2.93c1.1,0,1.9,0.26,2.38,0.53l-0.38,1.14c-0.35-0.19-1.07-0.51-2.05-0.51
		c-1.47,0-2.03,0.88-2.03,1.62c0,1.01,0.66,1.5,2.15,2.08c1.82,0.7,2.75,1.58,2.75,3.17c0,1.66-1.23,3.11-3.78,3.11
		c-1.04,0-2.18-0.3-2.75-0.69L214.46,99.13z"/>
	<path d="M228.13,95.77h-4.19v3.89h4.67v1.17h-6.07V90.04h5.83v1.17h-4.43v3.41h4.19V95.77z"/>
	<path d="M240.56,100.83c-0.3-0.3-0.59-0.61-1.01-1.06c-0.93,0.86-1.97,1.23-3.15,1.23c-2.1,0-3.31-1.41-3.31-3.03
		c0-1.47,0.88-2.48,2.11-3.15v-0.05c-0.56-0.7-0.9-1.49-0.9-2.26c0-1.31,0.94-2.66,2.74-2.66c1.34,0,2.39,0.9,2.39,2.29
		c0,1.14-0.66,2.03-2.37,2.88v0.05c0.91,1.06,1.94,2.24,2.62,3.01c0.5-0.75,0.83-1.79,1.04-3.15H242c-0.29,1.7-0.75,3.04-1.55,3.99
		c0.58,0.61,1.14,1.22,1.78,1.9H240.56z M238.86,98.97c-0.64-0.7-1.84-2.02-3.04-3.39c-0.58,0.37-1.39,1.06-1.39,2.19
		c0,1.23,0.91,2.18,2.21,2.18C237.57,99.95,238.35,99.53,238.86,98.97z M235.58,92.39c0,0.77,0.35,1.36,0.82,1.94
		c1.09-0.62,1.79-1.2,1.79-2.11c0-0.66-0.37-1.39-1.25-1.39C236.05,90.82,235.58,91.56,235.58,92.39z"/>
	<path d="M254.42,100.48c-0.51,0.26-1.54,0.51-2.85,0.51c-3.04,0-5.33-1.92-5.33-5.46c0-3.38,2.29-5.67,5.63-5.67
		c1.34,0,2.19,0.29,2.56,0.48l-0.34,1.14c-0.53-0.26-1.28-0.45-2.18-0.45c-2.53,0-4.21,1.62-4.21,4.45c0,2.64,1.52,4.34,4.15,4.34
		c0.85,0,1.71-0.18,2.27-0.45L254.42,100.48z"/>
	<path d="M255.96,99.13c0.62,0.38,1.54,0.7,2.5,0.7c1.42,0,2.26-0.75,2.26-1.84c0-1.01-0.58-1.58-2.03-2.15
		c-1.76-0.62-2.85-1.54-2.85-3.06c0-1.68,1.39-2.93,3.49-2.93c1.1,0,1.91,0.26,2.38,0.53l-0.38,1.14c-0.35-0.19-1.07-0.51-2.05-0.51
		c-1.47,0-2.03,0.88-2.03,1.62c0,1.01,0.66,1.5,2.15,2.08c1.82,0.7,2.75,1.58,2.75,3.17c0,1.66-1.23,3.11-3.78,3.11
		c-1.04,0-2.18-0.3-2.75-0.69L255.96,99.13z"/>
	<path d="M269.63,95.77h-4.19v3.89h4.67v1.17h-6.07V90.04h5.83v1.17h-4.43v3.41h4.19V95.77z"/>
</g>
<g>
	<g>
		<path d="M357.9,145.64l-1.12,3.39h-1.44l3.67-10.79h1.68l3.68,10.79h-1.49l-1.15-3.39H357.9z M361.44,144.55l-1.06-3.1
			c-0.24-0.7-0.4-1.34-0.56-1.97h-0.03c-0.16,0.64-0.34,1.3-0.54,1.95l-1.06,3.12H361.44z"/>
		<path d="M365.86,143.7c0-0.91-0.02-1.7-0.06-2.42h1.23l0.05,1.52h0.06c0.35-1.04,1.2-1.7,2.14-1.7c0.16,0,0.27,0.02,0.4,0.05v1.33
			c-0.14-0.03-0.29-0.05-0.48-0.05c-0.99,0-1.7,0.75-1.89,1.81c-0.03,0.19-0.06,0.42-0.06,0.66v4.13h-1.39V143.7z"/>
		<path d="M371.09,149.03c0.03-0.53,0.06-1.31,0.06-2v-9.36h1.39v4.87h0.03c0.5-0.86,1.39-1.42,2.64-1.42c1.92,0,3.28,1.6,3.27,3.95
			c0,2.77-1.75,4.15-3.47,4.15c-1.12,0-2.02-0.43-2.59-1.46h-0.05l-0.06,1.28H371.09z M372.54,145.93c0,0.18,0.03,0.35,0.06,0.51
			c0.27,0.98,1.09,1.65,2.11,1.65c1.47,0,2.35-1.2,2.35-2.98c0-1.55-0.8-2.88-2.3-2.88c-0.96,0-1.86,0.66-2.14,1.73
			c-0.03,0.16-0.08,0.35-0.08,0.58V145.93z"/>
		<path d="M381.82,139.11c0.02,0.48-0.34,0.86-0.9,0.86c-0.5,0-0.85-0.38-0.85-0.86c0-0.5,0.37-0.88,0.88-0.88
			C381.49,138.23,381.82,138.61,381.82,139.11z M380.26,149.03v-7.75h1.41v7.75H380.26z"/>
		<path d="M385.7,139.06v2.23h2.02v1.07h-2.02v4.18c0,0.96,0.27,1.5,1.06,1.5c0.37,0,0.64-0.05,0.82-0.1l0.06,1.06
			c-0.27,0.11-0.7,0.19-1.25,0.19c-0.66,0-1.18-0.21-1.52-0.59c-0.4-0.42-0.54-1.1-0.54-2.02v-4.23h-1.2v-1.07h1.2v-1.86
			L385.7,139.06z"/>
		<path d="M389.3,143.7c0-0.91-0.02-1.7-0.06-2.42h1.23l0.05,1.52h0.06c0.35-1.04,1.2-1.7,2.14-1.7c0.16,0,0.27,0.02,0.4,0.05v1.33
			c-0.14-0.03-0.29-0.05-0.48-0.05c-0.99,0-1.7,0.75-1.89,1.81c-0.03,0.19-0.06,0.42-0.06,0.66v4.13h-1.39V143.7z"/>
		<path d="M398.74,149.03l-0.11-0.98h-0.05c-0.43,0.61-1.26,1.15-2.37,1.15c-1.57,0-2.37-1.1-2.37-2.23c0-1.87,1.67-2.9,4.66-2.88
			v-0.16c0-0.64-0.18-1.79-1.76-1.79c-0.72,0-1.47,0.22-2.02,0.58l-0.32-0.93c0.64-0.42,1.57-0.69,2.54-0.69
			c2.37,0,2.95,1.62,2.95,3.17v2.9c0,0.67,0.03,1.33,0.13,1.86H398.74z M398.53,145.08c-1.54-0.03-3.28,0.24-3.28,1.74
			c0,0.91,0.61,1.34,1.33,1.34c1.01,0,1.65-0.64,1.87-1.3c0.05-0.14,0.08-0.3,0.08-0.45V145.08z"/>
		<path d="M408.83,141.28c-0.03,0.56-0.06,1.18-0.06,2.13v4.5c0,1.78-0.35,2.87-1.1,3.54c-0.75,0.7-1.84,0.93-2.82,0.93
			c-0.93,0-1.95-0.22-2.58-0.64l0.35-1.07c0.51,0.32,1.31,0.61,2.27,0.61c1.44,0,2.5-0.75,2.5-2.71v-0.86h-0.03
			c-0.43,0.72-1.26,1.3-2.46,1.3c-1.92,0-3.3-1.63-3.3-3.78c0-2.62,1.71-4.11,3.49-4.11c1.34,0,2.08,0.7,2.42,1.34h0.03l0.06-1.17
			H408.83z M407.38,144.34c0-0.24-0.02-0.45-0.08-0.64c-0.26-0.82-0.94-1.49-1.97-1.49c-1.34,0-2.3,1.14-2.3,2.93
			c0,1.52,0.77,2.79,2.29,2.79c0.86,0,1.65-0.54,1.95-1.44c0.08-0.24,0.11-0.51,0.11-0.75V144.34z"/>
		<path d="M411.89,145.41c0.03,1.9,1.25,2.69,2.66,2.69c1.01,0,1.62-0.18,2.14-0.4l0.24,1.01c-0.5,0.22-1.34,0.48-2.58,0.48
			c-2.38,0-3.81-1.57-3.81-3.91s1.38-4.18,3.63-4.18c2.53,0,3.2,2.23,3.2,3.65c0,0.29-0.03,0.51-0.05,0.66H411.89z M416.02,144.4
			c0.02-0.9-0.37-2.29-1.95-2.29c-1.42,0-2.05,1.31-2.16,2.29H416.02z"/>
		<path d="M358.3,157.59c0.61-0.13,1.57-0.22,2.54-0.22c1.39,0,2.29,0.24,2.96,0.78c0.56,0.42,0.9,1.06,0.9,1.9
			c0,1.04-0.69,1.95-1.82,2.37v0.03c1.02,0.26,2.22,1.1,2.22,2.71c0,0.93-0.37,1.63-0.91,2.16c-0.75,0.69-1.97,1.01-3.73,1.01
			c-0.96,0-1.7-0.06-2.16-0.13V157.59z M359.7,162h1.26c1.47,0,2.34-0.77,2.34-1.81c0-1.26-0.96-1.76-2.37-1.76
			c-0.64,0-1.01,0.05-1.23,0.1V162z M359.7,167.17c0.27,0.05,0.67,0.06,1.17,0.06c1.44,0,2.77-0.53,2.77-2.1
			c0-1.47-1.26-2.08-2.79-2.08h-1.15V167.17z"/>
		<path d="M367.78,164.61c0.03,1.9,1.25,2.69,2.66,2.69c1.01,0,1.62-0.18,2.15-0.4l0.24,1.01c-0.5,0.22-1.34,0.48-2.58,0.48
			c-2.39,0-3.81-1.57-3.81-3.91s1.38-4.18,3.63-4.18c2.53,0,3.2,2.23,3.2,3.65c0,0.29-0.03,0.51-0.05,0.66H367.78z M371.91,163.61
			c0.02-0.9-0.37-2.29-1.95-2.29c-1.42,0-2.05,1.31-2.16,2.29H371.91z"/>
		<path d="M376.7,158.26v2.23h2.02v1.07h-2.02v4.18c0,0.96,0.27,1.5,1.06,1.5c0.37,0,0.64-0.05,0.82-0.1l0.06,1.06
			c-0.27,0.11-0.7,0.19-1.25,0.19c-0.66,0-1.18-0.21-1.52-0.59c-0.4-0.42-0.54-1.1-0.54-2.02v-4.23h-1.2v-1.07h1.2v-1.86
			L376.7,158.26z"/>
		<path d="M381.01,160.48l1.02,3.94c0.22,0.86,0.43,1.66,0.58,2.46h0.05c0.18-0.78,0.43-1.62,0.69-2.45l1.26-3.95h1.18l1.2,3.87
			c0.29,0.93,0.51,1.74,0.69,2.53h0.05c0.13-0.78,0.34-1.6,0.59-2.51l1.1-3.89h1.39l-2.5,7.75h-1.28l-1.18-3.7
			c-0.27-0.86-0.5-1.63-0.69-2.55h-0.03c-0.19,0.93-0.43,1.73-0.7,2.56l-1.25,3.68h-1.28l-2.34-7.75H381.01z"/>
		<path d="M392.85,164.61c0.03,1.9,1.25,2.69,2.66,2.69c1.01,0,1.62-0.18,2.14-0.4l0.24,1.01c-0.5,0.22-1.34,0.48-2.58,0.48
			c-2.38,0-3.81-1.57-3.81-3.91s1.38-4.18,3.63-4.18c2.53,0,3.2,2.23,3.2,3.65c0,0.29-0.03,0.51-0.05,0.66H392.85z M396.98,163.61
			c0.02-0.9-0.37-2.29-1.95-2.29c-1.42,0-2.05,1.31-2.16,2.29H396.98z"/>
		<path d="M400.86,164.61c0.03,1.9,1.25,2.69,2.66,2.69c1.01,0,1.62-0.18,2.14-0.4l0.24,1.01c-0.5,0.22-1.34,0.48-2.58,0.48
			c-2.38,0-3.81-1.57-3.81-3.91s1.38-4.18,3.63-4.18c2.53,0,3.2,2.23,3.2,3.65c0,0.29-0.03,0.51-0.05,0.66H400.86z M404.99,163.61
			c0.02-0.9-0.37-2.29-1.95-2.29c-1.42,0-2.05,1.31-2.16,2.29H404.99z"/>
		<path d="M408.1,162.58c0-0.8-0.02-1.46-0.06-2.1h1.25l0.08,1.28h0.03c0.38-0.74,1.28-1.46,2.56-1.46c1.07,0,2.74,0.64,2.74,3.3
			v4.63h-1.41v-4.47c0-1.25-0.46-2.29-1.79-2.29c-0.93,0-1.65,0.66-1.89,1.44c-0.06,0.18-0.1,0.42-0.1,0.66v4.66h-1.41V162.58z"/>
		<path d="M353.7,176.79c0.85-0.13,1.86-0.22,2.96-0.22c2,0,3.42,0.46,4.37,1.34c0.96,0.88,1.52,2.13,1.52,3.87
			c0,1.76-0.54,3.2-1.55,4.19c-1.01,1.01-2.67,1.55-4.77,1.55c-0.99,0-1.82-0.05-2.53-0.13V176.79z M355.1,186.33
			c0.35,0.06,0.87,0.08,1.41,0.08c2.98,0,4.59-1.66,4.59-4.58c0.02-2.55-1.42-4.16-4.37-4.16c-0.72,0-1.26,0.06-1.63,0.14V186.33z"
			/>
		<path d="M364.17,185.73c0.62,0.38,1.54,0.7,2.5,0.7c1.42,0,2.26-0.75,2.26-1.84c0-1.01-0.58-1.58-2.03-2.15
			c-1.76-0.62-2.85-1.54-2.85-3.06c0-1.68,1.39-2.93,3.49-2.93c1.1,0,1.91,0.26,2.38,0.53l-0.38,1.14
			c-0.35-0.19-1.07-0.51-2.05-0.51c-1.47,0-2.03,0.88-2.03,1.62c0,1.01,0.66,1.5,2.15,2.08c1.82,0.7,2.75,1.58,2.75,3.17
			c0,1.66-1.23,3.11-3.78,3.11c-1.04,0-2.18-0.3-2.75-0.69L364.17,185.73z"/>
		<path d="M377.83,182.37h-4.19v3.89h4.67v1.17h-6.07v-10.79h5.83v1.17h-4.43v3.41h4.19V182.37z"/>
		<path d="M390.27,187.43c-0.3-0.3-0.59-0.61-1.01-1.06c-0.93,0.86-1.97,1.23-3.15,1.23c-2.1,0-3.31-1.41-3.31-3.03
			c0-1.47,0.88-2.48,2.11-3.15v-0.05c-0.56-0.7-0.9-1.49-0.9-2.26c0-1.31,0.94-2.66,2.74-2.66c1.34,0,2.38,0.9,2.38,2.29
			c0,1.14-0.66,2.03-2.37,2.88v0.05c0.91,1.06,1.94,2.24,2.62,3.01c0.5-0.75,0.83-1.79,1.04-3.15h1.28
			c-0.29,1.7-0.75,3.04-1.55,3.99c0.58,0.61,1.14,1.22,1.78,1.9H390.27z M388.57,185.57c-0.64-0.7-1.84-2.02-3.04-3.39
			c-0.58,0.37-1.39,1.06-1.39,2.19c0,1.23,0.91,2.18,2.21,2.18C387.27,186.55,388.06,186.13,388.57,185.57z M385.29,179
			c0,0.77,0.35,1.36,0.82,1.94c1.09-0.62,1.79-1.2,1.79-2.11c0-0.66-0.37-1.39-1.25-1.39C385.75,177.43,385.29,178.16,385.29,179z"
			/>
		<path d="M404.12,187.08c-0.51,0.26-1.54,0.51-2.85,0.51c-3.04,0-5.33-1.92-5.33-5.46c0-3.38,2.29-5.67,5.63-5.67
			c1.34,0,2.19,0.29,2.56,0.48l-0.34,1.14c-0.53-0.26-1.28-0.45-2.18-0.45c-2.53,0-4.21,1.62-4.21,4.45c0,2.64,1.52,4.34,4.15,4.34
			c0.85,0,1.71-0.18,2.27-0.45L404.12,187.08z"/>
		<path d="M405.67,185.73c0.62,0.38,1.54,0.7,2.5,0.7c1.42,0,2.26-0.75,2.26-1.84c0-1.01-0.58-1.58-2.03-2.15
			c-1.76-0.62-2.85-1.54-2.85-3.06c0-1.68,1.39-2.93,3.49-2.93c1.1,0,1.91,0.26,2.38,0.53l-0.38,1.14
			c-0.35-0.19-1.07-0.51-2.05-0.51c-1.47,0-2.03,0.88-2.03,1.62c0,1.01,0.66,1.5,2.15,2.08c1.82,0.7,2.75,1.58,2.75,3.17
			c0,1.66-1.23,3.11-3.78,3.11c-1.04,0-2.18-0.3-2.75-0.69L405.67,185.73z"/>
		<path d="M419.34,182.37h-4.19v3.89h4.67v1.17h-6.07v-10.79h5.83v1.17h-4.43v3.41h4.19V182.37z"/>
	</g>
</g>
<g>
	<g>
		<path d="M368.95,315.56c-0.08-1.5-0.18-3.31-0.16-4.66h-0.05c-0.37,1.26-0.82,2.61-1.36,4.1l-1.91,5.23h-1.06l-1.74-5.14
			c-0.51-1.52-0.94-2.91-1.25-4.19h-0.03c-0.03,1.34-0.11,3.15-0.21,4.77l-0.29,4.63h-1.33l0.75-10.79h1.78l1.84,5.22
			c0.45,1.33,0.82,2.51,1.09,3.63h0.05c0.27-1.09,0.66-2.27,1.14-3.63l1.92-5.22h1.78l0.67,10.79h-1.36L368.95,315.56z"/>
		<path d="M379.21,318.19c0,0.8,0.02,1.5,0.06,2.11h-1.25l-0.08-1.26h-0.03c-0.37,0.62-1.18,1.44-2.56,1.44
			c-1.22,0-2.67-0.67-2.67-3.39v-4.53h1.41v4.29c0,1.47,0.45,2.46,1.73,2.46c0.94,0,1.6-0.66,1.86-1.28
			c0.08-0.21,0.13-0.46,0.13-0.72v-4.75h1.41V318.19z"/>
		<path d="M381.54,308.94h1.41v11.36h-1.41V308.94z"/>
		<path d="M387.01,310.33v2.22h2.02v1.07h-2.02v4.18c0,0.96,0.27,1.5,1.06,1.5c0.37,0,0.64-0.05,0.82-0.1l0.06,1.06
			c-0.27,0.11-0.7,0.19-1.25,0.19c-0.66,0-1.18-0.21-1.52-0.59c-0.4-0.42-0.54-1.1-0.54-2.02v-4.23h-1.2v-1.07h1.2v-1.86
			L387.01,310.33z"/>
		<path d="M392.18,310.38c0.02,0.48-0.34,0.86-0.9,0.86c-0.5,0-0.85-0.38-0.85-0.86c0-0.5,0.37-0.88,0.88-0.88
			C391.84,309.5,392.18,309.88,392.18,310.38z M390.61,320.3v-7.75h1.41v7.75H390.61z"/>
		<path d="M394.36,315.08c0-0.99-0.03-1.79-0.06-2.53h1.26l0.06,1.33h0.03c0.58-0.94,1.49-1.5,2.75-1.5c1.87,0,3.28,1.58,3.28,3.94
			c0,2.79-1.7,4.16-3.52,4.16c-1.02,0-1.92-0.45-2.38-1.22h-0.03v4.21h-1.39V315.08z M395.75,317.15c0,0.21,0.03,0.4,0.06,0.58
			c0.26,0.98,1.1,1.65,2.11,1.65c1.49,0,2.35-1.22,2.35-2.99c0-1.55-0.82-2.88-2.3-2.88c-0.96,0-1.86,0.69-2.13,1.75
			c-0.05,0.18-0.1,0.38-0.1,0.58V317.15z"/>
		<path d="M403.46,308.94h1.41v11.36h-1.41V308.94z"/>
		<path d="M408.02,316.68c0.03,1.9,1.25,2.69,2.66,2.69c1.01,0,1.62-0.18,2.14-0.4l0.24,1.01c-0.5,0.22-1.34,0.48-2.58,0.48
			c-2.38,0-3.81-1.57-3.81-3.91s1.38-4.18,3.63-4.18c2.53,0,3.2,2.22,3.2,3.65c0,0.29-0.03,0.51-0.05,0.66H408.02z M412.15,315.68
			c0.02-0.9-0.37-2.29-1.95-2.29c-1.42,0-2.05,1.31-2.16,2.29H412.15z"/>
		<path d="M348.31,328.86c0.61-0.13,1.57-0.22,2.55-0.22c1.39,0,2.29,0.24,2.96,0.78c0.56,0.42,0.9,1.06,0.9,1.91
			c0,1.04-0.69,1.95-1.83,2.37v0.03c1.02,0.26,2.22,1.1,2.22,2.71c0,0.93-0.37,1.63-0.91,2.16c-0.75,0.69-1.97,1.01-3.73,1.01
			c-0.96,0-1.7-0.06-2.16-0.13V328.86z M349.7,333.28h1.26c1.47,0,2.34-0.77,2.34-1.81c0-1.26-0.96-1.76-2.37-1.76
			c-0.64,0-1.01,0.05-1.23,0.1V333.28z M349.7,338.45c0.27,0.05,0.67,0.06,1.17,0.06c1.44,0,2.77-0.53,2.77-2.1
			c0-1.47-1.26-2.08-2.79-2.08h-1.15V338.45z"/>
		<path d="M366.2,334c0,3.71-2.26,5.68-5.01,5.68c-2.85,0-4.85-2.21-4.85-5.47c0-3.43,2.13-5.67,5.01-5.67
			C364.3,328.54,366.2,330.79,366.2,334z M357.83,334.17c0,2.3,1.25,4.37,3.44,4.37c2.21,0,3.46-2.03,3.46-4.48
			c0-2.14-1.12-4.39-3.44-4.39C358.98,329.67,357.83,331.8,357.83,334.17z"/>
		<path d="M373.14,336.11l-1.12,3.39h-1.44l3.67-10.79h1.68l3.68,10.79h-1.49l-1.15-3.39H373.14z M376.68,335.02l-1.06-3.11
			c-0.24-0.7-0.4-1.34-0.56-1.97h-0.03c-0.16,0.64-0.34,1.3-0.54,1.95l-1.06,3.12H376.68z"/>
		<path d="M386.47,339.21c-0.37,0.19-1.18,0.45-2.22,0.45c-2.34,0-3.86-1.58-3.86-3.95c0-2.39,1.63-4.11,4.16-4.11
			c0.83,0,1.57,0.21,1.95,0.4l-0.32,1.09c-0.34-0.19-0.86-0.37-1.63-0.37c-1.78,0-2.74,1.31-2.74,2.93c0,1.79,1.15,2.9,2.69,2.9
			c0.8,0,1.33-0.21,1.73-0.38L386.47,339.21z"/>
		<path d="M393.54,339.21c-0.37,0.19-1.18,0.45-2.22,0.45c-2.34,0-3.86-1.58-3.86-3.95c0-2.39,1.63-4.11,4.16-4.11
			c0.83,0,1.57,0.21,1.95,0.4l-0.32,1.09c-0.34-0.19-0.86-0.37-1.63-0.37c-1.78,0-2.74,1.31-2.74,2.93c0,1.79,1.15,2.9,2.69,2.9
			c0.8,0,1.33-0.21,1.73-0.38L393.54,339.21z"/>
		<path d="M402.1,335.56c0,2.87-1.98,4.11-3.86,4.11c-2.1,0-3.71-1.54-3.71-3.99c0-2.59,1.7-4.11,3.84-4.11
			C400.6,331.58,402.1,333.2,402.1,335.56z M395.96,335.64c0,1.7,0.98,2.98,2.35,2.98c1.34,0,2.35-1.26,2.35-3.01
			c0-1.31-0.66-2.98-2.32-2.98C396.68,332.64,395.96,334.17,395.96,335.64z"/>
		<path d="M410.36,337.39c0,0.8,0.02,1.5,0.06,2.11h-1.25l-0.08-1.26h-0.03c-0.37,0.62-1.18,1.44-2.56,1.44
			c-1.22,0-2.67-0.67-2.67-3.39v-4.53h1.41v4.29c0,1.47,0.45,2.46,1.73,2.46c0.94,0,1.6-0.66,1.86-1.28
			c0.08-0.21,0.13-0.46,0.13-0.72v-4.75h1.41V337.39z"/>
		<path d="M412.69,333.85c0-0.8-0.02-1.46-0.06-2.1h1.25l0.08,1.28h0.03c0.38-0.74,1.28-1.46,2.56-1.46c1.07,0,2.74,0.64,2.74,3.3
			v4.63h-1.41v-4.47c0-1.25-0.46-2.29-1.79-2.29c-0.93,0-1.65,0.66-1.89,1.44c-0.06,0.18-0.1,0.42-0.1,0.66v4.66h-1.41V333.85z"/>
		<path d="M423.2,329.53v2.22h2.02v1.07h-2.02V337c0,0.96,0.27,1.5,1.06,1.5c0.37,0,0.64-0.05,0.82-0.1l0.06,1.06
			c-0.27,0.11-0.7,0.19-1.25,0.19c-0.66,0-1.18-0.21-1.52-0.59c-0.4-0.42-0.54-1.1-0.54-2.02v-4.23h-1.2v-1.07h1.2v-1.86
			L423.2,329.53z"/>
	</g>
</g>
<g>
	<g>
		<path d="M209.29,428.06l-2.74-10.79h1.47l1.28,5.46c0.32,1.34,0.61,2.69,0.8,3.73h0.03c0.18-1.07,0.51-2.35,0.88-3.75l1.44-5.44
			h1.46l1.31,5.47c0.3,1.28,0.59,2.56,0.75,3.7h0.03c0.22-1.18,0.53-2.38,0.86-3.73l1.42-5.44h1.42l-3.06,10.79h-1.46l-1.36-5.62
			c-0.34-1.38-0.56-2.43-0.7-3.52h-0.03c-0.19,1.07-0.43,2.13-0.83,3.52l-1.54,5.62H209.29z"/>
		<path d="M224.78,428.06l-0.11-0.98h-0.05c-0.43,0.61-1.26,1.15-2.37,1.15c-1.57,0-2.37-1.1-2.37-2.22c0-1.87,1.67-2.9,4.66-2.88
			v-0.16c0-0.64-0.18-1.79-1.76-1.79c-0.72,0-1.47,0.22-2.02,0.58l-0.32-0.93c0.64-0.42,1.57-0.69,2.54-0.69
			c2.37,0,2.95,1.62,2.95,3.17v2.9c0,0.67,0.03,1.33,0.13,1.86H224.78z M224.58,424.11c-1.54-0.03-3.28,0.24-3.28,1.75
			c0,0.91,0.61,1.34,1.33,1.34c1.01,0,1.65-0.64,1.87-1.3c0.05-0.14,0.08-0.3,0.08-0.45V424.11z"/>
		<path d="M229.84,418.09v2.23h2.02v1.07h-2.02v4.18c0,0.96,0.27,1.5,1.06,1.5c0.37,0,0.64-0.05,0.82-0.1l0.06,1.06
			c-0.27,0.11-0.7,0.19-1.25,0.19c-0.66,0-1.18-0.21-1.52-0.59c-0.4-0.42-0.54-1.1-0.54-2.02v-4.23h-1.2v-1.07h1.2v-1.86
			L229.84,418.09z"/>
		<path d="M238.86,427.77c-0.37,0.19-1.18,0.45-2.22,0.45c-2.34,0-3.86-1.58-3.86-3.95c0-2.38,1.63-4.11,4.16-4.11
			c0.83,0,1.57,0.21,1.95,0.4l-0.32,1.09c-0.34-0.19-0.86-0.37-1.63-0.37c-1.78,0-2.74,1.31-2.74,2.93c0,1.79,1.15,2.9,2.69,2.9
			c0.8,0,1.33-0.21,1.73-0.38L238.86,427.77z"/>
		<path d="M240.51,416.69h1.41v4.83h0.03c0.22-0.4,0.58-0.75,1.01-0.99c0.42-0.24,0.91-0.4,1.44-0.4c1.04,0,2.71,0.64,2.71,3.31
			v4.61h-1.41v-4.45c0-1.25-0.46-2.3-1.79-2.3c-0.91,0-1.63,0.64-1.89,1.41c-0.08,0.19-0.1,0.4-0.1,0.67v4.67h-1.41V416.69z"/>
		<path d="M249.39,416.69h1.41v11.37h-1.41V416.69z"/>
		<path d="M254.73,418.14c0.02,0.48-0.34,0.86-0.9,0.86c-0.5,0-0.85-0.38-0.85-0.86c0-0.5,0.37-0.88,0.88-0.88
			C254.4,417.26,254.73,417.64,254.73,418.14z M253.17,428.06v-7.75h1.41v7.75H253.17z"/>
		<path d="M256.72,426.62c0.42,0.27,1.15,0.56,1.86,0.56c1.02,0,1.5-0.51,1.5-1.15c0-0.67-0.4-1.04-1.44-1.42
			c-1.39-0.5-2.05-1.26-2.05-2.19c0-1.25,1.01-2.27,2.67-2.27c0.78,0,1.47,0.22,1.9,0.48l-0.35,1.02c-0.3-0.19-0.87-0.45-1.58-0.45
			c-0.83,0-1.3,0.48-1.3,1.06c0,0.64,0.46,0.93,1.47,1.31c1.34,0.51,2.03,1.18,2.03,2.34c0,1.36-1.06,2.32-2.9,2.32
			c-0.85,0-1.63-0.21-2.18-0.53L256.72,426.62z"/>
		<path d="M264.94,418.09v2.23h2.02v1.07h-2.02v4.18c0,0.96,0.27,1.5,1.06,1.5c0.37,0,0.64-0.05,0.82-0.1l0.06,1.06
			c-0.27,0.11-0.7,0.19-1.25,0.19c-0.66,0-1.18-0.21-1.52-0.59c-0.4-0.42-0.54-1.1-0.54-2.02v-4.23h-1.2v-1.07h1.2v-1.86
			L264.94,418.09z"/>
	</g>
</g>
<g>
	<g>
		<path d="M78.09,326.35c0,3.71-2.26,5.68-5.01,5.68c-2.85,0-4.85-2.21-4.85-5.47c0-3.42,2.13-5.67,5.01-5.67
			C76.18,320.89,78.09,323.15,78.09,326.35z M69.72,326.53c0,2.3,1.25,4.37,3.44,4.37c2.21,0,3.46-2.03,3.46-4.48
			c0-2.14-1.12-4.39-3.44-4.39C70.87,322.03,69.72,324.16,69.72,326.53z"/>
		<path d="M79.84,326.53c0-0.91-0.02-1.7-0.06-2.42h1.23l0.05,1.52h0.06c0.35-1.04,1.2-1.7,2.14-1.7c0.16,0,0.27,0.02,0.4,0.05v1.33
			c-0.14-0.03-0.29-0.05-0.48-0.05c-0.99,0-1.7,0.75-1.89,1.81c-0.03,0.19-0.06,0.42-0.06,0.66v4.13h-1.39V326.53z"/>
		<path d="M91.61,320.49v9.36c0,0.69,0.02,1.47,0.06,2h-1.26l-0.06-1.34h-0.03c-0.43,0.86-1.38,1.52-2.64,1.52
			c-1.87,0-3.31-1.58-3.31-3.94c-0.02-2.58,1.58-4.16,3.47-4.16c1.18,0,1.98,0.56,2.34,1.18h0.03v-4.63H91.61z M90.2,327.27
			c0-0.18-0.02-0.42-0.06-0.59c-0.21-0.9-0.98-1.63-2.03-1.63c-1.46,0-2.32,1.28-2.32,2.99c0,1.57,0.77,2.87,2.29,2.87
			c0.94,0,1.81-0.62,2.06-1.68c0.05-0.19,0.06-0.38,0.06-0.61V327.27z"/>
		<path d="M94.72,328.24c0.03,1.91,1.25,2.69,2.66,2.69c1.01,0,1.62-0.18,2.15-0.4l0.24,1.01c-0.5,0.22-1.34,0.48-2.58,0.48
			c-2.39,0-3.81-1.57-3.81-3.91s1.38-4.18,3.63-4.18c2.53,0,3.2,2.23,3.2,3.65c0,0.29-0.03,0.51-0.05,0.66H94.72z M98.85,327.23
			c0.02-0.9-0.37-2.29-1.95-2.29c-1.42,0-2.05,1.31-2.16,2.29H98.85z"/>
		<path d="M101.96,326.53c0-0.91-0.02-1.7-0.06-2.42h1.23l0.05,1.52h0.06c0.35-1.04,1.2-1.7,2.14-1.7c0.16,0,0.27,0.02,0.4,0.05
			v1.33c-0.14-0.03-0.29-0.05-0.48-0.05c-0.99,0-1.7,0.75-1.89,1.81c-0.03,0.19-0.06,0.42-0.06,0.66v4.13h-1.39V326.53z"/>
		<path d="M54.94,346.32c-0.08-1.5-0.18-3.31-0.16-4.66h-0.05c-0.37,1.26-0.82,2.61-1.36,4.1l-1.9,5.23h-1.06l-1.74-5.14
			c-0.51-1.52-0.94-2.91-1.25-4.19h-0.03c-0.03,1.34-0.11,3.15-0.21,4.77l-0.29,4.63h-1.33l0.75-10.79h1.78l1.84,5.22
			c0.45,1.33,0.82,2.51,1.09,3.63h0.05c0.27-1.09,0.66-2.27,1.14-3.63l1.92-5.22h1.78l0.67,10.79h-1.36L54.94,346.32z"/>
		<path d="M65.78,347.12c0,2.87-1.98,4.11-3.86,4.11c-2.1,0-3.71-1.54-3.71-3.99c0-2.59,1.7-4.11,3.84-4.11
			C64.27,343.14,65.78,344.75,65.78,347.12z M59.63,347.2c0,1.7,0.98,2.98,2.35,2.98c1.34,0,2.35-1.26,2.35-3.01
			c0-1.31-0.66-2.98-2.32-2.98C60.35,344.19,59.63,345.73,59.63,347.2z"/>
		<path d="M74.24,339.69v9.36c0,0.69,0.02,1.47,0.06,2h-1.26l-0.06-1.34h-0.03c-0.43,0.86-1.38,1.52-2.64,1.52
			c-1.87,0-3.31-1.58-3.31-3.94c-0.02-2.58,1.58-4.16,3.47-4.16c1.18,0,1.98,0.56,2.34,1.18h0.03v-4.63H74.24z M72.83,346.47
			c0-0.18-0.02-0.42-0.06-0.59c-0.21-0.9-0.98-1.63-2.03-1.63c-1.46,0-2.32,1.28-2.32,2.99c0,1.57,0.77,2.87,2.29,2.87
			c0.94,0,1.81-0.62,2.06-1.68c0.05-0.19,0.06-0.38,0.06-0.61V346.47z"/>
		<path d="M78.14,341.14c0.02,0.48-0.34,0.86-0.9,0.86c-0.5,0-0.85-0.38-0.85-0.86c0-0.5,0.37-0.88,0.88-0.88
			C77.8,340.25,78.14,340.64,78.14,341.14z M76.57,351.06v-7.75h1.41v7.75H76.57z"/>
		<path d="M80.46,351.06v-6.67h-1.09v-1.07h1.09v-0.42c0-2.05,1.2-3.38,3.38-3.38c0.72,0,1.57,0.22,1.97,0.51l-0.4,1.07
			c-0.34-0.24-0.94-0.45-1.63-0.45c-1.49,0-1.92,1.04-1.92,2.27v0.38h4.5v7.75h-1.39v-6.67h-3.11v6.67H80.46z"/>
		<path d="M94.21,350.77c-0.37,0.19-1.18,0.45-2.23,0.45c-2.34,0-3.86-1.58-3.86-3.95c0-2.38,1.63-4.11,4.16-4.11
			c0.83,0,1.57,0.21,1.95,0.4l-0.32,1.09c-0.34-0.19-0.86-0.37-1.63-0.37c-1.78,0-2.74,1.31-2.74,2.93c0,1.79,1.15,2.9,2.69,2.9
			c0.8,0,1.33-0.21,1.73-0.38L94.21,350.77z"/>
		<path d="M100.14,351.06l-0.11-0.98h-0.05c-0.43,0.61-1.26,1.15-2.37,1.15c-1.57,0-2.37-1.1-2.37-2.22c0-1.87,1.67-2.9,4.66-2.88
			v-0.16c0-0.64-0.18-1.79-1.76-1.79c-0.72,0-1.47,0.22-2.02,0.58l-0.32-0.93c0.64-0.42,1.57-0.69,2.54-0.69
			c2.37,0,2.95,1.62,2.95,3.17v2.9c0,0.67,0.03,1.33,0.13,1.86H100.14z M99.93,347.1c-1.54-0.03-3.28,0.24-3.28,1.75
			c0,0.91,0.61,1.34,1.33,1.34c1.01,0,1.65-0.64,1.87-1.3c0.05-0.14,0.08-0.3,0.08-0.45V347.1z"/>
		<path d="M105.2,341.09v2.23h2.02v1.07h-2.02v4.18c0,0.96,0.27,1.5,1.06,1.5c0.37,0,0.64-0.05,0.82-0.1l0.06,1.06
			c-0.27,0.11-0.7,0.19-1.25,0.19c-0.66,0-1.18-0.21-1.52-0.59c-0.4-0.42-0.54-1.1-0.54-2.02v-4.23h-1.2v-1.07h1.2v-1.86
			L105.2,341.09z"/>
		<path d="M110.36,341.14c0.02,0.48-0.34,0.86-0.9,0.86c-0.5,0-0.85-0.38-0.85-0.86c0-0.5,0.37-0.88,0.88-0.88
			C110.03,340.25,110.36,340.64,110.36,341.14z M108.8,351.06v-7.75h1.41v7.75H108.8z"/>
		<path d="M119.55,347.12c0,2.87-1.98,4.11-3.86,4.11c-2.1,0-3.71-1.54-3.71-3.99c0-2.59,1.7-4.11,3.84-4.11
			C118.05,343.14,119.55,344.75,119.55,347.12z M113.4,347.2c0,1.7,0.98,2.98,2.35,2.98c1.34,0,2.35-1.26,2.35-3.01
			c0-1.31-0.66-2.98-2.32-2.98C114.12,344.19,113.4,345.73,113.4,347.2z"/>
		<path d="M121.32,345.41c0-0.8-0.02-1.46-0.06-2.1h1.25l0.08,1.28h0.03c0.38-0.74,1.28-1.46,2.56-1.46c1.07,0,2.74,0.64,2.74,3.3
			v4.63h-1.41v-4.47c0-1.25-0.46-2.29-1.79-2.29c-0.93,0-1.65,0.66-1.89,1.44c-0.06,0.18-0.1,0.42-0.1,0.66v4.66h-1.41V345.41z"/>
	</g>
</g>
<g>
	<g>
		<path d="M73.45,155.32l-1.12,3.39h-1.44l3.67-10.79h1.68l3.68,10.79h-1.49l-1.15-3.39H73.45z M76.98,154.23l-1.06-3.1
			c-0.24-0.7-0.4-1.34-0.56-1.97h-0.03c-0.16,0.64-0.34,1.3-0.54,1.95l-1.06,3.12H76.98z"/>
		<path d="M87.74,156.6c0,0.8,0.02,1.5,0.06,2.11h-1.25l-0.08-1.26h-0.03c-0.37,0.62-1.18,1.44-2.56,1.44
			c-1.22,0-2.67-0.67-2.67-3.39v-4.53h1.41v4.29c0,1.47,0.45,2.47,1.73,2.47c0.94,0,1.6-0.66,1.86-1.28
			c0.08-0.21,0.13-0.46,0.13-0.72v-4.75h1.41V156.6z"/>
		<path d="M91.77,148.74v2.23h2.02v1.07h-2.02v4.18c0,0.96,0.27,1.5,1.06,1.5c0.37,0,0.64-0.05,0.82-0.1l0.06,1.06
			c-0.27,0.11-0.7,0.19-1.25,0.19c-0.66,0-1.18-0.21-1.52-0.59c-0.4-0.42-0.54-1.1-0.54-2.02v-4.23h-1.2v-1.07h1.2v-1.86
			L91.77,148.74z"/>
		<path d="M102.28,154.78c0,2.87-1.98,4.11-3.86,4.11c-2.1,0-3.71-1.54-3.71-3.99c0-2.59,1.7-4.11,3.84-4.11
			C100.78,150.79,102.28,152.41,102.28,154.78z M96.13,154.86c0,1.7,0.98,2.98,2.35,2.98c1.34,0,2.35-1.26,2.35-3.01
			c0-1.31-0.66-2.98-2.32-2.98C96.85,151.85,96.13,153.38,96.13,154.86z"/>
		<path d="M47.69,167.27c0.7-0.14,1.71-0.22,2.67-0.22c1.49,0,2.45,0.27,3.12,0.88c0.54,0.48,0.85,1.22,0.85,2.05
			c0,1.42-0.9,2.37-2.03,2.75v0.05c0.83,0.29,1.33,1.06,1.58,2.18c0.35,1.5,0.61,2.55,0.83,2.96h-1.44
			c-0.18-0.3-0.42-1.23-0.72-2.58c-0.32-1.49-0.9-2.05-2.16-2.1h-1.31v4.67h-1.39V167.27z M49.09,172.18h1.42
			c1.49,0,2.43-0.82,2.43-2.05c0-1.39-1.01-2-2.48-2.02c-0.67,0-1.15,0.06-1.38,0.13V172.18z"/>
		<path d="M57.1,174.3c0.03,1.9,1.25,2.69,2.66,2.69c1.01,0,1.62-0.18,2.15-0.4l0.24,1.01c-0.5,0.22-1.34,0.48-2.58,0.48
			c-2.39,0-3.81-1.57-3.81-3.91s1.38-4.18,3.63-4.18c2.53,0,3.2,2.23,3.2,3.65c0,0.29-0.03,0.51-0.05,0.66H57.1z M61.23,173.29
			c0.02-0.9-0.37-2.29-1.95-2.29c-1.42,0-2.05,1.31-2.16,2.29H61.23z"/>
		<path d="M71.01,170.17c-0.03,0.56-0.06,1.18-0.06,2.13v4.5c0,1.78-0.35,2.87-1.1,3.54c-0.75,0.7-1.84,0.93-2.82,0.93
			c-0.93,0-1.95-0.22-2.58-0.64l0.35-1.07c0.51,0.32,1.31,0.61,2.27,0.61c1.44,0,2.5-0.75,2.5-2.71v-0.86h-0.03
			c-0.43,0.72-1.26,1.3-2.46,1.3c-1.92,0-3.3-1.63-3.3-3.78c0-2.62,1.71-4.11,3.49-4.11c1.34,0,2.08,0.7,2.42,1.34h0.03l0.06-1.17
			H71.01z M69.55,173.23c0-0.24-0.02-0.45-0.08-0.64c-0.26-0.82-0.94-1.49-1.97-1.49c-1.34,0-2.31,1.14-2.31,2.93
			c0,1.52,0.77,2.79,2.29,2.79c0.86,0,1.65-0.54,1.95-1.44c0.08-0.24,0.11-0.51,0.11-0.75V173.23z"/>
		<path d="M74.75,167.99c0.02,0.48-0.34,0.86-0.9,0.86c-0.5,0-0.85-0.38-0.85-0.86c0-0.5,0.37-0.88,0.88-0.88
			C74.41,167.11,74.75,167.49,74.75,167.99z M73.18,177.92v-7.75h1.41v7.75H73.18z"/>
		<path d="M76.73,176.47c0.42,0.27,1.15,0.56,1.86,0.56c1.02,0,1.5-0.51,1.5-1.15c0-0.67-0.4-1.04-1.44-1.42
			c-1.39-0.5-2.05-1.26-2.05-2.19c0-1.25,1.01-2.27,2.67-2.27c0.78,0,1.47,0.22,1.9,0.48l-0.35,1.02c-0.3-0.19-0.86-0.45-1.58-0.45
			c-0.83,0-1.3,0.48-1.3,1.06c0,0.64,0.46,0.93,1.47,1.31c1.34,0.51,2.03,1.18,2.03,2.34c0,1.36-1.06,2.32-2.9,2.32
			c-0.85,0-1.63-0.21-2.18-0.53L76.73,176.47z"/>
		<path d="M84.96,167.94v2.23h2.02v1.07h-2.02v4.18c0,0.96,0.27,1.5,1.06,1.5c0.37,0,0.64-0.05,0.82-0.1l0.06,1.06
			c-0.27,0.11-0.7,0.19-1.25,0.19c-0.66,0-1.18-0.21-1.52-0.59c-0.4-0.42-0.54-1.1-0.54-2.02v-4.23h-1.2v-1.07h1.2v-1.86
			L84.96,167.94z"/>
		<path d="M88.56,172.59c0-0.91-0.02-1.7-0.06-2.42h1.23l0.05,1.52h0.06c0.35-1.04,1.2-1.7,2.14-1.7c0.16,0,0.27,0.02,0.4,0.05v1.33
			c-0.14-0.03-0.29-0.05-0.48-0.05c-0.99,0-1.7,0.75-1.89,1.81c-0.03,0.19-0.06,0.42-0.06,0.66v4.13h-1.39V172.59z"/>
		<path d="M98,177.92l-0.11-0.98h-0.05c-0.43,0.61-1.26,1.15-2.37,1.15c-1.57,0-2.37-1.1-2.37-2.23c0-1.87,1.67-2.9,4.66-2.88v-0.16
			c0-0.64-0.18-1.79-1.76-1.79c-0.72,0-1.47,0.22-2.02,0.58l-0.32-0.93c0.64-0.42,1.57-0.69,2.54-0.69c2.37,0,2.95,1.62,2.95,3.17
			v2.9c0,0.67,0.03,1.33,0.13,1.86H98z M97.79,173.96c-1.54-0.03-3.28,0.24-3.28,1.74c0,0.91,0.61,1.34,1.33,1.34
			c1.01,0,1.65-0.64,1.87-1.3c0.05-0.14,0.08-0.3,0.08-0.45V173.96z"/>
		<path d="M103.05,167.94v2.23h2.02v1.07h-2.02v4.18c0,0.96,0.27,1.5,1.06,1.5c0.37,0,0.64-0.05,0.82-0.1l0.06,1.06
			c-0.27,0.11-0.7,0.19-1.25,0.19c-0.66,0-1.18-0.21-1.52-0.59c-0.4-0.42-0.54-1.1-0.54-2.02v-4.23h-1.2v-1.07h1.2v-1.86
			L103.05,167.94z"/>
		<path d="M108.22,167.99c0.02,0.48-0.34,0.86-0.9,0.86c-0.5,0-0.85-0.38-0.85-0.86c0-0.5,0.37-0.88,0.88-0.88
			C107.89,167.11,108.22,167.49,108.22,167.99z M106.65,177.92v-7.75h1.41v7.75H106.65z"/>
		<path d="M117.41,173.98c0,2.87-1.98,4.11-3.86,4.11c-2.1,0-3.71-1.54-3.71-3.99c0-2.59,1.7-4.11,3.84-4.11
			C115.9,169.99,117.41,171.61,117.41,173.98z M111.26,174.06c0,1.7,0.98,2.98,2.35,2.98c1.34,0,2.35-1.26,2.35-3.01
			c0-1.31-0.66-2.98-2.32-2.98C111.98,171.05,111.26,172.59,111.26,174.06z"/>
		<path d="M119.18,172.26c0-0.8-0.02-1.46-0.06-2.1h1.25l0.08,1.28h0.03c0.38-0.74,1.28-1.46,2.56-1.46c1.07,0,2.74,0.64,2.74,3.3
			v4.63h-1.41v-4.47c0-1.25-0.46-2.29-1.79-2.29c-0.93,0-1.65,0.66-1.89,1.44c-0.06,0.18-0.1,0.42-0.1,0.66v4.66h-1.41V172.26z"/>
		<path d="M69.33,197.11c-0.3-0.3-0.59-0.61-1.01-1.06c-0.93,0.86-1.97,1.23-3.15,1.23c-2.1,0-3.31-1.41-3.31-3.03
			c0-1.47,0.88-2.48,2.11-3.15v-0.05c-0.56-0.7-0.9-1.49-0.9-2.26c0-1.31,0.94-2.66,2.74-2.66c1.34,0,2.39,0.9,2.39,2.29
			c0,1.14-0.66,2.03-2.37,2.88v0.05c0.91,1.06,1.94,2.24,2.62,3.01c0.5-0.75,0.83-1.79,1.04-3.15h1.28
			c-0.29,1.7-0.75,3.04-1.55,3.99c0.58,0.61,1.14,1.22,1.78,1.9H69.33z M67.63,195.26c-0.64-0.7-1.84-2.02-3.04-3.39
			c-0.58,0.37-1.39,1.06-1.39,2.19c0,1.23,0.91,2.18,2.21,2.18C66.34,196.23,67.12,195.82,67.63,195.26z M64.35,188.68
			c0,0.77,0.35,1.36,0.82,1.94c1.09-0.62,1.79-1.2,1.79-2.11c0-0.66-0.37-1.39-1.25-1.39C64.82,187.11,64.35,187.85,64.35,188.68z"
			/>
		<path d="M75.65,186.33h1.39v9.62h4.61v1.17h-6V186.33z"/>
		<path d="M89.94,193.18c0,2.87-1.98,4.11-3.86,4.11c-2.1,0-3.71-1.54-3.71-3.99c0-2.59,1.7-4.11,3.84-4.11
			C88.43,189.19,89.94,190.81,89.94,193.18z M83.79,193.26c0,1.7,0.98,2.98,2.35,2.98c1.34,0,2.35-1.26,2.35-3.01
			c0-1.31-0.66-2.98-2.32-2.98C84.51,190.25,83.79,191.78,83.79,193.26z"/>
		<path d="M98.38,189.37c-0.03,0.56-0.06,1.18-0.06,2.13v4.5c0,1.78-0.35,2.87-1.1,3.54c-0.75,0.7-1.84,0.93-2.82,0.93
			c-0.93,0-1.95-0.22-2.58-0.64l0.35-1.07c0.51,0.32,1.31,0.61,2.27,0.61c1.44,0,2.5-0.75,2.5-2.71v-0.86h-0.03
			c-0.43,0.72-1.26,1.3-2.46,1.3c-1.92,0-3.3-1.63-3.3-3.78c0-2.62,1.71-4.11,3.49-4.11c1.34,0,2.08,0.7,2.42,1.34h0.03l0.06-1.17
			H98.38z M96.93,192.43c0-0.24-0.02-0.45-0.08-0.64c-0.26-0.82-0.94-1.49-1.97-1.49c-1.34,0-2.31,1.14-2.31,2.93
			c0,1.52,0.77,2.79,2.29,2.79c0.86,0,1.65-0.54,1.95-1.44c0.08-0.24,0.11-0.51,0.11-0.75V192.43z"/>
		<path d="M102.13,187.19c0.02,0.48-0.34,0.86-0.9,0.86c-0.5,0-0.85-0.38-0.85-0.86c0-0.5,0.37-0.88,0.88-0.88
			C101.79,186.31,102.13,186.69,102.13,187.19z M100.56,197.11v-7.75h1.41v7.75H100.56z"/>
		<path d="M104.3,191.46c0-0.8-0.02-1.46-0.06-2.1h1.25l0.08,1.28h0.03c0.38-0.74,1.28-1.46,2.56-1.46c1.07,0,2.74,0.64,2.74,3.3
			v4.63h-1.41v-4.47c0-1.25-0.46-2.29-1.79-2.29c-0.93,0-1.65,0.66-1.89,1.44c-0.06,0.18-0.1,0.42-0.1,0.66v4.66h-1.41V191.46z"/>
	</g>
</g>
</svg>
