<?xml version="1.0" encoding="utf-8"?>
<!-- Generator: Adobe Illustrator 26.0.1, SVG Export Plug-In . SVG Version: 6.00 Build 0)  -->
<svg version="1.1" id="Layer_1" xmlns="http://www.w3.org/2000/svg" xmlns:xlink="http://www.w3.org/1999/xlink" x="0px" y="0px"
	 viewBox="0 0 130 484.5" style="enable-background:new 0 0 130 484.5;" xml:space="preserve">
<style type="text/css">
	.st0{fill:#EC7E30;}
	.st1{fill:#FFFFFF;}
	.st2{fill:#A5A4A4;}
	.st3{fill:#FDC015;}
	.st4{fill:#4A72B8;}
</style>
<circle class="st0" cx="65" cy="419.5" r="65"/>
<circle class="st1" cx="65" cy="419.5" r="59.9"/>
<path class="st2" d="M127.7,299.5c0.3,39.2-36.2,61.2-62.2,83.9c-1.6,1.5-25.8-22.6-28.8-25.2C19,342.6,1.9,323.5,2.4,298.3
	c0.4-22.8,13.6-44.1,33.7-54.7c9-4.7,19.1-7.2,29.4-7.2C102.1,236.4,127.5,267.1,127.7,299.5z"/>
<circle class="st1" cx="65" cy="298.6" r="57"/>
<path class="st3" d="M127.7,181.3c0.3,39.2-36.2,61.2-62.2,83.9c-1.6,1.5-25.8-22.6-28.8-25.2C19,224.4,1.9,205.3,2.4,180
	C2.8,157.2,16,136,36.1,125.3c9-4.7,19.1-7.2,29.4-7.2C102.1,118.2,127.5,148.9,127.7,181.3z"/>
<circle class="st1" cx="65" cy="180.4" r="57"/>
<path class="st4" d="M127.7,63.2c0.3,39.2-36.2,61.2-62.2,83.9c-1.6,1.5-25.8-22.6-28.8-25.2C19,106.3,1.9,87.2,2.4,62
	C2.8,39.2,16,17.9,36.1,7.2C45.1,2.5,55.2,0,65.5,0C102.1,0.1,127.5,30.8,127.7,63.2z"/>
<circle class="st1" cx="65" cy="62.3" r="57"/>
<g>
	<rect x="29.5" y="49.8" width="1.4" height="9.5"/>
	<path d="M38.2,55.5c0.5-0.3,0.8-0.6,1.1-1.1c0.2-0.5,0.4-1,0.4-1.6c0-0.6-0.1-1.1-0.4-1.6c-0.2-0.5-0.6-0.8-1.1-1.1
		c-0.5-0.3-1.1-0.4-1.8-0.4H33v9.5h1.4v-3.3h1.9C37.1,55.9,37.7,55.8,38.2,55.5z M34.4,54.7V51h1.8c0.5,0,0.9,0.1,1.1,0.2
		c0.3,0.2,0.5,0.4,0.6,0.7c0.1,0.3,0.2,0.6,0.2,1c0,0.4-0.1,0.7-0.2,1s-0.3,0.5-0.6,0.7c-0.3,0.2-0.7,0.2-1.1,0.2H34.4z"/>
	<path d="M43,58.8c0.6,0.4,1.4,0.6,2.2,0.6c0.8,0,1.5-0.2,2.2-0.6c0.6-0.4,1.1-0.9,1.5-1.7c0.4-0.7,0.6-1.6,0.6-2.6
		s-0.2-1.9-0.6-2.6c-0.4-0.7-0.9-1.3-1.5-1.7c-0.6-0.4-1.4-0.6-2.2-0.6c-0.8,0-1.5,0.2-2.2,0.6c-0.6,0.4-1.1,0.9-1.5,1.7
		c-0.4,0.7-0.6,1.6-0.6,2.6c0,1,0.2,1.9,0.6,2.6C41.9,57.9,42.4,58.4,43,58.8z M42.8,52.6c0.2-0.5,0.6-0.9,1-1.2s0.9-0.4,1.5-0.4
		c0.5,0,1,0.1,1.5,0.4c0.4,0.3,0.8,0.7,1,1.2c0.2,0.5,0.4,1.2,0.4,1.9s-0.1,1.4-0.4,1.9c-0.2,0.5-0.6,0.9-1,1.2
		c-0.4,0.3-0.9,0.4-1.5,0.4c-0.5,0-1-0.1-1.5-0.4s-0.8-0.7-1-1.2c-0.2-0.5-0.4-1.2-0.4-1.9S42.5,53.1,42.8,52.6z"/>
	<path d="M59.8,58.5l0.6,0.8H62l-1.4-1.6c0,0,0.1-0.1,0.1-0.1c0.2-0.3,0.4-0.6,0.5-1c0.1-0.4,0.2-0.9,0.2-1.5h-1.2
		c0,0.5-0.1,0.9-0.2,1.3c0,0.1-0.1,0.2-0.2,0.3l-1.9-2.3l0.6-0.5c0.4-0.3,0.7-0.6,0.9-0.9s0.3-0.7,0.3-1.2c0-0.4-0.1-0.7-0.3-1
		c-0.2-0.3-0.5-0.6-0.8-0.8s-0.8-0.3-1.3-0.3c-0.5,0-0.9,0.1-1.3,0.3c-0.4,0.2-0.6,0.5-0.8,0.8c-0.2,0.3-0.3,0.7-0.3,1.2
		c0,0.4,0.1,0.7,0.2,1.1s0.4,0.7,0.6,1c0.1,0.1,0.1,0.1,0.2,0.2c-0.3,0.2-0.6,0.5-0.9,0.7c-0.3,0.3-0.5,0.5-0.7,0.8
		c-0.2,0.3-0.2,0.6-0.2,1c0,0.5,0.1,1,0.4,1.4c0.2,0.4,0.6,0.7,1.1,0.9c0.5,0.2,1,0.3,1.6,0.3c0.4,0,0.9-0.1,1.3-0.2
		C59.1,59,59.5,58.8,59.8,58.5z M56.5,51.4c0.1-0.2,0.2-0.3,0.4-0.4c0.2-0.1,0.4-0.2,0.6-0.2c0.3,0,0.6,0.1,0.8,0.3s0.3,0.4,0.3,0.6
		c0,0.3-0.1,0.5-0.2,0.7c-0.1,0.2-0.3,0.4-0.6,0.5l-0.6,0.4c0-0.1-0.1-0.1-0.1-0.2c-0.2-0.2-0.3-0.5-0.5-0.7
		c-0.1-0.2-0.2-0.4-0.2-0.7C56.4,51.8,56.4,51.6,56.5,51.4z M57.3,58.2c-0.3,0-0.6-0.1-0.9-0.2s-0.5-0.3-0.6-0.6
		c-0.1-0.2-0.2-0.5-0.2-0.8c0-0.1,0.1-0.4,0.2-0.6c0.1-0.3,0.4-0.5,0.8-0.8l0.2-0.2l2.1,2.5c-0.2,0.2-0.4,0.3-0.6,0.4
		C58,58.1,57.7,58.2,57.3,58.2z"/>
	<polygon points="68,55.1 72.2,55.1 72.2,53.9 68,53.9 68,51 72.5,51 72.5,49.8 66.6,49.8 66.6,59.3 72.6,59.3 72.6,58 68,58 	"/>
	<polygon points="77.1,57.6 77.1,57.6 75.3,52.2 73.8,52.2 76.4,59.3 77.8,59.3 80.4,52.2 78.9,52.2 	"/>
	<path d="M86.8,52.9c-0.3-0.3-0.6-0.5-1-0.6c-0.4-0.1-0.8-0.2-1.2-0.2c-0.7,0-1.2,0.2-1.7,0.5c-0.5,0.3-0.9,0.7-1.1,1.3
		s-0.4,1.2-0.4,1.9c0,0.7,0.1,1.4,0.4,1.9c0.3,0.5,0.7,1,1.2,1.3c0.5,0.3,1.1,0.5,1.8,0.5c0.5,0,1-0.1,1.4-0.2s0.7-0.4,1-0.7
		c0.3-0.3,0.5-0.6,0.6-1l-1.3-0.2c-0.1,0.2-0.2,0.4-0.4,0.6c-0.2,0.2-0.3,0.3-0.6,0.3s-0.5,0.1-0.7,0.1c-0.4,0-0.8-0.1-1.1-0.3
		c-0.3-0.2-0.5-0.4-0.7-0.8c-0.2-0.3-0.2-0.7-0.2-1.1h5v-0.5c0-0.6-0.1-1.2-0.3-1.6S87.1,53.2,86.8,52.9z M82.8,55.1
		c0-0.3,0.1-0.6,0.2-0.9c0.2-0.3,0.4-0.5,0.7-0.7c0.3-0.2,0.6-0.3,1-0.3c0.4,0,0.7,0.1,0.9,0.2s0.5,0.4,0.6,0.7
		c0.1,0.3,0.2,0.6,0.2,1H82.8z"/>
	<path d="M94.1,52.4c-0.4-0.2-0.8-0.3-1.3-0.3c-0.5,0-1,0.1-1.3,0.3c-0.3,0.2-0.6,0.5-0.8,0.9h-0.1v-1.2h-1.3v7.1h1.4V55
		c0-0.4,0.1-0.7,0.2-1c0.1-0.3,0.3-0.5,0.6-0.6c0.2-0.1,0.5-0.2,0.9-0.2c0.5,0,0.8,0.1,1.1,0.4c0.3,0.3,0.4,0.7,0.4,1.2v4.3h1.4
		v-4.5c0-0.6-0.1-1.1-0.3-1.5C94.8,52.9,94.5,52.6,94.1,52.4z"/>
	<path d="M100.3,58.1c0,0-0.1,0-0.2,0c-0.1,0-0.2,0-0.3,0c-0.2,0-0.3,0-0.4-0.1c-0.1,0-0.2-0.1-0.3-0.3S99,57.4,99,57.2v-3.9h1.5
		v-1.1H99v-1.7h-1.4v1.7h-1v1.1h1v4.2c0,0.4,0.1,0.8,0.3,1.1s0.4,0.5,0.8,0.6c0.3,0.1,0.7,0.2,1,0.2c0.2,0,0.4,0,0.6-0.1
		c0.1,0,0.3-0.1,0.3-0.1L100.3,58.1z"/>
	<path d="M40.2,67c0.4-0.3,0.9-0.4,1.5-0.4c0.3,0,0.6,0,0.9,0.1s0.5,0.2,0.7,0.4c0.2,0.2,0.4,0.4,0.6,0.6c0.2,0.2,0.3,0.5,0.3,0.8
		h1.4c-0.1-0.5-0.2-1-0.5-1.4c-0.2-0.4-0.5-0.7-0.9-1s-0.7-0.5-1.2-0.6c-0.4-0.1-0.9-0.2-1.4-0.2c-0.8,0-1.5,0.2-2.2,0.6
		c-0.6,0.4-1.1,0.9-1.5,1.7c-0.4,0.7-0.6,1.6-0.6,2.6c0,1,0.2,1.9,0.6,2.6s0.9,1.3,1.5,1.7c0.6,0.4,1.4,0.6,2.2,0.6
		c0.5,0,1-0.1,1.4-0.2c0.4-0.2,0.8-0.4,1.2-0.7c0.3-0.3,0.6-0.6,0.8-1s0.4-0.8,0.4-1.3l-1.4,0c-0.1,0.3-0.2,0.6-0.3,0.8
		c-0.2,0.2-0.3,0.4-0.6,0.6c-0.2,0.2-0.5,0.3-0.7,0.4c-0.3,0.1-0.6,0.1-0.9,0.1c-0.5,0-1-0.1-1.5-0.4c-0.4-0.3-0.8-0.7-1-1.2
		c-0.2-0.5-0.4-1.2-0.4-1.9c0-0.8,0.1-1.4,0.4-1.9C39.4,67.7,39.8,67.3,40.2,67z"/>
	<path d="M51.7,68.1c-0.3-0.2-0.6-0.3-0.9-0.4c-0.3-0.1-0.6-0.1-0.9-0.1c-0.4,0-0.8,0.1-1.2,0.2c-0.4,0.1-0.7,0.3-1,0.6
		s-0.5,0.6-0.7,1l1.3,0.3c0.1-0.2,0.3-0.5,0.6-0.7c0.3-0.2,0.6-0.3,1.1-0.3c0.4,0,0.8,0.1,1,0.3s0.3,0.5,0.3,0.9v0
		c0,0.2-0.1,0.3-0.2,0.4c-0.1,0.1-0.3,0.1-0.6,0.2c-0.3,0-0.6,0.1-1,0.1c-0.3,0-0.7,0.1-1,0.2c-0.3,0.1-0.6,0.2-0.9,0.3
		c-0.3,0.2-0.5,0.4-0.6,0.6s-0.2,0.6-0.2,1c0,0.5,0.1,0.9,0.3,1.2s0.5,0.6,0.9,0.7c0.4,0.2,0.8,0.3,1.2,0.3c0.4,0,0.7-0.1,1-0.2
		c0.3-0.1,0.5-0.3,0.7-0.4c0.2-0.2,0.3-0.3,0.4-0.5h0.1v1h1.3v-4.7c0-0.5-0.1-0.9-0.3-1.3C52.3,68.6,52,68.3,51.7,68.1z M51.3,72.3
		c0,0.3-0.1,0.5-0.2,0.8c-0.1,0.2-0.4,0.4-0.6,0.6c-0.3,0.2-0.6,0.2-1,0.2c-0.4,0-0.7-0.1-1-0.3s-0.4-0.4-0.4-0.8
		c0-0.2,0.1-0.4,0.2-0.6c0.1-0.1,0.3-0.3,0.5-0.3c0.2-0.1,0.5-0.1,0.7-0.2c0.1,0,0.3,0,0.4-0.1c0.2,0,0.3,0,0.5-0.1
		c0.2,0,0.3-0.1,0.5-0.1c0.1,0,0.2-0.1,0.3-0.1V72.3z"/>
	<rect x="54.5" y="65.4" width="1.4" height="9.5"/>
	<path d="M62.9,68.5c-0.3-0.3-0.6-0.5-1-0.6c-0.4-0.1-0.8-0.2-1.2-0.2c-0.7,0-1.2,0.2-1.7,0.5c-0.5,0.3-0.9,0.7-1.1,1.3
		c-0.3,0.6-0.4,1.2-0.4,1.9c0,0.7,0.1,1.4,0.4,1.9s0.7,1,1.2,1.3c0.5,0.3,1.1,0.5,1.8,0.5c0.5,0,1-0.1,1.4-0.2
		c0.4-0.2,0.7-0.4,1-0.7c0.3-0.3,0.5-0.6,0.6-1l-1.3-0.2c-0.1,0.2-0.2,0.4-0.4,0.6c-0.2,0.2-0.3,0.3-0.6,0.3
		c-0.2,0.1-0.5,0.1-0.7,0.1c-0.4,0-0.8-0.1-1.1-0.3c-0.3-0.2-0.5-0.4-0.7-0.8c-0.2-0.3-0.2-0.7-0.2-1.1h5v-0.5
		c0-0.6-0.1-1.2-0.3-1.6C63.4,69.1,63.2,68.8,62.9,68.5z M58.8,70.7c0-0.3,0.1-0.6,0.2-0.9c0.2-0.3,0.4-0.5,0.7-0.7
		c0.3-0.2,0.6-0.3,1-0.3c0.4,0,0.7,0.1,0.9,0.2s0.5,0.4,0.6,0.7c0.1,0.3,0.2,0.6,0.2,1H58.8z"/>
	<path d="M70.2,68c-0.4-0.2-0.8-0.3-1.3-0.3c-0.5,0-1,0.1-1.3,0.3c-0.3,0.2-0.6,0.5-0.8,0.9h-0.1v-1.2h-1.3v7.1h1.4v-4.2
		c0-0.4,0.1-0.7,0.2-1c0.1-0.3,0.3-0.5,0.6-0.6c0.2-0.1,0.5-0.2,0.9-0.2c0.5,0,0.8,0.1,1.1,0.4c0.3,0.3,0.4,0.7,0.4,1.2v4.3h1.4
		v-4.5c0-0.6-0.1-1.1-0.3-1.5C70.8,68.5,70.5,68.2,70.2,68z"/>
	<path d="M78,68.9L78,68.9c-0.2-0.1-0.3-0.3-0.4-0.5c-0.1-0.2-0.4-0.4-0.6-0.5c-0.3-0.1-0.6-0.2-1.1-0.2c-0.6,0-1.1,0.1-1.5,0.4
		s-0.8,0.7-1.1,1.3c-0.3,0.5-0.4,1.2-0.4,2s0.1,1.4,0.4,2c0.3,0.5,0.6,1,1.1,1.3c0.4,0.3,1,0.4,1.5,0.4c0.4,0,0.8-0.1,1.1-0.2
		c0.3-0.1,0.5-0.3,0.6-0.5c0.2-0.2,0.3-0.4,0.4-0.5H78v1.1h1.3v-9.5H78V68.9z M77.8,72.6c-0.1,0.4-0.4,0.7-0.6,0.9
		c-0.3,0.2-0.6,0.3-1,0.3c-0.4,0-0.8-0.1-1-0.3c-0.3-0.2-0.5-0.5-0.6-0.9c-0.1-0.4-0.2-0.8-0.2-1.3c0-0.5,0.1-0.9,0.2-1.3
		c0.1-0.4,0.3-0.7,0.6-0.9c0.3-0.2,0.6-0.3,1-0.3c0.4,0,0.7,0.1,1,0.3s0.5,0.5,0.6,0.9s0.2,0.8,0.2,1.3C78,71.8,77.9,72.2,77.8,72.6
		z"/>
	<path d="M85.9,68.1c-0.3-0.2-0.6-0.3-0.9-0.4c-0.3-0.1-0.6-0.1-0.9-0.1c-0.4,0-0.8,0.1-1.2,0.2c-0.4,0.1-0.7,0.3-1,0.6
		s-0.5,0.6-0.7,1l1.3,0.3c0.1-0.2,0.3-0.5,0.6-0.7c0.3-0.2,0.6-0.3,1.1-0.3c0.4,0,0.8,0.1,1,0.3s0.3,0.5,0.3,0.9v0
		c0,0.2-0.1,0.3-0.2,0.4c-0.1,0.1-0.3,0.1-0.6,0.2c-0.3,0-0.6,0.1-1,0.1c-0.3,0-0.7,0.1-1,0.2c-0.3,0.1-0.6,0.2-0.9,0.3
		c-0.3,0.2-0.5,0.4-0.6,0.6s-0.2,0.6-0.2,1c0,0.5,0.1,0.9,0.3,1.2s0.5,0.6,0.9,0.7c0.4,0.2,0.8,0.3,1.2,0.3c0.4,0,0.7-0.1,1-0.2
		c0.3-0.1,0.5-0.3,0.7-0.4c0.2-0.2,0.3-0.3,0.4-0.5h0.1v1h1.3v-4.7c0-0.5-0.1-0.9-0.3-1.3C86.4,68.6,86.2,68.3,85.9,68.1z
		 M85.5,72.3c0,0.3-0.1,0.5-0.2,0.8c-0.1,0.2-0.4,0.4-0.6,0.6c-0.3,0.2-0.6,0.2-1,0.2c-0.4,0-0.7-0.1-1-0.3s-0.4-0.4-0.4-0.8
		c0-0.2,0.1-0.4,0.2-0.6c0.1-0.1,0.3-0.3,0.5-0.3c0.2-0.1,0.5-0.1,0.7-0.2c0.1,0,0.3,0,0.4-0.1c0.2,0,0.3,0,0.5-0.1
		c0.2,0,0.3-0.1,0.5-0.1c0.1,0,0.2-0.1,0.3-0.1V72.3z"/>
	<path d="M91.9,67.7c-0.4,0-0.8,0.1-1.1,0.3c-0.3,0.2-0.6,0.5-0.7,0.9H90v-1.1h-1.3v7.1h1.4v-4.3c0-0.3,0.1-0.6,0.2-0.8
		c0.1-0.2,0.3-0.4,0.6-0.6s0.5-0.2,0.9-0.2c0.1,0,0.3,0,0.4,0c0.1,0,0.2,0,0.3,0.1v-1.3c-0.1,0-0.2,0-0.3,0S92,67.7,91.9,67.7z"/>
</g>
<g>
	<path d="M54.4,172.5h-3.7v1.2H53c0,0.5-0.1,0.9-0.3,1.3c-0.2,0.4-0.5,0.7-0.9,0.9c-0.4,0.2-0.8,0.3-1.3,0.3c-0.6,0-1-0.1-1.5-0.4
		c-0.4-0.3-0.8-0.7-1-1.2c-0.2-0.5-0.4-1.2-0.4-1.9c0-0.8,0.1-1.4,0.4-1.9c0.2-0.5,0.6-0.9,1-1.2c0.4-0.3,0.9-0.4,1.4-0.4
		c0.3,0,0.6,0,0.9,0.1s0.5,0.2,0.7,0.4c0.2,0.2,0.4,0.3,0.5,0.6c0.1,0.2,0.3,0.5,0.4,0.8h1.5c-0.1-0.5-0.2-0.9-0.5-1.3
		c-0.2-0.4-0.5-0.7-0.9-1c-0.3-0.3-0.7-0.5-1.2-0.6c-0.4-0.2-0.9-0.2-1.4-0.2c-0.6,0-1.2,0.1-1.7,0.3c-0.5,0.2-1,0.5-1.3,1
		c-0.4,0.4-0.7,0.9-0.9,1.5c-0.2,0.6-0.3,1.3-0.3,2c0,1,0.2,1.9,0.5,2.6c0.4,0.7,0.9,1.3,1.5,1.7c0.6,0.4,1.4,0.6,2.3,0.6
		c0.8,0,1.4-0.2,2-0.5c0.6-0.3,1.1-0.8,1.4-1.4c0.3-0.6,0.5-1.3,0.5-2.1V172.5z"/>
	<rect x="56" y="172" width="4.2" height="1.2"/>
	<path d="M67.9,172.9c-0.3-0.2-0.6-0.4-0.9-0.5c-0.3-0.1-0.6-0.2-0.9-0.3l-0.9-0.2c-0.2,0-0.4-0.1-0.6-0.2c-0.2-0.1-0.4-0.2-0.6-0.3
		c-0.2-0.1-0.3-0.2-0.4-0.4c-0.1-0.2-0.2-0.4-0.2-0.6c0-0.3,0.1-0.5,0.2-0.7c0.2-0.2,0.4-0.4,0.7-0.5c0.3-0.1,0.6-0.2,1-0.2
		c0.5,0,1,0.1,1.3,0.4c0.4,0.2,0.6,0.6,0.6,1h1.4c0-0.5-0.2-1-0.4-1.4s-0.7-0.7-1.2-0.9s-1.1-0.3-1.7-0.3c-0.6,0-1.2,0.1-1.7,0.3
		c-0.5,0.2-0.9,0.5-1.2,0.9s-0.4,0.9-0.4,1.4c0,0.7,0.2,1.2,0.7,1.6c0.4,0.4,1,0.7,1.8,0.9l1.1,0.3c0.3,0.1,0.6,0.2,0.9,0.3
		c0.3,0.1,0.5,0.3,0.6,0.4c0.2,0.2,0.2,0.4,0.2,0.7c0,0.3-0.1,0.6-0.3,0.8s-0.4,0.4-0.7,0.5s-0.7,0.2-1.1,0.2c-0.4,0-0.7-0.1-1-0.2
		c-0.3-0.1-0.6-0.3-0.8-0.5c-0.2-0.2-0.3-0.5-0.3-0.9h-1.4c0,0.6,0.2,1.1,0.5,1.5c0.3,0.4,0.7,0.7,1.2,1s1.1,0.3,1.8,0.3
		c0.7,0,1.4-0.1,1.9-0.4c0.5-0.2,0.9-0.6,1.2-1c0.3-0.4,0.4-0.9,0.4-1.4c0-0.4-0.1-0.8-0.3-1.1C68.4,173.3,68.2,173.1,67.9,172.9z"
		/>
	<path d="M75.5,171c-0.3-0.3-0.6-0.5-1-0.6c-0.4-0.1-0.8-0.2-1.2-0.2c-0.7,0-1.2,0.2-1.7,0.5c-0.5,0.3-0.9,0.7-1.1,1.3
		s-0.4,1.2-0.4,1.9c0,0.7,0.1,1.4,0.4,1.9c0.3,0.5,0.7,1,1.2,1.3c0.5,0.3,1.1,0.5,1.8,0.5c0.5,0,1-0.1,1.4-0.2s0.7-0.4,1-0.7
		c0.3-0.3,0.5-0.6,0.6-1l-1.3-0.2c-0.1,0.2-0.2,0.4-0.4,0.6c-0.2,0.2-0.3,0.3-0.6,0.3s-0.5,0.1-0.7,0.1c-0.4,0-0.8-0.1-1.1-0.3
		c-0.3-0.2-0.5-0.4-0.7-0.8c-0.2-0.3-0.2-0.7-0.2-1.1h5v-0.5c0-0.6-0.1-1.2-0.3-1.6S75.8,171.3,75.5,171z M71.5,173.2
		c0-0.3,0.1-0.6,0.2-0.9c0.2-0.3,0.4-0.5,0.7-0.7c0.3-0.2,0.6-0.3,1-0.3c0.4,0,0.7,0.1,0.9,0.2s0.5,0.4,0.6,0.7
		c0.1,0.3,0.2,0.6,0.2,1H71.5z"/>
	<path d="M83.5,176.3c0.2-0.4,0.4-0.8,0.4-1.2h-1.3c-0.1,0.3-0.2,0.5-0.3,0.7c-0.1,0.2-0.3,0.3-0.5,0.4c-0.2,0.1-0.5,0.1-0.7,0.1
		c-0.4,0-0.7-0.1-1-0.3c-0.3-0.2-0.5-0.5-0.7-0.9c-0.2-0.4-0.2-0.8-0.2-1.3c0-0.5,0.1-0.9,0.2-1.3c0.2-0.4,0.4-0.7,0.7-0.9
		c0.3-0.2,0.6-0.3,1-0.3c0.4,0,0.8,0.1,1.1,0.4s0.4,0.5,0.5,0.9h1.3c0-0.5-0.2-0.9-0.5-1.3c-0.3-0.4-0.6-0.6-1-0.8
		c-0.4-0.2-0.9-0.3-1.4-0.3c-0.7,0-1.2,0.2-1.7,0.5c-0.5,0.3-0.9,0.7-1.1,1.3c-0.3,0.6-0.4,1.2-0.4,1.9c0,0.7,0.1,1.3,0.4,1.9
		c0.3,0.6,0.6,1,1.1,1.3c0.5,0.3,1.1,0.5,1.8,0.5c0.6,0,1-0.1,1.5-0.3C82.9,177,83.2,176.7,83.5,176.3z"/>
	<rect x="30.3" y="183.5" width="1.4" height="9.5"/>
	<path d="M38.4,186.1c-0.4-0.2-0.8-0.3-1.3-0.3c-0.5,0-1,0.1-1.3,0.3c-0.3,0.2-0.6,0.5-0.8,0.9H35v-1.2h-1.3v7.1H35v-4.2
		c0-0.4,0.1-0.7,0.2-1c0.1-0.3,0.3-0.5,0.6-0.6c0.2-0.1,0.5-0.2,0.9-0.2c0.5,0,0.8,0.1,1.1,0.4c0.3,0.3,0.4,0.7,0.4,1.2v4.3h1.4
		v-4.5c0-0.6-0.1-1.1-0.3-1.5C39.1,186.6,38.8,186.3,38.4,186.1z"/>
	<path d="M44,183c-0.4,0-0.7,0.1-1,0.2c-0.3,0.1-0.6,0.4-0.8,0.7s-0.3,0.7-0.3,1.1v0.8h-1.1v1.1h1.1v6h1.4v-6h1.5v-1.1h-1.5v-0.6
		c0-0.3,0.1-0.6,0.2-0.7c0.1-0.2,0.4-0.2,0.7-0.2c0.1,0,0.3,0,0.4,0c0.1,0,0.2,0,0.2,0.1l0.3-1.1c-0.1,0-0.2-0.1-0.4-0.1
		C44.5,183.1,44.3,183,44,183z"/>
	<path d="M50.9,186.2c-0.5-0.3-1.1-0.5-1.7-0.5c-0.7,0-1.2,0.2-1.7,0.5s-0.9,0.7-1.2,1.3s-0.4,1.2-0.4,1.9c0,0.7,0.1,1.4,0.4,1.9
		s0.7,1,1.2,1.3s1.1,0.5,1.7,0.5c0.7,0,1.2-0.2,1.7-0.5s0.9-0.7,1.2-1.3s0.4-1.2,0.4-1.9c0-0.7-0.1-1.4-0.4-1.9
		S51.4,186.5,50.9,186.2z M50.9,190.7c-0.1,0.4-0.3,0.7-0.6,0.9c-0.3,0.2-0.6,0.3-1.1,0.3c-0.4,0-0.8-0.1-1.1-0.3
		c-0.3-0.2-0.5-0.5-0.6-0.9c-0.1-0.4-0.2-0.8-0.2-1.3c0-0.5,0.1-0.9,0.2-1.2c0.1-0.4,0.3-0.7,0.6-0.9s0.6-0.3,1.1-0.3
		c0.4,0,0.8,0.1,1.1,0.3s0.5,0.5,0.6,0.9c0.1,0.4,0.2,0.8,0.2,1.2C51.1,189.9,51,190.3,50.9,190.7z"/>
	<path d="M57.3,185.7c-0.4,0-0.8,0.1-1.1,0.3c-0.3,0.2-0.6,0.5-0.7,0.9h-0.1v-1.1H54v7.1h1.4v-4.3c0-0.3,0.1-0.6,0.2-0.8
		c0.1-0.2,0.3-0.4,0.6-0.6s0.5-0.2,0.9-0.2c0.1,0,0.3,0,0.4,0c0.1,0,0.2,0,0.3,0.1v-1.3c-0.1,0-0.2,0-0.3,0S57.3,185.7,57.3,185.7z"
		/>
	<path d="M66.5,185.8c-0.5,0-1,0.1-1.3,0.3s-0.6,0.5-0.8,0.9h-0.1c-0.2-0.4-0.4-0.7-0.7-0.9c-0.3-0.2-0.7-0.3-1.2-0.3
		c-0.5,0-0.9,0.1-1.2,0.3c-0.3,0.2-0.6,0.5-0.7,0.9h-0.1v-1.2H59v7.1h1.4v-4.4c0-0.3,0.1-0.6,0.2-0.8c0.1-0.2,0.3-0.4,0.5-0.6
		c0.2-0.1,0.5-0.2,0.7-0.2c0.4,0,0.7,0.1,0.9,0.4c0.2,0.2,0.4,0.5,0.4,0.9v4.7h1.4v-4.5c0-0.4,0.1-0.8,0.4-1.1
		c0.2-0.3,0.6-0.4,1-0.4c0.4,0,0.7,0.1,0.9,0.3c0.3,0.2,0.4,0.6,0.4,1v4.6h1.4v-4.8c0-0.8-0.2-1.4-0.6-1.8
		C67.7,186,67.1,185.8,66.5,185.8z"/>
	<path d="M75.1,186.2c-0.3-0.2-0.6-0.3-0.9-0.4c-0.3-0.1-0.6-0.1-0.9-0.1c-0.4,0-0.8,0.1-1.2,0.2c-0.4,0.1-0.7,0.3-1,0.6
		s-0.5,0.6-0.7,1l1.3,0.3c0.1-0.2,0.3-0.5,0.6-0.7c0.3-0.2,0.6-0.3,1.1-0.3c0.4,0,0.8,0.1,1,0.3s0.3,0.5,0.3,0.9v0
		c0,0.2-0.1,0.3-0.2,0.4c-0.1,0.1-0.3,0.1-0.6,0.2c-0.3,0-0.6,0.1-1,0.1c-0.3,0-0.7,0.1-1,0.2c-0.3,0.1-0.6,0.2-0.9,0.3
		c-0.3,0.2-0.5,0.4-0.6,0.6s-0.2,0.6-0.2,1c0,0.5,0.1,0.9,0.3,1.2s0.5,0.6,0.9,0.7c0.4,0.2,0.8,0.3,1.2,0.3c0.4,0,0.7-0.1,1-0.2
		c0.3-0.1,0.5-0.3,0.7-0.4c0.2-0.2,0.3-0.3,0.4-0.5h0.1v1h1.3v-4.7c0-0.5-0.1-0.9-0.3-1.3C75.6,186.6,75.4,186.4,75.1,186.2z
		 M74.7,190.4c0,0.3-0.1,0.5-0.2,0.8c-0.1,0.2-0.4,0.4-0.6,0.6c-0.3,0.2-0.6,0.2-1,0.2c-0.4,0-0.7-0.1-1-0.3s-0.4-0.4-0.4-0.8
		c0-0.2,0.1-0.4,0.2-0.6c0.1-0.1,0.3-0.3,0.5-0.3c0.2-0.1,0.5-0.1,0.7-0.2c0.1,0,0.3,0,0.4-0.1c0.2,0,0.3,0,0.5-0.1
		c0.2,0,0.3-0.1,0.5-0.1c0.1,0,0.2-0.1,0.3-0.1V190.4z"/>
	<path d="M80.9,191.8c-0.1,0-0.2,0-0.3,0c-0.2,0-0.3,0-0.4-0.1s-0.2-0.1-0.3-0.3s-0.1-0.3-0.1-0.6V187h1.5v-1.1h-1.5v-1.7h-1.4v1.7
		h-1v1.1h1v4.2c0,0.4,0.1,0.8,0.3,1.1s0.4,0.5,0.8,0.6c0.3,0.1,0.7,0.2,1,0.2c0.2,0,0.4,0,0.6-0.1c0.1,0,0.3-0.1,0.3-0.1l-0.2-1.1
		C81.1,191.8,81,191.8,80.9,191.8z"/>
	<path d="M83.5,183.1c-0.2,0-0.4,0.1-0.6,0.2c-0.2,0.2-0.3,0.4-0.3,0.6c0,0.2,0.1,0.4,0.3,0.6c0.2,0.2,0.4,0.2,0.6,0.2
		s0.4-0.1,0.6-0.2c0.2-0.2,0.3-0.4,0.3-0.6c0-0.2-0.1-0.4-0.3-0.6C83.9,183.2,83.7,183.1,83.5,183.1z"/>
	<rect x="82.8" y="185.9" width="1.4" height="7.1"/>
	<path d="M90.7,186.2c-0.5-0.3-1.1-0.5-1.7-0.5c-0.7,0-1.2,0.2-1.7,0.5s-0.9,0.7-1.2,1.3s-0.4,1.2-0.4,1.9c0,0.7,0.1,1.4,0.4,1.9
		s0.7,1,1.2,1.3s1.1,0.5,1.7,0.5c0.7,0,1.2-0.2,1.7-0.5s0.9-0.7,1.2-1.3s0.4-1.2,0.4-1.9c0-0.7-0.1-1.4-0.4-1.9
		S91.2,186.5,90.7,186.2z M90.7,190.7c-0.1,0.4-0.3,0.7-0.6,0.9c-0.3,0.2-0.6,0.3-1.1,0.3c-0.4,0-0.8-0.1-1.1-0.3
		c-0.3-0.2-0.5-0.5-0.6-0.9c-0.1-0.4-0.2-0.8-0.2-1.3c0-0.5,0.1-0.9,0.2-1.2c0.1-0.4,0.3-0.7,0.6-0.9s0.6-0.3,1.1-0.3
		c0.4,0,0.8,0.1,1.1,0.3s0.5,0.5,0.6,0.9c0.1,0.4,0.2,0.8,0.2,1.2C90.9,189.9,90.8,190.3,90.7,190.7z"/>
	<path d="M99.4,187c-0.2-0.4-0.5-0.7-0.8-0.9c-0.4-0.2-0.8-0.3-1.3-0.3c-0.5,0-1,0.1-1.3,0.3c-0.3,0.2-0.6,0.5-0.8,0.9h-0.1v-1.2
		h-1.3v7.1h1.4v-4.2c0-0.4,0.1-0.7,0.2-1c0.1-0.3,0.3-0.5,0.6-0.6c0.2-0.1,0.5-0.2,0.9-0.2c0.5,0,0.8,0.1,1.1,0.4
		c0.3,0.3,0.4,0.7,0.4,1.2v4.3h1.4v-4.5C99.7,187.8,99.6,187.4,99.4,187z"/>
</g>
<g>
	<path d="M31,286.1l-3.4,9.5h1.5L30,293h3.7l0.9,2.5h1.5l-3.4-9.5H31z M30.4,291.8l1.4-4h0.1l1.4,4H30.4z"/>
	<path d="M41.7,295c0.2-0.2,0.3-0.4,0.4-0.5h0.1v1.1h1.3v-9.5h-1.4v3.5H42c-0.1-0.1-0.2-0.3-0.3-0.5c-0.1-0.2-0.4-0.4-0.6-0.5
		c-0.3-0.1-0.6-0.2-1.1-0.2c-0.6,0-1.1,0.1-1.5,0.4s-0.8,0.7-1.1,1.3c-0.3,0.5-0.4,1.2-0.4,2s0.1,1.4,0.4,2c0.3,0.5,0.6,1,1.1,1.3
		c0.4,0.3,1,0.4,1.5,0.4c0.4,0,0.8-0.1,1.1-0.2C41.3,295.3,41.5,295.2,41.7,295z M39.3,294.2c-0.3-0.2-0.5-0.5-0.6-0.9
		c-0.1-0.4-0.2-0.8-0.2-1.3c0-0.5,0.1-0.9,0.2-1.3c0.1-0.4,0.3-0.7,0.6-0.9c0.3-0.2,0.6-0.3,1-0.3c0.4,0,0.7,0.1,1,0.3
		s0.5,0.5,0.6,0.9s0.2,0.8,0.2,1.3c0,0.5-0.1,0.9-0.2,1.3c-0.1,0.4-0.4,0.7-0.6,0.9c-0.3,0.2-0.6,0.3-1,0.3
		C39.9,294.5,39.5,294.4,39.3,294.2z"/>
	<polygon points="51.5,288.5 50,288.5 48.3,293.9 48.2,293.9 46.4,288.5 44.9,288.5 47.5,295.5 49,295.5 	"/>
	<path d="M56.6,295.1c0.2-0.2,0.3-0.3,0.4-0.5H57v1h1.3v-4.7c0-0.5-0.1-0.9-0.3-1.3c-0.2-0.3-0.4-0.6-0.7-0.8
		c-0.3-0.2-0.6-0.3-0.9-0.4c-0.3-0.1-0.6-0.1-0.9-0.1c-0.4,0-0.8,0.1-1.2,0.2c-0.4,0.1-0.7,0.3-1,0.6s-0.5,0.6-0.7,1l1.3,0.3
		c0.1-0.2,0.3-0.5,0.6-0.7c0.3-0.2,0.6-0.3,1.1-0.3c0.4,0,0.8,0.1,1,0.3s0.3,0.5,0.3,0.9v0c0,0.2-0.1,0.3-0.2,0.4
		c-0.1,0.1-0.3,0.1-0.6,0.2c-0.3,0-0.6,0.1-1,0.1c-0.3,0-0.7,0.1-1,0.2c-0.3,0.1-0.6,0.2-0.9,0.3c-0.3,0.2-0.5,0.4-0.6,0.6
		s-0.2,0.6-0.2,1c0,0.5,0.1,0.9,0.3,1.2s0.5,0.6,0.9,0.7c0.4,0.2,0.8,0.3,1.2,0.3c0.4,0,0.7-0.1,1-0.2
		C56.2,295.4,56.4,295.3,56.6,295.1z M54.2,294.3c-0.3-0.2-0.4-0.4-0.4-0.8c0-0.2,0.1-0.4,0.2-0.6c0.1-0.1,0.3-0.3,0.5-0.3
		c0.2-0.1,0.5-0.1,0.7-0.2c0.1,0,0.3,0,0.4-0.1c0.2,0,0.3,0,0.5-0.1c0.2,0,0.3-0.1,0.5-0.1c0.1,0,0.2-0.1,0.3-0.1v0.9
		c0,0.3-0.1,0.5-0.2,0.8c-0.1,0.2-0.4,0.4-0.6,0.6c-0.3,0.2-0.6,0.2-1,0.2C54.8,294.6,54.5,294.5,54.2,294.3z"/>
	<path d="M61.6,291.3c0-0.4,0.1-0.7,0.2-1c0.1-0.3,0.3-0.5,0.6-0.6c0.2-0.1,0.5-0.2,0.9-0.2c0.5,0,0.8,0.1,1.1,0.4
		c0.3,0.3,0.4,0.7,0.4,1.2v4.3h1.4V291c0-0.6-0.1-1.1-0.3-1.5c-0.2-0.4-0.5-0.7-0.8-0.9c-0.4-0.2-0.8-0.3-1.3-0.3
		c-0.5,0-1,0.1-1.3,0.3c-0.3,0.2-0.6,0.5-0.8,0.9h-0.1v-1.2h-1.3v7.1h1.4V291.3z"/>
	<path d="M73.4,294.5c0.2-0.4,0.4-0.8,0.4-1.2h-1.3c-0.1,0.3-0.2,0.5-0.3,0.7c-0.1,0.2-0.3,0.3-0.5,0.4s-0.5,0.1-0.7,0.1
		c-0.4,0-0.7-0.1-1-0.3c-0.3-0.2-0.5-0.5-0.7-0.9c-0.2-0.4-0.2-0.8-0.2-1.3c0-0.5,0.1-0.9,0.2-1.3s0.4-0.7,0.7-0.9
		c0.3-0.2,0.6-0.3,1-0.3c0.4,0,0.8,0.1,1.1,0.4c0.3,0.2,0.4,0.5,0.5,0.9h1.3c0-0.5-0.2-0.9-0.5-1.3c-0.3-0.4-0.6-0.6-1-0.8
		c-0.4-0.2-0.9-0.3-1.4-0.3c-0.7,0-1.2,0.2-1.7,0.5c-0.5,0.3-0.9,0.7-1.1,1.3s-0.4,1.2-0.4,1.9c0,0.7,0.1,1.3,0.4,1.9s0.6,1,1.1,1.3
		c0.5,0.3,1.1,0.5,1.8,0.5c0.6,0,1-0.1,1.5-0.3S73.2,294.9,73.4,294.5z"/>
	<path d="M80.1,293.5c-0.1,0.2-0.2,0.4-0.4,0.6c-0.2,0.2-0.3,0.3-0.6,0.3c-0.2,0.1-0.5,0.1-0.7,0.1c-0.4,0-0.8-0.1-1.1-0.3
		c-0.3-0.2-0.5-0.4-0.7-0.8c-0.2-0.3-0.2-0.7-0.2-1.1h5v-0.5c0-0.6-0.1-1.2-0.3-1.6c-0.2-0.5-0.4-0.8-0.7-1.1
		c-0.3-0.3-0.6-0.5-1-0.6c-0.4-0.1-0.8-0.2-1.2-0.2c-0.7,0-1.2,0.2-1.7,0.5c-0.5,0.3-0.9,0.7-1.1,1.3c-0.3,0.6-0.4,1.2-0.4,1.9
		c0,0.7,0.1,1.4,0.4,1.9s0.7,1,1.2,1.3c0.5,0.3,1.1,0.5,1.8,0.5c0.5,0,1-0.1,1.4-0.2c0.4-0.2,0.7-0.4,1-0.7c0.3-0.3,0.5-0.6,0.6-1
		L80.1,293.5z M76.7,290.5c0.2-0.3,0.4-0.5,0.7-0.7c0.3-0.2,0.6-0.3,1-0.3c0.4,0,0.7,0.1,0.9,0.2s0.5,0.4,0.6,0.7
		c0.1,0.3,0.2,0.6,0.2,1h-3.7C76.5,291.1,76.5,290.8,76.7,290.5z"/>
	<path d="M89.2,295.5v-9.5h-1.4v3.5h-0.1c-0.1-0.1-0.2-0.3-0.3-0.5c-0.1-0.2-0.4-0.4-0.6-0.5c-0.3-0.1-0.6-0.2-1.1-0.2
		c-0.6,0-1.1,0.1-1.5,0.4s-0.8,0.7-1.1,1.3c-0.3,0.5-0.4,1.2-0.4,2s0.1,1.4,0.4,2c0.3,0.5,0.6,1,1.1,1.3c0.4,0.3,1,0.4,1.5,0.4
		c0.4,0,0.8-0.1,1.1-0.2c0.3-0.1,0.5-0.3,0.6-0.5c0.2-0.2,0.3-0.4,0.4-0.5h0.1v1.1H89.2z M87.6,293.3c-0.1,0.4-0.4,0.7-0.6,0.9
		c-0.3,0.2-0.6,0.3-1,0.3c-0.4,0-0.8-0.1-1-0.3c-0.3-0.2-0.5-0.5-0.6-0.9c-0.1-0.4-0.2-0.8-0.2-1.3c0-0.5,0.1-0.9,0.2-1.3
		c0.1-0.4,0.3-0.7,0.6-0.9c0.3-0.2,0.6-0.3,1-0.3c0.4,0,0.7,0.1,1,0.3s0.5,0.5,0.6,0.9s0.2,0.8,0.2,1.3
		C87.8,292.5,87.7,292.9,87.6,293.3z"/>
	<path d="M100.6,293.9c0,0,0.1-0.1,0.1-0.1c0.2-0.3,0.4-0.6,0.5-1c0.1-0.4,0.2-0.9,0.2-1.5h-1.2c0,0.5-0.1,0.9-0.2,1.3
		c0,0.1-0.1,0.2-0.2,0.3l-1.9-2.3l0.6-0.5c0.4-0.3,0.7-0.6,0.9-0.9c0.2-0.3,0.3-0.7,0.3-1.2c0-0.4-0.1-0.7-0.3-1
		c-0.2-0.3-0.5-0.6-0.8-0.8c-0.3-0.2-0.8-0.3-1.3-0.3c-0.5,0-0.9,0.1-1.3,0.3c-0.4,0.2-0.6,0.5-0.8,0.8c-0.2,0.3-0.3,0.7-0.3,1.2
		c0,0.4,0.1,0.7,0.2,1.1c0.2,0.3,0.4,0.7,0.6,1c0.1,0.1,0.1,0.1,0.2,0.2c-0.3,0.2-0.6,0.5-0.9,0.7c-0.3,0.3-0.5,0.5-0.7,0.8
		c-0.2,0.3-0.2,0.6-0.2,1c0,0.5,0.1,1,0.4,1.4s0.6,0.7,1.1,0.9c0.5,0.2,1,0.3,1.6,0.3c0.4,0,0.9-0.1,1.3-0.2
		c0.4-0.1,0.8-0.4,1.1-0.7l0.6,0.8h1.6L100.6,293.9z M96.5,287.7c0.1-0.2,0.2-0.3,0.4-0.4c0.2-0.1,0.4-0.2,0.6-0.2
		c0.3,0,0.6,0.1,0.8,0.3s0.3,0.4,0.3,0.6c0,0.3-0.1,0.5-0.2,0.7c-0.1,0.2-0.3,0.4-0.6,0.5l-0.6,0.4c0-0.1-0.1-0.1-0.1-0.2
		c-0.2-0.2-0.3-0.5-0.5-0.7c-0.1-0.2-0.2-0.4-0.2-0.7C96.4,288.1,96.4,287.9,96.5,287.7z M98.4,294.3c-0.3,0.2-0.7,0.2-1,0.2
		c-0.3,0-0.6-0.1-0.9-0.2c-0.3-0.1-0.5-0.3-0.6-0.6c-0.1-0.2-0.2-0.5-0.2-0.8c0-0.1,0.1-0.4,0.2-0.6c0.1-0.3,0.4-0.5,0.8-0.8
		l0.2-0.2l2.1,2.5C98.8,294,98.6,294.2,98.4,294.3z"/>
	<polygon points="30.1,309 30,309 27,301.7 25.3,301.7 25.3,311.1 26.6,311.1 26.6,304.3 26.7,304.3 29.5,311.1 30.6,311.1 
		33.4,304.3 33.5,304.3 33.5,311.1 34.9,311.1 34.9,301.7 33.2,301.7 	"/>
	<rect x="36.8" y="304.1" width="1.4" height="7.1"/>
	<path d="M37.5,301.3c-0.2,0-0.4,0.1-0.6,0.2c-0.2,0.2-0.3,0.4-0.3,0.6c0,0.2,0.1,0.4,0.3,0.6c0.2,0.2,0.4,0.2,0.6,0.2
		s0.4-0.1,0.6-0.2c0.2-0.2,0.3-0.4,0.3-0.6c0-0.2-0.1-0.4-0.3-0.6C38,301.4,37.8,301.3,37.5,301.3z"/>
	<path d="M44.9,304.3c-0.4-0.2-0.8-0.3-1.3-0.3c-0.5,0-1,0.1-1.3,0.3c-0.3,0.2-0.6,0.5-0.8,0.9h-0.1v-1.2h-1.3v7.1h1.4v-4.2
		c0-0.4,0.1-0.7,0.2-1c0.1-0.3,0.3-0.5,0.6-0.6c0.2-0.1,0.5-0.2,0.9-0.2c0.5,0,0.8,0.1,1.1,0.4c0.3,0.3,0.4,0.7,0.4,1.2v4.3H46v-4.5
		c0-0.6-0.1-1.1-0.3-1.5C45.5,304.8,45.2,304.5,44.9,304.3z"/>
	<path d="M52.3,308.2c0,0.4-0.1,0.7-0.3,1c-0.2,0.3-0.4,0.5-0.6,0.6s-0.5,0.2-0.8,0.2c-0.4,0-0.8-0.1-1-0.4
		c-0.3-0.3-0.4-0.7-0.4-1.2v-4.3h-1.4v4.5c0,0.6,0.1,1.1,0.3,1.5c0.2,0.4,0.5,0.7,0.8,0.9c0.3,0.2,0.8,0.3,1.2,0.3
		c0.5,0,1-0.1,1.3-0.4c0.4-0.3,0.6-0.6,0.8-0.9h0.1v1.2h1.4v-7.1h-1.4V308.2z"/>
	<path d="M58.6,310c-0.1,0-0.2,0-0.3,0c-0.2,0-0.3,0-0.4-0.1c-0.1,0-0.2-0.1-0.3-0.3s-0.1-0.3-0.1-0.6v-3.9h1.5v-1.1h-1.5v-1.7h-1.4
		v1.7h-1v1.1h1v4.2c0,0.4,0.1,0.8,0.3,1.1s0.4,0.5,0.8,0.6c0.3,0.1,0.7,0.2,1,0.2c0.2,0,0.4,0,0.6-0.1c0.1,0,0.3-0.1,0.3-0.1
		l-0.2-1.1C58.7,310,58.7,310,58.6,310z"/>
	<path d="M65.5,304.8c-0.3-0.3-0.6-0.5-1-0.6c-0.4-0.1-0.8-0.2-1.2-0.2c-0.7,0-1.2,0.2-1.7,0.5c-0.5,0.3-0.9,0.7-1.1,1.3
		s-0.4,1.2-0.4,1.9c0,0.7,0.1,1.4,0.4,1.9c0.3,0.5,0.7,1,1.2,1.3c0.5,0.3,1.1,0.5,1.8,0.5c0.5,0,1-0.1,1.4-0.2s0.7-0.4,1-0.7
		c0.3-0.3,0.5-0.6,0.6-1l-1.3-0.2c-0.1,0.2-0.2,0.4-0.4,0.6c-0.2,0.2-0.3,0.3-0.6,0.3c-0.2,0.1-0.5,0.1-0.7,0.1
		c-0.4,0-0.8-0.1-1.1-0.3c-0.3-0.2-0.5-0.4-0.7-0.8c-0.2-0.3-0.2-0.7-0.2-1.1h5v-0.5c0-0.6-0.1-1.2-0.3-1.6S65.8,305.1,65.5,304.8z
		 M61.5,307c0-0.3,0.1-0.6,0.2-0.9c0.2-0.3,0.4-0.5,0.7-0.7c0.3-0.2,0.6-0.3,1-0.3c0.4,0,0.7,0.1,0.9,0.2s0.5,0.4,0.6,0.7
		c0.1,0.3,0.2,0.6,0.2,1H61.5z"/>
	<path d="M74.1,303.3c0.4-0.3,0.9-0.4,1.5-0.4c0.3,0,0.6,0,0.9,0.1s0.5,0.2,0.7,0.4c0.2,0.2,0.4,0.4,0.6,0.6
		c0.2,0.2,0.3,0.5,0.3,0.8h1.4c-0.1-0.5-0.2-1-0.5-1.4c-0.2-0.4-0.5-0.7-0.9-1s-0.7-0.5-1.2-0.6c-0.4-0.1-0.9-0.2-1.4-0.2
		c-0.8,0-1.5,0.2-2.2,0.6s-1.1,0.9-1.5,1.7c-0.4,0.7-0.6,1.6-0.6,2.6c0,1,0.2,1.9,0.6,2.6c0.4,0.7,0.9,1.3,1.5,1.7s1.4,0.6,2.2,0.6
		c0.5,0,1-0.1,1.4-0.2c0.4-0.2,0.8-0.4,1.2-0.7c0.3-0.3,0.6-0.6,0.8-1c0.2-0.4,0.4-0.8,0.4-1.3l-1.4,0c-0.1,0.3-0.2,0.6-0.3,0.8
		s-0.3,0.4-0.6,0.6c-0.2,0.2-0.5,0.3-0.7,0.4c-0.3,0.1-0.6,0.1-0.9,0.1c-0.5,0-1-0.1-1.5-0.4c-0.4-0.3-0.8-0.7-1-1.2
		c-0.2-0.5-0.4-1.2-0.4-1.9c0-0.8,0.1-1.4,0.4-1.9C73.3,303.9,73.7,303.5,74.1,303.3z"/>
	<path d="M85.9,304.3c-0.4-0.2-0.8-0.3-1.3-0.3c-0.6,0-1,0.1-1.3,0.3s-0.6,0.5-0.8,0.9h-0.1v-3.5h-1.4v9.5h1.4v-4.2
		c0-0.4,0.1-0.7,0.2-1c0.1-0.3,0.3-0.5,0.6-0.6s0.5-0.2,0.9-0.2c0.5,0,0.8,0.1,1.1,0.4c0.3,0.3,0.4,0.7,0.4,1.2v4.3H87v-4.5
		c0-0.6-0.1-1.1-0.3-1.5C86.5,304.8,86.2,304.5,85.9,304.3z"/>
	<path d="M93.5,304.4c-0.3-0.2-0.6-0.3-0.9-0.4c-0.3-0.1-0.6-0.1-0.9-0.1c-0.4,0-0.8,0.1-1.2,0.2c-0.4,0.1-0.7,0.3-1,0.6
		c-0.3,0.3-0.5,0.6-0.7,1l1.3,0.3c0.1-0.2,0.3-0.5,0.6-0.7c0.3-0.2,0.6-0.3,1.1-0.3c0.4,0,0.8,0.1,1,0.3c0.2,0.2,0.3,0.5,0.3,0.9v0
		c0,0.2-0.1,0.3-0.2,0.4s-0.3,0.1-0.6,0.2s-0.6,0.1-1,0.1c-0.3,0-0.7,0.1-1,0.2s-0.6,0.2-0.9,0.3c-0.3,0.2-0.5,0.4-0.6,0.6
		c-0.2,0.3-0.2,0.6-0.2,1c0,0.5,0.1,0.9,0.3,1.2c0.2,0.3,0.5,0.6,0.9,0.7c0.4,0.2,0.8,0.3,1.2,0.3c0.4,0,0.7-0.1,1-0.2
		c0.3-0.1,0.5-0.3,0.7-0.4c0.2-0.2,0.3-0.3,0.4-0.5h0.1v1h1.3v-4.7c0-0.5-0.1-0.9-0.3-1.3C94,304.8,93.8,304.6,93.5,304.4z
		 M93.1,308.6c0,0.3-0.1,0.5-0.2,0.8c-0.1,0.2-0.4,0.4-0.6,0.6c-0.3,0.2-0.6,0.2-1,0.2c-0.4,0-0.7-0.1-1-0.3s-0.4-0.4-0.4-0.8
		c0-0.2,0.1-0.4,0.2-0.6c0.1-0.1,0.3-0.3,0.5-0.3c0.2-0.1,0.5-0.1,0.7-0.2c0.1,0,0.3,0,0.4-0.1c0.2,0,0.3,0,0.5-0.1
		c0.2,0,0.3-0.1,0.5-0.1c0.1,0,0.2-0.1,0.3-0.1V308.6z"/>
	<path d="M99.5,303.9c-0.4,0-0.8,0.1-1.1,0.3s-0.6,0.5-0.7,0.9h-0.1v-1.1h-1.3v7.1h1.4v-4.3c0-0.3,0.1-0.6,0.2-0.8
		c0.1-0.2,0.3-0.4,0.6-0.6c0.3-0.1,0.5-0.2,0.9-0.2c0.1,0,0.3,0,0.4,0c0.1,0,0.2,0,0.3,0.1V304c-0.1,0-0.2,0-0.3,0
		C99.7,304,99.6,303.9,99.5,303.9z"/>
	<path d="M104.5,309.9c0,0-0.1,0-0.2,0c-0.1,0-0.2,0-0.3,0c-0.2,0-0.3,0-0.4-0.1c-0.1,0-0.2-0.1-0.3-0.3s-0.1-0.3-0.1-0.6v-3.9h1.5
		v-1.1h-1.5v-1.7h-1.4v1.7h-1v1.1h1v4.2c0,0.4,0.1,0.8,0.3,1.1s0.4,0.5,0.8,0.6c0.3,0.1,0.7,0.2,1,0.2c0.2,0,0.4,0,0.6-0.1
		c0.1,0,0.3-0.1,0.3-0.1L104.5,309.9z"/>
</g>
<g>
	<polygon points="55.7,414 51.4,414 51.4,405.7 50,405.7 50,415.2 55.7,415.2 	"/>
	<path d="M62.7,414.8c0.5-0.2,0.8-0.5,1-0.9c0.2-0.4,0.3-0.8,0.3-1.3c0-0.5-0.1-0.9-0.3-1.2c-0.2-0.3-0.4-0.6-0.7-0.8
		c-0.3-0.2-0.6-0.3-0.9-0.3v-0.1c0.3-0.1,0.6-0.2,0.8-0.4c0.2-0.2,0.4-0.4,0.6-0.6c0.1-0.3,0.2-0.6,0.2-1c0-0.5-0.1-0.9-0.3-1.3
		c-0.2-0.4-0.5-0.7-1-0.9c-0.4-0.2-1-0.3-1.7-0.3h-3.5v9.5h3.6C61.7,415.2,62.3,415.1,62.7,414.8z M58.7,406.9h1.9
		c0.6,0,1,0.1,1.3,0.4s0.4,0.6,0.4,1c0,0.3-0.1,0.6-0.2,0.8c-0.2,0.2-0.4,0.4-0.6,0.5c-0.3,0.1-0.5,0.2-0.9,0.2h-1.9V406.9z
		 M58.7,414v-3h2.1c0.4,0,0.7,0.1,1,0.2c0.3,0.1,0.5,0.3,0.6,0.6c0.2,0.2,0.2,0.5,0.2,0.8c0,0.4-0.1,0.7-0.4,1
		c-0.3,0.3-0.8,0.4-1.5,0.4H58.7z"/>
	<path d="M70.1,413.9c-0.3,0.1-0.7,0.2-1.1,0.2c-0.4,0-0.7-0.1-1-0.2c-0.3-0.1-0.6-0.3-0.8-0.5c-0.2-0.2-0.3-0.5-0.3-0.9h-1.4
		c0,0.6,0.2,1.1,0.5,1.5c0.3,0.4,0.7,0.7,1.2,1s1.1,0.3,1.8,0.3c0.7,0,1.4-0.1,1.9-0.4c0.5-0.2,0.9-0.6,1.2-1
		c0.3-0.4,0.4-0.9,0.4-1.4c0-0.4-0.1-0.8-0.3-1.1c-0.2-0.3-0.4-0.6-0.7-0.8c-0.3-0.2-0.6-0.4-0.9-0.5c-0.3-0.1-0.6-0.2-0.9-0.3
		l-0.9-0.2c-0.2,0-0.4-0.1-0.6-0.2c-0.2-0.1-0.4-0.2-0.6-0.3c-0.2-0.1-0.3-0.2-0.4-0.4c-0.1-0.2-0.2-0.4-0.2-0.6
		c0-0.3,0.1-0.5,0.2-0.7c0.2-0.2,0.4-0.4,0.7-0.5c0.3-0.1,0.6-0.2,1-0.2c0.5,0,1,0.1,1.3,0.4c0.4,0.2,0.6,0.6,0.6,1h1.4
		c0-0.5-0.2-1-0.4-1.4s-0.7-0.7-1.2-0.9s-1.1-0.3-1.7-0.3c-0.6,0-1.2,0.1-1.7,0.3c-0.5,0.2-0.9,0.5-1.2,0.9s-0.4,0.9-0.4,1.4
		c0,0.7,0.2,1.2,0.7,1.6c0.4,0.4,1,0.7,1.8,0.9l1.1,0.3c0.3,0.1,0.6,0.2,0.9,0.3c0.3,0.1,0.5,0.3,0.6,0.4c0.2,0.2,0.2,0.4,0.2,0.7
		c0,0.3-0.1,0.6-0.3,0.8S70.4,413.8,70.1,413.9z"/>
	<polygon points="79.9,414 75.6,414 75.6,405.7 74.2,405.7 74.2,415.2 79.9,415.2 	"/>
	<path d="M50.1,426.8c0.5-0.2,0.8-0.6,1.1-1s0.4-0.9,0.4-1.5c0-0.6-0.1-1.1-0.4-1.5c-0.2-0.4-0.6-0.8-1.1-1
		c-0.5-0.3-1.1-0.4-1.8-0.4h-3.4v9.5h1.4v-3.6h1.9c0,0,0.1,0,0.1,0l1.9,3.6h1.6l-2.1-3.8C49.9,426.9,50,426.9,50.1,426.8z
		 M46.3,422.6h1.8c0.5,0,0.9,0.1,1.1,0.2c0.3,0.1,0.5,0.3,0.6,0.6c0.1,0.3,0.2,0.6,0.2,0.9c0,0.4-0.1,0.7-0.2,0.9s-0.3,0.4-0.6,0.6
		c-0.3,0.1-0.7,0.2-1.1,0.2h-1.8V422.6z"/>
	<path d="M58.3,424.4c-0.3-0.3-0.6-0.5-1-0.6c-0.4-0.1-0.8-0.2-1.2-0.2c-0.7,0-1.2,0.2-1.7,0.5c-0.5,0.3-0.9,0.7-1.1,1.3
		c-0.3,0.6-0.4,1.2-0.4,1.9c0,0.7,0.1,1.4,0.4,1.9s0.7,1,1.2,1.3c0.5,0.3,1.1,0.5,1.8,0.5c0.5,0,1-0.1,1.4-0.2
		c0.4-0.2,0.7-0.4,1-0.7c0.3-0.3,0.5-0.6,0.6-1l-1.3-0.2c-0.1,0.2-0.2,0.4-0.4,0.6c-0.2,0.2-0.3,0.3-0.6,0.3
		c-0.2,0.1-0.5,0.1-0.7,0.1c-0.4,0-0.8-0.1-1.1-0.3c-0.3-0.2-0.5-0.4-0.7-0.8c-0.2-0.3-0.2-0.7-0.2-1.1h5v-0.5
		c0-0.6-0.1-1.2-0.3-1.6C58.8,425.1,58.6,424.7,58.3,424.4z M54.2,426.6c0-0.3,0.1-0.6,0.2-0.9c0.2-0.3,0.4-0.5,0.7-0.7
		c0.3-0.2,0.6-0.3,1-0.3c0.4,0,0.7,0.1,0.9,0.2s0.5,0.4,0.6,0.7c0.1,0.3,0.2,0.6,0.2,1H54.2z"/>
	<path d="M65.8,424c-0.4-0.3-1-0.4-1.5-0.4c-0.4,0-0.8,0.1-1.1,0.2c-0.3,0.1-0.5,0.3-0.6,0.5c-0.2,0.2-0.3,0.4-0.3,0.5h-0.1v-1.1
		h-1.3v9.8h1.4v-3.8h0.1c0.1,0.2,0.2,0.3,0.4,0.5c0.2,0.2,0.4,0.4,0.6,0.5s0.6,0.2,1.1,0.2c0.6,0,1.1-0.1,1.5-0.4s0.8-0.7,1.1-1.3
		c0.3-0.5,0.4-1.2,0.4-2s-0.1-1.4-0.4-2C66.6,424.7,66.3,424.3,65.8,424z M65.7,428.5c-0.1,0.4-0.4,0.7-0.6,0.9
		c-0.3,0.2-0.6,0.3-1,0.3c-0.4,0-0.7-0.1-1-0.3s-0.5-0.5-0.6-0.9c-0.1-0.4-0.2-0.8-0.2-1.3c0-0.5,0.1-0.9,0.2-1.3s0.4-0.7,0.6-0.9
		c0.3-0.2,0.6-0.3,1-0.3c0.4,0,0.8,0.1,1,0.3c0.3,0.2,0.5,0.5,0.6,0.9c0.1,0.4,0.2,0.8,0.2,1.3C65.9,427.7,65.8,428.1,65.7,428.5z"
		/>
	<path d="M73.6,424.1c-0.5-0.3-1.1-0.5-1.7-0.5c-0.7,0-1.2,0.2-1.7,0.5s-0.9,0.7-1.2,1.3s-0.4,1.2-0.4,1.9c0,0.7,0.1,1.4,0.4,1.9
		s0.7,1,1.2,1.3s1.1,0.5,1.7,0.5c0.7,0,1.2-0.2,1.7-0.5s0.9-0.7,1.2-1.3s0.4-1.2,0.4-1.9c0-0.7-0.1-1.4-0.4-1.9
		S74.1,424.4,73.6,424.1z M73.5,428.5c-0.1,0.4-0.3,0.7-0.6,0.9c-0.3,0.2-0.6,0.3-1.1,0.3c-0.4,0-0.8-0.1-1.1-0.3
		c-0.3-0.2-0.5-0.5-0.6-0.9c-0.1-0.4-0.2-0.8-0.2-1.3c0-0.5,0.1-0.9,0.2-1.2c0.1-0.4,0.3-0.7,0.6-0.9s0.6-0.3,1.1-0.3
		c0.4,0,0.8,0.1,1.1,0.3s0.5,0.5,0.6,0.9c0.1,0.4,0.2,0.8,0.2,1.2C73.7,427.7,73.7,428.1,73.5,428.5z"/>
	<path d="M79.9,423.6c-0.4,0-0.8,0.1-1.1,0.3c-0.3,0.2-0.6,0.5-0.7,0.9H78v-1.1h-1.3v7.1H78v-4.3c0-0.3,0.1-0.6,0.2-0.8
		c0.1-0.2,0.3-0.4,0.6-0.6s0.5-0.2,0.9-0.2c0.1,0,0.3,0,0.4,0c0.1,0,0.2,0,0.3,0.1v-1.3c-0.1,0-0.2,0-0.3,0S80,423.6,79.9,423.6z"/>
	<path d="M84.8,429.6c0,0-0.1,0-0.2,0c-0.1,0-0.2,0-0.3,0c-0.2,0-0.3,0-0.4-0.1s-0.2-0.1-0.3-0.3s-0.1-0.3-0.1-0.6v-3.9H85v-1.1
		h-1.5V422h-1.4v1.7h-1v1.1h1v4.2c0,0.4,0.1,0.8,0.3,1.1s0.4,0.5,0.8,0.6c0.3,0.1,0.7,0.2,1,0.2c0.2,0,0.4,0,0.6-0.1
		c0.1,0,0.3-0.1,0.3-0.1L84.8,429.6z"/>
</g>
</svg>
