<?xml version="1.0" encoding="utf-8"?>
<!-- Generator: Adobe Illustrator 26.0.1, SVG Export Plug-In . SVG Version: 6.00 Build 0)  -->
<svg version="1.1" id="Layer_1" xmlns="http://www.w3.org/2000/svg" xmlns:xlink="http://www.w3.org/1999/xlink" x="0px" y="0px"
	 viewBox="0 0 521.9 130" style="enable-background:new 0 0 521.9 130;" xml:space="preserve">
<style type="text/css">
	.st0{fill:#EC7E30;}
	.st1{fill:#FFFFFF;}
	.st2{fill:#A5A4A4;}
	.st3{fill:#FDC015;}
	.st4{fill:#4A72B8;}
</style>
<circle class="st0" cx="456.9" cy="65" r="65"/>
<circle class="st1" cx="456.9" cy="65" r="59.9"/>
<path class="st2" d="M324.5,2.3c39.2-0.3,61.2,36.2,83.9,62.2c1.5,1.6-22.6,25.8-25.2,28.8c-15.6,17.7-34.7,34.8-59.9,34.3
	c-22.8-0.4-44.1-13.6-54.7-33.7c-4.7-9-7.2-19.1-7.2-29.4C261.4,27.9,292,2.6,324.5,2.3z"/>
<circle class="st1" cx="323.6" cy="65" r="57"/>
<path class="st3" d="M193.8,2.3C233,2.1,255,38.6,277.7,64.6c1.5,1.6-22.6,25.8-25.2,28.8c-15.6,17.7-34.7,34.8-59.9,34.3
	c-22.8-0.4-44.1-13.6-54.7-33.7c-4.7-9-7.2-19.1-7.2-29.4C130.7,27.9,161.4,2.6,193.8,2.3z"/>
<circle class="st1" cx="193" cy="65" r="57"/>
<path class="st4" d="M63.2,2.3c39.2-0.3,61.2,36.2,83.9,62.2c1.5,1.6-22.6,25.8-25.2,28.8c-15.6,17.7-34.7,34.8-59.9,34.3
	c-22.8-0.4-44.1-13.6-54.7-33.7C2.5,85,0,74.8,0,64.6C0.1,27.9,30.8,2.6,63.2,2.3z"/>
<circle class="st1" cx="62.3" cy="65" r="57"/>
<g>
	<path d="M28.2,52.5v9.5h-1.4v-9.5H28.2z"/>
	<path d="M30.3,61.9v-9.5h3.4c0.7,0,1.3,0.1,1.8,0.4c0.5,0.3,0.8,0.6,1.1,1.1c0.2,0.5,0.4,1,0.4,1.6c0,0.6-0.1,1.1-0.4,1.6
		c-0.2,0.5-0.6,0.8-1.1,1.1c-0.5,0.3-1.1,0.4-1.8,0.4h-2.3v-1.2h2.2c0.5,0,0.8-0.1,1.1-0.2c0.3-0.2,0.5-0.4,0.6-0.7s0.2-0.6,0.2-1
		c0-0.4-0.1-0.7-0.2-1c-0.1-0.3-0.3-0.5-0.6-0.7c-0.3-0.2-0.7-0.2-1.1-0.2h-1.8v8.2H30.3z"/>
	<path d="M46.8,57.2c0,1-0.2,1.9-0.6,2.6c-0.4,0.7-0.9,1.3-1.5,1.7c-0.6,0.4-1.4,0.6-2.2,0.6c-0.8,0-1.5-0.2-2.2-0.6
		c-0.6-0.4-1.1-0.9-1.5-1.7c-0.4-0.7-0.6-1.6-0.6-2.6c0-1,0.2-1.9,0.6-2.6c0.4-0.7,0.9-1.3,1.5-1.7c0.6-0.4,1.4-0.6,2.2-0.6
		c0.8,0,1.5,0.2,2.2,0.6c0.6,0.4,1.1,0.9,1.5,1.7C46.6,55.3,46.8,56.2,46.8,57.2z M45.4,57.2c0-0.8-0.1-1.4-0.4-1.9
		c-0.2-0.5-0.6-0.9-1-1.2c-0.4-0.3-0.9-0.4-1.5-0.4c-0.5,0-1,0.1-1.5,0.4s-0.8,0.7-1,1.2c-0.2,0.5-0.4,1.2-0.4,1.9s0.1,1.4,0.4,1.9
		c0.2,0.5,0.6,0.9,1,1.2s0.9,0.4,1.5,0.4c0.5,0,1-0.1,1.5-0.4c0.4-0.3,0.8-0.7,1-1.2C45.3,58.6,45.4,58,45.4,57.2z"/>
	<path d="M54.7,62c-0.6,0-1.2-0.1-1.6-0.3c-0.5-0.2-0.8-0.5-1.1-0.9c-0.2-0.4-0.4-0.9-0.4-1.4c0-0.4,0.1-0.7,0.2-1
		c0.2-0.3,0.4-0.6,0.7-0.8c0.3-0.3,0.6-0.5,1-0.8l1.5-1.1c0.3-0.2,0.5-0.3,0.6-0.5c0.1-0.2,0.2-0.4,0.2-0.7c0-0.2-0.1-0.4-0.3-0.6
		s-0.4-0.3-0.8-0.3c-0.2,0-0.4,0.1-0.6,0.2c-0.2,0.1-0.3,0.2-0.4,0.4c-0.1,0.2-0.1,0.3-0.1,0.5c0,0.2,0.1,0.4,0.2,0.7
		c0.1,0.2,0.3,0.4,0.5,0.7c0.2,0.2,0.4,0.5,0.6,0.7l4.4,5.2h-1.6l-3.6-4.3c-0.3-0.4-0.6-0.7-0.8-1c-0.3-0.3-0.5-0.6-0.6-1
		s-0.2-0.7-0.2-1.1c0-0.4,0.1-0.8,0.3-1.2c0.2-0.3,0.5-0.6,0.8-0.8c0.4-0.2,0.8-0.3,1.3-0.3c0.5,0,0.9,0.1,1.3,0.3s0.6,0.4,0.8,0.8
		c0.2,0.3,0.3,0.7,0.3,1c0,0.4-0.1,0.8-0.3,1.2s-0.5,0.7-0.9,0.9L54,57.9c-0.4,0.3-0.6,0.5-0.8,0.8C53.1,59,53,59.2,53,59.4
		c0,0.3,0.1,0.5,0.2,0.8c0.1,0.2,0.3,0.4,0.6,0.6s0.6,0.2,0.9,0.2c0.4,0,0.7-0.1,1-0.2s0.6-0.4,0.9-0.7s0.5-0.6,0.6-1
		s0.2-0.8,0.2-1.3h1.2c0,0.6-0.1,1.1-0.2,1.5c-0.1,0.4-0.3,0.8-0.5,1c-0.2,0.3-0.4,0.5-0.6,0.6c-0.1,0-0.1,0.1-0.2,0.1
		c0,0-0.1,0.1-0.2,0.1c-0.3,0.3-0.7,0.6-1.2,0.7C55.6,62,55.1,62,54.7,62z"/>
	<path d="M63.9,61.9v-9.5h5.9v1.2h-4.5v2.9h4.2v1.2h-4.2v2.9h4.6v1.2H63.9z"/>
	<path d="M77.7,54.8l-2.6,7.1h-1.5l-2.6-7.1h1.5l1.8,5.5h0.1l1.8-5.5H77.7z"/>
	<path d="M82.1,62.1c-0.7,0-1.3-0.1-1.8-0.5c-0.5-0.3-0.9-0.7-1.2-1.3c-0.3-0.5-0.4-1.2-0.4-1.9c0-0.7,0.1-1.4,0.4-1.9
		s0.7-1,1.1-1.3c0.5-0.3,1.1-0.5,1.7-0.5c0.4,0,0.8,0.1,1.2,0.2c0.4,0.1,0.7,0.3,1,0.6c0.3,0.3,0.5,0.6,0.7,1.1s0.3,1,0.3,1.6v0.5
		h-5.6v-1h4.3c0-0.4-0.1-0.7-0.2-1c-0.1-0.3-0.4-0.5-0.6-0.7s-0.6-0.2-0.9-0.2c-0.4,0-0.7,0.1-1,0.3c-0.3,0.2-0.5,0.4-0.7,0.7
		c-0.2,0.3-0.2,0.6-0.2,1v0.8c0,0.5,0.1,0.9,0.3,1.2c0.2,0.3,0.4,0.6,0.7,0.8c0.3,0.2,0.7,0.3,1.1,0.3c0.3,0,0.5,0,0.7-0.1
		s0.4-0.2,0.6-0.3c0.2-0.2,0.3-0.3,0.4-0.6l1.3,0.2c-0.1,0.4-0.3,0.7-0.6,1c-0.3,0.3-0.6,0.5-1,0.7S82.6,62.1,82.1,62.1z"/>
	<path d="M88.1,57.7v4.2h-1.4v-7.1H88V56h0.1c0.2-0.4,0.4-0.7,0.8-0.9c0.3-0.2,0.8-0.3,1.3-0.3c0.5,0,0.9,0.1,1.3,0.3
		c0.4,0.2,0.6,0.5,0.8,0.9c0.2,0.4,0.3,0.9,0.3,1.5v4.5h-1.4v-4.3c0-0.5-0.1-0.9-0.4-1.2c-0.3-0.3-0.6-0.4-1.1-0.4
		c-0.3,0-0.6,0.1-0.9,0.2c-0.2,0.1-0.4,0.3-0.6,0.6C88.1,57,88.1,57.3,88.1,57.7z"/>
	<path d="M97.7,54.8v1.1h-3.9v-1.1H97.7z M94.9,53.1h1.4v6.7c0,0.3,0,0.5,0.1,0.6s0.2,0.2,0.3,0.3c0.1,0,0.3,0.1,0.4,0.1
		c0.1,0,0.2,0,0.3,0c0.1,0,0.1,0,0.2,0l0.2,1.1c-0.1,0-0.2,0.1-0.3,0.1c-0.1,0-0.3,0-0.6,0.1c-0.4,0-0.7-0.1-1-0.2
		c-0.3-0.1-0.6-0.3-0.8-0.6s-0.3-0.6-0.3-1.1V53.1z"/>
	<path d="M42.9,71.1h-1.4c-0.1-0.3-0.2-0.6-0.3-0.8c-0.2-0.2-0.3-0.4-0.6-0.6c-0.2-0.2-0.5-0.3-0.7-0.4s-0.6-0.1-0.9-0.1
		c-0.5,0-1,0.1-1.5,0.4c-0.4,0.3-0.8,0.7-1,1.2c-0.2,0.5-0.4,1.2-0.4,1.9c0,0.8,0.1,1.4,0.4,1.9c0.2,0.5,0.6,0.9,1,1.2
		c0.4,0.3,0.9,0.4,1.5,0.4c0.3,0,0.6,0,0.9-0.1c0.3-0.1,0.5-0.2,0.7-0.4c0.2-0.2,0.4-0.4,0.6-0.6c0.2-0.2,0.3-0.5,0.3-0.8l1.4,0
		c-0.1,0.5-0.2,0.9-0.4,1.3s-0.5,0.7-0.8,1c-0.3,0.3-0.7,0.5-1.2,0.7c-0.4,0.2-0.9,0.2-1.4,0.2c-0.8,0-1.5-0.2-2.2-0.6
		c-0.6-0.4-1.1-0.9-1.5-1.7s-0.6-1.6-0.6-2.6c0-1,0.2-1.9,0.6-2.6c0.4-0.7,0.9-1.3,1.5-1.7c0.6-0.4,1.4-0.6,2.2-0.6
		c0.5,0,1,0.1,1.4,0.2c0.4,0.1,0.8,0.4,1.2,0.6s0.6,0.6,0.9,1C42.6,70.2,42.8,70.6,42.9,71.1z"/>
	<path d="M46.5,77.7c-0.4,0-0.9-0.1-1.2-0.3c-0.4-0.2-0.7-0.4-0.9-0.7s-0.3-0.7-0.3-1.2c0-0.4,0.1-0.7,0.2-1s0.4-0.5,0.6-0.6
		c0.3-0.2,0.6-0.3,0.9-0.3c0.3-0.1,0.7-0.1,1-0.2c0.4,0,0.8-0.1,1-0.1c0.3,0,0.5-0.1,0.6-0.2c0.1-0.1,0.2-0.2,0.2-0.4v0
		c0-0.4-0.1-0.7-0.3-0.9s-0.6-0.3-1-0.3c-0.5,0-0.8,0.1-1.1,0.3c-0.3,0.2-0.5,0.4-0.6,0.7l-1.3-0.3c0.2-0.4,0.4-0.8,0.7-1
		s0.6-0.5,1-0.6c0.4-0.1,0.8-0.2,1.2-0.2c0.3,0,0.6,0,0.9,0.1c0.3,0.1,0.6,0.2,0.9,0.4c0.3,0.2,0.5,0.4,0.7,0.8
		c0.2,0.3,0.3,0.7,0.3,1.3v4.7h-1.3v-1h-0.1c-0.1,0.2-0.2,0.4-0.4,0.5c-0.2,0.2-0.4,0.3-0.7,0.4C47.3,77.6,46.9,77.7,46.5,77.7z
		 M46.8,76.6c0.4,0,0.7-0.1,1-0.2c0.3-0.2,0.5-0.3,0.6-0.6c0.1-0.2,0.2-0.5,0.2-0.8V74c0,0-0.1,0.1-0.3,0.1c-0.1,0-0.3,0.1-0.5,0.1
		c-0.2,0-0.4,0.1-0.5,0.1c-0.2,0-0.3,0-0.4,0.1c-0.3,0-0.5,0.1-0.7,0.2c-0.2,0.1-0.4,0.2-0.5,0.3c-0.1,0.1-0.2,0.3-0.2,0.6
		c0,0.3,0.1,0.6,0.4,0.8S46.5,76.6,46.8,76.6z"/>
	<path d="M53.3,68.1v9.5h-1.4v-9.5H53.3z"/>
	<path d="M58.2,77.7c-0.7,0-1.3-0.2-1.8-0.5c-0.5-0.3-0.9-0.7-1.2-1.3s-0.4-1.2-0.4-1.9c0-0.7,0.1-1.4,0.4-1.9
		c0.3-0.6,0.7-1,1.1-1.3c0.5-0.3,1.1-0.5,1.7-0.5c0.4,0,0.8,0.1,1.2,0.2c0.4,0.1,0.7,0.3,1,0.6c0.3,0.3,0.5,0.7,0.7,1.1
		c0.2,0.5,0.3,1,0.3,1.6v0.5h-5.6v-1h4.3c0-0.4-0.1-0.7-0.2-1c-0.1-0.3-0.4-0.5-0.6-0.7s-0.6-0.2-0.9-0.2c-0.4,0-0.7,0.1-1,0.3
		c-0.3,0.2-0.5,0.4-0.7,0.7c-0.2,0.3-0.2,0.6-0.2,1v0.8c0,0.5,0.1,0.9,0.3,1.2c0.2,0.3,0.4,0.6,0.7,0.8c0.3,0.2,0.7,0.3,1.1,0.3
		c0.3,0,0.5,0,0.7-0.1c0.2-0.1,0.4-0.2,0.6-0.3c0.2-0.2,0.3-0.3,0.4-0.6l1.3,0.2c-0.1,0.4-0.3,0.7-0.6,1c-0.3,0.3-0.6,0.5-1,0.7
		C59.1,77.6,58.7,77.7,58.2,77.7z"/>
	<path d="M64.1,73.3v4.2h-1.4v-7.1h1.3v1.2h0.1c0.2-0.4,0.4-0.7,0.8-0.9c0.3-0.2,0.8-0.3,1.3-0.3c0.5,0,0.9,0.1,1.3,0.3
		c0.4,0.2,0.6,0.5,0.8,0.9c0.2,0.4,0.3,0.9,0.3,1.5v4.5h-1.4v-4.3c0-0.5-0.1-0.9-0.4-1.2c-0.3-0.3-0.6-0.4-1.1-0.4
		c-0.3,0-0.6,0.1-0.9,0.2c-0.2,0.1-0.4,0.3-0.6,0.6C64.2,72.6,64.1,72.9,64.1,73.3z"/>
	<path d="M73.2,77.7c-0.6,0-1.1-0.1-1.5-0.4c-0.4-0.3-0.8-0.7-1.1-1.3c-0.3-0.5-0.4-1.2-0.4-2s0.1-1.4,0.4-2c0.3-0.5,0.6-1,1.1-1.3
		s1-0.4,1.5-0.4c0.4,0,0.8,0.1,1.1,0.2c0.3,0.1,0.5,0.3,0.6,0.5c0.1,0.2,0.3,0.4,0.3,0.5h0.1v-3.5h1.4v9.5h-1.3v-1.1h-0.1
		c-0.1,0.2-0.2,0.3-0.4,0.5c-0.2,0.2-0.4,0.4-0.6,0.5C74,77.6,73.6,77.7,73.2,77.7z M73.5,76.5c0.4,0,0.7-0.1,1-0.3
		c0.3-0.2,0.5-0.5,0.6-0.9c0.1-0.4,0.2-0.8,0.2-1.3c0-0.5-0.1-0.9-0.2-1.3s-0.3-0.7-0.6-0.9s-0.6-0.3-1-0.3c-0.4,0-0.8,0.1-1,0.3
		c-0.3,0.2-0.5,0.5-0.6,0.9c-0.1,0.4-0.2,0.8-0.2,1.3c0,0.5,0.1,0.9,0.2,1.3c0.1,0.4,0.4,0.7,0.6,0.9C72.7,76.4,73.1,76.5,73.5,76.5
		z"/>
	<path d="M80.7,77.7c-0.4,0-0.9-0.1-1.2-0.3c-0.4-0.2-0.7-0.4-0.9-0.7s-0.3-0.7-0.3-1.2c0-0.4,0.1-0.7,0.2-1s0.4-0.5,0.6-0.6
		c0.3-0.2,0.6-0.3,0.9-0.3c0.3-0.1,0.7-0.1,1-0.2c0.4,0,0.8-0.1,1-0.1c0.3,0,0.5-0.1,0.6-0.2c0.1-0.1,0.2-0.2,0.2-0.4v0
		c0-0.4-0.1-0.7-0.3-0.9s-0.6-0.3-1-0.3c-0.5,0-0.8,0.1-1.1,0.3c-0.3,0.2-0.5,0.4-0.6,0.7l-1.3-0.3c0.2-0.4,0.4-0.8,0.7-1
		s0.6-0.5,1-0.6c0.4-0.1,0.8-0.2,1.2-0.2c0.3,0,0.6,0,0.9,0.1c0.3,0.1,0.6,0.2,0.9,0.4c0.3,0.2,0.5,0.4,0.7,0.8
		c0.2,0.3,0.3,0.7,0.3,1.3v4.7h-1.3v-1h-0.1c-0.1,0.2-0.2,0.4-0.4,0.5c-0.2,0.2-0.4,0.3-0.7,0.4C81.4,77.6,81.1,77.7,80.7,77.7z
		 M81,76.6c0.4,0,0.7-0.1,1-0.2c0.3-0.2,0.5-0.3,0.6-0.6c0.1-0.2,0.2-0.5,0.2-0.8V74c0,0-0.1,0.1-0.3,0.1c-0.1,0-0.3,0.1-0.5,0.1
		c-0.2,0-0.4,0.1-0.5,0.1c-0.2,0-0.3,0-0.4,0.1c-0.3,0-0.5,0.1-0.7,0.2c-0.2,0.1-0.4,0.2-0.5,0.3c-0.1,0.1-0.2,0.3-0.2,0.6
		c0,0.3,0.1,0.6,0.4,0.8S80.6,76.6,81,76.6z"/>
	<path d="M86,77.5v-7.1h1.3v1.1h0.1c0.1-0.4,0.4-0.7,0.7-0.9c0.3-0.2,0.7-0.3,1.1-0.3c0.1,0,0.2,0,0.3,0s0.2,0,0.3,0v1.3
		c-0.1,0-0.2,0-0.3-0.1c-0.1,0-0.3,0-0.4,0c-0.3,0-0.6,0.1-0.9,0.2s-0.5,0.3-0.6,0.6c-0.1,0.2-0.2,0.5-0.2,0.8v4.3H86z"/>
</g>
<g>
	<path d="M180.8,55.4c-0.1-0.3-0.2-0.5-0.4-0.8c-0.1-0.2-0.3-0.4-0.5-0.6c-0.2-0.2-0.4-0.3-0.7-0.4s-0.6-0.1-0.9-0.1
		c-0.5,0-1,0.1-1.4,0.4c-0.4,0.3-0.8,0.7-1,1.2c-0.2,0.5-0.4,1.2-0.4,1.9c0,0.8,0.1,1.4,0.4,1.9c0.2,0.5,0.6,0.9,1,1.2
		c0.4,0.3,0.9,0.4,1.5,0.4c0.5,0,1-0.1,1.3-0.3c0.4-0.2,0.7-0.5,0.9-0.9c0.2-0.4,0.3-0.8,0.3-1.4l0.4,0.1h-2.7v-1.2h3.7v1.1
		c0,0.8-0.2,1.5-0.5,2.1c-0.3,0.6-0.8,1-1.4,1.4c-0.6,0.3-1.3,0.5-2,0.5c-0.9,0-1.6-0.2-2.3-0.6c-0.6-0.4-1.1-1-1.5-1.7
		c-0.4-0.7-0.5-1.6-0.5-2.6c0-0.8,0.1-1.4,0.3-2c0.2-0.6,0.5-1.1,0.9-1.5c0.4-0.4,0.8-0.7,1.3-1c0.5-0.2,1.1-0.3,1.7-0.3
		c0.5,0,1,0.1,1.4,0.2c0.4,0.2,0.8,0.4,1.2,0.6c0.3,0.3,0.6,0.6,0.9,1c0.2,0.4,0.4,0.8,0.5,1.3H180.8z"/>
	<path d="M188.2,56.6v1.2H184v-1.2H188.2z"/>
	<path d="M195.3,54.9c0-0.4-0.3-0.8-0.6-1c-0.4-0.2-0.8-0.4-1.3-0.4c-0.4,0-0.7,0.1-1,0.2c-0.3,0.1-0.5,0.3-0.7,0.5
		c-0.2,0.2-0.2,0.5-0.2,0.7c0,0.2,0.1,0.4,0.2,0.6c0.1,0.2,0.2,0.3,0.4,0.4c0.2,0.1,0.4,0.2,0.6,0.3c0.2,0.1,0.4,0.1,0.6,0.2
		l0.9,0.2c0.3,0.1,0.6,0.2,0.9,0.3c0.3,0.1,0.6,0.3,0.9,0.5c0.3,0.2,0.5,0.5,0.7,0.8c0.2,0.3,0.3,0.7,0.3,1.1c0,0.5-0.1,1-0.4,1.4
		c-0.3,0.4-0.7,0.7-1.2,1c-0.5,0.2-1.2,0.4-1.9,0.4c-0.7,0-1.3-0.1-1.8-0.3s-0.9-0.5-1.2-1c-0.3-0.4-0.5-0.9-0.5-1.5h1.4
		c0,0.3,0.1,0.6,0.3,0.9c0.2,0.2,0.4,0.4,0.8,0.5c0.3,0.1,0.6,0.2,1,0.2c0.4,0,0.8-0.1,1.1-0.2s0.6-0.3,0.7-0.5s0.3-0.5,0.3-0.8
		c0-0.3-0.1-0.5-0.2-0.7c-0.2-0.2-0.4-0.3-0.6-0.4c-0.3-0.1-0.6-0.2-0.9-0.3l-1.1-0.3c-0.8-0.2-1.4-0.5-1.8-0.9
		c-0.4-0.4-0.7-0.9-0.7-1.6c0-0.5,0.1-1,0.4-1.4s0.7-0.7,1.2-0.9c0.5-0.2,1.1-0.3,1.7-0.3c0.6,0,1.2,0.1,1.7,0.3s0.9,0.5,1.2,0.9
		s0.4,0.8,0.4,1.4H195.3z"/>
	<path d="M201.4,62.1c-0.7,0-1.3-0.1-1.8-0.5c-0.5-0.3-0.9-0.7-1.2-1.3c-0.3-0.5-0.4-1.2-0.4-1.9c0-0.7,0.1-1.4,0.4-1.9
		s0.7-1,1.1-1.3c0.5-0.3,1.1-0.5,1.7-0.5c0.4,0,0.8,0.1,1.2,0.2c0.4,0.1,0.7,0.3,1,0.6c0.3,0.3,0.5,0.6,0.7,1.1s0.3,1,0.3,1.6v0.5
		h-5.6v-1h4.3c0-0.4-0.1-0.7-0.2-1c-0.1-0.3-0.4-0.5-0.6-0.7s-0.6-0.2-0.9-0.2c-0.4,0-0.7,0.1-1,0.3c-0.3,0.2-0.5,0.4-0.7,0.7
		c-0.2,0.3-0.2,0.6-0.2,1v0.8c0,0.5,0.1,0.9,0.3,1.2c0.2,0.3,0.4,0.6,0.7,0.8c0.3,0.2,0.7,0.3,1.1,0.3c0.3,0,0.5,0,0.7-0.1
		s0.4-0.2,0.6-0.3c0.2-0.2,0.3-0.3,0.4-0.6l1.3,0.2c-0.1,0.4-0.3,0.7-0.6,1c-0.3,0.3-0.6,0.5-1,0.7S201.9,62.1,201.4,62.1z"/>
	<path d="M209,62.1c-0.7,0-1.3-0.2-1.8-0.5c-0.5-0.3-0.9-0.7-1.1-1.3c-0.3-0.6-0.4-1.2-0.4-1.9c0-0.7,0.1-1.4,0.4-1.9
		c0.3-0.6,0.7-1,1.1-1.3c0.5-0.3,1.1-0.5,1.7-0.5c0.5,0,1,0.1,1.4,0.3c0.4,0.2,0.8,0.5,1,0.8c0.3,0.4,0.4,0.8,0.5,1.3h-1.3
		c-0.1-0.3-0.2-0.6-0.5-0.9s-0.6-0.4-1.1-0.4c-0.4,0-0.7,0.1-1,0.3c-0.3,0.2-0.5,0.5-0.7,0.9c-0.2,0.4-0.2,0.8-0.2,1.3
		c0,0.5,0.1,1,0.2,1.3c0.2,0.4,0.4,0.7,0.7,0.9c0.3,0.2,0.6,0.3,1,0.3c0.3,0,0.5,0,0.7-0.1c0.2-0.1,0.4-0.2,0.5-0.4
		c0.1-0.2,0.2-0.4,0.3-0.7h1.3c0,0.5-0.2,0.9-0.4,1.2c-0.2,0.4-0.6,0.6-1,0.8C210,62,209.5,62.1,209,62.1z"/>
	<path d="M159.6,68.1v9.5h-1.4v-9.5H159.6z"/>
	<path d="M163,73.3v4.2h-1.4v-7.1h1.3v1.2h0.1c0.2-0.4,0.4-0.7,0.8-0.9c0.3-0.2,0.8-0.3,1.3-0.3c0.5,0,0.9,0.1,1.3,0.3
		c0.4,0.2,0.6,0.5,0.8,0.9c0.2,0.4,0.3,0.9,0.3,1.5v4.5h-1.4v-4.3c0-0.5-0.1-0.9-0.4-1.2c-0.3-0.3-0.6-0.4-1.1-0.4
		c-0.3,0-0.6,0.1-0.9,0.2c-0.2,0.1-0.4,0.3-0.6,0.6C163.1,72.6,163,72.9,163,73.3z"/>
	<path d="M172.8,70.4v1.1h-4v-1.1H172.8z M169.8,77.5v-7.9c0-0.4,0.1-0.8,0.3-1.1s0.5-0.5,0.8-0.7c0.3-0.1,0.7-0.2,1-0.2
		c0.3,0,0.5,0,0.7,0.1c0.2,0,0.3,0.1,0.4,0.1l-0.3,1.1c-0.1,0-0.1,0-0.2-0.1c-0.1,0-0.2,0-0.4,0c-0.3,0-0.6,0.1-0.7,0.2
		c-0.1,0.2-0.2,0.4-0.2,0.7v7.7H169.8z"/>
	<path d="M177.2,77.7c-0.7,0-1.2-0.2-1.7-0.5s-0.9-0.7-1.2-1.3s-0.4-1.2-0.4-1.9c0-0.7,0.1-1.4,0.4-1.9s0.7-1,1.2-1.3
		s1.1-0.5,1.7-0.5c0.7,0,1.2,0.2,1.7,0.5s0.9,0.7,1.2,1.3s0.4,1.2,0.4,1.9c0,0.7-0.1,1.4-0.4,1.9s-0.7,1-1.2,1.3
		S177.8,77.7,177.2,77.7z M177.2,76.5c0.4,0,0.8-0.1,1.1-0.3c0.3-0.2,0.5-0.5,0.6-0.9c0.1-0.4,0.2-0.8,0.2-1.3
		c0-0.5-0.1-0.9-0.2-1.2c-0.1-0.4-0.3-0.7-0.6-0.9s-0.6-0.3-1.1-0.3c-0.4,0-0.8,0.1-1.1,0.3s-0.5,0.5-0.6,0.9
		c-0.1,0.4-0.2,0.8-0.2,1.2c0,0.5,0.1,0.9,0.2,1.3c0.1,0.4,0.3,0.7,0.6,0.9C176.4,76.4,176.7,76.5,177.2,76.5z"/>
	<path d="M182,77.5v-7.1h1.3v1.1h0.1c0.1-0.4,0.4-0.7,0.7-0.9c0.3-0.2,0.7-0.3,1.1-0.3c0.1,0,0.2,0,0.3,0s0.2,0,0.3,0v1.3
		c-0.1,0-0.2,0-0.3-0.1c-0.1,0-0.3,0-0.4,0c-0.3,0-0.6,0.1-0.9,0.2s-0.5,0.3-0.6,0.6c-0.1,0.2-0.2,0.5-0.2,0.8v4.3H182z"/>
	<path d="M187,77.5v-7.1h1.3v1.2h0.1c0.1-0.4,0.4-0.7,0.7-0.9c0.3-0.2,0.7-0.3,1.2-0.3c0.5,0,0.9,0.1,1.2,0.3
		c0.3,0.2,0.6,0.5,0.7,0.9h0.1c0.2-0.4,0.4-0.7,0.8-0.9s0.8-0.3,1.3-0.3c0.6,0,1.2,0.2,1.6,0.6c0.4,0.4,0.6,1,0.6,1.8v4.8h-1.4v-4.6
		c0-0.5-0.1-0.8-0.4-1c-0.3-0.2-0.6-0.3-0.9-0.3c-0.4,0-0.8,0.1-1,0.4c-0.2,0.3-0.4,0.6-0.4,1.1v4.5h-1.4v-4.7
		c0-0.4-0.1-0.7-0.4-0.9c-0.2-0.2-0.6-0.4-0.9-0.4c-0.3,0-0.5,0.1-0.7,0.2c-0.2,0.1-0.4,0.3-0.5,0.6c-0.1,0.2-0.2,0.5-0.2,0.8v4.4
		H187z"/>
	<path d="M200.5,77.7c-0.4,0-0.9-0.1-1.2-0.3c-0.4-0.2-0.7-0.4-0.9-0.7s-0.3-0.7-0.3-1.2c0-0.4,0.1-0.7,0.2-1s0.4-0.5,0.6-0.6
		c0.3-0.2,0.6-0.3,0.9-0.3c0.3-0.1,0.7-0.1,1-0.2c0.4,0,0.8-0.1,1-0.1c0.3,0,0.5-0.1,0.6-0.2c0.1-0.1,0.2-0.2,0.2-0.4v0
		c0-0.4-0.1-0.7-0.3-0.9s-0.6-0.3-1-0.3c-0.5,0-0.8,0.1-1.1,0.3c-0.3,0.2-0.5,0.4-0.6,0.7l-1.3-0.3c0.2-0.4,0.4-0.8,0.7-1
		s0.6-0.5,1-0.6c0.4-0.1,0.8-0.2,1.2-0.2c0.3,0,0.6,0,0.9,0.1c0.3,0.1,0.6,0.2,0.9,0.4c0.3,0.2,0.5,0.4,0.7,0.8
		c0.2,0.3,0.3,0.7,0.3,1.3v4.7h-1.3v-1h-0.1c-0.1,0.2-0.2,0.4-0.4,0.5c-0.2,0.2-0.4,0.3-0.7,0.4C201.3,77.6,200.9,77.7,200.5,77.7z
		 M200.8,76.6c0.4,0,0.7-0.1,1-0.2c0.3-0.2,0.5-0.3,0.6-0.6c0.1-0.2,0.2-0.5,0.2-0.8V74c0,0-0.1,0.1-0.3,0.1c-0.1,0-0.3,0.1-0.5,0.1
		c-0.2,0-0.4,0.1-0.5,0.1c-0.2,0-0.3,0-0.4,0.1c-0.3,0-0.5,0.1-0.7,0.2c-0.2,0.1-0.4,0.2-0.5,0.3c-0.1,0.1-0.2,0.3-0.2,0.6
		c0,0.3,0.1,0.6,0.4,0.8S200.5,76.6,200.8,76.6z"/>
	<path d="M209.2,70.4v1.1h-3.9v-1.1H209.2z M206.4,68.7h1.4v6.7c0,0.3,0,0.5,0.1,0.6s0.2,0.2,0.3,0.3s0.3,0.1,0.4,0.1
		c0.1,0,0.2,0,0.3,0c0.1,0,0.1,0,0.2,0l0.2,1.1c-0.1,0-0.2,0.1-0.3,0.1c-0.1,0-0.3,0.1-0.6,0.1c-0.4,0-0.7-0.1-1-0.2
		c-0.3-0.1-0.6-0.3-0.8-0.6s-0.3-0.6-0.3-1.1V68.7z"/>
	<path d="M211.4,69.3c-0.2,0-0.4-0.1-0.6-0.2c-0.2-0.2-0.3-0.4-0.3-0.6c0-0.2,0.1-0.4,0.3-0.6c0.2-0.2,0.4-0.2,0.6-0.2
		s0.4,0.1,0.6,0.2c0.2,0.2,0.3,0.4,0.3,0.6c0,0.2-0.1,0.4-0.3,0.6C211.9,69.2,211.7,69.3,211.4,69.3z M210.7,77.5v-7.1h1.4v7.1
		H210.7z"/>
	<path d="M216.9,77.7c-0.7,0-1.2-0.2-1.7-0.5s-0.9-0.7-1.2-1.3s-0.4-1.2-0.4-1.9c0-0.7,0.1-1.4,0.4-1.9s0.7-1,1.2-1.3
		s1.1-0.5,1.7-0.5c0.7,0,1.2,0.2,1.7,0.5s0.9,0.7,1.2,1.3s0.4,1.2,0.4,1.9c0,0.7-0.1,1.4-0.4,1.9s-0.7,1-1.2,1.3
		S217.6,77.7,216.9,77.7z M216.9,76.5c0.4,0,0.8-0.1,1.1-0.3c0.3-0.2,0.5-0.5,0.6-0.9c0.1-0.4,0.2-0.8,0.2-1.3
		c0-0.5-0.1-0.9-0.2-1.2c-0.1-0.4-0.3-0.7-0.6-0.9s-0.6-0.3-1.1-0.3c-0.4,0-0.8,0.1-1.1,0.3s-0.5,0.5-0.6,0.9
		c-0.1,0.4-0.2,0.8-0.2,1.2c0,0.5,0.1,0.9,0.2,1.3c0.1,0.4,0.3,0.7,0.6,0.9C216.2,76.4,216.5,76.5,216.9,76.5z"/>
	<path d="M223.2,73.3v4.2h-1.4v-7.1h1.3v1.2h0.1c0.2-0.4,0.4-0.7,0.8-0.9c0.3-0.2,0.8-0.3,1.3-0.3c0.5,0,0.9,0.1,1.3,0.3
		c0.4,0.2,0.6,0.5,0.8,0.9c0.2,0.4,0.3,0.9,0.3,1.5v4.5h-1.4v-4.3c0-0.5-0.1-0.9-0.4-1.2c-0.3-0.3-0.6-0.4-1.1-0.4
		c-0.3,0-0.6,0.1-0.9,0.2c-0.2,0.1-0.4,0.3-0.6,0.6C223.2,72.6,223.2,72.9,223.2,73.3z"/>
</g>
<g>
	<path d="M289.6,52.4l-3.4,9.5h1.5l0.9-2.5h3.7l0.9,2.5h1.5l-3.4-9.5H289.6z M289,58.2l1.4-4h0.1l1.4,4H289z"/>
	<path d="M300.3,61.3c0.2-0.2,0.3-0.4,0.4-0.5h0.1v1.1h1.3v-9.5h-1.4V56h-0.1c-0.1-0.1-0.2-0.3-0.3-0.5c-0.1-0.2-0.4-0.4-0.6-0.5
		c-0.3-0.1-0.6-0.2-1.1-0.2c-0.6,0-1.1,0.1-1.5,0.4s-0.8,0.7-1.1,1.3c-0.3,0.5-0.4,1.2-0.4,2s0.1,1.4,0.4,2c0.3,0.5,0.6,1,1.1,1.3
		c0.4,0.3,1,0.4,1.5,0.4c0.4,0,0.8-0.1,1.1-0.2C299.9,61.7,300.1,61.5,300.3,61.3z M297.8,60.5c-0.3-0.2-0.5-0.5-0.6-0.9
		c-0.1-0.4-0.2-0.8-0.2-1.3c0-0.5,0.1-0.9,0.2-1.3c0.1-0.4,0.3-0.7,0.6-0.9c0.3-0.2,0.6-0.3,1-0.3c0.4,0,0.7,0.1,1,0.3
		s0.5,0.5,0.6,0.9s0.2,0.8,0.2,1.3c0,0.5-0.1,0.9-0.2,1.3c-0.1,0.4-0.4,0.7-0.6,0.9c-0.3,0.2-0.6,0.3-1,0.3
		C298.5,60.9,298.1,60.8,297.8,60.5z"/>
	<polygon points="310.1,54.8 308.6,54.8 306.8,60.3 306.8,60.3 305,54.8 303.5,54.8 306.1,61.9 307.5,61.9 	"/>
	<path d="M315.2,61.5c0.2-0.2,0.3-0.3,0.4-0.5h0.1v1h1.3v-4.7c0-0.5-0.1-0.9-0.3-1.3c-0.2-0.3-0.4-0.6-0.7-0.8
		c-0.3-0.2-0.6-0.3-0.9-0.4c-0.3-0.1-0.6-0.1-0.9-0.1c-0.4,0-0.8,0.1-1.2,0.2c-0.4,0.1-0.7,0.3-1,0.6s-0.5,0.6-0.7,1l1.3,0.3
		c0.1-0.2,0.3-0.5,0.6-0.7c0.3-0.2,0.6-0.3,1.1-0.3c0.4,0,0.8,0.1,1,0.3s0.3,0.5,0.3,0.9v0c0,0.2-0.1,0.3-0.2,0.4
		c-0.1,0.1-0.3,0.1-0.6,0.2c-0.3,0-0.6,0.1-1,0.1c-0.3,0-0.7,0.1-1,0.2c-0.3,0.1-0.6,0.2-0.9,0.3c-0.3,0.2-0.5,0.4-0.6,0.6
		s-0.2,0.6-0.2,1c0,0.5,0.1,0.9,0.3,1.2s0.5,0.6,0.9,0.7c0.4,0.2,0.8,0.3,1.2,0.3c0.4,0,0.7-0.1,1-0.2
		C314.8,61.8,315,61.6,315.2,61.5z M312.8,60.7c-0.3-0.2-0.4-0.4-0.4-0.8c0-0.2,0.1-0.4,0.2-0.6c0.1-0.1,0.3-0.3,0.5-0.3
		c0.2-0.1,0.5-0.1,0.7-0.2c0.1,0,0.3,0,0.4-0.1c0.2,0,0.3,0,0.5-0.1c0.2,0,0.3-0.1,0.5-0.1c0.1,0,0.2-0.1,0.3-0.1v0.9
		c0,0.3-0.1,0.5-0.2,0.8c-0.1,0.2-0.4,0.4-0.6,0.6c-0.3,0.2-0.6,0.2-1,0.2C313.4,60.9,313.1,60.9,312.8,60.7z"/>
	<path d="M320.2,57.7c0-0.4,0.1-0.7,0.2-1c0.1-0.3,0.3-0.5,0.6-0.6c0.2-0.1,0.5-0.2,0.9-0.2c0.5,0,0.8,0.1,1.1,0.4
		c0.3,0.3,0.4,0.7,0.4,1.2v4.3h1.4v-4.5c0-0.6-0.1-1.1-0.3-1.5c-0.2-0.4-0.5-0.7-0.8-0.9c-0.4-0.2-0.8-0.3-1.3-0.3
		c-0.5,0-1,0.1-1.3,0.3c-0.3,0.2-0.6,0.5-0.8,0.9h-0.1v-1.2h-1.3v7.1h1.4V57.7z"/>
	<path d="M332,60.9c0.2-0.4,0.4-0.8,0.4-1.2h-1.3c-0.1,0.3-0.2,0.5-0.3,0.7c-0.1,0.2-0.3,0.3-0.5,0.4s-0.5,0.1-0.7,0.1
		c-0.4,0-0.7-0.1-1-0.3c-0.3-0.2-0.5-0.5-0.7-0.9c-0.2-0.4-0.2-0.8-0.2-1.3c0-0.5,0.1-0.9,0.2-1.3s0.4-0.7,0.7-0.9
		c0.3-0.2,0.6-0.3,1-0.3c0.4,0,0.8,0.1,1.1,0.4c0.3,0.2,0.4,0.5,0.5,0.9h1.3c0-0.5-0.2-0.9-0.5-1.3c-0.3-0.4-0.6-0.6-1-0.8
		c-0.4-0.2-0.9-0.3-1.4-0.3c-0.7,0-1.2,0.2-1.7,0.5c-0.5,0.3-0.9,0.7-1.1,1.3s-0.4,1.2-0.4,1.9c0,0.7,0.1,1.3,0.4,1.9s0.6,1,1.1,1.3
		c0.5,0.3,1.1,0.5,1.8,0.5c0.6,0,1-0.1,1.5-0.3S331.8,61.2,332,60.9z"/>
	<path d="M338.7,59.9c-0.1,0.2-0.2,0.4-0.4,0.6c-0.2,0.2-0.3,0.3-0.6,0.3c-0.2,0.1-0.5,0.1-0.7,0.1c-0.4,0-0.8-0.1-1.1-0.3
		c-0.3-0.2-0.5-0.4-0.7-0.8c-0.2-0.3-0.2-0.7-0.2-1.1h5v-0.5c0-0.6-0.1-1.2-0.3-1.6c-0.2-0.5-0.4-0.8-0.7-1.1
		c-0.3-0.3-0.6-0.5-1-0.6c-0.4-0.1-0.8-0.2-1.2-0.2c-0.7,0-1.2,0.2-1.7,0.5c-0.5,0.3-0.9,0.7-1.1,1.3c-0.3,0.6-0.4,1.2-0.4,1.9
		c0,0.7,0.1,1.4,0.4,1.9s0.7,1,1.2,1.3c0.5,0.3,1.1,0.5,1.8,0.5c0.5,0,1-0.1,1.4-0.2c0.4-0.2,0.7-0.4,1-0.7c0.3-0.3,0.5-0.6,0.6-1
		L338.7,59.9z M335.2,56.9c0.2-0.3,0.4-0.5,0.7-0.7c0.3-0.2,0.6-0.3,1-0.3c0.4,0,0.7,0.1,0.9,0.2s0.5,0.4,0.6,0.7
		c0.1,0.3,0.2,0.6,0.2,1H335C335,57.4,335.1,57.1,335.2,56.9z"/>
	<path d="M347.8,61.9v-9.5h-1.4V56h-0.1c-0.1-0.1-0.2-0.3-0.3-0.5c-0.1-0.2-0.4-0.4-0.6-0.5c-0.3-0.1-0.6-0.2-1.1-0.2
		c-0.6,0-1.1,0.1-1.5,0.4s-0.8,0.7-1.1,1.3c-0.3,0.5-0.4,1.2-0.4,2s0.1,1.4,0.4,2c0.3,0.5,0.6,1,1.1,1.3c0.4,0.3,1,0.4,1.5,0.4
		c0.4,0,0.8-0.1,1.1-0.2c0.3-0.1,0.5-0.3,0.6-0.5c0.2-0.2,0.3-0.4,0.4-0.5h0.1v1.1H347.8z M346.2,59.7c-0.1,0.4-0.4,0.7-0.6,0.9
		c-0.3,0.2-0.6,0.3-1,0.3c-0.4,0-0.8-0.1-1-0.3c-0.3-0.2-0.5-0.5-0.6-0.9c-0.1-0.4-0.2-0.8-0.2-1.3c0-0.5,0.1-0.9,0.2-1.3
		c0.1-0.4,0.3-0.7,0.6-0.9c0.3-0.2,0.6-0.3,1-0.3c0.4,0,0.7,0.1,1,0.3s0.5,0.5,0.6,0.9s0.2,0.8,0.2,1.3
		C346.4,58.9,346.3,59.3,346.2,59.7z"/>
	<path d="M359.2,60.3c0,0,0.1-0.1,0.1-0.1c0.2-0.3,0.4-0.6,0.5-1c0.1-0.4,0.2-0.9,0.2-1.5h-1.2c0,0.5-0.1,0.9-0.2,1.3
		c0,0.1-0.1,0.2-0.2,0.3l-1.9-2.3l0.6-0.5c0.4-0.3,0.7-0.6,0.9-0.9c0.2-0.3,0.3-0.7,0.3-1.2c0-0.4-0.1-0.7-0.3-1
		c-0.2-0.3-0.5-0.6-0.8-0.8c-0.3-0.2-0.8-0.3-1.3-0.3c-0.5,0-0.9,0.1-1.3,0.3c-0.4,0.2-0.6,0.5-0.8,0.8c-0.2,0.3-0.3,0.7-0.3,1.2
		c0,0.4,0.1,0.7,0.2,1.1c0.2,0.3,0.4,0.7,0.6,1c0.1,0.1,0.1,0.1,0.2,0.2c-0.3,0.2-0.6,0.5-0.9,0.7c-0.3,0.3-0.5,0.5-0.7,0.8
		c-0.2,0.3-0.2,0.6-0.2,1c0,0.5,0.1,1,0.4,1.4s0.6,0.7,1.1,0.9c0.5,0.2,1,0.3,1.6,0.3c0.4,0,0.9-0.1,1.3-0.2
		c0.4-0.1,0.8-0.4,1.1-0.7l0.6,0.8h1.6L359.2,60.3z M355.1,54.1c0.1-0.2,0.2-0.3,0.4-0.4c0.2-0.1,0.4-0.2,0.6-0.2
		c0.3,0,0.6,0.1,0.8,0.3s0.3,0.4,0.3,0.6c0,0.3-0.1,0.5-0.2,0.7c-0.1,0.2-0.3,0.4-0.6,0.5l-0.6,0.4c0-0.1-0.1-0.1-0.1-0.2
		c-0.2-0.2-0.3-0.5-0.5-0.7c-0.1-0.2-0.2-0.4-0.2-0.7C354.9,54.4,355,54.2,355.1,54.1z M357,60.6c-0.3,0.2-0.7,0.2-1,0.2
		c-0.3,0-0.6-0.1-0.9-0.2c-0.3-0.1-0.5-0.3-0.6-0.6c-0.1-0.2-0.2-0.5-0.2-0.8c0-0.1,0.1-0.4,0.2-0.6c0.1-0.3,0.4-0.5,0.8-0.8
		l0.2-0.2l2.1,2.5C357.4,60.4,357.2,60.5,357,60.6z"/>
	<polygon points="288.7,75.4 288.6,75.4 285.6,68 283.9,68 283.9,77.5 285.2,77.5 285.2,70.7 285.3,70.7 288.1,77.5 289.2,77.5 
		292,70.7 292.1,70.7 292.1,77.5 293.5,77.5 293.5,68 291.7,68 	"/>
	<rect x="295.4" y="70.4" width="1.4" height="7.1"/>
	<path d="M296.1,67.7c-0.2,0-0.4,0.1-0.6,0.2c-0.2,0.2-0.3,0.4-0.3,0.6c0,0.2,0.1,0.4,0.3,0.6c0.2,0.2,0.4,0.2,0.6,0.2
		s0.4-0.1,0.6-0.2c0.2-0.2,0.3-0.4,0.3-0.6c0-0.2-0.1-0.4-0.3-0.6C296.6,67.7,296.4,67.7,296.1,67.7z"/>
	<path d="M303.4,70.6c-0.4-0.2-0.8-0.3-1.3-0.3c-0.5,0-1,0.1-1.3,0.3c-0.3,0.2-0.6,0.5-0.8,0.9H300v-1.2h-1.3v7.1h1.4v-4.2
		c0-0.4,0.1-0.7,0.2-1c0.1-0.3,0.3-0.5,0.6-0.6c0.2-0.1,0.5-0.2,0.9-0.2c0.5,0,0.8,0.1,1.1,0.4c0.3,0.3,0.4,0.7,0.4,1.2v4.3h1.4V73
		c0-0.6-0.1-1.1-0.3-1.5C304.1,71.1,303.8,70.8,303.4,70.6z"/>
	<path d="M310.9,74.6c0,0.4-0.1,0.7-0.3,1c-0.2,0.3-0.4,0.5-0.6,0.6s-0.5,0.2-0.8,0.2c-0.4,0-0.8-0.1-1-0.4
		c-0.3-0.3-0.4-0.7-0.4-1.2v-4.3h-1.4v4.5c0,0.6,0.1,1.1,0.3,1.5c0.2,0.4,0.5,0.7,0.8,0.9c0.3,0.2,0.8,0.3,1.2,0.3
		c0.5,0,1-0.1,1.3-0.4c0.4-0.3,0.6-0.6,0.8-0.9h0.1v1.2h1.4v-7.1h-1.4V74.6z"/>
	<path d="M317.2,76.3c-0.1,0-0.2,0-0.3,0c-0.2,0-0.3,0-0.4-0.1c-0.1,0-0.2-0.1-0.3-0.3s-0.1-0.3-0.1-0.6v-3.9h1.5v-1.1H316v-1.7
		h-1.4v1.7h-1v1.1h1v4.2c0,0.4,0.1,0.8,0.3,1.1s0.4,0.5,0.8,0.6c0.3,0.1,0.7,0.2,1,0.2c0.2,0,0.4,0,0.6-0.1c0.1,0,0.3-0.1,0.3-0.1
		l-0.2-1.1C317.3,76.3,317.2,76.3,317.2,76.3z"/>
	<path d="M324.1,71.1c-0.3-0.3-0.6-0.5-1-0.6c-0.4-0.1-0.8-0.2-1.2-0.2c-0.7,0-1.2,0.2-1.7,0.5c-0.5,0.3-0.9,0.7-1.1,1.3
		s-0.4,1.2-0.4,1.9c0,0.7,0.1,1.4,0.4,1.9c0.3,0.5,0.7,1,1.2,1.3c0.5,0.3,1.1,0.5,1.8,0.5c0.5,0,1-0.1,1.4-0.2s0.7-0.4,1-0.7
		c0.3-0.3,0.5-0.6,0.6-1l-1.3-0.2c-0.1,0.2-0.2,0.4-0.4,0.6c-0.2,0.2-0.3,0.3-0.6,0.3s-0.5,0.1-0.7,0.1c-0.4,0-0.8-0.1-1.1-0.3
		c-0.3-0.2-0.5-0.4-0.7-0.8c-0.2-0.3-0.2-0.7-0.2-1.1h5v-0.5c0-0.6-0.1-1.2-0.3-1.6S324.4,71.4,324.1,71.1z M320.1,73.3
		c0-0.3,0.1-0.6,0.2-0.9c0.2-0.3,0.4-0.5,0.7-0.7c0.3-0.2,0.6-0.3,1-0.3c0.4,0,0.7,0.1,0.9,0.2s0.5,0.4,0.6,0.7
		c0.1,0.3,0.2,0.6,0.2,1H320.1z"/>
	<path d="M332.7,69.6c0.4-0.3,0.9-0.4,1.5-0.4c0.3,0,0.6,0,0.9,0.1s0.5,0.2,0.7,0.4c0.2,0.2,0.4,0.4,0.6,0.6
		c0.2,0.2,0.3,0.5,0.3,0.8h1.4c-0.1-0.5-0.2-1-0.5-1.4c-0.2-0.4-0.5-0.7-0.9-1s-0.7-0.5-1.2-0.6c-0.4-0.1-0.9-0.2-1.4-0.2
		c-0.8,0-1.5,0.2-2.2,0.6s-1.1,0.9-1.5,1.7c-0.4,0.7-0.6,1.6-0.6,2.6c0,1,0.2,1.9,0.6,2.6c0.4,0.7,0.9,1.3,1.5,1.7s1.4,0.6,2.2,0.6
		c0.5,0,1-0.1,1.4-0.2c0.4-0.2,0.8-0.4,1.2-0.7c0.3-0.3,0.6-0.6,0.8-1c0.2-0.4,0.4-0.8,0.4-1.3l-1.4,0c-0.1,0.3-0.2,0.6-0.3,0.8
		s-0.3,0.4-0.6,0.6c-0.2,0.2-0.5,0.3-0.7,0.4c-0.3,0.1-0.6,0.1-0.9,0.1c-0.5,0-1-0.1-1.5-0.4c-0.4-0.3-0.8-0.7-1-1.2
		c-0.2-0.5-0.4-1.2-0.4-1.9c0-0.8,0.1-1.4,0.4-1.9C331.9,70.3,332.3,69.9,332.7,69.6z"/>
	<path d="M344.5,70.6c-0.4-0.2-0.8-0.3-1.3-0.3c-0.6,0-1,0.1-1.3,0.3s-0.6,0.5-0.8,0.9H341V68h-1.4v9.5h1.4v-4.2
		c0-0.4,0.1-0.7,0.2-1c0.1-0.3,0.3-0.5,0.6-0.6s0.5-0.2,0.9-0.2c0.5,0,0.8,0.1,1.1,0.4c0.3,0.3,0.4,0.7,0.4,1.2v4.3h1.4V73
		c0-0.6-0.1-1.1-0.3-1.5C345.1,71.1,344.8,70.8,344.5,70.6z"/>
	<path d="M352.1,70.8c-0.3-0.2-0.6-0.3-0.9-0.4c-0.3-0.1-0.6-0.1-0.9-0.1c-0.4,0-0.8,0.1-1.2,0.2c-0.4,0.1-0.7,0.3-1,0.6
		c-0.3,0.3-0.5,0.6-0.7,1l1.3,0.3c0.1-0.2,0.3-0.5,0.6-0.7c0.3-0.2,0.6-0.3,1.1-0.3c0.4,0,0.8,0.1,1,0.3c0.2,0.2,0.3,0.5,0.3,0.9v0
		c0,0.2-0.1,0.3-0.2,0.4s-0.3,0.1-0.6,0.2s-0.6,0.1-1,0.1c-0.3,0-0.7,0.1-1,0.2s-0.6,0.2-0.9,0.3c-0.3,0.2-0.5,0.4-0.6,0.6
		c-0.2,0.3-0.2,0.6-0.2,1c0,0.5,0.1,0.9,0.3,1.2c0.2,0.3,0.5,0.6,0.9,0.7c0.4,0.2,0.8,0.3,1.2,0.3c0.4,0,0.7-0.1,1-0.2
		c0.3-0.1,0.5-0.3,0.7-0.4c0.2-0.2,0.3-0.3,0.4-0.5h0.1v1h1.3v-4.7c0-0.5-0.1-0.9-0.3-1.3C352.6,71.2,352.3,71,352.1,70.8z
		 M351.6,74.9c0,0.3-0.1,0.5-0.2,0.8c-0.1,0.2-0.4,0.4-0.6,0.6c-0.3,0.2-0.6,0.2-1,0.2c-0.4,0-0.7-0.1-1-0.3s-0.4-0.4-0.4-0.8
		c0-0.2,0.1-0.4,0.2-0.6c0.1-0.1,0.3-0.3,0.5-0.3c0.2-0.1,0.5-0.1,0.7-0.2c0.1,0,0.3,0,0.4-0.1c0.2,0,0.3,0,0.5-0.1
		c0.2,0,0.3-0.1,0.5-0.1c0.1,0,0.2-0.1,0.3-0.1V74.9z"/>
	<path d="M358.1,70.3c-0.4,0-0.8,0.1-1.1,0.3s-0.6,0.5-0.7,0.9h-0.1v-1.1h-1.3v7.1h1.4v-4.3c0-0.3,0.1-0.6,0.2-0.8
		c0.1-0.2,0.3-0.4,0.6-0.6c0.3-0.1,0.5-0.2,0.9-0.2c0.1,0,0.3,0,0.4,0c0.1,0,0.2,0,0.3,0.1v-1.3c-0.1,0-0.2,0-0.3,0
		C358.3,70.3,358.2,70.3,358.1,70.3z"/>
	<path d="M363,76.3c0,0-0.1,0-0.2,0c-0.1,0-0.2,0-0.3,0c-0.2,0-0.3,0-0.4-0.1c-0.1,0-0.2-0.1-0.3-0.3s-0.1-0.3-0.1-0.6v-3.9h1.5
		v-1.1h-1.5v-1.7h-1.4v1.7h-1v1.1h1v4.2c0,0.4,0.1,0.8,0.3,1.1s0.4,0.5,0.8,0.6c0.3,0.1,0.7,0.2,1,0.2c0.2,0,0.4,0,0.6-0.1
		c0.1,0,0.3-0.1,0.3-0.1L363,76.3z"/>
</g>
<g>
	<polygon points="447.6,59.4 443.3,59.4 443.3,51.2 441.8,51.2 441.8,60.7 447.6,60.7 	"/>
	<path d="M454.6,60.3c0.5-0.2,0.8-0.5,1-0.9c0.2-0.4,0.3-0.8,0.3-1.3c0-0.5-0.1-0.9-0.3-1.2c-0.2-0.3-0.4-0.6-0.7-0.8
		c-0.3-0.2-0.6-0.3-0.9-0.3v-0.1c0.3-0.1,0.6-0.2,0.8-0.4c0.2-0.2,0.4-0.4,0.6-0.6c0.1-0.3,0.2-0.6,0.2-1c0-0.5-0.1-0.9-0.3-1.3
		c-0.2-0.4-0.5-0.7-1-0.9c-0.4-0.2-1-0.3-1.7-0.3h-3.5v9.5h3.6C453.5,60.7,454.1,60.6,454.6,60.3z M450.6,52.4h1.9
		c0.6,0,1,0.1,1.3,0.4s0.4,0.6,0.4,1c0,0.3-0.1,0.6-0.2,0.8c-0.2,0.2-0.4,0.4-0.6,0.5c-0.3,0.1-0.5,0.2-0.9,0.2h-1.9V52.4z
		 M450.6,59.4v-3h2.1c0.4,0,0.7,0.1,1,0.2c0.3,0.1,0.5,0.3,0.6,0.6c0.2,0.2,0.2,0.5,0.2,0.8c0,0.4-0.1,0.7-0.4,1
		c-0.3,0.3-0.8,0.4-1.5,0.4H450.6z"/>
	<path d="M461.9,59.4c-0.3,0.1-0.7,0.2-1.1,0.2c-0.4,0-0.7-0.1-1-0.2c-0.3-0.1-0.6-0.3-0.8-0.5c-0.2-0.2-0.3-0.5-0.3-0.9h-1.4
		c0,0.6,0.2,1.1,0.5,1.5c0.3,0.4,0.7,0.7,1.2,1s1.1,0.3,1.8,0.3c0.7,0,1.4-0.1,1.9-0.4c0.5-0.2,0.9-0.6,1.2-1
		c0.3-0.4,0.4-0.9,0.4-1.4c0-0.4-0.1-0.8-0.3-1.1c-0.2-0.3-0.4-0.6-0.7-0.8c-0.3-0.2-0.6-0.4-0.9-0.5c-0.3-0.1-0.6-0.2-0.9-0.3
		l-0.9-0.2c-0.2,0-0.4-0.1-0.6-0.2c-0.2-0.1-0.4-0.2-0.6-0.3c-0.2-0.1-0.3-0.2-0.4-0.4c-0.1-0.2-0.2-0.4-0.2-0.6
		c0-0.3,0.1-0.5,0.2-0.7c0.2-0.2,0.4-0.4,0.7-0.5c0.3-0.1,0.6-0.2,1-0.2c0.5,0,1,0.1,1.3,0.4c0.4,0.2,0.6,0.6,0.6,1h1.4
		c0-0.5-0.2-1-0.4-1.4s-0.7-0.7-1.2-0.9s-1.1-0.3-1.7-0.3c-0.6,0-1.2,0.1-1.7,0.3c-0.5,0.2-0.9,0.5-1.2,0.9s-0.4,0.9-0.4,1.4
		c0,0.7,0.2,1.2,0.7,1.6c0.4,0.4,1,0.7,1.8,0.9l1.1,0.3c0.3,0.1,0.6,0.2,0.9,0.3c0.3,0.1,0.5,0.3,0.6,0.4c0.2,0.2,0.2,0.4,0.2,0.7
		c0,0.3-0.1,0.6-0.3,0.8S462.2,59.2,461.9,59.4z"/>
	<polygon points="471.8,59.4 467.5,59.4 467.5,51.2 466.1,51.2 466.1,60.7 471.8,60.7 	"/>
	<path d="M442,72.3c0.5-0.2,0.8-0.6,1.1-1s0.4-0.9,0.4-1.5c0-0.6-0.1-1.1-0.4-1.5c-0.2-0.4-0.6-0.8-1.1-1c-0.5-0.3-1.1-0.4-1.8-0.4
		h-3.4v9.5h1.4v-3.6h1.9c0,0,0.1,0,0.1,0l1.9,3.6h1.6l-2.1-3.8C441.8,72.4,441.9,72.4,442,72.3z M438.2,68h1.8
		c0.5,0,0.9,0.1,1.1,0.2c0.3,0.1,0.5,0.3,0.6,0.6c0.1,0.3,0.2,0.6,0.2,0.9c0,0.4-0.1,0.7-0.2,0.9s-0.3,0.4-0.6,0.6
		c-0.3,0.1-0.7,0.2-1.1,0.2h-1.8V68z"/>
	<path d="M450.2,69.9c-0.3-0.3-0.6-0.5-1-0.6c-0.4-0.1-0.8-0.2-1.2-0.2c-0.7,0-1.2,0.2-1.7,0.5c-0.5,0.3-0.9,0.7-1.1,1.3
		c-0.3,0.6-0.4,1.2-0.4,1.9c0,0.7,0.1,1.4,0.4,1.9s0.7,1,1.2,1.3c0.5,0.3,1.1,0.5,1.8,0.5c0.5,0,1-0.1,1.4-0.2
		c0.4-0.2,0.7-0.4,1-0.7c0.3-0.3,0.5-0.6,0.6-1l-1.3-0.2c-0.1,0.2-0.2,0.4-0.4,0.6c-0.2,0.2-0.3,0.3-0.6,0.3
		c-0.2,0.1-0.5,0.1-0.7,0.1c-0.4,0-0.8-0.1-1.1-0.3c-0.3-0.2-0.5-0.4-0.7-0.8c-0.2-0.3-0.2-0.7-0.2-1.1h5v-0.5
		c0-0.6-0.1-1.2-0.3-1.6C450.7,70.6,450.5,70.2,450.2,69.9z M446.1,72.1c0-0.3,0.1-0.6,0.2-0.9c0.2-0.3,0.4-0.5,0.7-0.7
		c0.3-0.2,0.6-0.3,1-0.3c0.4,0,0.7,0.1,0.9,0.2s0.5,0.4,0.6,0.7c0.1,0.3,0.2,0.6,0.2,1H446.1z"/>
	<path d="M457.7,69.5c-0.4-0.3-1-0.4-1.5-0.4c-0.4,0-0.8,0.1-1.1,0.2c-0.3,0.1-0.5,0.3-0.6,0.5c-0.2,0.2-0.3,0.4-0.3,0.5H454v-1.1
		h-1.3v9.8h1.4v-3.8h0.1c0.1,0.2,0.2,0.3,0.4,0.5c0.2,0.2,0.4,0.4,0.6,0.5s0.6,0.2,1.1,0.2c0.6,0,1.1-0.1,1.5-0.4s0.8-0.7,1.1-1.3
		c0.3-0.5,0.4-1.2,0.4-2s-0.1-1.4-0.4-2C458.5,70.2,458.2,69.8,457.7,69.5z M457.5,74c-0.1,0.4-0.4,0.7-0.6,0.9
		c-0.3,0.2-0.6,0.3-1,0.3c-0.4,0-0.7-0.1-1-0.3s-0.5-0.5-0.6-0.9c-0.1-0.4-0.2-0.8-0.2-1.3c0-0.5,0.1-0.9,0.2-1.3s0.4-0.7,0.6-0.9
		c0.3-0.2,0.6-0.3,1-0.3c0.4,0,0.8,0.1,1,0.3c0.3,0.2,0.5,0.5,0.6,0.9c0.1,0.4,0.2,0.8,0.2,1.3C457.8,73.2,457.7,73.6,457.5,74z"/>
	<path d="M465.4,69.5c-0.5-0.3-1.1-0.5-1.7-0.5c-0.7,0-1.2,0.2-1.7,0.5s-0.9,0.7-1.2,1.3s-0.4,1.2-0.4,1.9c0,0.7,0.1,1.4,0.4,1.9
		s0.7,1,1.2,1.3s1.1,0.5,1.7,0.5c0.7,0,1.2-0.2,1.7-0.5s0.9-0.7,1.2-1.3s0.4-1.2,0.4-1.9c0-0.7-0.1-1.4-0.4-1.9
		S465.9,69.8,465.4,69.5z M465.4,74c-0.1,0.4-0.3,0.7-0.6,0.9c-0.3,0.2-0.6,0.3-1.1,0.3c-0.4,0-0.8-0.1-1.1-0.3
		c-0.3-0.2-0.5-0.5-0.6-0.9c-0.1-0.4-0.2-0.8-0.2-1.3c0-0.5,0.1-0.9,0.2-1.2c0.1-0.4,0.3-0.7,0.6-0.9s0.6-0.3,1.1-0.3
		c0.4,0,0.8,0.1,1.1,0.3s0.5,0.5,0.6,0.9c0.1,0.4,0.2,0.8,0.2,1.2C465.6,73.2,465.5,73.6,465.4,74z"/>
	<path d="M471.7,69.1c-0.4,0-0.8,0.1-1.1,0.3c-0.3,0.2-0.6,0.5-0.7,0.9h-0.1v-1.1h-1.3v7.1h1.4v-4.3c0-0.3,0.1-0.6,0.2-0.8
		c0.1-0.2,0.3-0.4,0.6-0.6s0.5-0.2,0.9-0.2c0.1,0,0.3,0,0.4,0c0.1,0,0.2,0,0.3,0.1v-1.3c-0.1,0-0.2,0-0.3,0S471.8,69.1,471.7,69.1z"
		/>
	<path d="M476.7,75.1c0,0-0.1,0-0.2,0c-0.1,0-0.2,0-0.3,0c-0.2,0-0.3,0-0.4-0.1s-0.2-0.1-0.3-0.3s-0.1-0.3-0.1-0.6v-3.9h1.5v-1.1
		h-1.5v-1.7H474v1.7h-1v1.1h1v4.2c0,0.4,0.1,0.8,0.3,1.1s0.4,0.5,0.8,0.6c0.3,0.1,0.7,0.2,1,0.2c0.2,0,0.4,0,0.6-0.1
		c0.1,0,0.3-0.1,0.3-0.1L476.7,75.1z"/>
</g>
</svg>
