<?xml version="1.0" encoding="utf-8"?>
<!-- Generator: Adobe Illustrator 26.0.1, SVG Export Plug-In . SVG Version: 6.00 Build 0)  -->
<svg version="1.1" id="Layer_1" xmlns="http://www.w3.org/2000/svg" xmlns:xlink="http://www.w3.org/1999/xlink" x="0px" y="0px"
	 viewBox="0 0 130 484.5" style="enable-background:new 0 0 130 484.5;" xml:space="preserve">
<style type="text/css">
	.st0{fill:#EC7E30;}
	.st1{fill:#FFFFFF;}
	.st2{fill:#A5A4A4;}
	.st3{fill:#FDC015;}
	.st4{fill:#4A72B8;}
</style>
<circle class="st0" cx="65" cy="419.5" r="65"/>
<circle class="st1" cx="65" cy="419.5" r="59.9"/>
<path class="st2" d="M127.7,299.5c0.3,39.2-36.2,61.2-62.2,83.9c-1.6,1.5-25.8-22.6-28.8-25.2C19,342.6,1.9,323.5,2.4,298.3
	c0.4-22.8,13.6-44.1,33.7-54.7c9-4.7,19.1-7.2,29.4-7.2C102.1,236.4,127.5,267.1,127.7,299.5z"/>
<circle class="st1" cx="65" cy="298.6" r="57"/>
<path class="st3" d="M127.7,181.3c0.3,39.2-36.2,61.2-62.2,83.9c-1.6,1.5-25.8-22.6-28.8-25.2C19,224.4,1.9,205.3,2.4,180
	C2.8,157.2,16,136,36.1,125.3c9-4.7,19.1-7.2,29.4-7.2C102.1,118.2,127.5,148.9,127.7,181.3z"/>
<circle class="st1" cx="65" cy="180.4" r="57"/>
<path class="st4" d="M127.7,63.2c0.3,39.2-36.2,61.2-62.2,83.9c-1.6,1.5-25.8-22.6-28.8-25.2C19,106.3,1.9,87.2,2.4,62
	C2.8,39.2,16,17.9,36.1,7.2C45.1,2.5,55.2,0,65.5,0C102.1,0.1,127.5,30.8,127.7,63.2z"/>
<circle class="st1" cx="65" cy="62.3" r="57"/>
<g>
	<polygon points="19.1,50.2 20.6,50.2 20.6,46.1 24.6,46.1 24.6,44.8 20.6,44.8 20.6,42 25,42 25,40.7 19.1,40.7 	"/>
	<path d="M31.1,47.2c0,0.4-0.1,0.7-0.3,1c-0.2,0.3-0.4,0.5-0.6,0.6C30,49,29.7,49,29.5,49c-0.4,0-0.8-0.1-1-0.4
		c-0.3-0.3-0.4-0.7-0.4-1.2v-4.3h-1.4v4.5c0,0.6,0.1,1.1,0.3,1.5c0.2,0.4,0.5,0.7,0.8,0.9s0.8,0.3,1.2,0.3c0.5,0,1-0.1,1.3-0.4
		c0.4-0.3,0.6-0.6,0.8-0.9h0.1v1.2h1.4v-7.1h-1.4V47.2z"/>
	<path d="M35.8,46c0-0.4,0.1-0.7,0.2-1s0.3-0.5,0.6-0.6c0.2-0.1,0.5-0.2,0.9-0.2c0.5,0,0.8,0.1,1.1,0.4c0.3,0.3,0.4,0.7,0.4,1.2v4.3
		h1.4v-4.5c0-0.6-0.1-1.1-0.3-1.5c-0.2-0.4-0.5-0.7-0.8-0.9c-0.4-0.2-0.8-0.3-1.3-0.3c-0.5,0-1,0.1-1.3,0.3
		c-0.3,0.2-0.6,0.5-0.8,0.9h-0.1v-1.2h-1.3v7.1h1.4V46z"/>
	<path d="M43.3,49.9c0.4,0.3,1,0.4,1.5,0.4c0.4,0,0.8-0.1,1.1-0.2c0.3-0.1,0.5-0.3,0.6-0.5c0.2-0.2,0.3-0.4,0.4-0.5H47v1.1h1.3v-9.5
		h-1.4v3.5h-0.1c-0.1-0.1-0.2-0.3-0.3-0.5c-0.1-0.2-0.4-0.4-0.6-0.5c-0.3-0.1-0.6-0.2-1.1-0.2c-0.6,0-1.1,0.1-1.5,0.4
		c-0.4,0.3-0.8,0.7-1.1,1.3c-0.3,0.5-0.4,1.2-0.4,2c0,0.8,0.1,1.4,0.4,2S42.8,49.6,43.3,49.9z M43.4,45.4c0.1-0.4,0.3-0.7,0.6-0.9
		c0.3-0.2,0.6-0.3,1-0.3c0.4,0,0.7,0.1,1,0.3c0.3,0.2,0.5,0.5,0.6,0.9c0.1,0.4,0.2,0.8,0.2,1.3c0,0.5-0.1,0.9-0.2,1.3
		s-0.4,0.7-0.6,0.9c-0.3,0.2-0.6,0.3-1,0.3c-0.4,0-0.8-0.1-1-0.3c-0.3-0.2-0.5-0.5-0.6-0.9s-0.2-0.8-0.2-1.3
		C43.2,46.2,43.3,45.8,43.4,45.4z"/>
	<path d="M54.3,45.8c-0.1,0.1-0.3,0.1-0.6,0.2c-0.3,0-0.6,0.1-1,0.1c-0.3,0-0.7,0.1-1,0.2c-0.3,0.1-0.6,0.2-0.9,0.3
		c-0.3,0.2-0.5,0.4-0.6,0.6c-0.2,0.3-0.2,0.6-0.2,1c0,0.5,0.1,0.9,0.3,1.2c0.2,0.3,0.5,0.6,0.9,0.7c0.4,0.2,0.8,0.3,1.2,0.3
		c0.4,0,0.7-0.1,1-0.2c0.3-0.1,0.5-0.3,0.7-0.4c0.2-0.2,0.3-0.3,0.4-0.5h0.1v1h1.3v-4.7c0-0.5-0.1-0.9-0.3-1.3
		c-0.2-0.3-0.4-0.6-0.7-0.8c-0.3-0.2-0.6-0.3-0.9-0.4C53.7,43,53.4,43,53.1,43c-0.4,0-0.8,0.1-1.2,0.2s-0.7,0.3-1,0.6
		c-0.3,0.3-0.5,0.6-0.7,1l1.3,0.3c0.1-0.2,0.3-0.5,0.6-0.7c0.3-0.2,0.6-0.3,1.1-0.3c0.4,0,0.8,0.1,1,0.3c0.2,0.2,0.3,0.5,0.3,0.9v0
		C54.5,45.6,54.4,45.7,54.3,45.8z M54.5,46.7v0.9c0,0.3-0.1,0.5-0.2,0.8c-0.1,0.2-0.4,0.4-0.6,0.6s-0.6,0.2-1,0.2
		c-0.4,0-0.7-0.1-1-0.3s-0.4-0.4-0.4-0.8c0-0.2,0.1-0.4,0.2-0.6c0.1-0.1,0.3-0.3,0.5-0.3c0.2-0.1,0.5-0.1,0.7-0.2
		c0.1,0,0.3,0,0.4-0.1c0.2,0,0.3,0,0.5-0.1c0.2,0,0.3-0.1,0.5-0.1C54.3,46.8,54.4,46.8,54.5,46.7z"/>
	<path d="M67.3,50.2v-4.8c0-0.8-0.2-1.4-0.6-1.8c-0.4-0.4-0.9-0.6-1.6-0.6c-0.5,0-1,0.1-1.3,0.3c-0.4,0.2-0.6,0.5-0.8,0.9h-0.1
		c-0.2-0.4-0.4-0.7-0.7-0.9C61.9,43.1,61.5,43,61,43c-0.5,0-0.9,0.1-1.2,0.3c-0.3,0.2-0.6,0.5-0.7,0.9H59v-1.2h-1.3v7.1h1.4v-4.4
		c0-0.3,0.1-0.6,0.2-0.8c0.1-0.2,0.3-0.4,0.5-0.6c0.2-0.1,0.5-0.2,0.7-0.2c0.4,0,0.7,0.1,0.9,0.4c0.2,0.2,0.4,0.5,0.4,0.9v4.7h1.4
		v-4.5c0-0.4,0.1-0.8,0.4-1.1c0.2-0.3,0.6-0.4,1-0.4c0.4,0,0.7,0.1,0.9,0.3s0.4,0.6,0.4,1v4.6H67.3z"/>
	<path d="M75.2,48.4l-1.3-0.2c-0.1,0.2-0.2,0.4-0.4,0.6c-0.2,0.2-0.3,0.3-0.6,0.3c-0.2,0.1-0.5,0.1-0.7,0.1c-0.4,0-0.8-0.1-1.1-0.3
		c-0.3-0.2-0.5-0.4-0.7-0.8c-0.2-0.3-0.2-0.7-0.2-1.1h5v-0.5c0-0.6-0.1-1.2-0.3-1.6c-0.2-0.5-0.4-0.8-0.7-1.1
		c-0.3-0.3-0.6-0.5-1-0.6S72.5,43,72.1,43c-0.7,0-1.2,0.2-1.7,0.5c-0.5,0.3-0.9,0.7-1.1,1.3c-0.3,0.6-0.4,1.2-0.4,1.9
		c0,0.7,0.1,1.4,0.4,1.9c0.3,0.5,0.7,1,1.2,1.3c0.5,0.3,1.1,0.5,1.8,0.5c0.5,0,1-0.1,1.4-0.2c0.4-0.2,0.7-0.4,1-0.7
		C74.9,49.1,75.1,48.8,75.2,48.4z M70.4,45.2c0.2-0.3,0.4-0.5,0.7-0.7c0.3-0.2,0.6-0.3,1-0.3c0.4,0,0.7,0.1,0.9,0.2s0.5,0.4,0.6,0.7
		c0.1,0.3,0.2,0.6,0.2,1h-3.7C70.2,45.7,70.3,45.4,70.4,45.2z"/>
	<path d="M78.2,46c0-0.4,0.1-0.7,0.2-1s0.3-0.5,0.6-0.6c0.2-0.1,0.5-0.2,0.9-0.2c0.5,0,0.8,0.1,1.1,0.4c0.3,0.3,0.4,0.7,0.4,1.2v4.3
		h1.4v-4.5c0-0.6-0.1-1.1-0.3-1.5c-0.2-0.4-0.5-0.7-0.8-0.9c-0.4-0.2-0.8-0.3-1.3-0.3c-0.5,0-1,0.1-1.3,0.3
		c-0.3,0.2-0.6,0.5-0.8,0.9h-0.1v-1.2h-1.3v7.1h1.4V46z"/>
	<path d="M85,48.4c0,0.4,0.1,0.8,0.3,1.1s0.4,0.5,0.8,0.6s0.7,0.2,1,0.2c0.2,0,0.4,0,0.6-0.1c0.1,0,0.3-0.1,0.3-0.1L87.7,49
		c0,0-0.1,0-0.2,0c-0.1,0-0.2,0-0.3,0c-0.2,0-0.3,0-0.4-0.1c-0.1,0-0.2-0.1-0.3-0.3s-0.1-0.3-0.1-0.6v-3.9h1.5v-1.1h-1.5v-1.7H85
		v1.7h-1v1.1h1V48.4z"/>
	<path d="M94,43.5c-0.3-0.2-0.6-0.3-0.9-0.4C92.8,43,92.5,43,92.2,43c-0.4,0-0.8,0.1-1.2,0.2s-0.7,0.3-1,0.6c-0.3,0.3-0.5,0.6-0.7,1
		l1.3,0.3c0.1-0.2,0.3-0.5,0.6-0.7c0.3-0.2,0.6-0.3,1.1-0.3c0.4,0,0.8,0.1,1,0.3c0.2,0.2,0.3,0.5,0.3,0.9v0c0,0.2-0.1,0.3-0.2,0.4
		c-0.1,0.1-0.3,0.1-0.6,0.2c-0.3,0-0.6,0.1-1,0.1c-0.3,0-0.7,0.1-1,0.2c-0.3,0.1-0.6,0.2-0.9,0.3c-0.3,0.2-0.5,0.4-0.6,0.6
		c-0.2,0.3-0.2,0.6-0.2,1c0,0.5,0.1,0.9,0.3,1.2c0.2,0.3,0.5,0.6,0.9,0.7c0.4,0.2,0.8,0.3,1.2,0.3c0.4,0,0.7-0.1,1-0.2
		c0.3-0.1,0.5-0.3,0.7-0.4c0.2-0.2,0.3-0.3,0.4-0.5h0.1v1H95v-4.7c0-0.5-0.1-0.9-0.3-1.3C94.5,43.9,94.3,43.6,94,43.5z M93.6,47.6
		c0,0.3-0.1,0.5-0.2,0.8c-0.1,0.2-0.4,0.4-0.6,0.6s-0.6,0.2-1,0.2c-0.4,0-0.7-0.1-1-0.3s-0.4-0.4-0.4-0.8c0-0.2,0.1-0.4,0.2-0.6
		c0.1-0.1,0.3-0.3,0.5-0.3c0.2-0.1,0.5-0.1,0.7-0.2c0.1,0,0.3,0,0.4-0.1c0.2,0,0.3,0,0.5-0.1c0.2,0,0.3-0.1,0.5-0.1
		c0.1,0,0.2-0.1,0.3-0.1V47.6z"/>
	<rect x="96.8" y="40.7" width="1.4" height="9.5"/>
	<path d="M110.9,50.2l-1.4-1.6c0,0,0.1-0.1,0.1-0.1c0.2-0.3,0.4-0.6,0.5-1c0.1-0.4,0.2-0.9,0.2-1.5h-1.2c0,0.5-0.1,0.9-0.2,1.3
		c0,0.1-0.1,0.2-0.2,0.3l-1.9-2.3l0.6-0.5c0.4-0.3,0.7-0.6,0.9-0.9c0.2-0.3,0.3-0.7,0.3-1.2c0-0.4-0.1-0.7-0.3-1
		c-0.2-0.3-0.5-0.6-0.8-0.8c-0.3-0.2-0.8-0.3-1.3-0.3c-0.5,0-0.9,0.1-1.3,0.3c-0.4,0.2-0.6,0.5-0.8,0.8c-0.2,0.3-0.3,0.7-0.3,1.2
		c0,0.4,0.1,0.7,0.2,1.1c0.2,0.3,0.4,0.7,0.6,1c0.1,0.1,0.1,0.1,0.2,0.2c-0.3,0.2-0.6,0.5-0.9,0.7c-0.3,0.3-0.5,0.5-0.7,0.8
		c-0.2,0.3-0.2,0.6-0.2,1c0,0.5,0.1,1,0.4,1.4c0.2,0.4,0.6,0.7,1.1,0.9s1,0.3,1.6,0.3c0.4,0,0.9-0.1,1.3-0.2
		c0.4-0.1,0.8-0.4,1.1-0.7l0.6,0.8H110.9z M105.4,42.4c0.1-0.2,0.2-0.3,0.4-0.4c0.2-0.1,0.4-0.2,0.6-0.2c0.3,0,0.6,0.1,0.8,0.3
		s0.3,0.4,0.3,0.6c0,0.3-0.1,0.5-0.2,0.7c-0.1,0.2-0.3,0.4-0.6,0.5l-0.6,0.4c0-0.1-0.1-0.1-0.1-0.2c-0.2-0.2-0.3-0.5-0.5-0.7
		c-0.1-0.2-0.2-0.4-0.2-0.7C105.2,42.7,105.3,42.5,105.4,42.4z M107.3,48.9c-0.3,0.2-0.7,0.2-1,0.2c-0.3,0-0.6-0.1-0.9-0.2
		c-0.3-0.1-0.5-0.3-0.6-0.6s-0.2-0.5-0.2-0.8c0-0.1,0.1-0.4,0.2-0.6c0.1-0.3,0.4-0.5,0.8-0.8l0.2-0.2l2.1,2.5
		C107.7,48.7,107.5,48.8,107.3,48.9z"/>
	<polygon points="39.3,65.8 39.3,57.6 42.3,57.6 42.3,56.3 35,56.3 35,57.6 37.9,57.6 37.9,65.8 	"/>
	<path d="M49.8,64l-1.3-0.2c-0.1,0.2-0.2,0.4-0.4,0.6c-0.2,0.2-0.3,0.3-0.6,0.3c-0.2,0.1-0.5,0.1-0.7,0.1c-0.4,0-0.8-0.1-1.1-0.3
		c-0.3-0.2-0.5-0.4-0.7-0.8c-0.2-0.3-0.2-0.7-0.2-1.1h5v-0.5c0-0.6-0.1-1.2-0.3-1.6c-0.2-0.5-0.4-0.8-0.7-1.1
		c-0.3-0.3-0.6-0.5-1-0.6s-0.8-0.2-1.2-0.2c-0.7,0-1.2,0.2-1.7,0.5c-0.5,0.3-0.9,0.7-1.1,1.3c-0.3,0.6-0.4,1.2-0.4,1.9
		c0,0.7,0.1,1.4,0.4,1.9c0.3,0.5,0.7,1,1.2,1.3c0.5,0.3,1.1,0.5,1.8,0.5c0.5,0,1-0.1,1.4-0.2c0.4-0.2,0.7-0.4,1-0.7
		C49.5,64.7,49.7,64.4,49.8,64z M45.1,60.8c0.2-0.3,0.4-0.5,0.7-0.7c0.3-0.2,0.6-0.3,1-0.3c0.4,0,0.7,0.1,0.9,0.2s0.5,0.4,0.6,0.7
		c0.1,0.3,0.2,0.6,0.2,1h-3.7C44.9,61.3,44.9,61,45.1,60.8z"/>
	<path d="M56.9,64.8c0.2-0.4,0.4-0.8,0.4-1.2H56c-0.1,0.3-0.2,0.5-0.3,0.7c-0.1,0.2-0.3,0.3-0.5,0.4c-0.2,0.1-0.5,0.1-0.7,0.1
		c-0.4,0-0.7-0.1-1-0.3c-0.3-0.2-0.5-0.5-0.7-0.9c-0.2-0.4-0.2-0.8-0.2-1.3c0-0.5,0.1-0.9,0.2-1.3c0.2-0.4,0.4-0.7,0.7-0.9
		c0.3-0.2,0.6-0.3,1-0.3c0.4,0,0.8,0.1,1.1,0.4c0.3,0.2,0.4,0.5,0.5,0.9h1.3c0-0.5-0.2-0.9-0.5-1.3s-0.6-0.6-1-0.8
		c-0.4-0.2-0.9-0.3-1.4-0.3c-0.7,0-1.2,0.2-1.7,0.5c-0.5,0.3-0.9,0.7-1.1,1.3c-0.3,0.6-0.4,1.2-0.4,1.9c0,0.7,0.1,1.3,0.4,1.9
		c0.3,0.6,0.6,1,1.1,1.3c0.5,0.3,1.1,0.5,1.8,0.5c0.6,0,1-0.1,1.5-0.3C56.3,65.4,56.6,65.1,56.9,64.8z"/>
	<path d="M64.8,65.8v-4.5c0-0.6-0.1-1.1-0.3-1.5c-0.2-0.4-0.5-0.7-0.8-0.9c-0.4-0.2-0.8-0.3-1.3-0.3c-0.6,0-1,0.1-1.3,0.3
		s-0.6,0.5-0.8,0.9h-0.1v-3.5h-1.4v9.5h1.4v-4.2c0-0.4,0.1-0.7,0.2-1c0.1-0.3,0.3-0.5,0.6-0.6s0.5-0.2,0.9-0.2
		c0.5,0,0.8,0.1,1.1,0.4c0.3,0.3,0.4,0.7,0.4,1.2v4.3H64.8z"/>
	<path d="M66.6,58.7v7.1H68v-4.2c0-0.4,0.1-0.7,0.2-1s0.3-0.5,0.6-0.6c0.2-0.1,0.5-0.2,0.9-0.2c0.5,0,0.8,0.1,1.1,0.4
		c0.3,0.3,0.4,0.7,0.4,1.2v4.3h1.4v-4.5c0-0.6-0.1-1.1-0.3-1.5c-0.2-0.4-0.5-0.7-0.8-0.9c-0.4-0.2-0.8-0.3-1.3-0.3
		c-0.5,0-1,0.1-1.3,0.3c-0.3,0.2-0.6,0.5-0.8,0.9h-0.1v-1.2H66.6z"/>
	<rect x="74.4" y="58.7" width="1.4" height="7.1"/>
	<path d="M74.5,56.2c-0.2,0.2-0.3,0.4-0.3,0.6c0,0.2,0.1,0.4,0.3,0.6s0.4,0.2,0.6,0.2s0.4-0.1,0.6-0.2S76,57,76,56.8
		c0-0.2-0.1-0.4-0.3-0.6S75.3,56,75.1,56S74.6,56,74.5,56.2z"/>
	<path d="M79.6,60.1c0.3-0.2,0.6-0.3,1-0.3c0.4,0,0.8,0.1,1.1,0.4c0.3,0.2,0.4,0.5,0.5,0.9h1.3c0-0.5-0.2-0.9-0.5-1.3
		s-0.6-0.6-1-0.8c-0.4-0.2-0.9-0.3-1.4-0.3c-0.7,0-1.2,0.2-1.7,0.5c-0.5,0.3-0.9,0.7-1.1,1.3c-0.3,0.6-0.4,1.2-0.4,1.9
		c0,0.7,0.1,1.3,0.4,1.9c0.3,0.6,0.6,1,1.1,1.3c0.5,0.3,1.1,0.5,1.8,0.5c0.6,0,1-0.1,1.5-0.3c0.4-0.2,0.8-0.5,1-0.8
		c0.2-0.4,0.4-0.8,0.4-1.2h-1.3c-0.1,0.3-0.2,0.5-0.3,0.7c-0.1,0.2-0.3,0.3-0.5,0.4c-0.2,0.1-0.5,0.1-0.7,0.1c-0.4,0-0.7-0.1-1-0.3
		c-0.3-0.2-0.5-0.5-0.7-0.9c-0.2-0.4-0.2-0.8-0.2-1.3c0-0.5,0.1-0.9,0.2-1.3C79.1,60.6,79.3,60.3,79.6,60.1z"/>
	<path d="M89.6,59.1c-0.3-0.2-0.6-0.3-0.9-0.4c-0.3-0.1-0.6-0.1-0.9-0.1c-0.4,0-0.8,0.1-1.2,0.2s-0.7,0.3-1,0.6
		c-0.3,0.3-0.5,0.6-0.7,1l1.3,0.3c0.1-0.2,0.3-0.5,0.6-0.7c0.3-0.2,0.6-0.3,1.1-0.3c0.4,0,0.8,0.1,1,0.3c0.2,0.2,0.3,0.5,0.3,0.9v0
		c0,0.2-0.1,0.3-0.2,0.4c-0.1,0.1-0.3,0.1-0.6,0.2c-0.3,0-0.6,0.1-1,0.1c-0.3,0-0.7,0.1-1,0.2c-0.3,0.1-0.6,0.2-0.9,0.3
		c-0.3,0.2-0.5,0.4-0.6,0.6c-0.2,0.3-0.2,0.6-0.2,1c0,0.5,0.1,0.9,0.3,1.2c0.2,0.3,0.5,0.6,0.9,0.7c0.4,0.2,0.8,0.3,1.2,0.3
		c0.4,0,0.7-0.1,1-0.2c0.3-0.1,0.5-0.3,0.7-0.4c0.2-0.2,0.3-0.3,0.4-0.5h0.1v1h1.3v-4.7c0-0.5-0.1-0.9-0.3-1.3
		C90.1,59.5,89.9,59.2,89.6,59.1z M89.2,63.2c0,0.3-0.1,0.5-0.2,0.8c-0.1,0.2-0.4,0.4-0.6,0.6s-0.6,0.2-1,0.2c-0.4,0-0.7-0.1-1-0.3
		S86,64.1,86,63.8c0-0.2,0.1-0.4,0.2-0.6c0.1-0.1,0.3-0.3,0.5-0.3c0.2-0.1,0.5-0.1,0.7-0.2c0.1,0,0.3,0,0.4-0.1c0.2,0,0.3,0,0.5-0.1
		c0.2,0,0.3-0.1,0.5-0.1c0.1,0,0.2-0.1,0.3-0.1V63.2z"/>
	<rect x="92.4" y="56.3" width="1.4" height="9.5"/>
	<path d="M42.3,71.9l-3.4,9.5h1.5l0.9-2.5h3.7l0.9,2.5h1.5l-3.4-9.5H42.3z M41.7,77.7l1.4-4h0.1l1.4,4H41.7z"/>
	<path d="M53.3,74.5c-0.4-0.2-0.8-0.3-1.3-0.3c-0.5,0-1,0.1-1.3,0.3c-0.3,0.2-0.6,0.5-0.8,0.9h-0.1v-1.2h-1.3v7.1h1.4v-4.2
		c0-0.4,0.1-0.7,0.2-1s0.3-0.5,0.6-0.6c0.2-0.1,0.5-0.2,0.9-0.2c0.5,0,0.8,0.1,1.1,0.4c0.3,0.3,0.4,0.7,0.4,1.2v4.3h1.4v-4.5
		c0-0.6-0.1-1.1-0.3-1.5C54,75,53.7,74.7,53.3,74.5z"/>
	<path d="M60.9,74.7c-0.3-0.2-0.6-0.3-0.9-0.4c-0.3-0.1-0.6-0.1-0.9-0.1c-0.4,0-0.8,0.1-1.2,0.2s-0.7,0.3-1,0.6
		c-0.3,0.3-0.5,0.6-0.7,1l1.3,0.3c0.1-0.2,0.3-0.5,0.6-0.7c0.3-0.2,0.6-0.3,1.1-0.3c0.4,0,0.8,0.1,1,0.3c0.2,0.2,0.3,0.5,0.3,0.9v0
		c0,0.2-0.1,0.3-0.2,0.4c-0.1,0.1-0.3,0.1-0.6,0.2c-0.3,0-0.6,0.1-1,0.1c-0.3,0-0.7,0.1-1,0.2c-0.3,0.1-0.6,0.2-0.9,0.3
		c-0.3,0.2-0.5,0.4-0.6,0.6c-0.2,0.3-0.2,0.6-0.2,1c0,0.5,0.1,0.9,0.3,1.2c0.2,0.3,0.5,0.6,0.9,0.7c0.4,0.2,0.8,0.3,1.2,0.3
		c0.4,0,0.7-0.1,1-0.2c0.3-0.1,0.5-0.3,0.7-0.4c0.2-0.2,0.3-0.3,0.4-0.5h0.1v1h1.3v-4.7c0-0.5-0.1-0.9-0.3-1.3
		C61.4,75.1,61.2,74.8,60.9,74.7z M60.5,78.8c0,0.3-0.1,0.5-0.2,0.8c-0.1,0.2-0.4,0.4-0.6,0.6s-0.6,0.2-1,0.2c-0.4,0-0.7-0.1-1-0.3
		s-0.4-0.4-0.4-0.8c0-0.2,0.1-0.4,0.2-0.6c0.1-0.1,0.3-0.3,0.5-0.3c0.2-0.1,0.5-0.1,0.7-0.2c0.1,0,0.3,0,0.4-0.1
		c0.2,0,0.3,0,0.5-0.1c0.2,0,0.3-0.1,0.5-0.1c0.1,0,0.2-0.1,0.3-0.1V78.8z"/>
	<rect x="63.7" y="71.9" width="1.4" height="9.5"/>
	<path d="M69.8,79.8L69.8,79.8l-1.9-5.5h-1.5l2.6,7.2L68.8,82c-0.1,0.3-0.3,0.5-0.4,0.7c-0.2,0.1-0.3,0.2-0.5,0.2
		c-0.2,0-0.4,0-0.7-0.1l-0.3,1.1c0.1,0,0.2,0.1,0.4,0.1c0.2,0,0.4,0,0.6,0c0.4,0,0.7-0.1,1-0.2c0.3-0.1,0.5-0.3,0.7-0.6
		s0.4-0.6,0.5-0.9l2.9-8h-1.5L69.8,79.8z"/>
	<path d="M77.8,77.4l-1.1-0.3c-0.4-0.1-0.7-0.2-0.8-0.4c-0.2-0.1-0.3-0.3-0.3-0.6c0-0.3,0.1-0.5,0.4-0.7c0.3-0.2,0.6-0.3,1-0.3
		c0.3,0,0.5,0,0.7,0.1s0.3,0.2,0.5,0.4c0.1,0.1,0.2,0.3,0.2,0.5l1.3-0.2c-0.1-0.6-0.4-1-0.9-1.3c-0.4-0.3-1-0.5-1.8-0.5
		c-0.5,0-1,0.1-1.4,0.3c-0.4,0.2-0.7,0.4-1,0.7s-0.4,0.7-0.4,1.1c0,0.5,0.2,0.9,0.5,1.3c0.3,0.3,0.8,0.6,1.5,0.7l1.2,0.3
		c0.3,0.1,0.6,0.2,0.8,0.3s0.2,0.3,0.2,0.6c0,0.3-0.1,0.5-0.4,0.7c-0.3,0.2-0.6,0.3-1.1,0.3c-0.4,0-0.8-0.1-1-0.3
		c-0.3-0.2-0.4-0.4-0.5-0.8L74,79.6c0.1,0.6,0.4,1.1,0.9,1.5c0.5,0.3,1.1,0.5,1.9,0.5c0.6,0,1.1-0.1,1.5-0.3c0.4-0.2,0.8-0.4,1-0.8
		c0.2-0.3,0.4-0.7,0.4-1.1c0-0.5-0.2-0.9-0.5-1.2C79,77.8,78.5,77.6,77.8,77.4z"/>
	<path d="M82,71.6c-0.2,0-0.4,0.1-0.6,0.2s-0.3,0.4-0.3,0.6c0,0.2,0.1,0.4,0.3,0.6s0.4,0.2,0.6,0.2s0.4-0.1,0.6-0.2s0.3-0.4,0.3-0.6
		c0-0.2-0.1-0.4-0.3-0.6S82.2,71.6,82,71.6z"/>
	<rect x="81.3" y="74.3" width="1.4" height="7.1"/>
	<path d="M88,77.4l-1.1-0.3c-0.4-0.1-0.7-0.2-0.8-0.4c-0.2-0.1-0.3-0.3-0.3-0.6c0-0.3,0.1-0.5,0.4-0.7c0.3-0.2,0.6-0.3,1-0.3
		c0.3,0,0.5,0,0.7,0.1s0.3,0.2,0.5,0.4c0.1,0.1,0.2,0.3,0.2,0.5l1.3-0.2c-0.1-0.6-0.4-1-0.9-1.3c-0.4-0.3-1-0.5-1.8-0.5
		c-0.5,0-1,0.1-1.4,0.3c-0.4,0.2-0.7,0.4-1,0.7s-0.4,0.7-0.4,1.1c0,0.5,0.2,0.9,0.5,1.3c0.3,0.3,0.8,0.6,1.5,0.7l1.2,0.3
		c0.3,0.1,0.6,0.2,0.8,0.3s0.2,0.3,0.2,0.6c0,0.3-0.1,0.5-0.4,0.7c-0.3,0.2-0.6,0.3-1.1,0.3c-0.4,0-0.8-0.1-1-0.3
		c-0.3-0.2-0.4-0.4-0.5-0.8l-1.3,0.2c0.1,0.6,0.4,1.1,0.9,1.5c0.5,0.3,1.1,0.5,1.9,0.5c0.6,0,1.1-0.1,1.5-0.3c0.4-0.2,0.8-0.4,1-0.8
		c0.2-0.3,0.4-0.7,0.4-1.1c0-0.5-0.2-0.9-0.5-1.2C89.2,77.8,88.7,77.6,88,77.4z"/>
</g>
<g>
	<path d="M40.9,177.5h1.6l-2.1-3.8c0.1,0,0.2-0.1,0.3-0.1c0.5-0.2,0.8-0.6,1.1-1c0.2-0.4,0.4-0.9,0.4-1.5c0-0.6-0.1-1.1-0.4-1.5
		s-0.6-0.8-1.1-1c-0.5-0.3-1.1-0.4-1.8-0.4h-3.4v9.5h1.4v-3.6h1.9c0,0,0.1,0,0.1,0L40.9,177.5z M36.9,169.2h1.8
		c0.5,0,0.9,0.1,1.1,0.2s0.5,0.3,0.6,0.6c0.1,0.3,0.2,0.6,0.2,0.9c0,0.4-0.1,0.7-0.2,0.9c-0.1,0.3-0.3,0.4-0.6,0.6
		c-0.3,0.1-0.7,0.2-1.1,0.2h-1.8V169.2z"/>
	<path d="M48.2,177.4c0.4-0.2,0.7-0.4,1-0.7c0.3-0.3,0.5-0.6,0.6-1l-1.3-0.2c-0.1,0.2-0.2,0.4-0.4,0.6c-0.2,0.2-0.3,0.3-0.6,0.3
		c-0.2,0.1-0.5,0.1-0.7,0.1c-0.4,0-0.8-0.1-1.1-0.3c-0.3-0.2-0.5-0.4-0.7-0.8c-0.2-0.3-0.2-0.7-0.2-1.1h5v-0.5
		c0-0.6-0.1-1.2-0.3-1.6c-0.2-0.5-0.4-0.8-0.7-1.1c-0.3-0.3-0.6-0.5-1-0.6s-0.8-0.2-1.2-0.2c-0.7,0-1.2,0.2-1.7,0.5
		c-0.5,0.3-0.9,0.7-1.1,1.3c-0.3,0.6-0.4,1.2-0.4,1.9c0,0.7,0.1,1.4,0.4,1.9c0.3,0.5,0.7,1,1.2,1.3c0.5,0.3,1.1,0.5,1.8,0.5
		C47.4,177.6,47.8,177.5,48.2,177.4z M45.1,172.4c0.2-0.3,0.4-0.5,0.7-0.7c0.3-0.2,0.6-0.3,1-0.3c0.4,0,0.7,0.1,0.9,0.2
		s0.5,0.4,0.6,0.7c0.1,0.3,0.2,0.6,0.2,1h-3.7C44.9,173,44.9,172.7,45.1,172.4z"/>
	<path d="M53.5,177.6c0.4,0,0.7-0.1,1-0.2c0.3-0.1,0.5-0.3,0.7-0.4c0.2-0.2,0.3-0.3,0.4-0.5h0.1v1H57v-4.7c0-0.5-0.1-0.9-0.3-1.3
		c-0.2-0.3-0.4-0.6-0.7-0.8c-0.3-0.2-0.6-0.3-0.9-0.4c-0.3-0.1-0.6-0.1-0.9-0.1c-0.4,0-0.8,0.1-1.2,0.2s-0.7,0.3-1,0.6
		c-0.3,0.3-0.5,0.6-0.7,1l1.3,0.3c0.1-0.2,0.3-0.5,0.6-0.7c0.3-0.2,0.6-0.3,1.1-0.3c0.4,0,0.8,0.1,1,0.3c0.2,0.2,0.3,0.5,0.3,0.9v0
		c0,0.2-0.1,0.3-0.2,0.4c-0.1,0.1-0.3,0.1-0.6,0.2c-0.3,0-0.6,0.1-1,0.1c-0.3,0-0.7,0.1-1,0.2c-0.3,0.1-0.6,0.2-0.9,0.3
		c-0.3,0.2-0.5,0.4-0.6,0.6c-0.2,0.3-0.2,0.6-0.2,1c0,0.5,0.1,0.9,0.3,1.2c0.2,0.3,0.5,0.6,0.9,0.7C52.6,177.5,53,177.6,53.5,177.6z
		 M52.6,174.9c0.1-0.1,0.3-0.3,0.5-0.3c0.2-0.1,0.5-0.1,0.7-0.2c0.1,0,0.3,0,0.4-0.1c0.2,0,0.3,0,0.5-0.1c0.2,0,0.3-0.1,0.5-0.1
		c0.1,0,0.2-0.1,0.3-0.1v0.9c0,0.3-0.1,0.5-0.2,0.8c-0.1,0.2-0.4,0.4-0.6,0.6s-0.6,0.2-1,0.2c-0.4,0-0.7-0.1-1-0.3s-0.4-0.4-0.4-0.8
		C52.4,175.2,52.5,175,52.6,174.9z"/>
	<rect x="58.8" y="168" width="1.4" height="9.5"/>
	<polygon points="65.1,169.2 68.1,169.2 68.1,177.5 69.5,177.5 69.5,169.2 72.5,169.2 72.5,168 65.1,168 	"/>
	<path d="M74.7,169.3c0.2,0,0.4-0.1,0.6-0.2s0.3-0.4,0.3-0.6c0-0.2-0.1-0.4-0.3-0.6s-0.4-0.2-0.6-0.2s-0.4,0.1-0.6,0.2
		s-0.3,0.4-0.3,0.6c0,0.2,0.1,0.4,0.3,0.6S74.4,169.3,74.7,169.3z"/>
	<rect x="74" y="170.4" width="1.4" height="7.1"/>
	<path d="M85.1,171.8c0.3,0.2,0.4,0.6,0.4,1v4.6h1.4v-4.8c0-0.8-0.2-1.4-0.6-1.8c-0.4-0.4-0.9-0.6-1.6-0.6c-0.5,0-1,0.1-1.3,0.3
		c-0.4,0.2-0.6,0.5-0.8,0.9h-0.1c-0.2-0.4-0.4-0.7-0.7-0.9c-0.3-0.2-0.7-0.3-1.2-0.3c-0.5,0-0.9,0.1-1.2,0.3
		c-0.3,0.2-0.6,0.5-0.7,0.9h-0.1v-1.2h-1.3v7.1h1.4v-4.4c0-0.3,0.1-0.6,0.2-0.8c0.1-0.2,0.3-0.4,0.5-0.6c0.2-0.1,0.5-0.2,0.7-0.2
		c0.4,0,0.7,0.1,0.9,0.4c0.2,0.2,0.4,0.5,0.4,0.9v4.7h1.4v-4.5c0-0.4,0.1-0.8,0.4-1.1c0.2-0.3,0.6-0.4,1-0.4
		C84.5,171.5,84.8,171.6,85.1,171.8z"/>
	<path d="M93.1,177.4c0.4-0.2,0.7-0.4,1-0.7c0.3-0.3,0.5-0.6,0.6-1l-1.3-0.2c-0.1,0.2-0.2,0.4-0.4,0.6c-0.2,0.2-0.3,0.3-0.6,0.3
		c-0.2,0.1-0.5,0.1-0.7,0.1c-0.4,0-0.8-0.1-1.1-0.3c-0.3-0.2-0.5-0.4-0.7-0.8c-0.2-0.3-0.2-0.7-0.2-1.1h5v-0.5
		c0-0.6-0.1-1.2-0.3-1.6c-0.2-0.5-0.4-0.8-0.7-1.1c-0.3-0.3-0.6-0.5-1-0.6s-0.8-0.2-1.2-0.2c-0.7,0-1.2,0.2-1.7,0.5
		c-0.5,0.3-0.9,0.7-1.1,1.3c-0.3,0.6-0.4,1.2-0.4,1.9c0,0.7,0.1,1.4,0.4,1.9c0.3,0.5,0.7,1,1.2,1.3c0.5,0.3,1.1,0.5,1.8,0.5
		C92.3,177.6,92.7,177.5,93.1,177.4z M90,172.4c0.2-0.3,0.4-0.5,0.7-0.7c0.3-0.2,0.6-0.3,1-0.3c0.4,0,0.7,0.1,0.9,0.2
		s0.5,0.4,0.6,0.7c0.1,0.3,0.2,0.6,0.2,1h-3.7C89.8,173,89.8,172.7,90,172.4z"/>
	<polygon points="32.7,191 32.6,191 29.6,183.6 27.9,183.6 27.9,193.1 29.2,193.1 29.2,186.2 29.3,186.2 32.1,193.1 33.2,193.1 
		36,186.2 36.1,186.2 36.1,193.1 37.5,193.1 37.5,183.6 35.7,183.6 	"/>
	<path d="M44,186.3c-0.3-0.2-0.6-0.3-0.9-0.4c-0.3-0.1-0.6-0.1-0.9-0.1c-0.4,0-0.8,0.1-1.2,0.2s-0.7,0.3-1,0.6
		c-0.3,0.3-0.5,0.6-0.7,1l1.3,0.3c0.1-0.2,0.3-0.5,0.6-0.7c0.3-0.2,0.6-0.3,1.1-0.3c0.4,0,0.8,0.1,1,0.3c0.2,0.2,0.3,0.5,0.3,0.9v0
		c0,0.2-0.1,0.3-0.2,0.4c-0.1,0.1-0.3,0.1-0.6,0.2c-0.3,0-0.6,0.1-1,0.1c-0.3,0-0.7,0.1-1,0.2c-0.3,0.1-0.6,0.2-0.9,0.3
		c-0.3,0.2-0.5,0.4-0.6,0.6c-0.2,0.3-0.2,0.6-0.2,1c0,0.5,0.1,0.9,0.3,1.2c0.2,0.3,0.5,0.6,0.9,0.7c0.4,0.2,0.8,0.3,1.2,0.3
		c0.4,0,0.7-0.1,1-0.2c0.3-0.1,0.5-0.3,0.7-0.4c0.2-0.2,0.3-0.3,0.4-0.5h0.1v1H45v-4.7c0-0.5-0.1-0.9-0.3-1.3
		C44.5,186.8,44.3,186.5,44,186.3z M43.6,190.5c0,0.3-0.1,0.5-0.2,0.8c-0.1,0.2-0.4,0.4-0.6,0.6s-0.6,0.2-1,0.2
		c-0.4,0-0.7-0.1-1-0.3s-0.4-0.4-0.4-0.8c0-0.2,0.1-0.4,0.2-0.6c0.1-0.1,0.3-0.3,0.5-0.3c0.2-0.1,0.5-0.1,0.7-0.2
		c0.1,0,0.3,0,0.4-0.1c0.2,0,0.3,0,0.5-0.1c0.2,0,0.3-0.1,0.5-0.1c0.1,0,0.2-0.1,0.3-0.1V190.5z"/>
	<path d="M50,185.9c-0.4,0-0.8,0.1-1.1,0.3c-0.3,0.2-0.6,0.5-0.7,0.9h-0.1V186h-1.3v7.1h1.4v-4.3c0-0.3,0.1-0.6,0.2-0.8
		c0.1-0.2,0.3-0.4,0.6-0.6c0.3-0.1,0.5-0.2,0.9-0.2c0.1,0,0.3,0,0.4,0s0.2,0,0.3,0.1v-1.3c-0.1,0-0.2,0-0.3,0
		C50.2,185.9,50.1,185.9,50,185.9z"/>
	<polygon points="57.8,186 56.1,186 53.3,189 53.2,189 53.2,183.6 51.8,183.6 51.8,193.1 53.2,193.1 53.2,190.6 53.9,189.9 
		56.3,193.1 58,193.1 54.9,189 	"/>
	<path d="M64.2,186.7c-0.3-0.3-0.6-0.5-1-0.6s-0.8-0.2-1.2-0.2c-0.7,0-1.2,0.2-1.7,0.5c-0.5,0.3-0.9,0.7-1.1,1.3
		c-0.3,0.6-0.4,1.2-0.4,1.9c0,0.7,0.1,1.4,0.4,1.9c0.3,0.5,0.7,1,1.2,1.3c0.5,0.3,1.1,0.5,1.8,0.5c0.5,0,1-0.1,1.4-0.2
		c0.4-0.2,0.7-0.4,1-0.7c0.3-0.3,0.5-0.6,0.6-1l-1.3-0.2c-0.1,0.2-0.2,0.4-0.4,0.6c-0.2,0.2-0.3,0.3-0.6,0.3
		c-0.2,0.1-0.5,0.1-0.7,0.1c-0.4,0-0.8-0.1-1.1-0.3c-0.3-0.2-0.5-0.4-0.7-0.8c-0.2-0.3-0.2-0.7-0.2-1.1h5v-0.5
		c0-0.6-0.1-1.2-0.3-1.6C64.7,187.4,64.5,187,64.2,186.7z M60.1,188.9c0-0.3,0.1-0.6,0.2-0.9c0.2-0.3,0.4-0.5,0.7-0.7
		c0.3-0.2,0.6-0.3,1-0.3c0.4,0,0.7,0.1,0.9,0.2s0.5,0.4,0.6,0.7c0.1,0.3,0.2,0.6,0.2,1H60.1z"/>
	<path d="M69.7,191.9c-0.1,0-0.2,0-0.3,0c-0.2,0-0.3,0-0.4-0.1c-0.1,0-0.2-0.1-0.3-0.3s-0.1-0.3-0.1-0.6v-3.9H70V186h-1.5v-1.7h-1.4
		v1.7h-1v1.1h1v4.2c0,0.4,0.1,0.8,0.3,1.1s0.4,0.5,0.8,0.6s0.7,0.2,1,0.2c0.2,0,0.4,0,0.6-0.1c0.1,0,0.3-0.1,0.3-0.1l-0.2-1.1
		C69.8,191.9,69.8,191.9,69.7,191.9z"/>
	<path d="M80.6,184.2c-0.7-0.4-1.5-0.6-2.4-0.6h-3.2v9.5h3.1c1,0,1.8-0.2,2.5-0.6c0.7-0.4,1.2-0.9,1.6-1.6c0.4-0.7,0.5-1.6,0.5-2.5
		c0-1-0.2-1.8-0.5-2.5S81.3,184.6,80.6,184.2z M80.9,190.2c-0.2,0.5-0.6,0.9-1.1,1.2c-0.5,0.3-1.1,0.4-1.8,0.4h-1.6v-7h1.6
		c0.7,0,1.3,0.1,1.7,0.4c0.5,0.3,0.8,0.7,1.1,1.2s0.4,1.1,0.4,1.9C81.3,189.1,81.2,189.7,80.9,190.2z"/>
	<path d="M89,186.3c-0.3-0.2-0.6-0.3-0.9-0.4c-0.3-0.1-0.6-0.1-0.9-0.1c-0.4,0-0.8,0.1-1.2,0.2s-0.7,0.3-1,0.6
		c-0.3,0.3-0.5,0.6-0.7,1l1.3,0.3c0.1-0.2,0.3-0.5,0.6-0.7c0.3-0.2,0.6-0.3,1.1-0.3c0.4,0,0.8,0.1,1,0.3c0.2,0.2,0.3,0.5,0.3,0.9v0
		c0,0.2-0.1,0.3-0.2,0.4c-0.1,0.1-0.3,0.1-0.6,0.2c-0.3,0-0.6,0.1-1,0.1c-0.3,0-0.7,0.1-1,0.2c-0.3,0.1-0.6,0.2-0.9,0.3
		c-0.3,0.2-0.5,0.4-0.6,0.6c-0.2,0.3-0.2,0.6-0.2,1c0,0.5,0.1,0.9,0.3,1.2c0.2,0.3,0.5,0.6,0.9,0.7c0.4,0.2,0.8,0.3,1.2,0.3
		c0.4,0,0.7-0.1,1-0.2c0.3-0.1,0.5-0.3,0.7-0.4c0.2-0.2,0.3-0.3,0.4-0.5h0.1v1h1.3v-4.7c0-0.5-0.1-0.9-0.3-1.3
		C89.5,186.8,89.2,186.5,89,186.3z M88.5,190.5c0,0.3-0.1,0.5-0.2,0.8c-0.1,0.2-0.4,0.4-0.6,0.6s-0.6,0.2-1,0.2
		c-0.4,0-0.7-0.1-1-0.3s-0.4-0.4-0.4-0.8c0-0.2,0.1-0.4,0.2-0.6c0.1-0.1,0.3-0.3,0.5-0.3c0.2-0.1,0.5-0.1,0.7-0.2
		c0.1,0,0.3,0,0.4-0.1c0.2,0,0.3,0,0.5-0.1c0.2,0,0.3-0.1,0.5-0.1c0.1,0,0.2-0.1,0.3-0.1V190.5z"/>
	<path d="M94.7,191.9c-0.1,0-0.2,0-0.3,0c-0.2,0-0.3,0-0.4-0.1c-0.1,0-0.2-0.1-0.3-0.3s-0.1-0.3-0.1-0.6v-3.9h1.5V186h-1.5v-1.7
		h-1.4v1.7h-1v1.1h1v4.2c0,0.4,0.1,0.8,0.3,1.1s0.4,0.5,0.8,0.6s0.7,0.2,1,0.2c0.2,0,0.4,0,0.6-0.1c0.1,0,0.3-0.1,0.3-0.1l-0.2-1.1
		C94.9,191.9,94.8,191.9,94.7,191.9z"/>
	<path d="M101.9,187.1c-0.2-0.3-0.4-0.6-0.7-0.8c-0.3-0.2-0.6-0.3-0.9-0.4c-0.3-0.1-0.6-0.1-0.9-0.1c-0.4,0-0.8,0.1-1.2,0.2
		s-0.7,0.3-1,0.6c-0.3,0.3-0.5,0.6-0.7,1l1.3,0.3c0.1-0.2,0.3-0.5,0.6-0.7c0.3-0.2,0.6-0.3,1.1-0.3c0.4,0,0.8,0.1,1,0.3
		c0.2,0.2,0.3,0.5,0.3,0.9v0c0,0.2-0.1,0.3-0.2,0.4c-0.1,0.1-0.3,0.1-0.6,0.2c-0.3,0-0.6,0.1-1,0.1c-0.3,0-0.7,0.1-1,0.2
		c-0.3,0.1-0.6,0.2-0.9,0.3c-0.3,0.2-0.5,0.4-0.6,0.6c-0.2,0.3-0.2,0.6-0.2,1c0,0.5,0.1,0.9,0.3,1.2c0.2,0.3,0.5,0.6,0.9,0.7
		c0.4,0.2,0.8,0.3,1.2,0.3c0.4,0,0.7-0.1,1-0.2c0.3-0.1,0.5-0.3,0.7-0.4c0.2-0.2,0.3-0.3,0.4-0.5h0.1v1h1.3v-4.7
		C102.1,187.8,102.1,187.4,101.9,187.1z M100.8,190.5c0,0.3-0.1,0.5-0.2,0.8c-0.1,0.2-0.4,0.4-0.6,0.6s-0.6,0.2-1,0.2
		c-0.4,0-0.7-0.1-1-0.3s-0.4-0.4-0.4-0.8c0-0.2,0.1-0.4,0.2-0.6c0.1-0.1,0.3-0.3,0.5-0.3c0.2-0.1,0.5-0.1,0.7-0.2
		c0.1,0,0.3,0,0.4-0.1c0.2,0,0.3,0,0.5-0.1c0.2,0,0.3-0.1,0.5-0.1c0.1,0,0.2-0.1,0.3-0.1V190.5z"/>
</g>
<g>
	<polygon points="39.1,283.5 43.1,283.5 43.1,282.3 39.1,282.3 39.1,279.4 43.5,279.4 43.5,278.2 37.7,278.2 37.7,287.6 39.1,287.6 
			"/>
	<path d="M45.9,279.4c0.2,0,0.4-0.1,0.6-0.2s0.3-0.4,0.3-0.6c0-0.2-0.1-0.4-0.3-0.6s-0.4-0.2-0.6-0.2s-0.4,0.1-0.6,0.2
		s-0.3,0.4-0.3,0.6c0,0.2,0.1,0.4,0.3,0.6S45.6,279.4,45.9,279.4z"/>
	<rect x="45.2" y="280.5" width="1.4" height="7.1"/>
	<path d="M49.8,283.4c0-0.4,0.1-0.7,0.2-1s0.3-0.5,0.6-0.6c0.2-0.1,0.5-0.2,0.9-0.2c0.5,0,0.8,0.1,1.1,0.4c0.3,0.3,0.4,0.7,0.4,1.2
		v4.3h1.4v-4.5c0-0.6-0.1-1.1-0.3-1.5c-0.2-0.4-0.5-0.7-0.8-0.9c-0.4-0.2-0.8-0.3-1.3-0.3c-0.5,0-1,0.1-1.3,0.3
		c-0.3,0.2-0.6,0.5-0.8,0.9h-0.1v-1.2h-1.3v7.1h1.4V283.4z"/>
	<path d="M60.2,283.2c-0.1,0.1-0.3,0.1-0.6,0.2c-0.3,0-0.6,0.1-1,0.1c-0.3,0-0.7,0.1-1,0.2c-0.3,0.1-0.6,0.2-0.9,0.3
		c-0.3,0.2-0.5,0.4-0.6,0.6c-0.2,0.3-0.2,0.6-0.2,1c0,0.5,0.1,0.9,0.3,1.2c0.2,0.3,0.5,0.6,0.9,0.7c0.4,0.2,0.8,0.3,1.2,0.3
		c0.4,0,0.7-0.1,1-0.2c0.3-0.1,0.5-0.3,0.7-0.4c0.2-0.2,0.3-0.3,0.4-0.5h0.1v1h1.3v-4.7c0-0.5-0.1-0.9-0.3-1.3
		c-0.2-0.3-0.4-0.6-0.7-0.8c-0.3-0.2-0.6-0.3-0.9-0.4c-0.3-0.1-0.6-0.1-0.9-0.1c-0.4,0-0.8,0.1-1.2,0.2s-0.7,0.3-1,0.6
		c-0.3,0.3-0.5,0.6-0.7,1l1.3,0.3c0.1-0.2,0.3-0.5,0.6-0.7c0.3-0.2,0.6-0.3,1.1-0.3c0.4,0,0.8,0.1,1,0.3c0.2,0.2,0.3,0.5,0.3,0.9v0
		C60.4,283,60.3,283.1,60.2,283.2z M60.4,284.1v0.9c0,0.3-0.1,0.5-0.2,0.8c-0.1,0.2-0.4,0.4-0.6,0.6s-0.6,0.2-1,0.2
		c-0.4,0-0.7-0.1-1-0.3s-0.4-0.4-0.4-0.8c0-0.2,0.1-0.4,0.2-0.6c0.1-0.1,0.3-0.3,0.5-0.3c0.2-0.1,0.5-0.1,0.7-0.2
		c0.1,0,0.3,0,0.4-0.1c0.2,0,0.3,0,0.5-0.1c0.2,0,0.3-0.1,0.5-0.1C60.2,284.2,60.3,284.2,60.4,284.1z"/>
	<path d="M65,283.4c0-0.4,0.1-0.7,0.2-1s0.3-0.5,0.6-0.6c0.2-0.1,0.5-0.2,0.9-0.2c0.5,0,0.8,0.1,1.1,0.4c0.3,0.3,0.4,0.7,0.4,1.2
		v4.3h1.4v-4.5c0-0.6-0.1-1.1-0.3-1.5c-0.2-0.4-0.5-0.7-0.8-0.9c-0.4-0.2-0.8-0.3-1.3-0.3c-0.5,0-1,0.1-1.3,0.3
		c-0.3,0.2-0.6,0.5-0.8,0.9h-0.1v-1.2h-1.3v7.1H65V283.4z"/>
	<path d="M72.6,287.3c0.5,0.3,1.1,0.5,1.8,0.5c0.6,0,1-0.1,1.5-0.3c0.4-0.2,0.8-0.5,1-0.8c0.2-0.4,0.4-0.8,0.4-1.2h-1.3
		c-0.1,0.3-0.2,0.5-0.3,0.7c-0.1,0.2-0.3,0.3-0.5,0.4c-0.2,0.1-0.5,0.1-0.7,0.1c-0.4,0-0.7-0.1-1-0.3c-0.3-0.2-0.5-0.5-0.7-0.9
		c-0.2-0.4-0.2-0.8-0.2-1.3c0-0.5,0.1-0.9,0.2-1.3c0.2-0.4,0.4-0.7,0.7-0.9c0.3-0.2,0.6-0.3,1-0.3c0.4,0,0.8,0.1,1.1,0.4
		c0.3,0.2,0.4,0.5,0.5,0.9h1.3c0-0.5-0.2-0.9-0.5-1.3s-0.6-0.6-1-0.8c-0.4-0.2-0.9-0.3-1.4-0.3c-0.7,0-1.2,0.2-1.7,0.5
		c-0.5,0.3-0.9,0.7-1.1,1.3c-0.3,0.6-0.4,1.2-0.4,1.9c0,0.7,0.1,1.3,0.4,1.9C71.7,286.5,72.1,287,72.6,287.3z"/>
	<rect x="78.7" y="280.5" width="1.4" height="7.1"/>
	<path d="M79.4,279.4c0.2,0,0.4-0.1,0.6-0.2s0.3-0.4,0.3-0.6c0-0.2-0.1-0.4-0.3-0.6s-0.4-0.2-0.6-0.2s-0.4,0.1-0.6,0.2
		s-0.3,0.4-0.3,0.6c0,0.2,0.1,0.4,0.3,0.6S79.2,279.4,79.4,279.4z"/>
	<path d="M85.7,287.2c0.2-0.2,0.3-0.3,0.4-0.5h0.1v1h1.3v-4.7c0-0.5-0.1-0.9-0.3-1.3c-0.2-0.3-0.4-0.6-0.7-0.8
		c-0.3-0.2-0.6-0.3-0.9-0.4c-0.3-0.1-0.6-0.1-0.9-0.1c-0.4,0-0.8,0.1-1.2,0.2s-0.7,0.3-1,0.6c-0.3,0.3-0.5,0.6-0.7,1l1.3,0.3
		c0.1-0.2,0.3-0.5,0.6-0.7c0.3-0.2,0.6-0.3,1.1-0.3c0.4,0,0.8,0.1,1,0.3c0.2,0.2,0.3,0.5,0.3,0.9v0c0,0.2-0.1,0.3-0.2,0.4
		c-0.1,0.1-0.3,0.1-0.6,0.2c-0.3,0-0.6,0.1-1,0.1c-0.3,0-0.7,0.1-1,0.2c-0.3,0.1-0.6,0.2-0.9,0.3c-0.3,0.2-0.5,0.4-0.6,0.6
		c-0.2,0.3-0.2,0.6-0.2,1c0,0.5,0.1,0.9,0.3,1.2c0.2,0.3,0.5,0.6,0.9,0.7c0.4,0.2,0.8,0.3,1.2,0.3c0.4,0,0.7-0.1,1-0.2
		C85.3,287.5,85.5,287.3,85.7,287.2z M83.4,286.4c-0.3-0.2-0.4-0.4-0.4-0.8c0-0.2,0.1-0.4,0.2-0.6c0.1-0.1,0.3-0.3,0.5-0.3
		c0.2-0.1,0.5-0.1,0.7-0.2c0.1,0,0.3,0,0.4-0.1c0.2,0,0.3,0,0.5-0.1c0.2,0,0.3-0.1,0.5-0.1c0.1,0,0.2-0.1,0.3-0.1v0.9
		c0,0.3-0.1,0.5-0.2,0.8c-0.1,0.2-0.4,0.4-0.6,0.6s-0.6,0.2-1,0.2C83.9,286.7,83.6,286.6,83.4,286.4z"/>
	<rect x="89.4" y="278.2" width="1.4" height="9.5"/>
	<path d="M31,302c0.3-0.4,0.4-0.9,0.4-1.4c0-0.4-0.1-0.8-0.3-1.1c-0.2-0.3-0.4-0.6-0.7-0.8c-0.3-0.2-0.6-0.4-0.9-0.5
		c-0.3-0.1-0.6-0.2-0.9-0.3l-0.9-0.2c-0.2,0-0.4-0.1-0.6-0.2c-0.2-0.1-0.4-0.2-0.6-0.3c-0.2-0.1-0.3-0.2-0.4-0.4
		c-0.1-0.2-0.2-0.4-0.2-0.6c0-0.3,0.1-0.5,0.2-0.7c0.2-0.2,0.4-0.4,0.7-0.5s0.6-0.2,1-0.2c0.5,0,1,0.1,1.3,0.4s0.6,0.6,0.6,1h1.4
		c0-0.5-0.2-1-0.4-1.4c-0.3-0.4-0.7-0.7-1.2-0.9s-1.1-0.3-1.7-0.3c-0.6,0-1.2,0.1-1.7,0.3c-0.5,0.2-0.9,0.5-1.2,0.9
		s-0.4,0.9-0.4,1.4c0,0.7,0.2,1.2,0.7,1.6c0.4,0.4,1,0.7,1.8,0.9l1.1,0.3c0.3,0.1,0.6,0.2,0.9,0.3c0.3,0.1,0.5,0.3,0.6,0.4
		c0.2,0.2,0.2,0.4,0.2,0.7c0,0.3-0.1,0.6-0.3,0.8c-0.2,0.2-0.4,0.4-0.7,0.5s-0.7,0.2-1.1,0.2c-0.4,0-0.7-0.1-1-0.2
		c-0.3-0.1-0.6-0.3-0.8-0.5c-0.2-0.2-0.3-0.5-0.3-0.9h-1.4c0,0.6,0.2,1.1,0.5,1.5c0.3,0.4,0.7,0.7,1.2,1s1.1,0.3,1.8,0.3
		c0.7,0,1.4-0.1,1.9-0.4C30.3,302.8,30.7,302.4,31,302z"/>
	<path d="M33.5,301.4c0,0.4,0.1,0.8,0.3,1.1s0.4,0.5,0.8,0.6s0.7,0.2,1,0.2c0.2,0,0.4,0,0.6-0.1c0.1,0,0.3-0.1,0.3-0.1l-0.2-1.1
		c0,0-0.1,0-0.2,0c-0.1,0-0.2,0-0.3,0c-0.2,0-0.3,0-0.4-0.1c-0.1,0-0.2-0.1-0.3-0.3s-0.1-0.3-0.1-0.6v-3.9h1.5v-1.1h-1.5v-1.7h-1.4
		v1.7h-1v1.1h1V301.4z"/>
	<path d="M40.9,303.2c0.3-0.1,0.5-0.3,0.7-0.4c0.2-0.2,0.3-0.3,0.4-0.5h0.1v1h1.3v-4.7c0-0.5-0.1-0.9-0.3-1.3
		c-0.2-0.3-0.4-0.6-0.7-0.8c-0.3-0.2-0.6-0.3-0.9-0.4c-0.3-0.1-0.6-0.1-0.9-0.1c-0.4,0-0.8,0.1-1.2,0.2s-0.7,0.3-1,0.6
		c-0.3,0.3-0.5,0.6-0.7,1l1.3,0.3c0.1-0.2,0.3-0.5,0.6-0.7c0.3-0.2,0.6-0.3,1.1-0.3c0.4,0,0.8,0.1,1,0.3c0.2,0.2,0.3,0.5,0.3,0.9v0
		c0,0.2-0.1,0.3-0.2,0.4c-0.1,0.1-0.3,0.1-0.6,0.2c-0.3,0-0.6,0.1-1,0.1c-0.3,0-0.7,0.1-1,0.2c-0.3,0.1-0.6,0.2-0.9,0.3
		c-0.3,0.2-0.5,0.4-0.6,0.6c-0.2,0.3-0.2,0.6-0.2,1c0,0.5,0.1,0.9,0.3,1.2c0.2,0.3,0.5,0.6,0.9,0.7c0.4,0.2,0.8,0.3,1.2,0.3
		C40.3,303.4,40.6,303.3,40.9,303.2z M38.9,301.2c0-0.2,0.1-0.4,0.2-0.6c0.1-0.1,0.3-0.3,0.5-0.3c0.2-0.1,0.5-0.1,0.7-0.2
		c0.1,0,0.3,0,0.4-0.1c0.2,0,0.3,0,0.5-0.1c0.2,0,0.3-0.1,0.5-0.1c0.1,0,0.2-0.1,0.3-0.1v0.9c0,0.3-0.1,0.5-0.2,0.8
		c-0.1,0.2-0.4,0.4-0.6,0.6s-0.6,0.2-1,0.2c-0.4,0-0.7-0.1-1-0.3S38.9,301.6,38.9,301.2z"/>
	<path d="M48.3,303.2c0.1,0,0.3-0.1,0.3-0.1l-0.2-1.1c0,0-0.1,0-0.2,0c-0.1,0-0.2,0-0.3,0c-0.2,0-0.3,0-0.4-0.1
		c-0.1,0-0.2-0.1-0.3-0.3s-0.1-0.3-0.1-0.6v-3.9h1.5v-1.1h-1.5v-1.7h-1.4v1.7h-1v1.1h1v4.2c0,0.4,0.1,0.8,0.3,1.1s0.4,0.5,0.8,0.6
		s0.7,0.2,1,0.2C48,303.3,48.2,303.3,48.3,303.2z"/>
	<path d="M53,296c-0.7,0-1.2,0.2-1.7,0.5c-0.5,0.3-0.9,0.7-1.1,1.3c-0.3,0.6-0.4,1.2-0.4,1.9c0,0.7,0.1,1.4,0.4,1.9
		c0.3,0.5,0.7,1,1.2,1.3c0.5,0.3,1.1,0.5,1.8,0.5c0.5,0,1-0.1,1.4-0.2c0.4-0.2,0.7-0.4,1-0.7c0.3-0.3,0.5-0.6,0.6-1l-1.3-0.2
		c-0.1,0.2-0.2,0.4-0.4,0.6c-0.2,0.2-0.3,0.3-0.6,0.3c-0.2,0.1-0.5,0.1-0.7,0.1c-0.4,0-0.8-0.1-1.1-0.3c-0.3-0.2-0.5-0.4-0.7-0.8
		c-0.2-0.3-0.2-0.7-0.2-1.1h5v-0.5c0-0.6-0.1-1.2-0.3-1.6c-0.2-0.5-0.4-0.8-0.7-1.1c-0.3-0.3-0.6-0.5-1-0.6S53.4,296,53,296z
		 M54.6,298.1c0.1,0.3,0.2,0.6,0.2,1h-3.7c0-0.3,0.1-0.6,0.2-0.9c0.2-0.3,0.4-0.5,0.7-0.7c0.3-0.2,0.6-0.3,1-0.3
		c0.4,0,0.7,0.1,0.9,0.2S54.5,297.8,54.6,298.1z"/>
	<path d="M67.4,303.2v-4.8c0-0.8-0.2-1.4-0.6-1.8c-0.4-0.4-0.9-0.6-1.6-0.6c-0.5,0-1,0.1-1.3,0.3c-0.4,0.2-0.6,0.5-0.8,0.9H63
		c-0.2-0.4-0.4-0.7-0.7-0.9c-0.3-0.2-0.7-0.3-1.2-0.3c-0.5,0-0.9,0.1-1.2,0.3c-0.3,0.2-0.6,0.5-0.7,0.9H59v-1.2h-1.3v7.1h1.4v-4.4
		c0-0.3,0.1-0.6,0.2-0.8c0.1-0.2,0.3-0.4,0.5-0.6c0.2-0.1,0.5-0.2,0.7-0.2c0.4,0,0.7,0.1,0.9,0.4c0.2,0.2,0.4,0.5,0.4,0.9v4.7h1.4
		v-4.5c0-0.4,0.1-0.8,0.4-1.1c0.2-0.3,0.6-0.4,1-0.4c0.4,0,0.7,0.1,0.9,0.3s0.4,0.6,0.4,1v4.6H67.4z"/>
	<path d="M75.2,301.4l-1.3-0.2c-0.1,0.2-0.2,0.4-0.4,0.6c-0.2,0.2-0.3,0.3-0.6,0.3c-0.2,0.1-0.5,0.1-0.7,0.1c-0.4,0-0.8-0.1-1.1-0.3
		c-0.3-0.2-0.5-0.4-0.7-0.8c-0.2-0.3-0.2-0.7-0.2-1.1h5v-0.5c0-0.6-0.1-1.2-0.3-1.6c-0.2-0.5-0.4-0.8-0.7-1.1
		c-0.3-0.3-0.6-0.5-1-0.6s-0.8-0.2-1.2-0.2c-0.7,0-1.2,0.2-1.7,0.5c-0.5,0.3-0.9,0.7-1.1,1.3c-0.3,0.6-0.4,1.2-0.4,1.9
		c0,0.7,0.1,1.4,0.4,1.9c0.3,0.5,0.7,1,1.2,1.3c0.5,0.3,1.1,0.5,1.8,0.5c0.5,0,1-0.1,1.4-0.2c0.4-0.2,0.7-0.4,1-0.7
		C74.9,302.2,75.1,301.8,75.2,301.4z M70.5,298.2c0.2-0.3,0.4-0.5,0.7-0.7c0.3-0.2,0.6-0.3,1-0.3c0.4,0,0.7,0.1,0.9,0.2
		s0.5,0.4,0.6,0.7c0.1,0.3,0.2,0.6,0.2,1h-3.7C70.3,298.7,70.4,298.5,70.5,298.2z"/>
	<path d="M82.8,303.2v-4.5c0-0.6-0.1-1.1-0.3-1.5c-0.2-0.4-0.5-0.7-0.8-0.9c-0.4-0.2-0.8-0.3-1.3-0.3c-0.5,0-1,0.1-1.3,0.3
		c-0.3,0.2-0.6,0.5-0.8,0.9h-0.1v-1.2h-1.3v7.1h1.4V299c0-0.4,0.1-0.7,0.2-1s0.3-0.5,0.6-0.6c0.2-0.1,0.5-0.2,0.9-0.2
		c0.5,0,0.8,0.1,1.1,0.4c0.3,0.3,0.4,0.7,0.4,1.2v4.3H82.8z"/>
	<path d="M85.4,302.5c0.2,0.3,0.4,0.5,0.8,0.6s0.7,0.2,1,0.2c0.2,0,0.4,0,0.6-0.1c0.1,0,0.3-0.1,0.3-0.1l-0.2-1.1c0,0-0.1,0-0.2,0
		c-0.1,0-0.2,0-0.3,0c-0.2,0-0.3,0-0.4-0.1c-0.1,0-0.2-0.1-0.3-0.3s-0.1-0.3-0.1-0.6v-3.9h1.5v-1.1h-1.5v-1.7h-1.4v1.7h-1v1.1h1v4.2
		C85.1,301.8,85.2,302.2,85.4,302.5z"/>
	<path d="M97.6,296.5c-0.5-0.3-1.1-0.5-1.7-0.5c-0.7,0-1.2,0.2-1.7,0.5s-0.9,0.7-1.2,1.3s-0.4,1.2-0.4,1.9c0,0.7,0.1,1.4,0.4,1.9
		s0.7,1,1.2,1.3s1.1,0.5,1.7,0.5c0.7,0,1.2-0.2,1.7-0.5s0.9-0.7,1.2-1.3s0.4-1.2,0.4-1.9c0-0.7-0.1-1.4-0.4-1.9
		S98.1,296.8,97.6,296.5z M97.6,300.9c-0.1,0.4-0.3,0.7-0.6,0.9c-0.3,0.2-0.6,0.3-1.1,0.3c-0.4,0-0.8-0.1-1.1-0.3
		c-0.3-0.2-0.5-0.5-0.6-0.9c-0.1-0.4-0.2-0.8-0.2-1.3c0-0.5,0.1-0.9,0.2-1.2c0.1-0.4,0.3-0.7,0.6-0.9c0.3-0.2,0.6-0.3,1.1-0.3
		c0.4,0,0.8,0.1,1.1,0.3c0.3,0.2,0.5,0.5,0.6,0.9c0.1,0.4,0.2,0.8,0.2,1.2C97.8,300.1,97.7,300.6,97.6,300.9z"/>
	<path d="M102.8,294.8c0.1-0.2,0.4-0.2,0.7-0.2c0.1,0,0.3,0,0.4,0c0.1,0,0.2,0,0.2,0.1l0.3-1.1c-0.1,0-0.2-0.1-0.4-0.1
		c-0.2,0-0.4-0.1-0.7-0.1c-0.4,0-0.7,0.1-1,0.2c-0.3,0.1-0.6,0.4-0.8,0.7s-0.3,0.7-0.3,1.1v0.8h-1.1v1.1h1.1v6h1.4v-6h1.5v-1.1h-1.5
		v-0.6C102.6,295.2,102.6,294.9,102.8,294.8z"/>
	<path d="M32.7,310.9c0.4-0.3,0.9-0.4,1.5-0.4c0.3,0,0.6,0,0.9,0.1s0.5,0.2,0.7,0.4c0.2,0.2,0.4,0.4,0.6,0.6s0.3,0.5,0.3,0.8h1.4
		c-0.1-0.5-0.2-1-0.5-1.4c-0.2-0.4-0.5-0.7-0.9-1s-0.7-0.5-1.2-0.6s-0.9-0.2-1.4-0.2c-0.8,0-1.5,0.2-2.2,0.6
		c-0.6,0.4-1.1,0.9-1.5,1.7c-0.4,0.7-0.6,1.6-0.6,2.6c0,1,0.2,1.9,0.6,2.6c0.4,0.7,0.9,1.3,1.5,1.7c0.6,0.4,1.4,0.6,2.2,0.6
		c0.5,0,1-0.1,1.4-0.2c0.4-0.2,0.8-0.4,1.2-0.7s0.6-0.6,0.8-1c0.2-0.4,0.4-0.8,0.4-1.3l-1.4,0c-0.1,0.3-0.2,0.6-0.3,0.8
		c-0.2,0.2-0.3,0.4-0.6,0.6c-0.2,0.2-0.5,0.3-0.7,0.4c-0.3,0.1-0.6,0.1-0.9,0.1c-0.5,0-1-0.1-1.5-0.4c-0.4-0.3-0.8-0.7-1-1.2
		c-0.2-0.5-0.4-1.2-0.4-1.9c0-0.8,0.1-1.4,0.4-1.9C32,311.6,32.3,311.2,32.7,310.9z"/>
	<path d="M44.4,312.1c-0.5-0.3-1.1-0.5-1.7-0.5c-0.7,0-1.2,0.2-1.7,0.5s-0.9,0.7-1.2,1.3s-0.4,1.2-0.4,1.9c0,0.7,0.1,1.4,0.4,1.9
		s0.7,1,1.2,1.3s1.1,0.5,1.7,0.5c0.7,0,1.2-0.2,1.7-0.5s0.9-0.7,1.2-1.3s0.4-1.2,0.4-1.9c0-0.7-0.1-1.4-0.4-1.9
		S44.9,312.4,44.4,312.1z M44.4,316.5c-0.1,0.4-0.3,0.7-0.6,0.9c-0.3,0.2-0.6,0.3-1.1,0.3c-0.4,0-0.8-0.1-1.1-0.3
		c-0.3-0.2-0.5-0.5-0.6-0.9c-0.1-0.4-0.2-0.8-0.2-1.3c0-0.5,0.1-0.9,0.2-1.2c0.1-0.4,0.3-0.7,0.6-0.9c0.3-0.2,0.6-0.3,1.1-0.3
		c0.4,0,0.8,0.1,1.1,0.3c0.3,0.2,0.5,0.5,0.6,0.9c0.1,0.4,0.2,0.8,0.2,1.2C44.6,315.7,44.5,316.2,44.4,316.5z"/>
	<path d="M55,311.6c-0.5,0-1,0.1-1.3,0.3c-0.4,0.2-0.6,0.5-0.8,0.9h-0.1c-0.2-0.4-0.4-0.7-0.7-0.9c-0.3-0.2-0.7-0.3-1.2-0.3
		c-0.5,0-0.9,0.1-1.2,0.3c-0.3,0.2-0.6,0.5-0.7,0.9h-0.1v-1.2h-1.3v7.1h1.4v-4.4c0-0.3,0.1-0.6,0.2-0.8c0.1-0.2,0.3-0.4,0.5-0.6
		c0.2-0.1,0.5-0.2,0.7-0.2c0.4,0,0.7,0.1,0.9,0.4c0.2,0.2,0.4,0.5,0.4,0.9v4.7H53v-4.5c0-0.4,0.1-0.8,0.4-1.1c0.2-0.3,0.6-0.4,1-0.4
		c0.4,0,0.7,0.1,0.9,0.3s0.4,0.6,0.4,1v4.6h1.4v-4.8c0-0.8-0.2-1.4-0.6-1.8C56.1,311.8,55.6,311.6,55,311.6z"/>
	<path d="M64,312.1c-0.4-0.3-1-0.4-1.5-0.4c-0.4,0-0.8,0.1-1.1,0.2c-0.3,0.1-0.5,0.3-0.6,0.5c-0.2,0.2-0.3,0.4-0.3,0.5h-0.1v-1.1H59
		v9.8h1.4v-3.8h0.1c0.1,0.2,0.2,0.3,0.4,0.5c0.2,0.2,0.4,0.4,0.6,0.5s0.6,0.2,1.1,0.2c0.6,0,1.1-0.1,1.5-0.4
		c0.4-0.3,0.8-0.7,1.1-1.3s0.4-1.2,0.4-2c0-0.8-0.1-1.4-0.4-2C64.8,312.8,64.5,312.4,64,312.1z M63.9,316.5
		c-0.1,0.4-0.4,0.7-0.6,0.9c-0.3,0.2-0.6,0.3-1,0.3c-0.4,0-0.7-0.1-1-0.3s-0.5-0.5-0.6-0.9s-0.2-0.8-0.2-1.3c0-0.5,0.1-0.9,0.2-1.3
		c0.1-0.4,0.4-0.7,0.6-0.9c0.3-0.2,0.6-0.3,1-0.3c0.4,0,0.8,0.1,1,0.3c0.3,0.2,0.5,0.5,0.6,0.9c0.1,0.4,0.2,0.8,0.2,1.3
		C64.1,315.7,64,316.2,63.9,316.5z"/>
	<path d="M71.6,312.1c-0.3-0.2-0.6-0.3-0.9-0.4c-0.3-0.1-0.6-0.1-0.9-0.1c-0.4,0-0.8,0.1-1.2,0.2s-0.7,0.3-1,0.6
		c-0.3,0.3-0.5,0.6-0.7,1l1.3,0.3c0.1-0.2,0.3-0.5,0.6-0.7c0.3-0.2,0.6-0.3,1.1-0.3c0.4,0,0.8,0.1,1,0.3c0.2,0.2,0.3,0.5,0.3,0.9v0
		c0,0.2-0.1,0.3-0.2,0.4c-0.1,0.1-0.3,0.1-0.6,0.2c-0.3,0-0.6,0.1-1,0.1c-0.3,0-0.7,0.1-1,0.2c-0.3,0.1-0.6,0.2-0.9,0.3
		c-0.3,0.2-0.5,0.4-0.6,0.6c-0.2,0.3-0.2,0.6-0.2,1c0,0.5,0.1,0.9,0.3,1.2c0.2,0.3,0.5,0.6,0.9,0.7c0.4,0.2,0.8,0.3,1.2,0.3
		c0.4,0,0.7-0.1,1-0.2c0.3-0.1,0.5-0.3,0.7-0.4c0.2-0.2,0.3-0.3,0.4-0.5h0.1v1h1.3v-4.7c0-0.5-0.1-0.9-0.3-1.3
		C72.1,312.5,71.9,312.3,71.6,312.1z M71.2,316.3c0,0.3-0.1,0.5-0.2,0.8c-0.1,0.2-0.4,0.4-0.6,0.6s-0.6,0.2-1,0.2
		c-0.4,0-0.7-0.1-1-0.3s-0.4-0.4-0.4-0.8c0-0.2,0.1-0.4,0.2-0.6c0.1-0.1,0.3-0.3,0.5-0.3c0.2-0.1,0.5-0.1,0.7-0.2
		c0.1,0,0.3,0,0.4-0.1c0.2,0,0.3,0,0.5-0.1c0.2,0,0.3-0.1,0.5-0.1c0.1,0,0.2-0.1,0.3-0.1V316.3z"/>
	<path d="M79.2,311.9c-0.4-0.2-0.8-0.3-1.3-0.3c-0.5,0-1,0.1-1.3,0.3c-0.3,0.2-0.6,0.5-0.8,0.9h-0.1v-1.2h-1.3v7.1h1.4v-4.2
		c0-0.4,0.1-0.7,0.2-1s0.3-0.5,0.6-0.6c0.2-0.1,0.5-0.2,0.9-0.2c0.5,0,0.8,0.1,1.1,0.4c0.3,0.3,0.4,0.7,0.4,1.2v4.3h1.4v-4.5
		c0-0.6-0.1-1.1-0.3-1.5C79.8,312.4,79.6,312.1,79.2,311.9z"/>
	<rect x="82.2" y="311.7" width="1.4" height="7.1"/>
	<path d="M82.9,309c-0.2,0-0.4,0.1-0.6,0.2s-0.3,0.4-0.3,0.6c0,0.2,0.1,0.4,0.3,0.6s0.4,0.2,0.6,0.2s0.4-0.1,0.6-0.2
		s0.3-0.4,0.3-0.6c0-0.2-0.1-0.4-0.3-0.6S83.1,309,82.9,309z"/>
	<path d="M90.6,312.4c-0.3-0.3-0.6-0.5-1-0.6s-0.8-0.2-1.2-0.2c-0.7,0-1.2,0.2-1.7,0.5c-0.5,0.3-0.9,0.7-1.1,1.3
		c-0.3,0.6-0.4,1.2-0.4,1.9c0,0.7,0.1,1.4,0.4,1.9c0.3,0.5,0.7,1,1.2,1.3c0.5,0.3,1.1,0.5,1.8,0.5c0.5,0,1-0.1,1.4-0.2
		c0.4-0.2,0.7-0.4,1-0.7c0.3-0.3,0.5-0.6,0.6-1l-1.3-0.2c-0.1,0.2-0.2,0.4-0.4,0.6c-0.2,0.2-0.3,0.3-0.6,0.3
		c-0.2,0.1-0.5,0.1-0.7,0.1c-0.4,0-0.8-0.1-1.1-0.3c-0.3-0.2-0.5-0.4-0.7-0.8c-0.2-0.3-0.2-0.7-0.2-1.1h5v-0.5
		c0-0.6-0.1-1.2-0.3-1.6C91.1,313.1,90.9,312.7,90.6,312.4z M86.5,314.6c0-0.3,0.1-0.6,0.2-0.9c0.2-0.3,0.4-0.5,0.7-0.7
		c0.3-0.2,0.6-0.3,1-0.3c0.4,0,0.7,0.1,0.9,0.2s0.5,0.4,0.6,0.7c0.1,0.3,0.2,0.6,0.2,1H86.5z"/>
	<path d="M96.6,314.8l-1.1-0.3c-0.4-0.1-0.7-0.2-0.8-0.4c-0.2-0.1-0.3-0.3-0.3-0.6c0-0.3,0.1-0.5,0.4-0.7c0.3-0.2,0.6-0.3,1-0.3
		c0.3,0,0.5,0,0.7,0.1s0.3,0.2,0.5,0.4c0.1,0.1,0.2,0.3,0.2,0.5l1.3-0.2c-0.1-0.6-0.4-1-0.9-1.3c-0.4-0.3-1-0.5-1.8-0.5
		c-0.5,0-1,0.1-1.4,0.3c-0.4,0.2-0.7,0.4-1,0.7s-0.4,0.7-0.4,1.1c0,0.5,0.2,0.9,0.5,1.3c0.3,0.3,0.8,0.6,1.5,0.7l1.2,0.3
		c0.3,0.1,0.6,0.2,0.8,0.3s0.2,0.3,0.2,0.6c0,0.3-0.1,0.5-0.4,0.7c-0.3,0.2-0.6,0.3-1.1,0.3c-0.4,0-0.8-0.1-1-0.3
		c-0.3-0.2-0.4-0.4-0.5-0.8l-1.3,0.2c0.1,0.6,0.4,1.1,0.9,1.5c0.5,0.3,1.1,0.5,1.9,0.5c0.6,0,1.1-0.1,1.5-0.3c0.4-0.2,0.8-0.4,1-0.8
		c0.2-0.3,0.4-0.7,0.4-1.1c0-0.5-0.2-0.9-0.5-1.2C97.7,315.2,97.2,315,96.6,314.8z"/>
</g>
<g>
	<path d="M38.1,414.6c0.7-0.4,1.2-0.9,1.6-1.6c0.4-0.7,0.5-1.6,0.5-2.5c0-1-0.2-1.8-0.5-2.5s-0.9-1.2-1.5-1.6
		c-0.7-0.4-1.5-0.6-2.4-0.6h-3.2v9.5h3.1C36.7,415.2,37.5,415,38.1,414.6z M34.1,413.9v-7h1.6c0.7,0,1.3,0.1,1.7,0.4
		c0.5,0.3,0.8,0.7,1.1,1.2s0.4,1.1,0.4,1.9c0,0.7-0.1,1.4-0.4,1.9s-0.6,0.9-1.1,1.2c-0.5,0.3-1.1,0.4-1.8,0.4H34.1z"/>
	<path d="M48.3,414c0.3-0.4,0.4-0.9,0.4-1.4c0-0.4-0.1-0.8-0.3-1.1c-0.2-0.3-0.4-0.6-0.7-0.8c-0.3-0.2-0.6-0.4-0.9-0.5
		c-0.3-0.1-0.6-0.2-0.9-0.3l-0.9-0.2c-0.2,0-0.4-0.1-0.6-0.2c-0.2-0.1-0.4-0.2-0.6-0.3c-0.2-0.1-0.3-0.2-0.4-0.4
		c-0.1-0.2-0.2-0.4-0.2-0.6c0-0.3,0.1-0.5,0.2-0.7c0.2-0.2,0.4-0.4,0.7-0.5s0.6-0.2,1-0.2c0.5,0,1,0.1,1.3,0.4s0.6,0.6,0.6,1h1.4
		c0-0.5-0.2-1-0.4-1.4c-0.3-0.4-0.7-0.7-1.2-0.9s-1.1-0.3-1.7-0.3c-0.6,0-1.2,0.1-1.7,0.3c-0.5,0.2-0.9,0.5-1.2,0.9
		s-0.4,0.9-0.4,1.4c0,0.7,0.2,1.2,0.7,1.6c0.4,0.4,1,0.7,1.8,0.9l1.1,0.3c0.3,0.1,0.6,0.2,0.9,0.3c0.3,0.1,0.5,0.3,0.6,0.4
		c0.2,0.2,0.2,0.4,0.2,0.7c0,0.3-0.1,0.6-0.3,0.8c-0.2,0.2-0.4,0.4-0.7,0.5s-0.7,0.2-1.1,0.2c-0.4,0-0.7-0.1-1-0.2
		c-0.3-0.1-0.6-0.3-0.8-0.5c-0.2-0.2-0.3-0.5-0.3-0.9h-1.4c0,0.6,0.2,1.1,0.5,1.5c0.3,0.4,0.7,0.7,1.2,1s1.1,0.3,1.8,0.3
		c0.7,0,1.4-0.1,1.9-0.4C47.6,414.7,48,414.4,48.3,414z"/>
	<polygon points="56.4,414 51.8,414 51.8,411.1 56,411.1 56,409.8 51.8,409.8 51.8,407 56.3,407 56.3,405.7 50.4,405.7 50.4,415.2 
		56.4,415.2 	"/>
	<path d="M67.7,413.5c0.2-0.3,0.4-0.6,0.5-1c0.1-0.4,0.2-0.9,0.2-1.5h-1.2c0,0.5-0.1,0.9-0.2,1.3c0,0.1-0.1,0.2-0.2,0.3l-1.9-2.3
		l0.6-0.5c0.4-0.3,0.7-0.6,0.9-0.9c0.2-0.3,0.3-0.7,0.3-1.2c0-0.4-0.1-0.7-0.3-1c-0.2-0.3-0.5-0.6-0.8-0.8c-0.3-0.2-0.8-0.3-1.3-0.3
		c-0.5,0-0.9,0.1-1.3,0.3c-0.4,0.2-0.6,0.5-0.8,0.8c-0.2,0.3-0.3,0.7-0.3,1.2c0,0.4,0.1,0.7,0.2,1.1c0.2,0.3,0.4,0.7,0.6,1
		c0.1,0.1,0.1,0.1,0.2,0.2c-0.3,0.2-0.6,0.5-0.9,0.7c-0.3,0.3-0.5,0.5-0.7,0.8c-0.2,0.3-0.2,0.6-0.2,1c0,0.5,0.1,1,0.4,1.4
		c0.2,0.4,0.6,0.7,1.1,0.9s1,0.3,1.6,0.3c0.4,0,0.9-0.1,1.3-0.2c0.4-0.1,0.8-0.4,1.1-0.7l0.6,0.8h1.6l-1.4-1.6
		C67.6,413.5,67.6,413.5,67.7,413.5z M63.5,407.4c0.1-0.2,0.2-0.3,0.4-0.4c0.2-0.1,0.4-0.2,0.6-0.2c0.3,0,0.6,0.1,0.8,0.3
		s0.3,0.4,0.3,0.6c0,0.3-0.1,0.5-0.2,0.7c-0.1,0.2-0.3,0.4-0.6,0.5l-0.6,0.4c0-0.1-0.1-0.1-0.1-0.2c-0.2-0.2-0.3-0.5-0.5-0.7
		c-0.1-0.2-0.2-0.4-0.2-0.7C63.3,407.7,63.4,407.5,63.5,407.4z M65.3,413.9c-0.3,0.2-0.7,0.2-1,0.2c-0.3,0-0.6-0.1-0.9-0.2
		c-0.3-0.1-0.5-0.3-0.6-0.6s-0.2-0.5-0.2-0.8c0-0.1,0.1-0.4,0.2-0.6c0.1-0.3,0.4-0.5,0.8-0.8l0.2-0.2l2.1,2.5
		C65.8,413.7,65.6,413.8,65.3,413.9z"/>
	<path d="M81,413.4c0.2-0.4,0.4-0.8,0.4-1.3l-1.4,0c-0.1,0.3-0.2,0.6-0.3,0.8c-0.2,0.2-0.3,0.4-0.6,0.6c-0.2,0.2-0.5,0.3-0.7,0.4
		c-0.3,0.1-0.6,0.1-0.9,0.1c-0.5,0-1-0.1-1.5-0.4c-0.4-0.3-0.8-0.7-1-1.2c-0.2-0.5-0.4-1.2-0.4-1.9c0-0.8,0.1-1.4,0.4-1.9
		c0.2-0.5,0.6-0.9,1-1.2s0.9-0.4,1.5-0.4c0.3,0,0.6,0,0.9,0.1s0.5,0.2,0.7,0.4c0.2,0.2,0.4,0.4,0.6,0.6s0.3,0.5,0.3,0.8h1.4
		c-0.1-0.5-0.2-1-0.5-1.4c-0.2-0.4-0.5-0.7-0.9-1s-0.7-0.5-1.2-0.6s-0.9-0.2-1.4-0.2c-0.8,0-1.5,0.2-2.2,0.6
		c-0.6,0.4-1.1,0.9-1.5,1.7c-0.4,0.7-0.6,1.6-0.6,2.6c0,1,0.2,1.9,0.6,2.6c0.4,0.7,0.9,1.3,1.5,1.7c0.6,0.4,1.4,0.6,2.2,0.6
		c0.5,0,1-0.1,1.4-0.2c0.4-0.2,0.8-0.4,1.2-0.7S80.8,413.8,81,413.4z"/>
	<path d="M89.4,414c0.3-0.4,0.4-0.9,0.4-1.4c0-0.4-0.1-0.8-0.3-1.1c-0.2-0.3-0.4-0.6-0.7-0.8c-0.3-0.2-0.6-0.4-0.9-0.5
		c-0.3-0.1-0.6-0.2-0.9-0.3l-0.9-0.2c-0.2,0-0.4-0.1-0.6-0.2c-0.2-0.1-0.4-0.2-0.6-0.3c-0.2-0.1-0.3-0.2-0.4-0.4
		c-0.1-0.2-0.2-0.4-0.2-0.6c0-0.3,0.1-0.5,0.2-0.7c0.2-0.2,0.4-0.4,0.7-0.5s0.6-0.2,1-0.2c0.5,0,1,0.1,1.3,0.4s0.6,0.6,0.6,1h1.4
		c0-0.5-0.2-1-0.4-1.4c-0.3-0.4-0.7-0.7-1.2-0.9s-1.1-0.3-1.7-0.3c-0.6,0-1.2,0.1-1.7,0.3c-0.5,0.2-0.9,0.5-1.2,0.9
		s-0.4,0.9-0.4,1.4c0,0.7,0.2,1.2,0.7,1.6c0.4,0.4,1,0.7,1.8,0.9l1.1,0.3c0.3,0.1,0.6,0.2,0.9,0.3c0.3,0.1,0.5,0.3,0.6,0.4
		c0.2,0.2,0.2,0.4,0.2,0.7c0,0.3-0.1,0.6-0.3,0.8c-0.2,0.2-0.4,0.4-0.7,0.5s-0.7,0.2-1.1,0.2c-0.4,0-0.7-0.1-1-0.2
		c-0.3-0.1-0.6-0.3-0.8-0.5c-0.2-0.2-0.3-0.5-0.3-0.9h-1.4c0,0.6,0.2,1.1,0.5,1.5c0.3,0.4,0.7,0.7,1.2,1s1.1,0.3,1.8,0.3
		c0.7,0,1.4-0.1,1.9-0.4C88.7,414.7,89.1,414.4,89.4,414z"/>
	<polygon points="97.5,414 92.9,414 92.9,411.1 97.1,411.1 97.1,409.8 92.9,409.8 92.9,407 97.4,407 97.4,405.7 91.5,405.7 
		91.5,415.2 97.5,415.2 	"/>
	<polygon points="28.4,428.7 28.3,428.7 25.3,421.3 23.5,421.3 23.5,430.8 24.9,430.8 24.9,423.9 25,423.9 27.8,430.8 28.9,430.8 
		31.7,423.9 31.8,423.9 31.8,430.8 33.1,430.8 33.1,421.3 31.4,421.3 	"/>
	<path d="M39.7,424.1c-0.3-0.2-0.6-0.3-0.9-0.4c-0.3-0.1-0.6-0.1-0.9-0.1c-0.4,0-0.8,0.1-1.2,0.2s-0.7,0.3-1,0.6
		c-0.3,0.3-0.5,0.6-0.7,1l1.3,0.3c0.1-0.2,0.3-0.5,0.6-0.7c0.3-0.2,0.6-0.3,1.1-0.3c0.4,0,0.8,0.1,1,0.3c0.2,0.2,0.3,0.5,0.3,0.9v0
		c0,0.2-0.1,0.3-0.2,0.4c-0.1,0.1-0.3,0.1-0.6,0.2c-0.3,0-0.6,0.1-1,0.1c-0.3,0-0.7,0.1-1,0.2c-0.3,0.1-0.6,0.2-0.9,0.3
		c-0.3,0.2-0.5,0.4-0.6,0.6c-0.2,0.3-0.2,0.6-0.2,1c0,0.5,0.1,0.9,0.3,1.2c0.2,0.3,0.5,0.6,0.9,0.7c0.4,0.2,0.8,0.3,1.2,0.3
		c0.4,0,0.7-0.1,1-0.2c0.3-0.1,0.5-0.3,0.7-0.4c0.2-0.2,0.3-0.3,0.4-0.5h0.1v1h1.3v-4.7c0-0.5-0.1-0.9-0.3-1.3
		C40.2,424.5,40,424.2,39.7,424.1z M39.3,428.2c0,0.3-0.1,0.5-0.2,0.8c-0.1,0.2-0.4,0.4-0.6,0.6s-0.6,0.2-1,0.2
		c-0.4,0-0.7-0.1-1-0.3s-0.4-0.4-0.4-0.8c0-0.2,0.1-0.4,0.2-0.6c0.1-0.1,0.3-0.3,0.5-0.3c0.2-0.1,0.5-0.1,0.7-0.2
		c0.1,0,0.3,0,0.4-0.1c0.2,0,0.3,0,0.5-0.1c0.2,0,0.3-0.1,0.5-0.1c0.1,0,0.2-0.1,0.3-0.1V428.2z"/>
	<path d="M45.7,423.6c-0.4,0-0.8,0.1-1.1,0.3c-0.3,0.2-0.6,0.5-0.7,0.9h-0.1v-1.1h-1.3v7.1h1.4v-4.3c0-0.3,0.1-0.6,0.2-0.8
		c0.1-0.2,0.3-0.4,0.6-0.6c0.3-0.1,0.5-0.2,0.9-0.2c0.1,0,0.3,0,0.4,0s0.2,0,0.3,0.1v-1.3c-0.1,0-0.2,0-0.3,0
		C45.9,423.6,45.8,423.6,45.7,423.6z"/>
	<polygon points="53.5,423.7 51.8,423.7 49,426.7 48.9,426.7 48.9,421.3 47.5,421.3 47.5,430.8 48.9,430.8 48.9,428.3 49.5,427.6 
		52,430.8 53.7,430.8 50.6,426.7 	"/>
	<path d="M59.8,424.4c-0.3-0.3-0.6-0.5-1-0.6s-0.8-0.2-1.2-0.2c-0.7,0-1.2,0.2-1.7,0.5c-0.5,0.3-0.9,0.7-1.1,1.3
		c-0.3,0.6-0.4,1.2-0.4,1.9c0,0.7,0.1,1.4,0.4,1.9c0.3,0.5,0.7,1,1.2,1.3c0.5,0.3,1.1,0.5,1.8,0.5c0.5,0,1-0.1,1.4-0.2
		c0.4-0.2,0.7-0.4,1-0.7c0.3-0.3,0.5-0.6,0.6-1l-1.3-0.2c-0.1,0.2-0.2,0.4-0.4,0.6c-0.2,0.2-0.3,0.3-0.6,0.3
		c-0.2,0.1-0.5,0.1-0.7,0.1c-0.4,0-0.8-0.1-1.1-0.3c-0.3-0.2-0.5-0.4-0.7-0.8c-0.2-0.3-0.2-0.7-0.2-1.1h5v-0.5
		c0-0.6-0.1-1.2-0.3-1.6C60.4,425.1,60.1,424.7,59.8,424.4z M55.8,426.6c0-0.3,0.1-0.6,0.2-0.9c0.2-0.3,0.4-0.5,0.7-0.7
		c0.3-0.2,0.6-0.3,1-0.3c0.4,0,0.7,0.1,0.9,0.2s0.5,0.4,0.6,0.7c0.1,0.3,0.2,0.6,0.2,1H55.8z"/>
	<path d="M65.3,429.6c-0.1,0-0.2,0-0.3,0c-0.2,0-0.3,0-0.4-0.1c-0.1,0-0.2-0.1-0.3-0.3s-0.1-0.3-0.1-0.6v-3.9h1.5v-1.1h-1.5V422
		h-1.4v1.7h-1v1.1h1v4.2c0,0.4,0.1,0.8,0.3,1.1s0.4,0.5,0.8,0.6c0.3,0.1,0.7,0.2,1,0.2c0.2,0,0.4,0,0.6-0.1c0.1,0,0.3-0.1,0.3-0.1
		l-0.2-1.1C65.5,429.6,65.4,429.6,65.3,429.6z"/>
	<path d="M76.3,421.9c-0.7-0.4-1.5-0.6-2.4-0.6h-3.2v9.5h3.1c1,0,1.8-0.2,2.5-0.6c0.7-0.4,1.2-0.9,1.6-1.6c0.4-0.7,0.5-1.6,0.5-2.5
		c0-1-0.2-1.8-0.5-2.5S76.9,422.3,76.3,421.9z M76.6,427.9c-0.2,0.5-0.6,0.9-1.1,1.2c-0.5,0.3-1.1,0.4-1.8,0.4h-1.6v-7h1.6
		c0.7,0,1.3,0.1,1.7,0.4c0.5,0.3,0.8,0.7,1.1,1.2s0.4,1.1,0.4,1.9C76.9,426.8,76.8,427.4,76.6,427.9z"/>
	<path d="M85.1,424.4c-0.3-0.3-0.6-0.5-1-0.6s-0.8-0.2-1.2-0.2c-0.7,0-1.2,0.2-1.7,0.5c-0.5,0.3-0.9,0.7-1.1,1.3
		c-0.3,0.6-0.4,1.2-0.4,1.9c0,0.7,0.1,1.4,0.4,1.9c0.3,0.5,0.7,1,1.2,1.3c0.5,0.3,1.1,0.5,1.8,0.5c0.5,0,1-0.1,1.4-0.2
		c0.4-0.2,0.7-0.4,1-0.7c0.3-0.3,0.5-0.6,0.6-1l-1.3-0.2c-0.1,0.2-0.2,0.4-0.4,0.6c-0.2,0.2-0.3,0.3-0.6,0.3
		c-0.2,0.1-0.5,0.1-0.7,0.1c-0.4,0-0.8-0.1-1.1-0.3c-0.3-0.2-0.5-0.4-0.7-0.8c-0.2-0.3-0.2-0.7-0.2-1.1h5v-0.5
		c0-0.6-0.1-1.2-0.3-1.6C85.7,425.1,85.4,424.7,85.1,424.4z M81.1,426.6c0-0.3,0.1-0.6,0.2-0.9c0.2-0.3,0.4-0.5,0.7-0.7
		c0.3-0.2,0.6-0.3,1-0.3c0.4,0,0.7,0.1,0.9,0.2s0.5,0.4,0.6,0.7c0.1,0.3,0.2,0.6,0.2,1H81.1z"/>
	<path d="M92.7,424c-0.4-0.3-1-0.4-1.5-0.4c-0.4,0-0.8,0.1-1.1,0.2c-0.3,0.1-0.5,0.3-0.6,0.5c-0.2,0.2-0.3,0.4-0.3,0.5H89v-1.1h-1.3
		v9.8H89v-3.8h0.1c0.1,0.2,0.2,0.3,0.4,0.5c0.2,0.2,0.4,0.4,0.6,0.5s0.6,0.2,1.1,0.2c0.6,0,1.1-0.1,1.5-0.4s0.8-0.7,1.1-1.3
		s0.4-1.2,0.4-2c0-0.8-0.1-1.4-0.4-2C93.5,424.7,93.1,424.3,92.7,424z M92.5,428.5c-0.1,0.4-0.4,0.7-0.6,0.9c-0.3,0.2-0.6,0.3-1,0.3
		c-0.4,0-0.7-0.1-1-0.3s-0.5-0.5-0.6-0.9s-0.2-0.8-0.2-1.3c0-0.5,0.1-0.9,0.2-1.3c0.1-0.4,0.4-0.7,0.6-0.9c0.3-0.2,0.6-0.3,1-0.3
		c0.4,0,0.8,0.1,1,0.3c0.3,0.2,0.5,0.5,0.6,0.9c0.1,0.4,0.2,0.8,0.2,1.3C92.7,427.7,92.7,428.1,92.5,428.5z"/>
	<path d="M98.7,429.6c-0.1,0-0.2,0-0.3,0c-0.2,0-0.3,0-0.4-0.1c-0.1,0-0.2-0.1-0.3-0.3s-0.1-0.3-0.1-0.6v-3.9H99v-1.1h-1.5V422h-1.4
		v1.7h-1v1.1h1v4.2c0,0.4,0.1,0.8,0.3,1.1s0.4,0.5,0.8,0.6s0.7,0.2,1,0.2c0.2,0,0.4,0,0.6-0.1c0.1,0,0.3-0.1,0.3-0.1l-0.2-1.1
		C98.8,429.6,98.7,429.6,98.7,429.6z"/>
	<path d="M106.2,424.8c-0.2-0.4-0.5-0.7-0.8-0.9c-0.4-0.2-0.8-0.3-1.3-0.3c-0.6,0-1,0.1-1.3,0.3s-0.6,0.5-0.8,0.9h-0.1v-3.5h-1.4
		v9.5h1.4v-4.2c0-0.4,0.1-0.7,0.2-1c0.1-0.3,0.3-0.5,0.6-0.6s0.5-0.2,0.9-0.2c0.5,0,0.8,0.1,1.1,0.4c0.3,0.3,0.4,0.7,0.4,1.2v4.3
		h1.4v-4.5C106.5,425.7,106.4,425.2,106.2,424.8z"/>
</g>
</svg>
