<?xml version="1.0" encoding="utf-8"?>
<!-- Generator: Adobe Illustrator 26.0.1, SVG Export Plug-In . SVG Version: 6.00 Build 0)  -->
<svg version="1.1" id="Layer_1" xmlns="http://www.w3.org/2000/svg" xmlns:xlink="http://www.w3.org/1999/xlink" x="0px" y="0px"
	 viewBox="0 0 235.9 491.1" style="enable-background:new 0 0 235.9 491.1;" xml:space="preserve">
<style type="text/css">
	.st0{fill:#115D33;}
	.st1{fill:#231F20;}
	.st2{fill:#FFFFFF;}
	.st3{fill:#F68832;}
	.st4{fill:#078241;}
	.st5{fill:#0E4525;}
	.st6{fill:#186A60;}
	.st7{fill:#8F9393;}
	.st8{fill:#F6852B;}
	.st9{fill:#A33123;}
	.st10{fill:#B8342A;}
	.st11{fill:none;}
	.st12{fill:#669A9D;}
	.st13{fill:#F3D1B6;}
	.st14{fill:#E1C1A9;}
	.st15{fill:#C1DAEA;}
	.st16{fill:#8CD0DE;}
	.st17{fill:#E4E4E4;}
	.st18{fill:#FED8B7;}
	.st19{fill:#8D643D;}
	.st20{fill:#F2CFB5;}
	.st21{fill:#A2C1E6;}
	.st22{fill:#16695F;}
	.st23{fill:#4A4E5A;}
	.st24{font-family:'OpenSans';}
	.st25{font-size:10.6398px;}
	.st26{fill:#F5EB10;}
	.st27{font-family:'ArialMT';}
	.st28{font-size:10.1309px;}
	.st29{fill:#4FB862;}
	.st30{fill:#FBED1D;}
	.st31{font-size:14.0629px;}
	.st32{fill:#FFFCFD;}
	.st33{font-family:'Arial-BoldMT';}
	.st34{fill:none;stroke:#FFFCFD;stroke-width:0.2565;stroke-linecap:round;stroke-miterlimit:10;}
	.st35{font-size:7.9549px;}
	.st36{fill:#52A8DC;stroke:#FFFFFF;stroke-width:0.1539;stroke-miterlimit:10;}
	.st37{fill:#58B968;stroke:#FFFFFF;stroke-width:0.1539;stroke-miterlimit:10;}
	.st38{fill:#5859A6;}
	.st39{fill:#F16A39;}
	.st40{fill:#221F1F;}
	.st41{font-size:7.0932px;}
	.st42{font-size:6.6203px;}
	.st43{fill:#676868;}
	.st44{font-family:'Arial-Mdm';}
	.st45{fill:#424345;}
	.st46{font-size:4.7288px;}
	.st47{fill:#5CB948;}
	.st48{fill:#1B9282;}
	.st49{font-family:'OpenSans-Semibold';}
	.st50{font-size:7.373px;}
	.st51{opacity:0.9;fill:#15534A;}
	.st52{fill:#3292D0;}
	.st53{font-size:7.7552px;}
	.st54{fill:#21A64A;}
	.st55{opacity:0.9;fill:#104139;}
	.st56{fill:#4CB756;}
	.st57{fill:#7A6CAF;}
	.st58{fill:#E9262A;}
	.st59{fill:#F59526;}
	.st60{fill:#105049;}
	.st61{font-size:9.854px;}
	.st62{fill:#F7F8F9;}
	.st63{fill:#BEBDBF;}
	.st64{fill:#EDECED;}
	.st65{fill:none;stroke:#CFD1D2;stroke-width:0.1874;stroke-miterlimit:10;}
	.st66{fill:#FFFFFF;stroke:#BCBDBF;stroke-width:0.15;stroke-miterlimit:10;}
	.st67{fill:#328BCB;}
</style>
<path class="st0" d="M203.6,484.3H32.3c-14.1,0-25.6-11.4-25.6-25.6V32.4c0-14.1,11.4-25.6,25.6-25.6h171.3
	c14.1,0,25.6,11.4,25.6,25.6v426.3C229.2,472.8,217.7,484.3,203.6,484.3z"/>
<g>
	<path class="st0" d="M203.4,1.6c17,0,30.9,13.9,30.9,31.1v425.7c0,17.1-13.9,31.1-30.9,31.1H32.5c-17,0-30.9-13.9-30.9-31.1V32.7
		c0-17.1,13.9-31.1,30.9-31.1H203.4 M203.4,0H32.5C14.6,0,0,14.7,0,32.7v425.7c0,18,14.6,32.7,32.5,32.7h170.9
		c17.9,0,32.5-14.7,32.5-32.7V32.7C235.9,14.7,221.3,0,203.4,0L203.4,0z"/>
</g>
<g>
	<rect x="6.7" y="32.5" class="st5" width="222.4" height="24.5"/>
</g>
<g>
	<rect x="6.7" y="57" class="st6" width="222.4" height="37.9"/>
</g>
<g>
	<g>
		<g id="XMLID_00000151504254733291610880000002823311317241441458_">
			<g id="XMLID_00000173868961388025140010000017036191675428848556_">
				<path class="st7" d="M27.8,83.3h4.3c1.6,0,2.7-0.4,3.1-1.1c0.1-0.1,0.1-0.2,0.2-0.3l-3.9-1.3L27.8,83.3z"/>
			</g>
			<g id="XMLID_00000138555234906914349490000005478220919834174082_">
				<path class="st7" d="M30.4,80.6H30v-2.2h1.5c0.5,0,0.8,0.1,1,0.4c0.2,0.2,0.3,0.5,0.3,0.8s-0.1,0.5-0.3,0.8l0,0l3.2,1
					c0.2-0.5,0.3-1,0.3-1.5c0-1.5-0.7-2.5-2.1-2.9c0.6-0.2,1-0.5,1.4-1c0.3-0.5,0.5-1,0.5-1.7c0-0.8-0.3-1.6-0.8-2.2
					c-0.5-0.7-1.3-1-2.5-1H27v12.3l0.4-0.6L30.4,80.6z M30.1,73.6h1.5c0.7,0,1.1,0.3,1.1,1c0,0.3-0.1,0.5-0.2,0.7
					c-0.2,0.2-0.4,0.3-0.8,0.3h-1.5v-2H30.1z"/>
			</g>
			<g id="XMLID_00000040556770497578666160000015913144066737020081_">
				<path class="st7" d="M41.8,77.1c0.2,0,0.4,0,0.6,0.1V74c-0.2,0-0.3,0-0.5,0c-1.1,0-1.8,0.7-2.1,2.1v-1.9h-2.6v6.5l3-2
					C40.4,77.6,40.9,77.1,41.8,77.1z"/>
			</g>
			<g id="XMLID_00000106107114002692798220000013343107825883883935_">
				<polygon class="st7" points="37.3,83.3 40.3,83.3 40.3,79.6 37.3,81.5 				"/>
			</g>
			<g id="XMLID_00000176016395445293749460000004586351012372759210_">
				<path class="st8" d="M48.4,78.3c0,0.1,0,0.2,0,0.4c0,0.6-0.1,1.2-0.2,1.8c-0.1,0.6-0.4,0.9-0.9,0.9c-0.3,0-0.6-0.2-0.8-0.5
					c-0.1-0.3-0.2-0.8-0.3-1.6l-0.5,0.2l-2.8-1.6c0,0.3-0.1,0.6-0.1,0.9c0,1.3,0.4,2.4,1.2,3.3c0.8,0.9,1.8,1.4,3.2,1.4
					c1.3,0,2.4-0.5,3.2-1.4c0.8-0.9,1.2-2.1,1.2-3.4c0-0.5-0.1-1.1-0.2-1.5L51.2,77L48.4,78.3z"/>
			</g>
			<g id="XMLID_00000019657517067380590240000005916062540126778796_">
				<path class="st8" d="M46.3,78.4c0-0.7,0.1-1.3,0.2-1.6c0.2-0.4,0.4-0.6,0.8-0.6s0.7,0.2,0.8,0.6c0.1,0.2,0.1,0.4,0.2,0.7
					l2.8-1.2c-0.2-0.3-0.4-0.7-0.6-0.9c-0.8-0.9-1.9-1.3-3.2-1.3c-1.3,0-2.4,0.5-3.2,1.4c-0.5,0.5-0.8,1.1-1,1.8l2.6,1.5L46.3,78.4z
					"/>
			</g>
			<g id="XMLID_00000003062794719769837340000002947532793429580689_">
				<polygon class="st4" points="53,78.4 53,83.3 55.9,83.3 55.9,80.8 56.8,79.6 58.3,83.3 61.5,83.3 58.8,77.3 59,77.1 54.3,79.7 
									"/>
			</g>
			<g id="XMLID_00000152225936452328052700000008926642580165360305_">
				<path class="st4" d="M59.6,76l0.2,0.1l1.5-1.9h-2.8l-2,2.6c-0.2,0.3-0.4,0.5-0.6,0.8c0-1,0-1.5,0-1.7v-5H53v6.5l1.4,1.3L59.6,76
					z"/>
			</g>
			<g id="XMLID_00000018230253328017336370000013457819953451800739_">
				<path class="st7" d="M76.2,74c-1.1,0-1.8,0.7-2.1,2.1v-1.9h-2.6v9.1h3v-4.2c0-1.3,0.5-2,1.6-2c0.2,0,0.4,0,0.6,0.1V74
					C76.4,74,76.3,74,76.2,74z"/>
			</g>
			<g>
				<g>
					<path class="st7" d="M67.1,77.6h-1.9l-1.5,1l-2-0.9c-0.1,0.4-0.1,0.7-0.1,1.1c0,1.3,0.4,2.4,1.2,3.3c0.8,0.9,1.9,1.3,3.2,1.3
						c1.2,0,2.2-0.3,2.9-0.9c0.7-0.6,1.2-1.4,1.3-2.3L67.3,80c-0.1,0.7-0.5,1.1-1.2,1.1c-0.5,0-0.8-0.1-1-0.4s-0.3-0.7-0.3-1.3h5.4
						c0-0.2,0-0.4,0-0.5c0-1.5-0.4-2.7-1.2-3.6l-0.1-0.1l-2.1,1.4C67,76.8,67.1,77.1,67.1,77.6z"/>
				</g>
				<g>
					<path class="st7" d="M62.8,75.4c-0.4,0.5-0.7,1-0.9,1.6l1.8,0.8l1.3-0.9c0.1-0.6,0.5-0.9,1-0.9c0.1,0,0.2,0,0.3,0l2.2-1.4
						c-0.7-0.5-1.5-0.7-2.4-0.7C64.6,73.9,63.6,74.4,62.8,75.4z"/>
				</g>
				<g>
					<path class="st7" d="M76,71.5l2.3-3l-3.6,0.8l0.5,0.8l-6.8,4.5c0.2,0.1,0.4,0.3,0.6,0.5l6.6-4.4L76,71.5z"/>
				</g>
			</g>
			<g id="XMLID_00000035499608246903996380000005533865045078424231_">
				<g id="XMLID_00000138571161899901299330000002377327729081987511_">
					<path class="st2" d="M23.6,83.3c-0.4,0.1-0.8,0.1-1.1,0.1c-0.4,0-0.7,0-1-0.2c-0.3-0.1-0.5-0.4-0.7-0.7
						c-0.2-0.4-0.3-0.9-0.3-1.5l0.1-3.5c0-0.5-0.1-0.9-0.2-1.1c-0.2-0.2-0.5-0.2-0.9-0.1l1.5-3.1c0.4-0.1,0.8-0.1,1.1-0.1
						c0.4,0,0.7,0,1,0.2c0.3,0.1,0.5,0.4,0.7,0.8s0.3,0.9,0.2,1.6l-0.1,3.5c0,0.5,0.1,0.9,0.2,1.1c0.2,0.2,0.5,0.2,0.9,0.1
						L23.6,83.3z M24.4,70c0.1,0.3,0,0.5,0,0.8c-0.1,0.2-0.2,0.5-0.3,0.6c-0.2,0.2-0.4,0.4-0.6,0.5s-0.5,0.2-0.7,0.3
						c-0.2,0.1-0.5,0.1-0.8,0c-0.3,0-0.5-0.1-0.7-0.2s-0.4-0.3-0.6-0.5s-0.3-0.4-0.3-0.7c-0.1-0.3,0-0.5,0-0.8
						c0.1-0.2,0.2-0.4,0.4-0.6c0.2-0.2,0.4-0.3,0.6-0.5c0.2-0.1,0.5-0.2,0.7-0.3c0.2-0.1,0.5-0.1,0.8,0c0.3,0,0.5,0.1,0.7,0.2
						s0.4,0.3,0.6,0.4C24.3,69.5,24.4,69.7,24.4,70z"/>
				</g>
			</g>
		</g>
	</g>
</g>
<g>
	<g>
		<g>
			<rect x="208.3" y="72.5" class="st2" width="6.2" height="1.2"/>
		</g>
		<g>
			<rect x="208.3" y="75.4" class="st2" width="6.2" height="1.2"/>
		</g>
		<g>
			<rect x="208.3" y="78.3" class="st2" width="6.2" height="1.2"/>
		</g>
	</g>
	<g>
		<polygon class="st2" points="206.3,73.6 207.6,73.6 205.9,71.9 204.2,73.6 205.5,73.6 205.5,78.5 204.2,78.5 205.9,80.2 
			207.6,78.5 206.3,78.5 		"/>
	</g>
</g>
<g>
	<g>
		<g>
			<ellipse class="st9" cx="178.8" cy="76" rx="9.1" ry="9.1"/>
		</g>
		<g>
			<path class="st10" d="M178.8,85.1c-5,0-9.1-4.1-9.1-9.1s4.1-9.1,9.1-9.1V85.1z"/>
		</g>
	</g>
	<g>
		<g>
			<g>
				<path class="st13" d="M177.3,78.4l-0.5,1.3l3.8,0.3l-0.5-1.4C178.8,79.4,177.8,78.8,177.3,78.4z"/>
			</g>
			<g>
				<path class="st14" d="M180.2,78.6l-0.4-1h-2.2l-0.3,0.8C177.8,78.8,178.8,79.4,180.2,78.6z"/>
			</g>
		</g>
		<g>
			<g>
				<path class="st15" d="M172.4,82.4L172.4,82.4c1.4,1.6,3.4,2.5,5.6,2.7c-0.4-1.4-1.2-4.6-1.5-5.6
					C175.2,80.6,172.9,81.5,172.4,82.4z"/>
			</g>
			<g>
				<path class="st15" d="M185.1,82.4c-0.5-0.8-2.7-1.7-4.1-2.9c-0.3,1-1.1,4.2-1.5,5.6C181.7,84.9,183.7,83.9,185.1,82.4
					L185.1,82.4z"/>
			</g>
		</g>
		<g>
			<g>
				<path class="st17" d="M180.4,78.8l-1.6,1l0,0V85l0,0h0.5c0.1,0,0.1,0,0.2,0c0.4-1.4,1.2-4.6,1.5-5.6
					C180.8,79.2,180.5,79,180.4,78.8z"/>
			</g>
			<g>
				<path class="st17" d="M178.8,85.1v-5.2l0,0l-1.6-1c-0.2,0.2-0.4,0.5-0.6,0.7c0.3,1,1.1,4.2,1.5,5.6c0.1,0,0.1,0,0.2,0
					L178.8,85.1L178.8,85.1z"/>
			</g>
		</g>
		<g>
			<g>
				<path class="st18" d="M178.8,70.8c-1.9,0-3.4,0.6-3.4,2.8c0,2.2,1.5,5.1,3.4,5.1l0,0V70.8L178.8,70.8z"/>
			</g>
			<g>
				<path class="st18" d="M182.2,73.5c0-2.2-1.5-2.8-3.4-2.8v7.9C180.7,78.6,182.2,75.7,182.2,73.5z"/>
			</g>
			<g>
				<path class="st19" d="M175.4,74.7h0.6c0,0,0.1-2.2,0.6-2.5s1.4,0.2,2.2,0v-2.5c0,0-2.1-0.1-2.9,0.8
					C175.4,71.1,175,72,175.4,74.7z"/>
			</g>
			<g>
				<path class="st19" d="M182.2,74.7h-0.6c0,0-0.1-2.2-0.6-2.5s-1.4,0.2-2.2,0v-2.5c0,0,2.1-0.1,2.9,0.8
					C182.2,71.1,182.6,72,182.2,74.7z"/>
			</g>
			<g>
				<ellipse transform="matrix(0.982 -0.189 0.189 0.982 -10.9527 34.5546)" class="st18" cx="175.7" cy="74.7" rx="0.5" ry="0.9"/>
			</g>
			<g>
				<path class="st20" d="M181.4,74.7c-0.1,0.5,0,0.9,0.3,1c0.3,0,0.5-0.3,0.6-0.8s0-0.9-0.3-1C181.8,73.8,181.5,74.2,181.4,74.7z"
					/>
			</g>
		</g>
		<g>
			<polygon class="st21" points="178.8,79.8 178.1,80 178.5,80.8 178.8,80.8 			"/>
		</g>
		<g>
			<polygon class="st2" points="178.8,79.8 177.7,80.8 176.7,79.3 177.2,78.8 			"/>
		</g>
		<g>
			<g>
				<path class="st2" d="M175.3,80.3l0.9,2.6l0.7-0.3l-0.4,1l0.7,1.4c0.3,0,0.6,0.1,0.8,0.1l-1.4-5.7L175.3,80.3z"/>
			</g>
			<g>
				<path class="st2" d="M180.7,82.5l0.7,0.3l0.9-2.6l-1.4-1l-1.4,5.7c0.3,0,0.6-0.1,0.8-0.1l0.7-1.4L180.7,82.5z"/>
			</g>
		</g>
		<g>
			<polygon class="st21" points="178.8,79.8 179.4,80 179.1,80.8 178.8,80.8 			"/>
		</g>
		<g>
			<polygon class="st2" points="178.8,79.8 179.9,80.8 180.8,79.3 180.4,78.8 			"/>
		</g>
		<g>
			<g>
				<path class="st21" d="M178.8,80.8v4.3c0.2,0,0.4,0,0.7,0l-0.4-4.2h-0.3V80.8z"/>
			</g>
			<g>
				<path class="st21" d="M178.8,80.8h-0.3l-0.4,4.2c0.2,0,0.4,0,0.7,0l0,0l0,0V80.8L178.8,80.8z"/>
			</g>
		</g>
	</g>
</g>
<g>
	<g>
		<polyline class="st2" points="125.8,71.2 123.6,71.2 121.9,80.4 121.1,80.4 122.8,71.2 120.5,71.2 120.7,70.4 126,70.4 
			125.8,71.2 		"/>
	</g>
	<g>
		<path class="st2" d="M127.5,73.7c-0.2,0-0.3,0-0.4,0c-0.4,0-0.8,0.2-1.1,0.5c-0.4,0.4-0.6,0.9-0.7,1.6l-0.8,4.7h-0.7l1.4-7.5h0.7
			l-0.2,1.2l0,0c0.5-0.9,1.1-1.4,1.8-1.4c0,0,0.1,0,0.2,0c0.1,0,0.1,0,0.1,0L127.5,73.7"/>
	</g>
	<g>
		<path class="st2" d="M131.1,80.5c-0.1,0-0.1,0-0.2,0c-0.1,0-0.2,0-0.3,0c-0.4,0-0.6-0.2-0.6-0.6c0-0.1,0-0.2,0-0.3v-0.2l0,0
			c-0.2,0.4-0.5,0.7-0.9,0.9c-0.4,0.2-0.7,0.3-1,0.3c-0.9,0-1.4-0.5-1.4-1.5c0-0.2,0-0.4,0.1-0.7c0.1-0.7,0.4-1.2,0.7-1.5
			s0.7-0.5,1.3-0.6c0.3-0.1,0.8-0.2,1.4-0.4c0.3-0.1,0.4-0.4,0.5-0.9c0-0.2,0-0.4,0-0.5c0-0.6-0.3-0.9-0.9-0.9
			c-0.8,0-1.4,0.6-1.6,1.7h-0.7c0.3-1.6,1.1-2.4,2.4-2.4c1.1,0,1.6,0.5,1.6,1.4c0,0.2,0,0.4-0.1,0.7l-0.8,4.6
			c-0.1,0.3,0,0.5,0.2,0.5c0,0,0.1,0,0.2,0L131.1,80.5 M130.2,78.1l0.3-1.8c-0.2,0.2-0.4,0.3-0.8,0.4c-0.3,0.1-0.6,0.2-0.9,0.3
			c-0.4,0.1-0.6,0.3-0.8,0.5s-0.4,0.6-0.4,1c0,0.2,0,0.3,0,0.5c0,0.7,0.3,1,0.8,1c0.4,0,0.8-0.2,1.1-0.5
			C129.8,79.2,130.1,78.7,130.2,78.1z"/>
	</g>
	<g>
		<path class="st2" d="M135.4,80.4h-0.7l0.2-1.2l0,0c-0.4,0.9-1,1.4-1.8,1.4c-1,0-1.5-0.7-1.5-2.2c0-0.5,0.1-1.1,0.2-1.7
			c0.5-2.6,1.4-3.9,2.7-3.9c0.3,0,0.6,0.1,0.9,0.3c0.2,0.2,0.4,0.5,0.4,1l0,0l0.7-3.7h0.7L135.4,80.4 M135.4,76.7
			c0.1-0.6,0.2-1.1,0.2-1.5c0-1.1-0.3-1.7-1-1.7c-0.9,0-1.6,1.1-2,3.2c-0.1,0.7-0.2,1.2-0.2,1.7c0,1,0.3,1.5,1,1.5
			C134.3,79.9,135,78.8,135.4,76.7z"/>
	</g>
	<g>
		<path class="st2" d="M140.8,76.8h-3.5c-0.1,0.7-0.2,1.3-0.2,1.7c0,1,0.3,1.5,1,1.5c0.4,0,0.7-0.2,1-0.5s0.5-0.8,0.6-1.4h0.7
			c-0.1,0.7-0.4,1.4-0.9,1.8c-0.5,0.5-1,0.8-1.7,0.8c-1.1,0-1.6-0.7-1.6-2.1c0-0.5,0.1-1.1,0.2-1.8c0.5-2.6,1.4-3.8,2.9-3.8
			c1.1,0,1.6,0.6,1.6,1.9C141.1,75.3,141,75.9,140.8,76.8 M140.2,76.1c0.1-0.5,0.1-0.9,0.1-1.3c0-0.9-0.3-1.3-1-1.3
			c-0.9,0-1.6,0.9-1.9,2.6C137.4,76.1,140.2,76.1,140.2,76.1z"/>
	</g>
	<g>
		<path class="st2" d="M152,75.9c-0.1,0.7-0.4,1.3-0.7,1.7c-0.4,0.4-0.7,0.6-1.2,0.6c-0.3,0-0.5-0.1-0.7-0.2
			c-0.1-0.1-0.2-0.2-0.2-0.4l-0.4,2.1h-0.9L149,74h0.9l-0.1,0.6c0.1-0.2,0.3-0.3,0.4-0.4c0.2-0.2,0.5-0.3,0.8-0.3
			c0.4,0,0.7,0.2,1,0.5C152.1,74.7,152.2,75.2,152,75.9 M150.5,74.7c-0.3,0-0.6,0.2-0.8,0.6c-0.1,0.2-0.2,0.4-0.2,0.7
			c-0.1,0.5,0,0.8,0.1,1c0.1,0.1,0.3,0.2,0.4,0.2c0.3,0,0.5-0.1,0.7-0.3c0.2-0.2,0.3-0.5,0.4-0.9c0.1-0.3,0-0.6,0-0.8
			C150.9,74.8,150.8,74.7,150.5,74.7z"/>
	</g>
	<g>
		<path class="st2" d="M154.7,73.8l-0.2,1.1c-0.1,0-0.1,0-0.2,0h-0.1c-0.4,0-0.7,0.1-0.8,0.4c-0.1,0.2-0.2,0.4-0.2,0.7l-0.4,2h-0.9
			l0.8-4.1h0.9l-0.1,0.7c0.2-0.3,0.4-0.5,0.5-0.6c0.2-0.2,0.4-0.3,0.7-0.3V73.8C154.6,73.8,154.7,73.8,154.7,73.8"/>
	</g>
	<g>
		<path class="st2" d="M157.7,74.5c0.1,0.2,0.1,0.5,0.1,0.9c0,0.2,0,0.5-0.1,0.8h-2.5c-0.1,0.4,0,0.7,0.2,0.9
			c0.1,0.1,0.3,0.2,0.4,0.2c0.2,0,0.4-0.1,0.5-0.2s0.2-0.2,0.2-0.3h0.9c-0.1,0.2-0.2,0.5-0.5,0.7c-0.4,0.4-0.8,0.6-1.4,0.6
			c-0.5,0-0.8-0.2-1.1-0.5s-0.4-0.9-0.2-1.6c0.1-0.7,0.4-1.3,0.8-1.6c0.4-0.4,0.8-0.6,1.3-0.6c0.3,0,0.5,0.1,0.8,0.2
			S157.6,74.3,157.7,74.5 M155.4,75.5h1.4c0-0.3,0-0.5-0.1-0.6s-0.3-0.2-0.5-0.2s-0.4,0.1-0.5,0.2C155.6,75,155.5,75.2,155.4,75.5z"
			/>
	</g>
	<g>
		<path class="st2" d="M158.6,76.7c0,0.2,0,0.3,0.1,0.4s0.3,0.2,0.6,0.2c0.2,0,0.3,0,0.5-0.1c0.1-0.1,0.2-0.2,0.2-0.3
			c0-0.1,0-0.2-0.1-0.3c-0.1-0.1-0.4-0.2-0.9-0.3c-0.4-0.1-0.6-0.3-0.8-0.4c-0.1-0.2-0.2-0.4-0.1-0.7c0.1-0.4,0.3-0.7,0.6-1
			s0.7-0.4,1.2-0.4c0.4,0,0.8,0.1,1,0.3c0.2,0.2,0.3,0.6,0.3,1.1h-1c0-0.1,0-0.2,0-0.3c-0.1-0.1-0.2-0.2-0.5-0.2
			c-0.2,0-0.4,0-0.5,0.1S159,75,159,75.1c0,0.1,0,0.2,0.1,0.3c0.1,0.1,0.4,0.2,0.9,0.3c0.4,0.1,0.6,0.3,0.7,0.5
			c0.1,0.2,0.2,0.5,0.1,0.8c-0.1,0.4-0.3,0.7-0.6,1s-0.7,0.4-1.3,0.4s-0.9-0.1-1.2-0.4c-0.2-0.3-0.3-0.6-0.2-1h1.1"/>
	</g>
	<g>
		<path class="st2" d="M162,76.7c0,0.2,0,0.3,0.1,0.4s0.3,0.2,0.6,0.2c0.2,0,0.3,0,0.5-0.1c0.1-0.1,0.2-0.2,0.2-0.3
			c0-0.1,0-0.2-0.1-0.3c-0.1-0.1-0.4-0.2-0.9-0.3c-0.4-0.1-0.6-0.3-0.8-0.4c-0.1-0.2-0.2-0.4-0.1-0.7c0.1-0.4,0.3-0.7,0.6-1
			s0.7-0.4,1.2-0.4c0.4,0,0.8,0.1,1,0.3c0.2,0.2,0.3,0.6,0.3,1.1h-0.9c0-0.1,0-0.2,0-0.3c-0.1-0.1-0.2-0.2-0.5-0.2
			c-0.2,0-0.4,0-0.5,0.1s-0.2,0.2-0.2,0.3c0,0.1,0,0.2,0.1,0.3c0.1,0.1,0.4,0.2,0.9,0.3c0.4,0.1,0.6,0.3,0.7,0.5
			c0.1,0.2,0.2,0.5,0.1,0.8c-0.1,0.4-0.3,0.7-0.6,1s-0.7,0.4-1.3,0.4s-0.9-0.1-1.2-0.4c-0.2-0.3-0.3-0.6-0.2-1h1"/>
	</g>
	<g>
		<g>
			<polyline class="st2" points="144.1,76.1 139.4,68.7 138.5,68.7 143.8,76.2 140.8,80.9 140.9,80.9 144.1,76.1 			"/>
		</g>
		<g>
			<polyline class="st3" points="145.9,74.7 141.9,80.9 142,80.9 146.2,74.6 142.4,68.6 139.3,68.6 139.4,68.7 141.7,68.7 
				145.9,74.7 			"/>
		</g>
		<g>
			<polyline class="st3" points="140.9,80.9 141.9,80.9 145.9,74.7 141.7,68.7 139.4,68.7 144.1,76.1 140.9,80.9 			"/>
		</g>
		<g>
			<polyline class="st2" points="149.2,79.6 149.1,80.1 147.4,80.1 147.9,77.6 146.7,75.9 151.1,69 150,69 144.6,77.4 148.7,83.4 
				151.7,83.4 149.2,79.6 			"/>
		</g>
		<g>
			<polyline class="st4" points="149.1,80.1 147.4,80.1 147.9,77.3 147,75.8 151.8,68.8 150.7,68.8 144.9,77.3 148.7,83.4 
				151.8,83.4 149.3,79.4 149.1,80.1 			"/>
		</g>
	</g>
</g>
<g>
	<path class="st2" d="M32.1,484.1c-13.9,0-25.3-11.3-25.3-25.3V95H229v363.8c0,13.9-11.3,25.3-25.3,25.3H32.1z"/>
	<path class="st0" d="M228.8,95.2v363.7c0,13.9-11.3,25.1-25.1,25.1H32.1c-13.9,0-25.1-11.3-25.1-25.1V95.2H228.8 M229.1,94.9H6.7
		v363.9c0,14,11.4,25.4,25.4,25.4h171.6c14,0,25.4-11.4,25.4-25.4V94.9L229.1,94.9z"/>
</g>
<g>
	<g>
		<g>
			<path class="st22" d="M221.4,148H22.8c-1.6,0-2.9-1.3-2.9-2.9v-41c0-1.6,1.3-2.9,2.9-2.9h198.5c1.6,0,2.9,1.3,2.9,2.9v41
				C224.3,146.7,223,148,221.4,148z"/>
		</g>
		<path class="st2" d="M150.6,140.4H29.8c-1.4,0-2.6-1.2-2.6-2.6v-16.3c0-1.4,1.2-2.6,2.6-2.6h120.9c1.4,0,2.6,1.2,2.6,2.6v16.3
			C153.2,139.2,152,140.4,150.6,140.4z"/>
		<text transform="matrix(1 0 0 1 34.4881 132.7284)" class="st23 st24 st25">E*****</text>
		<text transform="matrix(1 0 0 1 27.1541 116.7392)" class="st26 st27 st28">Select Inves tor:</text>
	</g>
	<g>
		<g>
			<g>
				<path class="st22" d="M116,199.1H21.9c-1.1,0-1.9-0.9-1.9-1.9v-38.9c0-1.1,0.9-1.9,1.9-1.9H116c1.1,0,1.9,0.9,1.9,1.9v38.9
					C117.9,198.3,117.1,199.1,116,199.1z"/>
			</g>
			<g>
				<g>
					<path class="st29" d="M31.9,170.4c-0.1,0-0.3,0-0.4-0.1c-0.1,0-0.3-0.1-0.4-0.2c-0.1-0.1-0.2-0.2-0.3-0.3
						c-0.1-0.1-0.1-0.3-0.1-0.4v-2.5h-0.5l-0.5-0.6h1v-1.1c0-0.2-0.1-0.3-0.2-0.3c-0.2,0-0.3,0-0.5,0c-0.1-0.1-0.2-0.3-0.2-0.4
						c0-0.1,0-0.2,0.1-0.3c0.1-0.1,0.2-0.2,0.3-0.2c0.1-0.1,0.2-0.1,0.4-0.1c0.2,0,0.3,0,0.4,0.1c0.1,0.1,0.2,0.1,0.3,0.2
						c0.1,0.1,0.1,0.2,0.2,0.3c0,0.1,0.1,0.2,0.1,0.4c0,0.1,0,0.3,0,0.4c0,0.1,0,0.3,0,0.4c0,0.1,0,0.2,0,0.3c0,0.1,0,0.2,0,0.3h0.4
						l0.5,0.6h-0.8v2.3c0,0.2,0,0.3,0.1,0.4c0,0.1,0.1,0.2,0.2,0.2c0.1,0,0.2,0,0.3,0c0.1,0,0.2-0.1,0.3-0.1
						c0.1-0.1,0.2-0.1,0.3-0.2c0.1-0.1,0.2-0.2,0.3-0.3c0.1-0.1,0.2-0.2,0.2-0.3c0.1-0.1,0.1-0.2,0.1-0.3c0,0,0-0.1,0-0.2
						c-0.1,0.1-0.3,0.1-0.4,0.1c-0.1,0-0.2,0-0.3-0.1c-0.1-0.1-0.2-0.1-0.2-0.2c-0.1-0.1-0.1-0.2-0.1-0.3c0-0.1,0-0.2,0-0.3
						c0-0.1,0.1-0.2,0.2-0.3c0.1-0.1,0.2-0.2,0.3-0.2c0.1-0.1,0.3-0.1,0.5-0.1c0.2,0,0.4,0.1,0.5,0.2s0.2,0.3,0.3,0.4
						c0.1,0.2,0.1,0.4,0.1,0.6c0,0.2,0,0.4-0.1,0.7c-0.1,0.2-0.2,0.4-0.3,0.7c-0.1,0.2-0.3,0.4-0.4,0.6c-0.2,0.2-0.4,0.3-0.6,0.4
						C32.4,170.4,32.2,170.4,31.9,170.4z"/>
				</g>
				<g>
					<text transform="matrix(1 0 0 1 40.6355 171.3051)" class="st30 st24 st31">0.00</text>
				</g>
				<text transform="matrix(1 0 0 1 26.3084 184.0375)" class="st2 st27 st25">Ledger Balance</text>
			</g>
		</g>
		<g>
			<g>
				<path class="st22" d="M222.3,199.1h-94.2c-1.1,0-1.9-0.9-1.9-1.9v-38.9c0-1.1,0.9-1.9,1.9-1.9h94.2c1.1,0,1.9,0.9,1.9,1.9v38.9
					C224.3,198.3,223.4,199.1,222.3,199.1z"/>
			</g>
			<g>
				<g>
					<path class="st29" d="M138.2,170.4c-0.1,0-0.3,0-0.4-0.1c-0.1,0-0.3-0.1-0.4-0.2c-0.1-0.1-0.2-0.2-0.3-0.3
						c-0.1-0.1-0.1-0.3-0.1-0.4v-2.5h-0.5l-0.5-0.6h1v-1.1c0-0.2-0.1-0.3-0.2-0.3c-0.2,0-0.3,0-0.5,0c-0.1-0.1-0.2-0.3-0.2-0.4
						c0-0.1,0-0.2,0.1-0.3c0.1-0.1,0.2-0.2,0.3-0.2c0.1-0.1,0.2-0.1,0.4-0.1c0.2,0,0.3,0,0.4,0.1c0.1,0.1,0.2,0.1,0.3,0.2
						c0.1,0.1,0.1,0.2,0.2,0.3c0,0.1,0.1,0.2,0.1,0.4c0,0.1,0,0.3,0,0.4c0,0.1,0,0.3,0,0.4c0,0.1,0,0.2,0,0.3c0,0.1,0,0.2,0,0.3h0.4
						l0.5,0.6h-0.8v2.3c0,0.2,0,0.3,0.1,0.4c0,0.1,0.1,0.2,0.2,0.2c0.1,0,0.2,0,0.3,0c0.1,0,0.2-0.1,0.3-0.1
						c0.1-0.1,0.2-0.1,0.3-0.2c0.1-0.1,0.2-0.2,0.3-0.3c0.1-0.1,0.2-0.2,0.2-0.3c0.1-0.1,0.1-0.2,0.1-0.3c0,0,0-0.1,0-0.2
						c-0.1,0.1-0.3,0.1-0.4,0.1c-0.1,0-0.2,0-0.3-0.1c-0.1-0.1-0.2-0.1-0.2-0.2c-0.1-0.1-0.1-0.2-0.1-0.3c0-0.1,0-0.2,0-0.3
						c0-0.1,0.1-0.2,0.2-0.3c0.1-0.1,0.2-0.2,0.3-0.2c0.1-0.1,0.3-0.1,0.5-0.1c0.2,0,0.4,0.1,0.5,0.2c0.1,0.1,0.2,0.3,0.3,0.4
						c0.1,0.2,0.1,0.4,0.1,0.6c0,0.2,0,0.4-0.1,0.7c-0.1,0.2-0.2,0.4-0.3,0.7c-0.1,0.2-0.3,0.4-0.4,0.6c-0.2,0.2-0.4,0.3-0.6,0.4
						C138.7,170.4,138.5,170.4,138.2,170.4z"/>
				</g>
				<g>
					<text transform="matrix(1 0 0 1 146.9676 171.3051)" class="st30 st24 st31">0.00</text>
				</g>
				<g>
					<text transform="matrix(1 0 0 1 132.6443 184.0375)" class="st2 st27 st25">Purchase Power</text>
				</g>
			</g>
		</g>
	</g>
	<g>
		<g>
			<g>
				<path class="st22" d="M116,252.6H21.9c-1.1,0-1.9-0.9-1.9-1.9v-38.9c0-1.1,0.9-1.9,1.9-1.9H116c1.1,0,1.9,0.9,1.9,1.9v38.9
					C117.9,251.7,117.1,252.6,116,252.6z"/>
			</g>
			<g>
				<g>
					<path class="st29" d="M31.9,223.9c-0.1,0-0.3,0-0.4-0.1c-0.1,0-0.3-0.1-0.4-0.2c-0.1-0.1-0.2-0.2-0.3-0.3
						c-0.1-0.1-0.1-0.3-0.1-0.4v-2.5h-0.5l-0.5-0.6h1v-1.1c0-0.2-0.1-0.3-0.2-0.3c-0.2,0-0.3,0-0.5,0c-0.1-0.1-0.2-0.3-0.2-0.4
						c0-0.1,0-0.2,0.1-0.3c0.1-0.1,0.2-0.2,0.3-0.2c0.1-0.1,0.2-0.1,0.4-0.1c0.2,0,0.3,0,0.4,0.1c0.1,0.1,0.2,0.1,0.3,0.2
						c0.1,0.1,0.1,0.2,0.2,0.3c0,0.1,0.1,0.2,0.1,0.4c0,0.1,0,0.3,0,0.4c0,0.1,0,0.3,0,0.4c0,0.1,0,0.2,0,0.3c0,0.1,0,0.2,0,0.3h0.4
						l0.5,0.6h-0.8v2.3c0,0.2,0,0.3,0.1,0.4c0,0.1,0.1,0.2,0.2,0.2c0.1,0,0.2,0,0.3,0c0.1,0,0.2-0.1,0.3-0.1
						c0.1-0.1,0.2-0.1,0.3-0.2c0.1-0.1,0.2-0.2,0.3-0.3c0.1-0.1,0.2-0.2,0.2-0.3c0.1-0.1,0.1-0.2,0.1-0.3c0,0,0-0.1,0-0.2
						c-0.1,0.1-0.3,0.1-0.4,0.1c-0.1,0-0.2,0-0.3-0.1c-0.1-0.1-0.2-0.1-0.2-0.2c-0.1-0.1-0.1-0.2-0.1-0.3c0-0.1,0-0.2,0-0.3
						c0-0.1,0.1-0.2,0.2-0.3c0.1-0.1,0.2-0.2,0.3-0.2c0.1-0.1,0.3-0.1,0.5-0.1c0.2,0,0.4,0.1,0.5,0.2s0.2,0.3,0.3,0.4
						c0.1,0.2,0.1,0.4,0.1,0.6c0,0.2,0,0.4-0.1,0.7c-0.1,0.2-0.2,0.4-0.3,0.7c-0.1,0.2-0.3,0.4-0.4,0.6c-0.2,0.2-0.4,0.3-0.6,0.4
						C32.4,223.8,32.2,223.9,31.9,223.9z"/>
				</g>
				<text transform="matrix(1 0 0 1 40.6355 224.7509)" class="st30 st24 st31">0.00</text>
				<text transform="matrix(1 0 0 1 26.3084 237.4814)" class="st2 st27 st25">Portfolio Value</text>
			</g>
		</g>
		<g>
			<g>
				<path class="st22" d="M222.3,252.6h-94.2c-1.1,0-1.9-0.9-1.9-1.9v-38.9c0-1.1,0.9-1.9,1.9-1.9h94.2c1.1,0,1.9,0.9,1.9,1.9v38.9
					C224.3,251.7,223.4,252.6,222.3,252.6z"/>
			</g>
			<g>
				<g>
					<path class="st29" d="M138.2,223.9c-0.1,0-0.3,0-0.4-0.1c-0.1,0-0.3-0.1-0.4-0.2c-0.1-0.1-0.2-0.2-0.3-0.3
						c-0.1-0.1-0.1-0.3-0.1-0.4v-2.5h-0.5l-0.5-0.6h1v-1.1c0-0.2-0.1-0.3-0.2-0.3c-0.2,0-0.3,0-0.5,0c-0.1-0.1-0.2-0.3-0.2-0.4
						c0-0.1,0-0.2,0.1-0.3c0.1-0.1,0.2-0.2,0.3-0.2c0.1-0.1,0.2-0.1,0.4-0.1c0.2,0,0.3,0,0.4,0.1c0.1,0.1,0.2,0.1,0.3,0.2
						c0.1,0.1,0.1,0.2,0.2,0.3c0,0.1,0.1,0.2,0.1,0.4c0,0.1,0,0.3,0,0.4c0,0.1,0,0.3,0,0.4c0,0.1,0,0.2,0,0.3c0,0.1,0,0.2,0,0.3h0.4
						l0.5,0.6h-0.8v2.3c0,0.2,0,0.3,0.1,0.4c0,0.1,0.1,0.2,0.2,0.2s0.2,0,0.3,0c0.1,0,0.2-0.1,0.3-0.1c0.1-0.1,0.2-0.1,0.3-0.2
						c0.1-0.1,0.2-0.2,0.3-0.3c0.1-0.1,0.2-0.2,0.2-0.3c0.1-0.1,0.1-0.2,0.1-0.3c0,0,0-0.1,0-0.2c-0.1,0.1-0.3,0.1-0.4,0.1
						c-0.1,0-0.2,0-0.3-0.1c-0.1-0.1-0.2-0.1-0.2-0.2c-0.1-0.1-0.1-0.2-0.1-0.3c0-0.1,0-0.2,0-0.3c0-0.1,0.1-0.2,0.2-0.3
						c0.1-0.1,0.2-0.2,0.3-0.2c0.1-0.1,0.3-0.1,0.5-0.1c0.2,0,0.4,0.1,0.5,0.2c0.1,0.1,0.2,0.3,0.3,0.4c0.1,0.2,0.1,0.4,0.1,0.6
						c0,0.2,0,0.4-0.1,0.7c-0.1,0.2-0.2,0.4-0.3,0.7c-0.1,0.2-0.3,0.4-0.4,0.6c-0.2,0.2-0.4,0.3-0.6,0.4
						C138.7,223.8,138.5,223.9,138.2,223.9z"/>
				</g>
				<g>
					<text transform="matrix(1 0 0 1 146.9676 224.7509)" class="st30 st24 st31">0.00</text>
				</g>
				<text transform="matrix(1 0 0 1 132.6443 237.4814)" class="st2 st27 st25">Equity</text>
			</g>
		</g>
	</g>
	<g>
		<path class="st22" d="M217.5,459.2H26.7c-3.7,0-6.8-3-6.8-6.8V265.6c0-3.7,3-6.8,6.8-6.8h190.9c3.7,0,6.8,3,6.8,6.8v186.9
			C224.3,456.2,221.3,459.2,217.5,459.2z"/>
	</g>
	<text transform="matrix(1 0 0 1 32.6727 283.1996)" class="st32 st33 st25">Sector Mix</text>
	<g>
		<line class="st34" x1="47.7" y1="295.6" x2="211.2" y2="295.6"/>
		<text transform="matrix(1 0 0 1 32.6727 297.767)" class="st29 st33 st35">40</text>
	</g>
	<g>
		<line class="st34" x1="47.7" y1="332.5" x2="211.2" y2="332.5"/>
		<g>
			<text transform="matrix(1 0 0 1 32.6727 334.6029)" class="st29 st33 st35">30</text>
		</g>
	</g>
	<g>
		<line class="st34" x1="47.7" y1="369.3" x2="211.2" y2="369.3"/>
		<g>
			<text transform="matrix(1 0 0 1 32.6727 371.4359)" class="st29 st33 st35">20</text>
		</g>
	</g>
	<g>
		<line class="st34" x1="47.7" y1="406.1" x2="211.2" y2="406.1"/>
		<g>
			<text transform="matrix(1 0 0 1 32.6727 408.2709)" class="st29 st33 st35">10</text>
		</g>
	</g>
	<path class="st36" d="M74.9,438.6H56.3v-27c0-0.9,0.7-1.5,1.5-1.5h15.4c0.9,0,1.5,0.7,1.5,1.5V438.6z"/>
	<path class="st37" d="M159,438.6h-18.5v-72c0-0.9,0.7-1.5,1.5-1.5h15.4c0.9,0,1.5,0.7,1.5,1.5V438.6z"/>
	<g>
		<path class="st38" d="M98.5,438.8V317.2c0-0.8,0.7-1.5,1.5-1.5h15.4c0.8,0,1.5,0.7,1.5,1.5v121.6H98.5z"/>
		<path class="st2" d="M115.4,315.8c0.8,0,1.4,0.6,1.4,1.4v121.6H98.6V317.2c0-0.8,0.6-1.4,1.4-1.4H115.4 M115.4,315.6H100
			c-0.9,0-1.5,0.7-1.5,1.5v121.7h18.5V317.2C116.9,316.3,116.3,315.6,115.4,315.6L115.4,315.6z"/>
	</g>
	<g>
		<path class="st39" d="M182.7,438.8V317.2c0-0.8,0.7-1.5,1.5-1.5h15.4c0.8,0,1.5,0.7,1.5,1.5v121.6H182.7z"/>
		<path class="st2" d="M199.6,315.8c0.8,0,1.4,0.6,1.4,1.4v121.6h-18.2V317.2c0-0.8,0.6-1.4,1.4-1.4H199.6 M199.6,315.6h-15.4
			c-0.9,0-1.5,0.7-1.5,1.5v121.7h18.5V317.2C201.1,316.3,200.4,315.6,199.6,315.6L199.6,315.6z"/>
	</g>
	<path class="st40" d="M211.2,438.9H47.7c-0.2,0-0.3-0.1-0.3-0.3s0.1-0.3,0.3-0.3h163.5c0.2,0,0.3,0.1,0.3,0.3
		S211.3,438.9,211.2,438.9z"/>
	<g>
		<text transform="matrix(1 0 0 1 32.6727 440.6947)" class="st29 st33 st35">  0</text>
	</g>
	<g>
		<text transform="matrix(1 0 0 1 56.2059 450.2436)" class="st30 st24 st41">BANK</text>
	</g>
	<g>
		<text transform="matrix(1 0 0 1 90.0223 450.2436)" class="st30 st24 st41">ENGINEE...</text>
	</g>
	<g>
		<text transform="matrix(1 0 0 1 140.5076 449.8393)"><tspan x="0" y="0" class="st30 st24 st42">FOOD</tspan><tspan x="-1.4" y="7.9" class="st30 st24 st42">ALLIED</tspan></text>
	</g>
	<g>
		<text transform="matrix(1 0 0 1 179.1268 450.2455)" class="st30 st24 st41">TEXTILE</text>
	</g>
	<g>
		<path class="st2" d="M209.9,288.6h-13.3c-0.7,0-1.3-0.6-1.3-1.3V274c0-0.7,0.6-1.3,1.3-1.3h13.3c0.7,0,1.3,0.6,1.3,1.3v13.3
			C211.2,288,210.6,288.6,209.9,288.6z"/>
		<g>
			<path class="st43" d="M207.2,278.9h-7.9c-0.5,0-0.9-0.4-0.9-0.8s0.4-0.8,0.9-0.8h7.9c0.5,0,0.9,0.4,0.9,0.8
				S207.7,278.9,207.2,278.9z"/>
			<path class="st43" d="M207.2,281.4h-7.9c-0.5,0-0.9-0.4-0.9-0.8s0.4-0.8,0.9-0.8h7.9c0.5,0,0.9,0.4,0.9,0.8
				S207.7,281.4,207.2,281.4z"/>
			<path class="st43" d="M207.2,283.9h-7.9c-0.5,0-0.9-0.4-0.9-0.8s0.4-0.8,0.9-0.8h7.9c0.5,0,0.9,0.4,0.9,0.8
				S207.7,283.9,207.2,283.9z"/>
		</g>
	</g>
	<g>
		<path class="st2" d="M151.5,291.4v16.2c0,0.8-0.6,1.4-1.4,1.4h-37.6l-5,5.3l-5-5.3H67.2c-0.8,0-1.4-0.6-1.4-1.4v-16.2
			c0-0.8,0.6-1.4,1.4-1.4h82.9C150.9,290,151.5,290.6,151.5,291.4z"/>
		<g>
			<text transform="matrix(1 0 0 1 69.0896 299.2123)" class="st40 st44 st42">ENGINEERING</text>
			<text transform="matrix(1 0 0 1 68.2928 304.1449)" class="st45 st24 st46">Sector: XXX BDT (XX.XX%)</text>
		</g>
	</g>
	<g>
		<rect x="95.8" y="95.1" class="st22" width="133" height="364"/>
		<rect x="95.8" y="95.1" class="st47" width="133" height="0.3"/>
		<g>
			<g>
				<g>
					<rect x="95.8" y="120.9" class="st47" width="1.3" height="24.8"/>
				</g>
			</g>
			<path class="st48" d="M209.5,145.7H97.2v-24.8h112.4c6.8,0,12.2,5.5,12.2,12.2v0.3C221.8,140.2,216.3,145.7,209.5,145.7z"/>
		</g>
		<text transform="matrix(0.9446 0 0 1 121.9842 109.6889)" class="st2 st49 st50">Cash Dividend Requisition</text>
		<g>
			<circle class="st51" cx="110.5" cy="107.6" r="8.5"/>
			<g>
				<path class="st52" d="M114.7,110.7h-8.4v-6.3h8.4V110.7z M113.8,109.9v-4.7h-6.8v4.7H113.8z"/>
				<g>
					<path class="st52" d="M113.3,106.5c-0.4,0-0.7-0.3-0.7-0.7c0,0,0-0.1,0-0.1h-4.2c0,0,0,0.1,0,0.1c0,0.4-0.3,0.7-0.7,0.7
						c0,0-0.1,0-0.1,0v2.2c0,0,0.1,0,0.1,0c0.4,0,0.7,0.3,0.7,0.7c0,0,0,0.1,0,0.1h4.2c0,0,0-0.1,0-0.1c0-0.4,0.3-0.7,0.7-0.7
						c0,0,0.1,0,0.1,0L113.3,106.5C113.3,106.5,113.3,106.5,113.3,106.5z M109.1,108.6h-0.4V107c0,0,0,0-0.1,0.1c0,0-0.1,0-0.1,0.1
						s-0.1,0-0.1,0c0,0-0.1,0-0.1,0v-0.4c0.1,0,0.2-0.1,0.3-0.1c0.1-0.1,0.2-0.1,0.3-0.2h0.3V108.6z M110.8,108.4
						c-0.1,0.2-0.3,0.3-0.5,0.3c-0.4,0-0.7-0.3-0.7-1c0-0.4,0.1-0.6,0.2-0.8c0.1-0.2,0.3-0.3,0.5-0.3c0.4,0,0.7,0.3,0.7,1
						C110.9,107.9,110.9,108.2,110.8,108.4z M112.4,108.4c-0.1,0.2-0.3,0.3-0.5,0.3c-0.4,0-0.7-0.3-0.7-1c0-0.4,0.1-0.6,0.2-0.8
						c0.1-0.2,0.3-0.3,0.5-0.3c0.4,0,0.7,0.3,0.7,1C112.6,107.9,112.5,108.2,112.4,108.4z"/>
					<path class="st52" d="M110.3,106.9c-0.2,0-0.3,0.2-0.3,0.7c0,0.5,0.1,0.7,0.3,0.7c0.2,0,0.3-0.2,0.3-0.7
						C110.5,107.1,110.4,106.9,110.3,106.9z"/>
					<path class="st52" d="M111.9,106.9c-0.2,0-0.3,0.2-0.3,0.7c0,0.5,0.1,0.7,0.3,0.7c0.2,0,0.3-0.2,0.3-0.7
						C112.2,107.1,112.1,106.9,111.9,106.9z"/>
				</g>
			</g>
		</g>
		<text transform="matrix(0.9446 0 0 1 121.9861 135.5029)" class="st2 st49 st53">Report</text>
		<g>
			<circle class="st51" cx="110.5" cy="133.3" r="8.5"/>
			<path class="st54" d="M113.8,135.8c0.4,0,0.8-0.4,0.8-0.8v-4.3c0-0.4-0.4-0.8-0.8-0.8h-6.7c-0.4,0-0.8,0.4-0.8,0.8v4.3
				c0,0.4,0.4,0.8,0.8,0.8h-1.7v0.8h10.1v-0.8H113.8z M113.8,135h-6.7v-4.2h6.7V135z"/>
		</g>
		<text transform="matrix(0.9446 0 0 1 146.8865 160.2812)" class="st2 st49 st53">Portfolio</text>
		<g>
			<circle class="st55" cx="135.5" cy="158.1" r="8.5"/>
			<path class="st56" d="M138.3,157l-2.4-2.6c-0.1,0-0.1-0.1-0.2-0.1h-2.9c-0.1,0-0.2,0.1-0.2,0.2v6.9c0,0.2,0.2,0.4,0.4,0.4h4.9
				c0.2,0,0.4-0.2,0.4-0.4v-4.1C138.4,157.2,138.3,157.1,138.3,157z M134.6,161.1h-1v-2.3h1V161.1z M135.9,161.1h-1v-2.9h1V161.1z
				 M137.5,161.1h-1v-1.7h1V161.1z M135.9,156.9v-1.6l1.6,1.6H135.9z"/>
		</g>
		<text transform="matrix(0.9446 0 0 1 146.8875 209.8354)" class="st2 st49 st53">Trade Confrmation</text>
		<g>
			<circle class="st55" cx="135.5" cy="207.6" r="8.5"/>
			<path class="st56" d="M138.3,206.6l-2.4-2.6c-0.1,0-0.1-0.1-0.2-0.1h-2.9c-0.1,0-0.2,0.1-0.2,0.2v6.9c0,0.2,0.2,0.4,0.4,0.4h4.9
				c0.2,0,0.4-0.2,0.4-0.4v-4.1C138.4,206.7,138.3,206.7,138.3,206.6z M134.6,210.6h-1v-2.3h1V210.6z M135.9,210.6h-1v-2.9h1V210.6z
				 M137.5,210.6h-1v-1.7h1V210.6z M135.9,206.5v-1.6l1.6,1.6H135.9z"/>
		</g>
		<text transform="matrix(0.9446 0 0 1 146.8875 234.6117)" class="st2 st49 st53">Proft Loss Analysis</text>
		<g>
			<circle class="st55" cx="135.5" cy="232.4" r="8.5"/>
			<path class="st56" d="M138.3,231.4l-2.4-2.6c-0.1,0-0.1-0.1-0.2-0.1h-2.9c-0.1,0-0.2,0.1-0.2,0.2v6.9c0,0.2,0.2,0.4,0.4,0.4h4.9
				c0.2,0,0.4-0.2,0.4-0.4v-4.1C138.4,231.5,138.3,231.4,138.3,231.4z M134.6,235.4h-1v-2.3h1V235.4z M135.9,235.4h-1v-2.9h1V235.4z
				 M137.5,235.4h-1v-1.7h1V235.4z M135.9,231.2v-1.6l1.6,1.6H135.9z"/>
		</g>
		<text transform="matrix(0.9446 0 0 1 146.8875 259.3891)" class="st2 st49 st53">Dividend Ledger</text>
		<g>
			<circle class="st55" cx="135.5" cy="257.2" r="8.5"/>
			<path class="st56" d="M138.3,256.1l-2.4-2.6c-0.1,0-0.1-0.1-0.2-0.1h-2.9c-0.1,0-0.2,0.1-0.2,0.2v6.9c0,0.2,0.2,0.4,0.4,0.4h4.9
				c0.2,0,0.4-0.2,0.4-0.4v-4.1C138.4,256.3,138.3,256.2,138.3,256.1z M134.6,260.2h-1v-2.3h1V260.2z M135.9,260.2h-1v-2.9h1V260.2z
				 M137.5,260.2h-1v-1.7h1V260.2z M135.9,256v-1.6l1.6,1.6H135.9z"/>
		</g>
		<text transform="matrix(0.9446 0 0 1 146.8875 284.1645)" class="st2 st49 st53">Tax Certifcate</text>
		<g>
			<circle class="st55" cx="135.5" cy="281.9" r="8.5"/>
			<path class="st56" d="M138.3,280.9l-2.4-2.6c-0.1,0-0.1-0.1-0.2-0.1h-2.9c-0.1,0-0.2,0.1-0.2,0.2v6.9c0,0.2,0.2,0.4,0.4,0.4h4.9
				c0.2,0,0.4-0.2,0.4-0.4v-4.1C138.4,281.1,138.3,281,138.3,280.9z M134.6,284.9h-1v-2.3h1V284.9z M135.9,284.9h-1V282h1V284.9z
				 M137.5,284.9h-1v-1.7h1V284.9z M135.9,280.8v-1.6l1.6,1.6H135.9z"/>
		</g>
		<text transform="matrix(0.9446 0 0 1 146.8875 308.9418)" class="st2 st49 st53">Marginable List</text>
		<g>
			<circle class="st55" cx="135.5" cy="306.7" r="8.5"/>
			<path class="st56" d="M138.3,305.7l-2.4-2.6c-0.1,0-0.1-0.1-0.2-0.1h-2.9c-0.1,0-0.2,0.1-0.2,0.2v6.9c0,0.2,0.2,0.4,0.4,0.4h4.9
				c0.2,0,0.4-0.2,0.4-0.4v-4.1C138.4,305.9,138.3,305.8,138.3,305.7z M134.6,309.7h-1v-2.3h1V309.7z M135.9,309.7h-1v-2.9h1V309.7z
				 M137.5,309.7h-1V308h1V309.7z M135.9,305.6v-1.6l1.6,1.6H135.9z"/>
		</g>
		<g>
			<text transform="matrix(0.9446 0 0 1 126.6014 333.7191)" class="st2 st49 st53">Alert</text>
			<g>
				<circle class="st51" cx="110.5" cy="331.5" r="8.5"/>
				<g>
					<path class="st57" d="M110.5,327.5l-4.6,8h9.2L110.5,327.5z M110.5,329.1l3.2,5.6h-6.4L110.5,329.1z"/>
					<rect x="110.1" y="330.9" class="st57" width="0.8" height="1.6"/>
					<rect x="110.1" y="333.4" class="st57" width="0.8" height="0.8"/>
				</g>
			</g>
		</g>
		<g>
			<g>
				<g>
					<text transform="matrix(0.9446 0 0 1 125.0603 381.9232)" class="st2 st27 st53">Change Password</text>
				</g>
				<g>
					<circle class="st51" cx="110.5" cy="379.7" r="8.5"/>
					<g>
						<g>
							<circle class="st58" cx="112.2" cy="378" r="1.7"/>
							<path class="st58" d="M115.5,382v1h-6.6v-1c0,0,0,0,0,0c0,0,0-0.2,0.2-0.3c0.2-0.2,0.6-0.6,1.4-0.8c0,0,0,0,0,0
								c0.3-0.1,0.6-0.2,1-0.2c0,0,0,0,0,0c0.2,0,0.5-0.1,0.8-0.1c0.3,0,0.5,0,0.8,0.1h0c0.4,0.1,0.7,0.2,1,0.2c0,0,0,0,0,0
								c0.8,0.3,1.2,0.6,1.4,0.8C115.5,381.9,115.5,382,115.5,382z"/>
						</g>
						<path class="st58" d="M107.9,378.8c-0.2-0.5-0.6-0.9-1.2-0.9c-0.7,0-1.3,0.6-1.3,1.3c0,0.7,0.6,1.3,1.3,1.3
							c0.6,0,1-0.4,1.2-0.9h0.5v0.8h0.8v-0.8h0.8v-0.8H107.9z M106.7,379.7c-0.3,0-0.5-0.2-0.5-0.5c0-0.3,0.2-0.5,0.5-0.5
							s0.5,0.2,0.5,0.5C107.2,379.5,107,379.7,106.7,379.7z"/>
					</g>
				</g>
			</g>
			<g>
				<g>
					<text transform="matrix(0.9446 0 0 1 125.0613 405.3412)" class="st2 st27 st53">Log out</text>
				</g>
				<g>
					<circle class="st51" cx="110.5" cy="403.1" r="8.5"/>
					<g>
						<path class="st52" d="M107.1,400.1h3.4v-0.8H107c-0.4,0-0.8,0.4-0.8,0.8v6c0,0.4,0.4,0.8,0.8,0.8h3.4v-0.8h-3.4V400.1z"/>
						<polygon class="st52" points="114.6,403.1 114.6,403 114.2,402.7 112.5,401 111.9,401.6 113,402.7 108.7,402.7 108.7,403.5 
							113,403.5 111.9,404.6 112.5,405.2 114.3,403.5 114.6,403.2 114.6,403.2 114.7,403.1 						"/>
					</g>
				</g>
			</g>
			<g>
				<g>
					<text transform="matrix(0.9446 0 0 1 125.0574 358.4994)" class="st2 st27 st53">Insurance</text>
				</g>
				<g>
					<circle class="st51" cx="110.5" cy="356.3" r="8.5"/>
					<g>
						<path class="st59" d="M110.5,360.6c-2.4,0-4.4-2-4.3-4.4c0-2.3,2-4.3,4.4-4.3c2.3,0,4.3,1.9,4.3,4.4
							C114.8,358.8,112.8,360.6,110.5,360.6z M114.4,356.3c0-2.1-1.7-3.9-3.9-3.9c-2.2,0-4,1.7-4,3.9c0,2.2,1.8,3.9,3.9,3.9
							C112.7,360.2,114.4,358.4,114.4,356.3z"/>
						<path class="st2" d="M110.6,354.8c0,0.4,0,0.9,0,1.3c0.4,0.1,0.6,0.3,0.7,0.7c0.1,0.4-0.1,0.6-0.4,0.9c0.1,0,0.2,0.1,0.2,0.1
							c0,0,0,0,0,0c0.3-0.1,0.5-0.2,0.8-0.3c0,0,0.1,0,0.2,0c0.2,0.1,0.5,0.2,0.7,0.3c0.1,0,0.1,0.1,0.1,0.1c0,0.6-0.1,1.1-0.6,1.4
							c0,0-0.1,0.1-0.1,0.1c-0.1,0-0.2,0.1-0.3,0c0,0-0.1,0-0.1,0c-1,0-1.9,0-2.9,0c-0.2,0-0.2,0-0.2-0.2c0.1-0.7,0.5-1.2,1.2-1.5
							c0,0,0,0,0,0c-0.3-0.2-0.5-0.6-0.3-0.9c0.1-0.3,0.4-0.5,0.7-0.6c0-0.4,0-0.9,0-1.3c-0.2,0-0.3,0.1-0.4,0.2
							c-0.1,0.1-0.2,0.3-0.2,0.4c0,0.1,0,0.1-0.1,0.1c-0.1,0-0.1-0.1-0.1-0.1c0-0.4-0.3-0.7-0.7-0.7c-0.4,0-0.7,0.3-0.7,0.6
							c0,0,0,0,0,0.1c0,0.1,0,0.1-0.1,0.1c-0.1,0-0.1,0-0.1-0.1c0-0.2,0-0.4,0.1-0.6c0.3-1,1.1-1.7,2-1.8c1.3-0.2,2.5,0.7,2.8,2
							c0,0.1,0,0.3,0,0.4c0,0.1,0,0.1-0.1,0.1c-0.1,0-0.1,0-0.1-0.1c0-0.5-0.6-0.8-1-0.6c-0.2,0.1-0.3,0.3-0.4,0.6
							c0,0.1,0,0.1-0.1,0.1c-0.1,0-0.1-0.1-0.1-0.1C111.1,355.1,110.9,354.9,110.6,354.8C110.6,354.8,110.6,354.8,110.6,354.8z
							 M109,359.2c0.9,0,1.8,0,2.6,0c-0.3-0.3-0.4-0.7-0.5-1.1c0-0.1,0-0.1-0.1-0.1c-0.6-0.3-1.2-0.2-1.7,0.3
							C109.1,358.5,109,358.8,109,359.2z M112.8,358c0-0.1,0-0.1-0.1-0.2c-0.2-0.1-0.4-0.1-0.5-0.2c0,0-0.1,0-0.1,0
							c-0.2,0.1-0.4,0.2-0.6,0.3c0,0,0,0.1,0,0.1c0,0.1,0,0.3,0,0.4c0.1,0.4,0.2,0.7,0.6,0.9c0.1,0,0.1,0,0.2,0
							C112.6,358.9,112.7,358.5,112.8,358z M109.7,355c0.2-0.2,0.4-0.4,0.7-0.4c0.3,0,0.5,0.1,0.7,0.3c0-0.7-0.2-1.3-0.7-1.7
							C110,353.7,109.7,354.3,109.7,355z M110.7,353.2c0.5,0.5,0.7,1.1,0.7,1.7c0.5-0.4,0.7-0.4,1.3-0.1
							C112.5,354.1,111.7,353.3,110.7,353.2z M109.5,354.9c0-0.3,0.1-0.6,0.2-0.9c0.1-0.3,0.3-0.5,0.5-0.8c-0.5,0.1-0.9,0.2-1.2,0.5
							c-0.3,0.3-0.7,0.9-0.7,1.1C108.6,354.6,109.1,354.5,109.5,354.9z M109.8,357c0,0.4,0.3,0.6,0.6,0.6c0.4,0,0.6-0.3,0.6-0.7
							c0-0.4-0.3-0.6-0.6-0.6C110.1,356.3,109.8,356.6,109.8,357z"/>
						<path class="st2" d="M111.9,358.4c-0.1-0.1-0.1-0.1-0.2-0.1c0,0-0.1-0.1-0.1,0c-0.1,0.1,0,0.1,0,0.2c0.1,0.1,0.1,0.1,0.2,0.2
							c0.1,0.1,0.1,0.1,0.2,0c0.1-0.1,0.3-0.3,0.4-0.4c0,0,0.1-0.1,0-0.2c-0.1-0.1-0.1,0-0.2,0C112.2,358.2,112,358.3,111.9,358.4z"
							/>
					</g>
				</g>
			</g>
		</g>
		<g>
			<path class="st60" d="M232.9,198.6H122.4v-31.5h110.5c8.7,0,15.7,7,15.7,15.7v0C248.7,191.5,241.6,198.6,232.9,198.6z"/>
			<text transform="matrix(0.9446 0 0 1 153.5154 185.6606)" class="st2 st49 st61">Ledger Details</text>
			<g>
				<circle class="st55" cx="139.1" cy="182.8" r="10.8"/>
				<path class="st56" d="M142.6,181.5l-3-3.3c-0.1,0-0.2-0.1-0.2-0.1h-3.7c-0.1,0-0.2,0.1-0.2,0.2v8.7c0,0.3,0.2,0.5,0.5,0.5h6.2
					c0.3,0,0.5-0.2,0.5-0.5v-5.2C142.7,181.7,142.7,181.6,142.6,181.5z M137.8,186.6h-1.2v-2.9h1.2V186.6z M139.5,186.6h-1.2v-3.7
					h1.2V186.6z M141.6,186.6h-1.3v-2.1h1.3V186.6z M139.5,181.4v-2.1l2,2.1H139.5z"/>
			</g>
		</g>
	</g>
</g>
</svg>
