<?xml version="1.0" encoding="utf-8"?>
<!-- Generator: Adobe Illustrator 26.0.1, SVG Export Plug-In . SVG Version: 6.00 Build 0)  -->
<svg version="1.0" id="Layer_1" xmlns="http://www.w3.org/2000/svg" xmlns:xlink="http://www.w3.org/1999/xlink" x="0px" y="0px"
	 viewBox="0 0 235.9 491.1" style="enable-background:new 0 0 235.9 491.1;" xml:space="preserve">
<style type="text/css">
	.st0{fill:#231F20;}
	.st1{fill:#FFFFFF;}
	.st2{fill:#F68832;}
	.st3{fill:#078241;}
	.st4{fill:#115D33;}
	.st5{fill:#0E4525;}
	.st6{fill:#186A60;}
	.st7{fill:#8F9393;}
	.st8{fill:#F6852B;}
	.st9{fill:#A33123;}
	.st10{fill:#B8342A;}
	.st11{fill:none;}
	.st12{fill:#669A9D;}
	.st13{fill:#F3D1B6;}
	.st14{fill:#E1C1A9;}
	.st15{fill:#C1DAEA;}
	.st16{fill:#8CD0DE;}
	.st17{fill:#E4E4E4;}
	.st18{fill:#FED8B7;}
	.st19{fill:#8D643D;}
	.st20{fill:#F2CFB5;}
	.st21{fill:#A2C1E6;}
	.st22{fill:#16695F;}
	.st23{fill:#4A4E5A;}
	.st24{fill:#F5EB10;}
	.st25{fill:#4FB862;}
	.st26{fill:#FBED1D;}
	.st27{fill:#FFFCFD;}
	.st28{fill:none;stroke:#FFFCFD;stroke-width:0.2565;stroke-linecap:round;stroke-miterlimit:10;}
	.st29{fill:#52A8DC;stroke:#FFFFFF;stroke-width:0.1539;stroke-miterlimit:10;}
	.st30{fill:#58B968;stroke:#FFFFFF;stroke-width:0.1539;stroke-miterlimit:10;}
	.st31{fill:#5859A6;}
	.st32{fill:#F16A39;}
	.st33{fill:#221F1F;}
	.st34{fill:#676868;}
	.st35{fill:#424345;}
	.st36{fill:#5CB948;}
	.st37{fill:#1B9282;}
	.st38{opacity:0.9;fill:#15534A;}
	.st39{fill:#3292D0;}
	.st40{fill:#21A64A;}
	.st41{opacity:0.9;fill:#104139;}
	.st42{fill:#4CB756;}
	.st43{fill:#105049;}
	.st44{fill:#7A6CAF;}
	.st45{fill:#E9262A;}
	.st46{fill:#F7F8F9;}
	.st47{fill:#BEBDBF;}
	.st48{fill:#EDECED;}
	.st49{fill:none;stroke:#CFD1D2;stroke-width:0.1874;stroke-miterlimit:10;}
	.st50{fill:#FFFFFF;stroke:#BCBDBF;stroke-width:0.15;stroke-miterlimit:10;}
	.st51{fill:#434244;}
	.st52{fill:#6E6F72;}
	.st53{fill:#328BCB;}
</style>
<path class="st4" d="M203.6,484.3H32.3c-14.1,0-25.6-11.4-25.6-25.6V32.4c0-14.1,11.4-25.6,25.6-25.6h171.3
	c14.1,0,25.6,11.4,25.6,25.6v426.3C229.2,472.8,217.7,484.3,203.6,484.3z"/>
<g>
	<path class="st4" d="M203.4,1.6c17,0,30.9,13.9,30.9,31.1v425.7c0,17.1-13.9,31.1-30.9,31.1H32.5c-17,0-30.9-13.9-30.9-31.1V32.7
		c0-17.1,13.9-31.1,30.9-31.1H203.4 M203.4,0H32.5C14.6,0,0,14.7,0,32.7v425.7c0,18,14.6,32.7,32.5,32.7h170.9
		c17.9,0,32.5-14.7,32.5-32.7V32.7C235.9,14.7,221.3,0,203.4,0L203.4,0z"/>
</g>
<g>
	<rect x="6.7" y="32.5" class="st5" width="222.4" height="24.5"/>
</g>
<g>
	<rect x="6.7" y="57" class="st6" width="222.4" height="37.9"/>
</g>
<g>
	<g>
		<g id="XMLID_00000151504254733291610880000002823311317241441458_">
			<g id="XMLID_00000173868961388025140010000017036191675428848556_">
				<path class="st7" d="M27.8,83.3h4.3c1.6,0,2.7-0.4,3.1-1.1c0.1-0.1,0.1-0.2,0.2-0.3l-3.9-1.3L27.8,83.3z"/>
			</g>
			<g id="XMLID_00000138555234906914349490000005478220919834174082_">
				<path class="st7" d="M30.4,80.6H30v-2.2h1.5c0.5,0,0.8,0.1,1,0.4c0.2,0.2,0.3,0.5,0.3,0.8s-0.1,0.5-0.3,0.8l0,0l3.2,1
					c0.2-0.5,0.3-1,0.3-1.5c0-1.5-0.7-2.5-2.1-2.9c0.6-0.2,1-0.5,1.4-1c0.3-0.5,0.5-1,0.5-1.7c0-0.8-0.3-1.6-0.8-2.2
					c-0.5-0.7-1.3-1-2.5-1H27v12.3l0.4-0.6L30.4,80.6z M30.1,73.6h1.5c0.7,0,1.1,0.3,1.1,1c0,0.3-0.1,0.5-0.2,0.7
					c-0.2,0.2-0.4,0.3-0.8,0.3h-1.5v-2H30.1z"/>
			</g>
			<g id="XMLID_00000040556770497578666160000015913144066737020081_">
				<path class="st7" d="M41.8,77.1c0.2,0,0.4,0,0.6,0.1V74c-0.2,0-0.3,0-0.5,0c-1.1,0-1.8,0.7-2.1,2.1v-1.9h-2.6v6.5l3-2
					C40.4,77.6,40.9,77.1,41.8,77.1z"/>
			</g>
			<g id="XMLID_00000106107114002692798220000013343107825883883935_">
				<polygon class="st7" points="37.3,83.3 40.3,83.3 40.3,79.6 37.3,81.5 				"/>
			</g>
			<g id="XMLID_00000176016395445293749460000004586351012372759210_">
				<path class="st8" d="M48.4,78.3c0,0.1,0,0.2,0,0.4c0,0.6-0.1,1.2-0.2,1.8c-0.1,0.6-0.4,0.9-0.9,0.9c-0.3,0-0.6-0.2-0.8-0.5
					c-0.1-0.3-0.2-0.8-0.3-1.6l-0.5,0.2l-2.8-1.6c0,0.3-0.1,0.6-0.1,0.9c0,1.3,0.4,2.4,1.2,3.3c0.8,0.9,1.8,1.4,3.2,1.4
					c1.3,0,2.4-0.5,3.2-1.4c0.8-0.9,1.2-2.1,1.2-3.4c0-0.5-0.1-1.1-0.2-1.5L51.2,77L48.4,78.3z"/>
			</g>
			<g id="XMLID_00000019657517067380590240000005916062540126778796_">
				<path class="st8" d="M46.3,78.4c0-0.7,0.1-1.3,0.2-1.6c0.2-0.4,0.4-0.6,0.8-0.6s0.7,0.2,0.8,0.6c0.1,0.2,0.1,0.4,0.2,0.7
					l2.8-1.2c-0.2-0.3-0.4-0.7-0.6-0.9c-0.8-0.9-1.9-1.3-3.2-1.3c-1.3,0-2.4,0.5-3.2,1.4c-0.5,0.5-0.8,1.1-1,1.8l2.6,1.5L46.3,78.4z
					"/>
			</g>
			<g id="XMLID_00000003062794719769837340000002947532793429580689_">
				<polygon class="st3" points="53,78.4 53,83.3 55.9,83.3 55.9,80.8 56.8,79.6 58.3,83.3 61.5,83.3 58.8,77.3 59,77.1 54.3,79.7 
									"/>
			</g>
			<g id="XMLID_00000152225936452328052700000008926642580165360305_">
				<path class="st3" d="M59.6,76l0.2,0.1l1.5-1.9h-2.8l-2,2.6c-0.2,0.3-0.4,0.5-0.6,0.8c0-1,0-1.5,0-1.7v-5H53v6.5l1.4,1.3L59.6,76
					z"/>
			</g>
			<g id="XMLID_00000018230253328017336370000013457819953451800739_">
				<path class="st7" d="M76.2,74c-1.1,0-1.8,0.7-2.1,2.1v-1.9h-2.6v9.1h3v-4.2c0-1.3,0.5-2,1.6-2c0.2,0,0.4,0,0.6,0.1V74
					C76.4,74,76.3,74,76.2,74z"/>
			</g>
			<g>
				<g>
					<path class="st7" d="M67.1,77.6h-1.9l-1.5,1l-2-0.9c-0.1,0.4-0.1,0.7-0.1,1.1c0,1.3,0.4,2.4,1.2,3.3c0.8,0.9,1.9,1.3,3.2,1.3
						c1.2,0,2.2-0.3,2.9-0.9c0.7-0.6,1.2-1.4,1.3-2.3L67.3,80c-0.1,0.7-0.5,1.1-1.2,1.1c-0.5,0-0.8-0.1-1-0.4s-0.3-0.7-0.3-1.3h5.4
						c0-0.2,0-0.4,0-0.5c0-1.5-0.4-2.7-1.2-3.6l-0.1-0.1l-2.1,1.4C67,76.8,67.1,77.1,67.1,77.6z"/>
				</g>
				<g>
					<path class="st7" d="M62.8,75.4c-0.4,0.5-0.7,1-0.9,1.6l1.8,0.8l1.3-0.9c0.1-0.6,0.5-0.9,1-0.9c0.1,0,0.2,0,0.3,0l2.2-1.4
						c-0.7-0.5-1.5-0.7-2.4-0.7C64.6,73.9,63.6,74.4,62.8,75.4z"/>
				</g>
				<g>
					<path class="st7" d="M76,71.5l2.3-3l-3.6,0.8l0.5,0.8l-6.8,4.5c0.2,0.1,0.4,0.3,0.6,0.5l6.6-4.4L76,71.5z"/>
				</g>
			</g>
			<g id="XMLID_00000035499608246903996380000005533865045078424231_">
				<g id="XMLID_00000138571161899901299330000002377327729081987511_">
					<path class="st1" d="M23.6,83.3c-0.4,0.1-0.8,0.1-1.1,0.1c-0.4,0-0.7,0-1-0.2c-0.3-0.1-0.5-0.4-0.7-0.7
						c-0.2-0.4-0.3-0.9-0.3-1.5l0.1-3.5c0-0.5-0.1-0.9-0.2-1.1c-0.2-0.2-0.5-0.2-0.9-0.1l1.5-3.1c0.4-0.1,0.8-0.1,1.1-0.1
						c0.4,0,0.7,0,1,0.2c0.3,0.1,0.5,0.4,0.7,0.8s0.3,0.9,0.2,1.6l-0.1,3.5c0,0.5,0.1,0.9,0.2,1.1c0.2,0.2,0.5,0.2,0.9,0.1
						L23.6,83.3z M24.4,70c0.1,0.3,0,0.5,0,0.8c-0.1,0.2-0.2,0.5-0.3,0.6c-0.2,0.2-0.4,0.4-0.6,0.5s-0.5,0.2-0.7,0.3
						c-0.2,0.1-0.5,0.1-0.8,0c-0.3,0-0.5-0.1-0.7-0.2s-0.4-0.3-0.6-0.5s-0.3-0.4-0.3-0.7c-0.1-0.3,0-0.5,0-0.8
						c0.1-0.2,0.2-0.4,0.4-0.6c0.2-0.2,0.4-0.3,0.6-0.5c0.2-0.1,0.5-0.2,0.7-0.3c0.2-0.1,0.5-0.1,0.8,0c0.3,0,0.5,0.1,0.7,0.2
						s0.4,0.3,0.6,0.4C24.3,69.5,24.4,69.7,24.4,70z"/>
				</g>
			</g>
		</g>
	</g>
</g>
<g>
	<g>
		<g>
			<rect x="208.3" y="72.5" class="st1" width="6.2" height="1.2"/>
		</g>
		<g>
			<rect x="208.3" y="75.4" class="st1" width="6.2" height="1.2"/>
		</g>
		<g>
			<rect x="208.3" y="78.3" class="st1" width="6.2" height="1.2"/>
		</g>
	</g>
	<g>
		<polygon class="st1" points="206.3,73.6 207.6,73.6 205.9,71.9 204.2,73.6 205.5,73.6 205.5,78.5 204.2,78.5 205.9,80.2 
			207.6,78.5 206.3,78.5 		"/>
	</g>
</g>
<g>
	<g>
		<g>
			<ellipse class="st9" cx="178.8" cy="76" rx="9.1" ry="9.1"/>
		</g>
		<g>
			<path class="st10" d="M178.8,85.1c-5,0-9.1-4.1-9.1-9.1s4.1-9.1,9.1-9.1V85.1z"/>
		</g>
	</g>
	<g>
		<g>
			<g>
				<path class="st13" d="M177.3,78.4l-0.5,1.3l3.8,0.3l-0.5-1.4C178.8,79.4,177.8,78.8,177.3,78.4z"/>
			</g>
			<g>
				<path class="st14" d="M180.2,78.6l-0.4-1h-2.2l-0.3,0.8C177.8,78.8,178.8,79.4,180.2,78.6z"/>
			</g>
		</g>
		<g>
			<g>
				<path class="st15" d="M172.4,82.4L172.4,82.4c1.4,1.6,3.4,2.5,5.6,2.7c-0.4-1.4-1.2-4.6-1.5-5.6
					C175.2,80.6,172.9,81.5,172.4,82.4z"/>
			</g>
			<g>
				<path class="st15" d="M185.1,82.4c-0.5-0.8-2.7-1.7-4.1-2.9c-0.3,1-1.1,4.2-1.5,5.6C181.7,84.9,183.7,83.9,185.1,82.4
					L185.1,82.4z"/>
			</g>
		</g>
		<g>
			<g>
				<path class="st17" d="M180.4,78.8l-1.6,1l0,0V85l0,0h0.5c0.1,0,0.1,0,0.2,0c0.4-1.4,1.2-4.6,1.5-5.6
					C180.8,79.2,180.5,79,180.4,78.8z"/>
			</g>
			<g>
				<path class="st17" d="M178.8,85.1v-5.2l0,0l-1.6-1c-0.2,0.2-0.4,0.5-0.6,0.7c0.3,1,1.1,4.2,1.5,5.6c0.1,0,0.1,0,0.2,0
					L178.8,85.1L178.8,85.1z"/>
			</g>
		</g>
		<g>
			<g>
				<path class="st18" d="M178.8,70.8c-1.9,0-3.4,0.6-3.4,2.8c0,2.2,1.5,5.1,3.4,5.1l0,0V70.8L178.8,70.8z"/>
			</g>
			<g>
				<path class="st18" d="M182.2,73.5c0-2.2-1.5-2.8-3.4-2.8v7.9C180.7,78.6,182.2,75.7,182.2,73.5z"/>
			</g>
			<g>
				<path class="st19" d="M175.4,74.7h0.6c0,0,0.1-2.2,0.6-2.5s1.4,0.2,2.2,0v-2.5c0,0-2.1-0.1-2.9,0.8
					C175.4,71.1,175,72,175.4,74.7z"/>
			</g>
			<g>
				<path class="st19" d="M182.2,74.7h-0.6c0,0-0.1-2.2-0.6-2.5s-1.4,0.2-2.2,0v-2.5c0,0,2.1-0.1,2.9,0.8
					C182.2,71.1,182.6,72,182.2,74.7z"/>
			</g>
			<g>
				<ellipse transform="matrix(0.982 -0.189 0.189 0.982 -10.9527 34.5546)" class="st18" cx="175.7" cy="74.7" rx="0.5" ry="0.9"/>
			</g>
			<g>
				<path class="st20" d="M181.4,74.7c-0.1,0.5,0,0.9,0.3,1c0.3,0,0.5-0.3,0.6-0.8s0-0.9-0.3-1C181.8,73.8,181.5,74.2,181.4,74.7z"
					/>
			</g>
		</g>
		<g>
			<polygon class="st21" points="178.8,79.8 178.1,80 178.5,80.8 178.8,80.8 			"/>
		</g>
		<g>
			<polygon class="st1" points="178.8,79.8 177.7,80.8 176.7,79.3 177.2,78.8 			"/>
		</g>
		<g>
			<g>
				<path class="st1" d="M175.3,80.3l0.9,2.6l0.7-0.3l-0.4,1l0.7,1.4c0.3,0,0.6,0.1,0.8,0.1l-1.4-5.7L175.3,80.3z"/>
			</g>
			<g>
				<path class="st1" d="M180.7,82.5l0.7,0.3l0.9-2.6l-1.4-1l-1.4,5.7c0.3,0,0.6-0.1,0.8-0.1l0.7-1.4L180.7,82.5z"/>
			</g>
		</g>
		<g>
			<polygon class="st21" points="178.8,79.8 179.4,80 179.1,80.8 178.8,80.8 			"/>
		</g>
		<g>
			<polygon class="st1" points="178.8,79.8 179.9,80.8 180.8,79.3 180.4,78.8 			"/>
		</g>
		<g>
			<g>
				<path class="st21" d="M178.8,80.8v4.3c0.2,0,0.4,0,0.7,0l-0.4-4.2h-0.3V80.8z"/>
			</g>
			<g>
				<path class="st21" d="M178.8,80.8h-0.3l-0.4,4.2c0.2,0,0.4,0,0.7,0l0,0l0,0V80.8L178.8,80.8z"/>
			</g>
		</g>
	</g>
</g>
<g>
	<g>
		<polyline class="st1" points="125.8,71.2 123.6,71.2 121.9,80.4 121.1,80.4 122.8,71.2 120.5,71.2 120.7,70.4 126,70.4 
			125.8,71.2 		"/>
	</g>
	<g>
		<path class="st1" d="M127.5,73.7c-0.2,0-0.3,0-0.4,0c-0.4,0-0.8,0.2-1.1,0.5c-0.4,0.4-0.6,0.9-0.7,1.6l-0.8,4.7h-0.7l1.4-7.5h0.7
			l-0.2,1.2l0,0c0.5-0.9,1.1-1.4,1.8-1.4c0,0,0.1,0,0.2,0c0.1,0,0.1,0,0.1,0L127.5,73.7"/>
	</g>
	<g>
		<path class="st1" d="M131.1,80.5c-0.1,0-0.1,0-0.2,0c-0.1,0-0.2,0-0.3,0c-0.4,0-0.6-0.2-0.6-0.6c0-0.1,0-0.2,0-0.3v-0.2l0,0
			c-0.2,0.4-0.5,0.7-0.9,0.9c-0.4,0.2-0.7,0.3-1,0.3c-0.9,0-1.4-0.5-1.4-1.5c0-0.2,0-0.4,0.1-0.7c0.1-0.7,0.4-1.2,0.7-1.5
			c0.3-0.3,0.7-0.5,1.3-0.6c0.3-0.1,0.8-0.2,1.4-0.4c0.3-0.1,0.4-0.4,0.5-0.9c0-0.2,0-0.4,0-0.5c0-0.6-0.3-0.9-0.9-0.9
			c-0.8,0-1.4,0.6-1.6,1.7h-0.7c0.3-1.6,1.1-2.4,2.4-2.4c1.1,0,1.6,0.5,1.6,1.4c0,0.2,0,0.4-0.1,0.7l-0.8,4.6
			c-0.1,0.3,0,0.5,0.2,0.5c0,0,0.1,0,0.2,0L131.1,80.5 M130.2,78.1l0.3-1.8c-0.2,0.2-0.4,0.3-0.8,0.4c-0.3,0.1-0.6,0.2-0.9,0.3
			c-0.4,0.1-0.6,0.3-0.8,0.5s-0.4,0.6-0.4,1c0,0.2,0,0.3,0,0.5c0,0.7,0.3,1,0.8,1c0.4,0,0.8-0.2,1.1-0.5
			C129.8,79.2,130.1,78.7,130.2,78.1z"/>
	</g>
	<g>
		<path class="st1" d="M135.4,80.4h-0.7l0.2-1.2l0,0c-0.4,0.9-1,1.4-1.8,1.4c-1,0-1.5-0.7-1.5-2.2c0-0.5,0.1-1.1,0.2-1.7
			c0.5-2.6,1.4-3.9,2.7-3.9c0.3,0,0.6,0.1,0.9,0.3c0.2,0.2,0.4,0.5,0.4,1l0,0l0.7-3.7h0.7L135.4,80.4 M135.4,76.7
			c0.1-0.6,0.2-1.1,0.2-1.5c0-1.1-0.3-1.7-1-1.7c-0.9,0-1.6,1.1-2,3.2c-0.1,0.7-0.2,1.2-0.2,1.7c0,1,0.3,1.5,1,1.5
			C134.3,79.9,135,78.8,135.4,76.7z"/>
	</g>
	<g>
		<path class="st1" d="M140.8,76.8h-3.5c-0.1,0.7-0.2,1.3-0.2,1.7c0,1,0.3,1.5,1,1.5c0.4,0,0.7-0.2,1-0.5s0.5-0.8,0.6-1.4h0.7
			c-0.1,0.7-0.4,1.4-0.9,1.8c-0.5,0.5-1,0.8-1.7,0.8c-1.1,0-1.6-0.7-1.6-2.1c0-0.5,0.1-1.1,0.2-1.8c0.5-2.6,1.4-3.8,2.9-3.8
			c1.1,0,1.6,0.6,1.6,1.9C141.1,75.3,141,75.9,140.8,76.8 M140.2,76.1c0.1-0.5,0.1-0.9,0.1-1.3c0-0.9-0.3-1.3-1-1.3
			c-0.9,0-1.6,0.9-1.9,2.6C137.4,76.1,140.2,76.1,140.2,76.1z"/>
	</g>
	<g>
		<path class="st1" d="M152,75.9c-0.1,0.7-0.4,1.3-0.7,1.7c-0.4,0.4-0.7,0.6-1.2,0.6c-0.3,0-0.5-0.1-0.7-0.2
			c-0.1-0.1-0.2-0.2-0.2-0.4l-0.4,2.1h-0.9L149,74h0.9l-0.1,0.6c0.1-0.2,0.3-0.3,0.4-0.4c0.2-0.2,0.5-0.3,0.8-0.3
			c0.4,0,0.7,0.2,1,0.5C152.1,74.7,152.2,75.2,152,75.9 M150.5,74.7c-0.3,0-0.6,0.2-0.8,0.6c-0.1,0.2-0.2,0.4-0.2,0.7
			c-0.1,0.5,0,0.8,0.1,1c0.1,0.1,0.3,0.2,0.4,0.2c0.3,0,0.5-0.1,0.7-0.3c0.2-0.2,0.3-0.5,0.4-0.9c0.1-0.3,0-0.6,0-0.8
			C150.9,74.8,150.8,74.7,150.5,74.7z"/>
	</g>
	<g>
		<path class="st1" d="M154.7,73.8l-0.2,1.1c-0.1,0-0.1,0-0.2,0h-0.1c-0.4,0-0.7,0.1-0.8,0.4c-0.1,0.2-0.2,0.4-0.2,0.7l-0.4,2h-0.9
			l0.8-4.1h0.9l-0.1,0.7c0.2-0.3,0.4-0.5,0.5-0.6c0.2-0.2,0.4-0.3,0.7-0.3V73.8C154.6,73.8,154.7,73.8,154.7,73.8"/>
	</g>
	<g>
		<path class="st1" d="M157.7,74.5c0.1,0.2,0.1,0.5,0.1,0.9c0,0.2,0,0.5-0.1,0.8h-2.5c-0.1,0.4,0,0.7,0.2,0.9
			c0.1,0.1,0.3,0.2,0.4,0.2c0.2,0,0.4-0.1,0.5-0.2s0.2-0.2,0.2-0.3h0.9c-0.1,0.2-0.2,0.5-0.5,0.7c-0.4,0.4-0.8,0.6-1.4,0.6
			c-0.5,0-0.8-0.2-1.1-0.5s-0.4-0.9-0.2-1.6c0.1-0.7,0.4-1.3,0.8-1.6c0.4-0.4,0.8-0.6,1.3-0.6c0.3,0,0.5,0.1,0.8,0.2
			S157.6,74.3,157.7,74.5 M155.4,75.5h1.4c0-0.3,0-0.5-0.1-0.6s-0.3-0.2-0.5-0.2s-0.4,0.1-0.5,0.2C155.6,75,155.5,75.2,155.4,75.5z"
			/>
	</g>
	<g>
		<path class="st1" d="M158.6,76.7c0,0.2,0,0.3,0.1,0.4s0.3,0.2,0.6,0.2c0.2,0,0.3,0,0.5-0.1c0.1-0.1,0.2-0.2,0.2-0.3
			c0-0.1,0-0.2-0.1-0.3c-0.1-0.1-0.4-0.2-0.9-0.3c-0.4-0.1-0.6-0.3-0.8-0.4c-0.1-0.2-0.2-0.4-0.1-0.7c0.1-0.4,0.3-0.7,0.6-1
			s0.7-0.4,1.2-0.4c0.4,0,0.8,0.1,1,0.3c0.2,0.2,0.3,0.6,0.3,1.1h-1c0-0.1,0-0.2,0-0.3c-0.1-0.1-0.2-0.2-0.5-0.2
			c-0.2,0-0.4,0-0.5,0.1S159,75,159,75.1c0,0.1,0,0.2,0.1,0.3c0.1,0.1,0.4,0.2,0.9,0.3c0.4,0.1,0.6,0.3,0.7,0.5
			c0.1,0.2,0.2,0.5,0.1,0.8c-0.1,0.4-0.3,0.7-0.6,1s-0.7,0.4-1.3,0.4s-0.9-0.1-1.2-0.4c-0.2-0.3-0.3-0.6-0.2-1h1.1"/>
	</g>
	<g>
		<path class="st1" d="M162,76.7c0,0.2,0,0.3,0.1,0.4s0.3,0.2,0.6,0.2c0.2,0,0.3,0,0.5-0.1c0.1-0.1,0.2-0.2,0.2-0.3
			c0-0.1,0-0.2-0.1-0.3c-0.1-0.1-0.4-0.2-0.9-0.3c-0.4-0.1-0.6-0.3-0.8-0.4c-0.1-0.2-0.2-0.4-0.1-0.7c0.1-0.4,0.3-0.7,0.6-1
			s0.7-0.4,1.2-0.4c0.4,0,0.8,0.1,1,0.3c0.2,0.2,0.3,0.6,0.3,1.1h-0.9c0-0.1,0-0.2,0-0.3c-0.1-0.1-0.2-0.2-0.5-0.2
			c-0.2,0-0.4,0-0.5,0.1s-0.2,0.2-0.2,0.3c0,0.1,0,0.2,0.1,0.3c0.1,0.1,0.4,0.2,0.9,0.3c0.4,0.1,0.6,0.3,0.7,0.5
			c0.1,0.2,0.2,0.5,0.1,0.8c-0.1,0.4-0.3,0.7-0.6,1s-0.7,0.4-1.3,0.4s-0.9-0.1-1.2-0.4c-0.2-0.3-0.3-0.6-0.2-1h1"/>
	</g>
	<g>
		<g>
			<polyline class="st1" points="144.1,76.1 139.4,68.7 138.5,68.7 143.8,76.2 140.8,80.9 140.9,80.9 144.1,76.1 			"/>
		</g>
		<g>
			<polyline class="st2" points="145.9,74.7 141.9,80.9 142,80.9 146.2,74.6 142.4,68.6 139.3,68.6 139.4,68.7 141.7,68.7 
				145.9,74.7 			"/>
		</g>
		<g>
			<polyline class="st2" points="140.9,80.9 141.9,80.9 145.9,74.7 141.7,68.7 139.4,68.7 144.1,76.1 140.9,80.9 			"/>
		</g>
		<g>
			<polyline class="st1" points="149.2,79.6 149.1,80.1 147.4,80.1 147.9,77.6 146.7,75.9 151.1,69 150,69 144.6,77.4 148.7,83.4 
				151.7,83.4 149.2,79.6 			"/>
		</g>
		<g>
			<polyline class="st3" points="149.1,80.1 147.4,80.1 147.9,77.3 147,75.8 151.8,68.8 150.7,68.8 144.9,77.3 148.7,83.4 
				151.8,83.4 149.3,79.4 149.1,80.1 			"/>
		</g>
	</g>
</g>
<g>
	<path class="st1" d="M32.1,484.1c-13.9,0-25.3-11.3-25.3-25.3V95H229v363.8c0,13.9-11.3,25.3-25.3,25.3H32.1z"/>
	<path class="st4" d="M228.8,95.2v363.7c0,13.9-11.3,25.1-25.1,25.1H32.1c-13.9,0-25.1-11.3-25.1-25.1V95.2H228.8 M229.1,94.9H6.7
		v363.9c0,14,11.4,25.4,25.4,25.4h171.6c14,0,25.4-11.4,25.4-25.4V94.9L229.1,94.9z"/>
</g>
<g>
	<g>
		<path class="st46" d="M18.7,466.3c-2,0-3.6-1.6-3.6-3.6v-354c0-2,1.6-3.6,3.6-3.6h198.6c2,0,3.6,1.6,3.6,3.6v354
			c0,2-1.6,3.6-3.6,3.6H18.7z"/>
		<path class="st47" d="M217.2,105.2c1.9,0,3.5,1.6,3.5,3.5v354c0,1.9-1.6,3.5-3.5,3.5H18.7c-1.9,0-3.5-1.6-3.5-3.5v-354
			c0-1.9,1.6-3.5,3.5-3.5H217.2 M217.2,105H18.7c-2,0-3.7,1.7-3.7,3.7v354c0,2,1.7,3.7,3.7,3.7h198.6c2,0,3.7-1.7,3.7-3.7v-354
			C220.9,106.7,219.3,105,217.2,105L217.2,105z"/>
	</g>
	<g>
		<path class="st48" d="M220.5,161H15.4v-54.2c0-0.8,0.6-1.4,1.4-1.4h202.3c0.8,0,1.4,0.6,1.4,1.4V161z"/>
	</g>
	<line class="st49" x1="15" y1="161" x2="220.9" y2="161"/>
	<g>
		<path class="st22" d="M38.3,127.4c-0.6,0.3-1.7,0.6-3.1,0.6c-3.3,0-5.9-2.1-5.9-6c0-3.7,2.5-6.2,6.2-6.2c1.5,0,2.4,0.3,2.8,0.5
			l-0.4,1.3c-0.6-0.3-1.4-0.5-2.4-0.5c-2.8,0-4.6,1.8-4.6,4.9c0,2.9,1.7,4.8,4.6,4.8c0.9,0,1.9-0.2,2.5-0.5L38.3,127.4z"/>
		<path class="st22" d="M44.7,127.8l-0.1-1.1h-0.1c-0.5,0.7-1.4,1.3-2.6,1.3c-1.7,0-2.6-1.2-2.6-2.4c0-2.1,1.8-3.2,5.1-3.2v-0.2
			c0-0.7-0.2-2-1.9-2c-0.8,0-1.6,0.2-2.2,0.6l-0.4-1c0.7-0.5,1.7-0.8,2.8-0.8c2.6,0,3.2,1.8,3.2,3.5v3.2c0,0.7,0,1.5,0.1,2H44.7z
			 M44.5,123.4c-1.7,0-3.6,0.3-3.6,1.9c0,1,0.7,1.5,1.5,1.5c1.1,0,1.8-0.7,2.1-1.4c0.1-0.2,0.1-0.3,0.1-0.5V123.4z"/>
		<path class="st22" d="M48.3,126.2c0.5,0.3,1.3,0.6,2,0.6c1.1,0,1.7-0.6,1.7-1.3c0-0.7-0.4-1.1-1.6-1.6c-1.5-0.5-2.3-1.4-2.3-2.4
			c0-1.4,1.1-2.5,2.9-2.5c0.9,0,1.6,0.2,2.1,0.5l-0.4,1.1c-0.3-0.2-1-0.5-1.7-0.5c-0.9,0-1.4,0.5-1.4,1.2c0,0.7,0.5,1,1.6,1.4
			c1.5,0.6,2.2,1.3,2.2,2.6c0,1.5-1.2,2.6-3.2,2.6c-0.9,0-1.8-0.2-2.4-0.6L48.3,126.2z"/>
		<path class="st22" d="M55.5,115.3H57v5.3h0c0.2-0.4,0.6-0.8,1.1-1.1c0.5-0.3,1-0.4,1.6-0.4c1.1,0,3,0.7,3,3.6v5.1h-1.6v-4.9
			c0-1.4-0.5-2.5-2-2.5c-1,0-1.8,0.7-2.1,1.6c-0.1,0.2-0.1,0.4-0.1,0.7v5.1h-1.6V115.3z"/>
		<path class="st22" d="M69.1,116.1c0.9-0.1,2-0.2,3.3-0.2c2.2,0,3.8,0.5,4.8,1.5c1.1,1,1.7,2.3,1.7,4.3c0,1.9-0.6,3.5-1.7,4.6
			c-1.1,1.1-2.9,1.7-5.3,1.7c-1.1,0-2-0.1-2.8-0.1V116.1z M70.6,126.6c0.4,0.1,1,0.1,1.6,0.1c3.3,0,5.1-1.8,5.1-5
			c0-2.8-1.6-4.6-4.8-4.6c-0.8,0-1.4,0.1-1.8,0.2V126.6z"/>
		<path class="st22" d="M82.5,116.9c0,0.5-0.4,1-1,1c-0.5,0-0.9-0.4-0.9-1c0-0.5,0.4-1,1-1C82.1,115.9,82.5,116.3,82.5,116.9z
			 M80.8,127.8v-8.5h1.6v8.5H80.8z"/>
		<path class="st22" d="M85.5,119.3l1.7,4.8c0.3,0.8,0.5,1.5,0.7,2.2h0.1c0.2-0.7,0.4-1.4,0.7-2.2l1.7-4.8h1.6l-3.3,8.5h-1.5
			l-3.2-8.5H85.5z"/>
		<path class="st22" d="M95.1,116.9c0,0.5-0.4,1-1,1c-0.5,0-0.9-0.4-0.9-1c0-0.5,0.4-1,1-1C94.7,115.9,95.1,116.3,95.1,116.9z
			 M93.4,127.8v-8.5h1.6v8.5H93.4z"/>
		<path class="st22" d="M104.9,115.3v10.3c0,0.8,0,1.6,0.1,2.2h-1.4l-0.1-1.5h0c-0.5,1-1.5,1.7-2.9,1.7c-2.1,0-3.6-1.7-3.6-4.3
			c0-2.8,1.7-4.6,3.8-4.6c1.3,0,2.2,0.6,2.6,1.3h0v-5.1H104.9z M103.3,122.7c0-0.2,0-0.5-0.1-0.7c-0.2-1-1.1-1.8-2.2-1.8
			c-1.6,0-2.6,1.4-2.6,3.3c0,1.7,0.8,3.2,2.5,3.2c1,0,2-0.7,2.3-1.9c0.1-0.2,0.1-0.4,0.1-0.7V122.7z"/>
		<path class="st22" d="M108.3,123.8c0,2.1,1.4,3,2.9,3c1.1,0,1.8-0.2,2.4-0.4l0.3,1.1c-0.5,0.2-1.5,0.5-2.8,0.5
			c-2.6,0-4.2-1.7-4.2-4.3c0-2.6,1.5-4.6,4-4.6c2.8,0,3.5,2.5,3.5,4c0,0.3,0,0.6-0.1,0.7H108.3z M112.8,122.7c0-1-0.4-2.5-2.2-2.5
			c-1.6,0-2.3,1.4-2.4,2.5H112.8z"/>
		<path class="st22" d="M116.3,121.6c0-0.9,0-1.6-0.1-2.3h1.4l0.1,1.4h0c0.4-0.8,1.4-1.6,2.8-1.6c1.2,0,3,0.7,3,3.6v5.1H122v-4.9
			c0-1.4-0.5-2.5-2-2.5c-1,0-1.8,0.7-2.1,1.6c-0.1,0.2-0.1,0.5-0.1,0.7v5.1h-1.6V121.6z"/>
		<path class="st22" d="M133.4,115.3v10.3c0,0.8,0,1.6,0.1,2.2h-1.4l-0.1-1.5h0c-0.5,1-1.5,1.7-2.9,1.7c-2.1,0-3.6-1.7-3.6-4.3
			c0-2.8,1.7-4.6,3.8-4.6c1.3,0,2.2,0.6,2.6,1.3h0v-5.1H133.4z M131.9,122.7c0-0.2,0-0.5-0.1-0.7c-0.2-1-1.1-1.8-2.2-1.8
			c-1.6,0-2.6,1.4-2.6,3.3c0,1.7,0.8,3.2,2.5,3.2c1,0,2-0.7,2.3-1.9c0.1-0.2,0.1-0.4,0.1-0.7V122.7z"/>
		<path class="st22" d="M139.8,115.9h1.5v10.6h5.1v1.3h-6.6V115.9z"/>
		<path class="st22" d="M148.7,123.8c0,2.1,1.4,3,2.9,3c1.1,0,1.8-0.2,2.4-0.4l0.3,1.1c-0.5,0.2-1.5,0.5-2.8,0.5
			c-2.6,0-4.2-1.7-4.2-4.3c0-2.6,1.5-4.6,4-4.6c2.8,0,3.5,2.5,3.5,4c0,0.3,0,0.6-0.1,0.7H148.7z M153.2,122.7c0-1-0.4-2.5-2.2-2.5
			c-1.6,0-2.3,1.4-2.4,2.5H153.2z"/>
		<path class="st22" d="M164,115.3v10.3c0,0.8,0,1.6,0.1,2.2h-1.4l-0.1-1.5h0c-0.5,1-1.5,1.7-2.9,1.7c-2.1,0-3.6-1.7-3.6-4.3
			c0-2.8,1.7-4.6,3.8-4.6c1.3,0,2.2,0.6,2.6,1.3h0v-5.1H164z M162.5,122.7c0-0.2,0-0.5-0.1-0.7c-0.2-1-1.1-1.8-2.2-1.8
			c-1.6,0-2.6,1.4-2.6,3.3c0,1.7,0.8,3.2,2.5,3.2c1,0,2-0.7,2.3-1.9c0.1-0.2,0.1-0.4,0.1-0.7V122.7z"/>
		<path class="st22" d="M173.9,119.3c0,0.6-0.1,1.3-0.1,2.3v5c0,2-0.4,3.2-1.2,3.9c-0.8,0.8-2,1-3.1,1c-1,0-2.2-0.2-2.8-0.7l0.4-1.2
			c0.6,0.4,1.4,0.7,2.5,0.7c1.6,0,2.8-0.8,2.8-3v-1h0c-0.5,0.8-1.4,1.4-2.7,1.4c-2.1,0-3.6-1.8-3.6-4.2c0-2.9,1.9-4.5,3.8-4.5
			c1.5,0,2.3,0.8,2.7,1.5h0l0.1-1.3H173.9z M172.3,122.6c0-0.3,0-0.5-0.1-0.7c-0.3-0.9-1-1.6-2.2-1.6c-1.5,0-2.5,1.3-2.5,3.2
			c0,1.7,0.8,3.1,2.5,3.1c1,0,1.8-0.6,2.2-1.6c0.1-0.3,0.1-0.6,0.1-0.8V122.6z"/>
		<path class="st22" d="M177.3,123.8c0,2.1,1.4,3,2.9,3c1.1,0,1.8-0.2,2.4-0.4l0.3,1.1c-0.5,0.2-1.5,0.5-2.8,0.5
			c-2.6,0-4.2-1.7-4.2-4.3c0-2.6,1.5-4.6,4-4.6c2.8,0,3.5,2.5,3.5,4c0,0.3,0,0.6-0.1,0.7H177.3z M181.9,122.7c0-1-0.4-2.5-2.2-2.5
			c-1.6,0-2.3,1.4-2.4,2.5H181.9z"/>
		<path class="st22" d="M185.3,121.9c0-1,0-1.9-0.1-2.7h1.4l0.1,1.7h0.1c0.4-1.1,1.3-1.9,2.4-1.9c0.2,0,0.3,0,0.4,0.1v1.5
			c-0.2,0-0.3-0.1-0.5-0.1c-1.1,0-1.9,0.8-2.1,2c0,0.2-0.1,0.5-0.1,0.7v4.5h-1.5V121.9z"/>
		<path class="st22" d="M30,137.2c0.9-0.1,2-0.2,3.3-0.2c2.2,0,3.8,0.5,4.8,1.5c1.1,1,1.7,2.3,1.7,4.3c0,1.9-0.6,3.5-1.7,4.6
			c-1.1,1.1-2.9,1.7-5.3,1.7c-1.1,0-2-0.1-2.8-0.1V137.2z M31.5,147.7c0.4,0.1,1,0.1,1.6,0.1c3.3,0,5.1-1.8,5.1-5
			c0-2.8-1.6-4.6-4.8-4.6c-0.8,0-1.4,0.1-1.8,0.2V147.7z"/>
		<path class="st22" d="M42.6,145c0,2.1,1.4,3,2.9,3c1.1,0,1.8-0.2,2.4-0.4l0.3,1.1c-0.5,0.2-1.5,0.5-2.8,0.5
			c-2.6,0-4.2-1.7-4.2-4.3c0-2.6,1.5-4.6,4-4.6c2.8,0,3.5,2.5,3.5,4c0,0.3,0,0.6-0.1,0.7H42.6z M47.1,143.9c0-1-0.4-2.5-2.2-2.5
			c-1.6,0-2.3,1.4-2.4,2.5H47.1z"/>
		<path class="st22" d="M52.4,138v2.5h2.2v1.2h-2.2v4.6c0,1.1,0.3,1.7,1.2,1.7c0.4,0,0.7-0.1,0.9-0.1l0.1,1.2
			c-0.3,0.1-0.8,0.2-1.4,0.2c-0.7,0-1.3-0.2-1.7-0.7c-0.4-0.5-0.6-1.2-0.6-2.2v-4.7h-1.3v-1.2h1.3v-2L52.4,138z"/>
		<path class="st22" d="M61.1,149l-0.1-1.1h-0.1c-0.5,0.7-1.4,1.3-2.6,1.3c-1.7,0-2.6-1.2-2.6-2.4c0-2.1,1.8-3.2,5.1-3.2v-0.2
			c0-0.7-0.2-2-1.9-2c-0.8,0-1.6,0.2-2.2,0.6l-0.4-1c0.7-0.5,1.7-0.8,2.8-0.8c2.6,0,3.2,1.8,3.2,3.5v3.2c0,0.7,0,1.5,0.1,2H61.1z
			 M60.9,144.6c-1.7,0-3.6,0.3-3.6,1.9c0,1,0.7,1.5,1.5,1.5c1.1,0,1.8-0.7,2.1-1.4c0.1-0.2,0.1-0.3,0.1-0.5V144.6z"/>
		<path class="st22" d="M66.6,138c0,0.5-0.4,1-1,1c-0.5,0-0.9-0.4-0.9-1c0-0.5,0.4-1,1-1C66.2,137.1,66.6,137.5,66.6,138z M64.9,149
			v-8.5h1.6v8.5H64.9z"/>
		<path class="st22" d="M69,136.4h1.6V149H69V136.4z"/>
		<path class="st22" d="M73,147.4c0.5,0.3,1.3,0.6,2,0.6c1.1,0,1.7-0.6,1.7-1.3c0-0.7-0.4-1.1-1.6-1.6c-1.5-0.5-2.3-1.4-2.3-2.4
			c0-1.4,1.1-2.5,2.9-2.5c0.9,0,1.6,0.2,2.1,0.5l-0.4,1.1c-0.3-0.2-1-0.5-1.7-0.5c-0.9,0-1.4,0.5-1.4,1.2c0,0.7,0.5,1,1.6,1.4
			c1.5,0.6,2.2,1.3,2.2,2.6c0,1.5-1.2,2.6-3.2,2.6c-0.9,0-1.8-0.2-2.4-0.6L73,147.4z"/>
	</g>
	<g>
		<g>
			<path class="st0" d="M23.2,180.6v-7.1h0.9v7.1H23.2z"/>
			<path class="st0" d="M25.7,180.6v-5.1h0.8v0.7c0.4-0.6,0.9-0.8,1.6-0.8c0.3,0,0.6,0.1,0.8,0.2c0.3,0.1,0.5,0.3,0.6,0.4
				c0.1,0.2,0.2,0.4,0.3,0.6c0,0.2,0,0.4,0,0.8v3.1H29v-3.1c0-0.4,0-0.6-0.1-0.8c-0.1-0.2-0.2-0.3-0.4-0.4c-0.2-0.1-0.4-0.2-0.6-0.2
				c-0.4,0-0.7,0.1-1,0.4c-0.3,0.2-0.4,0.7-0.4,1.3v2.8H25.7z"/>
			<path class="st0" d="M32.6,180.6l-1.9-5.1h0.9l1.1,3.1c0.1,0.3,0.2,0.7,0.3,1c0.1-0.3,0.2-0.6,0.3-1l1.1-3.1h0.9l-1.9,5.1H32.6z"
				/>
			<path class="st0" d="M39.6,179l0.9,0.1c-0.1,0.5-0.4,0.9-0.8,1.2c-0.4,0.3-0.9,0.4-1.5,0.4c-0.7,0-1.3-0.2-1.8-0.7
				c-0.4-0.5-0.7-1.1-0.7-1.9c0-0.9,0.2-1.5,0.7-2c0.4-0.5,1-0.7,1.7-0.7c0.7,0,1.2,0.2,1.7,0.7c0.4,0.5,0.6,1.1,0.6,2
				c0,0.1,0,0.1,0,0.2h-3.8c0,0.6,0.2,1,0.5,1.3c0.3,0.3,0.6,0.4,1.1,0.4c0.3,0,0.6-0.1,0.8-0.2C39.3,179.6,39.4,179.3,39.6,179z
				 M36.7,177.6h2.9c0-0.4-0.1-0.8-0.3-1c-0.3-0.3-0.6-0.5-1.1-0.5c-0.4,0-0.7,0.1-1,0.4C36.9,176.8,36.8,177.1,36.7,177.6z"/>
			<path class="st0" d="M41.2,179.1l0.9-0.1c0,0.3,0.2,0.6,0.4,0.8c0.2,0.2,0.5,0.3,0.9,0.3c0.4,0,0.7-0.1,0.9-0.2
				c0.2-0.2,0.3-0.4,0.3-0.6c0-0.2-0.1-0.3-0.3-0.5c-0.1-0.1-0.4-0.2-0.9-0.3c-0.6-0.2-1.1-0.3-1.3-0.4c-0.2-0.1-0.4-0.3-0.6-0.5
				c-0.1-0.2-0.2-0.4-0.2-0.7c0-0.2,0.1-0.4,0.2-0.6c0.1-0.2,0.2-0.4,0.4-0.5c0.1-0.1,0.3-0.2,0.5-0.3c0.2-0.1,0.5-0.1,0.7-0.1
				c0.4,0,0.8,0.1,1.1,0.2c0.3,0.1,0.5,0.3,0.7,0.5c0.1,0.2,0.2,0.5,0.3,0.8l-0.8,0.1c0-0.3-0.1-0.5-0.3-0.6
				c-0.2-0.1-0.4-0.2-0.8-0.2c-0.4,0-0.7,0.1-0.9,0.2c-0.2,0.1-0.3,0.3-0.3,0.5c0,0.1,0,0.2,0.1,0.3c0.1,0.1,0.2,0.2,0.3,0.2
				c0.1,0,0.3,0.1,0.8,0.2c0.6,0.2,1,0.3,1.3,0.4s0.4,0.3,0.6,0.5c0.1,0.2,0.2,0.4,0.2,0.7c0,0.3-0.1,0.6-0.3,0.8
				c-0.2,0.3-0.4,0.5-0.7,0.6c-0.3,0.1-0.7,0.2-1.1,0.2c-0.7,0-1.2-0.1-1.5-0.4C41.5,180,41.3,179.6,41.2,179.1z"/>
			<path class="st0" d="M48.3,179.8l0.1,0.8c-0.2,0.1-0.5,0.1-0.7,0.1c-0.3,0-0.6-0.1-0.7-0.1c-0.2-0.1-0.3-0.2-0.4-0.4
				c-0.1-0.2-0.1-0.5-0.1-1v-2.9H46v-0.7h0.6v-1.3l0.9-0.5v1.8h0.9v0.7h-0.9v3c0,0.2,0,0.4,0,0.5c0,0.1,0.1,0.1,0.1,0.2
				c0.1,0,0.2,0.1,0.3,0.1C48.1,179.9,48.2,179.8,48.3,179.8z"/>
			<path class="st0" d="M48.9,178c0-0.9,0.3-1.6,0.8-2.1c0.4-0.4,1-0.6,1.6-0.6c0.7,0,1.3,0.2,1.7,0.7c0.4,0.5,0.7,1.1,0.7,1.9
				c0,0.7-0.1,1.2-0.3,1.6c-0.2,0.4-0.5,0.7-0.9,0.9c-0.4,0.2-0.8,0.3-1.2,0.3c-0.7,0-1.3-0.2-1.7-0.7
				C49.1,179.6,48.9,178.9,48.9,178z M49.8,178c0,0.7,0.1,1.1,0.4,1.5c0.3,0.3,0.6,0.5,1.1,0.5c0.4,0,0.8-0.2,1.1-0.5
				c0.3-0.3,0.4-0.8,0.4-1.5c0-0.6-0.1-1.1-0.4-1.4c-0.3-0.3-0.6-0.5-1.1-0.5c-0.4,0-0.8,0.2-1.1,0.5
				C49.9,176.9,49.8,177.4,49.8,178z"/>
			<path class="st0" d="M54.7,180.6v-5.1h0.8v0.8c0.2-0.4,0.4-0.6,0.6-0.7c0.2-0.1,0.4-0.2,0.6-0.2c0.3,0,0.6,0.1,0.9,0.3l-0.3,0.8
				c-0.2-0.1-0.4-0.2-0.6-0.2c-0.2,0-0.4,0.1-0.5,0.2c-0.2,0.1-0.3,0.3-0.3,0.5c-0.1,0.3-0.1,0.6-0.1,1v2.7H54.7z"/>
			<path class="st0" d="M65.8,178.1l0.9,0.2c-0.2,0.8-0.5,1.4-1.1,1.8c-0.5,0.4-1.1,0.6-1.9,0.6c-0.8,0-1.4-0.2-1.9-0.5
				c-0.5-0.3-0.8-0.8-1.1-1.3c-0.2-0.6-0.4-1.2-0.4-1.9c0-0.7,0.1-1.4,0.4-1.9c0.3-0.5,0.7-1,1.2-1.2c0.5-0.3,1.1-0.4,1.7-0.4
				c0.7,0,1.3,0.2,1.8,0.5c0.5,0.4,0.8,0.9,1,1.5l-0.9,0.2c-0.2-0.5-0.4-0.9-0.7-1.1c-0.3-0.2-0.7-0.4-1.2-0.4c-0.5,0-1,0.1-1.4,0.4
				c-0.4,0.3-0.6,0.6-0.8,1c-0.1,0.4-0.2,0.9-0.2,1.4c0,0.6,0.1,1.1,0.3,1.6c0.2,0.4,0.4,0.8,0.8,1c0.4,0.2,0.8,0.3,1.2,0.3
				c0.5,0,1-0.2,1.3-0.5C65.5,179.2,65.7,178.7,65.8,178.1z"/>
			<path class="st0" d="M67.5,178c0-0.9,0.3-1.6,0.8-2.1c0.4-0.4,1-0.6,1.6-0.6c0.7,0,1.3,0.2,1.7,0.7c0.4,0.5,0.7,1.1,0.7,1.9
				c0,0.7-0.1,1.2-0.3,1.6c-0.2,0.4-0.5,0.7-0.9,0.9c-0.4,0.2-0.8,0.3-1.2,0.3c-0.7,0-1.3-0.2-1.7-0.7
				C67.7,179.6,67.5,178.9,67.5,178z M68.4,178c0,0.7,0.1,1.1,0.4,1.5c0.3,0.3,0.6,0.5,1.1,0.5c0.4,0,0.8-0.2,1.1-0.5
				c0.3-0.3,0.4-0.8,0.4-1.5c0-0.6-0.1-1.1-0.4-1.4c-0.3-0.3-0.6-0.5-1.1-0.5c-0.4,0-0.8,0.2-1.1,0.5
				C68.5,176.9,68.4,177.4,68.4,178z"/>
			<path class="st0" d="M76.6,180.6V180c-0.3,0.5-0.8,0.8-1.4,0.8c-0.4,0-0.8-0.1-1.1-0.3c-0.3-0.2-0.6-0.5-0.8-0.9
				c-0.2-0.4-0.3-0.9-0.3-1.4c0-0.5,0.1-1,0.3-1.4c0.2-0.4,0.4-0.7,0.8-1c0.3-0.2,0.7-0.3,1.1-0.3c0.3,0,0.6,0.1,0.8,0.2
				c0.2,0.1,0.4,0.3,0.6,0.5v-2.5h0.9v7.1H76.6z M73.9,178c0,0.7,0.1,1.1,0.4,1.5c0.3,0.3,0.6,0.5,1,0.5c0.4,0,0.7-0.2,1-0.5
				s0.4-0.8,0.4-1.4c0-0.7-0.1-1.2-0.4-1.5c-0.3-0.3-0.6-0.5-1-0.5c-0.4,0-0.7,0.2-1,0.5C74,176.9,73.9,177.4,73.9,178z"/>
			<path class="st0" d="M82.3,179l0.9,0.1c-0.1,0.5-0.4,0.9-0.8,1.2c-0.4,0.3-0.9,0.4-1.5,0.4c-0.7,0-1.3-0.2-1.8-0.7
				c-0.4-0.5-0.7-1.1-0.7-1.9c0-0.9,0.2-1.5,0.7-2c0.4-0.5,1-0.7,1.7-0.7c0.7,0,1.2,0.2,1.7,0.7c0.4,0.5,0.6,1.1,0.6,2
				c0,0.1,0,0.1,0,0.2h-3.8c0,0.6,0.2,1,0.5,1.3c0.3,0.3,0.6,0.4,1.1,0.4c0.3,0,0.6-0.1,0.8-0.2C81.9,179.6,82.1,179.3,82.3,179z
				 M79.4,177.6h2.9c0-0.4-0.1-0.8-0.3-1c-0.3-0.3-0.6-0.5-1.1-0.5c-0.4,0-0.7,0.1-1,0.4C79.6,176.8,79.4,177.1,79.4,177.6z"/>
		</g>
		<g>
			<path class="st50" d="M211.5,212H24.4c-1.2,0-2.1-0.9-2.1-2.1v-19.8c0-1.2,0.9-2.1,2.1-2.1h187.1c1.2,0,2.1,0.9,2.1,2.1v19.8
				C213.6,211,212.7,212,211.5,212z"/>
		</g>
		<g>
			<path class="st51" d="M30.1,203.4v-6.7H35v0.8h-4v2.1h3.7v0.8H31v2.3h4.1v0.8H30.1z"/>
			<path class="st51" d="M35.9,197.9l0.2-0.7c0.5,0.2,0.8,0.3,1.1,0.4c-0.1-0.6-0.1-0.9-0.1-1.1h0.7c0,0.3,0,0.7-0.1,1.1
				c0.3-0.2,0.7-0.3,1.1-0.4l0.2,0.7c-0.4,0.1-0.8,0.2-1.1,0.3c0.2,0.2,0.5,0.5,0.8,0.9l-0.6,0.4c-0.2-0.2-0.4-0.6-0.6-1
				c-0.2,0.4-0.4,0.8-0.6,1l-0.5-0.4c0.4-0.4,0.6-0.7,0.8-0.9C36.6,198.1,36.3,198,35.9,197.9z"/>
			<path class="st51" d="M39.6,197.9l0.2-0.7c0.5,0.2,0.8,0.3,1.1,0.4c-0.1-0.6-0.1-0.9-0.1-1.1h0.7c0,0.3,0,0.7-0.1,1.1
				c0.3-0.2,0.7-0.3,1.1-0.4l0.2,0.7c-0.4,0.1-0.8,0.2-1.1,0.3c0.2,0.2,0.5,0.5,0.8,0.9l-0.6,0.4c-0.2-0.2-0.4-0.6-0.6-1
				c-0.2,0.4-0.4,0.8-0.6,1l-0.5-0.4c0.4-0.4,0.6-0.7,0.8-0.9C40.3,198.1,39.9,198,39.6,197.9z"/>
			<path class="st51" d="M43.2,197.9l0.2-0.7c0.5,0.2,0.8,0.3,1.1,0.4c-0.1-0.6-0.1-0.9-0.1-1.1h0.7c0,0.3,0,0.7-0.1,1.1
				c0.3-0.2,0.7-0.3,1.1-0.4l0.2,0.7c-0.4,0.1-0.8,0.2-1.1,0.3c0.2,0.2,0.5,0.5,0.8,0.9l-0.6,0.4c-0.2-0.2-0.4-0.6-0.6-1
				c-0.2,0.4-0.4,0.8-0.6,1l-0.5-0.4c0.4-0.4,0.6-0.7,0.8-0.9C44,198.1,43.6,198,43.2,197.9z"/>
			<path class="st51" d="M46.9,197.9l0.2-0.7c0.5,0.2,0.8,0.3,1.1,0.4c-0.1-0.6-0.1-0.9-0.1-1.1h0.7c0,0.3,0,0.7-0.1,1.1
				c0.3-0.2,0.7-0.3,1.1-0.4l0.2,0.7c-0.4,0.1-0.8,0.2-1.1,0.3c0.2,0.2,0.5,0.5,0.8,0.9l-0.6,0.4c-0.2-0.2-0.4-0.6-0.6-1
				c-0.2,0.4-0.4,0.8-0.6,1l-0.5-0.4c0.4-0.4,0.6-0.7,0.8-0.9C47.6,198.1,47.2,198,46.9,197.9z"/>
			<path class="st51" d="M50.5,197.9l0.2-0.7c0.5,0.2,0.8,0.3,1.1,0.4c-0.1-0.6-0.1-0.9-0.1-1.1h0.7c0,0.3,0,0.7-0.1,1.1
				c0.3-0.2,0.7-0.3,1.1-0.4l0.2,0.7c-0.4,0.1-0.8,0.2-1.1,0.3c0.2,0.2,0.5,0.5,0.8,0.9l-0.6,0.4c-0.2-0.2-0.4-0.6-0.6-1
				c-0.2,0.4-0.4,0.8-0.6,1l-0.5-0.4c0.4-0.4,0.6-0.7,0.8-0.9C51.3,198.1,50.9,198,50.5,197.9z"/>
		</g>
	</g>
	<g>
		<g>
			<path class="st0" d="M23.1,278.5v-7.1h4.8v0.8H24v2.2h3.3v0.8H24v3.2H23.1z"/>
			<path class="st0" d="M28.9,278.5v-5.1h0.8v0.8c0.2-0.4,0.4-0.6,0.6-0.7c0.2-0.1,0.4-0.2,0.6-0.2c0.3,0,0.6,0.1,0.9,0.3l-0.3,0.8
				c-0.2-0.1-0.4-0.2-0.6-0.2c-0.2,0-0.4,0.1-0.5,0.2c-0.2,0.1-0.3,0.3-0.3,0.5c-0.1,0.3-0.1,0.6-0.1,1v2.7H28.9z"/>
			<path class="st0" d="M31.9,276c0-0.9,0.3-1.6,0.8-2.1c0.4-0.4,1-0.6,1.6-0.6c0.7,0,1.3,0.2,1.7,0.7c0.4,0.5,0.7,1.1,0.7,1.9
				c0,0.7-0.1,1.2-0.3,1.6c-0.2,0.4-0.5,0.7-0.9,0.9c-0.4,0.2-0.8,0.3-1.2,0.3c-0.7,0-1.3-0.2-1.7-0.7
				C32.1,277.5,31.9,276.8,31.9,276z M32.8,276c0,0.7,0.1,1.1,0.4,1.5c0.3,0.3,0.6,0.5,1.1,0.5c0.4,0,0.8-0.2,1.1-0.5
				c0.3-0.3,0.4-0.8,0.4-1.5c0-0.6-0.1-1.1-0.4-1.4c-0.3-0.3-0.6-0.5-1.1-0.5c-0.4,0-0.8,0.2-1.1,0.5
				C32.9,274.8,32.8,275.3,32.8,276z"/>
			<path class="st0" d="M37.7,278.5v-5.1h0.8v0.7c0.2-0.3,0.4-0.5,0.6-0.6c0.3-0.2,0.6-0.2,0.9-0.2c0.4,0,0.7,0.1,0.9,0.2
				c0.2,0.2,0.4,0.4,0.5,0.7c0.4-0.6,0.9-0.9,1.6-0.9c0.5,0,0.9,0.1,1.2,0.4c0.3,0.3,0.4,0.7,0.4,1.3v3.5h-0.9v-3.2
				c0-0.3,0-0.6-0.1-0.7c-0.1-0.2-0.2-0.3-0.3-0.4c-0.1-0.1-0.3-0.1-0.5-0.1c-0.4,0-0.7,0.1-0.9,0.4c-0.2,0.2-0.4,0.6-0.4,1.1v3
				h-0.9v-3.3c0-0.4-0.1-0.7-0.2-0.9c-0.1-0.2-0.4-0.3-0.7-0.3c-0.2,0-0.5,0.1-0.7,0.2c-0.2,0.1-0.4,0.3-0.4,0.6
				c-0.1,0.2-0.1,0.6-0.1,1.1v2.7H37.7z"/>
			<path class="st0" d="M48.8,278.5v-7.1h2.4c0.5,0,1,0,1.3,0.1c0.4,0.1,0.7,0.3,1,0.5c0.4,0.3,0.7,0.7,0.8,1.2
				c0.2,0.5,0.3,1,0.3,1.7c0,0.5-0.1,1-0.2,1.4c-0.1,0.4-0.3,0.8-0.5,1c-0.2,0.3-0.4,0.5-0.6,0.6c-0.2,0.2-0.5,0.3-0.8,0.4
				c-0.3,0.1-0.7,0.1-1.1,0.1H48.8z M49.7,277.7h1.5c0.5,0,0.8,0,1.1-0.1c0.3-0.1,0.5-0.2,0.6-0.4c0.2-0.2,0.4-0.5,0.5-0.9
				c0.1-0.4,0.2-0.8,0.2-1.4c0-0.7-0.1-1.3-0.4-1.7c-0.2-0.4-0.5-0.7-0.9-0.8c-0.3-0.1-0.7-0.1-1.2-0.1h-1.5V277.7z"/>
			<path class="st0" d="M59.1,277.9c-0.3,0.3-0.6,0.5-0.9,0.6c-0.3,0.1-0.6,0.2-1,0.2c-0.6,0-1-0.1-1.3-0.4s-0.5-0.6-0.5-1.1
				c0-0.2,0.1-0.5,0.2-0.7c0.1-0.2,0.3-0.4,0.4-0.5c0.2-0.1,0.4-0.2,0.6-0.3c0.2,0,0.4-0.1,0.8-0.1c0.7-0.1,1.2-0.2,1.5-0.3
				c0-0.1,0-0.2,0-0.2c0-0.4-0.1-0.6-0.2-0.7c-0.2-0.2-0.6-0.3-1-0.3c-0.4,0-0.7,0.1-0.9,0.2c-0.2,0.1-0.3,0.4-0.4,0.8l-0.8-0.1
				c0.1-0.4,0.2-0.7,0.4-0.9c0.2-0.2,0.4-0.4,0.8-0.5c0.3-0.1,0.7-0.2,1.2-0.2c0.4,0,0.8,0.1,1.1,0.2c0.3,0.1,0.5,0.2,0.6,0.4
				c0.1,0.2,0.2,0.4,0.3,0.6c0,0.1,0,0.4,0,0.8v1.2c0,0.8,0,1.3,0.1,1.5c0,0.2,0.1,0.4,0.2,0.6h-0.9
				C59.2,278.4,59.1,278.1,59.1,277.9z M59,276c-0.3,0.1-0.8,0.2-1.4,0.3c-0.4,0.1-0.6,0.1-0.8,0.2c-0.1,0.1-0.3,0.2-0.3,0.3
				c-0.1,0.1-0.1,0.3-0.1,0.4c0,0.2,0.1,0.4,0.3,0.6c0.2,0.2,0.4,0.2,0.8,0.2c0.3,0,0.6-0.1,0.9-0.2c0.3-0.1,0.4-0.3,0.6-0.6
				c0.1-0.2,0.1-0.5,0.1-0.9V276z"/>
			<path class="st0" d="M63.1,277.8l0.1,0.8c-0.2,0.1-0.5,0.1-0.7,0.1c-0.3,0-0.6,0-0.7-0.1c-0.2-0.1-0.3-0.2-0.4-0.4
				c-0.1-0.2-0.1-0.5-0.1-1v-2.9h-0.6v-0.7h0.6v-1.3l0.9-0.5v1.8h0.9v0.7h-0.9v3c0,0.2,0,0.4,0,0.5c0,0.1,0.1,0.1,0.1,0.2
				s0.2,0.1,0.3,0.1C62.9,277.8,63,277.8,63.1,277.8z"/>
			<path class="st0" d="M67.5,276.9l0.9,0.1c-0.1,0.5-0.4,0.9-0.8,1.2c-0.4,0.3-0.9,0.4-1.5,0.4c-0.7,0-1.3-0.2-1.8-0.7
				c-0.4-0.5-0.7-1.1-0.7-1.9c0-0.9,0.2-1.5,0.7-2c0.4-0.5,1-0.7,1.7-0.7c0.7,0,1.2,0.2,1.7,0.7c0.4,0.5,0.6,1.1,0.6,2
				c0,0.1,0,0.1,0,0.2h-3.8c0,0.6,0.2,1,0.5,1.3c0.3,0.3,0.6,0.4,1.1,0.4c0.3,0,0.6-0.1,0.8-0.3C67.2,277.5,67.3,277.3,67.5,276.9z
				 M64.6,275.5h2.9c0-0.4-0.1-0.8-0.3-1c-0.3-0.3-0.6-0.5-1.1-0.5c-0.4,0-0.7,0.1-1,0.4C64.8,274.7,64.7,275,64.6,275.5z"/>
		</g>
		<g>
			<path class="st50" d="M211.5,309.9H24.4c-1.2,0-2.1-0.9-2.1-2.1V288c0-1.2,0.9-2.1,2.1-2.1h187.1c1.2,0,2.1,0.9,2.1,2.1v19.8
				C213.6,309,212.7,309.9,211.5,309.9z"/>
		</g>
		<g>
			<g>
				<path class="st33" d="M96.7,299.8c0-0.8,0.5-1.3,1.2-1.6l0,0c-0.7-0.3-1-0.8-1-1.4c0-1,0.8-1.6,1.9-1.6c1.2,0,1.8,0.7,1.8,1.5
					c0,0.5-0.3,1.1-1,1.4v0c0.8,0.3,1.2,0.8,1.2,1.6c0,1.1-0.9,1.8-2.1,1.8C97.4,301.5,96.7,300.7,96.7,299.8z M99.9,299.8
					c0-0.7-0.5-1.1-1.3-1.3c-0.7,0.2-1.1,0.7-1.1,1.3c0,0.6,0.4,1.2,1.2,1.2C99.5,300.9,99.9,300.4,99.9,299.8z M97.7,296.7
					c0,0.6,0.5,0.9,1.2,1.1c0.5-0.2,0.9-0.6,0.9-1.1c0-0.5-0.3-1-1-1C98,295.8,97.7,296.2,97.7,296.7z"/>
				<path class="st33" d="M105.1,295h0.8v4.2c0,1.7-0.8,2.2-1.9,2.2c-0.3,0-0.7-0.1-0.9-0.2l0.1-0.7c0.2,0.1,0.4,0.1,0.7,0.1
					c0.7,0,1.2-0.3,1.2-1.6V295z"/>
				<path class="st33" d="M109.8,301.4l-0.1-0.6h0c-0.3,0.4-0.7,0.7-1.4,0.7c-0.9,0-1.4-0.6-1.4-1.3c0-1.1,1-1.7,2.7-1.7v-0.1
					c0-0.4-0.1-1.1-1-1.1c-0.4,0-0.9,0.1-1.2,0.3l-0.2-0.5c0.4-0.2,0.9-0.4,1.5-0.4c1.4,0,1.7,0.9,1.7,1.9v1.7c0,0.4,0,0.8,0.1,1.1
					H109.8z M109.7,299.1c-0.9,0-1.9,0.1-1.9,1c0,0.5,0.4,0.8,0.8,0.8c0.6,0,1-0.4,1.1-0.8c0-0.1,0-0.2,0-0.3V299.1z"/>
				<path class="st33" d="M111.8,298.1c0-0.5,0-0.9,0-1.2h0.7l0,0.8h0c0.2-0.4,0.8-0.9,1.5-0.9c0.6,0,1.6,0.4,1.6,1.9v2.7h-0.8v-2.6
					c0-0.7-0.3-1.3-1.1-1.3c-0.5,0-1,0.4-1.1,0.8c0,0.1-0.1,0.2-0.1,0.4v2.7h-0.8V298.1z"/>
				<path class="st33" d="M116.5,302.5c0.2-0.6,0.5-1.6,0.6-2.2l0.9-0.1c-0.2,0.8-0.6,1.8-0.9,2.3L116.5,302.5z"/>
				<path class="st33" d="M120.7,301.4v-0.5l0.6-0.6c1.6-1.5,2.3-2.3,2.3-3.2c0-0.6-0.3-1.2-1.2-1.2c-0.6,0-1,0.3-1.3,0.5l-0.3-0.6
					c0.4-0.4,1-0.6,1.7-0.6c1.3,0,1.9,0.9,1.9,1.8c0,1.1-0.8,2-2.1,3.3l-0.5,0.5v0h2.7v0.7H120.7z"/>
				<path class="st33" d="M129.6,298.3c0,2.1-0.8,3.2-2.1,3.2c-1.2,0-2-1.1-2-3.1c0-2.1,0.9-3.2,2.1-3.2
					C128.9,295.2,129.6,296.3,129.6,298.3z M126.3,298.4c0,1.6,0.5,2.5,1.2,2.5c0.8,0,1.3-1,1.3-2.5c0-1.5-0.4-2.5-1.2-2.5
					C126.8,295.8,126.3,296.7,126.3,298.4z"/>
				<path class="st33" d="M130.4,301.4v-0.5l0.6-0.6c1.6-1.5,2.3-2.3,2.3-3.2c0-0.6-0.3-1.2-1.2-1.2c-0.6,0-1,0.3-1.3,0.5l-0.3-0.6
					c0.4-0.4,1-0.6,1.7-0.6c1.3,0,1.9,0.9,1.9,1.8c0,1.1-0.8,2-2.1,3.3l-0.5,0.5v0h2.7v0.7H130.4z"/>
				<path class="st33" d="M137.7,301.4v-1.7h-2.8v-0.5l2.7-3.9h0.9v3.8h0.9v0.6h-0.9v1.7H137.7z M137.7,299.1v-2c0-0.3,0-0.6,0-1h0
					c-0.2,0.4-0.3,0.6-0.5,0.9l-1.5,2.1v0H137.7z"/>
			</g>
		</g>
	</g>
	<g>
		<g>
			<path class="st0" d="M23.1,229.6v-7.1h3.1c0.6,0,1.1,0.1,1.4,0.2s0.6,0.4,0.8,0.7c0.2,0.3,0.3,0.7,0.3,1.1c0,0.5-0.2,0.9-0.5,1.3
				c-0.3,0.3-0.8,0.6-1.5,0.7c0.2,0.1,0.4,0.2,0.6,0.4c0.3,0.2,0.5,0.6,0.8,0.9l1.2,1.9h-1.2l-0.9-1.5c-0.3-0.4-0.5-0.7-0.7-1
				c-0.2-0.2-0.3-0.4-0.5-0.5c-0.1-0.1-0.3-0.2-0.4-0.2c-0.1,0-0.3,0-0.5,0H24v3.1H23.1z M24,225.6h2c0.4,0,0.8,0,1-0.1
				c0.2-0.1,0.4-0.2,0.5-0.4c0.1-0.2,0.2-0.4,0.2-0.6c0-0.3-0.1-0.6-0.4-0.8c-0.2-0.2-0.6-0.3-1.1-0.3H24V225.6z"/>
			<path class="st0" d="M33.5,227.9l0.9,0.1c-0.1,0.5-0.4,0.9-0.8,1.2c-0.4,0.3-0.9,0.4-1.5,0.4c-0.7,0-1.3-0.2-1.8-0.7
				c-0.4-0.5-0.7-1.1-0.7-1.9c0-0.9,0.2-1.5,0.7-2c0.4-0.5,1-0.7,1.7-0.7c0.7,0,1.2,0.2,1.7,0.7c0.4,0.5,0.6,1.1,0.6,2
				c0,0.1,0,0.1,0,0.2h-3.8c0,0.6,0.2,1,0.5,1.3c0.3,0.3,0.6,0.4,1.1,0.4c0.3,0,0.6-0.1,0.8-0.2C33.2,228.6,33.4,228.3,33.5,227.9z
				 M30.7,226.5h2.9c0-0.4-0.1-0.8-0.3-1c-0.3-0.3-0.6-0.5-1.1-0.5c-0.4,0-0.7,0.1-1,0.4C30.9,225.7,30.7,226.1,30.7,226.5z"/>
			<path class="st0" d="M35.5,231.5v-7.1h0.8v0.7c0.2-0.3,0.4-0.5,0.6-0.6c0.2-0.1,0.5-0.2,0.9-0.2c0.4,0,0.8,0.1,1.2,0.3
				c0.3,0.2,0.6,0.5,0.8,0.9c0.2,0.4,0.3,0.9,0.3,1.3c0,0.5-0.1,1-0.3,1.4c-0.2,0.4-0.5,0.7-0.8,1c-0.4,0.2-0.7,0.3-1.1,0.3
				c-0.3,0-0.5-0.1-0.8-0.2c-0.2-0.1-0.4-0.3-0.6-0.5v2.5H35.5z M36.3,227c0,0.7,0.1,1.1,0.4,1.5c0.3,0.3,0.6,0.5,1,0.5
				c0.4,0,0.7-0.2,1-0.5c0.3-0.3,0.4-0.8,0.4-1.5c0-0.7-0.1-1.1-0.4-1.5c-0.3-0.3-0.6-0.5-1-0.5c-0.4,0-0.7,0.2-1,0.5
				C36.5,225.9,36.3,226.4,36.3,227z"/>
			<path class="st0" d="M40.7,227c0-0.9,0.3-1.6,0.8-2.1c0.4-0.4,1-0.6,1.6-0.6c0.7,0,1.3,0.2,1.7,0.7c0.4,0.5,0.7,1.1,0.7,1.9
				c0,0.7-0.1,1.2-0.3,1.6c-0.2,0.4-0.5,0.7-0.9,0.9c-0.4,0.2-0.8,0.3-1.2,0.3c-0.7,0-1.3-0.2-1.7-0.7
				C40.9,228.5,40.7,227.9,40.7,227z M41.6,227c0,0.7,0.1,1.1,0.4,1.5c0.3,0.3,0.6,0.5,1.1,0.5c0.4,0,0.8-0.2,1.1-0.5
				c0.3-0.3,0.4-0.8,0.4-1.5c0-0.6-0.1-1.1-0.4-1.4c-0.3-0.3-0.6-0.5-1.1-0.5c-0.4,0-0.8,0.2-1.1,0.5
				C41.7,225.9,41.6,226.4,41.6,227z"/>
			<path class="st0" d="M46.5,229.6v-5.1h0.8v0.8c0.2-0.4,0.4-0.6,0.6-0.7c0.2-0.1,0.4-0.2,0.6-0.2c0.3,0,0.6,0.1,0.9,0.3l-0.3,0.8
				c-0.2-0.1-0.4-0.2-0.6-0.2c-0.2,0-0.4,0.1-0.5,0.2c-0.2,0.1-0.3,0.3-0.3,0.5c-0.1,0.3-0.1,0.6-0.1,1v2.7H46.5z"/>
			<path class="st0" d="M51.7,228.8l0.1,0.8c-0.2,0.1-0.5,0.1-0.7,0.1c-0.3,0-0.6-0.1-0.7-0.1c-0.2-0.1-0.3-0.2-0.4-0.4
				c-0.1-0.2-0.1-0.5-0.1-1v-2.9h-0.6v-0.7h0.6v-1.3l0.9-0.5v1.8h0.9v0.7h-0.9v3c0,0.2,0,0.4,0,0.5c0,0.1,0.1,0.1,0.1,0.2
				c0.1,0,0.2,0.1,0.3,0.1C51.4,228.8,51.5,228.8,51.7,228.8z"/>
			<path class="st0" d="M55.1,226.1c0-1.2,0.3-2.1,0.9-2.7c0.6-0.7,1.4-1,2.4-1c0.7,0,1.2,0.2,1.8,0.5c0.5,0.3,0.9,0.7,1.2,1.3
				c0.3,0.6,0.4,1.2,0.4,1.9c0,0.7-0.1,1.4-0.4,1.9c-0.3,0.6-0.7,1-1.2,1.3c-0.5,0.3-1.1,0.4-1.7,0.4c-0.7,0-1.3-0.2-1.8-0.5
				c-0.5-0.3-0.9-0.8-1.2-1.3C55.2,227.3,55.1,226.8,55.1,226.1z M56,226.1c0,0.8,0.2,1.5,0.7,2c0.5,0.5,1,0.7,1.7,0.7
				c0.7,0,1.3-0.2,1.7-0.7c0.5-0.5,0.7-1.2,0.7-2.1c0-0.6-0.1-1.1-0.3-1.5c-0.2-0.4-0.5-0.8-0.9-1c-0.4-0.2-0.8-0.4-1.3-0.4
				c-0.7,0-1.2,0.2-1.7,0.7C56.3,224.3,56,225.1,56,226.1z"/>
			<path class="st0" d="M62.9,231.5v-7.1h0.8v0.7c0.2-0.3,0.4-0.5,0.6-0.6c0.2-0.1,0.5-0.2,0.9-0.2c0.4,0,0.8,0.1,1.2,0.3
				c0.3,0.2,0.6,0.5,0.8,0.9c0.2,0.4,0.3,0.9,0.3,1.3c0,0.5-0.1,1-0.3,1.4c-0.2,0.4-0.5,0.7-0.8,1c-0.4,0.2-0.7,0.3-1.1,0.3
				c-0.3,0-0.5-0.1-0.8-0.2c-0.2-0.1-0.4-0.3-0.6-0.5v2.5H62.9z M63.7,227c0,0.7,0.1,1.1,0.4,1.5c0.3,0.3,0.6,0.5,1,0.5
				c0.4,0,0.7-0.2,1-0.5c0.3-0.3,0.4-0.8,0.4-1.5c0-0.7-0.1-1.1-0.4-1.5c-0.3-0.3-0.6-0.5-1-0.5c-0.4,0-0.7,0.2-1,0.5
				C63.8,225.9,63.7,226.4,63.7,227z"/>
			<path class="st0" d="M70.3,228.8l0.1,0.8c-0.2,0.1-0.5,0.1-0.7,0.1c-0.3,0-0.6-0.1-0.7-0.1c-0.2-0.1-0.3-0.2-0.4-0.4
				c-0.1-0.2-0.1-0.5-0.1-1v-2.9h-0.6v-0.7h0.6v-1.3l0.9-0.5v1.8h0.9v0.7h-0.9v3c0,0.2,0,0.4,0,0.5c0,0.1,0.1,0.1,0.1,0.2
				c0.1,0,0.2,0.1,0.3,0.1C70,228.8,70.1,228.8,70.3,228.8z"/>
			<path class="st0" d="M71.1,223.5v-1H72v1H71.1z M71.1,229.6v-5.1H72v5.1H71.1z"/>
			<path class="st0" d="M73,227c0-0.9,0.3-1.6,0.8-2.1c0.4-0.4,1-0.6,1.6-0.6c0.7,0,1.3,0.2,1.7,0.7c0.4,0.5,0.7,1.1,0.7,1.9
				c0,0.7-0.1,1.2-0.3,1.6c-0.2,0.4-0.5,0.7-0.9,0.9c-0.4,0.2-0.8,0.3-1.2,0.3c-0.7,0-1.3-0.2-1.7-0.7C73.2,228.5,73,227.9,73,227z
				 M73.9,227c0,0.7,0.1,1.1,0.4,1.5c0.3,0.3,0.6,0.5,1.1,0.5c0.4,0,0.8-0.2,1.1-0.5c0.3-0.3,0.4-0.8,0.4-1.5c0-0.6-0.1-1.1-0.4-1.4
				c-0.3-0.3-0.6-0.5-1.1-0.5c-0.4,0-0.8,0.2-1.1,0.5C74,225.9,73.9,226.4,73.9,227z"/>
			<path class="st0" d="M78.8,229.6v-5.1h0.8v0.7c0.4-0.6,0.9-0.8,1.6-0.8c0.3,0,0.6,0.1,0.8,0.2c0.3,0.1,0.5,0.3,0.6,0.4
				c0.1,0.2,0.2,0.4,0.3,0.6c0,0.2,0,0.4,0,0.8v3.1h-0.9v-3.1c0-0.4,0-0.6-0.1-0.8c-0.1-0.2-0.2-0.3-0.4-0.4
				c-0.2-0.1-0.4-0.2-0.6-0.2c-0.4,0-0.7,0.1-1,0.4c-0.3,0.2-0.4,0.7-0.4,1.3v2.8H78.8z"/>
		</g>
		<g>
			<path class="st50" d="M211.5,261H24.4c-1.2,0-2.1-0.9-2.1-2.1v-19.8c0-1.2,0.9-2.1,2.1-2.1h187.1c1.2,0,2.1,0.9,2.1,2.1v19.8
				C213.6,260,212.7,261,211.5,261z"/>
		</g>
		<g>
			<g>
				<path class="st52" d="M28.9,252.2c-0.3,0.2-0.9,0.3-1.7,0.3c-1.8,0-3.1-1.1-3.1-3.2c0-2,1.3-3.3,3.3-3.3c0.8,0,1.3,0.2,1.5,0.3
					l-0.2,0.7c-0.3-0.2-0.8-0.3-1.3-0.3c-1.5,0-2.5,0.9-2.5,2.6c0,1.6,0.9,2.5,2.4,2.5c0.5,0,1-0.1,1.3-0.3L28.9,252.2z"/>
				<path class="st52" d="M32.3,252.4l-0.1-0.6h0c-0.3,0.4-0.7,0.7-1.4,0.7c-0.9,0-1.4-0.6-1.4-1.3c0-1.1,1-1.7,2.7-1.7v-0.1
					c0-0.4-0.1-1.1-1-1.1c-0.4,0-0.9,0.1-1.2,0.3l-0.2-0.5c0.4-0.2,0.9-0.4,1.5-0.4c1.4,0,1.7,0.9,1.7,1.9v1.7c0,0.4,0,0.8,0.1,1.1
					H32.3z M32.2,250.1c-0.9,0-1.9,0.1-1.9,1c0,0.5,0.4,0.8,0.8,0.8c0.6,0,1-0.4,1.1-0.8c0-0.1,0-0.2,0-0.3V250.1z"/>
				<path class="st52" d="M34.2,251.6c0.2,0.2,0.7,0.3,1.1,0.3c0.6,0,0.9-0.3,0.9-0.7c0-0.4-0.2-0.6-0.8-0.8
					c-0.8-0.3-1.2-0.7-1.2-1.3c0-0.7,0.6-1.3,1.6-1.3c0.5,0,0.9,0.1,1.1,0.3l-0.2,0.6c-0.2-0.1-0.5-0.3-0.9-0.3
					c-0.5,0-0.8,0.3-0.8,0.6c0,0.4,0.3,0.5,0.9,0.8c0.8,0.3,1.2,0.7,1.2,1.4c0,0.8-0.6,1.4-1.7,1.4c-0.5,0-1-0.1-1.3-0.3L34.2,251.6
					z"/>
				<path class="st52" d="M38.1,245.7h0.8v2.8h0c0.1-0.2,0.3-0.4,0.6-0.6c0.2-0.1,0.5-0.2,0.8-0.2c0.6,0,1.6,0.4,1.6,1.9v2.7h-0.8
					v-2.6c0-0.7-0.3-1.4-1.1-1.4c-0.5,0-1,0.4-1.1,0.8c0,0.1-0.1,0.2-0.1,0.4v2.7h-0.8V245.7z"/>
				<path class="st52" d="M45.3,246.2c0.5-0.1,1.1-0.1,1.7-0.1c1.2,0,2,0.3,2.6,0.8c0.6,0.5,0.9,1.3,0.9,2.3c0,1-0.3,1.9-0.9,2.5
					c-0.6,0.6-1.6,0.9-2.8,0.9c-0.6,0-1.1,0-1.5-0.1V246.2z M46.1,251.8c0.2,0,0.5,0,0.8,0c1.7,0,2.7-1,2.7-2.7
					c0-1.5-0.8-2.4-2.6-2.4c-0.4,0-0.7,0-1,0.1V251.8z"/>
				<path class="st52" d="M52.4,246.6c0,0.3-0.2,0.5-0.5,0.5c-0.3,0-0.5-0.2-0.5-0.5c0-0.3,0.2-0.5,0.5-0.5
					C52.3,246.1,52.4,246.3,52.4,246.6z M51.5,252.4v-4.6h0.8v4.6H51.5z"/>
				<path class="st52" d="M54,247.9l0.9,2.6c0.2,0.4,0.3,0.8,0.4,1.2h0c0.1-0.4,0.2-0.8,0.4-1.2l0.9-2.6h0.9l-1.8,4.6h-0.8l-1.7-4.6
					H54z"/>
				<path class="st52" d="M59.2,246.6c0,0.3-0.2,0.5-0.5,0.5c-0.3,0-0.5-0.2-0.5-0.5c0-0.3,0.2-0.5,0.5-0.5
					C59,246.1,59.2,246.3,59.2,246.6z M58.3,252.4v-4.6h0.8v4.6H58.3z"/>
				<path class="st52" d="M64.4,245.7v5.5c0,0.4,0,0.9,0,1.2h-0.7l0-0.8h0c-0.3,0.5-0.8,0.9-1.6,0.9c-1.1,0-1.9-0.9-1.9-2.3
					c0-1.5,0.9-2.4,2-2.4c0.7,0,1.2,0.3,1.4,0.7h0v-2.7H64.4z M63.6,249.7c0-0.1,0-0.2,0-0.3c-0.1-0.5-0.6-1-1.2-1
					c-0.9,0-1.4,0.8-1.4,1.8c0,0.9,0.5,1.7,1.3,1.7c0.6,0,1.1-0.4,1.2-1c0-0.1,0-0.2,0-0.4V249.7z"/>
				<path class="st52" d="M66.2,250.3c0,1.1,0.7,1.6,1.6,1.6c0.6,0,0.9-0.1,1.3-0.2l0.1,0.6c-0.3,0.1-0.8,0.3-1.5,0.3
					c-1.4,0-2.2-0.9-2.2-2.3s0.8-2.5,2.1-2.5c1.5,0,1.9,1.3,1.9,2.1c0,0.2,0,0.3,0,0.4H66.2z M68.6,249.7c0-0.5-0.2-1.3-1.1-1.3
					c-0.8,0-1.2,0.8-1.3,1.3H68.6z"/>
				<path class="st52" d="M70.5,249.1c0-0.5,0-0.9,0-1.2h0.7l0,0.8h0c0.2-0.4,0.8-0.9,1.5-0.9c0.6,0,1.6,0.4,1.6,1.9v2.7h-0.8v-2.6
					c0-0.7-0.3-1.3-1.1-1.3c-0.5,0-1,0.4-1.1,0.8c0,0.1-0.1,0.2-0.1,0.4v2.7h-0.8V249.1z"/>
				<path class="st52" d="M79.6,245.7v5.5c0,0.4,0,0.9,0,1.2h-0.7l0-0.8h0c-0.3,0.5-0.8,0.9-1.6,0.9c-1.1,0-1.9-0.9-1.9-2.3
					c0-1.5,0.9-2.4,2-2.4c0.7,0,1.2,0.3,1.4,0.7h0v-2.7H79.6z M78.8,249.7c0-0.1,0-0.2,0-0.3c-0.1-0.5-0.6-1-1.2-1
					c-0.9,0-1.4,0.8-1.4,1.8c0,0.9,0.5,1.7,1.3,1.7c0.6,0,1.1-0.4,1.2-1c0-0.1,0-0.2,0-0.4V249.7z"/>
				<path class="st52" d="M87.4,252.2c-0.3,0.2-0.9,0.3-1.7,0.3c-1.8,0-3.1-1.1-3.1-3.2c0-2,1.3-3.3,3.3-3.3c0.8,0,1.3,0.2,1.5,0.3
					l-0.2,0.7c-0.3-0.2-0.8-0.3-1.3-0.3c-1.5,0-2.5,0.9-2.5,2.6c0,1.6,0.9,2.5,2.4,2.5c0.5,0,1-0.1,1.3-0.3L87.4,252.2z"/>
				<path class="st52" d="M92.5,250.1c0,1.7-1.2,2.4-2.3,2.4c-1.2,0-2.2-0.9-2.2-2.3c0-1.5,1-2.4,2.3-2.4
					C91.6,247.8,92.5,248.7,92.5,250.1z M88.8,250.1c0,1,0.6,1.7,1.4,1.7c0.8,0,1.4-0.7,1.4-1.8c0-0.8-0.4-1.7-1.4-1.7
					S88.8,249.3,88.8,250.1z"/>
				<path class="st52" d="M93.5,245.7h0.8v6.7h-0.8V245.7z"/>
				<path class="st52" d="M95.7,245.7h0.8v6.7h-0.8V245.7z"/>
				<path class="st52" d="M98.4,250.3c0,1.1,0.7,1.6,1.6,1.6c0.6,0,1-0.1,1.3-0.2l0.1,0.6c-0.3,0.1-0.8,0.3-1.5,0.3
					c-1.4,0-2.2-0.9-2.2-2.3s0.8-2.5,2.1-2.5c1.5,0,1.9,1.3,1.9,2.1c0,0.2,0,0.3,0,0.4H98.4z M100.8,249.7c0-0.5-0.2-1.3-1.1-1.3
					c-0.8,0-1.2,0.8-1.3,1.3H100.8z"/>
				<path class="st52" d="M105.9,252.2c-0.2,0.1-0.7,0.3-1.3,0.3c-1.4,0-2.3-0.9-2.3-2.3c0-1.4,1-2.4,2.4-2.4c0.5,0,0.9,0.1,1.1,0.2
					l-0.2,0.6c-0.2-0.1-0.5-0.2-1-0.2c-1,0-1.6,0.8-1.6,1.7c0,1.1,0.7,1.7,1.6,1.7c0.5,0,0.8-0.1,1-0.2L105.9,252.2z"/>
				<path class="st52" d="M108,246.6v1.3h1.2v0.6H108v2.5c0,0.6,0.2,0.9,0.6,0.9c0.2,0,0.4,0,0.5-0.1l0,0.6
					c-0.2,0.1-0.4,0.1-0.7,0.1c-0.4,0-0.7-0.1-0.9-0.3c-0.2-0.2-0.3-0.6-0.3-1.2v-2.5h-0.7v-0.6h0.7v-1.1L108,246.6z"/>
				<path class="st52" d="M110.5,250.3c0,1.1,0.7,1.6,1.6,1.6c0.6,0,1-0.1,1.3-0.2l0.1,0.6c-0.3,0.1-0.8,0.3-1.5,0.3
					c-1.4,0-2.2-0.9-2.2-2.3s0.8-2.5,2.1-2.5c1.5,0,1.9,1.3,1.9,2.1c0,0.2,0,0.3,0,0.4H110.5z M112.9,249.7c0-0.5-0.2-1.3-1.1-1.3
					c-0.8,0-1.2,0.8-1.3,1.3H112.9z"/>
				<path class="st52" d="M118.7,245.7v5.5c0,0.4,0,0.9,0,1.2H118l0-0.8h0c-0.3,0.5-0.8,0.9-1.6,0.9c-1.1,0-1.9-0.9-1.9-2.3
					c0-1.5,0.9-2.4,2-2.4c0.7,0,1.2,0.3,1.4,0.7h0v-2.7H118.7z M117.9,249.7c0-0.1,0-0.2,0-0.3c-0.1-0.5-0.6-1-1.2-1
					c-0.9,0-1.4,0.8-1.4,1.8c0,0.9,0.5,1.7,1.3,1.7c0.6,0,1.1-0.4,1.2-1c0-0.1,0-0.2,0-0.4V249.7z"/>
				<path class="st52" d="M122,252.4c0-0.3,0-0.8,0-1.2v-5.5h0.8v2.9h0c0.3-0.5,0.8-0.8,1.6-0.8c1.1,0,1.9,0.9,1.9,2.3
					c0,1.6-1,2.4-2,2.4c-0.7,0-1.2-0.3-1.5-0.9h0l0,0.8H122z M122.9,250.6c0,0.1,0,0.2,0,0.3c0.2,0.6,0.6,1,1.2,1
					c0.9,0,1.4-0.7,1.4-1.7c0-0.9-0.5-1.7-1.4-1.7c-0.6,0-1.1,0.4-1.3,1c0,0.1,0,0.2,0,0.3V250.6z"/>
				<path class="st52" d="M127.6,247.9l1,2.7c0.1,0.3,0.2,0.7,0.3,0.9h0c0.1-0.3,0.2-0.6,0.3-0.9l0.9-2.7h0.9l-1.2,3.2
					c-0.6,1.6-1,2.4-1.6,2.8c-0.4,0.4-0.8,0.5-1,0.5l-0.2-0.7c0.2-0.1,0.5-0.2,0.7-0.4c0.2-0.2,0.5-0.5,0.7-0.9
					c0-0.1,0.1-0.2,0.1-0.2c0,0,0-0.1-0.1-0.2l-1.7-4.2H127.6z"/>
				<path class="st52" d="M133.8,246.1h0.8v5.7h2.7v0.7h-3.5V246.1z"/>
				<path class="st52" d="M138.2,246.2c0.4-0.1,0.9-0.1,1.5-0.1c0.8,0,1.3,0.1,1.7,0.5c0.3,0.2,0.5,0.6,0.5,1.1
					c0,0.6-0.4,1.1-1.1,1.4v0c0.6,0.2,1.3,0.6,1.3,1.6c0,0.5-0.2,1-0.5,1.3c-0.4,0.4-1.2,0.6-2.2,0.6c-0.6,0-1,0-1.3-0.1V246.2z
					 M139,248.8h0.7c0.9,0,1.4-0.5,1.4-1.1c0-0.7-0.6-1-1.4-1c-0.4,0-0.6,0-0.7,0.1V248.8z M139,251.8c0.2,0,0.4,0,0.7,0
					c0.8,0,1.6-0.3,1.6-1.2c0-0.9-0.7-1.2-1.6-1.2H139V251.8z"/>
				<path class="st52" d="M143.2,251.4c0.4,0.2,0.9,0.4,1.5,0.4c0.8,0,1.3-0.4,1.3-1.1c0-0.6-0.3-0.9-1.2-1.3
					c-1-0.4-1.7-0.9-1.7-1.8c0-1,0.8-1.7,2.1-1.7c0.6,0,1.1,0.2,1.4,0.3l-0.2,0.7c-0.2-0.1-0.6-0.3-1.2-0.3c-0.9,0-1.2,0.5-1.2,0.9
					c0,0.6,0.4,0.9,1.3,1.2c1.1,0.4,1.6,0.9,1.6,1.9c0,1-0.7,1.8-2.2,1.8c-0.6,0-1.3-0.2-1.6-0.4L143.2,251.4z"/>
				<path class="st52" d="M148,246.1h0.8v5.7h2.7v0.7H148V246.1z"/>
				<path class="st52" d="M156.2,245.9c-0.7,0.9-1.2,2.1-1.2,3.8c0,1.7,0.5,2.9,1.2,3.8h-0.6c-0.6-0.8-1.2-2-1.2-3.8
					c0-1.9,0.6-3.1,1.2-3.8H156.2z"/>
				<path class="st52" d="M157.1,246.2c0.4-0.1,1-0.1,1.6-0.1c0.9,0,1.4,0.2,1.8,0.5c0.3,0.3,0.5,0.7,0.5,1.2c0,0.8-0.5,1.4-1.2,1.6
					v0c0.5,0.2,0.8,0.6,0.9,1.3c0.2,0.9,0.4,1.5,0.5,1.7h-0.8c-0.1-0.2-0.2-0.7-0.4-1.5c-0.2-0.9-0.5-1.2-1.3-1.2h-0.8v2.7h-0.8
					V246.2z M157.9,249h0.8c0.9,0,1.4-0.5,1.4-1.2c0-0.8-0.6-1.2-1.5-1.2c-0.4,0-0.7,0-0.8,0.1V249z"/>
				<path class="st52" d="M162.6,250.3c0,1.1,0.7,1.6,1.6,1.6c0.6,0,0.9-0.1,1.3-0.2l0.1,0.6c-0.3,0.1-0.8,0.3-1.5,0.3
					c-1.4,0-2.2-0.9-2.2-2.3s0.8-2.5,2.1-2.5c1.5,0,1.9,1.3,1.9,2.1c0,0.2,0,0.3,0,0.4H162.6z M165,249.7c0-0.5-0.2-1.3-1.1-1.3
					c-0.8,0-1.2,0.8-1.3,1.3H165z"/>
				<path class="st52" d="M170.1,252.2c-0.2,0.1-0.7,0.3-1.3,0.3c-1.4,0-2.3-0.9-2.3-2.3c0-1.4,1-2.4,2.4-2.4c0.5,0,0.9,0.1,1.1,0.2
					l-0.2,0.6c-0.2-0.1-0.5-0.2-1-0.2c-1,0-1.6,0.8-1.6,1.7c0,1.1,0.7,1.7,1.6,1.7c0.5,0,0.8-0.1,1-0.2L170.1,252.2z"/>
				<path class="st52" d="M171.5,250.3c0,1.1,0.7,1.6,1.6,1.6c0.6,0,0.9-0.1,1.3-0.2l0.1,0.6c-0.3,0.1-0.8,0.3-1.5,0.3
					c-1.4,0-2.2-0.9-2.2-2.3s0.8-2.5,2.1-2.5c1.5,0,1.9,1.3,1.9,2.1c0,0.2,0,0.3,0,0.4H171.5z M173.9,249.7c0-0.5-0.2-1.3-1.1-1.3
					c-0.8,0-1.2,0.8-1.3,1.3H173.9z"/>
				<path class="st52" d="M176.6,246.6c0,0.3-0.2,0.5-0.5,0.5c-0.3,0-0.5-0.2-0.5-0.5c0-0.3,0.2-0.5,0.5-0.5
					C176.4,246.1,176.6,246.3,176.6,246.6z M175.7,252.4v-4.6h0.8v4.6H175.7z"/>
				<path class="st52" d="M178.2,247.9l0.9,2.6c0.2,0.4,0.3,0.8,0.4,1.2h0c0.1-0.4,0.2-0.8,0.4-1.2l0.9-2.6h0.9l-1.8,4.6h-0.8
					l-1.7-4.6H178.2z"/>
				<path class="st52" d="M182.8,250.3c0,1.1,0.7,1.6,1.6,1.6c0.6,0,0.9-0.1,1.3-0.2l0.1,0.6c-0.3,0.1-0.8,0.3-1.5,0.3
					c-1.4,0-2.2-0.9-2.2-2.3s0.8-2.5,2.1-2.5c1.5,0,1.9,1.3,1.9,2.1c0,0.2,0,0.3,0,0.4H182.8z M185.2,249.7c0-0.5-0.2-1.3-1.1-1.3
					c-0.8,0-1.2,0.8-1.3,1.3H185.2z"/>
				<path class="st52" d="M191,245.7v5.5c0,0.4,0,0.9,0,1.2h-0.7l0-0.8h0c-0.3,0.5-0.8,0.9-1.6,0.9c-1.1,0-1.9-0.9-1.9-2.3
					c0-1.5,0.9-2.4,2-2.4c0.7,0,1.2,0.3,1.4,0.7h0v-2.7H191z M190.1,249.7c0-0.1,0-0.2,0-0.3c-0.1-0.5-0.6-1-1.2-1
					c-0.9,0-1.4,0.8-1.4,1.8c0,0.9,0.5,1.7,1.3,1.7c0.6,0,1.1-0.4,1.2-1c0-0.1,0-0.2,0-0.4V249.7z"/>
				<path class="st52" d="M194.4,246.2c0.5-0.1,1.1-0.1,1.7-0.1c1.2,0,2,0.3,2.6,0.8c0.6,0.5,0.9,1.3,0.9,2.3c0,1-0.3,1.9-0.9,2.5
					c-0.6,0.6-1.6,0.9-2.8,0.9c-0.6,0-1.1,0-1.5-0.1V246.2z M195.2,251.8c0.2,0,0.5,0,0.8,0c1.7,0,2.7-1,2.7-2.7
					c0-1.5-0.8-2.4-2.6-2.4c-0.4,0-0.7,0-1,0.1V251.8z"/>
				<path class="st52" d="M203.1,252.4l-0.1-0.6h0c-0.3,0.4-0.7,0.7-1.4,0.7c-0.9,0-1.4-0.6-1.4-1.3c0-1.1,1-1.7,2.7-1.7v-0.1
					c0-0.4-0.1-1.1-1-1.1c-0.4,0-0.9,0.1-1.2,0.3l-0.2-0.5c0.4-0.2,0.9-0.4,1.5-0.4c1.4,0,1.7,0.9,1.7,1.9v1.7c0,0.4,0,0.8,0.1,1.1
					H203.1z M203,250.1c-0.9,0-1.9,0.1-1.9,1c0,0.5,0.4,0.8,0.8,0.8c0.6,0,1-0.4,1.1-0.8c0-0.1,0-0.2,0-0.3V250.1z"/>
				<path class="st52" d="M206.1,246.6v1.3h1.2v0.6h-1.2v2.5c0,0.6,0.2,0.9,0.6,0.9c0.2,0,0.4,0,0.5-0.1l0,0.6
					c-0.2,0.1-0.4,0.1-0.7,0.1c-0.4,0-0.7-0.1-0.9-0.3c-0.2-0.2-0.3-0.6-0.3-1.2v-2.5h-0.7v-0.6h0.7v-1.1L206.1,246.6z"/>
				<path class="st52" d="M208.6,250.3c0,1.1,0.7,1.6,1.6,1.6c0.6,0,0.9-0.1,1.3-0.2l0.1,0.6c-0.3,0.1-0.8,0.3-1.5,0.3
					c-1.4,0-2.2-0.9-2.2-2.3s0.8-2.5,2.1-2.5c1.5,0,1.9,1.3,1.9,2.1c0,0.2,0,0.3,0,0.4H208.6z M211,249.7c0-0.5-0.2-1.3-1.1-1.3
					c-0.8,0-1.2,0.8-1.3,1.3H211z"/>
			</g>
		</g>
	</g>
	<g>
		<g>
			<path class="st0" d="M24.8,327.5v-6.2h-2.3v-0.8h5.6v0.8h-2.3v6.2H24.8z"/>
			<path class="st0" d="M27.5,325c0-0.9,0.3-1.6,0.8-2.1c0.4-0.4,1-0.6,1.6-0.6c0.7,0,1.3,0.2,1.7,0.7c0.4,0.5,0.7,1.1,0.7,1.9
				c0,0.7-0.1,1.2-0.3,1.6c-0.2,0.4-0.5,0.7-0.9,0.9c-0.4,0.2-0.8,0.3-1.2,0.3c-0.7,0-1.3-0.2-1.7-0.7
				C27.8,326.5,27.5,325.8,27.5,325z M28.4,325c0,0.7,0.1,1.1,0.4,1.5s0.6,0.5,1.1,0.5c0.4,0,0.8-0.2,1.1-0.5
				c0.3-0.3,0.4-0.8,0.4-1.5c0-0.6-0.1-1.1-0.4-1.4c-0.3-0.3-0.6-0.5-1.1-0.5c-0.4,0-0.8,0.2-1.1,0.5S28.4,324.3,28.4,325z"/>
			<path class="st0" d="M36.2,327.5v-7.1h2.4c0.5,0,1,0,1.3,0.1c0.4,0.1,0.7,0.3,1,0.5c0.4,0.3,0.7,0.7,0.8,1.2
				c0.2,0.5,0.3,1,0.3,1.7c0,0.5-0.1,1-0.2,1.4c-0.1,0.4-0.3,0.8-0.5,1c-0.2,0.3-0.4,0.5-0.6,0.6c-0.2,0.2-0.5,0.3-0.8,0.4
				c-0.3,0.1-0.7,0.1-1.1,0.1H36.2z M37.1,326.7h1.5c0.5,0,0.8,0,1.1-0.1c0.3-0.1,0.5-0.2,0.6-0.4c0.2-0.2,0.4-0.5,0.5-0.9
				c0.1-0.4,0.2-0.8,0.2-1.4c0-0.7-0.1-1.3-0.4-1.7c-0.2-0.4-0.5-0.7-0.9-0.8c-0.3-0.1-0.7-0.1-1.2-0.1h-1.5V326.7z"/>
			<path class="st0" d="M46.5,326.9c-0.3,0.3-0.6,0.5-0.9,0.6c-0.3,0.1-0.6,0.2-1,0.2c-0.6,0-1-0.1-1.3-0.4s-0.5-0.6-0.5-1.1
				c0-0.2,0.1-0.5,0.2-0.7c0.1-0.2,0.3-0.4,0.4-0.5c0.2-0.1,0.4-0.2,0.6-0.3c0.2,0,0.4-0.1,0.8-0.1c0.7-0.1,1.2-0.2,1.5-0.3
				c0-0.1,0-0.2,0-0.2c0-0.4-0.1-0.6-0.2-0.7c-0.2-0.2-0.6-0.3-1-0.3c-0.4,0-0.7,0.1-0.9,0.2c-0.2,0.1-0.3,0.4-0.4,0.8l-0.8-0.1
				c0.1-0.4,0.2-0.7,0.4-0.9c0.2-0.2,0.4-0.4,0.8-0.5c0.3-0.1,0.7-0.2,1.2-0.2c0.4,0,0.8,0.1,1.1,0.2c0.3,0.1,0.5,0.2,0.6,0.4
				c0.1,0.2,0.2,0.4,0.3,0.6c0,0.1,0,0.4,0,0.8v1.2c0,0.8,0,1.3,0.1,1.5s0.1,0.4,0.2,0.6h-0.9C46.6,327.3,46.5,327.1,46.5,326.9z
				 M46.5,324.9c-0.3,0.1-0.8,0.2-1.4,0.3c-0.4,0.1-0.6,0.1-0.8,0.2s-0.3,0.2-0.3,0.3c-0.1,0.1-0.1,0.3-0.1,0.4
				c0,0.2,0.1,0.4,0.3,0.6c0.2,0.2,0.4,0.2,0.8,0.2c0.3,0,0.6-0.1,0.9-0.2c0.3-0.1,0.4-0.3,0.6-0.6c0.1-0.2,0.1-0.5,0.1-0.9V324.9z"
				/>
			<path class="st0" d="M50.6,326.7l0.1,0.8c-0.2,0.1-0.5,0.1-0.7,0.1c-0.3,0-0.6,0-0.7-0.1c-0.2-0.1-0.3-0.2-0.4-0.4
				c-0.1-0.2-0.1-0.5-0.1-1v-2.9h-0.6v-0.7h0.6v-1.3l0.9-0.5v1.8h0.9v0.7h-0.9v3c0,0.2,0,0.4,0,0.5c0,0.1,0.1,0.1,0.1,0.2
				c0.1,0,0.2,0.1,0.3,0.1C50.3,326.8,50.4,326.8,50.6,326.7z"/>
			<path class="st0" d="M54.9,325.9l0.9,0.1c-0.1,0.5-0.4,0.9-0.8,1.2s-0.9,0.4-1.5,0.4c-0.7,0-1.3-0.2-1.8-0.7
				c-0.4-0.5-0.7-1.1-0.7-1.9c0-0.9,0.2-1.5,0.7-2c0.4-0.5,1-0.7,1.7-0.7c0.7,0,1.2,0.2,1.7,0.7c0.4,0.5,0.6,1.1,0.6,2
				c0,0.1,0,0.1,0,0.2H52c0,0.6,0.2,1,0.5,1.3c0.3,0.3,0.6,0.4,1.1,0.4c0.3,0,0.6-0.1,0.8-0.3C54.6,326.5,54.8,326.2,54.9,325.9z
				 M52.1,324.5h2.9c0-0.4-0.1-0.8-0.3-1c-0.3-0.3-0.6-0.5-1.1-0.5c-0.4,0-0.7,0.1-1,0.4C52.2,323.7,52.1,324,52.1,324.5z"/>
		</g>
		<g>
			<path class="st50" d="M211.5,358.9H24.4c-1.2,0-2.1-0.9-2.1-2.1V337c0-1.2,0.9-2.1,2.1-2.1h187.1c1.2,0,2.1,0.9,2.1,2.1v19.8
				C213.6,358,212.7,358.9,211.5,358.9z"/>
		</g>
		<g>
			<path class="st33" d="M96.7,348.8c0-0.8,0.5-1.3,1.2-1.6l0,0c-0.7-0.3-1-0.8-1-1.4c0-1,0.8-1.6,1.9-1.6c1.2,0,1.8,0.7,1.8,1.5
				c0,0.5-0.3,1.1-1,1.4v0c0.8,0.3,1.2,0.8,1.2,1.6c0,1.1-0.9,1.8-2.1,1.8C97.4,350.5,96.7,349.7,96.7,348.8z M99.9,348.8
				c0-0.7-0.5-1.1-1.3-1.3c-0.7,0.2-1.1,0.7-1.1,1.3c0,0.6,0.4,1.2,1.2,1.2C99.5,349.9,99.9,349.4,99.9,348.8z M97.7,345.7
				c0,0.6,0.5,0.9,1.2,1.1c0.5-0.2,0.9-0.6,0.9-1.1c0-0.5-0.3-1-1-1C98,344.7,97.7,345.2,97.7,345.7z"/>
			<path class="st33" d="M105.1,344h0.8v4.2c0,1.7-0.8,2.2-1.9,2.2c-0.3,0-0.7-0.1-0.9-0.2l0.1-0.7c0.2,0.1,0.4,0.1,0.7,0.1
				c0.7,0,1.2-0.3,1.2-1.6V344z"/>
			<path class="st33" d="M109.8,350.4l-0.1-0.6h0c-0.3,0.4-0.7,0.7-1.4,0.7c-0.9,0-1.4-0.6-1.4-1.3c0-1.1,1-1.7,2.7-1.7v-0.1
				c0-0.4-0.1-1.1-1-1.1c-0.4,0-0.9,0.1-1.2,0.3l-0.2-0.5c0.4-0.2,0.9-0.4,1.5-0.4c1.4,0,1.7,0.9,1.7,1.9v1.7c0,0.4,0,0.8,0.1,1.1
				H109.8z M109.7,348c-0.9,0-1.9,0.1-1.9,1c0,0.5,0.4,0.8,0.8,0.8c0.6,0,1-0.4,1.1-0.8c0-0.1,0-0.2,0-0.3V348z"/>
			<path class="st33" d="M111.8,347c0-0.5,0-0.9,0-1.2h0.7l0,0.8h0c0.2-0.4,0.8-0.9,1.5-0.9c0.6,0,1.6,0.4,1.6,1.9v2.7h-0.8v-2.6
				c0-0.7-0.3-1.3-1.1-1.3c-0.5,0-1,0.4-1.1,0.8c0,0.1-0.1,0.2-0.1,0.4v2.7h-0.8V347z"/>
			<path class="st33" d="M116.5,351.5c0.2-0.6,0.5-1.6,0.6-2.2l0.9-0.1c-0.2,0.8-0.6,1.8-0.9,2.3L116.5,351.5z"/>
			<path class="st33" d="M120.7,350.4v-0.5l0.6-0.6c1.6-1.5,2.3-2.3,2.3-3.2c0-0.6-0.3-1.2-1.2-1.2c-0.6,0-1,0.3-1.3,0.5l-0.3-0.6
				c0.4-0.4,1-0.6,1.7-0.6c1.3,0,1.9,0.9,1.9,1.8c0,1.1-0.8,2-2.1,3.3l-0.5,0.5v0h2.7v0.7H120.7z"/>
			<path class="st33" d="M129.6,347.2c0,2.1-0.8,3.2-2.1,3.2c-1.2,0-2-1.1-2-3.1c0-2.1,0.9-3.2,2.1-3.2
				C128.9,344.1,129.6,345.3,129.6,347.2z M126.3,347.3c0,1.6,0.5,2.5,1.2,2.5c0.8,0,1.3-1,1.3-2.5c0-1.5-0.4-2.5-1.2-2.5
				C126.8,344.8,126.3,345.7,126.3,347.3z"/>
			<path class="st33" d="M130.4,350.4v-0.5l0.6-0.6c1.6-1.5,2.3-2.3,2.3-3.2c0-0.6-0.3-1.2-1.2-1.2c-0.6,0-1,0.3-1.3,0.5l-0.3-0.6
				c0.4-0.4,1-0.6,1.7-0.6c1.3,0,1.9,0.9,1.9,1.8c0,1.1-0.8,2-2.1,3.3l-0.5,0.5v0h2.7v0.7H130.4z"/>
			<path class="st33" d="M137.7,350.4v-1.7h-2.8v-0.5l2.7-3.9h0.9v3.8h0.9v0.6h-0.9v1.7H137.7z M137.7,348v-2c0-0.3,0-0.6,0-1h0
				c-0.2,0.4-0.3,0.6-0.5,0.9l-1.5,2.1v0H137.7z"/>
		</g>
	</g>
	<g>
		<g>
			<path class="st0" d="M23,376.5v-7.1h2.7c0.5,0,0.8,0,1.1,0.1c0.3,0.1,0.6,0.2,0.9,0.3c0.2,0.2,0.4,0.4,0.6,0.7
				c0.1,0.3,0.2,0.6,0.2,1c0,0.6-0.2,1.1-0.6,1.5c-0.4,0.4-1.1,0.6-2.1,0.6H24v2.9H23z M24,372.8h1.8c0.6,0,1-0.1,1.3-0.3
				c0.3-0.2,0.4-0.5,0.4-0.9c0-0.3-0.1-0.5-0.2-0.8c-0.1-0.2-0.3-0.3-0.6-0.4c-0.2,0-0.4-0.1-0.9-0.1H24V372.8z"/>
			<path class="st0" d="M29.5,376.5v-5.1h0.8v0.8c0.2-0.4,0.4-0.6,0.6-0.7c0.2-0.1,0.4-0.2,0.6-0.2c0.3,0,0.6,0.1,0.9,0.3l-0.3,0.8
				c-0.2-0.1-0.4-0.2-0.6-0.2c-0.2,0-0.4,0.1-0.5,0.2c-0.2,0.1-0.3,0.3-0.3,0.5c-0.1,0.3-0.1,0.6-0.1,1v2.7H29.5z"/>
			<path class="st0" d="M32.8,370.4v-1h0.9v1H32.8z M32.8,376.5v-5.1h0.9v5.1H32.8z"/>
			<path class="st0" d="M35,376.5v-5.1h0.8v0.7c0.4-0.6,0.9-0.8,1.6-0.8c0.3,0,0.6,0.1,0.8,0.2c0.3,0.1,0.5,0.3,0.6,0.4
				c0.1,0.2,0.2,0.4,0.3,0.6c0,0.2,0,0.4,0,0.8v3.1h-0.9v-3.1c0-0.4,0-0.6-0.1-0.8c-0.1-0.2-0.2-0.3-0.4-0.4
				c-0.2-0.1-0.4-0.2-0.6-0.2c-0.4,0-0.7,0.1-1,0.4c-0.3,0.2-0.4,0.7-0.4,1.3v2.8H35z"/>
			<path class="st0" d="M42.3,375.7l0.1,0.8c-0.2,0.1-0.5,0.1-0.7,0.1c-0.3,0-0.6,0-0.7-0.1c-0.2-0.1-0.3-0.2-0.4-0.4
				c-0.1-0.2-0.1-0.5-0.1-1V372H40v-0.7h0.6v-1.3l0.9-0.5v1.8h0.9v0.7h-0.9v3c0,0.2,0,0.4,0,0.5c0,0.1,0.1,0.1,0.1,0.2
				c0.1,0,0.2,0.1,0.3,0.1C42.1,375.7,42.2,375.7,42.3,375.7z"/>
			<path class="st0" d="M45.8,373c0-1.2,0.3-2.1,0.9-2.7c0.6-0.7,1.4-1,2.4-1c0.7,0,1.2,0.2,1.8,0.5c0.5,0.3,0.9,0.7,1.2,1.3
				c0.3,0.6,0.4,1.2,0.4,1.9c0,0.7-0.1,1.4-0.4,1.9c-0.3,0.6-0.7,1-1.2,1.3c-0.5,0.3-1.1,0.4-1.7,0.4c-0.7,0-1.3-0.2-1.8-0.5
				c-0.5-0.3-0.9-0.8-1.2-1.3C45.9,374.3,45.8,373.7,45.8,373z M46.7,373.1c0,0.9,0.2,1.5,0.7,2c0.5,0.5,1,0.7,1.7,0.7
				c0.7,0,1.3-0.2,1.7-0.7c0.5-0.5,0.7-1.2,0.7-2.1c0-0.6-0.1-1.1-0.3-1.5c-0.2-0.4-0.5-0.8-0.9-1c-0.4-0.2-0.8-0.4-1.3-0.4
				c-0.7,0-1.2,0.2-1.7,0.7C47,371.2,46.7,372,46.7,373.1z"/>
			<path class="st0" d="M53.6,378.4v-7.1h0.8v0.7c0.2-0.3,0.4-0.5,0.6-0.6c0.2-0.1,0.5-0.2,0.9-0.2c0.4,0,0.8,0.1,1.2,0.3
				c0.3,0.2,0.6,0.5,0.8,1c0.2,0.4,0.3,0.9,0.3,1.3c0,0.5-0.1,1-0.3,1.4c-0.2,0.4-0.5,0.7-0.8,1c-0.4,0.2-0.7,0.3-1.1,0.3
				c-0.3,0-0.5-0.1-0.8-0.2c-0.2-0.1-0.4-0.3-0.6-0.5v2.5H53.6z M54.4,374c0,0.7,0.1,1.1,0.4,1.5c0.3,0.3,0.6,0.5,1,0.5
				c0.4,0,0.7-0.2,1-0.5c0.3-0.3,0.4-0.8,0.4-1.5c0-0.7-0.1-1.1-0.4-1.5c-0.3-0.3-0.6-0.5-1-0.5c-0.4,0-0.7,0.2-1,0.5
				C54.5,372.8,54.4,373.3,54.4,374z"/>
			<path class="st0" d="M61,375.7l0.1,0.8c-0.2,0.1-0.5,0.1-0.7,0.1c-0.3,0-0.6,0-0.7-0.1c-0.2-0.1-0.3-0.2-0.4-0.4
				c-0.1-0.2-0.1-0.5-0.1-1V372h-0.6v-0.7h0.6v-1.3l0.9-0.5v1.8H61v0.7h-0.9v3c0,0.2,0,0.4,0,0.5c0,0.1,0.1,0.1,0.1,0.2
				s0.2,0.1,0.3,0.1C60.7,375.7,60.8,375.7,61,375.7z"/>
			<path class="st0" d="M61.8,370.4v-1h0.9v1H61.8z M61.8,376.5v-5.1h0.9v5.1H61.8z"/>
			<path class="st0" d="M63.7,373.9c0-0.9,0.3-1.6,0.8-2.1c0.4-0.4,1-0.6,1.6-0.6c0.7,0,1.3,0.2,1.7,0.7s0.7,1.1,0.7,1.9
				c0,0.7-0.1,1.2-0.3,1.6c-0.2,0.4-0.5,0.7-0.9,0.9c-0.4,0.2-0.8,0.3-1.2,0.3c-0.7,0-1.3-0.2-1.7-0.7
				C63.9,375.4,63.7,374.8,63.7,373.9z M64.6,373.9c0,0.7,0.1,1.1,0.4,1.5s0.6,0.5,1.1,0.5c0.4,0,0.8-0.2,1.1-0.5
				c0.3-0.3,0.4-0.8,0.4-1.5c0-0.6-0.1-1.1-0.4-1.4c-0.3-0.3-0.6-0.5-1.1-0.5c-0.4,0-0.8,0.2-1.1,0.5
				C64.7,372.8,64.6,373.3,64.6,373.9z"/>
			<path class="st0" d="M69.5,376.5v-5.1h0.8v0.7c0.4-0.6,0.9-0.8,1.6-0.8c0.3,0,0.6,0.1,0.8,0.2c0.3,0.1,0.5,0.3,0.6,0.4
				c0.1,0.2,0.2,0.4,0.3,0.6c0,0.2,0,0.4,0,0.8v3.1h-0.9v-3.1c0-0.4,0-0.6-0.1-0.8c-0.1-0.2-0.2-0.3-0.4-0.4
				c-0.2-0.1-0.4-0.2-0.6-0.2c-0.4,0-0.7,0.1-1,0.4c-0.3,0.2-0.4,0.7-0.4,1.3v2.8H69.5z"/>
		</g>
		<g>
			<path class="st50" d="M211.5,407.9H24.4c-1.2,0-2.1-0.9-2.1-2.1V386c0-1.2,0.9-2.1,2.1-2.1h187.1c1.2,0,2.1,0.9,2.1,2.1v19.8
				C213.6,406.9,212.7,407.9,211.5,407.9z"/>
		</g>
		<g>
			<g>
				<path class="st51" d="M30.1,393.1c0.4-0.1,0.9-0.1,1.6-0.1c0.8,0,1.4,0.2,1.8,0.5c0.3,0.3,0.6,0.8,0.6,1.3c0,0.6-0.2,1-0.5,1.4
					c-0.4,0.5-1.1,0.7-1.9,0.7c-0.2,0-0.5,0-0.7-0.1v2.5h-0.8V393.1z M30.9,396.1c0.2,0,0.4,0.1,0.7,0.1c1,0,1.6-0.5,1.6-1.4
					c0-0.8-0.6-1.2-1.5-1.2c-0.4,0-0.6,0-0.8,0.1V396.1z"/>
				<path class="st51" d="M35.1,393.1c0.5-0.1,1.1-0.1,1.7-0.1c1.2,0,2,0.3,2.6,0.8c0.6,0.5,0.9,1.3,0.9,2.3c0,1-0.3,1.9-0.9,2.5
					c-0.6,0.6-1.6,0.9-2.8,0.9c-0.6,0-1.1,0-1.5-0.1V393.1z M35.9,398.7c0.2,0,0.5,0,0.8,0c1.7,0,2.7-1,2.7-2.7
					c0-1.5-0.8-2.4-2.6-2.4c-0.4,0-0.7,0-1,0.1V398.7z"/>
				<path class="st51" d="M41.3,393h3.4v0.7h-2.6v2.1h2.4v0.7h-2.4v2.9h-0.8V393z"/>
			</g>
		</g>
	</g>
	<g>
		<path class="st53" d="M208.1,448.1h-76.9c-1.7,0-3-1.4-3-3v-24.6c0-1.7,1.4-3,3-3h76.9c1.7,0,3,1.4,3,3V445
			C211.1,446.7,209.8,448.1,208.1,448.1z"/>
		<g>
			<path class="st1" d="M138.9,439v-12.7h4.8c0.8,0,1.5,0,1.9,0.1c0.6,0.1,1.1,0.3,1.6,0.6c0.4,0.3,0.8,0.7,1,1.2
				c0.3,0.5,0.4,1.1,0.4,1.7c0,1.1-0.3,2-1,2.7c-0.7,0.7-1.9,1.1-3.7,1.1h-3.2v5.2H138.9z M140.6,432.3h3.3c1.1,0,1.9-0.2,2.3-0.6
				c0.5-0.4,0.7-1,0.7-1.7c0-0.5-0.1-1-0.4-1.4c-0.3-0.4-0.6-0.6-1.1-0.7c-0.3-0.1-0.8-0.1-1.6-0.1h-3.2V432.3z"/>
			<path class="st1" d="M150.5,439v-9.2h1.4v1.4c0.4-0.6,0.7-1.1,1-1.3c0.3-0.2,0.6-0.3,1-0.3c0.5,0,1.1,0.2,1.6,0.5l-0.5,1.4
				c-0.4-0.2-0.8-0.3-1.1-0.3c-0.3,0-0.6,0.1-0.9,0.3c-0.3,0.2-0.5,0.5-0.6,0.9c-0.2,0.6-0.3,1.2-0.3,1.8v4.8H150.5z"/>
			<path class="st1" d="M162.7,436l1.6,0.2c-0.3,0.9-0.7,1.7-1.4,2.2c-0.7,0.5-1.6,0.8-2.6,0.8c-1.3,0-2.4-0.4-3.2-1.2
				c-0.8-0.8-1.2-2-1.2-3.5c0-1.5,0.4-2.7,1.2-3.6s1.8-1.3,3.1-1.3c1.2,0,2.2,0.4,3,1.3c0.8,0.8,1.2,2,1.2,3.5c0,0.1,0,0.2,0,0.4
				h-6.8c0.1,1,0.3,1.8,0.9,2.3c0.5,0.5,1.2,0.8,1.9,0.8c0.6,0,1.1-0.2,1.5-0.4C162.2,437.1,162.5,436.7,162.7,436z M157.6,433.5
				h5.1c-0.1-0.8-0.3-1.4-0.6-1.7c-0.5-0.6-1.1-0.9-1.9-0.9c-0.7,0-1.3,0.2-1.8,0.7C157.9,432,157.7,432.7,157.6,433.5z"/>
			<path class="st1" d="M168.8,439l-3.5-9.2h1.6l2,5.5c0.2,0.6,0.4,1.2,0.6,1.8c0.1-0.5,0.3-1.1,0.6-1.7l2-5.6h1.6l-3.5,9.2H168.8z"
				/>
			<path class="st1" d="M175.1,428.1v-1.8h1.6v1.8H175.1z M175.1,439v-9.2h1.6v9.2H175.1z"/>
			<path class="st1" d="M185.3,436l1.6,0.2c-0.3,0.9-0.7,1.7-1.4,2.2c-0.7,0.5-1.6,0.8-2.6,0.8c-1.3,0-2.4-0.4-3.2-1.2
				c-0.8-0.8-1.2-2-1.2-3.5c0-1.5,0.4-2.7,1.2-3.6c0.8-0.9,1.8-1.3,3.1-1.3c1.2,0,2.2,0.4,3,1.3c0.8,0.8,1.2,2,1.2,3.5
				c0,0.1,0,0.2,0,0.4h-6.8c0.1,1,0.3,1.8,0.9,2.3c0.5,0.5,1.2,0.8,1.9,0.8c0.6,0,1.1-0.2,1.5-0.4
				C184.8,437.1,185.1,436.7,185.3,436z M180.2,433.5h5.1c-0.1-0.8-0.3-1.4-0.6-1.7c-0.5-0.6-1.1-0.9-1.9-0.9
				c-0.7,0-1.3,0.2-1.8,0.7C180.5,432,180.3,432.7,180.2,433.5z"/>
			<path class="st1" d="M190.6,439l-2.8-9.2h1.6l1.5,5.3l0.5,2c0-0.1,0.2-0.7,0.5-1.9l1.5-5.4h1.6l1.4,5.3l0.5,1.8l0.5-1.8l1.6-5.3
				h1.5l-2.9,9.2h-1.6l-1.5-5.5l-0.4-1.6l-1.9,7.1H190.6z"/>
		</g>
	</g>
</g>
</svg>
