<?xml version="1.0" encoding="utf-8"?>
<!-- Generator: Adobe Illustrator 26.0.1, SVG Export Plug-In . SVG Version: 6.00 Build 0)  -->
<svg version="1.1" id="Layer_1" xmlns="http://www.w3.org/2000/svg" xmlns:xlink="http://www.w3.org/1999/xlink" x="0px" y="0px"
	 viewBox="0 0 987.9 125.3" style="enable-background:new 0 0 987.9 125.3;" xml:space="preserve">
<style type="text/css">
	.st0{fill:#70AD45;}
	.st1{fill:#FFFFFF;}
	.st2{fill:#EC7E30;}
	.st3{opacity:0.9;fill:#FFFFFF;enable-background:new    ;}
	.st4{fill:none;stroke:#EC7E30;stroke-miterlimit:10;}
	.st5{fill:#009447;}
	.st6{fill:#A5A4A4;}
	.st7{fill:#4A72B8;}
	.st8{fill:#70AD44;}
	.st9{fill:#FDC015;}
	.st10{fill:#038643;}
	.st11{fill:#009444;}
	.st12{fill-rule:evenodd;clip-rule:evenodd;fill:#009447;}
</style>
<g>
	<g>
		<path class="st0" d="M63.2,0c39.2-0.3,61.2,36.2,83.9,62.2c1.5,1.6-22.6,25.8-25.2,28.8c-15.6,17.7-34.7,34.8-59.9,34.3
			c-22.8-0.4-44.1-13.6-54.7-33.7C2.5,82.6,0,72.5,0,62.2C0.1,25.6,30.8,0.3,63.2,0z"/>
		<circle class="st1" cx="62.3" cy="62.7" r="57"/>
		<g>
			<polygon points="60.6,39.5 60.6,48.7 62.3,48.7 62.3,37.8 60.7,37.8 57.9,39.6 57.9,41.2 60.5,39.5 			"/>
			<path d="M65.7,48.8c0.2,0,0.4,0,0.5-0.1c0.2-0.1,0.3-0.2,0.4-0.4s0.1-0.3,0.1-0.5c0-0.3-0.1-0.5-0.3-0.7
				c-0.2-0.2-0.5-0.3-0.8-0.3c-0.3,0-0.5,0.1-0.8,0.3c-0.2,0.2-0.3,0.5-0.3,0.7c0,0.3,0.1,0.5,0.3,0.8
				C65.1,48.7,65.4,48.8,65.7,48.8z"/>
			<polygon points="35.8,62 40.4,62 40.4,60.6 35.8,60.6 35.8,57.3 40.9,57.3 40.9,55.8 34.2,55.8 34.2,66.7 35.8,66.7 			"/>
			<path d="M48.1,59c-0.3-0.2-0.7-0.3-1-0.4s-0.7-0.1-1-0.1c-0.5,0-1,0.1-1.4,0.2c-0.4,0.1-0.8,0.4-1.2,0.7s-0.6,0.7-0.8,1.2
				l1.5,0.3c0.1-0.3,0.3-0.5,0.6-0.8s0.7-0.4,1.3-0.4c0.5,0,0.9,0.1,1.2,0.4c0.3,0.3,0.4,0.6,0.4,1.1v0c0,0.2-0.1,0.3-0.2,0.4
				c-0.1,0.1-0.4,0.1-0.7,0.2c-0.3,0-0.7,0.1-1.2,0.1c-0.4,0-0.8,0.1-1.1,0.2c-0.4,0.1-0.7,0.2-1,0.4c-0.3,0.2-0.5,0.4-0.7,0.7
				c-0.2,0.3-0.3,0.7-0.3,1.1c0,0.5,0.1,1,0.4,1.4c0.2,0.4,0.6,0.7,1,0.8c0.4,0.2,0.9,0.3,1.4,0.3c0.5,0,0.8-0.1,1.2-0.2
				s0.6-0.3,0.8-0.5c0.2-0.2,0.4-0.4,0.5-0.6h0.1v1.1h1.6v-5.4c0-0.6-0.1-1.1-0.3-1.5C48.7,59.5,48.5,59.2,48.1,59z M47.7,63.8
				c0,0.3-0.1,0.6-0.2,0.9c-0.2,0.3-0.4,0.5-0.7,0.7c-0.3,0.2-0.7,0.3-1.1,0.3c-0.5,0-0.8-0.1-1.1-0.3c-0.3-0.2-0.4-0.5-0.4-0.9
				c0-0.3,0.1-0.5,0.2-0.7c0.2-0.2,0.4-0.3,0.6-0.4s0.5-0.2,0.8-0.2c0.1,0,0.3,0,0.5-0.1c0.2,0,0.4-0.1,0.6-0.1s0.4-0.1,0.6-0.1
				s0.3-0.1,0.3-0.2V63.8z"/>
			<polygon points="56.7,58.6 54.6,64.9 54.5,64.9 52.4,58.6 50.7,58.6 53.7,66.7 55.4,66.7 58.4,58.6 			"/>
			<path d="M66.6,64.9c0.3-0.6,0.5-1.4,0.5-2.2c0-0.8-0.2-1.6-0.5-2.2s-0.8-1.1-1.3-1.5c-0.6-0.4-1.2-0.5-2-0.5s-1.4,0.2-2,0.5
				s-1,0.8-1.3,1.5s-0.5,1.4-0.5,2.2c0,0.8,0.2,1.6,0.5,2.2c0.3,0.6,0.8,1.1,1.3,1.5s1.2,0.5,2,0.5s1.4-0.2,2-0.5
				C65.9,66,66.3,65.5,66.6,64.9z M64.6,65.2c-0.3,0.3-0.7,0.4-1.2,0.4c-0.5,0-0.9-0.1-1.2-0.4c-0.3-0.3-0.6-0.6-0.7-1
				c-0.2-0.4-0.2-0.9-0.2-1.4c0-0.5,0.1-1,0.2-1.4c0.2-0.4,0.4-0.8,0.7-1.1c0.3-0.3,0.7-0.4,1.2-0.4c0.5,0,0.9,0.1,1.2,0.4
				c0.3,0.3,0.6,0.6,0.7,1.1c0.2,0.4,0.2,0.9,0.2,1.4c0,0.5-0.1,1-0.2,1.4C65.1,64.6,64.9,64.9,64.6,65.2z"/>
			<path d="M72.6,58.4c-0.5,0-0.9,0.1-1.3,0.4s-0.6,0.6-0.8,1h-0.1v-1.3h-1.5v8.2h1.6v-5c0-0.4,0.1-0.7,0.3-1s0.4-0.5,0.7-0.7
				c0.3-0.2,0.6-0.2,1-0.2c0.2,0,0.3,0,0.5,0c0.2,0,0.3,0,0.3,0.1v-1.5c-0.1,0-0.2,0-0.3,0C72.8,58.4,72.7,58.4,72.6,58.4z"/>
			<rect x="74.7" y="58.6" width="1.6" height="8.2"/>
			<path d="M75.5,55.4c-0.3,0-0.5,0.1-0.7,0.3c-0.2,0.2-0.3,0.4-0.3,0.7c0,0.3,0.1,0.5,0.3,0.7c0.2,0.2,0.4,0.3,0.7,0.3
				s0.5-0.1,0.7-0.3c0.2-0.2,0.3-0.4,0.3-0.7c0-0.3-0.1-0.5-0.3-0.7C76,55.5,75.7,55.4,75.5,55.4z"/>
			<path d="M82.4,66.7l-0.3-1.3c-0.1,0-0.1,0-0.2,0c-0.1,0-0.2,0-0.3,0c-0.2,0-0.3,0-0.5-0.1c-0.1-0.1-0.3-0.2-0.4-0.3
				c-0.1-0.2-0.1-0.4-0.1-0.7v-4.5h1.7v-1.3h-1.7v-2h-1.6v2h-1.2v1.3h1.2v4.8c0,0.5,0.1,0.9,0.3,1.2c0.2,0.3,0.5,0.6,0.9,0.7
				c0.4,0.2,0.8,0.2,1.2,0.2c0.3,0,0.5,0,0.6-0.1C82.1,66.8,82.3,66.7,82.4,66.7z"/>
			<path d="M87.5,66.9c0.6,0,1.1-0.1,1.6-0.3c0.5-0.2,0.9-0.4,1.2-0.8c0.3-0.3,0.5-0.7,0.6-1.2l-1.5-0.3c-0.1,0.3-0.2,0.5-0.4,0.6
				c-0.2,0.2-0.4,0.3-0.6,0.4c-0.2,0.1-0.5,0.1-0.8,0.1c-0.5,0-0.9-0.1-1.2-0.3s-0.6-0.5-0.8-0.9c-0.2-0.4-0.3-0.8-0.3-1.3H91v-0.6
				c0-0.7-0.1-1.4-0.3-1.9c-0.2-0.5-0.5-0.9-0.8-1.3c-0.3-0.3-0.7-0.6-1.2-0.7c-0.4-0.2-0.9-0.2-1.3-0.2c-0.8,0-1.4,0.2-2,0.5
				c-0.6,0.4-1,0.9-1.3,1.5c-0.3,0.6-0.5,1.4-0.5,2.2c0,0.8,0.2,1.6,0.5,2.2c0.3,0.6,0.8,1.1,1.3,1.5C86,66.7,86.7,66.9,87.5,66.9z
				 M85.5,60.9c0.2-0.3,0.4-0.6,0.8-0.9s0.7-0.3,1.2-0.3c0.4,0,0.8,0.1,1.1,0.3c0.3,0.2,0.5,0.4,0.7,0.8c0.2,0.3,0.3,0.7,0.3,1.1
				h-4.2C85.2,61.6,85.3,61.3,85.5,60.9z"/>
			<polygon points="37.1,82.3 37,82.3 34.8,73.8 33.1,73.8 30.9,82.3 30.8,82.3 28.7,73.8 27,73.8 30,84.7 31.6,84.7 33.9,76.6 
				34,76.6 36.3,84.7 38,84.7 41,73.8 39.3,73.8 			"/>
			<path d="M47.7,77c-0.3-0.2-0.7-0.3-1-0.4s-0.7-0.1-1-0.1c-0.5,0-1,0.1-1.4,0.2c-0.4,0.1-0.8,0.4-1.2,0.7s-0.6,0.7-0.8,1.2
				l1.5,0.3c0.1-0.3,0.3-0.5,0.6-0.8s0.7-0.4,1.3-0.4c0.5,0,0.9,0.1,1.2,0.4c0.3,0.3,0.4,0.6,0.4,1.1v0c0,0.2-0.1,0.3-0.2,0.4
				c-0.1,0.1-0.4,0.1-0.7,0.2c-0.3,0-0.7,0.1-1.2,0.1c-0.4,0-0.8,0.1-1.1,0.2c-0.4,0.1-0.7,0.2-1,0.4c-0.3,0.2-0.5,0.4-0.7,0.7
				C42.1,81.6,42,82,42,82.4c0,0.5,0.1,1,0.4,1.4c0.2,0.4,0.6,0.7,1,0.8c0.4,0.2,0.9,0.3,1.4,0.3c0.5,0,0.8-0.1,1.2-0.2
				s0.6-0.3,0.8-0.5c0.2-0.2,0.4-0.4,0.5-0.6h0.1v1.1h1.6v-5.4c0-0.6-0.1-1.1-0.3-1.5C48.3,77.5,48,77.2,47.7,77z M47.2,81.8
				c0,0.3-0.1,0.6-0.2,0.9c-0.2,0.3-0.4,0.5-0.7,0.7c-0.3,0.2-0.7,0.3-1.1,0.3c-0.5,0-0.8-0.1-1.1-0.3c-0.3-0.2-0.4-0.5-0.4-0.9
				c0-0.3,0.1-0.5,0.2-0.7c0.2-0.2,0.4-0.3,0.6-0.4s0.5-0.2,0.8-0.2c0.1,0,0.3,0,0.5-0.1c0.2,0,0.4-0.1,0.6-0.1s0.4-0.1,0.6-0.1
				s0.3-0.1,0.3-0.2V81.8z"/>
			<path d="M54.4,83.4c-0.1,0-0.2,0-0.3,0c-0.2,0-0.3,0-0.5-0.1c-0.1-0.1-0.3-0.2-0.4-0.3c-0.1-0.2-0.1-0.4-0.1-0.7v-4.5h1.7v-1.3
				h-1.7v-2h-1.6v2h-1.2v1.3h1.2v4.8c0,0.5,0.1,0.9,0.3,1.2c0.2,0.3,0.5,0.6,0.9,0.7c0.4,0.2,0.8,0.2,1.2,0.2c0.3,0,0.5,0,0.6-0.1
				c0.2,0,0.3-0.1,0.4-0.1l-0.3-1.3C54.6,83.4,54.5,83.4,54.4,83.4z"/>
			<path d="M58.8,78.1c0.3-0.2,0.7-0.3,1.2-0.3c0.5,0,0.9,0.1,1.2,0.4c0.3,0.3,0.5,0.6,0.6,1h1.6c-0.1-0.6-0.2-1-0.5-1.4
				c-0.3-0.4-0.7-0.7-1.2-1c-0.5-0.2-1-0.3-1.7-0.3c-0.8,0-1.4,0.2-2,0.5c-0.6,0.4-1,0.9-1.3,1.5c-0.3,0.6-0.5,1.4-0.5,2.2
				c0,0.8,0.2,1.5,0.5,2.2c0.3,0.6,0.7,1.1,1.3,1.5c0.6,0.4,1.3,0.5,2,0.5c0.6,0,1.2-0.1,1.7-0.4c0.5-0.2,0.9-0.6,1.2-1
				s0.5-0.9,0.5-1.4h-1.6c-0.1,0.3-0.2,0.5-0.4,0.8c-0.2,0.2-0.4,0.4-0.6,0.5c-0.2,0.1-0.5,0.2-0.8,0.2c-0.5,0-0.8-0.1-1.2-0.4
				c-0.3-0.2-0.6-0.6-0.8-1c-0.2-0.4-0.3-0.9-0.3-1.5c0-0.6,0.1-1.1,0.3-1.5C58.2,78.7,58.5,78.4,58.8,78.1z"/>
			<path d="M70.6,76.8c-0.4-0.2-0.9-0.3-1.5-0.3c-0.6,0-1.2,0.1-1.5,0.4s-0.7,0.6-0.9,1h-0.1v-4.1H65v10.9h1.6v-4.9
				c0-0.4,0.1-0.8,0.3-1.1c0.2-0.3,0.4-0.5,0.7-0.7c0.3-0.2,0.6-0.2,1-0.2c0.6,0,1,0.2,1.3,0.5s0.5,0.8,0.5,1.4v5h1.6v-5.2
				c0-0.7-0.1-1.3-0.3-1.7C71.3,77.4,71,77,70.6,76.8z"/>
			<rect x="78" y="73.8" width="1.6" height="10.9"/>
			<rect x="81.8" y="76.6" width="1.6" height="8.2"/>
			<path d="M82.6,73.4c-0.3,0-0.5,0.1-0.7,0.3c-0.2,0.2-0.3,0.4-0.3,0.7c0,0.3,0.1,0.5,0.3,0.7c0.2,0.2,0.4,0.3,0.7,0.3
				s0.5-0.1,0.7-0.3c0.2-0.2,0.3-0.4,0.3-0.7c0-0.3-0.1-0.5-0.3-0.7C83.1,73.5,82.8,73.4,82.6,73.4z"/>
			<path d="M89.5,80.2l-1.3-0.3c-0.5-0.1-0.8-0.2-1-0.4c-0.2-0.2-0.3-0.4-0.3-0.7c0-0.3,0.2-0.6,0.5-0.8s0.7-0.3,1.1-0.3
				c0.3,0,0.6,0.1,0.8,0.2c0.2,0.1,0.4,0.2,0.5,0.4s0.2,0.3,0.3,0.5l1.4-0.3c-0.2-0.6-0.5-1.1-1-1.5s-1.2-0.6-2.1-0.6
				c-0.6,0-1.2,0.1-1.6,0.3c-0.5,0.2-0.8,0.5-1.1,0.8s-0.4,0.8-0.4,1.3c0,0.6,0.2,1.1,0.5,1.4c0.4,0.4,0.9,0.7,1.7,0.8l1.4,0.3
				c0.4,0.1,0.7,0.2,0.9,0.4c0.2,0.2,0.3,0.4,0.3,0.6c0,0.3-0.2,0.6-0.5,0.8s-0.7,0.3-1.3,0.3c-0.5,0-0.9-0.1-1.2-0.3
				c-0.3-0.2-0.5-0.5-0.6-0.9l-1.5,0.2c0.1,0.7,0.5,1.3,1.1,1.7c0.6,0.4,1.3,0.6,2.2,0.6c0.7,0,1.2-0.1,1.7-0.3
				c0.5-0.2,0.9-0.5,1.2-0.9c0.3-0.4,0.4-0.8,0.4-1.3c0-0.6-0.2-1-0.6-1.4C90.9,80.6,90.3,80.3,89.5,80.2z"/>
			<path d="M97.2,83.4c-0.1,0-0.1,0-0.2,0c-0.1,0-0.2,0-0.3,0c-0.2,0-0.3,0-0.5-0.1c-0.1-0.1-0.3-0.2-0.4-0.3
				c-0.1-0.2-0.1-0.4-0.1-0.7v-4.5h1.7v-1.3h-1.7v-2h-1.6v2h-1.2v1.3h1.2v4.8c0,0.5,0.1,0.9,0.3,1.2c0.2,0.3,0.5,0.6,0.9,0.7
				c0.4,0.2,0.8,0.2,1.2,0.2c0.3,0,0.5,0,0.6-0.1c0.2,0,0.3-0.1,0.4-0.1L97.2,83.4z"/>
		</g>
	</g>
	<g>
		<polygon class="st2" points="299.3,59.6 299.3,59.6 264.4,93 158.9,93 193.7,59.6 193.7,59.6 158.9,26.3 264.4,26.3 		"/>
		<g>
			<path class="st3" d="M311.4,98.5h-94.3c-1.9,0-3.4-1.5-3.4-3.4V56.8c0-1.9,1.5-3.4,3.4-3.4h94.3c1.9,0,3.4,1.5,3.4,3.4v38.4
				C314.8,97,313.3,98.5,311.4,98.5z"/>
			<path class="st4" d="M311.4,98.5h-94.3c-1.9,0-3.4-1.5-3.4-3.4V56.8c0-1.9,1.5-3.4,3.4-3.4h94.3c1.9,0,3.4,1.5,3.4,3.4v38.4
				C314.8,97,313.3,98.5,311.4,98.5z"/>
		</g>
		<g>
			<path d="M253.4,67.3c0-0.4-0.2-0.7-0.6-0.9s-0.7-0.3-1.2-0.3c-0.4,0-0.7,0.1-0.9,0.2s-0.5,0.3-0.6,0.5s-0.2,0.4-0.2,0.7
				c0,0.2,0.1,0.4,0.2,0.5s0.2,0.3,0.4,0.4s0.3,0.2,0.5,0.2s0.3,0.1,0.5,0.2l0.8,0.2c0.2,0.1,0.4,0.1,0.7,0.2s0.5,0.2,0.7,0.4
				s0.4,0.4,0.6,0.6s0.2,0.6,0.2,0.9c0,0.4-0.1,0.8-0.3,1.2s-0.6,0.6-1,0.8s-1,0.3-1.6,0.3c-0.6,0-1.1-0.1-1.5-0.3s-0.7-0.4-1-0.8
				s-0.4-0.7-0.4-1.2h1c0,0.3,0.1,0.6,0.3,0.7s0.4,0.3,0.7,0.4s0.6,0.1,0.9,0.1c0.4,0,0.7-0.1,1-0.2s0.5-0.3,0.7-0.5
				s0.3-0.5,0.3-0.8c0-0.3-0.1-0.5-0.2-0.6s-0.3-0.3-0.6-0.4s-0.5-0.2-0.8-0.3l-1-0.3c-0.6-0.2-1.1-0.4-1.5-0.8s-0.5-0.8-0.5-1.3
				c0-0.4,0.1-0.8,0.4-1.2s0.6-0.6,1-0.8s0.9-0.3,1.4-0.3c0.5,0,1,0.1,1.4,0.3s0.7,0.4,1,0.8s0.4,0.7,0.4,1.1H253.4z"/>
			<path d="M258.4,73.5c-0.6,0-1.1-0.1-1.5-0.4s-0.7-0.6-1-1.1c-0.2-0.5-0.3-1-0.3-1.6s0.1-1.2,0.3-1.6c0.2-0.5,0.5-0.8,0.9-1.1
				s0.9-0.4,1.4-0.4c0.3,0,0.6,0.1,0.9,0.2s0.6,0.3,0.8,0.5s0.4,0.5,0.6,0.9s0.2,0.9,0.2,1.4v0.4h-4.6v-0.8h3.7
				c0-0.3-0.1-0.6-0.2-0.9s-0.3-0.5-0.6-0.6s-0.5-0.2-0.9-0.2c-0.4,0-0.7,0.1-1,0.3s-0.5,0.4-0.6,0.7s-0.2,0.6-0.2,0.9v0.5
				c0,0.5,0.1,0.8,0.2,1.2s0.4,0.6,0.7,0.7s0.6,0.2,1,0.2c0.2,0,0.5,0,0.7-0.1s0.4-0.2,0.5-0.3s0.3-0.3,0.3-0.5l0.9,0.2
				c-0.1,0.3-0.3,0.6-0.5,0.8s-0.5,0.4-0.8,0.5S258.8,73.5,258.4,73.5z"/>
			<path d="M263.2,65.3v8h-0.9v-8H263.2z"/>
			<path d="M267.4,73.5c-0.6,0-1.1-0.1-1.5-0.4s-0.7-0.6-1-1.1s-0.3-1-0.3-1.6s0.1-1.2,0.3-1.6s0.5-0.8,0.9-1.1s0.9-0.4,1.4-0.4
				c0.3,0,0.6,0.1,0.9,0.2s0.6,0.3,0.8,0.5s0.4,0.5,0.6,0.9s0.2,0.9,0.2,1.4v0.4h-4.6v-0.8h3.7c0-0.3-0.1-0.6-0.2-0.9
				s-0.3-0.5-0.6-0.6s-0.5-0.2-0.9-0.2c-0.4,0-0.7,0.1-1,0.3s-0.5,0.4-0.6,0.7s-0.2,0.6-0.2,0.9v0.5c0,0.5,0.1,0.8,0.2,1.2
				s0.4,0.6,0.7,0.7s0.6,0.2,1,0.2c0.2,0,0.5,0,0.7-0.1s0.4-0.2,0.5-0.3s0.3-0.3,0.3-0.5l0.9,0.2c-0.1,0.3-0.3,0.6-0.5,0.8
				s-0.5,0.4-0.8,0.5S267.8,73.5,267.4,73.5z"/>
			<path d="M273.8,73.5c-0.6,0-1-0.1-1.5-0.4s-0.7-0.6-0.9-1.1s-0.3-1-0.3-1.6c0-0.6,0.1-1.1,0.3-1.6s0.5-0.8,0.9-1.1
				s0.9-0.4,1.4-0.4c0.4,0,0.8,0.1,1.1,0.2c0.3,0.2,0.6,0.4,0.8,0.7c0.2,0.3,0.4,0.6,0.4,1h-0.9c-0.1-0.3-0.2-0.5-0.5-0.7
				c-0.2-0.2-0.6-0.3-1-0.3c-0.4,0-0.7,0.1-0.9,0.3c-0.3,0.2-0.5,0.4-0.6,0.8s-0.2,0.7-0.2,1.2c0,0.5,0.1,0.9,0.2,1.2
				s0.4,0.6,0.6,0.8c0.3,0.2,0.6,0.3,1,0.3c0.2,0,0.5,0,0.7-0.1s0.4-0.2,0.5-0.4c0.1-0.2,0.2-0.3,0.3-0.6h0.9
				c-0.1,0.4-0.2,0.7-0.4,1c-0.2,0.3-0.5,0.5-0.8,0.7C274.6,73.4,274.2,73.5,273.8,73.5z"/>
			<path d="M280.1,67.3v0.8H277v-0.8H280.1z M277.9,65.9h0.9v5.7c0,0.3,0,0.5,0.1,0.6s0.2,0.2,0.3,0.3s0.2,0.1,0.4,0.1
				c0.1,0,0.2,0,0.2,0s0.1,0,0.2,0l0.2,0.8c-0.1,0-0.1,0-0.3,0.1s-0.3,0-0.4,0c-0.3,0-0.5-0.1-0.8-0.2s-0.5-0.3-0.6-0.5
				s-0.2-0.5-0.2-0.9V65.9z"/>
			<g>
				<polygon class="st5" points="245.5,84.4 245.4,84.4 243.9,78.5 242.5,78.5 240.9,84.4 240.9,84.4 239.4,78.5 237.9,78.5 
					240.1,86.5 241.6,86.5 243.2,80.9 243.2,80.9 244.8,86.5 246.3,86.5 248.5,78.5 247,78.5 				"/>
				<path class="st5" d="M253.6,80.9c-0.2-0.2-0.5-0.3-0.8-0.3s-0.6-0.1-0.9-0.1c-0.4,0-0.8,0.1-1.1,0.2s-0.6,0.3-0.9,0.6
					s-0.4,0.6-0.5,0.9l1.3,0.2c0.1-0.2,0.2-0.4,0.4-0.5s0.5-0.2,0.8-0.2c0.3,0,0.6,0.1,0.8,0.2s0.3,0.4,0.3,0.7v0
					c0,0.1-0.1,0.2-0.2,0.3s-0.3,0.1-0.5,0.1s-0.5,0.1-0.9,0.1c-0.3,0-0.6,0.1-0.8,0.2s-0.5,0.2-0.7,0.3s-0.4,0.3-0.5,0.5
					s-0.2,0.5-0.2,0.8c0,0.4,0.1,0.7,0.3,1s0.4,0.5,0.7,0.6s0.6,0.2,1,0.2c0.3,0,0.6,0,0.8-0.1s0.4-0.2,0.6-0.3s0.3-0.3,0.4-0.5h0
					v0.8h1.4v-4c0-0.4-0.1-0.7-0.2-1S253.8,81.1,253.6,80.9z M252.9,84.4c0,0.2-0.1,0.4-0.2,0.6s-0.3,0.3-0.5,0.5s-0.5,0.2-0.7,0.2
					c-0.3,0-0.5-0.1-0.7-0.2s-0.3-0.3-0.3-0.6c0-0.2,0-0.3,0.1-0.4s0.2-0.2,0.4-0.3s0.4-0.1,0.6-0.1c0.1,0,0.2,0,0.3,0
					s0.3,0,0.4-0.1s0.2-0.1,0.4-0.1s0.2-0.1,0.2-0.1V84.4z"/>
				<path class="st5" d="M258.5,85.4c-0.1,0-0.2,0-0.2,0c-0.1,0-0.2,0-0.3-0.1s-0.2-0.1-0.2-0.2s-0.1-0.2-0.1-0.4v-3.1h1.2v-1.1
					h-1.2v-1.4h-1.4v1.4h-0.9v1.1h0.9V85c0,0.4,0.1,0.7,0.2,0.9s0.4,0.4,0.7,0.6s0.6,0.2,1,0.2c0.2,0,0.4,0,0.5-0.1s0.2-0.1,0.3-0.1
					l-0.2-1.1C258.6,85.4,258.5,85.4,258.5,85.4z"/>
				<path class="st5" d="M261.8,81.8c0.2-0.2,0.5-0.2,0.8-0.2c0.3,0,0.6,0.1,0.8,0.3s0.3,0.4,0.4,0.7h1.4c0-0.4-0.2-0.8-0.4-1.1
					s-0.5-0.6-0.9-0.8s-0.8-0.3-1.3-0.3c-0.6,0-1.1,0.1-1.5,0.4s-0.8,0.6-1,1.1s-0.4,1-0.4,1.6c0,0.6,0.1,1.1,0.3,1.6s0.6,0.8,1,1.1
					s0.9,0.4,1.5,0.4c0.5,0,0.9-0.1,1.3-0.3s0.7-0.4,0.9-0.8s0.3-0.7,0.4-1.1h-1.4c0,0.2-0.1,0.4-0.2,0.6s-0.3,0.3-0.4,0.3
					s-0.4,0.1-0.6,0.1c-0.3,0-0.6-0.1-0.8-0.2s-0.4-0.4-0.5-0.7s-0.2-0.6-0.2-1.1c0-0.4,0.1-0.8,0.2-1S261.6,82,261.8,81.8z"/>
				<path class="st5" d="M270.6,80.7c-0.3-0.2-0.7-0.3-1.1-0.3c-0.5,0-0.8,0.1-1.1,0.3s-0.5,0.5-0.7,0.8h-0.1v-3h-1.4v8h1.4V83
					c0-0.3,0.1-0.5,0.2-0.7s0.3-0.4,0.5-0.5s0.4-0.2,0.7-0.2c0.4,0,0.7,0.1,0.9,0.3s0.3,0.5,0.3,0.9v3.6h1.4v-3.8
					c0-0.5-0.1-0.9-0.3-1.2S270.9,80.9,270.6,80.7z"/>
				<rect x="275.8" y="78.5" class="st5" width="1.4" height="8"/>
				<path class="st5" d="M279.4,78.2c-0.2,0-0.4,0.1-0.6,0.2s-0.2,0.3-0.2,0.5s0.1,0.4,0.2,0.5s0.4,0.2,0.6,0.2
					c0.2,0,0.4-0.1,0.6-0.2s0.2-0.3,0.2-0.5s-0.1-0.4-0.2-0.5S279.6,78.2,279.4,78.2z"/>
				<rect x="278.6" y="80.5" class="st5" width="1.4" height="6"/>
				<path class="st5" d="M284.7,83.1l-1-0.2c-0.3-0.1-0.5-0.2-0.7-0.3s-0.2-0.3-0.2-0.4c0-0.2,0.1-0.4,0.3-0.5s0.4-0.2,0.7-0.2
					c0.2,0,0.4,0,0.6,0.1s0.3,0.2,0.4,0.3s0.2,0.2,0.2,0.4l1.3-0.1c-0.1-0.5-0.3-0.9-0.8-1.2s-1-0.4-1.7-0.4c-0.5,0-0.9,0.1-1.3,0.2
					s-0.7,0.4-0.9,0.6s-0.3,0.6-0.3,1c0,0.4,0.1,0.8,0.4,1.1s0.7,0.5,1.3,0.6l1,0.2c0.3,0.1,0.5,0.1,0.6,0.3s0.2,0.3,0.2,0.4
					c0,0.2-0.1,0.4-0.3,0.5s-0.5,0.2-0.8,0.2c-0.3,0-0.6-0.1-0.8-0.2s-0.3-0.3-0.4-0.6l-1.4,0.1c0.1,0.6,0.4,1,0.8,1.3
					s1,0.5,1.8,0.5c0.5,0,0.9-0.1,1.3-0.2s0.7-0.4,0.9-0.7s0.3-0.6,0.3-1c0-0.4-0.1-0.8-0.4-1S285.3,83.2,284.7,83.1z"/>
				<path class="st5" d="M290.4,85.4c0,0-0.1,0-0.2,0s-0.2,0-0.2,0c-0.1,0-0.2,0-0.3-0.1s-0.2-0.1-0.2-0.2s-0.1-0.2-0.1-0.4v-3.1
					h1.2v-1.1h-1.2v-1.4H288v1.4h-0.9v1.1h0.9V85c0,0.4,0.1,0.7,0.2,0.9s0.4,0.4,0.7,0.6s0.6,0.2,1,0.2c0.2,0,0.4,0,0.5-0.1
					s0.2-0.1,0.3-0.1L290.4,85.4z"/>
			</g>
		</g>
	</g>
	<g>
		<polygon class="st6" points="467.4,59.6 467.4,59.6 432.6,93 327,93 361.8,59.6 361.8,59.6 327,26.2 432.6,26.2 		"/>
		<g>
			<path class="st3" d="M479.6,98.6h-94.3c-1.9,0-3.4-1.5-3.4-3.4V56.8c0-1.9,1.5-3.4,3.4-3.4h94.3c1.9,0,3.4,1.5,3.4,3.4v38.4
				C483,97.1,481.4,98.6,479.6,98.6z"/>
			<path class="st4" d="M479.6,98.6h-94.3c-1.9,0-3.4-1.5-3.4-3.4V56.8c0-1.9,1.5-3.4,3.4-3.4h94.3c1.9,0,3.4,1.5,3.4,3.4v38.4
				C483,97.1,481.4,98.6,479.6,98.6z"/>
		</g>
		<g>
			<path d="M421.3,67.4c0-0.4-0.2-0.7-0.6-0.9s-0.7-0.3-1.2-0.3c-0.4,0-0.7,0.1-0.9,0.2s-0.5,0.3-0.6,0.5s-0.2,0.4-0.2,0.7
				c0,0.2,0.1,0.4,0.2,0.5s0.2,0.3,0.4,0.4s0.3,0.2,0.5,0.2s0.3,0.1,0.5,0.2l0.8,0.2c0.2,0.1,0.4,0.1,0.7,0.2s0.5,0.2,0.7,0.4
				s0.4,0.4,0.6,0.6s0.2,0.6,0.2,0.9c0,0.4-0.1,0.8-0.3,1.2s-0.6,0.6-1,0.8s-1,0.3-1.6,0.3c-0.6,0-1.1-0.1-1.5-0.3s-0.7-0.4-1-0.8
				s-0.4-0.7-0.4-1.2h1c0,0.3,0.1,0.6,0.3,0.7s0.4,0.3,0.7,0.4s0.6,0.1,0.9,0.1c0.4,0,0.7-0.1,1-0.2s0.5-0.3,0.7-0.5
				s0.3-0.5,0.3-0.8c0-0.3-0.1-0.5-0.2-0.6s-0.3-0.3-0.6-0.4s-0.5-0.2-0.8-0.3l-1-0.3c-0.6-0.2-1.1-0.4-1.5-0.8s-0.5-0.8-0.5-1.3
				c0-0.4,0.1-0.8,0.4-1.2s0.6-0.6,1-0.8s0.9-0.3,1.4-0.3c0.5,0,1,0.1,1.4,0.3s0.7,0.4,1,0.8s0.4,0.7,0.4,1.1H421.3z"/>
			<path d="M426.3,73.5c-0.6,0-1.1-0.1-1.5-0.4s-0.7-0.6-1-1.1s-0.3-1-0.3-1.6s0.1-1.2,0.3-1.6s0.5-0.8,0.9-1.1s0.9-0.4,1.4-0.4
				c0.3,0,0.6,0.1,0.9,0.2s0.6,0.3,0.8,0.5s0.4,0.5,0.6,0.9s0.2,0.9,0.2,1.4v0.4h-4.6v-0.8h3.7c0-0.3-0.1-0.6-0.2-0.9
				s-0.3-0.5-0.6-0.6s-0.5-0.2-0.9-0.2c-0.4,0-0.7,0.1-1,0.3s-0.5,0.4-0.6,0.7s-0.2,0.6-0.2,0.9v0.5c0,0.5,0.1,0.8,0.2,1.2
				s0.4,0.6,0.7,0.7s0.6,0.2,1,0.2c0.2,0,0.5,0,0.7-0.1s0.4-0.2,0.5-0.3s0.3-0.3,0.3-0.5l0.9,0.2c-0.1,0.3-0.3,0.6-0.5,0.8
				s-0.5,0.4-0.8,0.5S426.7,73.5,426.3,73.5z"/>
			<path d="M431.2,65.4v8h-0.9v-8H431.2z"/>
			<path d="M435.4,73.5c-0.6,0-1.1-0.1-1.5-0.4s-0.7-0.6-1-1.1s-0.3-1-0.3-1.6s0.1-1.2,0.3-1.6s0.5-0.8,0.9-1.1s0.9-0.4,1.4-0.4
				c0.3,0,0.6,0.1,0.9,0.2s0.6,0.3,0.8,0.5s0.4,0.5,0.6,0.9s0.2,0.9,0.2,1.4v0.4h-4.6v-0.8h3.7c0-0.3-0.1-0.6-0.2-0.9
				s-0.3-0.5-0.6-0.6s-0.5-0.2-0.9-0.2c-0.4,0-0.7,0.1-1,0.3s-0.5,0.4-0.6,0.7s-0.2,0.6-0.2,0.9v0.5c0,0.5,0.1,0.8,0.2,1.2
				s0.4,0.6,0.7,0.7s0.6,0.2,1,0.2c0.2,0,0.5,0,0.7-0.1s0.4-0.2,0.5-0.3s0.3-0.3,0.3-0.5l0.9,0.2c-0.1,0.3-0.3,0.6-0.5,0.8
				s-0.5,0.4-0.8,0.5S435.8,73.5,435.4,73.5z"/>
			<path d="M441.7,73.5c-0.6,0-1-0.1-1.5-0.4s-0.7-0.6-0.9-1.1s-0.3-1-0.3-1.6c0-0.6,0.1-1.1,0.3-1.6s0.5-0.8,0.9-1.1
				s0.9-0.4,1.4-0.4c0.4,0,0.8,0.1,1.1,0.2c0.3,0.2,0.6,0.4,0.8,0.7c0.2,0.3,0.4,0.6,0.4,1h-0.9c-0.1-0.3-0.2-0.5-0.5-0.7
				c-0.2-0.2-0.6-0.3-1-0.3c-0.4,0-0.7,0.1-0.9,0.3c-0.3,0.2-0.5,0.4-0.6,0.8s-0.2,0.7-0.2,1.2c0,0.5,0.1,0.9,0.2,1.2
				s0.4,0.6,0.6,0.8c0.3,0.2,0.6,0.3,1,0.3c0.2,0,0.5,0,0.7-0.1s0.4-0.2,0.5-0.4c0.1-0.2,0.2-0.3,0.3-0.6h0.9
				c-0.1,0.4-0.2,0.7-0.4,1c-0.2,0.3-0.5,0.5-0.8,0.7C442.5,73.4,442.1,73.5,441.7,73.5z"/>
			<path d="M448,67.4v0.8h-3.1v-0.8H448z M445.8,66h0.9v5.7c0,0.3,0,0.5,0.1,0.6s0.2,0.2,0.3,0.3s0.2,0.1,0.4,0.1c0.1,0,0.2,0,0.2,0
				s0.1,0,0.2,0l0.2,0.8c-0.1,0-0.1,0-0.3,0.1s-0.3,0-0.4,0c-0.3,0-0.5-0.1-0.8-0.2s-0.5-0.3-0.6-0.5s-0.2-0.5-0.2-0.9V66z"/>
			<g>
				<polygon class="st5" points="411.2,86.6 412.6,86.6 412.6,83.2 416,83.2 416,82 412.6,82 412.6,79.8 416.3,79.8 416.3,78.6 
					411.2,78.6 				"/>
				<path class="st5" d="M421.7,81c-0.2-0.2-0.5-0.3-0.8-0.3s-0.6-0.1-0.9-0.1c-0.4,0-0.8,0.1-1.1,0.2s-0.6,0.3-0.9,0.6
					s-0.4,0.6-0.5,0.9l1.3,0.2c0.1-0.2,0.2-0.4,0.4-0.5s0.5-0.2,0.8-0.2c0.3,0,0.6,0.1,0.8,0.2s0.3,0.4,0.3,0.7v0
					c0,0.1-0.1,0.2-0.2,0.3s-0.3,0.1-0.5,0.1s-0.5,0.1-0.9,0.1c-0.3,0-0.6,0.1-0.8,0.2s-0.5,0.2-0.7,0.3s-0.4,0.3-0.5,0.5
					s-0.2,0.5-0.2,0.8c0,0.4,0.1,0.7,0.3,1s0.4,0.5,0.7,0.6s0.6,0.2,1,0.2c0.3,0,0.6,0,0.8-0.1s0.4-0.2,0.6-0.3s0.3-0.3,0.4-0.5h0
					v0.8h1.4v-4c0-0.4-0.1-0.7-0.2-1S421.9,81.1,421.7,81z M421,84.4c0,0.2-0.1,0.4-0.2,0.6s-0.3,0.3-0.5,0.5s-0.5,0.2-0.7,0.2
					c-0.3,0-0.5-0.1-0.7-0.2s-0.3-0.3-0.3-0.6c0-0.2,0-0.3,0.1-0.4s0.2-0.2,0.4-0.3s0.4-0.1,0.6-0.1c0.1,0,0.2,0,0.3,0
					s0.3,0,0.4-0.1s0.2-0.1,0.4-0.1s0.2-0.1,0.2-0.1V84.4z"/>
				<polygon class="st5" points="426.4,85.1 426.3,85.1 424.9,80.6 423.4,80.6 425.5,86.6 427.1,86.6 429.2,80.6 427.7,80.6 				"/>
				<path class="st5" d="M434.4,80.9c-0.4-0.3-0.9-0.4-1.5-0.4s-1.1,0.1-1.5,0.4s-0.8,0.6-1,1.1s-0.4,1-0.4,1.6s0.1,1.2,0.4,1.6
					s0.6,0.8,1,1.1s0.9,0.4,1.5,0.4s1.1-0.1,1.5-0.4s0.8-0.6,1-1.1s0.4-1,0.4-1.6s-0.1-1.2-0.4-1.6S434.8,81.2,434.4,80.9z
					 M434.1,84.6c-0.1,0.3-0.3,0.5-0.5,0.7s-0.5,0.3-0.8,0.3c-0.3,0-0.6-0.1-0.8-0.3s-0.4-0.4-0.5-0.7s-0.2-0.6-0.2-1
					c0-0.4,0.1-0.7,0.2-1s0.3-0.5,0.5-0.7s0.5-0.3,0.8-0.3c0.3,0,0.6,0.1,0.8,0.3s0.4,0.4,0.5,0.7s0.2,0.6,0.2,1
					C434.3,84,434.2,84.3,434.1,84.6z"/>
				<path class="st5" d="M439.8,80.5c-0.3,0-0.6,0.1-0.9,0.3s-0.5,0.5-0.6,0.8h-0.1v-1h-1.4v6h1.4v-3.5c0-0.3,0.1-0.5,0.2-0.7
					s0.3-0.3,0.5-0.5s0.4-0.2,0.7-0.2c0.1,0,0.2,0,0.4,0s0.2,0,0.3,0.1v-1.3c-0.1,0-0.1,0-0.2,0S439.9,80.5,439.8,80.5z"/>
				<rect x="441.3" y="80.6" class="st5" width="1.4" height="6"/>
				<path class="st5" d="M442,78.2c-0.2,0-0.4,0.1-0.6,0.2s-0.2,0.3-0.2,0.5s0.1,0.4,0.2,0.5s0.4,0.2,0.6,0.2c0.2,0,0.4-0.1,0.6-0.2
					s0.2-0.3,0.2-0.5s-0.1-0.4-0.2-0.5S442.2,78.2,442,78.2z"/>
				<path class="st5" d="M446.8,85.5c-0.1,0-0.2,0-0.2,0c-0.1,0-0.2,0-0.3-0.1s-0.2-0.1-0.2-0.2s-0.1-0.2-0.1-0.4v-3.1h1.2v-1.1
					h-1.2v-1.4h-1.4v1.4h-0.9v1.1h0.9V85c0,0.4,0.1,0.7,0.2,0.9s0.4,0.4,0.7,0.6s0.6,0.2,1,0.2c0.2,0,0.4,0,0.5-0.1s0.2-0.1,0.3-0.1
					l-0.2-1.1C447,85.4,446.9,85.5,446.8,85.5z"/>
				<path class="st5" d="M453.6,83.6c0-0.5-0.1-1-0.2-1.4s-0.3-0.7-0.6-0.9s-0.5-0.4-0.9-0.5s-0.7-0.2-1-0.2c-0.6,0-1.1,0.1-1.5,0.4
					s-0.8,0.6-1,1.1s-0.4,1-0.4,1.6c0,0.6,0.1,1.2,0.4,1.6s0.6,0.8,1,1.1s1,0.4,1.6,0.4c0.5,0,0.9-0.1,1.2-0.2s0.7-0.3,0.9-0.6
					s0.4-0.6,0.5-0.9l-1.3-0.1c-0.1,0.2-0.2,0.3-0.3,0.4s-0.3,0.2-0.4,0.3s-0.4,0.1-0.6,0.1c-0.3,0-0.6-0.1-0.8-0.2
					s-0.4-0.3-0.5-0.6c-0.1-0.2-0.2-0.5-0.2-0.9h4.2V83.6z M449.5,83c0-0.2,0.1-0.5,0.2-0.7c0.1-0.2,0.3-0.4,0.5-0.5
					s0.5-0.2,0.8-0.2c0.3,0,0.5,0.1,0.7,0.2s0.4,0.3,0.5,0.5s0.2,0.5,0.2,0.7H449.5z"/>
			</g>
		</g>
	</g>
	<g>
		<polygon class="st7" points="803.7,59.6 803.7,59.6 768.9,93 663.3,93 698.1,59.6 698.1,59.6 663.3,26.2 768.9,26.2 		"/>
		<g>
			<path class="st3" d="M815.9,98.6h-94.3c-1.9,0-3.4-1.5-3.4-3.4V56.8c0-1.9,1.5-3.4,3.4-3.4h94.3c1.9,0,3.4,1.5,3.4,3.4v38.4
				C819.3,97.1,817.7,98.6,815.9,98.6z"/>
			<path class="st4" d="M815.9,98.6h-94.3c-1.9,0-3.4-1.5-3.4-3.4V56.8c0-1.9,1.5-3.4,3.4-3.4h94.3c1.9,0,3.4,1.5,3.4,3.4v38.4
				C819.3,97.1,817.7,98.6,815.9,98.6z"/>
		</g>
		<g>
			<path d="M757.5,67.4c0-0.4-0.2-0.7-0.6-0.9s-0.7-0.3-1.2-0.3c-0.4,0-0.7,0.1-0.9,0.2s-0.5,0.3-0.6,0.5s-0.2,0.4-0.2,0.7
				c0,0.2,0.1,0.4,0.2,0.5s0.2,0.3,0.4,0.4s0.3,0.2,0.5,0.2s0.3,0.1,0.5,0.2l0.8,0.2c0.2,0.1,0.4,0.1,0.7,0.2s0.5,0.2,0.7,0.4
				s0.4,0.4,0.6,0.6s0.2,0.6,0.2,0.9c0,0.4-0.1,0.8-0.3,1.2s-0.6,0.6-1,0.8s-1,0.3-1.6,0.3c-0.6,0-1.1-0.1-1.5-0.3s-0.7-0.4-1-0.8
				s-0.4-0.7-0.4-1.2h1c0,0.3,0.1,0.6,0.3,0.7s0.4,0.3,0.7,0.4s0.6,0.1,0.9,0.1c0.4,0,0.7-0.1,1-0.2s0.5-0.3,0.7-0.5
				s0.3-0.5,0.3-0.8c0-0.3-0.1-0.5-0.2-0.6s-0.3-0.3-0.6-0.4s-0.5-0.2-0.8-0.3l-1-0.3c-0.6-0.2-1.1-0.4-1.5-0.8s-0.5-0.8-0.5-1.3
				c0-0.4,0.1-0.8,0.4-1.2s0.6-0.6,1-0.8s0.9-0.3,1.4-0.3c0.5,0,1,0.1,1.4,0.3s0.7,0.4,1,0.8s0.4,0.7,0.4,1.1H757.5z"/>
			<path d="M762.6,73.5c-0.6,0-1.1-0.1-1.5-0.4s-0.7-0.6-1-1.1s-0.3-1-0.3-1.6s0.1-1.2,0.3-1.6s0.5-0.8,0.9-1.1s0.9-0.4,1.4-0.4
				c0.3,0,0.6,0.1,0.9,0.2s0.6,0.3,0.8,0.5s0.4,0.5,0.6,0.9s0.2,0.9,0.2,1.4v0.4h-4.6v-0.8h3.7c0-0.3-0.1-0.6-0.2-0.9
				s-0.3-0.5-0.6-0.6s-0.5-0.2-0.9-0.2c-0.4,0-0.7,0.1-1,0.3s-0.5,0.4-0.6,0.7s-0.2,0.6-0.2,0.9v0.5c0,0.5,0.1,0.8,0.2,1.2
				s0.4,0.6,0.7,0.7s0.6,0.2,1,0.2c0.2,0,0.5,0,0.7-0.1s0.4-0.2,0.5-0.3s0.3-0.3,0.3-0.5L765,72c-0.1,0.3-0.3,0.6-0.5,0.8
				s-0.5,0.4-0.8,0.5S763,73.5,762.6,73.5z"/>
			<path d="M767.4,65.4v8h-0.9v-8H767.4z"/>
			<path d="M771.6,73.5c-0.6,0-1.1-0.1-1.5-0.4s-0.7-0.6-1-1.1s-0.3-1-0.3-1.6s0.1-1.2,0.3-1.6s0.5-0.8,0.9-1.1s0.9-0.4,1.4-0.4
				c0.3,0,0.6,0.1,0.9,0.2s0.6,0.3,0.8,0.5s0.4,0.5,0.6,0.9s0.2,0.9,0.2,1.4v0.4h-4.6v-0.8h3.7c0-0.3-0.1-0.6-0.2-0.9
				s-0.3-0.5-0.6-0.6s-0.5-0.2-0.9-0.2c-0.4,0-0.7,0.1-1,0.3s-0.5,0.4-0.6,0.7s-0.2,0.6-0.2,0.9v0.5c0,0.5,0.1,0.8,0.2,1.2
				s0.4,0.6,0.7,0.7s0.6,0.2,1,0.2c0.2,0,0.5,0,0.7-0.1s0.4-0.2,0.5-0.3s0.3-0.3,0.3-0.5L774,72c-0.1,0.3-0.3,0.6-0.5,0.8
				s-0.5,0.4-0.8,0.5S772,73.5,771.6,73.5z"/>
			<path d="M777.9,73.5c-0.6,0-1-0.1-1.5-0.4s-0.7-0.6-0.9-1.1s-0.3-1-0.3-1.6c0-0.6,0.1-1.1,0.3-1.6s0.5-0.8,0.9-1.1
				s0.9-0.4,1.4-0.4c0.4,0,0.8,0.1,1.1,0.2c0.3,0.2,0.6,0.4,0.8,0.7c0.2,0.3,0.4,0.6,0.4,1h-0.9c-0.1-0.3-0.2-0.5-0.5-0.7
				c-0.2-0.2-0.6-0.3-1-0.3c-0.4,0-0.7,0.1-0.9,0.3c-0.3,0.2-0.5,0.4-0.6,0.8s-0.2,0.7-0.2,1.2c0,0.5,0.1,0.9,0.2,1.2
				s0.4,0.6,0.6,0.8c0.3,0.2,0.6,0.3,1,0.3c0.2,0,0.5,0,0.7-0.1s0.4-0.2,0.5-0.4c0.1-0.2,0.2-0.3,0.3-0.6h0.9
				c-0.1,0.4-0.2,0.7-0.4,1c-0.2,0.3-0.5,0.5-0.8,0.7C778.7,73.4,778.4,73.5,777.9,73.5z"/>
			<path d="M784.2,67.4v0.8h-3.1v-0.8H784.2z M782,66h0.9v5.7c0,0.3,0,0.5,0.1,0.6s0.2,0.2,0.3,0.3s0.2,0.1,0.4,0.1
				c0.1,0,0.2,0,0.2,0s0.1,0,0.2,0l0.2,0.8c-0.1,0-0.1,0-0.3,0.1s-0.3,0-0.4,0c-0.3,0-0.5-0.1-0.8-0.2s-0.5-0.3-0.6-0.5
				s-0.2-0.5-0.2-0.9V66z"/>
			<g>
				<polygon class="st5" points="734.4,84.1 734.4,84.1 730.6,78.6 729.3,78.6 729.3,86.6 730.7,86.6 730.7,81.2 730.8,81.2 
					734.6,86.6 735.9,86.6 735.9,78.6 734.4,78.6 				"/>
				<path class="st5" d="M741.9,81.3c-0.3-0.2-0.5-0.4-0.9-0.5s-0.7-0.2-1-0.2c-0.6,0-1.1,0.1-1.5,0.4s-0.8,0.6-1,1.1
					s-0.4,1-0.4,1.6c0,0.6,0.1,1.2,0.4,1.6s0.6,0.8,1,1.1s1,0.4,1.6,0.4c0.5,0,0.9-0.1,1.2-0.2s0.7-0.3,0.9-0.6s0.4-0.6,0.5-0.9
					l-1.3-0.1c-0.1,0.2-0.2,0.3-0.3,0.4s-0.3,0.2-0.4,0.3s-0.4,0.1-0.6,0.1c-0.3,0-0.6-0.1-0.8-0.2s-0.4-0.3-0.5-0.6
					c-0.1-0.2-0.2-0.5-0.2-0.9h4.2v-0.4c0-0.5-0.1-1-0.2-1.4S742.1,81.5,741.9,81.3z M738.5,83c0-0.2,0.1-0.5,0.2-0.7
					c0.1-0.2,0.3-0.4,0.5-0.5s0.5-0.2,0.8-0.2c0.3,0,0.5,0.1,0.7,0.2s0.4,0.3,0.5,0.5s0.2,0.5,0.2,0.7H738.5z"/>
				<polygon class="st5" points="749.6,84.8 749.6,84.8 748.5,80.6 747.1,80.6 746,84.8 745.9,84.8 744.9,80.6 743.4,80.6 
					745.1,86.6 746.6,86.6 747.7,82.5 747.8,82.5 748.9,86.6 750.4,86.6 752.1,80.6 750.7,80.6 				"/>
				<polygon class="st5" points="763,84.5 762.9,84.5 761.4,78.6 759.9,78.6 758.4,84.5 758.3,84.5 756.9,78.6 755.3,78.6 
					757.6,86.6 759,86.6 760.6,81 760.7,81 762.3,86.6 763.7,86.6 766,78.6 764.4,78.6 				"/>
				<path class="st5" d="M771,81c-0.2-0.2-0.5-0.3-0.8-0.3s-0.6-0.1-0.9-0.1c-0.4,0-0.8,0.1-1.1,0.2s-0.6,0.3-0.9,0.6
					s-0.4,0.6-0.5,0.9l1.3,0.2c0.1-0.2,0.2-0.4,0.4-0.5s0.5-0.2,0.8-0.2c0.3,0,0.6,0.1,0.8,0.2s0.3,0.4,0.3,0.7v0
					c0,0.1-0.1,0.2-0.2,0.3S770,83,769.8,83s-0.5,0.1-0.9,0.1c-0.3,0-0.6,0.1-0.8,0.2s-0.5,0.2-0.7,0.3s-0.4,0.3-0.5,0.5
					s-0.2,0.5-0.2,0.8c0,0.4,0.1,0.7,0.3,1s0.4,0.5,0.7,0.6s0.6,0.2,1,0.2c0.3,0,0.6,0,0.8-0.1s0.4-0.2,0.6-0.3s0.3-0.3,0.4-0.5h0
					v0.8h1.4v-4c0-0.4-0.1-0.7-0.2-1S771.3,81.1,771,81z M770.4,84.4c0,0.2-0.1,0.4-0.2,0.6s-0.3,0.3-0.5,0.5s-0.5,0.2-0.7,0.2
					c-0.3,0-0.5-0.1-0.7-0.2s-0.3-0.3-0.3-0.6c0-0.2,0-0.3,0.1-0.4s0.2-0.2,0.4-0.3s0.4-0.1,0.6-0.1c0.1,0,0.2,0,0.3,0
					s0.3,0,0.4-0.1s0.2-0.1,0.4-0.1s0.2-0.1,0.2-0.1V84.4z"/>
				<path class="st5" d="M775.9,85.5c-0.1,0-0.2,0-0.2,0c-0.1,0-0.2,0-0.3-0.1s-0.2-0.1-0.2-0.2s-0.1-0.2-0.1-0.4v-3.1h1.2v-1.1
					h-1.2v-1.4h-1.4v1.4h-0.9v1.1h0.9V85c0,0.4,0.1,0.7,0.2,0.9s0.4,0.4,0.7,0.6s0.6,0.2,1,0.2c0.2,0,0.4,0,0.5-0.1s0.2-0.1,0.3-0.1
					l-0.2-1.1C776.1,85.4,776,85.5,775.9,85.5z"/>
				<path class="st5" d="M779.3,81.9c0.2-0.2,0.5-0.2,0.8-0.2c0.3,0,0.6,0.1,0.8,0.3s0.3,0.4,0.4,0.7h1.4c0-0.4-0.2-0.8-0.4-1.1
					s-0.5-0.6-0.9-0.8s-0.8-0.3-1.3-0.3c-0.6,0-1.1,0.1-1.5,0.4s-0.8,0.6-1,1.1s-0.4,1-0.4,1.6c0,0.6,0.1,1.1,0.3,1.6s0.6,0.8,1,1.1
					s0.9,0.4,1.5,0.4c0.5,0,0.9-0.1,1.3-0.3s0.7-0.4,0.9-0.8s0.3-0.7,0.4-1.1h-1.4c0,0.2-0.1,0.4-0.2,0.6s-0.3,0.3-0.4,0.3
					s-0.4,0.1-0.6,0.1c-0.3,0-0.5-0.1-0.8-0.2s-0.4-0.4-0.5-0.7s-0.2-0.6-0.2-1.1c0-0.4,0.1-0.8,0.2-1S779.1,82.1,779.3,81.9z"/>
				<path class="st5" d="M788.1,80.8c-0.3-0.2-0.7-0.3-1.1-0.3c-0.5,0-0.8,0.1-1.1,0.3s-0.5,0.5-0.7,0.8h-0.1v-3h-1.4v8h1.4v-3.5
					c0-0.3,0.1-0.5,0.2-0.7s0.3-0.4,0.5-0.5s0.4-0.2,0.7-0.2c0.4,0,0.7,0.1,0.9,0.3s0.3,0.5,0.3,0.9v3.6h1.4v-3.8
					c0-0.5-0.1-0.9-0.3-1.2S788.4,81,788.1,80.8z"/>
				<rect x="793.2" y="78.6" class="st5" width="1.4" height="8"/>
				<rect x="796.1" y="80.6" class="st5" width="1.4" height="6"/>
				<path class="st5" d="M796.8,78.2c-0.2,0-0.4,0.1-0.6,0.2S796,78.8,796,79s0.1,0.4,0.2,0.5s0.4,0.2,0.6,0.2
					c0.2,0,0.4-0.1,0.6-0.2s0.2-0.3,0.2-0.5s-0.1-0.4-0.2-0.5S797,78.2,796.8,78.2z"/>
				<path class="st5" d="M802.2,83.2l-1-0.2c-0.3-0.1-0.5-0.2-0.7-0.3s-0.2-0.3-0.2-0.4c0-0.2,0.1-0.4,0.3-0.5s0.4-0.2,0.7-0.2
					c0.2,0,0.4,0,0.6,0.1s0.3,0.2,0.4,0.3s0.2,0.2,0.2,0.4l1.3-0.1c-0.1-0.5-0.3-0.9-0.8-1.2s-1-0.4-1.7-0.4c-0.5,0-0.9,0.1-1.3,0.2
					s-0.7,0.4-0.9,0.6s-0.3,0.6-0.3,1c0,0.4,0.1,0.8,0.4,1.1s0.7,0.5,1.3,0.6l1,0.2c0.3,0.1,0.5,0.1,0.6,0.3s0.2,0.3,0.2,0.4
					c0,0.2-0.1,0.4-0.3,0.5s-0.5,0.2-0.8,0.2c-0.3,0-0.6-0.1-0.8-0.2s-0.3-0.3-0.4-0.6l-1.4,0.1c0.1,0.6,0.4,1,0.8,1.3
					s1,0.5,1.8,0.5c0.5,0,0.9-0.1,1.3-0.2s0.7-0.4,0.9-0.7s0.3-0.6,0.3-1c0-0.4-0.1-0.8-0.4-1S802.7,83.3,802.2,83.2z"/>
				<path class="st5" d="M807.9,85.4c0,0-0.1,0-0.2,0s-0.2,0-0.2,0c-0.1,0-0.2,0-0.3-0.1s-0.2-0.1-0.2-0.2s-0.1-0.2-0.1-0.4v-3.1
					h1.2v-1.1h-1.2v-1.4h-1.4v1.4h-0.9v1.1h0.9V85c0,0.4,0.1,0.7,0.2,0.9s0.4,0.4,0.7,0.6s0.6,0.2,1,0.2c0.2,0,0.4,0,0.5-0.1
					s0.2-0.1,0.3-0.1L807.9,85.4z"/>
			</g>
		</g>
	</g>
	<g>
		<polygon class="st8" points="971.9,59.6 971.9,59.6 937,93 831.4,93 866.3,59.6 866.3,59.6 831.4,26.2 937,26.2 		"/>
		<g>
			<path class="st3" d="M984,98.6h-94.3c-1.9,0-3.4-1.5-3.4-3.4V56.8c0-1.9,1.5-3.4,3.4-3.4H984c1.9,0,3.4,1.5,3.4,3.4v38.4
				C987.4,97.1,985.9,98.6,984,98.6z"/>
			<path class="st4" d="M984,98.6h-94.3c-1.9,0-3.4-1.5-3.4-3.4V56.8c0-1.9,1.5-3.4,3.4-3.4H984c1.9,0,3.4,1.5,3.4,3.4v38.4
				C987.4,97.1,985.9,98.6,984,98.6z"/>
		</g>
		<g>
			<path d="M926.8,62h-0.9c-0.1-0.3-0.1-0.5-0.3-0.7c-0.1-0.2-0.3-0.4-0.5-0.5c-0.2-0.1-0.4-0.2-0.6-0.3c-0.2-0.1-0.5-0.1-0.7-0.1
				c-0.5,0-0.9,0.1-1.3,0.4c-0.4,0.2-0.7,0.6-0.9,1c-0.2,0.5-0.3,1-0.3,1.7c0,0.7,0.1,1.2,0.3,1.7c0.2,0.5,0.5,0.8,0.9,1
				c0.4,0.2,0.8,0.4,1.3,0.4c0.3,0,0.5,0,0.7-0.1c0.2-0.1,0.4-0.2,0.6-0.3c0.2-0.1,0.4-0.3,0.5-0.5c0.1-0.2,0.2-0.4,0.3-0.7h0.9
				c-0.1,0.4-0.2,0.7-0.4,1c-0.2,0.3-0.4,0.6-0.7,0.8c-0.3,0.2-0.6,0.4-0.9,0.5s-0.7,0.2-1.1,0.2c-0.7,0-1.2-0.2-1.7-0.5
				c-0.5-0.3-0.9-0.8-1.2-1.4c-0.3-0.6-0.4-1.3-0.4-2.1c0-0.8,0.1-1.5,0.4-2.1c0.3-0.6,0.7-1,1.2-1.4c0.5-0.3,1.1-0.5,1.7-0.5
				c0.4,0,0.7,0.1,1.1,0.2c0.3,0.1,0.6,0.3,0.9,0.5c0.3,0.2,0.5,0.5,0.7,0.8C926.6,61.2,926.8,61.6,926.8,62z"/>
			<path d="M928.2,67.2v-5.7h0.9v0.9h0.1c0.1-0.3,0.3-0.5,0.6-0.7c0.3-0.2,0.6-0.3,0.9-0.3c0.1,0,0.1,0,0.2,0c0.1,0,0.2,0,0.2,0v0.9
				c0,0-0.1,0-0.2,0s-0.2,0-0.3,0c-0.3,0-0.5,0.1-0.7,0.2c-0.2,0.1-0.4,0.3-0.5,0.5s-0.2,0.4-0.2,0.7v3.6H928.2z"/>
			<path d="M934.5,67.3c-0.6,0-1-0.1-1.4-0.4c-0.4-0.2-0.7-0.6-0.9-1c-0.2-0.4-0.3-1-0.3-1.5c0-0.6,0.1-1.1,0.3-1.6s0.5-0.8,0.9-1.1
				c0.4-0.3,0.8-0.4,1.4-0.4c0.3,0,0.6,0,0.9,0.1c0.3,0.1,0.6,0.3,0.8,0.5c0.2,0.2,0.4,0.5,0.6,0.9c0.1,0.4,0.2,0.8,0.2,1.4v0.4
				h-4.4v-0.8h3.5c0-0.3-0.1-0.6-0.2-0.9c-0.1-0.3-0.3-0.5-0.5-0.6c-0.2-0.1-0.5-0.2-0.8-0.2c-0.4,0-0.7,0.1-0.9,0.3
				c-0.3,0.2-0.5,0.4-0.6,0.7s-0.2,0.6-0.2,0.9v0.5c0,0.4,0.1,0.8,0.2,1.1c0.2,0.3,0.4,0.5,0.6,0.7c0.3,0.2,0.6,0.2,0.9,0.2
				c0.2,0,0.4,0,0.6-0.1s0.4-0.2,0.5-0.3c0.1-0.1,0.2-0.3,0.3-0.5l0.9,0.2c-0.1,0.3-0.2,0.5-0.5,0.8c-0.2,0.2-0.5,0.4-0.8,0.5
				S934.9,67.3,934.5,67.3z"/>
			<path d="M939.9,67.4c-0.4,0-0.7-0.1-1-0.2c-0.3-0.1-0.5-0.3-0.7-0.6s-0.3-0.6-0.3-1c0-0.3,0.1-0.6,0.2-0.8
				c0.1-0.2,0.3-0.4,0.5-0.5c0.2-0.1,0.5-0.2,0.7-0.3c0.3-0.1,0.5-0.1,0.8-0.1c0.3,0,0.6-0.1,0.8-0.1c0.2,0,0.4-0.1,0.5-0.1
				c0.1-0.1,0.2-0.2,0.2-0.3v0c0-0.4-0.1-0.7-0.3-0.9c-0.2-0.2-0.5-0.3-0.9-0.3c-0.4,0-0.7,0.1-1,0.3c-0.2,0.2-0.4,0.4-0.5,0.6
				l-0.8-0.3c0.1-0.3,0.3-0.6,0.6-0.8c0.2-0.2,0.5-0.3,0.8-0.4c0.3-0.1,0.6-0.1,0.9-0.1c0.2,0,0.4,0,0.6,0.1c0.2,0,0.5,0.1,0.7,0.3
				c0.2,0.1,0.4,0.3,0.6,0.6c0.1,0.3,0.2,0.6,0.2,1.1v3.8h-0.9v-0.8h0c-0.1,0.1-0.2,0.3-0.3,0.4s-0.3,0.3-0.6,0.4
				C940.5,67.3,940.2,67.4,939.9,67.4z M940,66.6c0.3,0,0.6-0.1,0.9-0.2s0.4-0.3,0.5-0.5s0.2-0.4,0.2-0.7v-0.8c0,0-0.1,0.1-0.2,0.1
				s-0.3,0.1-0.4,0.1c-0.2,0-0.3,0-0.5,0.1s-0.3,0-0.4,0c-0.2,0-0.4,0.1-0.6,0.1c-0.2,0.1-0.4,0.2-0.5,0.3s-0.2,0.3-0.2,0.5
				c0,0.3,0.1,0.5,0.3,0.7C939.4,66.5,939.7,66.6,940,66.6z"/>
			<path d="M946.6,61.5v0.7h-3v-0.7H946.6z M944.5,60.1h0.9v5.5c0,0.2,0,0.4,0.1,0.6s0.2,0.2,0.3,0.2s0.2,0.1,0.4,0.1
				c0.1,0,0.2,0,0.2,0c0.1,0,0.1,0,0.2,0l0.2,0.8c-0.1,0-0.1,0-0.2,0.1c-0.1,0-0.2,0-0.4,0c-0.2,0-0.5-0.1-0.7-0.2
				c-0.2-0.1-0.4-0.3-0.6-0.5s-0.2-0.5-0.2-0.8V60.1z"/>
			<path d="M950.4,67.3c-0.6,0-1-0.1-1.4-0.4c-0.4-0.2-0.7-0.6-0.9-1c-0.2-0.4-0.3-1-0.3-1.5c0-0.6,0.1-1.1,0.3-1.6s0.5-0.8,0.9-1.1
				s0.8-0.4,1.4-0.4c0.3,0,0.6,0,0.9,0.1c0.3,0.1,0.6,0.3,0.8,0.5c0.2,0.2,0.4,0.5,0.6,0.9c0.1,0.4,0.2,0.8,0.2,1.4v0.4h-4.4v-0.8
				h3.5c0-0.3-0.1-0.6-0.2-0.9c-0.1-0.3-0.3-0.5-0.5-0.6c-0.2-0.1-0.5-0.2-0.8-0.2c-0.4,0-0.7,0.1-0.9,0.3c-0.3,0.2-0.5,0.4-0.6,0.7
				s-0.2,0.6-0.2,0.9v0.5c0,0.4,0.1,0.8,0.2,1.1c0.2,0.3,0.4,0.5,0.6,0.7s0.6,0.2,0.9,0.2c0.2,0,0.4,0,0.6-0.1s0.3-0.2,0.5-0.3
				c0.1-0.1,0.2-0.3,0.3-0.5l0.8,0.2c-0.1,0.3-0.2,0.5-0.5,0.8c-0.2,0.2-0.5,0.4-0.8,0.5C951.1,67.3,950.8,67.3,950.4,67.3z"/>
			<g>
				<polygon class="st5" points="899.2,77.4 899.2,77.4 895.6,72.2 894.3,72.2 894.3,79.8 895.7,79.8 895.7,74.6 895.8,74.6 
					899.4,79.8 900.6,79.8 900.6,72.2 899.2,72.2 				"/>
				<path class="st5" d="M906.3,74.7c-0.2-0.2-0.5-0.4-0.8-0.5c-0.3-0.1-0.6-0.2-1-0.2c-0.5,0-1,0.1-1.4,0.4c-0.4,0.2-0.7,0.6-0.9,1
					c-0.2,0.4-0.3,1-0.3,1.6c0,0.6,0.1,1.1,0.3,1.6c0.2,0.4,0.5,0.8,1,1c0.4,0.2,0.9,0.4,1.5,0.4c0.4,0,0.8-0.1,1.2-0.2
					c0.3-0.1,0.6-0.3,0.9-0.6c0.2-0.2,0.4-0.5,0.5-0.9l-1.3-0.1c-0.1,0.2-0.1,0.3-0.3,0.4s-0.3,0.2-0.4,0.2
					c-0.2,0.1-0.3,0.1-0.5,0.1c-0.3,0-0.5-0.1-0.8-0.2s-0.4-0.3-0.5-0.5c-0.1-0.2-0.2-0.5-0.2-0.8h4v-0.4c0-0.5-0.1-0.9-0.2-1.3
					C906.8,75.2,906.6,74.9,906.3,74.7z M903.1,76.4c0-0.2,0.1-0.4,0.2-0.6c0.1-0.2,0.3-0.4,0.5-0.5s0.5-0.2,0.7-0.2
					c0.3,0,0.5,0.1,0.7,0.2c0.2,0.1,0.3,0.3,0.5,0.5c0.1,0.2,0.2,0.4,0.2,0.7H903.1z"/>
				<polygon class="st5" points="913.7,78.1 913.7,78.1 912.7,74.1 911.3,74.1 910.3,78.1 910.2,78.1 909.2,74.1 907.8,74.1 
					909.4,79.8 910.9,79.8 911.9,75.9 912,75.9 913.1,79.8 914.5,79.8 916.1,74.1 914.7,74.1 				"/>
				<polygon class="st5" points="927.2,79.8 929.3,72.2 927.8,72.2 926.5,77.8 926.4,77.8 924.9,72.2 923.6,72.2 922.1,77.8 
					922,77.8 920.7,72.2 919.2,72.2 921.3,79.8 922.7,79.8 924.2,74.5 924.3,74.5 925.8,79.8 				"/>
				<path class="st5" d="M932.7,79.8c0.2-0.1,0.4-0.2,0.6-0.3c0.1-0.1,0.3-0.3,0.3-0.4h0v0.8h1.3V76c0-0.4-0.1-0.7-0.2-1
					c-0.1-0.3-0.3-0.5-0.5-0.6s-0.5-0.3-0.7-0.3c-0.3-0.1-0.5-0.1-0.8-0.1c-0.4,0-0.8,0.1-1.1,0.2c-0.3,0.1-0.6,0.3-0.8,0.5
					c-0.2,0.2-0.4,0.5-0.5,0.9l1.3,0.2c0.1-0.2,0.2-0.4,0.4-0.5c0.2-0.1,0.5-0.2,0.8-0.2c0.3,0,0.6,0.1,0.7,0.2
					c0.2,0.2,0.2,0.4,0.2,0.7v0c0,0.1,0,0.2-0.1,0.3s-0.2,0.1-0.5,0.1c-0.2,0-0.5,0.1-0.8,0.1c-0.3,0-0.5,0.1-0.8,0.1
					c-0.3,0.1-0.5,0.2-0.7,0.3c-0.2,0.1-0.4,0.3-0.5,0.5s-0.2,0.5-0.2,0.8c0,0.4,0.1,0.7,0.3,0.9c0.2,0.3,0.4,0.4,0.7,0.6
					s0.6,0.2,1,0.2C932.2,79.9,932.4,79.9,932.7,79.8z M931.3,78.2c0-0.2,0-0.3,0.1-0.4c0.1-0.1,0.2-0.2,0.4-0.3
					c0.2-0.1,0.3-0.1,0.5-0.1c0.1,0,0.2,0,0.3,0c0.1,0,0.2,0,0.4-0.1c0.1,0,0.2,0,0.3-0.1s0.2-0.1,0.2-0.1v0.7
					c0,0.2-0.1,0.4-0.2,0.6c-0.1,0.2-0.3,0.3-0.5,0.4c-0.2,0.1-0.4,0.2-0.7,0.2c-0.3,0-0.5-0.1-0.7-0.2S931.3,78.4,931.3,78.2z"/>
				<path class="st5" d="M937.5,79.7c0.3,0.1,0.6,0.2,0.9,0.2c0.2,0,0.4,0,0.5-0.1c0.1,0,0.2-0.1,0.3-0.1l-0.2-1.1c0,0-0.1,0-0.2,0
					c-0.1,0-0.1,0-0.2,0c-0.1,0-0.2,0-0.3-0.1c-0.1,0-0.2-0.1-0.2-0.2c-0.1-0.1-0.1-0.2-0.1-0.4v-3h1.1v-1H938v-1.4h-1.4v1.4h-0.8v1
					h0.8v3.2c0,0.4,0.1,0.7,0.2,0.9C937,79.5,937.3,79.6,937.5,79.7z"/>
				<path class="st5" d="M944.9,78.9c0.2-0.3,0.3-0.7,0.4-1.1h-1.3c0,0.2-0.1,0.4-0.2,0.5c-0.1,0.1-0.2,0.3-0.4,0.3
					c-0.2,0.1-0.3,0.1-0.5,0.1c-0.3,0-0.5-0.1-0.7-0.2s-0.4-0.4-0.5-0.6c-0.1-0.3-0.2-0.6-0.2-1c0-0.4,0.1-0.7,0.2-1
					s0.3-0.5,0.5-0.6c0.2-0.1,0.5-0.2,0.7-0.2c0.3,0,0.6,0.1,0.8,0.3c0.2,0.2,0.3,0.4,0.4,0.7h1.3c0-0.4-0.2-0.8-0.4-1.1
					s-0.5-0.5-0.9-0.7s-0.8-0.3-1.2-0.3c-0.6,0-1,0.1-1.5,0.4c-0.4,0.2-0.7,0.6-0.9,1c-0.2,0.4-0.3,1-0.3,1.5c0,0.6,0.1,1.1,0.3,1.5
					c0.2,0.4,0.5,0.8,0.9,1c0.4,0.3,0.9,0.4,1.5,0.4c0.5,0,0.9-0.1,1.3-0.3C944.4,79.5,944.6,79.3,944.9,78.9z"/>
				<path class="st5" d="M950.5,74.3c-0.3-0.2-0.6-0.2-1-0.2c-0.4,0-0.8,0.1-1.1,0.3c-0.3,0.2-0.5,0.4-0.6,0.8h-0.1v-2.9h-1.3v7.6
					h1.3v-3.4c0-0.3,0.1-0.5,0.2-0.7c0.1-0.2,0.3-0.3,0.4-0.4c0.2-0.1,0.4-0.2,0.6-0.2c0.4,0,0.6,0.1,0.8,0.3
					c0.2,0.2,0.3,0.5,0.3,0.9v3.4h1.3v-3.6c0-0.5-0.1-0.9-0.2-1.2S950.7,74.4,950.5,74.3z"/>
				<rect x="955.4" y="72.2" class="st5" width="1.3" height="7.6"/>
				<rect x="958.1" y="74.1" class="st5" width="1.3" height="5.7"/>
				<path class="st5" d="M958.8,71.8c-0.2,0-0.4,0.1-0.6,0.2s-0.2,0.3-0.2,0.5c0,0.2,0.1,0.4,0.2,0.5s0.3,0.2,0.6,0.2
					c0.2,0,0.4-0.1,0.6-0.2c0.2-0.1,0.2-0.3,0.2-0.5s-0.1-0.4-0.2-0.5C959.2,71.9,959,71.8,958.8,71.8z"/>
				<path class="st5" d="M963.9,76.6l-1-0.2c-0.3-0.1-0.5-0.2-0.6-0.3c-0.1-0.1-0.2-0.2-0.2-0.4c0-0.2,0.1-0.4,0.3-0.5
					c0.2-0.1,0.4-0.2,0.7-0.2c0.2,0,0.4,0,0.5,0.1c0.1,0.1,0.3,0.2,0.3,0.3s0.1,0.2,0.2,0.4l1.2-0.1c-0.1-0.5-0.3-0.9-0.7-1.2
					c-0.4-0.3-0.9-0.4-1.6-0.4c-0.5,0-0.9,0.1-1.2,0.2c-0.3,0.1-0.6,0.3-0.8,0.6c-0.2,0.3-0.3,0.6-0.3,0.9c0,0.4,0.1,0.8,0.4,1
					c0.3,0.3,0.7,0.5,1.2,0.6l1,0.2c0.3,0.1,0.5,0.1,0.6,0.2c0.1,0.1,0.2,0.2,0.2,0.4c0,0.2-0.1,0.4-0.3,0.5s-0.5,0.2-0.8,0.2
					c-0.3,0-0.6-0.1-0.8-0.2c-0.2-0.1-0.3-0.3-0.4-0.6l-1.3,0.1c0.1,0.5,0.3,0.9,0.8,1.2s1,0.4,1.7,0.4c0.5,0,0.9-0.1,1.3-0.2
					c0.4-0.2,0.7-0.4,0.9-0.6c0.2-0.3,0.3-0.6,0.3-1c0-0.4-0.1-0.7-0.4-1C964.8,76.9,964.4,76.7,963.9,76.6z"/>
				<path class="st5" d="M969.2,78.7c-0.1,0-0.1,0-0.2,0c-0.1,0-0.2,0-0.3-0.1c-0.1,0-0.2-0.1-0.2-0.2c-0.1-0.1-0.1-0.2-0.1-0.4v-3
					h1.1v-1h-1.1v-1.4H967v1.4h-0.8v1h0.8v3.2c0,0.4,0.1,0.7,0.2,0.9c0.2,0.2,0.4,0.4,0.6,0.5c0.3,0.1,0.6,0.2,0.9,0.2
					c0.2,0,0.4,0,0.5-0.1c0.1,0,0.2-0.1,0.3-0.1l-0.2-1.1C969.3,78.7,969.2,78.7,969.2,78.7z"/>
				<path class="st5" d="M979.4,79.8l-1.1-1.3c0,0,0.1-0.1,0.1-0.1c0.2-0.2,0.3-0.5,0.4-0.9c0.1-0.4,0.2-0.8,0.2-1.3h-1.2
					c0,0.4-0.1,0.7-0.2,1.1c0,0.1-0.1,0.2-0.1,0.3l-1.4-1.6l0.5-0.4c0.3-0.2,0.6-0.5,0.7-0.8s0.3-0.6,0.3-1c0-0.3-0.1-0.6-0.2-0.9
					c-0.2-0.3-0.4-0.5-0.7-0.6c-0.3-0.2-0.6-0.2-1-0.2c-0.4,0-0.8,0.1-1.1,0.2c-0.3,0.2-0.5,0.4-0.7,0.7c-0.2,0.3-0.2,0.6-0.2,1
					c0,0.3,0.1,0.6,0.2,0.9c0.1,0.3,0.3,0.5,0.5,0.8c0,0,0.1,0.1,0.1,0.1c-0.3,0.2-0.5,0.4-0.7,0.6c-0.2,0.2-0.4,0.4-0.5,0.7
					c-0.1,0.2-0.2,0.5-0.2,0.8c0,0.4,0.1,0.8,0.3,1.1c0.2,0.3,0.5,0.6,0.9,0.8c0.4,0.2,0.8,0.3,1.3,0.3c0.3,0,0.7-0.1,1.1-0.2
					c0.3-0.1,0.6-0.3,0.9-0.5l0.5,0.6H979.4z M974.9,73.6c0.1-0.1,0.2-0.2,0.3-0.3c0.1-0.1,0.3-0.1,0.4-0.1c0.2,0,0.4,0.1,0.6,0.2
					c0.1,0.1,0.2,0.3,0.2,0.5c0,0.2-0.1,0.4-0.2,0.5c-0.1,0.1-0.3,0.3-0.5,0.4l-0.4,0.3c0,0,0,0,0-0.1c-0.2-0.2-0.3-0.4-0.4-0.5
					c-0.1-0.2-0.1-0.3-0.1-0.5C974.8,73.9,974.8,73.7,974.9,73.6z M976.3,78.6c-0.3,0.1-0.5,0.2-0.8,0.2c-0.2,0-0.5,0-0.7-0.1
					c-0.2-0.1-0.3-0.2-0.4-0.4c-0.1-0.2-0.2-0.3-0.2-0.5c0-0.1,0.1-0.3,0.2-0.5c0.1-0.2,0.3-0.4,0.5-0.6l0.1-0.1l1.6,1.8
					C976.6,78.5,976.5,78.6,976.3,78.6z"/>
				<path class="st5" d="M929.6,88.8c-0.2-0.2-0.5-0.3-0.7-0.4c-0.3-0.1-0.5-0.2-0.8-0.3l-0.7-0.2c-0.2,0-0.3-0.1-0.5-0.1
					s-0.3-0.1-0.4-0.2c-0.1-0.1-0.2-0.2-0.3-0.3c-0.1-0.1-0.1-0.3-0.1-0.4c0-0.2,0.1-0.4,0.2-0.5c0.1-0.1,0.3-0.3,0.5-0.4
					c0.2-0.1,0.5-0.1,0.7-0.1c0.4,0,0.7,0.1,1,0.3c0.3,0.2,0.4,0.4,0.4,0.8h1.3c0-0.4-0.1-0.8-0.4-1.1c-0.2-0.3-0.6-0.6-1-0.8
					c-0.4-0.2-0.9-0.3-1.4-0.3c-0.5,0-1,0.1-1.4,0.3c-0.4,0.2-0.8,0.5-1,0.8c-0.2,0.3-0.4,0.7-0.4,1.2c0,0.5,0.2,1,0.5,1.3
					c0.4,0.3,0.9,0.6,1.5,0.7l0.9,0.2c0.3,0.1,0.5,0.1,0.7,0.2c0.2,0.1,0.4,0.2,0.5,0.3c0.1,0.1,0.2,0.3,0.2,0.5
					c0,0.2-0.1,0.4-0.2,0.6c-0.1,0.2-0.3,0.3-0.5,0.4s-0.5,0.1-0.8,0.1c-0.3,0-0.5,0-0.8-0.1s-0.4-0.2-0.6-0.4
					c-0.1-0.2-0.2-0.4-0.2-0.7h-1.4c0,0.5,0.2,0.9,0.4,1.3c0.2,0.4,0.6,0.6,1,0.8c0.4,0.2,1,0.3,1.5,0.3c0.6,0,1.1-0.1,1.6-0.3
					c0.4-0.2,0.8-0.5,1-0.8c0.2-0.3,0.3-0.7,0.3-1.2c0-0.3-0.1-0.6-0.2-0.9S929.8,89,929.6,88.8z"/>
				<path class="st5" d="M935.4,87c-0.2-0.1-0.5-0.3-0.7-0.3c-0.3-0.1-0.5-0.1-0.8-0.1c-0.4,0-0.8,0.1-1.1,0.2
					c-0.3,0.1-0.6,0.3-0.8,0.5c-0.2,0.2-0.4,0.5-0.5,0.9l1.3,0.2c0.1-0.2,0.2-0.4,0.4-0.5c0.2-0.1,0.5-0.2,0.8-0.2
					c0.3,0,0.6,0.1,0.7,0.2c0.2,0.2,0.2,0.4,0.2,0.7v0c0,0.1,0,0.2-0.1,0.3s-0.2,0.1-0.5,0.1c-0.2,0-0.5,0.1-0.8,0.1
					c-0.3,0-0.5,0.1-0.8,0.1c-0.3,0.1-0.5,0.2-0.7,0.3c-0.2,0.1-0.4,0.3-0.5,0.5s-0.2,0.5-0.2,0.8c0,0.4,0.1,0.7,0.3,0.9
					c0.2,0.3,0.4,0.4,0.7,0.6s0.6,0.2,1,0.2c0.3,0,0.6,0,0.8-0.1c0.2-0.1,0.4-0.2,0.6-0.3c0.1-0.1,0.3-0.3,0.3-0.4h0v0.8h1.3v-3.8
					c0-0.4-0.1-0.7-0.2-1C935.8,87.4,935.6,87.2,935.4,87z M934.8,90.4c0,0.2-0.1,0.4-0.2,0.6c-0.1,0.2-0.3,0.3-0.5,0.4
					c-0.2,0.1-0.4,0.2-0.7,0.2c-0.3,0-0.5-0.1-0.7-0.2s-0.3-0.3-0.3-0.6c0-0.2,0-0.3,0.1-0.4c0.1-0.1,0.2-0.2,0.4-0.3
					c0.2-0.1,0.3-0.1,0.5-0.1c0.1,0,0.2,0,0.3,0c0.1,0,0.2,0,0.4-0.1c0.1,0,0.2,0,0.3-0.1s0.2-0.1,0.2-0.1V90.4z"/>
				<polygon class="st5" points="939.9,90.9 939.8,90.9 938.5,86.7 937,86.7 939.1,92.4 940.6,92.4 942.6,86.7 941.2,86.7 				"/>
				<path class="st5" d="M947.8,87.3c-0.2-0.2-0.5-0.4-0.8-0.5c-0.3-0.1-0.6-0.2-1-0.2c-0.5,0-1,0.1-1.4,0.4c-0.4,0.2-0.7,0.6-0.9,1
					c-0.2,0.4-0.3,1-0.3,1.6c0,0.6,0.1,1.1,0.3,1.6c0.2,0.4,0.5,0.8,1,1c0.4,0.2,0.9,0.4,1.5,0.4c0.4,0,0.8-0.1,1.2-0.2
					c0.3-0.1,0.6-0.3,0.9-0.6s0.4-0.5,0.5-0.9l-1.3-0.1c-0.1,0.2-0.1,0.3-0.3,0.4c-0.1,0.1-0.3,0.2-0.4,0.2
					c-0.2,0.1-0.3,0.1-0.5,0.1c-0.3,0-0.5-0.1-0.8-0.2s-0.4-0.3-0.5-0.5c-0.1-0.2-0.2-0.5-0.2-0.8h4v-0.4c0-0.5-0.1-0.9-0.2-1.3
					C948.3,87.8,948.1,87.5,947.8,87.3z M944.6,89c0-0.2,0.1-0.4,0.2-0.6c0.1-0.2,0.3-0.4,0.5-0.5c0.2-0.1,0.5-0.2,0.7-0.2
					c0.3,0,0.5,0.1,0.7,0.2c0.2,0.1,0.3,0.3,0.5,0.5c0.1,0.2,0.2,0.4,0.2,0.7H944.6z"/>
			</g>
		</g>
	</g>
	<g>
		<polygon class="st9" points="635.6,59.6 635.6,59.6 600.7,93 495.2,93 530,59.6 530,59.6 495.2,26.3 600.7,26.3 		"/>
		<g>
			<path class="st3" d="M647.7,98.5h-94.3c-1.9,0-3.4-1.5-3.4-3.4V56.8c0-1.9,1.5-3.4,3.4-3.4h94.3c1.9,0,3.4,1.5,3.4,3.4v38.4
				C651.1,97,649.6,98.5,647.7,98.5z"/>
			<path class="st4" d="M647.7,98.5h-94.3c-1.9,0-3.4-1.5-3.4-3.4V56.8c0-1.9,1.5-3.4,3.4-3.4h94.3c1.9,0,3.4,1.5,3.4,3.4v38.4
				C651.1,97,649.6,98.5,647.7,98.5z"/>
		</g>
		<g>
			<path d="M582.9,65v-0.9h6V65h-2.5v7.1h-1V65H582.9z"/>
			<path d="M592,72.3c-0.4,0-0.7-0.1-1-0.2s-0.6-0.4-0.7-0.6s-0.3-0.6-0.3-1c0-0.3,0.1-0.6,0.2-0.8s0.3-0.4,0.5-0.5s0.5-0.2,0.8-0.3
				s0.6-0.1,0.8-0.1c0.4,0,0.7-0.1,0.9-0.1s0.4-0.1,0.5-0.1s0.2-0.2,0.2-0.3v0c0-0.4-0.1-0.7-0.3-0.9s-0.5-0.3-1-0.3
				c-0.4,0-0.8,0.1-1,0.3s-0.4,0.4-0.5,0.6l-0.9-0.3c0.2-0.4,0.4-0.6,0.6-0.9s0.5-0.3,0.9-0.4s0.6-0.1,0.9-0.1c0.2,0,0.4,0,0.7,0.1
				s0.5,0.1,0.7,0.3s0.4,0.4,0.6,0.6s0.2,0.7,0.2,1.1v4h-0.9v-0.8h0c-0.1,0.1-0.2,0.3-0.3,0.4s-0.3,0.3-0.6,0.4S592.4,72.3,592,72.3
				z M592.2,71.5c0.4,0,0.7-0.1,0.9-0.2s0.4-0.3,0.6-0.6s0.2-0.5,0.2-0.7v-0.8c0,0-0.1,0.1-0.3,0.1s-0.3,0.1-0.5,0.1
				s-0.3,0.1-0.5,0.1s-0.3,0-0.4,0c-0.2,0-0.5,0.1-0.7,0.2s-0.4,0.2-0.5,0.3s-0.2,0.3-0.2,0.6c0,0.3,0.1,0.6,0.4,0.7
				S591.8,71.5,592.2,71.5z"/>
			<path d="M596.5,74.4v-8.2h0.9v1h0.1c0.1-0.1,0.2-0.2,0.3-0.4s0.3-0.3,0.5-0.4s0.5-0.2,0.9-0.2c0.5,0,1,0.1,1.3,0.4
				s0.7,0.6,0.9,1.1s0.3,1,0.3,1.6c0,0.6-0.1,1.2-0.3,1.7s-0.5,0.8-0.9,1.1s-0.8,0.4-1.3,0.4c-0.4,0-0.7-0.1-0.9-0.2
				s-0.4-0.3-0.5-0.4s-0.2-0.3-0.3-0.4h-0.1v3.2H596.5z M597.4,69.2c0,0.5,0.1,0.9,0.2,1.2s0.3,0.6,0.6,0.8s0.6,0.3,0.9,0.3
				c0.4,0,0.7-0.1,1-0.3s0.5-0.5,0.6-0.8s0.2-0.7,0.2-1.2c0-0.4-0.1-0.8-0.2-1.1s-0.3-0.6-0.6-0.8s-0.6-0.3-1-0.3
				c-0.4,0-0.7,0.1-0.9,0.3s-0.4,0.5-0.6,0.8S597.4,68.7,597.4,69.2z"/>
			<path d="M608.7,72.3c-0.5,0-1-0.1-1.4-0.4s-0.7-0.6-1-1.1s-0.3-1-0.3-1.6c0-0.6,0.1-1.2,0.3-1.6s0.5-0.8,1-1.1s0.9-0.4,1.4-0.4
				c0.5,0,1,0.1,1.4,0.4s0.7,0.6,1,1.1s0.3,1,0.3,1.6c0,0.6-0.1,1.2-0.3,1.6s-0.5,0.8-1,1.1S609.2,72.3,608.7,72.3z M608.7,71.5
				c0.4,0,0.8-0.1,1-0.3s0.5-0.5,0.6-0.8s0.2-0.7,0.2-1.1s-0.1-0.8-0.2-1.1s-0.3-0.6-0.6-0.8s-0.6-0.3-1-0.3c-0.4,0-0.8,0.1-1,0.3
				s-0.5,0.5-0.6,0.8s-0.2,0.7-0.2,1.1s0.1,0.8,0.2,1.1s0.3,0.6,0.6,0.8S608.3,71.5,608.7,71.5z"/>
			<path d="M613.7,68.6v3.6h-0.9v-6h0.9v0.9h0.1c0.1-0.3,0.4-0.6,0.6-0.7s0.7-0.3,1.1-0.3c0.4,0,0.8,0.1,1.1,0.2s0.5,0.4,0.7,0.8
				s0.3,0.8,0.3,1.3v3.8h-0.9v-3.8c0-0.5-0.1-0.8-0.4-1.1s-0.6-0.4-1-0.4c-0.3,0-0.6,0.1-0.8,0.2s-0.4,0.3-0.5,0.6
				S613.7,68.2,613.7,68.6z"/>
			<g>
				<path class="st5" d="M582.1,78.6c0.1-0.4,0.3-0.9,0.4-1.2s0.4-0.7,0.6-0.9h-1.3c-0.5,0.7-0.9,1.5-1.2,2.3s-0.4,1.7-0.4,2.7
					c0,1,0.1,1.9,0.4,2.7s0.6,1.6,1.2,2.3h1.3c-0.3-0.3-0.5-0.8-0.7-1.3s-0.4-1.1-0.5-1.8s-0.2-1.3-0.2-1.9c0-0.5,0-0.9,0.1-1.4
					S582,79,582.1,78.6z"/>
				<polygon class="st5" points="587.8,78.7 586.6,78.7 586.6,80.8 584.5,80.8 584.5,82 586.6,82 586.6,84.1 587.8,84.1 587.8,82 
					589.9,82 589.9,80.8 587.8,80.8 				"/>
				<path class="st5" d="M592.6,76.4h-1.3c0.3,0.3,0.5,0.8,0.7,1.3s0.4,1.1,0.5,1.8s0.2,1.3,0.2,1.9c0,0.5,0,0.9-0.1,1.4
					s-0.2,0.9-0.3,1.4s-0.3,0.9-0.4,1.2s-0.4,0.7-0.6,0.9h1.3c0.5-0.7,0.9-1.5,1.2-2.3s0.4-1.7,0.4-2.7c0-1-0.1-1.9-0.4-2.7
					S593.1,77.1,592.6,76.4z"/>
				<path class="st5" d="M603.9,81.5c-0.2-0.2-0.5-0.3-0.8-0.5s-0.6-0.2-0.9-0.3l-0.8-0.2c-0.2,0-0.3-0.1-0.5-0.1s-0.3-0.1-0.4-0.2
					s-0.2-0.2-0.3-0.3s-0.1-0.3-0.1-0.4c0-0.2,0.1-0.4,0.2-0.5s0.3-0.3,0.5-0.4s0.5-0.1,0.8-0.1c0.4,0,0.8,0.1,1,0.3
					s0.4,0.5,0.5,0.8h1.4c0-0.5-0.1-0.8-0.4-1.2s-0.6-0.6-1-0.8s-0.9-0.3-1.5-0.3c-0.6,0-1.1,0.1-1.5,0.3s-0.8,0.5-1,0.8
					s-0.4,0.8-0.4,1.2c0,0.6,0.2,1,0.6,1.4s0.9,0.6,1.6,0.8l0.9,0.2c0.3,0.1,0.5,0.2,0.8,0.2s0.4,0.2,0.5,0.3s0.2,0.3,0.2,0.5
					c0,0.2-0.1,0.4-0.2,0.6s-0.3,0.3-0.6,0.4s-0.5,0.1-0.8,0.1c-0.3,0-0.6,0-0.8-0.1s-0.4-0.2-0.6-0.4s-0.2-0.4-0.3-0.7h-1.4
					c0,0.5,0.2,1,0.4,1.4s0.6,0.7,1.1,0.8s1,0.3,1.6,0.3c0.6,0,1.2-0.1,1.6-0.3s0.8-0.5,1-0.8s0.4-0.8,0.4-1.2
					c0-0.3-0.1-0.6-0.2-0.9S604.1,81.7,603.9,81.5z"/>
				<rect x="605.8" y="79.4" class="st5" width="1.4" height="6"/>
				<path class="st5" d="M606.6,77c-0.2,0-0.4,0.1-0.6,0.2s-0.2,0.3-0.2,0.5s0.1,0.4,0.2,0.5s0.4,0.2,0.6,0.2c0.2,0,0.4-0.1,0.6-0.2
					s0.2-0.3,0.2-0.5s-0.1-0.4-0.2-0.5S606.8,77,606.6,77z"/>
				<path class="st5" d="M612.7,80.4L612.7,80.4c-0.1-0.1-0.2-0.3-0.4-0.5c-0.1-0.2-0.3-0.3-0.5-0.4c-0.2-0.1-0.5-0.2-0.9-0.2
					c-0.5,0-0.9,0.1-1.3,0.4s-0.7,0.6-0.9,1s-0.3,1-0.3,1.7c0,0.7,0.1,1.2,0.3,1.6s0.5,0.8,0.9,1c0.4,0.2,0.8,0.3,1.3,0.3
					c0.3,0,0.6-0.1,0.9-0.2c0.2-0.1,0.4-0.2,0.6-0.4c0.1-0.2,0.2-0.3,0.3-0.4h0.1v1.1c0,0.4-0.1,0.8-0.4,1c-0.3,0.2-0.6,0.3-1,0.3
					c-0.3,0-0.5,0-0.7-0.1c-0.2-0.1-0.3-0.2-0.4-0.3s-0.2-0.2-0.2-0.3l-1.3,0.3c0.1,0.3,0.2,0.5,0.5,0.8c0.2,0.2,0.5,0.4,0.9,0.5
					c0.4,0.1,0.8,0.2,1.3,0.2c0.5,0,1-0.1,1.4-0.2c0.4-0.2,0.8-0.4,1-0.8c0.2-0.3,0.4-0.8,0.4-1.3v-6.1h-1.4V80.4z M612.6,83.3
					c-0.1,0.3-0.3,0.5-0.5,0.6s-0.5,0.2-0.8,0.2c-0.3,0-0.6-0.1-0.8-0.2c-0.2-0.2-0.4-0.4-0.5-0.6c-0.1-0.3-0.2-0.6-0.2-1
					c0-0.4,0.1-0.7,0.2-1c0.1-0.3,0.3-0.5,0.5-0.7s0.5-0.2,0.8-0.2c0.3,0,0.6,0.1,0.8,0.2c0.2,0.2,0.4,0.4,0.5,0.7
					c0.1,0.3,0.2,0.6,0.2,1C612.7,82.7,612.7,83,612.6,83.3z"/>
				<path class="st5" d="M620.6,80.3c-0.2-0.3-0.4-0.6-0.7-0.8s-0.7-0.3-1.1-0.3c-0.4,0-0.8,0.1-1.1,0.3s-0.5,0.5-0.7,0.8h-0.1v-1
					h-1.4v6h1.4v-3.5c0-0.3,0.1-0.5,0.2-0.7s0.3-0.4,0.4-0.5s0.4-0.2,0.7-0.2c0.4,0,0.7,0.1,0.9,0.3s0.3,0.5,0.3,0.9v3.6h1.4v-3.8
					C620.9,81.1,620.8,80.7,620.6,80.3z"/>
			</g>
		</g>
	</g>
</g>
</svg>
