<?xml version="1.0" encoding="utf-8"?>
<!-- Generator: Adobe Illustrator 26.0.1, SVG Export Plug-In . SVG Version: 6.00 Build 0)  -->
<svg version="1.1" id="Layer_1" xmlns="http://www.w3.org/2000/svg" xmlns:xlink="http://www.w3.org/1999/xlink" x="0px" y="0px"
	 viewBox="0 0 987.9 125.3" style="enable-background:new 0 0 987.9 125.3;" xml:space="preserve">
<style type="text/css">
	.st0{fill:#70AD45;}
	.st1{fill:#FFFFFF;}
	.st2{fill:#EC7E30;}
	.st3{opacity:0.9;fill:#FFFFFF;enable-background:new    ;}
	.st4{fill:none;stroke:#EC7E30;stroke-miterlimit:10;}
	.st5{fill:#009447;}
	.st6{fill:#A5A4A4;}
	.st7{fill:#4A72B8;}
	.st8{fill:#70AD44;}
	.st9{fill:#FDC015;}
	.st10{fill:#038643;}
	.st11{fill:#009444;}
	.st12{fill-rule:evenodd;clip-rule:evenodd;fill:#009447;}
</style>
<path class="st7" d="M63.2,0c39.2-0.3,61.2,36.2,83.9,62.2c1.5,1.6-22.6,25.8-25.2,28.8c-15.6,17.7-34.7,34.8-59.9,34.3
	c-22.8-0.4-44.1-13.6-54.7-33.7C2.5,82.6,0,72.5,0,62.2C0.1,25.6,30.8,0.3,63.2,0z"/>
<circle class="st1" cx="62.3" cy="62.7" r="57"/>
<polygon class="st2" points="299.3,59.6 299.3,59.6 264.4,93 158.9,93 193.7,59.6 193.7,59.6 158.9,26.3 264.4,26.3 "/>
<polygon class="st6" points="467.4,59.6 467.4,59.6 432.6,93 327,93 361.8,59.6 361.8,59.6 327,26.2 432.6,26.2 "/>
<polygon class="st7" points="803.7,59.6 803.7,59.6 768.9,93 663.3,93 698.1,59.6 698.1,59.6 663.3,26.2 768.9,26.2 "/>
<polygon class="st8" points="971.9,59.6 971.9,59.6 937,93 831.4,93 866.3,59.6 866.3,59.6 831.4,26.2 937,26.2 "/>
<polygon class="st9" points="635.6,59.6 635.6,59.6 600.7,93 495.2,93 530,59.6 530,59.6 495.2,26.3 600.7,26.3 "/>
<g>
	<path d="M56.7,41.1v-1.2l3.7-3.8c0.4-0.4,0.7-0.8,1-1.1s0.5-0.6,0.6-0.9c0.1-0.3,0.2-0.6,0.2-0.9c0-0.4-0.1-0.7-0.3-0.9
		s-0.4-0.5-0.7-0.6c-0.3-0.1-0.6-0.2-1-0.2c-0.4,0-0.7,0.1-1,0.2c-0.3,0.2-0.5,0.4-0.7,0.7s-0.2,0.6-0.2,1h-1.6
		c0-0.7,0.2-1.2,0.5-1.7c0.3-0.5,0.7-0.9,1.3-1.2c0.5-0.3,1.1-0.4,1.8-0.4c0.7,0,1.3,0.1,1.8,0.4c0.5,0.3,0.9,0.6,1.2,1.1
		c0.3,0.5,0.4,1,0.4,1.6c0,0.4-0.1,0.8-0.2,1.2s-0.4,0.8-0.8,1.3c-0.4,0.5-0.9,1-1.6,1.7l-2.2,2.3v0.1h4.9v1.4H56.7z"/>
	<path d="M66.9,41.2c-0.3,0-0.5-0.1-0.8-0.3c-0.2-0.2-0.3-0.5-0.3-0.8c0-0.3,0.1-0.5,0.3-0.7c0.2-0.2,0.5-0.3,0.8-0.3
		c0.3,0,0.5,0.1,0.8,0.3c0.2,0.2,0.3,0.5,0.3,0.7c0,0.2,0,0.4-0.1,0.5c-0.1,0.2-0.2,0.3-0.4,0.4C67.3,41.2,67.1,41.2,66.9,41.2z"/>
	<path d="M34.2,51.7h-1.7c-0.1-0.4-0.2-0.7-0.4-0.9c-0.2-0.3-0.4-0.5-0.6-0.7c-0.3-0.2-0.5-0.3-0.8-0.4s-0.6-0.1-1-0.1
		c-0.6,0-1.2,0.2-1.7,0.5c-0.5,0.3-0.9,0.8-1.2,1.4c-0.3,0.6-0.4,1.4-0.4,2.2c0,0.9,0.1,1.6,0.4,2.2c0.3,0.6,0.7,1.1,1.2,1.4
		s1.1,0.5,1.7,0.5c0.3,0,0.7,0,1-0.1c0.3-0.1,0.6-0.2,0.8-0.4c0.3-0.2,0.5-0.4,0.6-0.7c0.2-0.3,0.3-0.6,0.4-0.9l1.7,0
		c-0.1,0.5-0.3,1-0.5,1.5s-0.6,0.8-1,1.2c-0.4,0.3-0.8,0.6-1.4,0.8s-1.1,0.3-1.7,0.3c-0.9,0-1.8-0.2-2.5-0.7s-1.3-1.1-1.7-1.9
		s-0.6-1.8-0.6-3c0-1.2,0.2-2.2,0.6-3c0.4-0.8,1-1.5,1.7-1.9c0.7-0.4,1.6-0.7,2.5-0.7c0.6,0,1.1,0.1,1.6,0.2c0.5,0.2,1,0.4,1.4,0.7
		c0.4,0.3,0.7,0.7,1,1.2S34.1,51.2,34.2,51.7z"/>
	<path d="M41.2,55.7v-4.8h1.6v8.2h-1.6v-1.4h-0.1c-0.2,0.4-0.5,0.8-0.9,1.1c-0.4,0.3-0.9,0.4-1.5,0.4c-0.5,0-1-0.1-1.4-0.3
		c-0.4-0.2-0.7-0.6-0.9-1s-0.3-1-0.3-1.7v-5.2h1.6v5c0,0.6,0.2,1,0.5,1.3c0.3,0.3,0.7,0.5,1.2,0.5c0.3,0,0.6-0.1,0.9-0.2
		c0.3-0.1,0.5-0.4,0.7-0.7C41.1,56.6,41.2,56.2,41.2,55.7z"/>
	<path d="M51.1,52.9l-1.4,0.3c-0.1-0.2-0.2-0.4-0.3-0.5s-0.3-0.3-0.5-0.4c-0.2-0.1-0.5-0.2-0.8-0.2c-0.5,0-0.8,0.1-1.1,0.3
		c-0.3,0.2-0.5,0.5-0.5,0.8c0,0.3,0.1,0.5,0.3,0.7c0.2,0.2,0.5,0.3,1,0.4l1.3,0.3c0.8,0.2,1.3,0.4,1.7,0.8c0.4,0.4,0.6,0.8,0.6,1.4
		c0,0.5-0.1,0.9-0.4,1.3c-0.3,0.4-0.7,0.7-1.2,0.9c-0.5,0.2-1.1,0.3-1.7,0.3c-0.9,0-1.7-0.2-2.2-0.6c-0.6-0.4-0.9-1-1.1-1.7l1.5-0.2
		c0.1,0.4,0.3,0.7,0.6,0.9c0.3,0.2,0.7,0.3,1.2,0.3c0.5,0,0.9-0.1,1.3-0.3c0.3-0.2,0.5-0.5,0.5-0.8c0-0.3-0.1-0.5-0.3-0.6
		c-0.2-0.2-0.5-0.3-0.9-0.4l-1.4-0.3c-0.8-0.2-1.3-0.5-1.7-0.8c-0.4-0.4-0.5-0.9-0.5-1.4c0-0.5,0.1-0.9,0.4-1.3s0.6-0.6,1.1-0.8
		c0.5-0.2,1-0.3,1.6-0.3c0.9,0,1.6,0.2,2.1,0.6S50.9,52.3,51.1,52.9z"/>
	<path d="M56.8,50.9v1.3h-4.5v-1.3H56.8z M53.5,49h1.6v7.7c0,0.3,0,0.5,0.1,0.7s0.2,0.3,0.4,0.3s0.3,0.1,0.5,0.1c0.1,0,0.2,0,0.3,0
		c0.1,0,0.2,0,0.2,0L57,59c-0.1,0-0.2,0.1-0.4,0.1c-0.2,0-0.4,0.1-0.6,0.1c-0.4,0-0.8-0.1-1.2-0.2c-0.4-0.2-0.7-0.4-0.9-0.7
		c-0.2-0.3-0.3-0.7-0.3-1.2V49z"/>
	<path d="M62,59.3c-0.8,0-1.4-0.2-2-0.5s-1-0.8-1.3-1.5c-0.3-0.6-0.5-1.4-0.5-2.2c0-0.8,0.2-1.6,0.5-2.2s0.8-1.1,1.3-1.5
		s1.2-0.5,2-0.5s1.4,0.2,2,0.5c0.6,0.4,1,0.8,1.3,1.5s0.5,1.4,0.5,2.2c0,0.8-0.2,1.6-0.5,2.2c-0.3,0.6-0.8,1.1-1.3,1.5
		C63.5,59.1,62.8,59.3,62,59.3z M62,57.9c0.5,0,0.9-0.1,1.2-0.4s0.6-0.6,0.7-1c0.2-0.4,0.2-0.9,0.2-1.4c0-0.5-0.1-1-0.2-1.4
		c-0.2-0.4-0.4-0.8-0.7-1.1c-0.3-0.3-0.7-0.4-1.2-0.4c-0.5,0-0.9,0.1-1.2,0.4c-0.3,0.3-0.6,0.6-0.7,1.1c-0.2,0.4-0.2,0.9-0.2,1.4
		c0,0.5,0.1,1,0.2,1.4s0.4,0.8,0.7,1C61.1,57.8,61.5,57.9,62,57.9z"/>
	<path d="M67.6,59.1v-8.2h1.5v1.3h0.1c0.2-0.5,0.4-0.8,0.8-1.1c0.4-0.3,0.9-0.4,1.4-0.4c0.5,0,1,0.1,1.4,0.4s0.6,0.6,0.8,1.1h0.1
		c0.2-0.4,0.5-0.8,0.9-1s0.9-0.4,1.5-0.4c0.7,0,1.3,0.2,1.8,0.7c0.5,0.5,0.7,1.2,0.7,2.1v5.5h-1.6v-5.3c0-0.6-0.2-1-0.5-1.2
		c-0.3-0.2-0.7-0.4-1.1-0.4c-0.5,0-0.9,0.2-1.2,0.5C74.1,53,74,53.4,74,53.9v5.2h-1.6v-5.4c0-0.4-0.1-0.8-0.4-1.1
		c-0.3-0.3-0.6-0.4-1.1-0.4c-0.3,0-0.6,0.1-0.8,0.2s-0.5,0.4-0.6,0.7c-0.2,0.3-0.2,0.6-0.2,1v5H67.6z"/>
	<path d="M81.7,49.7c-0.3,0-0.5-0.1-0.7-0.3c-0.2-0.2-0.3-0.4-0.3-0.7c0-0.3,0.1-0.5,0.3-0.7c0.2-0.2,0.4-0.3,0.7-0.3
		s0.5,0.1,0.7,0.3c0.2,0.2,0.3,0.4,0.3,0.7c0,0.3-0.1,0.5-0.3,0.7C82.2,49.6,81.9,49.7,81.7,49.7z M80.9,59.1v-8.2h1.6v8.2H80.9z"/>
	<path d="M84.4,59.1V58l4.4-5.6v-0.1h-4.3v-1.4h6.3v1.2l-4.3,5.6v0.1H91v1.4H84.4z"/>
	<path d="M96.4,59.3c-0.8,0-1.5-0.2-2.1-0.5c-0.6-0.3-1-0.8-1.3-1.5c-0.3-0.6-0.5-1.4-0.5-2.2c0-0.8,0.2-1.6,0.5-2.2
		c0.3-0.6,0.8-1.1,1.3-1.5s1.2-0.5,2-0.5c0.5,0,0.9,0.1,1.3,0.2c0.4,0.2,0.8,0.4,1.2,0.7c0.3,0.3,0.6,0.8,0.8,1.3
		c0.2,0.5,0.3,1.2,0.3,1.9v0.6h-6.5v-1.2h4.9c0-0.4-0.1-0.8-0.3-1.1c-0.2-0.3-0.4-0.6-0.7-0.8c-0.3-0.2-0.7-0.3-1.1-0.3
		c-0.4,0-0.8,0.1-1.2,0.3c-0.3,0.2-0.6,0.5-0.8,0.9c-0.2,0.4-0.3,0.7-0.3,1.1v0.9c0,0.5,0.1,1,0.3,1.4c0.2,0.4,0.5,0.7,0.8,0.9
		c0.3,0.2,0.8,0.3,1.2,0.3c0.3,0,0.6,0,0.8-0.1c0.2-0.1,0.5-0.2,0.6-0.4c0.2-0.2,0.3-0.4,0.4-0.6l1.5,0.3c-0.1,0.4-0.3,0.8-0.6,1.2
		c-0.3,0.3-0.7,0.6-1.2,0.8C97.5,59.2,97,59.3,96.4,59.3z"/>
	<path d="M39.6,69.1c-0.1-0.5-0.3-0.9-0.7-1.2c-0.4-0.3-0.9-0.4-1.6-0.4c-0.4,0-0.8,0.1-1.2,0.2c-0.3,0.1-0.6,0.3-0.8,0.6
		c-0.2,0.2-0.3,0.5-0.3,0.8c0,0.3,0.1,0.5,0.2,0.7s0.3,0.3,0.5,0.5s0.4,0.2,0.6,0.3c0.2,0.1,0.5,0.2,0.7,0.2l1.1,0.3
		c0.3,0.1,0.7,0.2,1.1,0.3c0.4,0.1,0.7,0.3,1,0.6c0.3,0.2,0.6,0.5,0.8,0.9c0.2,0.4,0.3,0.8,0.3,1.3c0,0.6-0.2,1.2-0.5,1.6
		c-0.3,0.5-0.8,0.9-1.4,1.1c-0.6,0.3-1.3,0.4-2.2,0.4c-0.8,0-1.5-0.1-2.1-0.4c-0.6-0.3-1.1-0.6-1.4-1.1s-0.5-1-0.6-1.7h1.7
		c0,0.4,0.2,0.7,0.4,1c0.2,0.3,0.5,0.5,0.9,0.6c0.4,0.1,0.7,0.2,1.2,0.2c0.5,0,0.9-0.1,1.2-0.2c0.4-0.1,0.7-0.4,0.9-0.6
		c0.2-0.3,0.3-0.6,0.3-0.9c0-0.3-0.1-0.6-0.3-0.8c-0.2-0.2-0.4-0.4-0.7-0.5s-0.7-0.3-1.1-0.4l-1.3-0.4c-0.9-0.2-1.6-0.6-2.1-1
		c-0.5-0.5-0.8-1.1-0.8-1.8c0-0.6,0.2-1.2,0.5-1.6s0.8-0.8,1.4-1.1c0.6-0.3,1.2-0.4,2-0.4c0.7,0,1.4,0.1,2,0.4
		c0.6,0.3,1,0.6,1.3,1.1c0.3,0.5,0.5,1,0.5,1.6H39.6z"/>
	<path d="M46.7,77.3c-0.8,0-1.5-0.2-2.1-0.5c-0.6-0.3-1-0.8-1.3-1.5c-0.3-0.6-0.5-1.4-0.5-2.2c0-0.8,0.2-1.6,0.5-2.2
		c0.3-0.6,0.8-1.1,1.3-1.5s1.2-0.5,2-0.5c0.5,0,0.9,0.1,1.3,0.2c0.4,0.2,0.8,0.4,1.2,0.7c0.3,0.3,0.6,0.8,0.8,1.3
		c0.2,0.5,0.3,1.2,0.3,1.9v0.6h-6.5v-1.2h4.9c0-0.4-0.1-0.8-0.3-1.1c-0.2-0.3-0.4-0.6-0.7-0.8c-0.3-0.2-0.7-0.3-1.1-0.3
		c-0.4,0-0.8,0.1-1.2,0.3c-0.3,0.2-0.6,0.5-0.8,0.9c-0.2,0.4-0.3,0.7-0.3,1.1v0.9c0,0.5,0.1,1,0.3,1.4c0.2,0.4,0.5,0.7,0.8,0.9
		c0.3,0.2,0.8,0.3,1.2,0.3c0.3,0,0.6,0,0.8-0.1c0.2-0.1,0.5-0.2,0.6-0.4c0.2-0.2,0.3-0.4,0.4-0.6l1.5,0.3c-0.1,0.4-0.3,0.8-0.6,1.2
		c-0.3,0.3-0.7,0.6-1.2,0.8C47.8,77.2,47.3,77.3,46.7,77.3z"/>
	<path d="M55.4,77.3c-0.8,0-1.5-0.2-2-0.5c-0.6-0.4-1-0.9-1.3-1.5c-0.3-0.6-0.5-1.4-0.5-2.2c0-0.8,0.2-1.6,0.5-2.2s0.8-1.1,1.3-1.5
		c0.6-0.4,1.2-0.5,2-0.5c0.6,0,1.2,0.1,1.7,0.3c0.5,0.2,0.9,0.5,1.2,1c0.3,0.4,0.5,0.9,0.5,1.4h-1.6c-0.1-0.4-0.3-0.7-0.6-1
		c-0.3-0.3-0.7-0.4-1.2-0.4c-0.4,0-0.8,0.1-1.2,0.3s-0.6,0.6-0.8,1c-0.2,0.4-0.3,0.9-0.3,1.5c0,0.6,0.1,1.1,0.3,1.5s0.4,0.8,0.8,1
		s0.7,0.4,1.2,0.4c0.3,0,0.6-0.1,0.8-0.2c0.2-0.1,0.5-0.3,0.6-0.5c0.2-0.2,0.3-0.5,0.4-0.8h1.6c-0.1,0.5-0.2,1-0.5,1.4
		c-0.3,0.4-0.7,0.7-1.2,1C56.6,77.1,56.1,77.3,55.4,77.3z"/>
	<path d="M64.3,68.9v1.3h-4.5v-1.3H64.3z M61.1,67h1.6v7.7c0,0.3,0,0.5,0.1,0.7s0.2,0.3,0.4,0.3s0.3,0.1,0.5,0.1c0.1,0,0.2,0,0.3,0
		c0.1,0,0.2,0,0.2,0l0.3,1.3c-0.1,0-0.2,0.1-0.4,0.1c-0.2,0-0.4,0.1-0.6,0.1c-0.4,0-0.8-0.1-1.2-0.2c-0.4-0.2-0.7-0.4-0.9-0.7
		c-0.2-0.3-0.3-0.7-0.3-1.2V67z"/>
	<path d="M69.5,77.3c-0.8,0-1.4-0.2-2-0.5s-1-0.8-1.3-1.5c-0.3-0.6-0.5-1.4-0.5-2.2c0-0.8,0.2-1.6,0.5-2.2s0.8-1.1,1.3-1.5
		s1.2-0.5,2-0.5s1.4,0.2,2,0.5c0.6,0.4,1,0.8,1.3,1.5s0.5,1.4,0.5,2.2c0,0.8-0.2,1.6-0.5,2.2c-0.3,0.6-0.8,1.1-1.3,1.5
		C71,77.1,70.3,77.3,69.5,77.3z M69.5,75.9c0.5,0,0.9-0.1,1.2-0.4s0.6-0.6,0.7-1c0.2-0.4,0.2-0.9,0.2-1.4c0-0.5-0.1-1-0.2-1.4
		c-0.2-0.4-0.4-0.8-0.7-1.1c-0.3-0.3-0.7-0.4-1.2-0.4c-0.5,0-0.9,0.1-1.2,0.4c-0.3,0.3-0.6,0.6-0.7,1.1c-0.2,0.4-0.2,0.9-0.2,1.4
		c0,0.5,0.1,1,0.2,1.4s0.4,0.8,0.7,1C68.6,75.8,69,75.9,69.5,75.9z"/>
	<path d="M75.1,77.1v-8.2h1.5v1.3h0.1c0.1-0.4,0.4-0.8,0.8-1s0.8-0.4,1.3-0.4c0.1,0,0.2,0,0.4,0c0.1,0,0.2,0,0.3,0v1.5
		c-0.1,0-0.2,0-0.3-0.1c-0.2,0-0.3,0-0.5,0c-0.4,0-0.7,0.1-1,0.2c-0.3,0.2-0.5,0.4-0.7,0.7c-0.2,0.3-0.3,0.6-0.3,1v5H75.1z"/>
	<path d="M83.3,77.3c-0.5,0-1-0.1-1.4-0.3c-0.4-0.2-0.8-0.5-1-0.8c-0.2-0.4-0.4-0.8-0.4-1.4c0-0.5,0.1-0.8,0.3-1.1
		c0.2-0.3,0.4-0.5,0.7-0.7c0.3-0.2,0.6-0.3,1-0.4c0.4-0.1,0.8-0.2,1.1-0.2c0.5-0.1,0.9-0.1,1.2-0.1c0.3,0,0.5-0.1,0.7-0.2
		c0.1-0.1,0.2-0.2,0.2-0.4v0c0-0.5-0.1-0.8-0.4-1.1c-0.3-0.3-0.6-0.4-1.2-0.4c-0.5,0-1,0.1-1.3,0.4s-0.5,0.5-0.6,0.8l-1.5-0.3
		c0.2-0.5,0.4-0.9,0.8-1.2c0.3-0.3,0.7-0.5,1.2-0.7c0.4-0.1,0.9-0.2,1.4-0.2c0.3,0,0.7,0,1,0.1s0.7,0.2,1,0.4
		c0.3,0.2,0.6,0.5,0.8,0.9c0.2,0.4,0.3,0.9,0.3,1.5v5.4h-1.6V76h-0.1c-0.1,0.2-0.3,0.4-0.5,0.6c-0.2,0.2-0.5,0.4-0.8,0.5
		C84.1,77.2,83.7,77.3,83.3,77.3z M83.6,76c0.4,0,0.8-0.1,1.1-0.3c0.3-0.2,0.6-0.4,0.7-0.7c0.2-0.3,0.2-0.6,0.2-0.9v-1.1
		c-0.1,0.1-0.2,0.1-0.3,0.2s-0.3,0.1-0.6,0.1c-0.2,0-0.4,0.1-0.6,0.1c-0.2,0-0.4,0-0.5,0.1c-0.3,0-0.6,0.1-0.8,0.2
		c-0.3,0.1-0.5,0.2-0.6,0.4s-0.2,0.4-0.2,0.7c0,0.4,0.1,0.7,0.4,0.9C82.8,75.9,83.2,76,83.6,76z"/>
	<path d="M91,66.2v10.9h-1.6V66.2H91z"/>
	<path d="M29.9,95.1l-3-10.9h1.7l2.1,8.4h0.1l2.2-8.4h1.7l2.2,8.5h0.1l2.1-8.5h1.7l-3,10.9h-1.7L34,86.9h-0.1l-2.3,8.2H29.9z"/>
	<path d="M44.7,95.3c-0.5,0-1-0.1-1.4-0.3c-0.4-0.2-0.8-0.5-1-0.8c-0.2-0.4-0.4-0.8-0.4-1.4c0-0.5,0.1-0.8,0.3-1.1
		c0.2-0.3,0.4-0.5,0.7-0.7c0.3-0.2,0.6-0.3,1-0.4c0.4-0.1,0.8-0.2,1.1-0.2c0.5-0.1,0.9-0.1,1.2-0.1c0.3,0,0.5-0.1,0.7-0.2
		c0.1-0.1,0.2-0.2,0.2-0.4v0c0-0.5-0.1-0.8-0.4-1.1c-0.3-0.3-0.6-0.4-1.2-0.4c-0.5,0-1,0.1-1.3,0.4s-0.5,0.5-0.6,0.8l-1.5-0.3
		c0.2-0.5,0.4-0.9,0.8-1.2c0.3-0.3,0.7-0.5,1.2-0.7c0.4-0.1,0.9-0.2,1.4-0.2c0.3,0,0.7,0,1,0.1s0.7,0.2,1,0.4
		c0.3,0.2,0.6,0.5,0.8,0.9c0.2,0.4,0.3,0.9,0.3,1.5v5.4h-1.6V94h-0.1c-0.1,0.2-0.3,0.4-0.5,0.6c-0.2,0.2-0.5,0.4-0.8,0.5
		C45.5,95.2,45.1,95.3,44.7,95.3z M45,94c0.4,0,0.8-0.1,1.1-0.3c0.3-0.2,0.6-0.4,0.7-0.7c0.2-0.3,0.2-0.6,0.2-0.9v-1.1
		c-0.1,0.1-0.2,0.1-0.3,0.2s-0.3,0.1-0.6,0.1c-0.2,0-0.4,0.1-0.6,0.1c-0.2,0-0.4,0-0.5,0.1c-0.3,0-0.6,0.1-0.8,0.2
		c-0.3,0.1-0.5,0.2-0.6,0.4s-0.2,0.4-0.2,0.7c0,0.4,0.1,0.7,0.4,0.9C44.2,93.9,44.6,94,45,94z"/>
	<path d="M54.7,86.9v1.3h-4.5v-1.3H54.7z M51.4,85H53v7.7c0,0.3,0,0.5,0.1,0.7s0.2,0.3,0.4,0.3s0.3,0.1,0.5,0.1c0.1,0,0.2,0,0.3,0
		c0.1,0,0.2,0,0.2,0l0.3,1.3c-0.1,0-0.2,0.1-0.4,0.1c-0.2,0-0.4,0.1-0.6,0.1c-0.4,0-0.8-0.1-1.2-0.2c-0.4-0.2-0.7-0.4-0.9-0.7
		c-0.2-0.3-0.3-0.7-0.3-1.2V85z"/>
	<path d="M59.9,95.3c-0.8,0-1.5-0.2-2-0.5c-0.6-0.4-1-0.9-1.3-1.5c-0.3-0.6-0.5-1.4-0.5-2.2c0-0.8,0.2-1.6,0.5-2.2s0.8-1.1,1.3-1.5
		c0.6-0.4,1.2-0.5,2-0.5c0.6,0,1.2,0.1,1.7,0.3c0.5,0.2,0.9,0.5,1.2,1c0.3,0.4,0.5,0.9,0.5,1.4h-1.6c-0.1-0.4-0.3-0.7-0.6-1
		c-0.3-0.3-0.7-0.4-1.2-0.4c-0.4,0-0.8,0.1-1.2,0.3s-0.6,0.6-0.8,1c-0.2,0.4-0.3,0.9-0.3,1.5c0,0.6,0.1,1.1,0.3,1.5s0.4,0.8,0.8,1
		s0.7,0.4,1.2,0.4c0.3,0,0.6-0.1,0.8-0.2c0.2-0.1,0.5-0.3,0.6-0.5c0.2-0.2,0.3-0.5,0.4-0.8h1.6c-0.1,0.5-0.2,1-0.5,1.4
		c-0.3,0.4-0.7,0.7-1.2,1C61.1,95.1,60.5,95.3,59.9,95.3z"/>
	<path d="M66.5,90.2v4.9h-1.6V84.2h1.6v4.1h0.1c0.2-0.4,0.5-0.8,0.9-1c0.4-0.3,0.9-0.4,1.5-0.4c0.6,0,1.1,0.1,1.5,0.3
		c0.4,0.2,0.7,0.6,1,1c0.2,0.5,0.3,1,0.3,1.7v5.2h-1.6v-5c0-0.6-0.2-1.1-0.5-1.4s-0.7-0.5-1.3-0.5c-0.4,0-0.7,0.1-1,0.2
		c-0.3,0.2-0.5,0.4-0.7,0.7C66.6,89.4,66.5,89.8,66.5,90.2z"/>
	<path d="M79.5,84.2v10.9h-1.6V84.2H79.5z"/>
	<path d="M82.5,85.7c-0.3,0-0.5-0.1-0.7-0.3c-0.2-0.2-0.3-0.4-0.3-0.7c0-0.3,0.1-0.5,0.3-0.7c0.2-0.2,0.4-0.3,0.7-0.3
		s0.5,0.1,0.7,0.3c0.2,0.2,0.3,0.4,0.3,0.7c0,0.3-0.1,0.5-0.3,0.7C83,85.6,82.8,85.7,82.5,85.7z M81.7,95.1v-8.2h1.6v8.2H81.7z"/>
	<path d="M91.5,88.9l-1.4,0.3c-0.1-0.2-0.2-0.4-0.3-0.5s-0.3-0.3-0.5-0.4c-0.2-0.1-0.5-0.2-0.8-0.2c-0.5,0-0.8,0.1-1.1,0.3
		c-0.3,0.2-0.5,0.5-0.5,0.8c0,0.3,0.1,0.5,0.3,0.7c0.2,0.2,0.5,0.3,1,0.4l1.3,0.3c0.8,0.2,1.3,0.4,1.7,0.8c0.4,0.4,0.6,0.8,0.6,1.4
		c0,0.5-0.1,0.9-0.4,1.3c-0.3,0.4-0.7,0.7-1.2,0.9c-0.5,0.2-1.1,0.3-1.7,0.3c-0.9,0-1.7-0.2-2.2-0.6c-0.6-0.4-0.9-1-1.1-1.7l1.5-0.2
		c0.1,0.4,0.3,0.7,0.6,0.9c0.3,0.2,0.7,0.3,1.2,0.3c0.5,0,0.9-0.1,1.3-0.3c0.3-0.2,0.5-0.5,0.5-0.8c0-0.3-0.1-0.5-0.3-0.6
		c-0.2-0.2-0.5-0.3-0.9-0.4l-1.4-0.3c-0.8-0.2-1.3-0.5-1.7-0.8c-0.4-0.4-0.5-0.9-0.5-1.4c0-0.5,0.1-0.9,0.4-1.3s0.6-0.6,1.1-0.8
		c0.5-0.2,1-0.3,1.6-0.3c0.9,0,1.6,0.2,2.1,0.6S91.4,88.3,91.5,88.9z"/>
	<path d="M97.3,86.9v1.3h-4.5v-1.3H97.3z M94,85h1.6v7.7c0,0.3,0,0.5,0.1,0.7s0.2,0.3,0.4,0.3s0.3,0.1,0.5,0.1c0.1,0,0.2,0,0.3,0
		c0.1,0,0.2,0,0.2,0l0.3,1.3c-0.1,0-0.2,0.1-0.4,0.1c-0.2,0-0.4,0.1-0.6,0.1c-0.4,0-0.8-0.1-1.2-0.2c-0.4-0.2-0.7-0.4-0.9-0.7
		C94.1,93.9,94,93.5,94,93V85z"/>
</g>
<g>
	<path class="st3" d="M311.4,98.5h-94.3c-1.9,0-3.4-1.5-3.4-3.4V56.8c0-1.9,1.5-3.4,3.4-3.4h94.3c1.9,0,3.4,1.5,3.4,3.4v38.4
		C314.8,97,313.3,98.5,311.4,98.5z"/>
	<path class="st4" d="M311.4,98.5h-94.3c-1.9,0-3.4-1.5-3.4-3.4V56.8c0-1.9,1.5-3.4,3.4-3.4h94.3c1.9,0,3.4,1.5,3.4,3.4v38.4
		C314.8,97,313.3,98.5,311.4,98.5z"/>
</g>
<g>
	<path d="M253.4,67.3c0-0.4-0.2-0.7-0.6-0.9s-0.7-0.3-1.2-0.3c-0.4,0-0.7,0.1-0.9,0.2c-0.3,0.1-0.5,0.3-0.6,0.5
		c-0.1,0.2-0.2,0.4-0.2,0.7c0,0.2,0.1,0.4,0.2,0.5s0.2,0.3,0.4,0.4c0.2,0.1,0.3,0.2,0.5,0.2c0.2,0.1,0.3,0.1,0.5,0.2l0.8,0.2
		c0.2,0.1,0.4,0.1,0.7,0.2c0.3,0.1,0.5,0.2,0.7,0.4c0.2,0.2,0.4,0.4,0.6,0.6s0.2,0.6,0.2,0.9c0,0.4-0.1,0.8-0.3,1.2
		c-0.2,0.3-0.6,0.6-1,0.8c-0.4,0.2-1,0.3-1.6,0.3c-0.6,0-1.1-0.1-1.5-0.3c-0.4-0.2-0.7-0.4-1-0.8c-0.2-0.3-0.4-0.7-0.4-1.2h1
		c0,0.3,0.1,0.6,0.3,0.7c0.2,0.2,0.4,0.3,0.7,0.4c0.3,0.1,0.6,0.1,0.9,0.1c0.4,0,0.7-0.1,1-0.2s0.5-0.3,0.7-0.5
		c0.2-0.2,0.3-0.5,0.3-0.8c0-0.3-0.1-0.5-0.2-0.6c-0.1-0.2-0.3-0.3-0.6-0.4c-0.2-0.1-0.5-0.2-0.8-0.3l-1-0.3
		c-0.6-0.2-1.1-0.4-1.5-0.8c-0.4-0.3-0.5-0.8-0.5-1.3c0-0.4,0.1-0.8,0.4-1.2c0.2-0.3,0.6-0.6,1-0.8c0.4-0.2,0.9-0.3,1.4-0.3
		c0.5,0,1,0.1,1.4,0.3s0.7,0.4,1,0.8c0.2,0.3,0.4,0.7,0.4,1.1H253.4z"/>
	<path d="M258.4,73.5c-0.6,0-1.1-0.1-1.5-0.4c-0.4-0.3-0.7-0.6-1-1.1c-0.2-0.5-0.3-1-0.3-1.6c0-0.6,0.1-1.2,0.3-1.6
		c0.2-0.5,0.5-0.8,0.9-1.1c0.4-0.3,0.9-0.4,1.4-0.4c0.3,0,0.6,0.1,0.9,0.2c0.3,0.1,0.6,0.3,0.8,0.5c0.2,0.2,0.4,0.5,0.6,0.9
		s0.2,0.9,0.2,1.4v0.4h-4.6v-0.8h3.7c0-0.3-0.1-0.6-0.2-0.9s-0.3-0.5-0.6-0.6c-0.2-0.2-0.5-0.2-0.9-0.2c-0.4,0-0.7,0.1-1,0.3
		c-0.3,0.2-0.5,0.4-0.6,0.7s-0.2,0.6-0.2,0.9v0.5c0,0.5,0.1,0.8,0.2,1.2c0.2,0.3,0.4,0.6,0.7,0.7c0.3,0.2,0.6,0.2,1,0.2
		c0.2,0,0.5,0,0.7-0.1c0.2-0.1,0.4-0.2,0.5-0.3c0.1-0.1,0.3-0.3,0.3-0.5l0.9,0.2c-0.1,0.3-0.3,0.6-0.5,0.8c-0.2,0.2-0.5,0.4-0.8,0.5
		C259.2,73.4,258.8,73.5,258.4,73.5z"/>
	<path d="M263.2,65.3v8h-0.9v-8H263.2z"/>
	<path d="M267.5,73.5c-0.6,0-1.1-0.1-1.5-0.4c-0.4-0.3-0.7-0.6-1-1.1c-0.2-0.5-0.3-1-0.3-1.6c0-0.6,0.1-1.2,0.3-1.6
		c0.2-0.5,0.5-0.8,0.9-1.1c0.4-0.3,0.9-0.4,1.4-0.4c0.3,0,0.6,0.1,0.9,0.2c0.3,0.1,0.6,0.3,0.8,0.5c0.2,0.2,0.4,0.5,0.6,0.9
		s0.2,0.9,0.2,1.4v0.4h-4.6v-0.8h3.7c0-0.3-0.1-0.6-0.2-0.9s-0.3-0.5-0.6-0.6c-0.2-0.2-0.5-0.2-0.9-0.2c-0.4,0-0.7,0.1-1,0.3
		c-0.3,0.2-0.5,0.4-0.6,0.7s-0.2,0.6-0.2,0.9v0.5c0,0.5,0.1,0.8,0.2,1.2c0.2,0.3,0.4,0.6,0.7,0.7c0.3,0.2,0.6,0.2,1,0.2
		c0.2,0,0.5,0,0.7-0.1c0.2-0.1,0.4-0.2,0.5-0.3c0.1-0.1,0.3-0.3,0.3-0.5l0.9,0.2c-0.1,0.3-0.3,0.6-0.5,0.8c-0.2,0.2-0.5,0.4-0.8,0.5
		C268.2,73.4,267.9,73.5,267.5,73.5z"/>
	<path d="M273.8,73.5c-0.6,0-1-0.1-1.5-0.4s-0.7-0.6-0.9-1.1c-0.2-0.5-0.3-1-0.3-1.6c0-0.6,0.1-1.1,0.3-1.6c0.2-0.5,0.5-0.8,0.9-1.1
		c0.4-0.3,0.9-0.4,1.4-0.4c0.4,0,0.8,0.1,1.1,0.2c0.3,0.2,0.6,0.4,0.8,0.7c0.2,0.3,0.4,0.6,0.4,1h-0.9c-0.1-0.3-0.2-0.5-0.5-0.7
		c-0.2-0.2-0.6-0.3-1-0.3c-0.4,0-0.7,0.1-0.9,0.3c-0.3,0.2-0.5,0.4-0.6,0.8c-0.1,0.3-0.2,0.7-0.2,1.2c0,0.5,0.1,0.9,0.2,1.2
		s0.4,0.6,0.6,0.8c0.3,0.2,0.6,0.3,1,0.3c0.2,0,0.5,0,0.7-0.1c0.2-0.1,0.4-0.2,0.5-0.4c0.1-0.2,0.2-0.3,0.3-0.6h0.9
		c-0.1,0.4-0.2,0.7-0.4,1c-0.2,0.3-0.5,0.5-0.8,0.7C274.6,73.4,274.2,73.5,273.8,73.5z"/>
	<path d="M280.1,67.3v0.8H277v-0.8H280.1z M277.9,65.9h0.9v5.7c0,0.3,0,0.5,0.1,0.6s0.2,0.2,0.3,0.3s0.2,0.1,0.4,0.1
		c0.1,0,0.2,0,0.2,0s0.1,0,0.2,0l0.2,0.8c-0.1,0-0.1,0-0.3,0.1c-0.1,0-0.3,0-0.4,0c-0.3,0-0.5-0.1-0.8-0.2c-0.2-0.1-0.5-0.3-0.6-0.5
		c-0.2-0.2-0.2-0.5-0.2-0.9V65.9z"/>
	<path class="st5" d="M240.6,86.5l-2.2-8h1.3l1.6,6.2h0.1l1.6-6.2h1.3l1.6,6.2h0.1l1.6-6.2h1.3l-2.2,8h-1.2l-1.7-6h-0.1l-1.7,6
		H240.6z"/>
	<path class="st5" d="M251.5,86.7c-0.4,0-0.7-0.1-1-0.2c-0.3-0.1-0.6-0.3-0.7-0.6c-0.2-0.3-0.3-0.6-0.3-1c0-0.3,0.1-0.6,0.2-0.8
		s0.3-0.4,0.5-0.5c0.2-0.1,0.5-0.2,0.7-0.3c0.3-0.1,0.6-0.1,0.8-0.1c0.4,0,0.7-0.1,0.9-0.1s0.4-0.1,0.5-0.1s0.2-0.2,0.2-0.3v0
		c0-0.3-0.1-0.6-0.3-0.8s-0.5-0.3-0.9-0.3c-0.4,0-0.7,0.1-0.9,0.3c-0.2,0.2-0.4,0.4-0.5,0.6l-1.1-0.2c0.1-0.4,0.3-0.7,0.6-0.9
		c0.3-0.2,0.5-0.4,0.9-0.5c0.3-0.1,0.7-0.2,1-0.2c0.2,0,0.5,0,0.8,0.1c0.3,0.1,0.5,0.2,0.8,0.3s0.4,0.4,0.6,0.6
		c0.2,0.3,0.2,0.6,0.2,1.1v4h-1.1v-0.8h0c-0.1,0.2-0.2,0.3-0.3,0.4c-0.2,0.1-0.3,0.3-0.6,0.4C252.1,86.6,251.8,86.7,251.5,86.7z
		 M251.7,85.7c0.3,0,0.6-0.1,0.8-0.2c0.2-0.1,0.4-0.3,0.5-0.5s0.2-0.4,0.2-0.7v-0.8c0,0-0.1,0.1-0.2,0.1s-0.3,0.1-0.4,0.1
		c-0.2,0-0.3,0-0.4,0.1s-0.3,0-0.4,0c-0.2,0-0.4,0.1-0.6,0.1c-0.2,0.1-0.3,0.2-0.4,0.3c-0.1,0.1-0.2,0.3-0.2,0.5
		c0,0.3,0.1,0.5,0.3,0.7C251.1,85.7,251.4,85.7,251.7,85.7z"/>
	<path class="st5" d="M258.8,80.5v0.9h-3.3v-0.9H258.8z M256.4,79.1h1.2v5.7c0,0.2,0,0.4,0.1,0.5s0.2,0.2,0.3,0.2
		c0.1,0,0.2,0.1,0.4,0.1c0.1,0,0.2,0,0.2,0c0.1,0,0.1,0,0.2,0l0.2,1c-0.1,0-0.2,0.1-0.3,0.1s-0.3,0-0.5,0c-0.3,0-0.6,0-0.9-0.2
		c-0.3-0.1-0.5-0.3-0.6-0.5c-0.2-0.2-0.2-0.5-0.2-0.9V79.1z"/>
	<path class="st5" d="M262.6,86.7c-0.6,0-1.1-0.1-1.5-0.4c-0.4-0.3-0.7-0.6-1-1.1c-0.2-0.5-0.3-1-0.3-1.6c0-0.6,0.1-1.1,0.3-1.6
		c0.2-0.5,0.6-0.8,1-1.1c0.4-0.3,0.9-0.4,1.5-0.4c0.5,0,0.9,0.1,1.2,0.3s0.6,0.4,0.9,0.7c0.2,0.3,0.4,0.7,0.4,1.1h-1.1
		c-0.1-0.3-0.2-0.5-0.4-0.7s-0.5-0.3-0.9-0.3c-0.3,0-0.6,0.1-0.9,0.3c-0.2,0.2-0.4,0.4-0.6,0.7c-0.1,0.3-0.2,0.7-0.2,1.1
		c0,0.4,0.1,0.8,0.2,1.1c0.1,0.3,0.3,0.6,0.6,0.7c0.2,0.2,0.5,0.3,0.9,0.3c0.2,0,0.4,0,0.6-0.1s0.3-0.2,0.5-0.4
		c0.1-0.2,0.2-0.3,0.3-0.6h1.1c0,0.4-0.2,0.7-0.4,1s-0.5,0.5-0.8,0.7C263.5,86.6,263.1,86.7,262.6,86.7z"/>
	<path class="st5" d="M267.5,83v3.6h-1.2v-8h1.2v3h0.1c0.1-0.3,0.4-0.6,0.6-0.8c0.3-0.2,0.7-0.3,1.1-0.3c0.4,0,0.8,0.1,1.1,0.3
		c0.3,0.2,0.5,0.4,0.7,0.8c0.2,0.3,0.3,0.8,0.3,1.3v3.8h-1.2v-3.7c0-0.4-0.1-0.8-0.3-1c-0.2-0.2-0.5-0.4-0.9-0.4
		c-0.3,0-0.5,0.1-0.7,0.2s-0.4,0.3-0.5,0.5C267.5,82.4,267.5,82.7,267.5,83z"/>
	<path class="st5" d="M277,78.5v8h-1.2v-8H277z"/>
	<path class="st5" d="M279.2,79.6c-0.2,0-0.4-0.1-0.5-0.2s-0.2-0.3-0.2-0.5c0-0.2,0.1-0.4,0.2-0.5s0.3-0.2,0.5-0.2s0.4,0.1,0.5,0.2
		s0.2,0.3,0.2,0.5c0,0.2-0.1,0.4-0.2,0.5S279.4,79.6,279.2,79.6z M278.6,86.5v-6h1.2v6H278.6z"/>
	<path class="st5" d="M285.8,82l-1.1,0.2c0-0.1-0.1-0.3-0.2-0.4c-0.1-0.1-0.2-0.2-0.4-0.3s-0.4-0.1-0.6-0.1c-0.3,0-0.6,0.1-0.8,0.2
		c-0.2,0.1-0.3,0.3-0.3,0.6c0,0.2,0.1,0.4,0.2,0.5c0.1,0.1,0.4,0.2,0.7,0.3l1,0.2c0.6,0.1,1,0.3,1.2,0.6s0.4,0.6,0.4,1
		c0,0.4-0.1,0.7-0.3,1c-0.2,0.3-0.5,0.5-0.9,0.7c-0.4,0.2-0.8,0.2-1.3,0.2c-0.7,0-1.2-0.1-1.6-0.4c-0.4-0.3-0.7-0.7-0.8-1.2l1.1-0.2
		c0.1,0.3,0.2,0.5,0.4,0.7c0.2,0.1,0.5,0.2,0.9,0.2c0.4,0,0.7-0.1,0.9-0.2s0.3-0.4,0.3-0.6c0-0.2-0.1-0.3-0.2-0.5
		c-0.1-0.1-0.4-0.2-0.6-0.3l-1-0.2c-0.6-0.1-1-0.3-1.2-0.6c-0.3-0.3-0.4-0.6-0.4-1.1c0-0.4,0.1-0.7,0.3-0.9s0.5-0.5,0.8-0.6
		c0.3-0.2,0.7-0.2,1.2-0.2c0.6,0,1.2,0.1,1.5,0.4C285.5,81.2,285.7,81.5,285.8,82z"/>
	<path class="st5" d="M290,80.5v0.9h-3.3v-0.9H290z M287.6,79.1h1.2v5.7c0,0.2,0,0.4,0.1,0.5s0.2,0.2,0.3,0.2c0.1,0,0.2,0.1,0.4,0.1
		c0.1,0,0.2,0,0.2,0c0.1,0,0.1,0,0.2,0l0.2,1c-0.1,0-0.2,0.1-0.3,0.1s-0.3,0-0.5,0c-0.3,0-0.6,0-0.9-0.2c-0.3-0.1-0.5-0.3-0.6-0.5
		c-0.2-0.2-0.2-0.5-0.2-0.9V79.1z"/>
</g>
<g>
	<path class="st3" d="M647.7,98.5h-94.3c-1.9,0-3.4-1.5-3.4-3.4V56.8c0-1.9,1.5-3.4,3.4-3.4h94.3c1.9,0,3.4,1.5,3.4,3.4v38.4
		C651.1,97,649.6,98.5,647.7,98.5z"/>
	<path class="st4" d="M647.7,98.5h-94.3c-1.9,0-3.4-1.5-3.4-3.4V56.8c0-1.9,1.5-3.4,3.4-3.4h94.3c1.9,0,3.4,1.5,3.4,3.4v38.4
		C651.1,97,649.6,98.5,647.7,98.5z"/>
</g>
<g>
	<path d="M589.4,67.3c0-0.4-0.2-0.7-0.6-0.9s-0.7-0.3-1.2-0.3c-0.4,0-0.7,0.1-0.9,0.2c-0.3,0.1-0.5,0.3-0.6,0.5
		c-0.1,0.2-0.2,0.4-0.2,0.7c0,0.2,0.1,0.4,0.2,0.5s0.2,0.3,0.4,0.4c0.2,0.1,0.3,0.2,0.5,0.2c0.2,0.1,0.3,0.1,0.5,0.2l0.8,0.2
		c0.2,0.1,0.4,0.1,0.7,0.2c0.3,0.1,0.5,0.2,0.7,0.4c0.2,0.2,0.4,0.4,0.6,0.6s0.2,0.6,0.2,0.9c0,0.4-0.1,0.8-0.3,1.2
		c-0.2,0.3-0.6,0.6-1,0.8c-0.4,0.2-1,0.3-1.6,0.3c-0.6,0-1.1-0.1-1.5-0.3c-0.4-0.2-0.7-0.4-1-0.8c-0.2-0.3-0.4-0.7-0.4-1.2h1
		c0,0.3,0.1,0.6,0.3,0.7c0.2,0.2,0.4,0.3,0.7,0.4c0.3,0.1,0.6,0.1,0.9,0.1c0.4,0,0.7-0.1,1-0.2s0.5-0.3,0.7-0.5
		c0.2-0.2,0.3-0.5,0.3-0.8c0-0.3-0.1-0.5-0.2-0.6c-0.1-0.2-0.3-0.3-0.6-0.4c-0.2-0.1-0.5-0.2-0.8-0.3l-1-0.3
		c-0.6-0.2-1.1-0.4-1.5-0.8c-0.4-0.3-0.5-0.8-0.5-1.3c0-0.4,0.1-0.8,0.4-1.2c0.2-0.3,0.6-0.6,1-0.8c0.4-0.2,0.9-0.3,1.4-0.3
		c0.5,0,1,0.1,1.4,0.3s0.7,0.4,1,0.8c0.2,0.3,0.4,0.7,0.4,1.1H589.4z"/>
	<path d="M594.4,73.5c-0.6,0-1.1-0.1-1.5-0.4c-0.4-0.3-0.7-0.6-1-1.1c-0.2-0.5-0.3-1-0.3-1.6c0-0.6,0.1-1.2,0.3-1.6
		c0.2-0.5,0.5-0.8,0.9-1.1c0.4-0.3,0.9-0.4,1.4-0.4c0.3,0,0.6,0.1,0.9,0.2c0.3,0.1,0.6,0.3,0.8,0.5c0.2,0.2,0.4,0.5,0.6,0.9
		s0.2,0.9,0.2,1.4v0.4h-4.6v-0.8h3.7c0-0.3-0.1-0.6-0.2-0.9s-0.3-0.5-0.6-0.6c-0.2-0.2-0.5-0.2-0.9-0.2c-0.4,0-0.7,0.1-1,0.3
		c-0.3,0.2-0.5,0.4-0.6,0.7s-0.2,0.6-0.2,0.9v0.5c0,0.5,0.1,0.8,0.2,1.2c0.2,0.3,0.4,0.6,0.7,0.7c0.3,0.2,0.6,0.2,1,0.2
		c0.2,0,0.5,0,0.7-0.1c0.2-0.1,0.4-0.2,0.5-0.3c0.1-0.1,0.3-0.3,0.3-0.5l0.9,0.2c-0.1,0.3-0.3,0.6-0.5,0.8c-0.2,0.2-0.5,0.4-0.8,0.5
		C595.2,73.4,594.8,73.5,594.4,73.5z"/>
	<path d="M599.2,65.3v8h-0.9v-8H599.2z"/>
	<path d="M603.4,73.5c-0.6,0-1.1-0.1-1.5-0.4c-0.4-0.3-0.7-0.6-1-1.1c-0.2-0.5-0.3-1-0.3-1.6c0-0.6,0.1-1.2,0.3-1.6
		c0.2-0.5,0.5-0.8,0.9-1.1c0.4-0.3,0.9-0.4,1.4-0.4c0.3,0,0.6,0.1,0.9,0.2c0.3,0.1,0.6,0.3,0.8,0.5c0.2,0.2,0.4,0.5,0.6,0.9
		s0.2,0.9,0.2,1.4v0.4h-4.6v-0.8h3.7c0-0.3-0.1-0.6-0.2-0.9s-0.3-0.5-0.6-0.6c-0.2-0.2-0.5-0.2-0.9-0.2c-0.4,0-0.7,0.1-1,0.3
		c-0.3,0.2-0.5,0.4-0.6,0.7s-0.2,0.6-0.2,0.9v0.5c0,0.5,0.1,0.8,0.2,1.2c0.2,0.3,0.4,0.6,0.7,0.7c0.3,0.2,0.6,0.2,1,0.2
		c0.2,0,0.5,0,0.7-0.1c0.2-0.1,0.4-0.2,0.5-0.3c0.1-0.1,0.3-0.3,0.3-0.5l0.9,0.2c-0.1,0.3-0.3,0.6-0.5,0.8c-0.2,0.2-0.5,0.4-0.8,0.5
		C604.2,73.4,603.8,73.5,603.4,73.5z"/>
	<path d="M609.7,73.5c-0.6,0-1-0.1-1.5-0.4s-0.7-0.6-0.9-1.1c-0.2-0.5-0.3-1-0.3-1.6c0-0.6,0.1-1.1,0.3-1.6c0.2-0.5,0.5-0.8,0.9-1.1
		c0.4-0.3,0.9-0.4,1.4-0.4c0.4,0,0.8,0.1,1.1,0.2c0.3,0.2,0.6,0.4,0.8,0.7c0.2,0.3,0.4,0.6,0.4,1h-0.9c-0.1-0.3-0.2-0.5-0.5-0.7
		c-0.2-0.2-0.6-0.3-1-0.3c-0.4,0-0.7,0.1-0.9,0.3c-0.3,0.2-0.5,0.4-0.6,0.8c-0.1,0.3-0.2,0.7-0.2,1.2c0,0.5,0.1,0.9,0.2,1.2
		s0.4,0.6,0.6,0.8c0.3,0.2,0.6,0.3,1,0.3c0.2,0,0.5,0,0.7-0.1c0.2-0.1,0.4-0.2,0.5-0.4c0.1-0.2,0.2-0.3,0.3-0.6h0.9
		c-0.1,0.4-0.2,0.7-0.4,1c-0.2,0.3-0.5,0.5-0.8,0.7C610.6,73.4,610.2,73.5,609.7,73.5z"/>
	<path d="M616.1,67.3v0.8H613v-0.8H616.1z M613.9,65.9h0.9v5.7c0,0.3,0,0.5,0.1,0.6s0.2,0.2,0.3,0.3s0.2,0.1,0.4,0.1
		c0.1,0,0.2,0,0.2,0s0.1,0,0.2,0l0.2,0.8c-0.1,0-0.1,0-0.3,0.1c-0.1,0-0.3,0-0.4,0c-0.3,0-0.5-0.1-0.8-0.2c-0.2-0.1-0.5-0.3-0.6-0.5
		c-0.2-0.2-0.2-0.5-0.2-0.9V65.9z"/>
	<path class="st5" d="M568.1,78.5v8H567l-4.1-5.9h-0.1v5.9h-1.2v-8h1.1l4.1,5.9h0.1v-5.9H568.1z"/>
	<path class="st5" d="M572.4,86.7c-0.6,0-1.1-0.1-1.5-0.4s-0.8-0.6-1-1.1c-0.2-0.5-0.3-1-0.3-1.6c0-0.6,0.1-1.2,0.3-1.6
		s0.6-0.8,1-1.1c0.4-0.3,0.9-0.4,1.5-0.4c0.3,0,0.7,0.1,1,0.2c0.3,0.1,0.6,0.3,0.9,0.5c0.3,0.2,0.5,0.6,0.6,0.9
		c0.1,0.4,0.2,0.8,0.2,1.4v0.4h-4.8V83h3.6c0-0.3-0.1-0.6-0.2-0.8s-0.3-0.4-0.5-0.6c-0.2-0.1-0.5-0.2-0.8-0.2
		c-0.3,0-0.6,0.1-0.9,0.2s-0.4,0.4-0.6,0.6c-0.1,0.3-0.2,0.5-0.2,0.8v0.7c0,0.4,0.1,0.7,0.2,1s0.3,0.5,0.6,0.6
		c0.3,0.1,0.6,0.2,0.9,0.2c0.2,0,0.4,0,0.6-0.1c0.2-0.1,0.3-0.2,0.5-0.3c0.1-0.1,0.2-0.3,0.3-0.5l1.1,0.2c-0.1,0.3-0.2,0.6-0.5,0.9
		c-0.2,0.2-0.5,0.4-0.9,0.6C573.2,86.6,572.8,86.7,572.4,86.7z"/>
	<path class="st5" d="M577.6,86.5l-1.8-6h1.2l1.2,4.4h0.1l1.2-4.4h1.2l1.2,4.4h0.1l1.2-4.4h1.2l-1.8,6h-1.2l-1.2-4.3H580l-1.2,4.3
		H577.6z"/>
	<path class="st5" d="M589.9,86.5l-2.2-8h1.3l1.6,6.2h0.1l1.6-6.2h1.3l1.6,6.2h0.1l1.6-6.2h1.3l-2.2,8h-1.2l-1.7-6h-0.1l-1.7,6
		H589.9z"/>
	<path class="st5" d="M600.8,86.7c-0.4,0-0.7-0.1-1-0.2c-0.3-0.1-0.6-0.3-0.7-0.6c-0.2-0.3-0.3-0.6-0.3-1c0-0.3,0.1-0.6,0.2-0.8
		s0.3-0.4,0.5-0.5c0.2-0.1,0.5-0.2,0.7-0.3c0.3-0.1,0.6-0.1,0.8-0.1c0.4,0,0.7-0.1,0.9-0.1s0.4-0.1,0.5-0.1s0.2-0.2,0.2-0.3v0
		c0-0.3-0.1-0.6-0.3-0.8s-0.5-0.3-0.9-0.3c-0.4,0-0.7,0.1-0.9,0.3c-0.2,0.2-0.4,0.4-0.5,0.6l-1.1-0.2c0.1-0.4,0.3-0.7,0.6-0.9
		c0.3-0.2,0.5-0.4,0.9-0.5c0.3-0.1,0.7-0.2,1-0.2c0.2,0,0.5,0,0.8,0.1c0.3,0.1,0.5,0.2,0.8,0.3s0.4,0.4,0.6,0.6
		c0.2,0.3,0.2,0.6,0.2,1.1v4h-1.1v-0.8h0c-0.1,0.2-0.2,0.3-0.3,0.4c-0.2,0.1-0.3,0.3-0.6,0.4C601.4,86.6,601.1,86.7,600.8,86.7z
		 M601,85.7c0.3,0,0.6-0.1,0.8-0.2c0.2-0.1,0.4-0.3,0.5-0.5s0.2-0.4,0.2-0.7v-0.8c0,0-0.1,0.1-0.2,0.1s-0.3,0.1-0.4,0.1
		c-0.2,0-0.3,0-0.4,0.1s-0.3,0-0.4,0c-0.2,0-0.4,0.1-0.6,0.1c-0.2,0.1-0.3,0.2-0.4,0.3c-0.1,0.1-0.2,0.3-0.2,0.5
		c0,0.3,0.1,0.5,0.3,0.7C600.4,85.7,600.7,85.7,601,85.7z"/>
	<path class="st5" d="M608.1,80.5v0.9h-3.3v-0.9H608.1z M605.7,79.1h1.2v5.7c0,0.2,0,0.4,0.1,0.5s0.2,0.2,0.3,0.2
		c0.1,0,0.2,0.1,0.4,0.1c0.1,0,0.2,0,0.2,0c0.1,0,0.1,0,0.2,0l0.2,1c-0.1,0-0.2,0.1-0.3,0.1s-0.3,0-0.5,0c-0.3,0-0.6,0-0.9-0.2
		c-0.3-0.1-0.5-0.3-0.6-0.5c-0.2-0.2-0.2-0.5-0.2-0.9V79.1z"/>
	<path class="st5" d="M611.9,86.7c-0.6,0-1.1-0.1-1.5-0.4c-0.4-0.3-0.7-0.6-1-1.1c-0.2-0.5-0.3-1-0.3-1.6c0-0.6,0.1-1.1,0.3-1.6
		c0.2-0.5,0.6-0.8,1-1.1c0.4-0.3,0.9-0.4,1.5-0.4c0.5,0,0.9,0.1,1.2,0.3s0.6,0.4,0.9,0.7c0.2,0.3,0.4,0.7,0.4,1.1h-1.1
		c-0.1-0.3-0.2-0.5-0.4-0.7s-0.5-0.3-0.9-0.3c-0.3,0-0.6,0.1-0.9,0.3c-0.2,0.2-0.4,0.4-0.6,0.7c-0.1,0.3-0.2,0.7-0.2,1.1
		c0,0.4,0.1,0.8,0.2,1.1c0.1,0.3,0.3,0.6,0.6,0.7c0.2,0.2,0.5,0.3,0.9,0.3c0.2,0,0.4,0,0.6-0.1s0.3-0.2,0.5-0.4
		c0.1-0.2,0.2-0.3,0.3-0.6h1.1c0,0.4-0.2,0.7-0.4,1s-0.5,0.5-0.8,0.7C612.8,86.6,612.4,86.7,611.9,86.7z"/>
	<path class="st5" d="M616.8,83v3.6h-1.2v-8h1.2v3h0.1c0.1-0.3,0.4-0.6,0.6-0.8c0.3-0.2,0.7-0.3,1.1-0.3c0.4,0,0.8,0.1,1.1,0.3
		c0.3,0.2,0.5,0.4,0.7,0.8c0.2,0.3,0.3,0.8,0.3,1.3v3.8h-1.2v-3.7c0-0.4-0.1-0.8-0.3-1c-0.2-0.2-0.5-0.4-0.9-0.4
		c-0.3,0-0.5,0.1-0.7,0.2s-0.4,0.3-0.5,0.5C616.8,82.4,616.8,82.7,616.8,83z"/>
	<path class="st5" d="M626.3,78.5v8h-1.2v-8H626.3z"/>
	<path class="st5" d="M628.5,79.6c-0.2,0-0.4-0.1-0.5-0.2s-0.2-0.3-0.2-0.5c0-0.2,0.1-0.4,0.2-0.5s0.3-0.2,0.5-0.2s0.4,0.1,0.5,0.2
		s0.2,0.3,0.2,0.5c0,0.2-0.1,0.4-0.2,0.5S628.7,79.6,628.5,79.6z M627.9,86.5v-6h1.2v6H627.9z"/>
	<path class="st5" d="M635.1,82l-1.1,0.2c0-0.1-0.1-0.3-0.2-0.4c-0.1-0.1-0.2-0.2-0.4-0.3s-0.4-0.1-0.6-0.1c-0.3,0-0.6,0.1-0.8,0.2
		c-0.2,0.1-0.3,0.3-0.3,0.6c0,0.2,0.1,0.4,0.2,0.5c0.1,0.1,0.4,0.2,0.7,0.3l1,0.2c0.6,0.1,1,0.3,1.2,0.6s0.4,0.6,0.4,1
		c0,0.4-0.1,0.7-0.3,1c-0.2,0.3-0.5,0.5-0.9,0.7c-0.4,0.2-0.8,0.2-1.3,0.2c-0.7,0-1.2-0.1-1.6-0.4c-0.4-0.3-0.7-0.7-0.8-1.2l1.1-0.2
		c0.1,0.3,0.2,0.5,0.4,0.7c0.2,0.2,0.5,0.2,0.9,0.2c0.4,0,0.7-0.1,0.9-0.2s0.3-0.4,0.3-0.6c0-0.2-0.1-0.3-0.2-0.5
		c-0.1-0.1-0.4-0.2-0.6-0.3l-1-0.2c-0.6-0.1-1-0.3-1.2-0.6c-0.3-0.3-0.4-0.6-0.4-1.1c0-0.4,0.1-0.7,0.3-0.9s0.5-0.5,0.8-0.6
		c0.3-0.1,0.7-0.2,1.2-0.2c0.6,0,1.2,0.1,1.5,0.4C634.8,81.2,635,81.5,635.1,82z"/>
	<path class="st5" d="M639.3,80.5v0.9H636v-0.9H639.3z M636.9,79.1h1.2v5.7c0,0.2,0,0.4,0.1,0.5s0.2,0.2,0.3,0.2
		c0.1,0,0.2,0.1,0.4,0.1c0.1,0,0.2,0,0.2,0c0.1,0,0.1,0,0.2,0l0.2,1c-0.1,0-0.2,0.1-0.3,0.1s-0.3,0-0.5,0c-0.3,0-0.6,0-0.9-0.2
		c-0.3-0.1-0.5-0.3-0.6-0.5c-0.2-0.2-0.2-0.5-0.2-0.9V79.1z"/>
</g>
<g>
	<path class="st3" d="M815.9,98.6h-94.3c-1.9,0-3.4-1.5-3.4-3.4V56.8c0-1.9,1.5-3.4,3.4-3.4h94.3c1.9,0,3.4,1.5,3.4,3.4v38.4
		C819.3,97.1,817.7,98.6,815.9,98.6z"/>
	<path class="st4" d="M815.9,98.6h-94.3c-1.9,0-3.4-1.5-3.4-3.4V56.8c0-1.9,1.5-3.4,3.4-3.4h94.3c1.9,0,3.4,1.5,3.4,3.4v38.4
		C819.3,97.1,817.7,98.6,815.9,98.6z"/>
</g>
<g>
	<path d="M758.3,61.3h-1c-0.1-0.3-0.2-0.5-0.3-0.7s-0.3-0.4-0.5-0.5s-0.4-0.3-0.7-0.3c-0.2-0.1-0.5-0.1-0.8-0.1
		c-0.5,0-0.9,0.1-1.3,0.4c-0.4,0.2-0.7,0.6-0.9,1.1s-0.3,1.1-0.3,1.8c0,0.7,0.1,1.3,0.3,1.8s0.5,0.8,0.9,1.1
		c0.4,0.2,0.8,0.4,1.3,0.4c0.3,0,0.5,0,0.8-0.1c0.2-0.1,0.5-0.2,0.7-0.3s0.4-0.3,0.5-0.5c0.1-0.2,0.2-0.5,0.3-0.7h1
		c-0.1,0.4-0.2,0.8-0.4,1.1c-0.2,0.3-0.4,0.6-0.7,0.8c-0.3,0.2-0.6,0.4-1,0.5s-0.7,0.2-1.1,0.2c-0.7,0-1.3-0.2-1.8-0.5
		c-0.5-0.3-0.9-0.8-1.3-1.4c-0.3-0.6-0.5-1.3-0.5-2.2s0.2-1.6,0.5-2.2c0.3-0.6,0.7-1.1,1.3-1.4c0.5-0.3,1.1-0.5,1.8-0.5
		c0.4,0,0.8,0.1,1.1,0.2s0.7,0.3,1,0.5c0.3,0.2,0.5,0.5,0.7,0.8C758.1,60.5,758.3,60.9,758.3,61.3z"/>
	<path d="M759.8,66.8v-6h0.9v0.9h0.1c0.1-0.3,0.3-0.5,0.6-0.7c0.3-0.2,0.6-0.3,1-0.3c0.1,0,0.2,0,0.3,0c0.1,0,0.2,0,0.2,0v0.9
		c0,0-0.1,0-0.2,0c-0.1,0-0.2,0-0.3,0c-0.3,0-0.6,0.1-0.8,0.2s-0.4,0.3-0.5,0.5c-0.1,0.2-0.2,0.5-0.2,0.7v3.8H759.8z"/>
	<path d="M766.4,66.9c-0.6,0-1.1-0.1-1.5-0.4c-0.4-0.3-0.7-0.6-1-1.1c-0.2-0.5-0.3-1-0.3-1.6c0-0.6,0.1-1.2,0.3-1.6
		c0.2-0.5,0.5-0.8,0.9-1.1c0.4-0.3,0.9-0.4,1.4-0.4c0.3,0,0.6,0.1,0.9,0.2c0.3,0.1,0.6,0.3,0.8,0.5c0.2,0.2,0.4,0.5,0.6,0.9
		s0.2,0.9,0.2,1.4v0.4h-4.6v-0.8h3.7c0-0.3-0.1-0.6-0.2-0.9s-0.3-0.5-0.6-0.6c-0.2-0.2-0.5-0.2-0.9-0.2c-0.4,0-0.7,0.1-1,0.3
		c-0.3,0.2-0.5,0.4-0.6,0.7s-0.2,0.6-0.2,0.9V64c0,0.5,0.1,0.8,0.2,1.2c0.2,0.3,0.4,0.6,0.7,0.7c0.3,0.2,0.6,0.2,1,0.2
		c0.2,0,0.5,0,0.7-0.1c0.2-0.1,0.4-0.2,0.5-0.3c0.1-0.1,0.3-0.3,0.3-0.5l0.9,0.2c-0.1,0.3-0.3,0.6-0.5,0.8c-0.2,0.2-0.5,0.4-0.8,0.5
		C767.2,66.9,766.8,66.9,766.4,66.9z"/>
	<path d="M772,66.9c-0.4,0-0.7-0.1-1-0.2s-0.6-0.4-0.7-0.6c-0.2-0.3-0.3-0.6-0.3-1c0-0.3,0.1-0.6,0.2-0.8s0.3-0.4,0.5-0.5
		c0.2-0.1,0.5-0.2,0.8-0.3c0.3-0.1,0.6-0.1,0.8-0.1c0.4,0,0.7-0.1,0.9-0.1c0.2,0,0.4-0.1,0.5-0.1c0.1-0.1,0.2-0.2,0.2-0.3v0
		c0-0.4-0.1-0.7-0.3-0.9c-0.2-0.2-0.5-0.3-1-0.3c-0.4,0-0.8,0.1-1,0.3c-0.2,0.2-0.4,0.4-0.5,0.6l-0.9-0.3c0.2-0.4,0.4-0.6,0.6-0.9
		c0.3-0.2,0.5-0.3,0.9-0.4s0.6-0.1,0.9-0.1c0.2,0,0.4,0,0.7,0.1c0.3,0,0.5,0.1,0.7,0.3s0.4,0.4,0.6,0.6c0.2,0.3,0.2,0.7,0.2,1.1v4
		h-0.9V66h0c-0.1,0.1-0.2,0.3-0.3,0.4s-0.3,0.3-0.6,0.4C772.7,66.9,772.4,66.9,772,66.9z M772.2,66.1c0.4,0,0.7-0.1,0.9-0.2
		c0.3-0.1,0.4-0.3,0.6-0.6s0.2-0.5,0.2-0.7v-0.8c0,0-0.1,0.1-0.3,0.1c-0.1,0-0.3,0.1-0.5,0.1c-0.2,0-0.3,0.1-0.5,0.1s-0.3,0-0.4,0
		c-0.2,0-0.5,0.1-0.7,0.2c-0.2,0.1-0.4,0.2-0.5,0.3s-0.2,0.3-0.2,0.6c0,0.3,0.1,0.6,0.4,0.7C771.5,66,771.8,66.1,772.2,66.1z"/>
	<path d="M779.1,60.8v0.8H776v-0.8H779.1z M776.9,59.4h0.9v5.7c0,0.3,0,0.5,0.1,0.6c0.1,0.1,0.2,0.2,0.3,0.3s0.2,0.1,0.4,0.1
		c0.1,0,0.2,0,0.2,0c0.1,0,0.1,0,0.2,0l0.2,0.8c-0.1,0-0.1,0-0.3,0.1c-0.1,0-0.3,0-0.4,0c-0.3,0-0.5-0.1-0.8-0.2
		c-0.2-0.1-0.5-0.3-0.6-0.5c-0.2-0.2-0.2-0.5-0.2-0.9V59.4z"/>
	<path d="M783,66.9c-0.6,0-1.1-0.1-1.5-0.4c-0.4-0.3-0.7-0.6-1-1.1c-0.2-0.5-0.3-1-0.3-1.6c0-0.6,0.1-1.2,0.3-1.6
		c0.2-0.5,0.5-0.8,0.9-1.1c0.4-0.3,0.9-0.4,1.4-0.4c0.3,0,0.6,0.1,0.9,0.2c0.3,0.1,0.6,0.3,0.8,0.5c0.2,0.2,0.4,0.5,0.6,0.9
		s0.2,0.9,0.2,1.4v0.4h-4.6v-0.8h3.7c0-0.3-0.1-0.6-0.2-0.9s-0.3-0.5-0.6-0.6c-0.2-0.2-0.5-0.2-0.9-0.2c-0.4,0-0.7,0.1-1,0.3
		c-0.3,0.2-0.5,0.4-0.6,0.7s-0.2,0.6-0.2,0.9V64c0,0.5,0.1,0.8,0.2,1.2c0.2,0.3,0.4,0.6,0.7,0.7c0.3,0.2,0.6,0.2,1,0.2
		c0.2,0,0.5,0,0.7-0.1c0.2-0.1,0.4-0.2,0.5-0.3c0.1-0.1,0.3-0.3,0.3-0.5l0.9,0.2c-0.1,0.3-0.3,0.6-0.5,0.8c-0.2,0.2-0.5,0.4-0.8,0.5
		C783.8,66.9,783.4,66.9,783,66.9z"/>
	<path class="st11" d="M742.3,74.2c0-0.3-0.2-0.6-0.5-0.8c-0.3-0.2-0.6-0.3-1-0.3c-0.3,0-0.6,0-0.8,0.1c-0.2,0.1-0.4,0.2-0.5,0.4
		s-0.2,0.3-0.2,0.5c0,0.2,0,0.3,0.1,0.4c0.1,0.1,0.2,0.2,0.3,0.3c0.1,0.1,0.3,0.2,0.4,0.2c0.2,0.1,0.3,0.1,0.5,0.1l0.8,0.2
		c0.3,0.1,0.6,0.2,0.9,0.3c0.3,0.1,0.5,0.3,0.8,0.5c0.2,0.2,0.4,0.4,0.5,0.7s0.2,0.6,0.2,0.9c0,0.5-0.1,0.9-0.4,1.2s-0.6,0.6-1,0.8
		s-1,0.3-1.6,0.3c-0.6,0-1.2-0.1-1.6-0.3c-0.5-0.2-0.8-0.5-1.1-0.8c-0.3-0.4-0.4-0.8-0.4-1.4h1.4c0,0.3,0.1,0.5,0.3,0.7
		c0.2,0.2,0.3,0.3,0.6,0.4c0.2,0.1,0.5,0.1,0.8,0.1c0.3,0,0.6,0,0.8-0.1c0.2-0.1,0.4-0.2,0.6-0.4c0.1-0.2,0.2-0.4,0.2-0.6
		c0-0.2-0.1-0.4-0.2-0.5s-0.3-0.3-0.5-0.3c-0.2-0.1-0.5-0.2-0.8-0.2l-0.9-0.2c-0.7-0.2-1.2-0.4-1.6-0.8c-0.4-0.3-0.6-0.8-0.6-1.4
		c0-0.5,0.1-0.9,0.4-1.2c0.3-0.4,0.6-0.6,1-0.8c0.4-0.2,0.9-0.3,1.5-0.3c0.6,0,1.1,0.1,1.5,0.3c0.4,0.2,0.8,0.5,1,0.8
		s0.4,0.7,0.4,1.2H742.3z"/>
	<path class="st11" d="M747.7,80.1c-0.6,0-1.1-0.1-1.6-0.4c-0.4-0.3-0.8-0.6-1-1.1c-0.2-0.5-0.4-1-0.4-1.6c0-0.6,0.1-1.2,0.4-1.6
		c0.2-0.5,0.6-0.8,1-1.1s0.9-0.4,1.5-0.4c0.4,0,0.7,0.1,1,0.2c0.3,0.1,0.6,0.3,0.9,0.5c0.3,0.2,0.5,0.6,0.6,0.9
		c0.1,0.4,0.2,0.8,0.2,1.4v0.4h-4.9v-1h3.6c0-0.3-0.1-0.5-0.2-0.7c-0.1-0.2-0.3-0.4-0.5-0.5c-0.2-0.1-0.4-0.2-0.7-0.2
		c-0.3,0-0.5,0.1-0.8,0.2c-0.2,0.1-0.4,0.3-0.5,0.5c-0.1,0.2-0.2,0.5-0.2,0.7v0.8c0,0.3,0.1,0.6,0.2,0.9c0.1,0.2,0.3,0.4,0.5,0.6
		c0.2,0.1,0.5,0.2,0.8,0.2c0.2,0,0.4,0,0.6-0.1s0.3-0.1,0.4-0.3c0.1-0.1,0.2-0.3,0.3-0.4l1.3,0.1c-0.1,0.3-0.2,0.7-0.5,0.9
		c-0.2,0.3-0.5,0.5-0.9,0.6C748.6,80,748.2,80.1,747.7,80.1z"/>
	<path class="st11" d="M754.2,80.1c-0.6,0-1.1-0.1-1.5-0.4c-0.4-0.3-0.8-0.6-1-1.1s-0.3-1-0.3-1.6c0-0.6,0.1-1.1,0.4-1.6
		c0.2-0.5,0.6-0.8,1-1.1s0.9-0.4,1.5-0.4c0.5,0,0.9,0.1,1.3,0.3c0.4,0.2,0.7,0.4,0.9,0.8s0.4,0.7,0.4,1.1h-1.4
		c-0.1-0.3-0.2-0.5-0.4-0.7c-0.2-0.2-0.5-0.3-0.8-0.3c-0.3,0-0.5,0.1-0.8,0.2c-0.2,0.2-0.4,0.4-0.5,0.7s-0.2,0.6-0.2,1
		c0,0.4,0.1,0.8,0.2,1.1s0.3,0.5,0.5,0.7c0.2,0.2,0.5,0.2,0.8,0.2c0.2,0,0.4,0,0.6-0.1c0.2-0.1,0.3-0.2,0.4-0.3
		c0.1-0.2,0.2-0.3,0.2-0.6h1.4c0,0.4-0.2,0.8-0.4,1.1c-0.2,0.3-0.5,0.6-0.9,0.8S754.7,80.1,754.2,80.1z"/>
	<path class="st11" d="M760.9,74v1.1h-3.4V74H760.9z M758.3,72.6h1.4v5.6c0,0.2,0,0.3,0.1,0.4c0.1,0.1,0.1,0.2,0.2,0.2
		c0.1,0,0.2,0.1,0.3,0.1c0.1,0,0.2,0,0.2,0c0.1,0,0.1,0,0.2,0l0.2,1.1c-0.1,0-0.2,0.1-0.3,0.1s-0.3,0-0.5,0.1c-0.4,0-0.7,0-1-0.2
		c-0.3-0.1-0.5-0.3-0.7-0.6s-0.2-0.6-0.2-0.9V72.6z"/>
	<path class="st11" d="M764.7,80.1c-0.6,0-1.1-0.1-1.5-0.4s-0.8-0.6-1-1.1c-0.2-0.5-0.4-1-0.4-1.6c0-0.6,0.1-1.2,0.4-1.6
		c0.2-0.5,0.6-0.8,1-1.1s0.9-0.4,1.5-0.4s1.1,0.1,1.5,0.4s0.8,0.6,1,1.1c0.2,0.5,0.4,1,0.4,1.6c0,0.6-0.1,1.2-0.4,1.6
		c-0.2,0.5-0.6,0.8-1,1.1S765.3,80.1,764.7,80.1z M764.7,79c0.3,0,0.6-0.1,0.8-0.3s0.4-0.4,0.5-0.7s0.2-0.6,0.2-1
		c0-0.4-0.1-0.7-0.2-1c-0.1-0.3-0.3-0.5-0.5-0.7c-0.2-0.2-0.5-0.3-0.8-0.3c-0.3,0-0.6,0.1-0.8,0.3c-0.2,0.2-0.4,0.4-0.5,0.7
		c-0.1,0.3-0.2,0.6-0.2,1c0,0.4,0.1,0.7,0.2,1s0.3,0.5,0.5,0.7S764.4,79,764.7,79z"/>
	<path class="st11" d="M768.8,80v-6h1.4v1h0.1c0.1-0.3,0.3-0.6,0.6-0.8c0.3-0.2,0.6-0.3,0.9-0.3c0.1,0,0.2,0,0.3,0
		c0.1,0,0.2,0,0.2,0v1.3c-0.1,0-0.2,0-0.3-0.1c-0.1,0-0.3,0-0.4,0c-0.3,0-0.5,0.1-0.7,0.2c-0.2,0.1-0.4,0.3-0.5,0.5
		s-0.2,0.4-0.2,0.7V80H768.8z"/>
	<path class="st11" d="M777.1,80l-1.7-6h1.4l1.1,4.2h0.1l1.1-4.2h1.4l1.1,4.2h0.1l1-4.2h1.4l-1.7,6h-1.5l-1.1-4.1h-0.1l-1.1,4.1
		H777.1z"/>
	<path class="st11" d="M785.8,73.2c-0.2,0-0.4-0.1-0.6-0.2c-0.2-0.2-0.2-0.3-0.2-0.5s0.1-0.4,0.2-0.5c0.2-0.1,0.4-0.2,0.6-0.2
		c0.2,0,0.4,0.1,0.6,0.2c0.2,0.2,0.2,0.3,0.2,0.5s-0.1,0.4-0.2,0.5C786.2,73.1,786,73.2,785.8,73.2z M785.1,80v-6h1.4v6H785.1z"/>
	<path class="st11" d="M792.7,75.6l-1.3,0.1c0-0.1-0.1-0.3-0.2-0.4c-0.1-0.1-0.2-0.2-0.4-0.3s-0.3-0.1-0.6-0.1
		c-0.3,0-0.5,0.1-0.7,0.2c-0.2,0.1-0.3,0.3-0.3,0.5c0,0.2,0.1,0.3,0.2,0.4s0.3,0.2,0.7,0.3l1,0.2c0.6,0.1,1,0.3,1.3,0.6
		s0.4,0.6,0.4,1c0,0.4-0.1,0.7-0.3,1c-0.2,0.3-0.5,0.5-0.9,0.7c-0.4,0.2-0.8,0.2-1.3,0.2c-0.7,0-1.3-0.2-1.8-0.5s-0.7-0.7-0.8-1.3
		l1.4-0.1c0.1,0.3,0.2,0.5,0.4,0.6c0.2,0.1,0.5,0.2,0.8,0.2c0.3,0,0.6-0.1,0.8-0.2c0.2-0.1,0.3-0.3,0.3-0.5c0-0.2-0.1-0.3-0.2-0.4
		c-0.1-0.1-0.3-0.2-0.6-0.3l-1-0.2c-0.6-0.1-1-0.3-1.3-0.6s-0.4-0.6-0.4-1.1c0-0.4,0.1-0.7,0.3-1c0.2-0.3,0.5-0.5,0.9-0.6
		c0.4-0.1,0.8-0.2,1.3-0.2c0.7,0,1.3,0.2,1.7,0.4C792.4,74.7,792.6,75.1,792.7,75.6z"/>
	<path class="st11" d="M796.7,80.1c-0.6,0-1.1-0.1-1.6-0.4c-0.4-0.3-0.8-0.6-1-1.1c-0.2-0.5-0.4-1-0.4-1.6c0-0.6,0.1-1.2,0.4-1.6
		c0.2-0.5,0.6-0.8,1-1.1s0.9-0.4,1.5-0.4c0.4,0,0.7,0.1,1,0.2c0.3,0.1,0.6,0.3,0.9,0.5c0.3,0.2,0.5,0.6,0.6,0.9
		c0.1,0.4,0.2,0.8,0.2,1.4v0.4h-4.9v-1h3.6c0-0.3-0.1-0.5-0.2-0.7c-0.1-0.2-0.3-0.4-0.5-0.5c-0.2-0.1-0.4-0.2-0.7-0.2
		c-0.3,0-0.5,0.1-0.8,0.2c-0.2,0.1-0.4,0.3-0.5,0.5c-0.1,0.2-0.2,0.5-0.2,0.7v0.8c0,0.3,0.1,0.6,0.2,0.9c0.1,0.2,0.3,0.4,0.5,0.6
		c0.2,0.1,0.5,0.2,0.8,0.2c0.2,0,0.4,0,0.6-0.1s0.3-0.1,0.4-0.3c0.1-0.1,0.2-0.3,0.3-0.4l1.3,0.1c-0.1,0.3-0.2,0.7-0.5,0.9
		c-0.2,0.3-0.5,0.5-0.9,0.6C797.5,80,797.1,80.1,796.7,80.1z"/>
	<path class="st11" d="M735.9,85.2v8h-1.3l-3.8-5.4h-0.1v5.4h-1.4v-8h1.3l3.8,5.5h0.1v-5.5H735.9z"/>
	<path class="st11" d="M740,93.3c-0.6,0-1.1-0.1-1.6-0.4c-0.4-0.3-0.8-0.6-1-1.1c-0.2-0.5-0.4-1-0.4-1.6c0-0.6,0.1-1.2,0.4-1.6
		c0.2-0.5,0.6-0.8,1-1.1s0.9-0.4,1.5-0.4c0.4,0,0.7,0.1,1,0.2c0.3,0.1,0.6,0.3,0.9,0.5c0.3,0.2,0.5,0.6,0.6,0.9
		c0.1,0.4,0.2,0.8,0.2,1.4v0.4h-4.9v-1h3.6c0-0.3-0.1-0.5-0.2-0.7c-0.1-0.2-0.3-0.4-0.5-0.5c-0.2-0.1-0.4-0.2-0.7-0.2
		c-0.3,0-0.5,0.1-0.8,0.2c-0.2,0.1-0.4,0.3-0.5,0.5c-0.1,0.2-0.2,0.5-0.2,0.7v0.8c0,0.3,0.1,0.6,0.2,0.9c0.1,0.2,0.3,0.4,0.5,0.6
		c0.2,0.1,0.5,0.2,0.8,0.2c0.2,0,0.4,0,0.6-0.1s0.3-0.1,0.4-0.3c0.1-0.1,0.2-0.3,0.3-0.4l1.3,0.1c-0.1,0.3-0.2,0.7-0.5,0.9
		c-0.2,0.3-0.5,0.5-0.9,0.6C740.9,93.2,740.5,93.3,740,93.3z"/>
	<path class="st11" d="M745.1,93.2l-1.7-6h1.4l1.1,4.2h0.1l1.1-4.2h1.4l1.1,4.2h0.1l1-4.2h1.4l-1.7,6h-1.5l-1.1-4.1h-0.1l-1.1,4.1
		H745.1z"/>
	<path class="st11" d="M757.6,93.2l-2.3-8h1.6l1.4,5.9h0.1l1.5-5.9h1.4l1.5,5.9h0.1l1.4-5.9h1.6l-2.3,8h-1.4l-1.6-5.6h-0.1l-1.6,5.6
		H757.6z"/>
	<path class="st11" d="M768.6,93.3c-0.4,0-0.7-0.1-1-0.2s-0.5-0.3-0.7-0.6c-0.2-0.3-0.3-0.6-0.3-1c0-0.3,0.1-0.6,0.2-0.8
		c0.1-0.2,0.3-0.4,0.5-0.5s0.5-0.2,0.7-0.3c0.3-0.1,0.6-0.1,0.8-0.2c0.4,0,0.6-0.1,0.9-0.1c0.2,0,0.4-0.1,0.5-0.1
		c0.1-0.1,0.2-0.2,0.2-0.3v0c0-0.3-0.1-0.5-0.3-0.7c-0.2-0.2-0.4-0.2-0.8-0.2c-0.3,0-0.6,0.1-0.8,0.2c-0.2,0.2-0.3,0.3-0.4,0.5
		l-1.3-0.2c0.1-0.4,0.3-0.7,0.5-0.9s0.5-0.4,0.9-0.6c0.3-0.1,0.7-0.2,1.1-0.2c0.3,0,0.6,0,0.9,0.1c0.3,0.1,0.5,0.2,0.8,0.3
		c0.2,0.2,0.4,0.4,0.6,0.6s0.2,0.6,0.2,1v4h-1.4v-0.8h0c-0.1,0.2-0.2,0.3-0.4,0.5s-0.3,0.3-0.6,0.3C769.2,93.3,769,93.3,768.6,93.3z
		 M769,92.3c0.3,0,0.5-0.1,0.7-0.2s0.4-0.3,0.5-0.5s0.2-0.4,0.2-0.6v-0.7c0,0-0.1,0.1-0.2,0.1s-0.2,0.1-0.4,0.1s-0.3,0-0.4,0.1
		c-0.1,0-0.2,0-0.3,0c-0.2,0-0.4,0.1-0.6,0.1c-0.2,0.1-0.3,0.2-0.4,0.3c-0.1,0.1-0.1,0.3-0.1,0.4c0,0.3,0.1,0.5,0.3,0.6
		S768.7,92.3,769,92.3z"/>
	<path class="st11" d="M776.2,87.2v1.1h-3.4v-1.1H776.2z M773.6,85.8h1.4v5.6c0,0.2,0,0.3,0.1,0.4c0.1,0.1,0.1,0.2,0.2,0.2
		c0.1,0,0.2,0.1,0.3,0.1c0.1,0,0.2,0,0.2,0c0.1,0,0.1,0,0.2,0l0.2,1.1c-0.1,0-0.2,0.1-0.3,0.1s-0.3,0-0.5,0.1c-0.4,0-0.7,0-1-0.2
		c-0.3-0.1-0.5-0.3-0.7-0.6s-0.2-0.6-0.2-0.9V85.8z"/>
	<path class="st11" d="M780,93.3c-0.6,0-1.1-0.1-1.5-0.4c-0.4-0.3-0.8-0.6-1-1.1s-0.3-1-0.3-1.6c0-0.6,0.1-1.1,0.4-1.6
		c0.2-0.5,0.6-0.8,1-1.1s0.9-0.4,1.5-0.4c0.5,0,0.9,0.1,1.3,0.3c0.4,0.2,0.7,0.4,0.9,0.8s0.4,0.7,0.4,1.1h-1.4
		c-0.1-0.3-0.2-0.5-0.4-0.7c-0.2-0.2-0.5-0.3-0.8-0.3c-0.3,0-0.5,0.1-0.8,0.2c-0.2,0.2-0.4,0.4-0.5,0.7s-0.2,0.6-0.2,1
		c0,0.4,0.1,0.8,0.2,1.1s0.3,0.5,0.5,0.7c0.2,0.2,0.5,0.2,0.8,0.2c0.2,0,0.4,0,0.6-0.1c0.2-0.1,0.3-0.2,0.4-0.3
		c0.1-0.2,0.2-0.3,0.2-0.6h1.4c0,0.4-0.2,0.8-0.4,1.1c-0.2,0.3-0.5,0.6-0.9,0.8S780.5,93.3,780,93.3z"/>
	<path class="st11" d="M785.2,89.7v3.5h-1.4v-8h1.4v3h0.1c0.1-0.3,0.4-0.6,0.7-0.8c0.3-0.2,0.7-0.3,1.1-0.3c0.4,0,0.8,0.1,1.1,0.3
		c0.3,0.2,0.5,0.4,0.7,0.8s0.3,0.7,0.3,1.2v3.8h-1.4v-3.6c0-0.4-0.1-0.7-0.3-0.9c-0.2-0.2-0.5-0.3-0.9-0.3c-0.2,0-0.5,0.1-0.7,0.2
		c-0.2,0.1-0.4,0.3-0.5,0.5S785.2,89.4,785.2,89.7z"/>
	<path class="st11" d="M794.7,85.2v8h-1.4v-8H794.7z"/>
	<path class="st11" d="M796.8,86.4c-0.2,0-0.4-0.1-0.6-0.2c-0.2-0.2-0.2-0.3-0.2-0.5s0.1-0.4,0.2-0.5c0.2-0.2,0.4-0.2,0.6-0.2
		c0.2,0,0.4,0.1,0.6,0.2c0.2,0.2,0.2,0.3,0.2,0.5s-0.1,0.4-0.2,0.5C797.2,86.3,797,86.4,796.8,86.4z M796.1,93.2v-6h1.4v6H796.1z"/>
	<path class="st11" d="M803.7,88.8l-1.3,0.1c0-0.1-0.1-0.3-0.2-0.4c-0.1-0.1-0.2-0.2-0.4-0.3s-0.3-0.1-0.6-0.1
		c-0.3,0-0.5,0.1-0.7,0.2c-0.2,0.1-0.3,0.3-0.3,0.5c0,0.2,0.1,0.3,0.2,0.4s0.3,0.2,0.7,0.3l1,0.2c0.6,0.1,1,0.3,1.3,0.6
		s0.4,0.6,0.4,1c0,0.4-0.1,0.7-0.3,1c-0.2,0.3-0.5,0.5-0.9,0.7c-0.4,0.2-0.8,0.2-1.3,0.2c-0.7,0-1.3-0.2-1.8-0.5s-0.7-0.7-0.8-1.3
		l1.4-0.1c0.1,0.3,0.2,0.5,0.4,0.6c0.2,0.1,0.5,0.2,0.8,0.2c0.3,0,0.6-0.1,0.8-0.2c0.2-0.1,0.3-0.3,0.3-0.5c0-0.2-0.1-0.3-0.2-0.4
		c-0.1-0.1-0.3-0.2-0.6-0.3l-1-0.2c-0.6-0.1-1-0.3-1.3-0.6s-0.4-0.6-0.4-1.1c0-0.4,0.1-0.7,0.3-1c0.2-0.3,0.5-0.5,0.9-0.6
		c0.4-0.2,0.8-0.2,1.3-0.2c0.7,0,1.3,0.1,1.7,0.4C803.4,87.9,803.6,88.3,803.7,88.8z"/>
	<path class="st11" d="M808,87.2v1.1h-3.4v-1.1H808z M805.4,85.8h1.4v5.6c0,0.2,0,0.3,0.1,0.4c0.1,0.1,0.1,0.2,0.2,0.2
		c0.1,0,0.2,0.1,0.3,0.1c0.1,0,0.2,0,0.2,0c0.1,0,0.1,0,0.2,0l0.2,1.1c-0.1,0-0.2,0.1-0.3,0.1s-0.3,0-0.5,0.1c-0.4,0-0.7,0-1-0.2
		c-0.3-0.1-0.5-0.3-0.7-0.6s-0.2-0.6-0.2-0.9V85.8z"/>
</g>
<g>
	<path class="st3" d="M984,98.6h-94.3c-1.9,0-3.4-1.5-3.4-3.4V56.8c0-1.9,1.5-3.4,3.4-3.4H984c1.9,0,3.4,1.5,3.4,3.4v38.4
		C987.4,97.1,985.9,98.6,984,98.6z"/>
	<path class="st4" d="M984,98.6h-94.3c-1.9,0-3.4-1.5-3.4-3.4V56.8c0-1.9,1.5-3.4,3.4-3.4H984c1.9,0,3.4,1.5,3.4,3.4v38.4
		C987.4,97.1,985.9,98.6,984,98.6z"/>
</g>
<g>
	<path class="st5" d="M928.8,74.2c0-0.3-0.2-0.6-0.5-0.8c-0.3-0.2-0.6-0.3-1-0.3c-0.3,0-0.6,0-0.8,0.1c-0.2,0.1-0.4,0.2-0.5,0.4
		s-0.2,0.3-0.2,0.5c0,0.2,0,0.3,0.1,0.4c0.1,0.1,0.2,0.2,0.3,0.3c0.1,0.1,0.3,0.2,0.4,0.2c0.2,0.1,0.3,0.1,0.5,0.1l0.8,0.2
		c0.3,0.1,0.6,0.2,0.9,0.3c0.3,0.1,0.5,0.3,0.8,0.5c0.2,0.2,0.4,0.4,0.5,0.7s0.2,0.6,0.2,0.9c0,0.5-0.1,0.9-0.4,1.2s-0.6,0.6-1,0.8
		s-1,0.3-1.6,0.3c-0.6,0-1.2-0.1-1.6-0.3c-0.5-0.2-0.8-0.5-1.1-0.8c-0.3-0.4-0.4-0.8-0.4-1.4h1.4c0,0.3,0.1,0.5,0.3,0.7
		c0.2,0.2,0.3,0.3,0.6,0.4c0.2,0.1,0.5,0.1,0.8,0.1c0.3,0,0.6,0,0.8-0.1c0.2-0.1,0.4-0.2,0.6-0.4c0.1-0.2,0.2-0.4,0.2-0.6
		c0-0.2-0.1-0.4-0.2-0.5s-0.3-0.3-0.5-0.3c-0.2-0.1-0.5-0.2-0.8-0.2l-0.9-0.2c-0.7-0.2-1.2-0.4-1.6-0.8c-0.4-0.3-0.6-0.8-0.6-1.4
		c0-0.5,0.1-0.9,0.4-1.2c0.3-0.4,0.6-0.6,1-0.8c0.4-0.2,0.9-0.3,1.5-0.3c0.6,0,1.1,0.1,1.5,0.3c0.4,0.2,0.8,0.5,1,0.8
		s0.4,0.7,0.4,1.2H928.8z"/>
	<path class="st5" d="M933.3,80.1c-0.4,0-0.7-0.1-1-0.2s-0.5-0.3-0.7-0.6c-0.2-0.3-0.3-0.6-0.3-1c0-0.3,0.1-0.6,0.2-0.8
		c0.1-0.2,0.3-0.4,0.5-0.5s0.5-0.2,0.7-0.3c0.3-0.1,0.6-0.1,0.8-0.2c0.4,0,0.6-0.1,0.9-0.1c0.2,0,0.4-0.1,0.5-0.1
		c0.1-0.1,0.2-0.2,0.2-0.3v0c0-0.3-0.1-0.5-0.3-0.7c-0.2-0.2-0.4-0.2-0.8-0.2c-0.3,0-0.6,0.1-0.8,0.2c-0.2,0.2-0.3,0.3-0.4,0.5
		l-1.3-0.2c0.1-0.4,0.3-0.7,0.5-0.9s0.5-0.4,0.9-0.6c0.3-0.1,0.7-0.2,1.1-0.2c0.3,0,0.6,0,0.9,0.1c0.3,0.1,0.5,0.2,0.8,0.3
		c0.2,0.2,0.4,0.4,0.6,0.6s0.2,0.6,0.2,1v4h-1.4v-0.8h0c-0.1,0.2-0.2,0.3-0.4,0.5s-0.3,0.3-0.6,0.3
		C933.9,80.1,933.6,80.1,933.3,80.1z M933.6,79.1c0.3,0,0.5-0.1,0.7-0.2s0.4-0.3,0.5-0.5s0.2-0.4,0.2-0.6v-0.7c0,0-0.1,0.1-0.2,0.1
		s-0.2,0.1-0.4,0.1s-0.3,0-0.4,0.1c-0.1,0-0.2,0-0.3,0c-0.2,0-0.4,0.1-0.6,0.1c-0.2,0.1-0.3,0.2-0.4,0.3c-0.1,0.1-0.1,0.3-0.1,0.4
		c0,0.3,0.1,0.5,0.3,0.6S933.3,79.1,933.6,79.1z"/>
	<path class="st5" d="M943.2,74l-2.1,6h-1.6l-2.1-6h1.5l1.4,4.5h0.1l1.4-4.5H943.2z"/>
	<path class="st5" d="M946.9,80.1c-0.6,0-1.1-0.1-1.6-0.4c-0.4-0.3-0.8-0.6-1-1.1c-0.2-0.5-0.4-1-0.4-1.6c0-0.6,0.1-1.2,0.4-1.6
		c0.2-0.5,0.6-0.8,1-1.1c0.4-0.3,0.9-0.4,1.5-0.4c0.4,0,0.7,0.1,1,0.2c0.3,0.1,0.6,0.3,0.9,0.5c0.3,0.2,0.5,0.6,0.6,0.9
		c0.1,0.4,0.2,0.8,0.2,1.4v0.4h-4.9v-1h3.6c0-0.3-0.1-0.5-0.2-0.7c-0.1-0.2-0.3-0.4-0.5-0.5c-0.2-0.1-0.4-0.2-0.7-0.2
		c-0.3,0-0.5,0.1-0.8,0.2c-0.2,0.1-0.4,0.3-0.5,0.5c-0.1,0.2-0.2,0.5-0.2,0.7v0.8c0,0.3,0.1,0.6,0.2,0.9c0.1,0.2,0.3,0.4,0.5,0.6
		c0.2,0.1,0.5,0.2,0.8,0.2c0.2,0,0.4,0,0.6-0.1s0.3-0.1,0.4-0.3c0.1-0.1,0.2-0.3,0.3-0.4l1.3,0.1c-0.1,0.3-0.2,0.7-0.5,0.9
		c-0.2,0.3-0.5,0.5-0.9,0.6C947.7,80,947.3,80.1,946.9,80.1z"/>
</g>
<g>
	<path class="st3" d="M479.6,98.6h-94.3c-1.9,0-3.4-1.5-3.4-3.4V56.8c0-1.9,1.5-3.4,3.4-3.4h94.3c1.9,0,3.4,1.5,3.4,3.4v38.4
		C483,97.1,481.4,98.6,479.6,98.6z"/>
	<path class="st4" d="M479.6,98.6h-94.3c-1.9,0-3.4-1.5-3.4-3.4V56.8c0-1.9,1.5-3.4,3.4-3.4h94.3c1.9,0,3.4,1.5,3.4,3.4v38.4
		C483,97.1,481.4,98.6,479.6,98.6z"/>
</g>
<g>
	<g>
		<path d="M414.7,65.1v-0.9h6v0.9h-2.5v7.1h-1v-7.1H414.7z"/>
		<path d="M423.9,72.4c-0.4,0-0.7-0.1-1-0.2s-0.6-0.4-0.7-0.6c-0.2-0.3-0.3-0.6-0.3-1c0-0.3,0.1-0.6,0.2-0.8s0.3-0.4,0.5-0.5
			c0.2-0.1,0.5-0.2,0.8-0.3c0.3-0.1,0.6-0.1,0.8-0.1c0.4,0,0.7-0.1,0.9-0.1c0.2,0,0.4-0.1,0.5-0.1c0.1-0.1,0.2-0.2,0.2-0.3v0
			c0-0.4-0.1-0.7-0.3-0.9c-0.2-0.2-0.5-0.3-1-0.3c-0.4,0-0.8,0.1-1,0.3c-0.2,0.2-0.4,0.4-0.5,0.6l-0.9-0.3c0.2-0.4,0.4-0.6,0.6-0.9
			c0.3-0.2,0.5-0.3,0.9-0.4s0.6-0.1,0.9-0.1c0.2,0,0.4,0,0.7,0.1c0.3,0,0.5,0.1,0.7,0.3s0.4,0.4,0.6,0.6c0.2,0.3,0.2,0.7,0.2,1.1v4
			h-0.9v-0.8h0c-0.1,0.1-0.2,0.3-0.3,0.4s-0.3,0.3-0.6,0.4C424.5,72.3,424.2,72.4,423.9,72.4z M424,71.5c0.4,0,0.7-0.1,0.9-0.2
			c0.3-0.1,0.4-0.3,0.6-0.6s0.2-0.5,0.2-0.7v-0.8c0,0-0.1,0.1-0.3,0.1c-0.1,0-0.3,0.1-0.5,0.1s-0.3,0.1-0.5,0.1s-0.3,0-0.4,0
			c-0.2,0-0.5,0.1-0.7,0.2c-0.2,0.1-0.4,0.2-0.5,0.3s-0.2,0.3-0.2,0.6c0,0.3,0.1,0.6,0.4,0.7C423.4,71.5,423.7,71.5,424,71.5z"/>
		<path d="M428.3,74.5v-8.2h0.9v1h0.1c0.1-0.1,0.2-0.2,0.3-0.4c0.1-0.2,0.3-0.3,0.5-0.4s0.5-0.2,0.9-0.2c0.5,0,1,0.1,1.3,0.4
			c0.4,0.3,0.7,0.6,0.9,1.1c0.2,0.5,0.3,1,0.3,1.6c0,0.6-0.1,1.2-0.3,1.7s-0.5,0.8-0.9,1.1s-0.8,0.4-1.3,0.4c-0.4,0-0.7-0.1-0.9-0.2
			s-0.4-0.3-0.5-0.4c-0.1-0.2-0.2-0.3-0.3-0.4h-0.1v3.2H428.3z M429.2,69.2c0,0.5,0.1,0.9,0.2,1.2c0.1,0.3,0.3,0.6,0.6,0.8
			c0.3,0.2,0.6,0.3,0.9,0.3c0.4,0,0.7-0.1,1-0.3c0.3-0.2,0.5-0.5,0.6-0.8s0.2-0.7,0.2-1.2c0-0.4-0.1-0.8-0.2-1.1s-0.3-0.6-0.6-0.8
			s-0.6-0.3-1-0.3c-0.4,0-0.7,0.1-0.9,0.3c-0.3,0.2-0.4,0.5-0.6,0.8C429.3,68.4,429.2,68.8,429.2,69.2z"/>
		<path d="M440.6,72.3c-0.5,0-1-0.1-1.4-0.4s-0.7-0.6-1-1.1c-0.2-0.5-0.3-1-0.3-1.6c0-0.6,0.1-1.2,0.3-1.6c0.2-0.5,0.5-0.8,1-1.1
			s0.9-0.4,1.4-0.4c0.5,0,1,0.1,1.4,0.4s0.7,0.6,1,1.1c0.2,0.5,0.3,1,0.3,1.6c0,0.6-0.1,1.2-0.3,1.6c-0.2,0.5-0.5,0.8-1,1.1
			S441.1,72.3,440.6,72.3z M440.6,71.5c0.4,0,0.8-0.1,1-0.3s0.5-0.5,0.6-0.8s0.2-0.7,0.2-1.1c0-0.4-0.1-0.8-0.2-1.1
			c-0.1-0.3-0.3-0.6-0.6-0.8c-0.3-0.2-0.6-0.3-1-0.3c-0.4,0-0.8,0.1-1,0.3c-0.3,0.2-0.5,0.5-0.6,0.8c-0.1,0.3-0.2,0.7-0.2,1.1
			c0,0.4,0.1,0.8,0.2,1.1s0.3,0.6,0.6,0.8S440.1,71.5,440.6,71.5z"/>
		<path d="M445.6,68.6v3.6h-0.9v-6h0.9v0.9h0.1c0.1-0.3,0.4-0.6,0.6-0.7c0.3-0.2,0.7-0.3,1.1-0.3c0.4,0,0.8,0.1,1.1,0.2
			c0.3,0.2,0.5,0.4,0.7,0.8c0.2,0.3,0.3,0.8,0.3,1.3v3.8h-0.9v-3.8c0-0.5-0.1-0.8-0.4-1.1c-0.2-0.3-0.6-0.4-1-0.4
			c-0.3,0-0.6,0.1-0.8,0.2c-0.2,0.1-0.4,0.3-0.5,0.6C445.7,68,445.6,68.3,445.6,68.6z"/>
		<path class="st5" d="M408.9,82.1c0-1,0.1-1.9,0.4-2.7c0.3-0.8,0.6-1.6,1.1-2.3h1.1c-0.2,0.3-0.4,0.6-0.5,0.9s-0.3,0.8-0.4,1.2
			c-0.1,0.4-0.2,0.9-0.3,1.4c-0.1,0.5-0.1,0.9-0.1,1.4c0,0.6,0.1,1.2,0.2,1.9c0.1,0.6,0.3,1.2,0.5,1.8c0.2,0.5,0.4,1,0.7,1.3h-1.1
			c-0.5-0.7-0.9-1.5-1.1-2.3C409,84,408.9,83.1,408.9,82.1z"/>
		<path class="st5" d="M429.5,81.4c0,1-0.1,1.9-0.4,2.7c-0.3,0.8-0.6,1.6-1.1,2.3h-1.1c0.2-0.3,0.4-0.6,0.5-0.9s0.3-0.8,0.4-1.2
			c0.1-0.4,0.2-0.9,0.3-1.4c0.1-0.5,0.1-1,0.1-1.4c0-0.6-0.1-1.2-0.2-1.9c-0.1-0.6-0.3-1.2-0.5-1.8c-0.2-0.5-0.4-1-0.7-1.3h1.1
			c0.5,0.7,0.9,1.5,1.1,2.3C429.4,79.5,429.5,80.4,429.5,81.4z"/>
		<path class="st5" d="M438.8,79.5c0-0.4-0.2-0.7-0.5-0.9c-0.3-0.2-0.7-0.3-1.1-0.3c-0.3,0-0.6,0.1-0.9,0.2
			c-0.2,0.1-0.4,0.2-0.6,0.4c-0.1,0.2-0.2,0.4-0.2,0.6c0,0.2,0,0.4,0.1,0.5c0.1,0.1,0.2,0.3,0.4,0.3c0.1,0.1,0.3,0.2,0.5,0.2
			c0.2,0.1,0.3,0.1,0.5,0.2l0.8,0.2c0.3,0.1,0.5,0.1,0.8,0.3c0.3,0.1,0.5,0.2,0.7,0.4c0.2,0.2,0.4,0.4,0.6,0.6s0.2,0.6,0.2,0.9
			c0,0.5-0.1,0.9-0.3,1.2s-0.6,0.6-1,0.8s-1,0.3-1.6,0.3c-0.6,0-1.1-0.1-1.6-0.3c-0.4-0.2-0.8-0.5-1-0.8c-0.2-0.4-0.4-0.8-0.4-1.2
			h1.2c0,0.3,0.1,0.5,0.3,0.7s0.4,0.3,0.6,0.4c0.3,0.1,0.5,0.1,0.9,0.1c0.3,0,0.6-0.1,0.9-0.2c0.3-0.1,0.5-0.3,0.6-0.5
			c0.2-0.2,0.2-0.4,0.2-0.7c0-0.2-0.1-0.4-0.2-0.6c-0.1-0.2-0.3-0.3-0.5-0.4c-0.2-0.1-0.5-0.2-0.8-0.3l-0.9-0.3
			c-0.6-0.2-1.1-0.4-1.5-0.8c-0.4-0.3-0.6-0.8-0.6-1.3c0-0.5,0.1-0.9,0.4-1.2s0.6-0.6,1-0.8s0.9-0.3,1.4-0.3c0.5,0,1,0.1,1.4,0.3
			c0.4,0.2,0.7,0.5,1,0.8s0.4,0.7,0.4,1.1H438.8z"/>
		<path class="st5" d="M442,78.5c-0.2,0-0.4-0.1-0.5-0.2s-0.2-0.3-0.2-0.5c0-0.2,0.1-0.4,0.2-0.5s0.3-0.2,0.5-0.2s0.4,0.1,0.5,0.2
			s0.2,0.3,0.2,0.5c0,0.2-0.1,0.4-0.2,0.5S442.2,78.5,442,78.5z M441.4,85.4v-6h1.2v6H441.4z"/>
		<path class="st5" d="M446.7,87.8c-0.5,0-0.9-0.1-1.2-0.2s-0.6-0.3-0.8-0.5c-0.2-0.2-0.4-0.4-0.5-0.7l1-0.4
			c0.1,0.1,0.2,0.2,0.3,0.4s0.3,0.2,0.5,0.3c0.2,0.1,0.5,0.1,0.8,0.1c0.4,0,0.8-0.1,1.1-0.3s0.4-0.6,0.4-1v-1.2h-0.1
			c-0.1,0.1-0.2,0.3-0.3,0.4s-0.3,0.3-0.5,0.4c-0.2,0.1-0.5,0.2-0.9,0.2c-0.5,0-0.9-0.1-1.3-0.3s-0.7-0.6-0.9-1
			c-0.2-0.4-0.3-1-0.3-1.6c0-0.6,0.1-1.2,0.3-1.6c0.2-0.5,0.5-0.8,0.9-1c0.4-0.2,0.8-0.4,1.3-0.4c0.4,0,0.7,0.1,0.9,0.2
			c0.2,0.1,0.4,0.3,0.5,0.4s0.2,0.3,0.3,0.4h0.1v-1h1.1v6.1c0,0.5-0.1,0.9-0.4,1.3c-0.2,0.3-0.6,0.6-1,0.7
			C447.6,87.7,447.2,87.8,446.7,87.8z M446.7,84.4c0.3,0,0.6-0.1,0.9-0.2c0.2-0.2,0.4-0.4,0.5-0.7c0.1-0.3,0.2-0.7,0.2-1.1
			c0-0.4-0.1-0.8-0.2-1.1c-0.1-0.3-0.3-0.5-0.5-0.7c-0.2-0.2-0.5-0.3-0.9-0.3c-0.4,0-0.6,0.1-0.9,0.3c-0.2,0.2-0.4,0.4-0.5,0.7
			c-0.1,0.3-0.2,0.7-0.2,1c0,0.4,0.1,0.7,0.2,1s0.3,0.5,0.5,0.7C446,84.3,446.3,84.4,446.7,84.4z"/>
		<path class="st5" d="M452.1,81.9v3.6h-1.2v-6h1.1v1h0.1c0.1-0.3,0.4-0.6,0.7-0.8c0.3-0.2,0.7-0.3,1.1-0.3c0.4,0,0.8,0.1,1.1,0.3
			c0.3,0.2,0.5,0.4,0.7,0.8s0.3,0.8,0.3,1.2v3.8h-1.2v-3.7c0-0.4-0.1-0.8-0.3-1s-0.5-0.4-0.9-0.4c-0.3,0-0.5,0.1-0.7,0.2
			s-0.4,0.3-0.5,0.5C452.2,81.3,452.1,81.5,452.1,81.9z"/>
	</g>
	<path class="st12" d="M420.3,74.9c-0.3-0.1-0.6-0.1-1.2-0.1c-0.6,0-1,0-1.2,0.1c-0.3,0.1-0.6,0.4-0.7,0.7c-0.1,0.2-0.1,0.3-0.1,0.6
		c0,0.4-0.2,0.7-0.5,0.9s-0.7,0.2-1.1,0c-0.2-0.1-0.4-0.2-0.6-0.2c-0.4,0-0.7,0-1,0.3c-0.2,0.2-0.4,0.4-0.7,1
		c-0.3,0.6-0.5,0.8-0.5,1.1c0,0.4,0.1,0.7,0.3,1c0.1,0.1,0.2,0.2,0.5,0.4c0.3,0.2,0.5,0.5,0.5,0.9s-0.2,0.7-0.5,0.9
		c-0.2,0.1-0.4,0.2-0.5,0.4c-0.2,0.3-0.3,0.6-0.3,1c0,0.3,0.2,0.5,0.5,1.1c0.3,0.6,0.5,0.8,0.7,1c0.3,0.2,0.7,0.3,1,0.3
		c0.2,0,0.3-0.1,0.6-0.2c0.3-0.2,0.7-0.2,1.1,0s0.5,0.5,0.5,0.9c0,0.3,0,0.4,0.1,0.6c0.1,0.3,0.4,0.6,0.7,0.7
		c0.3,0.1,0.6,0.1,1.2,0.1c0.6,0,1,0,1.2-0.1c0.3-0.1,0.6-0.4,0.7-0.7c0.1-0.2,0.1-0.3,0.1-0.6c0-0.4,0.2-0.7,0.5-0.9
		c0.3-0.2,0.7-0.2,1.1,0c0.2,0.1,0.4,0.2,0.6,0.2c0.4,0,0.7,0,1-0.3c0.2-0.2,0.4-0.4,0.7-1c0.3-0.6,0.5-0.8,0.5-1.1
		c0-0.4-0.1-0.7-0.3-1c-0.1-0.1-0.2-0.2-0.5-0.4c-0.3-0.2-0.5-0.5-0.5-0.9s0.2-0.7,0.5-0.9c0.2-0.1,0.4-0.2,0.5-0.4
		c0.2-0.3,0.3-0.7,0.3-1c0-0.3-0.2-0.5-0.5-1.1c-0.3-0.6-0.5-0.8-0.7-1c-0.3-0.2-0.7-0.3-1-0.3c-0.2,0-0.3,0.1-0.6,0.2
		c-0.3,0.2-0.7,0.2-1.1,0c-0.3-0.2-0.5-0.5-0.5-0.9c0-0.3,0-0.4-0.1-0.6C420.9,75.3,420.6,75.1,420.3,74.9z M419.1,83.7
		c1.1,0,2.1-0.9,2.1-2c0-1.1-0.9-2-2.1-2c-1.1,0-2.1,0.9-2.1,2C417,82.8,417.9,83.7,419.1,83.7z"/>
</g>
</svg>
