<?xml version="1.0" encoding="utf-8"?>
<!-- Generator: Adobe Illustrator 26.0.1, SVG Export Plug-In . SVG Version: 6.00 Build 0)  -->
<svg version="1.1" id="Layer_1" xmlns="http://www.w3.org/2000/svg" xmlns:xlink="http://www.w3.org/1999/xlink" x="0px" y="0px"
	 viewBox="0 0 156.5 626" style="enable-background:new 0 0 156.5 626;" xml:space="preserve">
<style type="text/css">
	.st0{fill:#70AD45;}
	.st1{fill:#FFFFFF;}
	.st2{fill:#EC7E30;}
	.st3{opacity:0.9;fill:#FFFFFF;enable-background:new    ;}
	.st4{fill:none;stroke:#EC7E30;stroke-miterlimit:10;}
	.st5{fill:#009447;}
	.st6{fill:#A5A4A4;}
	.st7{fill:#4A72B8;}
	.st8{fill:#70AD44;}
	.st9{fill:#FDC015;}
	.st10{fill:#038643;}
	.st11{fill:#009444;}
	.st12{fill-rule:evenodd;clip-rule:evenodd;fill:#009447;}
</style>
<g>
	<g>
		<path class="st0" d="M140.9,63.2c0.3,39.2-36.2,61.2-62.2,83.9c-1.6,1.5-25.8-22.6-28.8-25.2C32.2,106.3,15.1,87.2,15.6,62
			C16,39.2,29.1,17.9,49.3,7.2C58.3,2.5,68.4,0,78.7,0C115.3,0.1,140.6,30.8,140.9,63.2z"/>
		<circle class="st1" cx="78.2" cy="62.3" r="57"/>
		<g>
			<polygon points="76.6,40.4 76.6,49.7 78.2,49.7 78.2,38.8 76.6,38.8 73.9,40.6 73.9,42.1 76.5,40.4 			"/>
			<path d="M81.6,49.8c0.2,0,0.4,0,0.5-0.1c0.2-0.1,0.3-0.2,0.4-0.4s0.1-0.3,0.1-0.5c0-0.3-0.1-0.5-0.3-0.7
				c-0.2-0.2-0.5-0.3-0.8-0.3c-0.3,0-0.5,0.1-0.8,0.3c-0.2,0.2-0.3,0.5-0.3,0.7c0,0.3,0.1,0.5,0.3,0.8
				C81.1,49.7,81.3,49.8,81.6,49.8z"/>
			<polygon points="51.8,62.9 56.4,62.9 56.4,61.5 51.8,61.5 51.8,58.2 56.9,58.2 56.9,56.8 50.1,56.8 50.1,67.7 51.8,67.7 			"/>
			<path d="M64.1,59.9c-0.3-0.2-0.7-0.3-1-0.4s-0.7-0.1-1-0.1c-0.5,0-1,0.1-1.4,0.2c-0.4,0.1-0.8,0.4-1.2,0.7s-0.6,0.7-0.8,1.2
				l1.5,0.3c0.1-0.3,0.3-0.5,0.6-0.8s0.7-0.4,1.3-0.4c0.5,0,0.9,0.1,1.2,0.4c0.3,0.3,0.4,0.6,0.4,1.1v0c0,0.2-0.1,0.3-0.2,0.4
				c-0.1,0.1-0.4,0.1-0.7,0.2c-0.3,0-0.7,0.1-1.2,0.1c-0.4,0-0.8,0.1-1.1,0.2c-0.4,0.1-0.7,0.2-1,0.4c-0.3,0.2-0.5,0.4-0.7,0.7
				c-0.2,0.3-0.3,0.7-0.3,1.1c0,0.5,0.1,1,0.4,1.4c0.2,0.4,0.6,0.7,1,0.8c0.4,0.2,0.9,0.3,1.4,0.3c0.5,0,0.8-0.1,1.2-0.2
				s0.6-0.3,0.8-0.5c0.2-0.2,0.4-0.4,0.5-0.6h0.1v1.1h1.6v-5.4c0-0.6-0.1-1.1-0.3-1.5C64.7,60.4,64.4,60.1,64.1,59.9z M63.6,64.8
				c0,0.3-0.1,0.6-0.2,0.9c-0.2,0.3-0.4,0.5-0.7,0.7c-0.3,0.2-0.7,0.3-1.1,0.3c-0.5,0-0.8-0.1-1.1-0.3c-0.3-0.2-0.4-0.5-0.4-0.9
				c0-0.3,0.1-0.5,0.2-0.7c0.2-0.2,0.4-0.3,0.6-0.4s0.5-0.2,0.8-0.2c0.1,0,0.3,0,0.5-0.1c0.2,0,0.4-0.1,0.6-0.1
				c0.2,0,0.4-0.1,0.6-0.1s0.3-0.1,0.3-0.2V64.8z"/>
			<polygon points="72.6,59.5 70.5,65.8 70.5,65.8 68.4,59.5 66.7,59.5 69.6,67.7 71.3,67.7 74.3,59.5 			"/>
			<path d="M82.6,65.9c0.3-0.6,0.5-1.4,0.5-2.2c0-0.8-0.2-1.6-0.5-2.2s-0.8-1.1-1.3-1.5c-0.6-0.4-1.2-0.5-2-0.5s-1.4,0.2-2,0.5
				s-1,0.8-1.3,1.5s-0.5,1.4-0.5,2.2c0,0.8,0.2,1.6,0.5,2.2c0.3,0.6,0.8,1.1,1.3,1.5s1.2,0.5,2,0.5s1.4-0.2,2-0.5
				C81.8,67,82.3,66.5,82.6,65.9z M80.5,66.1c-0.3,0.3-0.7,0.4-1.2,0.4c-0.5,0-0.9-0.1-1.2-0.4c-0.3-0.3-0.6-0.6-0.7-1
				c-0.2-0.4-0.2-0.9-0.2-1.4c0-0.5,0.1-1,0.2-1.4c0.2-0.4,0.4-0.8,0.7-1.1c0.3-0.3,0.7-0.4,1.2-0.4c0.5,0,0.9,0.1,1.2,0.4
				c0.3,0.3,0.6,0.6,0.7,1.1c0.2,0.4,0.2,0.9,0.2,1.4c0,0.5-0.1,1-0.2,1.4C81.1,65.5,80.8,65.9,80.5,66.1z"/>
			<path d="M88.5,59.4c-0.5,0-0.9,0.1-1.3,0.4s-0.6,0.6-0.8,1h-0.1v-1.3h-1.5v8.2h1.6v-5c0-0.4,0.1-0.7,0.3-1s0.4-0.5,0.7-0.7
				c0.3-0.2,0.6-0.2,1-0.2c0.2,0,0.3,0,0.5,0c0.2,0,0.3,0,0.3,0.1v-1.5c-0.1,0-0.2,0-0.3,0C88.8,59.4,88.6,59.4,88.5,59.4z"/>
			<rect x="90.6" y="59.5" width="1.6" height="8.2"/>
			<path d="M91.4,56.4c-0.3,0-0.5,0.1-0.7,0.3c-0.2,0.2-0.3,0.4-0.3,0.7c0,0.3,0.1,0.5,0.3,0.7c0.2,0.2,0.4,0.3,0.7,0.3
				s0.5-0.1,0.7-0.3c0.2-0.2,0.3-0.4,0.3-0.7c0-0.3-0.1-0.5-0.3-0.7C91.9,56.5,91.7,56.4,91.4,56.4z"/>
			<path d="M98.3,67.6L98,66.3c-0.1,0-0.1,0-0.2,0c-0.1,0-0.2,0-0.3,0c-0.2,0-0.3,0-0.5-0.1c-0.1-0.1-0.3-0.2-0.4-0.3
				c-0.1-0.2-0.1-0.4-0.1-0.7v-4.5h1.7v-1.3h-1.7v-2h-1.6v2h-1.2v1.3h1.2v4.8c0,0.5,0.1,0.9,0.3,1.2c0.2,0.3,0.5,0.6,0.9,0.7
				c0.4,0.2,0.8,0.2,1.2,0.2c0.3,0,0.5,0,0.6-0.1C98.1,67.7,98.2,67.7,98.3,67.6z"/>
			<path d="M103.4,67.9c0.6,0,1.1-0.1,1.6-0.3c0.5-0.2,0.9-0.4,1.2-0.8c0.3-0.3,0.5-0.7,0.6-1.2l-1.5-0.3c-0.1,0.3-0.2,0.5-0.4,0.6
				c-0.2,0.2-0.4,0.3-0.6,0.4c-0.2,0.1-0.5,0.1-0.8,0.1c-0.5,0-0.9-0.1-1.2-0.3s-0.6-0.5-0.8-0.9c-0.2-0.4-0.3-0.8-0.3-1.3h5.8v-0.6
				c0-0.7-0.1-1.4-0.3-1.9c-0.2-0.5-0.5-0.9-0.8-1.3c-0.3-0.3-0.7-0.6-1.2-0.7c-0.4-0.2-0.9-0.2-1.3-0.2c-0.8,0-1.4,0.2-2,0.5
				c-0.6,0.4-1,0.9-1.3,1.5c-0.3,0.6-0.5,1.4-0.5,2.2c0,0.8,0.2,1.6,0.5,2.2c0.3,0.6,0.8,1.1,1.3,1.5
				C101.9,67.7,102.6,67.9,103.4,67.9z M101.4,61.9c0.2-0.3,0.4-0.6,0.8-0.9s0.7-0.3,1.2-0.3c0.4,0,0.8,0.1,1.1,0.3
				c0.3,0.2,0.5,0.4,0.7,0.8c0.2,0.3,0.3,0.7,0.3,1.1h-4.2C101.2,62.5,101.3,62.2,101.4,61.9z"/>
			<polygon points="53.1,83.2 53,83.2 50.8,74.8 49.1,74.8 46.9,83.2 46.8,83.2 44.6,74.8 42.9,74.8 45.9,85.7 47.6,85.7 49.9,77.5 
				50,77.5 52.3,85.7 53.9,85.7 57,74.8 55.2,74.8 			"/>
			<path d="M63.7,77.9c-0.3-0.2-0.7-0.3-1-0.4s-0.7-0.1-1-0.1c-0.5,0-1,0.1-1.4,0.2c-0.4,0.1-0.8,0.4-1.2,0.7s-0.6,0.7-0.8,1.2
				l1.5,0.3c0.1-0.3,0.3-0.5,0.6-0.8s0.7-0.4,1.3-0.4c0.5,0,0.9,0.1,1.2,0.4c0.3,0.3,0.4,0.6,0.4,1.1v0c0,0.2-0.1,0.3-0.2,0.4
				c-0.1,0.1-0.4,0.1-0.7,0.2c-0.3,0-0.7,0.1-1.2,0.1c-0.4,0-0.8,0.1-1.1,0.2c-0.4,0.1-0.7,0.2-1,0.4c-0.3,0.2-0.5,0.4-0.7,0.7
				C58,82.5,58,82.9,58,83.4c0,0.5,0.1,1,0.4,1.4c0.2,0.4,0.6,0.7,1,0.8c0.4,0.2,0.9,0.3,1.4,0.3c0.5,0,0.8-0.1,1.2-0.2
				s0.6-0.3,0.8-0.5c0.2-0.2,0.4-0.4,0.5-0.6h0.1v1.1h1.6v-5.4c0-0.6-0.1-1.1-0.3-1.5C64.2,78.4,64,78.1,63.7,77.9z M63.2,82.8
				c0,0.3-0.1,0.6-0.2,0.9c-0.2,0.3-0.4,0.5-0.7,0.7c-0.3,0.2-0.7,0.3-1.1,0.3c-0.5,0-0.8-0.1-1.1-0.3c-0.3-0.2-0.4-0.5-0.4-0.9
				c0-0.3,0.1-0.5,0.2-0.7c0.2-0.2,0.4-0.3,0.6-0.4s0.5-0.2,0.8-0.2c0.1,0,0.3,0,0.5-0.1c0.2,0,0.4-0.1,0.6-0.1s0.4-0.1,0.6-0.1
				s0.3-0.1,0.3-0.2V82.8z"/>
			<path d="M70.3,84.4c-0.1,0-0.2,0-0.3,0c-0.2,0-0.3,0-0.5-0.1c-0.1-0.1-0.3-0.2-0.4-0.3c-0.1-0.2-0.1-0.4-0.1-0.7v-4.5h1.7v-1.3
				H69v-2h-1.6v2h-1.2v1.3h1.2v4.8c0,0.5,0.1,0.9,0.3,1.2c0.2,0.3,0.5,0.6,0.9,0.7c0.4,0.2,0.8,0.2,1.2,0.2c0.3,0,0.5,0,0.6-0.1
				c0.2,0,0.3-0.1,0.4-0.1l-0.3-1.3C70.5,84.3,70.4,84.3,70.3,84.4z"/>
			<path d="M74.7,79.1c0.3-0.2,0.7-0.3,1.2-0.3c0.5,0,0.9,0.1,1.2,0.4c0.3,0.3,0.5,0.6,0.6,1h1.6c-0.1-0.6-0.2-1-0.5-1.4
				c-0.3-0.4-0.7-0.7-1.2-1c-0.5-0.2-1-0.3-1.7-0.3c-0.8,0-1.4,0.2-2,0.5c-0.6,0.4-1,0.9-1.3,1.5c-0.3,0.6-0.5,1.4-0.5,2.2
				c0,0.8,0.2,1.5,0.5,2.2c0.3,0.6,0.7,1.1,1.3,1.5c0.6,0.4,1.3,0.5,2,0.5c0.6,0,1.2-0.1,1.7-0.4c0.5-0.2,0.9-0.6,1.2-1
				s0.5-0.9,0.5-1.4h-1.6c-0.1,0.3-0.2,0.5-0.4,0.8c-0.2,0.2-0.4,0.4-0.6,0.5c-0.2,0.1-0.5,0.2-0.8,0.2c-0.5,0-0.8-0.1-1.2-0.4
				c-0.3-0.2-0.6-0.6-0.8-1c-0.2-0.4-0.3-0.9-0.3-1.5c0-0.6,0.1-1.1,0.3-1.5C74.2,79.7,74.4,79.3,74.7,79.1z"/>
			<path d="M86.5,77.8c-0.4-0.2-0.9-0.3-1.5-0.3c-0.6,0-1.2,0.1-1.5,0.4s-0.7,0.6-0.9,1h-0.1v-4.1H81v10.9h1.6v-4.9
				c0-0.4,0.1-0.8,0.3-1.1c0.2-0.3,0.4-0.5,0.7-0.7c0.3-0.2,0.6-0.2,1-0.2c0.6,0,1,0.2,1.3,0.5s0.5,0.8,0.5,1.4v5h1.6v-5.2
				c0-0.7-0.1-1.3-0.3-1.7C87.3,78.3,87,78,86.5,77.8z"/>
			<rect x="94" y="74.8" width="1.6" height="10.9"/>
			<rect x="97.7" y="77.5" width="1.6" height="8.2"/>
			<path d="M98.5,74.4c-0.3,0-0.5,0.1-0.7,0.3c-0.2,0.2-0.3,0.4-0.3,0.7c0,0.3,0.1,0.5,0.3,0.7c0.2,0.2,0.4,0.3,0.7,0.3
				s0.5-0.1,0.7-0.3c0.2-0.2,0.3-0.4,0.3-0.7c0-0.3-0.1-0.5-0.3-0.7C99,74.5,98.8,74.4,98.5,74.4z"/>
			<path d="M105.5,81.1l-1.3-0.3c-0.5-0.1-0.8-0.2-1-0.4c-0.2-0.2-0.3-0.4-0.3-0.7c0-0.3,0.2-0.6,0.5-0.8s0.7-0.3,1.1-0.3
				c0.3,0,0.6,0.1,0.8,0.2c0.2,0.1,0.4,0.2,0.5,0.4s0.2,0.3,0.3,0.5l1.4-0.3c-0.2-0.6-0.5-1.1-1-1.5s-1.2-0.6-2.1-0.6
				c-0.6,0-1.2,0.1-1.6,0.3c-0.5,0.2-0.8,0.5-1.1,0.8s-0.4,0.8-0.4,1.3c0,0.6,0.2,1.1,0.5,1.4c0.4,0.4,0.9,0.7,1.7,0.8l1.4,0.3
				c0.4,0.1,0.7,0.2,0.9,0.4c0.2,0.2,0.3,0.4,0.3,0.6c0,0.3-0.2,0.6-0.5,0.8s-0.7,0.3-1.3,0.3c-0.5,0-0.9-0.1-1.2-0.3
				c-0.3-0.2-0.5-0.5-0.6-0.9l-1.5,0.2c0.1,0.7,0.5,1.3,1.1,1.7c0.6,0.4,1.3,0.6,2.2,0.6c0.7,0,1.2-0.1,1.7-0.3
				c0.5-0.2,0.9-0.5,1.2-0.9c0.3-0.4,0.4-0.8,0.4-1.3c0-0.6-0.2-1-0.6-1.4C106.8,81.6,106.2,81.3,105.5,81.1z"/>
			<path d="M113.2,84.3c-0.1,0-0.1,0-0.2,0c-0.1,0-0.2,0-0.3,0c-0.2,0-0.3,0-0.5-0.1c-0.1-0.1-0.3-0.2-0.4-0.3
				c-0.1-0.2-0.1-0.4-0.1-0.7v-4.5h1.7v-1.3h-1.7v-2H110v2h-1.2v1.3h1.2v4.8c0,0.5,0.1,0.9,0.3,1.2c0.2,0.3,0.5,0.6,0.9,0.7
				c0.4,0.2,0.8,0.2,1.2,0.2c0.3,0,0.5,0,0.6-0.1c0.2,0,0.3-0.1,0.4-0.1L113.2,84.3z"/>
		</g>
	</g>
	<g>
		<polygon class="st2" points="140.4,203.4 140.4,203.4 105.6,236.8 0,236.8 34.8,203.4 34.8,203.4 0,170.1 105.6,170.1 		"/>
		<g>
			<path class="st3" d="M152.6,242.4H58.3c-1.9,0-3.4-1.5-3.4-3.4v-38.4c0-1.9,1.5-3.4,3.4-3.4h94.3c1.9,0,3.4,1.5,3.4,3.4v38.4
				C156,240.8,154.4,242.4,152.6,242.4z"/>
			<path class="st4" d="M152.6,242.4H58.3c-1.9,0-3.4-1.5-3.4-3.4v-38.4c0-1.9,1.5-3.4,3.4-3.4h94.3c1.9,0,3.4,1.5,3.4,3.4v38.4
				C156,240.8,154.4,242.4,152.6,242.4z"/>
		</g>
		<g>
			<path d="M94.5,211.2c0-0.4-0.2-0.7-0.6-0.9s-0.7-0.3-1.2-0.3c-0.4,0-0.7,0.1-0.9,0.2s-0.5,0.3-0.6,0.5S91,211,91,211.2
				c0,0.2,0.1,0.4,0.2,0.5s0.2,0.3,0.4,0.4s0.3,0.2,0.5,0.2s0.3,0.1,0.5,0.2l0.8,0.2c0.2,0.1,0.4,0.1,0.7,0.2s0.5,0.2,0.7,0.4
				s0.4,0.4,0.6,0.6s0.2,0.6,0.2,0.9c0,0.4-0.1,0.8-0.3,1.2s-0.6,0.6-1,0.8s-1,0.3-1.6,0.3c-0.6,0-1.1-0.1-1.5-0.3s-0.7-0.4-1-0.8
				s-0.4-0.7-0.4-1.2h1c0,0.3,0.1,0.6,0.3,0.7s0.4,0.3,0.7,0.4s0.6,0.1,0.9,0.1c0.4,0,0.7-0.1,1-0.2s0.5-0.3,0.7-0.5
				s0.3-0.5,0.3-0.8c0-0.3-0.1-0.5-0.2-0.6s-0.3-0.3-0.6-0.4s-0.5-0.2-0.8-0.3l-1-0.3c-0.6-0.2-1.1-0.4-1.5-0.8s-0.5-0.8-0.5-1.3
				c0-0.4,0.1-0.8,0.4-1.2s0.6-0.6,1-0.8s0.9-0.3,1.4-0.3c0.5,0,1,0.1,1.4,0.3s0.7,0.4,1,0.8s0.4,0.7,0.4,1.1H94.5z"/>
			<path d="M99.6,217.3c-0.6,0-1.1-0.1-1.5-0.4s-0.7-0.6-1-1.1s-0.3-1-0.3-1.6s0.1-1.2,0.3-1.6s0.5-0.8,0.9-1.1s0.9-0.4,1.4-0.4
				c0.3,0,0.6,0.1,0.9,0.2s0.6,0.3,0.8,0.5s0.4,0.5,0.6,0.9s0.2,0.9,0.2,1.4v0.4h-4.6v-0.8h3.7c0-0.3-0.1-0.6-0.2-0.9
				s-0.3-0.5-0.6-0.6s-0.5-0.2-0.9-0.2c-0.4,0-0.7,0.1-1,0.3s-0.5,0.4-0.6,0.7s-0.2,0.6-0.2,0.9v0.5c0,0.5,0.1,0.8,0.2,1.2
				s0.4,0.6,0.7,0.7s0.6,0.2,1,0.2c0.2,0,0.5,0,0.7-0.1s0.4-0.2,0.5-0.3s0.3-0.3,0.3-0.5l0.9,0.2c-0.1,0.3-0.3,0.6-0.5,0.8
				s-0.5,0.4-0.8,0.5S100,217.3,99.6,217.3z"/>
			<path d="M104.4,209.2v8h-0.9v-8H104.4z"/>
			<path d="M108.6,217.3c-0.6,0-1.1-0.1-1.5-0.4s-0.7-0.6-1-1.1s-0.3-1-0.3-1.6s0.1-1.2,0.3-1.6s0.5-0.8,0.9-1.1s0.9-0.4,1.4-0.4
				c0.3,0,0.6,0.1,0.9,0.2s0.6,0.3,0.8,0.5s0.4,0.5,0.6,0.9s0.2,0.9,0.2,1.4v0.4h-4.6v-0.8h3.7c0-0.3-0.1-0.6-0.2-0.9
				s-0.3-0.5-0.6-0.6s-0.5-0.2-0.9-0.2c-0.4,0-0.7,0.1-1,0.3s-0.5,0.4-0.6,0.7s-0.2,0.6-0.2,0.9v0.5c0,0.5,0.1,0.8,0.2,1.2
				s0.4,0.6,0.7,0.7s0.6,0.2,1,0.2c0.2,0,0.5,0,0.7-0.1s0.4-0.2,0.5-0.3s0.3-0.3,0.3-0.5l0.9,0.2c-0.1,0.3-0.3,0.6-0.5,0.8
				s-0.5,0.4-0.8,0.5S109,217.3,108.6,217.3z"/>
			<path d="M114.9,217.3c-0.6,0-1-0.1-1.5-0.4s-0.7-0.6-0.9-1.1s-0.3-1-0.3-1.6c0-0.6,0.1-1.1,0.3-1.6s0.5-0.8,0.9-1.1
				s0.9-0.4,1.4-0.4c0.4,0,0.8,0.1,1.1,0.2c0.3,0.2,0.6,0.4,0.8,0.7c0.2,0.3,0.4,0.6,0.4,1h-0.9c-0.1-0.3-0.2-0.5-0.5-0.7
				c-0.2-0.2-0.6-0.3-1-0.3c-0.4,0-0.7,0.1-0.9,0.3c-0.3,0.2-0.5,0.4-0.6,0.8s-0.2,0.7-0.2,1.2c0,0.5,0.1,0.9,0.2,1.2
				s0.4,0.6,0.6,0.8c0.3,0.2,0.6,0.3,1,0.3c0.2,0,0.5,0,0.7-0.1s0.4-0.2,0.5-0.4c0.1-0.2,0.2-0.3,0.3-0.6h0.9
				c-0.1,0.4-0.2,0.7-0.4,1c-0.2,0.3-0.5,0.5-0.8,0.7C115.7,217.2,115.3,217.3,114.9,217.3z"/>
			<path d="M121.2,211.2v0.8h-3.1v-0.8H121.2z M119,209.7h0.9v5.7c0,0.3,0,0.5,0.1,0.6s0.2,0.2,0.3,0.3s0.2,0.1,0.4,0.1
				c0.1,0,0.2,0,0.2,0s0.1,0,0.2,0l0.2,0.8c-0.1,0-0.1,0-0.3,0.1s-0.3,0-0.4,0c-0.3,0-0.5-0.1-0.8-0.2s-0.5-0.3-0.6-0.5
				s-0.2-0.5-0.2-0.9V209.7z"/>
			<path class="st10" d="M81.3,230.4l-2.3-8h1.6l1.4,5.9h0.1l1.5-5.9H85l1.5,5.9h0.1l1.4-5.9h1.6l-2.3,8H86l-1.6-5.6h-0.1l-1.6,5.6
				H81.3z"/>
			<path class="st10" d="M92.3,230.5c-0.4,0-0.7-0.1-1-0.2s-0.5-0.3-0.7-0.6s-0.3-0.6-0.3-1c0-0.3,0.1-0.6,0.2-0.8s0.3-0.4,0.5-0.5
				s0.5-0.2,0.7-0.3s0.6-0.1,0.8-0.2c0.4,0,0.6-0.1,0.9-0.1s0.4-0.1,0.5-0.1s0.2-0.2,0.2-0.3v0c0-0.3-0.1-0.5-0.3-0.7
				s-0.4-0.2-0.8-0.2c-0.3,0-0.6,0.1-0.8,0.2s-0.3,0.3-0.4,0.5l-1.3-0.2c0.1-0.4,0.3-0.7,0.5-0.9s0.5-0.4,0.9-0.6s0.7-0.2,1.1-0.2
				c0.3,0,0.6,0,0.9,0.1s0.5,0.2,0.8,0.3s0.4,0.4,0.6,0.6s0.2,0.6,0.2,1v4h-1.4v-0.8h0c-0.1,0.2-0.2,0.3-0.4,0.5s-0.3,0.3-0.6,0.3
				S92.6,230.5,92.3,230.5z M92.7,229.4c0.3,0,0.5-0.1,0.7-0.2s0.4-0.3,0.5-0.5s0.2-0.4,0.2-0.6v-0.7c0,0-0.1,0.1-0.2,0.1
				s-0.2,0.1-0.4,0.1s-0.3,0-0.4,0.1s-0.2,0-0.3,0c-0.2,0-0.4,0.1-0.6,0.1s-0.3,0.2-0.4,0.3s-0.1,0.3-0.1,0.4c0,0.3,0.1,0.5,0.3,0.6
				S92.4,229.4,92.7,229.4z"/>
			<path class="st10" d="M99.9,224.4v1.1h-3.4v-1.1H99.9z M97.3,222.9h1.4v5.6c0,0.2,0,0.3,0.1,0.4s0.1,0.2,0.2,0.2s0.2,0.1,0.3,0.1
				c0.1,0,0.2,0,0.2,0s0.1,0,0.2,0l0.2,1.1c-0.1,0-0.2,0.1-0.3,0.1s-0.3,0-0.5,0.1c-0.4,0-0.7,0-1-0.2s-0.5-0.3-0.7-0.6
				s-0.2-0.6-0.2-0.9V222.9z"/>
			<path class="st10" d="M103.7,230.5c-0.6,0-1.1-0.1-1.5-0.4s-0.8-0.6-1-1.1s-0.3-1-0.3-1.6c0-0.6,0.1-1.1,0.4-1.6s0.6-0.8,1-1.1
				s0.9-0.4,1.5-0.4c0.5,0,0.9,0.1,1.3,0.3s0.7,0.4,0.9,0.8s0.4,0.7,0.4,1.1h-1.4c-0.1-0.3-0.2-0.5-0.4-0.7s-0.5-0.3-0.8-0.3
				c-0.3,0-0.5,0.1-0.8,0.2s-0.4,0.4-0.5,0.7s-0.2,0.6-0.2,1c0,0.4,0.1,0.8,0.2,1.1s0.3,0.5,0.5,0.7s0.5,0.2,0.8,0.2
				c0.2,0,0.4,0,0.6-0.1s0.3-0.2,0.4-0.3s0.2-0.3,0.2-0.6h1.4c0,0.4-0.2,0.8-0.4,1.1s-0.5,0.6-0.9,0.8S104.2,230.5,103.7,230.5z"/>
			<path class="st10" d="M108.9,226.8v3.5h-1.4v-8h1.4v3h0.1c0.1-0.3,0.4-0.6,0.7-0.8s0.7-0.3,1.1-0.3c0.4,0,0.8,0.1,1.1,0.3
				s0.6,0.4,0.7,0.8s0.3,0.7,0.3,1.2v3.8h-1.4v-3.6c0-0.4-0.1-0.7-0.3-0.9s-0.5-0.3-0.9-0.3c-0.2,0-0.5,0.1-0.7,0.2
				s-0.4,0.3-0.5,0.5S108.9,226.5,108.9,226.8z"/>
			<path class="st10" d="M118.3,222.4v8h-1.4v-8H118.3z"/>
			<path class="st10" d="M120.5,223.5c-0.2,0-0.4-0.1-0.6-0.2s-0.2-0.3-0.2-0.5s0.1-0.4,0.2-0.5s0.4-0.2,0.6-0.2
				c0.2,0,0.4,0.1,0.6,0.2s0.2,0.3,0.2,0.5s-0.1,0.4-0.2,0.5S120.7,223.5,120.5,223.5z M119.8,230.4v-6h1.4v6H119.8z"/>
			<path class="st10" d="M127.4,225.9l-1.3,0.1c0-0.1-0.1-0.3-0.2-0.4s-0.2-0.2-0.4-0.3s-0.3-0.1-0.6-0.1c-0.3,0-0.5,0.1-0.7,0.2
				s-0.3,0.3-0.3,0.5c0,0.2,0.1,0.3,0.2,0.4s0.3,0.2,0.7,0.3l1,0.2c0.6,0.1,1,0.3,1.3,0.6s0.4,0.6,0.4,1c0,0.4-0.1,0.7-0.3,1
				s-0.5,0.5-0.9,0.7s-0.8,0.2-1.3,0.2c-0.7,0-1.3-0.2-1.8-0.5s-0.7-0.7-0.8-1.3l1.4-0.1c0.1,0.3,0.2,0.5,0.4,0.6s0.5,0.2,0.8,0.2
				c0.3,0,0.6-0.1,0.8-0.2s0.3-0.3,0.3-0.5c0-0.2-0.1-0.3-0.2-0.4s-0.3-0.2-0.6-0.3l-1-0.2c-0.6-0.1-1-0.3-1.3-0.6s-0.4-0.6-0.4-1.1
				c0-0.4,0.1-0.7,0.3-1s0.5-0.5,0.9-0.6s0.8-0.2,1.3-0.2c0.7,0,1.3,0.1,1.7,0.4S127.3,225.4,127.4,225.9z"/>
			<path class="st10" d="M131.7,224.4v1.1h-3.4v-1.1H131.7z M129.1,222.9h1.4v5.6c0,0.2,0,0.3,0.1,0.4s0.1,0.2,0.2,0.2
				s0.2,0.1,0.3,0.1c0.1,0,0.2,0,0.2,0s0.1,0,0.2,0l0.2,1.1c-0.1,0-0.2,0.1-0.3,0.1s-0.3,0-0.5,0.1c-0.4,0-0.7,0-1-0.2
				s-0.5-0.3-0.7-0.6s-0.2-0.6-0.2-0.9V222.9z"/>
		</g>
	</g>
	<g>
		<polygon class="st6" points="140.4,299.2 140.4,299.2 105.6,332.5 0,332.5 34.8,299.2 34.8,299.2 0,265.8 105.6,265.8 		"/>
		<g>
			<path class="st3" d="M152.6,338.2H58.3c-1.9,0-3.4-1.5-3.4-3.4v-38.4c0-1.9,1.5-3.4,3.4-3.4h94.3c1.9,0,3.4,1.5,3.4,3.4v38.4
				C156,336.6,154.4,338.2,152.6,338.2z"/>
			<path class="st4" d="M152.6,338.2H58.3c-1.9,0-3.4-1.5-3.4-3.4v-38.4c0-1.9,1.5-3.4,3.4-3.4h94.3c1.9,0,3.4,1.5,3.4,3.4v38.4
				C156,336.6,154.4,338.2,152.6,338.2z"/>
		</g>
		<g>
			<path d="M94.3,307c0-0.4-0.2-0.7-0.6-0.9s-0.7-0.3-1.2-0.3c-0.4,0-0.7,0.1-0.9,0.2s-0.5,0.3-0.6,0.5s-0.2,0.4-0.2,0.7
				c0,0.2,0.1,0.4,0.2,0.5s0.2,0.3,0.4,0.4s0.3,0.2,0.5,0.2s0.3,0.1,0.5,0.2l0.8,0.2c0.2,0.1,0.4,0.1,0.7,0.2s0.5,0.2,0.7,0.4
				s0.4,0.4,0.6,0.6s0.2,0.6,0.2,0.9c0,0.4-0.1,0.8-0.3,1.2s-0.6,0.6-1,0.8s-1,0.3-1.6,0.3c-0.6,0-1.1-0.1-1.5-0.3s-0.7-0.4-1-0.8
				s-0.4-0.7-0.4-1.2h1c0,0.3,0.1,0.6,0.3,0.7s0.4,0.3,0.7,0.4s0.6,0.1,0.9,0.1c0.4,0,0.7-0.1,1-0.2s0.5-0.3,0.7-0.5
				s0.3-0.5,0.3-0.8c0-0.3-0.1-0.5-0.2-0.6s-0.3-0.3-0.6-0.4s-0.5-0.2-0.8-0.3l-1-0.3c-0.6-0.2-1.1-0.4-1.5-0.8s-0.5-0.8-0.5-1.3
				c0-0.4,0.1-0.8,0.4-1.2s0.6-0.6,1-0.8s0.9-0.3,1.4-0.3c0.5,0,1,0.1,1.4,0.3s0.7,0.4,1,0.8s0.4,0.7,0.4,1.1H94.3z"/>
			<path d="M99.3,313.1c-0.6,0-1.1-0.1-1.5-0.4s-0.7-0.6-1-1.1s-0.3-1-0.3-1.6s0.1-1.2,0.3-1.6s0.5-0.8,0.9-1.1s0.9-0.4,1.4-0.4
				c0.3,0,0.6,0.1,0.9,0.2s0.6,0.3,0.8,0.5s0.4,0.5,0.6,0.9s0.2,0.9,0.2,1.4v0.4h-4.6v-0.8h3.7c0-0.3-0.1-0.6-0.2-0.9
				s-0.3-0.5-0.6-0.6s-0.5-0.2-0.9-0.2c-0.4,0-0.7,0.1-1,0.3s-0.5,0.4-0.6,0.7s-0.2,0.6-0.2,0.9v0.5c0,0.5,0.1,0.8,0.2,1.2
				s0.4,0.6,0.7,0.7s0.6,0.2,1,0.2c0.2,0,0.5,0,0.7-0.1s0.4-0.2,0.5-0.3s0.3-0.3,0.3-0.5l0.9,0.2c-0.1,0.3-0.3,0.6-0.5,0.8
				s-0.5,0.4-0.8,0.5S99.7,313.1,99.3,313.1z"/>
			<path d="M104.1,305v8h-0.9v-8H104.1z"/>
			<path d="M108.4,313.1c-0.6,0-1.1-0.1-1.5-0.4s-0.7-0.6-1-1.1s-0.3-1-0.3-1.6s0.1-1.2,0.3-1.6s0.5-0.8,0.9-1.1s0.9-0.4,1.4-0.4
				c0.3,0,0.6,0.1,0.9,0.2s0.6,0.3,0.8,0.5s0.4,0.5,0.6,0.9s0.2,0.9,0.2,1.4v0.4h-4.6v-0.8h3.7c0-0.3-0.1-0.6-0.2-0.9
				s-0.3-0.5-0.6-0.6s-0.5-0.2-0.9-0.2c-0.4,0-0.7,0.1-1,0.3s-0.5,0.4-0.6,0.7s-0.2,0.6-0.2,0.9v0.5c0,0.5,0.1,0.8,0.2,1.2
				s0.4,0.6,0.7,0.7s0.6,0.2,1,0.2c0.2,0,0.5,0,0.7-0.1s0.4-0.2,0.5-0.3s0.3-0.3,0.3-0.5l0.9,0.2c-0.1,0.3-0.3,0.6-0.5,0.8
				s-0.5,0.4-0.8,0.5S108.8,313.1,108.4,313.1z"/>
			<path d="M114.7,313.1c-0.6,0-1-0.1-1.5-0.4s-0.7-0.6-0.9-1.1s-0.3-1-0.3-1.6c0-0.6,0.1-1.1,0.3-1.6s0.5-0.8,0.9-1.1
				s0.9-0.4,1.4-0.4c0.4,0,0.8,0.1,1.1,0.2c0.3,0.2,0.6,0.4,0.8,0.7c0.2,0.3,0.4,0.6,0.4,1h-0.9c-0.1-0.3-0.2-0.5-0.5-0.7
				c-0.2-0.2-0.6-0.3-1-0.3c-0.4,0-0.7,0.1-0.9,0.3c-0.3,0.2-0.5,0.4-0.6,0.8s-0.2,0.7-0.2,1.2c0,0.5,0.1,0.9,0.2,1.2
				s0.4,0.6,0.6,0.8c0.3,0.2,0.6,0.3,1,0.3c0.2,0,0.5,0,0.7-0.1s0.4-0.2,0.5-0.4c0.1-0.2,0.2-0.3,0.3-0.6h0.9
				c-0.1,0.4-0.2,0.7-0.4,1c-0.2,0.3-0.5,0.5-0.8,0.7C115.5,313,115.1,313.1,114.7,313.1z"/>
			<path d="M121,307v0.8h-3.1V307H121z M118.8,305.5h0.9v5.7c0,0.3,0,0.5,0.1,0.6s0.2,0.2,0.3,0.3s0.2,0.1,0.4,0.1
				c0.1,0,0.2,0,0.2,0s0.1,0,0.2,0l0.2,0.8c-0.1,0-0.1,0-0.3,0.1s-0.3,0-0.4,0c-0.3,0-0.5-0.1-0.8-0.2s-0.5-0.3-0.6-0.5
				s-0.2-0.5-0.2-0.9V305.5z"/>
			<path class="st10" d="M84.2,326.2v-8h5.1v1.2h-3.7v2.2H89v1.2h-3.3v3.4H84.2z"/>
			<path class="st10" d="M92.3,326.3c-0.4,0-0.7-0.1-1-0.2s-0.5-0.3-0.7-0.6s-0.3-0.6-0.3-1c0-0.3,0.1-0.6,0.2-0.8s0.3-0.4,0.5-0.5
				s0.5-0.2,0.7-0.3s0.6-0.1,0.8-0.2c0.4,0,0.6-0.1,0.9-0.1s0.4-0.1,0.5-0.1s0.2-0.2,0.2-0.3v0c0-0.3-0.1-0.5-0.3-0.7
				s-0.4-0.2-0.8-0.2c-0.3,0-0.6,0.1-0.8,0.2s-0.3,0.3-0.4,0.5l-1.3-0.2c0.1-0.4,0.3-0.7,0.5-0.9s0.5-0.4,0.9-0.6s0.7-0.2,1.1-0.2
				c0.3,0,0.6,0,0.9,0.1s0.5,0.2,0.8,0.3s0.4,0.4,0.6,0.6s0.2,0.6,0.2,1v4h-1.4v-0.8h0c-0.1,0.2-0.2,0.3-0.4,0.5s-0.3,0.3-0.6,0.3
				S92.6,326.3,92.3,326.3z M92.7,325.2c0.3,0,0.5-0.1,0.7-0.2s0.4-0.3,0.5-0.5s0.2-0.4,0.2-0.6v-0.7c0,0-0.1,0.1-0.2,0.1
				s-0.2,0.1-0.4,0.1s-0.3,0-0.4,0.1s-0.2,0-0.3,0c-0.2,0-0.4,0.1-0.6,0.1s-0.3,0.2-0.4,0.3s-0.1,0.3-0.1,0.4c0,0.3,0.1,0.5,0.3,0.6
				S92.4,325.2,92.7,325.2z"/>
			<path class="st10" d="M102.2,320.2l-2.1,6h-1.6l-2.1-6h1.5l1.4,4.5h0.1l1.4-4.5H102.2z"/>
			<path class="st10" d="M105.8,326.3c-0.6,0-1.1-0.1-1.5-0.4s-0.8-0.6-1-1.1s-0.4-1-0.4-1.6s0.1-1.2,0.4-1.6s0.6-0.8,1-1.1
				s0.9-0.4,1.5-0.4s1.1,0.1,1.5,0.4s0.8,0.6,1,1.1s0.4,1,0.4,1.6s-0.1,1.2-0.4,1.6s-0.6,0.8-1,1.1S106.4,326.3,105.8,326.3z
				 M105.8,325.1c0.3,0,0.6-0.1,0.8-0.3s0.4-0.4,0.5-0.7s0.2-0.6,0.2-1c0-0.4-0.1-0.7-0.2-1s-0.3-0.5-0.5-0.7s-0.5-0.3-0.8-0.3
				c-0.3,0-0.6,0.1-0.8,0.3s-0.4,0.4-0.5,0.7s-0.2,0.6-0.2,1c0,0.4,0.1,0.7,0.2,1s0.3,0.5,0.5,0.7S105.5,325.1,105.8,325.1z"/>
			<path class="st10" d="M109.9,326.2v-6h1.4v1h0.1c0.1-0.3,0.3-0.6,0.6-0.8s0.6-0.3,0.9-0.3c0.1,0,0.2,0,0.3,0s0.2,0,0.2,0v1.3
				c-0.1,0-0.2,0-0.3-0.1s-0.3,0-0.4,0c-0.3,0-0.5,0.1-0.7,0.2s-0.4,0.3-0.5,0.5s-0.2,0.4-0.2,0.7v3.5H109.9z"/>
			<path class="st10" d="M115,319.3c-0.2,0-0.4-0.1-0.6-0.2s-0.2-0.3-0.2-0.5s0.1-0.4,0.2-0.5s0.4-0.2,0.6-0.2
				c0.2,0,0.4,0.1,0.6,0.2s0.2,0.3,0.2,0.5s-0.1,0.4-0.2,0.5S115.2,319.3,115,319.3z M114.3,326.2v-6h1.4v6H114.3z"/>
			<path class="st10" d="M120.1,320.2v1.1h-3.4v-1.1H120.1z M117.5,318.7h1.4v5.6c0,0.2,0,0.3,0.1,0.4s0.1,0.2,0.2,0.2
				s0.2,0.1,0.3,0.1c0.1,0,0.2,0,0.2,0s0.1,0,0.2,0l0.2,1.1c-0.1,0-0.2,0.1-0.3,0.1s-0.3,0-0.5,0.1c-0.4,0-0.7,0-1-0.2
				s-0.5-0.3-0.7-0.6s-0.2-0.6-0.2-0.9V318.7z"/>
			<path class="st10" d="M124,326.3c-0.6,0-1.1-0.1-1.6-0.4s-0.8-0.6-1-1.1s-0.4-1-0.4-1.6c0-0.6,0.1-1.2,0.4-1.6s0.6-0.8,1-1.1
				s0.9-0.4,1.5-0.4c0.4,0,0.7,0.1,1,0.2s0.6,0.3,0.9,0.5s0.5,0.6,0.6,0.9s0.2,0.8,0.2,1.4v0.4h-4.9v-1h3.6c0-0.3-0.1-0.5-0.2-0.7
				s-0.3-0.4-0.5-0.5s-0.4-0.2-0.7-0.2c-0.3,0-0.5,0.1-0.8,0.2s-0.4,0.3-0.5,0.5s-0.2,0.5-0.2,0.7v0.8c0,0.3,0.1,0.6,0.2,0.9
				s0.3,0.4,0.5,0.6s0.5,0.2,0.8,0.2c0.2,0,0.4,0,0.6-0.1s0.3-0.1,0.4-0.3s0.2-0.3,0.3-0.4l1.3,0.1c-0.1,0.3-0.2,0.7-0.5,0.9
				s-0.5,0.5-0.9,0.6S124.4,326.3,124,326.3z"/>
		</g>
	</g>
	<g>
		<polygon class="st7" points="140.4,490.7 140.4,490.7 105.6,524 0,524 34.8,490.7 34.8,490.7 0,457.3 105.6,457.3 		"/>
		<g>
			<path class="st3" d="M152.6,529.7H58.3c-1.9,0-3.4-1.5-3.4-3.4v-38.4c0-1.9,1.5-3.4,3.4-3.4h94.3c1.9,0,3.4,1.5,3.4,3.4v38.4
				C156,528.1,154.4,529.7,152.6,529.7z"/>
			<path class="st4" d="M152.6,529.7H58.3c-1.9,0-3.4-1.5-3.4-3.4v-38.4c0-1.9,1.5-3.4,3.4-3.4h94.3c1.9,0,3.4,1.5,3.4,3.4v38.4
				C156,528.1,154.4,529.7,152.6,529.7z"/>
		</g>
		<g>
			<path d="M94.2,498.4c0-0.4-0.2-0.7-0.6-0.9s-0.7-0.3-1.2-0.3c-0.4,0-0.7,0.1-0.9,0.2s-0.5,0.3-0.6,0.5s-0.2,0.4-0.2,0.7
				c0,0.2,0.1,0.4,0.2,0.5s0.2,0.3,0.4,0.4s0.3,0.2,0.5,0.2s0.3,0.1,0.5,0.2l0.8,0.2c0.2,0.1,0.4,0.1,0.7,0.2s0.5,0.2,0.7,0.4
				s0.4,0.4,0.6,0.6s0.2,0.6,0.2,0.9c0,0.4-0.1,0.8-0.3,1.2s-0.6,0.6-1,0.8s-1,0.3-1.6,0.3c-0.6,0-1.1-0.1-1.5-0.3s-0.7-0.4-1-0.8
				s-0.4-0.7-0.4-1.2h1c0,0.3,0.1,0.6,0.3,0.7s0.4,0.3,0.7,0.4s0.6,0.1,0.9,0.1c0.4,0,0.7-0.1,1-0.2s0.5-0.3,0.7-0.5
				s0.3-0.5,0.3-0.8c0-0.3-0.1-0.5-0.2-0.6s-0.3-0.3-0.6-0.4s-0.5-0.2-0.8-0.3l-1-0.3c-0.6-0.2-1.1-0.4-1.5-0.8s-0.5-0.8-0.5-1.3
				c0-0.4,0.1-0.8,0.4-1.2s0.6-0.6,1-0.8s0.9-0.3,1.4-0.3c0.5,0,1,0.1,1.4,0.3s0.7,0.4,1,0.8s0.4,0.7,0.4,1.1H94.2z"/>
			<path d="M99.3,504.6c-0.6,0-1.1-0.1-1.5-0.4s-0.7-0.6-1-1.1s-0.3-1-0.3-1.6s0.1-1.2,0.3-1.6s0.5-0.8,0.9-1.1s0.9-0.4,1.4-0.4
				c0.3,0,0.6,0.1,0.9,0.2s0.6,0.3,0.8,0.5s0.4,0.5,0.6,0.9s0.2,0.9,0.2,1.4v0.4h-4.6V501h3.7c0-0.3-0.1-0.6-0.2-0.9
				s-0.3-0.5-0.6-0.6s-0.5-0.2-0.9-0.2c-0.4,0-0.7,0.1-1,0.3s-0.5,0.4-0.6,0.7s-0.2,0.6-0.2,0.9v0.5c0,0.5,0.1,0.8,0.2,1.2
				s0.4,0.6,0.7,0.7s0.6,0.2,1,0.2c0.2,0,0.5,0,0.7-0.1s0.4-0.2,0.5-0.3s0.3-0.3,0.3-0.5l0.9,0.2c-0.1,0.3-0.3,0.6-0.5,0.8
				s-0.5,0.4-0.8,0.5S99.7,504.6,99.3,504.6z"/>
			<path d="M104.1,496.4v8h-0.9v-8H104.1z"/>
			<path d="M108.3,504.6c-0.6,0-1.1-0.1-1.5-0.4s-0.7-0.6-1-1.1s-0.3-1-0.3-1.6s0.1-1.2,0.3-1.6s0.5-0.8,0.9-1.1s0.9-0.4,1.4-0.4
				c0.3,0,0.6,0.1,0.9,0.2s0.6,0.3,0.8,0.5s0.4,0.5,0.6,0.9s0.2,0.9,0.2,1.4v0.4h-4.6V501h3.7c0-0.3-0.1-0.6-0.2-0.9
				s-0.3-0.5-0.6-0.6s-0.5-0.2-0.9-0.2c-0.4,0-0.7,0.1-1,0.3s-0.5,0.4-0.6,0.7s-0.2,0.6-0.2,0.9v0.5c0,0.5,0.1,0.8,0.2,1.2
				s0.4,0.6,0.7,0.7s0.6,0.2,1,0.2c0.2,0,0.5,0,0.7-0.1s0.4-0.2,0.5-0.3s0.3-0.3,0.3-0.5l0.9,0.2c-0.1,0.3-0.3,0.6-0.5,0.8
				s-0.5,0.4-0.8,0.5S108.7,504.6,108.3,504.6z"/>
			<path d="M114.6,504.6c-0.6,0-1-0.1-1.5-0.4s-0.7-0.6-0.9-1.1s-0.3-1-0.3-1.6c0-0.6,0.1-1.1,0.3-1.6s0.5-0.8,0.9-1.1
				s0.9-0.4,1.4-0.4c0.4,0,0.8,0.1,1.1,0.2c0.3,0.2,0.6,0.4,0.8,0.7c0.2,0.3,0.4,0.6,0.4,1h-0.9c-0.1-0.3-0.2-0.5-0.5-0.7
				c-0.2-0.2-0.6-0.3-1-0.3c-0.4,0-0.7,0.1-0.9,0.3c-0.3,0.2-0.5,0.4-0.6,0.8s-0.2,0.7-0.2,1.2c0,0.5,0.1,0.9,0.2,1.2
				s0.4,0.6,0.6,0.8c0.3,0.2,0.6,0.3,1,0.3c0.2,0,0.5,0,0.7-0.1s0.4-0.2,0.5-0.4c0.1-0.2,0.2-0.3,0.3-0.6h0.9
				c-0.1,0.4-0.2,0.7-0.4,1c-0.2,0.3-0.5,0.5-0.8,0.7C115.5,504.5,115.1,504.6,114.6,504.6z"/>
			<path d="M120.9,498.4v0.8h-3.1v-0.8H120.9z M118.7,497h0.9v5.7c0,0.3,0,0.5,0.1,0.6s0.2,0.2,0.3,0.3s0.2,0.1,0.4,0.1
				c0.1,0,0.2,0,0.2,0s0.1,0,0.2,0l0.2,0.8c-0.1,0-0.1,0-0.3,0.1s-0.3,0-0.4,0c-0.3,0-0.5-0.1-0.8-0.2s-0.5-0.3-0.6-0.5
				s-0.2-0.5-0.2-0.9V497z"/>
			<path class="st10" d="M72.6,509.6v8h-1.3l-3.8-5.4h-0.1v5.4H66v-8h1.3l3.8,5.5h0.1v-5.5H72.6z"/>
			<path class="st10" d="M76.7,517.8c-0.6,0-1.1-0.1-1.6-0.4s-0.8-0.6-1-1.1s-0.4-1-0.4-1.6c0-0.6,0.1-1.2,0.4-1.6s0.6-0.8,1-1.1
				s0.9-0.4,1.5-0.4c0.4,0,0.7,0.1,1,0.2s0.6,0.3,0.9,0.5s0.5,0.6,0.6,0.9s0.2,0.8,0.2,1.4v0.4h-4.9v-1h3.6c0-0.3-0.1-0.5-0.2-0.7
				s-0.3-0.4-0.5-0.5s-0.4-0.2-0.7-0.2c-0.3,0-0.5,0.1-0.8,0.2s-0.4,0.3-0.5,0.5s-0.2,0.5-0.2,0.7v0.8c0,0.3,0.1,0.6,0.2,0.9
				s0.3,0.4,0.5,0.6s0.5,0.2,0.8,0.2c0.2,0,0.4,0,0.6-0.1s0.3-0.1,0.4-0.3s0.2-0.3,0.3-0.4l1.3,0.1c-0.1,0.3-0.2,0.7-0.5,0.9
				s-0.5,0.5-0.9,0.6S77.2,517.8,76.7,517.8z"/>
			<path class="st10" d="M81.8,517.6l-1.7-6h1.4l1.1,4.2h0.1l1.1-4.2h1.4l1.1,4.2h0.1l1-4.2h1.4l-1.7,6h-1.5l-1.1-4.1h-0.1l-1.1,4.1
				H81.8z"/>
			<path class="st10" d="M94.3,517.6l-2.3-8h1.6l1.4,5.9h0.1l1.5-5.9h1.4l1.5,5.9h0.1l1.4-5.9h1.6l-2.3,8H99l-1.6-5.6h-0.1l-1.6,5.6
				H94.3z"/>
			<path class="st10" d="M105.3,517.8c-0.4,0-0.7-0.1-1-0.2s-0.5-0.3-0.7-0.6s-0.3-0.6-0.3-1c0-0.3,0.1-0.6,0.2-0.8s0.3-0.4,0.5-0.5
				s0.5-0.2,0.7-0.3s0.6-0.1,0.8-0.2c0.4,0,0.6-0.1,0.9-0.1s0.4-0.1,0.5-0.1s0.2-0.2,0.2-0.3v0c0-0.3-0.1-0.5-0.3-0.7
				s-0.4-0.2-0.8-0.2c-0.3,0-0.6,0.1-0.8,0.2s-0.3,0.3-0.4,0.5l-1.3-0.2c0.1-0.4,0.3-0.7,0.5-0.9s0.5-0.4,0.9-0.6s0.7-0.2,1.1-0.2
				c0.3,0,0.6,0,0.9,0.1s0.5,0.2,0.8,0.3s0.4,0.4,0.6,0.6s0.2,0.6,0.2,1v4h-1.4v-0.8h0c-0.1,0.2-0.2,0.3-0.4,0.5s-0.3,0.3-0.6,0.3
				S105.7,517.8,105.3,517.8z M105.7,516.7c0.3,0,0.5-0.1,0.7-0.2s0.4-0.3,0.5-0.5s0.2-0.4,0.2-0.6v-0.7c0,0-0.1,0.1-0.2,0.1
				s-0.2,0.1-0.4,0.1s-0.3,0-0.4,0.1s-0.2,0-0.3,0c-0.2,0-0.4,0.1-0.6,0.1s-0.3,0.2-0.4,0.3s-0.1,0.3-0.1,0.4c0,0.3,0.1,0.5,0.3,0.6
				S105.4,516.7,105.7,516.7z"/>
			<path class="st10" d="M112.9,511.6v1.1h-3.4v-1.1H112.9z M110.3,510.2h1.4v5.6c0,0.2,0,0.3,0.1,0.4s0.1,0.2,0.2,0.2
				s0.2,0.1,0.3,0.1c0.1,0,0.2,0,0.2,0s0.1,0,0.2,0l0.2,1.1c-0.1,0-0.2,0.1-0.3,0.1s-0.3,0-0.5,0.1c-0.4,0-0.7,0-1-0.2
				s-0.5-0.3-0.7-0.6s-0.2-0.6-0.2-0.9V510.2z"/>
			<path class="st10" d="M116.7,517.8c-0.6,0-1.1-0.1-1.5-0.4s-0.8-0.6-1-1.1s-0.3-1-0.3-1.6c0-0.6,0.1-1.1,0.4-1.6s0.6-0.8,1-1.1
				s0.9-0.4,1.5-0.4c0.5,0,0.9,0.1,1.3,0.3s0.7,0.4,0.9,0.8s0.4,0.7,0.4,1.1H118c-0.1-0.3-0.2-0.5-0.4-0.7s-0.5-0.3-0.8-0.3
				c-0.3,0-0.5,0.1-0.8,0.2s-0.4,0.4-0.5,0.7s-0.2,0.6-0.2,1c0,0.4,0.1,0.8,0.2,1.1s0.3,0.5,0.5,0.7s0.5,0.2,0.8,0.2
				c0.2,0,0.4,0,0.6-0.1s0.3-0.2,0.4-0.3s0.2-0.3,0.2-0.6h1.4c0,0.4-0.2,0.8-0.4,1.1s-0.5,0.6-0.9,0.8S117.2,517.8,116.7,517.8z"/>
			<path class="st10" d="M121.9,514.1v3.5h-1.4v-8h1.4v3h0.1c0.1-0.3,0.4-0.6,0.7-0.8s0.7-0.3,1.1-0.3c0.4,0,0.8,0.1,1.1,0.3
				s0.5,0.4,0.7,0.8s0.3,0.7,0.3,1.2v3.8h-1.4V514c0-0.4-0.1-0.7-0.3-0.9s-0.5-0.3-0.9-0.3c-0.2,0-0.5,0.1-0.7,0.2s-0.4,0.3-0.5,0.5
				S121.9,513.8,121.9,514.1z"/>
			<path class="st10" d="M131.4,509.6v8h-1.4v-8H131.4z"/>
			<path class="st10" d="M133.5,510.8c-0.2,0-0.4-0.1-0.6-0.2s-0.2-0.3-0.2-0.5s0.1-0.4,0.2-0.5s0.4-0.2,0.6-0.2
				c0.2,0,0.4,0.1,0.6,0.2s0.2,0.3,0.2,0.5s-0.1,0.4-0.2,0.5S133.7,510.8,133.5,510.8z M132.8,517.6v-6h1.4v6H132.8z"/>
			<path class="st10" d="M140.4,513.2l-1.3,0.1c0-0.1-0.1-0.3-0.2-0.4s-0.2-0.2-0.4-0.3s-0.3-0.1-0.6-0.1c-0.3,0-0.5,0.1-0.7,0.2
				s-0.3,0.3-0.3,0.5c0,0.2,0.1,0.3,0.2,0.4s0.3,0.2,0.7,0.3l1,0.2c0.6,0.1,1,0.3,1.3,0.6s0.4,0.6,0.4,1c0,0.4-0.1,0.7-0.3,1
				s-0.5,0.5-0.9,0.7s-0.8,0.2-1.3,0.2c-0.7,0-1.3-0.2-1.8-0.5s-0.7-0.7-0.8-1.3l1.4-0.1c0.1,0.3,0.2,0.5,0.4,0.6s0.5,0.2,0.8,0.2
				c0.3,0,0.6-0.1,0.8-0.2s0.3-0.3,0.3-0.5c0-0.2-0.1-0.3-0.2-0.4s-0.3-0.2-0.6-0.3l-1-0.2c-0.6-0.1-1-0.3-1.3-0.6s-0.4-0.6-0.4-1.1
				c0-0.4,0.1-0.7,0.3-1s0.5-0.5,0.9-0.6s0.8-0.2,1.3-0.2c0.7,0,1.3,0.1,1.7,0.4S140.3,512.7,140.4,513.2z"/>
			<path class="st10" d="M144.7,511.6v1.1h-3.4v-1.1H144.7z M142.1,510.2h1.4v5.6c0,0.2,0,0.3,0.1,0.4s0.1,0.2,0.2,0.2
				s0.2,0.1,0.3,0.1c0.1,0,0.2,0,0.2,0s0.1,0,0.2,0l0.2,1.1c-0.1,0-0.2,0.1-0.3,0.1s-0.3,0-0.5,0.1c-0.4,0-0.7,0-1-0.2
				s-0.5-0.3-0.7-0.6s-0.2-0.6-0.2-0.9V510.2z"/>
		</g>
	</g>
	<g>
		<polygon class="st8" points="140.4,586.5 140.4,586.5 105.6,619.8 0,619.8 34.8,586.5 34.8,586.5 0,553.1 105.6,553.1 		"/>
		<g>
			<path class="st3" d="M152.6,625.5H58.3c-1.9,0-3.4-1.5-3.4-3.4v-38.4c0-1.9,1.5-3.4,3.4-3.4h94.3c1.9,0,3.4,1.5,3.4,3.4V622
				C156,623.9,154.4,625.5,152.6,625.5z"/>
			<path class="st4" d="M152.6,625.5H58.3c-1.9,0-3.4-1.5-3.4-3.4v-38.4c0-1.9,1.5-3.4,3.4-3.4h94.3c1.9,0,3.4,1.5,3.4,3.4V622
				C156,623.9,154.4,625.5,152.6,625.5z"/>
		</g>
		<g>
			<path d="M95.4,588.8h-0.9c-0.1-0.3-0.1-0.5-0.3-0.7c-0.1-0.2-0.3-0.4-0.5-0.5c-0.2-0.1-0.4-0.2-0.6-0.3c-0.2-0.1-0.5-0.1-0.7-0.1
				c-0.5,0-0.9,0.1-1.3,0.4c-0.4,0.2-0.7,0.6-0.9,1c-0.2,0.5-0.3,1-0.3,1.7c0,0.7,0.1,1.2,0.3,1.7c0.2,0.5,0.5,0.8,0.9,1
				c0.4,0.2,0.8,0.4,1.3,0.4c0.3,0,0.5,0,0.7-0.1c0.2-0.1,0.4-0.2,0.6-0.3c0.2-0.1,0.4-0.3,0.5-0.5c0.1-0.2,0.2-0.4,0.3-0.7h0.9
				c-0.1,0.4-0.2,0.7-0.4,1c-0.2,0.3-0.4,0.6-0.7,0.8c-0.3,0.2-0.6,0.4-0.9,0.5s-0.7,0.2-1.1,0.2c-0.7,0-1.2-0.2-1.7-0.5
				c-0.5-0.3-0.9-0.8-1.2-1.4c-0.3-0.6-0.4-1.3-0.4-2.1c0-0.8,0.1-1.5,0.4-2.1c0.3-0.6,0.7-1,1.2-1.4c0.5-0.3,1.1-0.5,1.7-0.5
				c0.4,0,0.7,0.1,1.1,0.2c0.3,0.1,0.6,0.3,0.9,0.5c0.3,0.2,0.5,0.5,0.7,0.8C95.2,588.1,95.3,588.4,95.4,588.8z"/>
			<path d="M96.8,594.1v-5.7h0.9v0.9h0.1c0.1-0.3,0.3-0.5,0.6-0.7c0.3-0.2,0.6-0.3,0.9-0.3c0.1,0,0.1,0,0.2,0c0.1,0,0.2,0,0.2,0v0.9
				c0,0-0.1,0-0.2,0s-0.2,0-0.3,0c-0.3,0-0.5,0.1-0.7,0.2c-0.2,0.1-0.4,0.3-0.5,0.5s-0.2,0.4-0.2,0.7v3.6H96.8z"/>
			<path d="M103.1,594.2c-0.6,0-1-0.1-1.4-0.4c-0.4-0.2-0.7-0.6-0.9-1c-0.2-0.4-0.3-1-0.3-1.5c0-0.6,0.1-1.1,0.3-1.6
				s0.5-0.8,0.9-1.1c0.4-0.3,0.8-0.4,1.4-0.4c0.3,0,0.6,0,0.9,0.1c0.3,0.1,0.6,0.3,0.8,0.5c0.2,0.2,0.4,0.5,0.6,0.9
				c0.1,0.4,0.2,0.8,0.2,1.4v0.4H101v-0.8h3.5c0-0.3-0.1-0.6-0.2-0.9c-0.1-0.3-0.3-0.5-0.5-0.6c-0.2-0.1-0.5-0.2-0.8-0.2
				c-0.4,0-0.7,0.1-0.9,0.3c-0.3,0.2-0.5,0.4-0.6,0.7s-0.2,0.6-0.2,0.9v0.5c0,0.4,0.1,0.8,0.2,1.1c0.2,0.3,0.4,0.5,0.6,0.7
				c0.3,0.2,0.6,0.2,0.9,0.2c0.2,0,0.4,0,0.6-0.1s0.4-0.2,0.5-0.3c0.1-0.1,0.2-0.3,0.3-0.5l0.9,0.2c-0.1,0.3-0.2,0.5-0.5,0.8
				c-0.2,0.2-0.5,0.4-0.8,0.5S103.5,594.2,103.1,594.2z"/>
			<path d="M108.5,594.2c-0.4,0-0.7-0.1-1-0.2c-0.3-0.1-0.5-0.3-0.7-0.6s-0.3-0.6-0.3-1c0-0.3,0.1-0.6,0.2-0.8
				c0.1-0.2,0.3-0.4,0.5-0.5c0.2-0.1,0.5-0.2,0.7-0.3c0.3-0.1,0.5-0.1,0.8-0.1c0.3,0,0.6-0.1,0.8-0.1c0.2,0,0.4-0.1,0.5-0.1
				c0.1-0.1,0.2-0.2,0.2-0.3v0c0-0.4-0.1-0.7-0.3-0.9c-0.2-0.2-0.5-0.3-0.9-0.3c-0.4,0-0.7,0.1-1,0.3c-0.2,0.2-0.4,0.4-0.5,0.6
				l-0.8-0.3c0.1-0.3,0.3-0.6,0.6-0.8c0.2-0.2,0.5-0.3,0.8-0.4c0.3-0.1,0.6-0.1,0.9-0.1c0.2,0,0.4,0,0.6,0.1c0.2,0,0.5,0.1,0.7,0.3
				c0.2,0.1,0.4,0.3,0.6,0.6c0.1,0.3,0.2,0.6,0.2,1.1v3.8h-0.9v-0.8h0c-0.1,0.1-0.2,0.3-0.3,0.4s-0.3,0.3-0.6,0.4
				C109.1,594.2,108.8,594.2,108.5,594.2z M108.6,593.4c0.3,0,0.6-0.1,0.9-0.2s0.4-0.3,0.5-0.5s0.2-0.4,0.2-0.7v-0.8
				c0,0-0.1,0.1-0.2,0.1s-0.3,0.1-0.4,0.1c-0.2,0-0.3,0-0.5,0.1s-0.3,0-0.4,0c-0.2,0-0.4,0.1-0.6,0.1c-0.2,0.1-0.4,0.2-0.5,0.3
				s-0.2,0.3-0.2,0.5c0,0.3,0.1,0.5,0.3,0.7C108,593.3,108.2,593.4,108.6,593.4z"/>
			<path d="M115.2,588.3v0.7h-3v-0.7H115.2z M113.1,587h0.9v5.5c0,0.2,0,0.4,0.1,0.6s0.2,0.2,0.3,0.2s0.2,0.1,0.4,0.1
				c0.1,0,0.2,0,0.2,0c0.1,0,0.1,0,0.2,0l0.2,0.8c-0.1,0-0.1,0-0.2,0.1c-0.1,0-0.2,0-0.4,0c-0.2,0-0.5-0.1-0.7-0.2
				c-0.2-0.1-0.4-0.3-0.6-0.5s-0.2-0.5-0.2-0.8V587z"/>
			<path d="M118.9,594.2c-0.6,0-1-0.1-1.4-0.4c-0.4-0.2-0.7-0.6-0.9-1c-0.2-0.4-0.3-1-0.3-1.5c0-0.6,0.1-1.1,0.3-1.6
				s0.5-0.8,0.9-1.1s0.8-0.4,1.4-0.4c0.3,0,0.6,0,0.9,0.1c0.3,0.1,0.6,0.3,0.8,0.5c0.2,0.2,0.4,0.5,0.6,0.9c0.1,0.4,0.2,0.8,0.2,1.4
				v0.4h-4.4v-0.8h3.5c0-0.3-0.1-0.6-0.2-0.9c-0.1-0.3-0.3-0.5-0.5-0.6c-0.2-0.1-0.5-0.2-0.8-0.2c-0.4,0-0.7,0.1-0.9,0.3
				c-0.3,0.2-0.5,0.4-0.6,0.7s-0.2,0.6-0.2,0.9v0.5c0,0.4,0.1,0.8,0.2,1.1c0.2,0.3,0.4,0.5,0.6,0.7s0.6,0.2,0.9,0.2
				c0.2,0,0.4,0,0.6-0.1s0.3-0.2,0.5-0.3c0.1-0.1,0.2-0.3,0.3-0.5l0.8,0.2c-0.1,0.3-0.2,0.5-0.5,0.8c-0.2,0.2-0.5,0.4-0.8,0.5
				C119.7,594.1,119.3,594.2,118.9,594.2z"/>
			<path class="st10" d="M69.2,599v7.6h-1.2l-3.6-5.2h-0.1v5.2h-1.4V599h1.2l3.6,5.2h0.1V599H69.2z"/>
			<path class="st10" d="M73.1,606.8c-0.6,0-1.1-0.1-1.5-0.4c-0.4-0.2-0.7-0.6-1-1c-0.2-0.4-0.3-1-0.3-1.6c0-0.6,0.1-1.1,0.3-1.6
				c0.2-0.4,0.5-0.8,0.9-1c0.4-0.2,0.9-0.4,1.4-0.4c0.4,0,0.7,0.1,1,0.2c0.3,0.1,0.6,0.3,0.8,0.5c0.2,0.2,0.4,0.5,0.6,0.9
				c0.1,0.4,0.2,0.8,0.2,1.3v0.4H71v-0.9h3.4c0-0.3-0.1-0.5-0.2-0.7c-0.1-0.2-0.3-0.4-0.5-0.5c-0.2-0.1-0.4-0.2-0.7-0.2
				c-0.3,0-0.5,0.1-0.7,0.2s-0.4,0.3-0.5,0.5c-0.1,0.2-0.2,0.5-0.2,0.7v0.8c0,0.3,0.1,0.6,0.2,0.9s0.3,0.4,0.5,0.5s0.5,0.2,0.8,0.2
				c0.2,0,0.4,0,0.5-0.1c0.2-0.1,0.3-0.1,0.4-0.2s0.2-0.2,0.3-0.4l1.3,0.1c-0.1,0.3-0.2,0.6-0.5,0.9c-0.2,0.2-0.5,0.4-0.9,0.6
				C74,606.7,73.6,606.8,73.1,606.8z"/>
			<path class="st10" d="M78,606.7l-1.6-5.7h1.4l1,4h0.1l1-4h1.4l1,4h0.1l1-4h1.4l-1.6,5.7h-1.4l-1.1-3.9h-0.1l-1.1,3.9H78z"/>
			<path class="st10" d="M89.9,606.7l-2.2-7.6h1.5l1.4,5.6h0.1l1.5-5.6h1.4l1.5,5.6H95l1.4-5.6h1.5l-2.2,7.6h-1.4l-1.5-5.4h-0.1
				l-1.5,5.4H89.9z"/>
			<path class="st10" d="M100.4,606.8c-0.4,0-0.7-0.1-1-0.2s-0.5-0.3-0.7-0.6c-0.2-0.3-0.3-0.6-0.3-0.9c0-0.3,0.1-0.6,0.2-0.8
				s0.3-0.4,0.5-0.5c0.2-0.1,0.4-0.2,0.7-0.3c0.3-0.1,0.5-0.1,0.8-0.1c0.3,0,0.6-0.1,0.8-0.1c0.2,0,0.4-0.1,0.5-0.1s0.1-0.2,0.1-0.3
				v0c0-0.3-0.1-0.5-0.2-0.7c-0.2-0.2-0.4-0.2-0.7-0.2c-0.3,0-0.6,0.1-0.8,0.2c-0.2,0.1-0.3,0.3-0.4,0.5l-1.3-0.2
				c0.1-0.3,0.3-0.6,0.5-0.9c0.2-0.2,0.5-0.4,0.8-0.5c0.3-0.1,0.7-0.2,1.1-0.2c0.3,0,0.6,0,0.8,0.1c0.3,0.1,0.5,0.2,0.7,0.3
				s0.4,0.3,0.5,0.6c0.1,0.3,0.2,0.6,0.2,1v3.8h-1.3v-0.8h0c-0.1,0.2-0.2,0.3-0.3,0.4c-0.1,0.1-0.3,0.2-0.6,0.3
				C101,606.7,100.7,606.8,100.4,606.8z M100.8,605.8c0.3,0,0.5-0.1,0.7-0.2c0.2-0.1,0.4-0.3,0.5-0.4c0.1-0.2,0.2-0.4,0.2-0.6v-0.7
				c0,0-0.1,0.1-0.2,0.1s-0.2,0.1-0.3,0.1c-0.1,0-0.2,0-0.4,0.1c-0.1,0-0.2,0-0.3,0c-0.2,0-0.4,0.1-0.5,0.1
				c-0.2,0.1-0.3,0.1-0.4,0.3c-0.1,0.1-0.1,0.3-0.1,0.4c0,0.2,0.1,0.4,0.3,0.6S100.5,605.8,100.8,605.8z"/>
			<path class="st10" d="M107.7,600.9v1h-3.3v-1H107.7z M105.2,599.6h1.4v5.4c0,0.2,0,0.3,0.1,0.4c0.1,0.1,0.1,0.2,0.2,0.2
				c0.1,0,0.2,0.1,0.3,0.1c0.1,0,0.2,0,0.2,0c0.1,0,0.1,0,0.2,0l0.2,1.1c-0.1,0-0.2,0.1-0.3,0.1c-0.1,0-0.3,0-0.5,0.1
				c-0.3,0-0.6,0-0.9-0.2c-0.3-0.1-0.5-0.3-0.6-0.5c-0.2-0.2-0.2-0.5-0.2-0.9V599.6z"/>
			<path class="st10" d="M111.3,606.8c-0.6,0-1.1-0.1-1.5-0.4c-0.4-0.3-0.7-0.6-0.9-1c-0.2-0.4-0.3-1-0.3-1.5c0-0.6,0.1-1.1,0.3-1.5
				c0.2-0.4,0.5-0.8,0.9-1c0.4-0.2,0.9-0.4,1.5-0.4c0.5,0,0.9,0.1,1.2,0.3s0.6,0.4,0.9,0.7s0.3,0.7,0.4,1.1h-1.3
				c-0.1-0.3-0.2-0.5-0.4-0.7c-0.2-0.2-0.5-0.3-0.8-0.3c-0.3,0-0.5,0.1-0.7,0.2c-0.2,0.1-0.4,0.4-0.5,0.6s-0.2,0.6-0.2,1
				c0,0.4,0.1,0.7,0.2,1c0.1,0.3,0.3,0.5,0.5,0.6s0.5,0.2,0.7,0.2c0.2,0,0.4,0,0.5-0.1c0.2-0.1,0.3-0.2,0.4-0.3
				c0.1-0.1,0.2-0.3,0.2-0.5h1.3c0,0.4-0.2,0.8-0.4,1.1c-0.2,0.3-0.5,0.6-0.8,0.7C112.2,606.7,111.8,606.8,111.3,606.8z"/>
			<path class="st10" d="M116.2,603.3v3.4h-1.3V599h1.3v2.9h0.1c0.1-0.3,0.3-0.6,0.6-0.8c0.3-0.2,0.6-0.3,1.1-0.3
				c0.4,0,0.7,0.1,1,0.2c0.3,0.2,0.5,0.4,0.7,0.7s0.2,0.7,0.2,1.2v3.6h-1.3v-3.4c0-0.4-0.1-0.7-0.3-0.9c-0.2-0.2-0.5-0.3-0.8-0.3
				c-0.2,0-0.5,0.1-0.6,0.2c-0.2,0.1-0.3,0.3-0.4,0.4C116.3,602.8,116.2,603,116.2,603.3z"/>
			<path class="st10" d="M125.3,599v7.6h-1.3V599H125.3z"/>
			<path class="st10" d="M127.3,600.1c-0.2,0-0.4-0.1-0.6-0.2s-0.2-0.3-0.2-0.5c0-0.2,0.1-0.4,0.2-0.5s0.3-0.2,0.6-0.2
				c0.2,0,0.4,0.1,0.6,0.2c0.2,0.1,0.2,0.3,0.2,0.5s-0.1,0.4-0.2,0.5C127.7,600.1,127.5,600.1,127.3,600.1z M126.7,606.7v-5.7h1.3
				v5.7H126.7z"/>
			<path class="st10" d="M133.9,602.5l-1.2,0.1c0-0.1-0.1-0.2-0.2-0.4s-0.2-0.2-0.3-0.3c-0.1-0.1-0.3-0.1-0.5-0.1
				c-0.3,0-0.5,0.1-0.7,0.2c-0.2,0.1-0.3,0.3-0.3,0.5c0,0.2,0.1,0.3,0.2,0.4c0.1,0.1,0.3,0.2,0.6,0.3l1,0.2c0.5,0.1,0.9,0.3,1.2,0.6
				c0.3,0.3,0.4,0.6,0.4,1c0,0.4-0.1,0.7-0.3,1c-0.2,0.3-0.5,0.5-0.9,0.6c-0.4,0.2-0.8,0.2-1.3,0.2c-0.7,0-1.3-0.1-1.7-0.4
				s-0.7-0.7-0.8-1.2l1.3-0.1c0.1,0.3,0.2,0.5,0.4,0.6c0.2,0.1,0.4,0.2,0.8,0.2c0.3,0,0.6-0.1,0.8-0.2s0.3-0.3,0.3-0.5
				c0-0.2-0.1-0.3-0.2-0.4c-0.1-0.1-0.3-0.2-0.6-0.2l-1-0.2c-0.5-0.1-1-0.3-1.2-0.6c-0.3-0.3-0.4-0.6-0.4-1c0-0.4,0.1-0.7,0.3-0.9
				c0.2-0.3,0.5-0.5,0.8-0.6c0.3-0.1,0.8-0.2,1.2-0.2c0.7,0,1.2,0.1,1.6,0.4C133.6,601.6,133.8,602,133.9,602.5z"/>
			<path class="st10" d="M138,600.9v1h-3.3v-1H138z M135.5,599.6h1.3v5.4c0,0.2,0,0.3,0.1,0.4c0.1,0.1,0.1,0.2,0.2,0.2
				c0.1,0,0.2,0.1,0.3,0.1c0.1,0,0.2,0,0.2,0c0.1,0,0.1,0,0.2,0l0.2,1.1c-0.1,0-0.2,0.1-0.3,0.1c-0.1,0-0.3,0-0.5,0.1
				c-0.3,0-0.6,0-0.9-0.2c-0.3-0.1-0.5-0.3-0.6-0.5c-0.2-0.2-0.2-0.5-0.2-0.9V599.6z"/>
			<path class="st10" d="M144,606.8c-0.5,0-1-0.1-1.3-0.3c-0.4-0.2-0.7-0.4-0.9-0.8c-0.2-0.3-0.3-0.7-0.3-1.1c0-0.3,0.1-0.6,0.2-0.8
				c0.1-0.2,0.3-0.5,0.5-0.7s0.5-0.4,0.8-0.6l1.4-0.9c0.2-0.1,0.4-0.3,0.5-0.4c0.1-0.1,0.2-0.3,0.2-0.5c0-0.2-0.1-0.3-0.2-0.5
				c-0.1-0.1-0.3-0.2-0.6-0.2c-0.2,0-0.3,0-0.4,0.1c-0.1,0.1-0.2,0.2-0.3,0.3c-0.1,0.1-0.1,0.3-0.1,0.4c0,0.2,0,0.3,0.1,0.5
				c0.1,0.2,0.2,0.3,0.4,0.5c0.2,0.2,0.3,0.4,0.5,0.6l3.6,4.2h-1.5l-3-3.4c-0.2-0.3-0.4-0.5-0.6-0.8s-0.4-0.5-0.5-0.8
				c-0.1-0.3-0.2-0.6-0.2-0.9c0-0.4,0.1-0.7,0.2-1c0.2-0.3,0.4-0.5,0.7-0.7c0.3-0.2,0.7-0.2,1.1-0.2c0.4,0,0.7,0.1,1,0.2
				c0.3,0.2,0.5,0.4,0.7,0.6c0.2,0.3,0.2,0.6,0.2,0.9c0,0.4-0.1,0.7-0.3,1s-0.4,0.5-0.7,0.8l-1.5,1.1c-0.3,0.2-0.4,0.4-0.5,0.6
				c-0.1,0.2-0.2,0.3-0.2,0.5c0,0.2,0.1,0.4,0.2,0.5c0.1,0.2,0.2,0.3,0.4,0.4c0.2,0.1,0.4,0.1,0.7,0.1c0.3,0,0.5-0.1,0.8-0.2
				c0.3-0.1,0.5-0.3,0.7-0.5s0.4-0.5,0.5-0.8c0.1-0.3,0.2-0.7,0.2-1.1h1.2c0,0.5-0.1,0.9-0.2,1.3c-0.1,0.4-0.2,0.7-0.4,0.9
				c-0.2,0.2-0.3,0.4-0.5,0.6c-0.1,0-0.1,0.1-0.2,0.1c-0.1,0-0.1,0.1-0.2,0.1c-0.3,0.2-0.6,0.4-0.9,0.5
				C144.7,606.7,144.4,606.8,144,606.8z"/>
			<path class="st10" d="M97.4,613.7c0-0.3-0.2-0.6-0.4-0.8c-0.3-0.2-0.6-0.3-1-0.3c-0.3,0-0.5,0-0.7,0.1c-0.2,0.1-0.4,0.2-0.5,0.4
				c-0.1,0.1-0.2,0.3-0.2,0.5c0,0.2,0,0.3,0.1,0.4c0.1,0.1,0.2,0.2,0.3,0.3c0.1,0.1,0.3,0.1,0.4,0.2s0.3,0.1,0.5,0.1l0.7,0.2
				c0.3,0.1,0.6,0.2,0.8,0.3c0.3,0.1,0.5,0.3,0.7,0.4c0.2,0.2,0.4,0.4,0.5,0.6s0.2,0.5,0.2,0.9c0,0.4-0.1,0.8-0.3,1.2
				c-0.2,0.3-0.6,0.6-1,0.8c-0.4,0.2-1,0.3-1.6,0.3c-0.6,0-1.1-0.1-1.5-0.3c-0.4-0.2-0.8-0.5-1-0.8c-0.2-0.4-0.4-0.8-0.4-1.3h1.4
				c0,0.3,0.1,0.5,0.2,0.7c0.1,0.2,0.3,0.3,0.6,0.4s0.5,0.1,0.8,0.1c0.3,0,0.6,0,0.8-0.1s0.4-0.2,0.5-0.4c0.1-0.2,0.2-0.4,0.2-0.6
				c0-0.2-0.1-0.4-0.2-0.5c-0.1-0.1-0.3-0.2-0.5-0.3c-0.2-0.1-0.4-0.2-0.7-0.2l-0.9-0.2c-0.6-0.2-1.1-0.4-1.5-0.7
				c-0.4-0.3-0.5-0.8-0.5-1.3c0-0.4,0.1-0.8,0.4-1.2c0.2-0.3,0.6-0.6,1-0.8c0.4-0.2,0.9-0.3,1.4-0.3c0.5,0,1,0.1,1.4,0.3
				c0.4,0.2,0.7,0.4,1,0.8c0.2,0.3,0.4,0.7,0.4,1.1H97.4z"/>
			<path class="st10" d="M101.7,619.4c-0.4,0-0.7-0.1-1-0.2s-0.5-0.3-0.7-0.6c-0.2-0.3-0.3-0.6-0.3-0.9c0-0.3,0.1-0.6,0.2-0.8
				s0.3-0.4,0.5-0.5c0.2-0.1,0.4-0.2,0.7-0.3c0.3-0.1,0.5-0.1,0.8-0.1c0.3,0,0.6-0.1,0.8-0.1c0.2,0,0.4-0.1,0.5-0.1s0.1-0.2,0.1-0.3
				v0c0-0.3-0.1-0.5-0.2-0.7c-0.2-0.2-0.4-0.2-0.7-0.2c-0.3,0-0.6,0.1-0.8,0.2c-0.2,0.1-0.3,0.3-0.4,0.5l-1.3-0.2
				c0.1-0.3,0.3-0.6,0.5-0.9c0.2-0.2,0.5-0.4,0.8-0.5c0.3-0.1,0.7-0.2,1.1-0.2c0.3,0,0.6,0,0.8,0.1c0.3,0.1,0.5,0.2,0.7,0.3
				s0.4,0.3,0.5,0.6c0.1,0.3,0.2,0.6,0.2,1v3.8h-1.3v-0.8h0c-0.1,0.2-0.2,0.3-0.3,0.4c-0.1,0.1-0.3,0.2-0.6,0.3
				C102.2,619.3,102,619.4,101.7,619.4z M102,618.4c0.3,0,0.5-0.1,0.7-0.2c0.2-0.1,0.4-0.3,0.5-0.4c0.1-0.2,0.2-0.4,0.2-0.6v-0.7
				c0,0-0.1,0.1-0.2,0.1s-0.2,0.1-0.3,0.1c-0.1,0-0.2,0-0.4,0.1c-0.1,0-0.2,0-0.3,0c-0.2,0-0.4,0.1-0.5,0.1
				c-0.2,0.1-0.3,0.1-0.4,0.3c-0.1,0.1-0.1,0.3-0.1,0.4c0,0.2,0.1,0.4,0.3,0.6S101.7,618.4,102,618.4z"/>
			<path class="st10" d="M111.2,613.5l-2,5.7h-1.5l-2-5.7h1.4l1.3,4.3h0.1l1.3-4.3H111.2z"/>
			<path class="st10" d="M114.6,619.4c-0.6,0-1.1-0.1-1.5-0.4c-0.4-0.2-0.7-0.6-1-1c-0.2-0.4-0.3-1-0.3-1.6c0-0.6,0.1-1.1,0.3-1.6
				c0.2-0.4,0.5-0.8,0.9-1c0.4-0.2,0.9-0.4,1.4-0.4c0.4,0,0.7,0.1,1,0.2c0.3,0.1,0.6,0.3,0.8,0.5c0.2,0.2,0.4,0.5,0.6,0.9
				c0.1,0.4,0.2,0.8,0.2,1.3v0.4h-4.7v-0.9h3.4c0-0.3-0.1-0.5-0.2-0.7c-0.1-0.2-0.3-0.4-0.5-0.5c-0.2-0.1-0.4-0.2-0.7-0.2
				c-0.3,0-0.5,0.1-0.7,0.2c-0.2,0.1-0.4,0.3-0.5,0.5c-0.1,0.2-0.2,0.5-0.2,0.7v0.8c0,0.3,0.1,0.6,0.2,0.9s0.3,0.4,0.5,0.5
				s0.5,0.2,0.8,0.2c0.2,0,0.4,0,0.5-0.1c0.2-0.1,0.3-0.1,0.4-0.2c0.1-0.1,0.2-0.2,0.3-0.4l1.3,0.1c-0.1,0.3-0.2,0.6-0.5,0.9
				s-0.5,0.4-0.9,0.6C115.5,619.3,115.1,619.4,114.6,619.4z"/>
		</g>
	</g>
	<g>
		<polygon class="st9" points="140.4,394.9 140.4,394.9 105.6,428.3 0,428.3 34.8,394.9 34.8,394.9 0,361.6 105.6,361.6 		"/>
		<g>
			<path class="st3" d="M152.6,433.8H58.3c-1.9,0-3.4-1.5-3.4-3.4v-38.4c0-1.9,1.5-3.4,3.4-3.4h94.3c1.9,0,3.4,1.5,3.4,3.4v38.4
				C156,432.3,154.4,433.8,152.6,433.8z"/>
			<path class="st4" d="M152.6,433.8H58.3c-1.9,0-3.4-1.5-3.4-3.4v-38.4c0-1.9,1.5-3.4,3.4-3.4h94.3c1.9,0,3.4,1.5,3.4,3.4v38.4
				C156,432.3,154.4,433.8,152.6,433.8z"/>
		</g>
		<g>
			<path d="M87.7,400.3v-0.9h6v0.9h-2.5v7.1h-1v-7.1H87.7z"/>
			<path d="M96.9,407.6c-0.4,0-0.7-0.1-1-0.2s-0.6-0.4-0.7-0.6s-0.3-0.6-0.3-1c0-0.3,0.1-0.6,0.2-0.8s0.3-0.4,0.5-0.5
				s0.5-0.2,0.8-0.3s0.6-0.1,0.8-0.1c0.4,0,0.7-0.1,0.9-0.1s0.4-0.1,0.5-0.1s0.2-0.2,0.2-0.3v0c0-0.4-0.1-0.7-0.3-0.9
				s-0.5-0.3-1-0.3c-0.4,0-0.8,0.1-1,0.3s-0.4,0.4-0.5,0.6l-0.9-0.3c0.2-0.4,0.4-0.6,0.6-0.9s0.5-0.3,0.9-0.4s0.6-0.1,0.9-0.1
				c0.2,0,0.4,0,0.7,0.1s0.5,0.1,0.7,0.3s0.4,0.4,0.6,0.6s0.2,0.7,0.2,1.1v4h-0.9v-0.8h0c-0.1,0.1-0.2,0.3-0.3,0.4s-0.3,0.3-0.6,0.4
				S97.2,407.6,96.9,407.6z M97,406.8c0.4,0,0.7-0.1,0.9-0.2s0.4-0.3,0.6-0.6s0.2-0.5,0.2-0.7v-0.8c0,0-0.1,0.1-0.3,0.1
				s-0.3,0.1-0.5,0.1s-0.3,0.1-0.5,0.1s-0.3,0-0.4,0c-0.2,0-0.5,0.1-0.7,0.2s-0.4,0.2-0.5,0.3s-0.2,0.3-0.2,0.6
				c0,0.3,0.1,0.6,0.4,0.7S96.6,406.8,97,406.8z"/>
			<path d="M101.3,409.7v-8.2h0.9v1h0.1c0.1-0.1,0.2-0.2,0.3-0.4s0.3-0.3,0.5-0.4s0.5-0.2,0.9-0.2c0.5,0,1,0.1,1.3,0.4
				s0.7,0.6,0.9,1.1s0.3,1,0.3,1.6c0,0.6-0.1,1.2-0.3,1.7s-0.5,0.8-0.9,1.1s-0.8,0.4-1.3,0.4c-0.4,0-0.7-0.1-0.9-0.2
				s-0.4-0.3-0.5-0.4s-0.2-0.3-0.3-0.4h-0.1v3.2H101.3z M102.2,404.5c0,0.5,0.1,0.9,0.2,1.2s0.3,0.6,0.6,0.8s0.6,0.3,0.9,0.3
				c0.4,0,0.7-0.1,1-0.3s0.5-0.5,0.6-0.8s0.2-0.7,0.2-1.2c0-0.4-0.1-0.8-0.2-1.1s-0.3-0.6-0.6-0.8s-0.6-0.3-1-0.3
				c-0.4,0-0.7,0.1-0.9,0.3s-0.4,0.5-0.6,0.8S102.2,404,102.2,404.5z"/>
			<path d="M113.5,407.6c-0.5,0-1-0.1-1.4-0.4s-0.7-0.6-1-1.1s-0.3-1-0.3-1.6c0-0.6,0.1-1.2,0.3-1.6s0.5-0.8,1-1.1s0.9-0.4,1.4-0.4
				c0.5,0,1,0.1,1.4,0.4s0.7,0.6,1,1.1s0.3,1,0.3,1.6c0,0.6-0.1,1.2-0.3,1.6s-0.5,0.8-1,1.1S114.1,407.6,113.5,407.6z M113.5,406.8
				c0.4,0,0.8-0.1,1-0.3s0.5-0.5,0.6-0.8s0.2-0.7,0.2-1.1s-0.1-0.8-0.2-1.1s-0.3-0.6-0.6-0.8s-0.6-0.3-1-0.3c-0.4,0-0.8,0.1-1,0.3
				s-0.5,0.5-0.6,0.8s-0.2,0.7-0.2,1.1s0.1,0.8,0.2,1.1s0.3,0.6,0.6,0.8S113.1,406.8,113.5,406.8z"/>
			<path d="M118.6,403.9v3.6h-0.9v-6h0.9v0.9h0.1c0.1-0.3,0.4-0.6,0.6-0.7s0.7-0.3,1.1-0.3c0.4,0,0.8,0.1,1.1,0.2s0.5,0.4,0.7,0.8
				s0.3,0.8,0.3,1.3v3.8h-0.9v-3.8c0-0.5-0.1-0.8-0.4-1.1s-0.6-0.4-1-0.4c-0.3,0-0.6,0.1-0.8,0.2s-0.4,0.3-0.5,0.6
				S118.6,403.5,118.6,403.9z"/>
			<path class="st10" d="M85.1,416.7c0-1,0.1-1.9,0.4-2.7s0.6-1.6,1.2-2.3H88c-0.2,0.3-0.4,0.6-0.6,0.9s-0.3,0.8-0.4,1.2
				s-0.2,0.9-0.3,1.4s-0.1,0.9-0.1,1.4c0,0.6,0.1,1.2,0.2,1.9s0.3,1.2,0.5,1.8s0.5,1,0.7,1.3h-1.3c-0.5-0.7-0.9-1.5-1.2-2.3
				S85.1,417.6,85.1,416.7z"/>
			<path class="st10" d="M89.4,417.3v-1.2h5.4v1.2H89.4z M91.5,419.4V414h1.2v5.4H91.5z"/>
			<path class="st10" d="M99,416.7c0,1-0.1,1.9-0.4,2.7s-0.6,1.6-1.2,2.3h-1.3c0.2-0.3,0.4-0.6,0.6-0.9s0.3-0.8,0.4-1.2
				s0.2-0.9,0.3-1.4s0.1-0.9,0.1-1.4c0-0.6-0.1-1.2-0.2-1.9s-0.3-1.2-0.5-1.8s-0.5-1-0.7-1.3h1.3c0.5,0.7,0.9,1.5,1.2,2.3
				S99,415.7,99,416.7z"/>
			<path class="st10" d="M108,414.9c0-0.3-0.2-0.6-0.5-0.8s-0.6-0.3-1-0.3c-0.3,0-0.6,0-0.8,0.1s-0.4,0.2-0.5,0.4s-0.2,0.3-0.2,0.5
				c0,0.2,0,0.3,0.1,0.4s0.2,0.2,0.3,0.3s0.3,0.2,0.4,0.2s0.3,0.1,0.5,0.1l0.8,0.2c0.3,0.1,0.6,0.2,0.9,0.3s0.5,0.3,0.8,0.5
				s0.4,0.4,0.5,0.7s0.2,0.6,0.2,0.9c0,0.5-0.1,0.9-0.4,1.2s-0.6,0.6-1,0.8s-1,0.3-1.6,0.3c-0.6,0-1.2-0.1-1.6-0.3s-0.8-0.5-1.1-0.8
				s-0.4-0.8-0.4-1.4h1.4c0,0.3,0.1,0.5,0.3,0.7s0.3,0.3,0.6,0.4s0.5,0.1,0.8,0.1c0.3,0,0.6,0,0.8-0.1s0.4-0.2,0.6-0.4
				s0.2-0.4,0.2-0.6c0-0.2-0.1-0.4-0.2-0.5s-0.3-0.3-0.5-0.3s-0.5-0.2-0.8-0.2l-0.9-0.2c-0.7-0.2-1.2-0.4-1.6-0.8s-0.6-0.8-0.6-1.4
				c0-0.5,0.1-0.9,0.4-1.2s0.6-0.6,1-0.8s0.9-0.3,1.5-0.3c0.6,0,1.1,0.1,1.5,0.3s0.8,0.5,1,0.8s0.4,0.7,0.4,1.2H108z"/>
			<path class="st10" d="M111.4,413.8c-0.2,0-0.4-0.1-0.6-0.2s-0.2-0.3-0.2-0.5s0.1-0.4,0.2-0.5s0.4-0.2,0.6-0.2
				c0.2,0,0.4,0.1,0.6,0.2s0.2,0.3,0.2,0.5s-0.1,0.4-0.2,0.5S111.6,413.8,111.4,413.8z M110.7,420.7v-6h1.4v6H110.7z"/>
			<path class="st10" d="M116.2,423c-0.5,0-0.9-0.1-1.3-0.2c-0.4-0.1-0.7-0.3-0.9-0.5c-0.2-0.2-0.4-0.5-0.5-0.8l1.3-0.3
				c0.1,0.1,0.1,0.2,0.2,0.3s0.3,0.2,0.4,0.3c0.2,0.1,0.4,0.1,0.7,0.1c0.4,0,0.7-0.1,1-0.3c0.3-0.2,0.4-0.5,0.4-1v-1.1h-0.1
				c-0.1,0.1-0.2,0.3-0.3,0.4c-0.1,0.2-0.3,0.3-0.6,0.4c-0.2,0.1-0.5,0.2-0.9,0.2c-0.5,0-0.9-0.1-1.3-0.3c-0.4-0.2-0.7-0.5-0.9-1
				s-0.3-1-0.3-1.6c0-0.7,0.1-1.2,0.3-1.7s0.5-0.8,0.9-1s0.8-0.4,1.3-0.4c0.4,0,0.6,0.1,0.9,0.2c0.2,0.1,0.4,0.3,0.5,0.4
				c0.1,0.2,0.2,0.3,0.3,0.5h0.1v-1h1.4v6.1c0,0.5-0.1,0.9-0.4,1.3c-0.2,0.3-0.6,0.6-1,0.8C117.2,423,116.7,423,116.2,423z
				 M116.2,419.5c0.3,0,0.6-0.1,0.8-0.2s0.4-0.4,0.5-0.6s0.2-0.6,0.2-1c0-0.4-0.1-0.7-0.2-1c-0.1-0.3-0.3-0.5-0.5-0.7
				c-0.2-0.2-0.5-0.2-0.8-0.2c-0.3,0-0.6,0.1-0.8,0.2s-0.4,0.4-0.5,0.7c-0.1,0.3-0.2,0.6-0.2,1c0,0.4,0.1,0.7,0.2,1
				c0.1,0.3,0.3,0.5,0.5,0.6C115.6,419.4,115.9,419.5,116.2,419.5z"/>
			<path class="st10" d="M121.9,417.1v3.5h-1.4v-6h1.4v1h0.1c0.1-0.3,0.4-0.6,0.7-0.8s0.7-0.3,1.1-0.3c0.4,0,0.8,0.1,1.1,0.3
				s0.5,0.4,0.7,0.8s0.3,0.7,0.3,1.2v3.8h-1.4v-3.6c0-0.4-0.1-0.7-0.3-0.9s-0.5-0.3-0.9-0.3c-0.2,0-0.5,0.1-0.7,0.2
				s-0.3,0.3-0.4,0.5S121.9,416.9,121.9,417.1z"/>
		</g>
	</g>
</g>
</svg>
