<?xml version="1.0" encoding="utf-8"?>
<!-- Generator: Adobe Illustrator 26.0.1, SVG Export Plug-In . SVG Version: 6.00 Build 0)  -->
<svg version="1.1" id="Layer_1" xmlns="http://www.w3.org/2000/svg" xmlns:xlink="http://www.w3.org/1999/xlink" x="0px" y="0px"
	 viewBox="0 0 156.5 626" style="enable-background:new 0 0 156.5 626;" xml:space="preserve">
<style type="text/css">
	.st0{fill:#70AD45;}
	.st1{fill:#FFFFFF;}
	.st2{fill:#EC7E30;}
	.st3{opacity:0.9;fill:#FFFFFF;enable-background:new    ;}
	.st4{fill:none;stroke:#EC7E30;stroke-miterlimit:10;}
	.st5{fill:#009447;}
	.st6{fill:#A5A4A4;}
	.st7{fill:#4A72B8;}
	.st8{fill:#70AD44;}
	.st9{fill:#FDC015;}
	.st10{fill:#038643;}
	.st11{fill:#009444;}
	.st12{fill-rule:evenodd;clip-rule:evenodd;fill:#009447;}
</style>
<path class="st7" d="M140.9,63.2c0.3,39.2-36.2,61.2-62.2,83.9c-1.6,1.5-25.8-22.6-28.8-25.2C32.2,106.3,15.1,87.2,15.6,62
	C16,39.2,29.1,17.9,49.3,7.2C58.3,2.5,68.4,0,78.7,0C115.3,0.1,140.6,30.8,140.9,63.2z"/>
<circle class="st1" cx="78.2" cy="62.3" r="57"/>
<polygon class="st2" points="140.4,203.4 140.4,203.4 105.6,236.8 0,236.8 34.8,203.4 34.8,203.4 0,170.1 105.6,170.1 "/>
<g>
	<path class="st3" d="M152.6,242.4H58.3c-1.9,0-3.4-1.5-3.4-3.4v-38.4c0-1.9,1.5-3.4,3.4-3.4h94.3c1.9,0,3.4,1.5,3.4,3.4v38.4
		C156,240.8,154.4,242.4,152.6,242.4z"/>
	<path class="st4" d="M152.6,242.4H58.3c-1.9,0-3.4-1.5-3.4-3.4v-38.4c0-1.9,1.5-3.4,3.4-3.4h94.3c1.9,0,3.4,1.5,3.4,3.4v38.4
		C156,240.8,154.4,242.4,152.6,242.4z"/>
</g>
<polygon class="st6" points="140.4,299.2 140.4,299.2 105.6,332.5 0,332.5 34.8,299.2 34.8,299.2 0,265.8 105.6,265.8 "/>
<g>
	<path class="st3" d="M152.6,338.2H58.3c-1.9,0-3.4-1.5-3.4-3.4v-38.4c0-1.9,1.5-3.4,3.4-3.4h94.3c1.9,0,3.4,1.5,3.4,3.4v38.4
		C156,336.6,154.4,338.2,152.6,338.2z"/>
	<path class="st4" d="M152.6,338.2H58.3c-1.9,0-3.4-1.5-3.4-3.4v-38.4c0-1.9,1.5-3.4,3.4-3.4h94.3c1.9,0,3.4,1.5,3.4,3.4v38.4
		C156,336.6,154.4,338.2,152.6,338.2z"/>
</g>
<polygon class="st7" points="140.4,490.7 140.4,490.7 105.6,524 0,524 34.8,490.7 34.8,490.7 0,457.3 105.6,457.3 "/>
<g>
	<path class="st3" d="M152.6,529.7H58.3c-1.9,0-3.4-1.5-3.4-3.4v-38.4c0-1.9,1.5-3.4,3.4-3.4h94.3c1.9,0,3.4,1.5,3.4,3.4v38.4
		C156,528.1,154.4,529.7,152.6,529.7z"/>
	<path class="st4" d="M152.6,529.7H58.3c-1.9,0-3.4-1.5-3.4-3.4v-38.4c0-1.9,1.5-3.4,3.4-3.4h94.3c1.9,0,3.4,1.5,3.4,3.4v38.4
		C156,528.1,154.4,529.7,152.6,529.7z"/>
</g>
<polygon class="st8" points="140.4,586.5 140.4,586.5 105.6,619.8 0,619.8 34.8,586.5 34.8,586.5 0,553.1 105.6,553.1 "/>
<g>
	<path class="st3" d="M152.6,625.5H58.3c-1.9,0-3.4-1.5-3.4-3.4v-38.4c0-1.9,1.5-3.4,3.4-3.4h94.3c1.9,0,3.4,1.5,3.4,3.4V622
		C156,623.9,154.4,625.5,152.6,625.5z"/>
	<path class="st4" d="M152.6,625.5H58.3c-1.9,0-3.4-1.5-3.4-3.4v-38.4c0-1.9,1.5-3.4,3.4-3.4h94.3c1.9,0,3.4,1.5,3.4,3.4V622
		C156,623.9,154.4,625.5,152.6,625.5z"/>
</g>
<polygon class="st9" points="140.4,394.9 140.4,394.9 105.6,428.3 0,428.3 34.8,394.9 34.8,394.9 0,361.6 105.6,361.6 "/>
<g>
	<path class="st3" d="M152.6,433.8H58.3c-1.9,0-3.4-1.5-3.4-3.4v-38.4c0-1.9,1.5-3.4,3.4-3.4h94.3c1.9,0,3.4,1.5,3.4,3.4v38.4
		C156,432.3,154.4,433.8,152.6,433.8z"/>
	<path class="st4" d="M152.6,433.8H58.3c-1.9,0-3.4-1.5-3.4-3.4v-38.4c0-1.9,1.5-3.4,3.4-3.4h94.3c1.9,0,3.4,1.5,3.4,3.4v38.4
		C156,432.3,154.4,433.8,152.6,433.8z"/>
</g>
<g>
	<path d="M72.5,40.8v-1.2l3.7-3.8c0.4-0.4,0.7-0.8,1-1.1s0.5-0.6,0.6-0.9c0.1-0.3,0.2-0.6,0.2-0.9c0-0.4-0.1-0.7-0.3-0.9
		c-0.2-0.3-0.4-0.5-0.7-0.6c-0.3-0.1-0.6-0.2-1-0.2c-0.4,0-0.7,0.1-1,0.2c-0.3,0.2-0.5,0.4-0.7,0.7c-0.2,0.3-0.2,0.6-0.2,1h-1.6
		c0-0.7,0.2-1.2,0.5-1.7c0.3-0.5,0.7-0.9,1.3-1.2c0.5-0.3,1.1-0.4,1.8-0.4c0.7,0,1.3,0.1,1.8,0.4c0.5,0.3,0.9,0.6,1.2,1.1
		c0.3,0.5,0.4,1,0.4,1.6c0,0.4-0.1,0.8-0.2,1.2s-0.4,0.8-0.8,1.3c-0.4,0.5-0.9,1-1.6,1.7l-2.2,2.3v0.1h4.9v1.4H72.5z"/>
	<path d="M82.8,40.9c-0.3,0-0.5-0.1-0.8-0.3c-0.2-0.2-0.3-0.5-0.3-0.8c0-0.3,0.1-0.5,0.3-0.7c0.2-0.2,0.5-0.3,0.8-0.3
		c0.3,0,0.5,0.1,0.8,0.3c0.2,0.2,0.3,0.5,0.3,0.7c0,0.2,0,0.4-0.1,0.5c-0.1,0.2-0.2,0.3-0.4,0.4C83.2,40.8,83,40.9,82.8,40.9z"/>
	<path d="M50,51.4h-1.7c-0.1-0.4-0.2-0.7-0.4-0.9c-0.2-0.3-0.4-0.5-0.6-0.7c-0.3-0.2-0.5-0.3-0.8-0.4s-0.6-0.1-1-0.1
		c-0.6,0-1.2,0.2-1.7,0.5c-0.5,0.3-0.9,0.8-1.2,1.4c-0.3,0.6-0.4,1.4-0.4,2.2c0,0.9,0.1,1.6,0.4,2.2c0.3,0.6,0.7,1.1,1.2,1.4
		s1.1,0.5,1.7,0.5c0.3,0,0.7,0,1-0.1c0.3-0.1,0.6-0.2,0.8-0.4c0.3-0.2,0.5-0.4,0.6-0.7c0.2-0.3,0.3-0.6,0.4-0.9l1.7,0
		c-0.1,0.5-0.3,1-0.5,1.5s-0.6,0.8-1,1.2c-0.4,0.3-0.8,0.6-1.4,0.8s-1.1,0.3-1.7,0.3c-0.9,0-1.8-0.2-2.5-0.7s-1.3-1.1-1.7-1.9
		s-0.6-1.8-0.6-3c0-1.2,0.2-2.2,0.6-3c0.4-0.8,1-1.5,1.7-1.9c0.7-0.4,1.6-0.7,2.5-0.7c0.6,0,1.1,0.1,1.6,0.2c0.5,0.2,1,0.4,1.4,0.7
		c0.4,0.3,0.7,0.7,1,1.2S49.9,50.8,50,51.4z"/>
	<path d="M57.1,55.4v-4.8h1.6v8.2h-1.6v-1.4H57c-0.2,0.4-0.5,0.8-0.9,1.1c-0.4,0.3-0.9,0.4-1.5,0.4c-0.5,0-1-0.1-1.4-0.3
		c-0.4-0.2-0.7-0.6-0.9-1s-0.3-1-0.3-1.7v-5.2h1.6v5c0,0.6,0.2,1,0.5,1.3c0.3,0.3,0.7,0.5,1.2,0.5c0.3,0,0.6-0.1,0.9-0.2
		c0.3-0.1,0.5-0.4,0.7-0.7C57,56.2,57.1,55.8,57.1,55.4z"/>
	<path d="M66.9,52.6l-1.4,0.3c-0.1-0.2-0.2-0.4-0.3-0.5s-0.3-0.3-0.5-0.4c-0.2-0.1-0.5-0.2-0.8-0.2c-0.5,0-0.8,0.1-1.1,0.3
		c-0.3,0.2-0.5,0.5-0.5,0.8c0,0.3,0.1,0.5,0.3,0.7c0.2,0.2,0.5,0.3,1,0.4l1.3,0.3c0.8,0.2,1.3,0.4,1.7,0.8c0.4,0.4,0.6,0.8,0.6,1.4
		c0,0.5-0.1,0.9-0.4,1.3c-0.3,0.4-0.7,0.7-1.2,0.9c-0.5,0.2-1.1,0.3-1.7,0.3c-0.9,0-1.7-0.2-2.2-0.6c-0.6-0.4-0.9-1-1.1-1.7l1.5-0.2
		c0.1,0.4,0.3,0.7,0.6,0.9c0.3,0.2,0.7,0.3,1.2,0.3c0.5,0,0.9-0.1,1.3-0.3c0.3-0.2,0.5-0.5,0.5-0.8c0-0.3-0.1-0.5-0.3-0.6
		c-0.2-0.2-0.5-0.3-0.9-0.4l-1.4-0.3c-0.8-0.2-1.3-0.5-1.7-0.8c-0.4-0.4-0.5-0.9-0.5-1.4c0-0.5,0.1-0.9,0.4-1.3s0.6-0.6,1.1-0.8
		c0.5-0.2,1-0.3,1.6-0.3c0.9,0,1.6,0.2,2.1,0.6S66.8,52,66.9,52.6z"/>
	<path d="M72.6,50.6v1.3h-4.5v-1.3H72.6z M69.4,48.6H71v7.7c0,0.3,0,0.5,0.1,0.7s0.2,0.3,0.4,0.3s0.3,0.1,0.5,0.1c0.1,0,0.2,0,0.3,0
		c0.1,0,0.2,0,0.2,0l0.3,1.3c-0.1,0-0.2,0.1-0.4,0.1c-0.2,0-0.4,0.1-0.6,0.1c-0.4,0-0.8-0.1-1.2-0.2c-0.4-0.2-0.7-0.4-0.9-0.7
		c-0.2-0.3-0.3-0.7-0.3-1.2V48.6z"/>
	<path d="M77.8,58.9c-0.8,0-1.4-0.2-2-0.5s-1-0.8-1.3-1.5c-0.3-0.6-0.5-1.4-0.5-2.2c0-0.8,0.2-1.6,0.5-2.2s0.8-1.1,1.3-1.5
		s1.2-0.5,2-0.5s1.4,0.2,2,0.5c0.6,0.4,1,0.8,1.3,1.5s0.5,1.4,0.5,2.2c0,0.8-0.2,1.6-0.5,2.2c-0.3,0.6-0.8,1.1-1.3,1.5
		C79.3,58.8,78.6,58.9,77.8,58.9z M77.9,57.6c0.5,0,0.9-0.1,1.2-0.4s0.6-0.6,0.7-1c0.2-0.4,0.2-0.9,0.2-1.4c0-0.5-0.1-1-0.2-1.4
		c-0.2-0.4-0.4-0.8-0.7-1.1c-0.3-0.3-0.7-0.4-1.2-0.4c-0.5,0-0.9,0.1-1.2,0.4c-0.3,0.3-0.6,0.6-0.7,1.1c-0.2,0.4-0.2,0.9-0.2,1.4
		c0,0.5,0.1,1,0.2,1.4s0.4,0.8,0.7,1C76.9,57.5,77.4,57.6,77.9,57.6z"/>
	<path d="M83.4,58.8v-8.2H85v1.3h0.1c0.2-0.5,0.4-0.8,0.8-1.1c0.4-0.3,0.9-0.4,1.4-0.4c0.5,0,1,0.1,1.4,0.4s0.6,0.6,0.8,1.1h0.1
		c0.2-0.4,0.5-0.8,0.9-1s0.9-0.4,1.5-0.4c0.7,0,1.3,0.2,1.8,0.7c0.5,0.5,0.7,1.2,0.7,2.1v5.5H93v-5.3c0-0.6-0.2-1-0.5-1.2
		c-0.3-0.2-0.7-0.4-1.1-0.4c-0.5,0-0.9,0.2-1.2,0.5c-0.3,0.3-0.4,0.7-0.4,1.2v5.2h-1.6v-5.4c0-0.4-0.1-0.8-0.4-1.1
		c-0.3-0.3-0.6-0.4-1.1-0.4c-0.3,0-0.6,0.1-0.8,0.2s-0.5,0.4-0.6,0.7c-0.2,0.3-0.2,0.6-0.2,1v5H83.4z"/>
	<path d="M97.5,49.3c-0.3,0-0.5-0.1-0.7-0.3c-0.2-0.2-0.3-0.4-0.3-0.7c0-0.3,0.1-0.5,0.3-0.7c0.2-0.2,0.4-0.3,0.7-0.3
		s0.5,0.1,0.7,0.3c0.2,0.2,0.3,0.4,0.3,0.7c0,0.3-0.1,0.5-0.3,0.7C98,49.2,97.8,49.3,97.5,49.3z M96.7,58.8v-8.2h1.6v8.2H96.7z"/>
	<path d="M100.3,58.8v-1.1l4.4-5.6V52h-4.3v-1.4h6.3v1.2l-4.3,5.6v0.1h4.4v1.4H100.3z"/>
	<path d="M112.2,58.9c-0.8,0-1.5-0.2-2.1-0.5c-0.6-0.3-1-0.8-1.3-1.5c-0.3-0.6-0.5-1.4-0.5-2.2c0-0.8,0.2-1.6,0.5-2.2
		c0.3-0.6,0.8-1.1,1.3-1.5s1.2-0.5,2-0.5c0.5,0,0.9,0.1,1.3,0.2c0.4,0.2,0.8,0.4,1.2,0.7c0.3,0.3,0.6,0.8,0.8,1.3
		c0.2,0.5,0.3,1.2,0.3,1.9v0.6h-6.5V54h4.9c0-0.4-0.1-0.8-0.3-1.1c-0.2-0.3-0.4-0.6-0.7-0.8c-0.3-0.2-0.7-0.3-1.1-0.3
		c-0.4,0-0.8,0.1-1.2,0.3c-0.3,0.2-0.6,0.5-0.8,0.9c-0.2,0.4-0.3,0.7-0.3,1.1v0.9c0,0.5,0.1,1,0.3,1.4c0.2,0.4,0.5,0.7,0.8,0.9
		c0.3,0.2,0.8,0.3,1.2,0.3c0.3,0,0.6,0,0.8-0.1c0.2-0.1,0.5-0.2,0.6-0.4c0.2-0.2,0.3-0.4,0.4-0.6l1.5,0.3c-0.1,0.4-0.3,0.8-0.6,1.2
		c-0.3,0.3-0.7,0.6-1.2,0.8C113.4,58.9,112.8,58.9,112.2,58.9z"/>
	<path d="M55.4,68.7c-0.1-0.5-0.3-0.9-0.7-1.2c-0.4-0.3-0.9-0.4-1.6-0.4c-0.4,0-0.8,0.1-1.2,0.2c-0.3,0.1-0.6,0.3-0.8,0.6
		c-0.2,0.2-0.3,0.5-0.3,0.8c0,0.3,0.1,0.5,0.2,0.7s0.3,0.3,0.5,0.5s0.4,0.2,0.6,0.3c0.2,0.1,0.5,0.2,0.7,0.2l1.1,0.3
		c0.3,0.1,0.7,0.2,1.1,0.3c0.4,0.1,0.7,0.3,1,0.6c0.3,0.2,0.6,0.5,0.8,0.9c0.2,0.4,0.3,0.8,0.3,1.3c0,0.6-0.2,1.2-0.5,1.6
		c-0.3,0.5-0.8,0.9-1.4,1.1C54.7,76.8,54,77,53.1,77c-0.8,0-1.5-0.1-2.1-0.4c-0.6-0.3-1.1-0.6-1.4-1.1s-0.5-1-0.6-1.7h1.7
		c0,0.4,0.2,0.7,0.4,1c0.2,0.3,0.5,0.5,0.9,0.6c0.4,0.1,0.7,0.2,1.2,0.2c0.5,0,0.9-0.1,1.2-0.2c0.4-0.1,0.7-0.4,0.9-0.6
		c0.2-0.3,0.3-0.6,0.3-0.9c0-0.3-0.1-0.6-0.3-0.8c-0.2-0.2-0.4-0.4-0.7-0.5s-0.7-0.3-1.1-0.4l-1.3-0.4c-0.9-0.2-1.6-0.6-2.1-1
		c-0.5-0.5-0.8-1.1-0.8-1.8c0-0.6,0.2-1.2,0.5-1.6s0.8-0.8,1.4-1.1c0.6-0.3,1.2-0.4,2-0.4c0.7,0,1.4,0.1,2,0.4
		c0.6,0.3,1,0.6,1.3,1.1c0.3,0.5,0.5,1,0.5,1.6H55.4z"/>
	<path d="M62.5,76.9c-0.8,0-1.5-0.2-2.1-0.5c-0.6-0.3-1-0.8-1.3-1.5c-0.3-0.6-0.5-1.4-0.5-2.2c0-0.8,0.2-1.6,0.5-2.2
		c0.3-0.6,0.8-1.1,1.3-1.5s1.2-0.5,2-0.5c0.5,0,0.9,0.1,1.3,0.2c0.4,0.2,0.8,0.4,1.2,0.7c0.3,0.3,0.6,0.8,0.8,1.3
		c0.2,0.5,0.3,1.2,0.3,1.9v0.6h-6.5V72h4.9c0-0.4-0.1-0.8-0.3-1.1c-0.2-0.3-0.4-0.6-0.7-0.8c-0.3-0.2-0.7-0.3-1.1-0.3
		c-0.4,0-0.8,0.1-1.2,0.3c-0.3,0.2-0.6,0.5-0.8,0.9c-0.2,0.4-0.3,0.7-0.3,1.1v0.9c0,0.5,0.1,1,0.3,1.4c0.2,0.4,0.5,0.7,0.8,0.9
		c0.3,0.2,0.8,0.3,1.2,0.3c0.3,0,0.6,0,0.8-0.1c0.2-0.1,0.5-0.2,0.6-0.4c0.2-0.2,0.3-0.4,0.4-0.6l1.5,0.3c-0.1,0.4-0.3,0.8-0.6,1.2
		c-0.3,0.3-0.7,0.6-1.2,0.8C63.7,76.9,63.1,76.9,62.5,76.9z"/>
	<path d="M71.3,76.9c-0.8,0-1.5-0.2-2-0.5c-0.6-0.4-1-0.9-1.3-1.5c-0.3-0.6-0.5-1.4-0.5-2.2c0-0.8,0.2-1.6,0.5-2.2s0.8-1.1,1.3-1.5
		c0.6-0.4,1.2-0.5,2-0.5c0.6,0,1.2,0.1,1.7,0.3c0.5,0.2,0.9,0.5,1.2,1c0.3,0.4,0.5,0.9,0.5,1.4h-1.6c-0.1-0.4-0.3-0.7-0.6-1
		c-0.3-0.3-0.7-0.4-1.2-0.4c-0.4,0-0.8,0.1-1.2,0.3s-0.6,0.6-0.8,1c-0.2,0.4-0.3,0.9-0.3,1.5c0,0.6,0.1,1.1,0.3,1.5s0.4,0.8,0.8,1
		s0.7,0.4,1.2,0.4c0.3,0,0.6-0.1,0.8-0.2c0.2-0.1,0.5-0.3,0.6-0.5c0.2-0.2,0.3-0.5,0.4-0.8h1.6c-0.1,0.5-0.2,1-0.5,1.4
		c-0.3,0.4-0.7,0.7-1.2,1C72.5,76.8,71.9,76.9,71.3,76.9z"/>
	<path d="M80.2,68.6v1.3h-4.5v-1.3H80.2z M76.9,66.6h1.6v7.7c0,0.3,0,0.5,0.1,0.7s0.2,0.3,0.4,0.3s0.3,0.1,0.5,0.1
		c0.1,0,0.2,0,0.3,0c0.1,0,0.2,0,0.2,0l0.3,1.3c-0.1,0-0.2,0.1-0.4,0.1c-0.2,0-0.4,0.1-0.6,0.1c-0.4,0-0.8-0.1-1.2-0.2
		c-0.4-0.2-0.7-0.4-0.9-0.7c-0.2-0.3-0.3-0.7-0.3-1.2V66.6z"/>
	<path d="M85.4,76.9c-0.8,0-1.4-0.2-2-0.5s-1-0.8-1.3-1.5c-0.3-0.6-0.5-1.4-0.5-2.2c0-0.8,0.2-1.6,0.5-2.2s0.8-1.1,1.3-1.5
		s1.2-0.5,2-0.5s1.4,0.2,2,0.5c0.6,0.4,1,0.8,1.3,1.5s0.5,1.4,0.5,2.2c0,0.8-0.2,1.6-0.5,2.2c-0.3,0.6-0.8,1.1-1.3,1.5
		C86.8,76.8,86.1,76.9,85.4,76.9z M85.4,75.6c0.5,0,0.9-0.1,1.2-0.4s0.6-0.6,0.7-1c0.2-0.4,0.2-0.9,0.2-1.4c0-0.5-0.1-1-0.2-1.4
		c-0.2-0.4-0.4-0.8-0.7-1.1c-0.3-0.3-0.7-0.4-1.2-0.4c-0.5,0-0.9,0.1-1.2,0.4c-0.3,0.3-0.6,0.6-0.7,1.1c-0.2,0.4-0.2,0.9-0.2,1.4
		c0,0.5,0.1,1,0.2,1.4s0.4,0.8,0.7,1C84.5,75.5,84.9,75.6,85.4,75.6z"/>
	<path d="M91,76.8v-8.2h1.5v1.3h0.1c0.1-0.4,0.4-0.8,0.8-1s0.8-0.4,1.3-0.4c0.1,0,0.2,0,0.4,0c0.1,0,0.2,0,0.3,0V70
		c-0.1,0-0.2,0-0.3-0.1c-0.2,0-0.3,0-0.5,0c-0.4,0-0.7,0.1-1,0.2c-0.3,0.2-0.5,0.4-0.7,0.7c-0.2,0.3-0.3,0.6-0.3,1v5H91z"/>
	<path d="M99.1,77c-0.5,0-1-0.1-1.4-0.3c-0.4-0.2-0.8-0.5-1-0.8c-0.2-0.4-0.4-0.8-0.4-1.4c0-0.5,0.1-0.8,0.3-1.1
		c0.2-0.3,0.4-0.5,0.7-0.7c0.3-0.2,0.6-0.3,1-0.4c0.4-0.1,0.8-0.2,1.1-0.2c0.5-0.1,0.9-0.1,1.2-0.1c0.3,0,0.5-0.1,0.7-0.2
		c0.1-0.1,0.2-0.2,0.2-0.4v0c0-0.5-0.1-0.8-0.4-1.1c-0.3-0.3-0.6-0.4-1.2-0.4c-0.5,0-1,0.1-1.3,0.4s-0.5,0.5-0.6,0.8l-1.5-0.3
		c0.2-0.5,0.4-0.9,0.8-1.2c0.3-0.3,0.7-0.5,1.2-0.7c0.4-0.1,0.9-0.2,1.4-0.2c0.3,0,0.7,0,1,0.1s0.7,0.2,1,0.4
		c0.3,0.2,0.6,0.5,0.8,0.9c0.2,0.4,0.3,0.9,0.3,1.5v5.4h-1.6v-1.1h-0.1c-0.1,0.2-0.3,0.4-0.5,0.6c-0.2,0.2-0.5,0.4-0.8,0.5
		C99.9,76.9,99.5,77,99.1,77z M99.4,75.7c0.4,0,0.8-0.1,1.1-0.3c0.3-0.2,0.6-0.4,0.7-0.7c0.2-0.3,0.2-0.6,0.2-0.9v-1.1
		c-0.1,0.1-0.2,0.1-0.3,0.2s-0.3,0.1-0.6,0.1c-0.2,0-0.4,0.1-0.6,0.1c-0.2,0-0.4,0-0.5,0.1c-0.3,0-0.6,0.1-0.8,0.2
		c-0.3,0.1-0.5,0.2-0.6,0.4s-0.2,0.4-0.2,0.7c0,0.4,0.1,0.7,0.4,0.9C98.6,75.6,99,75.7,99.4,75.7z"/>
	<path d="M106.8,65.9v10.9h-1.6V65.9H106.8z"/>
	<path d="M45.7,94.8l-3-10.9h1.7l2.1,8.4h0.1l2.2-8.4h1.7l2.2,8.5h0.1l2.1-8.5h1.7l-3,10.9h-1.7l-2.3-8.2h-0.1l-2.3,8.2H45.7z"/>
	<path d="M60.5,95c-0.5,0-1-0.1-1.4-0.3c-0.4-0.2-0.8-0.5-1-0.8c-0.2-0.4-0.4-0.8-0.4-1.4c0-0.5,0.1-0.8,0.3-1.1
		c0.2-0.3,0.4-0.5,0.7-0.7c0.3-0.2,0.6-0.3,1-0.4c0.4-0.1,0.8-0.2,1.1-0.2c0.5-0.1,0.9-0.1,1.2-0.1c0.3,0,0.5-0.1,0.7-0.2
		c0.1-0.1,0.2-0.2,0.2-0.4v0c0-0.5-0.1-0.8-0.4-1.1c-0.3-0.3-0.6-0.4-1.2-0.4c-0.5,0-1,0.1-1.3,0.4s-0.5,0.5-0.6,0.8L58,88.6
		c0.2-0.5,0.4-0.9,0.8-1.2c0.3-0.3,0.7-0.5,1.2-0.7c0.4-0.1,0.9-0.2,1.4-0.2c0.3,0,0.7,0,1,0.1s0.7,0.2,1,0.4
		c0.3,0.2,0.6,0.5,0.8,0.9c0.2,0.4,0.3,0.9,0.3,1.5v5.4H63v-1.1h-0.1c-0.1,0.2-0.3,0.4-0.5,0.6c-0.2,0.2-0.5,0.4-0.8,0.5
		C61.4,94.9,61,95,60.5,95z M60.9,93.7c0.4,0,0.8-0.1,1.1-0.3c0.3-0.2,0.6-0.4,0.7-0.7c0.2-0.3,0.2-0.6,0.2-0.9v-1.1
		c-0.1,0.1-0.2,0.1-0.3,0.2s-0.3,0.1-0.6,0.1c-0.2,0-0.4,0.1-0.6,0.1c-0.2,0-0.4,0-0.5,0.1c-0.3,0-0.6,0.1-0.8,0.2
		c-0.3,0.1-0.5,0.2-0.6,0.4s-0.2,0.4-0.2,0.7c0,0.4,0.1,0.7,0.4,0.9C60.1,93.6,60.4,93.7,60.9,93.7z"/>
	<path d="M70.5,86.6v1.3H66v-1.3H70.5z M67.2,84.6h1.6v7.7c0,0.3,0,0.5,0.1,0.7s0.2,0.3,0.4,0.3s0.3,0.1,0.5,0.1c0.1,0,0.2,0,0.3,0
		c0.1,0,0.2,0,0.2,0l0.3,1.3c-0.1,0-0.2,0.1-0.4,0.1c-0.2,0-0.4,0.1-0.6,0.1c-0.4,0-0.8-0.1-1.2-0.2c-0.4-0.2-0.7-0.4-0.9-0.7
		c-0.2-0.3-0.3-0.7-0.3-1.2V84.6z"/>
	<path d="M75.7,94.9c-0.8,0-1.5-0.2-2-0.5c-0.6-0.4-1-0.9-1.3-1.5c-0.3-0.6-0.5-1.4-0.5-2.2c0-0.8,0.2-1.6,0.5-2.2s0.8-1.1,1.3-1.5
		c0.6-0.4,1.2-0.5,2-0.5c0.6,0,1.2,0.1,1.7,0.3c0.5,0.2,0.9,0.5,1.2,1c0.3,0.4,0.5,0.9,0.5,1.4h-1.6c-0.1-0.4-0.3-0.7-0.6-1
		c-0.3-0.3-0.7-0.4-1.2-0.4c-0.4,0-0.8,0.1-1.2,0.3s-0.6,0.6-0.8,1c-0.2,0.4-0.3,0.9-0.3,1.5c0,0.6,0.1,1.1,0.3,1.5s0.4,0.8,0.8,1
		s0.7,0.4,1.2,0.4c0.3,0,0.6-0.1,0.8-0.2c0.2-0.1,0.5-0.3,0.6-0.5c0.2-0.2,0.3-0.5,0.4-0.8h1.6c-0.1,0.5-0.2,1-0.5,1.4
		c-0.3,0.4-0.7,0.7-1.2,1C76.9,94.8,76.4,94.9,75.7,94.9z"/>
	<path d="M82.4,89.9v4.9h-1.6V83.9h1.6v4.1h0.1c0.2-0.4,0.5-0.8,0.9-1c0.4-0.3,0.9-0.4,1.5-0.4c0.6,0,1.1,0.1,1.5,0.3
		c0.4,0.2,0.7,0.6,1,1c0.2,0.5,0.3,1,0.3,1.7v5.2h-1.6v-5c0-0.6-0.2-1.1-0.5-1.4s-0.7-0.5-1.3-0.5c-0.4,0-0.7,0.1-1,0.2
		c-0.3,0.2-0.5,0.4-0.7,0.7C82.5,89.1,82.4,89.5,82.4,89.9z"/>
	<path d="M95.4,83.9v10.9h-1.6V83.9H95.4z"/>
	<path d="M98.3,85.3c-0.3,0-0.5-0.1-0.7-0.3c-0.2-0.2-0.3-0.4-0.3-0.7c0-0.3,0.1-0.5,0.3-0.7c0.2-0.2,0.4-0.3,0.7-0.3
		s0.5,0.1,0.7,0.3c0.2,0.2,0.3,0.4,0.3,0.7c0,0.3-0.1,0.5-0.3,0.7C98.8,85.2,98.6,85.3,98.3,85.3z M97.5,94.8v-8.2h1.6v8.2H97.5z"/>
	<path d="M107.4,88.6l-1.4,0.3c-0.1-0.2-0.2-0.4-0.3-0.5s-0.3-0.3-0.5-0.4c-0.2-0.1-0.5-0.2-0.8-0.2c-0.5,0-0.8,0.1-1.1,0.3
		c-0.3,0.2-0.5,0.5-0.5,0.8c0,0.3,0.1,0.5,0.3,0.7c0.2,0.2,0.5,0.3,1,0.4l1.3,0.3c0.8,0.2,1.3,0.4,1.7,0.8c0.4,0.4,0.6,0.8,0.6,1.4
		c0,0.5-0.1,0.9-0.4,1.3c-0.3,0.4-0.7,0.7-1.2,0.9c-0.5,0.2-1.1,0.3-1.7,0.3c-0.9,0-1.7-0.2-2.2-0.6c-0.6-0.4-0.9-1-1.1-1.7l1.5-0.2
		c0.1,0.4,0.3,0.7,0.6,0.9c0.3,0.2,0.7,0.3,1.2,0.3c0.5,0,0.9-0.1,1.3-0.3c0.3-0.2,0.5-0.5,0.5-0.8c0-0.3-0.1-0.5-0.3-0.6
		c-0.2-0.2-0.5-0.3-0.9-0.4l-1.4-0.3c-0.8-0.2-1.3-0.5-1.7-0.8c-0.4-0.4-0.5-0.9-0.5-1.4c0-0.5,0.1-0.9,0.4-1.3s0.6-0.6,1.1-0.8
		c0.5-0.2,1-0.3,1.6-0.3c0.9,0,1.6,0.2,2.1,0.6S107.2,88,107.4,88.6z"/>
	<path d="M113.1,86.6v1.3h-4.5v-1.3H113.1z M109.8,84.6h1.6v7.7c0,0.3,0,0.5,0.1,0.7s0.2,0.3,0.4,0.3s0.3,0.1,0.5,0.1
		c0.1,0,0.2,0,0.3,0c0.1,0,0.2,0,0.2,0l0.3,1.3c-0.1,0-0.2,0.1-0.4,0.1c-0.2,0-0.4,0.1-0.6,0.1c-0.4,0-0.8-0.1-1.2-0.2
		c-0.4-0.2-0.7-0.4-0.9-0.7c-0.2-0.3-0.3-0.7-0.3-1.2V84.6z"/>
</g>
<g>
	<path d="M94.5,211.1c0-0.4-0.2-0.7-0.6-0.9s-0.7-0.3-1.2-0.3c-0.4,0-0.7,0.1-0.9,0.2c-0.3,0.1-0.5,0.3-0.6,0.5
		c-0.1,0.2-0.2,0.4-0.2,0.7c0,0.2,0.1,0.4,0.2,0.5s0.2,0.3,0.4,0.4c0.2,0.1,0.3,0.2,0.5,0.2c0.2,0.1,0.3,0.1,0.5,0.2l0.8,0.2
		c0.2,0.1,0.4,0.1,0.7,0.2c0.3,0.1,0.5,0.2,0.7,0.4c0.2,0.2,0.4,0.4,0.6,0.6s0.2,0.6,0.2,0.9c0,0.4-0.1,0.8-0.3,1.2
		c-0.2,0.3-0.6,0.6-1,0.8c-0.4,0.2-1,0.3-1.6,0.3c-0.6,0-1.1-0.1-1.5-0.3c-0.4-0.2-0.7-0.4-1-0.8c-0.2-0.3-0.4-0.7-0.4-1.2h1
		c0,0.3,0.1,0.6,0.3,0.7c0.2,0.2,0.4,0.3,0.7,0.4c0.3,0.1,0.6,0.1,0.9,0.1c0.4,0,0.7-0.1,1-0.2s0.5-0.3,0.7-0.5
		c0.2-0.2,0.3-0.5,0.3-0.8c0-0.3-0.1-0.5-0.2-0.6c-0.1-0.2-0.3-0.3-0.6-0.4c-0.2-0.1-0.5-0.2-0.8-0.3l-1-0.3
		c-0.6-0.2-1.1-0.4-1.5-0.8c-0.4-0.3-0.5-0.8-0.5-1.3c0-0.4,0.1-0.8,0.4-1.2c0.2-0.3,0.6-0.6,1-0.8c0.4-0.2,0.9-0.3,1.4-0.3
		c0.5,0,1,0.1,1.4,0.3s0.7,0.4,1,0.8c0.2,0.3,0.4,0.7,0.4,1.1H94.5z"/>
	<path d="M99.6,217.3c-0.6,0-1.1-0.1-1.5-0.4c-0.4-0.3-0.7-0.6-1-1.1c-0.2-0.5-0.3-1-0.3-1.6c0-0.6,0.1-1.2,0.3-1.6
		c0.2-0.5,0.5-0.8,0.9-1.1c0.4-0.3,0.9-0.4,1.4-0.4c0.3,0,0.6,0.1,0.9,0.2c0.3,0.1,0.6,0.3,0.8,0.5c0.2,0.2,0.4,0.5,0.6,0.9
		s0.2,0.9,0.2,1.4v0.4h-4.6v-0.8h3.7c0-0.3-0.1-0.6-0.2-0.9s-0.3-0.5-0.6-0.6c-0.2-0.2-0.5-0.2-0.9-0.2c-0.4,0-0.7,0.1-1,0.3
		c-0.3,0.2-0.5,0.4-0.6,0.7s-0.2,0.6-0.2,0.9v0.5c0,0.5,0.1,0.8,0.2,1.2c0.2,0.3,0.4,0.6,0.7,0.7c0.3,0.2,0.6,0.2,1,0.2
		c0.2,0,0.5,0,0.7-0.1c0.2-0.1,0.4-0.2,0.5-0.3c0.1-0.1,0.3-0.3,0.3-0.5l0.9,0.2c-0.1,0.3-0.3,0.6-0.5,0.8c-0.2,0.2-0.5,0.4-0.8,0.5
		C100.4,217.2,100,217.3,99.6,217.3z"/>
	<path d="M104.4,209.1v8h-0.9v-8H104.4z"/>
	<path d="M108.6,217.3c-0.6,0-1.1-0.1-1.5-0.4c-0.4-0.3-0.7-0.6-1-1.1c-0.2-0.5-0.3-1-0.3-1.6c0-0.6,0.1-1.2,0.3-1.6
		c0.2-0.5,0.5-0.8,0.9-1.1c0.4-0.3,0.9-0.4,1.4-0.4c0.3,0,0.6,0.1,0.9,0.2c0.3,0.1,0.6,0.3,0.8,0.5c0.2,0.2,0.4,0.5,0.6,0.9
		s0.2,0.9,0.2,1.4v0.4h-4.6v-0.8h3.7c0-0.3-0.1-0.6-0.2-0.9s-0.3-0.5-0.6-0.6c-0.2-0.2-0.5-0.2-0.9-0.2c-0.4,0-0.7,0.1-1,0.3
		c-0.3,0.2-0.5,0.4-0.6,0.7s-0.2,0.6-0.2,0.9v0.5c0,0.5,0.1,0.8,0.2,1.2c0.2,0.3,0.4,0.6,0.7,0.7c0.3,0.2,0.6,0.2,1,0.2
		c0.2,0,0.5,0,0.7-0.1c0.2-0.1,0.4-0.2,0.5-0.3c0.1-0.1,0.3-0.3,0.3-0.5l0.9,0.2c-0.1,0.3-0.3,0.6-0.5,0.8c-0.2,0.2-0.5,0.4-0.8,0.5
		C109.4,217.2,109,217.3,108.6,217.3z"/>
	<path d="M114.9,217.3c-0.6,0-1-0.1-1.5-0.4s-0.7-0.6-0.9-1.1c-0.2-0.5-0.3-1-0.3-1.6c0-0.6,0.1-1.1,0.3-1.6
		c0.2-0.5,0.5-0.8,0.9-1.1c0.4-0.3,0.9-0.4,1.4-0.4c0.4,0,0.8,0.1,1.1,0.2c0.3,0.2,0.6,0.4,0.8,0.7c0.2,0.3,0.4,0.6,0.4,1h-0.9
		c-0.1-0.3-0.2-0.5-0.5-0.7c-0.2-0.2-0.6-0.3-1-0.3c-0.4,0-0.7,0.1-0.9,0.3c-0.3,0.2-0.5,0.4-0.6,0.8c-0.1,0.3-0.2,0.7-0.2,1.2
		c0,0.5,0.1,0.9,0.2,1.2s0.4,0.6,0.6,0.8c0.3,0.2,0.6,0.3,1,0.3c0.2,0,0.5,0,0.7-0.1c0.2-0.1,0.4-0.2,0.5-0.4
		c0.1-0.2,0.2-0.3,0.3-0.6h0.9c-0.1,0.4-0.2,0.7-0.4,1c-0.2,0.3-0.5,0.5-0.8,0.7C115.8,217.2,115.4,217.3,114.9,217.3z"/>
	<path d="M121.2,211.1v0.8h-3.1v-0.8H121.2z M119,209.7h0.9v5.7c0,0.3,0,0.5,0.1,0.6s0.2,0.2,0.3,0.3s0.2,0.1,0.4,0.1
		c0.1,0,0.2,0,0.2,0s0.1,0,0.2,0l0.2,0.8c-0.1,0-0.1,0-0.3,0.1c-0.1,0-0.3,0-0.4,0c-0.3,0-0.5-0.1-0.8-0.2c-0.2-0.1-0.5-0.3-0.6-0.5
		c-0.2-0.2-0.2-0.5-0.2-0.9V209.7z"/>
	<path class="st5" d="M81.8,230.3l-2.2-8h1.3l1.6,6.2h0.1l1.6-6.2h1.3l1.6,6.2H87l1.6-6.2h1.3l-2.2,8h-1.2l-1.7-6h-0.1l-1.7,6H81.8z
		"/>
	<path class="st5" d="M92.6,230.5c-0.4,0-0.7-0.1-1-0.2c-0.3-0.1-0.6-0.3-0.7-0.6c-0.2-0.3-0.3-0.6-0.3-1c0-0.3,0.1-0.6,0.2-0.8
		s0.3-0.4,0.5-0.5c0.2-0.1,0.5-0.2,0.7-0.3c0.3-0.1,0.6-0.1,0.8-0.1c0.4,0,0.7-0.1,0.9-0.1s0.4-0.1,0.5-0.1s0.2-0.2,0.2-0.3v0
		c0-0.3-0.1-0.6-0.3-0.8s-0.5-0.3-0.9-0.3c-0.4,0-0.7,0.1-0.9,0.3c-0.2,0.2-0.4,0.4-0.5,0.6l-1.1-0.2c0.1-0.4,0.3-0.7,0.6-0.9
		c0.3-0.2,0.5-0.4,0.9-0.5c0.3-0.1,0.7-0.2,1-0.2c0.2,0,0.5,0,0.8,0.1c0.3,0.1,0.5,0.2,0.8,0.3s0.4,0.4,0.6,0.6
		c0.2,0.3,0.2,0.6,0.2,1.1v4h-1.1v-0.8h0c-0.1,0.2-0.2,0.3-0.3,0.4c-0.2,0.1-0.3,0.3-0.6,0.4C93.2,230.4,92.9,230.5,92.6,230.5z
		 M92.9,229.5c0.3,0,0.6-0.1,0.8-0.2c0.2-0.1,0.4-0.3,0.5-0.5s0.2-0.4,0.2-0.7v-0.8c0,0-0.1,0.1-0.2,0.1s-0.3,0.1-0.4,0.1
		c-0.2,0-0.3,0-0.4,0.1s-0.3,0-0.4,0c-0.2,0-0.4,0.1-0.6,0.1c-0.2,0.1-0.3,0.2-0.4,0.3c-0.1,0.1-0.2,0.3-0.2,0.5
		c0,0.3,0.1,0.5,0.3,0.7C92.3,229.5,92.5,229.5,92.9,229.5z"/>
	<path class="st5" d="M99.9,224.3v0.9h-3.3v-0.9H99.9z M97.5,222.9h1.2v5.7c0,0.2,0,0.4,0.1,0.5s0.2,0.2,0.3,0.2
		c0.1,0,0.2,0.1,0.4,0.1c0.1,0,0.2,0,0.2,0c0.1,0,0.1,0,0.2,0l0.2,1c-0.1,0-0.2,0.1-0.3,0.1s-0.3,0-0.5,0c-0.3,0-0.6,0-0.9-0.2
		c-0.3-0.1-0.5-0.3-0.6-0.5c-0.2-0.2-0.2-0.5-0.2-0.9V222.9z"/>
	<path class="st5" d="M103.7,230.5c-0.6,0-1.1-0.1-1.5-0.4c-0.4-0.3-0.7-0.6-1-1.1c-0.2-0.5-0.3-1-0.3-1.6c0-0.6,0.1-1.1,0.3-1.6
		c0.2-0.5,0.6-0.8,1-1.1c0.4-0.3,0.9-0.4,1.5-0.4c0.5,0,0.9,0.1,1.2,0.3s0.6,0.4,0.9,0.7c0.2,0.3,0.4,0.7,0.4,1.1h-1.1
		c-0.1-0.3-0.2-0.5-0.4-0.7s-0.5-0.3-0.9-0.3c-0.3,0-0.6,0.1-0.9,0.3c-0.2,0.2-0.4,0.4-0.6,0.7c-0.1,0.3-0.2,0.7-0.2,1.1
		c0,0.4,0.1,0.8,0.2,1.1c0.1,0.3,0.3,0.6,0.6,0.7c0.2,0.2,0.5,0.3,0.9,0.3c0.2,0,0.4,0,0.6-0.1s0.3-0.2,0.5-0.4
		c0.1-0.2,0.2-0.3,0.3-0.6h1.1c0,0.4-0.2,0.7-0.4,1s-0.5,0.5-0.8,0.7C104.6,230.4,104.2,230.5,103.7,230.5z"/>
	<path class="st5" d="M108.6,226.8v3.6h-1.2v-8h1.2v3h0.1c0.1-0.3,0.4-0.6,0.6-0.8c0.3-0.2,0.7-0.3,1.1-0.3c0.4,0,0.8,0.1,1.1,0.3
		c0.3,0.2,0.5,0.4,0.7,0.8c0.2,0.3,0.3,0.8,0.3,1.3v3.8h-1.2v-3.7c0-0.4-0.1-0.8-0.3-1c-0.2-0.2-0.5-0.4-0.9-0.4
		c-0.3,0-0.5,0.1-0.7,0.2s-0.4,0.3-0.5,0.5C108.7,226.2,108.6,226.5,108.6,226.8z"/>
	<path class="st5" d="M118.2,222.3v8H117v-8H118.2z"/>
	<path class="st5" d="M120.3,223.4c-0.2,0-0.4-0.1-0.5-0.2s-0.2-0.3-0.2-0.5c0-0.2,0.1-0.4,0.2-0.5s0.3-0.2,0.5-0.2s0.4,0.1,0.5,0.2
		s0.2,0.3,0.2,0.5c0,0.2-0.1,0.4-0.2,0.5S120.5,223.4,120.3,223.4z M119.7,230.3v-6h1.2v6H119.7z"/>
	<path class="st5" d="M127,225.8l-1.1,0.2c0-0.1-0.1-0.3-0.2-0.4c-0.1-0.1-0.2-0.2-0.4-0.3s-0.4-0.1-0.6-0.1c-0.3,0-0.6,0.1-0.8,0.2
		c-0.2,0.1-0.3,0.3-0.3,0.6c0,0.2,0.1,0.4,0.2,0.5c0.1,0.1,0.4,0.2,0.7,0.3l1,0.2c0.6,0.1,1,0.3,1.2,0.6s0.4,0.6,0.4,1
		c0,0.4-0.1,0.7-0.3,1c-0.2,0.3-0.5,0.5-0.9,0.7c-0.4,0.2-0.8,0.2-1.3,0.2c-0.7,0-1.2-0.1-1.6-0.4c-0.4-0.3-0.7-0.7-0.8-1.2l1.1-0.2
		c0.1,0.3,0.2,0.5,0.4,0.7c0.2,0.1,0.5,0.2,0.9,0.2c0.4,0,0.7-0.1,0.9-0.2s0.3-0.4,0.3-0.6c0-0.2-0.1-0.3-0.2-0.5
		c-0.1-0.1-0.4-0.2-0.6-0.3l-1-0.2c-0.6-0.1-1-0.3-1.2-0.6c-0.3-0.3-0.4-0.6-0.4-1.1c0-0.4,0.1-0.7,0.3-0.9s0.5-0.5,0.8-0.6
		c0.3-0.2,0.7-0.2,1.2-0.2c0.6,0,1.2,0.1,1.5,0.4C126.6,225,126.8,225.3,127,225.8z"/>
	<path class="st5" d="M131.2,224.3v0.9h-3.3v-0.9H131.2z M128.8,222.9h1.2v5.7c0,0.2,0,0.4,0.1,0.5s0.2,0.2,0.3,0.2
		c0.1,0,0.2,0.1,0.4,0.1c0.1,0,0.2,0,0.2,0c0.1,0,0.1,0,0.2,0l0.2,1c-0.1,0-0.2,0.1-0.3,0.1s-0.3,0-0.5,0c-0.3,0-0.6,0-0.9-0.2
		c-0.3-0.1-0.5-0.3-0.6-0.5c-0.2-0.2-0.2-0.5-0.2-0.9V222.9z"/>
</g>
<g>
	<path d="M94.2,402.6c0-0.4-0.2-0.7-0.6-0.9s-0.7-0.3-1.2-0.3c-0.4,0-0.7,0.1-0.9,0.2c-0.3,0.1-0.5,0.3-0.6,0.5
		c-0.1,0.2-0.2,0.4-0.2,0.7c0,0.2,0.1,0.4,0.2,0.5s0.2,0.3,0.4,0.4c0.2,0.1,0.3,0.2,0.5,0.2c0.2,0.1,0.3,0.1,0.5,0.2l0.8,0.2
		c0.2,0.1,0.4,0.1,0.7,0.2c0.3,0.1,0.5,0.2,0.7,0.4c0.2,0.2,0.4,0.4,0.6,0.6s0.2,0.6,0.2,0.9c0,0.4-0.1,0.8-0.3,1.2
		c-0.2,0.3-0.6,0.6-1,0.8c-0.4,0.2-1,0.3-1.6,0.3c-0.6,0-1.1-0.1-1.5-0.3c-0.4-0.2-0.7-0.4-1-0.8c-0.2-0.3-0.4-0.7-0.4-1.2h1
		c0,0.3,0.1,0.6,0.3,0.7c0.2,0.2,0.4,0.3,0.7,0.4c0.3,0.1,0.6,0.1,0.9,0.1c0.4,0,0.7-0.1,1-0.2s0.5-0.3,0.7-0.5
		c0.2-0.2,0.3-0.5,0.3-0.8c0-0.3-0.1-0.5-0.2-0.6c-0.1-0.2-0.3-0.3-0.6-0.4c-0.2-0.1-0.5-0.2-0.8-0.3l-1-0.3
		c-0.6-0.2-1.1-0.4-1.5-0.8c-0.4-0.3-0.5-0.8-0.5-1.3c0-0.4,0.1-0.8,0.4-1.2c0.2-0.3,0.6-0.6,1-0.8c0.4-0.2,0.9-0.3,1.4-0.3
		c0.5,0,1,0.1,1.4,0.3s0.7,0.4,1,0.8c0.2,0.3,0.4,0.7,0.4,1.1H94.2z"/>
	<path d="M99.3,408.8c-0.6,0-1.1-0.1-1.5-0.4c-0.4-0.3-0.7-0.6-1-1.1c-0.2-0.5-0.3-1-0.3-1.6c0-0.6,0.1-1.2,0.3-1.6
		c0.2-0.5,0.5-0.8,0.9-1.1c0.4-0.3,0.9-0.4,1.4-0.4c0.3,0,0.6,0.1,0.9,0.2c0.3,0.1,0.6,0.3,0.8,0.5c0.2,0.2,0.4,0.5,0.6,0.9
		s0.2,0.9,0.2,1.4v0.4h-4.6v-0.8h3.7c0-0.3-0.1-0.6-0.2-0.9s-0.3-0.5-0.6-0.6c-0.2-0.2-0.5-0.2-0.9-0.2c-0.4,0-0.7,0.1-1,0.3
		c-0.3,0.2-0.5,0.4-0.6,0.7s-0.2,0.6-0.2,0.9v0.5c0,0.5,0.1,0.8,0.2,1.2c0.2,0.3,0.4,0.6,0.7,0.7c0.3,0.2,0.6,0.2,1,0.2
		c0.2,0,0.5,0,0.7-0.1c0.2-0.1,0.4-0.2,0.5-0.3c0.1-0.1,0.3-0.3,0.3-0.5l0.9,0.2c-0.1,0.3-0.3,0.6-0.5,0.8c-0.2,0.2-0.5,0.4-0.8,0.5
		C100,408.7,99.7,408.8,99.3,408.8z"/>
	<path d="M104.1,400.6v8h-0.9v-8H104.1z"/>
	<path d="M108.3,408.8c-0.6,0-1.1-0.1-1.5-0.4c-0.4-0.3-0.7-0.6-1-1.1c-0.2-0.5-0.3-1-0.3-1.6c0-0.6,0.1-1.2,0.3-1.6
		c0.2-0.5,0.5-0.8,0.9-1.1c0.4-0.3,0.9-0.4,1.4-0.4c0.3,0,0.6,0.1,0.9,0.2c0.3,0.1,0.6,0.3,0.8,0.5c0.2,0.2,0.4,0.5,0.6,0.9
		s0.2,0.9,0.2,1.4v0.4h-4.6v-0.8h3.7c0-0.3-0.1-0.6-0.2-0.9s-0.3-0.5-0.6-0.6c-0.2-0.2-0.5-0.2-0.9-0.2c-0.4,0-0.7,0.1-1,0.3
		c-0.3,0.2-0.5,0.4-0.6,0.7s-0.2,0.6-0.2,0.9v0.5c0,0.5,0.1,0.8,0.2,1.2c0.2,0.3,0.4,0.6,0.7,0.7c0.3,0.2,0.6,0.2,1,0.2
		c0.2,0,0.5,0,0.7-0.1c0.2-0.1,0.4-0.2,0.5-0.3c0.1-0.1,0.3-0.3,0.3-0.5l0.9,0.2c-0.1,0.3-0.3,0.6-0.5,0.8c-0.2,0.2-0.5,0.4-0.8,0.5
		C109,408.7,108.7,408.8,108.3,408.8z"/>
	<path d="M114.6,408.8c-0.6,0-1-0.1-1.5-0.4s-0.7-0.6-0.9-1.1c-0.2-0.5-0.3-1-0.3-1.6c0-0.6,0.1-1.1,0.3-1.6
		c0.2-0.5,0.5-0.8,0.9-1.1c0.4-0.3,0.9-0.4,1.4-0.4c0.4,0,0.8,0.1,1.1,0.2c0.3,0.2,0.6,0.4,0.8,0.7c0.2,0.3,0.4,0.6,0.4,1H116
		c-0.1-0.3-0.2-0.5-0.5-0.7c-0.2-0.2-0.6-0.3-1-0.3c-0.4,0-0.7,0.1-0.9,0.3c-0.3,0.2-0.5,0.4-0.6,0.8c-0.1,0.3-0.2,0.7-0.2,1.2
		c0,0.5,0.1,0.9,0.2,1.2s0.4,0.6,0.6,0.8c0.3,0.2,0.6,0.3,1,0.3c0.2,0,0.5,0,0.7-0.1c0.2-0.1,0.4-0.2,0.5-0.4
		c0.1-0.2,0.2-0.3,0.3-0.6h0.9c-0.1,0.4-0.2,0.7-0.4,1c-0.2,0.3-0.5,0.5-0.8,0.7C115.4,408.7,115,408.8,114.6,408.8z"/>
	<path d="M120.9,402.6v0.8h-3.1v-0.8H120.9z M118.7,401.2h0.9v5.7c0,0.3,0,0.5,0.1,0.6s0.2,0.2,0.3,0.3s0.2,0.1,0.4,0.1
		c0.1,0,0.2,0,0.2,0s0.1,0,0.2,0l0.2,0.8c-0.1,0-0.1,0-0.3,0.1c-0.1,0-0.3,0-0.4,0c-0.3,0-0.5-0.1-0.8-0.2c-0.2-0.1-0.5-0.3-0.6-0.5
		c-0.2-0.2-0.2-0.5-0.2-0.9V401.2z"/>
	<path class="st5" d="M73,413.8v8h-1.1l-4.1-5.9h-0.1v5.9h-1.2v-8h1.1l4.1,5.9h0.1v-5.9H73z"/>
	<path class="st5" d="M77.2,422c-0.6,0-1.1-0.1-1.5-0.4s-0.8-0.6-1-1.1c-0.2-0.5-0.3-1-0.3-1.6c0-0.6,0.1-1.2,0.3-1.6s0.6-0.8,1-1.1
		c0.4-0.3,0.9-0.4,1.5-0.4c0.3,0,0.7,0.1,1,0.2c0.3,0.1,0.6,0.3,0.9,0.5c0.3,0.2,0.5,0.6,0.6,0.9c0.1,0.4,0.2,0.8,0.2,1.4v0.4h-4.8
		v-0.9h3.6c0-0.3-0.1-0.6-0.2-0.8s-0.3-0.4-0.5-0.6c-0.2-0.1-0.5-0.2-0.8-0.2c-0.3,0-0.6,0.1-0.9,0.2s-0.4,0.4-0.6,0.6
		c-0.1,0.3-0.2,0.5-0.2,0.8v0.7c0,0.4,0.1,0.7,0.2,1s0.3,0.5,0.6,0.6c0.3,0.1,0.6,0.2,0.9,0.2c0.2,0,0.4,0,0.6-0.1
		c0.2-0.1,0.3-0.2,0.5-0.3c0.1-0.1,0.2-0.3,0.3-0.5l1.1,0.2c-0.1,0.3-0.2,0.6-0.5,0.9c-0.2,0.2-0.5,0.4-0.9,0.6
		C78.1,421.9,77.7,422,77.2,422z"/>
	<path class="st5" d="M82.4,421.8l-1.8-6h1.2l1.2,4.4h0.1l1.2-4.4h1.2l1.2,4.4h0.1l1.2-4.4h1.2l-1.8,6h-1.2l-1.2-4.3h-0.1l-1.2,4.3
		H82.4z"/>
	<path class="st5" d="M94.8,421.8l-2.2-8h1.3l1.6,6.2h0.1l1.6-6.2h1.3l1.6,6.2h0.1l1.6-6.2h1.3l-2.2,8h-1.2l-1.7-6h-0.1l-1.7,6H94.8
		z"/>
	<path class="st5" d="M105.6,422c-0.4,0-0.7-0.1-1-0.2c-0.3-0.1-0.6-0.3-0.7-0.6c-0.2-0.3-0.3-0.6-0.3-1c0-0.3,0.1-0.6,0.2-0.8
		s0.3-0.4,0.5-0.5c0.2-0.1,0.5-0.2,0.7-0.3c0.3-0.1,0.6-0.1,0.8-0.1c0.4,0,0.7-0.1,0.9-0.1s0.4-0.1,0.5-0.1s0.2-0.2,0.2-0.3v0
		c0-0.3-0.1-0.6-0.3-0.8s-0.5-0.3-0.9-0.3c-0.4,0-0.7,0.1-0.9,0.3c-0.2,0.2-0.4,0.4-0.5,0.6l-1.1-0.2c0.1-0.4,0.3-0.7,0.6-0.9
		c0.3-0.2,0.5-0.4,0.9-0.5c0.3-0.1,0.7-0.2,1-0.2c0.2,0,0.5,0,0.8,0.1c0.3,0.1,0.5,0.2,0.8,0.3s0.4,0.4,0.6,0.6
		c0.2,0.3,0.2,0.6,0.2,1.1v4h-1.1V421h0c-0.1,0.2-0.2,0.3-0.3,0.4c-0.2,0.1-0.3,0.3-0.6,0.4C106.2,421.9,105.9,422,105.6,422z
		 M105.9,421c0.3,0,0.6-0.1,0.8-0.2c0.2-0.1,0.4-0.3,0.5-0.5s0.2-0.4,0.2-0.7v-0.8c0,0-0.1,0.1-0.2,0.1s-0.3,0.1-0.4,0.1
		c-0.2,0-0.3,0-0.4,0.1s-0.3,0-0.4,0c-0.2,0-0.4,0.1-0.6,0.1c-0.2,0.1-0.3,0.2-0.4,0.3c-0.1,0.1-0.2,0.3-0.2,0.5
		c0,0.3,0.1,0.5,0.3,0.7C105.3,421,105.5,421,105.9,421z"/>
	<path class="st5" d="M112.9,415.8v0.9h-3.3v-0.9H112.9z M110.5,414.4h1.2v5.7c0,0.2,0,0.4,0.1,0.5s0.2,0.2,0.3,0.2
		c0.1,0,0.2,0.1,0.4,0.1c0.1,0,0.2,0,0.2,0c0.1,0,0.1,0,0.2,0l0.2,1c-0.1,0-0.2,0.1-0.3,0.1s-0.3,0-0.5,0c-0.3,0-0.6,0-0.9-0.2
		c-0.3-0.1-0.5-0.3-0.6-0.5c-0.2-0.2-0.2-0.5-0.2-0.9V414.4z"/>
	<path class="st5" d="M116.7,422c-0.6,0-1.1-0.1-1.5-0.4c-0.4-0.3-0.7-0.6-1-1.1c-0.2-0.5-0.3-1-0.3-1.6c0-0.6,0.1-1.1,0.3-1.6
		c0.2-0.5,0.6-0.8,1-1.1c0.4-0.3,0.9-0.4,1.5-0.4c0.5,0,0.9,0.1,1.2,0.3s0.6,0.4,0.9,0.7c0.2,0.3,0.4,0.7,0.4,1.1h-1.1
		c-0.1-0.3-0.2-0.5-0.4-0.7s-0.5-0.3-0.9-0.3c-0.3,0-0.6,0.1-0.9,0.3c-0.2,0.2-0.4,0.4-0.6,0.7c-0.1,0.3-0.2,0.7-0.2,1.1
		c0,0.4,0.1,0.8,0.2,1.1c0.1,0.3,0.3,0.6,0.6,0.7c0.2,0.2,0.5,0.3,0.9,0.3c0.2,0,0.4,0,0.6-0.1s0.3-0.2,0.5-0.4
		c0.1-0.2,0.2-0.3,0.3-0.6h1.1c0,0.4-0.2,0.7-0.4,1s-0.5,0.5-0.8,0.7C117.6,421.9,117.2,422,116.7,422z"/>
	<path class="st5" d="M121.6,418.3v3.6h-1.2v-8h1.2v3h0.1c0.1-0.3,0.4-0.6,0.6-0.8c0.3-0.2,0.7-0.3,1.1-0.3c0.4,0,0.8,0.1,1.1,0.3
		c0.3,0.2,0.5,0.4,0.7,0.8c0.2,0.3,0.3,0.8,0.3,1.3v3.8h-1.2v-3.7c0-0.4-0.1-0.8-0.3-1c-0.2-0.2-0.5-0.4-0.9-0.4
		c-0.3,0-0.5,0.1-0.7,0.2s-0.4,0.3-0.5,0.5C121.7,417.7,121.6,418,121.6,418.3z"/>
	<path class="st5" d="M131.2,413.8v8H130v-8H131.2z"/>
	<path class="st5" d="M133.3,414.9c-0.2,0-0.4-0.1-0.5-0.2s-0.2-0.3-0.2-0.5c0-0.2,0.1-0.4,0.2-0.5s0.3-0.2,0.5-0.2s0.4,0.1,0.5,0.2
		s0.2,0.3,0.2,0.5c0,0.2-0.1,0.4-0.2,0.5S133.5,414.9,133.3,414.9z M132.7,421.8v-6h1.2v6H132.7z"/>
	<path class="st5" d="M140,417.3l-1.1,0.2c0-0.1-0.1-0.3-0.2-0.4c-0.1-0.1-0.2-0.2-0.4-0.3s-0.4-0.1-0.6-0.1c-0.3,0-0.6,0.1-0.8,0.2
		c-0.2,0.1-0.3,0.3-0.3,0.6c0,0.2,0.1,0.4,0.2,0.5c0.1,0.1,0.4,0.2,0.7,0.3l1,0.2c0.6,0.1,1,0.3,1.2,0.6s0.4,0.6,0.4,1
		c0,0.4-0.1,0.7-0.3,1c-0.2,0.3-0.5,0.5-0.9,0.7c-0.4,0.2-0.8,0.2-1.3,0.2c-0.7,0-1.2-0.1-1.6-0.4c-0.4-0.3-0.7-0.7-0.8-1.2l1.1-0.2
		c0.1,0.3,0.2,0.5,0.4,0.7c0.2,0.2,0.5,0.2,0.9,0.2c0.4,0,0.7-0.1,0.9-0.2s0.3-0.4,0.3-0.6c0-0.2-0.1-0.3-0.2-0.5
		c-0.1-0.1-0.4-0.2-0.6-0.3l-1-0.2c-0.6-0.1-1-0.3-1.2-0.6c-0.3-0.3-0.4-0.6-0.4-1.1c0-0.4,0.1-0.7,0.3-0.9s0.5-0.5,0.8-0.6
		c0.3-0.1,0.7-0.2,1.2-0.2c0.6,0,1.2,0.1,1.5,0.4C139.6,416.5,139.9,416.8,140,417.3z"/>
	<path class="st5" d="M144.2,415.8v0.9h-3.3v-0.9H144.2z M141.8,414.4h1.2v5.7c0,0.2,0,0.4,0.1,0.5s0.2,0.2,0.3,0.2
		c0.1,0,0.2,0.1,0.4,0.1c0.1,0,0.2,0,0.2,0c0.1,0,0.1,0,0.2,0l0.2,1c-0.1,0-0.2,0.1-0.3,0.1s-0.3,0-0.5,0c-0.3,0-0.6,0-0.9-0.2
		c-0.3-0.1-0.5-0.3-0.6-0.5c-0.2-0.2-0.2-0.5-0.2-0.9V414.4z"/>
</g>
<g>
	<path d="M95,492.3h-1c-0.1-0.3-0.2-0.5-0.3-0.7s-0.3-0.4-0.5-0.5s-0.4-0.3-0.7-0.3c-0.2-0.1-0.5-0.1-0.8-0.1
		c-0.5,0-0.9,0.1-1.3,0.4c-0.4,0.2-0.7,0.6-0.9,1.1s-0.3,1.1-0.3,1.8c0,0.7,0.1,1.3,0.3,1.8s0.5,0.8,0.9,1.1
		c0.4,0.2,0.8,0.4,1.3,0.4c0.3,0,0.5,0,0.8-0.1c0.2-0.1,0.5-0.2,0.7-0.3s0.4-0.3,0.5-0.5c0.1-0.2,0.2-0.5,0.3-0.7h1
		c-0.1,0.4-0.2,0.8-0.4,1.1c-0.2,0.3-0.4,0.6-0.7,0.8c-0.3,0.2-0.6,0.4-1,0.5s-0.7,0.2-1.1,0.2c-0.7,0-1.3-0.2-1.8-0.5
		c-0.5-0.3-0.9-0.8-1.3-1.4c-0.3-0.6-0.5-1.3-0.5-2.2s0.2-1.6,0.5-2.2c0.3-0.6,0.7-1.1,1.3-1.4c0.5-0.3,1.1-0.5,1.8-0.5
		c0.4,0,0.8,0.1,1.1,0.2s0.7,0.3,1,0.5c0.3,0.2,0.5,0.5,0.7,0.8C94.8,491.6,95,491.9,95,492.3z"/>
	<path d="M96.5,497.8v-6h0.9v0.9h0.1c0.1-0.3,0.3-0.5,0.6-0.7c0.3-0.2,0.6-0.3,1-0.3c0.1,0,0.2,0,0.3,0c0.1,0,0.2,0,0.2,0v0.9
		c0,0-0.1,0-0.2,0c-0.1,0-0.2,0-0.3,0c-0.3,0-0.6,0.1-0.8,0.2s-0.4,0.3-0.5,0.5c-0.1,0.2-0.2,0.5-0.2,0.7v3.8H96.5z"/>
	<path d="M103.1,498c-0.6,0-1.1-0.1-1.5-0.4c-0.4-0.3-0.7-0.6-1-1.1c-0.2-0.5-0.3-1-0.3-1.6c0-0.6,0.1-1.2,0.3-1.6
		c0.2-0.5,0.5-0.8,0.9-1.1c0.4-0.3,0.9-0.4,1.4-0.4c0.3,0,0.6,0.1,0.9,0.2c0.3,0.1,0.6,0.3,0.8,0.5c0.2,0.2,0.4,0.5,0.6,0.9
		s0.2,0.9,0.2,1.4v0.4h-4.6v-0.8h3.7c0-0.3-0.1-0.6-0.2-0.9s-0.3-0.5-0.6-0.6c-0.2-0.2-0.5-0.2-0.9-0.2c-0.4,0-0.7,0.1-1,0.3
		c-0.3,0.2-0.5,0.4-0.6,0.7s-0.2,0.6-0.2,0.9v0.5c0,0.5,0.1,0.8,0.2,1.2c0.2,0.3,0.4,0.6,0.7,0.7c0.3,0.2,0.6,0.2,1,0.2
		c0.2,0,0.5,0,0.7-0.1c0.2-0.1,0.4-0.2,0.5-0.3c0.1-0.1,0.3-0.3,0.3-0.5l0.9,0.2c-0.1,0.3-0.3,0.6-0.5,0.8c-0.2,0.2-0.5,0.4-0.8,0.5
		C103.9,497.9,103.5,498,103.1,498z"/>
	<path d="M108.7,498c-0.4,0-0.7-0.1-1-0.2s-0.6-0.4-0.7-0.6c-0.2-0.3-0.3-0.6-0.3-1c0-0.3,0.1-0.6,0.2-0.8s0.3-0.4,0.5-0.5
		c0.2-0.1,0.5-0.2,0.8-0.3c0.3-0.1,0.6-0.1,0.8-0.1c0.4,0,0.7-0.1,0.9-0.1c0.2,0,0.4-0.1,0.5-0.1c0.1-0.1,0.2-0.2,0.2-0.3v0
		c0-0.4-0.1-0.7-0.3-0.9c-0.2-0.2-0.5-0.3-1-0.3c-0.4,0-0.8,0.1-1,0.3c-0.2,0.2-0.4,0.4-0.5,0.6l-0.9-0.3c0.2-0.4,0.4-0.6,0.6-0.9
		c0.3-0.2,0.5-0.3,0.9-0.4s0.6-0.1,0.9-0.1c0.2,0,0.4,0,0.7,0.1c0.3,0,0.5,0.1,0.7,0.3s0.4,0.4,0.6,0.6c0.2,0.3,0.2,0.7,0.2,1.1v4
		h-0.9V497h0c-0.1,0.1-0.2,0.3-0.3,0.4s-0.3,0.3-0.6,0.4C109.4,497.9,109.1,498,108.7,498z M108.9,497.2c0.4,0,0.7-0.1,0.9-0.2
		c0.3-0.1,0.4-0.3,0.6-0.6s0.2-0.5,0.2-0.7v-0.8c0,0-0.1,0.1-0.3,0.1c-0.1,0-0.3,0.1-0.5,0.1s-0.3,0.1-0.5,0.1s-0.3,0-0.4,0
		c-0.2,0-0.5,0.1-0.7,0.2c-0.2,0.1-0.4,0.2-0.5,0.3s-0.2,0.3-0.2,0.6c0,0.3,0.1,0.6,0.4,0.7C108.2,497.1,108.5,497.2,108.9,497.2z"
		/>
	<path d="M115.8,491.8v0.8h-3.1v-0.8H115.8z M113.6,490.4h0.9v5.7c0,0.3,0,0.5,0.1,0.6c0.1,0.1,0.2,0.2,0.3,0.3s0.2,0.1,0.4,0.1
		c0.1,0,0.2,0,0.2,0c0.1,0,0.1,0,0.2,0l0.2,0.8c-0.1,0-0.1,0-0.3,0.1c-0.1,0-0.3,0-0.4,0c-0.3,0-0.5-0.1-0.8-0.2
		c-0.2-0.1-0.5-0.3-0.6-0.5c-0.2-0.2-0.2-0.5-0.2-0.9V490.4z"/>
	<path d="M119.7,498c-0.6,0-1.1-0.1-1.5-0.4c-0.4-0.3-0.7-0.6-1-1.1c-0.2-0.5-0.3-1-0.3-1.6c0-0.6,0.1-1.2,0.3-1.6
		c0.2-0.5,0.5-0.8,0.9-1.1c0.4-0.3,0.9-0.4,1.4-0.4c0.3,0,0.6,0.1,0.9,0.2c0.3,0.1,0.6,0.3,0.8,0.5c0.2,0.2,0.4,0.5,0.6,0.9
		s0.2,0.9,0.2,1.4v0.4h-4.6v-0.8h3.7c0-0.3-0.1-0.6-0.2-0.9s-0.3-0.5-0.6-0.6c-0.2-0.2-0.5-0.2-0.9-0.2c-0.4,0-0.7,0.1-1,0.3
		c-0.3,0.2-0.5,0.4-0.6,0.7s-0.2,0.6-0.2,0.9v0.5c0,0.5,0.1,0.8,0.2,1.2c0.2,0.3,0.4,0.6,0.7,0.7c0.3,0.2,0.6,0.2,1,0.2
		c0.2,0,0.5,0,0.7-0.1c0.2-0.1,0.4-0.2,0.5-0.3c0.1-0.1,0.3-0.3,0.3-0.5l0.9,0.2c-0.1,0.3-0.3,0.6-0.5,0.8c-0.2,0.2-0.5,0.4-0.8,0.5
		C120.5,497.9,120.1,498,119.7,498z"/>
	<path class="st11" d="M79,505.2c0-0.3-0.2-0.6-0.5-0.8c-0.3-0.2-0.6-0.3-1-0.3c-0.3,0-0.6,0-0.8,0.1c-0.2,0.1-0.4,0.2-0.5,0.4
		s-0.2,0.3-0.2,0.5c0,0.2,0,0.3,0.1,0.4c0.1,0.1,0.2,0.2,0.3,0.3c0.1,0.1,0.3,0.2,0.4,0.2c0.2,0.1,0.3,0.1,0.5,0.1l0.8,0.2
		c0.3,0.1,0.6,0.2,0.9,0.3c0.3,0.1,0.5,0.3,0.8,0.5c0.2,0.2,0.4,0.4,0.5,0.7s0.2,0.6,0.2,0.9c0,0.5-0.1,0.9-0.4,1.2s-0.6,0.6-1,0.8
		s-1,0.3-1.6,0.3c-0.6,0-1.2-0.1-1.6-0.3c-0.5-0.2-0.8-0.5-1.1-0.8c-0.3-0.4-0.4-0.8-0.4-1.4h1.4c0,0.3,0.1,0.5,0.3,0.7
		c0.2,0.2,0.3,0.3,0.6,0.4c0.2,0.1,0.5,0.1,0.8,0.1c0.3,0,0.6,0,0.8-0.1c0.2-0.1,0.4-0.2,0.6-0.4c0.1-0.2,0.2-0.4,0.2-0.6
		c0-0.2-0.1-0.4-0.2-0.5s-0.3-0.3-0.5-0.3c-0.2-0.1-0.5-0.2-0.8-0.2l-0.9-0.2c-0.7-0.2-1.2-0.4-1.6-0.8c-0.4-0.3-0.6-0.8-0.6-1.4
		c0-0.5,0.1-0.9,0.4-1.2c0.3-0.4,0.6-0.6,1-0.8c0.4-0.2,0.9-0.3,1.5-0.3c0.6,0,1.1,0.1,1.5,0.3c0.4,0.2,0.8,0.5,1,0.8
		s0.4,0.7,0.4,1.2H79z"/>
	<path class="st11" d="M84.4,511.2c-0.6,0-1.1-0.1-1.6-0.4c-0.4-0.3-0.8-0.6-1-1.1c-0.2-0.5-0.4-1-0.4-1.6c0-0.6,0.1-1.2,0.4-1.6
		c0.2-0.5,0.6-0.8,1-1.1s0.9-0.4,1.5-0.4c0.4,0,0.7,0.1,1,0.2c0.3,0.1,0.6,0.3,0.9,0.5c0.3,0.2,0.5,0.6,0.6,0.9
		c0.1,0.4,0.2,0.8,0.2,1.4v0.4h-4.9v-1h3.6c0-0.3-0.1-0.5-0.2-0.7c-0.1-0.2-0.3-0.4-0.5-0.5c-0.2-0.1-0.4-0.2-0.7-0.2
		c-0.3,0-0.5,0.1-0.8,0.2c-0.2,0.1-0.4,0.3-0.5,0.5c-0.1,0.2-0.2,0.5-0.2,0.7v0.8c0,0.3,0.1,0.6,0.2,0.9c0.1,0.2,0.3,0.4,0.5,0.6
		c0.2,0.1,0.5,0.2,0.8,0.2c0.2,0,0.4,0,0.6-0.1s0.3-0.1,0.4-0.3c0.1-0.1,0.2-0.3,0.3-0.4l1.3,0.1c-0.1,0.3-0.2,0.7-0.5,0.9
		c-0.2,0.3-0.5,0.5-0.9,0.6C85.3,511.1,84.9,511.2,84.4,511.2z"/>
	<path class="st11" d="M90.9,511.2c-0.6,0-1.1-0.1-1.5-0.4c-0.4-0.3-0.8-0.6-1-1.1s-0.3-1-0.3-1.6c0-0.6,0.1-1.1,0.4-1.6
		c0.2-0.5,0.6-0.8,1-1.1s0.9-0.4,1.5-0.4c0.5,0,0.9,0.1,1.3,0.3c0.4,0.2,0.7,0.4,0.9,0.8s0.4,0.7,0.4,1.1h-1.4
		c-0.1-0.3-0.2-0.5-0.4-0.7c-0.2-0.2-0.5-0.3-0.8-0.3c-0.3,0-0.5,0.1-0.8,0.2c-0.2,0.2-0.4,0.4-0.5,0.7s-0.2,0.6-0.2,1
		c0,0.4,0.1,0.8,0.2,1.1s0.3,0.5,0.5,0.7c0.2,0.2,0.5,0.2,0.8,0.2c0.2,0,0.4,0,0.6-0.1c0.2-0.1,0.3-0.2,0.4-0.3
		c0.1-0.2,0.2-0.3,0.2-0.6h1.4c0,0.4-0.2,0.8-0.4,1.1c-0.2,0.3-0.5,0.6-0.9,0.8S91.4,511.2,90.9,511.2z"/>
	<path class="st11" d="M97.6,505v1.1h-3.4V505H97.6z M95,503.6h1.4v5.6c0,0.2,0,0.3,0.1,0.4c0.1,0.1,0.1,0.2,0.2,0.2
		c0.1,0,0.2,0.1,0.3,0.1c0.1,0,0.2,0,0.2,0c0.1,0,0.1,0,0.2,0l0.2,1.1c-0.1,0-0.2,0.1-0.3,0.1s-0.3,0-0.5,0.1c-0.4,0-0.7,0-1-0.2
		c-0.3-0.1-0.5-0.3-0.7-0.6s-0.2-0.6-0.2-0.9V503.6z"/>
	<path class="st11" d="M101.4,511.2c-0.6,0-1.1-0.1-1.5-0.4s-0.8-0.6-1-1.1c-0.2-0.5-0.4-1-0.4-1.6c0-0.6,0.1-1.2,0.4-1.6
		c0.2-0.5,0.6-0.8,1-1.1s0.9-0.4,1.5-0.4s1.1,0.1,1.5,0.4s0.8,0.6,1,1.1c0.2,0.5,0.4,1,0.4,1.6c0,0.6-0.1,1.2-0.4,1.6
		c-0.2,0.5-0.6,0.8-1,1.1S102,511.2,101.4,511.2z M101.4,510c0.3,0,0.6-0.1,0.8-0.3s0.4-0.4,0.5-0.7s0.2-0.6,0.2-1
		c0-0.4-0.1-0.7-0.2-1c-0.1-0.3-0.3-0.5-0.5-0.7c-0.2-0.2-0.5-0.3-0.8-0.3c-0.3,0-0.6,0.1-0.8,0.3c-0.2,0.2-0.4,0.4-0.5,0.7
		c-0.1,0.3-0.2,0.6-0.2,1c0,0.4,0.1,0.7,0.2,1s0.3,0.5,0.5,0.7S101.1,510,101.4,510z"/>
	<path class="st11" d="M105.5,511v-6h1.4v1h0.1c0.1-0.3,0.3-0.6,0.6-0.8c0.3-0.2,0.6-0.3,0.9-0.3c0.1,0,0.2,0,0.3,0
		c0.1,0,0.2,0,0.2,0v1.3c-0.1,0-0.2,0-0.3-0.1c-0.1,0-0.3,0-0.4,0c-0.3,0-0.5,0.1-0.7,0.2c-0.2,0.1-0.4,0.3-0.5,0.5
		s-0.2,0.4-0.2,0.7v3.5H105.5z"/>
	<path class="st11" d="M113.8,511l-1.7-6h1.4l1.1,4.2h0.1l1.1-4.2h1.4l1.1,4.2h0.1l1-4.2h1.4l-1.7,6h-1.5l-1.1-4.1h-0.1l-1.1,4.1
		H113.8z"/>
	<path class="st11" d="M122.5,504.2c-0.2,0-0.4-0.1-0.6-0.2c-0.2-0.2-0.2-0.3-0.2-0.5s0.1-0.4,0.2-0.5c0.2-0.1,0.4-0.2,0.6-0.2
		c0.2,0,0.4,0.1,0.6,0.2c0.2,0.2,0.2,0.3,0.2,0.5s-0.1,0.4-0.2,0.5C122.9,504.1,122.7,504.2,122.5,504.2z M121.8,511v-6h1.4v6H121.8
		z"/>
	<path class="st11" d="M129.4,506.6l-1.3,0.1c0-0.1-0.1-0.3-0.2-0.4c-0.1-0.1-0.2-0.2-0.4-0.3s-0.3-0.1-0.6-0.1
		c-0.3,0-0.5,0.1-0.7,0.2c-0.2,0.1-0.3,0.3-0.3,0.5c0,0.2,0.1,0.3,0.2,0.4s0.3,0.2,0.7,0.3l1,0.2c0.6,0.1,1,0.3,1.3,0.6
		s0.4,0.6,0.4,1c0,0.4-0.1,0.7-0.3,1c-0.2,0.3-0.5,0.5-0.9,0.7c-0.4,0.2-0.8,0.2-1.3,0.2c-0.7,0-1.3-0.2-1.8-0.5s-0.7-0.7-0.8-1.3
		l1.4-0.1c0.1,0.3,0.2,0.5,0.4,0.6c0.2,0.1,0.5,0.2,0.8,0.2c0.3,0,0.6-0.1,0.8-0.2c0.2-0.1,0.3-0.3,0.3-0.5c0-0.2-0.1-0.3-0.2-0.4
		c-0.1-0.1-0.3-0.2-0.6-0.3l-1-0.2c-0.6-0.1-1-0.3-1.3-0.6s-0.4-0.6-0.4-1.1c0-0.4,0.1-0.7,0.3-1c0.2-0.3,0.5-0.5,0.9-0.6
		c0.4-0.1,0.8-0.2,1.3-0.2c0.7,0,1.3,0.2,1.7,0.4C129.1,505.7,129.3,506.1,129.4,506.6z"/>
	<path class="st11" d="M133.4,511.2c-0.6,0-1.1-0.1-1.6-0.4c-0.4-0.3-0.8-0.6-1-1.1c-0.2-0.5-0.4-1-0.4-1.6c0-0.6,0.1-1.2,0.4-1.6
		c0.2-0.5,0.6-0.8,1-1.1s0.9-0.4,1.5-0.4c0.4,0,0.7,0.1,1,0.2c0.3,0.1,0.6,0.3,0.9,0.5c0.3,0.2,0.5,0.6,0.6,0.9
		c0.1,0.4,0.2,0.8,0.2,1.4v0.4h-4.9v-1h3.6c0-0.3-0.1-0.5-0.2-0.7c-0.1-0.2-0.3-0.4-0.5-0.5c-0.2-0.1-0.4-0.2-0.7-0.2
		c-0.3,0-0.5,0.1-0.8,0.2c-0.2,0.1-0.4,0.3-0.5,0.5c-0.1,0.2-0.2,0.5-0.2,0.7v0.8c0,0.3,0.1,0.6,0.2,0.9c0.1,0.2,0.3,0.4,0.5,0.6
		c0.2,0.1,0.5,0.2,0.8,0.2c0.2,0,0.4,0,0.6-0.1s0.3-0.1,0.4-0.3c0.1-0.1,0.2-0.3,0.3-0.4l1.3,0.1c-0.1,0.3-0.2,0.7-0.5,0.9
		c-0.2,0.3-0.5,0.5-0.9,0.6C134.2,511.1,133.8,511.2,133.4,511.2z"/>
	<path class="st11" d="M72.6,516.2v8h-1.3l-3.8-5.4h-0.1v5.4H66v-8h1.3l3.8,5.5h0.1v-5.5H72.6z"/>
	<path class="st11" d="M76.7,524.4c-0.6,0-1.1-0.1-1.6-0.4c-0.4-0.3-0.8-0.6-1-1.1c-0.2-0.5-0.4-1-0.4-1.6c0-0.6,0.1-1.2,0.4-1.6
		c0.2-0.5,0.6-0.8,1-1.1s0.9-0.4,1.5-0.4c0.4,0,0.7,0.1,1,0.2c0.3,0.1,0.6,0.3,0.9,0.5c0.3,0.2,0.5,0.6,0.6,0.9
		c0.1,0.4,0.2,0.8,0.2,1.4v0.4h-4.9v-1h3.6c0-0.3-0.1-0.5-0.2-0.7c-0.1-0.2-0.3-0.4-0.5-0.5c-0.2-0.1-0.4-0.2-0.7-0.2
		c-0.3,0-0.5,0.1-0.8,0.2c-0.2,0.1-0.4,0.3-0.5,0.5c-0.1,0.2-0.2,0.5-0.2,0.7v0.8c0,0.3,0.1,0.6,0.2,0.9c0.1,0.2,0.3,0.4,0.5,0.6
		c0.2,0.1,0.5,0.2,0.8,0.2c0.2,0,0.4,0,0.6-0.1s0.3-0.1,0.4-0.3c0.1-0.1,0.2-0.3,0.3-0.4l1.3,0.1c-0.1,0.3-0.2,0.7-0.5,0.9
		c-0.2,0.3-0.5,0.5-0.9,0.6C77.6,524.3,77.2,524.4,76.7,524.4z"/>
	<path class="st11" d="M81.8,524.2l-1.7-6h1.4l1.1,4.2h0.1l1.1-4.2h1.4l1.1,4.2h0.1l1-4.2h1.4l-1.7,6h-1.5l-1.1-4.1h-0.1l-1.1,4.1
		H81.8z"/>
	<path class="st11" d="M94.3,524.2l-2.3-8h1.6l1.4,5.9h0.1l1.5-5.9h1.4l1.5,5.9h0.1l1.4-5.9h1.6l-2.3,8H99l-1.6-5.6h-0.1l-1.6,5.6
		H94.3z"/>
	<path class="st11" d="M105.3,524.4c-0.4,0-0.7-0.1-1-0.2s-0.5-0.3-0.7-0.6c-0.2-0.3-0.3-0.6-0.3-1c0-0.3,0.1-0.6,0.2-0.8
		c0.1-0.2,0.3-0.4,0.5-0.5s0.5-0.2,0.7-0.3c0.3-0.1,0.6-0.1,0.8-0.2c0.4,0,0.6-0.1,0.9-0.1c0.2,0,0.4-0.1,0.5-0.1
		c0.1-0.1,0.2-0.2,0.2-0.3v0c0-0.3-0.1-0.5-0.3-0.7c-0.2-0.2-0.4-0.2-0.8-0.2c-0.3,0-0.6,0.1-0.8,0.2c-0.2,0.2-0.3,0.3-0.4,0.5
		l-1.3-0.2c0.1-0.4,0.3-0.7,0.5-0.9s0.5-0.4,0.9-0.6c0.3-0.1,0.7-0.2,1.1-0.2c0.3,0,0.6,0,0.9,0.1c0.3,0.1,0.5,0.2,0.8,0.3
		c0.2,0.2,0.4,0.4,0.6,0.6s0.2,0.6,0.2,1v4h-1.4v-0.8h0c-0.1,0.2-0.2,0.3-0.4,0.5s-0.3,0.3-0.6,0.3
		C105.9,524.3,105.7,524.4,105.3,524.4z M105.7,523.3c0.3,0,0.5-0.1,0.7-0.2s0.4-0.3,0.5-0.5s0.2-0.4,0.2-0.6v-0.7
		c0,0-0.1,0.1-0.2,0.1s-0.2,0.1-0.4,0.1s-0.3,0-0.4,0.1c-0.1,0-0.2,0-0.3,0c-0.2,0-0.4,0.1-0.6,0.1c-0.2,0.1-0.3,0.2-0.4,0.3
		c-0.1,0.1-0.1,0.3-0.1,0.4c0,0.3,0.1,0.5,0.3,0.6S105.4,523.3,105.7,523.3z"/>
	<path class="st11" d="M112.9,518.2v1.1h-3.4v-1.1H112.9z M110.3,516.8h1.4v5.6c0,0.2,0,0.3,0.1,0.4c0.1,0.1,0.1,0.2,0.2,0.2
		c0.1,0,0.2,0.1,0.3,0.1c0.1,0,0.2,0,0.2,0c0.1,0,0.1,0,0.2,0l0.2,1.1c-0.1,0-0.2,0.1-0.3,0.1s-0.3,0-0.5,0.1c-0.4,0-0.7,0-1-0.2
		c-0.3-0.1-0.5-0.3-0.7-0.6s-0.2-0.6-0.2-0.9V516.8z"/>
	<path class="st11" d="M116.7,524.4c-0.6,0-1.1-0.1-1.5-0.4c-0.4-0.3-0.8-0.6-1-1.1s-0.3-1-0.3-1.6c0-0.6,0.1-1.1,0.4-1.6
		c0.2-0.5,0.6-0.8,1-1.1s0.9-0.4,1.5-0.4c0.5,0,0.9,0.1,1.3,0.3c0.4,0.2,0.7,0.4,0.9,0.8s0.4,0.7,0.4,1.1H118
		c-0.1-0.3-0.2-0.5-0.4-0.7c-0.2-0.2-0.5-0.3-0.8-0.3c-0.3,0-0.5,0.1-0.8,0.2c-0.2,0.2-0.4,0.4-0.5,0.7s-0.2,0.6-0.2,1
		c0,0.4,0.1,0.8,0.2,1.1s0.3,0.5,0.5,0.7c0.2,0.2,0.5,0.2,0.8,0.2c0.2,0,0.4,0,0.6-0.1c0.2-0.1,0.3-0.2,0.4-0.3
		c0.1-0.2,0.2-0.3,0.2-0.6h1.4c0,0.4-0.2,0.8-0.4,1.1c-0.2,0.3-0.5,0.6-0.9,0.8S117.2,524.4,116.7,524.4z"/>
	<path class="st11" d="M121.9,520.7v3.5h-1.4v-8h1.4v3h0.1c0.1-0.3,0.4-0.6,0.7-0.8c0.3-0.2,0.7-0.3,1.1-0.3c0.4,0,0.8,0.1,1.1,0.3
		c0.3,0.2,0.5,0.4,0.7,0.8s0.3,0.7,0.3,1.2v3.8h-1.4v-3.6c0-0.4-0.1-0.7-0.3-0.9c-0.2-0.2-0.5-0.3-0.9-0.3c-0.2,0-0.5,0.1-0.7,0.2
		c-0.2,0.1-0.4,0.3-0.5,0.5S121.9,520.4,121.9,520.7z"/>
	<path class="st11" d="M131.4,516.2v8h-1.4v-8H131.4z"/>
	<path class="st11" d="M133.5,517.4c-0.2,0-0.4-0.1-0.6-0.2c-0.2-0.2-0.2-0.3-0.2-0.5s0.1-0.4,0.2-0.5c0.2-0.2,0.4-0.2,0.6-0.2
		c0.2,0,0.4,0.1,0.6,0.2c0.2,0.2,0.2,0.3,0.2,0.5s-0.1,0.4-0.2,0.5C133.9,517.3,133.7,517.4,133.5,517.4z M132.8,524.2v-6h1.4v6
		H132.8z"/>
	<path class="st11" d="M140.4,519.8l-1.3,0.1c0-0.1-0.1-0.3-0.2-0.4c-0.1-0.1-0.2-0.2-0.4-0.3s-0.3-0.1-0.6-0.1
		c-0.3,0-0.5,0.1-0.7,0.2c-0.2,0.1-0.3,0.3-0.3,0.5c0,0.2,0.1,0.3,0.2,0.4s0.3,0.2,0.7,0.3l1,0.2c0.6,0.1,1,0.3,1.3,0.6
		s0.4,0.6,0.4,1c0,0.4-0.1,0.7-0.3,1c-0.2,0.3-0.5,0.5-0.9,0.7c-0.4,0.2-0.8,0.2-1.3,0.2c-0.7,0-1.3-0.2-1.8-0.5s-0.7-0.7-0.8-1.3
		l1.4-0.1c0.1,0.3,0.2,0.5,0.4,0.6c0.2,0.1,0.5,0.2,0.8,0.2c0.3,0,0.6-0.1,0.8-0.2c0.2-0.1,0.3-0.3,0.3-0.5c0-0.2-0.1-0.3-0.2-0.4
		c-0.1-0.1-0.3-0.2-0.6-0.3l-1-0.2c-0.6-0.1-1-0.3-1.3-0.6s-0.4-0.6-0.4-1.1c0-0.4,0.1-0.7,0.3-1c0.2-0.3,0.5-0.5,0.9-0.6
		c0.4-0.2,0.8-0.2,1.3-0.2c0.7,0,1.3,0.1,1.7,0.4C140.1,518.9,140.3,519.3,140.4,519.8z"/>
	<path class="st11" d="M144.7,518.2v1.1h-3.4v-1.1H144.7z M142.1,516.8h1.4v5.6c0,0.2,0,0.3,0.1,0.4c0.1,0.1,0.1,0.2,0.2,0.2
		c0.1,0,0.2,0.1,0.3,0.1c0.1,0,0.2,0,0.2,0c0.1,0,0.1,0,0.2,0l0.2,1.1c-0.1,0-0.2,0.1-0.3,0.1s-0.3,0-0.5,0.1c-0.4,0-0.7,0-1-0.2
		c-0.3-0.1-0.5-0.3-0.7-0.6s-0.2-0.6-0.2-0.9V516.8z"/>
</g>
<g>
	<path class="st5" d="M97.4,601.1c0-0.3-0.2-0.6-0.5-0.8c-0.3-0.2-0.6-0.3-1-0.3c-0.3,0-0.6,0-0.8,0.1c-0.2,0.1-0.4,0.2-0.5,0.4
		s-0.2,0.3-0.2,0.5c0,0.2,0,0.3,0.1,0.4c0.1,0.1,0.2,0.2,0.3,0.3c0.1,0.1,0.3,0.2,0.4,0.2c0.2,0.1,0.3,0.1,0.5,0.1l0.8,0.2
		c0.3,0.1,0.6,0.2,0.9,0.3c0.3,0.1,0.5,0.3,0.8,0.5c0.2,0.2,0.4,0.4,0.5,0.7s0.2,0.6,0.2,0.9c0,0.5-0.1,0.9-0.4,1.2s-0.6,0.6-1,0.8
		s-1,0.3-1.6,0.3c-0.6,0-1.2-0.1-1.6-0.3c-0.5-0.2-0.8-0.5-1.1-0.8c-0.3-0.4-0.4-0.8-0.4-1.4h1.4c0,0.3,0.1,0.5,0.3,0.7
		c0.2,0.2,0.3,0.3,0.6,0.4c0.2,0.1,0.5,0.1,0.8,0.1c0.3,0,0.6,0,0.8-0.1c0.2-0.1,0.4-0.2,0.6-0.4c0.1-0.2,0.2-0.4,0.2-0.6
		c0-0.2-0.1-0.4-0.2-0.5s-0.3-0.3-0.5-0.3c-0.2-0.1-0.5-0.2-0.8-0.2l-0.9-0.2c-0.7-0.2-1.2-0.4-1.6-0.8c-0.4-0.3-0.6-0.8-0.6-1.4
		c0-0.5,0.1-0.9,0.4-1.2c0.3-0.4,0.6-0.6,1-0.8c0.4-0.2,0.9-0.3,1.5-0.3c0.6,0,1.1,0.1,1.5,0.3c0.4,0.2,0.8,0.5,1,0.8
		s0.4,0.7,0.4,1.2H97.4z"/>
	<path class="st5" d="M101.8,607c-0.4,0-0.7-0.1-1-0.2s-0.5-0.3-0.7-0.6c-0.2-0.3-0.3-0.6-0.3-1c0-0.3,0.1-0.6,0.2-0.8
		c0.1-0.2,0.3-0.4,0.5-0.5s0.5-0.2,0.7-0.3c0.3-0.1,0.6-0.1,0.8-0.2c0.4,0,0.6-0.1,0.9-0.1c0.2,0,0.4-0.1,0.5-0.1
		c0.1-0.1,0.2-0.2,0.2-0.3v0c0-0.3-0.1-0.5-0.3-0.7c-0.2-0.2-0.4-0.2-0.8-0.2c-0.3,0-0.6,0.1-0.8,0.2c-0.2,0.2-0.3,0.3-0.4,0.5
		l-1.3-0.2c0.1-0.4,0.3-0.7,0.5-0.9s0.5-0.4,0.9-0.6c0.3-0.1,0.7-0.2,1.1-0.2c0.3,0,0.6,0,0.9,0.1c0.3,0.1,0.5,0.2,0.8,0.3
		c0.2,0.2,0.4,0.4,0.6,0.6s0.2,0.6,0.2,1v4h-1.4V606h0c-0.1,0.2-0.2,0.3-0.4,0.5s-0.3,0.3-0.6,0.3C102.4,606.9,102.1,607,101.8,607z
		 M102.2,605.9c0.3,0,0.5-0.1,0.7-0.2s0.4-0.3,0.5-0.5s0.2-0.4,0.2-0.6V604c0,0-0.1,0.1-0.2,0.1s-0.2,0.1-0.4,0.1s-0.3,0-0.4,0.1
		c-0.1,0-0.2,0-0.3,0c-0.2,0-0.4,0.1-0.6,0.1c-0.2,0.1-0.3,0.2-0.4,0.3c-0.1,0.1-0.1,0.3-0.1,0.4c0,0.3,0.1,0.5,0.3,0.6
		S101.9,605.9,102.2,605.9z"/>
	<path class="st5" d="M111.8,600.9l-2.1,6h-1.6l-2.1-6h1.5l1.4,4.5h0.1l1.4-4.5H111.8z"/>
	<path class="st5" d="M115.4,607c-0.6,0-1.1-0.1-1.6-0.4c-0.4-0.3-0.8-0.6-1-1.1c-0.2-0.5-0.4-1-0.4-1.6c0-0.6,0.1-1.2,0.4-1.6
		c0.2-0.5,0.6-0.8,1-1.1c0.4-0.3,0.9-0.4,1.5-0.4c0.4,0,0.7,0.1,1,0.2c0.3,0.1,0.6,0.3,0.9,0.5c0.3,0.2,0.5,0.6,0.6,0.9
		c0.1,0.4,0.2,0.8,0.2,1.4v0.4h-4.9v-1h3.6c0-0.3-0.1-0.5-0.2-0.7c-0.1-0.2-0.3-0.4-0.5-0.5c-0.2-0.1-0.4-0.2-0.7-0.2
		c-0.3,0-0.5,0.1-0.8,0.2c-0.2,0.1-0.4,0.3-0.5,0.5c-0.1,0.2-0.2,0.5-0.2,0.7v0.8c0,0.3,0.1,0.6,0.2,0.9c0.1,0.2,0.3,0.4,0.5,0.6
		c0.2,0.1,0.5,0.2,0.8,0.2c0.2,0,0.4,0,0.6-0.1s0.3-0.1,0.4-0.3c0.1-0.1,0.2-0.3,0.3-0.4l1.3,0.1c-0.1,0.3-0.2,0.7-0.5,0.9
		c-0.2,0.3-0.5,0.5-0.9,0.6C116.3,606.9,115.9,607,115.4,607z"/>
</g>
<g>
	<g>
		<path d="M87.7,304.3v-0.9h6v0.9h-2.5v7.1h-1v-7.1H87.7z"/>
		<path d="M96.9,311.6c-0.4,0-0.7-0.1-1-0.2s-0.6-0.4-0.7-0.6c-0.2-0.3-0.3-0.6-0.3-1c0-0.3,0.1-0.6,0.2-0.8s0.3-0.4,0.5-0.5
			c0.2-0.1,0.5-0.2,0.8-0.3c0.3-0.1,0.6-0.1,0.8-0.1c0.4,0,0.7-0.1,0.9-0.1c0.2,0,0.4-0.1,0.5-0.1c0.1-0.1,0.2-0.2,0.2-0.3v0
			c0-0.4-0.1-0.7-0.3-0.9c-0.2-0.2-0.5-0.3-1-0.3c-0.4,0-0.8,0.1-1,0.3c-0.2,0.2-0.4,0.4-0.5,0.6l-0.9-0.3c0.2-0.4,0.4-0.6,0.6-0.9
			c0.3-0.2,0.5-0.3,0.9-0.4s0.6-0.1,0.9-0.1c0.2,0,0.4,0,0.7,0.1c0.3,0,0.5,0.1,0.7,0.3s0.4,0.4,0.6,0.6c0.2,0.3,0.2,0.7,0.2,1.1v4
			h-0.9v-0.8h0c-0.1,0.1-0.2,0.3-0.3,0.4s-0.3,0.3-0.6,0.4C97.5,311.5,97.2,311.6,96.9,311.6z M97,310.8c0.4,0,0.7-0.1,0.9-0.2
			c0.3-0.1,0.4-0.3,0.6-0.6s0.2-0.5,0.2-0.7v-0.8c0,0-0.1,0.1-0.3,0.1c-0.1,0-0.3,0.1-0.5,0.1s-0.3,0.1-0.5,0.1s-0.3,0-0.4,0
			c-0.2,0-0.5,0.1-0.7,0.2c-0.2,0.1-0.4,0.2-0.5,0.3s-0.2,0.3-0.2,0.6c0,0.3,0.1,0.6,0.4,0.7C96.3,310.7,96.6,310.8,97,310.8z"/>
		<path d="M101.3,313.7v-8.2h0.9v1h0.1c0.1-0.1,0.2-0.2,0.3-0.4c0.1-0.2,0.3-0.3,0.5-0.4s0.5-0.2,0.9-0.2c0.5,0,1,0.1,1.3,0.4
			c0.4,0.3,0.7,0.6,0.9,1.1c0.2,0.5,0.3,1,0.3,1.6c0,0.6-0.1,1.2-0.3,1.7s-0.5,0.8-0.9,1.1s-0.8,0.4-1.3,0.4c-0.4,0-0.7-0.1-0.9-0.2
			s-0.4-0.3-0.5-0.4c-0.1-0.2-0.2-0.3-0.3-0.4h-0.1v3.2H101.3z M102.2,308.4c0,0.5,0.1,0.9,0.2,1.2c0.1,0.3,0.3,0.6,0.6,0.8
			c0.3,0.2,0.6,0.3,0.9,0.3c0.4,0,0.7-0.1,1-0.3c0.3-0.2,0.5-0.5,0.6-0.8s0.2-0.7,0.2-1.2c0-0.4-0.1-0.8-0.2-1.1s-0.3-0.6-0.6-0.8
			s-0.6-0.3-1-0.3c-0.4,0-0.7,0.1-0.9,0.3c-0.3,0.2-0.4,0.5-0.6,0.8C102.3,307.6,102.2,308,102.2,308.4z"/>
		<path d="M113.5,311.6c-0.5,0-1-0.1-1.4-0.4s-0.7-0.6-1-1.1c-0.2-0.5-0.3-1-0.3-1.6c0-0.6,0.1-1.2,0.3-1.6c0.2-0.5,0.5-0.8,1-1.1
			s0.9-0.4,1.4-0.4c0.5,0,1,0.1,1.4,0.4s0.7,0.6,1,1.1c0.2,0.5,0.3,1,0.3,1.6c0,0.6-0.1,1.2-0.3,1.6c-0.2,0.5-0.5,0.8-1,1.1
			S114.1,311.6,113.5,311.6z M113.5,310.7c0.4,0,0.8-0.1,1-0.3s0.5-0.5,0.6-0.8s0.2-0.7,0.2-1.1c0-0.4-0.1-0.8-0.2-1.1
			c-0.1-0.3-0.3-0.6-0.6-0.8c-0.3-0.2-0.6-0.3-1-0.3c-0.4,0-0.8,0.1-1,0.3c-0.3,0.2-0.5,0.5-0.6,0.8c-0.1,0.3-0.2,0.7-0.2,1.1
			c0,0.4,0.1,0.8,0.2,1.1s0.3,0.6,0.6,0.8S113.1,310.7,113.5,310.7z"/>
		<path d="M118.6,307.8v3.6h-0.9v-6h0.9v0.9h0.1c0.1-0.3,0.4-0.6,0.6-0.7c0.3-0.2,0.7-0.3,1.1-0.3c0.4,0,0.8,0.1,1.1,0.2
			c0.3,0.2,0.5,0.4,0.7,0.8c0.2,0.3,0.3,0.8,0.3,1.3v3.8h-0.9v-3.8c0-0.5-0.1-0.8-0.4-1.1c-0.2-0.3-0.6-0.4-1-0.4
			c-0.3,0-0.6,0.1-0.8,0.2c-0.2,0.1-0.4,0.3-0.5,0.6C118.7,307.2,118.6,307.5,118.6,307.8z"/>
		<path class="st5" d="M81.9,321.3c0-1,0.1-1.9,0.4-2.7c0.3-0.8,0.6-1.6,1.1-2.3h1.1c-0.2,0.3-0.4,0.6-0.5,0.9s-0.3,0.8-0.4,1.2
			c-0.1,0.4-0.2,0.9-0.3,1.4c-0.1,0.5-0.1,0.9-0.1,1.4c0,0.6,0.1,1.2,0.2,1.9c0.1,0.6,0.3,1.2,0.5,1.8c0.2,0.5,0.4,1,0.7,1.3h-1.1
			c-0.5-0.7-0.9-1.5-1.1-2.3C82,323.2,81.9,322.3,81.9,321.3z"/>
		<path class="st5" d="M102.5,320.6c0,1-0.1,1.9-0.4,2.7c-0.3,0.8-0.6,1.6-1.1,2.3h-1.1c0.2-0.3,0.4-0.6,0.5-0.9s0.3-0.8,0.4-1.2
			c0.1-0.4,0.2-0.9,0.3-1.4c0.1-0.5,0.1-1,0.1-1.4c0-0.6-0.1-1.2-0.2-1.9c-0.1-0.6-0.3-1.2-0.5-1.8c-0.2-0.5-0.4-1-0.7-1.3h1.1
			c0.5,0.7,0.9,1.5,1.1,2.3C102.4,318.8,102.5,319.7,102.5,320.6z"/>
		<path class="st5" d="M111.8,318.7c0-0.4-0.2-0.7-0.5-0.9c-0.3-0.2-0.7-0.3-1.1-0.3c-0.3,0-0.6,0.1-0.9,0.2
			c-0.2,0.1-0.4,0.2-0.6,0.4c-0.1,0.2-0.2,0.4-0.2,0.6c0,0.2,0,0.4,0.1,0.5c0.1,0.1,0.2,0.3,0.4,0.3c0.1,0.1,0.3,0.2,0.5,0.2
			c0.2,0.1,0.3,0.1,0.5,0.2l0.8,0.2c0.3,0.1,0.5,0.1,0.8,0.3c0.3,0.1,0.5,0.2,0.7,0.4c0.2,0.2,0.4,0.4,0.6,0.6s0.2,0.6,0.2,0.9
			c0,0.5-0.1,0.9-0.3,1.2s-0.6,0.6-1,0.8s-1,0.3-1.6,0.3c-0.6,0-1.1-0.1-1.6-0.3c-0.4-0.2-0.8-0.5-1-0.8c-0.2-0.4-0.4-0.8-0.4-1.2
			h1.2c0,0.3,0.1,0.5,0.3,0.7s0.4,0.3,0.6,0.4c0.3,0.1,0.5,0.1,0.9,0.1c0.3,0,0.6-0.1,0.9-0.2c0.3-0.1,0.5-0.3,0.6-0.5
			c0.2-0.2,0.2-0.4,0.2-0.7c0-0.2-0.1-0.4-0.2-0.6c-0.1-0.2-0.3-0.3-0.5-0.4c-0.2-0.1-0.5-0.2-0.8-0.3l-0.9-0.3
			c-0.6-0.2-1.1-0.4-1.5-0.8c-0.4-0.3-0.6-0.8-0.6-1.3c0-0.5,0.1-0.9,0.4-1.2s0.6-0.6,1-0.8s0.9-0.3,1.4-0.3c0.5,0,1,0.1,1.4,0.3
			c0.4,0.2,0.7,0.5,1,0.8s0.4,0.7,0.4,1.1H111.8z"/>
		<path class="st5" d="M115,317.7c-0.2,0-0.4-0.1-0.5-0.2s-0.2-0.3-0.2-0.5c0-0.2,0.1-0.4,0.2-0.5s0.3-0.2,0.5-0.2s0.4,0.1,0.5,0.2
			s0.2,0.3,0.2,0.5c0,0.2-0.1,0.4-0.2,0.5S115.2,317.7,115,317.7z M114.4,324.6v-6h1.2v6H114.4z"/>
		<path class="st5" d="M119.7,327c-0.5,0-0.9-0.1-1.2-0.2s-0.6-0.3-0.8-0.5c-0.2-0.2-0.4-0.4-0.5-0.7l1-0.4c0.1,0.1,0.2,0.2,0.3,0.4
			s0.3,0.2,0.5,0.3c0.2,0.1,0.5,0.1,0.8,0.1c0.4,0,0.8-0.1,1.1-0.3s0.4-0.6,0.4-1v-1.2h-0.1c-0.1,0.1-0.2,0.3-0.3,0.4
			s-0.3,0.3-0.5,0.4c-0.2,0.1-0.5,0.2-0.9,0.2c-0.5,0-0.9-0.1-1.3-0.3s-0.7-0.6-0.9-1c-0.2-0.4-0.3-1-0.3-1.6c0-0.6,0.1-1.2,0.3-1.6
			c0.2-0.5,0.5-0.8,0.9-1c0.4-0.2,0.8-0.4,1.3-0.4c0.4,0,0.7,0.1,0.9,0.2c0.2,0.1,0.4,0.3,0.5,0.4s0.2,0.3,0.3,0.4h0.1v-1h1.1v6.1
			c0,0.5-0.1,0.9-0.4,1.3c-0.2,0.3-0.6,0.6-1,0.7C120.6,326.9,120.2,327,119.7,327z M119.7,323.6c0.3,0,0.6-0.1,0.9-0.2
			c0.2-0.2,0.4-0.4,0.5-0.7c0.1-0.3,0.2-0.7,0.2-1.1c0-0.4-0.1-0.8-0.2-1.1c-0.1-0.3-0.3-0.5-0.5-0.7c-0.2-0.2-0.5-0.3-0.9-0.3
			c-0.4,0-0.6,0.1-0.9,0.3c-0.2,0.2-0.4,0.4-0.5,0.7c-0.1,0.3-0.2,0.7-0.2,1c0,0.4,0.1,0.7,0.2,1s0.3,0.5,0.5,0.7
			C119,323.5,119.3,323.6,119.7,323.6z"/>
		<path class="st5" d="M125.1,321.1v3.6h-1.2v-6h1.1v1h0.1c0.1-0.3,0.4-0.6,0.7-0.8c0.3-0.2,0.7-0.3,1.1-0.3c0.4,0,0.8,0.1,1.1,0.3
			c0.3,0.2,0.5,0.4,0.7,0.8s0.3,0.8,0.3,1.2v3.8h-1.2V321c0-0.4-0.1-0.8-0.3-1s-0.5-0.4-0.9-0.4c-0.3,0-0.5,0.1-0.7,0.2
			s-0.4,0.3-0.5,0.5C125.2,320.5,125.1,320.8,125.1,321.1z"/>
	</g>
	<path class="st12" d="M93.3,314.1c-0.3-0.1-0.6-0.1-1.2-0.1s-1,0-1.2,0.1c-0.3,0.1-0.6,0.4-0.7,0.7c-0.1,0.2-0.1,0.3-0.1,0.6
		c0,0.4-0.2,0.7-0.5,0.9c-0.3,0.2-0.7,0.2-1.1,0c-0.2-0.1-0.4-0.2-0.6-0.2c-0.4,0-0.7,0-1,0.3c-0.2,0.2-0.4,0.4-0.7,1
		c-0.3,0.6-0.5,0.8-0.5,1.1c0,0.4,0.1,0.7,0.3,1c0.1,0.1,0.2,0.2,0.5,0.4c0.3,0.2,0.5,0.5,0.5,0.9c0,0.4-0.2,0.7-0.5,0.9
		c-0.2,0.1-0.4,0.2-0.5,0.4c-0.2,0.3-0.3,0.6-0.3,1c0,0.3,0.2,0.5,0.5,1.1c0.3,0.6,0.5,0.8,0.7,1c0.3,0.2,0.7,0.3,1,0.3
		c0.2,0,0.3-0.1,0.6-0.2c0.3-0.2,0.7-0.2,1.1,0c0.3,0.2,0.5,0.5,0.5,0.9c0,0.3,0,0.4,0.1,0.6c0.1,0.3,0.4,0.6,0.7,0.7
		c0.3,0.1,0.6,0.1,1.2,0.1s1,0,1.2-0.1c0.3-0.1,0.6-0.4,0.7-0.7c0.1-0.2,0.1-0.3,0.1-0.6c0-0.4,0.2-0.7,0.5-0.9
		c0.3-0.2,0.7-0.2,1.1,0c0.2,0.1,0.4,0.2,0.6,0.2c0.4,0,0.7,0,1-0.3c0.2-0.2,0.4-0.4,0.7-1c0.3-0.6,0.5-0.8,0.5-1.1
		c0-0.4-0.1-0.7-0.3-1c-0.1-0.1-0.2-0.2-0.5-0.4c-0.3-0.2-0.5-0.5-0.5-0.9c0-0.4,0.2-0.7,0.5-0.9c0.2-0.1,0.4-0.2,0.5-0.4
		c0.2-0.3,0.3-0.7,0.3-1c0-0.3-0.2-0.5-0.5-1.1c-0.3-0.6-0.5-0.8-0.7-1c-0.3-0.2-0.7-0.3-1-0.3c-0.2,0-0.3,0.1-0.6,0.2
		c-0.3,0.2-0.7,0.2-1.1,0c-0.3-0.2-0.5-0.5-0.5-0.9c0-0.3,0-0.4-0.1-0.6C93.9,314.5,93.6,314.3,93.3,314.1z M92.1,322.9
		c1.1,0,2.1-0.9,2.1-2s-0.9-2-2.1-2s-2.1,0.9-2.1,2S90.9,322.9,92.1,322.9z"/>
</g>
</svg>
