<?xml version="1.0" encoding="utf-8"?>
<!-- Generator: Adobe Illustrator 26.0.1, SVG Export Plug-In . SVG Version: 6.00 Build 0)  -->
<svg version="1.1" id="Layer_1" xmlns="http://www.w3.org/2000/svg" xmlns:xlink="http://www.w3.org/1999/xlink" x="0px" y="0px"
	 viewBox="0 0 118.97 28.04" style="enable-background:new 0 0 118.97 28.04;" xml:space="preserve">
<style type="text/css">
	.st0{fill:url(#SVGID_1_);}
	.st1{fill:url(#SVGID_00000091004641294094062350000018415594784817681330_);}
</style>
<g>
	<linearGradient id="SVGID_1_" gradientUnits="userSpaceOnUse" x1="0" y1="14.0206" x2="118.9691" y2="14.0206">
		<stop  offset="0" style="stop-color:#FFFFFF"/>
		<stop  offset="0.4548" style="stop-color:#FBFBFB"/>
		<stop  offset="0.757" style="stop-color:#F2F3F3"/>
		<stop  offset="1" style="stop-color:#E6E7E8"/>
	</linearGradient>
	<path class="st0" d="M114.58,28.04H4.39C1.98,28.04,0,26.07,0,23.65V4.39C0,1.98,1.98,0,4.39,0h110.19c2.42,0,4.39,1.98,4.39,4.39
		v19.26C118.97,26.07,116.99,28.04,114.58,28.04z"/>
	
		<linearGradient id="SVGID_00000004526513739484441750000018152962835018349965_" gradientUnits="userSpaceOnUse" x1="115.9692" y1="14.0206" x2="1.3158" y2="14.0206">
		<stop  offset="0" style="stop-color:#FFFFFF"/>
		<stop  offset="0.4682" style="stop-color:#FBFBFB"/>
		<stop  offset="0.7431" style="stop-color:#F1F1F1"/>
		<stop  offset="0.9676" style="stop-color:#E3E4E4"/>
		<stop  offset="1" style="stop-color:#E0E1E2"/>
	</linearGradient>
	<path style="fill:url(#SVGID_00000004526513739484441750000018152962835018349965_);" d="M3,14.02L3,14.02C3,7.93,7.93,3,14.02,3
		h90.93c6.09,0,11.02,4.93,11.02,11.02v0c0,6.09-4.93,11.02-11.02,11.02H14.02C7.93,25.04,3,20.11,3,14.02z"/>
</g>
</svg>
