<?xml version="1.0" encoding="utf-8"?>
<!-- Generator: Adobe Illustrator 26.0.1, SVG Export Plug-In . SVG Version: 6.00 Build 0)  -->
<svg version="1.0" id="Layer_1" xmlns="http://www.w3.org/2000/svg" xmlns:xlink="http://www.w3.org/1999/xlink" x="0px" y="0px"
	 viewBox="0 0 235.9 491.1" style="enable-background:new 0 0 235.9 491.1;" xml:space="preserve">
<style type="text/css">
	.st0{fill:#231F20;}
	.st1{fill:#FFFFFF;}
	.st2{fill:#F68832;}
	.st3{fill:#078241;}
	.st4{fill:#115D33;}
	.st5{fill:#0E4525;}
	.st6{fill:#186A60;}
	.st7{fill:#8F9393;}
	.st8{fill:#F6852B;}
	.st9{fill:#A33123;}
	.st10{fill:#B8342A;}
	.st11{fill:none;}
	.st12{fill:#669A9D;}
	.st13{fill:#F3D1B6;}
	.st14{fill:#E1C1A9;}
	.st15{fill:#C1DAEA;}
	.st16{fill:#8CD0DE;}
	.st17{fill:#E4E4E4;}
	.st18{fill:#FED8B7;}
	.st19{fill:#8D643D;}
	.st20{fill:#F2CFB5;}
	.st21{fill:#A2C1E6;}
	.st22{fill:#16695F;}
	.st23{fill:#4A4E5A;}
	.st24{fill:#F5EB10;}
	.st25{fill:#4FB862;}
	.st26{fill:#FBED1D;}
	.st27{fill:#FFFCFD;}
	.st28{fill:none;stroke:#FFFCFD;stroke-width:0.2565;stroke-linecap:round;stroke-miterlimit:10;}
	.st29{fill:#52A8DC;stroke:#FFFFFF;stroke-width:0.1539;stroke-miterlimit:10;}
	.st30{fill:#58B968;stroke:#FFFFFF;stroke-width:0.1539;stroke-miterlimit:10;}
	.st31{fill:#5859A6;}
	.st32{fill:#F16A39;}
	.st33{fill:#221F1F;}
	.st34{fill:#676868;}
	.st35{fill:#424345;}
	.st36{fill:#5CB948;}
	.st37{fill:#1B9282;}
	.st38{opacity:0.9;fill:#15534A;}
	.st39{fill:#3292D0;}
	.st40{fill:#21A64A;}
	.st41{opacity:0.9;fill:#104139;}
	.st42{fill:#4CB756;}
	.st43{fill:#7A6CAF;}
	.st44{fill:#E9262A;}
	.st45{fill:#105049;}
	.st46{fill:#F7F8F9;}
	.st47{fill:#BEBDBF;}
	.st48{fill:#EDECED;}
	.st49{fill:none;stroke:#CFD1D2;stroke-width:0.1874;stroke-miterlimit:10;}
	.st50{fill:#FFFFFF;stroke:#BCBDBF;stroke-width:0.15;stroke-miterlimit:10;}
	.st51{fill:#434244;}
	.st52{fill:#328BCB;}
</style>
<g>
	<path class="st4" d="M203.6,484.3H32.3c-14.1,0-25.6-11.4-25.6-25.6V32.4c0-14.1,11.4-25.6,25.6-25.6h171.3
		c14.1,0,25.6,11.4,25.6,25.6v426.3C229.2,472.8,217.7,484.3,203.6,484.3z"/>
	<g>
		<path class="st4" d="M203.4,1.6c17,0,30.9,13.9,30.9,31.1v425.7c0,17.1-13.9,31.1-30.9,31.1H32.5c-17,0-30.9-13.9-30.9-31.1V32.7
			c0-17.1,13.9-31.1,30.9-31.1H203.4 M203.4,0H32.5C14.6,0,0,14.7,0,32.7v425.7c0,18,14.6,32.7,32.5,32.7h170.9
			c17.9,0,32.5-14.7,32.5-32.7V32.7C235.9,14.7,221.3,0,203.4,0L203.4,0z"/>
	</g>
	<g>
		<rect x="6.7" y="32.5" class="st5" width="222.4" height="24.5"/>
	</g>
	<g>
		<rect x="6.7" y="57" class="st6" width="222.4" height="37.9"/>
	</g>
	<g>
		<g>
			<g id="XMLID_00000151504254733291610880000002823311317241441458_">
				<g id="XMLID_00000173868961388025140010000017036191675428848556_">
					<path class="st7" d="M27.8,83.3h4.3c1.6,0,2.7-0.4,3.1-1.1c0.1-0.1,0.1-0.2,0.2-0.3l-3.9-1.3L27.8,83.3z"/>
				</g>
				<g id="XMLID_00000138555234906914349490000005478220919834174082_">
					<path class="st7" d="M30.4,80.6H30v-2.2h1.5c0.5,0,0.8,0.1,1,0.4c0.2,0.2,0.3,0.5,0.3,0.8s-0.1,0.5-0.3,0.8l0,0l3.2,1
						c0.2-0.5,0.3-1,0.3-1.5c0-1.5-0.7-2.5-2.1-2.9c0.6-0.2,1-0.5,1.4-1c0.3-0.5,0.5-1,0.5-1.7c0-0.8-0.3-1.6-0.8-2.2
						c-0.5-0.7-1.3-1-2.5-1H27v12.3l0.4-0.6L30.4,80.6z M30.1,73.6h1.5c0.7,0,1.1,0.3,1.1,1c0,0.3-0.1,0.5-0.2,0.7
						c-0.2,0.2-0.4,0.3-0.8,0.3h-1.5v-2H30.1z"/>
				</g>
				<g id="XMLID_00000040556770497578666160000015913144066737020081_">
					<path class="st7" d="M41.8,77.1c0.2,0,0.4,0,0.6,0.1V74c-0.2,0-0.3,0-0.5,0c-1.1,0-1.8,0.7-2.1,2.1v-1.9h-2.6v6.5l3-2
						C40.4,77.6,40.9,77.1,41.8,77.1z"/>
				</g>
				<g id="XMLID_00000106107114002692798220000013343107825883883935_">
					<polygon class="st7" points="37.3,83.3 40.3,83.3 40.3,79.6 37.3,81.5 					"/>
				</g>
				<g id="XMLID_00000176016395445293749460000004586351012372759210_">
					<path class="st8" d="M48.4,78.3c0,0.1,0,0.2,0,0.4c0,0.6-0.1,1.2-0.2,1.8c-0.1,0.6-0.4,0.9-0.9,0.9c-0.3,0-0.6-0.2-0.8-0.5
						c-0.1-0.3-0.2-0.8-0.3-1.6l-0.5,0.2l-2.8-1.6c0,0.3-0.1,0.6-0.1,0.9c0,1.3,0.4,2.4,1.2,3.3c0.8,0.9,1.8,1.4,3.2,1.4
						c1.3,0,2.4-0.5,3.2-1.4c0.8-0.9,1.2-2.1,1.2-3.4c0-0.5-0.1-1.1-0.2-1.5L51.2,77L48.4,78.3z"/>
				</g>
				<g id="XMLID_00000019657517067380590240000005916062540126778796_">
					<path class="st8" d="M46.3,78.4c0-0.7,0.1-1.3,0.2-1.6c0.2-0.4,0.4-0.6,0.8-0.6s0.7,0.2,0.8,0.6c0.1,0.2,0.1,0.4,0.2,0.7
						l2.8-1.2c-0.2-0.3-0.4-0.7-0.6-0.9c-0.8-0.9-1.9-1.3-3.2-1.3c-1.3,0-2.4,0.5-3.2,1.4c-0.5,0.5-0.8,1.1-1,1.8l2.6,1.5L46.3,78.4
						z"/>
				</g>
				<g id="XMLID_00000003062794719769837340000002947532793429580689_">
					<polygon class="st3" points="53,78.4 53,83.3 55.9,83.3 55.9,80.8 56.8,79.6 58.3,83.3 61.5,83.3 58.8,77.3 59,77.1 54.3,79.7 
											"/>
				</g>
				<g id="XMLID_00000152225936452328052700000008926642580165360305_">
					<path class="st3" d="M59.6,76l0.2,0.1l1.5-1.9h-2.8l-2,2.6c-0.2,0.3-0.4,0.5-0.6,0.8c0-1,0-1.5,0-1.7v-5H53v6.5l1.4,1.3
						L59.6,76z"/>
				</g>
				<g id="XMLID_00000018230253328017336370000013457819953451800739_">
					<path class="st7" d="M76.2,74c-1.1,0-1.8,0.7-2.1,2.1v-1.9h-2.6v9.1h3v-4.2c0-1.3,0.5-2,1.6-2c0.2,0,0.4,0,0.6,0.1V74
						C76.4,74,76.3,74,76.2,74z"/>
				</g>
				<g>
					<g>
						<path class="st7" d="M67.1,77.6h-1.9l-1.5,1l-2-0.9c-0.1,0.4-0.1,0.7-0.1,1.1c0,1.3,0.4,2.4,1.2,3.3c0.8,0.9,1.9,1.3,3.2,1.3
							c1.2,0,2.2-0.3,2.9-0.9c0.7-0.6,1.2-1.4,1.3-2.3L67.3,80c-0.1,0.7-0.5,1.1-1.2,1.1c-0.5,0-0.8-0.1-1-0.4s-0.3-0.7-0.3-1.3h5.4
							c0-0.2,0-0.4,0-0.5c0-1.5-0.4-2.7-1.2-3.6l-0.1-0.1l-2.1,1.4C67,76.8,67.1,77.1,67.1,77.6z"/>
					</g>
					<g>
						<path class="st7" d="M62.8,75.4c-0.4,0.5-0.7,1-0.9,1.6l1.8,0.8l1.3-0.9c0.1-0.6,0.5-0.9,1-0.9c0.1,0,0.2,0,0.3,0l2.2-1.4
							c-0.7-0.5-1.5-0.7-2.4-0.7C64.6,73.9,63.6,74.4,62.8,75.4z"/>
					</g>
					<g>
						<path class="st7" d="M76,71.5l2.3-3l-3.6,0.8l0.5,0.8l-6.8,4.5c0.2,0.1,0.4,0.3,0.6,0.5l6.6-4.4L76,71.5z"/>
					</g>
				</g>
				<g id="XMLID_00000035499608246903996380000005533865045078424231_">
					<g id="XMLID_00000138571161899901299330000002377327729081987511_">
						<path class="st1" d="M23.6,83.3c-0.4,0.1-0.8,0.1-1.1,0.1c-0.4,0-0.7,0-1-0.2c-0.3-0.1-0.5-0.4-0.7-0.7
							c-0.2-0.4-0.3-0.9-0.3-1.5l0.1-3.5c0-0.5-0.1-0.9-0.2-1.1c-0.2-0.2-0.5-0.2-0.9-0.1l1.5-3.1c0.4-0.1,0.8-0.1,1.1-0.1
							c0.4,0,0.7,0,1,0.2c0.3,0.1,0.5,0.4,0.7,0.8s0.3,0.9,0.2,1.6l-0.1,3.5c0,0.5,0.1,0.9,0.2,1.1c0.2,0.2,0.5,0.2,0.9,0.1
							L23.6,83.3z M24.4,70c0.1,0.3,0,0.5,0,0.8c-0.1,0.2-0.2,0.5-0.3,0.6c-0.2,0.2-0.4,0.4-0.6,0.5s-0.5,0.2-0.7,0.3
							c-0.2,0.1-0.5,0.1-0.8,0c-0.3,0-0.5-0.1-0.7-0.2s-0.4-0.3-0.6-0.5s-0.3-0.4-0.3-0.7c-0.1-0.3,0-0.5,0-0.8
							c0.1-0.2,0.2-0.4,0.4-0.6c0.2-0.2,0.4-0.3,0.6-0.5c0.2-0.1,0.5-0.2,0.7-0.3c0.2-0.1,0.5-0.1,0.8,0c0.3,0,0.5,0.1,0.7,0.2
							s0.4,0.3,0.6,0.4C24.3,69.5,24.4,69.7,24.4,70z"/>
					</g>
				</g>
			</g>
		</g>
	</g>
	<g>
		<g>
			<g>
				<rect x="208.3" y="72.5" class="st1" width="6.2" height="1.2"/>
			</g>
			<g>
				<rect x="208.3" y="75.4" class="st1" width="6.2" height="1.2"/>
			</g>
			<g>
				<rect x="208.3" y="78.3" class="st1" width="6.2" height="1.2"/>
			</g>
		</g>
		<g>
			<polygon class="st1" points="206.3,73.6 207.6,73.6 205.9,71.9 204.2,73.6 205.5,73.6 205.5,78.5 204.2,78.5 205.9,80.2 
				207.6,78.5 206.3,78.5 			"/>
		</g>
	</g>
	<g>
		<g>
			<g>
				<ellipse class="st9" cx="178.8" cy="76" rx="9.1" ry="9.1"/>
			</g>
			<g>
				<path class="st10" d="M178.8,85.1c-5,0-9.1-4.1-9.1-9.1s4.1-9.1,9.1-9.1V85.1z"/>
			</g>
		</g>
		<g>
			<g>
				<g>
					<path class="st13" d="M177.3,78.4l-0.5,1.3l3.8,0.3l-0.5-1.4C178.8,79.4,177.8,78.8,177.3,78.4z"/>
				</g>
				<g>
					<path class="st14" d="M180.2,78.6l-0.4-1h-2.2l-0.3,0.8C177.8,78.8,178.8,79.4,180.2,78.6z"/>
				</g>
			</g>
			<g>
				<g>
					<path class="st15" d="M172.4,82.4L172.4,82.4c1.4,1.6,3.4,2.5,5.6,2.7c-0.4-1.4-1.2-4.6-1.5-5.6
						C175.2,80.6,172.9,81.5,172.4,82.4z"/>
				</g>
				<g>
					<path class="st15" d="M185.1,82.4c-0.5-0.8-2.7-1.7-4.1-2.9c-0.3,1-1.1,4.2-1.5,5.6C181.7,84.9,183.7,83.9,185.1,82.4
						L185.1,82.4z"/>
				</g>
			</g>
			<g>
				<g>
					<path class="st17" d="M180.4,78.8l-1.6,1l0,0V85l0,0h0.5c0.1,0,0.1,0,0.2,0c0.4-1.4,1.2-4.6,1.5-5.6
						C180.8,79.2,180.5,79,180.4,78.8z"/>
				</g>
				<g>
					<path class="st17" d="M178.8,85.1v-5.2l0,0l-1.6-1c-0.2,0.2-0.4,0.5-0.6,0.7c0.3,1,1.1,4.2,1.5,5.6c0.1,0,0.1,0,0.2,0
						L178.8,85.1L178.8,85.1z"/>
				</g>
			</g>
			<g>
				<g>
					<path class="st18" d="M178.8,70.8c-1.9,0-3.4,0.6-3.4,2.8c0,2.2,1.5,5.1,3.4,5.1l0,0V70.8L178.8,70.8z"/>
				</g>
				<g>
					<path class="st18" d="M182.2,73.5c0-2.2-1.5-2.8-3.4-2.8v7.9C180.7,78.6,182.2,75.7,182.2,73.5z"/>
				</g>
				<g>
					<path class="st19" d="M175.4,74.7h0.6c0,0,0.1-2.2,0.6-2.5s1.4,0.2,2.2,0v-2.5c0,0-2.1-0.1-2.9,0.8
						C175.4,71.1,175,72,175.4,74.7z"/>
				</g>
				<g>
					<path class="st19" d="M182.2,74.7h-0.6c0,0-0.1-2.2-0.6-2.5s-1.4,0.2-2.2,0v-2.5c0,0,2.1-0.1,2.9,0.8
						C182.2,71.1,182.6,72,182.2,74.7z"/>
				</g>
				<g>
					
						<ellipse transform="matrix(0.982 -0.189 0.189 0.982 -10.9527 34.5546)" class="st18" cx="175.7" cy="74.7" rx="0.5" ry="0.9"/>
				</g>
				<g>
					<path class="st20" d="M181.4,74.7c-0.1,0.5,0,0.9,0.3,1c0.3,0,0.5-0.3,0.6-0.8s0-0.9-0.3-1C181.8,73.8,181.5,74.2,181.4,74.7z"
						/>
				</g>
			</g>
			<g>
				<polygon class="st21" points="178.8,79.8 178.1,80 178.5,80.8 178.8,80.8 				"/>
			</g>
			<g>
				<polygon class="st1" points="178.8,79.8 177.7,80.8 176.7,79.3 177.2,78.8 				"/>
			</g>
			<g>
				<g>
					<path class="st1" d="M175.3,80.3l0.9,2.6l0.7-0.3l-0.4,1l0.7,1.4c0.3,0,0.6,0.1,0.8,0.1l-1.4-5.7L175.3,80.3z"/>
				</g>
				<g>
					<path class="st1" d="M180.7,82.5l0.7,0.3l0.9-2.6l-1.4-1l-1.4,5.7c0.3,0,0.6-0.1,0.8-0.1l0.7-1.4L180.7,82.5z"/>
				</g>
			</g>
			<g>
				<polygon class="st21" points="178.8,79.8 179.4,80 179.1,80.8 178.8,80.8 				"/>
			</g>
			<g>
				<polygon class="st1" points="178.8,79.8 179.9,80.8 180.8,79.3 180.4,78.8 				"/>
			</g>
			<g>
				<g>
					<path class="st21" d="M178.8,80.8v4.3c0.2,0,0.4,0,0.7,0l-0.4-4.2h-0.3V80.8z"/>
				</g>
				<g>
					<path class="st21" d="M178.8,80.8h-0.3l-0.4,4.2c0.2,0,0.4,0,0.7,0l0,0l0,0V80.8L178.8,80.8z"/>
				</g>
			</g>
		</g>
	</g>
	<g>
		<g>
			<polyline class="st1" points="125.8,71.2 123.6,71.2 121.9,80.4 121.1,80.4 122.8,71.2 120.5,71.2 120.7,70.4 126,70.4 
				125.8,71.2 			"/>
		</g>
		<g>
			<path class="st1" d="M127.5,73.7c-0.2,0-0.3,0-0.4,0c-0.4,0-0.8,0.2-1.1,0.5c-0.4,0.4-0.6,0.9-0.7,1.6l-0.8,4.7h-0.7l1.4-7.5h0.7
				l-0.2,1.2l0,0c0.5-0.9,1.1-1.4,1.8-1.4c0,0,0.1,0,0.2,0c0.1,0,0.1,0,0.1,0L127.5,73.7"/>
		</g>
		<g>
			<path class="st1" d="M131.1,80.5c-0.1,0-0.1,0-0.2,0c-0.1,0-0.2,0-0.3,0c-0.4,0-0.6-0.2-0.6-0.6c0-0.1,0-0.2,0-0.3v-0.2l0,0
				c-0.2,0.4-0.5,0.7-0.9,0.9c-0.4,0.2-0.7,0.3-1,0.3c-0.9,0-1.4-0.5-1.4-1.5c0-0.2,0-0.4,0.1-0.7c0.1-0.7,0.4-1.2,0.7-1.5
				c0.3-0.3,0.7-0.5,1.3-0.6c0.3-0.1,0.8-0.2,1.4-0.4c0.3-0.1,0.4-0.4,0.5-0.9c0-0.2,0-0.4,0-0.5c0-0.6-0.3-0.9-0.9-0.9
				c-0.8,0-1.4,0.6-1.6,1.7h-0.7c0.3-1.6,1.1-2.4,2.4-2.4c1.1,0,1.6,0.5,1.6,1.4c0,0.2,0,0.4-0.1,0.7l-0.8,4.6
				c-0.1,0.3,0,0.5,0.2,0.5c0,0,0.1,0,0.2,0L131.1,80.5 M130.2,78.1l0.3-1.8c-0.2,0.2-0.4,0.3-0.8,0.4c-0.3,0.1-0.6,0.2-0.9,0.3
				c-0.4,0.1-0.6,0.3-0.8,0.5s-0.4,0.6-0.4,1c0,0.2,0,0.3,0,0.5c0,0.7,0.3,1,0.8,1c0.4,0,0.8-0.2,1.1-0.5
				C129.8,79.2,130.1,78.7,130.2,78.1z"/>
		</g>
		<g>
			<path class="st1" d="M135.4,80.4h-0.7l0.2-1.2l0,0c-0.4,0.9-1,1.4-1.8,1.4c-1,0-1.5-0.7-1.5-2.2c0-0.5,0.1-1.1,0.2-1.7
				c0.5-2.6,1.4-3.9,2.7-3.9c0.3,0,0.6,0.1,0.9,0.3c0.2,0.2,0.4,0.5,0.4,1l0,0l0.7-3.7h0.7L135.4,80.4 M135.4,76.7
				c0.1-0.6,0.2-1.1,0.2-1.5c0-1.1-0.3-1.7-1-1.7c-0.9,0-1.6,1.1-2,3.2c-0.1,0.7-0.2,1.2-0.2,1.7c0,1,0.3,1.5,1,1.5
				C134.3,79.9,135,78.8,135.4,76.7z"/>
		</g>
		<g>
			<path class="st1" d="M140.8,76.8h-3.5c-0.1,0.7-0.2,1.3-0.2,1.7c0,1,0.3,1.5,1,1.5c0.4,0,0.7-0.2,1-0.5s0.5-0.8,0.6-1.4h0.7
				c-0.1,0.7-0.4,1.4-0.9,1.8c-0.5,0.5-1,0.8-1.7,0.8c-1.1,0-1.6-0.7-1.6-2.1c0-0.5,0.1-1.1,0.2-1.8c0.5-2.6,1.4-3.8,2.9-3.8
				c1.1,0,1.6,0.6,1.6,1.9C141.1,75.3,141,75.9,140.8,76.8 M140.2,76.1c0.1-0.5,0.1-0.9,0.1-1.3c0-0.9-0.3-1.3-1-1.3
				c-0.9,0-1.6,0.9-1.9,2.6C137.4,76.1,140.2,76.1,140.2,76.1z"/>
		</g>
		<g>
			<path class="st1" d="M152,75.9c-0.1,0.7-0.4,1.3-0.7,1.7c-0.4,0.4-0.7,0.6-1.2,0.6c-0.3,0-0.5-0.1-0.7-0.2
				c-0.1-0.1-0.2-0.2-0.2-0.4l-0.4,2.1h-0.9L149,74h0.9l-0.1,0.6c0.1-0.2,0.3-0.3,0.4-0.4c0.2-0.2,0.5-0.3,0.8-0.3
				c0.4,0,0.7,0.2,1,0.5C152.1,74.7,152.2,75.2,152,75.9 M150.5,74.7c-0.3,0-0.6,0.2-0.8,0.6c-0.1,0.2-0.2,0.4-0.2,0.7
				c-0.1,0.5,0,0.8,0.1,1c0.1,0.1,0.3,0.2,0.4,0.2c0.3,0,0.5-0.1,0.7-0.3c0.2-0.2,0.3-0.5,0.4-0.9c0.1-0.3,0-0.6,0-0.8
				C150.9,74.8,150.8,74.7,150.5,74.7z"/>
		</g>
		<g>
			<path class="st1" d="M154.7,73.8l-0.2,1.1c-0.1,0-0.1,0-0.2,0h-0.1c-0.4,0-0.7,0.1-0.8,0.4c-0.1,0.2-0.2,0.4-0.2,0.7l-0.4,2h-0.9
				l0.8-4.1h0.9l-0.1,0.7c0.2-0.3,0.4-0.5,0.5-0.6c0.2-0.2,0.4-0.3,0.7-0.3V73.8C154.6,73.8,154.7,73.8,154.7,73.8"/>
		</g>
		<g>
			<path class="st1" d="M157.7,74.5c0.1,0.2,0.1,0.5,0.1,0.9c0,0.2,0,0.5-0.1,0.8h-2.5c-0.1,0.4,0,0.7,0.2,0.9
				c0.1,0.1,0.3,0.2,0.4,0.2c0.2,0,0.4-0.1,0.5-0.2s0.2-0.2,0.2-0.3h0.9c-0.1,0.2-0.2,0.5-0.5,0.7c-0.4,0.4-0.8,0.6-1.4,0.6
				c-0.5,0-0.8-0.2-1.1-0.5s-0.4-0.9-0.2-1.6c0.1-0.7,0.4-1.3,0.8-1.6c0.4-0.4,0.8-0.6,1.3-0.6c0.3,0,0.5,0.1,0.8,0.2
				S157.6,74.3,157.7,74.5 M155.4,75.5h1.4c0-0.3,0-0.5-0.1-0.6s-0.3-0.2-0.5-0.2s-0.4,0.1-0.5,0.2C155.6,75,155.5,75.2,155.4,75.5z
				"/>
		</g>
		<g>
			<path class="st1" d="M158.6,76.7c0,0.2,0,0.3,0.1,0.4s0.3,0.2,0.6,0.2c0.2,0,0.3,0,0.5-0.1c0.1-0.1,0.2-0.2,0.2-0.3
				c0-0.1,0-0.2-0.1-0.3c-0.1-0.1-0.4-0.2-0.9-0.3c-0.4-0.1-0.6-0.3-0.8-0.4c-0.1-0.2-0.2-0.4-0.1-0.7c0.1-0.4,0.3-0.7,0.6-1
				s0.7-0.4,1.2-0.4c0.4,0,0.8,0.1,1,0.3c0.2,0.2,0.3,0.6,0.3,1.1h-1c0-0.1,0-0.2,0-0.3c-0.1-0.1-0.2-0.2-0.5-0.2
				c-0.2,0-0.4,0-0.5,0.1S159,75,159,75.1c0,0.1,0,0.2,0.1,0.3c0.1,0.1,0.4,0.2,0.9,0.3c0.4,0.1,0.6,0.3,0.7,0.5
				c0.1,0.2,0.2,0.5,0.1,0.8c-0.1,0.4-0.3,0.7-0.6,1s-0.7,0.4-1.3,0.4s-0.9-0.1-1.2-0.4c-0.2-0.3-0.3-0.6-0.2-1h1.1"/>
		</g>
		<g>
			<path class="st1" d="M162,76.7c0,0.2,0,0.3,0.1,0.4s0.3,0.2,0.6,0.2c0.2,0,0.3,0,0.5-0.1c0.1-0.1,0.2-0.2,0.2-0.3
				c0-0.1,0-0.2-0.1-0.3c-0.1-0.1-0.4-0.2-0.9-0.3c-0.4-0.1-0.6-0.3-0.8-0.4c-0.1-0.2-0.2-0.4-0.1-0.7c0.1-0.4,0.3-0.7,0.6-1
				s0.7-0.4,1.2-0.4c0.4,0,0.8,0.1,1,0.3c0.2,0.2,0.3,0.6,0.3,1.1h-0.9c0-0.1,0-0.2,0-0.3c-0.1-0.1-0.2-0.2-0.5-0.2
				c-0.2,0-0.4,0-0.5,0.1s-0.2,0.2-0.2,0.3c0,0.1,0,0.2,0.1,0.3c0.1,0.1,0.4,0.2,0.9,0.3c0.4,0.1,0.6,0.3,0.7,0.5
				c0.1,0.2,0.2,0.5,0.1,0.8c-0.1,0.4-0.3,0.7-0.6,1s-0.7,0.4-1.3,0.4s-0.9-0.1-1.2-0.4c-0.2-0.3-0.3-0.6-0.2-1h1"/>
		</g>
		<g>
			<g>
				<polyline class="st1" points="144.1,76.1 139.4,68.7 138.5,68.7 143.8,76.2 140.8,80.9 140.9,80.9 144.1,76.1 				"/>
			</g>
			<g>
				<polyline class="st2" points="145.9,74.7 141.9,80.9 142,80.9 146.2,74.6 142.4,68.6 139.3,68.6 139.4,68.7 141.7,68.7 
					145.9,74.7 				"/>
			</g>
			<g>
				<polyline class="st2" points="140.9,80.9 141.9,80.9 145.9,74.7 141.7,68.7 139.4,68.7 144.1,76.1 140.9,80.9 				"/>
			</g>
			<g>
				<polyline class="st1" points="149.2,79.6 149.1,80.1 147.4,80.1 147.9,77.6 146.7,75.9 151.1,69 150,69 144.6,77.4 148.7,83.4 
					151.7,83.4 149.2,79.6 				"/>
			</g>
			<g>
				<polyline class="st3" points="149.1,80.1 147.4,80.1 147.9,77.3 147,75.8 151.8,68.8 150.7,68.8 144.9,77.3 148.7,83.4 
					151.8,83.4 149.3,79.4 149.1,80.1 				"/>
			</g>
		</g>
	</g>
	<g>
		<path class="st1" d="M32.1,484.1c-13.9,0-25.3-11.3-25.3-25.3V95H229v363.8c0,13.9-11.3,25.3-25.3,25.3H32.1z"/>
		<path class="st4" d="M228.8,95.2v363.7c0,13.9-11.3,25.1-25.1,25.1H32.1c-13.9,0-25.1-11.3-25.1-25.1V95.2H228.8 M229.1,94.9H6.7
			v363.9c0,14,11.4,25.4,25.4,25.4h171.6c14,0,25.4-11.4,25.4-25.4V94.9L229.1,94.9z"/>
	</g>
	<g>
		<g>
			<path class="st46" d="M14.7,431c-1.9,0-3.5-1.6-3.5-3.5V102.8c0-1.9,1.6-3.5,3.5-3.5h206.5c1.9,0,3.5,1.6,3.5,3.5v324.7
				c0,1.9-1.6,3.5-3.5,3.5H14.7z"/>
			<path class="st47" d="M221.2,99.4c1.9,0,3.4,1.5,3.4,3.4v324.7c0,1.9-1.5,3.4-3.4,3.4H14.7c-1.9,0-3.4-1.5-3.4-3.4V102.8
				c0-1.9,1.5-3.4,3.4-3.4H221.2 M221.2,99.2H14.7c-2,0-3.6,1.6-3.6,3.6v324.7c0,2,1.6,3.6,3.6,3.6h206.5c2,0,3.6-1.6,3.6-3.6V102.8
				C224.8,100.8,223.2,99.2,221.2,99.2L221.2,99.2z"/>
		</g>
		<g>
			<path class="st48" d="M224.4,141.9H11.5v-41c0-0.7,0.6-1.3,1.3-1.3h210.3c0.7,0,1.3,0.6,1.3,1.3V141.9z"/>
		</g>
		<line class="st49" x1="11.1" y1="141.9" x2="224.8" y2="141.9"/>
		<g>
			<g>
				<path class="st0" d="M19.6,163v-7.3h1v7.3H19.6z"/>
				<path class="st0" d="M22.2,163v-5.3H23v0.8c0.4-0.6,1-0.9,1.7-0.9c0.3,0,0.6,0.1,0.9,0.2c0.3,0.1,0.5,0.3,0.6,0.5
					c0.1,0.2,0.2,0.4,0.3,0.7c0,0.2,0,0.5,0,0.9v3.3h-0.9v-3.2c0-0.4,0-0.6-0.1-0.8c-0.1-0.2-0.2-0.3-0.4-0.4
					c-0.2-0.1-0.4-0.2-0.6-0.2c-0.4,0-0.7,0.1-1,0.4c-0.3,0.2-0.4,0.7-0.4,1.4v2.9H22.2z"/>
				<path class="st0" d="M29.3,163l-2-5.3h0.9l1.1,3.2c0.1,0.3,0.2,0.7,0.3,1.1c0.1-0.3,0.2-0.6,0.3-1l1.2-3.2h0.9l-2,5.3H29.3z"/>
				<path class="st0" d="M36.6,161.2l0.9,0.1c-0.1,0.5-0.4,1-0.8,1.3c-0.4,0.3-0.9,0.4-1.5,0.4c-0.8,0-1.4-0.2-1.8-0.7
					c-0.5-0.5-0.7-1.1-0.7-2c0-0.9,0.2-1.6,0.7-2.1c0.5-0.5,1.1-0.7,1.8-0.7c0.7,0,1.3,0.2,1.7,0.7s0.7,1.2,0.7,2c0,0.1,0,0.1,0,0.2
					h-4c0,0.6,0.2,1,0.5,1.3s0.7,0.5,1.1,0.5c0.3,0,0.6-0.1,0.8-0.3C36.3,161.9,36.5,161.6,36.6,161.2z M33.7,159.8h3
					c0-0.4-0.2-0.8-0.3-1c-0.3-0.3-0.7-0.5-1.1-0.5c-0.4,0-0.8,0.1-1,0.4S33.7,159.3,33.7,159.8z"/>
				<path class="st0" d="M38.3,161.4l0.9-0.1c0,0.4,0.2,0.6,0.4,0.8c0.2,0.2,0.5,0.3,1,0.3c0.4,0,0.7-0.1,0.9-0.3
					c0.2-0.2,0.3-0.4,0.3-0.6c0-0.2-0.1-0.4-0.3-0.5c-0.1-0.1-0.4-0.2-0.9-0.3c-0.7-0.2-1.1-0.3-1.4-0.4s-0.4-0.3-0.6-0.5
					c-0.1-0.2-0.2-0.5-0.2-0.7c0-0.2,0.1-0.5,0.2-0.7c0.1-0.2,0.3-0.4,0.4-0.5c0.1-0.1,0.3-0.2,0.6-0.3c0.2-0.1,0.5-0.1,0.8-0.1
					c0.4,0,0.8,0.1,1.1,0.2c0.3,0.1,0.5,0.3,0.7,0.5c0.1,0.2,0.3,0.5,0.3,0.8l-0.9,0.1c0-0.3-0.2-0.5-0.3-0.6
					c-0.2-0.2-0.5-0.2-0.8-0.2c-0.4,0-0.7,0.1-0.9,0.2c-0.2,0.1-0.3,0.3-0.3,0.5c0,0.1,0,0.2,0.1,0.3c0.1,0.1,0.2,0.2,0.3,0.2
					c0.1,0,0.4,0.1,0.8,0.2c0.6,0.2,1.1,0.3,1.3,0.4c0.3,0.1,0.4,0.3,0.6,0.5c0.1,0.2,0.2,0.5,0.2,0.8c0,0.3-0.1,0.6-0.3,0.8
					c-0.2,0.3-0.4,0.5-0.8,0.6c-0.3,0.1-0.7,0.2-1.1,0.2c-0.7,0-1.2-0.1-1.6-0.4S38.4,161.9,38.3,161.4z"/>
				<path class="st0" d="M45.7,162.1l0.1,0.8c-0.3,0.1-0.5,0.1-0.7,0.1c-0.3,0-0.6-0.1-0.8-0.2s-0.3-0.2-0.4-0.4s-0.1-0.5-0.1-1.1
					v-3h-0.7v-0.7h0.7v-1.3l0.9-0.5v1.9h0.9v0.7h-0.9v3.1c0,0.3,0,0.4,0,0.5s0.1,0.1,0.2,0.2c0.1,0,0.2,0.1,0.3,0.1
					C45.4,162.2,45.6,162.2,45.7,162.1z"/>
				<path class="st0" d="M46.3,160.3c0-1,0.3-1.7,0.8-2.2c0.5-0.4,1-0.6,1.7-0.6c0.7,0,1.3,0.2,1.8,0.7c0.5,0.5,0.7,1.1,0.7,2
					c0,0.7-0.1,1.2-0.3,1.6c-0.2,0.4-0.5,0.7-0.9,0.9c-0.4,0.2-0.8,0.3-1.3,0.3c-0.7,0-1.3-0.2-1.8-0.7
					C46.5,161.9,46.3,161.2,46.3,160.3z M47.2,160.3c0,0.7,0.1,1.2,0.4,1.5s0.7,0.5,1.1,0.5c0.4,0,0.8-0.2,1.1-0.5
					c0.3-0.3,0.4-0.9,0.4-1.6c0-0.7-0.1-1.2-0.4-1.5c-0.3-0.3-0.7-0.5-1.1-0.5c-0.4,0-0.8,0.2-1.1,0.5
					C47.3,159.1,47.2,159.6,47.2,160.3z"/>
				<path class="st0" d="M52.3,163v-5.3h0.8v0.8c0.2-0.4,0.4-0.6,0.6-0.7c0.2-0.1,0.4-0.2,0.6-0.2c0.3,0,0.6,0.1,0.9,0.3l-0.3,0.8
					c-0.2-0.1-0.4-0.2-0.7-0.2c-0.2,0-0.4,0.1-0.5,0.2c-0.2,0.1-0.3,0.3-0.3,0.5c-0.1,0.3-0.1,0.7-0.1,1v2.8H52.3z"/>
				<path class="st0" d="M63.9,160.4l1,0.2c-0.2,0.8-0.6,1.4-1.1,1.8c-0.5,0.4-1.2,0.6-1.9,0.6c-0.8,0-1.4-0.2-1.9-0.5
					c-0.5-0.3-0.9-0.8-1.1-1.4s-0.4-1.3-0.4-2c0-0.8,0.1-1.4,0.4-2c0.3-0.6,0.7-1,1.2-1.3s1.1-0.4,1.8-0.4c0.7,0,1.3,0.2,1.8,0.6
					c0.5,0.4,0.8,0.9,1,1.6l-1,0.2c-0.2-0.5-0.4-0.9-0.7-1.2c-0.3-0.2-0.7-0.4-1.2-0.4c-0.6,0-1,0.1-1.4,0.4s-0.6,0.6-0.8,1.1
					c-0.2,0.5-0.2,0.9-0.2,1.4c0,0.6,0.1,1.2,0.3,1.6s0.5,0.8,0.8,1c0.4,0.2,0.8,0.3,1.2,0.3c0.5,0,1-0.2,1.4-0.5
					C63.5,161.5,63.7,161,63.9,160.4z"/>
				<path class="st0" d="M65.6,160.3c0-1,0.3-1.7,0.8-2.2c0.5-0.4,1-0.6,1.7-0.6c0.7,0,1.3,0.2,1.8,0.7c0.5,0.5,0.7,1.1,0.7,2
					c0,0.7-0.1,1.2-0.3,1.6c-0.2,0.4-0.5,0.7-0.9,0.9c-0.4,0.2-0.8,0.3-1.3,0.3c-0.7,0-1.3-0.2-1.8-0.7
					C65.8,161.9,65.6,161.2,65.6,160.3z M66.5,160.3c0,0.7,0.1,1.2,0.4,1.5s0.7,0.5,1.1,0.5c0.4,0,0.8-0.2,1.1-0.5
					c0.3-0.3,0.4-0.9,0.4-1.6c0-0.7-0.1-1.2-0.4-1.5c-0.3-0.3-0.7-0.5-1.1-0.5c-0.4,0-0.8,0.2-1.1,0.5
					C66.6,159.1,66.5,159.6,66.5,160.3z"/>
				<path class="st0" d="M75,163v-0.7c-0.3,0.5-0.8,0.8-1.5,0.8c-0.4,0-0.8-0.1-1.2-0.3s-0.6-0.6-0.8-1c-0.2-0.4-0.3-0.9-0.3-1.4
					c0-0.5,0.1-1,0.3-1.4c0.2-0.4,0.4-0.8,0.8-1s0.7-0.3,1.2-0.3c0.3,0,0.6,0.1,0.9,0.2c0.2,0.1,0.5,0.3,0.6,0.5v-2.6h0.9v7.3H75z
					 M72.2,160.3c0,0.7,0.1,1.2,0.4,1.5s0.6,0.5,1,0.5c0.4,0,0.7-0.2,1-0.5s0.4-0.8,0.4-1.5c0-0.7-0.1-1.3-0.4-1.6
					c-0.3-0.3-0.6-0.5-1-0.5c-0.4,0-0.7,0.2-1,0.5C72.3,159.1,72.2,159.6,72.2,160.3z"/>
				<path class="st0" d="M80.9,161.2l0.9,0.1c-0.1,0.5-0.4,1-0.8,1.3c-0.4,0.3-0.9,0.4-1.5,0.4c-0.8,0-1.4-0.2-1.8-0.7
					c-0.5-0.5-0.7-1.1-0.7-2c0-0.9,0.2-1.6,0.7-2.1c0.5-0.5,1.1-0.7,1.8-0.7c0.7,0,1.3,0.2,1.7,0.7s0.7,1.2,0.7,2c0,0.1,0,0.1,0,0.2
					h-4c0,0.6,0.2,1,0.5,1.3s0.7,0.5,1.1,0.5c0.3,0,0.6-0.1,0.8-0.3C80.6,161.9,80.8,161.6,80.9,161.2z M78,159.8h3
					c0-0.4-0.2-0.8-0.3-1c-0.3-0.3-0.7-0.5-1.1-0.5c-0.4,0-0.8,0.1-1,0.4S78,159.3,78,159.8z"/>
			</g>
			<g>
				<path class="st50" d="M215,198H20.9c-1.2,0-2.2-1-2.2-2.2v-20.5c0-1.2,1-2.2,2.2-2.2H215c1.2,0,2.2,1,2.2,2.2v20.5
					C217.2,197,216.2,198,215,198z"/>
			</g>
			<g>
				<path class="st0" d="M30.7,185.6h-2.9v2.7H31v0.8h-4.2v-7.4h4v0.8h-3v2.3h2.9V185.6z"/>
				<path class="st0" d="M31.9,189.1v-0.6l0.8-0.7c1.8-1.7,2.6-2.7,2.7-3.7c0-0.7-0.4-1.4-1.4-1.4c-0.6,0-1.2,0.3-1.5,0.6l-0.3-0.7
					c0.5-0.4,1.2-0.7,2-0.7c1.5,0,2.2,1.1,2.2,2.1c0,1.3-1,2.4-2.5,3.8l-0.6,0.5v0h3.2v0.8H31.9z"/>
				<path class="st0" d="M41.8,182.8h-2.7l-0.3,1.8c0.2,0,0.3,0,0.6,0c0.5,0,1.1,0.1,1.5,0.4c0.6,0.3,1,0.9,1,1.8
					c0,1.4-1.1,2.4-2.7,2.4c-0.8,0-1.4-0.2-1.8-0.4l0.2-0.7c0.3,0.2,0.9,0.4,1.5,0.4c0.9,0,1.7-0.6,1.7-1.5c0-0.9-0.6-1.6-2.1-1.6
					c-0.4,0-0.7,0-1,0.1l0.5-3.4h3.4V182.8z"/>
				<path class="st0" d="M47.9,185.5c0,2.4-0.9,3.8-2.5,3.8c-1.4,0-2.3-1.3-2.4-3.7c0-2.4,1-3.7,2.5-3.7
					C47,181.9,47.9,183.2,47.9,185.5z M44,185.6c0,1.9,0.6,2.9,1.4,2.9c1,0,1.5-1.2,1.5-3c0-1.8-0.4-2.9-1.4-2.9
					C44.6,182.6,44,183.6,44,185.6z"/>
				<path class="st0" d="M53.4,182v0.6l-3.1,6.5h-1l3.1-6.3v0h-3.5V182H53.4z"/>
				<path class="st0" d="M54.3,187.3c0-0.9,0.5-1.5,1.4-1.9l0,0c-0.8-0.4-1.1-1-1.1-1.6c0-1.1,1-1.9,2.2-1.9c1.4,0,2.1,0.9,2.1,1.8
					c0,0.6-0.3,1.3-1.2,1.7v0c0.9,0.4,1.4,1,1.4,1.8c0,1.2-1.1,2.1-2.4,2.1C55.2,189.2,54.3,188.3,54.3,187.3z M58.2,187.2
					c0-0.9-0.6-1.3-1.6-1.6c-0.8,0.2-1.3,0.8-1.3,1.5c0,0.7,0.5,1.4,1.4,1.4C57.6,188.5,58.2,188,58.2,187.2z M55.5,183.7
					c0,0.7,0.5,1.1,1.4,1.3c0.6-0.2,1.1-0.6,1.1-1.3c0-0.6-0.3-1.2-1.2-1.2C56,182.5,55.5,183.1,55.5,183.7z"/>
			</g>
		</g>
		<g>
			<path class="st0" d="M19.5,224.7v-7.3H22c0.6,0,1,0,1.3,0.1c0.4,0.1,0.8,0.3,1.1,0.5c0.4,0.3,0.7,0.7,0.9,1.3s0.3,1.1,0.3,1.7
				c0,0.6-0.1,1-0.2,1.5s-0.3,0.8-0.5,1.1s-0.4,0.5-0.7,0.7c-0.2,0.2-0.5,0.3-0.9,0.4c-0.3,0.1-0.7,0.1-1.2,0.1H19.5z M20.4,223.8
				H22c0.5,0,0.9,0,1.1-0.1s0.5-0.2,0.7-0.4c0.2-0.2,0.4-0.5,0.5-0.9c0.1-0.4,0.2-0.9,0.2-1.4c0-0.8-0.1-1.4-0.4-1.8
				c-0.3-0.4-0.6-0.7-0.9-0.8c-0.3-0.1-0.7-0.1-1.3-0.1h-1.5V223.8z"/>
			<path class="st0" d="M30.2,224c-0.3,0.3-0.7,0.5-1,0.6c-0.3,0.1-0.6,0.2-1,0.2c-0.6,0-1-0.1-1.3-0.4c-0.3-0.3-0.5-0.6-0.5-1.1
				c0-0.3,0.1-0.5,0.2-0.7c0.1-0.2,0.3-0.4,0.5-0.5s0.4-0.2,0.6-0.3c0.2,0,0.4-0.1,0.8-0.1c0.7-0.1,1.3-0.2,1.6-0.3
				c0-0.1,0-0.2,0-0.2c0-0.4-0.1-0.6-0.3-0.8c-0.2-0.2-0.6-0.3-1-0.3c-0.4,0-0.7,0.1-0.9,0.2c-0.2,0.1-0.4,0.4-0.4,0.8l-0.9-0.1
				c0.1-0.4,0.2-0.7,0.4-0.9c0.2-0.2,0.4-0.4,0.8-0.5s0.7-0.2,1.2-0.2c0.5,0,0.8,0.1,1.1,0.2c0.3,0.1,0.5,0.2,0.6,0.4
				c0.1,0.2,0.2,0.4,0.3,0.6c0,0.2,0,0.4,0,0.8v1.2c0,0.8,0,1.4,0.1,1.6s0.1,0.4,0.2,0.6h-0.9C30.3,224.5,30.2,224.3,30.2,224z
				 M30.1,222c-0.3,0.1-0.8,0.2-1.5,0.3c-0.4,0.1-0.6,0.1-0.8,0.2c-0.2,0.1-0.3,0.2-0.4,0.3c-0.1,0.1-0.1,0.3-0.1,0.4
				c0,0.2,0.1,0.4,0.3,0.6s0.4,0.2,0.8,0.2c0.3,0,0.7-0.1,0.9-0.2s0.5-0.4,0.6-0.6c0.1-0.2,0.1-0.5,0.1-0.9V222z"/>
			<path class="st0" d="M34.4,223.9l0.1,0.8c-0.3,0.1-0.5,0.1-0.7,0.1c-0.3,0-0.6-0.1-0.8-0.2s-0.3-0.2-0.4-0.4s-0.1-0.5-0.1-1.1v-3
				h-0.7v-0.7h0.7v-1.3l0.9-0.5v1.9h0.9v0.7h-0.9v3.1c0,0.3,0,0.4,0,0.5s0.1,0.1,0.2,0.2c0.1,0,0.2,0.1,0.3,0.1
				C34.1,223.9,34.2,223.9,34.4,223.9z"/>
			<path class="st0" d="M38.9,223l0.9,0.1c-0.1,0.5-0.4,1-0.8,1.3c-0.4,0.3-0.9,0.4-1.5,0.4c-0.8,0-1.4-0.2-1.8-0.7
				c-0.5-0.5-0.7-1.1-0.7-2c0-0.9,0.2-1.6,0.7-2.1c0.5-0.5,1.1-0.7,1.8-0.7c0.7,0,1.3,0.2,1.7,0.7s0.7,1.2,0.7,2c0,0.1,0,0.1,0,0.2
				h-4c0,0.6,0.2,1,0.5,1.3s0.7,0.5,1.1,0.5c0.3,0,0.6-0.1,0.8-0.3C38.6,223.6,38.8,223.3,38.9,223z M35.9,221.5h3
				c0-0.4-0.2-0.8-0.3-1c-0.3-0.3-0.7-0.5-1.1-0.5c-0.4,0-0.8,0.1-1,0.4S36,221,35.9,221.5z"/>
		</g>
		<g>
			<path class="st50" d="M215,259.7H20.9c-1.2,0-2.2-1-2.2-2.2V237c0-1.2,1-2.2,2.2-2.2H215c1.2,0,2.2,1,2.2,2.2v20.5
				C217.2,258.7,216.2,259.7,215,259.7z"/>
		</g>
		<g>
			<path class="st0" d="M95.9,249.2c0-0.8,0.5-1.4,1.3-1.7l0,0c-0.7-0.3-1-0.9-1-1.4c0-1,0.8-1.7,2-1.7c1.2,0,1.8,0.8,1.8,1.6
				c0,0.5-0.3,1.1-1,1.5v0c0.8,0.3,1.3,0.9,1.3,1.6c0,1.1-0.9,1.8-2.2,1.8C96.7,250.9,95.9,250.1,95.9,249.2z M99.3,249.2
				c0-0.8-0.5-1.1-1.4-1.4c-0.7,0.2-1.1,0.7-1.1,1.3c0,0.6,0.5,1.2,1.3,1.2C98.8,250.3,99.3,249.8,99.3,249.2z M96.9,246
				c0,0.6,0.5,1,1.2,1.2c0.5-0.2,1-0.6,1-1.2c0-0.5-0.3-1-1.1-1C97.3,245,96.9,245.4,96.9,246z"/>
			<path class="st0" d="M104.7,244.2h0.8v4.4c0,1.7-0.9,2.3-2,2.3c-0.3,0-0.7-0.1-0.9-0.2l0.1-0.7c0.2,0.1,0.4,0.1,0.7,0.1
				c0.8,0,1.2-0.3,1.2-1.6V244.2z"/>
			<path class="st0" d="M109.5,250.8l-0.1-0.6h0c-0.3,0.4-0.8,0.7-1.4,0.7c-1,0-1.4-0.7-1.4-1.4c0-1.1,1-1.8,2.8-1.8v-0.1
				c0-0.4-0.1-1.1-1.1-1.1c-0.4,0-0.9,0.1-1.2,0.4l-0.2-0.6c0.4-0.3,1-0.4,1.6-0.4c1.4,0,1.8,1,1.8,1.9v1.8c0,0.4,0,0.8,0.1,1.1
				H109.5z M109.4,248.4c-0.9,0-2,0.1-2,1.1c0,0.6,0.4,0.8,0.8,0.8c0.6,0,1-0.4,1.1-0.8c0-0.1,0-0.2,0-0.3V248.4z"/>
			<path class="st0" d="M111.6,247.4c0-0.5,0-0.9,0-1.3h0.8l0,0.8h0c0.2-0.4,0.8-0.9,1.6-0.9c0.7,0,1.7,0.4,1.7,2v2.8h-0.9v-2.7
				c0-0.8-0.3-1.4-1.1-1.4c-0.6,0-1,0.4-1.2,0.9c0,0.1-0.1,0.3-0.1,0.4v2.8h-0.9V247.4z"/>
			<path class="st0" d="M116.5,252c0.2-0.6,0.5-1.6,0.6-2.3l1-0.1c-0.2,0.8-0.7,1.9-0.9,2.4L116.5,252z"/>
			<path class="st0" d="M120.8,250.8v-0.5l0.7-0.7c1.6-1.5,2.4-2.4,2.4-3.3c0-0.6-0.3-1.2-1.3-1.2c-0.6,0-1.1,0.3-1.3,0.5L121,245
				c0.4-0.4,1.1-0.6,1.8-0.6c1.4,0,1.9,0.9,1.9,1.8c0,1.2-0.8,2.1-2.2,3.4l-0.5,0.5v0h2.9v0.7H120.8z"/>
			<path class="st0" d="M130,247.6c0,2.2-0.8,3.3-2.2,3.3c-1.2,0-2.1-1.2-2.1-3.3c0-2.1,0.9-3.3,2.2-3.3
				C129.3,244.4,130,245.6,130,247.6z M126.6,247.7c0,1.7,0.5,2.6,1.3,2.6c0.9,0,1.3-1,1.3-2.6c0-1.6-0.4-2.6-1.3-2.6
				C127.1,245,126.6,245.9,126.6,247.7z"/>
			<path class="st0" d="M130.8,250.8v-0.5l0.7-0.7c1.6-1.5,2.4-2.4,2.4-3.3c0-0.6-0.3-1.2-1.3-1.2c-0.6,0-1.1,0.3-1.3,0.5L131,245
				c0.4-0.4,1.1-0.6,1.8-0.6c1.4,0,1.9,0.9,1.9,1.8c0,1.2-0.8,2.1-2.2,3.4l-0.5,0.5v0h2.9v0.7H130.8z"/>
			<path class="st0" d="M138.5,250.8v-1.7h-2.9v-0.6l2.8-4.1h0.9v3.9h0.9v0.7h-0.9v1.7H138.5z M138.5,248.4v-2.1c0-0.3,0-0.7,0-1h0
				c-0.2,0.4-0.4,0.6-0.5,0.9l-1.6,2.2v0H138.5z"/>
		</g>
		<g>
			<path class="st0" d="M19.5,286.4v-7.3h2.8c0.5,0,0.9,0,1.1,0.1c0.4,0.1,0.7,0.2,0.9,0.3s0.4,0.4,0.6,0.7c0.1,0.3,0.2,0.6,0.2,1
				c0,0.6-0.2,1.1-0.6,1.6c-0.4,0.4-1.1,0.6-2.1,0.6h-1.9v3H19.5z M20.4,282.6h1.9c0.6,0,1.1-0.1,1.3-0.3c0.3-0.2,0.4-0.6,0.4-1
				c0-0.3-0.1-0.6-0.2-0.8s-0.4-0.4-0.6-0.4c-0.2,0-0.5-0.1-0.9-0.1h-1.9V282.6z"/>
			<path class="st0" d="M26.2,286.4v-5.3H27v0.8c0.2-0.4,0.4-0.6,0.6-0.7c0.2-0.1,0.4-0.2,0.6-0.2c0.3,0,0.6,0.1,0.9,0.3l-0.3,0.8
				c-0.2-0.1-0.4-0.2-0.7-0.2c-0.2,0-0.4,0.1-0.5,0.2c-0.2,0.1-0.3,0.3-0.3,0.5c-0.1,0.3-0.1,0.7-0.1,1v2.8H26.2z"/>
			<path class="st0" d="M29.6,280.1v-1h0.9v1H29.6z M29.6,286.4v-5.3h0.9v5.3H29.6z"/>
			<path class="st0" d="M31.8,286.4v-5.3h0.8v0.8c0.4-0.6,1-0.9,1.7-0.9c0.3,0,0.6,0.1,0.9,0.2c0.3,0.1,0.5,0.3,0.6,0.5
				c0.1,0.2,0.2,0.4,0.3,0.7c0,0.2,0,0.5,0,0.9v3.3h-0.9v-3.2c0-0.4,0-0.6-0.1-0.8c-0.1-0.2-0.2-0.3-0.4-0.4
				c-0.2-0.1-0.4-0.2-0.6-0.2c-0.4,0-0.7,0.1-1,0.4c-0.3,0.2-0.4,0.7-0.4,1.4v2.9H31.8z"/>
			<path class="st0" d="M39.5,285.6l0.1,0.8c-0.3,0.1-0.5,0.1-0.7,0.1c-0.3,0-0.6-0.1-0.8-0.2c-0.2-0.1-0.3-0.2-0.4-0.4
				s-0.1-0.5-0.1-1.1v-3H37v-0.7h0.7v-1.3l0.9-0.5v1.9h0.9v0.7h-0.9v3.1c0,0.3,0,0.4,0,0.5s0.1,0.1,0.2,0.2c0.1,0,0.2,0.1,0.3,0.1
				C39.2,285.6,39.3,285.6,39.5,285.6z"/>
			<path class="st0" d="M43,282.8c0-1.2,0.3-2.2,1-2.9c0.7-0.7,1.5-1,2.5-1c0.7,0,1.3,0.2,1.8,0.5c0.5,0.3,1,0.8,1.2,1.4
				c0.3,0.6,0.4,1.2,0.4,2c0,0.7-0.2,1.4-0.4,2c-0.3,0.6-0.7,1-1.3,1.3c-0.5,0.3-1.1,0.5-1.8,0.5c-0.7,0-1.3-0.2-1.8-0.5
				c-0.5-0.3-1-0.8-1.2-1.4C43.2,284.1,43,283.5,43,282.8z M44,282.8c0,0.9,0.2,1.6,0.7,2.1c0.5,0.5,1.1,0.8,1.8,0.8
				c0.7,0,1.3-0.3,1.8-0.8c0.5-0.5,0.7-1.2,0.7-2.2c0-0.6-0.1-1.1-0.3-1.6c-0.2-0.4-0.5-0.8-0.9-1c-0.4-0.2-0.8-0.4-1.3-0.4
				c-0.7,0-1.3,0.2-1.8,0.7S44,281.7,44,282.8z"/>
			<path class="st0" d="M51.2,288.4v-7.3H52v0.7c0.2-0.3,0.4-0.5,0.7-0.6c0.2-0.1,0.5-0.2,0.9-0.2c0.5,0,0.9,0.1,1.2,0.3
				c0.3,0.2,0.6,0.6,0.8,1c0.2,0.4,0.3,0.9,0.3,1.4c0,0.5-0.1,1-0.3,1.5c-0.2,0.4-0.5,0.8-0.8,1c-0.4,0.2-0.8,0.3-1.2,0.3
				c-0.3,0-0.6-0.1-0.8-0.2c-0.2-0.1-0.4-0.3-0.6-0.5v2.6H51.2z M52,283.8c0,0.7,0.1,1.2,0.4,1.5s0.6,0.5,1,0.5c0.4,0,0.7-0.2,1-0.5
				c0.3-0.3,0.4-0.9,0.4-1.6c0-0.7-0.1-1.2-0.4-1.5c-0.3-0.3-0.6-0.5-1-0.5c-0.4,0-0.7,0.2-1,0.5C52.1,282.6,52,283.1,52,283.8z"/>
			<path class="st0" d="M58.8,285.6l0.1,0.8c-0.3,0.1-0.5,0.1-0.7,0.1c-0.3,0-0.6-0.1-0.8-0.2c-0.2-0.1-0.3-0.2-0.4-0.4
				s-0.1-0.5-0.1-1.1v-3h-0.7v-0.7H57v-1.3l0.9-0.5v1.9h0.9v0.7h-0.9v3.1c0,0.3,0,0.4,0,0.5s0.1,0.1,0.2,0.2c0.1,0,0.2,0.1,0.3,0.1
				C58.5,285.6,58.6,285.6,58.8,285.6z"/>
			<path class="st0" d="M59.7,280.1v-1h0.9v1H59.7z M59.7,286.4v-5.3h0.9v5.3H59.7z"/>
			<path class="st0" d="M61.6,283.7c0-1,0.3-1.7,0.8-2.2c0.5-0.4,1-0.6,1.7-0.6c0.7,0,1.3,0.2,1.8,0.7c0.5,0.5,0.7,1.1,0.7,2
				c0,0.7-0.1,1.2-0.3,1.6c-0.2,0.4-0.5,0.7-0.9,0.9c-0.4,0.2-0.8,0.3-1.3,0.3c-0.7,0-1.3-0.2-1.8-0.7
				C61.9,285.3,61.6,284.6,61.6,283.7z M62.5,283.7c0,0.7,0.1,1.2,0.4,1.5c0.3,0.3,0.7,0.5,1.1,0.5c0.4,0,0.8-0.2,1.1-0.5
				c0.3-0.3,0.4-0.9,0.4-1.6c0-0.7-0.1-1.2-0.4-1.5s-0.7-0.5-1.1-0.5c-0.4,0-0.8,0.2-1.1,0.5S62.5,283.1,62.5,283.7z"/>
			<path class="st0" d="M67.6,286.4v-5.3h0.8v0.8c0.4-0.6,1-0.9,1.7-0.9c0.3,0,0.6,0.1,0.9,0.2c0.3,0.1,0.5,0.3,0.6,0.5
				c0.1,0.2,0.2,0.4,0.3,0.7c0,0.2,0,0.5,0,0.9v3.3h-0.9v-3.2c0-0.4,0-0.6-0.1-0.8c-0.1-0.2-0.2-0.3-0.4-0.4
				c-0.2-0.1-0.4-0.2-0.6-0.2c-0.4,0-0.7,0.1-1,0.4c-0.3,0.2-0.4,0.7-0.4,1.4v2.9H67.6z"/>
		</g>
		<g>
			<path class="st50" d="M215,321.4H20.9c-1.2,0-2.2-1-2.2-2.2v-20.5c0-1.2,1-2.2,2.2-2.2H215c1.2,0,2.2,1,2.2,2.2v20.5
				C217.2,320.4,216.2,321.4,215,321.4z"/>
		</g>
		<g>
			<path class="st51" d="M26.7,306c0.4-0.1,0.9-0.1,1.6-0.1c0.8,0,1.5,0.2,1.8,0.5c0.4,0.3,0.6,0.8,0.6,1.4c0,0.6-0.2,1.1-0.5,1.4
				c-0.4,0.5-1.2,0.7-2,0.7c-0.3,0-0.5,0-0.7-0.1v2.6h-0.8V306z M27.6,309.2c0.2,0,0.4,0.1,0.7,0.1c1,0,1.7-0.5,1.7-1.4
				c0-0.9-0.6-1.3-1.6-1.3c-0.4,0-0.7,0-0.8,0.1V309.2z"/>
			<path class="st51" d="M31.9,306c0.5-0.1,1.1-0.1,1.8-0.1c1.2,0,2.1,0.3,2.7,0.8c0.6,0.5,0.9,1.3,0.9,2.4c0,1.1-0.3,2-0.9,2.6
				c-0.6,0.6-1.6,0.9-2.9,0.9c-0.6,0-1.1,0-1.5-0.1V306z M32.8,311.9c0.2,0,0.5,0,0.9,0c1.8,0,2.8-1,2.8-2.8c0-1.6-0.9-2.5-2.7-2.5
				c-0.4,0-0.8,0-1,0.1V311.9z"/>
			<path class="st51" d="M38.4,306H42v0.7h-2.7v2.2h2.5v0.7h-2.5v3h-0.8V306z"/>
		</g>
		<g>
			<path class="st22" d="M26.7,114.4c0.8-0.1,1.9-0.3,3.3-0.3c1.7,0,2.9,0.4,3.7,1.1c0.7,0.6,1.2,1.6,1.2,2.8c0,1.2-0.4,2.1-1,2.8
				c-0.9,1-2.4,1.4-4,1.4c-0.5,0-1,0-1.4-0.1v5.3h-1.7V114.4z M28.4,120.7c0.4,0.1,0.8,0.1,1.4,0.1c2,0,3.3-1,3.3-2.8
				c0-1.7-1.2-2.6-3.1-2.6c-0.7,0-1.3,0.1-1.6,0.1V120.7z"/>
			<path class="st22" d="M45.1,122.6c0,3.5-2.4,5-4.7,5c-2.6,0-4.5-1.9-4.5-4.9c0-3.2,2.1-5,4.7-5C43.3,117.7,45.1,119.7,45.1,122.6
				z M37.6,122.7c0,2.1,1.2,3.6,2.9,3.6c1.6,0,2.9-1.5,2.9-3.7c0-1.6-0.8-3.6-2.8-3.6C38.5,119,37.6,120.9,37.6,122.7z"/>
			<path class="st22" d="M47.3,120.9c0-1.1,0-2.1-0.1-2.9h1.5l0.1,1.9h0.1c0.4-1.3,1.5-2.1,2.6-2.1c0.2,0,0.3,0,0.5,0.1v1.6
				c-0.2,0-0.4-0.1-0.6-0.1c-1.2,0-2.1,0.9-2.3,2.2c0,0.2-0.1,0.5-0.1,0.8v5h-1.7V120.9z"/>
			<path class="st22" d="M56.2,115.2v2.7h2.5v1.3h-2.5v5.1c0,1.2,0.3,1.8,1.3,1.8c0.4,0,0.8-0.1,1-0.1l0.1,1.3
				c-0.3,0.1-0.9,0.2-1.5,0.2c-0.8,0-1.4-0.3-1.9-0.7c-0.5-0.5-0.7-1.3-0.7-2.5v-5.2h-1.5v-1.3h1.5v-2.3L56.2,115.2z"/>
			<path class="st22" d="M60.8,127.4v-8.1h-1.3v-1.3h1.3v-0.4c0-1.3,0.3-2.5,1.1-3.3c0.6-0.6,1.5-0.9,2.3-0.9c0.6,0,1.1,0.1,1.5,0.3
				l-0.2,1.3c-0.3-0.1-0.6-0.2-1.1-0.2c-1.5,0-1.8,1.3-1.8,2.7v0.5h2.3v1.3h-2.3v8.1H60.8z"/>
			<path class="st22" d="M74.6,122.6c0,3.5-2.4,5-4.7,5c-2.6,0-4.5-1.9-4.5-4.9c0-3.2,2.1-5,4.7-5C72.7,117.7,74.6,119.7,74.6,122.6
				z M67.1,122.7c0,2.1,1.2,3.6,2.9,3.6c1.6,0,2.9-1.5,2.9-3.7c0-1.6-0.8-3.6-2.8-3.6C68,119,67.1,120.9,67.1,122.7z"/>
			<path class="st22" d="M76.7,113.5h1.7v13.9h-1.7V113.5z"/>
			<path class="st22" d="M83.3,115.3c0,0.6-0.4,1.1-1.1,1.1c-0.6,0-1-0.5-1-1.1c0-0.6,0.4-1.1,1.1-1.1
				C82.9,114.2,83.3,114.7,83.3,115.3z M81.4,127.4v-9.4h1.7v9.4H81.4z"/>
			<path class="st22" d="M94.5,122.6c0,3.5-2.4,5-4.7,5c-2.6,0-4.5-1.9-4.5-4.9c0-3.2,2.1-5,4.7-5C92.6,117.7,94.5,119.7,94.5,122.6
				z M87,122.7c0,2.1,1.2,3.6,2.9,3.6c1.6,0,2.9-1.5,2.9-3.7c0-1.6-0.8-3.6-2.8-3.6C87.9,119,87,120.9,87,122.7z"/>
		</g>
		<g>
			<path class="st52" d="M214.4,359.3h-72.9c-1.6,0-2.9-1.3-2.9-2.9V333c0-1.6,1.3-2.9,2.9-2.9h72.9c1.6,0,2.9,1.3,2.9,2.9v23.4
				C217.2,358,215.9,359.3,214.4,359.3z"/>
			<g>
				<g>
					<path class="st1" d="M148.8,350.6v-12h4.5c0.8,0,1.4,0,1.8,0.1c0.6,0.1,1.1,0.3,1.5,0.6c0.4,0.3,0.7,0.7,1,1.2
						c0.2,0.5,0.4,1,0.4,1.6c0,1-0.3,1.9-1,2.6c-0.6,0.7-1.8,1.1-3.5,1.1h-3.1v4.9H148.8z M150.4,344.3h3.1c1,0,1.8-0.2,2.2-0.6
						c0.4-0.4,0.6-0.9,0.6-1.6c0-0.5-0.1-0.9-0.4-1.3c-0.3-0.4-0.6-0.6-1-0.7c-0.3-0.1-0.8-0.1-1.5-0.1h-3.1V344.3z"/>
					<path class="st1" d="M159.8,350.6v-8.7h1.3v1.3c0.3-0.6,0.7-1,0.9-1.2s0.6-0.3,0.9-0.3c0.5,0,1,0.2,1.5,0.5l-0.5,1.4
						c-0.4-0.2-0.7-0.3-1.1-0.3c-0.3,0-0.6,0.1-0.9,0.3c-0.3,0.2-0.4,0.5-0.5,0.8c-0.2,0.5-0.2,1.1-0.2,1.7v4.5H159.8z"/>
					<path class="st1" d="M171.3,347.8l1.5,0.2c-0.2,0.9-0.7,1.6-1.3,2.1c-0.6,0.5-1.5,0.7-2.5,0.7c-1.3,0-2.3-0.4-3-1.2
						c-0.7-0.8-1.1-1.9-1.1-3.3c0-1.5,0.4-2.6,1.1-3.4s1.7-1.2,2.9-1.2c1.2,0,2.1,0.4,2.8,1.2c0.7,0.8,1.1,1.9,1.1,3.3
						c0,0.1,0,0.2,0,0.4h-6.5c0.1,1,0.3,1.7,0.8,2.2c0.5,0.5,1.1,0.8,1.8,0.8c0.5,0,1-0.1,1.4-0.4
						C170.8,348.9,171.1,348.4,171.3,347.8z M166.5,345.4h4.9c-0.1-0.7-0.3-1.3-0.6-1.6c-0.5-0.6-1.1-0.9-1.8-0.9
						c-0.7,0-1.2,0.2-1.7,0.7S166.5,344.7,166.5,345.4z"/>
					<path class="st1" d="M177.1,350.6l-3.3-8.7h1.6l1.9,5.2c0.2,0.6,0.4,1.1,0.6,1.8c0.1-0.5,0.3-1,0.5-1.7l1.9-5.3h1.5l-3.3,8.7
						H177.1z"/>
					<path class="st1" d="M183.1,340.3v-1.7h1.5v1.7H183.1z M183.1,350.6v-8.7h1.5v8.7H183.1z"/>
					<path class="st1" d="M192.7,347.8l1.5,0.2c-0.2,0.9-0.7,1.6-1.3,2.1c-0.6,0.5-1.5,0.7-2.5,0.7c-1.3,0-2.3-0.4-3-1.2
						c-0.7-0.8-1.1-1.9-1.1-3.3c0-1.5,0.4-2.6,1.1-3.4c0.8-0.8,1.7-1.2,2.9-1.2c1.2,0,2.1,0.4,2.8,1.2s1.1,1.9,1.1,3.3
						c0,0.1,0,0.2,0,0.4h-6.5c0.1,1,0.3,1.7,0.8,2.2c0.5,0.5,1.1,0.8,1.8,0.8c0.5,0,1-0.1,1.4-0.4
						C192.2,348.9,192.5,348.4,192.7,347.8z M187.9,345.4h4.9c-0.1-0.7-0.3-1.3-0.6-1.6c-0.5-0.6-1.1-0.9-1.8-0.9
						c-0.7,0-1.2,0.2-1.7,0.7S188,344.7,187.9,345.4z"/>
					<path class="st1" d="M197.7,350.6l-2.7-8.7h1.5l1.4,5l0.5,1.9c0-0.1,0.2-0.7,0.4-1.8l1.4-5.1h1.5l1.3,5l0.4,1.7l0.5-1.7l1.5-5
						h1.4l-2.7,8.7h-1.5l-1.4-5.2l-0.3-1.5l-1.8,6.7H197.7z"/>
				</g>
			</g>
		</g>
	</g>
</g>
</svg>
