<?xml version="1.0" encoding="utf-8"?>
<!-- Generator: Adobe Illustrator 26.0.1, SVG Export Plug-In . SVG Version: 6.00 Build 0)  -->
<svg version="1.1" id="Layer_1" xmlns="http://www.w3.org/2000/svg" xmlns:xlink="http://www.w3.org/1999/xlink" x="0px" y="0px"
	 viewBox="0 0 130 484.5" style="enable-background:new 0 0 130 484.5;" xml:space="preserve">
<style type="text/css">
	.st0{fill:#EC7E30;}
	.st1{fill:#FFFFFF;}
	.st2{fill:#A5A4A4;}
	.st3{fill:#FDC015;}
	.st4{fill:#4A72B8;}
</style>
<circle class="st0" cx="65" cy="419.5" r="65"/>
<circle class="st1" cx="65" cy="419.5" r="59.9"/>
<path class="st2" d="M127.7,299.5c0.3,39.2-36.2,61.2-62.2,83.9c-1.6,1.5-25.8-22.6-28.8-25.2C19,342.6,1.9,323.5,2.4,298.3
	c0.4-22.8,13.6-44.1,33.7-54.7c9-4.7,19.1-7.2,29.4-7.2C102.1,236.4,127.5,267.1,127.7,299.5z"/>
<circle class="st1" cx="65" cy="298.6" r="57"/>
<path class="st3" d="M127.7,181.3c0.3,39.2-36.2,61.2-62.2,83.9c-1.6,1.5-25.8-22.6-28.8-25.2C19,224.4,1.9,205.3,2.4,180
	C2.8,157.2,16,136,36.1,125.3c9-4.7,19.1-7.2,29.4-7.2C102.1,118.2,127.5,148.9,127.7,181.3z"/>
<circle class="st1" cx="65" cy="180.4" r="57"/>
<path class="st4" d="M127.7,63.2c0.3,39.2-36.2,61.2-62.2,83.9c-1.6,1.5-25.8-22.6-28.8-25.2C19,106.3,1.9,87.2,2.4,62
	C2.8,39.2,16,17.9,36.1,7.2C45.1,2.5,55.2,0,65.5,0C102.1,0.1,127.5,30.8,127.7,63.2z"/>
<circle class="st1" cx="65" cy="62.3" r="57"/>
<g>
	<path d="M30.7,40H33c0,0.5-0.1,0.9-0.3,1.3c-0.2,0.4-0.5,0.7-0.9,0.9c-0.4,0.2-0.8,0.3-1.3,0.3c-0.6,0-1-0.1-1.5-0.4
		c-0.4-0.3-0.8-0.7-1-1.2c-0.2-0.5-0.4-1.2-0.4-1.9c0-0.8,0.1-1.4,0.4-1.9c0.2-0.5,0.6-0.9,1-1.2s0.9-0.4,1.4-0.4
		c0.3,0,0.6,0,0.9,0.1c0.3,0.1,0.5,0.2,0.7,0.4c0.2,0.2,0.4,0.3,0.5,0.6c0.1,0.2,0.3,0.5,0.4,0.8h1.5c-0.1-0.5-0.2-0.9-0.5-1.3
		c-0.2-0.4-0.5-0.7-0.9-1c-0.3-0.3-0.7-0.5-1.2-0.6c-0.4-0.2-0.9-0.2-1.4-0.2c-0.6,0-1.2,0.1-1.7,0.3s-1,0.5-1.3,1
		c-0.4,0.4-0.7,0.9-0.9,1.5c-0.2,0.6-0.3,1.3-0.3,2c0,1,0.2,1.9,0.5,2.6c0.4,0.7,0.9,1.3,1.5,1.7c0.6,0.4,1.4,0.6,2.3,0.6
		c0.8,0,1.4-0.2,2-0.5c0.6-0.3,1.1-0.8,1.4-1.4c0.3-0.6,0.5-1.3,0.5-2.1v-1.1h-3.7V40z"/>
	<path d="M37.4,43.3c0.5,0.3,1.1,0.5,1.7,0.5s1.2-0.2,1.7-0.5c0.5-0.3,0.9-0.7,1.2-1.3c0.3-0.5,0.4-1.2,0.4-1.9
		c0-0.7-0.1-1.4-0.4-1.9c-0.3-0.6-0.7-1-1.2-1.3c-0.5-0.3-1.1-0.5-1.7-0.5s-1.2,0.2-1.7,0.5c-0.5,0.3-0.9,0.7-1.2,1.3
		c-0.3,0.6-0.4,1.2-0.4,1.9c0,0.7,0.1,1.4,0.4,1.9C36.5,42.6,36.9,43,37.4,43.3z M37.4,38.9c0.1-0.4,0.3-0.7,0.6-0.9
		c0.3-0.2,0.6-0.3,1.1-0.3c0.4,0,0.8,0.1,1.1,0.3c0.3,0.2,0.5,0.5,0.6,0.9c0.1,0.4,0.2,0.8,0.2,1.2c0,0.5-0.1,0.9-0.2,1.3
		c-0.1,0.4-0.3,0.7-0.6,0.9c-0.3,0.2-0.6,0.3-1.1,0.3c-0.4,0-0.8-0.1-1.1-0.3c-0.3-0.2-0.5-0.5-0.6-0.9s-0.2-0.8-0.2-1.3
		C37.2,39.7,37.3,39.3,37.4,38.9z"/>
	<path d="M47.9,41.9c0,0.4,0.1,0.8,0.3,1.1c0.2,0.3,0.4,0.5,0.8,0.6c0.3,0.1,0.7,0.2,1,0.2c0.2,0,0.4,0,0.6-0.1
		c0.1,0,0.3-0.1,0.3-0.1l-0.2-1.1c0,0-0.1,0-0.2,0s-0.2,0-0.3,0c-0.2,0-0.3,0-0.4-0.1c-0.1,0-0.2-0.1-0.3-0.3s-0.1-0.3-0.1-0.6v-3.9
		h1.5v-1.1h-1.5v-1.7h-1.4v1.7h-1v1.1h1V41.9z"/>
	<path d="M53.5,43.3c0.5,0.3,1.1,0.5,1.7,0.5s1.2-0.2,1.7-0.5c0.5-0.3,0.9-0.7,1.2-1.3c0.3-0.5,0.4-1.2,0.4-1.9
		c0-0.7-0.1-1.4-0.4-1.9c-0.3-0.6-0.7-1-1.2-1.3c-0.5-0.3-1.1-0.5-1.7-0.5s-1.2,0.2-1.7,0.5c-0.5,0.3-0.9,0.7-1.2,1.3
		c-0.3,0.6-0.4,1.2-0.4,1.9c0,0.7,0.1,1.4,0.4,1.9C52.6,42.6,53,43,53.5,43.3z M53.5,38.9c0.1-0.4,0.3-0.7,0.6-0.9
		c0.3-0.2,0.6-0.3,1.1-0.3c0.4,0,0.8,0.1,1.1,0.3c0.3,0.2,0.5,0.5,0.6,0.9c0.1,0.4,0.2,0.8,0.2,1.2c0,0.5-0.1,0.9-0.2,1.3
		c-0.1,0.4-0.3,0.7-0.6,0.9c-0.3,0.2-0.6,0.3-1.1,0.3c-0.4,0-0.8-0.1-1.1-0.3c-0.3-0.2-0.5-0.5-0.6-0.9s-0.2-0.8-0.2-1.3
		C53.3,39.7,53.4,39.3,53.5,38.9z"/>
	<path d="M65,40.1H67c0,0,0.1,0,0.1,0l1.9,3.6h1.6l-2.1-3.8c0.1,0,0.2-0.1,0.3-0.1c0.5-0.2,0.8-0.6,1.1-1c0.2-0.4,0.4-0.9,0.4-1.5
		c0-0.6-0.1-1.1-0.4-1.5s-0.6-0.8-1.1-1c-0.5-0.3-1.1-0.4-1.8-0.4h-3.4v9.5H65V40.1z M66.8,35.4c0.5,0,0.9,0.1,1.1,0.2
		s0.5,0.3,0.6,0.6c0.1,0.3,0.2,0.6,0.2,0.9c0,0.4-0.1,0.7-0.2,0.9c-0.1,0.3-0.3,0.4-0.6,0.6s-0.7,0.2-1.1,0.2H65v-3.4H66.8z"/>
	<path d="M73.1,43.4c0.5,0.3,1.1,0.5,1.8,0.5c0.5,0,1-0.1,1.4-0.2c0.4-0.2,0.7-0.4,1-0.7c0.3-0.3,0.5-0.6,0.6-1l-1.3-0.2
		c-0.1,0.2-0.2,0.4-0.4,0.6c-0.2,0.2-0.3,0.3-0.6,0.3c-0.2,0.1-0.5,0.1-0.7,0.1c-0.4,0-0.8-0.1-1.1-0.3s-0.5-0.4-0.7-0.8
		C73,41.3,73,41,73,40.5h5V40c0-0.6-0.1-1.2-0.3-1.6c-0.2-0.5-0.4-0.8-0.7-1.1c-0.3-0.3-0.6-0.5-1-0.6c-0.4-0.1-0.8-0.2-1.2-0.2
		c-0.7,0-1.2,0.2-1.7,0.5c-0.5,0.3-0.9,0.7-1.1,1.3c-0.3,0.6-0.4,1.2-0.4,1.9c0,0.7,0.1,1.4,0.4,1.9C72.2,42.6,72.6,43.1,73.1,43.4z
		 M73.2,38.6c0.2-0.3,0.4-0.5,0.7-0.7c0.3-0.2,0.6-0.3,1-0.3c0.4,0,0.7,0.1,0.9,0.2c0.3,0.2,0.5,0.4,0.6,0.7c0.1,0.3,0.2,0.6,0.2,1
		H73C73,39.2,73,38.9,73.2,38.6z"/>
	<path d="M80.9,42.6L80.9,42.6c0.2,0.2,0.3,0.3,0.4,0.5c0.2,0.2,0.4,0.4,0.6,0.5s0.6,0.2,1.1,0.2c0.6,0,1.1-0.1,1.5-0.4
		s0.8-0.7,1.1-1.3c0.3-0.5,0.4-1.2,0.4-2c0-0.8-0.1-1.4-0.4-2c-0.3-0.5-0.6-1-1.1-1.3c-0.5-0.3-1-0.4-1.5-0.4
		c-0.4,0-0.8,0.1-1.1,0.2s-0.5,0.3-0.6,0.5c-0.2,0.2-0.3,0.4-0.3,0.5h-0.1v-1.1h-1.3v9.8h1.4V42.6z M81.1,38.8
		c0.1-0.4,0.4-0.7,0.6-0.9c0.3-0.2,0.6-0.3,1-0.3c0.4,0,0.8,0.1,1,0.3c0.3,0.2,0.5,0.5,0.6,0.9c0.1,0.4,0.2,0.8,0.2,1.3
		c0,0.5-0.1,0.9-0.2,1.3c-0.1,0.4-0.4,0.7-0.6,0.9c-0.3,0.2-0.6,0.3-1,0.3c-0.4,0-0.7-0.1-1-0.3c-0.3-0.2-0.5-0.5-0.6-0.9
		s-0.2-0.8-0.2-1.3C80.9,39.6,80.9,39.2,81.1,38.8z"/>
	<path d="M88.8,43.3c0.5,0.3,1.1,0.5,1.7,0.5c0.7,0,1.2-0.2,1.7-0.5c0.5-0.3,0.9-0.7,1.2-1.3c0.3-0.5,0.4-1.2,0.4-1.9
		c0-0.7-0.1-1.4-0.4-1.9c-0.3-0.6-0.7-1-1.2-1.3c-0.5-0.3-1.1-0.5-1.7-0.5c-0.7,0-1.2,0.2-1.7,0.5c-0.5,0.3-0.9,0.7-1.2,1.3
		c-0.3,0.6-0.4,1.2-0.4,1.9c0,0.7,0.1,1.4,0.4,1.9C87.9,42.6,88.3,43,88.8,43.3z M88.8,38.9c0.1-0.4,0.3-0.7,0.6-0.9
		c0.3-0.2,0.6-0.3,1.1-0.3c0.4,0,0.8,0.1,1.1,0.3c0.3,0.2,0.5,0.5,0.6,0.9c0.1,0.4,0.2,0.8,0.2,1.2c0,0.5-0.1,0.9-0.2,1.3
		s-0.3,0.7-0.6,0.9c-0.3,0.2-0.6,0.3-1.1,0.3c-0.4,0-0.8-0.1-1.1-0.3c-0.3-0.2-0.5-0.5-0.6-0.9c-0.1-0.4-0.2-0.8-0.2-1.3
		C88.6,39.7,88.7,39.3,88.8,38.9z"/>
	<path d="M98.6,36.5c-0.4,0-0.8,0.1-1.1,0.3c-0.3,0.2-0.6,0.5-0.7,0.9h-0.1v-1.1h-1.3v7.1h1.4v-4.3c0-0.3,0.1-0.6,0.2-0.8
		c0.1-0.2,0.3-0.4,0.6-0.6c0.3-0.1,0.5-0.2,0.9-0.2c0.1,0,0.3,0,0.4,0s0.2,0,0.3,0.1v-1.3c-0.1,0-0.2,0-0.3,0
		C98.8,36.5,98.7,36.5,98.6,36.5z"/>
	<path d="M103.6,42.5c0,0-0.1,0-0.2,0s-0.2,0-0.3,0c-0.2,0-0.3,0-0.4-0.1c-0.1,0-0.2-0.1-0.3-0.3s-0.1-0.3-0.1-0.6v-3.9h1.5v-1.1
		h-1.5v-1.7h-1.4v1.7h-1v1.1h1v4.2c0,0.4,0.1,0.8,0.3,1.1c0.2,0.3,0.4,0.5,0.8,0.6c0.3,0.1,0.7,0.2,1,0.2c0.2,0,0.4,0,0.6-0.1
		c0.1,0,0.3-0.1,0.3-0.1L103.6,42.5z"/>
	<path d="M41.5,59.1c0.5-0.2,0.9-0.6,1.2-1s0.4-0.9,0.4-1.4c0-0.4-0.1-0.8-0.3-1.1s-0.4-0.6-0.7-0.8c-0.3-0.2-0.6-0.4-0.9-0.5
		c-0.3-0.1-0.6-0.2-0.9-0.3l-0.9-0.2c-0.2,0-0.4-0.1-0.6-0.2s-0.4-0.2-0.6-0.3c-0.2-0.1-0.3-0.2-0.4-0.4c-0.1-0.2-0.2-0.4-0.2-0.6
		c0-0.3,0.1-0.5,0.2-0.7c0.2-0.2,0.4-0.4,0.7-0.5s0.6-0.2,1-0.2c0.5,0,1,0.1,1.3,0.4c0.4,0.2,0.6,0.6,0.6,1H43c0-0.5-0.2-1-0.4-1.4
		c-0.3-0.4-0.7-0.7-1.2-0.9c-0.5-0.2-1.1-0.3-1.7-0.3c-0.6,0-1.2,0.1-1.7,0.3c-0.5,0.2-0.9,0.5-1.2,0.9c-0.3,0.4-0.4,0.9-0.4,1.4
		c0,0.7,0.2,1.2,0.7,1.6s1,0.7,1.8,0.9l1.1,0.3c0.3,0.1,0.6,0.2,0.9,0.3c0.3,0.1,0.5,0.3,0.6,0.4c0.2,0.2,0.2,0.4,0.2,0.7
		c0,0.3-0.1,0.6-0.3,0.8c-0.2,0.2-0.4,0.4-0.7,0.5s-0.7,0.2-1.1,0.2c-0.4,0-0.7-0.1-1-0.2c-0.3-0.1-0.6-0.3-0.8-0.5
		c-0.2-0.2-0.3-0.5-0.3-0.9h-1.4c0,0.6,0.2,1.1,0.5,1.5c0.3,0.4,0.7,0.7,1.2,1c0.5,0.2,1.1,0.3,1.8,0.3C40.3,59.4,41,59.3,41.5,59.1
		z"/>
	<path d="M45.9,59c0.5,0.3,1.1,0.5,1.8,0.5c0.5,0,1-0.1,1.4-0.2c0.4-0.2,0.7-0.4,1-0.7c0.3-0.3,0.5-0.6,0.6-1l-1.3-0.2
		c-0.1,0.2-0.2,0.4-0.4,0.6c-0.2,0.2-0.3,0.3-0.6,0.3c-0.2,0.1-0.5,0.1-0.7,0.1c-0.4,0-0.8-0.1-1.1-0.3s-0.5-0.4-0.7-0.8
		c-0.2-0.3-0.2-0.7-0.2-1.1h5v-0.5c0-0.6-0.1-1.2-0.3-1.6c-0.2-0.5-0.4-0.8-0.7-1.1c-0.3-0.3-0.6-0.5-1-0.6
		c-0.4-0.1-0.8-0.2-1.2-0.2c-0.7,0-1.2,0.2-1.7,0.5c-0.5,0.3-0.9,0.7-1.1,1.3c-0.3,0.6-0.4,1.2-0.4,1.9c0,0.7,0.1,1.4,0.4,1.9
		C45,58.2,45.4,58.7,45.9,59z M46,54.2c0.2-0.3,0.4-0.5,0.7-0.7c0.3-0.2,0.6-0.3,1-0.3c0.4,0,0.7,0.1,0.9,0.2
		c0.3,0.2,0.5,0.4,0.6,0.7c0.1,0.3,0.2,0.6,0.2,1h-3.7C45.8,54.8,45.8,54.5,46,54.2z"/>
	<path d="M54.3,53.5c0.3-0.2,0.6-0.3,1-0.3c0.4,0,0.8,0.1,1.1,0.4c0.3,0.2,0.4,0.5,0.5,0.9h1.3c0-0.5-0.2-0.9-0.5-1.3
		c-0.3-0.4-0.6-0.6-1-0.8c-0.4-0.2-0.9-0.3-1.4-0.3c-0.7,0-1.2,0.2-1.7,0.5c-0.5,0.3-0.9,0.7-1.1,1.3C52.1,54.4,52,55,52,55.7
		c0,0.7,0.1,1.3,0.4,1.9c0.3,0.6,0.6,1,1.1,1.3c0.5,0.3,1.1,0.5,1.8,0.5c0.6,0,1-0.1,1.5-0.3c0.4-0.2,0.8-0.5,1-0.8
		c0.2-0.4,0.4-0.8,0.4-1.2h-1.3c-0.1,0.3-0.2,0.5-0.3,0.7S56.2,58,56,58.1c-0.2,0.1-0.5,0.1-0.7,0.1c-0.4,0-0.7-0.1-1-0.3
		c-0.3-0.2-0.5-0.5-0.7-0.9s-0.2-0.8-0.2-1.3c0-0.5,0.1-0.9,0.2-1.3C53.8,54,54,53.7,54.3,53.5z"/>
	<path d="M60.2,57.5c0,0.4,0.1,0.8,0.3,1.1c0.2,0.3,0.4,0.5,0.8,0.6c0.3,0.1,0.7,0.2,1,0.2c0.2,0,0.4,0,0.6-0.1
		c0.1,0,0.3-0.1,0.3-0.1l-0.2-1.1c0,0-0.1,0-0.2,0c-0.1,0-0.2,0-0.3,0c-0.2,0-0.3,0-0.4-0.1c-0.1,0-0.2-0.1-0.3-0.3
		s-0.1-0.3-0.1-0.6v-3.9H63v-1.1h-1.5v-1.7h-1.4v1.7h-1v1.1h1V57.5z"/>
	<rect x="64.5" y="52.2" width="1.4" height="7.1"/>
	<path d="M65.2,51.1c0.2,0,0.4-0.1,0.6-0.2s0.3-0.4,0.3-0.6c0-0.2-0.1-0.4-0.3-0.6s-0.4-0.2-0.6-0.2s-0.4,0.1-0.6,0.2
		s-0.3,0.4-0.3,0.6c0,0.2,0.1,0.4,0.3,0.6S65,51.1,65.2,51.1z"/>
	<path d="M67.9,53.8c-0.3,0.6-0.4,1.2-0.4,1.9c0,0.7,0.1,1.4,0.4,1.9c0.3,0.5,0.7,1,1.2,1.3c0.5,0.3,1.1,0.5,1.7,0.5
		s1.2-0.2,1.7-0.5c0.5-0.3,0.9-0.7,1.2-1.3c0.3-0.5,0.4-1.2,0.4-1.9c0-0.7-0.1-1.4-0.4-1.9c-0.3-0.6-0.7-1-1.2-1.3
		c-0.5-0.3-1.1-0.5-1.7-0.5s-1.2,0.2-1.7,0.5C68.5,52.8,68.1,53.3,67.9,53.8z M69.7,53.6c0.3-0.2,0.6-0.3,1.1-0.3
		c0.4,0,0.8,0.1,1.1,0.3c0.3,0.2,0.5,0.5,0.6,0.9c0.1,0.4,0.2,0.8,0.2,1.2c0,0.5-0.1,0.9-0.2,1.3c-0.1,0.4-0.3,0.7-0.6,0.9
		c-0.3,0.2-0.6,0.3-1.1,0.3c-0.4,0-0.8-0.1-1.1-0.3c-0.3-0.2-0.5-0.5-0.6-0.9s-0.2-0.8-0.2-1.3c0-0.5,0.1-0.9,0.2-1.2
		C69.2,54.1,69.4,53.8,69.7,53.6z"/>
	<path d="M80.1,59.3h1.4v-4.5c0-0.6-0.1-1.1-0.3-1.5s-0.5-0.7-0.8-0.9s-0.8-0.3-1.3-0.3c-0.5,0-1,0.1-1.3,0.3
		c-0.3,0.2-0.6,0.5-0.8,0.9h-0.1v-1.2h-1.3v7.1H77V55c0-0.4,0.1-0.7,0.2-1c0.1-0.3,0.3-0.5,0.6-0.6c0.2-0.1,0.5-0.2,0.9-0.2
		c0.5,0,0.8,0.1,1.1,0.4c0.3,0.3,0.4,0.7,0.4,1.2V59.3z"/>
	<path d="M92.9,57.5c0.2-0.3,0.4-0.6,0.5-1c0.1-0.4,0.2-0.9,0.2-1.5h-1.2c0,0.5-0.1,0.9-0.2,1.3c0,0.1-0.1,0.2-0.2,0.3l-1.9-2.3
		l0.6-0.5c0.4-0.3,0.7-0.6,0.9-0.9c0.2-0.3,0.3-0.7,0.3-1.2c0-0.4-0.1-0.7-0.3-1c-0.2-0.3-0.5-0.6-0.8-0.8c-0.3-0.2-0.8-0.3-1.3-0.3
		c-0.5,0-0.9,0.1-1.3,0.3c-0.4,0.2-0.6,0.5-0.8,0.8s-0.3,0.7-0.3,1.2c0,0.4,0.1,0.7,0.2,1.1c0.2,0.3,0.4,0.7,0.6,1
		c0.1,0.1,0.1,0.1,0.2,0.2c-0.3,0.2-0.6,0.5-0.9,0.7c-0.3,0.3-0.5,0.5-0.7,0.8c-0.2,0.3-0.2,0.6-0.2,1c0,0.5,0.1,1,0.4,1.4
		c0.2,0.4,0.6,0.7,1.1,0.9s1,0.3,1.6,0.3c0.4,0,0.9-0.1,1.3-0.2c0.4-0.1,0.8-0.4,1.1-0.7l0.6,0.8h1.6l-1.4-1.6
		C92.9,57.6,92.9,57.6,92.9,57.5z M88.7,51.4c0.1-0.2,0.2-0.3,0.4-0.4c0.2-0.1,0.4-0.2,0.6-0.2c0.3,0,0.6,0.1,0.8,0.3
		c0.2,0.2,0.3,0.4,0.3,0.6c0,0.3-0.1,0.5-0.2,0.7c-0.1,0.2-0.3,0.4-0.6,0.5l-0.6,0.4c0-0.1-0.1-0.1-0.1-0.2
		c-0.2-0.2-0.3-0.5-0.5-0.7c-0.1-0.2-0.2-0.4-0.2-0.7C88.6,51.8,88.6,51.6,88.7,51.4z M90.6,58c-0.3,0.2-0.7,0.2-1,0.2
		c-0.3,0-0.6-0.1-0.9-0.2c-0.3-0.1-0.5-0.3-0.6-0.6c-0.1-0.2-0.2-0.5-0.2-0.8c0-0.1,0.1-0.4,0.2-0.6c0.1-0.3,0.4-0.5,0.8-0.8
		l0.2-0.2l2.1,2.5C91,57.8,90.8,57.9,90.6,58z"/>
	<path d="M49.5,75c0.7,0,1.4-0.1,1.9-0.4s0.9-0.6,1.2-1s0.4-0.9,0.4-1.4c0-0.4-0.1-0.8-0.3-1.1c-0.2-0.3-0.4-0.6-0.7-0.8
		c-0.3-0.2-0.6-0.4-0.9-0.5c-0.3-0.1-0.6-0.2-0.9-0.3l-0.9-0.2c-0.2,0-0.4-0.1-0.6-0.2c-0.2-0.1-0.4-0.2-0.6-0.3
		c-0.2-0.1-0.3-0.2-0.4-0.4s-0.2-0.4-0.2-0.6c0-0.3,0.1-0.5,0.2-0.7c0.2-0.2,0.4-0.4,0.7-0.5s0.6-0.2,1-0.2c0.5,0,1,0.1,1.3,0.4
		c0.4,0.2,0.6,0.6,0.6,1h1.4c0-0.5-0.2-1-0.4-1.4c-0.3-0.4-0.7-0.7-1.2-0.9c-0.5-0.2-1.1-0.3-1.7-0.3c-0.6,0-1.2,0.1-1.7,0.3
		c-0.5,0.2-0.9,0.5-1.2,0.9c-0.3,0.4-0.4,0.9-0.4,1.4c0,0.7,0.2,1.2,0.7,1.6c0.4,0.4,1,0.7,1.8,0.9l1.1,0.3c0.3,0.1,0.6,0.2,0.9,0.3
		c0.3,0.1,0.5,0.3,0.6,0.4c0.2,0.2,0.2,0.4,0.2,0.7c0,0.3-0.1,0.6-0.3,0.8c-0.2,0.2-0.4,0.4-0.7,0.5s-0.7,0.2-1.1,0.2
		c-0.4,0-0.7-0.1-1-0.2c-0.3-0.1-0.6-0.3-0.8-0.5s-0.3-0.5-0.3-0.9H46c0,0.6,0.2,1.1,0.5,1.5c0.3,0.4,0.7,0.7,1.2,1
		C48.2,74.9,48.8,75,49.5,75z"/>
	<path d="M57.7,75c0.5,0,1-0.1,1.4-0.2c0.4-0.2,0.7-0.4,1-0.7c0.3-0.3,0.5-0.6,0.6-1l-1.3-0.2c-0.1,0.2-0.2,0.4-0.4,0.6
		c-0.2,0.2-0.3,0.3-0.6,0.3c-0.2,0.1-0.5,0.1-0.7,0.1c-0.4,0-0.8-0.1-1.1-0.3c-0.3-0.2-0.5-0.4-0.7-0.8c-0.2-0.3-0.2-0.7-0.2-1.1h5
		v-0.5c0-0.6-0.1-1.2-0.3-1.6c-0.2-0.5-0.4-0.8-0.7-1.1s-0.6-0.5-1-0.6c-0.4-0.1-0.8-0.2-1.2-0.2c-0.7,0-1.2,0.2-1.7,0.5
		c-0.5,0.3-0.9,0.7-1.1,1.3c-0.3,0.6-0.4,1.2-0.4,1.9c0,0.7,0.1,1.4,0.4,1.9c0.3,0.5,0.7,1,1.2,1.3C56.4,74.9,57,75,57.7,75z
		 M55.9,69.8c0.2-0.3,0.4-0.5,0.7-0.7c0.3-0.2,0.6-0.3,1-0.3c0.4,0,0.7,0.1,0.9,0.2c0.3,0.2,0.5,0.4,0.6,0.7c0.1,0.3,0.2,0.6,0.2,1
		h-3.7C55.7,70.4,55.8,70.1,55.9,69.8z"/>
	<rect x="62.3" y="65.4" width="1.4" height="9.5"/>
	<path d="M71.6,71.2c0-0.6-0.1-1.2-0.3-1.6c-0.2-0.5-0.4-0.8-0.7-1.1c-0.3-0.3-0.6-0.5-1-0.6c-0.4-0.1-0.8-0.2-1.2-0.2
		c-0.7,0-1.2,0.2-1.7,0.5c-0.5,0.3-0.9,0.7-1.1,1.3c-0.3,0.6-0.4,1.2-0.4,1.9c0,0.7,0.1,1.4,0.4,1.9c0.3,0.5,0.7,1,1.2,1.3
		c0.5,0.3,1.1,0.5,1.8,0.5c0.5,0,1-0.1,1.4-0.2c0.4-0.2,0.7-0.4,1-0.7c0.3-0.3,0.5-0.6,0.6-1l-1.3-0.2c-0.1,0.2-0.2,0.4-0.4,0.6
		c-0.2,0.2-0.3,0.3-0.6,0.3c-0.2,0.1-0.5,0.1-0.7,0.1c-0.4,0-0.8-0.1-1.1-0.3s-0.5-0.4-0.7-0.8c-0.2-0.3-0.2-0.7-0.2-1.1h5V71.2z
		 M66.6,70.7c0-0.3,0.1-0.6,0.2-0.9c0.2-0.3,0.4-0.5,0.7-0.7c0.3-0.2,0.6-0.3,1-0.3c0.4,0,0.7,0.1,0.9,0.2c0.3,0.2,0.5,0.4,0.6,0.7
		c0.1,0.3,0.2,0.6,0.2,1H66.6z"/>
	<path d="M78.6,73.8c0.2-0.4,0.4-0.8,0.4-1.2h-1.3c-0.1,0.3-0.2,0.5-0.3,0.7c-0.1,0.2-0.3,0.3-0.5,0.4c-0.2,0.1-0.5,0.1-0.7,0.1
		c-0.4,0-0.7-0.1-1-0.3c-0.3-0.2-0.5-0.5-0.7-0.9c-0.2-0.4-0.2-0.8-0.2-1.3c0-0.5,0.1-0.9,0.2-1.3c0.2-0.4,0.4-0.7,0.7-0.9
		c0.3-0.2,0.6-0.3,1-0.3c0.4,0,0.8,0.1,1.1,0.4c0.3,0.2,0.4,0.5,0.5,0.9H79c0-0.5-0.2-0.9-0.5-1.3c-0.3-0.4-0.6-0.6-1-0.8
		c-0.4-0.2-0.9-0.3-1.4-0.3c-0.7,0-1.2,0.2-1.7,0.5c-0.5,0.3-0.9,0.7-1.1,1.3c-0.3,0.6-0.4,1.2-0.4,1.9c0,0.7,0.1,1.3,0.4,1.9
		c0.3,0.6,0.6,1,1.1,1.3c0.5,0.3,1.1,0.5,1.8,0.5c0.6,0,1-0.1,1.5-0.3C78,74.5,78.3,74.2,78.6,73.8z"/>
	<path d="M83.5,73.7c-0.1,0-0.2,0-0.3,0c-0.2,0-0.3,0-0.4-0.1c-0.1,0-0.2-0.1-0.3-0.3s-0.1-0.3-0.1-0.6v-3.9h1.5v-1.1h-1.5v-1.7H81
		v1.7h-1v1.1h1v4.2c0,0.4,0.1,0.8,0.3,1.1c0.2,0.3,0.4,0.5,0.8,0.6c0.3,0.1,0.7,0.2,1,0.2c0.2,0,0.4,0,0.6-0.1
		c0.1,0,0.3-0.1,0.3-0.1l-0.2-1.1C83.6,73.7,83.6,73.7,83.5,73.7z"/>
	<path d="M44.7,81.4c-0.5-0.3-1.1-0.4-1.8-0.4h-3.4v9.5h1.4v-3.3h1.9c0.7,0,1.3-0.1,1.8-0.4c0.5-0.3,0.8-0.6,1.1-1.1
		c0.2-0.5,0.4-1,0.4-1.6c0-0.6-0.1-1.1-0.4-1.6C45.5,82,45.1,81.7,44.7,81.4z M44.5,85c-0.1,0.3-0.3,0.5-0.6,0.7s-0.7,0.2-1.1,0.2
		h-1.8v-3.7h1.8c0.5,0,0.9,0.1,1.1,0.2c0.3,0.2,0.5,0.4,0.6,0.7c0.1,0.3,0.2,0.6,0.2,1C44.7,84.4,44.6,84.7,44.5,85z"/>
	<path d="M52.4,83.7c-0.5-0.3-1.1-0.5-1.7-0.5s-1.2,0.2-1.7,0.5C48.4,84,48,84.5,47.7,85c-0.3,0.6-0.4,1.2-0.4,1.9
		c0,0.7,0.1,1.4,0.4,1.9c0.3,0.5,0.7,1,1.2,1.3c0.5,0.3,1.1,0.5,1.7,0.5s1.2-0.2,1.7-0.5c0.5-0.3,0.9-0.7,1.2-1.3
		c0.3-0.5,0.4-1.2,0.4-1.9c0-0.7-0.1-1.4-0.4-1.9C53.3,84.5,52.9,84,52.4,83.7z M52.3,88.2c-0.1,0.4-0.3,0.7-0.6,0.9
		c-0.3,0.2-0.6,0.3-1.1,0.3c-0.4,0-0.8-0.1-1.1-0.3c-0.3-0.2-0.5-0.5-0.6-0.9s-0.2-0.8-0.2-1.3c0-0.5,0.1-0.9,0.2-1.2
		c0.1-0.4,0.3-0.7,0.6-0.9c0.3-0.2,0.6-0.3,1.1-0.3c0.4,0,0.8,0.1,1.1,0.3c0.3,0.2,0.5,0.5,0.6,0.9c0.1,0.4,0.2,0.8,0.2,1.2
		C52.6,87.4,52.5,87.8,52.3,88.2z"/>
	<path d="M58.7,83.3c-0.4,0-0.8,0.1-1.1,0.3c-0.3,0.2-0.6,0.5-0.7,0.9h-0.1v-1.1h-1.3v7.1h1.4v-4.3c0-0.3,0.1-0.6,0.2-0.8
		s0.3-0.4,0.6-0.6c0.3-0.1,0.5-0.2,0.9-0.2c0.1,0,0.3,0,0.4,0s0.2,0,0.3,0.1v-1.3c-0.1,0-0.2,0-0.3,0C58.9,83.3,58.8,83.3,58.7,83.3
		z"/>
	<path d="M63.5,89.3c-0.1,0-0.2,0-0.3,0c-0.2,0-0.3,0-0.4-0.1c-0.1,0-0.2-0.1-0.3-0.3s-0.1-0.3-0.1-0.6v-3.9h1.5v-1.1h-1.5v-1.7H61
		v1.7h-1v1.1h1v4.2c0,0.4,0.1,0.8,0.3,1.1c0.2,0.3,0.4,0.5,0.8,0.6c0.3,0.1,0.7,0.2,1,0.2c0.2,0,0.4,0,0.6-0.1
		c0.1,0,0.3-0.1,0.3-0.1l-0.2-1.1C63.6,89.3,63.6,89.3,63.5,89.3z"/>
	<path d="M67.9,80.6c-0.4,0-0.7,0.1-1,0.2c-0.3,0.1-0.6,0.4-0.8,0.7c-0.2,0.3-0.3,0.7-0.3,1.1v0.8h-1.1v1.1h1.1v6h1.4v-6h1.5v-1.1
		h-1.5v-0.6c0-0.3,0.1-0.6,0.2-0.7c0.1-0.2,0.4-0.2,0.7-0.2c0.1,0,0.3,0,0.4,0c0.1,0,0.2,0,0.2,0.1l0.3-1.1c-0.1,0-0.2-0.1-0.4-0.1
		C68.4,80.6,68.2,80.6,67.9,80.6z"/>
	<path d="M74.8,83.7c-0.5-0.3-1.1-0.5-1.7-0.5s-1.2,0.2-1.7,0.5c-0.5,0.3-0.9,0.7-1.2,1.3c-0.3,0.6-0.4,1.2-0.4,1.9
		c0,0.7,0.1,1.4,0.4,1.9c0.3,0.5,0.7,1,1.2,1.3c0.5,0.3,1.1,0.5,1.7,0.5s1.2-0.2,1.7-0.5c0.5-0.3,0.9-0.7,1.2-1.3
		c0.3-0.5,0.4-1.2,0.4-1.9c0-0.7-0.1-1.4-0.4-1.9C75.7,84.5,75.3,84,74.8,83.7z M74.8,88.2c-0.1,0.4-0.3,0.7-0.6,0.9
		c-0.3,0.2-0.6,0.3-1.1,0.3c-0.4,0-0.8-0.1-1.1-0.3c-0.3-0.2-0.5-0.5-0.6-0.9s-0.2-0.8-0.2-1.3c0-0.5,0.1-0.9,0.2-1.2
		c0.1-0.4,0.3-0.7,0.6-0.9c0.3-0.2,0.6-0.3,1.1-0.3c0.4,0,0.8,0.1,1.1,0.3c0.3,0.2,0.5,0.5,0.6,0.9c0.1,0.4,0.2,0.8,0.2,1.2
		C75,87.4,74.9,87.8,74.8,88.2z"/>
	<rect x="77.9" y="81" width="1.4" height="9.5"/>
	<rect x="81.2" y="83.4" width="1.4" height="7.1"/>
	<path d="M81.9,80.6c-0.2,0-0.4,0.1-0.6,0.2S81,81.2,81,81.5c0,0.2,0.1,0.4,0.3,0.6s0.4,0.2,0.6,0.2s0.4-0.1,0.6-0.2
		s0.3-0.4,0.3-0.6c0-0.2-0.1-0.4-0.3-0.6S82.1,80.6,81.9,80.6z"/>
	<path d="M89.1,83.7c-0.5-0.3-1.1-0.5-1.7-0.5s-1.2,0.2-1.7,0.5c-0.5,0.3-0.9,0.7-1.2,1.3c-0.3,0.6-0.4,1.2-0.4,1.9
		c0,0.7,0.1,1.4,0.4,1.9c0.3,0.5,0.7,1,1.2,1.3c0.5,0.3,1.1,0.5,1.7,0.5s1.2-0.2,1.7-0.5c0.5-0.3,0.9-0.7,1.2-1.3
		c0.3-0.5,0.4-1.2,0.4-1.9c0-0.7-0.1-1.4-0.4-1.9C90,84.5,89.6,84,89.1,83.7z M89.1,88.2c-0.1,0.4-0.3,0.7-0.6,0.9
		c-0.3,0.2-0.6,0.3-1.1,0.3c-0.4,0-0.8-0.1-1.1-0.3c-0.3-0.2-0.5-0.5-0.6-0.9s-0.2-0.8-0.2-1.3c0-0.5,0.1-0.9,0.2-1.2
		c0.1-0.4,0.3-0.7,0.6-0.9c0.3-0.2,0.6-0.3,1.1-0.3c0.4,0,0.8,0.1,1.1,0.3c0.3,0.2,0.5,0.5,0.6,0.9c0.1,0.4,0.2,0.8,0.2,1.2
		C89.3,87.4,89.2,87.8,89.1,88.2z"/>
</g>
<g>
	<path d="M45.3,166.3c0.7,0,1.3-0.1,1.8-0.4c0.5-0.3,0.8-0.6,1.1-1.1c0.2-0.5,0.4-1,0.4-1.6c0-0.6-0.1-1.1-0.4-1.6
		c-0.2-0.5-0.6-0.8-1.1-1.1c-0.5-0.3-1.1-0.4-1.8-0.4h-3.4v9.5h1.4v-3.3H45.3z M45.1,161.4c0.5,0,0.9,0.1,1.1,0.2
		c0.3,0.2,0.5,0.4,0.6,0.7s0.2,0.6,0.2,1c0,0.4-0.1,0.7-0.2,1c-0.1,0.3-0.3,0.5-0.6,0.7c-0.3,0.2-0.7,0.2-1.1,0.2h-1.8v-3.7H45.1z"
		/>
	<path d="M51.5,165.3c0-0.3,0.1-0.6,0.2-0.8c0.1-0.2,0.3-0.4,0.6-0.6c0.3-0.1,0.5-0.2,0.9-0.2c0.1,0,0.3,0,0.4,0s0.2,0,0.3,0.1v-1.3
		c-0.1,0-0.2,0-0.3,0c-0.1,0-0.2,0-0.3,0c-0.4,0-0.8,0.1-1.1,0.3c-0.3,0.2-0.6,0.5-0.7,0.9h-0.1v-1.1h-1.3v7.1h1.4V165.3z"/>
	<path d="M61,168.1c0.3-0.5,0.4-1.2,0.4-1.9c0-0.7-0.1-1.4-0.4-1.9s-0.7-1-1.2-1.3s-1.1-0.5-1.7-0.5c-0.7,0-1.2,0.2-1.7,0.5
		s-0.9,0.7-1.2,1.3s-0.4,1.2-0.4,1.9c0,0.7,0.1,1.4,0.4,1.9s0.7,1,1.2,1.3s1.1,0.5,1.7,0.5c0.7,0,1.2-0.2,1.7-0.5
		S60.7,168.6,61,168.1z M59.2,168.3c-0.3,0.2-0.6,0.3-1.1,0.3c-0.4,0-0.8-0.1-1.1-0.3c-0.3-0.2-0.5-0.5-0.6-0.9
		c-0.1-0.4-0.2-0.8-0.2-1.3c0-0.5,0.1-0.9,0.2-1.2c0.1-0.4,0.3-0.7,0.6-0.9c0.3-0.2,0.6-0.3,1.1-0.3c0.4,0,0.8,0.1,1.1,0.3
		c0.3,0.2,0.5,0.5,0.6,0.9c0.1,0.4,0.2,0.8,0.2,1.2c0,0.5-0.1,0.9-0.2,1.3C59.7,167.8,59.4,168.1,59.2,168.3z"/>
	<polygon points="69,162.6 67.5,162.6 65.7,168 65.6,168 63.9,162.6 62.4,162.6 64.9,169.7 66.4,169.7 	"/>
	<path d="M71,161.5c0.2,0,0.4-0.1,0.6-0.2s0.3-0.4,0.3-0.6c0-0.2-0.1-0.4-0.3-0.6s-0.4-0.2-0.6-0.2s-0.4,0.1-0.6,0.2
		s-0.3,0.4-0.3,0.6c0,0.2,0.1,0.4,0.3,0.6S70.7,161.5,71,161.5z"/>
	<rect x="70.3" y="162.6" width="1.4" height="7.1"/>
	<path d="M74.7,169.4c0.4,0.3,1,0.4,1.5,0.4c0.4,0,0.8-0.1,1.1-0.2c0.3-0.1,0.5-0.3,0.6-0.5c0.2-0.2,0.3-0.4,0.4-0.5h0.1v1.1h1.3
		v-9.5h-1.4v3.5h-0.1c-0.1-0.1-0.2-0.3-0.3-0.5c-0.1-0.2-0.4-0.4-0.6-0.5c-0.3-0.1-0.6-0.2-1.1-0.2c-0.6,0-1.1,0.1-1.5,0.4
		c-0.4,0.3-0.8,0.7-1.1,1.3c-0.3,0.5-0.4,1.2-0.4,2c0,0.8,0.1,1.4,0.4,2S74.2,169.1,74.7,169.4z M74.8,164.9
		c0.1-0.4,0.3-0.7,0.6-0.9c0.3-0.2,0.6-0.3,1-0.3c0.4,0,0.7,0.1,1,0.3c0.3,0.2,0.5,0.5,0.6,0.9c0.1,0.4,0.2,0.8,0.2,1.3
		c0,0.5-0.1,0.9-0.2,1.3s-0.4,0.7-0.6,0.9c-0.3,0.2-0.6,0.3-1,0.3c-0.4,0-0.8-0.1-1-0.3c-0.3-0.2-0.5-0.5-0.6-0.9s-0.2-0.8-0.2-1.3
		C74.6,165.7,74.7,165.2,74.8,164.9z"/>
	<path d="M87.1,168.9c0.3-0.3,0.5-0.6,0.6-1l-1.3-0.2c-0.1,0.2-0.2,0.4-0.4,0.6c-0.2,0.2-0.3,0.3-0.6,0.3c-0.2,0.1-0.5,0.1-0.7,0.1
		c-0.4,0-0.8-0.1-1.1-0.3c-0.3-0.2-0.5-0.4-0.7-0.8c-0.2-0.3-0.2-0.7-0.2-1.1h5v-0.5c0-0.6-0.1-1.2-0.3-1.6
		c-0.2-0.5-0.4-0.8-0.7-1.1c-0.3-0.3-0.6-0.5-1-0.6s-0.8-0.2-1.2-0.2c-0.7,0-1.2,0.2-1.7,0.5c-0.5,0.3-0.9,0.7-1.1,1.3
		c-0.3,0.6-0.4,1.2-0.4,1.9c0,0.7,0.1,1.4,0.4,1.9c0.3,0.5,0.7,1,1.2,1.3c0.5,0.3,1.1,0.5,1.8,0.5c0.5,0,1-0.1,1.4-0.2
		C86.5,169.4,86.8,169.2,87.1,168.9z M83,164.7c0.2-0.3,0.4-0.5,0.7-0.7c0.3-0.2,0.6-0.3,1-0.3c0.4,0,0.7,0.1,0.9,0.2
		s0.5,0.4,0.6,0.7c0.1,0.3,0.2,0.6,0.2,1h-3.7C82.8,165.2,82.8,164.9,83,164.7z"/>
	<rect x="40.2" y="175.8" width="1.4" height="9.5"/>
	<path d="M49.5,185.3v-4.5c0-0.6-0.1-1.1-0.3-1.5c-0.2-0.4-0.5-0.7-0.8-0.9c-0.4-0.2-0.8-0.3-1.3-0.3c-0.5,0-1,0.1-1.3,0.3
		c-0.3,0.2-0.6,0.5-0.8,0.9h-0.1v-1.2h-1.3v7.1H45v-4.2c0-0.4,0.1-0.7,0.2-1s0.3-0.5,0.6-0.6c0.2-0.1,0.5-0.2,0.9-0.2
		c0.5,0,0.8,0.1,1.1,0.4c0.3,0.3,0.4,0.7,0.4,1.2v4.3H49.5z"/>
	<polygon points="54.2,183.6 54.1,183.6 52.3,178.2 50.8,178.2 53.4,185.3 54.9,185.3 57.4,178.2 56,178.2 	"/>
	<path d="M63.9,178.9c-0.3-0.3-0.6-0.5-1-0.6s-0.8-0.2-1.2-0.2c-0.7,0-1.2,0.2-1.7,0.5c-0.5,0.3-0.9,0.7-1.1,1.3
		c-0.3,0.6-0.4,1.2-0.4,1.9c0,0.7,0.1,1.4,0.4,1.9c0.3,0.5,0.7,1,1.2,1.3c0.5,0.3,1.1,0.5,1.8,0.5c0.5,0,1-0.1,1.4-0.2
		c0.4-0.2,0.7-0.4,1-0.7c0.3-0.3,0.5-0.6,0.6-1l-1.3-0.2c-0.1,0.2-0.2,0.4-0.4,0.6c-0.2,0.2-0.3,0.3-0.6,0.3
		c-0.2,0.1-0.5,0.1-0.7,0.1c-0.4,0-0.8-0.1-1.1-0.3c-0.3-0.2-0.5-0.4-0.7-0.8c-0.2-0.3-0.2-0.7-0.2-1.1h5v-0.5
		c0-0.6-0.1-1.2-0.3-1.6C64.4,179.6,64.2,179.2,63.9,178.9z M59.8,181.1c0-0.3,0.1-0.6,0.2-0.9c0.2-0.3,0.4-0.5,0.7-0.7
		c0.3-0.2,0.6-0.3,1-0.3c0.4,0,0.7,0.1,0.9,0.2s0.5,0.4,0.6,0.7c0.1,0.3,0.2,0.6,0.2,1H59.8z"/>
	<path d="M66.6,179.1c-0.2,0.3-0.4,0.7-0.4,1.1c0,0.5,0.2,0.9,0.5,1.3c0.3,0.3,0.8,0.6,1.5,0.7l1.2,0.3c0.3,0.1,0.6,0.2,0.8,0.3
		s0.2,0.3,0.2,0.6c0,0.3-0.1,0.5-0.4,0.7c-0.3,0.2-0.6,0.3-1.1,0.3c-0.4,0-0.8-0.1-1-0.3c-0.3-0.2-0.4-0.4-0.5-0.8l-1.3,0.2
		c0.1,0.6,0.4,1.1,0.9,1.5c0.5,0.3,1.1,0.5,1.9,0.5c0.6,0,1.1-0.1,1.5-0.3c0.4-0.2,0.8-0.4,1-0.8c0.2-0.3,0.4-0.7,0.4-1.1
		c0-0.5-0.2-0.9-0.5-1.2c-0.3-0.3-0.8-0.5-1.5-0.7l-1.1-0.3c-0.4-0.1-0.7-0.2-0.8-0.4c-0.2-0.1-0.3-0.3-0.3-0.6
		c0-0.3,0.1-0.5,0.4-0.7c0.3-0.2,0.6-0.3,1-0.3c0.3,0,0.5,0,0.7,0.1s0.3,0.2,0.5,0.4c0.1,0.1,0.2,0.3,0.2,0.5l1.3-0.2
		c-0.1-0.6-0.4-1-0.9-1.3c-0.4-0.3-1-0.5-1.8-0.5c-0.5,0-1,0.1-1.4,0.3C67.2,178.5,66.8,178.8,66.6,179.1z"/>
	<path d="M74.9,185.2c0.3,0.1,0.7,0.2,1,0.2c0.2,0,0.4,0,0.6-0.1c0.1,0,0.3-0.1,0.3-0.1l-0.2-1.1c0,0-0.1,0-0.2,0
		c-0.1,0-0.2,0-0.3,0c-0.2,0-0.3,0-0.4-0.1c-0.1,0-0.2-0.1-0.3-0.3s-0.1-0.3-0.1-0.6v-3.9h1.5v-1.1h-1.5v-1.7h-1.4v1.7h-1v1.1h1v4.2
		c0,0.4,0.1,0.8,0.3,1.1S74.5,185,74.9,185.2z"/>
	<path d="M82.9,178.5c-0.5-0.3-1.1-0.5-1.7-0.5c-0.7,0-1.2,0.2-1.7,0.5s-0.9,0.7-1.2,1.3s-0.4,1.2-0.4,1.9c0,0.7,0.1,1.4,0.4,1.9
		s0.7,1,1.2,1.3s1.1,0.5,1.7,0.5c0.7,0,1.2-0.2,1.7-0.5s0.9-0.7,1.2-1.3s0.4-1.2,0.4-1.9c0-0.7-0.1-1.4-0.4-1.9
		S83.4,178.9,82.9,178.5z M82.9,183c-0.1,0.4-0.3,0.7-0.6,0.9c-0.3,0.2-0.6,0.3-1.1,0.3c-0.4,0-0.8-0.1-1.1-0.3
		c-0.3-0.2-0.5-0.5-0.6-0.9c-0.1-0.4-0.2-0.8-0.2-1.3c0-0.5,0.1-0.9,0.2-1.2c0.1-0.4,0.3-0.7,0.6-0.9c0.3-0.2,0.6-0.3,1.1-0.3
		c0.4,0,0.8,0.1,1.1,0.3c0.3,0.2,0.5,0.5,0.6,0.9c0.1,0.4,0.2,0.8,0.2,1.2C83.1,182.2,83,182.6,82.9,183z"/>
	<path d="M89.5,178.1c-0.1,0-0.2,0-0.3,0c-0.4,0-0.8,0.1-1.1,0.3c-0.3,0.2-0.6,0.5-0.7,0.9h-0.1v-1.1H86v7.1h1.4v-4.3
		c0-0.3,0.1-0.6,0.2-0.8c0.1-0.2,0.3-0.4,0.6-0.6c0.3-0.1,0.5-0.2,0.9-0.2c0.1,0,0.3,0,0.4,0s0.2,0,0.3,0.1v-1.3
		C89.7,178.1,89.6,178.1,89.5,178.1z"/>
	<path d="M51.6,193c0.4-0.3,0.9-0.4,1.5-0.4c0.3,0,0.6,0,0.9,0.1s0.5,0.2,0.7,0.4c0.2,0.2,0.4,0.4,0.6,0.6s0.3,0.5,0.3,0.8h1.4
		c-0.1-0.5-0.2-1-0.5-1.4c-0.2-0.4-0.5-0.7-0.9-1s-0.7-0.5-1.2-0.6s-0.9-0.2-1.4-0.2c-0.8,0-1.5,0.2-2.2,0.6
		c-0.6,0.4-1.1,0.9-1.5,1.7c-0.4,0.7-0.6,1.6-0.6,2.6c0,1,0.2,1.9,0.6,2.6c0.4,0.7,0.9,1.3,1.5,1.7c0.6,0.4,1.4,0.6,2.2,0.6
		c0.5,0,1-0.1,1.4-0.2c0.4-0.2,0.8-0.4,1.2-0.7s0.6-0.6,0.8-1c0.2-0.4,0.4-0.8,0.4-1.3l-1.4,0c-0.1,0.3-0.2,0.6-0.3,0.8
		c-0.2,0.2-0.3,0.4-0.6,0.6c-0.2,0.2-0.5,0.3-0.7,0.4c-0.3,0.1-0.6,0.1-0.9,0.1c-0.5,0-1-0.1-1.5-0.4c-0.4-0.3-0.8-0.7-1-1.2
		c-0.2-0.5-0.4-1.2-0.4-1.9c0-0.8,0.1-1.4,0.4-1.9C50.8,193.7,51.1,193.3,51.6,193z"/>
	<path d="M63.3,194.1c-0.5-0.3-1.1-0.5-1.7-0.5c-0.7,0-1.2,0.2-1.7,0.5s-0.9,0.7-1.2,1.3s-0.4,1.2-0.4,1.9c0,0.7,0.1,1.4,0.4,1.9
		s0.7,1,1.2,1.3s1.1,0.5,1.7,0.5c0.7,0,1.2-0.2,1.7-0.5s0.9-0.7,1.2-1.3s0.4-1.2,0.4-1.9c0-0.7-0.1-1.4-0.4-1.9
		S63.7,194.5,63.3,194.1z M63.2,198.6c-0.1,0.4-0.3,0.7-0.6,0.9c-0.3,0.2-0.6,0.3-1.1,0.3c-0.4,0-0.8-0.1-1.1-0.3
		c-0.3-0.2-0.5-0.5-0.6-0.9c-0.1-0.4-0.2-0.8-0.2-1.3c0-0.5,0.1-0.9,0.2-1.2c0.1-0.4,0.3-0.7,0.6-0.9c0.3-0.2,0.6-0.3,1.1-0.3
		c0.4,0,0.8,0.1,1.1,0.3c0.3,0.2,0.5,0.5,0.6,0.9c0.1,0.4,0.2,0.8,0.2,1.2C63.4,197.8,63.4,198.2,63.2,198.6z"/>
	<path d="M71.1,194.9L71.1,194.9c-0.2-0.1-0.3-0.3-0.4-0.5c-0.1-0.2-0.4-0.4-0.6-0.5c-0.3-0.1-0.6-0.2-1.1-0.2
		c-0.6,0-1.1,0.1-1.5,0.4c-0.4,0.3-0.8,0.7-1.1,1.3c-0.3,0.5-0.4,1.2-0.4,2c0,0.8,0.1,1.4,0.4,2s0.6,1,1.1,1.3
		c0.4,0.3,1,0.4,1.5,0.4c0.4,0,0.8-0.1,1.1-0.2c0.3-0.1,0.5-0.3,0.6-0.5c0.2-0.2,0.3-0.4,0.4-0.5h0.1v1.1h1.3v-9.5h-1.4V194.9z
		 M71,198.6c-0.1,0.4-0.4,0.7-0.6,0.9c-0.3,0.2-0.6,0.3-1,0.3c-0.4,0-0.8-0.1-1-0.3c-0.3-0.2-0.5-0.5-0.6-0.9s-0.2-0.8-0.2-1.3
		c0-0.5,0.1-0.9,0.2-1.3s0.3-0.7,0.6-0.9c0.3-0.2,0.6-0.3,1-0.3c0.4,0,0.7,0.1,1,0.3c0.3,0.2,0.5,0.5,0.6,0.9
		c0.1,0.4,0.2,0.8,0.2,1.3C71.2,197.8,71.1,198.3,71,198.6z"/>
	<path d="M79.6,194.5c-0.3-0.3-0.6-0.5-1-0.6s-0.8-0.2-1.2-0.2c-0.7,0-1.2,0.2-1.7,0.5c-0.5,0.3-0.9,0.7-1.1,1.3
		c-0.3,0.6-0.4,1.2-0.4,1.9c0,0.7,0.1,1.4,0.4,1.9c0.3,0.5,0.7,1,1.2,1.3c0.5,0.3,1.1,0.5,1.8,0.5c0.5,0,1-0.1,1.4-0.2
		c0.4-0.2,0.7-0.4,1-0.7c0.3-0.3,0.5-0.6,0.6-1l-1.3-0.2c-0.1,0.2-0.2,0.4-0.4,0.6c-0.2,0.2-0.3,0.3-0.6,0.3
		c-0.2,0.1-0.5,0.1-0.7,0.1c-0.4,0-0.8-0.1-1.1-0.3c-0.3-0.2-0.5-0.4-0.7-0.8c-0.2-0.3-0.2-0.7-0.2-1.1h5v-0.5
		c0-0.6-0.1-1.2-0.3-1.6C80.2,195.2,79.9,194.8,79.6,194.5z M75.6,196.7c0-0.3,0.1-0.6,0.2-0.9c0.2-0.3,0.4-0.5,0.7-0.7
		c0.3-0.2,0.6-0.3,1-0.3c0.4,0,0.7,0.1,0.9,0.2s0.5,0.4,0.6,0.7c0.1,0.3,0.2,0.6,0.2,1H75.6z"/>
</g>
<g>
	<path d="M47.3,286.6c-0.5-0.3-1.1-0.4-1.8-0.4h-3.4v9.5h1.4v-3.3h1.9c0.7,0,1.3-0.1,1.8-0.4c0.5-0.3,0.8-0.6,1.1-1.1
		c0.2-0.5,0.4-1,0.4-1.6c0-0.6-0.1-1.1-0.4-1.6C48.1,287.3,47.8,286.9,47.3,286.6z M47.1,290.2c-0.1,0.3-0.3,0.5-0.6,0.7
		c-0.3,0.2-0.7,0.2-1.1,0.2h-1.8v-3.7h1.8c0.5,0,0.9,0.1,1.1,0.2c0.3,0.2,0.5,0.4,0.6,0.7s0.2,0.6,0.2,1
		C47.3,289.6,47.2,290,47.1,290.2z"/>
	<path d="M51.7,291.4c0-0.3,0.1-0.6,0.2-0.8c0.1-0.2,0.3-0.4,0.6-0.6c0.3-0.1,0.5-0.2,0.9-0.2c0.1,0,0.3,0,0.4,0s0.2,0,0.3,0.1v-1.3
		c-0.1,0-0.2,0-0.3,0c-0.1,0-0.2,0-0.3,0c-0.4,0-0.8,0.1-1.1,0.3c-0.3,0.2-0.6,0.5-0.7,0.9h-0.1v-1.1h-1.3v7.1h1.4V291.4z"/>
	<path d="M61.1,294.1c0.3-0.5,0.4-1.2,0.4-1.9c0-0.7-0.1-1.4-0.4-1.9s-0.7-1-1.2-1.3s-1.1-0.5-1.7-0.5c-0.7,0-1.2,0.2-1.7,0.5
		s-0.9,0.7-1.2,1.3s-0.4,1.2-0.4,1.9c0,0.7,0.1,1.4,0.4,1.9s0.7,1,1.2,1.3s1.1,0.5,1.7,0.5c0.7,0,1.2-0.2,1.7-0.5
		S60.9,294.6,61.1,294.1z M60,293.4c-0.1,0.4-0.3,0.7-0.6,0.9c-0.3,0.2-0.6,0.3-1.1,0.3c-0.4,0-0.8-0.1-1.1-0.3
		c-0.3-0.2-0.5-0.5-0.6-0.9c-0.1-0.4-0.2-0.8-0.2-1.3c0-0.5,0.1-0.9,0.2-1.2c0.1-0.4,0.3-0.7,0.6-0.9c0.3-0.2,0.6-0.3,1.1-0.3
		c0.4,0,0.8,0.1,1.1,0.3c0.3,0.2,0.5,0.5,0.6,0.9c0.1,0.4,0.2,0.8,0.2,1.2C60.2,292.6,60.1,293,60,293.4z"/>
	<polygon points="67.7,288.6 65.9,294 65.8,294 64,288.6 62.5,288.6 65.1,295.7 66.6,295.7 69.2,288.6 	"/>
	<path d="M71.2,285.9c-0.2,0-0.4,0.1-0.6,0.2s-0.3,0.4-0.3,0.6c0,0.2,0.1,0.4,0.3,0.6s0.4,0.2,0.6,0.2s0.4-0.1,0.6-0.2
		s0.3-0.4,0.3-0.6c0-0.2-0.1-0.4-0.3-0.6S71.4,285.9,71.2,285.9z"/>
	<rect x="70.5" y="288.6" width="1.4" height="7.1"/>
	<path d="M78.5,289.7L78.5,289.7c-0.2-0.1-0.3-0.3-0.4-0.5c-0.1-0.2-0.4-0.4-0.6-0.5c-0.3-0.1-0.6-0.2-1.1-0.2
		c-0.6,0-1.1,0.1-1.5,0.4c-0.4,0.3-0.8,0.7-1.1,1.3c-0.3,0.5-0.4,1.2-0.4,2c0,0.8,0.1,1.4,0.4,2s0.6,1,1.1,1.3
		c0.4,0.3,1,0.4,1.5,0.4c0.4,0,0.8-0.1,1.1-0.2c0.3-0.1,0.5-0.3,0.6-0.5c0.2-0.2,0.3-0.4,0.4-0.5h0.1v1.1h1.3v-9.5h-1.4V289.7z
		 M78.3,293.4c-0.1,0.4-0.4,0.7-0.6,0.9c-0.3,0.2-0.6,0.3-1,0.3c-0.4,0-0.8-0.1-1-0.3c-0.3-0.2-0.5-0.5-0.6-0.9s-0.2-0.8-0.2-1.3
		c0-0.5,0.1-0.9,0.2-1.3s0.3-0.7,0.6-0.9c0.3-0.2,0.6-0.3,1-0.3c0.4,0,0.7,0.1,1,0.3c0.3,0.2,0.5,0.5,0.6,0.9
		c0.1,0.4,0.2,0.8,0.2,1.3C78.5,292.6,78.4,293.1,78.3,293.4z"/>
	<path d="M87.9,292.1c0-0.6-0.1-1.2-0.3-1.6c-0.2-0.5-0.4-0.8-0.7-1.1c-0.3-0.3-0.6-0.5-1-0.6s-0.8-0.2-1.2-0.2
		c-0.7,0-1.2,0.2-1.7,0.5c-0.5,0.3-0.9,0.7-1.1,1.3c-0.3,0.6-0.4,1.2-0.4,1.9c0,0.7,0.1,1.4,0.4,1.9c0.3,0.5,0.7,1,1.2,1.3
		c0.5,0.3,1.1,0.5,1.8,0.5c0.5,0,1-0.1,1.4-0.2c0.4-0.2,0.7-0.4,1-0.7c0.3-0.3,0.5-0.6,0.6-1l-1.3-0.2c-0.1,0.2-0.2,0.4-0.4,0.6
		c-0.2,0.2-0.3,0.3-0.6,0.3c-0.2,0.1-0.5,0.1-0.7,0.1c-0.4,0-0.8-0.1-1.1-0.3c-0.3-0.2-0.5-0.4-0.7-0.8c-0.2-0.3-0.2-0.7-0.2-1.1h5
		V292.1z M82.9,291.5c0-0.3,0.1-0.6,0.2-0.9c0.2-0.3,0.4-0.5,0.7-0.7c0.3-0.2,0.6-0.3,1-0.3c0.4,0,0.7,0.1,0.9,0.2s0.5,0.4,0.6,0.7
		c0.1,0.3,0.2,0.6,0.2,1H82.9z"/>
	<path d="M56.7,302.4c-0.7-0.4-1.5-0.6-2.4-0.6h-3.2v9.5h3.1c1,0,1.8-0.2,2.5-0.6c0.7-0.4,1.2-0.9,1.6-1.6c0.4-0.7,0.5-1.6,0.5-2.5
		c0-1-0.2-1.8-0.5-2.5S57.4,302.8,56.7,302.4z M57,308.4c-0.2,0.5-0.6,0.9-1.1,1.2c-0.5,0.3-1.1,0.4-1.8,0.4h-1.6v-7h1.6
		c0.7,0,1.3,0.1,1.7,0.4c0.5,0.3,0.8,0.7,1.1,1.2s0.4,1.1,0.4,1.9C57.4,307.3,57.3,307.9,57,308.4z"/>
	<path d="M65.1,304.6c-0.3-0.2-0.6-0.3-0.9-0.4c-0.3-0.1-0.6-0.1-0.9-0.1c-0.4,0-0.8,0.1-1.2,0.2s-0.7,0.3-1,0.6
		c-0.3,0.3-0.5,0.6-0.7,1l1.3,0.3c0.1-0.2,0.3-0.5,0.6-0.7c0.3-0.2,0.6-0.3,1.1-0.3c0.4,0,0.8,0.1,1,0.3c0.2,0.2,0.3,0.5,0.3,0.9v0
		c0,0.2-0.1,0.3-0.2,0.4c-0.1,0.1-0.3,0.1-0.6,0.2c-0.3,0-0.6,0.1-1,0.1c-0.3,0-0.7,0.1-1,0.2c-0.3,0.1-0.6,0.2-0.9,0.3
		c-0.3,0.2-0.5,0.4-0.6,0.6c-0.2,0.3-0.2,0.6-0.2,1c0,0.5,0.1,0.9,0.3,1.2c0.2,0.3,0.5,0.6,0.9,0.7c0.4,0.2,0.8,0.3,1.2,0.3
		c0.4,0,0.7-0.1,1-0.2c0.3-0.1,0.5-0.3,0.7-0.4c0.2-0.2,0.3-0.3,0.4-0.5h0.1v1H66v-4.7c0-0.5-0.1-0.9-0.3-1.3
		C65.6,305,65.4,304.7,65.1,304.6z M64.7,308.7c0,0.3-0.1,0.5-0.2,0.8c-0.1,0.2-0.4,0.4-0.6,0.6c-0.3,0.2-0.6,0.2-1,0.2
		c-0.4,0-0.7-0.1-1-0.3s-0.4-0.4-0.4-0.8c0-0.2,0.1-0.4,0.2-0.6c0.1-0.1,0.3-0.3,0.5-0.3c0.2-0.1,0.5-0.1,0.7-0.2
		c0.1,0,0.3,0,0.4-0.1c0.2,0,0.3,0,0.5-0.1c0.2,0,0.3-0.1,0.5-0.1c0.1,0,0.2-0.1,0.3-0.1V308.7z"/>
	<path d="M70.9,310.1c-0.1,0-0.2,0-0.3,0c-0.2,0-0.3,0-0.4-0.1c-0.1,0-0.2-0.1-0.3-0.3s-0.1-0.3-0.1-0.6v-3.9h1.5v-1.1h-1.5v-1.7
		h-1.4v1.7h-1v1.1h1v4.2c0,0.4,0.1,0.8,0.3,1.1s0.4,0.5,0.8,0.6s0.7,0.2,1,0.2c0.2,0,0.4,0,0.6-0.1c0.1,0,0.3-0.1,0.3-0.1l-0.2-1.1
		C71,310.1,70.9,310.1,70.9,310.1z"/>
	<path d="M77.8,304.9c-0.3-0.3-0.6-0.5-1-0.6s-0.8-0.2-1.2-0.2c-0.7,0-1.2,0.2-1.7,0.5c-0.5,0.3-0.9,0.7-1.1,1.3
		c-0.3,0.6-0.4,1.2-0.4,1.9c0,0.7,0.1,1.4,0.4,1.9c0.3,0.5,0.7,1,1.2,1.3c0.5,0.3,1.1,0.5,1.8,0.5c0.5,0,1-0.1,1.4-0.2
		c0.4-0.2,0.7-0.4,1-0.7c0.3-0.3,0.5-0.6,0.6-1l-1.3-0.2c-0.1,0.2-0.2,0.4-0.4,0.6c-0.2,0.2-0.3,0.3-0.6,0.3
		c-0.2,0.1-0.5,0.1-0.7,0.1c-0.4,0-0.8-0.1-1.1-0.3c-0.3-0.2-0.5-0.4-0.7-0.8c-0.2-0.3-0.2-0.7-0.2-1.1h5v-0.5
		c0-0.6-0.1-1.2-0.3-1.6C78.4,305.6,78.1,305.2,77.8,304.9z M73.8,307.1c0-0.3,0.1-0.6,0.2-0.9c0.2-0.3,0.4-0.5,0.7-0.7
		c0.3-0.2,0.6-0.3,1-0.3c0.4,0,0.7,0.1,0.9,0.2s0.5,0.4,0.6,0.7c0.1,0.3,0.2,0.6,0.2,1H73.8z"/>
</g>
<g>
	<path d="M46,415.3c-0.5-0.3-1.1-0.4-1.8-0.4h-3.4v9.5h1.4V421h1.9c0.7,0,1.3-0.1,1.8-0.4c0.5-0.3,0.8-0.6,1.1-1.1
		c0.2-0.5,0.4-1,0.4-1.6c0-0.6-0.1-1.1-0.4-1.6C46.8,415.9,46.4,415.6,46,415.3z M45.8,418.9c-0.1,0.3-0.3,0.5-0.6,0.7
		c-0.3,0.2-0.7,0.2-1.1,0.2h-1.8v-3.7H44c0.5,0,0.9,0.1,1.1,0.2c0.3,0.2,0.5,0.4,0.6,0.7s0.2,0.6,0.2,1
		C46,418.3,45.9,418.6,45.8,418.9z"/>
	<path d="M52.2,417.2c-0.4,0-0.8,0.1-1.1,0.3c-0.3,0.2-0.6,0.5-0.7,0.9h-0.1v-1.1H49v7.1h1.4V420c0-0.3,0.1-0.6,0.2-0.8
		c0.1-0.2,0.3-0.4,0.6-0.6c0.3-0.1,0.5-0.2,0.9-0.2c0.1,0,0.3,0,0.4,0s0.2,0,0.3,0.1v-1.3c-0.1,0-0.2,0-0.3,0
		C52.4,417.2,52.3,417.2,52.2,417.2z"/>
	<path d="M59.1,418c-0.3-0.3-0.6-0.5-1-0.6s-0.8-0.2-1.2-0.2c-0.7,0-1.2,0.2-1.7,0.5c-0.5,0.3-0.9,0.7-1.1,1.3
		c-0.3,0.6-0.4,1.2-0.4,1.9c0,0.7,0.1,1.4,0.4,1.9c0.3,0.5,0.7,1,1.2,1.3c0.5,0.3,1.1,0.5,1.8,0.5c0.5,0,1-0.1,1.4-0.2
		c0.4-0.2,0.7-0.4,1-0.7c0.3-0.3,0.5-0.6,0.6-1l-1.3-0.2c-0.1,0.2-0.2,0.4-0.4,0.6c-0.2,0.2-0.3,0.3-0.6,0.3
		c-0.2,0.1-0.5,0.1-0.7,0.1c-0.4,0-0.8-0.1-1.1-0.3c-0.3-0.2-0.5-0.4-0.7-0.8c-0.2-0.3-0.2-0.7-0.2-1.1h5v-0.5
		c0-0.6-0.1-1.2-0.3-1.6C59.6,418.7,59.4,418.3,59.1,418z M55,420.2c0-0.3,0.1-0.6,0.2-0.9c0.2-0.3,0.4-0.5,0.7-0.7
		c0.3-0.2,0.6-0.3,1-0.3c0.4,0,0.7,0.1,0.9,0.2s0.5,0.4,0.6,0.7c0.1,0.3,0.2,0.6,0.2,1H55z"/>
	<polygon points="64.4,422.7 64.3,422.7 62.5,417.3 61,417.3 63.6,424.4 65.1,424.4 67.7,417.3 66.2,417.3 	"/>
	<path d="M69.6,414.5c-0.2,0-0.4,0.1-0.6,0.2s-0.3,0.4-0.3,0.6c0,0.2,0.1,0.4,0.3,0.6s0.4,0.2,0.6,0.2s0.4-0.1,0.6-0.2
		s0.3-0.4,0.3-0.6c0-0.2-0.1-0.4-0.3-0.6S69.9,414.5,69.6,414.5z"/>
	<rect x="69" y="417.3" width="1.4" height="7.1"/>
	<path d="M77.3,418c-0.3-0.3-0.6-0.5-1-0.6s-0.8-0.2-1.2-0.2c-0.7,0-1.2,0.2-1.7,0.5c-0.5,0.3-0.9,0.7-1.1,1.3
		c-0.3,0.6-0.4,1.2-0.4,1.9c0,0.7,0.1,1.4,0.4,1.9c0.3,0.5,0.7,1,1.2,1.3c0.5,0.3,1.1,0.5,1.8,0.5c0.5,0,1-0.1,1.4-0.2
		c0.4-0.2,0.7-0.4,1-0.7c0.3-0.3,0.5-0.6,0.6-1l-1.3-0.2c-0.1,0.2-0.2,0.4-0.4,0.6c-0.2,0.2-0.3,0.3-0.6,0.3
		c-0.2,0.1-0.5,0.1-0.7,0.1c-0.4,0-0.8-0.1-1.1-0.3c-0.3-0.2-0.5-0.4-0.7-0.8c-0.2-0.3-0.2-0.7-0.2-1.1h5v-0.5
		c0-0.6-0.1-1.2-0.3-1.6C77.9,418.7,77.6,418.3,77.3,418z M73.3,420.2c0-0.3,0.1-0.6,0.2-0.9c0.2-0.3,0.4-0.5,0.7-0.7
		c0.3-0.2,0.6-0.3,1-0.3c0.4,0,0.7,0.1,0.9,0.2s0.5,0.4,0.6,0.7c0.1,0.3,0.2,0.6,0.2,1H73.3z"/>
	<polygon points="87.8,417.3 86.4,422.5 86.4,422.5 85,417.3 83.6,417.3 82.2,422.5 82.1,422.5 80.7,417.3 79.3,417.3 81.4,424.4 
		82.8,424.4 84.2,419.2 84.3,419.2 85.8,424.4 87.2,424.4 89.2,417.3 	"/>
</g>
</svg>
