<?xml version="1.0" encoding="utf-8"?>
<!-- Generator: Adobe Illustrator 26.0.1, SVG Export Plug-In . SVG Version: 6.00 Build 0)  -->
<svg version="1.0" id="Layer_1" xmlns="http://www.w3.org/2000/svg" xmlns:xlink="http://www.w3.org/1999/xlink" x="0px" y="0px"
	 viewBox="0 0 235.9 491.1" style="enable-background:new 0 0 235.9 491.1;" xml:space="preserve">
<style type="text/css">
	.st0{fill:#231F20;}
	.st1{fill:#FFFFFF;}
	.st2{fill:#F68832;}
	.st3{fill:#078241;}
	.st4{fill:#115D33;}
	.st5{fill:#0E4525;}
	.st6{fill:#186A60;}
	.st7{fill:#8F9393;}
	.st8{fill:#F6852B;}
	.st9{fill:#A33123;}
	.st10{fill:#B8342A;}
	.st11{fill:none;}
	.st12{fill:#669A9D;}
	.st13{fill:#F3D1B6;}
	.st14{fill:#E1C1A9;}
	.st15{fill:#C1DAEA;}
	.st16{fill:#8CD0DE;}
	.st17{fill:#E4E4E4;}
	.st18{fill:#FED8B7;}
	.st19{fill:#8D643D;}
	.st20{fill:#F2CFB5;}
	.st21{fill:#A2C1E6;}
	.st22{fill:#16695F;}
	.st23{fill:#4A4E5A;}
	.st24{fill:#F5EB10;}
	.st25{fill:#4FB862;}
	.st26{fill:#FBED1D;}
	.st27{fill:#FFFCFD;}
	.st28{fill:none;stroke:#FFFCFD;stroke-width:0.2565;stroke-linecap:round;stroke-miterlimit:10;}
	.st29{fill:#52A8DC;stroke:#FFFFFF;stroke-width:0.1539;stroke-miterlimit:10;}
	.st30{fill:#58B968;stroke:#FFFFFF;stroke-width:0.1539;stroke-miterlimit:10;}
	.st31{fill:#5859A6;}
	.st32{fill:#F16A39;}
	.st33{fill:#221F1F;}
	.st34{fill:#676868;}
	.st35{fill:#424345;}
	.st36{fill:#5CB948;}
	.st37{fill:#1B9282;}
	.st38{opacity:0.9;fill:#15534A;}
	.st39{fill:#3292D0;}
	.st40{fill:#21A64A;}
	.st41{opacity:0.9;fill:#104139;}
	.st42{fill:#4CB756;}
	.st43{fill:#105049;}
	.st44{fill:#7A6CAF;}
	.st45{fill:#E9262A;}
	.st46{fill:#F59526;}
	.st47{fill:#F7F8F9;}
	.st48{fill:#BEBDBF;}
	.st49{fill:#EDECED;}
	.st50{fill:none;stroke:#CFD1D2;stroke-width:0.1874;stroke-miterlimit:10;}
	.st51{fill:#328BCB;}
</style>
<path class="st4" d="M203.6,484.3H32.3c-14.1,0-25.6-11.4-25.6-25.6V32.4c0-14.1,11.4-25.6,25.6-25.6h171.3
	c14.1,0,25.6,11.4,25.6,25.6v426.3C229.2,472.8,217.7,484.3,203.6,484.3z"/>
<g>
	<path class="st4" d="M203.4,1.6c17,0,30.9,13.9,30.9,31.1v425.7c0,17.1-13.9,31.1-30.9,31.1H32.5c-17,0-30.9-13.9-30.9-31.1V32.7
		c0-17.1,13.9-31.1,30.9-31.1H203.4 M203.4,0H32.5C14.6,0,0,14.7,0,32.7v425.7c0,18,14.6,32.7,32.5,32.7h170.9
		c17.9,0,32.5-14.7,32.5-32.7V32.7C235.9,14.7,221.3,0,203.4,0L203.4,0z"/>
</g>
<g>
	<rect x="6.7" y="32.5" class="st5" width="222.4" height="24.5"/>
</g>
<g>
	<rect x="6.7" y="57" class="st6" width="222.4" height="37.9"/>
</g>
<g>
	<g>
		<g id="XMLID_00000151504254733291610880000002823311317241441458_">
			<g id="XMLID_00000173868961388025140010000017036191675428848556_">
				<path class="st7" d="M27.8,83.3h4.3c1.6,0,2.7-0.4,3.1-1.1c0.1-0.1,0.1-0.2,0.2-0.3l-3.9-1.3L27.8,83.3z"/>
			</g>
			<g id="XMLID_00000138555234906914349490000005478220919834174082_">
				<path class="st7" d="M30.4,80.6H30v-2.2h1.5c0.5,0,0.8,0.1,1,0.4c0.2,0.2,0.3,0.5,0.3,0.8s-0.1,0.5-0.3,0.8l0,0l3.2,1
					c0.2-0.5,0.3-1,0.3-1.5c0-1.5-0.7-2.5-2.1-2.9c0.6-0.2,1-0.5,1.4-1c0.3-0.5,0.5-1,0.5-1.7c0-0.8-0.3-1.6-0.8-2.2
					c-0.5-0.7-1.3-1-2.5-1H27v12.3l0.4-0.6L30.4,80.6z M30.1,73.6h1.5c0.7,0,1.1,0.3,1.1,1c0,0.3-0.1,0.5-0.2,0.7
					c-0.2,0.2-0.4,0.3-0.8,0.3h-1.5v-2H30.1z"/>
			</g>
			<g id="XMLID_00000040556770497578666160000015913144066737020081_">
				<path class="st7" d="M41.8,77.1c0.2,0,0.4,0,0.6,0.1V74c-0.2,0-0.3,0-0.5,0c-1.1,0-1.8,0.7-2.1,2.1v-1.9h-2.6v6.5l3-2
					C40.4,77.6,40.9,77.1,41.8,77.1z"/>
			</g>
			<g id="XMLID_00000106107114002692798220000013343107825883883935_">
				<polygon class="st7" points="37.3,83.3 40.3,83.3 40.3,79.6 37.3,81.5 				"/>
			</g>
			<g id="XMLID_00000176016395445293749460000004586351012372759210_">
				<path class="st8" d="M48.4,78.3c0,0.1,0,0.2,0,0.4c0,0.6-0.1,1.2-0.2,1.8c-0.1,0.6-0.4,0.9-0.9,0.9c-0.3,0-0.6-0.2-0.8-0.5
					c-0.1-0.3-0.2-0.8-0.3-1.6l-0.5,0.2l-2.8-1.6c0,0.3-0.1,0.6-0.1,0.9c0,1.3,0.4,2.4,1.2,3.3c0.8,0.9,1.8,1.4,3.2,1.4
					c1.3,0,2.4-0.5,3.2-1.4c0.8-0.9,1.2-2.1,1.2-3.4c0-0.5-0.1-1.1-0.2-1.5L51.2,77L48.4,78.3z"/>
			</g>
			<g id="XMLID_00000019657517067380590240000005916062540126778796_">
				<path class="st8" d="M46.3,78.4c0-0.7,0.1-1.3,0.2-1.6c0.2-0.4,0.4-0.6,0.8-0.6s0.7,0.2,0.8,0.6c0.1,0.2,0.1,0.4,0.2,0.7
					l2.8-1.2c-0.2-0.3-0.4-0.7-0.6-0.9c-0.8-0.9-1.9-1.3-3.2-1.3c-1.3,0-2.4,0.5-3.2,1.4c-0.5,0.5-0.8,1.1-1,1.8l2.6,1.5L46.3,78.4z
					"/>
			</g>
			<g id="XMLID_00000003062794719769837340000002947532793429580689_">
				<polygon class="st3" points="53,78.4 53,83.3 55.9,83.3 55.9,80.8 56.8,79.6 58.3,83.3 61.5,83.3 58.8,77.3 59,77.1 54.3,79.7 
									"/>
			</g>
			<g id="XMLID_00000152225936452328052700000008926642580165360305_">
				<path class="st3" d="M59.6,76l0.2,0.1l1.5-1.9h-2.8l-2,2.6c-0.2,0.3-0.4,0.5-0.6,0.8c0-1,0-1.5,0-1.7v-5H53v6.5l1.4,1.3L59.6,76
					z"/>
			</g>
			<g id="XMLID_00000018230253328017336370000013457819953451800739_">
				<path class="st7" d="M76.2,74c-1.1,0-1.8,0.7-2.1,2.1v-1.9h-2.6v9.1h3v-4.2c0-1.3,0.5-2,1.6-2c0.2,0,0.4,0,0.6,0.1V74
					C76.4,74,76.3,74,76.2,74z"/>
			</g>
			<g>
				<g>
					<path class="st7" d="M67.1,77.6h-1.9l-1.5,1l-2-0.9c-0.1,0.4-0.1,0.7-0.1,1.1c0,1.3,0.4,2.4,1.2,3.3c0.8,0.9,1.9,1.3,3.2,1.3
						c1.2,0,2.2-0.3,2.9-0.9c0.7-0.6,1.2-1.4,1.3-2.3L67.3,80c-0.1,0.7-0.5,1.1-1.2,1.1c-0.5,0-0.8-0.1-1-0.4s-0.3-0.7-0.3-1.3h5.4
						c0-0.2,0-0.4,0-0.5c0-1.5-0.4-2.7-1.2-3.6l-0.1-0.1l-2.1,1.4C67,76.8,67.1,77.1,67.1,77.6z"/>
				</g>
				<g>
					<path class="st7" d="M62.8,75.4c-0.4,0.5-0.7,1-0.9,1.6l1.8,0.8l1.3-0.9c0.1-0.6,0.5-0.9,1-0.9c0.1,0,0.2,0,0.3,0l2.2-1.4
						c-0.7-0.5-1.5-0.7-2.4-0.7C64.6,73.9,63.6,74.4,62.8,75.4z"/>
				</g>
				<g>
					<path class="st7" d="M76,71.5l2.3-3l-3.6,0.8l0.5,0.8l-6.8,4.5c0.2,0.1,0.4,0.3,0.6,0.5l6.6-4.4L76,71.5z"/>
				</g>
			</g>
			<g id="XMLID_00000035499608246903996380000005533865045078424231_">
				<g id="XMLID_00000138571161899901299330000002377327729081987511_">
					<path class="st1" d="M23.6,83.3c-0.4,0.1-0.8,0.1-1.1,0.1c-0.4,0-0.7,0-1-0.2c-0.3-0.1-0.5-0.4-0.7-0.7
						c-0.2-0.4-0.3-0.9-0.3-1.5l0.1-3.5c0-0.5-0.1-0.9-0.2-1.1c-0.2-0.2-0.5-0.2-0.9-0.1l1.5-3.1c0.4-0.1,0.8-0.1,1.1-0.1
						c0.4,0,0.7,0,1,0.2c0.3,0.1,0.5,0.4,0.7,0.8s0.3,0.9,0.2,1.6l-0.1,3.5c0,0.5,0.1,0.9,0.2,1.1c0.2,0.2,0.5,0.2,0.9,0.1
						L23.6,83.3z M24.4,70c0.1,0.3,0,0.5,0,0.8c-0.1,0.2-0.2,0.5-0.3,0.6c-0.2,0.2-0.4,0.4-0.6,0.5s-0.5,0.2-0.7,0.3
						c-0.2,0.1-0.5,0.1-0.8,0c-0.3,0-0.5-0.1-0.7-0.2s-0.4-0.3-0.6-0.5s-0.3-0.4-0.3-0.7c-0.1-0.3,0-0.5,0-0.8
						c0.1-0.2,0.2-0.4,0.4-0.6c0.2-0.2,0.4-0.3,0.6-0.5c0.2-0.1,0.5-0.2,0.7-0.3c0.2-0.1,0.5-0.1,0.8,0c0.3,0,0.5,0.1,0.7,0.2
						s0.4,0.3,0.6,0.4C24.3,69.5,24.4,69.7,24.4,70z"/>
				</g>
			</g>
		</g>
	</g>
</g>
<g>
	<g>
		<g>
			<rect x="208.3" y="72.5" class="st1" width="6.2" height="1.2"/>
		</g>
		<g>
			<rect x="208.3" y="75.4" class="st1" width="6.2" height="1.2"/>
		</g>
		<g>
			<rect x="208.3" y="78.3" class="st1" width="6.2" height="1.2"/>
		</g>
	</g>
	<g>
		<polygon class="st1" points="206.3,73.6 207.6,73.6 205.9,71.9 204.2,73.6 205.5,73.6 205.5,78.5 204.2,78.5 205.9,80.2 
			207.6,78.5 206.3,78.5 		"/>
	</g>
</g>
<g>
	<g>
		<g>
			<ellipse class="st9" cx="178.8" cy="76" rx="9.1" ry="9.1"/>
		</g>
		<g>
			<path class="st10" d="M178.8,85.1c-5,0-9.1-4.1-9.1-9.1s4.1-9.1,9.1-9.1V85.1z"/>
		</g>
	</g>
	<g>
		<g>
			<g>
				<path class="st13" d="M177.3,78.4l-0.5,1.3l3.8,0.3l-0.5-1.4C178.8,79.4,177.8,78.8,177.3,78.4z"/>
			</g>
			<g>
				<path class="st14" d="M180.2,78.6l-0.4-1h-2.2l-0.3,0.8C177.8,78.8,178.8,79.4,180.2,78.6z"/>
			</g>
		</g>
		<g>
			<g>
				<path class="st15" d="M172.4,82.4L172.4,82.4c1.4,1.6,3.4,2.5,5.6,2.7c-0.4-1.4-1.2-4.6-1.5-5.6
					C175.2,80.6,172.9,81.5,172.4,82.4z"/>
			</g>
			<g>
				<path class="st15" d="M185.1,82.4c-0.5-0.8-2.7-1.7-4.1-2.9c-0.3,1-1.1,4.2-1.5,5.6C181.7,84.9,183.7,83.9,185.1,82.4
					L185.1,82.4z"/>
			</g>
		</g>
		<g>
			<g>
				<path class="st17" d="M180.4,78.8l-1.6,1l0,0V85l0,0h0.5c0.1,0,0.1,0,0.2,0c0.4-1.4,1.2-4.6,1.5-5.6
					C180.8,79.2,180.5,79,180.4,78.8z"/>
			</g>
			<g>
				<path class="st17" d="M178.8,85.1v-5.2l0,0l-1.6-1c-0.2,0.2-0.4,0.5-0.6,0.7c0.3,1,1.1,4.2,1.5,5.6c0.1,0,0.1,0,0.2,0
					L178.8,85.1L178.8,85.1z"/>
			</g>
		</g>
		<g>
			<g>
				<path class="st18" d="M178.8,70.8c-1.9,0-3.4,0.6-3.4,2.8c0,2.2,1.5,5.1,3.4,5.1l0,0V70.8L178.8,70.8z"/>
			</g>
			<g>
				<path class="st18" d="M182.2,73.5c0-2.2-1.5-2.8-3.4-2.8v7.9C180.7,78.6,182.2,75.7,182.2,73.5z"/>
			</g>
			<g>
				<path class="st19" d="M175.4,74.7h0.6c0,0,0.1-2.2,0.6-2.5s1.4,0.2,2.2,0v-2.5c0,0-2.1-0.1-2.9,0.8
					C175.4,71.1,175,72,175.4,74.7z"/>
			</g>
			<g>
				<path class="st19" d="M182.2,74.7h-0.6c0,0-0.1-2.2-0.6-2.5s-1.4,0.2-2.2,0v-2.5c0,0,2.1-0.1,2.9,0.8
					C182.2,71.1,182.6,72,182.2,74.7z"/>
			</g>
			<g>
				<ellipse transform="matrix(0.982 -0.189 0.189 0.982 -10.9527 34.5546)" class="st18" cx="175.7" cy="74.7" rx="0.5" ry="0.9"/>
			</g>
			<g>
				<path class="st20" d="M181.4,74.7c-0.1,0.5,0,0.9,0.3,1c0.3,0,0.5-0.3,0.6-0.8s0-0.9-0.3-1C181.8,73.8,181.5,74.2,181.4,74.7z"
					/>
			</g>
		</g>
		<g>
			<polygon class="st21" points="178.8,79.8 178.1,80 178.5,80.8 178.8,80.8 			"/>
		</g>
		<g>
			<polygon class="st1" points="178.8,79.8 177.7,80.8 176.7,79.3 177.2,78.8 			"/>
		</g>
		<g>
			<g>
				<path class="st1" d="M175.3,80.3l0.9,2.6l0.7-0.3l-0.4,1l0.7,1.4c0.3,0,0.6,0.1,0.8,0.1l-1.4-5.7L175.3,80.3z"/>
			</g>
			<g>
				<path class="st1" d="M180.7,82.5l0.7,0.3l0.9-2.6l-1.4-1l-1.4,5.7c0.3,0,0.6-0.1,0.8-0.1l0.7-1.4L180.7,82.5z"/>
			</g>
		</g>
		<g>
			<polygon class="st21" points="178.8,79.8 179.4,80 179.1,80.8 178.8,80.8 			"/>
		</g>
		<g>
			<polygon class="st1" points="178.8,79.8 179.9,80.8 180.8,79.3 180.4,78.8 			"/>
		</g>
		<g>
			<g>
				<path class="st21" d="M178.8,80.8v4.3c0.2,0,0.4,0,0.7,0l-0.4-4.2h-0.3V80.8z"/>
			</g>
			<g>
				<path class="st21" d="M178.8,80.8h-0.3l-0.4,4.2c0.2,0,0.4,0,0.7,0l0,0l0,0V80.8L178.8,80.8z"/>
			</g>
		</g>
	</g>
</g>
<g>
	<g>
		<polyline class="st1" points="125.8,71.2 123.6,71.2 121.9,80.4 121.1,80.4 122.8,71.2 120.5,71.2 120.7,70.4 126,70.4 
			125.8,71.2 		"/>
	</g>
	<g>
		<path class="st1" d="M127.5,73.7c-0.2,0-0.3,0-0.4,0c-0.4,0-0.8,0.2-1.1,0.5c-0.4,0.4-0.6,0.9-0.7,1.6l-0.8,4.7h-0.7l1.4-7.5h0.7
			l-0.2,1.2l0,0c0.5-0.9,1.1-1.4,1.8-1.4c0,0,0.1,0,0.2,0c0.1,0,0.1,0,0.1,0L127.5,73.7"/>
	</g>
	<g>
		<path class="st1" d="M131.1,80.5c-0.1,0-0.1,0-0.2,0c-0.1,0-0.2,0-0.3,0c-0.4,0-0.6-0.2-0.6-0.6c0-0.1,0-0.2,0-0.3v-0.2l0,0
			c-0.2,0.4-0.5,0.7-0.9,0.9c-0.4,0.2-0.7,0.3-1,0.3c-0.9,0-1.4-0.5-1.4-1.5c0-0.2,0-0.4,0.1-0.7c0.1-0.7,0.4-1.2,0.7-1.5
			c0.3-0.3,0.7-0.5,1.3-0.6c0.3-0.1,0.8-0.2,1.4-0.4c0.3-0.1,0.4-0.4,0.5-0.9c0-0.2,0-0.4,0-0.5c0-0.6-0.3-0.9-0.9-0.9
			c-0.8,0-1.4,0.6-1.6,1.7h-0.7c0.3-1.6,1.1-2.4,2.4-2.4c1.1,0,1.6,0.5,1.6,1.4c0,0.2,0,0.4-0.1,0.7l-0.8,4.6
			c-0.1,0.3,0,0.5,0.2,0.5c0,0,0.1,0,0.2,0L131.1,80.5 M130.2,78.1l0.3-1.8c-0.2,0.2-0.4,0.3-0.8,0.4c-0.3,0.1-0.6,0.2-0.9,0.3
			c-0.4,0.1-0.6,0.3-0.8,0.5s-0.4,0.6-0.4,1c0,0.2,0,0.3,0,0.5c0,0.7,0.3,1,0.8,1c0.4,0,0.8-0.2,1.1-0.5
			C129.8,79.2,130.1,78.7,130.2,78.1z"/>
	</g>
	<g>
		<path class="st1" d="M135.4,80.4h-0.7l0.2-1.2l0,0c-0.4,0.9-1,1.4-1.8,1.4c-1,0-1.5-0.7-1.5-2.2c0-0.5,0.1-1.1,0.2-1.7
			c0.5-2.6,1.4-3.9,2.7-3.9c0.3,0,0.6,0.1,0.9,0.3c0.2,0.2,0.4,0.5,0.4,1l0,0l0.7-3.7h0.7L135.4,80.4 M135.4,76.7
			c0.1-0.6,0.2-1.1,0.2-1.5c0-1.1-0.3-1.7-1-1.7c-0.9,0-1.6,1.1-2,3.2c-0.1,0.7-0.2,1.2-0.2,1.7c0,1,0.3,1.5,1,1.5
			C134.3,79.9,135,78.8,135.4,76.7z"/>
	</g>
	<g>
		<path class="st1" d="M140.8,76.8h-3.5c-0.1,0.7-0.2,1.3-0.2,1.7c0,1,0.3,1.5,1,1.5c0.4,0,0.7-0.2,1-0.5s0.5-0.8,0.6-1.4h0.7
			c-0.1,0.7-0.4,1.4-0.9,1.8c-0.5,0.5-1,0.8-1.7,0.8c-1.1,0-1.6-0.7-1.6-2.1c0-0.5,0.1-1.1,0.2-1.8c0.5-2.6,1.4-3.8,2.9-3.8
			c1.1,0,1.6,0.6,1.6,1.9C141.1,75.3,141,75.9,140.8,76.8 M140.2,76.1c0.1-0.5,0.1-0.9,0.1-1.3c0-0.9-0.3-1.3-1-1.3
			c-0.9,0-1.6,0.9-1.9,2.6C137.4,76.1,140.2,76.1,140.2,76.1z"/>
	</g>
	<g>
		<path class="st1" d="M152,75.9c-0.1,0.7-0.4,1.3-0.7,1.7c-0.4,0.4-0.7,0.6-1.2,0.6c-0.3,0-0.5-0.1-0.7-0.2
			c-0.1-0.1-0.2-0.2-0.2-0.4l-0.4,2.1h-0.9L149,74h0.9l-0.1,0.6c0.1-0.2,0.3-0.3,0.4-0.4c0.2-0.2,0.5-0.3,0.8-0.3
			c0.4,0,0.7,0.2,1,0.5C152.1,74.7,152.2,75.2,152,75.9 M150.5,74.7c-0.3,0-0.6,0.2-0.8,0.6c-0.1,0.2-0.2,0.4-0.2,0.7
			c-0.1,0.5,0,0.8,0.1,1c0.1,0.1,0.3,0.2,0.4,0.2c0.3,0,0.5-0.1,0.7-0.3c0.2-0.2,0.3-0.5,0.4-0.9c0.1-0.3,0-0.6,0-0.8
			C150.9,74.8,150.8,74.7,150.5,74.7z"/>
	</g>
	<g>
		<path class="st1" d="M154.7,73.8l-0.2,1.1c-0.1,0-0.1,0-0.2,0h-0.1c-0.4,0-0.7,0.1-0.8,0.4c-0.1,0.2-0.2,0.4-0.2,0.7l-0.4,2h-0.9
			l0.8-4.1h0.9l-0.1,0.7c0.2-0.3,0.4-0.5,0.5-0.6c0.2-0.2,0.4-0.3,0.7-0.3V73.8C154.6,73.8,154.7,73.8,154.7,73.8"/>
	</g>
	<g>
		<path class="st1" d="M157.7,74.5c0.1,0.2,0.1,0.5,0.1,0.9c0,0.2,0,0.5-0.1,0.8h-2.5c-0.1,0.4,0,0.7,0.2,0.9
			c0.1,0.1,0.3,0.2,0.4,0.2c0.2,0,0.4-0.1,0.5-0.2s0.2-0.2,0.2-0.3h0.9c-0.1,0.2-0.2,0.5-0.5,0.7c-0.4,0.4-0.8,0.6-1.4,0.6
			c-0.5,0-0.8-0.2-1.1-0.5s-0.4-0.9-0.2-1.6c0.1-0.7,0.4-1.3,0.8-1.6c0.4-0.4,0.8-0.6,1.3-0.6c0.3,0,0.5,0.1,0.8,0.2
			S157.6,74.3,157.7,74.5 M155.4,75.5h1.4c0-0.3,0-0.5-0.1-0.6s-0.3-0.2-0.5-0.2s-0.4,0.1-0.5,0.2C155.6,75,155.5,75.2,155.4,75.5z"
			/>
	</g>
	<g>
		<path class="st1" d="M158.6,76.7c0,0.2,0,0.3,0.1,0.4s0.3,0.2,0.6,0.2c0.2,0,0.3,0,0.5-0.1c0.1-0.1,0.2-0.2,0.2-0.3
			c0-0.1,0-0.2-0.1-0.3c-0.1-0.1-0.4-0.2-0.9-0.3c-0.4-0.1-0.6-0.3-0.8-0.4c-0.1-0.2-0.2-0.4-0.1-0.7c0.1-0.4,0.3-0.7,0.6-1
			s0.7-0.4,1.2-0.4c0.4,0,0.8,0.1,1,0.3c0.2,0.2,0.3,0.6,0.3,1.1h-1c0-0.1,0-0.2,0-0.3c-0.1-0.1-0.2-0.2-0.5-0.2
			c-0.2,0-0.4,0-0.5,0.1S159,75,159,75.1c0,0.1,0,0.2,0.1,0.3c0.1,0.1,0.4,0.2,0.9,0.3c0.4,0.1,0.6,0.3,0.7,0.5
			c0.1,0.2,0.2,0.5,0.1,0.8c-0.1,0.4-0.3,0.7-0.6,1s-0.7,0.4-1.3,0.4s-0.9-0.1-1.2-0.4c-0.2-0.3-0.3-0.6-0.2-1h1.1"/>
	</g>
	<g>
		<path class="st1" d="M162,76.7c0,0.2,0,0.3,0.1,0.4s0.3,0.2,0.6,0.2c0.2,0,0.3,0,0.5-0.1c0.1-0.1,0.2-0.2,0.2-0.3
			c0-0.1,0-0.2-0.1-0.3c-0.1-0.1-0.4-0.2-0.9-0.3c-0.4-0.1-0.6-0.3-0.8-0.4c-0.1-0.2-0.2-0.4-0.1-0.7c0.1-0.4,0.3-0.7,0.6-1
			s0.7-0.4,1.2-0.4c0.4,0,0.8,0.1,1,0.3c0.2,0.2,0.3,0.6,0.3,1.1h-0.9c0-0.1,0-0.2,0-0.3c-0.1-0.1-0.2-0.2-0.5-0.2
			c-0.2,0-0.4,0-0.5,0.1s-0.2,0.2-0.2,0.3c0,0.1,0,0.2,0.1,0.3c0.1,0.1,0.4,0.2,0.9,0.3c0.4,0.1,0.6,0.3,0.7,0.5
			c0.1,0.2,0.2,0.5,0.1,0.8c-0.1,0.4-0.3,0.7-0.6,1s-0.7,0.4-1.3,0.4s-0.9-0.1-1.2-0.4c-0.2-0.3-0.3-0.6-0.2-1h1"/>
	</g>
	<g>
		<g>
			<polyline class="st1" points="144.1,76.1 139.4,68.7 138.5,68.7 143.8,76.2 140.8,80.9 140.9,80.9 144.1,76.1 			"/>
		</g>
		<g>
			<polyline class="st2" points="145.9,74.7 141.9,80.9 142,80.9 146.2,74.6 142.4,68.6 139.3,68.6 139.4,68.7 141.7,68.7 
				145.9,74.7 			"/>
		</g>
		<g>
			<polyline class="st2" points="140.9,80.9 141.9,80.9 145.9,74.7 141.7,68.7 139.4,68.7 144.1,76.1 140.9,80.9 			"/>
		</g>
		<g>
			<polyline class="st1" points="149.2,79.6 149.1,80.1 147.4,80.1 147.9,77.6 146.7,75.9 151.1,69 150,69 144.6,77.4 148.7,83.4 
				151.7,83.4 149.2,79.6 			"/>
		</g>
		<g>
			<polyline class="st3" points="149.1,80.1 147.4,80.1 147.9,77.3 147,75.8 151.8,68.8 150.7,68.8 144.9,77.3 148.7,83.4 
				151.8,83.4 149.3,79.4 149.1,80.1 			"/>
		</g>
	</g>
</g>
<g>
	<path class="st1" d="M32.1,484.1c-13.9,0-25.3-11.3-25.3-25.3V95H229v363.8c0,13.9-11.3,25.3-25.3,25.3H32.1z"/>
	<path class="st4" d="M228.8,95.2v363.7c0,13.9-11.3,25.1-25.1,25.1H32.1c-13.9,0-25.1-11.3-25.1-25.1V95.2H228.8 M229.1,94.9H6.7
		v363.9c0,14,11.4,25.4,25.4,25.4h171.6c14,0,25.4-11.4,25.4-25.4V94.9L229.1,94.9z"/>
</g>
<g>
	<g>
		<path class="st47" d="M14.7,229.1c-1.2,0-2.2-1-2.2-2.1V105.5c0-1.2,1-2.1,2.2-2.1h206.5c1.2,0,2.2,1,2.2,2.1v121.4
			c0,1.2-1,2.1-2.2,2.1H14.7z"/>
		<path class="st48" d="M221.2,103.4c1.2,0,2.1,0.9,2.1,2.1v121.4c0,1.2-0.9,2.1-2.1,2.1H14.7c-1.2,0-2.1-0.9-2.1-2.1V105.5
			c0-1.2,0.9-2.1,2.1-2.1H221.2 M221.2,103.3H14.7c-1.2,0-2.2,1-2.2,2.2v121.4c0,1.2,1,2.2,2.2,2.2h206.5c1.2,0,2.2-1,2.2-2.2V105.5
			C223.4,104.3,222.4,103.3,221.2,103.3L221.2,103.3z"/>
	</g>
	<g>
		<path class="st49" d="M223.2,142.1H12.6v-36c0-1.4,1.2-2.6,2.6-2.6h205.5c1.4,0,2.6,1.2,2.6,2.6V142.1z"/>
	</g>
	<line class="st50" x1="12.5" y1="142.1" x2="223.4" y2="142.1"/>
	<g>
		<path class="st22" d="M27.9,115h2.4l4.2,10.2h0.2l4.2-10.2h2.4v13.1h-1.9v-9.5h-0.1l-3.9,9.5h-1.6l-3.9-9.5h-0.1v9.5h-1.9V115z"/>
		<path class="st22" d="M46.8,128.4c-0.6,0-1.2-0.1-1.7-0.3c-0.5-0.2-0.9-0.6-1.2-1s-0.4-1-0.4-1.6c0-0.6,0.1-1,0.3-1.4
			c0.2-0.4,0.5-0.6,0.9-0.9c0.4-0.2,0.8-0.4,1.2-0.5c0.4-0.1,0.9-0.2,1.4-0.2c0.6-0.1,1.1-0.1,1.4-0.2c0.4,0,0.6-0.1,0.8-0.2
			c0.2-0.1,0.3-0.3,0.3-0.5v0c0-0.6-0.2-1-0.5-1.3c-0.3-0.3-0.8-0.5-1.4-0.5c-0.6,0-1.2,0.1-1.5,0.4c-0.4,0.3-0.6,0.6-0.8,0.9
			l-1.8-0.4c0.2-0.6,0.5-1.1,0.9-1.5c0.4-0.4,0.9-0.6,1.4-0.8c0.5-0.2,1.1-0.3,1.7-0.3c0.4,0,0.8,0,1.3,0.1c0.4,0.1,0.9,0.3,1.2,0.5
			s0.7,0.6,1,1c0.2,0.5,0.4,1,0.4,1.8v6.5h-1.9v-1.3h-0.1c-0.1,0.2-0.3,0.5-0.6,0.7c-0.2,0.2-0.6,0.4-1,0.6
			C47.8,128.3,47.4,128.4,46.8,128.4z M47.2,126.8c0.5,0,1-0.1,1.4-0.3c0.4-0.2,0.7-0.5,0.9-0.8c0.2-0.3,0.3-0.7,0.3-1.1v-1.3
			c-0.1,0.1-0.2,0.1-0.4,0.2c-0.2,0.1-0.4,0.1-0.7,0.1c-0.2,0-0.5,0.1-0.7,0.1c-0.2,0-0.4,0.1-0.6,0.1c-0.4,0-0.7,0.1-1,0.2
			c-0.3,0.1-0.5,0.3-0.7,0.5c-0.2,0.2-0.3,0.5-0.3,0.8c0,0.5,0.2,0.8,0.5,1.1C46.2,126.7,46.7,126.8,47.2,126.8z"/>
		<path class="st22" d="M54.2,128.2v-9.9h1.9v1.6h0.1c0.2-0.5,0.5-0.9,1-1.3c0.5-0.3,1-0.5,1.5-0.5c0.1,0,0.3,0,0.4,0
			c0.2,0,0.3,0,0.4,0v1.8c-0.1,0-0.2,0-0.4-0.1c-0.2,0-0.4,0-0.6,0c-0.5,0-0.9,0.1-1.2,0.3s-0.6,0.5-0.8,0.8
			c-0.2,0.3-0.3,0.7-0.3,1.1v6H54.2z"/>
		<path class="st22" d="M65.3,132.1c-0.8,0-1.5-0.1-2-0.3c-0.6-0.2-1-0.5-1.4-0.8c-0.4-0.3-0.6-0.7-0.8-1.1l1.6-0.7
			c0.1,0.2,0.3,0.4,0.5,0.6c0.2,0.2,0.5,0.4,0.8,0.5c0.3,0.1,0.8,0.2,1.3,0.2c0.7,0,1.3-0.2,1.8-0.5c0.5-0.4,0.7-0.9,0.7-1.7v-1.9
			h-0.1c-0.1,0.2-0.3,0.4-0.5,0.7c-0.2,0.3-0.5,0.5-0.9,0.7c-0.4,0.2-0.9,0.3-1.5,0.3c-0.8,0-1.5-0.2-2.1-0.5
			c-0.6-0.4-1.1-0.9-1.5-1.6c-0.4-0.7-0.5-1.6-0.5-2.6c0-1,0.2-1.9,0.5-2.7c0.4-0.7,0.8-1.3,1.5-1.7c0.6-0.4,1.3-0.6,2.1-0.6
			c0.6,0,1.1,0.1,1.5,0.3c0.4,0.2,0.7,0.4,0.9,0.7c0.2,0.3,0.4,0.5,0.5,0.7h0.1v-1.6h1.9v10.1c0,0.8-0.2,1.5-0.6,2.1
			c-0.4,0.5-0.9,0.9-1.6,1.2C66.9,131.9,66.1,132.1,65.3,132.1z M65.3,126.4c0.6,0,1-0.1,1.4-0.4c0.4-0.3,0.7-0.6,0.9-1.1
			c0.2-0.5,0.3-1.1,0.3-1.7c0-0.7-0.1-1.2-0.3-1.8c-0.2-0.5-0.5-0.9-0.9-1.2c-0.4-0.3-0.9-0.4-1.4-0.4c-0.6,0-1.1,0.1-1.4,0.4
			c-0.4,0.3-0.7,0.7-0.9,1.2c-0.2,0.5-0.3,1.1-0.3,1.7c0,0.6,0.1,1.2,0.3,1.7c0.2,0.5,0.5,0.9,0.9,1.1
			C64.2,126.3,64.7,126.4,65.3,126.4z"/>
		<path class="st22" d="M73.3,116.8c-0.3,0-0.6-0.1-0.9-0.3c-0.2-0.2-0.4-0.5-0.4-0.8c0-0.3,0.1-0.6,0.4-0.8
			c0.2-0.2,0.5-0.3,0.9-0.3s0.6,0.1,0.9,0.3c0.2,0.2,0.4,0.5,0.4,0.8c0,0.3-0.1,0.6-0.4,0.8C73.9,116.7,73.6,116.8,73.3,116.8z
			 M72.3,128.2v-9.9h1.9v9.9H72.3z"/>
		<path class="st22" d="M78.7,122.3v5.8h-1.9v-9.9h1.8v1.6h0.1c0.2-0.5,0.6-0.9,1.1-1.3c0.5-0.3,1.1-0.5,1.8-0.5
			c0.7,0,1.3,0.1,1.8,0.4c0.5,0.3,0.9,0.7,1.2,1.2c0.3,0.6,0.4,1.2,0.4,2v6.3h-1.9v-6c0-0.7-0.2-1.3-0.6-1.7
			c-0.4-0.4-0.9-0.6-1.5-0.6c-0.4,0-0.8,0.1-1.2,0.3c-0.3,0.2-0.6,0.5-0.8,0.8S78.7,121.8,78.7,122.3z"/>
		<path class="st22" d="M90.5,128.4c-0.6,0-1.2-0.1-1.7-0.3c-0.5-0.2-0.9-0.6-1.2-1s-0.4-1-0.4-1.6c0-0.6,0.1-1,0.3-1.4
			c0.2-0.4,0.5-0.6,0.9-0.9c0.4-0.2,0.8-0.4,1.2-0.5c0.4-0.1,0.9-0.2,1.4-0.2c0.6-0.1,1.1-0.1,1.4-0.2c0.4,0,0.6-0.1,0.8-0.2
			c0.2-0.1,0.3-0.3,0.3-0.5v0c0-0.6-0.2-1-0.5-1.3s-0.8-0.5-1.4-0.5c-0.6,0-1.2,0.1-1.5,0.4c-0.4,0.3-0.6,0.6-0.8,0.9l-1.8-0.4
			c0.2-0.6,0.5-1.1,0.9-1.5c0.4-0.4,0.9-0.6,1.4-0.8c0.5-0.2,1.1-0.3,1.7-0.3c0.4,0,0.8,0,1.3,0.1c0.4,0.1,0.9,0.3,1.2,0.5
			c0.4,0.2,0.7,0.6,1,1c0.2,0.5,0.4,1,0.4,1.8v6.5h-1.9v-1.3h-0.1c-0.1,0.2-0.3,0.5-0.6,0.7c-0.2,0.2-0.6,0.4-1,0.6
			C91.5,128.3,91,128.4,90.5,128.4z M90.9,126.8c0.5,0,1-0.1,1.4-0.3c0.4-0.2,0.7-0.5,0.9-0.8c0.2-0.3,0.3-0.7,0.3-1.1v-1.3
			c-0.1,0.1-0.2,0.1-0.4,0.2c-0.2,0.1-0.4,0.1-0.7,0.1c-0.2,0-0.5,0.1-0.7,0.1c-0.2,0-0.4,0.1-0.6,0.1c-0.4,0-0.7,0.1-1,0.2
			c-0.3,0.1-0.5,0.3-0.7,0.5c-0.2,0.2-0.3,0.5-0.3,0.8c0,0.5,0.2,0.8,0.5,1.1C89.9,126.7,90.3,126.8,90.9,126.8z"/>
		<path class="st22" d="M98,128.2V115h1.9v4.9h0.1c0.1-0.2,0.3-0.4,0.5-0.7c0.2-0.3,0.5-0.5,0.9-0.7c0.4-0.2,0.9-0.3,1.5-0.3
			c0.8,0,1.5,0.2,2.1,0.6c0.6,0.4,1.1,1,1.5,1.7c0.4,0.8,0.5,1.7,0.5,2.7s-0.2,2-0.5,2.7c-0.4,0.8-0.8,1.3-1.5,1.8
			c-0.6,0.4-1.3,0.6-2.1,0.6c-0.6,0-1.1-0.1-1.5-0.3c-0.4-0.2-0.7-0.4-0.9-0.7c-0.2-0.3-0.4-0.5-0.5-0.7h-0.2v1.5H98z M99.9,123.2
			c0,0.7,0.1,1.3,0.3,1.8s0.5,0.9,0.9,1.2c0.4,0.3,0.8,0.4,1.4,0.4c0.6,0,1.1-0.2,1.4-0.5c0.4-0.3,0.7-0.7,0.9-1.2
			c0.2-0.5,0.3-1.1,0.3-1.8c0-0.6-0.1-1.2-0.3-1.8c-0.2-0.5-0.5-0.9-0.9-1.2c-0.4-0.3-0.9-0.4-1.4-0.4c-0.6,0-1,0.1-1.4,0.4
			c-0.4,0.3-0.7,0.7-0.9,1.2C100,122,99.9,122.5,99.9,123.2z"/>
		<path class="st22" d="M111.1,115v13.1h-1.9V115H111.1z"/>
		<path class="st22" d="M117.9,128.4c-1,0-1.8-0.2-2.5-0.6c-0.7-0.4-1.2-1-1.6-1.8c-0.4-0.8-0.6-1.6-0.6-2.7c0-1,0.2-1.9,0.6-2.7
			c0.4-0.8,0.9-1.4,1.6-1.8c0.7-0.4,1.5-0.6,2.4-0.6c0.6,0,1.1,0.1,1.6,0.3s1,0.5,1.4,0.9c0.4,0.4,0.7,0.9,1,1.5s0.4,1.4,0.4,2.3
			v0.7h-7.8v-1.4h6c0-0.5-0.1-1-0.3-1.3c-0.2-0.4-0.5-0.7-0.9-0.9c-0.4-0.2-0.8-0.3-1.3-0.3c-0.5,0-1,0.1-1.4,0.4
			c-0.4,0.3-0.7,0.6-0.9,1c-0.2,0.4-0.3,0.9-0.3,1.4v1.1c0,0.7,0.1,1.2,0.4,1.7c0.2,0.5,0.6,0.8,1,1.1c0.4,0.2,0.9,0.4,1.5,0.4
			c0.4,0,0.7-0.1,1-0.2c0.3-0.1,0.6-0.3,0.8-0.5c0.2-0.2,0.4-0.5,0.5-0.8l1.8,0.3c-0.1,0.5-0.4,1-0.8,1.4c-0.4,0.4-0.8,0.7-1.4,0.9
			C119.3,128.2,118.6,128.4,117.9,128.4z"/>
		<path class="st22" d="M129.2,128.2V115h2v11.4h6v1.7H129.2z"/>
		<path class="st22" d="M140.2,116.8c-0.3,0-0.6-0.1-0.9-0.3c-0.2-0.2-0.4-0.5-0.4-0.8c0-0.3,0.1-0.6,0.4-0.8
			c0.2-0.2,0.5-0.3,0.9-0.3c0.3,0,0.6,0.1,0.9,0.3c0.2,0.2,0.4,0.5,0.4,0.8c0,0.3-0.1,0.6-0.4,0.8
			C140.8,116.7,140.6,116.8,140.2,116.8z M139.3,128.2v-9.9h1.9v9.9H139.3z"/>
		<path class="st22" d="M151.1,120.7l-1.7,0.3c-0.1-0.2-0.2-0.4-0.3-0.6c-0.2-0.2-0.4-0.4-0.6-0.5c-0.3-0.1-0.6-0.2-1-0.2
			c-0.5,0-1,0.1-1.4,0.4c-0.4,0.2-0.5,0.6-0.5,0.9c0,0.3,0.1,0.6,0.4,0.8c0.2,0.2,0.6,0.4,1.2,0.5l1.6,0.4c0.9,0.2,1.6,0.5,2,1
			c0.4,0.4,0.7,1,0.7,1.7c0,0.6-0.2,1.1-0.5,1.6c-0.3,0.5-0.8,0.8-1.4,1.1c-0.6,0.3-1.3,0.4-2.1,0.4c-1.1,0-2-0.2-2.7-0.7
			c-0.7-0.5-1.1-1.1-1.3-2l1.9-0.3c0.1,0.5,0.4,0.8,0.7,1.1c0.4,0.2,0.8,0.4,1.4,0.4c0.6,0,1.1-0.1,1.5-0.4c0.4-0.3,0.6-0.6,0.6-1
			c0-0.3-0.1-0.6-0.3-0.8c-0.2-0.2-0.6-0.4-1-0.5l-1.7-0.4c-0.9-0.2-1.6-0.5-2-1c-0.4-0.5-0.7-1-0.7-1.7c0-0.6,0.2-1.1,0.5-1.5
			c0.3-0.4,0.8-0.8,1.3-1s1.2-0.4,2-0.4c1.1,0,1.9,0.2,2.5,0.7C150.5,119.3,150.9,119.9,151.1,120.7z"/>
		<path class="st22" d="M157.8,118.3v1.5h-5.4v-1.5H157.8z M153.8,115.9h1.9v9.3c0,0.4,0.1,0.7,0.2,0.8c0.1,0.2,0.3,0.3,0.4,0.4
			c0.2,0.1,0.4,0.1,0.6,0.1c0.2,0,0.3,0,0.4,0c0.1,0,0.2,0,0.3-0.1l0.3,1.6c-0.1,0-0.3,0.1-0.5,0.1c-0.2,0-0.5,0.1-0.8,0.1
			c-0.5,0-1-0.1-1.4-0.3c-0.4-0.2-0.8-0.5-1.1-0.9c-0.3-0.4-0.4-0.9-0.4-1.5V115.9z"/>
	</g>
	<g>
		<path class="st51" d="M69,167.7H24.8c-1,0-1.7-0.8-1.7-1.7v-14.2c0-1,0.8-1.7,1.7-1.7H69c1,0,1.7,0.8,1.7,1.7v14.2
			C70.8,166.9,70,167.7,69,167.7z"/>
		<g>
			<path class="st1" d="M29.3,162.4v-7.3H32c0.5,0,0.9,0,1.1,0.1c0.4,0.1,0.7,0.2,0.9,0.3c0.2,0.2,0.4,0.4,0.6,0.7
				c0.1,0.3,0.2,0.6,0.2,1c0,0.6-0.2,1.1-0.6,1.6c-0.4,0.4-1.1,0.6-2.1,0.6h-1.9v3H29.3z M30.2,158.6h1.9c0.6,0,1.1-0.1,1.3-0.3
				c0.3-0.2,0.4-0.6,0.4-1c0-0.3-0.1-0.6-0.2-0.8c-0.2-0.2-0.4-0.4-0.6-0.4c-0.2,0-0.5-0.1-0.9-0.1h-1.9V158.6z"/>
			<path class="st1" d="M35.9,162.4v-5.3h0.8v0.8c0.2-0.4,0.4-0.6,0.6-0.7c0.2-0.1,0.4-0.2,0.6-0.2c0.3,0,0.6,0.1,0.9,0.3l-0.3,0.8
				c-0.2-0.1-0.4-0.2-0.7-0.2c-0.2,0-0.4,0.1-0.5,0.2c-0.2,0.1-0.3,0.3-0.3,0.5c-0.1,0.3-0.1,0.7-0.1,1v2.8H35.9z"/>
			<path class="st1" d="M42.9,160.7l0.9,0.1c-0.1,0.5-0.4,1-0.8,1.3c-0.4,0.3-0.9,0.4-1.5,0.4c-0.8,0-1.4-0.2-1.8-0.7
				c-0.5-0.5-0.7-1.1-0.7-2c0-0.9,0.2-1.6,0.7-2.1c0.5-0.5,1.1-0.7,1.8-0.7c0.7,0,1.3,0.2,1.7,0.7c0.4,0.5,0.7,1.2,0.7,2
				c0,0.1,0,0.1,0,0.2h-3.9c0,0.6,0.2,1,0.5,1.3c0.3,0.3,0.7,0.5,1.1,0.5c0.3,0,0.6-0.1,0.8-0.3C42.6,161.4,42.8,161.1,42.9,160.7z
				 M40,159.3h2.9c0-0.4-0.2-0.8-0.3-1c-0.3-0.3-0.7-0.5-1.1-0.5c-0.4,0-0.8,0.1-1,0.4C40.2,158.4,40,158.8,40,159.3z"/>
			<path class="st1" d="M46.4,162.4l-2-5.3h0.9l1.1,3.2c0.1,0.3,0.2,0.7,0.3,1.1c0.1-0.3,0.2-0.6,0.3-1l1.2-3.2h0.9l-2,5.3H46.4z"/>
			<path class="st1" d="M50.1,156.2v-1H51v1H50.1z M50.1,162.4v-5.3H51v5.3H50.1z"/>
			<path class="st1" d="M55.9,160.7l0.9,0.1c-0.1,0.5-0.4,1-0.8,1.3c-0.4,0.3-0.9,0.4-1.5,0.4c-0.8,0-1.4-0.2-1.8-0.7
				c-0.5-0.5-0.7-1.1-0.7-2c0-0.9,0.2-1.6,0.7-2.1c0.5-0.5,1.1-0.7,1.8-0.7c0.7,0,1.3,0.2,1.7,0.7c0.4,0.5,0.7,1.2,0.7,2
				c0,0.1,0,0.1,0,0.2H53c0,0.6,0.2,1,0.5,1.3c0.3,0.3,0.7,0.5,1.1,0.5c0.3,0,0.6-0.1,0.8-0.3C55.6,161.4,55.8,161.1,55.9,160.7z
				 M53,159.3H56c0-0.4-0.2-0.8-0.3-1c-0.3-0.3-0.7-0.5-1.1-0.5c-0.4,0-0.8,0.1-1,0.4C53.2,158.4,53,158.8,53,159.3z"/>
			<path class="st1" d="M59,162.4l-1.6-5.3h0.9l0.8,3l0.3,1.1c0-0.1,0.1-0.4,0.3-1.1l0.8-3.1h0.9l0.8,3.1l0.3,1l0.3-1l0.9-3.1h0.9
				l-1.7,5.3H62l-0.8-3.2l-0.2-0.9l-1.1,4.1H59z"/>
		</g>
	</g>
</g>
</svg>
