<?xml version="1.0" encoding="utf-8"?>
<!-- Generator: Adobe Illustrator 26.0.1, SVG Export Plug-In . SVG Version: 6.00 Build 0)  -->
<svg version="1.1" id="Layer_1" xmlns="http://www.w3.org/2000/svg" xmlns:xlink="http://www.w3.org/1999/xlink" x="0px" y="0px"
	 viewBox="0 0 130 484.5" style="enable-background:new 0 0 130 484.5;" xml:space="preserve">
<style type="text/css">
	.st0{fill:#EC7E30;}
	.st1{fill:#FFFFFF;}
	.st2{fill:#A5A4A4;}
	.st3{fill:#FDC015;}
	.st4{fill:#4A72B8;}
</style>
<circle class="st0" cx="65" cy="419.5" r="65"/>
<circle class="st1" cx="65" cy="419.5" r="59.9"/>
<path class="st2" d="M127.7,299.5c0.3,39.2-36.2,61.2-62.2,83.9c-1.6,1.5-25.8-22.6-28.8-25.2C19,342.6,1.9,323.5,2.4,298.3
	c0.4-22.8,13.6-44.1,33.7-54.7c9-4.7,19.1-7.2,29.4-7.2C102.1,236.4,127.5,267.1,127.7,299.5z"/>
<circle class="st1" cx="65" cy="298.6" r="57"/>
<path class="st3" d="M127.7,181.3c0.3,39.2-36.2,61.2-62.2,83.9c-1.6,1.5-25.8-22.6-28.8-25.2C19,224.4,1.9,205.3,2.4,180
	C2.8,157.2,16,136,36.1,125.3c9-4.7,19.1-7.2,29.4-7.2C102.1,118.2,127.5,148.9,127.7,181.3z"/>
<circle class="st1" cx="65" cy="180.4" r="57"/>
<path class="st4" d="M127.7,63.2c0.3,39.2-36.2,61.2-62.2,83.9c-1.6,1.5-25.8-22.6-28.8-25.2C19,106.3,1.9,87.2,2.4,62
	C2.8,39.2,16,17.9,36.1,7.2C45.1,2.5,55.2,0,65.5,0C102.1,0.1,127.5,30.8,127.7,63.2z"/>
<circle class="st1" cx="65" cy="62.3" r="57"/>
<g>
	<path d="M32.7,35.9c-0.1-0.3-0.2-0.5-0.4-0.8c-0.1-0.2-0.3-0.4-0.5-0.6c-0.2-0.2-0.4-0.3-0.7-0.4S30.6,34,30.3,34
		c-0.5,0-1,0.1-1.4,0.4s-0.8,0.7-1,1.2c-0.2,0.5-0.4,1.2-0.4,1.9c0,0.8,0.1,1.4,0.4,1.9c0.2,0.5,0.6,0.9,1,1.2
		c0.4,0.3,0.9,0.4,1.5,0.4c0.5,0,1-0.1,1.3-0.3c0.4-0.2,0.7-0.5,0.9-0.9c0.2-0.4,0.3-0.8,0.3-1.4l0.4,0.1h-2.7v-1.2h3.7v1.1
		c0,0.8-0.2,1.5-0.5,2.1c-0.3,0.6-0.8,1-1.4,1.4s-1.3,0.5-2,0.5c-0.9,0-1.6-0.2-2.3-0.6c-0.6-0.4-1.1-1-1.5-1.7
		c-0.4-0.7-0.5-1.6-0.5-2.6c0-0.8,0.1-1.4,0.3-2s0.5-1.1,0.9-1.5c0.4-0.4,0.8-0.7,1.3-1s1.1-0.3,1.7-0.3c0.5,0,1,0.1,1.4,0.2
		c0.4,0.2,0.8,0.4,1.2,0.6s0.6,0.6,0.9,1c0.2,0.4,0.4,0.8,0.5,1.3H32.7z"/>
	<path d="M39,42.5c-0.7,0-1.2-0.2-1.7-0.5s-0.9-0.7-1.2-1.3s-0.4-1.2-0.4-1.9c0-0.7,0.1-1.4,0.4-1.9s0.7-1,1.2-1.3s1.1-0.5,1.7-0.5
		c0.7,0,1.2,0.2,1.7,0.5s0.9,0.7,1.2,1.3s0.4,1.2,0.4,1.9c0,0.7-0.1,1.4-0.4,1.9s-0.7,1-1.2,1.3S39.6,42.5,39,42.5z M39,41.3
		c0.4,0,0.8-0.1,1.1-0.3c0.3-0.2,0.5-0.5,0.6-0.9c0.1-0.4,0.2-0.8,0.2-1.3c0-0.5-0.1-0.9-0.2-1.2c-0.1-0.4-0.3-0.7-0.6-0.9
		c-0.3-0.2-0.6-0.3-1.1-0.3c-0.4,0-0.8,0.1-1.1,0.3c-0.3,0.2-0.5,0.5-0.6,0.9c-0.1,0.4-0.2,0.8-0.2,1.2c0,0.5,0.1,0.9,0.2,1.3
		c0.1,0.4,0.3,0.7,0.6,0.9C38.2,41.2,38.5,41.3,39,41.3z"/>
	<path d="M50.6,35.2v1.1h-3.9v-1.1H50.6z M47.7,33.5h1.4v6.7c0,0.3,0,0.5,0.1,0.6s0.2,0.2,0.3,0.3c0.1,0,0.3,0.1,0.4,0.1
		c0.1,0,0.2,0,0.3,0c0.1,0,0.1,0,0.2,0l0.2,1.1c-0.1,0-0.2,0.1-0.3,0.1c-0.1,0-0.3,0.1-0.6,0.1c-0.4,0-0.7-0.1-1-0.2
		s-0.6-0.3-0.8-0.6s-0.3-0.6-0.3-1.1V33.5z"/>
	<path d="M55.1,42.5c-0.7,0-1.2-0.2-1.7-0.5s-0.9-0.7-1.2-1.3s-0.4-1.2-0.4-1.9c0-0.7,0.1-1.4,0.4-1.9s0.7-1,1.2-1.3
		s1.1-0.5,1.7-0.5c0.7,0,1.2,0.2,1.7,0.5s0.9,0.7,1.2,1.3s0.4,1.2,0.4,1.9c0,0.7-0.1,1.4-0.4,1.9s-0.7,1-1.2,1.3
		S55.7,42.5,55.1,42.5z M55.1,41.3c0.4,0,0.8-0.1,1.1-0.3c0.3-0.2,0.5-0.5,0.6-0.9c0.1-0.4,0.2-0.8,0.2-1.3c0-0.5-0.1-0.9-0.2-1.2
		c-0.1-0.4-0.3-0.7-0.6-0.9c-0.3-0.2-0.6-0.3-1.1-0.3c-0.4,0-0.8,0.1-1.1,0.3c-0.3,0.2-0.5,0.5-0.6,0.9c-0.1,0.4-0.2,0.8-0.2,1.2
		c0,0.5,0.1,0.9,0.2,1.3c0.1,0.4,0.3,0.7,0.6,0.9C54.3,41.2,54.6,41.3,55.1,41.3z"/>
	<path d="M63.5,42.3v-9.5h3.4c0.7,0,1.3,0.1,1.8,0.4c0.5,0.3,0.8,0.6,1.1,1s0.4,1,0.4,1.5c0,0.6-0.1,1.1-0.4,1.5
		c-0.2,0.4-0.6,0.8-1.1,1s-1.1,0.4-1.8,0.4h-2.6v-1.2h2.4c0.5,0,0.8-0.1,1.1-0.2c0.3-0.1,0.5-0.3,0.6-0.6c0.1-0.3,0.2-0.6,0.2-0.9
		c0-0.4-0.1-0.7-0.2-0.9c-0.1-0.3-0.4-0.5-0.6-0.6s-0.7-0.2-1.1-0.2h-1.8v8.2H63.5z M68.1,38.1l2.3,4.3h-1.6l-2.3-4.3H68.1z"/>
	<path d="M74.8,42.5c-0.7,0-1.3-0.1-1.8-0.5c-0.5-0.3-0.9-0.7-1.2-1.3c-0.3-0.5-0.4-1.2-0.4-1.9c0-0.7,0.1-1.4,0.4-1.9
		c0.3-0.6,0.7-1,1.1-1.3c0.5-0.3,1.1-0.5,1.7-0.5c0.4,0,0.8,0.1,1.2,0.2s0.7,0.3,1,0.6c0.3,0.3,0.5,0.6,0.7,1.1
		c0.2,0.5,0.3,1,0.3,1.6v0.5h-5.6v-1h4.3c0-0.4-0.1-0.7-0.2-1c-0.1-0.3-0.4-0.5-0.6-0.7s-0.6-0.2-0.9-0.2c-0.4,0-0.7,0.1-1,0.3
		c-0.3,0.2-0.5,0.4-0.7,0.7s-0.2,0.6-0.2,1v0.8c0,0.5,0.1,0.9,0.3,1.2c0.2,0.3,0.4,0.6,0.7,0.8c0.3,0.2,0.7,0.3,1.1,0.3
		c0.3,0,0.5,0,0.7-0.1c0.2-0.1,0.4-0.2,0.6-0.3c0.2-0.2,0.3-0.3,0.4-0.6l1.3,0.2c-0.1,0.4-0.3,0.7-0.6,1c-0.3,0.3-0.6,0.5-1,0.7
		C75.8,42.4,75.3,42.5,74.8,42.5z"/>
	<path d="M79.4,45v-9.8h1.3v1.1h0.1c0.1-0.1,0.2-0.3,0.3-0.5c0.2-0.2,0.4-0.4,0.6-0.5c0.3-0.1,0.6-0.2,1.1-0.2
		c0.6,0,1.1,0.1,1.5,0.4c0.4,0.3,0.8,0.7,1.1,1.3c0.3,0.5,0.4,1.2,0.4,2c0,0.8-0.1,1.4-0.4,2s-0.6,1-1.1,1.3s-1,0.4-1.5,0.4
		c-0.4,0-0.8-0.1-1.1-0.2s-0.5-0.3-0.6-0.5c-0.2-0.2-0.3-0.4-0.4-0.5h-0.1V45H79.4z M80.7,38.8c0,0.5,0.1,0.9,0.2,1.3
		s0.4,0.7,0.6,0.9s0.6,0.3,1,0.3c0.4,0,0.8-0.1,1-0.3c0.3-0.2,0.5-0.5,0.6-0.9s0.2-0.8,0.2-1.3c0-0.5-0.1-0.9-0.2-1.3
		c-0.1-0.4-0.3-0.7-0.6-0.9c-0.3-0.2-0.6-0.3-1-0.3c-0.4,0-0.7,0.1-1,0.3c-0.3,0.2-0.5,0.5-0.6,0.9C80.8,37.9,80.7,38.3,80.7,38.8z"
		/>
	<path d="M90.4,42.5c-0.7,0-1.2-0.2-1.7-0.5s-0.9-0.7-1.2-1.3s-0.4-1.2-0.4-1.9c0-0.7,0.1-1.4,0.4-1.9s0.7-1,1.2-1.3
		s1.1-0.5,1.7-0.5c0.7,0,1.2,0.2,1.7,0.5s0.9,0.7,1.2,1.3s0.4,1.2,0.4,1.9c0,0.7-0.1,1.4-0.4,1.9s-0.7,1-1.2,1.3S91,42.5,90.4,42.5z
		 M90.4,41.3c0.4,0,0.8-0.1,1.1-0.3c0.3-0.2,0.5-0.5,0.6-0.9c0.1-0.4,0.2-0.8,0.2-1.3c0-0.5-0.1-0.9-0.2-1.2
		c-0.1-0.4-0.3-0.7-0.6-0.9c-0.3-0.2-0.6-0.3-1.1-0.3c-0.4,0-0.8,0.1-1.1,0.3c-0.3,0.2-0.5,0.5-0.6,0.9c-0.1,0.4-0.2,0.8-0.2,1.2
		c0,0.5,0.1,0.9,0.2,1.3c0.1,0.4,0.3,0.7,0.6,0.9C89.6,41.2,89.9,41.3,90.4,41.3z"/>
	<path d="M95.2,42.3v-7.1h1.3v1.1h0.1c0.1-0.4,0.4-0.7,0.7-0.9c0.3-0.2,0.7-0.3,1.1-0.3c0.1,0,0.2,0,0.3,0c0.1,0,0.2,0,0.3,0v1.3
		c-0.1,0-0.2,0-0.3-0.1s-0.3,0-0.4,0c-0.3,0-0.6,0.1-0.9,0.2c-0.3,0.1-0.5,0.3-0.6,0.6c-0.1,0.2-0.2,0.5-0.2,0.8v4.3H95.2z"/>
	<path d="M103.5,35.2v1.1h-3.9v-1.1H103.5z M100.7,33.5h1.4v6.7c0,0.3,0,0.5,0.1,0.6s0.2,0.2,0.3,0.3c0.1,0,0.3,0.1,0.4,0.1
		c0.1,0,0.2,0,0.3,0c0.1,0,0.1,0,0.2,0l0.2,1.1c-0.1,0-0.2,0.1-0.3,0.1c-0.1,0-0.3,0.1-0.6,0.1c-0.4,0-0.7-0.1-1-0.2
		s-0.6-0.3-0.8-0.6s-0.3-0.6-0.3-1.1V33.5z"/>
	<path d="M41.4,51c0-0.4-0.3-0.8-0.6-1s-0.8-0.4-1.3-0.4c-0.4,0-0.7,0.1-1,0.2S38,50,37.8,50.3c-0.2,0.2-0.2,0.5-0.2,0.7
		c0,0.2,0.1,0.4,0.2,0.6c0.1,0.2,0.2,0.3,0.4,0.4c0.2,0.1,0.4,0.2,0.6,0.3c0.2,0.1,0.4,0.1,0.6,0.2l0.9,0.2c0.3,0.1,0.6,0.2,0.9,0.3
		c0.3,0.1,0.6,0.3,0.9,0.5c0.3,0.2,0.5,0.5,0.7,0.8c0.2,0.3,0.3,0.7,0.3,1.1c0,0.5-0.1,1-0.4,1.4s-0.7,0.7-1.2,1
		c-0.5,0.2-1.2,0.4-1.9,0.4c-0.7,0-1.3-0.1-1.8-0.3s-0.9-0.5-1.2-1c-0.3-0.4-0.5-0.9-0.5-1.5h1.4c0,0.3,0.1,0.6,0.3,0.9
		c0.2,0.2,0.4,0.4,0.8,0.5c0.3,0.1,0.6,0.2,1,0.2c0.4,0,0.8-0.1,1.1-0.2s0.6-0.3,0.7-0.5c0.2-0.2,0.3-0.5,0.3-0.8
		c0-0.3-0.1-0.5-0.2-0.7c-0.2-0.2-0.4-0.3-0.6-0.4c-0.3-0.1-0.6-0.2-0.9-0.3l-1.1-0.3c-0.8-0.2-1.4-0.5-1.8-0.9
		c-0.4-0.4-0.7-0.9-0.7-1.6c0-0.5,0.1-1,0.4-1.4s0.7-0.7,1.2-0.9c0.5-0.2,1.1-0.3,1.7-0.3c0.6,0,1.2,0.1,1.7,0.3s0.9,0.5,1.2,0.9
		c0.3,0.4,0.4,0.8,0.4,1.4H41.4z"/>
	<path d="M47.6,58.1c-0.7,0-1.3-0.1-1.8-0.5c-0.5-0.3-0.9-0.7-1.2-1.3c-0.3-0.5-0.4-1.2-0.4-1.9c0-0.7,0.1-1.4,0.4-1.9
		c0.3-0.6,0.7-1,1.1-1.3c0.5-0.3,1.1-0.5,1.7-0.5c0.4,0,0.8,0.1,1.2,0.2s0.7,0.3,1,0.6c0.3,0.3,0.5,0.6,0.7,1.1
		c0.2,0.5,0.3,1,0.3,1.6v0.5H45v-1h4.3c0-0.4-0.1-0.7-0.2-1c-0.1-0.3-0.4-0.5-0.6-0.7s-0.6-0.2-0.9-0.2c-0.4,0-0.7,0.1-1,0.3
		c-0.3,0.2-0.5,0.4-0.7,0.7s-0.2,0.6-0.2,1v0.8c0,0.5,0.1,0.9,0.3,1.2c0.2,0.3,0.4,0.6,0.7,0.8c0.3,0.2,0.7,0.3,1.1,0.3
		c0.3,0,0.5,0,0.7-0.1c0.2-0.1,0.4-0.2,0.6-0.3c0.2-0.2,0.3-0.3,0.4-0.6l1.3,0.2c-0.1,0.4-0.3,0.7-0.6,1c-0.3,0.3-0.6,0.5-1,0.7
		C48.6,58,48.1,58.1,47.6,58.1z"/>
	<path d="M55.2,58.1c-0.7,0-1.3-0.2-1.8-0.5c-0.5-0.3-0.9-0.7-1.1-1.3c-0.3-0.6-0.4-1.2-0.4-1.9c0-0.7,0.1-1.4,0.4-1.9
		c0.3-0.6,0.7-1,1.1-1.3c0.5-0.3,1.1-0.5,1.7-0.5c0.5,0,1,0.1,1.4,0.3c0.4,0.2,0.8,0.5,1,0.8s0.4,0.8,0.5,1.3h-1.3
		c-0.1-0.3-0.2-0.6-0.5-0.9c-0.3-0.2-0.6-0.4-1.1-0.4c-0.4,0-0.7,0.1-1,0.3c-0.3,0.2-0.5,0.5-0.7,0.9c-0.2,0.4-0.2,0.8-0.2,1.3
		c0,0.5,0.1,1,0.2,1.3c0.2,0.4,0.4,0.7,0.7,0.9c0.3,0.2,0.6,0.3,1,0.3c0.3,0,0.5,0,0.7-0.1c0.2-0.1,0.4-0.2,0.5-0.4
		c0.1-0.2,0.2-0.4,0.3-0.7h1.3c0,0.5-0.2,0.9-0.4,1.2c-0.2,0.4-0.6,0.6-1,0.8C56.2,58,55.7,58.1,55.2,58.1z"/>
	<path d="M62.9,50.8v1.1H59v-1.1H62.9z M60,49.1h1.4v6.7c0,0.3,0,0.5,0.1,0.6s0.2,0.2,0.3,0.3c0.1,0,0.3,0.1,0.4,0.1
		c0.1,0,0.2,0,0.3,0c0.1,0,0.1,0,0.2,0l0.2,1.1c-0.1,0-0.2,0.1-0.3,0.1c-0.1,0-0.3,0.1-0.6,0.1c-0.4,0-0.7-0.1-1-0.2
		s-0.6-0.3-0.8-0.6S60,56.6,60,56.1V49.1z"/>
	<path d="M65.1,49.7c-0.2,0-0.4-0.1-0.6-0.2s-0.3-0.4-0.3-0.6c0-0.2,0.1-0.4,0.3-0.6s0.4-0.2,0.6-0.2s0.4,0.1,0.6,0.2
		s0.3,0.4,0.3,0.6c0,0.2-0.1,0.4-0.3,0.6S65.3,49.7,65.1,49.7z M64.4,57.9v-7.1h1.4v7.1H64.4z"/>
	<path d="M70.6,58.1c-0.7,0-1.2-0.2-1.7-0.5s-0.9-0.7-1.2-1.3s-0.4-1.2-0.4-1.9c0-0.7,0.1-1.4,0.4-1.9s0.7-1,1.2-1.3
		s1.1-0.5,1.7-0.5c0.7,0,1.2,0.2,1.7,0.5s0.9,0.7,1.2,1.3s0.4,1.2,0.4,1.9c0,0.7-0.1,1.4-0.4,1.9s-0.7,1-1.2,1.3
		S71.3,58.1,70.6,58.1z M70.6,56.9c0.4,0,0.8-0.1,1.1-0.3c0.3-0.2,0.5-0.5,0.6-0.9c0.1-0.4,0.2-0.8,0.2-1.3c0-0.5-0.1-0.9-0.2-1.2
		c-0.1-0.4-0.3-0.7-0.6-0.9c-0.3-0.2-0.6-0.3-1.1-0.3c-0.4,0-0.8,0.1-1.1,0.3c-0.3,0.2-0.5,0.5-0.6,0.9c-0.1,0.4-0.2,0.8-0.2,1.2
		c0,0.5,0.1,0.9,0.2,1.3c0.1,0.4,0.3,0.7,0.6,0.9C69.8,56.8,70.2,56.9,70.6,56.9z"/>
	<path d="M76.8,53.7v4.2h-1.4v-7.1h1.3V52h0.1c0.2-0.4,0.4-0.7,0.8-0.9c0.3-0.2,0.8-0.3,1.3-0.3c0.5,0,0.9,0.1,1.3,0.3
		c0.4,0.2,0.6,0.5,0.8,0.9c0.2,0.4,0.3,0.9,0.3,1.5v4.5H80v-4.3c0-0.5-0.1-0.9-0.4-1.2c-0.3-0.3-0.6-0.4-1.1-0.4
		c-0.3,0-0.6,0.1-0.9,0.2c-0.2,0.1-0.4,0.3-0.6,0.6S76.8,53.3,76.8,53.7z"/>
	<path d="M89.4,58.1c-0.6,0-1.2-0.1-1.6-0.3s-0.8-0.5-1.1-0.9c-0.2-0.4-0.4-0.9-0.4-1.4c0-0.4,0.1-0.7,0.2-1
		c0.2-0.3,0.4-0.6,0.7-0.8c0.3-0.3,0.6-0.5,1-0.8l1.5-1.1c0.3-0.2,0.5-0.3,0.6-0.5c0.1-0.2,0.2-0.4,0.2-0.7c0-0.2-0.1-0.4-0.3-0.6
		s-0.4-0.3-0.8-0.3c-0.2,0-0.4,0.1-0.6,0.2c-0.2,0.1-0.3,0.2-0.4,0.4c-0.1,0.2-0.1,0.3-0.1,0.5c0,0.2,0.1,0.4,0.2,0.7
		c0.1,0.2,0.3,0.4,0.5,0.7c0.2,0.2,0.4,0.5,0.6,0.7l4.4,5.2h-1.6l-3.6-4.3c-0.3-0.4-0.6-0.7-0.8-1c-0.3-0.3-0.5-0.6-0.6-1
		c-0.2-0.3-0.2-0.7-0.2-1.1c0-0.4,0.1-0.8,0.3-1.2c0.2-0.3,0.5-0.6,0.8-0.8c0.4-0.2,0.8-0.3,1.3-0.3c0.5,0,0.9,0.1,1.3,0.3
		c0.3,0.2,0.6,0.4,0.8,0.8c0.2,0.3,0.3,0.7,0.3,1c0,0.4-0.1,0.8-0.3,1.2c-0.2,0.3-0.5,0.7-0.9,0.9L88.7,54c-0.4,0.3-0.6,0.5-0.8,0.8
		c-0.1,0.3-0.2,0.5-0.2,0.6c0,0.3,0.1,0.5,0.2,0.8s0.3,0.4,0.6,0.6c0.3,0.1,0.6,0.2,0.9,0.2c0.4,0,0.7-0.1,1-0.2s0.6-0.4,0.9-0.7
		s0.5-0.6,0.6-1c0.2-0.4,0.2-0.8,0.2-1.3h1.2c0,0.6-0.1,1.1-0.2,1.5c-0.1,0.4-0.3,0.8-0.5,1c-0.2,0.3-0.4,0.5-0.6,0.6
		c-0.1,0-0.1,0.1-0.2,0.1c0,0-0.1,0.1-0.2,0.1c-0.3,0.3-0.7,0.6-1.2,0.7C90.3,58,89.8,58.1,89.4,58.1z"/>
	<path d="M49.6,66.6c0-0.4-0.3-0.8-0.6-1s-0.8-0.4-1.3-0.4c-0.4,0-0.7,0.1-1,0.2s-0.5,0.3-0.7,0.5c-0.2,0.2-0.2,0.5-0.2,0.7
		c0,0.2,0.1,0.4,0.2,0.6c0.1,0.2,0.2,0.3,0.4,0.4c0.2,0.1,0.4,0.2,0.6,0.3c0.2,0.1,0.4,0.1,0.6,0.2l0.9,0.2c0.3,0.1,0.6,0.2,0.9,0.3
		c0.3,0.1,0.6,0.3,0.9,0.5c0.3,0.2,0.5,0.5,0.7,0.8c0.2,0.3,0.3,0.7,0.3,1.1c0,0.5-0.1,1-0.4,1.4s-0.7,0.7-1.2,1
		c-0.5,0.2-1.2,0.4-1.9,0.4c-0.7,0-1.3-0.1-1.8-0.3s-0.9-0.5-1.2-1c-0.3-0.4-0.5-0.9-0.5-1.5h1.4c0,0.3,0.1,0.6,0.3,0.9
		c0.2,0.2,0.4,0.4,0.8,0.5c0.3,0.1,0.6,0.2,1,0.2c0.4,0,0.8-0.1,1.1-0.2s0.6-0.3,0.7-0.5c0.2-0.2,0.3-0.5,0.3-0.8
		c0-0.3-0.1-0.5-0.2-0.7c-0.2-0.2-0.4-0.3-0.6-0.4c-0.3-0.1-0.6-0.2-0.9-0.3l-1.1-0.3c-0.8-0.2-1.4-0.5-1.8-0.9
		c-0.4-0.4-0.7-0.9-0.7-1.6c0-0.5,0.1-1,0.4-1.4s0.7-0.7,1.2-0.9c0.5-0.2,1.1-0.3,1.7-0.3c0.6,0,1.2,0.1,1.7,0.3s0.9,0.5,1.2,0.9
		c0.3,0.4,0.4,0.8,0.4,1.4H49.6z"/>
	<path d="M55.8,73.7c-0.7,0-1.3-0.1-1.8-0.5c-0.5-0.3-0.9-0.7-1.2-1.3c-0.3-0.5-0.4-1.2-0.4-1.9c0-0.7,0.1-1.4,0.4-1.9
		c0.3-0.6,0.7-1,1.1-1.3c0.5-0.3,1.1-0.5,1.7-0.5c0.4,0,0.8,0.1,1.2,0.2s0.7,0.3,1,0.6c0.3,0.3,0.5,0.6,0.7,1.1
		c0.2,0.5,0.3,1,0.3,1.6v0.5h-5.6v-1h4.3c0-0.4-0.1-0.7-0.2-1c-0.1-0.3-0.4-0.5-0.6-0.7s-0.6-0.2-0.9-0.2c-0.4,0-0.7,0.1-1,0.3
		c-0.3,0.2-0.5,0.4-0.7,0.7s-0.2,0.6-0.2,1v0.8c0,0.5,0.1,0.9,0.3,1.2c0.2,0.3,0.4,0.6,0.7,0.8c0.3,0.2,0.7,0.3,1.1,0.3
		c0.3,0,0.5,0,0.7-0.1c0.2-0.1,0.4-0.2,0.6-0.3c0.2-0.2,0.3-0.3,0.4-0.6l1.3,0.2c-0.1,0.4-0.3,0.7-0.6,1c-0.3,0.3-0.6,0.5-1,0.7
		C56.8,73.6,56.3,73.7,55.8,73.7z"/>
	<path d="M61.8,64.1v9.5h-1.4v-9.5H61.8z"/>
	<path d="M66.7,73.7c-0.7,0-1.3-0.1-1.8-0.5c-0.5-0.3-0.9-0.7-1.2-1.3c-0.3-0.5-0.4-1.2-0.4-1.9c0-0.7,0.1-1.4,0.4-1.9
		c0.3-0.6,0.7-1,1.1-1.3c0.5-0.3,1.1-0.5,1.7-0.5c0.4,0,0.8,0.1,1.2,0.2s0.7,0.3,1,0.6c0.3,0.3,0.5,0.6,0.7,1.1
		c0.2,0.5,0.3,1,0.3,1.6v0.5h-5.6v-1h4.3c0-0.4-0.1-0.7-0.2-1c-0.1-0.3-0.4-0.5-0.6-0.7s-0.6-0.2-0.9-0.2c-0.4,0-0.7,0.1-1,0.3
		c-0.3,0.2-0.5,0.4-0.7,0.7s-0.2,0.6-0.2,1v0.8c0,0.5,0.1,0.9,0.3,1.2c0.2,0.3,0.4,0.6,0.7,0.8c0.3,0.2,0.7,0.3,1.1,0.3
		c0.3,0,0.5,0,0.7-0.1c0.2-0.1,0.4-0.2,0.6-0.3c0.2-0.2,0.3-0.3,0.4-0.6l1.3,0.2c-0.1,0.4-0.3,0.7-0.6,1c-0.3,0.3-0.6,0.5-1,0.7
		C67.6,73.6,67.2,73.7,66.7,73.7z"/>
	<path d="M74.2,73.7c-0.7,0-1.3-0.2-1.8-0.5c-0.5-0.3-0.9-0.7-1.1-1.3c-0.3-0.6-0.4-1.2-0.4-1.9c0-0.7,0.1-1.4,0.4-1.9
		c0.3-0.6,0.7-1,1.1-1.3c0.5-0.3,1.1-0.5,1.7-0.5c0.5,0,1,0.1,1.4,0.3c0.4,0.2,0.8,0.5,1,0.8s0.4,0.8,0.5,1.3h-1.3
		c-0.1-0.3-0.2-0.6-0.5-0.9c-0.3-0.2-0.6-0.4-1.1-0.4c-0.4,0-0.7,0.1-1,0.3c-0.3,0.2-0.5,0.5-0.7,0.9c-0.2,0.4-0.2,0.8-0.2,1.3
		c0,0.5,0.1,1,0.2,1.3c0.2,0.4,0.4,0.7,0.7,0.9c0.3,0.2,0.6,0.3,1,0.3c0.3,0,0.5,0,0.7-0.1c0.2-0.1,0.4-0.2,0.5-0.4
		c0.1-0.2,0.2-0.4,0.3-0.7h1.3c0,0.5-0.2,0.9-0.4,1.2c-0.2,0.4-0.6,0.6-1,0.8C75.3,73.6,74.8,73.7,74.2,73.7z"/>
	<path d="M81.9,66.4v1.1h-3.9v-1.1H81.9z M79.1,64.7h1.4v6.7c0,0.3,0,0.5,0.1,0.6s0.2,0.2,0.3,0.3c0.1,0,0.3,0.1,0.4,0.1
		c0.1,0,0.2,0,0.3,0c0.1,0,0.1,0,0.2,0l0.2,1.1c-0.1,0-0.2,0.1-0.3,0.1c-0.1,0-0.3,0.1-0.6,0.1c-0.4,0-0.7-0.1-1-0.2
		s-0.6-0.3-0.8-0.6s-0.3-0.6-0.3-1.1V64.7z"/>
	<path d="M18.1,79.7h1.7l3,7.3h0.1l3-7.3h1.7v9.5h-1.4v-6.8h-0.1l-2.8,6.8h-1.1l-2.8-6.8h-0.1v6.8h-1.4V79.7z"/>
	<path d="M31.7,89.3c-0.4,0-0.9-0.1-1.2-0.3c-0.4-0.2-0.7-0.4-0.9-0.7c-0.2-0.3-0.3-0.7-0.3-1.2c0-0.4,0.1-0.7,0.2-1
		c0.2-0.3,0.4-0.5,0.6-0.6c0.3-0.2,0.6-0.3,0.9-0.3c0.3-0.1,0.7-0.1,1-0.2c0.4,0,0.8-0.1,1-0.1c0.3,0,0.5-0.1,0.6-0.2
		c0.1-0.1,0.2-0.2,0.2-0.4v0c0-0.4-0.1-0.7-0.3-0.9c-0.2-0.2-0.6-0.3-1-0.3c-0.5,0-0.8,0.1-1.1,0.3c-0.3,0.2-0.5,0.4-0.6,0.7
		l-1.3-0.3c0.2-0.4,0.4-0.8,0.7-1c0.3-0.3,0.6-0.5,1-0.6s0.8-0.2,1.2-0.2c0.3,0,0.6,0,0.9,0.1c0.3,0.1,0.6,0.2,0.9,0.4
		c0.3,0.2,0.5,0.4,0.7,0.8c0.2,0.3,0.3,0.7,0.3,1.3v4.7h-1.3v-1h-0.1c-0.1,0.2-0.2,0.4-0.4,0.5c-0.2,0.2-0.4,0.3-0.7,0.4
		C32.4,89.2,32.1,89.3,31.7,89.3z M32,88.2c0.4,0,0.7-0.1,1-0.2s0.5-0.3,0.6-0.6c0.1-0.2,0.2-0.5,0.2-0.8v-0.9c0,0-0.1,0.1-0.3,0.1
		c-0.1,0-0.3,0.1-0.5,0.1c-0.2,0-0.4,0.1-0.5,0.1c-0.2,0-0.3,0-0.4,0.1c-0.3,0-0.5,0.1-0.7,0.2c-0.2,0.1-0.4,0.2-0.5,0.3
		c-0.1,0.1-0.2,0.3-0.2,0.6c0,0.3,0.1,0.6,0.4,0.8S31.6,88.2,32,88.2z"/>
	<path d="M37.1,89.1V82h1.3v1.1h0.1c0.1-0.4,0.4-0.7,0.7-0.9c0.3-0.2,0.7-0.3,1.1-0.3c0.1,0,0.2,0,0.3,0c0.1,0,0.2,0,0.3,0v1.3
		c-0.1,0-0.2,0-0.3-0.1s-0.3,0-0.4,0c-0.3,0-0.6,0.1-0.9,0.2c-0.3,0.1-0.5,0.3-0.6,0.6c-0.1,0.2-0.2,0.5-0.2,0.8v4.3H37.1z"/>
	<path d="M45,91.9c-0.6,0-1-0.1-1.5-0.2c-0.4-0.1-0.7-0.3-1-0.6c-0.3-0.2-0.4-0.5-0.6-0.8l1.2-0.5c0.1,0.1,0.2,0.3,0.3,0.4
		c0.1,0.2,0.3,0.3,0.6,0.4c0.2,0.1,0.6,0.2,0.9,0.2c0.5,0,1-0.1,1.3-0.4c0.3-0.3,0.5-0.7,0.5-1.2v-1.4h-0.1
		c-0.1,0.2-0.2,0.3-0.4,0.5s-0.4,0.3-0.6,0.5C45.5,89,45.1,89,44.7,89c-0.6,0-1.1-0.1-1.5-0.4s-0.8-0.7-1.1-1.2
		c-0.3-0.5-0.4-1.1-0.4-1.9c0-0.8,0.1-1.4,0.4-1.9c0.3-0.5,0.6-1,1.1-1.2c0.4-0.3,1-0.4,1.5-0.4c0.4,0,0.8,0.1,1.1,0.2
		c0.3,0.1,0.5,0.3,0.6,0.5c0.2,0.2,0.3,0.4,0.4,0.5h0.1V82h1.4v7.2c0,0.6-0.1,1.1-0.4,1.5c-0.3,0.4-0.7,0.7-1.1,0.9
		C46.2,91.8,45.6,91.9,45,91.9z M45,87.9c0.4,0,0.7-0.1,1-0.3c0.3-0.2,0.5-0.5,0.6-0.8c0.1-0.3,0.2-0.8,0.2-1.3
		c0-0.5-0.1-0.9-0.2-1.3c-0.1-0.4-0.3-0.6-0.6-0.9s-0.6-0.3-1-0.3c-0.4,0-0.8,0.1-1,0.3c-0.3,0.2-0.5,0.5-0.6,0.9
		c-0.1,0.4-0.2,0.8-0.2,1.2c0,0.5,0.1,0.9,0.2,1.2c0.1,0.4,0.4,0.6,0.6,0.8C44.3,87.8,44.6,87.9,45,87.9z"/>
	<path d="M50.8,80.9c-0.2,0-0.4-0.1-0.6-0.2s-0.3-0.4-0.3-0.6c0-0.2,0.1-0.4,0.3-0.6s0.4-0.2,0.6-0.2s0.4,0.1,0.6,0.2
		s0.3,0.4,0.3,0.6c0,0.2-0.1,0.4-0.3,0.6S51,80.9,50.8,80.9z M50.1,89.1V82h1.4v7.1H50.1z"/>
	<path d="M54.7,84.9v4.2h-1.4V82h1.3v1.2h0.1c0.2-0.4,0.4-0.7,0.8-0.9c0.3-0.2,0.8-0.3,1.3-0.3c0.5,0,0.9,0.1,1.3,0.3
		c0.4,0.2,0.6,0.5,0.8,0.9c0.2,0.4,0.3,0.9,0.3,1.5v4.5h-1.4v-4.3c0-0.5-0.1-0.9-0.4-1.2c-0.3-0.3-0.6-0.4-1.1-0.4
		c-0.3,0-0.6,0.1-0.9,0.2c-0.2,0.1-0.4,0.3-0.6,0.6S54.7,84.5,54.7,84.9z"/>
	<path d="M63.1,89.3c-0.4,0-0.9-0.1-1.2-0.3c-0.4-0.2-0.7-0.4-0.9-0.7c-0.2-0.3-0.3-0.7-0.3-1.2c0-0.4,0.1-0.7,0.2-1
		c0.2-0.3,0.4-0.5,0.6-0.6c0.3-0.2,0.6-0.3,0.9-0.3c0.3-0.1,0.7-0.1,1-0.2c0.4,0,0.8-0.1,1-0.1c0.3,0,0.5-0.1,0.6-0.2
		c0.1-0.1,0.2-0.2,0.2-0.4v0c0-0.4-0.1-0.7-0.3-0.9c-0.2-0.2-0.6-0.3-1-0.3c-0.5,0-0.8,0.1-1.1,0.3c-0.3,0.2-0.5,0.4-0.6,0.7
		L61,83.8c0.2-0.4,0.4-0.8,0.7-1c0.3-0.3,0.6-0.5,1-0.6s0.8-0.2,1.2-0.2c0.3,0,0.6,0,0.9,0.1c0.3,0.1,0.6,0.2,0.9,0.4
		c0.3,0.2,0.5,0.4,0.7,0.8c0.2,0.3,0.3,0.7,0.3,1.3v4.7h-1.3v-1h-0.1c-0.1,0.2-0.2,0.4-0.4,0.5c-0.2,0.2-0.4,0.3-0.7,0.4
		C63.9,89.2,63.5,89.3,63.1,89.3z M63.4,88.2c0.4,0,0.7-0.1,1-0.2s0.5-0.3,0.6-0.6c0.1-0.2,0.2-0.5,0.2-0.8v-0.9
		c0,0-0.1,0.1-0.3,0.1c-0.1,0-0.3,0.1-0.5,0.1c-0.2,0-0.4,0.1-0.5,0.1c-0.2,0-0.3,0-0.4,0.1c-0.3,0-0.5,0.1-0.7,0.2
		c-0.2,0.1-0.4,0.2-0.5,0.3c-0.1,0.1-0.2,0.3-0.2,0.6c0,0.3,0.1,0.6,0.4,0.8S63,88.2,63.4,88.2z"/>
	<path d="M68.6,89.1v-9.5H70v3.5h0.1c0.1-0.1,0.2-0.3,0.3-0.5c0.2-0.2,0.4-0.4,0.6-0.5c0.3-0.1,0.6-0.2,1.1-0.2
		c0.6,0,1.1,0.1,1.5,0.4c0.4,0.3,0.8,0.7,1.1,1.3c0.3,0.5,0.4,1.2,0.4,2c0,0.8-0.1,1.4-0.4,2s-0.6,1-1.1,1.3c-0.4,0.3-1,0.4-1.5,0.4
		c-0.4,0-0.8-0.1-1.1-0.2s-0.5-0.3-0.6-0.5s-0.3-0.4-0.4-0.5h-0.1v1.1H68.6z M69.9,85.6c0,0.5,0.1,0.9,0.2,1.3
		c0.1,0.4,0.4,0.7,0.6,0.9s0.6,0.3,1,0.3c0.4,0,0.8-0.1,1-0.3c0.3-0.2,0.5-0.5,0.6-0.9s0.2-0.8,0.2-1.3c0-0.5-0.1-0.9-0.2-1.3
		c-0.1-0.4-0.3-0.7-0.6-0.9c-0.3-0.2-0.6-0.3-1-0.3c-0.4,0-0.7,0.1-1,0.3c-0.3,0.2-0.5,0.5-0.6,0.9C70,84.7,69.9,85.1,69.9,85.6z"/>
	<path d="M78,79.7v9.5h-1.4v-9.5H78z"/>
	<path d="M82.9,89.3c-0.7,0-1.3-0.1-1.8-0.5c-0.5-0.3-0.9-0.7-1.2-1.3c-0.3-0.5-0.4-1.2-0.4-1.9c0-0.7,0.1-1.4,0.4-1.9
		c0.3-0.6,0.7-1,1.1-1.3c0.5-0.3,1.1-0.5,1.7-0.5c0.4,0,0.8,0.1,1.2,0.2s0.7,0.3,1,0.6c0.3,0.3,0.5,0.6,0.7,1.1
		c0.2,0.5,0.3,1,0.3,1.6V86h-5.6v-1h4.3c0-0.4-0.1-0.7-0.2-1c-0.1-0.3-0.4-0.5-0.6-0.7s-0.6-0.2-0.9-0.2c-0.4,0-0.7,0.1-1,0.3
		c-0.3,0.2-0.5,0.4-0.7,0.7s-0.2,0.6-0.2,1v0.8c0,0.5,0.1,0.9,0.3,1.2c0.2,0.3,0.4,0.6,0.7,0.8c0.3,0.2,0.7,0.3,1.1,0.3
		c0.3,0,0.5,0,0.7-0.1c0.2-0.1,0.4-0.2,0.6-0.3c0.2-0.2,0.3-0.3,0.4-0.6l1.3,0.2c-0.1,0.4-0.3,0.7-0.6,1c-0.3,0.3-0.6,0.5-1,0.7
		C83.9,89.2,83.4,89.3,82.9,89.3z"/>
	<path d="M91,89.1v-9.5h1.4v8.2h4.3v1.2H91z"/>
	<path d="M99,80.9c-0.2,0-0.4-0.1-0.6-0.2s-0.3-0.4-0.3-0.6c0-0.2,0.1-0.4,0.3-0.6s0.4-0.2,0.6-0.2s0.4,0.1,0.6,0.2s0.3,0.4,0.3,0.6
		c0,0.2-0.1,0.4-0.3,0.6S99.2,80.9,99,80.9z M98.3,89.1V82h1.4v7.1H98.3z"/>
	<path d="M106.8,83.8l-1.3,0.2c-0.1-0.2-0.1-0.3-0.2-0.5c-0.1-0.1-0.3-0.3-0.5-0.4s-0.4-0.1-0.7-0.1c-0.4,0-0.7,0.1-1,0.3
		c-0.3,0.2-0.4,0.4-0.4,0.7c0,0.2,0.1,0.4,0.3,0.6c0.2,0.1,0.5,0.3,0.8,0.4l1.1,0.3c0.7,0.2,1.1,0.4,1.5,0.7
		c0.3,0.3,0.5,0.7,0.5,1.2c0,0.4-0.1,0.8-0.4,1.1c-0.2,0.3-0.6,0.6-1,0.8c-0.4,0.2-0.9,0.3-1.5,0.3c-0.8,0-1.4-0.2-1.9-0.5
		c-0.5-0.3-0.8-0.8-0.9-1.5l1.3-0.2c0.1,0.3,0.3,0.6,0.5,0.8c0.3,0.2,0.6,0.3,1,0.3c0.5,0,0.8-0.1,1.1-0.3c0.3-0.2,0.4-0.4,0.4-0.7
		c0-0.2-0.1-0.4-0.2-0.6s-0.4-0.3-0.8-0.3l-1.2-0.3c-0.7-0.2-1.2-0.4-1.5-0.7c-0.3-0.3-0.5-0.7-0.5-1.3c0-0.4,0.1-0.8,0.4-1.1
		s0.6-0.6,1-0.7c0.4-0.2,0.9-0.3,1.4-0.3c0.8,0,1.4,0.2,1.8,0.5C106.4,82.8,106.7,83.2,106.8,83.8z"/>
	<path d="M111.8,82v1.1h-3.9V82H111.8z M108.9,80.3h1.4V87c0,0.3,0,0.5,0.1,0.6s0.2,0.2,0.3,0.3c0.1,0,0.3,0.1,0.4,0.1
		c0.1,0,0.2,0,0.3,0c0.1,0,0.1,0,0.2,0l0.2,1.1c-0.1,0-0.2,0.1-0.3,0.1c-0.1,0-0.3,0.1-0.6,0.1c-0.4,0-0.7-0.1-1-0.2
		s-0.6-0.3-0.8-0.6s-0.3-0.6-0.3-1.1V80.3z"/>
</g>
<g>
	<path d="M45.3,166.3c0.7,0,1.3-0.1,1.8-0.4c0.5-0.3,0.8-0.6,1.1-1.1c0.2-0.5,0.4-1,0.4-1.6c0-0.6-0.1-1.1-0.4-1.6
		c-0.2-0.5-0.6-0.8-1.1-1.1c-0.5-0.3-1.1-0.4-1.8-0.4h-3.4v9.5h1.4v-3.3H45.3z M45.1,161.4c0.5,0,0.9,0.1,1.1,0.2
		c0.3,0.2,0.5,0.4,0.6,0.7s0.2,0.6,0.2,1c0,0.4-0.1,0.7-0.2,1c-0.1,0.3-0.3,0.5-0.6,0.7c-0.3,0.2-0.7,0.2-1.1,0.2h-1.8v-3.7H45.1z"
		/>
	<path d="M51.5,165.3c0-0.3,0.1-0.6,0.2-0.8c0.1-0.2,0.3-0.4,0.6-0.6c0.3-0.1,0.5-0.2,0.9-0.2c0.1,0,0.3,0,0.4,0s0.2,0,0.3,0.1v-1.3
		c-0.1,0-0.2,0-0.3,0c-0.1,0-0.2,0-0.3,0c-0.4,0-0.8,0.1-1.1,0.3c-0.3,0.2-0.6,0.5-0.7,0.9h-0.1v-1.1h-1.3v7.1h1.4V165.3z"/>
	<path d="M61,168.1c0.3-0.5,0.4-1.2,0.4-1.9c0-0.7-0.1-1.4-0.4-1.9s-0.7-1-1.2-1.3s-1.1-0.5-1.7-0.5c-0.7,0-1.2,0.2-1.7,0.5
		s-0.9,0.7-1.2,1.3s-0.4,1.2-0.4,1.9c0,0.7,0.1,1.4,0.4,1.9s0.7,1,1.2,1.3s1.1,0.5,1.7,0.5c0.7,0,1.2-0.2,1.7-0.5
		S60.7,168.6,61,168.1z M59.2,168.3c-0.3,0.2-0.6,0.3-1.1,0.3c-0.4,0-0.8-0.1-1.1-0.3c-0.3-0.2-0.5-0.5-0.6-0.9
		c-0.1-0.4-0.2-0.8-0.2-1.3c0-0.5,0.1-0.9,0.2-1.2c0.1-0.4,0.3-0.7,0.6-0.9c0.3-0.2,0.6-0.3,1.1-0.3c0.4,0,0.8,0.1,1.1,0.3
		c0.3,0.2,0.5,0.5,0.6,0.9c0.1,0.4,0.2,0.8,0.2,1.2c0,0.5-0.1,0.9-0.2,1.3C59.7,167.8,59.4,168.1,59.2,168.3z"/>
	<polygon points="69,162.6 67.5,162.6 65.7,168 65.6,168 63.9,162.6 62.4,162.6 64.9,169.7 66.4,169.7 	"/>
	<path d="M71,161.5c0.2,0,0.4-0.1,0.6-0.2s0.3-0.4,0.3-0.6c0-0.2-0.1-0.4-0.3-0.6s-0.4-0.2-0.6-0.2s-0.4,0.1-0.6,0.2
		s-0.3,0.4-0.3,0.6c0,0.2,0.1,0.4,0.3,0.6S70.7,161.5,71,161.5z"/>
	<rect x="70.3" y="162.6" width="1.4" height="7.1"/>
	<path d="M74.7,169.4c0.4,0.3,1,0.4,1.5,0.4c0.4,0,0.8-0.1,1.1-0.2c0.3-0.1,0.5-0.3,0.6-0.5c0.2-0.2,0.3-0.4,0.4-0.5h0.1v1.1h1.3
		v-9.5h-1.4v3.5h-0.1c-0.1-0.1-0.2-0.3-0.3-0.5c-0.1-0.2-0.4-0.4-0.6-0.5c-0.3-0.1-0.6-0.2-1.1-0.2c-0.6,0-1.1,0.1-1.5,0.4
		c-0.4,0.3-0.8,0.7-1.1,1.3c-0.3,0.5-0.4,1.2-0.4,2c0,0.8,0.1,1.4,0.4,2S74.2,169.1,74.7,169.4z M74.8,164.9
		c0.1-0.4,0.3-0.7,0.6-0.9c0.3-0.2,0.6-0.3,1-0.3c0.4,0,0.7,0.1,1,0.3c0.3,0.2,0.5,0.5,0.6,0.9c0.1,0.4,0.2,0.8,0.2,1.3
		c0,0.5-0.1,0.9-0.2,1.3s-0.4,0.7-0.6,0.9c-0.3,0.2-0.6,0.3-1,0.3c-0.4,0-0.8-0.1-1-0.3c-0.3-0.2-0.5-0.5-0.6-0.9s-0.2-0.8-0.2-1.3
		C74.6,165.7,74.7,165.2,74.8,164.9z"/>
	<path d="M87.1,168.9c0.3-0.3,0.5-0.6,0.6-1l-1.3-0.2c-0.1,0.2-0.2,0.4-0.4,0.6c-0.2,0.2-0.3,0.3-0.6,0.3c-0.2,0.1-0.5,0.1-0.7,0.1
		c-0.4,0-0.8-0.1-1.1-0.3c-0.3-0.2-0.5-0.4-0.7-0.8c-0.2-0.3-0.2-0.7-0.2-1.1h5v-0.5c0-0.6-0.1-1.2-0.3-1.6
		c-0.2-0.5-0.4-0.8-0.7-1.1c-0.3-0.3-0.6-0.5-1-0.6s-0.8-0.2-1.2-0.2c-0.7,0-1.2,0.2-1.7,0.5c-0.5,0.3-0.9,0.7-1.1,1.3
		c-0.3,0.6-0.4,1.2-0.4,1.9c0,0.7,0.1,1.4,0.4,1.9c0.3,0.5,0.7,1,1.2,1.3c0.5,0.3,1.1,0.5,1.8,0.5c0.5,0,1-0.1,1.4-0.2
		C86.5,169.4,86.8,169.2,87.1,168.9z M83,164.7c0.2-0.3,0.4-0.5,0.7-0.7c0.3-0.2,0.6-0.3,1-0.3c0.4,0,0.7,0.1,0.9,0.2
		s0.5,0.4,0.6,0.7c0.1,0.3,0.2,0.6,0.2,1h-3.7C82.8,165.2,82.8,164.9,83,164.7z"/>
	<rect x="40.2" y="175.8" width="1.4" height="9.5"/>
	<path d="M49.5,185.3v-4.5c0-0.6-0.1-1.1-0.3-1.5c-0.2-0.4-0.5-0.7-0.8-0.9c-0.4-0.2-0.8-0.3-1.3-0.3c-0.5,0-1,0.1-1.3,0.3
		c-0.3,0.2-0.6,0.5-0.8,0.9h-0.1v-1.2h-1.3v7.1H45v-4.2c0-0.4,0.1-0.7,0.2-1s0.3-0.5,0.6-0.6c0.2-0.1,0.5-0.2,0.9-0.2
		c0.5,0,0.8,0.1,1.1,0.4c0.3,0.3,0.4,0.7,0.4,1.2v4.3H49.5z"/>
	<polygon points="54.2,183.6 54.1,183.6 52.3,178.2 50.8,178.2 53.4,185.3 54.9,185.3 57.4,178.2 56,178.2 	"/>
	<path d="M63.9,178.9c-0.3-0.3-0.6-0.5-1-0.6s-0.8-0.2-1.2-0.2c-0.7,0-1.2,0.2-1.7,0.5c-0.5,0.3-0.9,0.7-1.1,1.3
		c-0.3,0.6-0.4,1.2-0.4,1.9c0,0.7,0.1,1.4,0.4,1.9c0.3,0.5,0.7,1,1.2,1.3c0.5,0.3,1.1,0.5,1.8,0.5c0.5,0,1-0.1,1.4-0.2
		c0.4-0.2,0.7-0.4,1-0.7c0.3-0.3,0.5-0.6,0.6-1l-1.3-0.2c-0.1,0.2-0.2,0.4-0.4,0.6c-0.2,0.2-0.3,0.3-0.6,0.3
		c-0.2,0.1-0.5,0.1-0.7,0.1c-0.4,0-0.8-0.1-1.1-0.3c-0.3-0.2-0.5-0.4-0.7-0.8c-0.2-0.3-0.2-0.7-0.2-1.1h5v-0.5
		c0-0.6-0.1-1.2-0.3-1.6C64.4,179.6,64.2,179.2,63.9,178.9z M59.8,181.1c0-0.3,0.1-0.6,0.2-0.9c0.2-0.3,0.4-0.5,0.7-0.7
		c0.3-0.2,0.6-0.3,1-0.3c0.4,0,0.7,0.1,0.9,0.2s0.5,0.4,0.6,0.7c0.1,0.3,0.2,0.6,0.2,1H59.8z"/>
	<path d="M66.6,179.1c-0.2,0.3-0.4,0.7-0.4,1.1c0,0.5,0.2,0.9,0.5,1.3c0.3,0.3,0.8,0.6,1.5,0.7l1.2,0.3c0.3,0.1,0.6,0.2,0.8,0.3
		s0.2,0.3,0.2,0.6c0,0.3-0.1,0.5-0.4,0.7c-0.3,0.2-0.6,0.3-1.1,0.3c-0.4,0-0.8-0.1-1-0.3c-0.3-0.2-0.4-0.4-0.5-0.8l-1.3,0.2
		c0.1,0.6,0.4,1.1,0.9,1.5c0.5,0.3,1.1,0.5,1.9,0.5c0.6,0,1.1-0.1,1.5-0.3c0.4-0.2,0.8-0.4,1-0.8c0.2-0.3,0.4-0.7,0.4-1.1
		c0-0.5-0.2-0.9-0.5-1.2c-0.3-0.3-0.8-0.5-1.5-0.7l-1.1-0.3c-0.4-0.1-0.7-0.2-0.8-0.4c-0.2-0.1-0.3-0.3-0.3-0.6
		c0-0.3,0.1-0.5,0.4-0.7c0.3-0.2,0.6-0.3,1-0.3c0.3,0,0.5,0,0.7,0.1s0.3,0.2,0.5,0.4c0.1,0.1,0.2,0.3,0.2,0.5l1.3-0.2
		c-0.1-0.6-0.4-1-0.9-1.3c-0.4-0.3-1-0.5-1.8-0.5c-0.5,0-1,0.1-1.4,0.3C67.2,178.5,66.8,178.8,66.6,179.1z"/>
	<path d="M74.9,185.2c0.3,0.1,0.7,0.2,1,0.2c0.2,0,0.4,0,0.6-0.1c0.1,0,0.3-0.1,0.3-0.1l-0.2-1.1c0,0-0.1,0-0.2,0
		c-0.1,0-0.2,0-0.3,0c-0.2,0-0.3,0-0.4-0.1c-0.1,0-0.2-0.1-0.3-0.3s-0.1-0.3-0.1-0.6v-3.9h1.5v-1.1h-1.5v-1.7h-1.4v1.7h-1v1.1h1v4.2
		c0,0.4,0.1,0.8,0.3,1.1S74.5,185,74.9,185.2z"/>
	<path d="M82.9,178.5c-0.5-0.3-1.1-0.5-1.7-0.5c-0.7,0-1.2,0.2-1.7,0.5s-0.9,0.7-1.2,1.3s-0.4,1.2-0.4,1.9c0,0.7,0.1,1.4,0.4,1.9
		s0.7,1,1.2,1.3s1.1,0.5,1.7,0.5c0.7,0,1.2-0.2,1.7-0.5s0.9-0.7,1.2-1.3s0.4-1.2,0.4-1.9c0-0.7-0.1-1.4-0.4-1.9
		S83.4,178.9,82.9,178.5z M82.9,183c-0.1,0.4-0.3,0.7-0.6,0.9c-0.3,0.2-0.6,0.3-1.1,0.3c-0.4,0-0.8-0.1-1.1-0.3
		c-0.3-0.2-0.5-0.5-0.6-0.9c-0.1-0.4-0.2-0.8-0.2-1.3c0-0.5,0.1-0.9,0.2-1.2c0.1-0.4,0.3-0.7,0.6-0.9c0.3-0.2,0.6-0.3,1.1-0.3
		c0.4,0,0.8,0.1,1.1,0.3c0.3,0.2,0.5,0.5,0.6,0.9c0.1,0.4,0.2,0.8,0.2,1.2C83.1,182.2,83,182.6,82.9,183z"/>
	<path d="M89.5,178.1c-0.1,0-0.2,0-0.3,0c-0.4,0-0.8,0.1-1.1,0.3c-0.3,0.2-0.6,0.5-0.7,0.9h-0.1v-1.1H86v7.1h1.4v-4.3
		c0-0.3,0.1-0.6,0.2-0.8c0.1-0.2,0.3-0.4,0.6-0.6c0.3-0.1,0.5-0.2,0.9-0.2c0.1,0,0.3,0,0.4,0s0.2,0,0.3,0.1v-1.3
		C89.7,178.1,89.6,178.1,89.5,178.1z"/>
	<path d="M51.6,193c0.4-0.3,0.9-0.4,1.5-0.4c0.3,0,0.6,0,0.9,0.1s0.5,0.2,0.7,0.4c0.2,0.2,0.4,0.4,0.6,0.6s0.3,0.5,0.3,0.8h1.4
		c-0.1-0.5-0.2-1-0.5-1.4c-0.2-0.4-0.5-0.7-0.9-1s-0.7-0.5-1.2-0.6s-0.9-0.2-1.4-0.2c-0.8,0-1.5,0.2-2.2,0.6
		c-0.6,0.4-1.1,0.9-1.5,1.7c-0.4,0.7-0.6,1.6-0.6,2.6c0,1,0.2,1.9,0.6,2.6c0.4,0.7,0.9,1.3,1.5,1.7c0.6,0.4,1.4,0.6,2.2,0.6
		c0.5,0,1-0.1,1.4-0.2c0.4-0.2,0.8-0.4,1.2-0.7s0.6-0.6,0.8-1c0.2-0.4,0.4-0.8,0.4-1.3l-1.4,0c-0.1,0.3-0.2,0.6-0.3,0.8
		c-0.2,0.2-0.3,0.4-0.6,0.6c-0.2,0.2-0.5,0.3-0.7,0.4c-0.3,0.1-0.6,0.1-0.9,0.1c-0.5,0-1-0.1-1.5-0.4c-0.4-0.3-0.8-0.7-1-1.2
		c-0.2-0.5-0.4-1.2-0.4-1.9c0-0.8,0.1-1.4,0.4-1.9C50.8,193.7,51.1,193.3,51.6,193z"/>
	<path d="M63.3,194.1c-0.5-0.3-1.1-0.5-1.7-0.5c-0.7,0-1.2,0.2-1.7,0.5s-0.9,0.7-1.2,1.3s-0.4,1.2-0.4,1.9c0,0.7,0.1,1.4,0.4,1.9
		s0.7,1,1.2,1.3s1.1,0.5,1.7,0.5c0.7,0,1.2-0.2,1.7-0.5s0.9-0.7,1.2-1.3s0.4-1.2,0.4-1.9c0-0.7-0.1-1.4-0.4-1.9
		S63.7,194.5,63.3,194.1z M63.2,198.6c-0.1,0.4-0.3,0.7-0.6,0.9c-0.3,0.2-0.6,0.3-1.1,0.3c-0.4,0-0.8-0.1-1.1-0.3
		c-0.3-0.2-0.5-0.5-0.6-0.9c-0.1-0.4-0.2-0.8-0.2-1.3c0-0.5,0.1-0.9,0.2-1.2c0.1-0.4,0.3-0.7,0.6-0.9c0.3-0.2,0.6-0.3,1.1-0.3
		c0.4,0,0.8,0.1,1.1,0.3c0.3,0.2,0.5,0.5,0.6,0.9c0.1,0.4,0.2,0.8,0.2,1.2C63.4,197.8,63.4,198.2,63.2,198.6z"/>
	<path d="M71.1,194.9L71.1,194.9c-0.2-0.1-0.3-0.3-0.4-0.5c-0.1-0.2-0.4-0.4-0.6-0.5c-0.3-0.1-0.6-0.2-1.1-0.2
		c-0.6,0-1.1,0.1-1.5,0.4c-0.4,0.3-0.8,0.7-1.1,1.3c-0.3,0.5-0.4,1.2-0.4,2c0,0.8,0.1,1.4,0.4,2s0.6,1,1.1,1.3
		c0.4,0.3,1,0.4,1.5,0.4c0.4,0,0.8-0.1,1.1-0.2c0.3-0.1,0.5-0.3,0.6-0.5c0.2-0.2,0.3-0.4,0.4-0.5h0.1v1.1h1.3v-9.5h-1.4V194.9z
		 M71,198.6c-0.1,0.4-0.4,0.7-0.6,0.9c-0.3,0.2-0.6,0.3-1,0.3c-0.4,0-0.8-0.1-1-0.3c-0.3-0.2-0.5-0.5-0.6-0.9s-0.2-0.8-0.2-1.3
		c0-0.5,0.1-0.9,0.2-1.3s0.3-0.7,0.6-0.9c0.3-0.2,0.6-0.3,1-0.3c0.4,0,0.7,0.1,1,0.3c0.3,0.2,0.5,0.5,0.6,0.9
		c0.1,0.4,0.2,0.8,0.2,1.3C71.2,197.8,71.1,198.3,71,198.6z"/>
	<path d="M79.6,194.5c-0.3-0.3-0.6-0.5-1-0.6s-0.8-0.2-1.2-0.2c-0.7,0-1.2,0.2-1.7,0.5c-0.5,0.3-0.9,0.7-1.1,1.3
		c-0.3,0.6-0.4,1.2-0.4,1.9c0,0.7,0.1,1.4,0.4,1.9c0.3,0.5,0.7,1,1.2,1.3c0.5,0.3,1.1,0.5,1.8,0.5c0.5,0,1-0.1,1.4-0.2
		c0.4-0.2,0.7-0.4,1-0.7c0.3-0.3,0.5-0.6,0.6-1l-1.3-0.2c-0.1,0.2-0.2,0.4-0.4,0.6c-0.2,0.2-0.3,0.3-0.6,0.3
		c-0.2,0.1-0.5,0.1-0.7,0.1c-0.4,0-0.8-0.1-1.1-0.3c-0.3-0.2-0.5-0.4-0.7-0.8c-0.2-0.3-0.2-0.7-0.2-1.1h5v-0.5
		c0-0.6-0.1-1.2-0.3-1.6C80.2,195.2,79.9,194.8,79.6,194.5z M75.6,196.7c0-0.3,0.1-0.6,0.2-0.9c0.2-0.3,0.4-0.5,0.7-0.7
		c0.3-0.2,0.6-0.3,1-0.3c0.4,0,0.7,0.1,0.9,0.2s0.5,0.4,0.6,0.7c0.1,0.3,0.2,0.6,0.2,1H75.6z"/>
</g>
<g>
	<path d="M47.3,286.6c-0.5-0.3-1.1-0.4-1.8-0.4h-3.4v9.5h1.4v-3.3h1.9c0.7,0,1.3-0.1,1.8-0.4c0.5-0.3,0.8-0.6,1.1-1.1
		c0.2-0.5,0.4-1,0.4-1.6c0-0.6-0.1-1.1-0.4-1.6C48.1,287.3,47.8,286.9,47.3,286.6z M47.1,290.2c-0.1,0.3-0.3,0.5-0.6,0.7
		c-0.3,0.2-0.7,0.2-1.1,0.2h-1.8v-3.7h1.8c0.5,0,0.9,0.1,1.1,0.2c0.3,0.2,0.5,0.4,0.6,0.7s0.2,0.6,0.2,1
		C47.3,289.6,47.2,290,47.1,290.2z"/>
	<path d="M51.7,291.4c0-0.3,0.1-0.6,0.2-0.8c0.1-0.2,0.3-0.4,0.6-0.6c0.3-0.1,0.5-0.2,0.9-0.2c0.1,0,0.3,0,0.4,0s0.2,0,0.3,0.1v-1.3
		c-0.1,0-0.2,0-0.3,0c-0.1,0-0.2,0-0.3,0c-0.4,0-0.8,0.1-1.1,0.3c-0.3,0.2-0.6,0.5-0.7,0.9h-0.1v-1.1h-1.3v7.1h1.4V291.4z"/>
	<path d="M61.1,294.1c0.3-0.5,0.4-1.2,0.4-1.9c0-0.7-0.1-1.4-0.4-1.9s-0.7-1-1.2-1.3s-1.1-0.5-1.7-0.5c-0.7,0-1.2,0.2-1.7,0.5
		s-0.9,0.7-1.2,1.3s-0.4,1.2-0.4,1.9c0,0.7,0.1,1.4,0.4,1.9s0.7,1,1.2,1.3s1.1,0.5,1.7,0.5c0.7,0,1.2-0.2,1.7-0.5
		S60.9,294.6,61.1,294.1z M60,293.4c-0.1,0.4-0.3,0.7-0.6,0.9c-0.3,0.2-0.6,0.3-1.1,0.3c-0.4,0-0.8-0.1-1.1-0.3
		c-0.3-0.2-0.5-0.5-0.6-0.9c-0.1-0.4-0.2-0.8-0.2-1.3c0-0.5,0.1-0.9,0.2-1.2c0.1-0.4,0.3-0.7,0.6-0.9c0.3-0.2,0.6-0.3,1.1-0.3
		c0.4,0,0.8,0.1,1.1,0.3c0.3,0.2,0.5,0.5,0.6,0.9c0.1,0.4,0.2,0.8,0.2,1.2C60.2,292.6,60.1,293,60,293.4z"/>
	<polygon points="67.7,288.6 65.9,294 65.8,294 64,288.6 62.5,288.6 65.1,295.7 66.6,295.7 69.2,288.6 	"/>
	<path d="M71.2,285.9c-0.2,0-0.4,0.1-0.6,0.2s-0.3,0.4-0.3,0.6c0,0.2,0.1,0.4,0.3,0.6s0.4,0.2,0.6,0.2s0.4-0.1,0.6-0.2
		s0.3-0.4,0.3-0.6c0-0.2-0.1-0.4-0.3-0.6S71.4,285.9,71.2,285.9z"/>
	<rect x="70.5" y="288.6" width="1.4" height="7.1"/>
	<path d="M78.5,289.7L78.5,289.7c-0.2-0.1-0.3-0.3-0.4-0.5c-0.1-0.2-0.4-0.4-0.6-0.5c-0.3-0.1-0.6-0.2-1.1-0.2
		c-0.6,0-1.1,0.1-1.5,0.4c-0.4,0.3-0.8,0.7-1.1,1.3c-0.3,0.5-0.4,1.2-0.4,2c0,0.8,0.1,1.4,0.4,2s0.6,1,1.1,1.3
		c0.4,0.3,1,0.4,1.5,0.4c0.4,0,0.8-0.1,1.1-0.2c0.3-0.1,0.5-0.3,0.6-0.5c0.2-0.2,0.3-0.4,0.4-0.5h0.1v1.1h1.3v-9.5h-1.4V289.7z
		 M78.3,293.4c-0.1,0.4-0.4,0.7-0.6,0.9c-0.3,0.2-0.6,0.3-1,0.3c-0.4,0-0.8-0.1-1-0.3c-0.3-0.2-0.5-0.5-0.6-0.9s-0.2-0.8-0.2-1.3
		c0-0.5,0.1-0.9,0.2-1.3s0.3-0.7,0.6-0.9c0.3-0.2,0.6-0.3,1-0.3c0.4,0,0.7,0.1,1,0.3c0.3,0.2,0.5,0.5,0.6,0.9
		c0.1,0.4,0.2,0.8,0.2,1.3C78.5,292.6,78.4,293.1,78.3,293.4z"/>
	<path d="M87.9,292.1c0-0.6-0.1-1.2-0.3-1.6c-0.2-0.5-0.4-0.8-0.7-1.1c-0.3-0.3-0.6-0.5-1-0.6s-0.8-0.2-1.2-0.2
		c-0.7,0-1.2,0.2-1.7,0.5c-0.5,0.3-0.9,0.7-1.1,1.3c-0.3,0.6-0.4,1.2-0.4,1.9c0,0.7,0.1,1.4,0.4,1.9c0.3,0.5,0.7,1,1.2,1.3
		c0.5,0.3,1.1,0.5,1.8,0.5c0.5,0,1-0.1,1.4-0.2c0.4-0.2,0.7-0.4,1-0.7c0.3-0.3,0.5-0.6,0.6-1l-1.3-0.2c-0.1,0.2-0.2,0.4-0.4,0.6
		c-0.2,0.2-0.3,0.3-0.6,0.3c-0.2,0.1-0.5,0.1-0.7,0.1c-0.4,0-0.8-0.1-1.1-0.3c-0.3-0.2-0.5-0.4-0.7-0.8c-0.2-0.3-0.2-0.7-0.2-1.1h5
		V292.1z M82.9,291.5c0-0.3,0.1-0.6,0.2-0.9c0.2-0.3,0.4-0.5,0.7-0.7c0.3-0.2,0.6-0.3,1-0.3c0.4,0,0.7,0.1,0.9,0.2s0.5,0.4,0.6,0.7
		c0.1,0.3,0.2,0.6,0.2,1H82.9z"/>
	<path d="M56.7,302.4c-0.7-0.4-1.5-0.6-2.4-0.6h-3.2v9.5h3.1c1,0,1.8-0.2,2.5-0.6c0.7-0.4,1.2-0.9,1.6-1.6c0.4-0.7,0.5-1.6,0.5-2.5
		c0-1-0.2-1.8-0.5-2.5S57.4,302.8,56.7,302.4z M57,308.4c-0.2,0.5-0.6,0.9-1.1,1.2c-0.5,0.3-1.1,0.4-1.8,0.4h-1.6v-7h1.6
		c0.7,0,1.3,0.1,1.7,0.4c0.5,0.3,0.8,0.7,1.1,1.2s0.4,1.1,0.4,1.9C57.4,307.3,57.3,307.9,57,308.4z"/>
	<path d="M65.1,304.6c-0.3-0.2-0.6-0.3-0.9-0.4c-0.3-0.1-0.6-0.1-0.9-0.1c-0.4,0-0.8,0.1-1.2,0.2s-0.7,0.3-1,0.6
		c-0.3,0.3-0.5,0.6-0.7,1l1.3,0.3c0.1-0.2,0.3-0.5,0.6-0.7c0.3-0.2,0.6-0.3,1.1-0.3c0.4,0,0.8,0.1,1,0.3c0.2,0.2,0.3,0.5,0.3,0.9v0
		c0,0.2-0.1,0.3-0.2,0.4c-0.1,0.1-0.3,0.1-0.6,0.2c-0.3,0-0.6,0.1-1,0.1c-0.3,0-0.7,0.1-1,0.2c-0.3,0.1-0.6,0.2-0.9,0.3
		c-0.3,0.2-0.5,0.4-0.6,0.6c-0.2,0.3-0.2,0.6-0.2,1c0,0.5,0.1,0.9,0.3,1.2c0.2,0.3,0.5,0.6,0.9,0.7c0.4,0.2,0.8,0.3,1.2,0.3
		c0.4,0,0.7-0.1,1-0.2c0.3-0.1,0.5-0.3,0.7-0.4c0.2-0.2,0.3-0.3,0.4-0.5h0.1v1H66v-4.7c0-0.5-0.1-0.9-0.3-1.3
		C65.6,305,65.4,304.7,65.1,304.6z M64.7,308.7c0,0.3-0.1,0.5-0.2,0.8c-0.1,0.2-0.4,0.4-0.6,0.6s-0.6,0.2-1,0.2
		c-0.4,0-0.7-0.1-1-0.3s-0.4-0.4-0.4-0.8c0-0.2,0.1-0.4,0.2-0.6c0.1-0.1,0.3-0.3,0.5-0.3c0.2-0.1,0.5-0.1,0.7-0.2
		c0.1,0,0.3,0,0.4-0.1c0.2,0,0.3,0,0.5-0.1c0.2,0,0.3-0.1,0.5-0.1c0.1,0,0.2-0.1,0.3-0.1V308.7z"/>
	<path d="M70.9,310.1c-0.1,0-0.2,0-0.3,0c-0.2,0-0.3,0-0.4-0.1c-0.1,0-0.2-0.1-0.3-0.3s-0.1-0.3-0.1-0.6v-3.9h1.5v-1.1h-1.5v-1.7
		h-1.4v1.7h-1v1.1h1v4.2c0,0.4,0.1,0.8,0.3,1.1s0.4,0.5,0.8,0.6s0.7,0.2,1,0.2c0.2,0,0.4,0,0.6-0.1c0.1,0,0.3-0.1,0.3-0.1l-0.2-1.1
		C71,310.1,70.9,310.1,70.9,310.1z"/>
	<path d="M77.8,304.9c-0.3-0.3-0.6-0.5-1-0.6s-0.8-0.2-1.2-0.2c-0.7,0-1.2,0.2-1.7,0.5c-0.5,0.3-0.9,0.7-1.1,1.3
		c-0.3,0.6-0.4,1.2-0.4,1.9c0,0.7,0.1,1.4,0.4,1.9c0.3,0.5,0.7,1,1.2,1.3c0.5,0.3,1.1,0.5,1.8,0.5c0.5,0,1-0.1,1.4-0.2
		c0.4-0.2,0.7-0.4,1-0.7c0.3-0.3,0.5-0.6,0.6-1l-1.3-0.2c-0.1,0.2-0.2,0.4-0.4,0.6c-0.2,0.2-0.3,0.3-0.6,0.3
		c-0.2,0.1-0.5,0.1-0.7,0.1c-0.4,0-0.8-0.1-1.1-0.3c-0.3-0.2-0.5-0.4-0.7-0.8c-0.2-0.3-0.2-0.7-0.2-1.1h5v-0.5
		c0-0.6-0.1-1.2-0.3-1.6C78.4,305.6,78.1,305.2,77.8,304.9z M73.8,307.1c0-0.3,0.1-0.6,0.2-0.9c0.2-0.3,0.4-0.5,0.7-0.7
		c0.3-0.2,0.6-0.3,1-0.3c0.4,0,0.7,0.1,0.9,0.2s0.5,0.4,0.6,0.7c0.1,0.3,0.2,0.6,0.2,1H73.8z"/>
</g>
<g>
	<path d="M46,415.3c-0.5-0.3-1.1-0.4-1.8-0.4h-3.4v9.5h1.4V421h1.9c0.7,0,1.3-0.1,1.8-0.4c0.5-0.3,0.8-0.6,1.1-1.1
		c0.2-0.5,0.4-1,0.4-1.6c0-0.6-0.1-1.1-0.4-1.6C46.8,415.9,46.4,415.6,46,415.3z M45.8,418.9c-0.1,0.3-0.3,0.5-0.6,0.7
		c-0.3,0.2-0.7,0.2-1.1,0.2h-1.8v-3.7H44c0.5,0,0.9,0.1,1.1,0.2c0.3,0.2,0.5,0.4,0.6,0.7s0.2,0.6,0.2,1
		C46,418.3,45.9,418.6,45.8,418.9z"/>
	<path d="M52.2,417.2c-0.4,0-0.8,0.1-1.1,0.3c-0.3,0.2-0.6,0.5-0.7,0.9h-0.1v-1.1H49v7.1h1.4V420c0-0.3,0.1-0.6,0.2-0.8
		c0.1-0.2,0.3-0.4,0.6-0.6c0.3-0.1,0.5-0.2,0.9-0.2c0.1,0,0.3,0,0.4,0s0.2,0,0.3,0.1v-1.3c-0.1,0-0.2,0-0.3,0
		C52.4,417.2,52.3,417.2,52.2,417.2z"/>
	<path d="M59.1,418c-0.3-0.3-0.6-0.5-1-0.6s-0.8-0.2-1.2-0.2c-0.7,0-1.2,0.2-1.7,0.5c-0.5,0.3-0.9,0.7-1.1,1.3
		c-0.3,0.6-0.4,1.2-0.4,1.9c0,0.7,0.1,1.4,0.4,1.9c0.3,0.5,0.7,1,1.2,1.3c0.5,0.3,1.1,0.5,1.8,0.5c0.5,0,1-0.1,1.4-0.2
		c0.4-0.2,0.7-0.4,1-0.7c0.3-0.3,0.5-0.6,0.6-1l-1.3-0.2c-0.1,0.2-0.2,0.4-0.4,0.6c-0.2,0.2-0.3,0.3-0.6,0.3
		c-0.2,0.1-0.5,0.1-0.7,0.1c-0.4,0-0.8-0.1-1.1-0.3c-0.3-0.2-0.5-0.4-0.7-0.8c-0.2-0.3-0.2-0.7-0.2-1.1h5v-0.5
		c0-0.6-0.1-1.2-0.3-1.6C59.6,418.7,59.4,418.3,59.1,418z M55,420.2c0-0.3,0.1-0.6,0.2-0.9c0.2-0.3,0.4-0.5,0.7-0.7
		c0.3-0.2,0.6-0.3,1-0.3c0.4,0,0.7,0.1,0.9,0.2s0.5,0.4,0.6,0.7c0.1,0.3,0.2,0.6,0.2,1H55z"/>
	<polygon points="64.4,422.7 64.3,422.7 62.5,417.3 61,417.3 63.6,424.4 65.1,424.4 67.7,417.3 66.2,417.3 	"/>
	<path d="M69.6,414.5c-0.2,0-0.4,0.1-0.6,0.2s-0.3,0.4-0.3,0.6c0,0.2,0.1,0.4,0.3,0.6s0.4,0.2,0.6,0.2s0.4-0.1,0.6-0.2
		s0.3-0.4,0.3-0.6c0-0.2-0.1-0.4-0.3-0.6S69.9,414.5,69.6,414.5z"/>
	<rect x="69" y="417.3" width="1.4" height="7.1"/>
	<path d="M77.3,418c-0.3-0.3-0.6-0.5-1-0.6s-0.8-0.2-1.2-0.2c-0.7,0-1.2,0.2-1.7,0.5c-0.5,0.3-0.9,0.7-1.1,1.3
		c-0.3,0.6-0.4,1.2-0.4,1.9c0,0.7,0.1,1.4,0.4,1.9c0.3,0.5,0.7,1,1.2,1.3c0.5,0.3,1.1,0.5,1.8,0.5c0.5,0,1-0.1,1.4-0.2
		c0.4-0.2,0.7-0.4,1-0.7c0.3-0.3,0.5-0.6,0.6-1l-1.3-0.2c-0.1,0.2-0.2,0.4-0.4,0.6c-0.2,0.2-0.3,0.3-0.6,0.3
		c-0.2,0.1-0.5,0.1-0.7,0.1c-0.4,0-0.8-0.1-1.1-0.3c-0.3-0.2-0.5-0.4-0.7-0.8c-0.2-0.3-0.2-0.7-0.2-1.1h5v-0.5
		c0-0.6-0.1-1.2-0.3-1.6C77.9,418.7,77.6,418.3,77.3,418z M73.3,420.2c0-0.3,0.1-0.6,0.2-0.9c0.2-0.3,0.4-0.5,0.7-0.7
		c0.3-0.2,0.6-0.3,1-0.3c0.4,0,0.7,0.1,0.9,0.2s0.5,0.4,0.6,0.7c0.1,0.3,0.2,0.6,0.2,1H73.3z"/>
	<polygon points="87.8,417.3 86.4,422.5 86.4,422.5 85,417.3 83.6,417.3 82.2,422.5 82.1,422.5 80.7,417.3 79.3,417.3 81.4,424.4 
		82.8,424.4 84.2,419.2 84.3,419.2 85.8,424.4 87.2,424.4 89.2,417.3 	"/>
</g>
</svg>
