<?xml version="1.0" encoding="utf-8"?>
<!-- Generator: Adobe Illustrator 26.0.1, SVG Export Plug-In . SVG Version: 6.00 Build 0)  -->
<svg version="1.1" id="Layer_1" xmlns="http://www.w3.org/2000/svg" xmlns:xlink="http://www.w3.org/1999/xlink" x="0px" y="0px"
	 viewBox="0 0 130 366.4" style="enable-background:new 0 0 130 366.4;" xml:space="preserve">
<style type="text/css">
	.st0{fill:#EC7E30;}
	.st1{fill:#FFFFFF;}
	.st2{fill:#A5A4A4;}
	.st3{fill:#FDC015;}
</style>
<g>
	<circle class="st0" cx="65" cy="301.4" r="65"/>
	<circle class="st1" cx="65" cy="301.4" r="59.9"/>
	<path class="st2" d="M127.7,181.4c0.3,39.2-36.2,61.2-62.2,83.9c-1.6,1.5-25.8-22.6-28.8-25.2C19,224.5,1.9,205.4,2.4,180.2
		c0.4-22.8,13.6-44.1,33.7-54.7c9-4.7,19.1-7.2,29.4-7.2C102.1,118.3,127.5,149,127.7,181.4z"/>
	<circle class="st1" cx="65" cy="180.6" r="57"/>
	<path class="st3" d="M127.7,63.2c0.3,39.2-36.2,61.2-62.2,83.9c-1.6,1.5-25.8-22.6-28.8-25.2C19,106.3,1.9,87.2,2.4,62
		C2.8,39.2,16,17.9,36.1,7.2C45.1,2.5,55.2,0,65.5,0C102.1,0.1,127.5,30.8,127.7,63.2z"/>
	<circle class="st1" cx="65" cy="62.3" r="57"/>
	<g>
		<path d="M49.1,53h-1.4c-0.1-0.3-0.2-0.6-0.3-0.8s-0.3-0.4-0.6-0.6c-0.2-0.2-0.5-0.3-0.7-0.4s-0.6-0.1-0.9-0.1
			c-0.5,0-1,0.1-1.5,0.4s-0.8,0.7-1,1.2c-0.2,0.5-0.4,1.2-0.4,1.9c0,0.8,0.1,1.4,0.4,1.9c0.2,0.5,0.6,0.9,1,1.2
			c0.4,0.3,0.9,0.4,1.5,0.4c0.3,0,0.6,0,0.9-0.1c0.3-0.1,0.5-0.2,0.7-0.4c0.2-0.2,0.4-0.4,0.6-0.6c0.2-0.2,0.3-0.5,0.3-0.8l1.4,0
			c-0.1,0.5-0.2,0.9-0.4,1.3c-0.2,0.4-0.5,0.7-0.8,1s-0.7,0.5-1.2,0.7c-0.4,0.2-0.9,0.2-1.4,0.2c-0.8,0-1.5-0.2-2.2-0.6
			c-0.6-0.4-1.1-0.9-1.5-1.7c-0.4-0.7-0.6-1.6-0.6-2.6c0-1,0.2-1.9,0.6-2.6c0.4-0.7,0.9-1.3,1.5-1.7c0.6-0.4,1.4-0.6,2.2-0.6
			c0.5,0,1,0.1,1.4,0.2s0.8,0.4,1.2,0.6s0.6,0.6,0.9,1C48.9,52,49.1,52.5,49.1,53z"/>
		<path d="M52.1,49.9v9.5h-1.4v-9.5H52.1z"/>
		<path d="M54.7,51.2c-0.2,0-0.4-0.1-0.6-0.2s-0.3-0.4-0.3-0.6c0-0.2,0.1-0.4,0.3-0.6s0.4-0.2,0.6-0.2s0.4,0.1,0.6,0.2
			s0.3,0.4,0.3,0.6c0,0.2-0.1,0.4-0.3,0.6S54.9,51.2,54.7,51.2z M54,59.4v-7.1h1.4v7.1H54z"/>
		<path d="M60.2,59.5c-0.7,0-1.3-0.2-1.8-0.5c-0.5-0.3-0.9-0.7-1.1-1.3c-0.3-0.6-0.4-1.2-0.4-1.9c0-0.7,0.1-1.4,0.4-1.9
			c0.3-0.6,0.7-1,1.1-1.3c0.5-0.3,1.1-0.5,1.7-0.5c0.5,0,1,0.1,1.4,0.3c0.4,0.2,0.8,0.5,1,0.8s0.4,0.8,0.5,1.3h-1.3
			c-0.1-0.3-0.2-0.6-0.5-0.9c-0.3-0.2-0.6-0.4-1.1-0.4c-0.4,0-0.7,0.1-1,0.3c-0.3,0.2-0.5,0.5-0.7,0.9c-0.2,0.4-0.2,0.8-0.2,1.3
			c0,0.5,0.1,1,0.2,1.3c0.2,0.4,0.4,0.7,0.7,0.9c0.3,0.2,0.6,0.3,1,0.3c0.3,0,0.5,0,0.7-0.1c0.2-0.1,0.4-0.2,0.5-0.4
			c0.1-0.2,0.2-0.4,0.3-0.7h1.3c0,0.5-0.2,0.9-0.4,1.2c-0.2,0.4-0.6,0.6-1,0.8C61.2,59.4,60.8,59.5,60.2,59.5z"/>
		<path d="M64.6,59.4v-9.5H66v9.5H64.6z M65.9,57l0-1.7h0.2l2.8-3h1.7l-3.2,3.4h-0.2L65.9,57z M69.1,59.4L66.5,56l1-1l3.3,4.3H69.1z
			"/>
		<path d="M78.3,59.5c-0.7,0-1.2-0.2-1.7-0.5s-0.9-0.7-1.2-1.3S75,56.6,75,55.9c0-0.7,0.1-1.4,0.4-1.9s0.7-1,1.2-1.3
			s1.1-0.5,1.7-0.5c0.7,0,1.2,0.2,1.7,0.5s0.9,0.7,1.2,1.3s0.4,1.2,0.4,1.9c0,0.7-0.1,1.4-0.4,1.9s-0.7,1-1.2,1.3
			S78.9,59.5,78.3,59.5z M78.3,58.4c0.4,0,0.8-0.1,1.1-0.3c0.3-0.2,0.5-0.5,0.6-0.9c0.1-0.4,0.2-0.8,0.2-1.3c0-0.5-0.1-0.9-0.2-1.2
			c-0.1-0.4-0.3-0.7-0.6-0.9c-0.3-0.2-0.6-0.3-1.1-0.3c-0.4,0-0.8,0.1-1.1,0.3c-0.3,0.2-0.5,0.5-0.6,0.9c-0.1,0.4-0.2,0.8-0.2,1.2
			c0,0.5,0.1,0.9,0.2,1.3c0.1,0.4,0.3,0.7,0.6,0.9C77.5,58.2,77.8,58.4,78.3,58.4z"/>
		<path d="M84.5,55.2v4.2h-1.4v-7.1h1.3v1.2h0.1c0.2-0.4,0.4-0.7,0.8-0.9c0.3-0.2,0.8-0.3,1.3-0.3c0.5,0,0.9,0.1,1.3,0.3
			c0.4,0.2,0.6,0.5,0.8,0.9c0.2,0.4,0.3,0.9,0.3,1.5v4.5h-1.4V55c0-0.5-0.1-0.9-0.4-1.2c-0.3-0.3-0.6-0.4-1.1-0.4
			c-0.3,0-0.6,0.1-0.9,0.2c-0.2,0.1-0.4,0.3-0.6,0.6S84.5,54.8,84.5,55.2z"/>
		<path d="M56.7,68.6h-1.4c-0.1-0.3-0.2-0.6-0.3-0.8s-0.3-0.4-0.6-0.6c-0.2-0.2-0.5-0.3-0.7-0.4s-0.6-0.1-0.9-0.1
			c-0.5,0-1,0.1-1.5,0.4s-0.8,0.7-1,1.2c-0.2,0.5-0.4,1.2-0.4,1.9c0,0.8,0.1,1.4,0.4,1.9c0.2,0.5,0.6,0.9,1,1.2
			c0.4,0.3,0.9,0.4,1.5,0.4c0.3,0,0.6,0,0.9-0.1c0.3-0.1,0.5-0.2,0.7-0.4c0.2-0.2,0.4-0.4,0.6-0.6c0.2-0.2,0.3-0.5,0.3-0.8l1.4,0
			c-0.1,0.5-0.2,0.9-0.4,1.3c-0.2,0.4-0.5,0.7-0.8,1s-0.7,0.5-1.2,0.7c-0.4,0.2-0.9,0.2-1.4,0.2c-0.8,0-1.5-0.2-2.2-0.6
			c-0.6-0.4-1.1-0.9-1.5-1.7c-0.4-0.7-0.6-1.6-0.6-2.6c0-1,0.2-1.9,0.6-2.6c0.4-0.7,0.9-1.3,1.5-1.7c0.6-0.4,1.4-0.6,2.2-0.6
			c0.5,0,1,0.1,1.4,0.2s0.8,0.4,1.2,0.6s0.6,0.6,0.9,1C56.4,67.6,56.6,68.1,56.7,68.6z"/>
		<path d="M59.7,70.8V75h-1.4v-9.5h1.4V69h0.1c0.2-0.4,0.4-0.7,0.8-0.9s0.8-0.3,1.3-0.3c0.5,0,0.9,0.1,1.3,0.3
			c0.4,0.2,0.6,0.5,0.8,0.9c0.2,0.4,0.3,0.9,0.3,1.5V75h-1.4v-4.3c0-0.5-0.1-0.9-0.4-1.2c-0.3-0.3-0.6-0.4-1.1-0.4
			c-0.3,0-0.6,0.1-0.9,0.2s-0.5,0.3-0.6,0.6C59.7,70.1,59.7,70.4,59.7,70.8z"/>
		<path d="M68.2,75.1c-0.4,0-0.9-0.1-1.2-0.3c-0.4-0.2-0.7-0.4-0.9-0.7c-0.2-0.3-0.3-0.7-0.3-1.2c0-0.4,0.1-0.7,0.2-1
			c0.2-0.3,0.4-0.5,0.6-0.6c0.3-0.2,0.6-0.3,0.9-0.3c0.3-0.1,0.7-0.1,1-0.2c0.4,0,0.8-0.1,1-0.1c0.3,0,0.5-0.1,0.6-0.2
			c0.1-0.1,0.2-0.2,0.2-0.4v0c0-0.4-0.1-0.7-0.3-0.9c-0.2-0.2-0.6-0.3-1-0.3c-0.5,0-0.8,0.1-1.1,0.3c-0.3,0.2-0.5,0.4-0.6,0.7
			L66,69.6c0.2-0.4,0.4-0.8,0.7-1c0.3-0.3,0.6-0.5,1-0.6s0.8-0.2,1.2-0.2c0.3,0,0.6,0,0.9,0.1c0.3,0.1,0.6,0.2,0.9,0.4
			c0.3,0.2,0.5,0.4,0.7,0.8c0.2,0.3,0.3,0.7,0.3,1.3V75h-1.3v-1h-0.1c-0.1,0.2-0.2,0.4-0.4,0.5c-0.2,0.2-0.4,0.3-0.7,0.4
			C68.9,75.1,68.6,75.1,68.2,75.1z M68.5,74c0.4,0,0.7-0.1,1-0.2s0.5-0.3,0.6-0.6c0.1-0.2,0.2-0.5,0.2-0.8v-0.9c0,0-0.1,0.1-0.3,0.1
			c-0.1,0-0.3,0.1-0.5,0.1c-0.2,0-0.4,0.1-0.5,0.1c-0.2,0-0.3,0-0.4,0.1c-0.3,0-0.5,0.1-0.7,0.2c-0.2,0.1-0.4,0.2-0.5,0.3
			c-0.1,0.1-0.2,0.3-0.2,0.6c0,0.3,0.1,0.6,0.4,0.8S68.1,74,68.5,74z"/>
		<path d="M73.5,75v-7.1h1.3V69h0.1c0.1-0.4,0.4-0.7,0.7-0.9c0.3-0.2,0.7-0.3,1.1-0.3c0.1,0,0.2,0,0.3,0c0.1,0,0.2,0,0.3,0v1.3
			c-0.1,0-0.2,0-0.3-0.1s-0.3,0-0.4,0c-0.3,0-0.6,0.1-0.9,0.2c-0.3,0.1-0.5,0.3-0.6,0.6c-0.1,0.2-0.2,0.5-0.2,0.8V75H73.5z"/>
		<path d="M81.8,67.9V69h-3.9v-1.1H81.8z M79,66.2h1.4v6.7c0,0.3,0,0.5,0.1,0.6s0.2,0.2,0.3,0.3c0.1,0,0.3,0.1,0.4,0.1
			c0.1,0,0.2,0,0.3,0c0.1,0,0.1,0,0.2,0l0.2,1.1c-0.1,0-0.2,0.1-0.3,0.1c-0.1,0-0.3,0.1-0.6,0.1c-0.4,0-0.7-0.1-1-0.2
			s-0.6-0.3-0.8-0.6S79,73.6,79,73.2V66.2z"/>
	</g>
	<g>
		<path d="M51.6,169.2c0-0.4-0.3-0.8-0.6-1s-0.8-0.4-1.3-0.4c-0.4,0-0.7,0.1-1,0.2s-0.5,0.3-0.7,0.5c-0.2,0.2-0.2,0.5-0.2,0.7
			c0,0.2,0.1,0.4,0.2,0.6c0.1,0.2,0.2,0.3,0.4,0.4c0.2,0.1,0.4,0.2,0.6,0.3c0.2,0.1,0.4,0.1,0.6,0.2l0.9,0.2
			c0.3,0.1,0.6,0.2,0.9,0.3c0.3,0.1,0.6,0.3,0.9,0.5c0.3,0.2,0.5,0.5,0.7,0.8c0.2,0.3,0.3,0.7,0.3,1.1c0,0.5-0.1,1-0.4,1.4
			s-0.7,0.7-1.2,1c-0.5,0.2-1.2,0.4-1.9,0.4c-0.7,0-1.3-0.1-1.8-0.3s-0.9-0.5-1.2-1c-0.3-0.4-0.5-0.9-0.5-1.5h1.4
			c0,0.3,0.1,0.6,0.3,0.9c0.2,0.2,0.4,0.4,0.8,0.5c0.3,0.1,0.6,0.2,1,0.2c0.4,0,0.8-0.1,1.1-0.2s0.6-0.3,0.7-0.5
			c0.2-0.2,0.3-0.5,0.3-0.8c0-0.3-0.1-0.5-0.2-0.7c-0.2-0.2-0.4-0.3-0.6-0.4c-0.3-0.1-0.6-0.2-0.9-0.3l-1.1-0.3
			c-0.8-0.2-1.4-0.5-1.8-0.9c-0.4-0.4-0.7-0.9-0.7-1.6c0-0.5,0.1-1,0.4-1.4s0.7-0.7,1.2-0.9c0.5-0.2,1.1-0.3,1.7-0.3
			c0.6,0,1.2,0.1,1.7,0.3s0.9,0.5,1.2,0.9c0.3,0.4,0.4,0.8,0.4,1.4H51.6z"/>
		<path d="M57.7,176.4c-0.7,0-1.3-0.1-1.8-0.5c-0.5-0.3-0.9-0.7-1.2-1.3c-0.3-0.5-0.4-1.2-0.4-1.9c0-0.7,0.1-1.4,0.4-1.9
			c0.3-0.6,0.7-1,1.1-1.3c0.5-0.3,1.1-0.5,1.7-0.5c0.4,0,0.8,0.1,1.2,0.2s0.7,0.3,1,0.6c0.3,0.3,0.5,0.6,0.7,1.1
			c0.2,0.5,0.3,1,0.3,1.6v0.5h-5.6v-1h4.3c0-0.4-0.1-0.7-0.2-1c-0.1-0.3-0.4-0.5-0.6-0.7s-0.6-0.2-0.9-0.2c-0.4,0-0.7,0.1-1,0.3
			c-0.3,0.2-0.5,0.4-0.7,0.7s-0.2,0.6-0.2,1v0.8c0,0.5,0.1,0.9,0.3,1.2c0.2,0.3,0.4,0.6,0.7,0.8c0.3,0.2,0.7,0.3,1.1,0.3
			c0.3,0,0.5,0,0.7-0.1c0.2-0.1,0.4-0.2,0.6-0.3c0.2-0.2,0.3-0.3,0.4-0.6l1.3,0.2c-0.1,0.4-0.3,0.7-0.6,1c-0.3,0.3-0.6,0.5-1,0.7
			C58.7,176.3,58.2,176.4,57.7,176.4z"/>
		<path d="M63.7,166.8v9.5h-1.4v-9.5H63.7z"/>
		<path d="M68.6,176.4c-0.7,0-1.3-0.1-1.8-0.5c-0.5-0.3-0.9-0.7-1.2-1.3c-0.3-0.5-0.4-1.2-0.4-1.9c0-0.7,0.1-1.4,0.4-1.9
			c0.3-0.6,0.7-1,1.1-1.3c0.5-0.3,1.1-0.5,1.7-0.5c0.4,0,0.8,0.1,1.2,0.2s0.7,0.3,1,0.6c0.3,0.3,0.5,0.6,0.7,1.1
			c0.2,0.5,0.3,1,0.3,1.6v0.5H66v-1h4.3c0-0.4-0.1-0.7-0.2-1c-0.1-0.3-0.4-0.5-0.6-0.7s-0.6-0.2-0.9-0.2c-0.4,0-0.7,0.1-1,0.3
			c-0.3,0.2-0.5,0.4-0.7,0.7s-0.2,0.6-0.2,1v0.8c0,0.5,0.1,0.9,0.3,1.2c0.2,0.3,0.4,0.6,0.7,0.8c0.3,0.2,0.7,0.3,1.1,0.3
			c0.3,0,0.5,0,0.7-0.1c0.2-0.1,0.4-0.2,0.6-0.3c0.2-0.2,0.3-0.3,0.4-0.6l1.3,0.2c-0.1,0.4-0.3,0.7-0.6,1c-0.3,0.3-0.6,0.5-1,0.7
			C69.6,176.3,69.1,176.4,68.6,176.4z"/>
		<path d="M76.1,176.4c-0.7,0-1.3-0.2-1.8-0.5c-0.5-0.3-0.9-0.7-1.1-1.3c-0.3-0.6-0.4-1.2-0.4-1.9c0-0.7,0.1-1.4,0.4-1.9
			c0.3-0.6,0.7-1,1.1-1.3c0.5-0.3,1.1-0.5,1.7-0.5c0.5,0,1,0.1,1.4,0.3c0.4,0.2,0.8,0.5,1,0.8s0.4,0.8,0.5,1.3h-1.3
			c-0.1-0.3-0.2-0.6-0.5-0.9c-0.3-0.2-0.6-0.4-1.1-0.4c-0.4,0-0.7,0.1-1,0.3c-0.3,0.2-0.5,0.5-0.7,0.9c-0.2,0.4-0.2,0.8-0.2,1.3
			c0,0.5,0.1,1,0.2,1.3c0.2,0.4,0.4,0.7,0.7,0.9c0.3,0.2,0.6,0.3,1,0.3c0.3,0,0.5,0,0.7-0.1c0.2-0.1,0.4-0.2,0.5-0.4
			c0.1-0.2,0.2-0.4,0.3-0.7h1.3c0,0.5-0.2,0.9-0.4,1.2c-0.2,0.4-0.6,0.6-1,0.8C77.2,176.3,76.7,176.4,76.1,176.4z"/>
		<path d="M83.8,169.1v1.1H80v-1.1H83.8z M81,167.4h1.4v6.7c0,0.3,0,0.5,0.1,0.6s0.2,0.2,0.3,0.3c0.1,0,0.3,0.1,0.4,0.1
			c0.1,0,0.2,0,0.3,0c0.1,0,0.1,0,0.2,0l0.2,1.1c-0.1,0-0.2,0.1-0.3,0.1c-0.1,0-0.3,0.1-0.6,0.1c-0.4,0-0.7-0.1-1-0.2
			s-0.6-0.3-0.8-0.6s-0.3-0.6-0.3-1.1V167.4z"/>
		<path d="M52.7,184.8c0-0.4-0.3-0.8-0.6-1s-0.8-0.4-1.3-0.4c-0.4,0-0.7,0.1-1,0.2s-0.5,0.3-0.7,0.5c-0.2,0.2-0.2,0.5-0.2,0.7
			c0,0.2,0.1,0.4,0.2,0.6c0.1,0.2,0.2,0.3,0.4,0.4c0.2,0.1,0.4,0.2,0.6,0.3c0.2,0.1,0.4,0.1,0.6,0.2l0.9,0.2
			c0.3,0.1,0.6,0.2,0.9,0.3c0.3,0.1,0.6,0.3,0.9,0.5c0.3,0.2,0.5,0.5,0.7,0.8c0.2,0.3,0.3,0.7,0.3,1.1c0,0.5-0.1,1-0.4,1.4
			s-0.7,0.7-1.2,1c-0.5,0.2-1.2,0.4-1.9,0.4c-0.7,0-1.3-0.1-1.8-0.3s-0.9-0.5-1.2-1c-0.3-0.4-0.5-0.9-0.5-1.5h1.4
			c0,0.3,0.1,0.6,0.3,0.9c0.2,0.2,0.4,0.4,0.8,0.5c0.3,0.1,0.6,0.2,1,0.2c0.4,0,0.8-0.1,1.1-0.2s0.6-0.3,0.7-0.5
			c0.2-0.2,0.3-0.5,0.3-0.8c0-0.3-0.1-0.5-0.2-0.7c-0.2-0.2-0.4-0.3-0.6-0.4c-0.3-0.1-0.6-0.2-0.9-0.3l-1.1-0.3
			c-0.8-0.2-1.4-0.5-1.8-0.9c-0.4-0.4-0.7-0.9-0.7-1.6c0-0.5,0.1-1,0.4-1.4s0.7-0.7,1.2-0.9c0.5-0.2,1.1-0.3,1.7-0.3
			c0.6,0,1.2,0.1,1.7,0.3s0.9,0.5,1.2,0.9c0.3,0.4,0.4,0.8,0.4,1.4H52.7z"/>
		<path d="M58.8,192c-0.7,0-1.3-0.2-1.8-0.5c-0.5-0.3-0.9-0.7-1.1-1.3c-0.3-0.6-0.4-1.2-0.4-1.9c0-0.7,0.1-1.4,0.4-1.9
			c0.3-0.6,0.7-1,1.1-1.3c0.5-0.3,1.1-0.5,1.7-0.5c0.5,0,1,0.1,1.4,0.3c0.4,0.2,0.8,0.5,1,0.8s0.4,0.8,0.5,1.3h-1.3
			c-0.1-0.3-0.2-0.6-0.5-0.9c-0.3-0.2-0.6-0.4-1.1-0.4c-0.4,0-0.7,0.1-1,0.3c-0.3,0.2-0.5,0.5-0.7,0.9c-0.2,0.4-0.2,0.8-0.2,1.3
			c0,0.5,0.1,1,0.2,1.3c0.2,0.4,0.4,0.7,0.7,0.9c0.3,0.2,0.6,0.3,1,0.3c0.3,0,0.5,0,0.7-0.1c0.2-0.1,0.4-0.2,0.5-0.4
			c0.1-0.2,0.2-0.4,0.3-0.7h1.3c0,0.5-0.2,0.9-0.4,1.2c-0.2,0.4-0.6,0.6-1,0.8C59.8,191.9,59.3,192,58.8,192z"/>
		<path d="M63.2,191.8v-7.1h1.3v1.1h0.1c0.1-0.4,0.4-0.7,0.7-0.9c0.3-0.2,0.7-0.3,1.1-0.3c0.1,0,0.2,0,0.3,0c0.1,0,0.2,0,0.3,0v1.3
			c-0.1,0-0.2,0-0.3-0.1s-0.3,0-0.4,0c-0.3,0-0.6,0.1-0.9,0.2c-0.3,0.1-0.5,0.3-0.6,0.6c-0.1,0.2-0.2,0.5-0.2,0.8v4.3H63.2z"/>
		<path d="M68.9,183.6c-0.2,0-0.4-0.1-0.6-0.2S68,183,68,182.8c0-0.2,0.1-0.4,0.3-0.6s0.4-0.2,0.6-0.2s0.4,0.1,0.6,0.2
			s0.3,0.4,0.3,0.6c0,0.2-0.1,0.4-0.3,0.6S69.1,183.6,68.9,183.6z M68.2,191.8v-7.1h1.4v7.1H68.2z"/>
		<path d="M71.4,194.5v-9.8h1.3v1.1h0.1c0.1-0.1,0.2-0.3,0.3-0.5c0.2-0.2,0.4-0.4,0.6-0.5c0.3-0.1,0.6-0.2,1.1-0.2
			c0.6,0,1.1,0.1,1.5,0.4c0.4,0.3,0.8,0.7,1.1,1.3c0.3,0.5,0.4,1.2,0.4,2c0,0.8-0.1,1.4-0.4,2s-0.6,1-1.1,1.3s-1,0.4-1.5,0.4
			c-0.4,0-0.8-0.1-1.1-0.2s-0.5-0.3-0.6-0.5c-0.2-0.2-0.3-0.4-0.4-0.5h-0.1v3.8H71.4z M72.7,188.3c0,0.5,0.1,0.9,0.2,1.3
			s0.4,0.7,0.6,0.9s0.6,0.3,1,0.3c0.4,0,0.8-0.1,1-0.3c0.3-0.2,0.5-0.5,0.6-0.9s0.2-0.8,0.2-1.3c0-0.5-0.1-0.9-0.2-1.3
			c-0.1-0.4-0.3-0.7-0.6-0.9c-0.3-0.2-0.6-0.3-1-0.3c-0.4,0-0.7,0.1-1,0.3c-0.3,0.2-0.5,0.5-0.6,0.9
			C72.8,187.3,72.7,187.8,72.7,188.3z"/>
		<path d="M82.7,184.7v1.1h-3.9v-1.1H82.7z M79.9,183h1.4v6.7c0,0.3,0,0.5,0.1,0.6s0.2,0.2,0.3,0.3c0.1,0,0.3,0.1,0.4,0.1
			c0.1,0,0.2,0,0.3,0c0.1,0,0.1,0,0.2,0l0.2,1.1c-0.1,0-0.2,0.1-0.3,0.1c-0.1,0-0.3,0.1-0.6,0.1c-0.4,0-0.7-0.1-1-0.2
			s-0.6-0.3-0.8-0.6s-0.3-0.6-0.3-1.1V183z"/>
	</g>
	<g>
		<path d="M32.7,290.1c0-0.4-0.3-0.8-0.6-1s-0.8-0.4-1.3-0.4c-0.4,0-0.7,0.1-1,0.2s-0.5,0.3-0.7,0.5c-0.2,0.2-0.2,0.5-0.2,0.7
			c0,0.2,0.1,0.4,0.2,0.6c0.1,0.2,0.2,0.3,0.4,0.4c0.2,0.1,0.4,0.2,0.6,0.3c0.2,0.1,0.4,0.1,0.6,0.2l0.9,0.2
			c0.3,0.1,0.6,0.2,0.9,0.3c0.3,0.1,0.6,0.3,0.9,0.5c0.3,0.2,0.5,0.5,0.7,0.8c0.2,0.3,0.3,0.7,0.3,1.1c0,0.5-0.1,1-0.4,1.4
			s-0.7,0.7-1.2,1c-0.5,0.2-1.2,0.4-1.9,0.4c-0.7,0-1.3-0.1-1.8-0.3s-0.9-0.5-1.2-1c-0.3-0.4-0.5-0.9-0.5-1.5h1.4
			c0,0.3,0.1,0.6,0.3,0.9c0.2,0.2,0.4,0.4,0.8,0.5c0.3,0.1,0.6,0.2,1,0.2c0.4,0,0.8-0.1,1.1-0.2s0.6-0.3,0.7-0.5
			c0.2-0.2,0.3-0.5,0.3-0.8c0-0.3-0.1-0.5-0.2-0.7c-0.2-0.2-0.4-0.3-0.6-0.4c-0.3-0.1-0.6-0.2-0.9-0.3l-1.1-0.3
			c-0.8-0.2-1.4-0.5-1.8-0.9c-0.4-0.4-0.7-0.9-0.7-1.6c0-0.5,0.1-1,0.4-1.4s0.7-0.7,1.2-0.9c0.5-0.2,1.1-0.3,1.7-0.3
			c0.6,0,1.2,0.1,1.7,0.3s0.9,0.5,1.2,0.9c0.3,0.4,0.4,0.8,0.4,1.4H32.7z"/>
		<path d="M38.9,297.2c-0.7,0-1.3-0.1-1.8-0.5c-0.5-0.3-0.9-0.7-1.2-1.3c-0.3-0.5-0.4-1.2-0.4-1.9c0-0.7,0.1-1.4,0.4-1.9
			c0.3-0.6,0.7-1,1.1-1.3c0.5-0.3,1.1-0.5,1.7-0.5c0.4,0,0.8,0.1,1.2,0.2s0.7,0.3,1,0.6c0.3,0.3,0.5,0.6,0.7,1.1
			c0.2,0.5,0.3,1,0.3,1.6v0.5h-5.6v-1h4.3c0-0.4-0.1-0.7-0.2-1c-0.1-0.3-0.4-0.5-0.6-0.7s-0.6-0.2-0.9-0.2c-0.4,0-0.7,0.1-1,0.3
			c-0.3,0.2-0.5,0.4-0.7,0.7s-0.2,0.6-0.2,1v0.8c0,0.5,0.1,0.9,0.3,1.2c0.2,0.3,0.4,0.6,0.7,0.8c0.3,0.2,0.7,0.3,1.1,0.3
			c0.3,0,0.5,0,0.7-0.1c0.2-0.1,0.4-0.2,0.6-0.3c0.2-0.2,0.3-0.3,0.4-0.6l1.3,0.2c-0.1,0.4-0.3,0.7-0.6,1c-0.3,0.3-0.6,0.5-1,0.7
			C39.9,297.2,39.4,297.2,38.9,297.2z"/>
		<path d="M44.9,287.6v9.5h-1.4v-9.5H44.9z"/>
		<path d="M49.8,297.2c-0.7,0-1.3-0.1-1.8-0.5c-0.5-0.3-0.9-0.7-1.2-1.3c-0.3-0.5-0.4-1.2-0.4-1.9c0-0.7,0.1-1.4,0.4-1.9
			c0.3-0.6,0.7-1,1.1-1.3c0.5-0.3,1.1-0.5,1.7-0.5c0.4,0,0.8,0.1,1.2,0.2s0.7,0.3,1,0.6c0.3,0.3,0.5,0.6,0.7,1.1
			c0.2,0.5,0.3,1,0.3,1.6v0.5h-5.6v-1h4.3c0-0.4-0.1-0.7-0.2-1c-0.1-0.3-0.4-0.5-0.6-0.7s-0.6-0.2-0.9-0.2c-0.4,0-0.7,0.1-1,0.3
			c-0.3,0.2-0.5,0.4-0.7,0.7s-0.2,0.6-0.2,1v0.8c0,0.5,0.1,0.9,0.3,1.2c0.2,0.3,0.4,0.6,0.7,0.8c0.3,0.2,0.7,0.3,1.1,0.3
			c0.3,0,0.5,0,0.7-0.1c0.2-0.1,0.4-0.2,0.6-0.3c0.2-0.2,0.3-0.3,0.4-0.6l1.3,0.2c-0.1,0.4-0.3,0.7-0.6,1c-0.3,0.3-0.6,0.5-1,0.7
			C50.8,297.2,50.3,297.2,49.8,297.2z"/>
		<path d="M57.3,297.2c-0.7,0-1.3-0.2-1.8-0.5c-0.5-0.3-0.9-0.7-1.1-1.3c-0.3-0.6-0.4-1.2-0.4-1.9c0-0.7,0.1-1.4,0.4-1.9
			c0.3-0.6,0.7-1,1.1-1.3c0.5-0.3,1.1-0.5,1.7-0.5c0.5,0,1,0.1,1.4,0.3c0.4,0.2,0.8,0.5,1,0.8s0.4,0.8,0.5,1.3h-1.3
			c-0.1-0.3-0.2-0.6-0.5-0.9c-0.3-0.2-0.6-0.4-1.1-0.4c-0.4,0-0.7,0.1-1,0.3c-0.3,0.2-0.5,0.5-0.7,0.9c-0.2,0.4-0.2,0.8-0.2,1.3
			c0,0.5,0.1,1,0.2,1.3c0.2,0.4,0.4,0.7,0.7,0.9c0.3,0.2,0.6,0.3,1,0.3c0.3,0,0.5,0,0.7-0.1c0.2-0.1,0.4-0.2,0.5-0.4
			c0.1-0.2,0.2-0.4,0.3-0.7h1.3c0,0.5-0.2,0.9-0.4,1.2c-0.2,0.4-0.6,0.6-1,0.8C58.4,297.1,57.9,297.2,57.3,297.2z"/>
		<path d="M65,290v1.1h-3.9V290H65z M62.2,288.3h1.4v6.7c0,0.3,0,0.5,0.1,0.6s0.2,0.2,0.3,0.3c0.1,0,0.3,0.1,0.4,0.1
			c0.1,0,0.2,0,0.3,0c0.1,0,0.1,0,0.2,0l0.2,1.1c-0.1,0-0.2,0.1-0.3,0.1c-0.1,0-0.3,0.1-0.6,0.1c-0.4,0-0.7-0.1-1-0.2
			s-0.6-0.3-0.8-0.6s-0.3-0.6-0.3-1.1V288.3z"/>
		<path d="M78,290.7h-1.4c-0.1-0.3-0.2-0.6-0.3-0.8s-0.3-0.4-0.6-0.6c-0.2-0.2-0.5-0.3-0.7-0.4s-0.6-0.1-0.9-0.1
			c-0.5,0-1,0.1-1.5,0.4s-0.8,0.7-1,1.2c-0.2,0.5-0.4,1.2-0.4,1.9c0,0.8,0.1,1.4,0.4,1.9c0.2,0.5,0.6,0.9,1,1.2
			c0.4,0.3,0.9,0.4,1.5,0.4c0.3,0,0.6,0,0.9-0.1c0.3-0.1,0.5-0.2,0.7-0.4c0.2-0.2,0.4-0.4,0.6-0.6c0.2-0.2,0.3-0.5,0.3-0.8l1.4,0
			c-0.1,0.5-0.2,0.9-0.4,1.3c-0.2,0.4-0.5,0.7-0.8,1s-0.7,0.5-1.2,0.7c-0.4,0.2-0.9,0.2-1.4,0.2c-0.8,0-1.5-0.2-2.2-0.6
			c-0.6-0.4-1.1-0.9-1.5-1.7c-0.4-0.7-0.6-1.6-0.6-2.6c0-1,0.2-1.9,0.6-2.6c0.4-0.7,0.9-1.3,1.5-1.7c0.6-0.4,1.4-0.6,2.2-0.6
			c0.5,0,1,0.1,1.4,0.2s0.8,0.4,1.2,0.6s0.6,0.6,0.9,1C77.7,289.8,77.9,290.2,78,290.7z"/>
		<path d="M81,292.9v4.2h-1.4v-9.5h1.4v3.5H81c0.2-0.4,0.4-0.7,0.8-0.9s0.8-0.3,1.3-0.3c0.5,0,0.9,0.1,1.3,0.3
			c0.4,0.2,0.6,0.5,0.8,0.9c0.2,0.4,0.3,0.9,0.3,1.5v4.5h-1.4v-4.3c0-0.5-0.1-0.9-0.4-1.2c-0.3-0.3-0.6-0.4-1.1-0.4
			c-0.3,0-0.6,0.1-0.9,0.2s-0.5,0.3-0.6,0.6C81,292.2,81,292.5,81,292.9z"/>
		<path d="M89.5,297.3c-0.4,0-0.9-0.1-1.2-0.3c-0.4-0.2-0.7-0.4-0.9-0.7c-0.2-0.3-0.3-0.7-0.3-1.2c0-0.4,0.1-0.7,0.2-1
			c0.2-0.3,0.4-0.5,0.6-0.6c0.3-0.2,0.6-0.3,0.9-0.3c0.3-0.1,0.7-0.1,1-0.2c0.4,0,0.8-0.1,1-0.1c0.3,0,0.5-0.1,0.6-0.2
			c0.1-0.1,0.2-0.2,0.2-0.4v0c0-0.4-0.1-0.7-0.3-0.9c-0.2-0.2-0.6-0.3-1-0.3c-0.5,0-0.8,0.1-1.1,0.3c-0.3,0.2-0.5,0.4-0.6,0.7
			l-1.3-0.3c0.2-0.4,0.4-0.8,0.7-1c0.3-0.3,0.6-0.5,1-0.6s0.8-0.2,1.2-0.2c0.3,0,0.6,0,0.9,0.1c0.3,0.1,0.6,0.2,0.9,0.4
			c0.3,0.2,0.5,0.4,0.7,0.8c0.2,0.3,0.3,0.7,0.3,1.3v4.7h-1.3v-1h-0.1c-0.1,0.2-0.2,0.4-0.4,0.5c-0.2,0.2-0.4,0.3-0.7,0.4
			C90.2,297.2,89.9,297.3,89.5,297.3z M89.8,296.1c0.4,0,0.7-0.1,1-0.2s0.5-0.3,0.6-0.6c0.1-0.2,0.2-0.5,0.2-0.8v-0.9
			c0,0-0.1,0.1-0.3,0.1c-0.1,0-0.3,0.1-0.5,0.1c-0.2,0-0.4,0.1-0.5,0.1c-0.2,0-0.3,0-0.4,0.1c-0.3,0-0.5,0.1-0.7,0.2
			c-0.2,0.1-0.4,0.2-0.5,0.3c-0.1,0.1-0.2,0.3-0.2,0.6c0,0.3,0.1,0.6,0.4,0.8S89.4,296.1,89.8,296.1z"/>
		<path d="M94.8,297.1V290h1.3v1.1h0.1c0.1-0.4,0.4-0.7,0.7-0.9c0.3-0.2,0.7-0.3,1.1-0.3c0.1,0,0.2,0,0.3,0c0.1,0,0.2,0,0.3,0v1.3
			c-0.1,0-0.2,0-0.3-0.1s-0.3,0-0.4,0c-0.3,0-0.6,0.1-0.9,0.2c-0.3,0.1-0.5,0.3-0.6,0.6c-0.1,0.2-0.2,0.5-0.2,0.8v4.3H94.8z"/>
		<path d="M103.1,290v1.1h-3.9V290H103.1z M100.3,288.3h1.4v6.7c0,0.3,0,0.5,0.1,0.6s0.2,0.2,0.3,0.3c0.1,0,0.3,0.1,0.4,0.1
			c0.1,0,0.2,0,0.3,0c0.1,0,0.1,0,0.2,0l0.2,1.1c-0.1,0-0.2,0.1-0.3,0.1c-0.1,0-0.3,0.1-0.6,0.1c-0.4,0-0.7-0.1-1-0.2
			s-0.6-0.3-0.8-0.6s-0.3-0.6-0.3-1.1V288.3z"/>
		<path d="M30.8,305.7c0-0.4-0.3-0.8-0.6-1s-0.8-0.4-1.3-0.4c-0.4,0-0.7,0.1-1,0.2s-0.5,0.3-0.7,0.5c-0.2,0.2-0.2,0.5-0.2,0.7
			c0,0.2,0.1,0.4,0.2,0.6c0.1,0.2,0.2,0.3,0.4,0.4c0.2,0.1,0.4,0.2,0.6,0.3c0.2,0.1,0.4,0.1,0.6,0.2l0.9,0.2
			c0.3,0.1,0.6,0.2,0.9,0.3c0.3,0.1,0.6,0.3,0.9,0.5c0.3,0.2,0.5,0.5,0.7,0.8c0.2,0.3,0.3,0.7,0.3,1.1c0,0.5-0.1,1-0.4,1.4
			s-0.7,0.7-1.2,1c-0.5,0.2-1.2,0.4-1.9,0.4c-0.7,0-1.3-0.1-1.8-0.3s-0.9-0.5-1.2-1c-0.3-0.4-0.5-0.9-0.5-1.5h1.4
			c0,0.3,0.1,0.6,0.3,0.9c0.2,0.2,0.4,0.4,0.8,0.5c0.3,0.1,0.6,0.2,1,0.2c0.4,0,0.8-0.1,1.1-0.2s0.6-0.3,0.7-0.5
			c0.2-0.2,0.3-0.5,0.3-0.8c0-0.3-0.1-0.5-0.2-0.7c-0.2-0.2-0.4-0.3-0.6-0.4c-0.3-0.1-0.6-0.2-0.9-0.3l-1.1-0.3
			c-0.8-0.2-1.4-0.5-1.8-0.9c-0.4-0.4-0.7-0.9-0.7-1.6c0-0.5,0.1-1,0.4-1.4s0.7-0.7,1.2-0.9c0.5-0.2,1.1-0.3,1.7-0.3
			c0.6,0,1.2,0.1,1.7,0.3s0.9,0.5,1.2,0.9c0.3,0.4,0.4,0.8,0.4,1.4H30.8z"/>
		<path d="M33.9,315.4v-9.8h1.3v1.1h0.1c0.1-0.1,0.2-0.3,0.3-0.5c0.2-0.2,0.4-0.4,0.6-0.5c0.3-0.1,0.6-0.2,1.1-0.2
			c0.6,0,1.1,0.1,1.5,0.4c0.4,0.3,0.8,0.7,1.1,1.3c0.3,0.5,0.4,1.2,0.4,2c0,0.8-0.1,1.4-0.4,2s-0.6,1-1.1,1.3s-1,0.4-1.5,0.4
			c-0.4,0-0.8-0.1-1.1-0.2s-0.5-0.3-0.6-0.5c-0.2-0.2-0.3-0.4-0.4-0.5h-0.1v3.8H33.9z M35.2,309.1c0,0.5,0.1,0.9,0.2,1.3
			s0.4,0.7,0.6,0.9s0.6,0.3,1,0.3c0.4,0,0.8-0.1,1-0.3c0.3-0.2,0.5-0.5,0.6-0.9s0.2-0.8,0.2-1.3c0-0.5-0.1-0.9-0.2-1.3
			c-0.1-0.4-0.3-0.7-0.6-0.9c-0.3-0.2-0.6-0.3-1-0.3c-0.4,0-0.7,0.1-1,0.3c-0.3,0.2-0.5,0.5-0.6,0.9
			C35.3,308.2,35.2,308.7,35.2,309.1z"/>
		<path d="M44.9,312.8c-0.7,0-1.3-0.1-1.8-0.5c-0.5-0.3-0.9-0.7-1.2-1.3c-0.3-0.5-0.4-1.2-0.4-1.9c0-0.7,0.1-1.4,0.4-1.9
			c0.3-0.6,0.7-1,1.1-1.3c0.5-0.3,1.1-0.5,1.7-0.5c0.4,0,0.8,0.1,1.2,0.2s0.7,0.3,1,0.6c0.3,0.3,0.5,0.6,0.7,1.1
			c0.2,0.5,0.3,1,0.3,1.6v0.5h-5.6v-1h4.3c0-0.4-0.1-0.7-0.2-1c-0.1-0.3-0.4-0.5-0.6-0.7s-0.6-0.2-0.9-0.2c-0.4,0-0.7,0.1-1,0.3
			c-0.3,0.2-0.5,0.4-0.7,0.7s-0.2,0.6-0.2,1v0.8c0,0.5,0.1,0.9,0.3,1.2c0.2,0.3,0.4,0.6,0.7,0.8c0.3,0.2,0.7,0.3,1.1,0.3
			c0.3,0,0.5,0,0.7-0.1c0.2-0.1,0.4-0.2,0.6-0.3c0.2-0.2,0.3-0.3,0.4-0.6l1.3,0.2c-0.1,0.4-0.3,0.7-0.6,1c-0.3,0.3-0.6,0.5-1,0.7
			C45.9,312.8,45.5,312.8,44.9,312.8z"/>
		<path d="M52.5,312.8c-0.7,0-1.3-0.2-1.8-0.5c-0.5-0.3-0.9-0.7-1.1-1.3c-0.3-0.6-0.4-1.2-0.4-1.9c0-0.7,0.1-1.4,0.4-1.9
			c0.3-0.6,0.7-1,1.1-1.3c0.5-0.3,1.1-0.5,1.7-0.5c0.5,0,1,0.1,1.4,0.3c0.4,0.2,0.8,0.5,1,0.8s0.4,0.8,0.5,1.3h-1.3
			c-0.1-0.3-0.2-0.6-0.5-0.9c-0.3-0.2-0.6-0.4-1.1-0.4c-0.4,0-0.7,0.1-1,0.3c-0.3,0.2-0.5,0.5-0.7,0.9c-0.2,0.4-0.2,0.8-0.2,1.3
			c0,0.5,0.1,1,0.2,1.3c0.2,0.4,0.4,0.7,0.7,0.9c0.3,0.2,0.6,0.3,1,0.3c0.3,0,0.5,0,0.7-0.1c0.2-0.1,0.4-0.2,0.5-0.4
			c0.1-0.2,0.2-0.4,0.3-0.7h1.3c0,0.5-0.2,0.9-0.4,1.2c-0.2,0.4-0.6,0.6-1,0.8C53.6,312.7,53.1,312.8,52.5,312.8z"/>
		<path d="M57.6,304.5c-0.2,0-0.4-0.1-0.6-0.2s-0.3-0.4-0.3-0.6c0-0.2,0.1-0.4,0.3-0.6s0.4-0.2,0.6-0.2s0.4,0.1,0.6,0.2
			s0.3,0.4,0.3,0.6c0,0.2-0.1,0.4-0.3,0.6S57.8,304.5,57.6,304.5z M56.9,312.7v-7.1h1.4v7.1H56.9z"/>
		<path d="M63.5,305.6v1.1h-4v-1.1H63.5z M60.6,312.7v-7.9c0-0.4,0.1-0.8,0.3-1.1s0.5-0.5,0.8-0.7c0.3-0.1,0.7-0.2,1-0.2
			c0.3,0,0.5,0,0.7,0.1c0.2,0,0.3,0.1,0.4,0.1l-0.3,1.1c-0.1,0-0.1,0-0.2-0.1c-0.1,0-0.2,0-0.4,0c-0.3,0-0.6,0.1-0.7,0.2
			c-0.1,0.2-0.2,0.4-0.2,0.7v7.7H60.6z"/>
		<path d="M65.6,304.5c-0.2,0-0.4-0.1-0.6-0.2s-0.3-0.4-0.3-0.6c0-0.2,0.1-0.4,0.3-0.6s0.4-0.2,0.6-0.2s0.4,0.1,0.6,0.2
			s0.3,0.4,0.3,0.6c0,0.2-0.1,0.4-0.3,0.6S65.9,304.5,65.6,304.5z M64.9,312.7v-7.1h1.4v7.1H64.9z"/>
		<path d="M71.2,312.8c-0.7,0-1.3-0.2-1.8-0.5c-0.5-0.3-0.9-0.7-1.1-1.3c-0.3-0.6-0.4-1.2-0.4-1.9c0-0.7,0.1-1.4,0.4-1.9
			c0.3-0.6,0.7-1,1.1-1.3c0.5-0.3,1.1-0.5,1.7-0.5c0.5,0,1,0.1,1.4,0.3c0.4,0.2,0.8,0.5,1,0.8s0.4,0.8,0.5,1.3h-1.3
			c-0.1-0.3-0.2-0.6-0.5-0.9c-0.3-0.2-0.6-0.4-1.1-0.4c-0.4,0-0.7,0.1-1,0.3c-0.3,0.2-0.5,0.5-0.7,0.9c-0.2,0.4-0.2,0.8-0.2,1.3
			c0,0.5,0.1,1,0.2,1.3c0.2,0.4,0.4,0.7,0.7,0.9c0.3,0.2,0.6,0.3,1,0.3c0.3,0,0.5,0,0.7-0.1c0.2-0.1,0.4-0.2,0.5-0.4
			c0.1-0.2,0.2-0.4,0.3-0.7h1.3c0,0.5-0.2,0.9-0.4,1.2c-0.2,0.4-0.6,0.6-1,0.8C72.2,312.7,71.7,312.8,71.2,312.8z"/>
		<path d="M77.6,312.9c-0.4,0-0.9-0.1-1.2-0.3c-0.4-0.2-0.7-0.4-0.9-0.7c-0.2-0.3-0.3-0.7-0.3-1.2c0-0.4,0.1-0.7,0.2-1
			c0.2-0.3,0.4-0.5,0.6-0.6c0.3-0.2,0.6-0.3,0.9-0.3c0.3-0.1,0.7-0.1,1-0.2c0.4,0,0.8-0.1,1-0.1c0.3,0,0.5-0.1,0.6-0.2
			c0.1-0.1,0.2-0.2,0.2-0.4v0c0-0.4-0.1-0.7-0.3-0.9c-0.2-0.2-0.6-0.3-1-0.3c-0.5,0-0.8,0.1-1.1,0.3c-0.3,0.2-0.5,0.4-0.6,0.7
			l-1.3-0.3c0.2-0.4,0.4-0.8,0.7-1c0.3-0.3,0.6-0.5,1-0.6s0.8-0.2,1.2-0.2c0.3,0,0.6,0,0.9,0.1c0.3,0.1,0.6,0.2,0.9,0.4
			c0.3,0.2,0.5,0.4,0.7,0.8c0.2,0.3,0.3,0.7,0.3,1.3v4.7h-1.3v-1h-0.1c-0.1,0.2-0.2,0.4-0.4,0.5c-0.2,0.2-0.4,0.3-0.7,0.4
			C78.3,312.8,78,312.9,77.6,312.9z M77.9,311.7c0.4,0,0.7-0.1,1-0.2s0.5-0.3,0.6-0.6c0.1-0.2,0.2-0.5,0.2-0.8v-0.9
			c0,0-0.1,0.1-0.3,0.1c-0.1,0-0.3,0.1-0.5,0.1c-0.2,0-0.4,0.1-0.5,0.1c-0.2,0-0.3,0-0.4,0.1c-0.3,0-0.5,0.1-0.7,0.2
			c-0.2,0.1-0.4,0.2-0.5,0.3c-0.1,0.1-0.2,0.3-0.2,0.6c0,0.3,0.1,0.6,0.4,0.8S77.5,311.7,77.9,311.7z"/>
		<path d="M86.3,305.6v1.1h-3.9v-1.1H86.3z M83.4,303.9h1.4v6.7c0,0.3,0,0.5,0.1,0.6s0.2,0.2,0.3,0.3c0.1,0,0.3,0.1,0.4,0.1
			c0.1,0,0.2,0,0.3,0c0.1,0,0.1,0,0.2,0l0.2,1.1c-0.1,0-0.2,0.1-0.3,0.1c-0.1,0-0.3,0.1-0.6,0.1c-0.4,0-0.7-0.1-1-0.2
			s-0.6-0.3-0.8-0.6s-0.3-0.6-0.3-1.1V303.9z"/>
		<path d="M88.5,304.5c-0.2,0-0.4-0.1-0.6-0.2s-0.3-0.4-0.3-0.6c0-0.2,0.1-0.4,0.3-0.6s0.4-0.2,0.6-0.2s0.4,0.1,0.6,0.2
			s0.3,0.4,0.3,0.6c0,0.2-0.1,0.4-0.3,0.6S88.7,304.5,88.5,304.5z M87.8,312.7v-7.1h1.4v7.1H87.8z"/>
		<path d="M94,312.8c-0.7,0-1.2-0.2-1.7-0.5s-0.9-0.7-1.2-1.3s-0.4-1.2-0.4-1.9c0-0.7,0.1-1.4,0.4-1.9s0.7-1,1.2-1.3
			s1.1-0.5,1.7-0.5c0.7,0,1.2,0.2,1.7,0.5s0.9,0.7,1.2,1.3s0.4,1.2,0.4,1.9c0,0.7-0.1,1.4-0.4,1.9s-0.7,1-1.2,1.3
			S94.7,312.8,94,312.8z M94,311.7c0.4,0,0.8-0.1,1.1-0.3c0.3-0.2,0.5-0.5,0.6-0.9c0.1-0.4,0.2-0.8,0.2-1.3c0-0.5-0.1-0.9-0.2-1.2
			c-0.1-0.4-0.3-0.7-0.6-0.9c-0.3-0.2-0.6-0.3-1.1-0.3c-0.4,0-0.8,0.1-1.1,0.3c-0.3,0.2-0.5,0.5-0.6,0.9c-0.1,0.4-0.2,0.8-0.2,1.2
			c0,0.5,0.1,0.9,0.2,1.3c0.1,0.4,0.3,0.7,0.6,0.9C93.2,311.6,93.6,311.7,94,311.7z"/>
		<path d="M100.2,308.5v4.2h-1.4v-7.1h1.3v1.2h0.1c0.2-0.4,0.4-0.7,0.8-0.9c0.3-0.2,0.8-0.3,1.3-0.3c0.5,0,0.9,0.1,1.3,0.3
			c0.4,0.2,0.6,0.5,0.8,0.9c0.2,0.4,0.3,0.9,0.3,1.5v4.5h-1.4v-4.3c0-0.5-0.1-0.9-0.4-1.2c-0.3-0.3-0.6-0.4-1.1-0.4
			c-0.3,0-0.6,0.1-0.9,0.2c-0.2,0.1-0.4,0.3-0.6,0.6S100.2,308.1,100.2,308.5z"/>
	</g>
</g>
</svg>
