<?xml version="1.0" encoding="utf-8"?>
<!-- Generator: Adobe Illustrator 26.0.1, SVG Export Plug-In . SVG Version: 6.00 Build 0)  -->
<svg version="1.1" id="Layer_1" xmlns="http://www.w3.org/2000/svg" xmlns:xlink="http://www.w3.org/1999/xlink" x="0px" y="0px"
	 viewBox="0 0 100 98.4" style="enable-background:new 0 0 100 98.4;" xml:space="preserve">
<style type="text/css">
	.st0{fill:#F79520;}
</style>
<g>
	<path class="st0" d="M7.5,76.2h5v6.3h-5V76.2L7.5,76.2L7.5,76.2z M7.5,63.5h5v6.3h-5V63.5L7.5,63.5L7.5,63.5z M7.5,50.8h5v6.3h-5
		V50.8L7.5,50.8L7.5,50.8z M17.5,76.2h5v6.3h-5V76.2L17.5,76.2L17.5,76.2z M17.5,63.5h5v6.3h-5V63.5L17.5,63.5L17.5,63.5z
		 M17.5,50.8h5v6.3h-5V50.8L17.5,50.8L17.5,50.8z M0,98.4h12.5v-9.5h5v9.5H30V41.3H0V98.4L0,98.4L0,98.4z"/>
	<path class="st0" d="M42.5,76.2h5v6.3h-5V76.2L42.5,76.2L42.5,76.2z M42.5,63.5h5v6.3h-5V63.5L42.5,63.5L42.5,63.5z M52.5,76.2h5
		v6.3h-5V76.2L52.5,76.2L52.5,76.2z M52.5,63.5h5v6.3h-5V63.5L52.5,63.5L52.5,63.5z M35,98.4h12.5v-9.5h5v9.5H65V54H35V98.4L35,98.4
		L35,98.4z"/>
	<path class="st0" d="M92.5,20.6h-5v-6.3h5V20.6L92.5,20.6L92.5,20.6z M92.5,31.7h-5v-6.3h5V31.7L92.5,31.7L92.5,31.7z M92.5,44.4
		h-5v-6.3h5V44.4L92.5,44.4L92.5,44.4z M92.5,57.1h-5v-6.3h5V57.1L92.5,57.1L92.5,57.1z M92.5,69.8h-5v-6.3h5V69.8L92.5,69.8
		L92.5,69.8z M92.5,82.5h-5v-6.3h5V82.5L92.5,82.5L92.5,82.5z M82.5,20.6h-5v-6.3h5V20.6L82.5,20.6L82.5,20.6z M82.5,31.7h-5v-6.3h5
		V31.7L82.5,31.7L82.5,31.7z M82.5,44.4h-5v-6.3h5V44.4L82.5,44.4L82.5,44.4z M82.5,57.1h-5v-6.3h5V57.1L82.5,57.1L82.5,57.1z
		 M82.5,69.8h-5v-6.3h5V69.8L82.5,69.8L82.5,69.8z M82.5,82.5h-5v-6.3h5V82.5L82.5,82.5L82.5,82.5z M70,3.2v95.2h12.5v-9.5h5v9.5
		H100V7.9L70,3.2L70,3.2L70,3.2z"/>
	<path class="st0" d="M35,22.2h5v6.3h-5V22.2L35,22.2L35,22.2z M35,9.5h5v6.3h-5V9.5L35,9.5L35,9.5z M30,15.9h-5V9.5h5V15.9L30,15.9
		L30,15.9z M30,28.6h-5v-6.3h5V28.6L30,28.6L30,28.6z M35,47.6h12.5V0h-30v34.9H35V47.6L35,47.6L35,47.6z"/>
</g>
</svg>
