<?xml version="1.0" encoding="utf-8"?>
<!-- Generator: Adobe Illustrator 26.0.1, SVG Export Plug-In . SVG Version: 6.00 Build 0)  -->
<svg version="1.1" id="Layer_1" xmlns="http://www.w3.org/2000/svg" xmlns:xlink="http://www.w3.org/1999/xlink" x="0px" y="0px"
	 viewBox="0 0 100 98.4" style="enable-background:new 0 0 100 98.4;" xml:space="preserve">
<style type="text/css">
	.st0{fill:#F79520;}
</style>
<g>
	<g>
		<rect x="95.5" y="11.9" class="st0" width="4" height="49.5"/>
		<rect x="0.5" y="11.9" class="st0" width="4" height="49.5"/>
	</g>
	<g>
		<g>
			<path class="st0" d="M40.1,61.4H17.8v-9.6c0-6.1,5-11.1,11.1-11.1h0c6.1,0,11.1,5,11.1,11.1V61.4z"/>
			<circle class="st0" cx="29" cy="29.9" r="6.5"/>
		</g>
		<g>
			<path class="st0" d="M81.3,43.5H47.8c-0.4,0-0.8-0.4-0.8-0.8V24.3c0-0.4,0.4-0.8,0.8-0.8h33.5c0.4,0,0.8,0.4,0.8,0.8v18.4
				C82.1,43.2,81.8,43.5,81.3,43.5z"/>
			<rect x="48.8" y="59.1" class="st0" width="31.5" height="2.3"/>
			<rect x="61.9" y="46.9" class="st0" width="5.2" height="8.8"/>
		</g>
	</g>
	<g>
		<polygon class="st0" points="34.7,1.3 30,1.3 32.3,3.7 		"/>
		<polygon class="st0" points="30.6,5.4 26.6,1.3 26.3,1.3 22.2,5.4 26.3,9.5 26.6,9.5 		"/>
		<polygon class="st0" points="32.3,7.1 29.9,9.5 34.7,9.5 		"/>
		<polygon class="st0" points="44.1,7.1 41.7,9.5 46.5,9.5 		"/>
		<polygon class="st0" points="46.5,1.3 41.7,1.3 44.1,3.7 		"/>
		<polygon class="st0" points="54.2,5.4 50.1,1.3 49.8,1.3 45.8,5.4 49.9,9.5 50.1,9.5 		"/>
		<polygon class="st0" points="42.4,5.4 38.4,1.3 38.1,1.3 34,5.4 38.1,9.5 38.4,9.5 		"/>
		<polygon class="st0" points="11.1,9.5 8.8,7.1 6.4,9.5 		"/>
		<polygon class="st0" points="6.4,1.3 8.8,3.7 11.1,1.3 		"/>
		<polygon class="st0" points="18.9,5.4 14.8,1.3 14.5,1.3 10.5,5.4 14.5,9.5 14.8,9.5 		"/>
		<polygon class="st0" points="22.9,1.3 18.2,1.3 20.5,3.7 		"/>
		<polygon class="st0" points="20.5,7.1 18.2,9.5 22.9,9.5 		"/>
		<polygon class="st0" points="89.5,5.4 85.5,1.3 85.2,1.3 81.1,5.4 85.2,9.5 85.5,9.5 		"/>
		<polygon class="st0" points="88.9,1.3 91.2,3.7 93.6,1.3 		"/>
		<polygon class="st0" points="91.2,7.1 88.9,9.5 93.6,9.5 		"/>
		<polygon class="st0" points="79.5,7.1 77.1,9.5 81.8,9.5 		"/>
		<path class="st0" d="M7.1,5.4L3.2,1.5C3.1,1.4,3,1.3,2.8,1.3H0.5v8.1h2.3c0.1,0,0.3-0.1,0.4-0.1L7.1,5.4z"/>
		<path class="st0" d="M96.8,1.5l-3.9,3.9l3.9,3.9c0.1,0.1,0.2,0.1,0.4,0.1h2.3V1.3h-2.3C97,1.3,96.9,1.4,96.8,1.5z"/>
		<polygon class="st0" points="81.8,1.3 77.1,1.3 79.5,3.7 		"/>
		<polygon class="st0" points="70,1.3 65.3,1.3 67.7,3.7 		"/>
		<polygon class="st0" points="66,5.4 61.9,1.3 61.6,1.3 57.6,5.4 61.6,9.5 61.9,9.5 		"/>
		<polygon class="st0" points="55.9,7.1 53.5,9.5 58.3,9.5 		"/>
		<polygon class="st0" points="67.7,7.1 65.3,9.5 70.1,9.5 		"/>
		<polygon class="st0" points="58.3,1.3 53.5,1.3 55.9,3.7 		"/>
		<polygon class="st0" points="77.8,5.4 73.7,1.3 73.4,1.3 69.4,5.4 73.4,9.5 73.7,9.5 		"/>
	</g>
	<path class="st0" d="M67.5,77.9c-2.8-0.9-5-2.6-6.4-4.7C61,73.1,60.8,73,60.7,73H39.3c-0.2,0-0.4,0.1-0.5,0.3
		c-1.4,2.1-3.6,3.8-6.4,4.7C32.2,78,32,78.2,32,78.4v5.2c0,0.2,0.2,0.4,0.4,0.5c2.8,0.9,5,2.6,6.4,4.7c0.1,0.2,0.3,0.3,0.5,0.3h21.4
		c0.2,0,0.4-0.1,0.5-0.3c1.4-2.1,3.6-3.8,6.4-4.7c0.2-0.1,0.4-0.3,0.4-0.5v-5.2C67.9,78.2,67.8,78,67.5,77.9z M60.1,83.3
		c0,0.5-0.4,1-1,1H40.9c-0.5,0-1-0.4-1-1V83c0-0.5,0.4-1,1-1h18.2c0.5,0,1,0.4,1,1V83.3z M60.1,79.1c0,0.5-0.4,1-1,1H40.9
		c-0.5,0-1-0.4-1-1v-0.3c0-0.5,0.4-1,1-1h18.2c0.5,0,1,0.4,1,1V79.1z"/>
	<path class="st0" d="M0.5,65.1v32h99v-32H0.5z M71.9,86.7c0,0.4-0.3,0.8-0.8,0.8c-3.7,0.4-6.7,2.4-7.3,5c-0.1,0.4-0.4,0.6-0.8,0.6
		H36.9c-0.4,0-0.7-0.2-0.8-0.6c-0.7-2.6-3.6-4.7-7.3-5c-0.4,0-0.8-0.4-0.8-0.8V75.4c0-0.4,0.3-0.8,0.8-0.8c3.7-0.4,6.7-2.4,7.3-5
		c0.1-0.4,0.4-0.6,0.8-0.6h26.1c0.4,0,0.7,0.2,0.8,0.6c0.7,2.6,3.6,4.7,7.3,5c0.4,0,0.8,0.4,0.8,0.8V86.7z"/>
</g>
</svg>
