<?xml version="1.0" encoding="utf-8"?>
<!-- Generator: Adobe Illustrator 26.0.1, SVG Export Plug-In . SVG Version: 6.00 Build 0)  -->
<svg version="1.1" id="Layer_1" xmlns="http://www.w3.org/2000/svg" xmlns:xlink="http://www.w3.org/1999/xlink" x="0px" y="0px"
	 viewBox="0 0 100 98.4" style="enable-background:new 0 0 100 98.4;" xml:space="preserve">
<style type="text/css">
	.st0{fill-rule:evenodd;clip-rule:evenodd;fill:none;}
	.st1{fill:#F79520;}
</style>
<g>
	<path d="M22.3,17.8c2.5,0,4.4-1.9,4.4-4.3V5c0-2.4-1.9-4.3-4.4-4.3c-2.5,0-4.4,1.9-4.4,4.3v8.6C17.9,15.9,19.8,17.8,22.3,17.8
		L22.3,17.8z"/>
	<path d="M9.2,77.7h23.3v11.4H9.2V77.7L9.2,77.7L9.2,77.7z M9.2,60.6h23.3V72H9.2V60.6L9.2,60.6L9.2,60.6z M9.2,43.5h23.3v11.4H9.2
		V43.5L9.2,43.5L9.2,43.5z M61.7,43.5v11.4H38.3V43.5H61.7L61.7,43.5L61.7,43.5z M90.8,43.5v11.4H67.5V43.5H90.8L90.8,43.5
		L90.8,43.5z M90.8,72H67.5V60.6h23.3V72L90.8,72L90.8,72z M90.8,89.2H67.5V77.7h23.3V89.2L90.8,89.2L90.8,89.2z M38.3,72V60.6h23.3
		V72H38.3L38.3,72L38.3,72z M38.3,89.2V77.7h23.3v11.4H38.3L38.3,89.2L38.3,89.2z M0.4,97.7h99.1V34.9H0.4V97.7L0.4,97.7L0.4,97.7z"
		/>
	<path d="M77.7,17.8c2.5,0,4.4-1.9,4.4-4.3V5c0-2.4-1.9-4.3-4.4-4.3S73.3,2.5,73.3,5v8.6C73.3,15.9,75.2,17.8,77.7,17.8L77.7,17.8z"
		/>
	<path d="M87.9,9.2v4.3c0,5.6-4.5,10-10.2,10c-5.7,0-10.2-4.4-10.2-10V9.2h-35v4.3c0,5.6-4.5,10-10.2,10c-5.7,0-10.2-4.4-10.2-10
		V9.2H0.4v20h99.1v-20H87.9L87.9,9.2L87.9,9.2z"/>
</g>
</svg>
