<?xml version="1.0" encoding="utf-8"?>
<!-- Generator: Adobe Illustrator 26.0.1, SVG Export Plug-In . SVG Version: 6.00 Build 0)  -->
<svg version="1.1" id="Layer_1" xmlns="http://www.w3.org/2000/svg" xmlns:xlink="http://www.w3.org/1999/xlink" x="0px" y="0px"
	 viewBox="0 0 227.69 109" style="enable-background:new 0 0 227.69 109;" xml:space="preserve">
<style type="text/css">
	.st0{fill:#45546A;}
	.st1{fill:#44546A;}
</style>
<g>
	<g>
		<g>
			<polygon class="st0" points="2.5,108.86 0.31,108.86 0.31,96.57 20.66,96.57 20.66,98.77 2.5,98.77 			"/>
			<path class="st1" d="M20.66,95.54"/>
			<polyline class="st1" points="20.66,91.03 20.66,94.8 16.88,94.8 			"/>
		</g>
	</g>
	<g>
		<g>
			<polygon class="st0" points="25.47,98.77 23.28,98.77 23.28,86.48 43.63,86.48 43.63,88.68 25.47,88.68 			"/>
			<path class="st1" d="M43.63,85.45"/>
			<polyline class="st1" points="43.63,80.94 43.63,84.71 39.85,84.71 			"/>
		</g>
	</g>
	<g>
		<g>
			<polygon class="st0" points="48.44,88.69 46.24,88.69 46.24,76.41 66.59,76.41 66.59,78.6 48.44,78.6 			"/>
			<path class="st1" d="M66.59,75.38"/>
			<polyline class="st1" points="66.59,70.86 66.59,74.64 62.82,74.64 			"/>
		</g>
	</g>
	<g>
		<g>
			<polygon class="st0" points="71.41,78.61 69.21,78.61 69.21,66.33 89.56,66.33 89.56,68.52 71.41,68.52 			"/>
			<path class="st1" d="M89.56,65.29"/>
			<polyline class="st1" points="89.56,60.78 89.56,64.55 85.79,64.55 			"/>
		</g>
	</g>
	<g>
		<g>
			<polygon class="st0" points="94.38,68.46 92.18,68.46 92.18,56.18 112.53,56.18 112.53,58.37 94.38,58.37 			"/>
			<path class="st1" d="M112.53,55.15"/>
			<polyline class="st1" points="112.53,50.64 112.53,54.41 108.76,54.41 			"/>
		</g>
	</g>
	<g>
		<g>
			<polygon class="st0" points="117.35,58.45 115.15,58.45 115.15,46.16 135.5,46.16 135.5,48.36 117.35,48.36 			"/>
			<path class="st1" d="M135.5,45.13"/>
			<polyline class="st1" points="135.5,40.62 135.5,44.39 131.73,44.39 			"/>
		</g>
	</g>
	<g>
		<g>
			<polygon class="st0" points="140.32,48.3 138.12,48.3 138.12,36.02 158.47,36.02 158.47,38.21 140.32,38.21 			"/>
			<path class="st1" d="M158.47,34.98"/>
			<polyline class="st1" points="158.47,30.47 158.47,34.24 154.7,34.24 			"/>
		</g>
	</g>
	<g>
		<g>
			<polygon class="st0" points="163.29,38.16 161.09,38.16 161.09,25.87 181.44,25.87 181.44,28.07 163.29,28.07 			"/>
			<path class="st1" d="M181.44,24.84"/>
			<polyline class="st1" points="181.44,20.33 181.44,24.1 177.67,24.1 			"/>
		</g>
	</g>
	<g>
		<g>
			<polygon class="st0" points="186.25,28.07 184.06,28.07 184.06,15.79 204.41,15.79 204.41,17.98 186.25,17.98 			"/>
			<path class="st1" d="M204.41,14.76"/>
			<polyline class="st1" points="204.41,10.24 204.41,14.02 200.64,14.02 			"/>
		</g>
	</g>
	<g>
		<g>
			<polygon class="st0" points="209.22,17.98 207.03,17.98 207.03,5.69 227.38,5.69 227.38,7.89 209.22,7.89 			"/>
			<path class="st1" d="M227.38,4.66"/>
			<polyline class="st1" points="227.38,0.15 227.38,3.92 223.61,3.92 			"/>
		</g>
	</g>
</g>
<path class="st1" d="M-286.05,64.56"/>
</svg>
