<?xml version="1.0" encoding="utf-8"?>
<!-- Generator: Adobe Illustrator 26.0.1, SVG Export Plug-In . SVG Version: 6.00 Build 0)  -->
<svg version="1.1" id="Layer_1" xmlns="http://www.w3.org/2000/svg" xmlns:xlink="http://www.w3.org/1999/xlink" x="0px" y="0px"
	 viewBox="0 0 391.2 130" style="enable-background:new 0 0 391.2 130;" xml:space="preserve">
<style type="text/css">
	.st0{fill:#EC7E30;}
	.st1{fill:#FFFFFF;}
	.st2{fill:#A5A4A4;}
	.st3{fill:#FDC015;}
</style>
<g>
	<circle class="st0" cx="326.2" cy="65" r="65"/>
	<circle class="st1" cx="326.2" cy="65" r="59.9"/>
	<path class="st2" d="M193.8,2.3C233,2.1,255,38.6,277.7,64.6c1.5,1.6-22.6,25.8-25.2,28.8c-15.6,17.7-34.7,34.8-59.9,34.3
		c-22.8-0.4-44.1-13.6-54.7-33.7c-4.7-9-7.2-19.1-7.2-29.4C130.7,27.9,161.4,2.6,193.8,2.3z"/>
	<circle class="st1" cx="193" cy="65" r="57"/>
	<path class="st3" d="M63.2,2.3c39.2-0.3,61.2,36.2,83.9,62.2c1.5,1.6-22.6,25.8-25.2,28.8c-15.6,17.7-34.7,34.8-59.9,34.3
		c-22.8-0.4-44.1-13.6-54.7-33.7C2.5,85,0,74.8,0,64.6C0.1,27.9,30.8,2.6,63.2,2.3z"/>
	<circle class="st1" cx="62.3" cy="65" r="57"/>
	<g>
		<path d="M38.2,60.8v-9.5h1.4v8.2h4.3v1.2H38.2z"/>
		<path d="M48.4,60.9c-0.7,0-1.2-0.2-1.7-0.5s-0.9-0.7-1.2-1.3s-0.4-1.2-0.4-1.9c0-0.7,0.1-1.4,0.4-1.9s0.7-1,1.2-1.3
			s1.1-0.5,1.7-0.5c0.7,0,1.2,0.2,1.7,0.5s0.9,0.7,1.2,1.3s0.4,1.2,0.4,1.9c0,0.7-0.1,1.4-0.4,1.9s-0.7,1-1.2,1.3
			S49.1,60.9,48.4,60.9z M48.5,59.8c0.4,0,0.8-0.1,1.1-0.3c0.3-0.2,0.5-0.5,0.6-0.9c0.1-0.4,0.2-0.8,0.2-1.3c0-0.5-0.1-0.9-0.2-1.2
			c-0.1-0.4-0.3-0.7-0.6-0.9c-0.3-0.2-0.6-0.3-1.1-0.3c-0.4,0-0.8,0.1-1.1,0.3c-0.3,0.2-0.5,0.5-0.6,0.9c-0.1,0.4-0.2,0.8-0.2,1.2
			c0,0.5,0.1,0.9,0.2,1.3c0.1,0.4,0.3,0.7,0.6,0.9C47.7,59.7,48,59.8,48.5,59.8z"/>
		<path d="M56.3,63.6c-0.6,0-1-0.1-1.5-0.2c-0.4-0.1-0.7-0.3-1-0.6c-0.3-0.2-0.4-0.5-0.6-0.8l1.2-0.5c0.1,0.1,0.2,0.3,0.3,0.4
			c0.1,0.2,0.3,0.3,0.6,0.4c0.2,0.1,0.6,0.2,0.9,0.2c0.5,0,1-0.1,1.3-0.4c0.3-0.3,0.5-0.7,0.5-1.2v-1.4H58c-0.1,0.2-0.2,0.3-0.4,0.5
			s-0.4,0.3-0.6,0.5c-0.3,0.1-0.6,0.2-1.1,0.2c-0.6,0-1.1-0.1-1.5-0.4s-0.8-0.7-1.1-1.2C53.1,58.6,53,58,53,57.2
			c0-0.8,0.1-1.4,0.4-1.9c0.3-0.5,0.6-1,1.1-1.2c0.4-0.3,1-0.4,1.5-0.4c0.4,0,0.8,0.1,1.1,0.2c0.3,0.1,0.5,0.3,0.6,0.5
			c0.2,0.2,0.3,0.4,0.4,0.5h0.1v-1.1h1.4v7.2c0,0.6-0.1,1.1-0.4,1.5c-0.3,0.4-0.7,0.7-1.1,0.9C57.4,63.5,56.9,63.6,56.3,63.6z
			 M56.3,59.5c0.4,0,0.7-0.1,1-0.3c0.3-0.2,0.5-0.5,0.6-0.8c0.1-0.3,0.2-0.8,0.2-1.3c0-0.5-0.1-0.9-0.2-1.3
			c-0.1-0.4-0.3-0.6-0.6-0.9s-0.6-0.3-1-0.3c-0.4,0-0.8,0.1-1,0.3c-0.3,0.2-0.5,0.5-0.6,0.9c-0.1,0.4-0.2,0.8-0.2,1.2
			c0,0.5,0.1,0.9,0.2,1.2c0.1,0.4,0.4,0.6,0.6,0.8C55.5,59.4,55.8,59.5,56.3,59.5z"/>
		<path d="M62,52.6c-0.2,0-0.4-0.1-0.6-0.2s-0.3-0.4-0.3-0.6c0-0.2,0.1-0.4,0.3-0.6S61.8,51,62,51s0.4,0.1,0.6,0.2s0.3,0.4,0.3,0.6
			c0,0.2-0.1,0.4-0.3,0.6S62.3,52.6,62,52.6z M61.3,60.8v-7.1h1.4v7.1H61.3z"/>
		<path d="M65.9,56.6v4.2h-1.4v-7.1h1.3v1.2H66c0.2-0.4,0.4-0.7,0.8-0.9c0.3-0.2,0.8-0.3,1.3-0.3c0.5,0,0.9,0.1,1.3,0.3
			c0.4,0.2,0.6,0.5,0.8,0.9c0.2,0.4,0.3,0.9,0.3,1.5v4.5h-1.4v-4.3c0-0.5-0.1-0.9-0.4-1.2c-0.3-0.3-0.6-0.4-1.1-0.4
			c-0.3,0-0.6,0.1-0.9,0.2c-0.2,0.1-0.4,0.3-0.6,0.6S65.9,56.2,65.9,56.6z"/>
		<path d="M79.1,53.7v1.1h-3.9v-1.1H79.1z M76.2,52h1.4v6.7c0,0.3,0,0.5,0.1,0.6s0.2,0.2,0.3,0.3c0.1,0,0.3,0.1,0.4,0.1
			c0.1,0,0.2,0,0.3,0c0.1,0,0.1,0,0.2,0l0.2,1.1c-0.1,0-0.2,0.1-0.3,0.1c-0.1,0-0.3,0.1-0.6,0.1c-0.4,0-0.7-0.1-1-0.2
			s-0.6-0.3-0.8-0.6s-0.3-0.6-0.3-1.1V52z"/>
		<path d="M83.6,60.9c-0.7,0-1.2-0.2-1.7-0.5s-0.9-0.7-1.2-1.3s-0.4-1.2-0.4-1.9c0-0.7,0.1-1.4,0.4-1.9s0.7-1,1.2-1.3
			s1.1-0.5,1.7-0.5c0.7,0,1.2,0.2,1.7,0.5s0.9,0.7,1.2,1.3s0.4,1.2,0.4,1.9c0,0.7-0.1,1.4-0.4,1.9s-0.7,1-1.2,1.3
			S84.2,60.9,83.6,60.9z M83.6,59.8c0.4,0,0.8-0.1,1.1-0.3c0.3-0.2,0.5-0.5,0.6-0.9c0.1-0.4,0.2-0.8,0.2-1.3c0-0.5-0.1-0.9-0.2-1.2
			c-0.1-0.4-0.3-0.7-0.6-0.9c-0.3-0.2-0.6-0.3-1.1-0.3c-0.4,0-0.8,0.1-1.1,0.3c-0.3,0.2-0.5,0.5-0.6,0.9c-0.1,0.4-0.2,0.8-0.2,1.2
			c0,0.5,0.1,0.9,0.2,1.3c0.1,0.4,0.3,0.7,0.6,0.9C82.8,59.7,83.1,59.8,83.6,59.8z"/>
		<path d="M23,68.2v-1.2h7.3v1.2h-3v8.2H26v-8.2H23z"/>
		<path d="M31.8,76.4v-7.1h1.3v1.1h0.1c0.1-0.4,0.4-0.7,0.7-0.9c0.3-0.2,0.7-0.3,1.1-0.3c0.1,0,0.2,0,0.3,0c0.1,0,0.2,0,0.3,0v1.3
			c-0.1,0-0.2,0-0.3-0.1s-0.3,0-0.4,0c-0.3,0-0.6,0.1-0.9,0.2c-0.3,0.1-0.5,0.3-0.6,0.6c-0.1,0.2-0.2,0.5-0.2,0.8v4.3H31.8z"/>
		<path d="M38.8,76.5c-0.4,0-0.9-0.1-1.2-0.3c-0.4-0.2-0.7-0.4-0.9-0.7c-0.2-0.3-0.3-0.7-0.3-1.2c0-0.4,0.1-0.7,0.2-1
			c0.2-0.3,0.4-0.5,0.6-0.6c0.3-0.2,0.6-0.3,0.9-0.3c0.3-0.1,0.7-0.1,1-0.2c0.4,0,0.8-0.1,1-0.1c0.3,0,0.5-0.1,0.6-0.2
			c0.1-0.1,0.2-0.2,0.2-0.4v0c0-0.4-0.1-0.7-0.3-0.9c-0.2-0.2-0.6-0.3-1-0.3c-0.5,0-0.8,0.1-1.1,0.3c-0.3,0.2-0.5,0.4-0.6,0.7
			L36.6,71c0.2-0.4,0.4-0.8,0.7-1c0.3-0.3,0.6-0.5,1-0.6s0.8-0.2,1.2-0.2c0.3,0,0.6,0,0.9,0.1c0.3,0.1,0.6,0.2,0.9,0.4
			c0.3,0.2,0.5,0.4,0.7,0.8c0.2,0.3,0.3,0.7,0.3,1.3v4.7H41v-1h-0.1c-0.1,0.2-0.2,0.4-0.4,0.5c-0.2,0.2-0.4,0.3-0.7,0.4
			C39.6,76.5,39.2,76.5,38.8,76.5z M39.1,75.4c0.4,0,0.7-0.1,1-0.2s0.5-0.3,0.6-0.6c0.1-0.2,0.2-0.5,0.2-0.8v-0.9
			c0,0-0.1,0.1-0.3,0.1c-0.1,0-0.3,0.1-0.5,0.1c-0.2,0-0.4,0.1-0.5,0.1c-0.2,0-0.3,0-0.4,0.1c-0.3,0-0.5,0.1-0.7,0.2
			c-0.2,0.1-0.4,0.2-0.5,0.3c-0.1,0.1-0.2,0.3-0.2,0.6c0,0.3,0.1,0.6,0.4,0.8S38.7,75.4,39.1,75.4z"/>
		<path d="M46.8,76.5c-0.6,0-1.1-0.1-1.5-0.4c-0.4-0.3-0.8-0.7-1.1-1.3s-0.4-1.2-0.4-2c0-0.8,0.1-1.4,0.4-2c0.3-0.5,0.6-1,1.1-1.3
			c0.4-0.3,1-0.4,1.5-0.4c0.4,0,0.8,0.1,1.1,0.2c0.3,0.1,0.5,0.3,0.6,0.5c0.1,0.2,0.3,0.4,0.3,0.5h0.1v-3.5h1.4v9.5H49v-1.1h-0.1
			c-0.1,0.2-0.2,0.3-0.4,0.5c-0.2,0.2-0.4,0.4-0.6,0.5C47.6,76.5,47.2,76.5,46.8,76.5z M47.1,75.3c0.4,0,0.7-0.1,1-0.3
			c0.3-0.2,0.5-0.5,0.6-0.9s0.2-0.8,0.2-1.3c0-0.5-0.1-0.9-0.2-1.3c-0.1-0.4-0.3-0.7-0.6-0.9c-0.3-0.2-0.6-0.3-1-0.3
			c-0.4,0-0.8,0.1-1,0.3c-0.3,0.2-0.5,0.5-0.6,0.9s-0.2,0.8-0.2,1.3c0,0.5,0.1,0.9,0.2,1.3s0.4,0.7,0.6,0.9
			C46.4,75.2,46.7,75.3,47.1,75.3z"/>
		<path d="M55.4,76.5c-0.7,0-1.3-0.1-1.8-0.5c-0.5-0.3-0.9-0.7-1.2-1.3c-0.3-0.5-0.4-1.2-0.4-1.9c0-0.7,0.1-1.4,0.4-1.9
			c0.3-0.6,0.7-1,1.1-1.3c0.5-0.3,1.1-0.5,1.7-0.5c0.4,0,0.8,0.1,1.2,0.2s0.7,0.3,1,0.6c0.3,0.3,0.5,0.6,0.7,1.1
			c0.2,0.5,0.3,1,0.3,1.6v0.5h-5.6v-1H57c0-0.4-0.1-0.7-0.2-1c-0.1-0.3-0.4-0.5-0.6-0.7s-0.6-0.2-0.9-0.2c-0.4,0-0.7,0.1-1,0.3
			c-0.3,0.2-0.5,0.4-0.7,0.7s-0.2,0.6-0.2,1v0.8c0,0.5,0.1,0.9,0.3,1.2c0.2,0.3,0.4,0.6,0.7,0.8c0.3,0.2,0.7,0.3,1.1,0.3
			c0.3,0,0.5,0,0.7-0.1c0.2-0.1,0.4-0.2,0.6-0.3c0.2-0.2,0.3-0.3,0.4-0.6l1.3,0.2c-0.1,0.4-0.3,0.7-0.6,1c-0.3,0.3-0.6,0.5-1,0.7
			C56.3,76.5,55.9,76.5,55.4,76.5z"/>
		<path d="M61,66.9l2.3,3.7h0.1l2.3-3.7h1.7l-2.9,4.7l3,4.7h-1.7l-2.3-3.6h-0.1L61,76.4h-1.7l3-4.7l-3-4.7H61z"/>
		<path d="M68.6,79v-9.8h1.3v1.1h0.1c0.1-0.1,0.2-0.3,0.3-0.5c0.2-0.2,0.4-0.4,0.6-0.5c0.3-0.1,0.6-0.2,1.1-0.2
			c0.6,0,1.1,0.1,1.5,0.4c0.4,0.3,0.8,0.7,1.1,1.3c0.3,0.5,0.4,1.2,0.4,2c0,0.8-0.1,1.4-0.4,2s-0.6,1-1.1,1.3s-1,0.4-1.5,0.4
			c-0.4,0-0.8-0.1-1.1-0.2s-0.5-0.3-0.6-0.5c-0.2-0.2-0.3-0.4-0.4-0.5H70V79H68.6z M69.9,72.8c0,0.5,0.1,0.9,0.2,1.3
			s0.4,0.7,0.6,0.9s0.6,0.3,1,0.3c0.4,0,0.8-0.1,1-0.3c0.3-0.2,0.5-0.5,0.6-0.9s0.2-0.8,0.2-1.3c0-0.5-0.1-0.9-0.2-1.3
			c-0.1-0.4-0.3-0.7-0.6-0.9c-0.3-0.2-0.6-0.3-1-0.3c-0.4,0-0.7,0.1-1,0.3c-0.3,0.2-0.5,0.5-0.6,0.9C70,71.9,69.9,72.3,69.9,72.8z"
			/>
		<path d="M76.6,76.4v-7.1H78v1.1H78c0.1-0.4,0.4-0.7,0.7-0.9c0.3-0.2,0.7-0.3,1.1-0.3c0.1,0,0.2,0,0.3,0c0.1,0,0.2,0,0.3,0v1.3
			c-0.1,0-0.2,0-0.3-0.1s-0.3,0-0.4,0c-0.3,0-0.6,0.1-0.9,0.2c-0.3,0.1-0.5,0.3-0.6,0.6c-0.1,0.2-0.2,0.5-0.2,0.8v4.3H76.6z"/>
		<path d="M84.7,76.5c-0.7,0-1.3-0.1-1.8-0.5c-0.5-0.3-0.9-0.7-1.2-1.3c-0.3-0.5-0.4-1.2-0.4-1.9c0-0.7,0.1-1.4,0.4-1.9
			c0.3-0.6,0.7-1,1.1-1.3c0.5-0.3,1.1-0.5,1.7-0.5c0.4,0,0.8,0.1,1.2,0.2s0.7,0.3,1,0.6c0.3,0.3,0.5,0.6,0.7,1.1
			c0.2,0.5,0.3,1,0.3,1.6v0.5h-5.6v-1h4.3c0-0.4-0.1-0.7-0.2-1c-0.1-0.3-0.4-0.5-0.6-0.7s-0.6-0.2-0.9-0.2c-0.4,0-0.7,0.1-1,0.3
			c-0.3,0.2-0.5,0.4-0.7,0.7s-0.2,0.6-0.2,1v0.8c0,0.5,0.1,0.9,0.3,1.2c0.2,0.3,0.4,0.6,0.7,0.8c0.3,0.2,0.7,0.3,1.1,0.3
			c0.3,0,0.5,0,0.7-0.1c0.2-0.1,0.4-0.2,0.6-0.3c0.2-0.2,0.3-0.3,0.4-0.6l1.3,0.2c-0.1,0.4-0.3,0.7-0.6,1c-0.3,0.3-0.6,0.5-1,0.7
			C85.6,76.5,85.2,76.5,84.7,76.5z"/>
		<path d="M94.6,71l-1.3,0.2c-0.1-0.2-0.1-0.3-0.2-0.5c-0.1-0.1-0.3-0.3-0.5-0.4s-0.4-0.1-0.7-0.1c-0.4,0-0.7,0.1-1,0.3
			c-0.3,0.2-0.4,0.4-0.4,0.7c0,0.2,0.1,0.4,0.3,0.6c0.2,0.1,0.5,0.3,0.8,0.4l1.1,0.3c0.7,0.2,1.1,0.4,1.5,0.7
			c0.3,0.3,0.5,0.7,0.5,1.2c0,0.4-0.1,0.8-0.4,1.1c-0.2,0.3-0.6,0.6-1,0.8c-0.4,0.2-0.9,0.3-1.5,0.3c-0.8,0-1.4-0.2-1.9-0.5
			c-0.5-0.3-0.8-0.8-0.9-1.5l1.3-0.2c0.1,0.3,0.3,0.6,0.5,0.8c0.3,0.2,0.6,0.3,1,0.3c0.5,0,0.8-0.1,1.1-0.3c0.3-0.2,0.4-0.4,0.4-0.7
			c0-0.2-0.1-0.4-0.2-0.6s-0.4-0.3-0.8-0.3l-1.2-0.3c-0.7-0.2-1.2-0.4-1.5-0.7c-0.3-0.3-0.5-0.7-0.5-1.3c0-0.4,0.1-0.8,0.4-1.1
			s0.6-0.6,1-0.7c0.4-0.2,0.9-0.3,1.4-0.3c0.8,0,1.4,0.2,1.8,0.5C94.1,70,94.4,70.5,94.6,71z"/>
		<path d="M101.5,71l-1.3,0.2c-0.1-0.2-0.1-0.3-0.2-0.5c-0.1-0.1-0.3-0.3-0.5-0.4s-0.4-0.1-0.7-0.1c-0.4,0-0.7,0.1-1,0.3
			c-0.3,0.2-0.4,0.4-0.4,0.7c0,0.2,0.1,0.4,0.3,0.6c0.2,0.1,0.5,0.3,0.8,0.4l1.1,0.3c0.7,0.2,1.1,0.4,1.5,0.7
			c0.3,0.3,0.5,0.7,0.5,1.2c0,0.4-0.1,0.8-0.4,1.1c-0.2,0.3-0.6,0.6-1,0.8c-0.4,0.2-0.9,0.3-1.5,0.3c-0.8,0-1.4-0.2-1.9-0.5
			c-0.5-0.3-0.8-0.8-0.9-1.5l1.3-0.2c0.1,0.3,0.3,0.6,0.5,0.8c0.3,0.2,0.6,0.3,1,0.3c0.5,0,0.8-0.1,1.1-0.3c0.3-0.2,0.4-0.4,0.4-0.7
			c0-0.2-0.1-0.4-0.2-0.6s-0.4-0.3-0.8-0.3L98,73.3c-0.7-0.2-1.2-0.4-1.5-0.7c-0.3-0.3-0.5-0.7-0.5-1.3c0-0.4,0.1-0.8,0.4-1.1
			s0.6-0.6,1-0.7c0.4-0.2,0.9-0.3,1.4-0.3c0.8,0,1.4,0.2,1.8,0.5C101.1,70,101.4,70.5,101.5,71z"/>
	</g>
	<g>
		<path d="M179.5,54.9c0-0.4-0.3-0.8-0.6-1c-0.4-0.2-0.8-0.4-1.3-0.4c-0.4,0-0.7,0.1-1,0.2s-0.5,0.3-0.7,0.5
			c-0.2,0.2-0.2,0.5-0.2,0.7c0,0.2,0.1,0.4,0.2,0.6c0.1,0.2,0.2,0.3,0.4,0.4c0.2,0.1,0.4,0.2,0.6,0.3s0.4,0.1,0.6,0.2l0.9,0.2
			c0.3,0.1,0.6,0.2,0.9,0.3c0.3,0.1,0.6,0.3,0.9,0.5c0.3,0.2,0.5,0.5,0.7,0.8s0.3,0.7,0.3,1.1c0,0.5-0.1,1-0.4,1.4s-0.7,0.7-1.2,1
			c-0.5,0.2-1.2,0.4-1.9,0.4c-0.7,0-1.3-0.1-1.8-0.3c-0.5-0.2-0.9-0.5-1.2-1c-0.3-0.4-0.5-0.9-0.5-1.5h1.4c0,0.3,0.1,0.6,0.3,0.9
			c0.2,0.2,0.4,0.4,0.8,0.5c0.3,0.1,0.6,0.2,1,0.2c0.4,0,0.8-0.1,1.1-0.2s0.6-0.3,0.7-0.5c0.2-0.2,0.3-0.5,0.3-0.8
			c0-0.3-0.1-0.5-0.2-0.7c-0.2-0.2-0.4-0.3-0.6-0.4c-0.3-0.1-0.6-0.2-0.9-0.3l-1.1-0.3c-0.8-0.2-1.4-0.5-1.8-0.9s-0.7-0.9-0.7-1.6
			c0-0.5,0.1-1,0.4-1.4c0.3-0.4,0.7-0.7,1.2-0.9c0.5-0.2,1.1-0.3,1.7-0.3c0.6,0,1.2,0.1,1.7,0.3c0.5,0.2,0.9,0.5,1.2,0.9
			c0.3,0.4,0.4,0.8,0.4,1.4H179.5z"/>
		<path d="M185.7,62.1c-0.7,0-1.3-0.1-1.8-0.5c-0.5-0.3-0.9-0.7-1.2-1.3c-0.3-0.5-0.4-1.2-0.4-1.9c0-0.7,0.1-1.4,0.4-1.9
			c0.3-0.6,0.7-1,1.1-1.3c0.5-0.3,1.1-0.5,1.7-0.5c0.4,0,0.8,0.1,1.2,0.2c0.4,0.1,0.7,0.3,1,0.6c0.3,0.3,0.5,0.6,0.7,1.1
			c0.2,0.5,0.3,1,0.3,1.6v0.5h-5.6v-1h4.3c0-0.4-0.1-0.7-0.2-1c-0.1-0.3-0.4-0.5-0.6-0.7c-0.3-0.2-0.6-0.2-0.9-0.2
			c-0.4,0-0.7,0.1-1,0.3c-0.3,0.2-0.5,0.4-0.7,0.7s-0.2,0.6-0.2,1v0.8c0,0.5,0.1,0.9,0.3,1.2c0.2,0.3,0.4,0.6,0.7,0.8
			s0.7,0.3,1.1,0.3c0.3,0,0.5,0,0.7-0.1c0.2-0.1,0.4-0.2,0.6-0.3c0.2-0.2,0.3-0.3,0.4-0.6l1.3,0.2c-0.1,0.4-0.3,0.7-0.6,1
			c-0.3,0.3-0.6,0.5-1,0.7C186.6,62,186.2,62.1,185.7,62.1z"/>
		<path d="M191.6,52.5v9.5h-1.4v-9.5H191.6z"/>
		<path d="M196.5,62.1c-0.7,0-1.3-0.1-1.8-0.5c-0.5-0.3-0.9-0.7-1.2-1.3c-0.3-0.5-0.4-1.2-0.4-1.9c0-0.7,0.1-1.4,0.4-1.9
			c0.3-0.6,0.7-1,1.1-1.3c0.5-0.3,1.1-0.5,1.7-0.5c0.4,0,0.8,0.1,1.2,0.2c0.4,0.1,0.7,0.3,1,0.6s0.5,0.6,0.7,1.1
			c0.2,0.5,0.3,1,0.3,1.6v0.5h-5.6v-1h4.3c0-0.4-0.1-0.7-0.2-1c-0.1-0.3-0.4-0.5-0.6-0.7c-0.3-0.2-0.6-0.2-0.9-0.2
			c-0.4,0-0.7,0.1-1,0.3c-0.3,0.2-0.5,0.4-0.7,0.7s-0.2,0.6-0.2,1v0.8c0,0.5,0.1,0.9,0.3,1.2c0.2,0.3,0.4,0.6,0.7,0.8
			c0.3,0.2,0.7,0.3,1.1,0.3c0.3,0,0.5,0,0.7-0.1c0.2-0.1,0.4-0.2,0.6-0.3c0.2-0.2,0.3-0.3,0.4-0.6l1.3,0.2c-0.1,0.4-0.3,0.7-0.6,1
			c-0.3,0.3-0.6,0.5-1,0.7C197.5,62,197.1,62.1,196.5,62.1z"/>
		<path d="M204.1,62.1c-0.7,0-1.3-0.2-1.8-0.5c-0.5-0.3-0.9-0.7-1.1-1.3c-0.3-0.6-0.4-1.2-0.4-1.9c0-0.7,0.1-1.4,0.4-1.9
			c0.3-0.6,0.7-1,1.1-1.3c0.5-0.3,1.1-0.5,1.7-0.5c0.5,0,1,0.1,1.4,0.3c0.4,0.2,0.8,0.5,1,0.8c0.3,0.4,0.4,0.8,0.5,1.3h-1.3
			c-0.1-0.3-0.2-0.6-0.5-0.9c-0.3-0.2-0.6-0.4-1.1-0.4c-0.4,0-0.7,0.1-1,0.3c-0.3,0.2-0.5,0.5-0.7,0.9c-0.2,0.4-0.2,0.8-0.2,1.3
			c0,0.5,0.1,1,0.2,1.3s0.4,0.7,0.7,0.9c0.3,0.2,0.6,0.3,1,0.3c0.3,0,0.5,0,0.7-0.1c0.2-0.1,0.4-0.2,0.5-0.4s0.2-0.4,0.3-0.7h1.3
			c0,0.5-0.2,0.9-0.4,1.2c-0.2,0.4-0.6,0.6-1,0.8C205.2,62,204.7,62.1,204.1,62.1z"/>
		<path d="M211.8,54.8v1.1h-3.9v-1.1H211.8z M209,53.1h1.4v6.7c0,0.3,0,0.5,0.1,0.6s0.2,0.2,0.3,0.3c0.1,0,0.3,0.1,0.4,0.1
			c0.1,0,0.2,0,0.3,0s0.1,0,0.2,0l0.2,1.1c-0.1,0-0.2,0.1-0.3,0.1c-0.1,0-0.3,0.1-0.6,0.1c-0.4,0-0.7-0.1-1-0.2
			c-0.3-0.1-0.6-0.3-0.8-0.6c-0.2-0.3-0.3-0.6-0.3-1.1V53.1z"/>
		<path d="M184.2,77.5h-3.1v-9.5h3.2c0.9,0,1.7,0.2,2.4,0.6s1.2,0.9,1.5,1.6s0.5,1.5,0.5,2.5c0,1-0.2,1.8-0.5,2.5
			c-0.4,0.7-0.9,1.3-1.6,1.6C185.9,77.3,185.1,77.5,184.2,77.5z M182.5,76.3h1.6c0.7,0,1.3-0.1,1.8-0.4c0.5-0.3,0.8-0.7,1.1-1.2
			c0.2-0.5,0.4-1.2,0.4-1.9c0-0.7-0.1-1.4-0.4-1.9s-0.6-0.9-1-1.2c-0.5-0.3-1-0.4-1.7-0.4h-1.6V76.3z"/>
		<path d="M195.6,70.5c0-0.4-0.3-0.8-0.6-1c-0.4-0.2-0.8-0.4-1.3-0.4c-0.4,0-0.7,0.1-1,0.2s-0.5,0.3-0.7,0.5
			c-0.2,0.2-0.2,0.5-0.2,0.7c0,0.2,0.1,0.4,0.2,0.6c0.1,0.2,0.2,0.3,0.4,0.4c0.2,0.1,0.4,0.2,0.6,0.3s0.4,0.1,0.6,0.2l0.9,0.2
			c0.3,0.1,0.6,0.2,0.9,0.3c0.3,0.1,0.6,0.3,0.9,0.5c0.3,0.2,0.5,0.5,0.7,0.8s0.3,0.7,0.3,1.1c0,0.5-0.1,1-0.4,1.4s-0.7,0.7-1.2,1
			c-0.5,0.2-1.2,0.4-1.9,0.4c-0.7,0-1.3-0.1-1.8-0.3c-0.5-0.2-0.9-0.5-1.2-1c-0.3-0.4-0.5-0.9-0.5-1.5h1.4c0,0.3,0.1,0.6,0.3,0.9
			c0.2,0.2,0.4,0.4,0.8,0.5c0.3,0.1,0.6,0.2,1,0.2c0.4,0,0.8-0.1,1.1-0.2s0.6-0.3,0.7-0.5c0.2-0.2,0.3-0.5,0.3-0.8
			c0-0.3-0.1-0.5-0.2-0.7c-0.2-0.2-0.4-0.3-0.6-0.4c-0.3-0.1-0.6-0.2-0.9-0.3l-1.1-0.3c-0.8-0.2-1.4-0.5-1.8-0.9s-0.7-0.9-0.7-1.6
			c0-0.5,0.1-1,0.4-1.4c0.3-0.4,0.7-0.7,1.2-0.9c0.5-0.2,1.1-0.3,1.7-0.3c0.6,0,1.2,0.1,1.7,0.3c0.5,0.2,0.9,0.5,1.2,0.9
			c0.3,0.4,0.4,0.8,0.4,1.4H195.6z"/>
		<path d="M198.9,77.5v-9.5h5.9v1.2h-4.5v2.9h4.2v1.2h-4.2v2.9h4.6v1.2H198.9z"/>
	</g>
	<g>
		<path d="M312.8,54.9c0-0.4-0.3-0.8-0.6-1s-0.8-0.4-1.3-0.4c-0.4,0-0.7,0.1-1,0.2s-0.5,0.3-0.7,0.5c-0.2,0.2-0.2,0.5-0.2,0.7
			c0,0.2,0.1,0.4,0.2,0.6c0.1,0.2,0.2,0.3,0.4,0.4c0.2,0.1,0.4,0.2,0.6,0.3c0.2,0.1,0.4,0.1,0.6,0.2l0.9,0.2
			c0.3,0.1,0.6,0.2,0.9,0.3c0.3,0.1,0.6,0.3,0.9,0.5c0.3,0.2,0.5,0.5,0.7,0.8c0.2,0.3,0.3,0.7,0.3,1.1c0,0.5-0.1,1-0.4,1.4
			s-0.7,0.7-1.2,1c-0.5,0.2-1.2,0.4-1.9,0.4c-0.7,0-1.3-0.1-1.8-0.3s-0.9-0.5-1.2-1c-0.3-0.4-0.5-0.9-0.5-1.5h1.4
			c0,0.3,0.1,0.6,0.3,0.9c0.2,0.2,0.4,0.4,0.8,0.5c0.3,0.1,0.6,0.2,1,0.2c0.4,0,0.8-0.1,1.1-0.2s0.6-0.3,0.7-0.5
			c0.2-0.2,0.3-0.5,0.3-0.8c0-0.3-0.1-0.5-0.2-0.7c-0.2-0.2-0.4-0.3-0.6-0.4c-0.3-0.1-0.6-0.2-0.9-0.3l-1.1-0.3
			c-0.8-0.2-1.4-0.5-1.8-0.9c-0.4-0.4-0.7-0.9-0.7-1.6c0-0.5,0.1-1,0.4-1.4s0.7-0.7,1.2-0.9c0.5-0.2,1.1-0.3,1.7-0.3
			c0.6,0,1.2,0.1,1.7,0.3s0.9,0.5,1.2,0.9c0.3,0.4,0.4,0.8,0.4,1.4H312.8z"/>
		<path d="M318.9,62.1c-0.7,0-1.3-0.1-1.8-0.5c-0.5-0.3-0.9-0.7-1.2-1.3c-0.3-0.5-0.4-1.2-0.4-1.9c0-0.7,0.1-1.4,0.4-1.9
			c0.3-0.6,0.7-1,1.1-1.3c0.5-0.3,1.1-0.5,1.7-0.5c0.4,0,0.8,0.1,1.2,0.2s0.7,0.3,1,0.6c0.3,0.3,0.5,0.6,0.7,1.1
			c0.2,0.5,0.3,1,0.3,1.6v0.5h-5.6v-1h4.3c0-0.4-0.1-0.7-0.2-1c-0.1-0.3-0.4-0.5-0.6-0.7s-0.6-0.2-0.9-0.2c-0.4,0-0.7,0.1-1,0.3
			c-0.3,0.2-0.5,0.4-0.7,0.7s-0.2,0.6-0.2,1v0.8c0,0.5,0.1,0.9,0.3,1.2c0.2,0.3,0.4,0.6,0.7,0.8c0.3,0.2,0.7,0.3,1.1,0.3
			c0.3,0,0.5,0,0.7-0.1c0.2-0.1,0.4-0.2,0.6-0.3c0.2-0.2,0.3-0.3,0.4-0.6l1.3,0.2c-0.1,0.4-0.3,0.7-0.6,1c-0.3,0.3-0.6,0.5-1,0.7
			C319.9,62,319.5,62.1,318.9,62.1z"/>
		<path d="M324.9,52.5v9.5h-1.4v-9.5H324.9z"/>
		<path d="M329.8,62.1c-0.7,0-1.3-0.1-1.8-0.5c-0.5-0.3-0.9-0.7-1.2-1.3c-0.3-0.5-0.4-1.2-0.4-1.9c0-0.7,0.1-1.4,0.4-1.9
			c0.3-0.6,0.7-1,1.1-1.3c0.5-0.3,1.1-0.5,1.7-0.5c0.4,0,0.8,0.1,1.2,0.2s0.7,0.3,1,0.6c0.3,0.3,0.5,0.6,0.7,1.1
			c0.2,0.5,0.3,1,0.3,1.6v0.5h-5.6v-1h4.3c0-0.4-0.1-0.7-0.2-1c-0.1-0.3-0.4-0.5-0.6-0.7s-0.6-0.2-0.9-0.2c-0.4,0-0.7,0.1-1,0.3
			c-0.3,0.2-0.5,0.4-0.7,0.7s-0.2,0.6-0.2,1v0.8c0,0.5,0.1,0.9,0.3,1.2c0.2,0.3,0.4,0.6,0.7,0.8c0.3,0.2,0.7,0.3,1.1,0.3
			c0.3,0,0.5,0,0.7-0.1c0.2-0.1,0.4-0.2,0.6-0.3c0.2-0.2,0.3-0.3,0.4-0.6l1.3,0.2c-0.1,0.4-0.3,0.7-0.6,1c-0.3,0.3-0.6,0.5-1,0.7
			C330.8,62,330.3,62.1,329.8,62.1z"/>
		<path d="M337.4,62.1c-0.7,0-1.3-0.2-1.8-0.5c-0.5-0.3-0.9-0.7-1.1-1.3c-0.3-0.6-0.4-1.2-0.4-1.9c0-0.7,0.1-1.4,0.4-1.9
			c0.3-0.6,0.7-1,1.1-1.3c0.5-0.3,1.1-0.5,1.7-0.5c0.5,0,1,0.1,1.4,0.3c0.4,0.2,0.8,0.5,1,0.8s0.4,0.8,0.5,1.3H339
			c-0.1-0.3-0.2-0.6-0.5-0.9c-0.3-0.2-0.6-0.4-1.1-0.4c-0.4,0-0.7,0.1-1,0.3c-0.3,0.2-0.5,0.5-0.7,0.9c-0.2,0.4-0.2,0.8-0.2,1.3
			c0,0.5,0.1,1,0.2,1.3c0.2,0.4,0.4,0.7,0.7,0.9c0.3,0.2,0.6,0.3,1,0.3c0.3,0,0.5,0,0.7-0.1c0.2-0.1,0.4-0.2,0.5-0.4
			c0.1-0.2,0.2-0.4,0.3-0.7h1.3c0,0.5-0.2,0.9-0.4,1.2c-0.2,0.4-0.6,0.6-1,0.8C338.4,62,337.9,62.1,337.4,62.1z"/>
		<path d="M345.1,54.8v1.1h-3.9v-1.1H345.1z M342.3,53.1h1.4v6.7c0,0.3,0,0.5,0.1,0.6s0.2,0.2,0.3,0.3c0.1,0,0.3,0.1,0.4,0.1
			c0.1,0,0.2,0,0.3,0c0.1,0,0.1,0,0.2,0l0.2,1.1c-0.1,0-0.2,0.1-0.3,0.1c-0.1,0-0.3,0.1-0.6,0.1c-0.4,0-0.7-0.1-1-0.2
			s-0.6-0.3-0.8-0.6s-0.3-0.6-0.3-1.1V53.1z"/>
		<path d="M322.2,71.1h-1.4c-0.1-0.3-0.2-0.6-0.3-0.8s-0.3-0.4-0.6-0.6c-0.2-0.2-0.5-0.3-0.7-0.4s-0.6-0.1-0.9-0.1
			c-0.5,0-1,0.1-1.5,0.4s-0.8,0.7-1,1.2c-0.2,0.5-0.4,1.2-0.4,1.9c0,0.8,0.1,1.4,0.4,1.9c0.2,0.5,0.6,0.9,1,1.2
			c0.4,0.3,0.9,0.4,1.5,0.4c0.3,0,0.6,0,0.9-0.1c0.3-0.1,0.5-0.2,0.7-0.4c0.2-0.2,0.4-0.4,0.6-0.6c0.2-0.2,0.3-0.5,0.3-0.8l1.4,0
			c-0.1,0.5-0.2,0.9-0.4,1.3c-0.2,0.4-0.5,0.7-0.8,1s-0.7,0.5-1.2,0.7c-0.4,0.2-0.9,0.2-1.4,0.2c-0.8,0-1.5-0.2-2.2-0.6
			c-0.6-0.4-1.1-0.9-1.5-1.7c-0.4-0.7-0.6-1.6-0.6-2.6c0-1,0.2-1.9,0.6-2.6c0.4-0.7,0.9-1.3,1.5-1.7c0.6-0.4,1.4-0.6,2.2-0.6
			c0.5,0,1,0.1,1.4,0.2s0.8,0.4,1.2,0.6s0.6,0.6,0.9,1C321.9,70.2,322.1,70.6,322.2,71.1z"/>
		<path d="M329,70.5c0-0.4-0.3-0.8-0.6-1s-0.8-0.4-1.3-0.4c-0.4,0-0.7,0.1-1,0.2s-0.5,0.3-0.7,0.5c-0.2,0.2-0.2,0.5-0.2,0.7
			c0,0.2,0.1,0.4,0.2,0.6c0.1,0.2,0.2,0.3,0.4,0.4c0.2,0.1,0.4,0.2,0.6,0.3c0.2,0.1,0.4,0.1,0.6,0.2l0.9,0.2
			c0.3,0.1,0.6,0.2,0.9,0.3c0.3,0.1,0.6,0.3,0.9,0.5c0.3,0.2,0.5,0.5,0.7,0.8c0.2,0.3,0.3,0.7,0.3,1.1c0,0.5-0.1,1-0.4,1.4
			s-0.7,0.7-1.2,1c-0.5,0.2-1.2,0.4-1.9,0.4c-0.7,0-1.3-0.1-1.8-0.3s-0.9-0.5-1.2-1c-0.3-0.4-0.5-0.9-0.5-1.5h1.4
			c0,0.3,0.1,0.6,0.3,0.9c0.2,0.2,0.4,0.4,0.8,0.5c0.3,0.1,0.6,0.2,1,0.2c0.4,0,0.8-0.1,1.1-0.2s0.6-0.3,0.7-0.5
			c0.2-0.2,0.3-0.5,0.3-0.8c0-0.3-0.1-0.5-0.2-0.7c-0.2-0.2-0.4-0.3-0.6-0.4c-0.3-0.1-0.6-0.2-0.9-0.3l-1.1-0.3
			c-0.8-0.2-1.4-0.5-1.8-0.9c-0.4-0.4-0.7-0.9-0.7-1.6c0-0.5,0.1-1,0.4-1.4s0.7-0.7,1.2-0.9c0.5-0.2,1.1-0.3,1.7-0.3
			c0.6,0,1.2,0.1,1.7,0.3s0.9,0.5,1.2,0.9c0.3,0.4,0.4,0.8,0.4,1.4H329z"/>
		<path d="M332.2,77.5v-9.5h5.9v1.2h-4.5v2.9h4.2v1.2h-4.2v2.9h4.6v1.2H332.2z"/>
	</g>
</g>
</svg>
