<?xml version="1.0" encoding="utf-8"?>
<!-- Generator: Adobe Illustrator 26.0.1, SVG Export Plug-In . SVG Version: 6.00 Build 0)  -->
<svg version="1.0" id="Layer_1" xmlns="http://www.w3.org/2000/svg" xmlns:xlink="http://www.w3.org/1999/xlink" x="0px" y="0px"
	 viewBox="0 0 235.9 491.1" style="enable-background:new 0 0 235.9 491.1;" xml:space="preserve">
<style type="text/css">
	.st0{fill:#231F20;}
	.st1{fill:#FFFFFF;}
	.st2{fill:#F68832;}
	.st3{fill:#078241;}
	.st4{fill:#115D33;}
	.st5{fill:#0E4525;}
	.st6{fill:#186A60;}
	.st7{fill:#8F9393;}
	.st8{fill:#F6852B;}
	.st9{fill:#A33123;}
	.st10{fill:#B8342A;}
	.st11{fill:none;}
	.st12{fill:#669A9D;}
	.st13{fill:#F3D1B6;}
	.st14{fill:#E1C1A9;}
	.st15{fill:#C1DAEA;}
	.st16{fill:#8CD0DE;}
	.st17{fill:#E4E4E4;}
	.st18{fill:#FED8B7;}
	.st19{fill:#8D643D;}
	.st20{fill:#F2CFB5;}
	.st21{fill:#A2C1E6;}
	.st22{fill:#16695F;}
	.st23{fill:#4A4E5A;}
	.st24{fill:#F5EB10;}
	.st25{fill:#4FB862;}
	.st26{fill:#FBED1D;}
	.st27{fill:#FFFCFD;}
	.st28{fill:none;stroke:#FFFCFD;stroke-width:0.2565;stroke-linecap:round;stroke-miterlimit:10;}
	.st29{fill:#52A8DC;stroke:#FFFFFF;stroke-width:0.1539;stroke-miterlimit:10;}
	.st30{fill:#58B968;stroke:#FFFFFF;stroke-width:0.1539;stroke-miterlimit:10;}
	.st31{fill:#5859A6;}
	.st32{fill:#F16A39;}
	.st33{fill:#221F1F;}
	.st34{fill:#676868;}
	.st35{fill:#424345;}
	.st36{fill:#5CB948;}
	.st37{fill:#1B9282;}
	.st38{opacity:0.9;fill:#15534A;}
	.st39{fill:#3292D0;}
	.st40{fill:#21A64A;}
	.st41{opacity:0.9;fill:#104139;}
	.st42{fill:#4CB756;}
	.st43{fill:#7A6CAF;}
	.st44{fill:#E9262A;}
	.st45{fill:#105049;}
	.st46{fill:#F7F8F9;}
	.st47{fill:#BEBDBF;}
	.st48{fill:#EDECED;}
	.st49{fill:none;stroke:#CFD1D2;stroke-width:0.1874;stroke-miterlimit:10;}
	.st50{fill:#FFFFFF;stroke:#BCBDBF;stroke-width:0.15;stroke-miterlimit:10;}
	.st51{fill:#434244;}
	.st52{fill:#328BCB;}
</style>
<path class="st4" d="M203.6,484.3H32.3c-14.1,0-25.6-11.4-25.6-25.6V32.4c0-14.1,11.4-25.6,25.6-25.6h171.3
	c14.1,0,25.6,11.4,25.6,25.6v426.3C229.2,472.8,217.7,484.3,203.6,484.3z"/>
<g>
	<path class="st4" d="M203.4,1.6c17,0,30.9,13.9,30.9,31.1v425.7c0,17.1-13.9,31.1-30.9,31.1H32.5c-17,0-30.9-13.9-30.9-31.1V32.7
		c0-17.1,13.9-31.1,30.9-31.1H203.4 M203.4,0H32.5C14.6,0,0,14.7,0,32.7v425.7c0,18,14.6,32.7,32.5,32.7h170.9
		c17.9,0,32.5-14.7,32.5-32.7V32.7C235.9,14.7,221.3,0,203.4,0L203.4,0z"/>
</g>
<g>
	<rect x="6.7" y="32.5" class="st5" width="222.4" height="24.5"/>
</g>
<g>
	<rect x="6.7" y="57" class="st6" width="222.4" height="37.9"/>
</g>
<g>
	<g>
		<g id="XMLID_00000151504254733291610880000002823311317241441458_">
			<g id="XMLID_00000173868961388025140010000017036191675428848556_">
				<path class="st7" d="M27.8,83.3h4.3c1.6,0,2.7-0.4,3.1-1.1c0.1-0.1,0.1-0.2,0.2-0.3l-3.9-1.3L27.8,83.3z"/>
			</g>
			<g id="XMLID_00000138555234906914349490000005478220919834174082_">
				<path class="st7" d="M30.4,80.6H30v-2.2h1.5c0.5,0,0.8,0.1,1,0.4c0.2,0.2,0.3,0.5,0.3,0.8s-0.1,0.5-0.3,0.8l0,0l3.2,1
					c0.2-0.5,0.3-1,0.3-1.5c0-1.5-0.7-2.5-2.1-2.9c0.6-0.2,1-0.5,1.4-1c0.3-0.5,0.5-1,0.5-1.7c0-0.8-0.3-1.6-0.8-2.2
					c-0.5-0.7-1.3-1-2.5-1H27v12.3l0.4-0.6L30.4,80.6z M30.1,73.6h1.5c0.7,0,1.1,0.3,1.1,1c0,0.3-0.1,0.5-0.2,0.7
					c-0.2,0.2-0.4,0.3-0.8,0.3h-1.5v-2H30.1z"/>
			</g>
			<g id="XMLID_00000040556770497578666160000015913144066737020081_">
				<path class="st7" d="M41.8,77.1c0.2,0,0.4,0,0.6,0.1V74c-0.2,0-0.3,0-0.5,0c-1.1,0-1.8,0.7-2.1,2.1v-1.9h-2.6v6.5l3-2
					C40.4,77.6,40.9,77.1,41.8,77.1z"/>
			</g>
			<g id="XMLID_00000106107114002692798220000013343107825883883935_">
				<polygon class="st7" points="37.3,83.3 40.3,83.3 40.3,79.6 37.3,81.5 				"/>
			</g>
			<g id="XMLID_00000176016395445293749460000004586351012372759210_">
				<path class="st8" d="M48.4,78.3c0,0.1,0,0.2,0,0.4c0,0.6-0.1,1.2-0.2,1.8c-0.1,0.6-0.4,0.9-0.9,0.9c-0.3,0-0.6-0.2-0.8-0.5
					c-0.1-0.3-0.2-0.8-0.3-1.6l-0.5,0.2l-2.8-1.6c0,0.3-0.1,0.6-0.1,0.9c0,1.3,0.4,2.4,1.2,3.3c0.8,0.9,1.8,1.4,3.2,1.4
					c1.3,0,2.4-0.5,3.2-1.4c0.8-0.9,1.2-2.1,1.2-3.4c0-0.5-0.1-1.1-0.2-1.5L51.2,77L48.4,78.3z"/>
			</g>
			<g id="XMLID_00000019657517067380590240000005916062540126778796_">
				<path class="st8" d="M46.3,78.4c0-0.7,0.1-1.3,0.2-1.6c0.2-0.4,0.4-0.6,0.8-0.6s0.7,0.2,0.8,0.6c0.1,0.2,0.1,0.4,0.2,0.7
					l2.8-1.2c-0.2-0.3-0.4-0.7-0.6-0.9c-0.8-0.9-1.9-1.3-3.2-1.3c-1.3,0-2.4,0.5-3.2,1.4c-0.5,0.5-0.8,1.1-1,1.8l2.6,1.5L46.3,78.4z
					"/>
			</g>
			<g id="XMLID_00000003062794719769837340000002947532793429580689_">
				<polygon class="st3" points="53,78.4 53,83.3 55.9,83.3 55.9,80.8 56.8,79.6 58.3,83.3 61.5,83.3 58.8,77.3 59,77.1 54.3,79.7 
									"/>
			</g>
			<g id="XMLID_00000152225936452328052700000008926642580165360305_">
				<path class="st3" d="M59.6,76l0.2,0.1l1.5-1.9h-2.8l-2,2.6c-0.2,0.3-0.4,0.5-0.6,0.8c0-1,0-1.5,0-1.7v-5H53v6.5l1.4,1.3L59.6,76
					z"/>
			</g>
			<g id="XMLID_00000018230253328017336370000013457819953451800739_">
				<path class="st7" d="M76.2,74c-1.1,0-1.8,0.7-2.1,2.1v-1.9h-2.6v9.1h3v-4.2c0-1.3,0.5-2,1.6-2c0.2,0,0.4,0,0.6,0.1V74
					C76.4,74,76.3,74,76.2,74z"/>
			</g>
			<g>
				<g>
					<path class="st7" d="M67.1,77.6h-1.9l-1.5,1l-2-0.9c-0.1,0.4-0.1,0.7-0.1,1.1c0,1.3,0.4,2.4,1.2,3.3c0.8,0.9,1.9,1.3,3.2,1.3
						c1.2,0,2.2-0.3,2.9-0.9c0.7-0.6,1.2-1.4,1.3-2.3L67.3,80c-0.1,0.7-0.5,1.1-1.2,1.1c-0.5,0-0.8-0.1-1-0.4s-0.3-0.7-0.3-1.3h5.4
						c0-0.2,0-0.4,0-0.5c0-1.5-0.4-2.7-1.2-3.6l-0.1-0.1l-2.1,1.4C67,76.8,67.1,77.1,67.1,77.6z"/>
				</g>
				<g>
					<path class="st7" d="M62.8,75.4c-0.4,0.5-0.7,1-0.9,1.6l1.8,0.8l1.3-0.9c0.1-0.6,0.5-0.9,1-0.9c0.1,0,0.2,0,0.3,0l2.2-1.4
						c-0.7-0.5-1.5-0.7-2.4-0.7C64.6,73.9,63.6,74.4,62.8,75.4z"/>
				</g>
				<g>
					<path class="st7" d="M76,71.5l2.3-3l-3.6,0.8l0.5,0.8l-6.8,4.5c0.2,0.1,0.4,0.3,0.6,0.5l6.6-4.4L76,71.5z"/>
				</g>
			</g>
			<g id="XMLID_00000035499608246903996380000005533865045078424231_">
				<g id="XMLID_00000138571161899901299330000002377327729081987511_">
					<path class="st1" d="M23.6,83.3c-0.4,0.1-0.8,0.1-1.1,0.1c-0.4,0-0.7,0-1-0.2c-0.3-0.1-0.5-0.4-0.7-0.7
						c-0.2-0.4-0.3-0.9-0.3-1.5l0.1-3.5c0-0.5-0.1-0.9-0.2-1.1c-0.2-0.2-0.5-0.2-0.9-0.1l1.5-3.1c0.4-0.1,0.8-0.1,1.1-0.1
						c0.4,0,0.7,0,1,0.2c0.3,0.1,0.5,0.4,0.7,0.8s0.3,0.9,0.2,1.6l-0.1,3.5c0,0.5,0.1,0.9,0.2,1.1c0.2,0.2,0.5,0.2,0.9,0.1
						L23.6,83.3z M24.4,70c0.1,0.3,0,0.5,0,0.8c-0.1,0.2-0.2,0.5-0.3,0.6c-0.2,0.2-0.4,0.4-0.6,0.5s-0.5,0.2-0.7,0.3
						c-0.2,0.1-0.5,0.1-0.8,0c-0.3,0-0.5-0.1-0.7-0.2s-0.4-0.3-0.6-0.5s-0.3-0.4-0.3-0.7c-0.1-0.3,0-0.5,0-0.8
						c0.1-0.2,0.2-0.4,0.4-0.6c0.2-0.2,0.4-0.3,0.6-0.5c0.2-0.1,0.5-0.2,0.7-0.3c0.2-0.1,0.5-0.1,0.8,0c0.3,0,0.5,0.1,0.7,0.2
						s0.4,0.3,0.6,0.4C24.3,69.5,24.4,69.7,24.4,70z"/>
				</g>
			</g>
		</g>
	</g>
</g>
<g>
	<g>
		<g>
			<rect x="208.3" y="72.5" class="st1" width="6.2" height="1.2"/>
		</g>
		<g>
			<rect x="208.3" y="75.4" class="st1" width="6.2" height="1.2"/>
		</g>
		<g>
			<rect x="208.3" y="78.3" class="st1" width="6.2" height="1.2"/>
		</g>
	</g>
	<g>
		<polygon class="st1" points="206.3,73.6 207.6,73.6 205.9,71.9 204.2,73.6 205.5,73.6 205.5,78.5 204.2,78.5 205.9,80.2 
			207.6,78.5 206.3,78.5 		"/>
	</g>
</g>
<g>
	<g>
		<g>
			<ellipse class="st9" cx="178.8" cy="76" rx="9.1" ry="9.1"/>
		</g>
		<g>
			<path class="st10" d="M178.8,85.1c-5,0-9.1-4.1-9.1-9.1s4.1-9.1,9.1-9.1V85.1z"/>
		</g>
	</g>
	<g>
		<g>
			<g>
				<path class="st13" d="M177.3,78.4l-0.5,1.3l3.8,0.3l-0.5-1.4C178.8,79.4,177.8,78.8,177.3,78.4z"/>
			</g>
			<g>
				<path class="st14" d="M180.2,78.6l-0.4-1h-2.2l-0.3,0.8C177.8,78.8,178.8,79.4,180.2,78.6z"/>
			</g>
		</g>
		<g>
			<g>
				<path class="st15" d="M172.4,82.4L172.4,82.4c1.4,1.6,3.4,2.5,5.6,2.7c-0.4-1.4-1.2-4.6-1.5-5.6
					C175.2,80.6,172.9,81.5,172.4,82.4z"/>
			</g>
			<g>
				<path class="st15" d="M185.1,82.4c-0.5-0.8-2.7-1.7-4.1-2.9c-0.3,1-1.1,4.2-1.5,5.6C181.7,84.9,183.7,83.9,185.1,82.4
					L185.1,82.4z"/>
			</g>
		</g>
		<g>
			<g>
				<path class="st17" d="M180.4,78.8l-1.6,1l0,0V85l0,0h0.5c0.1,0,0.1,0,0.2,0c0.4-1.4,1.2-4.6,1.5-5.6
					C180.8,79.2,180.5,79,180.4,78.8z"/>
			</g>
			<g>
				<path class="st17" d="M178.8,85.1v-5.2l0,0l-1.6-1c-0.2,0.2-0.4,0.5-0.6,0.7c0.3,1,1.1,4.2,1.5,5.6c0.1,0,0.1,0,0.2,0
					L178.8,85.1L178.8,85.1z"/>
			</g>
		</g>
		<g>
			<g>
				<path class="st18" d="M178.8,70.8c-1.9,0-3.4,0.6-3.4,2.8c0,2.2,1.5,5.1,3.4,5.1l0,0V70.8L178.8,70.8z"/>
			</g>
			<g>
				<path class="st18" d="M182.2,73.5c0-2.2-1.5-2.8-3.4-2.8v7.9C180.7,78.6,182.2,75.7,182.2,73.5z"/>
			</g>
			<g>
				<path class="st19" d="M175.4,74.7h0.6c0,0,0.1-2.2,0.6-2.5s1.4,0.2,2.2,0v-2.5c0,0-2.1-0.1-2.9,0.8
					C175.4,71.1,175,72,175.4,74.7z"/>
			</g>
			<g>
				<path class="st19" d="M182.2,74.7h-0.6c0,0-0.1-2.2-0.6-2.5s-1.4,0.2-2.2,0v-2.5c0,0,2.1-0.1,2.9,0.8
					C182.2,71.1,182.6,72,182.2,74.7z"/>
			</g>
			<g>
				<ellipse transform="matrix(0.982 -0.189 0.189 0.982 -10.9527 34.5546)" class="st18" cx="175.7" cy="74.7" rx="0.5" ry="0.9"/>
			</g>
			<g>
				<path class="st20" d="M181.4,74.7c-0.1,0.5,0,0.9,0.3,1c0.3,0,0.5-0.3,0.6-0.8s0-0.9-0.3-1C181.8,73.8,181.5,74.2,181.4,74.7z"
					/>
			</g>
		</g>
		<g>
			<polygon class="st21" points="178.8,79.8 178.1,80 178.5,80.8 178.8,80.8 			"/>
		</g>
		<g>
			<polygon class="st1" points="178.8,79.8 177.7,80.8 176.7,79.3 177.2,78.8 			"/>
		</g>
		<g>
			<g>
				<path class="st1" d="M175.3,80.3l0.9,2.6l0.7-0.3l-0.4,1l0.7,1.4c0.3,0,0.6,0.1,0.8,0.1l-1.4-5.7L175.3,80.3z"/>
			</g>
			<g>
				<path class="st1" d="M180.7,82.5l0.7,0.3l0.9-2.6l-1.4-1l-1.4,5.7c0.3,0,0.6-0.1,0.8-0.1l0.7-1.4L180.7,82.5z"/>
			</g>
		</g>
		<g>
			<polygon class="st21" points="178.8,79.8 179.4,80 179.1,80.8 178.8,80.8 			"/>
		</g>
		<g>
			<polygon class="st1" points="178.8,79.8 179.9,80.8 180.8,79.3 180.4,78.8 			"/>
		</g>
		<g>
			<g>
				<path class="st21" d="M178.8,80.8v4.3c0.2,0,0.4,0,0.7,0l-0.4-4.2h-0.3V80.8z"/>
			</g>
			<g>
				<path class="st21" d="M178.8,80.8h-0.3l-0.4,4.2c0.2,0,0.4,0,0.7,0l0,0l0,0V80.8L178.8,80.8z"/>
			</g>
		</g>
	</g>
</g>
<g>
	<g>
		<polyline class="st1" points="125.8,71.2 123.6,71.2 121.9,80.4 121.1,80.4 122.8,71.2 120.5,71.2 120.7,70.4 126,70.4 
			125.8,71.2 		"/>
	</g>
	<g>
		<path class="st1" d="M127.5,73.7c-0.2,0-0.3,0-0.4,0c-0.4,0-0.8,0.2-1.1,0.5c-0.4,0.4-0.6,0.9-0.7,1.6l-0.8,4.7h-0.7l1.4-7.5h0.7
			l-0.2,1.2l0,0c0.5-0.9,1.1-1.4,1.8-1.4c0,0,0.1,0,0.2,0c0.1,0,0.1,0,0.1,0L127.5,73.7"/>
	</g>
	<g>
		<path class="st1" d="M131.1,80.5c-0.1,0-0.1,0-0.2,0c-0.1,0-0.2,0-0.3,0c-0.4,0-0.6-0.2-0.6-0.6c0-0.1,0-0.2,0-0.3v-0.2l0,0
			c-0.2,0.4-0.5,0.7-0.9,0.9c-0.4,0.2-0.7,0.3-1,0.3c-0.9,0-1.4-0.5-1.4-1.5c0-0.2,0-0.4,0.1-0.7c0.1-0.7,0.4-1.2,0.7-1.5
			c0.3-0.3,0.7-0.5,1.3-0.6c0.3-0.1,0.8-0.2,1.4-0.4c0.3-0.1,0.4-0.4,0.5-0.9c0-0.2,0-0.4,0-0.5c0-0.6-0.3-0.9-0.9-0.9
			c-0.8,0-1.4,0.6-1.6,1.7h-0.7c0.3-1.6,1.1-2.4,2.4-2.4c1.1,0,1.6,0.5,1.6,1.4c0,0.2,0,0.4-0.1,0.7l-0.8,4.6
			c-0.1,0.3,0,0.5,0.2,0.5c0,0,0.1,0,0.2,0L131.1,80.5 M130.2,78.1l0.3-1.8c-0.2,0.2-0.4,0.3-0.8,0.4c-0.3,0.1-0.6,0.2-0.9,0.3
			c-0.4,0.1-0.6,0.3-0.8,0.5s-0.4,0.6-0.4,1c0,0.2,0,0.3,0,0.5c0,0.7,0.3,1,0.8,1c0.4,0,0.8-0.2,1.1-0.5
			C129.8,79.2,130.1,78.7,130.2,78.1z"/>
	</g>
	<g>
		<path class="st1" d="M135.4,80.4h-0.7l0.2-1.2l0,0c-0.4,0.9-1,1.4-1.8,1.4c-1,0-1.5-0.7-1.5-2.2c0-0.5,0.1-1.1,0.2-1.7
			c0.5-2.6,1.4-3.9,2.7-3.9c0.3,0,0.6,0.1,0.9,0.3c0.2,0.2,0.4,0.5,0.4,1l0,0l0.7-3.7h0.7L135.4,80.4 M135.4,76.7
			c0.1-0.6,0.2-1.1,0.2-1.5c0-1.1-0.3-1.7-1-1.7c-0.9,0-1.6,1.1-2,3.2c-0.1,0.7-0.2,1.2-0.2,1.7c0,1,0.3,1.5,1,1.5
			C134.3,79.9,135,78.8,135.4,76.7z"/>
	</g>
	<g>
		<path class="st1" d="M140.8,76.8h-3.5c-0.1,0.7-0.2,1.3-0.2,1.7c0,1,0.3,1.5,1,1.5c0.4,0,0.7-0.2,1-0.5s0.5-0.8,0.6-1.4h0.7
			c-0.1,0.7-0.4,1.4-0.9,1.8c-0.5,0.5-1,0.8-1.7,0.8c-1.1,0-1.6-0.7-1.6-2.1c0-0.5,0.1-1.1,0.2-1.8c0.5-2.6,1.4-3.8,2.9-3.8
			c1.1,0,1.6,0.6,1.6,1.9C141.1,75.3,141,75.9,140.8,76.8 M140.2,76.1c0.1-0.5,0.1-0.9,0.1-1.3c0-0.9-0.3-1.3-1-1.3
			c-0.9,0-1.6,0.9-1.9,2.6C137.4,76.1,140.2,76.1,140.2,76.1z"/>
	</g>
	<g>
		<path class="st1" d="M152,75.9c-0.1,0.7-0.4,1.3-0.7,1.7c-0.4,0.4-0.7,0.6-1.2,0.6c-0.3,0-0.5-0.1-0.7-0.2
			c-0.1-0.1-0.2-0.2-0.2-0.4l-0.4,2.1h-0.9L149,74h0.9l-0.1,0.6c0.1-0.2,0.3-0.3,0.4-0.4c0.2-0.2,0.5-0.3,0.8-0.3
			c0.4,0,0.7,0.2,1,0.5C152.1,74.7,152.2,75.2,152,75.9 M150.5,74.7c-0.3,0-0.6,0.2-0.8,0.6c-0.1,0.2-0.2,0.4-0.2,0.7
			c-0.1,0.5,0,0.8,0.1,1c0.1,0.1,0.3,0.2,0.4,0.2c0.3,0,0.5-0.1,0.7-0.3c0.2-0.2,0.3-0.5,0.4-0.9c0.1-0.3,0-0.6,0-0.8
			C150.9,74.8,150.8,74.7,150.5,74.7z"/>
	</g>
	<g>
		<path class="st1" d="M154.7,73.8l-0.2,1.1c-0.1,0-0.1,0-0.2,0h-0.1c-0.4,0-0.7,0.1-0.8,0.4c-0.1,0.2-0.2,0.4-0.2,0.7l-0.4,2h-0.9
			l0.8-4.1h0.9l-0.1,0.7c0.2-0.3,0.4-0.5,0.5-0.6c0.2-0.2,0.4-0.3,0.7-0.3V73.8C154.6,73.8,154.7,73.8,154.7,73.8"/>
	</g>
	<g>
		<path class="st1" d="M157.7,74.5c0.1,0.2,0.1,0.5,0.1,0.9c0,0.2,0,0.5-0.1,0.8h-2.5c-0.1,0.4,0,0.7,0.2,0.9
			c0.1,0.1,0.3,0.2,0.4,0.2c0.2,0,0.4-0.1,0.5-0.2s0.2-0.2,0.2-0.3h0.9c-0.1,0.2-0.2,0.5-0.5,0.7c-0.4,0.4-0.8,0.6-1.4,0.6
			c-0.5,0-0.8-0.2-1.1-0.5s-0.4-0.9-0.2-1.6c0.1-0.7,0.4-1.3,0.8-1.6c0.4-0.4,0.8-0.6,1.3-0.6c0.3,0,0.5,0.1,0.8,0.2
			S157.6,74.3,157.7,74.5 M155.4,75.5h1.4c0-0.3,0-0.5-0.1-0.6s-0.3-0.2-0.5-0.2s-0.4,0.1-0.5,0.2C155.6,75,155.5,75.2,155.4,75.5z"
			/>
	</g>
	<g>
		<path class="st1" d="M158.6,76.7c0,0.2,0,0.3,0.1,0.4s0.3,0.2,0.6,0.2c0.2,0,0.3,0,0.5-0.1c0.1-0.1,0.2-0.2,0.2-0.3
			c0-0.1,0-0.2-0.1-0.3c-0.1-0.1-0.4-0.2-0.9-0.3c-0.4-0.1-0.6-0.3-0.8-0.4c-0.1-0.2-0.2-0.4-0.1-0.7c0.1-0.4,0.3-0.7,0.6-1
			s0.7-0.4,1.2-0.4c0.4,0,0.8,0.1,1,0.3c0.2,0.2,0.3,0.6,0.3,1.1h-1c0-0.1,0-0.2,0-0.3c-0.1-0.1-0.2-0.2-0.5-0.2
			c-0.2,0-0.4,0-0.5,0.1S159,75,159,75.1c0,0.1,0,0.2,0.1,0.3c0.1,0.1,0.4,0.2,0.9,0.3c0.4,0.1,0.6,0.3,0.7,0.5
			c0.1,0.2,0.2,0.5,0.1,0.8c-0.1,0.4-0.3,0.7-0.6,1s-0.7,0.4-1.3,0.4s-0.9-0.1-1.2-0.4c-0.2-0.3-0.3-0.6-0.2-1h1.1"/>
	</g>
	<g>
		<path class="st1" d="M162,76.7c0,0.2,0,0.3,0.1,0.4s0.3,0.2,0.6,0.2c0.2,0,0.3,0,0.5-0.1c0.1-0.1,0.2-0.2,0.2-0.3
			c0-0.1,0-0.2-0.1-0.3c-0.1-0.1-0.4-0.2-0.9-0.3c-0.4-0.1-0.6-0.3-0.8-0.4c-0.1-0.2-0.2-0.4-0.1-0.7c0.1-0.4,0.3-0.7,0.6-1
			s0.7-0.4,1.2-0.4c0.4,0,0.8,0.1,1,0.3c0.2,0.2,0.3,0.6,0.3,1.1h-0.9c0-0.1,0-0.2,0-0.3c-0.1-0.1-0.2-0.2-0.5-0.2
			c-0.2,0-0.4,0-0.5,0.1s-0.2,0.2-0.2,0.3c0,0.1,0,0.2,0.1,0.3c0.1,0.1,0.4,0.2,0.9,0.3c0.4,0.1,0.6,0.3,0.7,0.5
			c0.1,0.2,0.2,0.5,0.1,0.8c-0.1,0.4-0.3,0.7-0.6,1s-0.7,0.4-1.3,0.4s-0.9-0.1-1.2-0.4c-0.2-0.3-0.3-0.6-0.2-1h1"/>
	</g>
	<g>
		<g>
			<polyline class="st1" points="144.1,76.1 139.4,68.7 138.5,68.7 143.8,76.2 140.8,80.9 140.9,80.9 144.1,76.1 			"/>
		</g>
		<g>
			<polyline class="st2" points="145.9,74.7 141.9,80.9 142,80.9 146.2,74.6 142.4,68.6 139.3,68.6 139.4,68.7 141.7,68.7 
				145.9,74.7 			"/>
		</g>
		<g>
			<polyline class="st2" points="140.9,80.9 141.9,80.9 145.9,74.7 141.7,68.7 139.4,68.7 144.1,76.1 140.9,80.9 			"/>
		</g>
		<g>
			<polyline class="st1" points="149.2,79.6 149.1,80.1 147.4,80.1 147.9,77.6 146.7,75.9 151.1,69 150,69 144.6,77.4 148.7,83.4 
				151.7,83.4 149.2,79.6 			"/>
		</g>
		<g>
			<polyline class="st3" points="149.1,80.1 147.4,80.1 147.9,77.3 147,75.8 151.8,68.8 150.7,68.8 144.9,77.3 148.7,83.4 
				151.8,83.4 149.3,79.4 149.1,80.1 			"/>
		</g>
	</g>
</g>
<g>
	<path class="st1" d="M32.1,484.1c-13.9,0-25.3-11.3-25.3-25.3V95H229v363.8c0,13.9-11.3,25.3-25.3,25.3H32.1z"/>
	<path class="st4" d="M228.8,95.2v363.7c0,13.9-11.3,25.1-25.1,25.1H32.1c-13.9,0-25.1-11.3-25.1-25.1V95.2H228.8 M229.1,94.9H6.7
		v363.9c0,14,11.4,25.4,25.4,25.4h171.6c14,0,25.4-11.4,25.4-25.4V94.9L229.1,94.9z"/>
</g>
<g>
	<g>
		<path class="st46" d="M18.1,466.5c-2,0-3.6-1.6-3.6-3.6V107c0-2,1.6-3.6,3.6-3.6h199.6c2,0,3.6,1.6,3.6,3.6v355.9
			c0,2-1.6,3.6-3.6,3.6H18.1z"/>
		<path class="st47" d="M217.8,103.5c1.9,0,3.5,1.6,3.5,3.5v355.9c0,1.9-1.6,3.5-3.5,3.5H18.1c-1.9,0-3.5-1.6-3.5-3.5V107
			c0-1.9,1.6-3.5,3.5-3.5H217.8 M217.8,103.3H18.1c-2.1,0-3.7,1.7-3.7,3.7v355.9c0,2.1,1.7,3.7,3.7,3.7h199.6c2.1,0,3.7-1.7,3.7-3.7
			V107C221.5,104.9,219.8,103.3,217.8,103.3L217.8,103.3z"/>
	</g>
	<g>
		<path class="st48" d="M221.1,144.6H14.8v-39.8c0-0.7,0.6-1.2,1.2-1.2h203.8c0.7,0,1.2,0.6,1.2,1.2V144.6z"/>
	</g>
	<line class="st49" x1="14.4" y1="144.6" x2="221.5" y2="144.6"/>
	<g>
		<path class="st0" d="M22.7,165v-7.1h0.9v7.1H22.7z"/>
		<path class="st0" d="M25.2,165v-5.1H26v0.7c0.4-0.6,0.9-0.8,1.6-0.8c0.3,0,0.6,0.1,0.9,0.2c0.3,0.1,0.5,0.3,0.6,0.4
			c0.1,0.2,0.2,0.4,0.3,0.6c0,0.2,0,0.4,0,0.8v3.2h-0.9v-3.1c0-0.4,0-0.6-0.1-0.8c-0.1-0.2-0.2-0.3-0.4-0.4
			c-0.2-0.1-0.4-0.2-0.6-0.2c-0.4,0-0.7,0.1-1,0.4c-0.3,0.2-0.4,0.7-0.4,1.3v2.8H25.2z"/>
		<path class="st0" d="M32.1,165l-2-5.1h0.9l1.1,3.1c0.1,0.3,0.2,0.7,0.3,1c0.1-0.3,0.2-0.6,0.3-1l1.1-3.1h0.9l-1.9,5.1H32.1z"/>
		<path class="st0" d="M39.2,163.4l0.9,0.1c-0.1,0.5-0.4,0.9-0.8,1.2c-0.4,0.3-0.9,0.4-1.5,0.4c-0.8,0-1.3-0.2-1.8-0.7
			c-0.4-0.5-0.7-1.1-0.7-1.9c0-0.9,0.2-1.5,0.7-2c0.4-0.5,1-0.7,1.7-0.7c0.7,0,1.2,0.2,1.7,0.7c0.4,0.5,0.7,1.1,0.7,2
			c0,0.1,0,0.1,0,0.2h-3.8c0,0.6,0.2,1,0.5,1.3c0.3,0.3,0.6,0.4,1.1,0.4c0.3,0,0.6-0.1,0.8-0.3S39,163.8,39.2,163.4z M36.3,162h2.9
			c0-0.4-0.1-0.8-0.3-1c-0.3-0.3-0.6-0.5-1.1-0.5c-0.4,0-0.7,0.1-1,0.4S36.3,161.5,36.3,162z"/>
		<path class="st0" d="M40.8,163.5l0.9-0.1c0,0.3,0.2,0.6,0.4,0.8c0.2,0.2,0.5,0.3,0.9,0.3c0.4,0,0.7-0.1,0.9-0.2s0.3-0.4,0.3-0.6
			c0-0.2-0.1-0.4-0.3-0.5c-0.1-0.1-0.4-0.2-0.9-0.3c-0.6-0.2-1.1-0.3-1.3-0.4c-0.2-0.1-0.4-0.3-0.6-0.5s-0.2-0.4-0.2-0.7
			c0-0.2,0.1-0.4,0.2-0.6c0.1-0.2,0.2-0.4,0.4-0.5c0.1-0.1,0.3-0.2,0.6-0.3c0.2-0.1,0.5-0.1,0.8-0.1c0.4,0,0.8,0.1,1.1,0.2
			c0.3,0.1,0.5,0.3,0.7,0.5c0.1,0.2,0.2,0.5,0.3,0.8l-0.9,0.1c0-0.3-0.2-0.5-0.3-0.6c-0.2-0.1-0.4-0.2-0.8-0.2
			c-0.4,0-0.7,0.1-0.9,0.2c-0.2,0.1-0.3,0.3-0.3,0.5c0,0.1,0,0.2,0.1,0.3c0.1,0.1,0.2,0.2,0.3,0.2c0.1,0,0.3,0.1,0.8,0.2
			c0.6,0.2,1,0.3,1.3,0.4c0.2,0.1,0.4,0.3,0.6,0.5c0.1,0.2,0.2,0.4,0.2,0.7c0,0.3-0.1,0.6-0.3,0.8s-0.4,0.5-0.7,0.6
			s-0.7,0.2-1.1,0.2c-0.7,0-1.2-0.1-1.5-0.4C41.1,164.5,40.9,164,40.8,163.5z"/>
		<path class="st0" d="M48,164.3l0.1,0.8c-0.2,0.1-0.5,0.1-0.7,0.1c-0.3,0-0.6-0.1-0.7-0.1c-0.2-0.1-0.3-0.2-0.4-0.4
			c-0.1-0.2-0.1-0.5-0.1-1v-3h-0.6v-0.7h0.6v-1.3l0.9-0.5v1.8H48v0.7h-0.9v3c0,0.2,0,0.4,0,0.5s0.1,0.1,0.2,0.2
			c0.1,0,0.2,0.1,0.3,0.1C47.7,164.3,47.8,164.3,48,164.3z"/>
		<path class="st0" d="M48.5,162.5c0-1,0.3-1.7,0.8-2.1c0.4-0.4,1-0.6,1.6-0.6c0.7,0,1.3,0.2,1.7,0.7s0.7,1.1,0.7,1.9
			c0,0.7-0.1,1.2-0.3,1.6s-0.5,0.7-0.9,0.9c-0.4,0.2-0.8,0.3-1.2,0.3c-0.7,0-1.3-0.2-1.7-0.7C48.7,164,48.5,163.3,48.5,162.5z
			 M49.4,162.5c0,0.7,0.1,1.1,0.4,1.5c0.3,0.3,0.6,0.5,1.1,0.5c0.4,0,0.8-0.2,1.1-0.5c0.3-0.3,0.4-0.8,0.4-1.5
			c0-0.6-0.1-1.1-0.4-1.4c-0.3-0.3-0.6-0.5-1.1-0.5c-0.4,0-0.8,0.2-1.1,0.5C49.5,161.3,49.4,161.8,49.4,162.5z"/>
		<path class="st0" d="M54.3,165v-5.1h0.8v0.8c0.2-0.4,0.4-0.6,0.6-0.7c0.2-0.1,0.4-0.2,0.6-0.2c0.3,0,0.6,0.1,0.9,0.3l-0.3,0.8
			c-0.2-0.1-0.4-0.2-0.6-0.2c-0.2,0-0.4,0.1-0.5,0.2c-0.2,0.1-0.3,0.3-0.3,0.5c-0.1,0.3-0.1,0.6-0.1,1v2.7H54.3z"/>
		<path class="st0" d="M65.6,162.6l0.9,0.2c-0.2,0.8-0.6,1.4-1.1,1.8c-0.5,0.4-1.1,0.6-1.9,0.6c-0.8,0-1.4-0.2-1.9-0.5
			s-0.8-0.8-1.1-1.4s-0.4-1.2-0.4-1.9c0-0.7,0.1-1.4,0.4-1.9c0.3-0.5,0.7-1,1.2-1.3c0.5-0.3,1.1-0.4,1.7-0.4c0.7,0,1.3,0.2,1.8,0.5
			c0.5,0.4,0.8,0.9,1,1.5l-0.9,0.2c-0.2-0.5-0.4-0.9-0.7-1.1c-0.3-0.2-0.7-0.4-1.2-0.4c-0.5,0-1,0.1-1.4,0.4
			c-0.4,0.3-0.6,0.6-0.8,1.1s-0.2,0.9-0.2,1.4c0,0.6,0.1,1.1,0.3,1.6s0.4,0.8,0.8,1c0.4,0.2,0.8,0.3,1.2,0.3c0.5,0,1-0.2,1.3-0.5
			S65.4,163.1,65.6,162.6z"/>
		<path class="st0" d="M67.2,162.5c0-1,0.3-1.7,0.8-2.1c0.4-0.4,1-0.6,1.6-0.6c0.7,0,1.3,0.2,1.7,0.7s0.7,1.1,0.7,1.9
			c0,0.7-0.1,1.2-0.3,1.6s-0.5,0.7-0.9,0.9c-0.4,0.2-0.8,0.3-1.2,0.3c-0.7,0-1.3-0.2-1.7-0.7C67.4,164,67.2,163.3,67.2,162.5z
			 M68.1,162.5c0,0.7,0.1,1.1,0.4,1.5c0.3,0.3,0.6,0.5,1.1,0.5c0.4,0,0.8-0.2,1.1-0.5c0.3-0.3,0.4-0.8,0.4-1.5
			c0-0.6-0.1-1.1-0.4-1.4c-0.3-0.3-0.6-0.5-1.1-0.5c-0.4,0-0.8,0.2-1.1,0.5C68.2,161.3,68.1,161.8,68.1,162.5z"/>
		<path class="st0" d="M76.4,165v-0.6c-0.3,0.5-0.8,0.8-1.4,0.8c-0.4,0-0.8-0.1-1.1-0.3c-0.3-0.2-0.6-0.5-0.8-0.9
			c-0.2-0.4-0.3-0.9-0.3-1.4c0-0.5,0.1-1,0.3-1.4s0.4-0.7,0.8-1c0.3-0.2,0.7-0.3,1.1-0.3c0.3,0,0.6,0.1,0.8,0.2
			c0.2,0.1,0.4,0.3,0.6,0.5v-2.5h0.9v7.1H76.4z M73.6,162.5c0,0.7,0.1,1.1,0.4,1.5s0.6,0.5,1,0.5c0.4,0,0.7-0.2,1-0.5
			c0.3-0.3,0.4-0.8,0.4-1.4c0-0.7-0.1-1.2-0.4-1.5c-0.3-0.3-0.6-0.5-1-0.5c-0.4,0-0.7,0.2-1,0.5S73.6,161.8,73.6,162.5z"/>
		<path class="st0" d="M82.1,163.4l0.9,0.1c-0.1,0.5-0.4,0.9-0.8,1.2c-0.4,0.3-0.9,0.4-1.5,0.4c-0.8,0-1.3-0.2-1.8-0.7
			c-0.4-0.5-0.7-1.1-0.7-1.9c0-0.9,0.2-1.5,0.7-2c0.4-0.5,1-0.7,1.7-0.7c0.7,0,1.2,0.2,1.7,0.7c0.4,0.5,0.7,1.1,0.7,2
			c0,0.1,0,0.1,0,0.2h-3.8c0,0.6,0.2,1,0.5,1.3c0.3,0.3,0.6,0.4,1.1,0.4c0.3,0,0.6-0.1,0.8-0.3S81.9,163.8,82.1,163.4z M79.2,162
			h2.9c0-0.4-0.1-0.8-0.3-1c-0.3-0.3-0.6-0.5-1.1-0.5c-0.4,0-0.7,0.1-1,0.4S79.2,161.5,79.2,162z"/>
	</g>
	<g>
		<path class="st50" d="M212,196.6H23.9c-1.2,0-2.1-1-2.1-2.1v-19.9c0-1.2,1-2.1,2.1-2.1H212c1.2,0,2.1,1,2.1,2.1v19.9
			C214.1,195.6,213.2,196.6,212,196.6z"/>
	</g>
	<g>
		<path class="st51" d="M29.6,188v-6.8h4.9v0.8h-4v2.1h3.7v0.8h-3.7v2.3h4.2v0.8H29.6z"/>
		<path class="st51" d="M35.5,182.5l0.2-0.7c0.5,0.2,0.8,0.3,1.1,0.4c-0.1-0.6-0.1-0.9-0.1-1.1h0.7c0,0.3,0,0.7-0.1,1.1
			c0.3-0.2,0.7-0.3,1.1-0.4l0.2,0.7c-0.4,0.1-0.8,0.2-1.1,0.3c0.2,0.2,0.5,0.5,0.8,0.9l-0.6,0.4c-0.2-0.2-0.4-0.6-0.6-1
			c-0.2,0.4-0.4,0.8-0.6,1l-0.5-0.4c0.4-0.4,0.6-0.7,0.8-0.9C36.2,182.7,35.8,182.6,35.5,182.5z"/>
		<path class="st51" d="M39.2,182.5l0.2-0.7c0.5,0.2,0.8,0.3,1.1,0.4c-0.1-0.6-0.1-0.9-0.1-1.1H41c0,0.3,0,0.7-0.1,1.1
			c0.3-0.2,0.7-0.3,1.1-0.4l0.2,0.7c-0.4,0.1-0.8,0.2-1.1,0.3c0.2,0.2,0.5,0.5,0.8,0.9l-0.6,0.4c-0.2-0.2-0.4-0.6-0.6-1
			c-0.2,0.4-0.4,0.8-0.6,1l-0.5-0.4c0.4-0.4,0.6-0.7,0.8-0.9C39.9,182.7,39.5,182.6,39.2,182.5z"/>
		<path class="st51" d="M42.8,182.5l0.2-0.7c0.5,0.2,0.8,0.3,1.1,0.4c-0.1-0.6-0.1-0.9-0.1-1.1h0.7c0,0.3,0,0.7-0.1,1.1
			c0.3-0.2,0.7-0.3,1.1-0.4l0.2,0.7c-0.4,0.1-0.8,0.2-1.1,0.3c0.2,0.2,0.5,0.5,0.8,0.9L45,184c-0.2-0.2-0.4-0.6-0.6-1
			c-0.2,0.4-0.4,0.8-0.6,1l-0.5-0.4c0.4-0.4,0.6-0.7,0.8-0.9C43.6,182.7,43.2,182.6,42.8,182.5z"/>
		<path class="st51" d="M46.5,182.5l0.2-0.7c0.5,0.2,0.8,0.3,1.1,0.4c-0.1-0.6-0.1-0.9-0.1-1.1h0.7c0,0.3,0,0.7-0.1,1.1
			c0.3-0.2,0.7-0.3,1.1-0.4l0.2,0.7c-0.4,0.1-0.8,0.2-1.1,0.3c0.2,0.2,0.5,0.5,0.8,0.9l-0.6,0.4c-0.2-0.2-0.4-0.6-0.6-1
			c-0.2,0.4-0.4,0.8-0.6,1l-0.5-0.4c0.4-0.4,0.6-0.7,0.8-0.9C47.2,182.7,46.9,182.6,46.5,182.5z"/>
		<path class="st51" d="M50.2,182.5l0.2-0.7c0.5,0.2,0.8,0.3,1.1,0.4c-0.1-0.6-0.1-0.9-0.1-1.1H52c0,0.3,0,0.7-0.1,1.1
			c0.3-0.2,0.7-0.3,1.1-0.4l0.2,0.7c-0.4,0.1-0.8,0.2-1.1,0.3c0.2,0.2,0.5,0.5,0.8,0.9l-0.6,0.4c-0.2-0.2-0.4-0.6-0.6-1
			c-0.2,0.4-0.4,0.8-0.6,1l-0.5-0.4c0.4-0.4,0.6-0.7,0.8-0.9C50.9,182.7,50.5,182.6,50.2,182.5z"/>
	</g>
	<g>
		<path class="st0" d="M22.6,220.1V213h4.8v0.8h-3.8v2.2h3.3v0.8h-3.3v3.2H22.6z"/>
		<path class="st0" d="M28.5,220.1V215h0.8v0.8c0.2-0.4,0.4-0.6,0.6-0.7c0.2-0.1,0.4-0.2,0.6-0.2c0.3,0,0.6,0.1,0.9,0.3l-0.3,0.8
			c-0.2-0.1-0.4-0.2-0.6-0.2c-0.2,0-0.4,0.1-0.5,0.2c-0.2,0.1-0.3,0.3-0.3,0.5c-0.1,0.3-0.1,0.6-0.1,1v2.7H28.5z"/>
		<path class="st0" d="M31.5,217.5c0-1,0.3-1.7,0.8-2.1c0.4-0.4,1-0.6,1.6-0.6c0.7,0,1.3,0.2,1.7,0.7s0.7,1.1,0.7,1.9
			c0,0.7-0.1,1.2-0.3,1.6s-0.5,0.7-0.9,0.9c-0.4,0.2-0.8,0.3-1.2,0.3c-0.7,0-1.3-0.2-1.7-0.7C31.7,219.1,31.5,218.4,31.5,217.5z
			 M32.3,217.5c0,0.7,0.1,1.1,0.4,1.5c0.3,0.3,0.6,0.5,1.1,0.5c0.4,0,0.8-0.2,1.1-0.5c0.3-0.3,0.4-0.8,0.4-1.5
			c0-0.6-0.1-1.1-0.4-1.4c-0.3-0.3-0.6-0.5-1.1-0.5c-0.4,0-0.8,0.2-1.1,0.5C32.5,216.4,32.3,216.9,32.3,217.5z"/>
		<path class="st0" d="M37.3,220.1V215h0.8v0.7c0.2-0.3,0.4-0.5,0.6-0.6c0.3-0.2,0.6-0.2,0.9-0.2c0.4,0,0.7,0.1,0.9,0.2
			c0.2,0.2,0.4,0.4,0.5,0.7c0.4-0.6,0.9-0.9,1.6-0.9c0.5,0,0.9,0.1,1.2,0.4c0.3,0.3,0.4,0.7,0.4,1.3v3.5h-0.9v-3.2
			c0-0.3,0-0.6-0.1-0.8c-0.1-0.2-0.2-0.3-0.3-0.4c-0.1-0.1-0.3-0.1-0.5-0.1c-0.4,0-0.7,0.1-0.9,0.4c-0.2,0.2-0.4,0.6-0.4,1.2v3h-0.9
			v-3.3c0-0.4-0.1-0.7-0.2-0.9s-0.4-0.3-0.7-0.3c-0.2,0-0.5,0.1-0.7,0.2s-0.4,0.3-0.5,0.6c-0.1,0.2-0.1,0.6-0.1,1.1v2.7H37.3z"/>
		<path class="st0" d="M48.4,220.1V213h2.4c0.6,0,1,0,1.3,0.1c0.4,0.1,0.8,0.3,1,0.5c0.4,0.3,0.7,0.7,0.8,1.2
			c0.2,0.5,0.3,1.1,0.3,1.7c0,0.5-0.1,1-0.2,1.4c-0.1,0.4-0.3,0.8-0.5,1c-0.2,0.3-0.4,0.5-0.6,0.6c-0.2,0.2-0.5,0.3-0.8,0.4
			c-0.3,0.1-0.7,0.1-1.1,0.1H48.4z M49.3,219.3h1.5c0.5,0,0.8,0,1.1-0.1c0.3-0.1,0.5-0.2,0.6-0.4c0.2-0.2,0.4-0.5,0.5-0.9
			s0.2-0.8,0.2-1.4c0-0.7-0.1-1.3-0.4-1.7s-0.5-0.7-0.9-0.8c-0.3-0.1-0.7-0.1-1.2-0.1h-1.5V219.3z"/>
		<path class="st0" d="M58.8,219.5c-0.3,0.3-0.6,0.5-0.9,0.6c-0.3,0.1-0.6,0.2-1,0.2c-0.6,0-1-0.1-1.3-0.4s-0.5-0.6-0.5-1.1
			c0-0.3,0.1-0.5,0.2-0.7s0.3-0.4,0.5-0.5c0.2-0.1,0.4-0.2,0.6-0.3c0.2,0,0.4-0.1,0.8-0.1c0.7-0.1,1.2-0.2,1.6-0.3
			c0-0.1,0-0.2,0-0.2c0-0.4-0.1-0.6-0.2-0.7c-0.2-0.2-0.6-0.3-1-0.3c-0.4,0-0.7,0.1-0.9,0.2c-0.2,0.1-0.3,0.4-0.4,0.8l-0.9-0.1
			c0.1-0.4,0.2-0.7,0.4-0.9s0.4-0.4,0.8-0.5c0.3-0.1,0.7-0.2,1.2-0.2c0.4,0,0.8,0.1,1.1,0.2c0.3,0.1,0.5,0.2,0.6,0.4
			s0.2,0.4,0.3,0.6c0,0.1,0,0.4,0,0.8v1.2c0,0.8,0,1.3,0.1,1.5c0,0.2,0.1,0.4,0.2,0.6H59C58.9,219.9,58.8,219.7,58.8,219.5z
			 M58.7,217.5c-0.3,0.1-0.8,0.2-1.4,0.3c-0.4,0.1-0.6,0.1-0.8,0.2c-0.1,0.1-0.3,0.2-0.3,0.3c-0.1,0.1-0.1,0.3-0.1,0.4
			c0,0.2,0.1,0.4,0.3,0.6s0.4,0.2,0.8,0.2c0.3,0,0.6-0.1,0.9-0.2c0.3-0.1,0.5-0.3,0.6-0.6c0.1-0.2,0.1-0.5,0.1-0.9V217.5z"/>
		<path class="st0" d="M62.8,219.3l0.1,0.8c-0.2,0.1-0.5,0.1-0.7,0.1c-0.3,0-0.6-0.1-0.7-0.1c-0.2-0.1-0.3-0.2-0.4-0.4
			c-0.1-0.2-0.1-0.5-0.1-1v-3h-0.6V215h0.6v-1.3l0.9-0.5v1.8h0.9v0.7H62v3c0,0.2,0,0.4,0,0.5s0.1,0.1,0.2,0.2c0.1,0,0.2,0.1,0.3,0.1
			C62.6,219.3,62.7,219.3,62.8,219.3z"/>
		<path class="st0" d="M67.2,218.4l0.9,0.1c-0.1,0.5-0.4,0.9-0.8,1.2c-0.4,0.3-0.9,0.4-1.5,0.4c-0.8,0-1.3-0.2-1.8-0.7
			c-0.4-0.5-0.7-1.1-0.7-1.9c0-0.9,0.2-1.5,0.7-2c0.4-0.5,1-0.7,1.7-0.7c0.7,0,1.2,0.2,1.7,0.7c0.4,0.5,0.7,1.1,0.7,2
			c0,0.1,0,0.1,0,0.2h-3.8c0,0.6,0.2,1,0.5,1.3c0.3,0.3,0.6,0.4,1.1,0.4c0.3,0,0.6-0.1,0.8-0.3S67.1,218.8,67.2,218.4z M64.4,217
			h2.9c0-0.4-0.1-0.8-0.3-1c-0.3-0.3-0.6-0.5-1.1-0.5c-0.4,0-0.7,0.1-1,0.4S64.4,216.6,64.4,217z"/>
	</g>
	<g>
		<path class="st50" d="M212,251.7H23.9c-1.2,0-2.1-1-2.1-2.1v-19.9c0-1.2,1-2.1,2.1-2.1H212c1.2,0,2.1,1,2.1,2.1v19.9
			C214.1,250.7,213.2,251.7,212,251.7z"/>
	</g>
	<g>
		<g>
			<path class="st33" d="M96.5,241.5c0-0.8,0.5-1.3,1.2-1.6l0,0c-0.7-0.3-1-0.9-1-1.4c0-1,0.8-1.6,1.9-1.6c1.2,0,1.8,0.7,1.8,1.5
				c0,0.5-0.3,1.1-1,1.4v0c0.8,0.3,1.2,0.8,1.2,1.6c0,1.1-0.9,1.8-2.1,1.8C97.3,243.2,96.5,242.4,96.5,241.5z M99.9,241.5
				c0-0.7-0.5-1.1-1.4-1.3c-0.7,0.2-1.1,0.7-1.1,1.3c0,0.6,0.4,1.2,1.2,1.2C99.4,242.6,99.9,242.1,99.9,241.5z M97.6,238.4
				c0,0.6,0.5,0.9,1.2,1.1c0.5-0.2,0.9-0.6,0.9-1.1c0-0.5-0.3-1-1-1C97.9,237.4,97.6,237.9,97.6,238.4z"/>
			<path class="st33" d="M105.1,236.7h0.8v4.3c0,1.7-0.8,2.2-1.9,2.2c-0.3,0-0.7-0.1-0.9-0.2l0.1-0.7c0.2,0.1,0.4,0.1,0.7,0.1
				c0.7,0,1.2-0.3,1.2-1.6V236.7z"/>
			<path class="st33" d="M109.8,243.1l-0.1-0.6h0c-0.3,0.4-0.7,0.7-1.4,0.7c-0.9,0-1.4-0.7-1.4-1.3c0-1.1,1-1.7,2.8-1.7V240
				c0-0.4-0.1-1.1-1-1.1c-0.4,0-0.9,0.1-1.2,0.3l-0.2-0.5c0.4-0.2,0.9-0.4,1.5-0.4c1.4,0,1.7,1,1.7,1.9v1.7c0,0.4,0,0.8,0.1,1.1
				H109.8z M109.6,240.7c-0.9,0-1.9,0.1-1.9,1c0,0.5,0.4,0.8,0.8,0.8c0.6,0,1-0.4,1.1-0.8c0-0.1,0-0.2,0-0.3V240.7z"/>
			<path class="st33" d="M111.8,239.7c0-0.5,0-0.9,0-1.2h0.7l0,0.8h0c0.2-0.4,0.8-0.9,1.5-0.9c0.6,0,1.6,0.4,1.6,1.9v2.7h-0.8v-2.6
				c0-0.7-0.3-1.4-1.1-1.4c-0.5,0-1,0.4-1.1,0.9c0,0.1-0.1,0.2-0.1,0.4v2.8h-0.8V239.7z"/>
			<path class="st33" d="M116.5,244.2c0.2-0.6,0.5-1.6,0.6-2.3l0.9-0.1c-0.2,0.8-0.6,1.9-0.9,2.3L116.5,244.2z"/>
			<path class="st33" d="M120.7,243.1v-0.5l0.7-0.6c1.6-1.5,2.3-2.3,2.3-3.2c0-0.6-0.3-1.2-1.2-1.2c-0.6,0-1,0.3-1.3,0.5l-0.3-0.6
				c0.4-0.4,1-0.6,1.7-0.6c1.3,0,1.9,0.9,1.9,1.8c0,1.1-0.8,2.1-2.1,3.3l-0.5,0.5v0h2.8v0.7H120.7z"/>
			<path class="st33" d="M129.7,239.9c0,2.1-0.8,3.2-2.1,3.2c-1.2,0-2-1.1-2-3.2c0-2.1,0.9-3.2,2.1-3.2
				C128.9,236.8,129.7,238,129.7,239.9z M126.3,240c0,1.6,0.5,2.5,1.2,2.5c0.9,0,1.3-1,1.3-2.6c0-1.5-0.4-2.5-1.2-2.5
				C126.9,237.4,126.3,238.3,126.3,240z"/>
			<path class="st33" d="M130.4,243.1v-0.5l0.7-0.6c1.6-1.5,2.3-2.3,2.3-3.2c0-0.6-0.3-1.2-1.2-1.2c-0.6,0-1,0.3-1.3,0.5l-0.3-0.6
				c0.4-0.4,1-0.6,1.7-0.6c1.3,0,1.9,0.9,1.9,1.8c0,1.1-0.8,2.1-2.1,3.3l-0.5,0.5v0h2.8v0.7H130.4z"/>
			<path class="st33" d="M137.9,243.1v-1.7H135v-0.5l2.7-3.9h0.9v3.8h0.9v0.7h-0.9v1.7H137.9z M137.9,240.7v-2.1c0-0.3,0-0.6,0-1h0
				c-0.2,0.4-0.3,0.6-0.5,0.9l-1.5,2.1v0H137.9z"/>
		</g>
	</g>
	<g>
		<path class="st0" d="M24.3,275.2v-6.3H22v-0.8h5.6v0.8h-2.3v6.3H24.3z"/>
		<path class="st0" d="M27.1,272.6c0-1,0.3-1.7,0.8-2.1c0.4-0.4,1-0.6,1.6-0.6c0.7,0,1.3,0.2,1.7,0.7c0.4,0.5,0.7,1.1,0.7,1.9
			c0,0.7-0.1,1.2-0.3,1.6c-0.2,0.4-0.5,0.7-0.9,0.9c-0.4,0.2-0.8,0.3-1.2,0.3c-0.7,0-1.3-0.2-1.7-0.7
			C27.3,274.1,27.1,273.5,27.1,272.6z M28,272.6c0,0.7,0.1,1.1,0.4,1.5c0.3,0.3,0.6,0.5,1.1,0.5c0.4,0,0.8-0.2,1.1-0.5
			c0.3-0.3,0.4-0.8,0.4-1.5c0-0.6-0.1-1.1-0.4-1.4s-0.6-0.5-1.1-0.5c-0.4,0-0.8,0.2-1.1,0.5C28.1,271.4,28,271.9,28,272.6z"/>
		<path class="st0" d="M35.7,275.2v-7.1h2.4c0.6,0,1,0,1.3,0.1c0.4,0.1,0.8,0.3,1,0.5c0.4,0.3,0.7,0.7,0.8,1.2
			c0.2,0.5,0.3,1.1,0.3,1.7c0,0.5-0.1,1-0.2,1.4c-0.1,0.4-0.3,0.8-0.5,1s-0.4,0.5-0.6,0.6s-0.5,0.3-0.8,0.4
			c-0.3,0.1-0.7,0.1-1.1,0.1H35.7z M36.7,274.3h1.5c0.5,0,0.8,0,1.1-0.1s0.5-0.2,0.6-0.4c0.2-0.2,0.4-0.5,0.5-0.9s0.2-0.8,0.2-1.4
			c0-0.7-0.1-1.3-0.4-1.7s-0.5-0.7-0.9-0.8c-0.3-0.1-0.7-0.1-1.2-0.1h-1.5V274.3z"/>
		<path class="st0" d="M46.1,274.5c-0.3,0.3-0.6,0.5-0.9,0.6c-0.3,0.1-0.6,0.2-1,0.2c-0.6,0-1-0.1-1.3-0.4c-0.3-0.3-0.5-0.6-0.5-1.1
			c0-0.3,0.1-0.5,0.2-0.7s0.3-0.4,0.5-0.5c0.2-0.1,0.4-0.2,0.6-0.3c0.2,0,0.4-0.1,0.8-0.1c0.7-0.1,1.2-0.2,1.6-0.3
			c0-0.1,0-0.2,0-0.2c0-0.4-0.1-0.6-0.2-0.7c-0.2-0.2-0.6-0.3-1-0.3c-0.4,0-0.7,0.1-0.9,0.2c-0.2,0.1-0.3,0.4-0.4,0.8l-0.9-0.1
			c0.1-0.4,0.2-0.7,0.4-0.9c0.2-0.2,0.4-0.4,0.8-0.5c0.3-0.1,0.7-0.2,1.2-0.2c0.4,0,0.8,0.1,1.1,0.2c0.3,0.1,0.5,0.2,0.6,0.4
			s0.2,0.4,0.3,0.6c0,0.1,0,0.4,0,0.8v1.2c0,0.8,0,1.3,0.1,1.5c0,0.2,0.1,0.4,0.2,0.6h-0.9C46.2,275,46.2,274.8,46.1,274.5z
			 M46.1,272.6c-0.3,0.1-0.8,0.2-1.4,0.3c-0.4,0.1-0.6,0.1-0.8,0.2c-0.1,0.1-0.3,0.2-0.3,0.3c-0.1,0.1-0.1,0.3-0.1,0.4
			c0,0.2,0.1,0.4,0.3,0.6s0.4,0.2,0.8,0.2c0.3,0,0.6-0.1,0.9-0.2c0.3-0.1,0.5-0.3,0.6-0.6c0.1-0.2,0.1-0.5,0.1-0.9V272.6z"/>
		<path class="st0" d="M50.2,274.4l0.1,0.8c-0.2,0.1-0.5,0.1-0.7,0.1c-0.3,0-0.6,0-0.7-0.1s-0.3-0.2-0.4-0.4c-0.1-0.2-0.1-0.5-0.1-1
			v-3h-0.6V270h0.6v-1.3l0.9-0.5v1.8h0.9v0.7h-0.9v3c0,0.2,0,0.4,0,0.5c0,0.1,0.1,0.1,0.2,0.2s0.2,0.1,0.3,0.1
			C49.9,274.4,50,274.4,50.2,274.4z"/>
		<path class="st0" d="M54.6,273.5l0.9,0.1c-0.1,0.5-0.4,0.9-0.8,1.2s-0.9,0.4-1.5,0.4c-0.8,0-1.3-0.2-1.8-0.7
			c-0.4-0.5-0.7-1.1-0.7-1.9c0-0.9,0.2-1.5,0.7-2c0.4-0.5,1-0.7,1.7-0.7c0.7,0,1.2,0.2,1.7,0.7c0.4,0.5,0.7,1.1,0.7,2
			c0,0.1,0,0.1,0,0.2h-3.8c0,0.6,0.2,1,0.5,1.3c0.3,0.3,0.6,0.4,1.1,0.4c0.3,0,0.6-0.1,0.8-0.3C54.3,274.1,54.4,273.9,54.6,273.5z
			 M51.7,272.1h2.9c0-0.4-0.1-0.8-0.3-1c-0.3-0.3-0.6-0.5-1.1-0.5c-0.4,0-0.7,0.1-1,0.4S51.7,271.6,51.7,272.1z"/>
	</g>
	<g>
		<path class="st50" d="M212,306.7H23.9c-1.2,0-2.1-1-2.1-2.1v-19.9c0-1.2,1-2.1,2.1-2.1H212c1.2,0,2.1,1,2.1,2.1v19.9
			C214.1,305.8,213.2,306.7,212,306.7z"/>
	</g>
	<g>
		<path class="st33" d="M96.5,296.6c0-0.8,0.5-1.3,1.2-1.6l0,0c-0.7-0.3-1-0.9-1-1.4c0-1,0.8-1.6,1.9-1.6c1.2,0,1.8,0.7,1.8,1.5
			c0,0.5-0.3,1.1-1,1.4v0c0.8,0.3,1.2,0.8,1.2,1.6c0,1.1-0.9,1.8-2.1,1.8C97.3,298.2,96.5,297.5,96.5,296.6z M99.9,296.5
			c0-0.7-0.5-1.1-1.4-1.3c-0.7,0.2-1.1,0.7-1.1,1.3c0,0.6,0.4,1.2,1.2,1.2C99.4,297.6,99.9,297.1,99.9,296.5z M97.6,293.4
			c0,0.6,0.5,0.9,1.2,1.1c0.5-0.2,0.9-0.6,0.9-1.1c0-0.5-0.3-1-1-1C97.9,292.5,97.6,292.9,97.6,293.4z"/>
		<path class="st33" d="M105.1,291.7h0.8v4.3c0,1.7-0.8,2.2-1.9,2.2c-0.3,0-0.7-0.1-0.9-0.2l0.1-0.7c0.2,0.1,0.4,0.1,0.7,0.1
			c0.7,0,1.2-0.3,1.2-1.6V291.7z"/>
		<path class="st33" d="M109.8,298.1l-0.1-0.6h0c-0.3,0.4-0.7,0.7-1.4,0.7c-0.9,0-1.4-0.7-1.4-1.3c0-1.1,1-1.7,2.8-1.7v-0.1
			c0-0.4-0.1-1.1-1-1.1c-0.4,0-0.9,0.1-1.2,0.3l-0.2-0.5c0.4-0.2,0.9-0.4,1.5-0.4c1.4,0,1.7,1,1.7,1.9v1.7c0,0.4,0,0.8,0.1,1.1
			H109.8z M109.6,295.8c-0.9,0-1.9,0.1-1.9,1c0,0.5,0.4,0.8,0.8,0.8c0.6,0,1-0.4,1.1-0.8c0-0.1,0-0.2,0-0.3V295.8z"/>
		<path class="st33" d="M111.8,294.8c0-0.5,0-0.9,0-1.2h0.7l0,0.8h0c0.2-0.4,0.8-0.9,1.5-0.9c0.6,0,1.6,0.4,1.6,1.9v2.7h-0.8v-2.6
			c0-0.7-0.3-1.4-1.1-1.4c-0.5,0-1,0.4-1.1,0.9c0,0.1-0.1,0.2-0.1,0.4v2.8h-0.8V294.8z"/>
		<path class="st33" d="M116.5,299.3c0.2-0.6,0.5-1.6,0.6-2.3l0.9-0.1c-0.2,0.8-0.6,1.9-0.9,2.3L116.5,299.3z"/>
		<path class="st33" d="M120.7,298.1v-0.5l0.7-0.6c1.6-1.5,2.3-2.3,2.3-3.2c0-0.6-0.3-1.2-1.2-1.2c-0.6,0-1,0.3-1.3,0.5l-0.3-0.6
			c0.4-0.4,1-0.6,1.7-0.6c1.3,0,1.9,0.9,1.9,1.8c0,1.1-0.8,2.1-2.1,3.3l-0.5,0.5v0h2.8v0.7H120.7z"/>
		<path class="st33" d="M129.7,295c0,2.1-0.8,3.2-2.1,3.2c-1.2,0-2-1.1-2-3.2c0-2.1,0.9-3.2,2.1-3.2
			C128.9,291.9,129.7,293,129.7,295z M126.3,295.1c0,1.6,0.5,2.5,1.2,2.5c0.9,0,1.3-1,1.3-2.6c0-1.5-0.4-2.5-1.2-2.5
			C126.9,292.5,126.3,293.4,126.3,295.1z"/>
		<path class="st33" d="M130.4,298.1v-0.5l0.7-0.6c1.6-1.5,2.3-2.3,2.3-3.2c0-0.6-0.3-1.2-1.2-1.2c-0.6,0-1,0.3-1.3,0.5l-0.3-0.6
			c0.4-0.4,1-0.6,1.7-0.6c1.3,0,1.9,0.9,1.9,1.8c0,1.1-0.8,2.1-2.1,3.3l-0.5,0.5v0h2.8v0.7H130.4z"/>
		<path class="st33" d="M137.9,298.1v-1.7H135v-0.5l2.7-3.9h0.9v3.8h0.9v0.7h-0.9v1.7H137.9z M137.9,295.8v-2.1c0-0.3,0-0.6,0-1h0
			c-0.2,0.4-0.3,0.6-0.5,0.9l-1.5,2.1v0H137.9z"/>
	</g>
	<g>
		<path class="st0" d="M22.5,326.5v-7.1h2.7c0.5,0,0.8,0,1.1,0.1c0.3,0.1,0.6,0.2,0.9,0.3s0.4,0.4,0.6,0.7c0.1,0.3,0.2,0.6,0.2,1
			c0,0.6-0.2,1.1-0.6,1.5c-0.4,0.4-1.1,0.6-2.1,0.6h-1.8v2.9H22.5z M23.5,322.8h1.8c0.6,0,1-0.1,1.3-0.3c0.3-0.2,0.4-0.5,0.4-1
			c0-0.3-0.1-0.5-0.2-0.8c-0.1-0.2-0.3-0.4-0.6-0.4c-0.2,0-0.5-0.1-0.9-0.1h-1.8V322.8z"/>
		<path class="st0" d="M29,326.5v-5.1h0.8v0.8c0.2-0.4,0.4-0.6,0.6-0.7c0.2-0.1,0.4-0.2,0.6-0.2c0.3,0,0.6,0.1,0.9,0.3l-0.3,0.8
			c-0.2-0.1-0.4-0.2-0.6-0.2c-0.2,0-0.4,0.1-0.5,0.2c-0.2,0.1-0.3,0.3-0.3,0.5c-0.1,0.3-0.1,0.6-0.1,1v2.7H29z"/>
		<path class="st0" d="M32.3,320.4v-1h0.9v1H32.3z M32.3,326.5v-5.1h0.9v5.1H32.3z"/>
		<path class="st0" d="M34.5,326.5v-5.1h0.8v0.7c0.4-0.6,0.9-0.8,1.6-0.8c0.3,0,0.6,0.1,0.9,0.2s0.5,0.3,0.6,0.4s0.2,0.4,0.3,0.6
			c0,0.2,0,0.4,0,0.8v3.2h-0.9v-3.1c0-0.4,0-0.6-0.1-0.8c-0.1-0.2-0.2-0.3-0.4-0.4c-0.2-0.1-0.4-0.2-0.6-0.2c-0.4,0-0.7,0.1-1,0.4
			s-0.4,0.7-0.4,1.3v2.8H34.5z"/>
		<path class="st0" d="M41.9,325.7l0.1,0.8c-0.2,0.1-0.5,0.1-0.7,0.1c-0.3,0-0.6,0-0.7-0.1s-0.3-0.2-0.4-0.4c-0.1-0.2-0.1-0.5-0.1-1
			v-3h-0.6v-0.7h0.6v-1.3l0.9-0.5v1.8h0.9v0.7h-0.9v3c0,0.2,0,0.4,0,0.5c0,0.1,0.1,0.1,0.2,0.2s0.2,0.1,0.3,0.1
			C41.7,325.7,41.8,325.7,41.9,325.7z"/>
		<path class="st0" d="M45.4,323c0-1.2,0.3-2.1,0.9-2.8c0.6-0.7,1.4-1,2.4-1c0.7,0,1.2,0.2,1.8,0.5s0.9,0.7,1.2,1.3
			c0.3,0.6,0.4,1.2,0.4,1.9c0,0.7-0.1,1.4-0.4,1.9s-0.7,1-1.2,1.3c-0.5,0.3-1.1,0.4-1.7,0.4c-0.7,0-1.3-0.2-1.8-0.5
			s-0.9-0.8-1.2-1.3S45.4,323.6,45.4,323z M46.3,323c0,0.9,0.2,1.5,0.7,2c0.5,0.5,1,0.7,1.7,0.7c0.7,0,1.3-0.2,1.7-0.7
			c0.5-0.5,0.7-1.2,0.7-2.1c0-0.6-0.1-1.1-0.3-1.5c-0.2-0.4-0.5-0.8-0.9-1c-0.4-0.2-0.8-0.4-1.3-0.4c-0.7,0-1.2,0.2-1.7,0.7
			S46.3,322,46.3,323z"/>
		<path class="st0" d="M53.2,328.4v-7.1H54v0.7c0.2-0.3,0.4-0.5,0.6-0.6c0.2-0.1,0.5-0.2,0.9-0.2c0.4,0,0.8,0.1,1.2,0.3
			c0.3,0.2,0.6,0.5,0.8,1c0.2,0.4,0.3,0.9,0.3,1.4c0,0.5-0.1,1-0.3,1.4c-0.2,0.4-0.5,0.7-0.8,1c-0.4,0.2-0.7,0.3-1.1,0.3
			c-0.3,0-0.6-0.1-0.8-0.2c-0.2-0.1-0.4-0.3-0.6-0.5v2.5H53.2z M54,323.9c0,0.7,0.1,1.1,0.4,1.5c0.3,0.3,0.6,0.5,1,0.5
			c0.4,0,0.7-0.2,1-0.5c0.3-0.3,0.4-0.8,0.4-1.5c0-0.7-0.1-1.1-0.4-1.5c-0.3-0.3-0.6-0.5-1-0.5c-0.4,0-0.7,0.2-1,0.5
			S54,323.3,54,323.9z"/>
		<path class="st0" d="M60.7,325.7l0.1,0.8c-0.2,0.1-0.5,0.1-0.7,0.1c-0.3,0-0.6,0-0.7-0.1s-0.3-0.2-0.4-0.4c-0.1-0.2-0.1-0.5-0.1-1
			v-3h-0.6v-0.7h0.6v-1.3l0.9-0.5v1.8h0.9v0.7h-0.9v3c0,0.2,0,0.4,0,0.5c0,0.1,0.1,0.1,0.2,0.2s0.2,0.1,0.3,0.1
			C60.4,325.7,60.5,325.7,60.7,325.7z"/>
		<path class="st0" d="M61.5,320.4v-1h0.9v1H61.5z M61.5,326.5v-5.1h0.9v5.1H61.5z"/>
		<path class="st0" d="M63.4,323.9c0-1,0.3-1.7,0.8-2.1c0.4-0.4,1-0.6,1.6-0.6c0.7,0,1.3,0.2,1.7,0.7c0.4,0.5,0.7,1.1,0.7,1.9
			c0,0.7-0.1,1.2-0.3,1.6c-0.2,0.4-0.5,0.7-0.9,0.9c-0.4,0.2-0.8,0.3-1.2,0.3c-0.7,0-1.3-0.2-1.7-0.7
			C63.6,325.4,63.4,324.8,63.4,323.9z M64.3,323.9c0,0.7,0.1,1.1,0.4,1.5c0.3,0.3,0.6,0.5,1.1,0.5c0.4,0,0.8-0.2,1.1-0.5
			c0.3-0.3,0.4-0.8,0.4-1.5c0-0.6-0.1-1.1-0.4-1.4s-0.6-0.5-1.1-0.5c-0.4,0-0.8,0.2-1.1,0.5C64.4,322.8,64.3,323.2,64.3,323.9z"/>
		<path class="st0" d="M69.2,326.5v-5.1H70v0.7c0.4-0.6,0.9-0.8,1.6-0.8c0.3,0,0.6,0.1,0.9,0.2s0.5,0.3,0.6,0.4s0.2,0.4,0.3,0.6
			c0,0.2,0,0.4,0,0.8v3.2h-0.9v-3.1c0-0.4,0-0.6-0.1-0.8c-0.1-0.2-0.2-0.3-0.4-0.4c-0.2-0.1-0.4-0.2-0.6-0.2c-0.4,0-0.7,0.1-1,0.4
			s-0.4,0.7-0.4,1.3v2.8H69.2z"/>
	</g>
	<g>
		<path class="st50" d="M212,358H23.9c-1.2,0-2.1-1-2.1-2.1V336c0-1.2,1-2.1,2.1-2.1H212c1.2,0,2.1,1,2.1,2.1v19.9
			C214.1,357.1,213.2,358,212,358z"/>
	</g>
	<g>
		<g>
			<path class="st51" d="M29.6,343.1c0.4-0.1,0.9-0.1,1.6-0.1c0.8,0,1.4,0.2,1.8,0.5c0.3,0.3,0.6,0.8,0.6,1.3c0,0.6-0.2,1-0.5,1.4
				c-0.4,0.5-1.1,0.7-1.9,0.7c-0.2,0-0.5,0-0.7-0.1v2.6h-0.8V343.1z M30.4,346.2c0.2,0,0.4,0.1,0.7,0.1c1,0,1.6-0.5,1.6-1.4
				c0-0.8-0.6-1.2-1.5-1.2c-0.4,0-0.6,0-0.8,0.1V346.2z"/>
			<path class="st51" d="M34.6,343.1c0.5-0.1,1.1-0.1,1.8-0.1c1.2,0,2,0.3,2.6,0.8c0.6,0.5,0.9,1.3,0.9,2.3c0,1-0.3,1.9-0.9,2.5
				c-0.6,0.6-1.6,0.9-2.8,0.9c-0.6,0-1.1,0-1.5-0.1V343.1z M35.4,348.8c0.2,0,0.5,0,0.8,0c1.8,0,2.7-1,2.7-2.7
				c0-1.5-0.8-2.5-2.6-2.5c-0.4,0-0.7,0-1,0.1V348.8z"/>
			<path class="st51" d="M40.9,343.1h3.4v0.7h-2.6v2.1h2.4v0.7h-2.4v2.9h-0.8V343.1z"/>
		</g>
	</g>
	<g>
		<path class="st22" d="M31.8,119.9h-3.6v-1.3H37v1.3h-3.7v10.6h-1.6V119.9z"/>
		<path class="st22" d="M37.4,124.7c0-1,0-1.9-0.1-2.7h1.4l0.1,1.7h0.1c0.4-1.2,1.3-1.9,2.4-1.9c0.2,0,0.3,0,0.4,0.1v1.5
			c-0.2,0-0.3-0.1-0.5-0.1c-1.1,0-1.9,0.8-2.1,2c0,0.2-0.1,0.5-0.1,0.7v4.6h-1.5V124.7z"/>
		<path class="st22" d="M47.9,130.6l-0.1-1.1h-0.1c-0.5,0.7-1.4,1.3-2.6,1.3c-1.7,0-2.6-1.2-2.6-2.5c0-2.1,1.8-3.2,5.2-3.2v-0.2
			c0-0.7-0.2-2-2-2c-0.8,0-1.6,0.2-2.2,0.6l-0.4-1c0.7-0.5,1.7-0.8,2.8-0.8c2.6,0,3.3,1.8,3.3,3.5v3.2c0,0.7,0,1.5,0.1,2.1H47.9z
			 M47.7,126.2c-1.7,0-3.6,0.3-3.6,1.9c0,1,0.7,1.5,1.5,1.5c1.1,0,1.8-0.7,2.1-1.4c0.1-0.2,0.1-0.3,0.1-0.5V126.2z"/>
		<path class="st22" d="M59.1,118v10.4c0,0.8,0,1.6,0.1,2.2h-1.4l-0.1-1.5h0c-0.5,1-1.5,1.7-2.9,1.7c-2.1,0-3.7-1.8-3.7-4.4
			c0-2.9,1.8-4.6,3.8-4.6c1.3,0,2.2,0.6,2.6,1.3h0V118H59.1z M57.6,125.5c0-0.2,0-0.5-0.1-0.7c-0.2-1-1.1-1.8-2.3-1.8
			c-1.6,0-2.6,1.4-2.6,3.3c0,1.7,0.9,3.2,2.5,3.2c1,0,2-0.7,2.3-1.9c0.1-0.2,0.1-0.4,0.1-0.7V125.5z"/>
		<path class="st22" d="M62.6,126.6c0,2.1,1.4,3,2.9,3c1.1,0,1.8-0.2,2.4-0.4l0.3,1.1c-0.5,0.2-1.5,0.5-2.9,0.5
			c-2.6,0-4.2-1.7-4.2-4.3c0-2.6,1.5-4.6,4-4.6c2.8,0,3.5,2.5,3.5,4c0,0.3,0,0.6-0.1,0.7H62.6z M67.1,125.4c0-1-0.4-2.5-2.2-2.5
			c-1.6,0-2.3,1.5-2.4,2.5H67.1z"/>
		<path class="st22" d="M82.7,130.2c-0.6,0.3-1.7,0.6-3.2,0.6c-3.4,0-5.9-2.1-5.9-6c0-3.7,2.5-6.3,6.2-6.3c1.5,0,2.4,0.3,2.8,0.5
			l-0.4,1.3c-0.6-0.3-1.4-0.5-2.4-0.5c-2.8,0-4.7,1.8-4.7,4.9c0,2.9,1.7,4.8,4.6,4.8c0.9,0,1.9-0.2,2.5-0.5L82.7,130.2z"/>
		<path class="st22" d="M92.2,126.2c0,3.2-2.2,4.6-4.3,4.6c-2.3,0-4.1-1.7-4.1-4.4c0-2.9,1.9-4.6,4.3-4.6
			C90.5,121.8,92.2,123.6,92.2,126.2z M85.4,126.3c0,1.9,1.1,3.3,2.6,3.3c1.5,0,2.6-1.4,2.6-3.3c0-1.5-0.7-3.3-2.6-3.3
			S85.4,124.7,85.4,126.3z"/>
		<path class="st22" d="M94.2,124.3c0-0.9,0-1.6-0.1-2.3h1.4l0.1,1.4h0c0.4-0.8,1.4-1.6,2.8-1.6c1.2,0,3,0.7,3,3.7v5.1h-1.6v-4.9
			c0-1.4-0.5-2.5-2-2.5c-1,0-1.8,0.7-2.1,1.6c-0.1,0.2-0.1,0.5-0.1,0.7v5.2h-1.6V124.3z"/>
		<path class="st22" d="M104.1,130.6v-7.4h-1.2V122h1.2v-0.5c0-2.3,1.3-3.7,3.7-3.7c0.8,0,1.7,0.2,2.2,0.6l-0.4,1.2
			c-0.4-0.3-1-0.5-1.8-0.5c-1.6,0-2.1,1.2-2.1,2.5v0.4h5v8.6h-1.5v-7.4h-3.4v7.4H104.1z"/>
		<path class="st22" d="M113.3,124.7c0-1,0-1.9-0.1-2.7h1.4l0.1,1.7h0.1c0.4-1.2,1.3-1.9,2.4-1.9c0.2,0,0.3,0,0.4,0.1v1.5
			c-0.2,0-0.3-0.1-0.5-0.1c-1.1,0-1.9,0.8-2.1,2c0,0.2-0.1,0.5-0.1,0.7v4.6h-1.5V124.7z"/>
		<path class="st22" d="M119.1,124.3c0-0.9,0-1.6-0.1-2.3h1.4l0.1,1.4h0.1c0.5-0.8,1.3-1.6,2.7-1.6c1.2,0,2.1,0.7,2.4,1.7h0
			c0.3-0.5,0.6-0.9,1-1.1c0.5-0.4,1.1-0.6,1.9-0.6c1.1,0,2.8,0.7,2.8,3.7v5.1h-1.5v-4.9c0-1.6-0.6-2.6-1.9-2.6
			c-0.9,0-1.6,0.7-1.8,1.4c-0.1,0.2-0.1,0.5-0.1,0.8v5.3h-1.5v-5.1c0-1.4-0.6-2.4-1.8-2.4c-1,0-1.7,0.8-1.9,1.6
			c-0.1,0.2-0.1,0.5-0.1,0.8v5.2h-1.5V124.3z"/>
		<path class="st22" d="M138.7,130.6l-0.1-1.1h-0.1c-0.5,0.7-1.4,1.3-2.6,1.3c-1.7,0-2.6-1.2-2.6-2.5c0-2.1,1.8-3.2,5.2-3.2v-0.2
			c0-0.7-0.2-2-2-2c-0.8,0-1.6,0.2-2.2,0.6l-0.4-1c0.7-0.5,1.7-0.8,2.8-0.8c2.6,0,3.3,1.8,3.3,3.5v3.2c0,0.7,0,1.5,0.1,2.1H138.7z
			 M138.4,126.2c-1.7,0-3.6,0.3-3.6,1.9c0,1,0.7,1.5,1.5,1.5c1.1,0,1.8-0.7,2.1-1.4c0.1-0.2,0.1-0.3,0.1-0.5V126.2z"/>
		<path class="st22" d="M144.3,119.5v2.5h2.2v1.2h-2.2v4.6c0,1.1,0.3,1.7,1.2,1.7c0.4,0,0.7-0.1,0.9-0.1l0.1,1.2
			c-0.3,0.1-0.8,0.2-1.4,0.2c-0.7,0-1.3-0.2-1.7-0.7c-0.4-0.5-0.6-1.2-0.6-2.2v-4.7h-1.3V122h1.3v-2.1L144.3,119.5z"/>
		<path class="st22" d="M150,119.6c0,0.5-0.4,1-1,1c-0.5,0-0.9-0.4-0.9-1c0-0.5,0.4-1,1-1C149.6,118.6,150,119,150,119.6z
			 M148.2,130.6V122h1.6v8.6H148.2z"/>
		<path class="st22" d="M160.2,126.2c0,3.2-2.2,4.6-4.3,4.6c-2.3,0-4.1-1.7-4.1-4.4c0-2.9,1.9-4.6,4.3-4.6
			C158.5,121.8,160.2,123.6,160.2,126.2z M153.4,126.3c0,1.9,1.1,3.3,2.6,3.3c1.5,0,2.6-1.4,2.6-3.3c0-1.5-0.7-3.3-2.6-3.3
			S153.4,124.7,153.4,126.3z"/>
		<path class="st22" d="M162.1,124.3c0-0.9,0-1.6-0.1-2.3h1.4l0.1,1.4h0c0.4-0.8,1.4-1.6,2.8-1.6c1.2,0,3,0.7,3,3.7v5.1h-1.6v-4.9
			c0-1.4-0.5-2.5-2-2.5c-1,0-1.8,0.7-2.1,1.6c-0.1,0.2-0.1,0.5-0.1,0.7v5.2h-1.6V124.3z"/>
	</g>
	<g>
		<path class="st52" d="M208.3,406.1h-83.1c-1.8,0-3.3-1.5-3.3-3.3v-26.6c0-1.8,1.5-3.3,3.3-3.3h83.1c1.8,0,3.3,1.5,3.3,3.3v26.6
			C211.6,404.7,210.1,406.1,208.3,406.1z"/>
		<g>
			<path class="st1" d="M133.5,396.3v-13.7h5.2c0.9,0,1.6,0,2.1,0.1c0.7,0.1,1.2,0.3,1.7,0.6c0.5,0.3,0.8,0.8,1.1,1.3
				c0.3,0.6,0.4,1.2,0.4,1.9c0,1.2-0.4,2.2-1.1,3c-0.7,0.8-2.1,1.2-4,1.2h-3.5v5.6H133.5z M135.3,389.1h3.5c1.2,0,2-0.2,2.5-0.7
				c0.5-0.4,0.7-1.1,0.7-1.8c0-0.6-0.1-1.1-0.4-1.5c-0.3-0.4-0.7-0.7-1.1-0.8c-0.3-0.1-0.9-0.1-1.7-0.1h-3.5V389.1z"/>
			<path class="st1" d="M146.1,396.3v-9.9h1.5v1.5c0.4-0.7,0.7-1.2,1.1-1.4c0.3-0.2,0.7-0.3,1.1-0.3c0.6,0,1.1,0.2,1.7,0.5l-0.6,1.6
				c-0.4-0.2-0.8-0.4-1.2-0.4c-0.4,0-0.7,0.1-1,0.3c-0.3,0.2-0.5,0.5-0.6,0.9c-0.2,0.6-0.3,1.3-0.3,2v5.2H146.1z"/>
			<path class="st1" d="M159.2,393.1l1.7,0.2c-0.3,1-0.8,1.8-1.5,2.4s-1.7,0.8-2.8,0.8c-1.5,0-2.6-0.4-3.5-1.3
				c-0.8-0.9-1.3-2.2-1.3-3.8c0-1.7,0.4-3,1.3-3.9c0.9-0.9,2-1.4,3.3-1.4c1.3,0,2.4,0.5,3.3,1.4c0.8,0.9,1.3,2.2,1.3,3.8
				c0,0.1,0,0.2,0,0.5h-7.4c0.1,1.1,0.4,1.9,0.9,2.5c0.6,0.6,1.2,0.9,2.1,0.9c0.6,0,1.1-0.2,1.6-0.5
				C158.6,394.3,159,393.8,159.2,393.1z M153.7,390.4h5.5c-0.1-0.8-0.3-1.5-0.6-1.9c-0.5-0.6-1.2-1-2.1-1c-0.8,0-1.4,0.3-1.9,0.8
				C154.1,388.8,153.8,389.5,153.7,390.4z"/>
			<path class="st1" d="M165.9,396.3l-3.8-9.9h1.8l2.1,5.9c0.2,0.6,0.4,1.3,0.6,2c0.1-0.5,0.4-1.2,0.6-1.9l2.2-6.1h1.7l-3.8,9.9
				H165.9z"/>
			<path class="st1" d="M172.7,384.5v-1.9h1.7v1.9H172.7z M172.7,396.3v-9.9h1.7v9.9H172.7z"/>
			<path class="st1" d="M183.7,393.1l1.7,0.2c-0.3,1-0.8,1.8-1.5,2.4s-1.7,0.8-2.8,0.8c-1.5,0-2.6-0.4-3.5-1.3
				c-0.8-0.9-1.3-2.2-1.3-3.8c0-1.7,0.4-3,1.3-3.9s2-1.4,3.3-1.4c1.3,0,2.4,0.5,3.3,1.4c0.8,0.9,1.3,2.2,1.3,3.8c0,0.1,0,0.2,0,0.5
				h-7.4c0.1,1.1,0.4,1.9,0.9,2.5c0.6,0.6,1.2,0.9,2.1,0.9c0.6,0,1.1-0.2,1.6-0.5C183.1,394.3,183.5,393.8,183.7,393.1z
				 M178.2,390.4h5.5c-0.1-0.8-0.3-1.5-0.6-1.9c-0.5-0.6-1.2-1-2.1-1c-0.8,0-1.4,0.3-1.9,0.8C178.5,388.8,178.2,389.5,178.2,390.4z"
				/>
			<path class="st1" d="M189.4,396.3l-3-9.9h1.7l1.6,5.7l0.6,2.1c0-0.1,0.2-0.8,0.5-2l1.6-5.8h1.7l1.5,5.8l0.5,1.9l0.6-1.9l1.7-5.7
				h1.6l-3.1,9.9h-1.7l-1.6-5.9l-0.4-1.7l-2,7.6H189.4z"/>
		</g>
	</g>
</g>
</svg>
