<?xml version="1.0" encoding="utf-8"?>
<!-- Generator: Adobe Illustrator 26.0.1, SVG Export Plug-In . SVG Version: 6.00 Build 0)  -->
<svg version="1.1" id="Layer_1" xmlns="http://www.w3.org/2000/svg" xmlns:xlink="http://www.w3.org/1999/xlink" x="0px" y="0px"
	 viewBox="0 0 521.9 130" style="enable-background:new 0 0 521.9 130;" xml:space="preserve">
<style type="text/css">
	.st0{fill:#EC7E30;}
	.st1{fill:#FFFFFF;}
	.st2{fill:#A5A4A4;}
	.st3{fill:#FDC015;}
	.st4{fill:#4A72B8;}
</style>
<circle class="st0" cx="456.9" cy="65" r="65"/>
<circle class="st1" cx="456.9" cy="65" r="59.9"/>
<path class="st2" d="M324.5,2.4c39.2-0.3,61.2,36.2,83.9,62.2c1.5,1.6-22.6,25.8-25.2,28.8c-15.6,17.7-34.7,34.8-59.9,34.3
	c-22.8-0.4-44.1-13.6-54.7-33.7c-4.7-9-7.2-19.1-7.2-29.4C261.4,28,292,2.6,324.5,2.4z"/>
<circle class="st1" cx="323.6" cy="65" r="57"/>
<path class="st3" d="M193.8,2.4C233,2.1,255,38.6,277.7,64.6c1.5,1.6-22.6,25.8-25.2,28.8c-15.6,17.7-34.7,34.8-59.9,34.3
	c-22.8-0.4-44.1-13.6-54.7-33.7c-4.7-9-7.2-19.1-7.2-29.4C130.7,28,161.4,2.6,193.8,2.4z"/>
<circle class="st1" cx="193" cy="65" r="57"/>
<path class="st4" d="M63.2,2.4c39.2-0.3,61.2,36.2,83.9,62.2c1.5,1.6-22.6,25.8-25.2,28.8c-15.6,17.7-34.7,34.8-59.9,34.3
	C39.2,127.3,17.9,114.1,7.2,94C2.5,85,0,74.8,0,64.6C0.1,28,30.8,2.6,63.2,2.4z"/>
<circle class="st1" cx="62.3" cy="65" r="57"/>
<g>
	<path d="M30.5,39.9c-0.1-0.3-0.2-0.5-0.4-0.8c-0.1-0.2-0.3-0.4-0.5-0.6c-0.2-0.2-0.4-0.3-0.7-0.4s-0.6-0.1-0.9-0.1
		c-0.5,0-1,0.1-1.4,0.4s-0.8,0.7-1,1.2c-0.2,0.5-0.4,1.2-0.4,1.9c0,0.8,0.1,1.4,0.4,1.9c0.2,0.5,0.6,0.9,1,1.2
		c0.4,0.3,0.9,0.4,1.5,0.4c0.5,0,1-0.1,1.3-0.3c0.4-0.2,0.7-0.5,0.9-0.9c0.2-0.4,0.3-0.8,0.3-1.4l0.4,0.1h-2.7v-1.2H32v1.1
		c0,0.8-0.2,1.5-0.5,2.1c-0.3,0.6-0.8,1-1.4,1.4s-1.3,0.5-2,0.5c-0.9,0-1.6-0.2-2.3-0.6c-0.6-0.4-1.1-1-1.5-1.7
		c-0.4-0.7-0.5-1.6-0.5-2.6c0-0.8,0.1-1.4,0.3-2s0.5-1.1,0.9-1.5c0.4-0.4,0.8-0.7,1.3-1s1.1-0.3,1.7-0.3c0.5,0,1,0.1,1.4,0.2
		c0.4,0.2,0.8,0.4,1.2,0.6s0.6,0.6,0.9,1c0.2,0.4,0.4,0.8,0.5,1.3H30.5z"/>
	<path d="M36.7,46.5c-0.7,0-1.2-0.2-1.7-0.5s-0.9-0.7-1.2-1.3s-0.4-1.2-0.4-1.9c0-0.7,0.1-1.4,0.4-1.9s0.7-1,1.2-1.3
		s1.1-0.5,1.7-0.5c0.7,0,1.2,0.2,1.7,0.5s0.9,0.7,1.2,1.3s0.4,1.2,0.4,1.9c0,0.7-0.1,1.4-0.4,1.9s-0.7,1-1.2,1.3
		S37.3,46.5,36.7,46.5z M36.7,45.3c0.4,0,0.8-0.1,1.1-0.3c0.3-0.2,0.5-0.5,0.6-0.9c0.1-0.4,0.2-0.8,0.2-1.3c0-0.5-0.1-0.9-0.2-1.2
		c-0.1-0.4-0.3-0.7-0.6-0.9c-0.3-0.2-0.6-0.3-1.1-0.3c-0.4,0-0.8,0.1-1.1,0.3c-0.3,0.2-0.5,0.5-0.6,0.9c-0.1,0.4-0.2,0.8-0.2,1.2
		c0,0.5,0.1,0.9,0.2,1.3c0.1,0.4,0.3,0.7,0.6,0.9C35.9,45.2,36.2,45.3,36.7,45.3z"/>
	<path d="M48.3,39.3v1.1h-3.9v-1.1H48.3z M45.4,37.6h1.4v6.7c0,0.3,0,0.5,0.1,0.6s0.2,0.2,0.3,0.3c0.1,0,0.3,0.1,0.4,0.1
		c0.1,0,0.2,0,0.3,0c0.1,0,0.1,0,0.2,0l0.2,1.1c-0.1,0-0.2,0.1-0.3,0.1c-0.1,0-0.3,0.1-0.6,0.1c-0.4,0-0.7-0.1-1-0.2
		s-0.6-0.3-0.8-0.6s-0.3-0.6-0.3-1.1V37.6z"/>
	<path d="M52.8,46.5c-0.7,0-1.2-0.2-1.7-0.5s-0.9-0.7-1.2-1.3s-0.4-1.2-0.4-1.9c0-0.7,0.1-1.4,0.4-1.9s0.7-1,1.2-1.3
		s1.1-0.5,1.7-0.5c0.7,0,1.2,0.2,1.7,0.5s0.9,0.7,1.2,1.3s0.4,1.2,0.4,1.9c0,0.7-0.1,1.4-0.4,1.9s-0.7,1-1.2,1.3
		S53.4,46.5,52.8,46.5z M52.8,45.3c0.4,0,0.8-0.1,1.1-0.3c0.3-0.2,0.5-0.5,0.6-0.9c0.1-0.4,0.2-0.8,0.2-1.3c0-0.5-0.1-0.9-0.2-1.2
		c-0.1-0.4-0.3-0.7-0.6-0.9c-0.3-0.2-0.6-0.3-1.1-0.3c-0.4,0-0.8,0.1-1.1,0.3c-0.3,0.2-0.5,0.5-0.6,0.9c-0.1,0.4-0.2,0.8-0.2,1.2
		c0,0.5,0.1,0.9,0.2,1.3c0.1,0.4,0.3,0.7,0.6,0.9C52,45.2,52.4,45.3,52.8,45.3z"/>
	<path d="M61.2,46.3v-9.5h3.4c0.7,0,1.3,0.1,1.8,0.4c0.5,0.3,0.8,0.6,1.1,1s0.4,1,0.4,1.5c0,0.6-0.1,1.1-0.4,1.5
		c-0.2,0.4-0.6,0.8-1.1,1s-1.1,0.4-1.8,0.4H62v-1.2h2.4c0.5,0,0.8-0.1,1.1-0.2c0.3-0.1,0.5-0.3,0.6-0.6c0.1-0.3,0.2-0.6,0.2-0.9
		c0-0.4-0.1-0.7-0.2-0.9c-0.1-0.3-0.4-0.5-0.6-0.6s-0.7-0.2-1.1-0.2h-1.8v8.2H61.2z M65.8,42.1l2.3,4.3h-1.6l-2.3-4.3H65.8z"/>
	<path d="M72.5,46.5c-0.7,0-1.3-0.1-1.8-0.5c-0.5-0.3-0.9-0.7-1.2-1.3c-0.3-0.5-0.4-1.2-0.4-1.9c0-0.7,0.1-1.4,0.4-1.9
		c0.3-0.6,0.7-1,1.1-1.3c0.5-0.3,1.1-0.5,1.7-0.5c0.4,0,0.8,0.1,1.2,0.2s0.7,0.3,1,0.6c0.3,0.3,0.5,0.6,0.7,1.1
		c0.2,0.5,0.3,1,0.3,1.6v0.5h-5.6v-1h4.3c0-0.4-0.1-0.7-0.2-1c-0.1-0.3-0.4-0.5-0.6-0.7s-0.6-0.2-0.9-0.2c-0.4,0-0.7,0.1-1,0.3
		c-0.3,0.2-0.5,0.4-0.7,0.7s-0.2,0.6-0.2,1v0.8c0,0.5,0.1,0.9,0.3,1.2c0.2,0.3,0.4,0.6,0.7,0.8c0.3,0.2,0.7,0.3,1.1,0.3
		c0.3,0,0.5,0,0.7-0.1c0.2-0.1,0.4-0.2,0.6-0.3c0.2-0.2,0.3-0.3,0.4-0.6l1.3,0.2c-0.1,0.4-0.3,0.7-0.6,1c-0.3,0.3-0.6,0.5-1,0.7
		C73.5,46.4,73,46.5,72.5,46.5z"/>
	<path d="M77.1,49v-9.8h1.3v1.1h0.1c0.1-0.1,0.2-0.3,0.3-0.5c0.2-0.2,0.4-0.4,0.6-0.5c0.3-0.1,0.6-0.2,1.1-0.2
		c0.6,0,1.1,0.1,1.5,0.4c0.4,0.3,0.8,0.7,1.1,1.3c0.3,0.5,0.4,1.2,0.4,2c0,0.8-0.1,1.4-0.4,2s-0.6,1-1.1,1.3s-1,0.4-1.5,0.4
		c-0.4,0-0.8-0.1-1.1-0.2s-0.5-0.3-0.6-0.5c-0.2-0.2-0.3-0.4-0.4-0.5h-0.1V49H77.1z M78.4,42.8c0,0.5,0.1,0.9,0.2,1.3
		s0.4,0.7,0.6,0.9s0.6,0.3,1,0.3c0.4,0,0.8-0.1,1-0.3c0.3-0.2,0.5-0.5,0.6-0.9s0.2-0.8,0.2-1.3c0-0.5-0.1-0.9-0.2-1.3
		c-0.1-0.4-0.3-0.7-0.6-0.9c-0.3-0.2-0.6-0.3-1-0.3c-0.4,0-0.7,0.1-1,0.3c-0.3,0.2-0.5,0.5-0.6,0.9C78.5,41.9,78.4,42.3,78.4,42.8z"
		/>
	<path d="M88.1,46.5c-0.7,0-1.2-0.2-1.7-0.5s-0.9-0.7-1.2-1.3s-0.4-1.2-0.4-1.9c0-0.7,0.1-1.4,0.4-1.9s0.7-1,1.2-1.3
		s1.1-0.5,1.7-0.5c0.7,0,1.2,0.2,1.7,0.5s0.9,0.7,1.2,1.3s0.4,1.2,0.4,1.9c0,0.7-0.1,1.4-0.4,1.9s-0.7,1-1.2,1.3
		S88.8,46.5,88.1,46.5z M88.1,45.3c0.4,0,0.8-0.1,1.1-0.3c0.3-0.2,0.5-0.5,0.6-0.9c0.1-0.4,0.2-0.8,0.2-1.3c0-0.5-0.1-0.9-0.2-1.2
		c-0.1-0.4-0.3-0.7-0.6-0.9c-0.3-0.2-0.6-0.3-1.1-0.3c-0.4,0-0.8,0.1-1.1,0.3c-0.3,0.2-0.5,0.5-0.6,0.9c-0.1,0.4-0.2,0.8-0.2,1.2
		c0,0.5,0.1,0.9,0.2,1.3c0.1,0.4,0.3,0.7,0.6,0.9C87.3,45.2,87.7,45.3,88.1,45.3z"/>
	<path d="M92.9,46.3v-7.1h1.3v1.1h0.1c0.1-0.4,0.4-0.7,0.7-0.9c0.3-0.2,0.7-0.3,1.1-0.3c0.1,0,0.2,0,0.3,0c0.1,0,0.2,0,0.3,0v1.3
		c-0.1,0-0.2,0-0.3-0.1s-0.3,0-0.4,0c-0.3,0-0.6,0.1-0.9,0.2c-0.3,0.1-0.5,0.3-0.6,0.6c-0.1,0.2-0.2,0.5-0.2,0.8v4.3H92.9z"/>
	<path d="M101.2,39.3v1.1h-3.9v-1.1H101.2z M98.4,37.6h1.4v6.7c0,0.3,0,0.5,0.1,0.6s0.2,0.2,0.3,0.3c0.1,0,0.3,0.1,0.4,0.1
		c0.1,0,0.2,0,0.3,0c0.1,0,0.1,0,0.2,0l0.2,1.1c-0.1,0-0.2,0.1-0.3,0.1c-0.1,0-0.3,0.1-0.6,0.1c-0.4,0-0.7-0.1-1-0.2
		s-0.6-0.3-0.8-0.6s-0.3-0.6-0.3-1.1V37.6z"/>
	<path d="M39.2,55c0-0.4-0.3-0.8-0.6-1s-0.8-0.4-1.3-0.4c-0.4,0-0.7,0.1-1,0.2s-0.5,0.3-0.7,0.5c-0.2,0.2-0.2,0.5-0.2,0.7
		c0,0.2,0.1,0.4,0.2,0.6c0.1,0.2,0.2,0.3,0.4,0.4c0.2,0.1,0.4,0.2,0.6,0.3c0.2,0.1,0.4,0.1,0.6,0.2l0.9,0.2c0.3,0.1,0.6,0.2,0.9,0.3
		c0.3,0.1,0.6,0.3,0.9,0.5c0.3,0.2,0.5,0.5,0.7,0.8c0.2,0.3,0.3,0.7,0.3,1.1c0,0.5-0.1,1-0.4,1.4s-0.7,0.7-1.2,1
		c-0.5,0.2-1.2,0.4-1.9,0.4c-0.7,0-1.3-0.1-1.8-0.3s-0.9-0.5-1.2-1c-0.3-0.4-0.5-0.9-0.5-1.5h1.4c0,0.3,0.1,0.6,0.3,0.9
		c0.2,0.2,0.4,0.4,0.8,0.5c0.3,0.1,0.6,0.2,1,0.2c0.4,0,0.8-0.1,1.1-0.2s0.6-0.3,0.7-0.5c0.2-0.2,0.3-0.5,0.3-0.8
		c0-0.3-0.1-0.5-0.2-0.7c-0.2-0.2-0.4-0.3-0.6-0.4c-0.3-0.1-0.6-0.2-0.9-0.3l-1.1-0.3c-0.8-0.2-1.4-0.5-1.8-0.9
		c-0.4-0.4-0.7-0.9-0.7-1.6c0-0.5,0.1-1,0.4-1.4s0.7-0.7,1.2-0.9c0.5-0.2,1.1-0.3,1.7-0.3c0.6,0,1.2,0.1,1.7,0.3s0.9,0.5,1.2,0.9
		c0.3,0.4,0.4,0.8,0.4,1.4H39.2z"/>
	<path d="M45.3,62.1c-0.7,0-1.3-0.1-1.8-0.5c-0.5-0.3-0.9-0.7-1.2-1.3c-0.3-0.5-0.4-1.2-0.4-1.9c0-0.7,0.1-1.4,0.4-1.9
		c0.3-0.6,0.7-1,1.1-1.3c0.5-0.3,1.1-0.5,1.7-0.5c0.4,0,0.8,0.1,1.2,0.2s0.7,0.3,1,0.6c0.3,0.3,0.5,0.6,0.7,1.1
		c0.2,0.5,0.3,1,0.3,1.6v0.5h-5.6v-1H47c0-0.4-0.1-0.7-0.2-1c-0.1-0.3-0.4-0.5-0.6-0.7s-0.6-0.2-0.9-0.2c-0.4,0-0.7,0.1-1,0.3
		c-0.3,0.2-0.5,0.4-0.7,0.7s-0.2,0.6-0.2,1v0.8c0,0.5,0.1,0.9,0.3,1.2c0.2,0.3,0.4,0.6,0.7,0.8c0.3,0.2,0.7,0.3,1.1,0.3
		c0.3,0,0.5,0,0.7-0.1c0.2-0.1,0.4-0.2,0.6-0.3c0.2-0.2,0.3-0.3,0.4-0.6l1.3,0.2c-0.1,0.4-0.3,0.7-0.6,1c-0.3,0.3-0.6,0.5-1,0.7
		C46.3,62,45.8,62.1,45.3,62.1z"/>
	<path d="M52.9,62.1c-0.7,0-1.3-0.2-1.8-0.5c-0.5-0.3-0.9-0.7-1.1-1.3c-0.3-0.6-0.4-1.2-0.4-1.9c0-0.7,0.1-1.4,0.4-1.9
		c0.3-0.6,0.7-1,1.1-1.3c0.5-0.3,1.1-0.5,1.7-0.5c0.5,0,1,0.1,1.4,0.3c0.4,0.2,0.8,0.5,1,0.8s0.4,0.8,0.5,1.3h-1.3
		c-0.1-0.3-0.2-0.6-0.5-0.9c-0.3-0.2-0.6-0.4-1.1-0.4c-0.4,0-0.7,0.1-1,0.3c-0.3,0.2-0.5,0.5-0.7,0.9C51,57.5,51,57.9,51,58.4
		c0,0.5,0.1,1,0.2,1.3c0.2,0.4,0.4,0.7,0.7,0.9c0.3,0.2,0.6,0.3,1,0.3c0.3,0,0.5,0,0.7-0.1c0.2-0.1,0.4-0.2,0.5-0.4
		c0.1-0.2,0.2-0.4,0.3-0.7h1.3c0,0.5-0.2,0.9-0.4,1.2c-0.2,0.4-0.6,0.6-1,0.8C53.9,62,53.4,62.1,52.9,62.1z"/>
	<path d="M60.6,54.9V56h-3.9v-1.1H60.6z M57.7,53.2h1.4v6.7c0,0.3,0,0.5,0.1,0.6s0.2,0.2,0.3,0.3c0.1,0,0.3,0.1,0.4,0.1
		c0.1,0,0.2,0,0.3,0c0.1,0,0.1,0,0.2,0l0.2,1.1c-0.1,0-0.2,0.1-0.3,0.1C60.2,62,60,62,59.8,62c-0.4,0-0.7-0.1-1-0.2
		s-0.6-0.3-0.8-0.6s-0.3-0.6-0.3-1.1V53.2z"/>
	<path d="M62.8,53.8c-0.2,0-0.4-0.1-0.6-0.2s-0.3-0.4-0.3-0.6c0-0.2,0.1-0.4,0.3-0.6s0.4-0.2,0.6-0.2s0.4,0.1,0.6,0.2
		s0.3,0.4,0.3,0.6c0,0.2-0.1,0.4-0.3,0.6S63,53.8,62.8,53.8z M62.1,61.9v-7.1h1.4v7.1H62.1z"/>
	<path d="M68.3,62.1c-0.7,0-1.2-0.2-1.7-0.5s-0.9-0.7-1.2-1.3S65,59.2,65,58.4c0-0.7,0.1-1.4,0.4-1.9s0.7-1,1.2-1.3s1.1-0.5,1.7-0.5
		c0.7,0,1.2,0.2,1.7,0.5s0.9,0.7,1.2,1.3s0.4,1.2,0.4,1.9c0,0.7-0.1,1.4-0.4,1.9s-0.7,1-1.2,1.3S69,62.1,68.3,62.1z M68.3,60.9
		c0.4,0,0.8-0.1,1.1-0.3c0.3-0.2,0.5-0.5,0.6-0.9c0.1-0.4,0.2-0.8,0.2-1.3c0-0.5-0.1-0.9-0.2-1.2c-0.1-0.4-0.3-0.7-0.6-0.9
		c-0.3-0.2-0.6-0.3-1.1-0.3c-0.4,0-0.8,0.1-1.1,0.3c-0.3,0.2-0.5,0.5-0.6,0.9c-0.1,0.4-0.2,0.8-0.2,1.2c0,0.5,0.1,0.9,0.2,1.3
		c0.1,0.4,0.3,0.7,0.6,0.9C67.5,60.8,67.9,60.9,68.3,60.9z"/>
	<path d="M74.5,57.7v4.2h-1.4v-7.1h1.3V56h0.1c0.2-0.4,0.4-0.7,0.8-0.9c0.3-0.2,0.8-0.3,1.3-0.3c0.5,0,0.9,0.1,1.3,0.3
		c0.4,0.2,0.6,0.5,0.8,0.9c0.2,0.4,0.3,0.9,0.3,1.5v4.5h-1.4v-4.3c0-0.5-0.1-0.9-0.4-1.2C77,56.1,76.7,56,76.2,56
		c-0.3,0-0.6,0.1-0.9,0.2c-0.2,0.1-0.4,0.3-0.6,0.6S74.5,57.4,74.5,57.7z"/>
	<path d="M87.1,62.1c-0.6,0-1.2-0.1-1.6-0.3s-0.8-0.5-1.1-0.9c-0.2-0.4-0.4-0.9-0.4-1.4c0-0.4,0.1-0.7,0.2-1
		c0.2-0.3,0.4-0.6,0.7-0.8c0.3-0.3,0.6-0.5,1-0.8l1.5-1.1c0.3-0.2,0.5-0.3,0.6-0.5c0.1-0.2,0.2-0.4,0.2-0.7c0-0.2-0.1-0.4-0.3-0.6
		s-0.4-0.3-0.8-0.3c-0.2,0-0.4,0.1-0.6,0.2c-0.2,0.1-0.3,0.2-0.4,0.4c-0.1,0.2-0.1,0.3-0.1,0.5c0,0.2,0.1,0.4,0.2,0.7
		c0.1,0.2,0.3,0.4,0.5,0.7c0.2,0.2,0.4,0.5,0.6,0.7l4.4,5.2h-1.6l-3.6-4.3c-0.3-0.4-0.6-0.7-0.8-1c-0.3-0.3-0.5-0.6-0.6-1
		c-0.2-0.3-0.2-0.7-0.2-1.1c0-0.4,0.1-0.8,0.3-1.2c0.2-0.3,0.5-0.6,0.8-0.8c0.4-0.2,0.8-0.3,1.3-0.3c0.5,0,0.9,0.1,1.3,0.3
		c0.3,0.2,0.6,0.4,0.8,0.8c0.2,0.3,0.3,0.7,0.3,1c0,0.4-0.1,0.8-0.3,1.2c-0.2,0.3-0.5,0.7-0.9,0.9L86.4,58c-0.4,0.3-0.6,0.5-0.8,0.8
		c-0.1,0.3-0.2,0.5-0.2,0.6c0,0.3,0.1,0.5,0.2,0.8s0.3,0.4,0.6,0.6c0.3,0.1,0.6,0.2,0.9,0.2c0.4,0,0.7-0.1,1-0.2s0.6-0.4,0.9-0.7
		s0.5-0.6,0.6-1c0.2-0.4,0.2-0.8,0.2-1.3h1.2c0,0.6-0.1,1.1-0.2,1.5c-0.1,0.4-0.3,0.8-0.5,1c-0.2,0.3-0.4,0.5-0.6,0.6
		c-0.1,0-0.1,0.1-0.2,0.1c0,0-0.1,0.1-0.2,0.1c-0.3,0.3-0.7,0.6-1.2,0.7C88,62,87.6,62.1,87.1,62.1z"/>
	<path d="M29,70.6c0-0.4-0.3-0.8-0.6-1s-0.8-0.4-1.3-0.4c-0.4,0-0.7,0.1-1,0.2s-0.5,0.3-0.7,0.5c-0.2,0.2-0.2,0.5-0.2,0.7
		c0,0.2,0.1,0.4,0.2,0.6c0.1,0.2,0.2,0.3,0.4,0.4c0.2,0.1,0.4,0.2,0.6,0.3c0.2,0.1,0.4,0.1,0.6,0.2l0.9,0.2c0.3,0.1,0.6,0.2,0.9,0.3
		c0.3,0.1,0.6,0.3,0.9,0.5c0.3,0.2,0.5,0.5,0.7,0.8c0.2,0.3,0.3,0.7,0.3,1.1c0,0.5-0.1,1-0.4,1.4s-0.7,0.7-1.2,1
		c-0.5,0.2-1.2,0.4-1.9,0.4c-0.7,0-1.3-0.1-1.8-0.3s-0.9-0.5-1.2-1c-0.3-0.4-0.5-0.9-0.5-1.5h1.4c0,0.3,0.1,0.6,0.3,0.9
		c0.2,0.2,0.4,0.4,0.8,0.5c0.3,0.1,0.6,0.2,1,0.2c0.4,0,0.8-0.1,1.1-0.2s0.6-0.3,0.7-0.5c0.2-0.2,0.3-0.5,0.3-0.8
		c0-0.3-0.1-0.5-0.2-0.7c-0.2-0.2-0.4-0.3-0.6-0.4c-0.3-0.1-0.6-0.2-0.9-0.3l-1.1-0.3c-0.8-0.2-1.4-0.5-1.8-0.9
		c-0.4-0.4-0.7-0.9-0.7-1.6c0-0.5,0.1-1,0.4-1.4s0.7-0.7,1.2-0.9c0.5-0.2,1.1-0.3,1.7-0.3c0.6,0,1.2,0.1,1.7,0.3s0.9,0.5,1.2,0.9
		c0.3,0.4,0.4,0.8,0.4,1.4H29z"/>
	<path d="M35.2,77.7c-0.7,0-1.3-0.1-1.8-0.5c-0.5-0.3-0.9-0.7-1.2-1.3c-0.3-0.5-0.4-1.2-0.4-1.9c0-0.7,0.1-1.4,0.4-1.9
		c0.3-0.6,0.7-1,1.1-1.3c0.5-0.3,1.1-0.5,1.7-0.5c0.4,0,0.8,0.1,1.2,0.2s0.7,0.3,1,0.6c0.3,0.3,0.5,0.6,0.7,1.1
		c0.2,0.5,0.3,1,0.3,1.6v0.5h-5.6v-1h4.3c0-0.4-0.1-0.7-0.2-1c-0.1-0.3-0.4-0.5-0.6-0.7s-0.6-0.2-0.9-0.2c-0.4,0-0.7,0.1-1,0.3
		c-0.3,0.2-0.5,0.4-0.7,0.7s-0.2,0.6-0.2,1v0.8c0,0.5,0.1,0.9,0.3,1.2c0.2,0.3,0.4,0.6,0.7,0.8c0.3,0.2,0.7,0.3,1.1,0.3
		c0.3,0,0.5,0,0.7-0.1c0.2-0.1,0.4-0.2,0.6-0.3c0.2-0.2,0.3-0.3,0.4-0.6l1.3,0.2c-0.1,0.4-0.3,0.7-0.6,1c-0.3,0.3-0.6,0.5-1,0.7
		C36.2,77.6,35.7,77.7,35.2,77.7z"/>
	<path d="M41.2,68.1v9.5h-1.4v-9.5H41.2z"/>
	<path d="M46.1,77.7c-0.7,0-1.3-0.1-1.8-0.5c-0.5-0.3-0.9-0.7-1.2-1.3c-0.3-0.5-0.4-1.2-0.4-1.9c0-0.7,0.1-1.4,0.4-1.9
		c0.3-0.6,0.7-1,1.1-1.3c0.5-0.3,1.1-0.5,1.7-0.5c0.4,0,0.8,0.1,1.2,0.2s0.7,0.3,1,0.6c0.3,0.3,0.5,0.6,0.7,1.1
		c0.2,0.5,0.3,1,0.3,1.6v0.5h-5.6v-1h4.3c0-0.4-0.1-0.7-0.2-1c-0.1-0.3-0.4-0.5-0.6-0.7s-0.6-0.2-0.9-0.2c-0.4,0-0.7,0.1-1,0.3
		c-0.3,0.2-0.5,0.4-0.7,0.7s-0.2,0.6-0.2,1v0.8c0,0.5,0.1,0.9,0.3,1.2c0.2,0.3,0.4,0.6,0.7,0.8c0.3,0.2,0.7,0.3,1.1,0.3
		c0.3,0,0.5,0,0.7-0.1c0.2-0.1,0.4-0.2,0.6-0.3c0.2-0.2,0.3-0.3,0.4-0.6l1.3,0.2c-0.1,0.4-0.3,0.7-0.6,1c-0.3,0.3-0.6,0.5-1,0.7
		C47.1,77.6,46.6,77.7,46.1,77.7z"/>
	<path d="M53.6,77.7c-0.7,0-1.3-0.2-1.8-0.5c-0.5-0.3-0.9-0.7-1.1-1.3c-0.3-0.6-0.4-1.2-0.4-1.9c0-0.7,0.1-1.4,0.4-1.9
		c0.3-0.6,0.7-1,1.1-1.3c0.5-0.3,1.1-0.5,1.7-0.5c0.5,0,1,0.1,1.4,0.3c0.4,0.2,0.8,0.5,1,0.8s0.4,0.8,0.5,1.3h-1.3
		c-0.1-0.3-0.2-0.6-0.5-0.9c-0.3-0.2-0.6-0.4-1.1-0.4c-0.4,0-0.7,0.1-1,0.3c-0.3,0.2-0.5,0.5-0.7,0.9c-0.2,0.4-0.2,0.8-0.2,1.3
		c0,0.5,0.1,1,0.2,1.3c0.2,0.4,0.4,0.7,0.7,0.9c0.3,0.2,0.6,0.3,1,0.3c0.3,0,0.5,0,0.7-0.1c0.2-0.1,0.4-0.2,0.5-0.4
		c0.1-0.2,0.2-0.4,0.3-0.7h1.3c0,0.5-0.2,0.9-0.4,1.2c-0.2,0.4-0.6,0.6-1,0.8C54.7,77.6,54.2,77.7,53.6,77.7z"/>
	<path d="M61.3,70.5v1.1h-3.9v-1.1H61.3z M58.5,68.8h1.4v6.7c0,0.3,0,0.5,0.1,0.6s0.2,0.2,0.3,0.3c0.1,0,0.3,0.1,0.4,0.1
		c0.1,0,0.2,0,0.3,0c0.1,0,0.1,0,0.2,0l0.2,1.1c-0.1,0-0.2,0.1-0.3,0.1c-0.1,0-0.3,0.1-0.6,0.1c-0.4,0-0.7-0.1-1-0.2
		s-0.6-0.3-0.8-0.6s-0.3-0.6-0.3-1.1V68.8z"/>
	<path d="M66,69.3v-1.2h7.3v1.2h-3v8.2h-1.4v-8.2H66z"/>
	<path d="M74.8,77.5v-7.1h1.3v1.1h0.1c0.1-0.4,0.4-0.7,0.7-0.9c0.3-0.2,0.7-0.3,1.1-0.3c0.1,0,0.2,0,0.3,0c0.1,0,0.2,0,0.3,0v1.3
		c-0.1,0-0.2,0-0.3-0.1s-0.3,0-0.4,0c-0.3,0-0.6,0.1-0.9,0.2c-0.3,0.1-0.5,0.3-0.6,0.6c-0.1,0.2-0.2,0.5-0.2,0.8v4.3H74.8z"/>
	<path d="M81.8,77.7c-0.4,0-0.9-0.1-1.2-0.3c-0.4-0.2-0.7-0.4-0.9-0.7c-0.2-0.3-0.3-0.7-0.3-1.2c0-0.4,0.1-0.7,0.2-1
		c0.2-0.3,0.4-0.5,0.6-0.6c0.3-0.2,0.6-0.3,0.9-0.3c0.3-0.1,0.7-0.1,1-0.2c0.4,0,0.8-0.1,1-0.1c0.3,0,0.5-0.1,0.6-0.2
		c0.1-0.1,0.2-0.2,0.2-0.4v0c0-0.4-0.1-0.7-0.3-0.9c-0.2-0.2-0.6-0.3-1-0.3c-0.5,0-0.8,0.1-1.1,0.3c-0.3,0.2-0.5,0.4-0.6,0.7
		l-1.3-0.3c0.2-0.4,0.4-0.8,0.7-1c0.3-0.3,0.6-0.5,1-0.6s0.8-0.2,1.2-0.2c0.3,0,0.6,0,0.9,0.1c0.3,0.1,0.6,0.2,0.9,0.4
		c0.3,0.2,0.5,0.4,0.7,0.8c0.2,0.3,0.3,0.7,0.3,1.3v4.7H84v-1h-0.1c-0.1,0.2-0.2,0.4-0.4,0.5c-0.2,0.2-0.4,0.3-0.7,0.4
		C82.6,77.6,82.2,77.7,81.8,77.7z M82.1,76.6c0.4,0,0.7-0.1,1-0.2s0.5-0.3,0.6-0.6c0.1-0.2,0.2-0.5,0.2-0.8v-0.9
		c0,0-0.1,0.1-0.3,0.1c-0.1,0-0.3,0.1-0.5,0.1c-0.2,0-0.4,0.1-0.5,0.1c-0.2,0-0.3,0-0.4,0.1c-0.3,0-0.5,0.1-0.7,0.2
		c-0.2,0.1-0.4,0.2-0.5,0.3c-0.1,0.1-0.2,0.3-0.2,0.6c0,0.3,0.1,0.6,0.4,0.8S81.7,76.6,82.1,76.6z"/>
	<path d="M89.8,77.7c-0.6,0-1.1-0.1-1.5-0.4c-0.4-0.3-0.8-0.7-1.1-1.3s-0.4-1.2-0.4-2c0-0.8,0.1-1.4,0.4-2c0.3-0.5,0.6-1,1.1-1.3
		c0.4-0.3,1-0.4,1.5-0.4c0.4,0,0.8,0.1,1.1,0.2c0.3,0.1,0.5,0.3,0.6,0.5c0.1,0.2,0.3,0.4,0.3,0.5H92v-3.5h1.4v9.5H92v-1.1h-0.1
		c-0.1,0.2-0.2,0.3-0.4,0.5c-0.2,0.2-0.4,0.4-0.6,0.5C90.6,77.6,90.3,77.7,89.8,77.7z M90.1,76.5c0.4,0,0.7-0.1,1-0.3
		c0.3-0.2,0.5-0.5,0.6-0.9S92,74.5,92,74c0-0.5-0.1-0.9-0.2-1.3c-0.1-0.4-0.3-0.7-0.6-0.9c-0.3-0.2-0.6-0.3-1-0.3
		c-0.4,0-0.8,0.1-1,0.3c-0.3,0.2-0.5,0.5-0.6,0.9s-0.2,0.8-0.2,1.3c0,0.5,0.1,0.9,0.2,1.3s0.4,0.7,0.6,0.9
		C89.4,76.4,89.7,76.5,90.1,76.5z"/>
	<path d="M98.4,77.7c-0.7,0-1.3-0.1-1.8-0.5c-0.5-0.3-0.9-0.7-1.2-1.3C95.1,75.4,95,74.8,95,74c0-0.7,0.1-1.4,0.4-1.9
		c0.3-0.6,0.7-1,1.1-1.3c0.5-0.3,1.1-0.5,1.7-0.5c0.4,0,0.8,0.1,1.2,0.2s0.7,0.3,1,0.6c0.3,0.3,0.5,0.6,0.7,1.1
		c0.2,0.5,0.3,1,0.3,1.6v0.5h-5.6v-1h4.3c0-0.4-0.1-0.7-0.2-1c-0.1-0.3-0.4-0.5-0.6-0.7s-0.6-0.2-0.9-0.2c-0.4,0-0.7,0.1-1,0.3
		c-0.3,0.2-0.5,0.4-0.7,0.7s-0.2,0.6-0.2,1v0.8c0,0.5,0.1,0.9,0.3,1.2c0.2,0.3,0.4,0.6,0.7,0.8c0.3,0.2,0.7,0.3,1.1,0.3
		c0.3,0,0.5,0,0.7-0.1c0.2-0.1,0.4-0.2,0.6-0.3c0.2-0.2,0.3-0.3,0.4-0.6l1.3,0.2c-0.1,0.4-0.3,0.7-0.6,1c-0.3,0.3-0.6,0.5-1,0.7
		C99.3,77.6,98.9,77.7,98.4,77.7z"/>
	<path d="M31,86.8h-1.4c-0.1-0.3-0.2-0.6-0.3-0.8s-0.3-0.4-0.6-0.6c-0.2-0.2-0.5-0.3-0.7-0.4s-0.6-0.1-0.9-0.1c-0.5,0-1,0.1-1.5,0.4
		s-0.8,0.7-1,1.2c-0.2,0.5-0.4,1.2-0.4,1.9c0,0.8,0.1,1.4,0.4,1.9c0.2,0.5,0.6,0.9,1,1.2c0.4,0.3,0.9,0.4,1.5,0.4
		c0.3,0,0.6,0,0.9-0.1c0.3-0.1,0.5-0.2,0.7-0.4c0.2-0.2,0.4-0.4,0.6-0.6c0.2-0.2,0.3-0.5,0.3-0.8l1.4,0c-0.1,0.5-0.2,0.9-0.4,1.3
		c-0.2,0.4-0.5,0.7-0.8,1s-0.7,0.5-1.2,0.7c-0.4,0.2-0.9,0.2-1.4,0.2c-0.8,0-1.5-0.2-2.2-0.6c-0.6-0.4-1.1-0.9-1.5-1.7
		c-0.4-0.7-0.6-1.6-0.6-2.6c0-1,0.2-1.9,0.6-2.6c0.4-0.7,0.9-1.3,1.5-1.7c0.6-0.4,1.4-0.6,2.2-0.6c0.5,0,1,0.1,1.4,0.2
		s0.8,0.4,1.2,0.6s0.6,0.6,0.9,1C30.7,85.8,30.9,86.3,31,86.8z"/>
	<path d="M35.5,93.3c-0.7,0-1.2-0.2-1.7-0.5s-0.9-0.7-1.2-1.3s-0.4-1.2-0.4-1.9c0-0.7,0.1-1.4,0.4-1.9s0.7-1,1.2-1.3
		s1.1-0.5,1.7-0.5c0.7,0,1.2,0.2,1.7,0.5s0.9,0.7,1.2,1.3s0.4,1.2,0.4,1.9c0,0.7-0.1,1.4-0.4,1.9s-0.7,1-1.2,1.3
		S36.2,93.3,35.5,93.3z M35.5,92.1c0.4,0,0.8-0.1,1.1-0.3c0.3-0.2,0.5-0.5,0.6-0.9c0.1-0.4,0.2-0.8,0.2-1.3c0-0.5-0.1-0.9-0.2-1.2
		c-0.1-0.4-0.3-0.7-0.6-0.9c-0.3-0.2-0.6-0.3-1.1-0.3c-0.4,0-0.8,0.1-1.1,0.3c-0.3,0.2-0.5,0.5-0.6,0.9c-0.1,0.4-0.2,0.8-0.2,1.2
		c0,0.5,0.1,0.9,0.2,1.3c0.1,0.4,0.3,0.7,0.6,0.9C34.8,92,35.1,92.1,35.5,92.1z"/>
	<path d="M41.8,88.9v4.2h-1.4v-7.1h1.3v1.2h0.1c0.2-0.4,0.4-0.7,0.8-0.9c0.3-0.2,0.8-0.3,1.3-0.3c0.5,0,0.9,0.1,1.3,0.3
		c0.4,0.2,0.6,0.5,0.8,0.9c0.2,0.4,0.3,0.9,0.3,1.5v4.5h-1.4v-4.3c0-0.5-0.1-0.9-0.4-1.2c-0.3-0.3-0.6-0.4-1.1-0.4
		c-0.3,0-0.6,0.1-0.9,0.2c-0.2,0.1-0.4,0.3-0.6,0.6S41.8,88.6,41.8,88.9z"/>
	<path d="M51.5,86.1v1.1h-4v-1.1H51.5z M48.6,93.1v-7.9c0-0.4,0.1-0.8,0.3-1.1s0.5-0.5,0.8-0.7c0.3-0.1,0.7-0.2,1-0.2
		c0.3,0,0.5,0,0.7,0.1c0.2,0,0.3,0.1,0.4,0.1l-0.3,1.1c-0.1,0-0.1,0-0.2-0.1c-0.1,0-0.2,0-0.4,0c-0.3,0-0.6,0.1-0.7,0.2
		c-0.1,0.2-0.2,0.4-0.2,0.7v7.7H48.6z"/>
	<path d="M53.6,85c-0.2,0-0.4-0.1-0.6-0.2s-0.3-0.4-0.3-0.6c0-0.2,0.1-0.4,0.3-0.6s0.4-0.2,0.6-0.2s0.4,0.1,0.6,0.2s0.3,0.4,0.3,0.6
		c0,0.2-0.1,0.4-0.3,0.6S53.9,85,53.6,85z M52.9,93.1v-7.1h1.4v7.1H52.9z"/>
	<path d="M56.2,93.1v-7.1h1.3v1.1h0.1c0.1-0.4,0.4-0.7,0.7-0.9c0.3-0.2,0.7-0.3,1.1-0.3c0.1,0,0.2,0,0.3,0c0.1,0,0.2,0,0.3,0v1.3
		c-0.1,0-0.2,0-0.3-0.1s-0.3,0-0.4,0c-0.3,0-0.6,0.1-0.9,0.2c-0.3,0.1-0.5,0.3-0.6,0.6c-0.1,0.2-0.2,0.5-0.2,0.8v4.3H56.2z"/>
	<path d="M61.2,93.1v-7.1h1.3v1.2h0.1c0.1-0.4,0.4-0.7,0.7-0.9c0.3-0.2,0.7-0.3,1.2-0.3c0.5,0,0.9,0.1,1.2,0.3
		c0.3,0.2,0.6,0.5,0.7,0.9h0.1c0.2-0.4,0.4-0.7,0.8-0.9c0.4-0.2,0.8-0.3,1.3-0.3c0.6,0,1.2,0.2,1.6,0.6c0.4,0.4,0.6,1,0.6,1.8v4.8
		h-1.4v-4.6c0-0.5-0.1-0.8-0.4-1s-0.6-0.3-0.9-0.3c-0.4,0-0.8,0.1-1,0.4c-0.2,0.3-0.4,0.6-0.4,1.1v4.5h-1.4v-4.7
		c0-0.4-0.1-0.7-0.4-0.9c-0.2-0.2-0.6-0.4-0.9-0.4c-0.3,0-0.5,0.1-0.7,0.2c-0.2,0.1-0.4,0.3-0.5,0.6c-0.1,0.2-0.2,0.5-0.2,0.8v4.4
		H61.2z"/>
	<path d="M74.7,93.3c-0.4,0-0.9-0.1-1.2-0.3c-0.4-0.2-0.7-0.4-0.9-0.7c-0.2-0.3-0.3-0.7-0.3-1.2c0-0.4,0.1-0.7,0.2-1
		c0.2-0.3,0.4-0.5,0.6-0.6c0.3-0.2,0.6-0.3,0.9-0.3c0.3-0.1,0.7-0.1,1-0.2c0.4,0,0.8-0.1,1-0.1c0.3,0,0.5-0.1,0.6-0.2
		c0.1-0.1,0.2-0.2,0.2-0.4v0c0-0.4-0.1-0.7-0.3-0.9c-0.2-0.2-0.6-0.3-1-0.3c-0.5,0-0.8,0.1-1.1,0.3c-0.3,0.2-0.5,0.4-0.6,0.7
		l-1.3-0.3c0.2-0.4,0.4-0.8,0.7-1c0.3-0.3,0.6-0.5,1-0.6S75,86,75.5,86c0.3,0,0.6,0,0.9,0.1c0.3,0.1,0.6,0.2,0.9,0.4
		c0.3,0.2,0.5,0.4,0.7,0.8c0.2,0.3,0.3,0.7,0.3,1.3v4.7h-1.3v-1h-0.1c-0.1,0.2-0.2,0.4-0.4,0.5c-0.2,0.2-0.4,0.3-0.7,0.4
		C75.5,93.2,75.1,93.3,74.7,93.3z M75,92.2c0.4,0,0.7-0.1,1-0.2s0.5-0.3,0.6-0.6c0.1-0.2,0.2-0.5,0.2-0.8v-0.9c0,0-0.1,0.1-0.3,0.1
		c-0.1,0-0.3,0.1-0.5,0.1c-0.2,0-0.4,0.1-0.5,0.1c-0.2,0-0.3,0-0.4,0.1c-0.3,0-0.5,0.1-0.7,0.2c-0.2,0.1-0.4,0.2-0.5,0.3
		c-0.1,0.1-0.2,0.3-0.2,0.6c0,0.3,0.1,0.6,0.4,0.8S74.6,92.2,75,92.2z"/>
	<path d="M83.4,86.1v1.1h-3.9v-1.1H83.4z M80.5,84.4h1.4v6.7c0,0.3,0,0.5,0.1,0.6s0.2,0.2,0.3,0.3c0.1,0,0.3,0.1,0.4,0.1
		c0.1,0,0.2,0,0.3,0c0.1,0,0.1,0,0.2,0l0.2,1.1c-0.1,0-0.2,0.1-0.3,0.1c-0.1,0-0.3,0.1-0.6,0.1c-0.4,0-0.7-0.1-1-0.2
		s-0.6-0.3-0.8-0.6s-0.3-0.6-0.3-1.1V84.4z"/>
	<path d="M85.6,85c-0.2,0-0.4-0.1-0.6-0.2s-0.3-0.4-0.3-0.6c0-0.2,0.1-0.4,0.3-0.6s0.4-0.2,0.6-0.2s0.4,0.1,0.6,0.2s0.3,0.4,0.3,0.6
		c0,0.2-0.1,0.4-0.3,0.6S85.8,85,85.6,85z M84.9,93.1v-7.1h1.4v7.1H84.9z"/>
	<path d="M91.1,93.3c-0.7,0-1.2-0.2-1.7-0.5s-0.9-0.7-1.2-1.3s-0.4-1.2-0.4-1.9c0-0.7,0.1-1.4,0.4-1.9s0.7-1,1.2-1.3
		s1.1-0.5,1.7-0.5c0.7,0,1.2,0.2,1.7,0.5s0.9,0.7,1.2,1.3s0.4,1.2,0.4,1.9c0,0.7-0.1,1.4-0.4,1.9s-0.7,1-1.2,1.3
		S91.8,93.3,91.1,93.3z M91.1,92.1c0.4,0,0.8-0.1,1.1-0.3c0.3-0.2,0.5-0.5,0.6-0.9c0.1-0.4,0.2-0.8,0.2-1.3c0-0.5-0.1-0.9-0.2-1.2
		c-0.1-0.4-0.3-0.7-0.6-0.9c-0.3-0.2-0.6-0.3-1.1-0.3c-0.4,0-0.8,0.1-1.1,0.3c-0.3,0.2-0.5,0.5-0.6,0.9c-0.1,0.4-0.2,0.8-0.2,1.2
		c0,0.5,0.1,0.9,0.2,1.3c0.1,0.4,0.3,0.7,0.6,0.9C90.3,92,90.7,92.1,91.1,92.1z"/>
	<path d="M97.3,88.9v4.2H96v-7.1h1.3v1.2h0.1c0.2-0.4,0.4-0.7,0.8-0.9c0.3-0.2,0.8-0.3,1.3-0.3c0.5,0,0.9,0.1,1.3,0.3
		c0.4,0.2,0.6,0.5,0.8,0.9c0.2,0.4,0.3,0.9,0.3,1.5v4.5h-1.4v-4.3c0-0.5-0.1-0.9-0.4-1.2c-0.3-0.3-0.6-0.4-1.1-0.4
		c-0.3,0-0.6,0.1-0.9,0.2c-0.2,0.1-0.4,0.3-0.6,0.6S97.3,88.6,97.3,88.9z"/>
</g>
<g>
	<path d="M169.9,54.3v-9.5h3.4c0.7,0,1.3,0.1,1.8,0.4c0.5,0.3,0.8,0.6,1.1,1.1c0.2,0.5,0.4,1,0.4,1.6c0,0.6-0.1,1.1-0.4,1.6
		c-0.2,0.5-0.6,0.8-1.1,1.1c-0.5,0.3-1.1,0.4-1.8,0.4h-2.3v-1.2h2.2c0.5,0,0.8-0.1,1.1-0.2c0.3-0.2,0.5-0.4,0.6-0.7
		c0.1-0.3,0.2-0.6,0.2-1c0-0.4-0.1-0.7-0.2-1s-0.3-0.5-0.6-0.7c-0.3-0.2-0.7-0.2-1.1-0.2h-1.8v8.2H169.9z"/>
	<path d="M178.1,54.3v-7.1h1.3v1.1h0.1c0.1-0.4,0.4-0.7,0.7-0.9c0.3-0.2,0.7-0.3,1.1-0.3c0.1,0,0.2,0,0.3,0c0.1,0,0.2,0,0.3,0v1.3
		c-0.1,0-0.2,0-0.3-0.1s-0.3,0-0.4,0c-0.3,0-0.6,0.1-0.9,0.2c-0.3,0.1-0.5,0.3-0.6,0.6c-0.1,0.2-0.2,0.5-0.2,0.8v4.3H178.1z"/>
	<path d="M186,54.4c-0.7,0-1.2-0.2-1.7-0.5s-0.9-0.7-1.2-1.3s-0.4-1.2-0.4-1.9c0-0.7,0.1-1.4,0.4-1.9s0.7-1,1.2-1.3s1.1-0.5,1.7-0.5
		c0.7,0,1.2,0.2,1.7,0.5s0.9,0.7,1.2,1.3s0.4,1.2,0.4,1.9c0,0.7-0.1,1.4-0.4,1.9s-0.7,1-1.2,1.3S186.7,54.4,186,54.4z M186,53.3
		c0.4,0,0.8-0.1,1.1-0.3c0.3-0.2,0.5-0.5,0.6-0.9c0.1-0.4,0.2-0.8,0.2-1.3c0-0.5-0.1-0.9-0.2-1.2c-0.1-0.4-0.3-0.7-0.6-0.9
		c-0.3-0.2-0.6-0.3-1.1-0.3c-0.4,0-0.8,0.1-1.1,0.3c-0.3,0.2-0.5,0.5-0.6,0.9c-0.1,0.4-0.2,0.8-0.2,1.2c0,0.5,0.1,0.9,0.2,1.3
		c0.1,0.4,0.3,0.7,0.6,0.9C185.3,53.1,185.6,53.3,186,53.3z"/>
	<path d="M197,47.2l-2.6,7.1h-1.5l-2.6-7.1h1.5l1.8,5.5h0.1l1.8-5.5H197z"/>
	<path d="M198.9,46.1c-0.2,0-0.4-0.1-0.6-0.2s-0.3-0.4-0.3-0.6c0-0.2,0.1-0.4,0.3-0.6s0.4-0.2,0.6-0.2s0.4,0.1,0.6,0.2
		s0.3,0.4,0.3,0.6c0,0.2-0.1,0.4-0.3,0.6S199.2,46.1,198.9,46.1z M198.3,54.3v-7.1h1.4v7.1H198.3z"/>
	<path d="M204.1,54.4c-0.6,0-1.1-0.1-1.5-0.4c-0.4-0.3-0.8-0.7-1.1-1.3s-0.4-1.2-0.4-2c0-0.8,0.1-1.4,0.4-2c0.3-0.5,0.6-1,1.1-1.3
		c0.4-0.3,1-0.4,1.5-0.4c0.4,0,0.8,0.1,1.1,0.2c0.3,0.1,0.5,0.3,0.6,0.5c0.1,0.2,0.3,0.4,0.3,0.5h0.1v-3.5h1.4v9.5h-1.3v-1.1h-0.1
		c-0.1,0.2-0.2,0.3-0.4,0.5c-0.2,0.2-0.4,0.4-0.6,0.5C204.9,54.3,204.6,54.4,204.1,54.4z M204.4,53.2c0.4,0,0.7-0.1,1-0.3
		c0.3-0.2,0.5-0.5,0.6-0.9s0.2-0.8,0.2-1.3c0-0.5-0.1-0.9-0.2-1.3c-0.1-0.4-0.3-0.7-0.6-0.9c-0.3-0.2-0.6-0.3-1-0.3
		c-0.4,0-0.8,0.1-1,0.3c-0.3,0.2-0.5,0.5-0.6,0.9s-0.2,0.8-0.2,1.3c0,0.5,0.1,0.9,0.2,1.3s0.4,0.7,0.6,0.9
		C203.7,53.1,204,53.2,204.4,53.2z"/>
	<path d="M212.7,54.4c-0.7,0-1.3-0.1-1.8-0.5c-0.5-0.3-0.9-0.7-1.2-1.3c-0.3-0.5-0.4-1.2-0.4-1.9c0-0.7,0.1-1.4,0.4-1.9
		c0.3-0.6,0.7-1,1.1-1.3c0.5-0.3,1.1-0.5,1.7-0.5c0.4,0,0.8,0.1,1.2,0.2s0.7,0.3,1,0.6c0.3,0.3,0.5,0.6,0.7,1.1
		c0.2,0.5,0.3,1,0.3,1.6v0.5h-5.6v-1h4.3c0-0.4-0.1-0.7-0.2-1c-0.1-0.3-0.4-0.5-0.6-0.7s-0.6-0.2-0.9-0.2c-0.4,0-0.7,0.1-1,0.3
		c-0.3,0.2-0.5,0.4-0.7,0.7s-0.2,0.6-0.2,1V51c0,0.5,0.1,0.9,0.3,1.2c0.2,0.3,0.4,0.6,0.7,0.8c0.3,0.2,0.7,0.3,1.1,0.3
		c0.3,0,0.5,0,0.7-0.1c0.2-0.1,0.4-0.2,0.6-0.3c0.2-0.2,0.3-0.3,0.4-0.6l1.3,0.2c-0.1,0.4-0.3,0.7-0.6,1c-0.3,0.3-0.6,0.5-1,0.7
		C213.7,54.3,213.2,54.4,212.7,54.4z"/>
	<path d="M169.6,60.4v9.5h-1.4v-9.5H169.6z"/>
	<path d="M172.9,65.7v4.2h-1.4v-7.1h1.3v1.2h0.1c0.2-0.4,0.4-0.7,0.8-0.9c0.3-0.2,0.8-0.3,1.3-0.3c0.5,0,0.9,0.1,1.3,0.3
		c0.4,0.2,0.6,0.5,0.8,0.9c0.2,0.4,0.3,0.9,0.3,1.5v4.5h-1.4v-4.3c0-0.5-0.1-0.9-0.4-1.2c-0.3-0.3-0.6-0.4-1.1-0.4
		c-0.3,0-0.6,0.1-0.9,0.2c-0.2,0.1-0.4,0.3-0.6,0.6S172.9,65.3,172.9,65.7z"/>
	<path d="M185.4,62.8l-2.6,7.1h-1.5l-2.6-7.1h1.5l1.8,5.5h0.1l1.8-5.5H185.4z"/>
	<path d="M189.7,70c-0.7,0-1.3-0.1-1.8-0.5c-0.5-0.3-0.9-0.7-1.2-1.3c-0.3-0.5-0.4-1.2-0.4-1.9c0-0.7,0.1-1.4,0.4-1.9
		c0.3-0.6,0.7-1,1.1-1.3c0.5-0.3,1.1-0.5,1.7-0.5c0.4,0,0.8,0.1,1.2,0.2s0.7,0.3,1,0.6c0.3,0.3,0.5,0.6,0.7,1.1
		c0.2,0.5,0.3,1,0.3,1.6v0.5h-5.6v-1h4.3c0-0.4-0.1-0.7-0.2-1c-0.1-0.3-0.4-0.5-0.6-0.7s-0.6-0.2-0.9-0.2c-0.4,0-0.7,0.1-1,0.3
		c-0.3,0.2-0.5,0.4-0.7,0.7s-0.2,0.6-0.2,1v0.8c0,0.5,0.1,0.9,0.3,1.2c0.2,0.3,0.4,0.6,0.7,0.8c0.3,0.2,0.7,0.3,1.1,0.3
		c0.3,0,0.5,0,0.7-0.1c0.2-0.1,0.4-0.2,0.6-0.3c0.2-0.2,0.3-0.3,0.4-0.6l1.3,0.2c-0.1,0.4-0.3,0.7-0.6,1c-0.3,0.3-0.6,0.5-1,0.7
		C190.7,69.9,190.3,70,189.7,70z"/>
	<path d="M199.6,64.5l-1.3,0.2c-0.1-0.2-0.1-0.3-0.2-0.5c-0.1-0.1-0.3-0.3-0.5-0.4s-0.4-0.1-0.7-0.1c-0.4,0-0.7,0.1-1,0.3
		c-0.3,0.2-0.4,0.4-0.4,0.7c0,0.2,0.1,0.4,0.3,0.6c0.2,0.1,0.5,0.3,0.8,0.4l1.1,0.3c0.7,0.2,1.1,0.4,1.5,0.7
		c0.3,0.3,0.5,0.7,0.5,1.2c0,0.4-0.1,0.8-0.4,1.1c-0.2,0.3-0.6,0.6-1,0.8c-0.4,0.2-0.9,0.3-1.5,0.3c-0.8,0-1.4-0.2-1.9-0.5
		c-0.5-0.3-0.8-0.8-0.9-1.5l1.3-0.2c0.1,0.3,0.3,0.6,0.5,0.8c0.3,0.2,0.6,0.3,1,0.3c0.5,0,0.8-0.1,1.1-0.3c0.3-0.2,0.4-0.4,0.4-0.7
		c0-0.2-0.1-0.4-0.2-0.6s-0.4-0.3-0.8-0.3l-1.2-0.3c-0.7-0.2-1.2-0.4-1.5-0.7c-0.3-0.3-0.5-0.7-0.5-1.3c0-0.4,0.1-0.8,0.4-1.1
		s0.6-0.6,1-0.7c0.4-0.2,0.9-0.3,1.4-0.3c0.8,0,1.4,0.2,1.8,0.5C199.2,63.5,199.5,64,199.6,64.5z"/>
	<path d="M204.6,62.8v1.1h-3.9v-1.1H204.6z M201.8,61.1h1.4v6.7c0,0.3,0,0.5,0.1,0.6s0.2,0.2,0.3,0.3c0.1,0,0.3,0.1,0.4,0.1
		c0.1,0,0.2,0,0.3,0c0.1,0,0.1,0,0.2,0l0.2,1.1c-0.1,0-0.2,0.1-0.3,0.1c-0.1,0-0.3,0.1-0.6,0.1c-0.4,0-0.7-0.1-1-0.2
		s-0.6-0.3-0.8-0.6s-0.3-0.6-0.3-1.1V61.1z"/>
	<path d="M209.1,70c-0.7,0-1.2-0.2-1.7-0.5s-0.9-0.7-1.2-1.3s-0.4-1.2-0.4-1.9c0-0.7,0.1-1.4,0.4-1.9s0.7-1,1.2-1.3s1.1-0.5,1.7-0.5
		c0.7,0,1.2,0.2,1.7,0.5s0.9,0.7,1.2,1.3s0.4,1.2,0.4,1.9c0,0.7-0.1,1.4-0.4,1.9s-0.7,1-1.2,1.3S209.8,70,209.1,70z M209.1,68.9
		c0.4,0,0.8-0.1,1.1-0.3c0.3-0.2,0.5-0.5,0.6-0.9c0.1-0.4,0.2-0.8,0.2-1.3c0-0.5-0.1-0.9-0.2-1.2c-0.1-0.4-0.3-0.7-0.6-0.9
		c-0.3-0.2-0.6-0.3-1.1-0.3c-0.4,0-0.8,0.1-1.1,0.3c-0.3,0.2-0.5,0.5-0.6,0.9c-0.1,0.4-0.2,0.8-0.2,1.2c0,0.5,0.1,0.9,0.2,1.3
		c0.1,0.4,0.3,0.7,0.6,0.9C208.3,68.7,208.7,68.9,209.1,68.9z"/>
	<path d="M214,69.9v-7.1h1.3v1.1h0.1c0.1-0.4,0.4-0.7,0.7-0.9c0.3-0.2,0.7-0.3,1.1-0.3c0.1,0,0.2,0,0.3,0c0.1,0,0.2,0,0.3,0V64
		c-0.1,0-0.2,0-0.3-0.1s-0.3,0-0.4,0c-0.3,0-0.6,0.1-0.9,0.2c-0.3,0.1-0.5,0.3-0.6,0.6c-0.1,0.2-0.2,0.5-0.2,0.8v4.3H214z"/>
	<path d="M184.9,79.1h-1.4c-0.1-0.3-0.2-0.6-0.3-0.8s-0.3-0.4-0.6-0.6c-0.2-0.2-0.5-0.3-0.7-0.4s-0.6-0.1-0.9-0.1
		c-0.5,0-1,0.1-1.5,0.4s-0.8,0.7-1,1.2c-0.2,0.5-0.4,1.2-0.4,1.9c0,0.8,0.1,1.4,0.4,1.9c0.2,0.5,0.6,0.9,1,1.2
		c0.4,0.3,0.9,0.4,1.5,0.4c0.3,0,0.6,0,0.9-0.1c0.3-0.1,0.5-0.2,0.7-0.4c0.2-0.2,0.4-0.4,0.6-0.6c0.2-0.2,0.3-0.5,0.3-0.8l1.4,0
		c-0.1,0.5-0.2,0.9-0.4,1.3c-0.2,0.4-0.5,0.7-0.8,1s-0.7,0.5-1.2,0.7c-0.4,0.2-0.9,0.2-1.4,0.2c-0.8,0-1.5-0.2-2.2-0.6
		c-0.6-0.4-1.1-0.9-1.5-1.7c-0.4-0.7-0.6-1.6-0.6-2.6c0-1,0.2-1.9,0.6-2.6c0.4-0.7,0.9-1.3,1.5-1.7c0.6-0.4,1.4-0.6,2.2-0.6
		c0.5,0,1,0.1,1.4,0.2s0.8,0.4,1.2,0.6s0.6,0.6,0.9,1C184.7,78.1,184.8,78.6,184.9,79.1z"/>
	<path d="M189.5,85.6c-0.7,0-1.2-0.2-1.7-0.5s-0.9-0.7-1.2-1.3s-0.4-1.2-0.4-1.9c0-0.7,0.1-1.4,0.4-1.9s0.7-1,1.2-1.3
		s1.1-0.5,1.7-0.5c0.7,0,1.2,0.2,1.7,0.5s0.9,0.7,1.2,1.3s0.4,1.2,0.4,1.9c0,0.7-0.1,1.4-0.4,1.9s-0.7,1-1.2,1.3
		S190.1,85.6,189.5,85.6z M189.5,84.5c0.4,0,0.8-0.1,1.1-0.3c0.3-0.2,0.5-0.5,0.6-0.9c0.1-0.4,0.2-0.8,0.2-1.3
		c0-0.5-0.1-0.9-0.2-1.2c-0.1-0.4-0.3-0.7-0.6-0.9c-0.3-0.2-0.6-0.3-1.1-0.3c-0.4,0-0.8,0.1-1.1,0.3c-0.3,0.2-0.5,0.5-0.6,0.9
		c-0.1,0.4-0.2,0.8-0.2,1.2c0,0.5,0.1,0.9,0.2,1.3c0.1,0.4,0.3,0.7,0.6,0.9C188.7,84.3,189,84.5,189.5,84.5z"/>
	<path d="M197,85.6c-0.6,0-1.1-0.1-1.5-0.4c-0.4-0.3-0.8-0.7-1.1-1.3s-0.4-1.2-0.4-2c0-0.8,0.1-1.4,0.4-2c0.3-0.5,0.6-1,1.1-1.3
		c0.4-0.3,1-0.4,1.5-0.4c0.4,0,0.8,0.1,1.1,0.2c0.3,0.1,0.5,0.3,0.6,0.5c0.1,0.2,0.3,0.4,0.3,0.5h0.1V76h1.4v9.5h-1.3v-1.1H199
		c-0.1,0.2-0.2,0.3-0.4,0.5c-0.2,0.2-0.4,0.4-0.6,0.5C197.8,85.5,197.4,85.6,197,85.6z M197.3,84.4c0.4,0,0.7-0.1,1-0.3
		c0.3-0.2,0.5-0.5,0.6-0.9s0.2-0.8,0.2-1.3c0-0.5-0.1-0.9-0.2-1.3c-0.1-0.4-0.3-0.7-0.6-0.9c-0.3-0.2-0.6-0.3-1-0.3
		c-0.4,0-0.8,0.1-1,0.3c-0.3,0.2-0.5,0.5-0.6,0.9s-0.2,0.8-0.2,1.3c0,0.5,0.1,0.9,0.2,1.3s0.4,0.7,0.6,0.9
		C196.5,84.3,196.9,84.4,197.3,84.4z"/>
	<path d="M205.5,85.6c-0.7,0-1.3-0.1-1.8-0.5c-0.5-0.3-0.9-0.7-1.2-1.3c-0.3-0.5-0.4-1.2-0.4-1.9c0-0.7,0.1-1.4,0.4-1.9
		c0.3-0.6,0.7-1,1.1-1.3c0.5-0.3,1.1-0.5,1.7-0.5c0.4,0,0.8,0.1,1.2,0.2s0.7,0.3,1,0.6c0.3,0.3,0.5,0.6,0.7,1.1
		c0.2,0.5,0.3,1,0.3,1.6v0.5h-5.6v-1h4.3c0-0.4-0.1-0.7-0.2-1c-0.1-0.3-0.4-0.5-0.6-0.7s-0.6-0.2-0.9-0.2c-0.4,0-0.7,0.1-1,0.3
		c-0.3,0.2-0.5,0.4-0.7,0.7s-0.2,0.6-0.2,1v0.8c0,0.5,0.1,0.9,0.3,1.2c0.2,0.3,0.4,0.6,0.7,0.8c0.3,0.2,0.7,0.3,1.1,0.3
		c0.3,0,0.5,0,0.7-0.1c0.2-0.1,0.4-0.2,0.6-0.3c0.2-0.2,0.3-0.3,0.4-0.6l1.3,0.2c-0.1,0.4-0.3,0.7-0.6,1c-0.3,0.3-0.6,0.5-1,0.7
		C206.5,85.5,206,85.6,205.5,85.6z"/>
</g>
<g>
	<path d="M300.7,62.1v-9.5h3.4c0.7,0,1.3,0.1,1.8,0.4c0.5,0.3,0.8,0.6,1.1,1.1c0.2,0.5,0.4,1,0.4,1.6c0,0.6-0.1,1.1-0.4,1.6
		c-0.2,0.5-0.6,0.8-1.1,1.1c-0.5,0.3-1.1,0.4-1.8,0.4h-2.3v-1.2h2.2c0.5,0,0.8-0.1,1.1-0.2c0.3-0.2,0.5-0.4,0.6-0.7
		c0.1-0.3,0.2-0.6,0.2-1c0-0.4-0.1-0.7-0.2-1s-0.3-0.5-0.6-0.7c-0.3-0.2-0.7-0.2-1.1-0.2h-1.8v8.2H300.7z"/>
	<path d="M308.9,62.1V55h1.3v1.1h0.1c0.1-0.4,0.4-0.7,0.7-0.9c0.3-0.2,0.7-0.3,1.1-0.3c0.1,0,0.2,0,0.3,0c0.1,0,0.2,0,0.3,0v1.3
		c-0.1,0-0.2,0-0.3-0.1s-0.3,0-0.4,0c-0.3,0-0.6,0.1-0.9,0.2c-0.3,0.1-0.5,0.3-0.6,0.6c-0.1,0.2-0.2,0.5-0.2,0.8v4.3H308.9z"/>
	<path d="M316.8,62.2c-0.7,0-1.2-0.2-1.7-0.5s-0.9-0.7-1.2-1.3s-0.4-1.2-0.4-1.9c0-0.7,0.1-1.4,0.4-1.9s0.7-1,1.2-1.3
		s1.1-0.5,1.7-0.5c0.7,0,1.2,0.2,1.7,0.5s0.9,0.7,1.2,1.3s0.4,1.2,0.4,1.9c0,0.7-0.1,1.4-0.4,1.9s-0.7,1-1.2,1.3
		S317.5,62.2,316.8,62.2z M316.8,61.1c0.4,0,0.8-0.1,1.1-0.3c0.3-0.2,0.5-0.5,0.6-0.9c0.1-0.4,0.2-0.8,0.2-1.3
		c0-0.5-0.1-0.9-0.2-1.2c-0.1-0.4-0.3-0.7-0.6-0.9c-0.3-0.2-0.6-0.3-1.1-0.3c-0.4,0-0.8,0.1-1.1,0.3c-0.3,0.2-0.5,0.5-0.6,0.9
		c-0.1,0.4-0.2,0.8-0.2,1.2c0,0.5,0.1,0.9,0.2,1.3c0.1,0.4,0.3,0.7,0.6,0.9C316,60.9,316.4,61.1,316.8,61.1z"/>
	<path d="M327.7,55l-2.6,7.1h-1.5l-2.6-7.1h1.5l1.8,5.5h0.1l1.8-5.5H327.7z"/>
	<path d="M329.7,53.9c-0.2,0-0.4-0.1-0.6-0.2s-0.3-0.4-0.3-0.6c0-0.2,0.1-0.4,0.3-0.6s0.4-0.2,0.6-0.2s0.4,0.1,0.6,0.2
		s0.3,0.4,0.3,0.6c0,0.2-0.1,0.4-0.3,0.6S330,53.9,329.7,53.9z M329,62.1V55h1.4v7.1H329z"/>
	<path d="M334.9,62.2c-0.6,0-1.1-0.1-1.5-0.4c-0.4-0.3-0.8-0.7-1.1-1.3s-0.4-1.2-0.4-2c0-0.8,0.1-1.4,0.4-2c0.3-0.5,0.6-1,1.1-1.3
		c0.4-0.3,1-0.4,1.5-0.4c0.4,0,0.8,0.1,1.1,0.2c0.3,0.1,0.5,0.3,0.6,0.5c0.1,0.2,0.3,0.4,0.3,0.5h0.1v-3.5h1.4v9.5h-1.3V61H337
		c-0.1,0.2-0.2,0.3-0.4,0.5c-0.2,0.2-0.4,0.4-0.6,0.5C335.7,62.1,335.4,62.2,334.9,62.2z M335.2,61c0.4,0,0.7-0.1,1-0.3
		c0.3-0.2,0.5-0.5,0.6-0.9s0.2-0.8,0.2-1.3c0-0.5-0.1-0.9-0.2-1.3c-0.1-0.4-0.3-0.7-0.6-0.9c-0.3-0.2-0.6-0.3-1-0.3
		c-0.4,0-0.8,0.1-1,0.3c-0.3,0.2-0.5,0.5-0.6,0.9s-0.2,0.8-0.2,1.3c0,0.5,0.1,0.9,0.2,1.3s0.4,0.7,0.6,0.9
		C334.5,60.9,334.8,61,335.2,61z"/>
	<path d="M343.5,62.2c-0.7,0-1.3-0.1-1.8-0.5c-0.5-0.3-0.9-0.7-1.2-1.3c-0.3-0.5-0.4-1.2-0.4-1.9c0-0.7,0.1-1.4,0.4-1.9
		c0.3-0.6,0.7-1,1.1-1.3c0.5-0.3,1.1-0.5,1.7-0.5c0.4,0,0.8,0.1,1.2,0.2s0.7,0.3,1,0.6c0.3,0.3,0.5,0.6,0.7,1.1
		c0.2,0.5,0.3,1,0.3,1.6v0.5h-5.6v-1h4.3c0-0.4-0.1-0.7-0.2-1c-0.1-0.3-0.4-0.5-0.6-0.7s-0.6-0.2-0.9-0.2c-0.4,0-0.7,0.1-1,0.3
		c-0.3,0.2-0.5,0.4-0.7,0.7s-0.2,0.6-0.2,1v0.8c0,0.5,0.1,0.9,0.3,1.2c0.2,0.3,0.4,0.6,0.7,0.8c0.3,0.2,0.7,0.3,1.1,0.3
		c0.3,0,0.5,0,0.7-0.1c0.2-0.1,0.4-0.2,0.6-0.3c0.2-0.2,0.3-0.3,0.4-0.6l1.3,0.2c-0.1,0.4-0.3,0.7-0.6,1c-0.3,0.3-0.6,0.5-1,0.7
		C344.4,62.1,344,62.2,343.5,62.2z"/>
	<path d="M312.8,77.7h-3.1v-9.5h3.2c0.9,0,1.7,0.2,2.4,0.6c0.7,0.4,1.2,0.9,1.5,1.6s0.5,1.5,0.5,2.5c0,1-0.2,1.8-0.5,2.5
		c-0.4,0.7-0.9,1.3-1.6,1.6C314.6,77.5,313.8,77.7,312.8,77.7z M311.2,76.4h1.6c0.7,0,1.3-0.1,1.8-0.4c0.5-0.3,0.8-0.7,1.1-1.2
		s0.4-1.2,0.4-1.9c0-0.7-0.1-1.4-0.4-1.9s-0.6-0.9-1.1-1.2c-0.5-0.3-1-0.4-1.7-0.4h-1.6V76.4z"/>
	<path d="M321.1,77.8c-0.4,0-0.9-0.1-1.2-0.3c-0.4-0.2-0.7-0.4-0.9-0.7c-0.2-0.3-0.3-0.7-0.3-1.2c0-0.4,0.1-0.7,0.2-1
		c0.2-0.3,0.4-0.5,0.6-0.6c0.3-0.2,0.6-0.3,0.9-0.3c0.3-0.1,0.7-0.1,1-0.2c0.4,0,0.8-0.1,1-0.1c0.3,0,0.5-0.1,0.6-0.2
		c0.1-0.1,0.2-0.2,0.2-0.4v0c0-0.4-0.1-0.7-0.3-0.9c-0.2-0.2-0.6-0.3-1-0.3c-0.5,0-0.8,0.1-1.1,0.3c-0.3,0.2-0.5,0.4-0.6,0.7
		l-1.3-0.3c0.2-0.4,0.4-0.8,0.7-1c0.3-0.3,0.6-0.5,1-0.6s0.8-0.2,1.2-0.2c0.3,0,0.6,0,0.9,0.1c0.3,0.1,0.6,0.2,0.9,0.4
		c0.3,0.2,0.5,0.4,0.7,0.8c0.2,0.3,0.3,0.7,0.3,1.3v4.7h-1.3v-1h-0.1c-0.1,0.2-0.2,0.4-0.4,0.5c-0.2,0.2-0.4,0.3-0.7,0.4
		C321.8,77.8,321.5,77.8,321.1,77.8z M321.4,76.7c0.4,0,0.7-0.1,1-0.2s0.5-0.3,0.6-0.6c0.1-0.2,0.2-0.5,0.2-0.8v-0.9
		c0,0-0.1,0.1-0.3,0.1c-0.1,0-0.3,0.1-0.5,0.1c-0.2,0-0.4,0.1-0.5,0.1c-0.2,0-0.3,0-0.4,0.1c-0.3,0-0.5,0.1-0.7,0.2
		c-0.2,0.1-0.4,0.2-0.5,0.3c-0.1,0.1-0.2,0.3-0.2,0.6c0,0.3,0.1,0.6,0.4,0.8S321,76.7,321.4,76.7z"/>
	<path d="M329.8,70.6v1.1h-3.9v-1.1H329.8z M326.9,68.9h1.4v6.7c0,0.3,0,0.5,0.1,0.6s0.2,0.2,0.3,0.3c0.1,0,0.3,0.1,0.4,0.1
		c0.1,0,0.2,0,0.3,0c0.1,0,0.1,0,0.2,0l0.2,1.1c-0.1,0-0.2,0.1-0.3,0.1c-0.1,0-0.3,0.1-0.6,0.1c-0.4,0-0.7-0.1-1-0.2
		s-0.6-0.3-0.8-0.6s-0.3-0.6-0.3-1.1V68.9z"/>
	<path d="M334.3,77.8c-0.7,0-1.3-0.1-1.8-0.5c-0.5-0.3-0.9-0.7-1.2-1.3c-0.3-0.5-0.4-1.2-0.4-1.9c0-0.7,0.1-1.4,0.4-1.9
		c0.3-0.6,0.7-1,1.1-1.3c0.5-0.3,1.1-0.5,1.7-0.5c0.4,0,0.8,0.1,1.2,0.2s0.7,0.3,1,0.6c0.3,0.3,0.5,0.6,0.7,1.1
		c0.2,0.5,0.3,1,0.3,1.6v0.5h-5.6v-1h4.3c0-0.4-0.1-0.7-0.2-1c-0.1-0.3-0.4-0.5-0.6-0.7s-0.6-0.2-0.9-0.2c-0.4,0-0.7,0.1-1,0.3
		c-0.3,0.2-0.5,0.4-0.7,0.7s-0.2,0.6-0.2,1v0.8c0,0.5,0.1,0.9,0.3,1.2c0.2,0.3,0.4,0.6,0.7,0.8c0.3,0.2,0.7,0.3,1.1,0.3
		c0.3,0,0.5,0,0.7-0.1c0.2-0.1,0.4-0.2,0.6-0.3c0.2-0.2,0.3-0.3,0.4-0.6l1.3,0.2c-0.1,0.4-0.3,0.7-0.6,1c-0.3,0.3-0.6,0.5-1,0.7
		C335.3,77.7,334.9,77.8,334.3,77.8z"/>
</g>
<g>
	<path d="M432.6,69.9v-9.5h3.4c0.7,0,1.3,0.1,1.8,0.4c0.5,0.3,0.8,0.6,1.1,1.1c0.2,0.5,0.4,1,0.4,1.6c0,0.6-0.1,1.1-0.4,1.6
		c-0.2,0.5-0.6,0.8-1.1,1.1c-0.5,0.3-1.1,0.4-1.8,0.4h-2.3v-1.2h2.2c0.5,0,0.8-0.1,1.1-0.2c0.3-0.2,0.5-0.4,0.6-0.7
		c0.1-0.3,0.2-0.6,0.2-1c0-0.4-0.1-0.7-0.2-1s-0.3-0.5-0.6-0.7c-0.3-0.2-0.7-0.2-1.1-0.2H434v8.2H432.6z"/>
	<path d="M440.8,69.9v-7.1h1.3v1.1h0.1c0.1-0.4,0.4-0.7,0.7-0.9c0.3-0.2,0.7-0.3,1.1-0.3c0.1,0,0.2,0,0.3,0c0.1,0,0.2,0,0.3,0V64
		c-0.1,0-0.2,0-0.3-0.1s-0.3,0-0.4,0c-0.3,0-0.6,0.1-0.9,0.2c-0.3,0.1-0.5,0.3-0.6,0.6c-0.1,0.2-0.2,0.5-0.2,0.8v4.3H440.8z"/>
	<path d="M448.9,70c-0.7,0-1.3-0.1-1.8-0.5c-0.5-0.3-0.9-0.7-1.2-1.3c-0.3-0.5-0.4-1.2-0.4-1.9c0-0.7,0.1-1.4,0.4-1.9
		c0.3-0.6,0.7-1,1.1-1.3c0.5-0.3,1.1-0.5,1.7-0.5c0.4,0,0.8,0.1,1.2,0.2s0.7,0.3,1,0.6c0.3,0.3,0.5,0.6,0.7,1.1
		c0.2,0.5,0.3,1,0.3,1.6v0.5h-5.6v-1h4.3c0-0.4-0.1-0.7-0.2-1c-0.1-0.3-0.4-0.5-0.6-0.7s-0.6-0.2-0.9-0.2c-0.4,0-0.7,0.1-1,0.3
		c-0.3,0.2-0.5,0.4-0.7,0.7s-0.2,0.6-0.2,1v0.8c0,0.5,0.1,0.9,0.3,1.2c0.2,0.3,0.4,0.6,0.7,0.8c0.3,0.2,0.7,0.3,1.1,0.3
		c0.3,0,0.5,0,0.7-0.1c0.2-0.1,0.4-0.2,0.6-0.3c0.2-0.2,0.3-0.3,0.4-0.6l1.3,0.2c-0.1,0.4-0.3,0.7-0.6,1c-0.3,0.3-0.6,0.5-1,0.7
		C449.9,69.9,449.4,70,448.9,70z"/>
	<path d="M459.5,62.8l-2.6,7.1h-1.5l-2.6-7.1h1.5l1.8,5.5h0.1l1.8-5.5H459.5z"/>
	<path d="M461.5,61.7c-0.2,0-0.4-0.1-0.6-0.2s-0.3-0.4-0.3-0.6c0-0.2,0.1-0.4,0.3-0.6s0.4-0.2,0.6-0.2s0.4,0.1,0.6,0.2
		s0.3,0.4,0.3,0.6c0,0.2-0.1,0.4-0.3,0.6S461.8,61.7,461.5,61.7z M460.8,69.9v-7.1h1.4v7.1H460.8z"/>
	<path d="M467.1,70c-0.7,0-1.3-0.1-1.8-0.5c-0.5-0.3-0.9-0.7-1.2-1.3c-0.3-0.5-0.4-1.2-0.4-1.9c0-0.7,0.1-1.4,0.4-1.9
		c0.3-0.6,0.7-1,1.1-1.3c0.5-0.3,1.1-0.5,1.7-0.5c0.4,0,0.8,0.1,1.2,0.2s0.7,0.3,1,0.6c0.3,0.3,0.5,0.6,0.7,1.1
		c0.2,0.5,0.3,1,0.3,1.6v0.5h-5.6v-1h4.3c0-0.4-0.1-0.7-0.2-1c-0.1-0.3-0.4-0.5-0.6-0.7s-0.6-0.2-0.9-0.2c-0.4,0-0.7,0.1-1,0.3
		c-0.3,0.2-0.5,0.4-0.7,0.7s-0.2,0.6-0.2,1v0.8c0,0.5,0.1,0.9,0.3,1.2c0.2,0.3,0.4,0.6,0.7,0.8c0.3,0.2,0.7,0.3,1.1,0.3
		c0.3,0,0.5,0,0.7-0.1c0.2-0.1,0.4-0.2,0.6-0.3c0.2-0.2,0.3-0.3,0.4-0.6l1.3,0.2c-0.1,0.4-0.3,0.7-0.6,1c-0.3,0.3-0.6,0.5-1,0.7
		C468.1,69.9,467.6,70,467.1,70z"/>
	<path d="M473.2,69.9l-2.1-7.1h1.4L474,68h0.1l1.4-5.2h1.4l1.4,5.2h0.1l1.4-5.2h1.4l-2.1,7.1h-1.4l-1.4-5.1h-0.1l-1.4,5.1H473.2z"/>
</g>
</svg>
