<?xml version="1.0" encoding="utf-8"?>
<!-- Generator: Adobe Illustrator 26.0.1, SVG Export Plug-In . SVG Version: 6.00 Build 0)  -->
<svg version="1.1" id="Layer_1" xmlns="http://www.w3.org/2000/svg" xmlns:xlink="http://www.w3.org/1999/xlink" x="0px" y="0px"
	 viewBox="0 0 116.7 122.61" style="enable-background:new 0 0 116.7 122.61;" xml:space="preserve">
<style type="text/css">
	.st0{fill:#038443;}
	.st1{fill:#FFFFFF;}
	.st2{fill-rule:evenodd;clip-rule:evenodd;fill:#FFFFFF;}
	.st3{fill-rule:evenodd;clip-rule:evenodd;fill:#DDDEE1;}
</style>
<g>
	<path class="st0" d="M107.7,122.61H9c-4.97,0-9-4.03-9-9V9c0-4.97,4.03-9,9-9h98.7c4.97,0,9,4.03,9,9v104.61
		C116.7,118.58,112.67,122.61,107.7,122.61z"/>
	<g>
		<g>
			<path class="st1" d="M39.04,36.65v49.31c0,1.57,1.27,2.84,2.84,2.84h32.92c1.57,0,2.84-1.27,2.84-2.84V36.65
				c0-1.57-1.27-2.84-2.84-2.84H41.89C40.32,33.8,39.04,35.08,39.04,36.65z M47.82,83.94h-2.95c-0.48,0-0.88-0.39-0.88-0.88v-2.95
				c0-0.48,0.39-0.88,0.88-0.88h2.95c0.48,0,0.88,0.39,0.88,0.88v2.95C48.7,83.55,48.3,83.94,47.82,83.94z M47.82,76.38h-2.95
				c-0.48,0-0.88-0.39-0.88-0.88v-2.95c0-0.48,0.39-0.88,0.88-0.88h2.95c0.48,0,0.88,0.39,0.88,0.88v2.95
				C48.7,75.99,48.3,76.38,47.82,76.38z M47.82,68.82h-2.95c-0.48,0-0.88-0.39-0.88-0.88V65c0-0.48,0.39-0.88,0.88-0.88h2.95
				c0.48,0,0.88,0.39,0.88,0.88v2.95C48.7,68.43,48.3,68.82,47.82,68.82z M47.82,61.27h-2.95c-0.48,0-0.88-0.39-0.88-0.88v-2.95
				c0-0.48,0.39-0.88,0.88-0.88h2.95c0.48,0,0.88,0.39,0.88,0.88v2.95C48.7,60.88,48.3,61.27,47.82,61.27z M55.12,83.94h-2.95
				c-0.48,0-0.88-0.39-0.88-0.88v-2.95c0-0.48,0.39-0.88,0.88-0.88h2.95c0.48,0,0.88,0.39,0.88,0.88v2.95
				C56,83.55,55.61,83.94,55.12,83.94z M55.12,76.38h-2.95c-0.48,0-0.88-0.39-0.88-0.88v-2.95c0-0.48,0.39-0.88,0.88-0.88h2.95
				c0.48,0,0.88,0.39,0.88,0.88v2.95C56,75.99,55.61,76.38,55.12,76.38z M55.12,68.82h-2.95c-0.48,0-0.88-0.39-0.88-0.88V65
				c0-0.48,0.39-0.88,0.88-0.88h2.95c0.48,0,0.88,0.39,0.88,0.88v2.95C56,68.43,55.61,68.82,55.12,68.82z M55.12,61.27h-2.95
				c-0.48,0-0.88-0.39-0.88-0.88v-2.95c0-0.48,0.39-0.88,0.88-0.88h2.95c0.48,0,0.88,0.39,0.88,0.88v2.95
				C56,60.88,55.61,61.27,55.12,61.27z M62.42,83.94h-2.95c-0.48,0-0.88-0.39-0.88-0.88v-2.95c0-0.48,0.39-0.88,0.88-0.88h2.95
				c0.48,0,0.88,0.39,0.88,0.88v2.95C63.3,83.55,62.91,83.94,62.42,83.94z M62.42,76.38h-2.95c-0.48,0-0.88-0.39-0.88-0.88v-2.95
				c0-0.48,0.39-0.88,0.88-0.88h2.95c0.48,0,0.88,0.39,0.88,0.88v2.95C63.3,75.99,62.91,76.38,62.42,76.38z M62.42,68.82h-2.95
				c-0.48,0-0.88-0.39-0.88-0.88V65c0-0.48,0.39-0.88,0.88-0.88h2.95c0.48,0,0.88,0.39,0.88,0.88v2.95
				C63.3,68.43,62.91,68.82,62.42,68.82z M62.42,61.27h-2.95c-0.48,0-0.88-0.39-0.88-0.88v-2.95c0-0.48,0.39-0.88,0.88-0.88h2.95
				c0.48,0,0.88,0.39,0.88,0.88v2.95C63.3,60.88,62.91,61.27,62.42,61.27z M71.82,83.94h-2.95c-0.48,0-0.88-0.39-0.88-0.88v-10.5
				c0-0.48,0.39-0.88,0.88-0.88h2.95c0.48,0,0.88,0.39,0.88,0.88v10.5C72.7,83.55,72.31,83.94,71.82,83.94z M71.82,68.82h-2.95
				c-0.48,0-0.88-0.39-0.88-0.88V65c0-0.48,0.39-0.88,0.88-0.88h2.95c0.48,0,0.88,0.39,0.88,0.88v2.95
				C72.7,68.43,72.31,68.82,71.82,68.82z M71.82,61.27h-2.95c-0.48,0-0.88-0.39-0.88-0.88v-2.95c0-0.48,0.39-0.88,0.88-0.88h2.95
				c0.48,0,0.88,0.39,0.88,0.88v2.95C72.7,60.88,72.31,61.27,71.82,61.27z M72.11,48.83H44.59c-0.33,0-0.59-0.27-0.59-0.59v-8.97
				c0-0.33,0.27-0.59,0.59-0.59h27.51c0.33,0,0.59,0.27,0.59,0.59v8.97C72.7,48.57,72.43,48.83,72.11,48.83z"/>
		</g>
		<g>
			<path class="st1" d="M54.58,41.97c0-1.03,0.66-1.56,1.59-1.56h1.45c1.15,0,1.54,0.71,1.54,1.53v3.43c0,1.06-0.6,1.53-1.54,1.53
				h-1.45c-0.93,0-1.59-0.47-1.59-1.53V41.97z M56.35,45.94h1.08c0.47,0,0.71-0.21,0.71-0.69v-3.18c0-0.41-0.17-0.69-0.69-0.69
				h-1.12c-0.57,0-0.72,0.37-0.72,0.69v3.18C55.6,45.81,56,45.94,56.35,45.94z"/>
			<path class="st1" d="M60.21,41.97c0-1.03,0.66-1.56,1.59-1.56h1.45c1.15,0,1.54,0.71,1.54,1.53v3.43c0,1.06-0.6,1.53-1.54,1.53
				H61.8c-0.93,0-1.59-0.47-1.59-1.53V41.97z M61.98,45.94h1.08c0.47,0,0.71-0.21,0.71-0.69v-3.18c0-0.41-0.17-0.69-0.69-0.69h-1.12
				c-0.57,0-0.72,0.37-0.72,0.69v3.18C61.24,45.81,61.63,45.94,61.98,45.94z"/>
			<path class="st1" d="M65.84,41.97c0-1.03,0.66-1.56,1.59-1.56h1.45c1.15,0,1.54,0.71,1.54,1.53v3.43c0,1.06-0.6,1.53-1.54,1.53
				h-1.45c-0.93,0-1.59-0.47-1.59-1.53V41.97z M67.61,45.94h1.08c0.47,0,0.71-0.21,0.71-0.69v-3.18c0-0.41-0.17-0.69-0.69-0.69
				h-1.12c-0.57,0-0.72,0.37-0.72,0.69v3.18C66.87,45.81,67.26,45.94,67.61,45.94z"/>
		</g>
	</g>
</g>
</svg>
