<?xml version="1.0" encoding="utf-8"?>
<!-- Generator: Adobe Illustrator 26.0.1, SVG Export Plug-In . SVG Version: 6.00 Build 0)  -->
<svg version="1.1" id="Layer_1" xmlns="http://www.w3.org/2000/svg" xmlns:xlink="http://www.w3.org/1999/xlink" x="0px" y="0px"
	 viewBox="0 0 116.7 122.61" style="enable-background:new 0 0 116.7 122.61;" xml:space="preserve">
<style type="text/css">
	.st0{fill:#038443;}
	.st1{fill:#FFFFFF;}
	.st2{fill-rule:evenodd;clip-rule:evenodd;fill:#FFFFFF;}
	.st3{fill-rule:evenodd;clip-rule:evenodd;fill:#DDDEE1;}
</style>
<g>
	<path class="st0" d="M107.7,122.61H9c-4.97,0-9-4.03-9-9V9c0-4.97,4.03-9,9-9h98.7c4.97,0,9,4.03,9,9v104.61
		C116.7,118.58,112.67,122.61,107.7,122.61z"/>
	<g>
		<g>
			<path class="st1" d="M65.64,36.42v1.56H53.68c-2.42,0-4.39,1.96-4.39,4.38v13.79h-3.28l-1.1,1.12l-5.26,5.32v-6.43h-2.96
				c-1.44,0-2.61-1.17-2.61-2.61V36.42c0-1.44,1.17-2.61,2.61-2.61h26.34C64.46,33.8,65.64,34.97,65.64,36.42z"/>
			<path class="st1" d="M51.05,42.36v17.12c0,1.44,1.18,2.61,2.62,2.61h17.01l1.1,1.12l5.26,5.32v-6.43h2.96
				c1.44,0,2.61-1.17,2.61-2.61V42.36c0-1.44-1.17-2.61-2.61-2.61H53.68C52.23,39.75,51.05,40.92,51.05,42.36z"/>
		</g>
		<g>
			<path class="st1" d="M42.1,70.83c0,0.16-0.01,0.3-0.03,0.42c-0.02,0.12-0.05,0.21-0.09,0.29c-0.04,0.07-0.09,0.13-0.15,0.16
				s-0.11,0.05-0.17,0.05h-6.04v5.6h5.71c0.06,0,0.12,0.02,0.17,0.04c0.06,0.03,0.1,0.08,0.15,0.15c0.04,0.07,0.07,0.16,0.09,0.27
				c0.02,0.11,0.03,0.26,0.03,0.44c0,0.16-0.01,0.3-0.03,0.41c-0.02,0.11-0.05,0.21-0.09,0.28c-0.04,0.07-0.09,0.13-0.15,0.17
				c-0.06,0.04-0.11,0.06-0.17,0.06h-5.71v6.86c0,0.06-0.02,0.12-0.05,0.17c-0.03,0.06-0.09,0.1-0.18,0.13
				c-0.08,0.03-0.2,0.06-0.33,0.08c-0.14,0.02-0.31,0.03-0.54,0.03c-0.2,0-0.38-0.01-0.52-0.03c-0.14-0.02-0.26-0.05-0.34-0.08
				c-0.08-0.03-0.14-0.07-0.18-0.13c-0.03-0.06-0.05-0.11-0.05-0.17V70.78c0-0.33,0.09-0.56,0.26-0.69c0.17-0.13,0.36-0.2,0.55-0.2
				h7.41c0.06,0,0.12,0.02,0.17,0.05s0.1,0.09,0.15,0.17c0.04,0.08,0.07,0.18,0.09,0.3C42.09,70.53,42.1,70.67,42.1,70.83z"/>
			<path class="st1" d="M56.3,85.6c0.07,0.19,0.1,0.34,0.11,0.45c0,0.11-0.03,0.2-0.09,0.26c-0.07,0.06-0.18,0.1-0.34,0.11
				c-0.16,0.02-0.37,0.03-0.63,0.03s-0.47-0.01-0.63-0.02c-0.16-0.01-0.28-0.03-0.36-0.06c-0.08-0.03-0.14-0.07-0.18-0.12
				c-0.04-0.05-0.07-0.11-0.11-0.19l-1.41-4.01H45.8L44.45,86c-0.03,0.08-0.06,0.14-0.1,0.2s-0.1,0.1-0.18,0.14
				c-0.08,0.04-0.2,0.07-0.34,0.08c-0.15,0.02-0.34,0.03-0.58,0.03c-0.25,0-0.45-0.01-0.6-0.03c-0.16-0.02-0.27-0.06-0.33-0.12
				c-0.06-0.06-0.09-0.15-0.09-0.26c0-0.11,0.04-0.27,0.11-0.45l5.53-15.31c0.03-0.09,0.08-0.17,0.13-0.23
				c0.06-0.06,0.14-0.11,0.24-0.14c0.11-0.03,0.24-0.06,0.41-0.07c0.17-0.01,0.38-0.02,0.63-0.02c0.27,0,0.5,0.01,0.67,0.02
				c0.18,0.01,0.32,0.04,0.43,0.07c0.11,0.03,0.2,0.08,0.25,0.15c0.06,0.06,0.11,0.14,0.14,0.24L56.3,85.6z M49.2,72.08h-0.01
				l-2.84,8.21h5.73L49.2,72.08z"/>
			<path class="st1" d="M74.59,87.82c0,0.2-0.01,0.36-0.03,0.49c-0.02,0.13-0.05,0.23-0.1,0.31c-0.04,0.07-0.09,0.12-0.14,0.15
				c-0.05,0.03-0.1,0.04-0.15,0.04c-0.17,0-0.44-0.07-0.82-0.21c-0.38-0.14-0.81-0.34-1.31-0.61c-0.49-0.27-1.02-0.59-1.58-0.97
				c-0.56-0.38-1.1-0.83-1.63-1.34c-0.42,0.25-0.94,0.48-1.58,0.66c-0.64,0.19-1.38,0.28-2.22,0.28c-1.24,0-2.31-0.18-3.22-0.55
				c-0.9-0.37-1.65-0.9-2.24-1.6c-0.59-0.7-1.03-1.58-1.32-2.63c-0.29-1.05-0.43-2.25-0.43-3.61c0-1.31,0.16-2.49,0.47-3.55
				c0.31-1.06,0.79-1.96,1.41-2.7c0.63-0.74,1.41-1.32,2.36-1.72c0.94-0.4,2.04-0.6,3.3-0.6c1.18,0,2.22,0.18,3.11,0.55
				c0.9,0.37,1.65,0.9,2.25,1.6c0.61,0.7,1.06,1.56,1.37,2.59c0.31,1.03,0.46,2.21,0.46,3.54c0,0.69-0.04,1.35-0.12,1.97
				c-0.08,0.63-0.21,1.22-0.38,1.78s-0.39,1.08-0.66,1.55c-0.26,0.48-0.57,0.9-0.93,1.29c0.62,0.51,1.16,0.91,1.63,1.19
				c0.47,0.28,0.85,0.5,1.16,0.64c0.31,0.14,0.54,0.25,0.71,0.31c0.17,0.06,0.3,0.14,0.38,0.22c0.08,0.08,0.14,0.2,0.18,0.34
				C74.57,87.38,74.59,87.58,74.59,87.82z M70.26,78.08c0-0.93-0.08-1.8-0.25-2.6c-0.17-0.8-0.44-1.49-0.83-2.08
				c-0.39-0.59-0.9-1.05-1.55-1.38c-0.65-0.33-1.44-0.5-2.39-0.5c-0.95,0-1.75,0.18-2.39,0.53c-0.65,0.35-1.17,0.83-1.57,1.43
				c-0.4,0.6-0.69,1.29-0.87,2.08c-0.17,0.79-0.26,1.63-0.26,2.51c0,0.97,0.08,1.86,0.24,2.67c0.16,0.81,0.43,1.51,0.81,2.11
				c0.38,0.59,0.89,1.06,1.53,1.38c0.64,0.33,1.45,0.49,2.41,0.49c0.96,0,1.77-0.18,2.42-0.54c0.65-0.36,1.18-0.84,1.58-1.45
				c0.4-0.61,0.68-1.31,0.85-2.11C70.17,79.82,70.26,78.97,70.26,78.08z"/>
			<path class="st1" d="M83.26,82.93c0,0.59-0.11,1.11-0.32,1.57c-0.22,0.46-0.52,0.84-0.92,1.16c-0.4,0.31-0.87,0.55-1.43,0.71
				c-0.55,0.16-1.16,0.24-1.82,0.24c-0.41,0-0.8-0.03-1.16-0.09c-0.37-0.06-0.7-0.14-0.99-0.24c-0.29-0.1-0.54-0.2-0.75-0.31
				c-0.2-0.11-0.35-0.2-0.45-0.29c-0.09-0.08-0.16-0.2-0.2-0.36c-0.04-0.15-0.06-0.36-0.06-0.62c0-0.16,0.01-0.3,0.03-0.41
				c0.02-0.11,0.04-0.2,0.06-0.27c0.03-0.07,0.06-0.12,0.11-0.15c0.05-0.03,0.1-0.04,0.16-0.04c0.09,0,0.23,0.06,0.41,0.17
				c0.18,0.11,0.41,0.24,0.67,0.38c0.27,0.14,0.58,0.26,0.95,0.38c0.37,0.11,0.79,0.17,1.26,0.17c0.36,0,0.68-0.04,0.97-0.11
				c0.29-0.08,0.54-0.19,0.75-0.34s0.38-0.34,0.49-0.57c0.11-0.23,0.17-0.5,0.17-0.81c0-0.32-0.08-0.59-0.25-0.82
				c-0.17-0.22-0.38-0.42-0.66-0.59c-0.27-0.17-0.58-0.32-0.92-0.45c-0.34-0.13-0.69-0.27-1.05-0.41c-0.36-0.14-0.71-0.31-1.06-0.49
				c-0.34-0.18-0.65-0.41-0.92-0.67c-0.27-0.26-0.49-0.58-0.66-0.94c-0.17-0.36-0.25-0.8-0.25-1.31c0-0.45,0.09-0.88,0.26-1.29
				c0.17-0.41,0.43-0.77,0.78-1.08c0.35-0.31,0.78-0.56,1.31-0.75c0.52-0.19,1.13-0.28,1.83-0.28c0.31,0,0.61,0.03,0.92,0.08
				c0.31,0.05,0.58,0.11,0.83,0.19c0.25,0.08,0.46,0.16,0.63,0.25c0.17,0.09,0.31,0.17,0.4,0.24c0.09,0.07,0.15,0.13,0.18,0.18
				c0.03,0.05,0.05,0.11,0.06,0.17c0.01,0.06,0.03,0.14,0.04,0.24c0.01,0.09,0.02,0.21,0.02,0.34c0,0.14-0.01,0.27-0.02,0.38
				c-0.01,0.11-0.03,0.19-0.06,0.26c-0.03,0.07-0.07,0.12-0.11,0.15c-0.04,0.03-0.09,0.04-0.14,0.04c-0.08,0-0.19-0.05-0.33-0.14
				c-0.14-0.09-0.33-0.19-0.56-0.3c-0.23-0.11-0.5-0.21-0.81-0.3c-0.31-0.09-0.66-0.14-1.06-0.14c-0.36,0-0.67,0.04-0.94,0.12
				c-0.27,0.08-0.49,0.2-0.67,0.34c-0.17,0.15-0.31,0.32-0.4,0.53s-0.13,0.42-0.13,0.66c0,0.33,0.08,0.61,0.25,0.83
				c0.17,0.23,0.39,0.42,0.66,0.59c0.27,0.17,0.58,0.32,0.93,0.46c0.35,0.14,0.7,0.28,1.06,0.42c0.36,0.14,0.72,0.31,1.07,0.48
				c0.35,0.18,0.66,0.39,0.94,0.65c0.27,0.25,0.49,0.56,0.66,0.92C83.18,82.02,83.26,82.44,83.26,82.93z"/>
		</g>
	</g>
</g>
</svg>
