<?xml version="1.0" encoding="utf-8"?>
<!-- Generator: Adobe Illustrator 26.0.1, SVG Export Plug-In . SVG Version: 6.00 Build 0)  -->
<svg version="1.1" id="Layer_1" xmlns="http://www.w3.org/2000/svg" xmlns:xlink="http://www.w3.org/1999/xlink" x="0px" y="0px"
	 viewBox="0 0 121.42 121.42" style="enable-background:new 0 0 121.42 121.42;" xml:space="preserve">
<style type="text/css">
	.st0{fill:#038443;}
	.st1{fill:#FFFFFF;}
	.st2{fill-rule:evenodd;clip-rule:evenodd;fill:#FFFFFF;}
	.st3{fill-rule:evenodd;clip-rule:evenodd;fill:#DDDEE1;}
</style>
<g>
	<g>
		<circle class="st0" cx="60.71" cy="60.71" r="60.71"/>
	</g>
	<g>
		<path class="st1" d="M93.97,59.01h-5.09c-0.33,0-0.59,0.26-0.59,0.59v35.51c0,0.33-0.26,0.59-0.59,0.59H69.42
			c-0.33,0-0.59-0.26-0.59-0.59V70.87c0-0.33-0.26-0.59-0.59-0.59H53.19c-0.33,0-0.59,0.26-0.59,0.59v24.25
			c0,0.33-0.26,0.59-0.59,0.59H33.72c-0.33,0-0.59-0.26-0.59-0.59V59.6c0-0.33-0.26-0.59-0.59-0.59h-5.09
			c-0.7,0-1.04-0.85-0.53-1.34l16.19-15.46l17.08-16.3c0.29-0.28,0.74-0.28,1.03,0l17.08,16.3L94.5,57.68
			C95.01,58.16,94.67,59.01,93.97,59.01z"/>
	</g>
</g>
</svg>
