<?xml version="1.0" encoding="utf-8"?>
<!-- Generator: Adobe Illustrator 26.0.1, SVG Export Plug-In . SVG Version: 6.00 Build 0)  -->
<svg version="1.1" id="Layer_1" xmlns="http://www.w3.org/2000/svg" xmlns:xlink="http://www.w3.org/1999/xlink" x="0px" y="0px"
	 viewBox="0 0 116.7 122.61" style="enable-background:new 0 0 116.7 122.61;" xml:space="preserve">
<style type="text/css">
	.st0{fill:#038443;}
	.st1{fill:#FFFFFF;}
	.st2{fill-rule:evenodd;clip-rule:evenodd;fill:#FFFFFF;}
	.st3{fill-rule:evenodd;clip-rule:evenodd;fill:#DDDEE1;}
</style>
<g>
	<path class="st0" d="M107.7,122.61H9c-4.97,0-9-4.03-9-9V9c0-4.97,4.03-9,9-9h98.7c4.97,0,9,4.03,9,9v104.61
		C116.7,118.58,112.67,122.61,107.7,122.61z"/>
	<g>
		<path class="st2" d="M81.36,33.8l-25.44,0.04l-25.42,0.03l0.03,54.93l50.85-0.07L81.36,33.8z M53.49,85.16H32.89v-2.14h20.61
			V85.16z M53.49,78.64H32.89v-2.13h20.61V78.64z M53.49,72.13H32.89V70h20.61V72.13z M53.49,65.61H32.89v-2.13h20.61V65.61z
			 M53.49,59.09H32.89v-2.13h20.61V59.09z M53.49,52.58H32.89v-2.13h20.61V52.58z M53.49,46.06H32.89v-2.13h20.61V46.06z
			 M53.49,39.55H32.89v-2.13h20.61V39.55z M58.41,37.42H78.9v15.95H58.41V37.42z M58.41,56.96H78.9v2.13H58.41V56.96z M58.41,63.47
			H78.9v2.14H58.41V63.47z M58.41,70H78.9v2.13H58.41V70z M58.41,76.51H78.9v2.13H58.41V76.51z M58.41,83.02H78.9v2.14H58.41V83.02z
			"/>
		<polygon class="st2" points="86.19,58.99 81.41,88.77 81.39,58.99 		"/>
		<path class="st3" d="M81.36,33.8l-25.44,0.04l0.02,54.92l25.45-0.03L81.36,33.8z M78.9,85.16H58.41v-2.14H78.9V85.16z M78.9,78.64
			H58.41v-2.13H78.9V78.64z M78.9,72.13H58.41V70H78.9V72.13z M78.9,65.62H58.41v-2.14H78.9V65.62z M78.9,59.09H58.41v-2.13H78.9
			V59.09z M78.9,53.37H58.41V37.42H78.9V53.37z"/>
	</g>
</g>
</svg>
