<?xml version="1.0" encoding="utf-8"?>
<!-- Generator: Adobe Illustrator 26.0.1, SVG Export Plug-In . SVG Version: 6.00 Build 0)  -->
<svg version="1.1" id="Layer_1" xmlns="http://www.w3.org/2000/svg" xmlns:xlink="http://www.w3.org/1999/xlink" x="0px" y="0px"
	 viewBox="0 0 141.46 133.38" style="enable-background:new 0 0 141.46 133.38;" xml:space="preserve">
<style type="text/css">
	.st0{fill:#038443;}
	.st1{fill:#F59121;}
	.st2{fill:#FFFFFF;}
</style>
<g>
	<g>
		<path class="st0" d="M93.52,37.93H61.31C63.24,20.03,67.09,6.78,71.4,0.28C73.38,0.1,75.39,0,77.41,0c2.02,0,4.03,0.1,6.01,0.28
			C87.73,6.78,91.57,20.03,93.52,37.93z"/>
		<path class="st0" d="M59.15,89.63H39.21c-3.38-3.52-6.59-7.22-9.63-11.08c-0.85-1.08-1.26-2.31-1.24-3.77
			c0.03-2.15,0.91-3.77,2.81-5.28c4.5-3.51,5.8-9.08,3.23-13.86c-2.84-5.25-5.7-10.48-8.55-15.58H59
			c-0.77,7.75-1.18,15.9-1.18,23.98C57.82,72.69,58.28,81.42,59.15,89.63z"/>
		<path class="st0" d="M68.69,0.59c-4.5,7.86-7.76,21.66-9.47,37.34h-34.9c-1.13-1.26-2.51-2.21-4.05-2.82
			C29.58,16.74,47.47,3.47,68.69,0.59z"/>
		<path class="st0" d="M61.22,104.03c-0.95,0.57-2.02,0.86-3.1,0.86c-1.36,0-2.67-0.47-3.77-1.36c-4.55-3.62-8.92-7.56-13.08-11.77
			h18.11C59.88,96.03,60.49,100.15,61.22,104.03z"/>
		<path class="st0" d="M93.33,91.76c-0.6,5.14-1.36,9.88-2.24,14.16c-2.7-1.53-5.41-3.05-8.13-4.57l-3.52-1.97
			c-2.46-1.37-4.71-2.05-6.9-2.05c-3.52,0-6.62,1.68-9.46,5.12c-0.01,0.01-0.01,0.01-0.03,0.03c-0.61-3.33-1.14-6.91-1.58-10.71
			H93.33z"/>
		<path class="st0" d="M94.86,64.05c0,9.28-0.47,17.85-1.3,25.58H61.25c-0.83-7.73-1.3-16.3-1.3-25.58c0-8.64,0.4-16.68,1.12-23.98
			h32.65C94.46,47.37,94.86,55.41,94.86,64.05z"/>
		<path class="st0" d="M95.6,37.93C93.89,22.25,90.64,8.45,86.12,0.6c22.29,3.02,40.94,17.52,49.79,37.33H95.6z"/>
		<path class="st0" d="M135.16,91.76c-7.78,16.21-22.19,28.63-39.72,33.75c0.53-0.82,1.01-1.67,1.45-2.56
			c3.05-6.2,1.55-12.17-3.9-15.89c0.99-4.74,1.81-9.89,2.44-15.3H135.16z"/>
		<path class="st0" d="M141.46,64.05c0,9.1-1.89,17.73-5.31,25.58H95.67c0.87-8.21,1.32-16.94,1.32-25.58
			c0-8.08-0.4-16.24-1.18-23.98h41.01C139.81,47.47,141.46,55.57,141.46,64.05z"/>
	</g>
	<path class="st1" d="M77.03,133.04c-5.06,0.92-10.4,0.04-15.31-3.03C37.65,115,18.21,95.4,3.36,71.23
		c-7.17-11.67-2.42-26.61,10.23-31.95c3.17-1.34,6.69-0.2,8.37,2.82c2.9,5.19,5.75,10.4,8.57,15.63c1.58,2.93,0.77,6.13-2.06,8.34
		c-2.83,2.21-4.43,5.03-4.48,8.65c-0.03,2.42,0.67,4.63,2.18,6.53c7.52,9.52,15.99,18.12,25.47,25.69
		c4.61,3.68,11.07,2.84,14.84-1.72c3.24-3.92,6.42-4.52,10.85-2.04c4.13,2.32,8.27,4.61,12.38,6.96c4.32,2.47,5.49,6.39,3.27,10.87
		C89.92,127.17,84.27,131.56,77.03,133.04z"/>
</g>
</svg>
