<?xml version="1.0" encoding="utf-8"?>
<!-- Generator: Adobe Illustrator 26.0.1, SVG Export Plug-In . SVG Version: 6.00 Build 0)  -->
<svg version="1.1" id="Layer_1" xmlns="http://www.w3.org/2000/svg" xmlns:xlink="http://www.w3.org/1999/xlink" x="0px" y="0px"
	 viewBox="0 0 116.7 122.61" style="enable-background:new 0 0 116.7 122.61;" xml:space="preserve">
<style type="text/css">
	.st0{fill:#038443;}
	.st1{fill:#FFFFFF;}
	.st2{fill-rule:evenodd;clip-rule:evenodd;fill:#FFFFFF;}
	.st3{fill-rule:evenodd;clip-rule:evenodd;fill:#DDDEE1;}
</style>
<g>
	<path class="st0" d="M107.7,122.61H9c-4.97,0-9-4.03-9-9V9c0-4.97,4.03-9,9-9h98.7c4.97,0,9,4.03,9,9v104.61
		C116.7,118.58,112.67,122.61,107.7,122.61z"/>
	<g>
		<g>
			<path class="st1" d="M45.9,56.97l-8.91-10.44c0.33-0.18,0.62-0.34,0.84-0.49c0.89-0.49,2-0.3,2.65,0.47l6.04,6.98
				C47.63,54.66,46.88,55.9,45.9,56.97z"/>
			<path class="st1" d="M73.25,81.71l-10.89-8.76c1.06-1.08,2.32-1.98,3.59-0.9l7.24,5.72c0.8,0.62,1.04,1.72,0.59,2.63
				C73.62,80.86,73.44,81.3,73.25,81.71z"/>
			<path class="st1" d="M32.36,49.76c0.51-1.1,2.35-2.06,3.86-2.83l9.09,10.65c-0.41,0.41-0.8,0.77-1.07,1.09
				c-1.49,1.98,2.61,6.34,6.21,10.15c3.99,3.44,8.46,7.31,10.41,5.75c0.27-0.26,0.58-0.62,0.92-1l11.09,8.91
				C62.76,101.62,22.61,63.4,32.36,49.76z"/>
		</g>
		<g>
			<path class="st1" d="M53.27,53.77v3.81c5.15,0.41,9.34,4.52,9.85,9.66h3.82C66.42,60,60.52,54.19,53.27,53.77z"/>
			<path class="st1" d="M66.94,67.24h-3.82c-0.51-5.14-4.7-9.25-9.85-9.66v-3.81C60.52,54.19,66.42,60,66.94,67.24z"/>
			<path class="st1" d="M53.27,44.32v3.8c10.35,0.44,18.78,8.77,19.32,19.12h3.8C75.86,54.79,65.73,44.75,53.27,44.32z"/>
			<path class="st1" d="M76.4,67.24h-3.8c-0.54-10.35-8.97-18.68-19.32-19.12v-3.8C65.73,44.75,75.86,54.79,76.4,67.24z"/>
			<path class="st1" d="M53.27,34.87v3.8c15.57,0.44,28.23,13.01,28.77,28.57h3.8C85.3,49.59,70.93,35.31,53.27,34.87z"/>
			<path class="st1" d="M85.85,67.24h-3.8C81.5,51.68,68.84,39.11,53.27,38.67v-3.8C70.93,35.31,85.3,49.59,85.85,67.24z"/>
		</g>
	</g>
</g>
</svg>
