<?xml version="1.0" encoding="utf-8"?>
<!-- Generator: Adobe Illustrator 26.0.1, SVG Export Plug-In . SVG Version: 6.00 Build 0)  -->
<svg version="1.1" id="Layer_1" xmlns="http://www.w3.org/2000/svg" xmlns:xlink="http://www.w3.org/1999/xlink" x="0px" y="0px"
	 viewBox="0 0 200 214.11" style="enable-background:new 0 0 200 214.11;" xml:space="preserve">
<style type="text/css">
	.st0{fill:#FFFFFF;}
	.st1{fill:url(#SVGID_1_);}
</style>
<g>
	<g>
		<linearGradient id="SVGID_1_" gradientUnits="userSpaceOnUse" x1="2.9988" y1="107.0533" x2="197.0012" y2="107.0533">
			<stop  offset="0" style="stop-color:#075C2F"/>
			<stop  offset="0.043" style="stop-color:#065D30"/>
			<stop  offset="0.1643" style="stop-color:#086333"/>
			<stop  offset="0.3741" style="stop-color:#0A753C"/>
			<stop  offset="0.5176" style="stop-color:#068544"/>
			<stop  offset="1" style="stop-color:#17AD54"/>
		</linearGradient>
		<path class="st1" d="M194.2,193.77l-43.79-49.91c-2.27-2.3-5.03-3.57-7.75-3.57l-1.48,0.03l-12.25-13.73l1.74-1.99
			c24.43-27.94,24.35-69.7-0.2-97.14C116.64,11.92,96.71,3,75.8,3C57.88,3,40.71,9.57,27.46,21.49C12.85,34.5,4.2,52.47,3.11,72.08
			C2.03,91.5,8.56,110.12,21.5,124.51c13.76,15.57,33.6,24.5,54.42,24.5c15.04,0,29.48-4.55,41.75-13.17l2.14-1.51l12.79,13.88
			l-0.33,1.51c-0.58,2.73,0.23,5.61,2.22,7.89l44.22,50.04c1.96,2.19,4.85,3.45,7.93,3.45c2.54,0,4.98-0.85,6.9-2.39
			c2.06-1.98,3.28-4.61,3.44-7.41C197.14,198.5,196.17,195.85,194.2,193.77z M29.06,117.53C6.11,91.73,8.63,52,34.43,29.06
			c25.8-22.95,65.53-20.43,88.48,5.37c22.94,25.8,20.42,65.53-5.38,88.48C91.73,145.85,52,143.33,29.06,117.53z"/>
	</g>
</g>
</svg>
