<?xml version="1.0" encoding="utf-8"?>
<!-- Generator: Adobe Illustrator 26.0.1, SVG Export Plug-In . SVG Version: 6.00 Build 0)  -->
<svg version="1.1" id="Layer_1" xmlns="http://www.w3.org/2000/svg" xmlns:xlink="http://www.w3.org/1999/xlink" x="0px" y="0px"
	 viewBox="0 0 653.3 130" style="enable-background:new 0 0 653.3 130;" xml:space="preserve">
<style type="text/css">
	.st0{fill:#EC7E30;}
	.st1{fill:#FFFFFF;}
	.st2{fill:#A5A4A4;}
	.st3{fill:#FDC015;}
	.st4{fill:#4A72B8;}
	.st5{fill:#70AD45;}
</style>
<circle class="st0" cx="588.3" cy="65" r="65"/>
<circle class="st1" cx="588.3" cy="65" r="59.9"/>
<path class="st2" d="M455.7,2.3c39.2-0.3,61.2,36.2,83.9,62.2c1.5,1.6-22.6,25.8-25.2,28.8c-15.6,17.7-34.7,34.8-59.9,34.3
	c-22.8-0.4-44.1-13.6-54.7-33.7c-4.7-9-7.2-19.1-7.2-29.4C392.6,27.9,423.3,2.6,455.7,2.3z"/>
<circle class="st1" cx="454.8" cy="65" r="57"/>
<path class="st3" d="M324.9,2.3c39.2-0.3,61.2,36.2,83.9,62.2c1.5,1.6-22.6,25.8-25.2,28.8c-15.6,17.7-34.7,34.8-59.9,34.3
	c-22.8-0.4-44.1-13.6-54.7-33.7c-4.7-9-7.2-19.1-7.2-29.4C261.8,27.9,292.5,2.6,324.9,2.3z"/>
<circle class="st1" cx="324" cy="65" r="57"/>
<path class="st4" d="M194.1,2.3c39.2-0.3,61.2,36.2,83.9,62.2c1.5,1.6-22.6,25.8-25.2,28.8c-15.6,17.7-34.7,34.8-59.9,34.3
	c-22.8-0.4-44.1-13.6-54.7-33.7c-4.7-9-7.2-19.1-7.2-29.4C131,27.9,161.6,2.6,194.1,2.3z"/>
<circle class="st1" cx="193.2" cy="65" r="57"/>
<path class="st5" d="M63.2,2.3c39.2-0.3,61.2,36.2,83.9,62.2c1.5,1.6-22.6,25.8-25.2,28.8c-15.6,17.7-34.7,34.8-59.9,34.3
	c-22.8-0.4-44.1-13.6-54.7-33.7C2.5,85,0,74.8,0,64.6C0.1,27.9,30.8,2.6,63.2,2.3z"/>
<circle class="st1" cx="62.3" cy="65" r="57"/>
<g>
	<path d="M49.7,56.1c-0.3-0.2-0.6-0.4-0.9-0.5c-0.3-0.1-0.6-0.2-0.9-0.3L47,55.1c-0.2,0-0.4-0.1-0.6-0.2c-0.2-0.1-0.4-0.2-0.6-0.3
		c-0.2-0.1-0.3-0.2-0.4-0.4c-0.1-0.2-0.2-0.4-0.2-0.6c0-0.3,0.1-0.5,0.2-0.7c0.2-0.2,0.4-0.4,0.7-0.5s0.6-0.2,1-0.2
		c0.5,0,1,0.1,1.3,0.4s0.6,0.6,0.6,1h1.4c0-0.5-0.2-1-0.4-1.4c-0.3-0.4-0.7-0.7-1.2-0.9S47.9,51,47.2,51c-0.6,0-1.2,0.1-1.7,0.3
		c-0.5,0.2-0.9,0.5-1.2,0.9s-0.4,0.9-0.4,1.4c0,0.7,0.2,1.2,0.7,1.6c0.4,0.4,1,0.7,1.8,0.9l1.1,0.3c0.3,0.1,0.6,0.2,0.9,0.3
		c0.3,0.1,0.5,0.3,0.6,0.4c0.2,0.2,0.2,0.4,0.2,0.7c0,0.3-0.1,0.6-0.3,0.8c-0.2,0.2-0.4,0.4-0.7,0.5s-0.7,0.2-1.1,0.2
		c-0.4,0-0.7-0.1-1-0.2c-0.3-0.1-0.6-0.3-0.8-0.5c-0.2-0.2-0.3-0.5-0.3-0.9h-1.4c0,0.6,0.2,1.1,0.5,1.5c0.3,0.4,0.7,0.7,1.2,1
		s1.1,0.3,1.8,0.3c0.7,0,1.4-0.1,1.9-0.4c0.5-0.2,0.9-0.6,1.2-1s0.4-0.9,0.4-1.4c0-0.4-0.1-0.8-0.3-1.1C50.2,56.6,50,56.3,49.7,56.1
		z"/>
	<path d="M53.5,60.3c0.5,0.3,1.1,0.5,1.8,0.5c0.5,0,1-0.1,1.4-0.2c0.4-0.2,0.7-0.4,1-0.7c0.3-0.3,0.5-0.6,0.6-1l-1.3-0.2
		c-0.1,0.2-0.2,0.4-0.4,0.6c-0.2,0.2-0.3,0.3-0.6,0.3c-0.2,0.1-0.5,0.1-0.7,0.1c-0.4,0-0.8-0.1-1.1-0.3c-0.3-0.2-0.5-0.4-0.7-0.8
		c-0.2-0.3-0.2-0.7-0.2-1.1h5V57c0-0.6-0.1-1.2-0.3-1.6c-0.2-0.5-0.4-0.8-0.7-1.1c-0.3-0.3-0.6-0.5-1-0.6s-0.8-0.2-1.2-0.2
		c-0.7,0-1.2,0.2-1.7,0.5c-0.5,0.3-0.9,0.7-1.1,1.3c-0.3,0.6-0.4,1.2-0.4,1.9c0,0.7,0.1,1.4,0.4,1.9C52.6,59.6,53,60,53.5,60.3z
		 M53.5,55.6c0.2-0.3,0.4-0.5,0.7-0.7c0.3-0.2,0.6-0.3,1-0.3c0.4,0,0.7,0.1,0.9,0.2s0.5,0.4,0.6,0.7c0.1,0.3,0.2,0.6,0.2,1h-3.7
		C53.3,56.1,53.4,55.8,53.5,55.6z"/>
	<rect x="59.9" y="51.1" width="1.4" height="9.5"/>
	<path d="M64.4,60.3c0.5,0.3,1.1,0.5,1.8,0.5c0.5,0,1-0.1,1.4-0.2c0.4-0.2,0.7-0.4,1-0.7c0.3-0.3,0.5-0.6,0.6-1l-1.3-0.2
		c-0.1,0.2-0.2,0.4-0.4,0.6c-0.2,0.2-0.3,0.3-0.6,0.3c-0.2,0.1-0.5,0.1-0.7,0.1c-0.4,0-0.8-0.1-1.1-0.3c-0.3-0.2-0.5-0.4-0.7-0.8
		c-0.2-0.3-0.2-0.7-0.2-1.1h5V57c0-0.6-0.1-1.2-0.3-1.6c-0.2-0.5-0.4-0.8-0.7-1.1c-0.3-0.3-0.6-0.5-1-0.6s-0.8-0.2-1.2-0.2
		c-0.7,0-1.2,0.2-1.7,0.5c-0.5,0.3-0.9,0.7-1.1,1.3c-0.3,0.6-0.4,1.2-0.4,1.9c0,0.7,0.1,1.4,0.4,1.9C63.5,59.6,63.9,60,64.4,60.3z
		 M64.4,55.6c0.2-0.3,0.4-0.5,0.7-0.7c0.3-0.2,0.6-0.3,1-0.3c0.4,0,0.7,0.1,0.9,0.2s0.5,0.4,0.6,0.7c0.1,0.3,0.2,0.6,0.2,1h-3.7
		C64.2,56.1,64.3,55.8,64.4,55.6z"/>
	<path d="M73.7,60.7c0.6,0,1-0.1,1.5-0.3c0.4-0.2,0.8-0.5,1-0.8c0.2-0.4,0.4-0.8,0.4-1.2h-1.3c-0.1,0.3-0.2,0.5-0.3,0.7
		c-0.1,0.2-0.3,0.3-0.5,0.4c-0.2,0.1-0.5,0.1-0.7,0.1c-0.4,0-0.7-0.1-1-0.3c-0.3-0.2-0.5-0.5-0.7-0.9c-0.2-0.4-0.2-0.8-0.2-1.3
		c0-0.5,0.1-0.9,0.2-1.3c0.2-0.4,0.4-0.7,0.7-0.9c0.3-0.2,0.6-0.3,1-0.3c0.4,0,0.8,0.1,1.1,0.4c0.3,0.2,0.4,0.5,0.5,0.9h1.3
		c0-0.5-0.2-0.9-0.5-1.3s-0.6-0.6-1-0.8c-0.4-0.2-0.9-0.3-1.4-0.3c-0.7,0-1.2,0.2-1.7,0.5c-0.5,0.3-0.9,0.7-1.1,1.3
		c-0.3,0.6-0.4,1.2-0.4,1.9c0,0.7,0.1,1.3,0.4,1.9c0.3,0.6,0.6,1,1.1,1.3C72.5,60.6,73,60.7,73.7,60.7z"/>
	<path d="M81.1,59.4c-0.1,0-0.2,0-0.3,0c-0.2,0-0.3,0-0.4-0.1c-0.1,0-0.2-0.1-0.3-0.3S80,58.8,80,58.5v-3.9h1.5v-1.1H80v-1.7h-1.4
		v1.7h-1v1.1h1v4.2c0,0.4,0.1,0.8,0.3,1.1s0.4,0.5,0.8,0.6s0.7,0.2,1,0.2c0.2,0,0.4,0,0.6-0.1c0.1,0,0.3-0.1,0.3-0.1l-0.2-1.1
		C81.3,59.4,81.2,59.4,81.1,59.4z"/>
	<path d="M21.7,66.7l-3.4,9.5h1.5l0.9-2.5h3.7l0.9,2.5h1.5l-3.4-9.5H21.7z M21.1,72.5l1.4-4h0.1l1.4,4H21.1z"/>
	<path d="M32.5,73.2c0,0.4-0.1,0.7-0.3,1c-0.2,0.3-0.4,0.5-0.6,0.6C31.4,75,31.1,75,30.8,75c-0.4,0-0.8-0.1-1-0.4
		c-0.3-0.3-0.4-0.7-0.4-1.2v-4.3H28v4.5c0,0.6,0.1,1.1,0.3,1.5c0.2,0.4,0.5,0.7,0.8,0.9s0.8,0.3,1.2,0.3c0.5,0,1-0.1,1.3-0.4
		c0.4-0.3,0.6-0.6,0.8-0.9h0.1v1.2h1.4v-7.1h-1.4V73.2z"/>
	<path d="M38.7,75c-0.1,0-0.2,0-0.3,0c-0.2,0-0.3,0-0.4-0.1c-0.1,0-0.2-0.1-0.3-0.3s-0.1-0.3-0.1-0.6v-3.9h1.5v-1.1h-1.5v-1.7h-1.4
		v1.7h-1v1.1h1v4.2c0,0.4,0.1,0.8,0.3,1.1s0.4,0.5,0.8,0.6s0.7,0.2,1,0.2c0.2,0,0.4,0,0.6-0.1c0.1,0,0.3-0.1,0.3-0.1L38.9,75
		C38.9,75,38.8,75,38.7,75z"/>
	<path d="M45.3,69.5c-0.5-0.3-1.1-0.5-1.7-0.5c-0.7,0-1.2,0.2-1.7,0.5s-0.9,0.7-1.2,1.3s-0.4,1.2-0.4,1.9c0,0.7,0.1,1.4,0.4,1.9
		s0.7,1,1.2,1.3s1.1,0.5,1.7,0.5c0.7,0,1.2-0.2,1.7-0.5s0.9-0.7,1.2-1.3s0.4-1.2,0.4-1.9c0-0.7-0.1-1.4-0.4-1.9S45.8,69.8,45.3,69.5
		z M45.3,73.9c-0.1,0.4-0.3,0.7-0.6,0.9c-0.3,0.2-0.6,0.3-1.1,0.3c-0.4,0-0.8-0.1-1.1-0.3c-0.3-0.2-0.5-0.5-0.6-0.9
		c-0.1-0.4-0.2-0.8-0.2-1.3c0-0.5,0.1-0.9,0.2-1.2c0.1-0.4,0.3-0.7,0.6-0.9c0.3-0.2,0.6-0.3,1.1-0.3c0.4,0,0.8,0.1,1.1,0.3
		c0.3,0.2,0.5,0.5,0.6,0.9c0.1,0.4,0.2,0.8,0.2,1.2C45.5,73.1,45.4,73.5,45.3,73.9z"/>
	<path d="M57.7,71.7c-0.3-0.2-0.6-0.4-0.9-0.5c-0.3-0.1-0.6-0.2-0.9-0.3L55,70.7c-0.2,0-0.4-0.1-0.6-0.2c-0.2-0.1-0.4-0.2-0.6-0.3
		c-0.2-0.1-0.3-0.2-0.4-0.4c-0.1-0.2-0.2-0.4-0.2-0.6c0-0.3,0.1-0.5,0.2-0.7c0.2-0.2,0.4-0.4,0.7-0.5s0.6-0.2,1-0.2
		c0.5,0,1,0.1,1.3,0.4s0.6,0.6,0.6,1h1.4c0-0.5-0.2-1-0.4-1.4c-0.3-0.4-0.7-0.7-1.2-0.9s-1.1-0.3-1.7-0.3c-0.6,0-1.2,0.1-1.7,0.3
		c-0.5,0.2-0.9,0.5-1.2,0.9s-0.4,0.9-0.4,1.4c0,0.7,0.2,1.2,0.7,1.6c0.4,0.4,1,0.7,1.8,0.9l1.1,0.3c0.3,0.1,0.6,0.2,0.9,0.3
		c0.3,0.1,0.5,0.3,0.6,0.4c0.2,0.2,0.2,0.4,0.2,0.7c0,0.3-0.1,0.6-0.3,0.8c-0.2,0.2-0.4,0.4-0.7,0.5s-0.7,0.2-1.1,0.2
		c-0.4,0-0.7-0.1-1-0.2c-0.3-0.1-0.6-0.3-0.8-0.5c-0.2-0.2-0.3-0.5-0.3-0.9h-1.4c0,0.6,0.2,1.1,0.5,1.5c0.3,0.4,0.7,0.7,1.2,1
		s1.1,0.3,1.8,0.3c0.7,0,1.4-0.1,1.9-0.4c0.5-0.2,0.9-0.6,1.2-1s0.4-0.9,0.4-1.4c0-0.4-0.1-0.8-0.3-1.1C58.2,72.2,58,71.9,57.7,71.7
		z"/>
	<rect x="60.2" y="69.1" width="1.4" height="7.1"/>
	<path d="M60.9,66.4c-0.2,0-0.4,0.1-0.6,0.2S60,67,60,67.2c0,0.2,0.1,0.4,0.3,0.6s0.4,0.2,0.6,0.2s0.4-0.1,0.6-0.2s0.3-0.4,0.3-0.6
		c0-0.2-0.1-0.4-0.3-0.6S61.2,66.4,60.9,66.4z"/>
	<path d="M68.3,70.2h-0.1c-0.1-0.1-0.2-0.3-0.4-0.5c-0.2-0.2-0.4-0.4-0.6-0.5c-0.3-0.1-0.6-0.2-1.1-0.2c-0.6,0-1.1,0.1-1.5,0.4
		c-0.4,0.3-0.8,0.7-1.1,1.2c-0.3,0.5-0.4,1.2-0.4,1.9c0,0.8,0.1,1.4,0.4,1.9c0.3,0.5,0.6,0.9,1.1,1.2s1,0.4,1.5,0.4
		c0.4,0,0.8-0.1,1.1-0.2c0.3-0.1,0.5-0.3,0.6-0.5s0.3-0.4,0.4-0.5h0.1v1.4c0,0.6-0.2,1-0.5,1.2c-0.3,0.3-0.8,0.4-1.3,0.4
		c-0.4,0-0.7-0.1-0.9-0.2c-0.2-0.1-0.4-0.2-0.6-0.4c-0.1-0.2-0.3-0.3-0.3-0.4l-1.2,0.5c0.1,0.3,0.3,0.6,0.6,0.8
		c0.3,0.2,0.6,0.4,1,0.6c0.4,0.1,0.9,0.2,1.5,0.2c0.6,0,1.1-0.1,1.6-0.3c0.5-0.2,0.9-0.5,1.1-0.9c0.3-0.4,0.4-0.9,0.4-1.5v-7.2h-1.4
		V70.2z M68.1,73.9c-0.1,0.3-0.4,0.6-0.6,0.8c-0.3,0.2-0.6,0.3-1,0.3c-0.4,0-0.8-0.1-1-0.3c-0.3-0.2-0.5-0.5-0.6-0.8
		c-0.1-0.4-0.2-0.8-0.2-1.2c0-0.5,0.1-0.9,0.2-1.2c0.1-0.4,0.3-0.7,0.6-0.9c0.3-0.2,0.6-0.3,1-0.3c0.4,0,0.7,0.1,1,0.3
		s0.5,0.5,0.6,0.9c0.1,0.4,0.2,0.8,0.2,1.3C68.3,73.1,68.2,73.5,68.1,73.9z"/>
	<path d="M76.3,69.3C75.9,69.1,75.5,69,75,69c-0.5,0-1,0.1-1.3,0.3c-0.3,0.2-0.6,0.5-0.8,0.9h-0.1v-1.2h-1.3v7.1h1.4V72
		c0-0.4,0.1-0.7,0.2-1s0.3-0.5,0.6-0.6c0.2-0.1,0.5-0.2,0.9-0.2c0.5,0,0.8,0.1,1.1,0.4c0.3,0.3,0.4,0.7,0.4,1.2v4.3h1.4v-4.5
		c0-0.6-0.1-1.1-0.3-1.5C76.9,69.8,76.6,69.5,76.3,69.3z"/>
	<rect x="82.7" y="71.6" width="4.2" height="1.2"/>
	<path d="M96.6,73.2c0,0.4-0.1,0.7-0.3,1c-0.2,0.3-0.4,0.5-0.6,0.6C95.5,75,95.2,75,95,75c-0.4,0-0.8-0.1-1-0.4
		c-0.3-0.3-0.4-0.7-0.4-1.2v-4.3h-1.4v4.5c0,0.6,0.1,1.1,0.3,1.5c0.2,0.4,0.5,0.7,0.8,0.9s0.8,0.3,1.2,0.3c0.5,0,1-0.1,1.3-0.4
		c0.4-0.3,0.6-0.6,0.8-0.9h0.1v1.2H98v-7.1h-1.4V73.2z"/>
	<path d="M106,70.7c-0.3-0.5-0.6-1-1.1-1.3c-0.4-0.3-1-0.4-1.5-0.4c-0.4,0-0.8,0.1-1.1,0.2c-0.3,0.1-0.5,0.3-0.6,0.5
		c-0.2,0.2-0.3,0.4-0.3,0.5h-0.1v-1.1h-1.3v9.8h1.4v-3.8h0.1c0.1,0.2,0.2,0.3,0.4,0.5c0.2,0.2,0.4,0.4,0.6,0.5s0.6,0.2,1.1,0.2
		c0.6,0,1.1-0.1,1.5-0.4s0.8-0.7,1.1-1.3s0.4-1.2,0.4-2C106.4,71.9,106.2,71.2,106,70.7z M104.8,73.9c-0.1,0.4-0.4,0.7-0.6,0.9
		c-0.3,0.2-0.6,0.3-1,0.3c-0.4,0-0.7-0.1-1-0.3s-0.5-0.5-0.6-0.9s-0.2-0.8-0.2-1.3c0-0.5,0.1-0.9,0.2-1.3c0.1-0.4,0.4-0.7,0.6-0.9
		c0.3-0.2,0.6-0.3,1-0.3c0.4,0,0.8,0.1,1,0.3c0.3,0.2,0.5,0.5,0.6,0.9c0.1,0.4,0.2,0.8,0.2,1.3C105,73.1,104.9,73.5,104.8,73.9z"/>
</g>
<g>
	<path d="M173.7,36.1v-8h2.9c0.6,0,1.1,0.1,1.5,0.3s0.7,0.5,0.9,0.9s0.3,0.8,0.3,1.3c0,0.5-0.1,0.9-0.3,1.3s-0.5,0.7-0.9,0.9
		s-0.9,0.3-1.5,0.3h-2v-1h1.9c0.4,0,0.7-0.1,1-0.2s0.4-0.3,0.5-0.6s0.2-0.5,0.2-0.8s-0.1-0.6-0.2-0.8s-0.3-0.4-0.5-0.6
		s-0.6-0.2-1-0.2h-1.5v7H173.7z"/>
	<path d="M180.7,36.1v-6h1.1v1h0.1c0.1-0.3,0.3-0.6,0.6-0.8s0.6-0.3,0.9-0.3c0.1,0,0.2,0,0.3,0s0.2,0,0.2,0v1.1c0,0-0.1,0-0.2,0
		s-0.2,0-0.4,0c-0.3,0-0.5,0.1-0.7,0.2s-0.4,0.3-0.5,0.5s-0.2,0.4-0.2,0.7v3.7H180.7z"/>
	<path d="M187.4,36.2c-0.6,0-1.1-0.1-1.5-0.4s-0.7-0.6-1-1.1s-0.3-1-0.3-1.6c0-0.6,0.1-1.2,0.3-1.6s0.6-0.8,1-1.1s0.9-0.4,1.5-0.4
		s1.1,0.1,1.5,0.4s0.7,0.6,1,1.1s0.3,1,0.3,1.6c0,0.6-0.1,1.2-0.3,1.6s-0.6,0.8-1,1.1S188,36.2,187.4,36.2z M187.4,35.2
		c0.4,0,0.7-0.1,0.9-0.3s0.4-0.4,0.5-0.8s0.2-0.7,0.2-1.1c0-0.4-0.1-0.7-0.2-1.1s-0.3-0.6-0.5-0.8s-0.5-0.3-0.9-0.3
		c-0.4,0-0.7,0.1-0.9,0.3s-0.4,0.5-0.5,0.8s-0.2,0.7-0.2,1.1c0,0.4,0.1,0.7,0.2,1.1s0.3,0.6,0.5,0.8S187.1,35.2,187.4,35.2z"/>
	<path d="M196.7,30.1l-2.2,6h-1.2l-2.2-6h1.3l1.5,4.6h0.1l1.5-4.6H196.7z"/>
	<path d="M198.3,29.2c-0.2,0-0.4-0.1-0.5-0.2s-0.2-0.3-0.2-0.5c0-0.2,0.1-0.4,0.2-0.5s0.3-0.2,0.5-0.2s0.4,0.1,0.5,0.2
		s0.2,0.3,0.2,0.5c0,0.2-0.1,0.4-0.2,0.5S198.5,29.2,198.3,29.2z M197.8,36.1v-6h1.2v6H197.8z"/>
	<path d="M202.7,36.2c-0.5,0-0.9-0.1-1.3-0.4s-0.7-0.6-0.9-1.1s-0.3-1-0.3-1.7s0.1-1.2,0.3-1.7s0.5-0.8,0.9-1.1s0.8-0.4,1.3-0.4
		c0.4,0,0.7,0.1,0.9,0.2s0.4,0.3,0.5,0.4s0.2,0.3,0.3,0.4h0.1v-3h1.2v8h-1.1v-0.9h-0.1c-0.1,0.1-0.2,0.3-0.3,0.4s-0.3,0.3-0.5,0.4
		S203.1,36.2,202.7,36.2z M203,35.2c0.3,0,0.6-0.1,0.9-0.3s0.4-0.4,0.5-0.7s0.2-0.7,0.2-1.1c0-0.4-0.1-0.8-0.2-1.1s-0.3-0.6-0.5-0.7
		S203.3,31,203,31c-0.4,0-0.6,0.1-0.9,0.3s-0.4,0.4-0.5,0.7s-0.2,0.7-0.2,1.1c0,0.4,0.1,0.8,0.2,1.1s0.3,0.6,0.5,0.8
		S202.7,35.2,203,35.2z"/>
	<path d="M210,36.2c-0.6,0-1.1-0.1-1.5-0.4s-0.8-0.6-1-1.1s-0.3-1-0.3-1.6c0-0.6,0.1-1.2,0.3-1.6s0.6-0.8,1-1.1s0.9-0.4,1.5-0.4
		c0.3,0,0.7,0.1,1,0.2s0.6,0.3,0.9,0.5s0.5,0.6,0.6,0.9s0.2,0.8,0.2,1.4v0.4h-4.8v-0.9h3.6c0-0.3-0.1-0.6-0.2-0.8s-0.3-0.4-0.5-0.6
		s-0.5-0.2-0.8-0.2c-0.3,0-0.6,0.1-0.9,0.2s-0.4,0.4-0.6,0.6s-0.2,0.5-0.2,0.8v0.7c0,0.4,0.1,0.7,0.2,1s0.3,0.5,0.6,0.6
		s0.6,0.2,0.9,0.2c0.2,0,0.4,0,0.6-0.1s0.3-0.2,0.5-0.3s0.2-0.3,0.3-0.5l1.1,0.2c-0.1,0.3-0.2,0.6-0.5,0.9s-0.5,0.4-0.9,0.6
		S210.4,36.2,210,36.2z"/>
	<path d="M156.4,41.3v8h-1.2v-8H156.4z"/>
	<path d="M159.3,45.7v3.6h-1.2v-6h1.1v1h0.1c0.1-0.3,0.4-0.6,0.7-0.8s0.7-0.3,1.1-0.3c0.4,0,0.8,0.1,1.1,0.3s0.5,0.4,0.7,0.8
		s0.3,0.8,0.3,1.2v3.8h-1.2v-3.7c0-0.4-0.1-0.8-0.3-1s-0.5-0.4-0.9-0.4c-0.3,0-0.5,0.1-0.7,0.2s-0.4,0.3-0.5,0.5
		S159.3,45.4,159.3,45.7z"/>
	<path d="M169.8,43.3l-2.2,6h-1.2l-2.2-6h1.3l1.5,4.6h0.1l1.5-4.6H169.8z"/>
	<path d="M173.5,49.4c-0.6,0-1.1-0.1-1.5-0.4s-0.8-0.6-1-1.1s-0.3-1-0.3-1.6c0-0.6,0.1-1.2,0.3-1.6s0.6-0.8,1-1.1s0.9-0.4,1.5-0.4
		c0.3,0,0.7,0.1,1,0.2s0.6,0.3,0.9,0.5s0.5,0.6,0.6,0.9s0.2,0.8,0.2,1.4v0.4h-4.8v-0.9h3.6c0-0.3-0.1-0.6-0.2-0.8s-0.3-0.4-0.5-0.6
		s-0.5-0.2-0.8-0.2c-0.3,0-0.6,0.1-0.9,0.2s-0.4,0.4-0.6,0.6s-0.2,0.5-0.2,0.8v0.7c0,0.4,0.1,0.7,0.2,1s0.3,0.5,0.6,0.6
		s0.6,0.2,0.9,0.2c0.2,0,0.4,0,0.6-0.1s0.3-0.2,0.5-0.3s0.2-0.3,0.3-0.5l1.1,0.2c-0.1,0.3-0.2,0.6-0.5,0.9s-0.5,0.4-0.9,0.6
		S173.9,49.4,173.5,49.4z"/>
	<path d="M181.9,44.8l-1.1,0.2c0-0.1-0.1-0.3-0.2-0.4s-0.2-0.2-0.4-0.3s-0.4-0.1-0.6-0.1c-0.3,0-0.6,0.1-0.8,0.2s-0.3,0.3-0.3,0.6
		c0,0.2,0.1,0.4,0.2,0.5s0.4,0.2,0.7,0.3l1,0.2c0.6,0.1,1,0.3,1.2,0.6s0.4,0.6,0.4,1c0,0.4-0.1,0.7-0.3,1s-0.5,0.5-0.9,0.7
		s-0.8,0.2-1.3,0.2c-0.7,0-1.2-0.1-1.6-0.4s-0.7-0.7-0.8-1.2l1.1-0.2c0.1,0.3,0.2,0.5,0.4,0.7s0.5,0.2,0.9,0.2
		c0.4,0,0.7-0.1,0.9-0.2s0.3-0.4,0.3-0.6c0-0.2-0.1-0.3-0.2-0.5s-0.4-0.2-0.6-0.3l-1-0.2c-0.6-0.1-1-0.3-1.2-0.6s-0.4-0.6-0.4-1.1
		c0-0.4,0.1-0.7,0.3-0.9s0.5-0.5,0.8-0.6s0.7-0.2,1.2-0.2c0.6,0,1.2,0.1,1.5,0.4S181.7,44.3,181.9,44.8z"/>
	<path d="M186.1,43.3v0.9h-3.3v-0.9H186.1z M183.7,41.9h1.2v5.7c0,0.2,0,0.4,0.1,0.5s0.2,0.2,0.3,0.2s0.2,0.1,0.4,0.1
		c0.1,0,0.2,0,0.2,0s0.1,0,0.2,0l0.2,1c-0.1,0-0.2,0.1-0.3,0.1s-0.3,0-0.5,0c-0.3,0-0.6,0-0.9-0.2s-0.5-0.3-0.6-0.5
		s-0.2-0.5-0.2-0.9V41.9z"/>
	<path d="M189.9,49.4c-0.6,0-1.1-0.1-1.5-0.4s-0.7-0.6-1-1.1s-0.3-1-0.3-1.6c0-0.6,0.1-1.2,0.3-1.6s0.6-0.8,1-1.1s0.9-0.4,1.5-0.4
		s1.1,0.1,1.5,0.4s0.7,0.6,1,1.1s0.3,1,0.3,1.6c0,0.6-0.1,1.2-0.3,1.6s-0.6,0.8-1,1.1S190.4,49.4,189.9,49.4z M189.9,48.4
		c0.4,0,0.7-0.1,0.9-0.3s0.4-0.4,0.5-0.8s0.2-0.7,0.2-1.1c0-0.4-0.1-0.7-0.2-1.1s-0.3-0.6-0.5-0.8s-0.5-0.3-0.9-0.3
		c-0.4,0-0.7,0.1-0.9,0.3s-0.4,0.5-0.5,0.8s-0.2,0.7-0.2,1.1c0,0.4,0.1,0.7,0.2,1.1s0.3,0.6,0.5,0.8S189.5,48.4,189.9,48.4z"/>
	<path d="M194,49.3v-6h1.1v1h0.1c0.1-0.3,0.3-0.6,0.6-0.8s0.6-0.3,0.9-0.3c0.1,0,0.2,0,0.3,0s0.2,0,0.2,0v1.1c0,0-0.1,0-0.2,0
		s-0.2,0-0.4,0c-0.3,0-0.5,0.1-0.7,0.2s-0.4,0.3-0.5,0.5s-0.2,0.4-0.2,0.7v3.7H194z"/>
	<path d="M207.9,43.9h-1.2c0-0.3-0.1-0.5-0.3-0.7s-0.3-0.4-0.5-0.5s-0.4-0.2-0.6-0.3s-0.5-0.1-0.7-0.1c-0.5,0-0.9,0.1-1.2,0.3
		s-0.6,0.6-0.9,1s-0.3,1-0.3,1.6c0,0.7,0.1,1.2,0.3,1.6s0.5,0.8,0.9,1s0.8,0.3,1.2,0.3c0.3,0,0.5,0,0.7-0.1s0.4-0.2,0.6-0.3
		s0.3-0.3,0.5-0.5s0.2-0.4,0.3-0.7l1.2,0c-0.1,0.4-0.2,0.8-0.4,1.1s-0.4,0.6-0.7,0.9s-0.6,0.4-1,0.6s-0.8,0.2-1.2,0.2
		c-0.7,0-1.3-0.2-1.9-0.5s-1-0.8-1.3-1.4s-0.5-1.3-0.5-2.2c0-0.9,0.2-1.6,0.5-2.2s0.7-1.1,1.3-1.4s1.2-0.5,1.8-0.5
		c0.4,0,0.8,0.1,1.2,0.2s0.7,0.3,1,0.5s0.5,0.5,0.7,0.9S207.8,43.5,207.9,43.9z"/>
	<path d="M211.7,49.4c-0.6,0-1.1-0.1-1.5-0.4s-0.7-0.6-1-1.1s-0.3-1-0.3-1.6c0-0.6,0.1-1.2,0.3-1.6s0.6-0.8,1-1.1s0.9-0.4,1.5-0.4
		s1.1,0.1,1.5,0.4s0.7,0.6,1,1.1s0.3,1,0.3,1.6c0,0.6-0.1,1.2-0.3,1.6s-0.6,0.8-1,1.1S212.3,49.4,211.7,49.4z M211.7,48.4
		c0.4,0,0.7-0.1,0.9-0.3s0.4-0.4,0.5-0.8s0.2-0.7,0.2-1.1c0-0.4-0.1-0.7-0.2-1.1s-0.3-0.6-0.5-0.8s-0.5-0.3-0.9-0.3
		c-0.4,0-0.7,0.1-0.9,0.3s-0.4,0.5-0.5,0.8s-0.2,0.7-0.2,1.1c0,0.4,0.1,0.7,0.2,1.1s0.3,0.6,0.5,0.8S211.4,48.4,211.7,48.4z"/>
	<path d="M218.1,49.4c-0.5,0-0.9-0.1-1.3-0.4s-0.7-0.6-0.9-1.1s-0.3-1-0.3-1.7s0.1-1.2,0.3-1.7s0.5-0.8,0.9-1.1s0.8-0.4,1.3-0.4
		c0.4,0,0.7,0.1,0.9,0.2s0.4,0.3,0.5,0.4s0.2,0.3,0.3,0.4h0.1v-3h1.2v8h-1.1v-0.9h-0.1c-0.1,0.1-0.2,0.3-0.3,0.4s-0.3,0.3-0.5,0.4
		S218.4,49.4,218.1,49.4z M218.3,48.4c0.3,0,0.6-0.1,0.9-0.3s0.4-0.4,0.5-0.7s0.2-0.7,0.2-1.1c0-0.4-0.1-0.8-0.2-1.1
		s-0.3-0.6-0.5-0.7s-0.5-0.3-0.9-0.3c-0.4,0-0.6,0.1-0.9,0.3s-0.4,0.4-0.5,0.7s-0.2,0.7-0.2,1.1c0,0.4,0.1,0.8,0.2,1.1
		s0.3,0.6,0.5,0.8S218,48.4,218.3,48.4z"/>
	<path d="M225.3,49.4c-0.6,0-1.1-0.1-1.5-0.4s-0.8-0.6-1-1.1s-0.3-1-0.3-1.6c0-0.6,0.1-1.2,0.3-1.6s0.6-0.8,1-1.1s0.9-0.4,1.5-0.4
		c0.3,0,0.7,0.1,1,0.2s0.6,0.3,0.9,0.5s0.5,0.6,0.6,0.9s0.2,0.8,0.2,1.4v0.4h-4.8v-0.9h3.6c0-0.3-0.1-0.6-0.2-0.8s-0.3-0.4-0.5-0.6
		s-0.5-0.2-0.8-0.2c-0.3,0-0.6,0.1-0.9,0.2s-0.4,0.4-0.6,0.6s-0.2,0.5-0.2,0.8v0.7c0,0.4,0.1,0.7,0.2,1s0.3,0.5,0.6,0.6
		s0.6,0.2,0.9,0.2c0.2,0,0.4,0,0.6-0.1s0.3-0.2,0.5-0.3s0.2-0.3,0.3-0.5l1.1,0.2c-0.1,0.3-0.2,0.6-0.5,0.9s-0.5,0.4-0.9,0.6
		S225.7,49.4,225.3,49.4z"/>
	<path d="M230.7,48.2l-0.1,0.4c0,0.3-0.1,0.6-0.2,1s-0.2,0.7-0.3,0.9s-0.2,0.5-0.2,0.7h-0.8c0-0.2,0.1-0.4,0.1-0.7s0.1-0.6,0.2-0.9
		s0.1-0.7,0.1-1l0-0.4H230.7z"/>
	<path d="M178.2,62.5v-8h5v1h-3.8V58h3.5v1h-3.5v2.4h3.9v1H178.2z"/>
	<path d="M184.7,62.5v-6h1.1v1h0.1c0.1-0.3,0.3-0.6,0.6-0.8s0.6-0.3,1-0.3c0.4,0,0.7,0.1,1,0.3s0.5,0.4,0.6,0.8h0.1
		c0.1-0.3,0.4-0.6,0.7-0.8s0.7-0.3,1.1-0.3c0.5,0,1,0.2,1.3,0.5s0.5,0.9,0.5,1.5v4h-1.2v-3.9c0-0.4-0.1-0.7-0.3-0.9
		s-0.5-0.3-0.8-0.3c-0.4,0-0.7,0.1-0.9,0.3s-0.3,0.5-0.3,0.9v3.8h-1.2v-4c0-0.3-0.1-0.6-0.3-0.8s-0.5-0.3-0.8-0.3
		c-0.2,0-0.4,0.1-0.6,0.2s-0.3,0.3-0.4,0.5s-0.2,0.4-0.2,0.7v3.7H184.7z"/>
	<path d="M196.2,62.6c-0.4,0-0.7-0.1-1-0.2s-0.6-0.3-0.7-0.6s-0.3-0.6-0.3-1c0-0.3,0.1-0.6,0.2-0.8s0.3-0.4,0.5-0.5s0.5-0.2,0.7-0.3
		s0.6-0.1,0.8-0.1c0.4,0,0.7-0.1,0.9-0.1s0.4-0.1,0.5-0.1s0.2-0.2,0.2-0.3v0c0-0.3-0.1-0.6-0.3-0.8s-0.5-0.3-0.9-0.3
		c-0.4,0-0.7,0.1-0.9,0.3s-0.4,0.4-0.5,0.6l-1.1-0.2c0.1-0.4,0.3-0.7,0.6-0.9s0.5-0.4,0.9-0.5s0.7-0.2,1-0.2c0.2,0,0.5,0,0.8,0.1
		s0.5,0.2,0.8,0.3s0.4,0.4,0.6,0.6s0.2,0.6,0.2,1.1v4H198v-0.8h0c-0.1,0.2-0.2,0.3-0.3,0.4s-0.3,0.3-0.6,0.4S196.5,62.6,196.2,62.6z
		 M196.5,61.7c0.3,0,0.6-0.1,0.8-0.2s0.4-0.3,0.5-0.5s0.2-0.4,0.2-0.7v-0.8c0,0-0.1,0.1-0.2,0.1s-0.3,0.1-0.4,0.1s-0.3,0-0.4,0.1
		s-0.3,0-0.4,0c-0.2,0-0.4,0.1-0.6,0.1s-0.3,0.2-0.4,0.3s-0.2,0.3-0.2,0.5c0,0.3,0.1,0.5,0.3,0.7S196.1,61.7,196.5,61.7z"/>
	<path d="M201.3,55.6c-0.2,0-0.4-0.1-0.5-0.2s-0.2-0.3-0.2-0.5c0-0.2,0.1-0.4,0.2-0.5s0.3-0.2,0.5-0.2s0.4,0.1,0.5,0.2
		s0.2,0.3,0.2,0.5c0,0.2-0.1,0.4-0.2,0.5S201.5,55.6,201.3,55.6z M200.7,62.5v-6h1.2v6H200.7z"/>
	<path d="M204.6,54.5v8h-1.2v-8H204.6z"/>
	<path d="M207.7,61.4l-0.1,0.4c0,0.3-0.1,0.6-0.2,1s-0.2,0.7-0.3,0.9c-0.1,0.3-0.2,0.5-0.2,0.7h-0.8c0-0.2,0.1-0.4,0.1-0.7
		c0.1-0.3,0.1-0.6,0.2-0.9s0.1-0.7,0.1-1l0-0.4H207.7z"/>
	<path d="M153.1,75.7v-8h2.9c0.6,0,1.1,0.1,1.5,0.3s0.7,0.5,0.9,0.9s0.3,0.8,0.3,1.3c0,0.5-0.1,0.9-0.3,1.3s-0.5,0.7-0.9,0.9
		s-0.9,0.3-1.5,0.3h-2v-1h1.9c0.4,0,0.7-0.1,1-0.2s0.4-0.3,0.5-0.6s0.2-0.5,0.2-0.8s-0.1-0.6-0.2-0.8s-0.3-0.4-0.5-0.6
		s-0.6-0.2-1-0.2h-1.5v7H153.1z"/>
	<path d="M161.2,72.1v3.6h-1.2v-8h1.2v3h0.1c0.1-0.3,0.4-0.6,0.6-0.8s0.7-0.3,1.1-0.3c0.4,0,0.8,0.1,1.1,0.3s0.5,0.4,0.7,0.8
		s0.3,0.8,0.3,1.3v3.8h-1.2V72c0-0.4-0.1-0.8-0.3-1s-0.5-0.4-0.9-0.4c-0.3,0-0.5,0.1-0.7,0.2s-0.4,0.3-0.5,0.5
		S161.2,71.8,161.2,72.1z"/>
	<path d="M169.2,75.8c-0.6,0-1.1-0.1-1.5-0.4s-0.7-0.6-1-1.1s-0.3-1-0.3-1.6c0-0.6,0.1-1.2,0.3-1.6s0.6-0.8,1-1.1s0.9-0.4,1.5-0.4
		s1.1,0.1,1.5,0.4s0.7,0.6,1,1.1s0.3,1,0.3,1.6c0,0.6-0.1,1.2-0.3,1.6s-0.6,0.8-1,1.1S169.8,75.8,169.2,75.8z M169.2,74.8
		c0.4,0,0.7-0.1,0.9-0.3s0.4-0.4,0.5-0.8s0.2-0.7,0.2-1.1c0-0.4-0.1-0.7-0.2-1.1s-0.3-0.6-0.5-0.8s-0.5-0.3-0.9-0.3
		c-0.4,0-0.7,0.1-0.9,0.3s-0.4,0.5-0.5,0.8s-0.2,0.7-0.2,1.1c0,0.4,0.1,0.7,0.2,1.1s0.3,0.6,0.5,0.8S168.8,74.8,169.2,74.8z"/>
	<path d="M174.5,72.1v3.6h-1.2v-6h1.1v1h0.1c0.1-0.3,0.4-0.6,0.7-0.8s0.7-0.3,1.1-0.3c0.4,0,0.8,0.1,1.1,0.3s0.5,0.4,0.7,0.8
		s0.3,0.8,0.3,1.2v3.8h-1.2V72c0-0.4-0.1-0.8-0.3-1s-0.5-0.4-0.9-0.4c-0.3,0-0.5,0.1-0.7,0.2s-0.4,0.3-0.5,0.5
		S174.5,71.8,174.5,72.1z"/>
	<path d="M182.5,75.8c-0.6,0-1.1-0.1-1.5-0.4s-0.8-0.6-1-1.1s-0.3-1-0.3-1.6c0-0.6,0.1-1.2,0.3-1.6s0.6-0.8,1-1.1s0.9-0.4,1.5-0.4
		c0.3,0,0.7,0.1,1,0.2s0.6,0.3,0.9,0.5s0.5,0.6,0.6,0.9s0.2,0.8,0.2,1.4v0.4h-4.8v-0.9h3.6c0-0.3-0.1-0.6-0.2-0.8s-0.3-0.4-0.5-0.6
		s-0.5-0.2-0.8-0.2c-0.3,0-0.6,0.1-0.9,0.2s-0.4,0.4-0.6,0.6s-0.2,0.5-0.2,0.8V73c0,0.4,0.1,0.7,0.2,1s0.3,0.5,0.6,0.6
		s0.6,0.2,0.9,0.2c0.2,0,0.4,0,0.6-0.1s0.3-0.2,0.5-0.3s0.2-0.3,0.3-0.5l1.1,0.2c-0.1,0.3-0.2,0.6-0.5,0.9s-0.5,0.4-0.9,0.6
		S182.9,75.8,182.5,75.8z"/>
	<path d="M195.8,67.7v8h-1.1l-4.1-5.9h-0.1v5.9h-1.2v-8h1.1l4.1,5.9h0.1v-5.9H195.8z"/>
	<path d="M201.3,73.2v-3.5h1.2v6h-1.1v-1h-0.1c-0.1,0.3-0.4,0.6-0.7,0.8s-0.7,0.3-1.1,0.3c-0.4,0-0.7-0.1-1-0.3s-0.5-0.4-0.7-0.8
		s-0.3-0.8-0.3-1.2v-3.8h1.2v3.7c0,0.4,0.1,0.7,0.3,1s0.5,0.4,0.9,0.4c0.2,0,0.4-0.1,0.7-0.2s0.4-0.3,0.5-0.5S201.3,73.6,201.3,73.2
		z"/>
	<path d="M204,75.7v-6h1.1v1h0.1c0.1-0.3,0.3-0.6,0.6-0.8s0.6-0.3,1-0.3c0.4,0,0.7,0.1,1,0.3s0.5,0.4,0.6,0.8h0.1
		c0.1-0.3,0.4-0.6,0.7-0.8s0.7-0.3,1.1-0.3c0.5,0,1,0.2,1.3,0.5s0.5,0.9,0.5,1.5v4H211v-3.9c0-0.4-0.1-0.7-0.3-0.9s-0.5-0.3-0.8-0.3
		c-0.4,0-0.7,0.1-0.9,0.3s-0.3,0.5-0.3,0.9v3.8h-1.2v-4c0-0.3-0.1-0.6-0.3-0.8s-0.5-0.3-0.8-0.3c-0.2,0-0.4,0.1-0.6,0.2
		s-0.3,0.3-0.4,0.5s-0.2,0.4-0.2,0.7v3.7H204z"/>
	<path d="M213.8,75.7v-8h1.2v3h0.1c0.1-0.1,0.2-0.3,0.3-0.4s0.3-0.3,0.5-0.4s0.5-0.2,0.9-0.2c0.5,0,0.9,0.1,1.3,0.4s0.7,0.6,0.9,1.1
		s0.3,1,0.3,1.7s-0.1,1.2-0.3,1.7s-0.5,0.8-0.9,1.1s-0.8,0.4-1.3,0.4c-0.4,0-0.7-0.1-0.9-0.2s-0.4-0.3-0.5-0.4s-0.2-0.3-0.3-0.4H215
		v0.9H213.8z M215,72.7c0,0.4,0.1,0.8,0.2,1.1s0.3,0.6,0.5,0.7s0.5,0.3,0.9,0.3c0.3,0,0.6-0.1,0.9-0.3s0.4-0.4,0.5-0.8
		s0.2-0.7,0.2-1.1c0-0.4-0.1-0.8-0.2-1.1s-0.3-0.6-0.5-0.7s-0.5-0.3-0.9-0.3c-0.3,0-0.6,0.1-0.9,0.3s-0.4,0.4-0.5,0.7
		S215,72.3,215,72.7z"/>
	<path d="M223.2,75.8c-0.6,0-1.1-0.1-1.5-0.4s-0.8-0.6-1-1.1s-0.3-1-0.3-1.6c0-0.6,0.1-1.2,0.3-1.6s0.6-0.8,1-1.1s0.9-0.4,1.5-0.4
		c0.3,0,0.7,0.1,1,0.2s0.6,0.3,0.9,0.5s0.5,0.6,0.6,0.9s0.2,0.8,0.2,1.4v0.4H221v-0.9h3.6c0-0.3-0.1-0.6-0.2-0.8s-0.3-0.4-0.5-0.6
		s-0.5-0.2-0.8-0.2c-0.3,0-0.6,0.1-0.9,0.2s-0.4,0.4-0.6,0.6s-0.2,0.5-0.2,0.8V73c0,0.4,0.1,0.7,0.2,1s0.3,0.5,0.6,0.6
		s0.6,0.2,0.9,0.2c0.2,0,0.4,0,0.6-0.1s0.3-0.2,0.5-0.3s0.2-0.3,0.3-0.5l1.1,0.2c-0.1,0.3-0.2,0.6-0.5,0.9s-0.5,0.4-0.9,0.6
		S223.6,75.8,223.2,75.8z"/>
	<path d="M227.1,75.7v-6h1.1v1h0.1c0.1-0.3,0.3-0.6,0.6-0.8s0.6-0.3,0.9-0.3c0.1,0,0.2,0,0.3,0s0.2,0,0.2,0v1.1c0,0-0.1,0-0.2,0
		s-0.2,0-0.4,0c-0.3,0-0.5,0.1-0.7,0.2s-0.4,0.3-0.5,0.5s-0.2,0.4-0.2,0.7v3.7H227.1z"/>
	<path d="M232.8,74.6l-0.1,0.4c0,0.3-0.1,0.6-0.2,1s-0.2,0.7-0.3,0.9s-0.2,0.5-0.2,0.7h-0.8c0-0.2,0.1-0.4,0.1-0.7s0.1-0.6,0.2-0.9
		s0.1-0.7,0.1-1l0-0.4H232.8z"/>
	<path d="M155.9,83c0-0.4-0.2-0.7-0.5-0.9s-0.7-0.3-1.1-0.3c-0.3,0-0.6,0.1-0.9,0.2s-0.4,0.2-0.6,0.4s-0.2,0.4-0.2,0.6
		c0,0.2,0,0.4,0.1,0.5s0.2,0.3,0.4,0.3s0.3,0.2,0.5,0.2s0.3,0.1,0.5,0.2l0.8,0.2c0.3,0.1,0.5,0.1,0.8,0.3s0.5,0.2,0.7,0.4
		s0.4,0.4,0.6,0.6s0.2,0.6,0.2,0.9c0,0.5-0.1,0.9-0.3,1.2s-0.6,0.6-1,0.8s-1,0.3-1.6,0.3c-0.6,0-1.1-0.1-1.6-0.3s-0.8-0.5-1-0.8
		s-0.4-0.8-0.4-1.2h1.2c0,0.3,0.1,0.5,0.3,0.7s0.4,0.3,0.6,0.4s0.5,0.1,0.9,0.1c0.3,0,0.6-0.1,0.9-0.2s0.5-0.3,0.6-0.5
		s0.2-0.4,0.2-0.7c0-0.2-0.1-0.4-0.2-0.6s-0.3-0.3-0.5-0.4s-0.5-0.2-0.8-0.3l-0.9-0.3c-0.6-0.2-1.1-0.4-1.5-0.8s-0.6-0.8-0.6-1.3
		c0-0.5,0.1-0.9,0.4-1.2s0.6-0.6,1-0.8s0.9-0.3,1.4-0.3c0.5,0,1,0.1,1.4,0.3s0.7,0.5,1,0.8s0.4,0.7,0.4,1.1H155.9z"/>
	<path d="M161.1,89c-0.6,0-1.1-0.1-1.5-0.4s-0.8-0.6-1-1.1s-0.3-1-0.3-1.6c0-0.6,0.1-1.2,0.3-1.6s0.6-0.8,1-1.1s0.9-0.4,1.5-0.4
		c0.3,0,0.7,0.1,1,0.2s0.6,0.3,0.9,0.5s0.5,0.6,0.6,0.9s0.2,0.8,0.2,1.4v0.4h-4.8v-0.9h3.6c0-0.3-0.1-0.6-0.2-0.8s-0.3-0.4-0.5-0.6
		s-0.5-0.2-0.8-0.2c-0.3,0-0.6,0.1-0.9,0.2s-0.4,0.4-0.6,0.6s-0.2,0.5-0.2,0.8v0.7c0,0.4,0.1,0.7,0.2,1s0.3,0.5,0.6,0.6
		s0.6,0.2,0.9,0.2c0.2,0,0.4,0,0.6-0.1s0.3-0.2,0.5-0.3s0.2-0.3,0.3-0.5l1.1,0.2c-0.1,0.3-0.2,0.6-0.5,0.9s-0.5,0.4-0.9,0.6
		S161.5,89,161.1,89z"/>
	<path d="M167.5,89c-0.6,0-1.1-0.1-1.5-0.4s-0.7-0.6-1-1.1s-0.3-1-0.3-1.6c0-0.6,0.1-1.1,0.3-1.6s0.6-0.8,1-1.1s0.9-0.4,1.5-0.4
		c0.5,0,0.9,0.1,1.2,0.3s0.6,0.4,0.9,0.7s0.4,0.7,0.4,1.1h-1.1c-0.1-0.3-0.2-0.5-0.4-0.7s-0.5-0.3-0.9-0.3c-0.3,0-0.6,0.1-0.9,0.3
		s-0.4,0.4-0.6,0.7s-0.2,0.7-0.2,1.1c0,0.4,0.1,0.8,0.2,1.1s0.3,0.6,0.6,0.7s0.5,0.3,0.9,0.3c0.2,0,0.4,0,0.6-0.1s0.3-0.2,0.5-0.4
		s0.2-0.3,0.3-0.6h1.1c0,0.4-0.2,0.7-0.4,1s-0.5,0.5-0.8,0.7S168,89,167.5,89z"/>
	<path d="M175,86.4v-3.5h1.2v6H175v-1H175c-0.1,0.3-0.4,0.6-0.7,0.8s-0.7,0.3-1.1,0.3c-0.4,0-0.7-0.1-1-0.3s-0.5-0.4-0.7-0.8
		s-0.3-0.8-0.3-1.2v-3.8h1.2v3.7c0,0.4,0.1,0.7,0.3,1s0.5,0.4,0.9,0.4c0.2,0,0.4-0.1,0.7-0.2s0.4-0.3,0.5-0.5S175,86.8,175,86.4z"/>
	<path d="M177.7,88.9v-6h1.1v1h0.1c0.1-0.3,0.3-0.6,0.6-0.8s0.6-0.3,0.9-0.3c0.1,0,0.2,0,0.3,0s0.2,0,0.2,0V84c0,0-0.1,0-0.2,0
		s-0.2,0-0.4,0c-0.3,0-0.5,0.1-0.7,0.2s-0.4,0.3-0.5,0.5s-0.2,0.4-0.2,0.7v3.7H177.7z"/>
	<path d="M182.6,82c-0.2,0-0.4-0.1-0.5-0.2s-0.2-0.3-0.2-0.5c0-0.2,0.1-0.4,0.2-0.5s0.3-0.2,0.5-0.2s0.4,0.1,0.5,0.2
		s0.2,0.3,0.2,0.5c0,0.2-0.1,0.4-0.2,0.5S182.8,82,182.6,82z M182,88.9v-6h1.2v6H182z"/>
	<path d="M187.5,82.9v0.9h-3.3v-0.9H187.5z M185.1,81.5h1.2v5.7c0,0.2,0,0.4,0.1,0.5s0.2,0.2,0.3,0.2s0.2,0.1,0.4,0.1
		c0.1,0,0.2,0,0.2,0s0.1,0,0.2,0l0.2,1c-0.1,0-0.2,0.1-0.3,0.1s-0.3,0-0.5,0c-0.3,0-0.6,0-0.9-0.2s-0.5-0.3-0.6-0.5
		s-0.2-0.5-0.2-0.9V81.5z"/>
	<path d="M189.5,91.1c-0.2,0-0.3,0-0.5,0s-0.2-0.1-0.3-0.1l0.3-1c0.2,0.1,0.4,0.1,0.6,0.1s0.3-0.1,0.4-0.2s0.2-0.3,0.3-0.6l0.1-0.4
		l-2.2-6.1h1.2l1.5,4.7h0.1l1.5-4.7h1.3l-2.5,6.8c-0.1,0.3-0.3,0.6-0.4,0.8s-0.4,0.4-0.6,0.5S189.9,91.1,189.5,91.1z"/>
	<path d="M204.7,83.5h-1.2c0-0.3-0.1-0.5-0.3-0.7s-0.3-0.4-0.5-0.5s-0.4-0.2-0.6-0.3s-0.5-0.1-0.7-0.1c-0.5,0-0.9,0.1-1.2,0.3
		s-0.6,0.6-0.9,1s-0.3,1-0.3,1.6c0,0.7,0.1,1.2,0.3,1.6s0.5,0.8,0.9,1s0.8,0.3,1.2,0.3c0.3,0,0.5,0,0.7-0.1s0.4-0.2,0.6-0.3
		s0.3-0.3,0.5-0.5s0.2-0.4,0.3-0.7l1.2,0c-0.1,0.4-0.2,0.8-0.4,1.1s-0.4,0.6-0.7,0.9s-0.6,0.4-1,0.6s-0.8,0.2-1.2,0.2
		c-0.7,0-1.3-0.2-1.9-0.5s-1-0.8-1.3-1.4s-0.5-1.3-0.5-2.2c0-0.9,0.2-1.6,0.5-2.2s0.7-1.1,1.3-1.4s1.2-0.5,1.8-0.5
		c0.4,0,0.8,0.1,1.2,0.2s0.7,0.3,1,0.5s0.5,0.5,0.7,0.9S204.6,83.1,204.7,83.5z"/>
	<path d="M208.6,89c-0.6,0-1.1-0.1-1.5-0.4s-0.7-0.6-1-1.1s-0.3-1-0.3-1.6c0-0.6,0.1-1.2,0.3-1.6s0.6-0.8,1-1.1s0.9-0.4,1.5-0.4
		s1.1,0.1,1.5,0.4s0.7,0.6,1,1.1s0.3,1,0.3,1.6c0,0.6-0.1,1.2-0.3,1.6s-0.6,0.8-1,1.1S209.1,89,208.6,89z M208.6,88
		c0.4,0,0.7-0.1,0.9-0.3s0.4-0.4,0.5-0.8s0.2-0.7,0.2-1.1c0-0.4-0.1-0.7-0.2-1.1s-0.3-0.6-0.5-0.8s-0.5-0.3-0.9-0.3
		c-0.4,0-0.7,0.1-0.9,0.3s-0.4,0.5-0.5,0.8s-0.2,0.7-0.2,1.1c0,0.4,0.1,0.7,0.2,1.1s0.3,0.6,0.5,0.8S208.2,88,208.6,88z"/>
	<path d="M214.9,89c-0.5,0-0.9-0.1-1.3-0.4s-0.7-0.6-0.9-1.1s-0.3-1-0.3-1.7s0.1-1.2,0.3-1.7s0.5-0.8,0.9-1.1s0.8-0.4,1.3-0.4
		c0.4,0,0.7,0.1,0.9,0.2s0.4,0.3,0.5,0.4s0.2,0.3,0.3,0.4h0.1v-3h1.2v8h-1.1V88h-0.1c-0.1,0.1-0.2,0.3-0.3,0.4s-0.3,0.3-0.5,0.4
		S215.3,89,214.9,89z M215.2,88c0.3,0,0.6-0.1,0.9-0.3s0.4-0.4,0.5-0.7s0.2-0.7,0.2-1.1c0-0.4-0.1-0.8-0.2-1.1s-0.3-0.6-0.5-0.7
		s-0.5-0.3-0.9-0.3c-0.4,0-0.6,0.1-0.9,0.3s-0.4,0.4-0.5,0.7s-0.2,0.7-0.2,1.1c0,0.4,0.1,0.8,0.2,1.1s0.3,0.6,0.5,0.8
		S214.8,88,215.2,88z"/>
	<path d="M222.1,89c-0.6,0-1.1-0.1-1.5-0.4s-0.8-0.6-1-1.1s-0.3-1-0.3-1.6c0-0.6,0.1-1.2,0.3-1.6s0.6-0.8,1-1.1s0.9-0.4,1.5-0.4
		c0.3,0,0.7,0.1,1,0.2s0.6,0.3,0.9,0.5s0.5,0.6,0.6,0.9s0.2,0.8,0.2,1.4v0.4h-4.8v-0.9h3.6c0-0.3-0.1-0.6-0.2-0.8s-0.3-0.4-0.5-0.6
		s-0.5-0.2-0.8-0.2c-0.3,0-0.6,0.1-0.9,0.2s-0.4,0.4-0.6,0.6s-0.2,0.5-0.2,0.8v0.7c0,0.4,0.1,0.7,0.2,1s0.3,0.5,0.6,0.6
		s0.6,0.2,0.9,0.2c0.2,0,0.4,0,0.6-0.1s0.3-0.2,0.5-0.3s0.2-0.3,0.3-0.5l1.1,0.2c-0.1,0.3-0.2,0.6-0.5,0.9s-0.5,0.4-0.9,0.6
		S222.6,89,222.1,89z"/>
	<path d="M231.2,89c-0.5,0-1-0.1-1.4-0.3s-0.7-0.5-0.9-0.8s-0.3-0.7-0.3-1.1c0-0.3,0.1-0.6,0.2-0.9s0.3-0.5,0.6-0.7s0.5-0.4,0.8-0.7
		l1.3-0.9c0.2-0.1,0.4-0.3,0.5-0.5s0.2-0.4,0.2-0.6c0-0.2-0.1-0.4-0.2-0.5s-0.4-0.3-0.6-0.3c-0.2,0-0.4,0-0.5,0.1s-0.3,0.2-0.3,0.3
		s-0.1,0.3-0.1,0.4c0,0.2,0.1,0.4,0.2,0.6s0.2,0.4,0.4,0.6s0.3,0.4,0.5,0.6l3.7,4.4h-1.3l-3.1-3.6c-0.3-0.3-0.5-0.6-0.7-0.9
		s-0.4-0.5-0.5-0.8s-0.2-0.6-0.2-0.9c0-0.4,0.1-0.7,0.3-1s0.4-0.5,0.7-0.7s0.7-0.2,1.1-0.2c0.4,0,0.8,0.1,1.1,0.2s0.5,0.4,0.7,0.6
		s0.2,0.6,0.2,0.9c0,0.4-0.1,0.7-0.3,1s-0.4,0.6-0.8,0.8l-1.6,1.2c-0.3,0.2-0.5,0.5-0.7,0.7s-0.2,0.4-0.2,0.5c0,0.2,0.1,0.4,0.2,0.6
		s0.3,0.4,0.5,0.5s0.5,0.2,0.8,0.2c0.3,0,0.6-0.1,0.9-0.2s0.5-0.3,0.8-0.6s0.4-0.5,0.5-0.9s0.2-0.7,0.2-1.1h1.1c0,0.5-0.1,1-0.2,1.3
		s-0.3,0.6-0.4,0.9s-0.3,0.4-0.5,0.5c0,0-0.1,0.1-0.1,0.1s-0.1,0.1-0.1,0.1c-0.3,0.3-0.6,0.5-1,0.6S231.6,89,231.2,89z"/>
	<path d="M179.5,96.7h-1.2c0-0.3-0.1-0.5-0.3-0.7s-0.3-0.4-0.5-0.5s-0.4-0.2-0.6-0.3s-0.5-0.1-0.7-0.1c-0.5,0-0.9,0.1-1.2,0.3
		s-0.6,0.6-0.9,1s-0.3,1-0.3,1.6c0,0.7,0.1,1.2,0.3,1.6s0.5,0.8,0.9,1s0.8,0.3,1.2,0.3c0.3,0,0.5,0,0.7-0.1s0.4-0.2,0.6-0.3
		s0.3-0.3,0.5-0.5s0.2-0.4,0.3-0.7l1.2,0c-0.1,0.4-0.2,0.8-0.4,1.1s-0.4,0.6-0.7,0.9s-0.6,0.4-1,0.6s-0.8,0.2-1.2,0.2
		c-0.7,0-1.3-0.2-1.9-0.5s-1-0.8-1.3-1.4s-0.5-1.3-0.5-2.2c0-0.9,0.2-1.6,0.5-2.2s0.7-1.1,1.3-1.4s1.2-0.5,1.8-0.5
		c0.4,0,0.8,0.1,1.2,0.2s0.7,0.3,1,0.5s0.5,0.5,0.7,0.9S179.4,96.3,179.5,96.7z"/>
	<path d="M183.3,102.2c-0.6,0-1.1-0.1-1.5-0.4s-0.7-0.6-1-1.1s-0.3-1-0.3-1.6c0-0.6,0.1-1.2,0.3-1.6s0.6-0.8,1-1.1s0.9-0.4,1.5-0.4
		s1.1,0.1,1.5,0.4s0.7,0.6,1,1.1s0.3,1,0.3,1.6c0,0.6-0.1,1.2-0.3,1.6s-0.6,0.8-1,1.1S183.9,102.2,183.3,102.2z M183.3,101.2
		c0.4,0,0.7-0.1,0.9-0.3s0.4-0.4,0.5-0.8s0.2-0.7,0.2-1.1c0-0.4-0.1-0.7-0.2-1.1s-0.3-0.6-0.5-0.8s-0.5-0.3-0.9-0.3
		c-0.4,0-0.7,0.1-0.9,0.3s-0.4,0.5-0.5,0.8s-0.2,0.7-0.2,1.1c0,0.4,0.1,0.7,0.2,1.1s0.3,0.6,0.5,0.8S183,101.2,183.3,101.2z"/>
	<path d="M188.6,98.5v3.6h-1.2v-6h1.1v1h0.1c0.1-0.3,0.4-0.6,0.7-0.8s0.7-0.3,1.1-0.3c0.4,0,0.8,0.1,1.1,0.3s0.5,0.4,0.7,0.8
		s0.3,0.8,0.3,1.2v3.8h-1.2v-3.7c0-0.4-0.1-0.8-0.3-1S190.4,97,190,97c-0.3,0-0.5,0.1-0.7,0.2s-0.4,0.3-0.5,0.5
		S188.6,98.2,188.6,98.5z"/>
	<path d="M196.9,96.1V97h-3.4v-0.9H196.9z M194.4,102.1v-6.7c0-0.4,0.1-0.7,0.2-0.9s0.4-0.4,0.7-0.6s0.6-0.2,0.9-0.2
		c0.2,0,0.4,0,0.6,0.1s0.3,0.1,0.4,0.1l-0.3,0.9c-0.1,0-0.1,0-0.2-0.1s-0.2,0-0.3,0c-0.3,0-0.5,0.1-0.6,0.2s-0.2,0.3-0.2,0.6v6.5
		H194.4z"/>
	<path d="M198.7,95.2c-0.2,0-0.4-0.1-0.5-0.2s-0.2-0.3-0.2-0.5c0-0.2,0.1-0.4,0.2-0.5s0.3-0.2,0.5-0.2s0.4,0.1,0.5,0.2
		s0.2,0.3,0.2,0.5c0,0.2-0.1,0.4-0.2,0.5S198.9,95.2,198.7,95.2z M198.1,102.1v-6h1.2v6H198.1z"/>
	<path d="M200.8,102.1v-6h1.1v1h0.1c0.1-0.3,0.3-0.6,0.6-0.8s0.6-0.3,0.9-0.3c0.1,0,0.2,0,0.3,0s0.2,0,0.2,0v1.1c0,0-0.1,0-0.2,0
		s-0.2,0-0.4,0c-0.3,0-0.5,0.1-0.7,0.2s-0.4,0.3-0.5,0.5s-0.2,0.4-0.2,0.7v3.7H200.8z"/>
	<path d="M205,102.1v-6h1.1v1h0.1c0.1-0.3,0.3-0.6,0.6-0.8s0.6-0.3,1-0.3c0.4,0,0.7,0.1,1,0.3s0.5,0.4,0.6,0.8h0.1
		c0.1-0.3,0.4-0.6,0.7-0.8s0.7-0.3,1.1-0.3c0.5,0,1,0.2,1.3,0.5s0.5,0.9,0.5,1.5v4H212v-3.9c0-0.4-0.1-0.7-0.3-0.9s-0.5-0.3-0.8-0.3
		c-0.4,0-0.7,0.1-0.9,0.3s-0.3,0.5-0.3,0.9v3.8h-1.2v-4c0-0.3-0.1-0.6-0.3-0.8s-0.5-0.3-0.8-0.3c-0.2,0-0.4,0.1-0.6,0.2
		s-0.3,0.3-0.4,0.5s-0.2,0.4-0.2,0.7v3.7H205z"/>
</g>
<g>
	<path d="M301.9,54.2v-9.5h3.4c0.7,0,1.3,0.1,1.8,0.4c0.5,0.3,0.8,0.6,1.1,1.1c0.2,0.5,0.4,1,0.4,1.6c0,0.6-0.1,1.1-0.4,1.6
		c-0.2,0.5-0.6,0.8-1.1,1.1c-0.5,0.3-1.1,0.4-1.8,0.4h-2.3v-1.2h2.2c0.5,0,0.8-0.1,1.1-0.2c0.3-0.2,0.5-0.4,0.6-0.7
		c0.1-0.3,0.2-0.6,0.2-1c0-0.4-0.1-0.7-0.2-1s-0.3-0.5-0.6-0.7c-0.3-0.2-0.7-0.2-1.1-0.2h-1.8v8.2H301.9z"/>
	<path d="M310.1,54.2v-7.1h1.3v1.1h0.1c0.1-0.4,0.4-0.7,0.7-0.9c0.3-0.2,0.7-0.3,1.1-0.3c0.1,0,0.2,0,0.3,0c0.1,0,0.2,0,0.3,0v1.3
		c-0.1,0-0.2,0-0.3-0.1s-0.3,0-0.4,0c-0.3,0-0.6,0.1-0.9,0.2c-0.3,0.1-0.5,0.3-0.6,0.6c-0.1,0.2-0.2,0.5-0.2,0.8v4.3H310.1z"/>
	<path d="M318.1,54.4c-0.7,0-1.2-0.2-1.7-0.5s-0.9-0.7-1.2-1.3s-0.4-1.2-0.4-1.9c0-0.7,0.1-1.4,0.4-1.9s0.7-1,1.2-1.3
		s1.1-0.5,1.7-0.5c0.7,0,1.2,0.2,1.7,0.5s0.9,0.7,1.2,1.3s0.4,1.2,0.4,1.9c0,0.7-0.1,1.4-0.4,1.9s-0.7,1-1.2,1.3
		S318.7,54.4,318.1,54.4z M318.1,53.2c0.4,0,0.8-0.1,1.1-0.3c0.3-0.2,0.5-0.5,0.6-0.9c0.1-0.4,0.2-0.8,0.2-1.3
		c0-0.5-0.1-0.9-0.2-1.2c-0.1-0.4-0.3-0.7-0.6-0.9c-0.3-0.2-0.6-0.3-1.1-0.3c-0.4,0-0.8,0.1-1.1,0.3c-0.3,0.2-0.5,0.5-0.6,0.9
		c-0.1,0.4-0.2,0.8-0.2,1.2c0,0.5,0.1,0.9,0.2,1.3c0.1,0.4,0.3,0.7,0.6,0.9C317.3,53.1,317.6,53.2,318.1,53.2z"/>
	<path d="M329,47.1l-2.6,7.1h-1.5l-2.6-7.1h1.5l1.8,5.5h0.1l1.8-5.5H329z"/>
	<path d="M331,46.1c-0.2,0-0.4-0.1-0.6-0.2s-0.3-0.4-0.3-0.6c0-0.2,0.1-0.4,0.3-0.6s0.4-0.2,0.6-0.2s0.4,0.1,0.6,0.2
		s0.3,0.4,0.3,0.6c0,0.2-0.1,0.4-0.3,0.6S331.2,46.1,331,46.1z M330.3,54.2v-7.1h1.4v7.1H330.3z"/>
	<path d="M336.2,54.4c-0.6,0-1.1-0.1-1.5-0.4c-0.4-0.3-0.8-0.7-1.1-1.3s-0.4-1.2-0.4-2c0-0.8,0.1-1.4,0.4-2c0.3-0.5,0.6-1,1.1-1.3
		c0.4-0.3,1-0.4,1.5-0.4c0.4,0,0.8,0.1,1.1,0.2c0.3,0.1,0.5,0.3,0.6,0.5c0.1,0.2,0.3,0.4,0.3,0.5h0.1v-3.5h1.4v9.5h-1.3v-1.1h-0.1
		c-0.1,0.2-0.2,0.3-0.4,0.5c-0.2,0.2-0.4,0.4-0.6,0.5C337,54.3,336.6,54.4,336.2,54.4z M336.5,53.2c0.4,0,0.7-0.1,1-0.3
		c0.3-0.2,0.5-0.5,0.6-0.9s0.2-0.8,0.2-1.3c0-0.5-0.1-0.9-0.2-1.3c-0.1-0.4-0.3-0.7-0.6-0.9c-0.3-0.2-0.6-0.3-1-0.3
		c-0.4,0-0.8,0.1-1,0.3c-0.3,0.2-0.5,0.5-0.6,0.9s-0.2,0.8-0.2,1.3c0,0.5,0.1,0.9,0.2,1.3s0.4,0.7,0.6,0.9
		C335.7,53.1,336.1,53.2,336.5,53.2z"/>
	<path d="M344.7,54.4c-0.7,0-1.3-0.1-1.8-0.5c-0.5-0.3-0.9-0.7-1.2-1.3c-0.3-0.5-0.4-1.2-0.4-1.9c0-0.7,0.1-1.4,0.4-1.9
		c0.3-0.6,0.7-1,1.1-1.3c0.5-0.3,1.1-0.5,1.7-0.5c0.4,0,0.8,0.1,1.2,0.2s0.7,0.3,1,0.6c0.3,0.3,0.5,0.6,0.7,1.1
		c0.2,0.5,0.3,1,0.3,1.6v0.5h-5.6v-1h4.3c0-0.4-0.1-0.7-0.2-1c-0.1-0.3-0.4-0.5-0.6-0.7s-0.6-0.2-0.9-0.2c-0.4,0-0.7,0.1-1,0.3
		c-0.3,0.2-0.5,0.4-0.7,0.7s-0.2,0.6-0.2,1V51c0,0.5,0.1,0.9,0.3,1.2c0.2,0.3,0.4,0.6,0.7,0.8c0.3,0.2,0.7,0.3,1.1,0.3
		c0.3,0,0.5,0,0.7-0.1c0.2-0.1,0.4-0.2,0.6-0.3c0.2-0.2,0.3-0.3,0.4-0.6l1.3,0.2c-0.1,0.4-0.3,0.7-0.6,1c-0.3,0.3-0.6,0.5-1,0.7
		C345.7,54.3,345.2,54.4,344.7,54.4z"/>
	<path d="M302.3,65.1c0,1-0.2,1.9-0.6,2.6c-0.4,0.7-0.9,1.3-1.5,1.7c-0.6,0.4-1.4,0.6-2.2,0.6c-0.8,0-1.5-0.2-2.2-0.6
		c-0.6-0.4-1.1-0.9-1.5-1.7c-0.4-0.7-0.6-1.6-0.6-2.6c0-1,0.2-1.9,0.6-2.6c0.4-0.7,0.9-1.3,1.5-1.7c0.6-0.4,1.4-0.6,2.2-0.6
		c0.8,0,1.5,0.2,2.2,0.6c0.6,0.4,1.1,0.9,1.5,1.7C302.1,63.2,302.3,64.1,302.3,65.1z M300.9,65.1c0-0.8-0.1-1.4-0.4-1.9
		c-0.2-0.5-0.6-0.9-1-1.2c-0.4-0.3-0.9-0.4-1.5-0.4c-0.5,0-1,0.1-1.5,0.4s-0.8,0.7-1,1.2c-0.2,0.5-0.4,1.2-0.4,1.9
		c0,0.8,0.1,1.4,0.4,1.9c0.2,0.5,0.6,0.9,1,1.2s0.9,0.4,1.5,0.4c0.5,0,1-0.1,1.5-0.4c0.4-0.3,0.8-0.7,1-1.2
		C300.8,66.5,300.9,65.9,300.9,65.1z"/>
	<path d="M305.4,65.6v4.2H304v-7.1h1.3v1.2h0.1c0.2-0.4,0.4-0.7,0.8-0.9c0.3-0.2,0.8-0.3,1.3-0.3c0.5,0,0.9,0.1,1.3,0.3
		c0.4,0.2,0.6,0.5,0.8,0.9c0.2,0.4,0.3,0.9,0.3,1.5v4.5h-1.4v-4.3c0-0.5-0.1-0.9-0.4-1.2c-0.3-0.3-0.6-0.4-1.1-0.4
		c-0.3,0-0.6,0.1-0.9,0.2c-0.2,0.1-0.4,0.3-0.6,0.6S305.4,65.3,305.4,65.6z"/>
	<path d="M314.8,70c-0.7,0-1.3-0.1-1.8-0.5c-0.5-0.3-0.9-0.7-1.2-1.3c-0.3-0.5-0.4-1.2-0.4-1.9c0-0.7,0.1-1.4,0.4-1.9
		c0.3-0.6,0.7-1,1.1-1.3c0.5-0.3,1.1-0.5,1.7-0.5c0.4,0,0.8,0.1,1.2,0.2s0.7,0.3,1,0.6c0.3,0.3,0.5,0.6,0.7,1.1
		c0.2,0.5,0.3,1,0.3,1.6v0.5h-5.6v-1h4.3c0-0.4-0.1-0.7-0.2-1c-0.1-0.3-0.4-0.5-0.6-0.7c-0.3-0.2-0.6-0.2-0.9-0.2
		c-0.4,0-0.7,0.1-1,0.3c-0.3,0.2-0.5,0.4-0.7,0.7s-0.2,0.6-0.2,1v0.8c0,0.5,0.1,0.9,0.3,1.2c0.2,0.3,0.4,0.6,0.7,0.8
		c0.3,0.2,0.7,0.3,1.1,0.3c0.3,0,0.5,0,0.7-0.1c0.2-0.1,0.4-0.2,0.6-0.3c0.2-0.2,0.3-0.3,0.4-0.6l1.3,0.2c-0.1,0.4-0.3,0.7-0.6,1
		c-0.3,0.3-0.6,0.5-1,0.7C315.8,69.9,315.3,70,314.8,70z"/>
	<path d="M322.5,61.6v-1.2h7.3v1.2h-3v8.2h-1.4v-8.2H322.5z"/>
	<path d="M332,61.7c-0.2,0-0.4-0.1-0.6-0.2s-0.3-0.4-0.3-0.6c0-0.2,0.1-0.4,0.3-0.6s0.4-0.2,0.6-0.2s0.4,0.1,0.6,0.2
		s0.3,0.4,0.3,0.6c0,0.2-0.1,0.4-0.3,0.6S332.2,61.7,332,61.7z M331.3,69.8v-7.1h1.4v7.1H331.3z"/>
	<path d="M334.5,69.8v-7.1h1.3v1.2h0.1c0.1-0.4,0.4-0.7,0.7-0.9c0.3-0.2,0.7-0.3,1.2-0.3c0.5,0,0.9,0.1,1.2,0.3
		c0.3,0.2,0.6,0.5,0.7,0.9h0.1c0.2-0.4,0.4-0.7,0.8-0.9c0.4-0.2,0.8-0.3,1.3-0.3c0.6,0,1.2,0.2,1.6,0.6c0.4,0.4,0.6,1,0.6,1.8v4.8
		h-1.4v-4.6c0-0.5-0.1-0.8-0.4-1c-0.3-0.2-0.6-0.3-0.9-0.3c-0.4,0-0.8,0.1-1,0.4c-0.2,0.3-0.4,0.6-0.4,1.1v4.5h-1.4v-4.7
		c0-0.4-0.1-0.7-0.4-0.9c-0.2-0.2-0.6-0.4-0.9-0.4c-0.3,0-0.5,0.1-0.7,0.2c-0.2,0.1-0.4,0.3-0.5,0.6c-0.1,0.2-0.2,0.5-0.2,0.8v4.4
		H334.5z"/>
	<path d="M349.1,70c-0.7,0-1.3-0.1-1.8-0.5c-0.5-0.3-0.9-0.7-1.2-1.3c-0.3-0.5-0.4-1.2-0.4-1.9c0-0.7,0.1-1.4,0.4-1.9
		c0.3-0.6,0.7-1,1.1-1.3c0.5-0.3,1.1-0.5,1.7-0.5c0.4,0,0.8,0.1,1.2,0.2s0.7,0.3,1,0.6c0.3,0.3,0.5,0.6,0.7,1.1
		c0.2,0.5,0.3,1,0.3,1.6v0.5h-5.6v-1h4.3c0-0.4-0.1-0.7-0.2-1c-0.1-0.3-0.4-0.5-0.6-0.7c-0.3-0.2-0.6-0.2-0.9-0.2
		c-0.4,0-0.7,0.1-1,0.3c-0.3,0.2-0.5,0.4-0.7,0.7s-0.2,0.6-0.2,1v0.8c0,0.5,0.1,0.9,0.3,1.2c0.2,0.3,0.4,0.6,0.7,0.8
		c0.3,0.2,0.7,0.3,1.1,0.3c0.3,0,0.5,0,0.7-0.1c0.2-0.1,0.4-0.2,0.6-0.3c0.2-0.2,0.3-0.3,0.4-0.6l1.3,0.2c-0.1,0.4-0.3,0.7-0.6,1
		c-0.3,0.3-0.6,0.5-1,0.7C350,69.9,349.6,70,349.1,70z"/>
	<path d="M295,85.4V76h3.4c0.7,0,1.3,0.1,1.8,0.4c0.5,0.3,0.8,0.6,1.1,1.1c0.2,0.5,0.4,1,0.4,1.6c0,0.6-0.1,1.1-0.4,1.6
		c-0.2,0.5-0.6,0.8-1.1,1.1c-0.5,0.3-1.1,0.4-1.8,0.4H296v-1.2h2.2c0.5,0,0.8-0.1,1.1-0.2c0.3-0.2,0.5-0.4,0.6-0.7
		c0.1-0.3,0.2-0.6,0.2-1c0-0.4-0.1-0.7-0.2-1s-0.3-0.5-0.6-0.7c-0.3-0.2-0.7-0.2-1.1-0.2h-1.8v8.2H295z"/>
	<path d="M305.2,85.6c-0.4,0-0.9-0.1-1.2-0.3c-0.4-0.2-0.7-0.4-0.9-0.7c-0.2-0.3-0.3-0.7-0.3-1.2c0-0.4,0.1-0.7,0.2-1
		c0.2-0.3,0.4-0.5,0.6-0.6c0.3-0.2,0.6-0.3,0.9-0.3c0.3-0.1,0.7-0.1,1-0.2c0.4,0,0.8-0.1,1-0.1c0.3,0,0.5-0.1,0.6-0.2
		c0.1-0.1,0.2-0.2,0.2-0.4v0c0-0.4-0.1-0.7-0.3-0.9c-0.2-0.2-0.6-0.3-1-0.3c-0.5,0-0.8,0.1-1.1,0.3c-0.3,0.2-0.5,0.4-0.6,0.7
		l-1.3-0.3c0.2-0.4,0.4-0.8,0.7-1c0.3-0.3,0.6-0.5,1-0.6s0.8-0.2,1.2-0.2c0.3,0,0.6,0,0.9,0.1c0.3,0.1,0.6,0.2,0.9,0.4
		c0.3,0.2,0.5,0.4,0.7,0.8c0.2,0.3,0.3,0.7,0.3,1.3v4.7h-1.3v-1h-0.1c-0.1,0.2-0.2,0.4-0.4,0.5c-0.2,0.2-0.4,0.3-0.7,0.4
		C306,85.5,305.6,85.6,305.2,85.6z M305.5,84.5c0.4,0,0.7-0.1,1-0.2s0.5-0.3,0.6-0.6c0.1-0.2,0.2-0.5,0.2-0.8V82
		c0,0-0.1,0.1-0.3,0.1c-0.1,0-0.3,0.1-0.5,0.1c-0.2,0-0.4,0.1-0.5,0.1c-0.2,0-0.3,0-0.4,0.1c-0.3,0-0.5,0.1-0.7,0.2
		c-0.2,0.1-0.4,0.2-0.5,0.3c-0.1,0.1-0.2,0.3-0.2,0.6c0,0.3,0.1,0.6,0.4,0.8S305.2,84.5,305.5,84.5z"/>
	<path d="M315.9,80.1l-1.3,0.2c-0.1-0.2-0.1-0.3-0.2-0.5c-0.1-0.1-0.3-0.3-0.5-0.4s-0.4-0.1-0.7-0.1c-0.4,0-0.7,0.1-1,0.3
		c-0.3,0.2-0.4,0.4-0.4,0.7c0,0.2,0.1,0.4,0.3,0.6c0.2,0.1,0.5,0.3,0.8,0.4l1.1,0.3c0.7,0.2,1.1,0.4,1.5,0.7
		c0.3,0.3,0.5,0.7,0.5,1.2c0,0.4-0.1,0.8-0.4,1.1c-0.2,0.3-0.6,0.6-1,0.8c-0.4,0.2-0.9,0.3-1.5,0.3c-0.8,0-1.4-0.2-1.9-0.5
		c-0.5-0.3-0.8-0.8-0.9-1.5l1.3-0.2c0.1,0.3,0.3,0.6,0.5,0.8c0.3,0.2,0.6,0.3,1,0.3c0.5,0,0.8-0.1,1.1-0.3c0.3-0.2,0.4-0.4,0.4-0.7
		c0-0.2-0.1-0.4-0.2-0.6s-0.4-0.3-0.8-0.3l-1.2-0.3c-0.7-0.2-1.2-0.4-1.5-0.7c-0.3-0.3-0.5-0.7-0.5-1.3c0-0.4,0.1-0.8,0.4-1.1
		s0.6-0.6,1-0.7c0.4-0.2,0.9-0.3,1.4-0.3c0.8,0,1.4,0.2,1.8,0.5C315.5,79.1,315.8,79.5,315.9,80.1z"/>
	<path d="M322.9,80.1l-1.3,0.2c-0.1-0.2-0.1-0.3-0.2-0.5c-0.1-0.1-0.3-0.3-0.5-0.4s-0.4-0.1-0.7-0.1c-0.4,0-0.7,0.1-1,0.3
		c-0.3,0.2-0.4,0.4-0.4,0.7c0,0.2,0.1,0.4,0.3,0.6c0.2,0.1,0.5,0.3,0.8,0.4l1.1,0.3c0.7,0.2,1.1,0.4,1.5,0.7
		c0.3,0.3,0.5,0.7,0.5,1.2c0,0.4-0.1,0.8-0.4,1.1c-0.2,0.3-0.6,0.6-1,0.8c-0.4,0.2-0.9,0.3-1.5,0.3c-0.8,0-1.4-0.2-1.9-0.5
		c-0.5-0.3-0.8-0.8-0.9-1.5l1.3-0.2c0.1,0.3,0.3,0.6,0.5,0.8c0.3,0.2,0.6,0.3,1,0.3c0.5,0,0.8-0.1,1.1-0.3c0.3-0.2,0.4-0.4,0.4-0.7
		c0-0.2-0.1-0.4-0.2-0.6s-0.4-0.3-0.8-0.3l-1.2-0.3c-0.7-0.2-1.2-0.4-1.5-0.7c-0.3-0.3-0.5-0.7-0.5-1.3c0-0.4,0.1-0.8,0.4-1.1
		s0.6-0.6,1-0.7c0.4-0.2,0.9-0.3,1.4-0.3c0.8,0,1.4,0.2,1.8,0.5C322.4,79.1,322.7,79.5,322.9,80.1z"/>
	<path d="M326,85.4l-2.1-7.1h1.4l1.4,5.2h0.1l1.4-5.2h1.4l1.4,5.2h0.1l1.4-5.2h1.4l-2.1,7.1h-1.4l-1.4-5.1h-0.1l-1.4,5.1H326z"/>
	<path d="M338.2,85.6c-0.7,0-1.2-0.2-1.7-0.5s-0.9-0.7-1.2-1.3s-0.4-1.2-0.4-1.9c0-0.7,0.1-1.4,0.4-1.9s0.7-1,1.2-1.3
		s1.1-0.5,1.7-0.5c0.7,0,1.2,0.2,1.7,0.5s0.9,0.7,1.2,1.3s0.4,1.2,0.4,1.9c0,0.7-0.1,1.4-0.4,1.9s-0.7,1-1.2,1.3
		S338.9,85.6,338.2,85.6z M338.2,84.4c0.4,0,0.8-0.1,1.1-0.3c0.3-0.2,0.5-0.5,0.6-0.9c0.1-0.4,0.2-0.8,0.2-1.3
		c0-0.5-0.1-0.9-0.2-1.2c-0.1-0.4-0.3-0.7-0.6-0.9c-0.3-0.2-0.6-0.3-1.1-0.3c-0.4,0-0.8,0.1-1.1,0.3c-0.3,0.2-0.5,0.5-0.6,0.9
		c-0.1,0.4-0.2,0.8-0.2,1.2c0,0.5,0.1,0.9,0.2,1.3c0.1,0.4,0.3,0.7,0.6,0.9C337.4,84.3,337.8,84.4,338.2,84.4z"/>
	<path d="M343.1,85.4v-7.1h1.3v1.1h0.1c0.1-0.4,0.4-0.7,0.7-0.9c0.3-0.2,0.7-0.3,1.1-0.3c0.1,0,0.2,0,0.3,0c0.1,0,0.2,0,0.3,0v1.3
		c-0.1,0-0.2,0-0.3-0.1s-0.3,0-0.4,0c-0.3,0-0.6,0.1-0.9,0.2c-0.3,0.1-0.5,0.3-0.6,0.6c-0.1,0.2-0.2,0.5-0.2,0.8v4.3H343.1z"/>
	<path d="M350.7,85.6c-0.6,0-1.1-0.1-1.5-0.4c-0.4-0.3-0.8-0.7-1.1-1.3s-0.4-1.2-0.4-2c0-0.8,0.1-1.4,0.4-2c0.3-0.5,0.6-1,1.1-1.3
		c0.4-0.3,1-0.4,1.5-0.4c0.4,0,0.8,0.1,1.1,0.2c0.3,0.1,0.5,0.3,0.6,0.5c0.1,0.2,0.3,0.4,0.3,0.5h0.1V76h1.4v9.5h-1.3v-1.1h-0.1
		c-0.1,0.2-0.2,0.3-0.4,0.5c-0.2,0.2-0.4,0.4-0.6,0.5C351.5,85.5,351.1,85.6,350.7,85.6z M351,84.4c0.4,0,0.7-0.1,1-0.3
		c0.3-0.2,0.5-0.5,0.6-0.9s0.2-0.8,0.2-1.3c0-0.5-0.1-0.9-0.2-1.3c-0.1-0.4-0.3-0.7-0.6-0.9c-0.3-0.2-0.6-0.3-1-0.3
		c-0.4,0-0.8,0.1-1,0.3c-0.3,0.2-0.5,0.5-0.6,0.9s-0.2,0.8-0.2,1.3c0,0.5,0.1,0.9,0.2,1.3s0.4,0.7,0.6,0.9
		C350.3,84.3,350.6,84.4,351,84.4z"/>
</g>
<g>
	<path d="M430.8,46.2h-1.5l3.4-9.5h1.6l3.4,9.5h-1.5l-2.7-7.7h-0.1L430.8,46.2z M431.1,42.5h4.9v1.2h-4.9V42.5z"/>
	<path d="M442,46.4c-0.7,0-1.3-0.2-1.8-0.5c-0.5-0.3-0.9-0.7-1.1-1.3c-0.3-0.6-0.4-1.2-0.4-1.9c0-0.7,0.1-1.4,0.4-1.9
		c0.3-0.6,0.7-1,1.1-1.3c0.5-0.3,1.1-0.5,1.7-0.5c0.5,0,1,0.1,1.4,0.3c0.4,0.2,0.8,0.5,1,0.8s0.4,0.8,0.5,1.3h-1.3
		c-0.1-0.3-0.2-0.6-0.5-0.9c-0.3-0.2-0.6-0.4-1.1-0.4c-0.4,0-0.7,0.1-1,0.3c-0.3,0.2-0.5,0.5-0.7,0.9c-0.2,0.4-0.2,0.8-0.2,1.3
		c0,0.5,0.1,1,0.2,1.3c0.2,0.4,0.4,0.7,0.7,0.9c0.3,0.2,0.6,0.3,1,0.3c0.3,0,0.5,0,0.7-0.1c0.2-0.1,0.4-0.2,0.5-0.4
		c0.1-0.2,0.2-0.4,0.3-0.7h1.3c0,0.5-0.2,0.9-0.4,1.2c-0.2,0.4-0.6,0.6-1,0.8C443.1,46.3,442.6,46.4,442,46.4z"/>
	<path d="M449.4,46.4c-0.7,0-1.3-0.2-1.8-0.5c-0.5-0.3-0.9-0.7-1.1-1.3c-0.3-0.6-0.4-1.2-0.4-1.9c0-0.7,0.1-1.4,0.4-1.9
		c0.3-0.6,0.7-1,1.1-1.3c0.5-0.3,1.1-0.5,1.7-0.5c0.5,0,1,0.1,1.4,0.3c0.4,0.2,0.8,0.5,1,0.8s0.4,0.8,0.5,1.3H451
		c-0.1-0.3-0.2-0.6-0.5-0.9c-0.3-0.2-0.6-0.4-1.1-0.4c-0.4,0-0.7,0.1-1,0.3c-0.3,0.2-0.5,0.5-0.7,0.9c-0.2,0.4-0.2,0.8-0.2,1.3
		c0,0.5,0.1,1,0.2,1.3c0.2,0.4,0.4,0.7,0.7,0.9c0.3,0.2,0.6,0.3,1,0.3c0.3,0,0.5,0,0.7-0.1c0.2-0.1,0.4-0.2,0.5-0.4
		c0.1-0.2,0.2-0.4,0.3-0.7h1.3c0,0.5-0.2,0.9-0.4,1.2c-0.2,0.4-0.6,0.6-1,0.8C450.4,46.3,449.9,46.4,449.4,46.4z"/>
	<path d="M456.8,46.4c-0.7,0-1.2-0.2-1.7-0.5s-0.9-0.7-1.2-1.3s-0.4-1.2-0.4-1.9c0-0.7,0.1-1.4,0.4-1.9s0.7-1,1.2-1.3
		s1.1-0.5,1.7-0.5c0.7,0,1.2,0.2,1.7,0.5s0.9,0.7,1.2,1.3s0.4,1.2,0.4,1.9c0,0.7-0.1,1.4-0.4,1.9s-0.7,1-1.2,1.3
		S457.4,46.4,456.8,46.4z M456.8,45.2c0.4,0,0.8-0.1,1.1-0.3c0.3-0.2,0.5-0.5,0.6-0.9c0.1-0.4,0.2-0.8,0.2-1.3
		c0-0.5-0.1-0.9-0.2-1.2c-0.1-0.4-0.3-0.7-0.6-0.9c-0.3-0.2-0.6-0.3-1.1-0.3c-0.4,0-0.8,0.1-1.1,0.3c-0.3,0.2-0.5,0.5-0.6,0.9
		c-0.1,0.4-0.2,0.8-0.2,1.2c0,0.5,0.1,0.9,0.2,1.3c0.1,0.4,0.3,0.7,0.6,0.9C456,45.1,456.3,45.2,456.8,45.2z"/>
	<path d="M466.1,43.3v-4.1h1.4v7.1h-1.4V45h-0.1c-0.2,0.4-0.4,0.7-0.8,0.9c-0.4,0.3-0.8,0.4-1.3,0.4c-0.5,0-0.9-0.1-1.2-0.3
		s-0.6-0.5-0.8-0.9c-0.2-0.4-0.3-0.9-0.3-1.5v-4.5h1.4v4.3c0,0.5,0.1,0.9,0.4,1.2c0.3,0.3,0.6,0.4,1,0.4c0.3,0,0.5-0.1,0.8-0.2
		c0.3-0.1,0.5-0.3,0.6-0.6C466,44,466.1,43.7,466.1,43.3z"/>
	<path d="M470.7,42v4.2h-1.4v-7.1h1.3v1.2h0.1c0.2-0.4,0.4-0.7,0.8-0.9c0.3-0.2,0.8-0.3,1.3-0.3c0.5,0,0.9,0.1,1.3,0.3
		c0.4,0.2,0.6,0.5,0.8,0.9c0.2,0.4,0.3,0.9,0.3,1.5v4.5h-1.4v-4.3c0-0.5-0.1-0.9-0.4-1.2c-0.3-0.3-0.6-0.4-1.1-0.4
		c-0.3,0-0.6,0.1-0.9,0.2c-0.2,0.1-0.4,0.3-0.6,0.6S470.7,41.7,470.7,42z"/>
	<path d="M480.4,39.2v1.1h-3.9v-1.1H480.4z M477.6,37.5h1.4v6.7c0,0.3,0,0.5,0.1,0.6s0.2,0.2,0.3,0.3c0.1,0,0.3,0.1,0.4,0.1
		c0.1,0,0.2,0,0.3,0c0.1,0,0.1,0,0.2,0l0.2,1.1c-0.1,0-0.2,0.1-0.3,0.1c-0.1,0-0.3,0.1-0.6,0.1c-0.4,0-0.7-0.1-1-0.2
		s-0.6-0.3-0.8-0.6s-0.3-0.6-0.3-1.1V37.5z"/>
	<path d="M431.7,55.5h-1.4c-0.1-0.3-0.2-0.6-0.3-0.8s-0.3-0.4-0.6-0.6c-0.2-0.2-0.5-0.3-0.7-0.4s-0.6-0.1-0.9-0.1
		c-0.5,0-1,0.1-1.5,0.4s-0.8,0.7-1,1.2c-0.2,0.5-0.4,1.2-0.4,1.9c0,0.8,0.1,1.4,0.4,1.9c0.2,0.5,0.6,0.9,1,1.2
		c0.4,0.3,0.9,0.4,1.5,0.4c0.3,0,0.6,0,0.9-0.1c0.3-0.1,0.5-0.2,0.7-0.4c0.2-0.2,0.4-0.4,0.6-0.6c0.2-0.2,0.3-0.5,0.3-0.8l1.4,0
		c-0.1,0.5-0.2,0.9-0.4,1.3c-0.2,0.4-0.5,0.7-0.8,1s-0.7,0.5-1.2,0.7c-0.4,0.2-0.9,0.2-1.4,0.2c-0.8,0-1.5-0.2-2.2-0.6
		c-0.6-0.4-1.1-0.9-1.5-1.7c-0.4-0.7-0.6-1.6-0.6-2.6c0-1,0.2-1.9,0.6-2.6c0.4-0.7,0.9-1.3,1.5-1.7c0.6-0.4,1.4-0.6,2.2-0.6
		c0.5,0,1,0.1,1.4,0.2s0.8,0.4,1.2,0.6s0.6,0.6,0.9,1C431.4,54.5,431.6,55,431.7,55.5z"/>
	<path d="M433.3,61.8v-7.1h1.3v1.1h0.1c0.1-0.4,0.4-0.7,0.7-0.9c0.3-0.2,0.7-0.3,1.1-0.3c0.1,0,0.2,0,0.3,0c0.1,0,0.2,0,0.3,0V56
		c-0.1,0-0.2,0-0.3-0.1s-0.3,0-0.4,0c-0.3,0-0.6,0.1-0.9,0.2c-0.3,0.1-0.5,0.3-0.6,0.6c-0.1,0.2-0.2,0.5-0.2,0.8v4.3H433.3z"/>
	<path d="M441.3,62c-0.7,0-1.3-0.1-1.8-0.5c-0.5-0.3-0.9-0.7-1.2-1.3c-0.3-0.5-0.4-1.2-0.4-1.9c0-0.7,0.1-1.4,0.4-1.9
		c0.3-0.6,0.7-1,1.1-1.3c0.5-0.3,1.1-0.5,1.7-0.5c0.4,0,0.8,0.1,1.2,0.2s0.7,0.3,1,0.6c0.3,0.3,0.5,0.6,0.7,1.1
		c0.2,0.5,0.3,1,0.3,1.6v0.5h-5.6v-1h4.3c0-0.4-0.1-0.7-0.2-1c-0.1-0.3-0.4-0.5-0.6-0.7s-0.6-0.2-0.9-0.2c-0.4,0-0.7,0.1-1,0.3
		c-0.3,0.2-0.5,0.4-0.7,0.7s-0.2,0.6-0.2,1v0.8c0,0.5,0.1,0.9,0.3,1.2c0.2,0.3,0.4,0.6,0.7,0.8c0.3,0.2,0.7,0.3,1.1,0.3
		c0.3,0,0.5,0,0.7-0.1c0.2-0.1,0.4-0.2,0.6-0.3c0.2-0.2,0.3-0.3,0.4-0.6l1.3,0.2c-0.1,0.4-0.3,0.7-0.6,1c-0.3,0.3-0.6,0.5-1,0.7
		C442.3,61.9,441.8,62,441.3,62z"/>
	<path d="M448.6,62c-0.6,0-1.1-0.1-1.5-0.4c-0.4-0.3-0.8-0.7-1.1-1.3s-0.4-1.2-0.4-2c0-0.8,0.1-1.4,0.4-2c0.3-0.5,0.6-1,1.1-1.3
		c0.4-0.3,1-0.4,1.5-0.4c0.4,0,0.8,0.1,1.1,0.2c0.3,0.1,0.5,0.3,0.6,0.5c0.1,0.2,0.3,0.4,0.3,0.5h0.1v-3.5h1.4v9.5h-1.3v-1.1h-0.1
		c-0.1,0.2-0.2,0.3-0.4,0.5c-0.2,0.2-0.4,0.4-0.6,0.5C449.3,61.9,449,62,448.6,62z M448.9,60.8c0.4,0,0.7-0.1,1-0.3
		c0.3-0.2,0.5-0.5,0.6-0.9s0.2-0.8,0.2-1.3c0-0.5-0.1-0.9-0.2-1.3c-0.1-0.4-0.3-0.7-0.6-0.9c-0.3-0.2-0.6-0.3-1-0.3
		c-0.4,0-0.8,0.1-1,0.3c-0.3,0.2-0.5,0.5-0.6,0.9s-0.2,0.8-0.2,1.3c0,0.5,0.1,0.9,0.2,1.3s0.4,0.7,0.6,0.9
		C448.1,60.7,448.5,60.8,448.9,60.8z"/>
	<path d="M457.1,62c-0.7,0-1.3-0.1-1.8-0.5c-0.5-0.3-0.9-0.7-1.2-1.3c-0.3-0.5-0.4-1.2-0.4-1.9c0-0.7,0.1-1.4,0.4-1.9
		c0.3-0.6,0.7-1,1.1-1.3c0.5-0.3,1.1-0.5,1.7-0.5c0.4,0,0.8,0.1,1.2,0.2s0.7,0.3,1,0.6c0.3,0.3,0.5,0.6,0.7,1.1
		c0.2,0.5,0.3,1,0.3,1.6v0.5h-5.6v-1h4.3c0-0.4-0.1-0.7-0.2-1c-0.1-0.3-0.4-0.5-0.6-0.7s-0.6-0.2-0.9-0.2c-0.4,0-0.7,0.1-1,0.3
		c-0.3,0.2-0.5,0.4-0.7,0.7s-0.2,0.6-0.2,1v0.8c0,0.5,0.1,0.9,0.3,1.2c0.2,0.3,0.4,0.6,0.7,0.8c0.3,0.2,0.7,0.3,1.1,0.3
		c0.3,0,0.5,0,0.7-0.1c0.2-0.1,0.4-0.2,0.6-0.3c0.2-0.2,0.3-0.3,0.4-0.6l1.3,0.2c-0.1,0.4-0.3,0.7-0.6,1c-0.3,0.3-0.6,0.5-1,0.7
		C458.1,61.9,457.6,62,457.1,62z"/>
	<path d="M463.1,57.6v4.2h-1.4v-7.1h1.3v1.2h0.1c0.2-0.4,0.4-0.7,0.8-0.9c0.3-0.2,0.8-0.3,1.3-0.3c0.5,0,0.9,0.1,1.3,0.3
		c0.4,0.2,0.6,0.5,0.8,0.9c0.2,0.4,0.3,0.9,0.3,1.5v4.5h-1.4v-4.3c0-0.5-0.1-0.9-0.4-1.2c-0.3-0.3-0.6-0.4-1.1-0.4
		c-0.3,0-0.6,0.1-0.9,0.2c-0.2,0.1-0.4,0.3-0.6,0.6S463.1,57.3,463.1,57.6z"/>
	<path d="M472.8,54.8v1.1h-3.9v-1.1H472.8z M469.9,53.1h1.4v6.7c0,0.3,0,0.5,0.1,0.6s0.2,0.2,0.3,0.3c0.1,0,0.3,0.1,0.4,0.1
		c0.1,0,0.2,0,0.3,0c0.1,0,0.1,0,0.2,0l0.2,1.1c-0.1,0-0.2,0.1-0.3,0.1c-0.1,0-0.3,0.1-0.6,0.1c-0.4,0-0.7-0.1-1-0.2
		s-0.6-0.3-0.8-0.6s-0.3-0.6-0.3-1.1V53.1z"/>
	<path d="M475,53.7c-0.2,0-0.4-0.1-0.6-0.2s-0.3-0.4-0.3-0.6c0-0.2,0.1-0.4,0.3-0.6s0.4-0.2,0.6-0.2s0.4,0.1,0.6,0.2
		s0.3,0.4,0.3,0.6c0,0.2-0.1,0.4-0.3,0.6S475.2,53.7,475,53.7z M474.3,61.8v-7.1h1.4v7.1H474.3z"/>
	<path d="M479.6,62c-0.4,0-0.9-0.1-1.2-0.3c-0.4-0.2-0.7-0.4-0.9-0.7c-0.2-0.3-0.3-0.7-0.3-1.2c0-0.4,0.1-0.7,0.2-1
		c0.2-0.3,0.4-0.5,0.6-0.6c0.3-0.2,0.6-0.3,0.9-0.3c0.3-0.1,0.7-0.1,1-0.2c0.4,0,0.8-0.1,1-0.1c0.3,0,0.5-0.1,0.6-0.2
		c0.1-0.1,0.2-0.2,0.2-0.4v0c0-0.4-0.1-0.7-0.3-0.9c-0.2-0.2-0.6-0.3-1-0.3c-0.5,0-0.8,0.1-1.1,0.3c-0.3,0.2-0.5,0.4-0.6,0.7
		l-1.3-0.3c0.2-0.4,0.4-0.8,0.7-1c0.3-0.3,0.6-0.5,1-0.6s0.8-0.2,1.2-0.2c0.3,0,0.6,0,0.9,0.1c0.3,0.1,0.6,0.2,0.9,0.4
		c0.3,0.2,0.5,0.4,0.7,0.8c0.2,0.3,0.3,0.7,0.3,1.3v4.7h-1.3v-1h-0.1c-0.1,0.2-0.2,0.4-0.4,0.5c-0.2,0.2-0.4,0.3-0.7,0.4
		C480.3,61.9,480,62,479.6,62z M479.9,60.9c0.4,0,0.7-0.1,1-0.2s0.5-0.3,0.6-0.6c0.1-0.2,0.2-0.5,0.2-0.8v-0.9c0,0-0.1,0.1-0.3,0.1
		c-0.1,0-0.3,0.1-0.5,0.1c-0.2,0-0.4,0.1-0.5,0.1c-0.2,0-0.3,0-0.4,0.1c-0.3,0-0.5,0.1-0.7,0.2c-0.2,0.1-0.4,0.2-0.5,0.3
		c-0.1,0.1-0.2,0.3-0.2,0.6c0,0.3,0.1,0.6,0.4,0.8S479.5,60.9,479.9,60.9z"/>
	<path d="M486.3,52.4v9.5h-1.4v-9.5H486.3z"/>
	<path d="M424.9,73.2v4.2h-1.4V68h1.4v3.5h0.1c0.2-0.4,0.4-0.7,0.8-0.9s0.8-0.3,1.3-0.3c0.5,0,0.9,0.1,1.3,0.3
		c0.4,0.2,0.6,0.5,0.8,0.9c0.2,0.4,0.3,0.9,0.3,1.5v4.5h-1.4v-4.3c0-0.5-0.1-0.9-0.4-1.2c-0.3-0.3-0.6-0.4-1.1-0.4
		c-0.3,0-0.6,0.1-0.9,0.2s-0.5,0.3-0.6,0.6C425,72.5,424.9,72.9,424.9,73.2z"/>
	<path d="M433.4,77.6c-0.4,0-0.9-0.1-1.2-0.3c-0.4-0.2-0.7-0.4-0.9-0.7c-0.2-0.3-0.3-0.7-0.3-1.2c0-0.4,0.1-0.7,0.2-1
		c0.2-0.3,0.4-0.5,0.6-0.6c0.3-0.2,0.6-0.3,0.9-0.3c0.3-0.1,0.7-0.1,1-0.2c0.4,0,0.8-0.1,1-0.1c0.3,0,0.5-0.1,0.6-0.2
		c0.1-0.1,0.2-0.2,0.2-0.4v0c0-0.4-0.1-0.7-0.3-0.9c-0.2-0.2-0.6-0.3-1-0.3c-0.5,0-0.8,0.1-1.1,0.3c-0.3,0.2-0.5,0.4-0.6,0.7
		l-1.3-0.3c0.2-0.4,0.4-0.8,0.7-1c0.3-0.3,0.6-0.5,1-0.6s0.8-0.2,1.2-0.2c0.3,0,0.6,0,0.9,0.1c0.3,0.1,0.6,0.2,0.9,0.4
		c0.3,0.2,0.5,0.4,0.7,0.8c0.2,0.3,0.3,0.7,0.3,1.3v4.7h-1.3v-1h-0.1c-0.1,0.2-0.2,0.4-0.4,0.5c-0.2,0.2-0.4,0.3-0.7,0.4
		C434.1,77.5,433.8,77.6,433.4,77.6z M433.7,76.5c0.4,0,0.7-0.1,1-0.2s0.5-0.3,0.6-0.6c0.1-0.2,0.2-0.5,0.2-0.8V74
		c0,0-0.1,0.1-0.3,0.1c-0.1,0-0.3,0.1-0.5,0.1c-0.2,0-0.4,0.1-0.5,0.1c-0.2,0-0.3,0-0.4,0.1c-0.3,0-0.5,0.1-0.7,0.2
		c-0.2,0.1-0.4,0.2-0.5,0.3c-0.1,0.1-0.2,0.3-0.2,0.6c0,0.3,0.1,0.6,0.4,0.8S433.3,76.5,433.7,76.5z"/>
	<path d="M444.8,70.4l-2.6,7.1h-1.5l-2.6-7.1h1.5l1.8,5.5h0.1l1.8-5.5H444.8z"/>
	<path d="M449.2,77.6c-0.7,0-1.3-0.1-1.8-0.5c-0.5-0.3-0.9-0.7-1.2-1.3c-0.3-0.5-0.4-1.2-0.4-1.9c0-0.7,0.1-1.4,0.4-1.9
		c0.3-0.6,0.7-1,1.1-1.3c0.5-0.3,1.1-0.5,1.7-0.5c0.4,0,0.8,0.1,1.2,0.2s0.7,0.3,1,0.6c0.3,0.3,0.5,0.6,0.7,1.1
		c0.2,0.5,0.3,1,0.3,1.6v0.5h-5.6v-1h4.3c0-0.4-0.1-0.7-0.2-1c-0.1-0.3-0.4-0.5-0.6-0.7s-0.6-0.2-0.9-0.2c-0.4,0-0.7,0.1-1,0.3
		c-0.3,0.2-0.5,0.4-0.7,0.7s-0.2,0.6-0.2,1v0.8c0,0.5,0.1,0.9,0.3,1.2c0.2,0.3,0.4,0.6,0.7,0.8c0.3,0.2,0.7,0.3,1.1,0.3
		c0.3,0,0.5,0,0.7-0.1c0.2-0.1,0.4-0.2,0.6-0.3c0.2-0.2,0.3-0.3,0.4-0.6l1.3,0.2c-0.1,0.4-0.3,0.7-0.6,1c-0.3,0.3-0.6,0.5-1,0.7
		C450.1,77.5,449.7,77.6,449.2,77.6z"/>
	<path d="M457.3,77.4V68h1.4v3.5h0.1c0.1-0.1,0.2-0.3,0.3-0.5c0.2-0.2,0.4-0.4,0.6-0.5c0.3-0.1,0.6-0.2,1.1-0.2
		c0.6,0,1.1,0.1,1.5,0.4c0.4,0.3,0.8,0.7,1.1,1.3c0.3,0.5,0.4,1.2,0.4,2c0,0.8-0.1,1.4-0.4,2s-0.6,1-1.1,1.3c-0.4,0.3-1,0.4-1.5,0.4
		c-0.4,0-0.8-0.1-1.1-0.2s-0.5-0.3-0.6-0.5s-0.3-0.4-0.4-0.5h-0.1v1.1H457.3z M458.6,73.9c0,0.5,0.1,0.9,0.2,1.3
		c0.1,0.4,0.4,0.7,0.6,0.9s0.6,0.3,1,0.3c0.4,0,0.8-0.1,1-0.3c0.3-0.2,0.5-0.5,0.6-0.9s0.2-0.8,0.2-1.3c0-0.5-0.1-0.9-0.2-1.3
		c-0.1-0.4-0.3-0.7-0.6-0.9c-0.3-0.2-0.6-0.3-1-0.3c-0.4,0-0.7,0.1-1,0.3c-0.3,0.2-0.5,0.5-0.6,0.9C458.7,73,458.6,73.4,458.6,73.9z
		"/>
	<path d="M468.4,77.6c-0.7,0-1.3-0.1-1.8-0.5c-0.5-0.3-0.9-0.7-1.2-1.3c-0.3-0.5-0.4-1.2-0.4-1.9c0-0.7,0.1-1.4,0.4-1.9
		c0.3-0.6,0.7-1,1.1-1.3c0.5-0.3,1.1-0.5,1.7-0.5c0.4,0,0.8,0.1,1.2,0.2s0.7,0.3,1,0.6c0.3,0.3,0.5,0.6,0.7,1.1
		c0.2,0.5,0.3,1,0.3,1.6v0.5h-5.6v-1h4.3c0-0.4-0.1-0.7-0.2-1c-0.1-0.3-0.4-0.5-0.6-0.7s-0.6-0.2-0.9-0.2c-0.4,0-0.7,0.1-1,0.3
		c-0.3,0.2-0.5,0.4-0.7,0.7s-0.2,0.6-0.2,1v0.8c0,0.5,0.1,0.9,0.3,1.2c0.2,0.3,0.4,0.6,0.7,0.8c0.3,0.2,0.7,0.3,1.1,0.3
		c0.3,0,0.5,0,0.7-0.1c0.2-0.1,0.4-0.2,0.6-0.3c0.2-0.2,0.3-0.3,0.4-0.6l1.3,0.2c-0.1,0.4-0.3,0.7-0.6,1c-0.3,0.3-0.6,0.5-1,0.7
		C469.3,77.5,468.9,77.6,468.4,77.6z"/>
	<path d="M476,77.6c-0.7,0-1.3-0.1-1.8-0.5c-0.5-0.3-0.9-0.7-1.2-1.3c-0.3-0.5-0.4-1.2-0.4-1.9c0-0.7,0.1-1.4,0.4-1.9
		c0.3-0.6,0.7-1,1.1-1.3c0.5-0.3,1.1-0.5,1.7-0.5c0.4,0,0.8,0.1,1.2,0.2s0.7,0.3,1,0.6c0.3,0.3,0.5,0.6,0.7,1.1
		c0.2,0.5,0.3,1,0.3,1.6v0.5h-5.6v-1h4.3c0-0.4-0.1-0.7-0.2-1c-0.1-0.3-0.4-0.5-0.6-0.7s-0.6-0.2-0.9-0.2c-0.4,0-0.7,0.1-1,0.3
		c-0.3,0.2-0.5,0.4-0.7,0.7s-0.2,0.6-0.2,1v0.8c0,0.5,0.1,0.9,0.3,1.2c0.2,0.3,0.4,0.6,0.7,0.8c0.3,0.2,0.7,0.3,1.1,0.3
		c0.3,0,0.5,0,0.7-0.1c0.2-0.1,0.4-0.2,0.6-0.3c0.2-0.2,0.3-0.3,0.4-0.6l1.3,0.2c-0.1,0.4-0.3,0.7-0.6,1c-0.3,0.3-0.6,0.5-1,0.7
		C477,77.5,476.5,77.6,476,77.6z"/>
	<path d="M482,73.2v4.2h-1.4v-7.1h1.3v1.2h0.1c0.2-0.4,0.4-0.7,0.8-0.9c0.3-0.2,0.8-0.3,1.3-0.3c0.5,0,0.9,0.1,1.3,0.3
		c0.4,0.2,0.6,0.5,0.8,0.9c0.2,0.4,0.3,0.9,0.3,1.5v4.5h-1.4v-4.3c0-0.5-0.1-0.9-0.4-1.2c-0.3-0.3-0.6-0.4-1.1-0.4
		c-0.3,0-0.6,0.1-0.9,0.2c-0.2,0.1-0.4,0.3-0.6,0.6S482,72.9,482,73.2z"/>
	<path d="M421.3,87.7l-1.3,0.2c-0.1-0.2-0.1-0.3-0.2-0.5c-0.1-0.1-0.3-0.3-0.5-0.4s-0.4-0.1-0.7-0.1c-0.4,0-0.7,0.1-1,0.3
		c-0.3,0.2-0.4,0.4-0.4,0.7c0,0.2,0.1,0.4,0.3,0.6c0.2,0.1,0.5,0.3,0.8,0.4l1.1,0.3c0.7,0.2,1.1,0.4,1.5,0.7
		c0.3,0.3,0.5,0.7,0.5,1.2c0,0.4-0.1,0.8-0.4,1.1c-0.2,0.3-0.6,0.6-1,0.8c-0.4,0.2-0.9,0.3-1.5,0.3c-0.8,0-1.4-0.2-1.9-0.5
		c-0.5-0.3-0.8-0.8-0.9-1.5L417,91c0.1,0.3,0.3,0.6,0.5,0.8c0.3,0.2,0.6,0.3,1,0.3c0.5,0,0.8-0.1,1.1-0.3c0.3-0.2,0.4-0.4,0.4-0.7
		c0-0.2-0.1-0.4-0.2-0.6s-0.4-0.3-0.8-0.3l-1.2-0.3c-0.7-0.2-1.2-0.4-1.5-0.7c-0.3-0.3-0.5-0.7-0.5-1.3c0-0.4,0.1-0.8,0.4-1.1
		s0.6-0.6,1-0.7c0.4-0.2,0.9-0.3,1.4-0.3c0.8,0,1.4,0.2,1.8,0.5C420.8,86.7,421.1,87.1,421.3,87.7z"/>
	<path d="M426,93.2c-0.7,0-1.3-0.1-1.8-0.5c-0.5-0.3-0.9-0.7-1.2-1.3c-0.3-0.5-0.4-1.2-0.4-1.9c0-0.7,0.1-1.4,0.4-1.9
		c0.3-0.6,0.7-1,1.1-1.3c0.5-0.3,1.1-0.5,1.7-0.5c0.4,0,0.8,0.1,1.2,0.2s0.7,0.3,1,0.6c0.3,0.3,0.5,0.6,0.7,1.1
		c0.2,0.5,0.3,1,0.3,1.6v0.5h-5.6v-1h4.3c0-0.4-0.1-0.7-0.2-1c-0.1-0.3-0.4-0.5-0.6-0.7s-0.6-0.2-0.9-0.2c-0.4,0-0.7,0.1-1,0.3
		c-0.3,0.2-0.5,0.4-0.7,0.7s-0.2,0.6-0.2,1v0.8c0,0.5,0.1,0.9,0.3,1.2c0.2,0.3,0.4,0.6,0.7,0.8c0.3,0.2,0.7,0.3,1.1,0.3
		c0.3,0,0.5,0,0.7-0.1c0.2-0.1,0.4-0.2,0.6-0.3c0.2-0.2,0.3-0.3,0.4-0.6l1.3,0.2c-0.1,0.4-0.3,0.7-0.6,1c-0.3,0.3-0.6,0.5-1,0.7
		C427,93.1,426.5,93.2,426,93.2z"/>
	<path d="M431.9,88.8V93h-1.4V86h1.3v1.2h0.1c0.2-0.4,0.4-0.7,0.8-0.9c0.3-0.2,0.8-0.3,1.3-0.3c0.5,0,0.9,0.1,1.3,0.3
		c0.4,0.2,0.6,0.5,0.8,0.9c0.2,0.4,0.3,0.9,0.3,1.5V93h-1.4v-4.3c0-0.5-0.1-0.9-0.4-1.2c-0.3-0.3-0.6-0.4-1.1-0.4
		c-0.3,0-0.6,0.1-0.9,0.2c-0.2,0.1-0.4,0.3-0.6,0.6S431.9,88.5,431.9,88.8z"/>
	<path d="M441.6,86v1.1h-3.9V86H441.6z M438.8,84.3h1.4V91c0,0.3,0,0.5,0.1,0.6s0.2,0.2,0.3,0.3c0.1,0,0.3,0.1,0.4,0.1
		c0.1,0,0.2,0,0.3,0c0.1,0,0.1,0,0.2,0l0.2,1.1c-0.1,0-0.2,0.1-0.3,0.1c-0.1,0-0.3,0.1-0.6,0.1c-0.4,0-0.7-0.1-1-0.2
		s-0.6-0.3-0.8-0.6s-0.3-0.6-0.3-1.1V84.3z"/>
	<path d="M449.9,86v1.1H446V86H449.9z M447.1,84.3h1.4V91c0,0.3,0,0.5,0.1,0.6s0.2,0.2,0.3,0.3c0.1,0,0.3,0.1,0.4,0.1
		c0.1,0,0.2,0,0.3,0c0.1,0,0.1,0,0.2,0L450,93c-0.1,0-0.2,0.1-0.3,0.1c-0.1,0-0.3,0.1-0.6,0.1c-0.4,0-0.7-0.1-1-0.2
		s-0.6-0.3-0.8-0.6s-0.3-0.6-0.3-1.1V84.3z"/>
	<path d="M454.4,93.2c-0.7,0-1.2-0.2-1.7-0.5s-0.9-0.7-1.2-1.3s-0.4-1.2-0.4-1.9c0-0.7,0.1-1.4,0.4-1.9s0.7-1,1.2-1.3
		s1.1-0.5,1.7-0.5c0.7,0,1.2,0.2,1.7,0.5s0.9,0.7,1.2,1.3s0.4,1.2,0.4,1.9c0,0.7-0.1,1.4-0.4,1.9s-0.7,1-1.2,1.3
		S455.1,93.2,454.4,93.2z M454.4,92c0.4,0,0.8-0.1,1.1-0.3c0.3-0.2,0.5-0.5,0.6-0.9c0.1-0.4,0.2-0.8,0.2-1.3c0-0.5-0.1-0.9-0.2-1.2
		c-0.1-0.4-0.3-0.7-0.6-0.9c-0.3-0.2-0.6-0.3-1.1-0.3c-0.4,0-0.8,0.1-1.1,0.3c-0.3,0.2-0.5,0.5-0.6,0.9c-0.1,0.4-0.2,0.8-0.2,1.2
		c0,0.5,0.1,0.9,0.2,1.3c0.1,0.4,0.3,0.7,0.6,0.9C453.6,91.9,454,92,454.4,92z"/>
	<path d="M462.8,93v-9.5h5.9v1.2h-4.5v2.9h4.2v1.2h-4.2v2.9h4.6V93H462.8z"/>
	<path d="M470.5,93V86h1.3v1.2h0.1c0.1-0.4,0.4-0.7,0.7-0.9c0.3-0.2,0.7-0.3,1.2-0.3c0.5,0,0.9,0.1,1.2,0.3c0.3,0.2,0.6,0.5,0.7,0.9
		h0.1c0.2-0.4,0.4-0.7,0.8-0.9c0.4-0.2,0.8-0.3,1.3-0.3c0.6,0,1.2,0.2,1.6,0.6c0.4,0.4,0.6,1,0.6,1.8V93h-1.4v-4.6
		c0-0.5-0.1-0.8-0.4-1s-0.6-0.3-0.9-0.3c-0.4,0-0.8,0.1-1,0.4c-0.2,0.3-0.4,0.6-0.4,1.1V93h-1.4v-4.7c0-0.4-0.1-0.7-0.4-0.9
		c-0.2-0.2-0.6-0.4-0.9-0.4c-0.3,0-0.5,0.1-0.7,0.2c-0.2,0.1-0.4,0.3-0.5,0.6c-0.1,0.2-0.2,0.5-0.2,0.8V93H470.5z"/>
	<path d="M484.1,93.2c-0.4,0-0.9-0.1-1.2-0.3c-0.4-0.2-0.7-0.4-0.9-0.7c-0.2-0.3-0.3-0.7-0.3-1.2c0-0.4,0.1-0.7,0.2-1
		c0.2-0.3,0.4-0.5,0.6-0.6c0.3-0.2,0.6-0.3,0.9-0.3c0.3-0.1,0.7-0.1,1-0.2c0.4,0,0.8-0.1,1-0.1c0.3,0,0.5-0.1,0.6-0.2
		c0.1-0.1,0.2-0.2,0.2-0.4v0c0-0.4-0.1-0.7-0.3-0.9c-0.2-0.2-0.6-0.3-1-0.3c-0.5,0-0.8,0.1-1.1,0.3c-0.3,0.2-0.5,0.4-0.6,0.7
		l-1.3-0.3c0.2-0.4,0.4-0.8,0.7-1c0.3-0.3,0.6-0.5,1-0.6s0.8-0.2,1.2-0.2c0.3,0,0.6,0,0.9,0.1c0.3,0.1,0.6,0.2,0.9,0.4
		c0.3,0.2,0.5,0.4,0.7,0.8c0.2,0.3,0.3,0.7,0.3,1.3V93h-1.3v-1h-0.1c-0.1,0.2-0.2,0.4-0.4,0.5c-0.2,0.2-0.4,0.3-0.7,0.4
		C484.8,93.1,484.5,93.2,484.1,93.2z M484.4,92.1c0.4,0,0.7-0.1,1-0.2s0.5-0.3,0.6-0.6c0.1-0.2,0.2-0.5,0.2-0.8v-0.9
		c0,0-0.1,0.1-0.3,0.1c-0.1,0-0.3,0.1-0.5,0.1c-0.2,0-0.4,0.1-0.5,0.1c-0.2,0-0.3,0-0.4,0.1c-0.3,0-0.5,0.1-0.7,0.2
		c-0.2,0.1-0.4,0.2-0.5,0.3c-0.1,0.1-0.2,0.3-0.2,0.6c0,0.3,0.1,0.6,0.4,0.8S484,92.1,484.4,92.1z"/>
	<path d="M490.1,84.9c-0.2,0-0.4-0.1-0.6-0.2s-0.3-0.4-0.3-0.6c0-0.2,0.1-0.4,0.3-0.6s0.4-0.2,0.6-0.2s0.4,0.1,0.6,0.2
		s0.3,0.4,0.3,0.6c0,0.2-0.1,0.4-0.3,0.6S490.4,84.9,490.1,84.9z M489.4,93V86h1.4V93H489.4z"/>
	<path d="M494,83.6V93h-1.4v-9.5H494z"/>
</g>
<g>
	<path d="M557.3,54.2v-9.5h1.4V53h4.3v1.2H557.3z"/>
	<path d="M567.5,54.4c-0.7,0-1.2-0.2-1.7-0.5s-0.9-0.7-1.2-1.3s-0.4-1.2-0.4-1.9c0-0.7,0.1-1.4,0.4-1.9s0.7-1,1.2-1.3
		s1.1-0.5,1.7-0.5c0.7,0,1.2,0.2,1.7,0.5s0.9,0.7,1.2,1.3s0.4,1.2,0.4,1.9c0,0.7-0.1,1.4-0.4,1.9s-0.7,1-1.2,1.3
		S568.2,54.4,567.5,54.4z M567.5,53.2c0.4,0,0.8-0.1,1.1-0.3c0.3-0.2,0.5-0.5,0.6-0.9c0.1-0.4,0.2-0.8,0.2-1.3
		c0-0.5-0.1-0.9-0.2-1.2c-0.1-0.4-0.3-0.7-0.6-0.9c-0.3-0.2-0.6-0.3-1.1-0.3c-0.4,0-0.8,0.1-1.1,0.3c-0.3,0.2-0.5,0.5-0.6,0.9
		c-0.1,0.4-0.2,0.8-0.2,1.2c0,0.5,0.1,0.9,0.2,1.3c0.1,0.4,0.3,0.7,0.6,0.9C566.7,53.1,567.1,53.2,567.5,53.2z"/>
	<path d="M573.8,50v4.2h-1.4v-7.1h1.3v1.2h0.1c0.2-0.4,0.4-0.7,0.8-0.9c0.3-0.2,0.8-0.3,1.3-0.3c0.5,0,0.9,0.1,1.3,0.3
		c0.4,0.2,0.6,0.5,0.8,0.9c0.2,0.4,0.3,0.9,0.3,1.5v4.5h-1.4v-4.3c0-0.5-0.1-0.9-0.4-1.2c-0.3-0.3-0.6-0.4-1.1-0.4
		c-0.3,0-0.6,0.1-0.9,0.2c-0.2,0.1-0.4,0.3-0.6,0.6S573.8,49.7,573.8,50z"/>
	<path d="M580.8,46.1c-0.2,0-0.4-0.1-0.6-0.2s-0.3-0.4-0.3-0.6c0-0.2,0.1-0.4,0.3-0.6s0.4-0.2,0.6-0.2s0.4,0.1,0.6,0.2
		s0.3,0.4,0.3,0.6c0,0.2-0.1,0.4-0.3,0.6S581.1,46.1,580.8,46.1z M580.1,54.2v-7.1h1.4v7.1H580.1z"/>
	<path d="M584.8,50v4.2h-1.4v-7.1h1.3v1.2h0.1c0.2-0.4,0.4-0.7,0.8-0.9c0.3-0.2,0.8-0.3,1.3-0.3c0.5,0,0.9,0.1,1.3,0.3
		c0.4,0.2,0.6,0.5,0.8,0.9c0.2,0.4,0.3,0.9,0.3,1.5v4.5h-1.4v-4.3c0-0.5-0.1-0.9-0.4-1.2c-0.3-0.3-0.6-0.4-1.1-0.4
		c-0.3,0-0.6,0.1-0.9,0.2c-0.2,0.1-0.4,0.3-0.6,0.6S584.8,49.7,584.8,50z"/>
	<path d="M596.1,54.2l-2.1-7.1h1.4l1.4,5.2h0.1l1.4-5.2h1.4l1.4,5.2h0.1l1.4-5.2h1.4l-2.1,7.1h-1.4l-1.4-5.1H599l-1.4,5.1H596.1z"/>
	<path d="M606,46.1c-0.2,0-0.4-0.1-0.6-0.2s-0.3-0.4-0.3-0.6c0-0.2,0.1-0.4,0.3-0.6s0.4-0.2,0.6-0.2s0.4,0.1,0.6,0.2
		s0.3,0.4,0.3,0.6c0,0.2-0.1,0.4-0.3,0.6S606.2,46.1,606,46.1z M605.3,54.2v-7.1h1.4v7.1H605.3z"/>
	<path d="M611.9,47.1v1.1H608v-1.1H611.9z M609,45.4h1.4v6.7c0,0.3,0,0.5,0.1,0.6s0.2,0.2,0.3,0.3c0.1,0,0.3,0.1,0.4,0.1
		c0.1,0,0.2,0,0.3,0c0.1,0,0.1,0,0.2,0l0.2,1.1c-0.1,0-0.2,0.1-0.3,0.1c-0.1,0-0.3,0.1-0.6,0.1c-0.4,0-0.7-0.1-1-0.2
		s-0.6-0.3-0.8-0.6s-0.3-0.6-0.3-1.1V45.4z"/>
	<path d="M614.8,50v4.2h-1.4v-9.5h1.4v3.5h0.1c0.2-0.4,0.4-0.7,0.8-0.9s0.8-0.3,1.3-0.3c0.5,0,0.9,0.1,1.3,0.3
		c0.4,0.2,0.6,0.5,0.8,0.9c0.2,0.4,0.3,0.9,0.3,1.5v4.5H618v-4.3c0-0.5-0.1-0.9-0.4-1.2c-0.3-0.3-0.6-0.4-1.1-0.4
		c-0.3,0-0.6,0.1-0.9,0.2s-0.5,0.3-0.6,0.6C614.8,49.3,614.8,49.7,614.8,50z"/>
	<path d="M577.5,65.6v4.2h-1.4v-7.1h1.3v1.2h0.1c0.2-0.4,0.4-0.7,0.8-0.9c0.3-0.2,0.8-0.3,1.3-0.3c0.5,0,0.9,0.1,1.3,0.3
		c0.4,0.2,0.6,0.5,0.8,0.9c0.2,0.4,0.3,0.9,0.3,1.5v4.5h-1.4v-4.3c0-0.5-0.1-0.9-0.4-1.2c-0.3-0.3-0.6-0.4-1.1-0.4
		c-0.3,0-0.6,0.1-0.9,0.2c-0.2,0.1-0.4,0.3-0.6,0.6S577.5,65.3,577.5,65.6z"/>
	<path d="M587,70c-0.7,0-1.3-0.1-1.8-0.5c-0.5-0.3-0.9-0.7-1.2-1.3c-0.3-0.5-0.4-1.2-0.4-1.9c0-0.7,0.1-1.4,0.4-1.9
		c0.3-0.6,0.7-1,1.1-1.3c0.5-0.3,1.1-0.5,1.7-0.5c0.4,0,0.8,0.1,1.2,0.2s0.7,0.3,1,0.6c0.3,0.3,0.5,0.6,0.7,1.1
		c0.2,0.5,0.3,1,0.3,1.6v0.5h-5.6v-1h4.3c0-0.4-0.1-0.7-0.2-1c-0.1-0.3-0.4-0.5-0.6-0.7c-0.3-0.2-0.6-0.2-0.9-0.2
		c-0.4,0-0.7,0.1-1,0.3c-0.3,0.2-0.5,0.4-0.7,0.7s-0.2,0.6-0.2,1v0.8c0,0.5,0.1,0.9,0.3,1.2c0.2,0.3,0.4,0.6,0.7,0.8
		c0.3,0.2,0.7,0.3,1.1,0.3c0.3,0,0.5,0,0.7-0.1c0.2-0.1,0.4-0.2,0.6-0.3c0.2-0.2,0.3-0.3,0.4-0.6l1.3,0.2c-0.1,0.4-0.3,0.7-0.6,1
		c-0.3,0.3-0.6,0.5-1,0.7C587.9,69.9,587.5,70,587,70z"/>
	<path d="M593.1,69.8l-2.1-7.1h1.4l1.4,5.2h0.1l1.4-5.2h1.4l1.4,5.2h0.1l1.4-5.2h1.4l-2.1,7.1h-1.4l-1.4-5.1h-0.1l-1.4,5.1H593.1z"
		/>
	<path d="M561.1,85.6c-0.7,0-1.3-0.2-1.8-0.5c-0.5-0.3-0.9-0.7-1.1-1.3c-0.3-0.6-0.4-1.2-0.4-1.9c0-0.7,0.1-1.4,0.4-1.9
		c0.3-0.6,0.7-1,1.1-1.3c0.5-0.3,1.1-0.5,1.7-0.5c0.5,0,1,0.1,1.4,0.3c0.4,0.2,0.8,0.5,1,0.8s0.4,0.8,0.5,1.3h-1.3
		c-0.1-0.3-0.2-0.6-0.5-0.9c-0.3-0.2-0.6-0.4-1.1-0.4c-0.4,0-0.7,0.1-1,0.3c-0.3,0.2-0.5,0.5-0.7,0.9c-0.2,0.4-0.2,0.8-0.2,1.3
		c0,0.5,0.1,1,0.2,1.3c0.2,0.4,0.4,0.7,0.7,0.9c0.3,0.2,0.6,0.3,1,0.3c0.3,0,0.5,0,0.7-0.1c0.2-0.1,0.4-0.2,0.5-0.4
		c0.1-0.2,0.2-0.4,0.3-0.7h1.3c0,0.5-0.2,0.9-0.4,1.2c-0.2,0.4-0.6,0.6-1,0.8C562.1,85.5,561.6,85.6,561.1,85.6z"/>
	<path d="M565.5,85.4v-7.1h1.3v1.1h0.1c0.1-0.4,0.4-0.7,0.7-0.9c0.3-0.2,0.7-0.3,1.1-0.3c0.1,0,0.2,0,0.3,0c0.1,0,0.2,0,0.3,0v1.3
		c-0.1,0-0.2,0-0.3-0.1s-0.3,0-0.4,0c-0.3,0-0.6,0.1-0.9,0.2c-0.3,0.1-0.5,0.3-0.6,0.6c-0.1,0.2-0.2,0.5-0.2,0.8v4.3H565.5z"/>
	<path d="M573.5,85.6c-0.7,0-1.3-0.1-1.8-0.5c-0.5-0.3-0.9-0.7-1.2-1.3c-0.3-0.5-0.4-1.2-0.4-1.9c0-0.7,0.1-1.4,0.4-1.9
		c0.3-0.6,0.7-1,1.1-1.3c0.5-0.3,1.1-0.5,1.7-0.5c0.4,0,0.8,0.1,1.2,0.2s0.7,0.3,1,0.6c0.3,0.3,0.5,0.6,0.7,1.1
		c0.2,0.5,0.3,1,0.3,1.6v0.5h-5.6v-1h4.3c0-0.4-0.1-0.7-0.2-1c-0.1-0.3-0.4-0.5-0.6-0.7s-0.6-0.2-0.9-0.2c-0.4,0-0.7,0.1-1,0.3
		c-0.3,0.2-0.5,0.4-0.7,0.7s-0.2,0.6-0.2,1v0.8c0,0.5,0.1,0.9,0.3,1.2c0.2,0.3,0.4,0.6,0.7,0.8c0.3,0.2,0.7,0.3,1.1,0.3
		c0.3,0,0.5,0,0.7-0.1c0.2-0.1,0.4-0.2,0.6-0.3c0.2-0.2,0.3-0.3,0.4-0.6l1.3,0.2c-0.1,0.4-0.3,0.7-0.6,1c-0.3,0.3-0.6,0.5-1,0.7
		C574.5,85.5,574,85.6,573.5,85.6z"/>
	<path d="M580.8,85.6c-0.6,0-1.1-0.1-1.5-0.4c-0.4-0.3-0.8-0.7-1.1-1.3s-0.4-1.2-0.4-2c0-0.8,0.1-1.4,0.4-2c0.3-0.5,0.6-1,1.1-1.3
		c0.4-0.3,1-0.4,1.5-0.4c0.4,0,0.8,0.1,1.1,0.2c0.3,0.1,0.5,0.3,0.6,0.5c0.1,0.2,0.3,0.4,0.3,0.5h0.1V76h1.4v9.5h-1.3v-1.1h-0.1
		c-0.1,0.2-0.2,0.3-0.4,0.5c-0.2,0.2-0.4,0.4-0.6,0.5C581.5,85.5,581.2,85.6,580.8,85.6z M581.1,84.4c0.4,0,0.7-0.1,1-0.3
		c0.3-0.2,0.5-0.5,0.6-0.9s0.2-0.8,0.2-1.3c0-0.5-0.1-0.9-0.2-1.3c-0.1-0.4-0.3-0.7-0.6-0.9c-0.3-0.2-0.6-0.3-1-0.3
		c-0.4,0-0.8,0.1-1,0.3c-0.3,0.2-0.5,0.5-0.6,0.9s-0.2,0.8-0.2,1.3c0,0.5,0.1,0.9,0.2,1.3s0.4,0.7,0.6,0.9
		C580.3,84.3,580.6,84.4,581.1,84.4z"/>
	<path d="M589.3,85.6c-0.7,0-1.3-0.1-1.8-0.5c-0.5-0.3-0.9-0.7-1.2-1.3c-0.3-0.5-0.4-1.2-0.4-1.9c0-0.7,0.1-1.4,0.4-1.9
		c0.3-0.6,0.7-1,1.1-1.3c0.5-0.3,1.1-0.5,1.7-0.5c0.4,0,0.8,0.1,1.2,0.2s0.7,0.3,1,0.6c0.3,0.3,0.5,0.6,0.7,1.1
		c0.2,0.5,0.3,1,0.3,1.6v0.5h-5.6v-1h4.3c0-0.4-0.1-0.7-0.2-1c-0.1-0.3-0.4-0.5-0.6-0.7s-0.6-0.2-0.9-0.2c-0.4,0-0.7,0.1-1,0.3
		c-0.3,0.2-0.5,0.4-0.7,0.7s-0.2,0.6-0.2,1v0.8c0,0.5,0.1,0.9,0.3,1.2c0.2,0.3,0.4,0.6,0.7,0.8c0.3,0.2,0.7,0.3,1.1,0.3
		c0.3,0,0.5,0,0.7-0.1c0.2-0.1,0.4-0.2,0.6-0.3c0.2-0.2,0.3-0.3,0.4-0.6l1.3,0.2c-0.1,0.4-0.3,0.7-0.6,1c-0.3,0.3-0.6,0.5-1,0.7
		C590.3,85.5,589.8,85.6,589.3,85.6z"/>
	<path d="M595.2,81.2v4.2h-1.4v-7.1h1.3v1.2h0.1c0.2-0.4,0.4-0.7,0.8-0.9c0.3-0.2,0.8-0.3,1.3-0.3c0.5,0,0.9,0.1,1.3,0.3
		c0.4,0.2,0.6,0.5,0.8,0.9c0.2,0.4,0.3,0.9,0.3,1.5v4.5h-1.4v-4.3c0-0.5-0.1-0.9-0.4-1.2c-0.3-0.3-0.6-0.4-1.1-0.4
		c-0.3,0-0.6,0.1-0.9,0.2c-0.2,0.1-0.4,0.3-0.6,0.6S595.2,80.9,595.2,81.2z"/>
	<path d="M604.9,78.3v1.1h-3.9v-1.1H604.9z M602.1,76.6h1.4v6.7c0,0.3,0,0.5,0.1,0.6s0.2,0.2,0.3,0.3c0.1,0,0.3,0.1,0.4,0.1
		c0.1,0,0.2,0,0.3,0c0.1,0,0.1,0,0.2,0l0.2,1.1c-0.1,0-0.2,0.1-0.3,0.1c-0.1,0-0.3,0.1-0.6,0.1c-0.4,0-0.7-0.1-1-0.2
		s-0.6-0.3-0.8-0.6s-0.3-0.6-0.3-1.1V76.6z"/>
	<path d="M607.2,77.3c-0.2,0-0.4-0.1-0.6-0.2s-0.3-0.4-0.3-0.6c0-0.2,0.1-0.4,0.3-0.6s0.4-0.2,0.6-0.2s0.4,0.1,0.6,0.2
		s0.3,0.4,0.3,0.6c0,0.2-0.1,0.4-0.3,0.6S607.4,77.3,607.2,77.3z M606.5,85.4v-7.1h1.4v7.1H606.5z"/>
	<path d="M611.8,85.6c-0.4,0-0.9-0.1-1.2-0.3c-0.4-0.2-0.7-0.4-0.9-0.7c-0.2-0.3-0.3-0.7-0.3-1.2c0-0.4,0.1-0.7,0.2-1
		c0.2-0.3,0.4-0.5,0.6-0.6c0.3-0.2,0.6-0.3,0.9-0.3c0.3-0.1,0.7-0.1,1-0.2c0.4,0,0.8-0.1,1-0.1c0.3,0,0.5-0.1,0.6-0.2
		c0.1-0.1,0.2-0.2,0.2-0.4v0c0-0.4-0.1-0.7-0.3-0.9c-0.2-0.2-0.6-0.3-1-0.3c-0.5,0-0.8,0.1-1.1,0.3c-0.3,0.2-0.5,0.4-0.6,0.7
		l-1.3-0.3c0.2-0.4,0.4-0.8,0.7-1c0.3-0.3,0.6-0.5,1-0.6s0.8-0.2,1.2-0.2c0.3,0,0.6,0,0.9,0.1c0.3,0.1,0.6,0.2,0.9,0.4
		c0.3,0.2,0.5,0.4,0.7,0.8c0.2,0.3,0.3,0.7,0.3,1.3v4.7h-1.3v-1h-0.1c-0.1,0.2-0.2,0.4-0.4,0.5c-0.2,0.2-0.4,0.3-0.7,0.4
		C612.5,85.5,612.2,85.6,611.8,85.6z M612.1,84.5c0.4,0,0.7-0.1,1-0.2s0.5-0.3,0.6-0.6c0.1-0.2,0.2-0.5,0.2-0.8V82
		c0,0-0.1,0.1-0.3,0.1c-0.1,0-0.3,0.1-0.5,0.1c-0.2,0-0.4,0.1-0.5,0.1c-0.2,0-0.3,0-0.4,0.1c-0.3,0-0.5,0.1-0.7,0.2
		c-0.2,0.1-0.4,0.2-0.5,0.3c-0.1,0.1-0.2,0.3-0.2,0.6c0,0.3,0.1,0.6,0.4,0.8S611.7,84.5,612.1,84.5z"/>
	<path d="M618.5,76v9.5h-1.4V76H618.5z"/>
</g>
</svg>
