<?xml version="1.0" encoding="utf-8"?>
<!-- Generator: Adobe Illustrator 26.0.1, SVG Export Plug-In . SVG Version: 6.00 Build 0)  -->
<svg version="1.1" id="Layer_1" xmlns="http://www.w3.org/2000/svg" xmlns:xlink="http://www.w3.org/1999/xlink" x="0px" y="0px"
	 viewBox="0 0 130 611.6" style="enable-background:new 0 0 130 611.6;" xml:space="preserve">
<style type="text/css">
	.st0{fill:#EC7E30;}
	.st1{fill:#FFFFFF;}
	.st2{fill:#A5A4A4;}
	.st3{fill:#FDC015;}
	.st4{fill:#4A72B8;}
	.st5{fill:#70AD45;}
</style>
<circle class="st0" cx="65" cy="546.6" r="65"/>
<circle class="st1" cx="65" cy="546.6" r="59.9"/>
<path class="st2" d="M127.7,426.6c0.3,39.2-36.2,61.2-62.2,83.9c-1.6,1.5-25.8-22.6-28.8-25.2C19,469.7,1.9,450.5,2.4,425.3
	c0.4-22.8,13.6-44.1,33.7-54.7c9-4.7,19.1-7.2,29.4-7.2C102.1,363.5,127.5,394.1,127.7,426.6z"/>
<circle class="st1" cx="65" cy="425.7" r="57"/>
<path class="st3" d="M127.7,308.4c0.3,39.2-36.2,61.2-62.2,83.9c-1.6,1.5-25.8-22.6-28.8-25.2C19,351.4,1.9,332.3,2.4,307.1
	C2.8,284.3,16,263,36.1,252.4c9-4.7,19.1-7.2,29.4-7.2C102.1,245.3,127.5,275.9,127.7,308.4z"/>
<circle class="st1" cx="65" cy="307.5" r="57"/>
<path class="st4" d="M127.7,190.3c0.3,39.2-36.2,61.2-62.2,83.9c-1.6,1.5-25.8-22.6-28.8-25.2C19,233.3,1.9,214.2,2.4,189
	c0.4-22.8,13.6-44.1,33.7-54.7c9-4.7,19.1-7.2,29.4-7.2C102.1,127.2,127.5,157.8,127.7,190.3z"/>
<circle class="st1" cx="65" cy="189.4" r="57"/>
<path class="st5" d="M127.7,63.2c0.3,39.2-36.2,61.2-62.2,83.9c-1.6,1.5-25.8-22.6-28.8-25.2C18.9,106.3,1.8,87.2,2.3,62
	C2.7,39.2,15.9,17.9,36.1,7.2C45,2.5,55.2,0,65.4,0C102.1,0.1,127.4,30.8,127.7,63.2z"/>
<circle class="st1" cx="64.9" cy="62.3" r="57"/>
<g>
	<path d="M52.3,53.5c-0.3-0.2-0.6-0.4-0.9-0.5c-0.3-0.1-0.6-0.2-0.9-0.3l-0.9-0.2c-0.2,0-0.4-0.1-0.6-0.2c-0.2-0.1-0.4-0.2-0.6-0.3
		c-0.2-0.1-0.3-0.2-0.4-0.4c-0.1-0.2-0.2-0.4-0.2-0.6c0-0.3,0.1-0.5,0.2-0.7c0.2-0.2,0.4-0.4,0.7-0.5s0.6-0.2,1-0.2
		c0.5,0,1,0.1,1.3,0.4s0.6,0.6,0.6,1h1.4c0-0.5-0.2-1-0.4-1.4c-0.3-0.4-0.7-0.7-1.2-0.9s-1.1-0.3-1.7-0.3c-0.6,0-1.2,0.1-1.7,0.3
		c-0.5,0.2-0.9,0.5-1.2,0.9s-0.4,0.9-0.4,1.4c0,0.7,0.2,1.2,0.7,1.6c0.4,0.4,1,0.7,1.8,0.9l1.1,0.3c0.3,0.1,0.6,0.2,0.9,0.3
		c0.3,0.1,0.5,0.3,0.6,0.4c0.2,0.2,0.2,0.4,0.2,0.7c0,0.3-0.1,0.6-0.3,0.8c-0.2,0.2-0.4,0.4-0.7,0.5s-0.7,0.2-1.1,0.2
		c-0.4,0-0.7-0.1-1-0.2c-0.3-0.1-0.6-0.3-0.8-0.5c-0.2-0.2-0.3-0.5-0.3-0.9h-1.4c0,0.6,0.2,1.1,0.5,1.5c0.3,0.4,0.7,0.7,1.2,1
		s1.1,0.3,1.8,0.3c0.7,0,1.4-0.1,1.9-0.4c0.5-0.2,0.9-0.6,1.2-1s0.4-0.9,0.4-1.4c0-0.4-0.1-0.8-0.3-1.1
		C52.8,53.9,52.6,53.7,52.3,53.5z"/>
	<path d="M56.1,57.6c0.5,0.3,1.1,0.5,1.8,0.5c0.5,0,1-0.1,1.4-0.2c0.4-0.2,0.7-0.4,1-0.7c0.3-0.3,0.5-0.6,0.6-1l-1.3-0.2
		c-0.1,0.2-0.2,0.4-0.4,0.6c-0.2,0.2-0.3,0.3-0.6,0.3c-0.2,0.1-0.5,0.1-0.7,0.1c-0.4,0-0.8-0.1-1.1-0.3c-0.3-0.2-0.5-0.4-0.7-0.8
		c-0.2-0.3-0.2-0.7-0.2-1.1h5v-0.5c0-0.6-0.1-1.2-0.3-1.6c-0.2-0.5-0.4-0.8-0.7-1.1c-0.3-0.3-0.6-0.5-1-0.6s-0.8-0.2-1.2-0.2
		c-0.7,0-1.2,0.2-1.7,0.5c-0.5,0.3-0.9,0.7-1.1,1.3c-0.3,0.6-0.4,1.2-0.4,1.9c0,0.7,0.1,1.4,0.4,1.9C55.2,56.9,55.6,57.3,56.1,57.6z
		 M56.1,52.9c0.2-0.3,0.4-0.5,0.7-0.7c0.3-0.2,0.6-0.3,1-0.3c0.4,0,0.7,0.1,0.9,0.2s0.5,0.4,0.6,0.7c0.1,0.3,0.2,0.6,0.2,1h-3.7
		C55.9,53.5,56,53.2,56.1,52.9z"/>
	<rect x="62.5" y="48.5" width="1.4" height="9.5"/>
	<path d="M67,57.6c0.5,0.3,1.1,0.5,1.8,0.5c0.5,0,1-0.1,1.4-0.2c0.4-0.2,0.7-0.4,1-0.7c0.3-0.3,0.5-0.6,0.6-1l-1.3-0.2
		c-0.1,0.2-0.2,0.4-0.4,0.6c-0.2,0.2-0.3,0.3-0.6,0.3c-0.2,0.1-0.5,0.1-0.7,0.1c-0.4,0-0.8-0.1-1.1-0.3c-0.3-0.2-0.5-0.4-0.7-0.8
		c-0.2-0.3-0.2-0.7-0.2-1.1h5v-0.5c0-0.6-0.1-1.2-0.3-1.6c-0.2-0.5-0.4-0.8-0.7-1.1c-0.3-0.3-0.6-0.5-1-0.6s-0.8-0.2-1.2-0.2
		c-0.7,0-1.2,0.2-1.7,0.5c-0.5,0.3-0.9,0.7-1.1,1.3c-0.3,0.6-0.4,1.2-0.4,1.9c0,0.7,0.1,1.4,0.4,1.9C66.1,56.9,66.5,57.3,67,57.6z
		 M67,52.9c0.2-0.3,0.4-0.5,0.7-0.7c0.3-0.2,0.6-0.3,1-0.3c0.4,0,0.7,0.1,0.9,0.2s0.5,0.4,0.6,0.7c0.1,0.3,0.2,0.6,0.2,1h-3.7
		C66.8,53.5,66.9,53.2,67,52.9z"/>
	<path d="M76.3,58.1c0.6,0,1-0.1,1.5-0.3c0.4-0.2,0.8-0.5,1-0.8c0.2-0.4,0.4-0.8,0.4-1.2h-1.3c-0.1,0.3-0.2,0.5-0.3,0.7
		c-0.1,0.2-0.3,0.3-0.5,0.4c-0.2,0.1-0.5,0.1-0.7,0.1c-0.4,0-0.7-0.1-1-0.3c-0.3-0.2-0.5-0.5-0.7-0.9c-0.2-0.4-0.2-0.8-0.2-1.3
		c0-0.5,0.1-0.9,0.2-1.3c0.2-0.4,0.4-0.7,0.7-0.9c0.3-0.2,0.6-0.3,1-0.3c0.4,0,0.8,0.1,1.1,0.4c0.3,0.2,0.4,0.5,0.5,0.9h1.3
		c0-0.5-0.2-0.9-0.5-1.3s-0.6-0.6-1-0.8c-0.4-0.2-0.9-0.3-1.4-0.3c-0.7,0-1.2,0.2-1.7,0.5c-0.5,0.3-0.9,0.7-1.1,1.3
		c-0.3,0.6-0.4,1.2-0.4,1.9c0,0.7,0.1,1.3,0.4,1.9c0.3,0.6,0.6,1,1.1,1.3C75.1,57.9,75.6,58.1,76.3,58.1z"/>
	<path d="M83.7,56.8c-0.1,0-0.2,0-0.3,0c-0.2,0-0.3,0-0.4-0.1c-0.1,0-0.2-0.1-0.3-0.3s-0.1-0.3-0.1-0.6v-3.9H84v-1.1h-1.5v-1.7h-1.4
		v1.7h-1v1.1h1v4.2c0,0.4,0.1,0.8,0.3,1.1s0.4,0.5,0.8,0.6s0.7,0.2,1,0.2c0.2,0,0.4,0,0.6-0.1c0.1,0,0.3-0.1,0.3-0.1l-0.2-1.1
		C83.9,56.7,83.8,56.8,83.7,56.8z"/>
	<path d="M24.3,64.1l-3.4,9.5h1.5l0.9-2.5H27l0.9,2.5h1.5L26,64.1H24.3z M23.7,69.8l1.4-4h0.1l1.4,4H23.7z"/>
	<path d="M35.1,70.6c0,0.4-0.1,0.7-0.3,1c-0.2,0.3-0.4,0.5-0.6,0.6c-0.3,0.1-0.5,0.2-0.8,0.2c-0.4,0-0.8-0.1-1-0.4
		c-0.3-0.3-0.4-0.7-0.4-1.2v-4.3h-1.4v4.5c0,0.6,0.1,1.1,0.3,1.5c0.2,0.4,0.5,0.7,0.8,0.9s0.8,0.3,1.2,0.3c0.5,0,1-0.1,1.3-0.4
		c0.4-0.3,0.6-0.6,0.8-0.9h0.1v1.2h1.4v-7.1h-1.4V70.6z"/>
	<path d="M41.3,72.4c-0.1,0-0.2,0-0.3,0c-0.2,0-0.3,0-0.4-0.1c-0.1,0-0.2-0.1-0.3-0.3s-0.1-0.3-0.1-0.6v-3.9h1.5v-1.1h-1.5v-1.7
		h-1.4v1.7h-1v1.1h1v4.2c0,0.4,0.1,0.8,0.3,1.1s0.4,0.5,0.8,0.6s0.7,0.2,1,0.2c0.2,0,0.4,0,0.6-0.1c0.1,0,0.3-0.1,0.3-0.1l-0.2-1.1
		C41.5,72.3,41.4,72.4,41.3,72.4z"/>
	<path d="M47.9,66.8c-0.5-0.3-1.1-0.5-1.7-0.5c-0.7,0-1.2,0.2-1.7,0.5s-0.9,0.7-1.2,1.3s-0.4,1.2-0.4,1.9c0,0.7,0.1,1.4,0.4,1.9
		s0.7,1,1.2,1.3s1.1,0.5,1.7,0.5c0.7,0,1.2-0.2,1.7-0.5s0.9-0.7,1.2-1.3s0.4-1.2,0.4-1.9c0-0.7-0.1-1.4-0.4-1.9S48.4,67.1,47.9,66.8
		z M47.9,71.3c-0.1,0.4-0.3,0.7-0.6,0.9c-0.3,0.2-0.6,0.3-1.1,0.3c-0.4,0-0.8-0.1-1.1-0.3c-0.3-0.2-0.5-0.5-0.6-0.9
		c-0.1-0.4-0.2-0.8-0.2-1.3c0-0.5,0.1-0.9,0.2-1.2c0.1-0.4,0.3-0.7,0.6-0.9c0.3-0.2,0.6-0.3,1.1-0.3c0.4,0,0.8,0.1,1.1,0.3
		c0.3,0.2,0.5,0.5,0.6,0.9c0.1,0.4,0.2,0.8,0.2,1.2C48.1,70.5,48,70.9,47.9,71.3z"/>
	<path d="M60.3,69.1c-0.3-0.2-0.6-0.4-0.9-0.5c-0.3-0.1-0.6-0.2-0.9-0.3L57.6,68c-0.2,0-0.4-0.1-0.6-0.2c-0.2-0.1-0.4-0.2-0.6-0.3
		c-0.2-0.1-0.3-0.2-0.4-0.4c-0.1-0.2-0.2-0.4-0.2-0.6c0-0.3,0.1-0.5,0.2-0.7c0.2-0.2,0.4-0.4,0.7-0.5s0.6-0.2,1-0.2
		c0.5,0,1,0.1,1.3,0.4s0.6,0.6,0.6,1h1.4c0-0.5-0.2-1-0.4-1.4c-0.3-0.4-0.7-0.7-1.2-0.9s-1.1-0.3-1.7-0.3c-0.6,0-1.2,0.1-1.7,0.3
		c-0.5,0.2-0.9,0.5-1.2,0.9s-0.4,0.9-0.4,1.4c0,0.7,0.2,1.2,0.7,1.6c0.4,0.4,1,0.7,1.8,0.9l1.1,0.3c0.3,0.1,0.6,0.2,0.9,0.3
		c0.3,0.1,0.5,0.3,0.6,0.4c0.2,0.2,0.2,0.4,0.2,0.7c0,0.3-0.1,0.6-0.3,0.8c-0.2,0.2-0.4,0.4-0.7,0.5s-0.7,0.2-1.1,0.2
		c-0.4,0-0.7-0.1-1-0.2c-0.3-0.1-0.6-0.3-0.8-0.5c-0.2-0.2-0.3-0.5-0.3-0.9h-1.4c0,0.6,0.2,1.1,0.5,1.5c0.3,0.4,0.7,0.7,1.2,1
		s1.1,0.3,1.8,0.3c0.7,0,1.4-0.1,1.9-0.4c0.5-0.2,0.9-0.6,1.2-1s0.4-0.9,0.4-1.4c0-0.4-0.1-0.8-0.3-1.1
		C60.8,69.5,60.6,69.3,60.3,69.1z"/>
	<rect x="62.8" y="66.4" width="1.4" height="7.1"/>
	<path d="M63.5,63.7c-0.2,0-0.4,0.1-0.6,0.2c-0.2,0.2-0.3,0.4-0.3,0.6c0,0.2,0.1,0.4,0.3,0.6s0.4,0.2,0.6,0.2s0.4-0.1,0.6-0.2
		c0.2-0.2,0.3-0.4,0.3-0.6c0-0.2-0.1-0.4-0.3-0.6C64,63.8,63.8,63.7,63.5,63.7z"/>
	<path d="M70.9,67.6h-0.1c-0.1-0.1-0.2-0.3-0.4-0.5c-0.2-0.2-0.4-0.4-0.6-0.5c-0.3-0.1-0.6-0.2-1.1-0.2c-0.6,0-1.1,0.1-1.5,0.4
		c-0.4,0.3-0.8,0.7-1.1,1.2c-0.3,0.5-0.4,1.2-0.4,1.9c0,0.8,0.1,1.4,0.4,1.9c0.3,0.5,0.6,0.9,1.1,1.2s1,0.4,1.5,0.4
		c0.4,0,0.8-0.1,1.1-0.2c0.3-0.1,0.5-0.3,0.6-0.5s0.3-0.4,0.4-0.5h0.1v1.4c0,0.6-0.2,1-0.5,1.2c-0.3,0.3-0.8,0.4-1.3,0.4
		c-0.4,0-0.7-0.1-0.9-0.2c-0.2-0.1-0.4-0.2-0.6-0.4c-0.1-0.2-0.3-0.3-0.3-0.4L66,74.7c0.1,0.3,0.3,0.6,0.6,0.8
		c0.3,0.2,0.6,0.4,1,0.6c0.4,0.1,0.9,0.2,1.5,0.2c0.6,0,1.1-0.1,1.6-0.3c0.5-0.2,0.9-0.5,1.1-0.9c0.3-0.4,0.4-0.9,0.4-1.5v-7.2h-1.4
		V67.6z M70.7,71.2c-0.1,0.3-0.4,0.6-0.6,0.8c-0.3,0.2-0.6,0.3-1,0.3c-0.4,0-0.8-0.1-1-0.3c-0.3-0.2-0.5-0.5-0.6-0.8
		c-0.1-0.4-0.2-0.8-0.2-1.2c0-0.5,0.1-0.9,0.2-1.2c0.1-0.4,0.3-0.7,0.6-0.9c0.3-0.2,0.6-0.3,1-0.3c0.4,0,0.7,0.1,1,0.3
		s0.5,0.5,0.6,0.9c0.1,0.4,0.2,0.8,0.2,1.3C70.9,70.4,70.8,70.8,70.7,71.2z"/>
	<path d="M78.9,66.6c-0.4-0.2-0.8-0.3-1.3-0.3c-0.5,0-1,0.1-1.3,0.3c-0.3,0.2-0.6,0.5-0.8,0.9h-0.1v-1.2h-1.3v7.1h1.4v-4.2
		c0-0.4,0.1-0.7,0.2-1s0.3-0.5,0.6-0.6c0.2-0.1,0.5-0.2,0.9-0.2c0.5,0,0.8,0.1,1.1,0.4c0.3,0.3,0.4,0.7,0.4,1.2v4.3H80V69
		c0-0.6-0.1-1.1-0.3-1.5C79.5,67.1,79.2,66.8,78.9,66.6z"/>
	<rect x="85.3" y="68.9" width="4.2" height="1.2"/>
	<path d="M99.2,70.6c0,0.4-0.1,0.7-0.3,1c-0.2,0.3-0.4,0.5-0.6,0.6c-0.3,0.1-0.5,0.2-0.8,0.2c-0.4,0-0.8-0.1-1-0.4
		c-0.3-0.3-0.4-0.7-0.4-1.2v-4.3h-1.4v4.5c0,0.6,0.1,1.1,0.3,1.5c0.2,0.4,0.5,0.7,0.8,0.9s0.8,0.3,1.2,0.3c0.5,0,1-0.1,1.3-0.4
		c0.4-0.3,0.6-0.6,0.8-0.9h0.1v1.2h1.4v-7.1h-1.4V70.6z"/>
	<path d="M108.6,68c-0.3-0.5-0.6-1-1.1-1.3c-0.4-0.3-1-0.4-1.5-0.4c-0.4,0-0.8,0.1-1.1,0.2c-0.3,0.1-0.5,0.3-0.6,0.5
		c-0.2,0.2-0.3,0.4-0.3,0.5h-0.1v-1.1h-1.3v9.8h1.4v-3.8h0.1c0.1,0.2,0.2,0.3,0.4,0.5c0.2,0.2,0.4,0.4,0.6,0.5s0.6,0.2,1.1,0.2
		c0.6,0,1.1-0.1,1.5-0.4s0.8-0.7,1.1-1.3s0.4-1.2,0.4-2C109,69.2,108.8,68.6,108.6,68z M107.4,71.3c-0.1,0.4-0.4,0.7-0.6,0.9
		c-0.3,0.2-0.6,0.3-1,0.3c-0.4,0-0.7-0.1-1-0.3s-0.5-0.5-0.6-0.9s-0.2-0.8-0.2-1.3c0-0.5,0.1-0.9,0.2-1.3c0.1-0.4,0.4-0.7,0.6-0.9
		c0.3-0.2,0.6-0.3,1-0.3c0.4,0,0.8,0.1,1,0.3c0.3,0.2,0.5,0.5,0.6,0.9c0.1,0.4,0.2,0.8,0.2,1.3C107.6,70.5,107.5,70.9,107.4,71.3z"
		/>
</g>
<g>
	<path d="M45.6,160.5v-8h2.9c0.6,0,1.1,0.1,1.5,0.3s0.7,0.5,0.9,0.9s0.3,0.8,0.3,1.3c0,0.5-0.1,0.9-0.3,1.3s-0.5,0.7-0.9,0.9
		s-0.9,0.3-1.5,0.3h-2v-1h1.9c0.4,0,0.7-0.1,1-0.2s0.4-0.3,0.5-0.6s0.2-0.5,0.2-0.8s-0.1-0.6-0.2-0.8s-0.3-0.4-0.5-0.6
		s-0.6-0.2-1-0.2h-1.5v7H45.6z"/>
	<path d="M52.5,160.5v-6h1.1v1h0.1c0.1-0.3,0.3-0.6,0.6-0.8s0.6-0.3,0.9-0.3c0.1,0,0.2,0,0.3,0s0.2,0,0.2,0v1.1c0,0-0.1,0-0.2,0
		s-0.2,0-0.4,0c-0.3,0-0.5,0.1-0.7,0.2s-0.4,0.3-0.5,0.5s-0.2,0.4-0.2,0.7v3.7H52.5z"/>
	<path d="M59.3,160.6c-0.6,0-1.1-0.1-1.5-0.4s-0.7-0.6-1-1.1s-0.3-1-0.3-1.6c0-0.6,0.1-1.2,0.3-1.6s0.6-0.8,1-1.1s0.9-0.4,1.5-0.4
		s1.1,0.1,1.5,0.4s0.7,0.6,1,1.1s0.3,1,0.3,1.6c0,0.6-0.1,1.2-0.3,1.6s-0.6,0.8-1,1.1S59.8,160.6,59.3,160.6z M59.3,159.6
		c0.4,0,0.7-0.1,0.9-0.3s0.4-0.4,0.5-0.8s0.2-0.7,0.2-1.1c0-0.4-0.1-0.7-0.2-1.1s-0.3-0.6-0.5-0.8s-0.5-0.3-0.9-0.3
		c-0.4,0-0.7,0.1-0.9,0.3s-0.4,0.5-0.5,0.8s-0.2,0.7-0.2,1.1c0,0.4,0.1,0.7,0.2,1.1s0.3,0.6,0.5,0.8S58.9,159.6,59.3,159.6z"/>
	<path d="M68.5,154.5l-2.2,6h-1.2l-2.2-6h1.3l1.5,4.6h0.1l1.5-4.6H68.5z"/>
	<path d="M70.2,153.6c-0.2,0-0.4-0.1-0.5-0.2s-0.2-0.3-0.2-0.5c0-0.2,0.1-0.4,0.2-0.5s0.3-0.2,0.5-0.2s0.4,0.1,0.5,0.2
		s0.2,0.3,0.2,0.5c0,0.2-0.1,0.4-0.2,0.5S70.4,153.6,70.2,153.6z M69.6,160.5v-6h1.2v6H69.6z"/>
	<path d="M74.6,160.6c-0.5,0-0.9-0.1-1.3-0.4s-0.7-0.6-0.9-1.1s-0.3-1-0.3-1.7s0.1-1.2,0.3-1.7s0.5-0.8,0.9-1.1s0.8-0.4,1.3-0.4
		c0.4,0,0.7,0.1,0.9,0.2s0.4,0.3,0.5,0.4s0.2,0.3,0.3,0.4h0.1v-3h1.2v8h-1.1v-0.9h-0.1c-0.1,0.1-0.2,0.3-0.3,0.4s-0.3,0.3-0.5,0.4
		S74.9,160.6,74.6,160.6z M74.8,159.6c0.3,0,0.6-0.1,0.9-0.3s0.4-0.4,0.5-0.7s0.2-0.7,0.2-1.1c0-0.4-0.1-0.8-0.2-1.1
		s-0.3-0.6-0.5-0.7s-0.5-0.3-0.9-0.3c-0.4,0-0.6,0.1-0.9,0.3s-0.4,0.4-0.5,0.7s-0.2,0.7-0.2,1.1c0,0.4,0.1,0.8,0.2,1.1
		s0.3,0.6,0.5,0.8S74.5,159.6,74.8,159.6z"/>
	<path d="M81.8,160.6c-0.6,0-1.1-0.1-1.5-0.4s-0.8-0.6-1-1.1s-0.3-1-0.3-1.6c0-0.6,0.1-1.2,0.3-1.6s0.6-0.8,1-1.1s0.9-0.4,1.5-0.4
		c0.3,0,0.7,0.1,1,0.2s0.6,0.3,0.9,0.5s0.5,0.6,0.6,0.9s0.2,0.8,0.2,1.4v0.4h-4.8V157h3.6c0-0.3-0.1-0.6-0.2-0.8s-0.3-0.4-0.5-0.6
		s-0.5-0.2-0.8-0.2c-0.3,0-0.6,0.1-0.9,0.2s-0.4,0.4-0.6,0.6s-0.2,0.5-0.2,0.8v0.7c0,0.4,0.1,0.7,0.2,1s0.3,0.5,0.6,0.6
		s0.6,0.2,0.9,0.2c0.2,0,0.4,0,0.6-0.1s0.3-0.2,0.5-0.3s0.2-0.3,0.3-0.5l1.1,0.2c-0.1,0.3-0.2,0.6-0.5,0.9s-0.5,0.4-0.9,0.6
		S82.2,160.6,81.8,160.6z"/>
	<path d="M28.3,165.7v8h-1.2v-8H28.3z"/>
	<path d="M31.1,170.1v3.6h-1.2v-6h1.1v1h0.1c0.1-0.3,0.4-0.6,0.7-0.8s0.7-0.3,1.1-0.3c0.4,0,0.8,0.1,1.1,0.3s0.5,0.4,0.7,0.8
		s0.3,0.8,0.3,1.2v3.8h-1.2V170c0-0.4-0.1-0.8-0.3-1s-0.5-0.4-0.9-0.4c-0.3,0-0.5,0.1-0.7,0.2s-0.4,0.3-0.5,0.5
		S31.1,169.8,31.1,170.1z"/>
	<path d="M41.6,167.7l-2.2,6h-1.2l-2.2-6h1.3l1.5,4.6h0.1l1.5-4.6H41.6z"/>
	<path d="M45.3,173.8c-0.6,0-1.1-0.1-1.5-0.4s-0.8-0.6-1-1.1s-0.3-1-0.3-1.6c0-0.6,0.1-1.2,0.3-1.6s0.6-0.8,1-1.1s0.9-0.4,1.5-0.4
		c0.3,0,0.7,0.1,1,0.2s0.6,0.3,0.9,0.5s0.5,0.6,0.6,0.9s0.2,0.8,0.2,1.4v0.4h-4.8v-0.9h3.6c0-0.3-0.1-0.6-0.2-0.8s-0.3-0.4-0.5-0.6
		s-0.5-0.2-0.8-0.2c-0.3,0-0.6,0.1-0.9,0.2s-0.4,0.4-0.6,0.6s-0.2,0.5-0.2,0.8v0.7c0,0.4,0.1,0.7,0.2,1s0.3,0.5,0.6,0.6
		s0.6,0.2,0.9,0.2c0.2,0,0.4,0,0.6-0.1s0.3-0.2,0.5-0.3s0.2-0.3,0.3-0.5l1.1,0.2c-0.1,0.3-0.2,0.6-0.5,0.9s-0.5,0.4-0.9,0.6
		S45.8,173.8,45.3,173.8z"/>
	<path d="M53.7,169.1l-1.1,0.2c0-0.1-0.1-0.3-0.2-0.4s-0.2-0.2-0.4-0.3s-0.4-0.1-0.6-0.1c-0.3,0-0.6,0.1-0.8,0.2s-0.3,0.3-0.3,0.6
		c0,0.2,0.1,0.4,0.2,0.5s0.4,0.2,0.7,0.3l1,0.2c0.6,0.1,1,0.3,1.2,0.6s0.4,0.6,0.4,1c0,0.4-0.1,0.7-0.3,1s-0.5,0.5-0.9,0.7
		s-0.8,0.2-1.3,0.2c-0.7,0-1.2-0.1-1.6-0.4s-0.7-0.7-0.8-1.2l1.1-0.2c0.1,0.3,0.2,0.5,0.4,0.7s0.5,0.2,0.9,0.2
		c0.4,0,0.7-0.1,0.9-0.2s0.3-0.4,0.3-0.6c0-0.2-0.1-0.3-0.2-0.5s-0.4-0.2-0.6-0.3l-1-0.2c-0.6-0.1-1-0.3-1.2-0.6s-0.4-0.6-0.4-1.1
		c0-0.4,0.1-0.7,0.3-0.9s0.5-0.5,0.8-0.6s0.7-0.2,1.2-0.2c0.6,0,1.2,0.1,1.5,0.4S53.6,168.7,53.7,169.1z"/>
	<path d="M57.9,167.7v0.9h-3.3v-0.9H57.9z M55.5,166.2h1.2v5.7c0,0.2,0,0.4,0.1,0.5s0.2,0.2,0.3,0.2s0.2,0.1,0.4,0.1
		c0.1,0,0.2,0,0.2,0s0.1,0,0.2,0l0.2,1c-0.1,0-0.2,0.1-0.3,0.1s-0.3,0-0.5,0c-0.3,0-0.6,0-0.9-0.2s-0.5-0.3-0.6-0.5
		s-0.2-0.5-0.2-0.9V166.2z"/>
	<path d="M61.7,173.8c-0.6,0-1.1-0.1-1.5-0.4s-0.7-0.6-1-1.1s-0.3-1-0.3-1.6c0-0.6,0.1-1.2,0.3-1.6s0.6-0.8,1-1.1s0.9-0.4,1.5-0.4
		s1.1,0.1,1.5,0.4s0.7,0.6,1,1.1s0.3,1,0.3,1.6c0,0.6-0.1,1.2-0.3,1.6s-0.6,0.8-1,1.1S62.3,173.8,61.7,173.8z M61.7,172.8
		c0.4,0,0.7-0.1,0.9-0.3s0.4-0.4,0.5-0.8s0.2-0.7,0.2-1.1c0-0.4-0.1-0.7-0.2-1.1s-0.3-0.6-0.5-0.8s-0.5-0.3-0.9-0.3
		c-0.4,0-0.7,0.1-0.9,0.3s-0.4,0.5-0.5,0.8s-0.2,0.7-0.2,1.1c0,0.4,0.1,0.7,0.2,1.1s0.3,0.6,0.5,0.8S61.3,172.8,61.7,172.8z"/>
	<path d="M65.8,173.7v-6h1.1v1H67c0.1-0.3,0.3-0.6,0.6-0.8s0.6-0.3,0.9-0.3c0.1,0,0.2,0,0.3,0s0.2,0,0.2,0v1.1c0,0-0.1,0-0.2,0
		s-0.2,0-0.4,0c-0.3,0-0.5,0.1-0.7,0.2s-0.4,0.3-0.5,0.5S67,169.8,67,170v3.7H65.8z"/>
	<path d="M79.7,168.3h-1.2c0-0.3-0.1-0.5-0.3-0.7s-0.3-0.4-0.5-0.5s-0.4-0.2-0.6-0.3s-0.5-0.1-0.7-0.1c-0.5,0-0.9,0.1-1.2,0.3
		s-0.6,0.6-0.9,1s-0.3,1-0.3,1.6c0,0.7,0.1,1.2,0.3,1.6s0.5,0.8,0.9,1s0.8,0.3,1.2,0.3c0.3,0,0.5,0,0.7-0.1s0.4-0.2,0.6-0.3
		s0.3-0.3,0.5-0.5s0.2-0.4,0.3-0.7l1.2,0c-0.1,0.4-0.2,0.8-0.4,1.1s-0.4,0.6-0.7,0.9s-0.6,0.4-1,0.6s-0.8,0.2-1.2,0.2
		c-0.7,0-1.3-0.2-1.9-0.5s-1-0.8-1.3-1.4s-0.5-1.3-0.5-2.2c0-0.9,0.2-1.6,0.5-2.2s0.7-1.1,1.3-1.4s1.2-0.5,1.8-0.5
		c0.4,0,0.8,0.1,1.2,0.2s0.7,0.3,1,0.5s0.5,0.5,0.7,0.9S79.6,167.9,79.7,168.3z"/>
	<path d="M83.6,173.8c-0.6,0-1.1-0.1-1.5-0.4s-0.7-0.6-1-1.1s-0.3-1-0.3-1.6c0-0.6,0.1-1.2,0.3-1.6s0.6-0.8,1-1.1s0.9-0.4,1.5-0.4
		s1.1,0.1,1.5,0.4s0.7,0.6,1,1.1s0.3,1,0.3,1.6c0,0.6-0.1,1.2-0.3,1.6s-0.6,0.8-1,1.1S84.1,173.8,83.6,173.8z M83.6,172.8
		c0.4,0,0.7-0.1,0.9-0.3s0.4-0.4,0.5-0.8s0.2-0.7,0.2-1.1c0-0.4-0.1-0.7-0.2-1.1s-0.3-0.6-0.5-0.8s-0.5-0.3-0.9-0.3
		c-0.4,0-0.7,0.1-0.9,0.3s-0.4,0.5-0.5,0.8s-0.2,0.7-0.2,1.1c0,0.4,0.1,0.7,0.2,1.1s0.3,0.6,0.5,0.8S83.2,172.8,83.6,172.8z"/>
	<path d="M89.9,173.8c-0.5,0-0.9-0.1-1.3-0.4s-0.7-0.6-0.9-1.1s-0.3-1-0.3-1.7s0.1-1.2,0.3-1.7s0.5-0.8,0.9-1.1s0.8-0.4,1.3-0.4
		c0.4,0,0.7,0.1,0.9,0.2s0.4,0.3,0.5,0.4s0.2,0.3,0.3,0.4h0.1v-3h1.2v8h-1.1v-0.9h-0.1c-0.1,0.1-0.2,0.3-0.3,0.4s-0.3,0.3-0.5,0.4
		S90.3,173.8,89.9,173.8z M90.2,172.8c0.3,0,0.6-0.1,0.9-0.3s0.4-0.4,0.5-0.7s0.2-0.7,0.2-1.1c0-0.4-0.1-0.8-0.2-1.1
		s-0.3-0.6-0.5-0.7s-0.5-0.3-0.9-0.3c-0.4,0-0.6,0.1-0.9,0.3s-0.4,0.4-0.5,0.7s-0.2,0.7-0.2,1.1c0,0.4,0.1,0.8,0.2,1.1
		s0.3,0.6,0.5,0.8S89.8,172.8,90.2,172.8z"/>
	<path d="M97.1,173.8c-0.6,0-1.1-0.1-1.5-0.4s-0.8-0.6-1-1.1s-0.3-1-0.3-1.6c0-0.6,0.1-1.2,0.3-1.6s0.6-0.8,1-1.1s0.9-0.4,1.5-0.4
		c0.3,0,0.7,0.1,1,0.2s0.6,0.3,0.9,0.5s0.5,0.6,0.6,0.9s0.2,0.8,0.2,1.4v0.4h-4.8v-0.9h3.6c0-0.3-0.1-0.6-0.2-0.8s-0.3-0.4-0.5-0.6
		s-0.5-0.2-0.8-0.2c-0.3,0-0.6,0.1-0.9,0.2s-0.4,0.4-0.6,0.6s-0.2,0.5-0.2,0.8v0.7c0,0.4,0.1,0.7,0.2,1s0.3,0.5,0.6,0.6
		s0.6,0.2,0.9,0.2c0.2,0,0.4,0,0.6-0.1s0.3-0.2,0.5-0.3s0.2-0.3,0.3-0.5l1.1,0.2c-0.1,0.3-0.2,0.6-0.5,0.9s-0.5,0.4-0.9,0.6
		S97.6,173.8,97.1,173.8z"/>
	<path d="M102.5,172.6l-0.1,0.4c0,0.3-0.1,0.6-0.2,1s-0.2,0.7-0.3,0.9s-0.2,0.5-0.2,0.7h-0.8c0-0.2,0.1-0.4,0.1-0.7s0.1-0.6,0.2-0.9
		s0.1-0.7,0.1-1l0-0.4H102.5z"/>
	<path d="M50,186.9v-8h5v1h-3.8v2.4h3.5v1h-3.5v2.4h3.9v1H50z"/>
	<path d="M56.6,186.9v-6h1.1v1h0.1c0.1-0.3,0.3-0.6,0.6-0.8s0.6-0.3,1-0.3c0.4,0,0.7,0.1,1,0.3s0.5,0.4,0.6,0.8h0.1
		c0.1-0.3,0.4-0.6,0.7-0.8s0.7-0.3,1.1-0.3c0.5,0,1,0.2,1.3,0.5s0.5,0.9,0.5,1.5v4h-1.2V183c0-0.4-0.1-0.7-0.3-0.9s-0.5-0.3-0.8-0.3
		c-0.4,0-0.7,0.1-0.9,0.3s-0.3,0.5-0.3,0.9v3.8h-1.2v-4c0-0.3-0.1-0.6-0.3-0.8s-0.5-0.3-0.8-0.3c-0.2,0-0.4,0.1-0.6,0.2
		s-0.3,0.3-0.4,0.5s-0.2,0.4-0.2,0.7v3.7H56.6z"/>
	<path d="M68,187c-0.4,0-0.7-0.1-1-0.2s-0.6-0.3-0.7-0.6s-0.3-0.6-0.3-1c0-0.3,0.1-0.6,0.2-0.8s0.3-0.4,0.5-0.5s0.5-0.2,0.7-0.3
		s0.6-0.1,0.8-0.1c0.4,0,0.7-0.1,0.9-0.1s0.4-0.1,0.5-0.1s0.2-0.2,0.2-0.3v0c0-0.3-0.1-0.6-0.3-0.8s-0.5-0.3-0.9-0.3
		c-0.4,0-0.7,0.1-0.9,0.3s-0.4,0.4-0.5,0.6l-1.1-0.2c0.1-0.4,0.3-0.7,0.6-0.9s0.5-0.4,0.9-0.5s0.7-0.2,1-0.2c0.2,0,0.5,0,0.8,0.1
		s0.5,0.2,0.8,0.3s0.4,0.4,0.6,0.6s0.2,0.6,0.2,1.1v4h-1.1v-0.8h0c-0.1,0.2-0.2,0.3-0.3,0.4s-0.3,0.3-0.6,0.4S68.4,187,68,187z
		 M68.3,186.1c0.3,0,0.6-0.1,0.8-0.2s0.4-0.3,0.5-0.5s0.2-0.4,0.2-0.7v-0.8c0,0-0.1,0.1-0.2,0.1s-0.3,0.1-0.4,0.1s-0.3,0-0.4,0.1
		s-0.3,0-0.4,0c-0.2,0-0.4,0.1-0.6,0.1s-0.3,0.2-0.4,0.3s-0.2,0.3-0.2,0.5c0,0.3,0.1,0.5,0.3,0.7S68,186.1,68.3,186.1z"/>
	<path d="M73.1,180c-0.2,0-0.4-0.1-0.5-0.2s-0.2-0.3-0.2-0.5c0-0.2,0.1-0.4,0.2-0.5s0.3-0.2,0.5-0.2s0.4,0.1,0.5,0.2
		s0.2,0.3,0.2,0.5c0,0.2-0.1,0.4-0.2,0.5S73.3,180,73.1,180z M72.6,186.9v-6h1.2v6H72.6z"/>
	<path d="M76.5,178.9v8h-1.2v-8H76.5z"/>
	<path d="M79.5,185.8l-0.1,0.4c0,0.3-0.1,0.6-0.2,1s-0.2,0.7-0.3,0.9s-0.2,0.5-0.2,0.7h-0.8c0-0.2,0.1-0.4,0.1-0.7s0.1-0.6,0.2-0.9
		s0.1-0.7,0.1-1l0-0.4H79.5z"/>
	<path d="M24.9,200.1v-8h2.9c0.6,0,1.1,0.1,1.5,0.3s0.7,0.5,0.9,0.9s0.3,0.8,0.3,1.3c0,0.5-0.1,0.9-0.3,1.3s-0.5,0.7-0.9,0.9
		s-0.9,0.3-1.5,0.3h-2v-1h1.9c0.4,0,0.7-0.1,1-0.2s0.4-0.3,0.5-0.6s0.2-0.5,0.2-0.8s-0.1-0.6-0.2-0.8s-0.3-0.4-0.5-0.6
		s-0.6-0.2-1-0.2h-1.5v7H24.9z"/>
	<path d="M33.1,196.5v3.6h-1.2v-8H33v3h0.1c0.1-0.3,0.4-0.6,0.6-0.8s0.7-0.3,1.1-0.3c0.4,0,0.8,0.1,1.1,0.3s0.5,0.4,0.7,0.8
		s0.3,0.8,0.3,1.3v3.8h-1.2v-3.7c0-0.4-0.1-0.8-0.3-1s-0.5-0.4-0.9-0.4c-0.3,0-0.5,0.1-0.7,0.2s-0.4,0.3-0.5,0.5
		S33.1,196.2,33.1,196.5z"/>
	<path d="M41,200.2c-0.6,0-1.1-0.1-1.5-0.4s-0.7-0.6-1-1.1s-0.3-1-0.3-1.6c0-0.6,0.1-1.2,0.3-1.6s0.6-0.8,1-1.1s0.9-0.4,1.5-0.4
		s1.1,0.1,1.5,0.4s0.7,0.6,1,1.1s0.3,1,0.3,1.6c0,0.6-0.1,1.2-0.3,1.6s-0.6,0.8-1,1.1S41.6,200.2,41,200.2z M41,199.2
		c0.4,0,0.7-0.1,0.9-0.3s0.4-0.4,0.5-0.8s0.2-0.7,0.2-1.1c0-0.4-0.1-0.7-0.2-1.1s-0.3-0.6-0.5-0.8S41.4,195,41,195
		c-0.4,0-0.7,0.1-0.9,0.3s-0.4,0.5-0.5,0.8s-0.2,0.7-0.2,1.1c0,0.4,0.1,0.7,0.2,1.1s0.3,0.6,0.5,0.8S40.7,199.2,41,199.2z"/>
	<path d="M46.3,196.5v3.6h-1.2v-6h1.1v1h0.1c0.1-0.3,0.4-0.6,0.7-0.8s0.7-0.3,1.1-0.3c0.4,0,0.8,0.1,1.1,0.3s0.5,0.4,0.7,0.8
		s0.3,0.8,0.3,1.2v3.8H49v-3.7c0-0.4-0.1-0.8-0.3-1s-0.5-0.4-0.9-0.4c-0.3,0-0.5,0.1-0.7,0.2s-0.4,0.3-0.5,0.5
		S46.3,196.2,46.3,196.5z"/>
	<path d="M54.3,200.2c-0.6,0-1.1-0.1-1.5-0.4s-0.8-0.6-1-1.1s-0.3-1-0.3-1.6c0-0.6,0.1-1.2,0.3-1.6s0.6-0.8,1-1.1s0.9-0.4,1.5-0.4
		c0.3,0,0.7,0.1,1,0.2s0.6,0.3,0.9,0.5s0.5,0.6,0.6,0.9s0.2,0.8,0.2,1.4v0.4h-4.8v-0.9h3.6c0-0.3-0.1-0.6-0.2-0.8s-0.3-0.4-0.5-0.6
		s-0.5-0.2-0.8-0.2c-0.3,0-0.6,0.1-0.9,0.2s-0.4,0.4-0.6,0.6s-0.2,0.5-0.2,0.8v0.7c0,0.4,0.1,0.7,0.2,1s0.3,0.5,0.6,0.6
		s0.6,0.2,0.9,0.2c0.2,0,0.4,0,0.6-0.1s0.3-0.2,0.5-0.3s0.2-0.3,0.3-0.5l1.1,0.2c-0.1,0.3-0.2,0.6-0.5,0.9s-0.5,0.4-0.9,0.6
		S54.7,200.2,54.3,200.2z"/>
	<path d="M67.6,192.1v8h-1.1l-4.1-5.9h-0.1v5.9h-1.2v-8h1.1l4.1,5.9h0.1v-5.9H67.6z"/>
	<path d="M73.1,197.6v-3.5h1.2v6h-1.1v-1h-0.1c-0.1,0.3-0.4,0.6-0.7,0.8s-0.7,0.3-1.1,0.3c-0.4,0-0.7-0.1-1-0.3s-0.5-0.4-0.7-0.8
		s-0.3-0.8-0.3-1.2v-3.8h1.2v3.7c0,0.4,0.1,0.7,0.3,1s0.5,0.4,0.9,0.4c0.2,0,0.4-0.1,0.7-0.2s0.4-0.3,0.5-0.5S73.1,197.9,73.1,197.6
		z"/>
	<path d="M75.8,200.1v-6h1.1v1H77c0.1-0.3,0.3-0.6,0.6-0.8s0.6-0.3,1-0.3c0.4,0,0.7,0.1,1,0.3s0.5,0.4,0.6,0.8h0.1
		c0.1-0.3,0.4-0.6,0.7-0.8s0.7-0.3,1.1-0.3c0.5,0,1,0.2,1.3,0.5s0.5,0.9,0.5,1.5v4h-1.2v-3.9c0-0.4-0.1-0.7-0.3-0.9S82,195,81.7,195
		c-0.4,0-0.7,0.1-0.9,0.3s-0.3,0.5-0.3,0.9v3.8h-1.2v-4c0-0.3-0.1-0.6-0.3-0.8s-0.5-0.3-0.8-0.3c-0.2,0-0.4,0.1-0.6,0.2
		s-0.3,0.3-0.4,0.5s-0.2,0.4-0.2,0.7v3.7H75.8z"/>
	<path d="M85.6,200.1v-8h1.2v3h0.1c0.1-0.1,0.2-0.3,0.3-0.4s0.3-0.3,0.5-0.4s0.5-0.2,0.9-0.2c0.5,0,0.9,0.1,1.3,0.4s0.7,0.6,0.9,1.1
		s0.3,1,0.3,1.7s-0.1,1.2-0.3,1.7s-0.5,0.8-0.9,1.1s-0.8,0.4-1.3,0.4c-0.4,0-0.7-0.1-0.9-0.2s-0.4-0.3-0.5-0.4s-0.2-0.3-0.3-0.4
		h-0.1v0.9H85.6z M86.8,197.1c0,0.4,0.1,0.8,0.2,1.1s0.3,0.6,0.5,0.7s0.5,0.3,0.9,0.3c0.3,0,0.6-0.1,0.9-0.3s0.4-0.4,0.5-0.8
		s0.2-0.7,0.2-1.1c0-0.4-0.1-0.8-0.2-1.1s-0.3-0.6-0.5-0.7s-0.5-0.3-0.9-0.3c-0.3,0-0.6,0.1-0.9,0.3s-0.4,0.4-0.5,0.7
		S86.8,196.7,86.8,197.1z"/>
	<path d="M95,200.2c-0.6,0-1.1-0.1-1.5-0.4s-0.8-0.6-1-1.1s-0.3-1-0.3-1.6c0-0.6,0.1-1.2,0.3-1.6s0.6-0.8,1-1.1s0.9-0.4,1.5-0.4
		c0.3,0,0.7,0.1,1,0.2s0.6,0.3,0.9,0.5s0.5,0.6,0.6,0.9s0.2,0.8,0.2,1.4v0.4h-4.8v-0.9h3.6c0-0.3-0.1-0.6-0.2-0.8s-0.3-0.4-0.5-0.6
		s-0.5-0.2-0.8-0.2c-0.3,0-0.6,0.1-0.9,0.2s-0.4,0.4-0.6,0.6s-0.2,0.5-0.2,0.8v0.7c0,0.4,0.1,0.7,0.2,1s0.3,0.5,0.6,0.6
		s0.6,0.2,0.9,0.2c0.2,0,0.4,0,0.6-0.1s0.3-0.2,0.5-0.3s0.2-0.3,0.3-0.5l1.1,0.2c-0.1,0.3-0.2,0.6-0.5,0.9s-0.5,0.4-0.9,0.6
		S95.5,200.2,95,200.2z"/>
	<path d="M98.9,200.1v-6h1.1v1h0.1c0.1-0.3,0.3-0.6,0.6-0.8s0.6-0.3,0.9-0.3c0.1,0,0.2,0,0.3,0s0.2,0,0.2,0v1.1c0,0-0.1,0-0.2,0
		s-0.2,0-0.4,0c-0.3,0-0.5,0.1-0.7,0.2s-0.4,0.3-0.5,0.5s-0.2,0.4-0.2,0.7v3.7H98.9z"/>
	<path d="M104.6,199l-0.1,0.4c0,0.3-0.1,0.6-0.2,1s-0.2,0.7-0.3,0.9s-0.2,0.5-0.2,0.7H103c0-0.2,0.1-0.4,0.1-0.7s0.1-0.6,0.2-0.9
		s0.1-0.7,0.1-1l0-0.4H104.6z"/>
	<path d="M27.7,207.4c0-0.4-0.2-0.7-0.5-0.9s-0.7-0.3-1.1-0.3c-0.3,0-0.6,0.1-0.9,0.2s-0.4,0.2-0.6,0.4s-0.2,0.4-0.2,0.6
		c0,0.2,0,0.4,0.1,0.5s0.2,0.3,0.4,0.3s0.3,0.2,0.5,0.2s0.3,0.1,0.5,0.2l0.8,0.2c0.3,0.1,0.5,0.1,0.8,0.3s0.5,0.2,0.7,0.4
		s0.4,0.4,0.6,0.6s0.2,0.6,0.2,0.9c0,0.5-0.1,0.9-0.3,1.2s-0.6,0.6-1,0.8s-1,0.3-1.6,0.3c-0.6,0-1.1-0.1-1.6-0.3s-0.8-0.5-1-0.8
		s-0.4-0.8-0.4-1.2h1.2c0,0.3,0.1,0.5,0.3,0.7s0.4,0.3,0.6,0.4s0.5,0.1,0.9,0.1c0.3,0,0.6-0.1,0.9-0.2s0.5-0.3,0.6-0.5
		s0.2-0.4,0.2-0.7c0-0.2-0.1-0.4-0.2-0.6s-0.3-0.3-0.5-0.4s-0.5-0.2-0.8-0.3l-0.9-0.3c-0.6-0.2-1.1-0.4-1.5-0.8s-0.6-0.8-0.6-1.3
		c0-0.5,0.1-0.9,0.4-1.2s0.6-0.6,1-0.8s0.9-0.3,1.4-0.3c0.5,0,1,0.1,1.4,0.3s0.7,0.5,1,0.8s0.4,0.7,0.4,1.1H27.7z"/>
	<path d="M32.9,213.4c-0.6,0-1.1-0.1-1.5-0.4s-0.8-0.6-1-1.1s-0.3-1-0.3-1.6c0-0.6,0.1-1.2,0.3-1.6s0.6-0.8,1-1.1s0.9-0.4,1.5-0.4
		c0.3,0,0.7,0.1,1,0.2s0.6,0.3,0.9,0.5s0.5,0.6,0.6,0.9s0.2,0.8,0.2,1.4v0.4h-4.8v-0.9h3.6c0-0.3-0.1-0.6-0.2-0.8s-0.3-0.4-0.5-0.6
		s-0.5-0.2-0.8-0.2c-0.3,0-0.6,0.1-0.9,0.2s-0.4,0.4-0.6,0.6s-0.2,0.5-0.2,0.8v0.7c0,0.4,0.1,0.7,0.2,1s0.3,0.5,0.6,0.6
		s0.6,0.2,0.9,0.2c0.2,0,0.4,0,0.6-0.1s0.3-0.2,0.5-0.3s0.2-0.3,0.3-0.5l1.1,0.2c-0.1,0.3-0.2,0.6-0.5,0.9s-0.5,0.4-0.9,0.6
		S33.3,213.4,32.9,213.4z"/>
	<path d="M39.3,213.4c-0.6,0-1.1-0.1-1.5-0.4s-0.7-0.6-1-1.1s-0.3-1-0.3-1.6c0-0.6,0.1-1.1,0.3-1.6s0.6-0.8,1-1.1s0.9-0.4,1.5-0.4
		c0.5,0,0.9,0.1,1.2,0.3s0.6,0.4,0.9,0.7s0.4,0.7,0.4,1.1h-1.1c-0.1-0.3-0.2-0.5-0.4-0.7s-0.5-0.3-0.9-0.3c-0.3,0-0.6,0.1-0.9,0.3
		s-0.4,0.4-0.6,0.7s-0.2,0.7-0.2,1.1c0,0.4,0.1,0.8,0.2,1.1s0.3,0.6,0.6,0.7s0.5,0.3,0.9,0.3c0.2,0,0.4,0,0.6-0.1s0.3-0.2,0.5-0.4
		s0.2-0.3,0.3-0.6h1.1c0,0.4-0.2,0.7-0.4,1s-0.5,0.5-0.8,0.7S39.8,213.4,39.3,213.4z"/>
	<path d="M46.8,210.8v-3.5H48v6h-1.1v-1h-0.1c-0.1,0.3-0.4,0.6-0.7,0.8s-0.7,0.3-1.1,0.3c-0.4,0-0.7-0.1-1-0.3s-0.5-0.4-0.7-0.8
		s-0.3-0.8-0.3-1.2v-3.8h1.2v3.7c0,0.4,0.1,0.7,0.3,1s0.5,0.4,0.9,0.4c0.2,0,0.4-0.1,0.7-0.2s0.4-0.3,0.5-0.5S46.8,211.1,46.8,210.8
		z"/>
	<path d="M49.6,213.3v-6h1.1v1h0.1c0.1-0.3,0.3-0.6,0.6-0.8s0.6-0.3,0.9-0.3c0.1,0,0.2,0,0.3,0s0.2,0,0.2,0v1.1c0,0-0.1,0-0.2,0
		s-0.2,0-0.4,0c-0.3,0-0.5,0.1-0.7,0.2s-0.4,0.3-0.5,0.5s-0.2,0.4-0.2,0.7v3.7H49.6z"/>
	<path d="M54.4,206.4c-0.2,0-0.4-0.1-0.5-0.2s-0.2-0.3-0.2-0.5c0-0.2,0.1-0.4,0.2-0.5s0.3-0.2,0.5-0.2s0.4,0.1,0.5,0.2
		s0.2,0.3,0.2,0.5c0,0.2-0.1,0.4-0.2,0.5S54.6,206.4,54.4,206.4z M53.8,213.3v-6H55v6H53.8z"/>
	<path d="M59.3,207.3v0.9h-3.3v-0.9H59.3z M56.9,205.8h1.2v5.7c0,0.2,0,0.4,0.1,0.5s0.2,0.2,0.3,0.2s0.2,0.1,0.4,0.1
		c0.1,0,0.2,0,0.2,0s0.1,0,0.2,0l0.2,1c-0.1,0-0.2,0.1-0.3,0.1s-0.3,0-0.5,0c-0.3,0-0.6,0-0.9-0.2s-0.5-0.3-0.6-0.5
		s-0.2-0.5-0.2-0.9V205.8z"/>
	<path d="M61.4,215.5c-0.2,0-0.3,0-0.5,0s-0.2-0.1-0.3-0.1l0.3-1c0.2,0.1,0.4,0.1,0.6,0.1s0.3-0.1,0.4-0.2s0.2-0.3,0.3-0.6l0.1-0.4
		l-2.2-6.1h1.2l1.5,4.7H63l1.5-4.7h1.3l-2.5,6.8c-0.1,0.3-0.3,0.6-0.4,0.8s-0.4,0.4-0.6,0.5S61.7,215.5,61.4,215.5z"/>
	<path d="M76.5,207.9h-1.2c0-0.3-0.1-0.5-0.3-0.7s-0.3-0.4-0.5-0.5s-0.4-0.2-0.6-0.3s-0.5-0.1-0.7-0.1c-0.5,0-0.9,0.1-1.2,0.3
		s-0.6,0.6-0.9,1s-0.3,1-0.3,1.6c0,0.7,0.1,1.2,0.3,1.6s0.5,0.8,0.9,1s0.8,0.3,1.2,0.3c0.3,0,0.5,0,0.7-0.1s0.4-0.2,0.6-0.3
		s0.3-0.3,0.5-0.5s0.2-0.4,0.3-0.7l1.2,0c-0.1,0.4-0.2,0.8-0.4,1.1s-0.4,0.6-0.7,0.9s-0.6,0.4-1,0.6s-0.8,0.2-1.2,0.2
		c-0.7,0-1.3-0.2-1.9-0.5s-1-0.8-1.3-1.4s-0.5-1.3-0.5-2.2c0-0.9,0.2-1.6,0.5-2.2s0.7-1.1,1.3-1.4s1.2-0.5,1.8-0.5
		c0.4,0,0.8,0.1,1.2,0.2s0.7,0.3,1,0.5s0.5,0.5,0.7,0.9S76.4,207.5,76.5,207.9z"/>
	<path d="M80.4,213.4c-0.6,0-1.1-0.1-1.5-0.4s-0.7-0.6-1-1.1s-0.3-1-0.3-1.6c0-0.6,0.1-1.2,0.3-1.6s0.6-0.8,1-1.1s0.9-0.4,1.5-0.4
		s1.1,0.1,1.5,0.4s0.7,0.6,1,1.1s0.3,1,0.3,1.6c0,0.6-0.1,1.2-0.3,1.6s-0.6,0.8-1,1.1S80.9,213.4,80.4,213.4z M80.4,212.4
		c0.4,0,0.7-0.1,0.9-0.3s0.4-0.4,0.5-0.8s0.2-0.7,0.2-1.1c0-0.4-0.1-0.7-0.2-1.1s-0.3-0.6-0.5-0.8s-0.5-0.3-0.9-0.3
		c-0.4,0-0.7,0.1-0.9,0.3s-0.4,0.5-0.5,0.8s-0.2,0.7-0.2,1.1c0,0.4,0.1,0.7,0.2,1.1s0.3,0.6,0.5,0.8S80,212.4,80.4,212.4z"/>
	<path d="M86.7,213.4c-0.5,0-0.9-0.1-1.3-0.4s-0.7-0.6-0.9-1.1s-0.3-1-0.3-1.7s0.1-1.2,0.3-1.7s0.5-0.8,0.9-1.1s0.8-0.4,1.3-0.4
		c0.4,0,0.7,0.1,0.9,0.2s0.4,0.3,0.5,0.4s0.2,0.3,0.3,0.4h0.1v-3h1.2v8h-1.1v-0.9h-0.1c-0.1,0.1-0.2,0.3-0.3,0.4s-0.3,0.3-0.5,0.4
		S87.1,213.4,86.7,213.4z M87,212.4c0.3,0,0.6-0.1,0.9-0.3s0.4-0.4,0.5-0.7s0.2-0.7,0.2-1.1c0-0.4-0.1-0.8-0.2-1.1s-0.3-0.6-0.5-0.7
		s-0.5-0.3-0.9-0.3c-0.4,0-0.6,0.1-0.9,0.3s-0.4,0.4-0.5,0.7s-0.2,0.7-0.2,1.1c0,0.4,0.1,0.8,0.2,1.1s0.3,0.6,0.5,0.8
		S86.6,212.4,87,212.4z"/>
	<path d="M93.9,213.4c-0.6,0-1.1-0.1-1.5-0.4s-0.8-0.6-1-1.1s-0.3-1-0.3-1.6c0-0.6,0.1-1.2,0.3-1.6s0.6-0.8,1-1.1s0.9-0.4,1.5-0.4
		c0.3,0,0.7,0.1,1,0.2s0.6,0.3,0.9,0.5s0.5,0.6,0.6,0.9s0.2,0.8,0.2,1.4v0.4h-4.8v-0.9h3.6c0-0.3-0.1-0.6-0.2-0.8s-0.3-0.4-0.5-0.6
		s-0.5-0.2-0.8-0.2c-0.3,0-0.6,0.1-0.9,0.2s-0.4,0.4-0.6,0.6s-0.2,0.5-0.2,0.8v0.7c0,0.4,0.1,0.7,0.2,1s0.3,0.5,0.6,0.6
		s0.6,0.2,0.9,0.2c0.2,0,0.4,0,0.6-0.1s0.3-0.2,0.5-0.3s0.2-0.3,0.3-0.5l1.1,0.2c-0.1,0.3-0.2,0.6-0.5,0.9s-0.5,0.4-0.9,0.6
		S94.4,213.4,93.9,213.4z"/>
	<path d="M103.1,213.4c-0.5,0-1-0.1-1.4-0.3s-0.7-0.5-0.9-0.8s-0.3-0.7-0.3-1.1c0-0.3,0.1-0.6,0.2-0.9s0.3-0.5,0.6-0.7
		s0.5-0.4,0.8-0.7l1.3-0.9c0.2-0.1,0.4-0.3,0.5-0.5s0.2-0.4,0.2-0.6c0-0.2-0.1-0.4-0.2-0.5s-0.4-0.3-0.6-0.3c-0.2,0-0.4,0-0.5,0.1
		s-0.3,0.2-0.3,0.3s-0.1,0.3-0.1,0.4c0,0.2,0.1,0.4,0.2,0.6s0.2,0.4,0.4,0.6s0.3,0.4,0.5,0.6l3.7,4.4h-1.3l-3.1-3.6
		c-0.3-0.3-0.5-0.6-0.7-0.9s-0.4-0.5-0.5-0.8s-0.2-0.6-0.2-0.9c0-0.4,0.1-0.7,0.3-1s0.4-0.5,0.7-0.7s0.7-0.2,1.1-0.2
		c0.4,0,0.8,0.1,1.1,0.2s0.5,0.4,0.7,0.6s0.2,0.6,0.2,0.9c0,0.4-0.1,0.7-0.3,1s-0.4,0.6-0.8,0.8l-1.6,1.2c-0.3,0.2-0.5,0.5-0.7,0.7
		s-0.2,0.4-0.2,0.5c0,0.2,0.1,0.4,0.2,0.6s0.3,0.4,0.5,0.5s0.5,0.2,0.8,0.2c0.3,0,0.6-0.1,0.9-0.2s0.5-0.3,0.8-0.6s0.4-0.5,0.5-0.9
		s0.2-0.7,0.2-1.1h1.1c0,0.5-0.1,1-0.2,1.3s-0.3,0.6-0.4,0.9s-0.3,0.4-0.5,0.5c0,0-0.1,0.1-0.1,0.1s-0.1,0.1-0.1,0.1
		c-0.3,0.3-0.6,0.5-1,0.6S103.4,213.4,103.1,213.4z"/>
	<path d="M51.3,221.1h-1.2c0-0.3-0.1-0.5-0.3-0.7s-0.3-0.4-0.5-0.5s-0.4-0.2-0.6-0.3s-0.5-0.1-0.7-0.1c-0.5,0-0.9,0.1-1.2,0.3
		s-0.6,0.6-0.9,1s-0.3,1-0.3,1.6c0,0.7,0.1,1.2,0.3,1.6s0.5,0.8,0.9,1s0.8,0.3,1.2,0.3c0.3,0,0.5,0,0.7-0.1s0.4-0.2,0.6-0.3
		s0.3-0.3,0.5-0.5s0.2-0.4,0.3-0.7l1.2,0c-0.1,0.4-0.2,0.8-0.4,1.1s-0.4,0.6-0.7,0.9s-0.6,0.4-1,0.6s-0.8,0.2-1.2,0.2
		c-0.7,0-1.3-0.2-1.9-0.5s-1-0.8-1.3-1.4s-0.5-1.3-0.5-2.2c0-0.9,0.2-1.6,0.5-2.2s0.7-1.1,1.3-1.4s1.2-0.5,1.8-0.5
		c0.4,0,0.8,0.1,1.2,0.2s0.7,0.3,1,0.5s0.5,0.5,0.7,0.9S51.2,220.7,51.3,221.1z"/>
	<path d="M55.2,226.6c-0.6,0-1.1-0.1-1.5-0.4s-0.7-0.6-1-1.1s-0.3-1-0.3-1.6c0-0.6,0.1-1.2,0.3-1.6s0.6-0.8,1-1.1s0.9-0.4,1.5-0.4
		s1.1,0.1,1.5,0.4s0.7,0.6,1,1.1s0.3,1,0.3,1.6c0,0.6-0.1,1.2-0.3,1.6s-0.6,0.8-1,1.1S55.7,226.6,55.2,226.6z M55.2,225.6
		c0.4,0,0.7-0.1,0.9-0.3s0.4-0.4,0.5-0.8s0.2-0.7,0.2-1.1c0-0.4-0.1-0.7-0.2-1.1s-0.3-0.6-0.5-0.8s-0.5-0.3-0.9-0.3
		c-0.4,0-0.7,0.1-0.9,0.3s-0.4,0.5-0.5,0.8s-0.2,0.7-0.2,1.1c0,0.4,0.1,0.7,0.2,1.1s0.3,0.6,0.5,0.8S54.8,225.6,55.2,225.6z"/>
	<path d="M60.4,222.9v3.6h-1.2v-6h1.1v1h0.1c0.1-0.3,0.4-0.6,0.7-0.8s0.7-0.3,1.1-0.3c0.4,0,0.8,0.1,1.1,0.3s0.5,0.4,0.7,0.8
		s0.3,0.8,0.3,1.2v3.8h-1.2v-3.7c0-0.4-0.1-0.8-0.3-1s-0.5-0.4-0.9-0.4c-0.3,0-0.5,0.1-0.7,0.2s-0.4,0.3-0.5,0.5
		S60.4,222.6,60.4,222.9z"/>
	<path d="M68.7,220.5v0.9h-3.4v-0.9H68.7z M66.2,226.5v-6.7c0-0.4,0.1-0.7,0.2-0.9s0.4-0.4,0.7-0.6s0.6-0.2,0.9-0.2
		c0.2,0,0.4,0,0.6,0.1s0.3,0.1,0.4,0.1l-0.3,0.9c-0.1,0-0.1,0-0.2-0.1s-0.2,0-0.3,0c-0.3,0-0.5,0.1-0.6,0.2s-0.2,0.3-0.2,0.6v6.5
		H66.2z"/>
	<path d="M70.5,219.6c-0.2,0-0.4-0.1-0.5-0.2s-0.2-0.3-0.2-0.5c0-0.2,0.1-0.4,0.2-0.5s0.3-0.2,0.5-0.2s0.4,0.1,0.5,0.2
		s0.2,0.3,0.2,0.5c0,0.2-0.1,0.4-0.2,0.5S70.7,219.6,70.5,219.6z M69.9,226.5v-6h1.2v6H69.9z"/>
	<path d="M72.6,226.5v-6h1.1v1h0.1c0.1-0.3,0.3-0.6,0.6-0.8s0.6-0.3,0.9-0.3c0.1,0,0.2,0,0.3,0s0.2,0,0.2,0v1.1c0,0-0.1,0-0.2,0
		s-0.2,0-0.4,0c-0.3,0-0.5,0.1-0.7,0.2s-0.4,0.3-0.5,0.5s-0.2,0.4-0.2,0.7v3.7H72.6z"/>
	<path d="M76.9,226.5v-6H78v1h0.1c0.1-0.3,0.3-0.6,0.6-0.8s0.6-0.3,1-0.3c0.4,0,0.7,0.1,1,0.3s0.5,0.4,0.6,0.8h0.1
		c0.1-0.3,0.4-0.6,0.7-0.8s0.7-0.3,1.1-0.3c0.5,0,1,0.2,1.3,0.5s0.5,0.9,0.5,1.5v4h-1.2v-3.9c0-0.4-0.1-0.7-0.3-0.9
		s-0.5-0.3-0.8-0.3c-0.4,0-0.7,0.1-0.9,0.3s-0.3,0.5-0.3,0.9v3.8h-1.2v-4c0-0.3-0.1-0.6-0.3-0.8s-0.5-0.3-0.8-0.3
		c-0.2,0-0.4,0.1-0.6,0.2s-0.3,0.3-0.4,0.5s-0.2,0.4-0.2,0.7v3.7H76.9z"/>
</g>
<g>
	<path d="M42.9,296.7v-9.5h3.4c0.7,0,1.3,0.1,1.8,0.4c0.5,0.3,0.8,0.6,1.1,1.1c0.2,0.5,0.4,1,0.4,1.6c0,0.6-0.1,1.1-0.4,1.6
		c-0.2,0.5-0.6,0.8-1.1,1.1c-0.5,0.3-1.1,0.4-1.8,0.4h-2.3v-1.2h2.2c0.5,0,0.8-0.1,1.1-0.2c0.3-0.2,0.5-0.4,0.6-0.7
		c0.1-0.3,0.2-0.6,0.2-1c0-0.4-0.1-0.7-0.2-1s-0.3-0.5-0.6-0.7c-0.3-0.2-0.7-0.2-1.1-0.2h-1.8v8.2H42.9z"/>
	<path d="M51.1,296.7v-7.1h1.3v1.1h0.1c0.1-0.4,0.4-0.7,0.7-0.9c0.3-0.2,0.7-0.3,1.1-0.3c0.1,0,0.2,0,0.3,0c0.1,0,0.2,0,0.3,0v1.3
		c-0.1,0-0.2,0-0.3-0.1s-0.3,0-0.4,0c-0.3,0-0.6,0.1-0.9,0.2c-0.3,0.1-0.5,0.3-0.6,0.6c-0.1,0.2-0.2,0.5-0.2,0.8v4.3H51.1z"/>
	<path d="M59.1,296.9c-0.7,0-1.2-0.2-1.7-0.5s-0.9-0.7-1.2-1.3s-0.4-1.2-0.4-1.9c0-0.7,0.1-1.4,0.4-1.9s0.7-1,1.2-1.3
		s1.1-0.5,1.7-0.5c0.7,0,1.2,0.2,1.7,0.5s0.9,0.7,1.2,1.3s0.4,1.2,0.4,1.9c0,0.7-0.1,1.4-0.4,1.9s-0.7,1-1.2,1.3
		S59.7,296.9,59.1,296.9z M59.1,295.7c0.4,0,0.8-0.1,1.1-0.3c0.3-0.2,0.5-0.5,0.6-0.9c0.1-0.4,0.2-0.8,0.2-1.3
		c0-0.5-0.1-0.9-0.2-1.2c-0.1-0.4-0.3-0.7-0.6-0.9c-0.3-0.2-0.6-0.3-1.1-0.3c-0.4,0-0.8,0.1-1.1,0.3c-0.3,0.2-0.5,0.5-0.6,0.9
		c-0.1,0.4-0.2,0.8-0.2,1.2c0,0.5,0.1,0.9,0.2,1.3c0.1,0.4,0.3,0.7,0.6,0.9C58.3,295.6,58.6,295.7,59.1,295.7z"/>
	<path d="M70,289.6l-2.6,7.1h-1.5l-2.6-7.1h1.5l1.8,5.5h0.1l1.8-5.5H70z"/>
	<path d="M72,288.5c-0.2,0-0.4-0.1-0.6-0.2s-0.3-0.4-0.3-0.6c0-0.2,0.1-0.4,0.3-0.6s0.4-0.2,0.6-0.2s0.4,0.1,0.6,0.2
		s0.3,0.4,0.3,0.6c0,0.2-0.1,0.4-0.3,0.6S72.2,288.5,72,288.5z M71.3,296.7v-7.1h1.4v7.1H71.3z"/>
	<path d="M77.2,296.8c-0.6,0-1.1-0.1-1.5-0.4c-0.4-0.3-0.8-0.7-1.1-1.3s-0.4-1.2-0.4-2c0-0.8,0.1-1.4,0.4-2c0.3-0.5,0.6-1,1.1-1.3
		c0.4-0.3,1-0.4,1.5-0.4c0.4,0,0.8,0.1,1.1,0.2c0.3,0.1,0.5,0.3,0.6,0.5c0.1,0.2,0.3,0.4,0.3,0.5h0.1v-3.5h1.4v9.5h-1.3v-1.1h-0.1
		c-0.1,0.2-0.2,0.3-0.4,0.5c-0.2,0.2-0.4,0.4-0.6,0.5C77.9,296.8,77.6,296.8,77.2,296.8z M77.5,295.7c0.4,0,0.7-0.1,1-0.3
		c0.3-0.2,0.5-0.5,0.6-0.9s0.2-0.8,0.2-1.3c0-0.5-0.1-0.9-0.2-1.3c-0.1-0.4-0.3-0.7-0.6-0.9c-0.3-0.2-0.6-0.3-1-0.3
		c-0.4,0-0.8,0.1-1,0.3c-0.3,0.2-0.5,0.5-0.6,0.9s-0.2,0.8-0.2,1.3c0,0.5,0.1,0.9,0.2,1.3s0.4,0.7,0.6,0.9
		C76.7,295.6,77.1,295.7,77.5,295.7z"/>
	<path d="M85.7,296.9c-0.7,0-1.3-0.1-1.8-0.5c-0.5-0.3-0.9-0.7-1.2-1.3c-0.3-0.5-0.4-1.2-0.4-1.9c0-0.7,0.1-1.4,0.4-1.9
		c0.3-0.6,0.7-1,1.1-1.3c0.5-0.3,1.1-0.5,1.7-0.5c0.4,0,0.8,0.1,1.2,0.2s0.7,0.3,1,0.6c0.3,0.3,0.5,0.6,0.7,1.1
		c0.2,0.5,0.3,1,0.3,1.6v0.5h-5.6v-1h4.3c0-0.4-0.1-0.7-0.2-1c-0.1-0.3-0.4-0.5-0.6-0.7s-0.6-0.2-0.9-0.2c-0.4,0-0.7,0.1-1,0.3
		c-0.3,0.2-0.5,0.4-0.7,0.7s-0.2,0.6-0.2,1v0.8c0,0.5,0.1,0.9,0.3,1.2c0.2,0.3,0.4,0.6,0.7,0.8c0.3,0.2,0.7,0.3,1.1,0.3
		c0.3,0,0.5,0,0.7-0.1c0.2-0.1,0.4-0.2,0.6-0.3c0.2-0.2,0.3-0.3,0.4-0.6l1.3,0.2c-0.1,0.4-0.3,0.7-0.6,1c-0.3,0.3-0.6,0.5-1,0.7
		C86.7,296.8,86.2,296.9,85.7,296.9z"/>
	<path d="M43.3,307.6c0,1-0.2,1.9-0.6,2.6c-0.4,0.7-0.9,1.3-1.5,1.7c-0.6,0.4-1.4,0.6-2.2,0.6c-0.8,0-1.5-0.2-2.2-0.6
		c-0.6-0.4-1.1-0.9-1.5-1.7c-0.4-0.7-0.6-1.6-0.6-2.6c0-1,0.2-1.9,0.6-2.6c0.4-0.7,0.9-1.3,1.5-1.7c0.6-0.4,1.4-0.6,2.2-0.6
		c0.8,0,1.5,0.2,2.2,0.6c0.6,0.4,1.1,0.9,1.5,1.7C43.1,305.7,43.3,306.6,43.3,307.6z M41.9,307.6c0-0.8-0.1-1.4-0.4-1.9
		c-0.2-0.5-0.6-0.9-1-1.2c-0.4-0.3-0.9-0.4-1.5-0.4c-0.5,0-1,0.1-1.5,0.4s-0.8,0.7-1,1.2c-0.2,0.5-0.4,1.2-0.4,1.9
		c0,0.8,0.1,1.4,0.4,1.9c0.2,0.5,0.6,0.9,1,1.2s0.9,0.4,1.5,0.4c0.5,0,1-0.1,1.5-0.4c0.4-0.3,0.8-0.7,1-1.2
		C41.8,309,41.9,308.4,41.9,307.6z"/>
	<path d="M46.3,308.1v4.2H45v-7.1h1.3v1.2h0.1c0.2-0.4,0.4-0.7,0.8-0.9c0.3-0.2,0.8-0.3,1.3-0.3c0.5,0,0.9,0.1,1.3,0.3
		c0.4,0.2,0.6,0.5,0.8,0.9c0.2,0.4,0.3,0.9,0.3,1.5v4.5h-1.4V308c0-0.5-0.1-0.9-0.4-1.2c-0.3-0.3-0.6-0.4-1.1-0.4
		c-0.3,0-0.6,0.1-0.9,0.2c-0.2,0.1-0.4,0.3-0.6,0.6S46.3,307.7,46.3,308.1z"/>
	<path d="M55.8,312.5c-0.7,0-1.3-0.1-1.8-0.5c-0.5-0.3-0.9-0.7-1.2-1.3c-0.3-0.5-0.4-1.2-0.4-1.9c0-0.7,0.1-1.4,0.4-1.9
		c0.3-0.6,0.7-1,1.1-1.3c0.5-0.3,1.1-0.5,1.7-0.5c0.4,0,0.8,0.1,1.2,0.2s0.7,0.3,1,0.6c0.3,0.3,0.5,0.6,0.7,1.1
		c0.2,0.5,0.3,1,0.3,1.6v0.5h-5.6v-1h4.3c0-0.4-0.1-0.7-0.2-1c-0.1-0.3-0.4-0.5-0.6-0.7s-0.6-0.2-0.9-0.2c-0.4,0-0.7,0.1-1,0.3
		c-0.3,0.2-0.5,0.4-0.7,0.7s-0.2,0.6-0.2,1v0.8c0,0.5,0.1,0.9,0.3,1.2c0.2,0.3,0.4,0.6,0.7,0.8c0.3,0.2,0.7,0.3,1.1,0.3
		c0.3,0,0.5,0,0.7-0.1c0.2-0.1,0.4-0.2,0.6-0.3c0.2-0.2,0.3-0.3,0.4-0.6l1.3,0.2c-0.1,0.4-0.3,0.7-0.6,1c-0.3,0.3-0.6,0.5-1,0.7
		C56.8,312.4,56.3,312.5,55.8,312.5z"/>
	<path d="M63.4,304.1v-1.2h7.3v1.2h-3v8.2h-1.4v-8.2H63.4z"/>
	<path d="M73,304.1c-0.2,0-0.4-0.1-0.6-0.2s-0.3-0.4-0.3-0.6c0-0.2,0.1-0.4,0.3-0.6s0.4-0.2,0.6-0.2s0.4,0.1,0.6,0.2
		s0.3,0.4,0.3,0.6c0,0.2-0.1,0.4-0.3,0.6S73.2,304.1,73,304.1z M72.3,312.3v-7.1h1.4v7.1H72.3z"/>
	<path d="M75.5,312.3v-7.1h1.3v1.2h0.1c0.1-0.4,0.4-0.7,0.7-0.9c0.3-0.2,0.7-0.3,1.2-0.3c0.5,0,0.9,0.1,1.2,0.3
		c0.3,0.2,0.6,0.5,0.7,0.9h0.1c0.2-0.4,0.4-0.7,0.8-0.9c0.4-0.2,0.8-0.3,1.3-0.3c0.6,0,1.2,0.2,1.6,0.6c0.4,0.4,0.6,1,0.6,1.8v4.8
		h-1.4v-4.6c0-0.5-0.1-0.8-0.4-1s-0.6-0.3-0.9-0.3c-0.4,0-0.8,0.1-1,0.4c-0.2,0.3-0.4,0.6-0.4,1.1v4.5h-1.4v-4.7
		c0-0.4-0.1-0.7-0.4-0.9c-0.2-0.2-0.6-0.4-0.9-0.4c-0.3,0-0.5,0.1-0.7,0.2c-0.2,0.1-0.4,0.3-0.5,0.6c-0.1,0.2-0.2,0.5-0.2,0.8v4.4
		H75.5z"/>
	<path d="M90,312.5c-0.7,0-1.3-0.1-1.8-0.5c-0.5-0.3-0.9-0.7-1.2-1.3c-0.3-0.5-0.4-1.2-0.4-1.9c0-0.7,0.1-1.4,0.4-1.9
		c0.3-0.6,0.7-1,1.1-1.3c0.5-0.3,1.1-0.5,1.7-0.5c0.4,0,0.8,0.1,1.2,0.2s0.7,0.3,1,0.6c0.3,0.3,0.5,0.6,0.7,1.1
		c0.2,0.5,0.3,1,0.3,1.6v0.5h-5.6v-1h4.3c0-0.4-0.1-0.7-0.2-1c-0.1-0.3-0.4-0.5-0.6-0.7s-0.6-0.2-0.9-0.2c-0.4,0-0.7,0.1-1,0.3
		c-0.3,0.2-0.5,0.4-0.7,0.7s-0.2,0.6-0.2,1v0.8c0,0.5,0.1,0.9,0.3,1.2c0.2,0.3,0.4,0.6,0.7,0.8c0.3,0.2,0.7,0.3,1.1,0.3
		c0.3,0,0.5,0,0.7-0.1c0.2-0.1,0.4-0.2,0.6-0.3c0.2-0.2,0.3-0.3,0.4-0.6l1.3,0.2c-0.1,0.4-0.3,0.7-0.6,1c-0.3,0.3-0.6,0.5-1,0.7
		C91,312.4,90.6,312.5,90,312.5z"/>
	<path d="M36,327.9v-9.5h3.4c0.7,0,1.3,0.1,1.8,0.4c0.5,0.3,0.8,0.6,1.1,1.1c0.2,0.5,0.4,1,0.4,1.6c0,0.6-0.1,1.1-0.4,1.6
		c-0.2,0.5-0.6,0.8-1.1,1.1c-0.5,0.3-1.1,0.4-1.8,0.4H37v-1.2h2.2c0.5,0,0.8-0.1,1.1-0.2c0.3-0.2,0.5-0.4,0.6-0.7
		c0.1-0.3,0.2-0.6,0.2-1c0-0.4-0.1-0.7-0.2-1s-0.3-0.5-0.6-0.7c-0.3-0.2-0.7-0.2-1.1-0.2h-1.8v8.2H36z"/>
	<path d="M46.2,328.1c-0.4,0-0.9-0.1-1.2-0.3c-0.4-0.2-0.7-0.4-0.9-0.7c-0.2-0.3-0.3-0.7-0.3-1.2c0-0.4,0.1-0.7,0.2-1
		c0.2-0.3,0.4-0.5,0.6-0.6c0.3-0.2,0.6-0.3,0.9-0.3c0.3-0.1,0.7-0.1,1-0.2c0.4,0,0.8-0.1,1-0.1c0.3,0,0.5-0.1,0.6-0.2
		c0.1-0.1,0.2-0.2,0.2-0.4v0c0-0.4-0.1-0.7-0.3-0.9c-0.2-0.2-0.6-0.3-1-0.3c-0.5,0-0.8,0.1-1.1,0.3c-0.3,0.2-0.5,0.4-0.6,0.7
		l-1.3-0.3c0.2-0.4,0.4-0.8,0.7-1c0.3-0.3,0.6-0.5,1-0.6s0.8-0.2,1.2-0.2c0.3,0,0.6,0,0.9,0.1c0.3,0.1,0.6,0.2,0.9,0.4
		c0.3,0.2,0.5,0.4,0.7,0.8c0.2,0.3,0.3,0.7,0.3,1.3v4.7h-1.3v-1h-0.1c-0.1,0.2-0.2,0.4-0.4,0.5c-0.2,0.2-0.4,0.3-0.7,0.4
		C47,328,46.6,328.1,46.2,328.1z M46.5,327c0.4,0,0.7-0.1,1-0.2s0.5-0.3,0.6-0.6c0.1-0.2,0.2-0.5,0.2-0.8v-0.9c0,0-0.1,0.1-0.3,0.1
		c-0.1,0-0.3,0.1-0.5,0.1c-0.2,0-0.4,0.1-0.5,0.1c-0.2,0-0.3,0-0.4,0.1c-0.3,0-0.5,0.1-0.7,0.2c-0.2,0.1-0.4,0.2-0.5,0.3
		c-0.1,0.1-0.2,0.3-0.2,0.6c0,0.3,0.1,0.6,0.4,0.8S46.1,327,46.5,327z"/>
	<path d="M56.9,322.6l-1.3,0.2c-0.1-0.2-0.1-0.3-0.2-0.5c-0.1-0.1-0.3-0.3-0.5-0.4s-0.4-0.1-0.7-0.1c-0.4,0-0.7,0.1-1,0.3
		c-0.3,0.2-0.4,0.4-0.4,0.7c0,0.2,0.1,0.4,0.3,0.6c0.2,0.1,0.5,0.3,0.8,0.4l1.1,0.3c0.7,0.2,1.1,0.4,1.5,0.7
		c0.3,0.3,0.5,0.7,0.5,1.2c0,0.4-0.1,0.8-0.4,1.1c-0.2,0.3-0.6,0.6-1,0.8c-0.4,0.2-0.9,0.3-1.5,0.3c-0.8,0-1.4-0.2-1.9-0.5
		c-0.5-0.3-0.8-0.8-0.9-1.5l1.3-0.2c0.1,0.3,0.3,0.6,0.5,0.8c0.3,0.2,0.6,0.3,1,0.3c0.5,0,0.8-0.1,1.1-0.3c0.3-0.2,0.4-0.4,0.4-0.7
		c0-0.2-0.1-0.4-0.2-0.6s-0.4-0.3-0.8-0.3l-1.2-0.3c-0.7-0.2-1.2-0.4-1.5-0.7c-0.3-0.3-0.5-0.7-0.5-1.3c0-0.4,0.1-0.8,0.4-1.1
		s0.6-0.6,1-0.7c0.4-0.2,0.9-0.3,1.4-0.3c0.8,0,1.4,0.2,1.8,0.5C56.5,321.6,56.7,322,56.9,322.6z"/>
	<path d="M63.8,322.6l-1.3,0.2c-0.1-0.2-0.1-0.3-0.2-0.5c-0.1-0.1-0.3-0.3-0.5-0.4s-0.4-0.1-0.7-0.1c-0.4,0-0.7,0.1-1,0.3
		c-0.3,0.2-0.4,0.4-0.4,0.7c0,0.2,0.1,0.4,0.3,0.6c0.2,0.1,0.5,0.3,0.8,0.4l1.1,0.3c0.7,0.2,1.1,0.4,1.5,0.7
		c0.3,0.3,0.5,0.7,0.5,1.2c0,0.4-0.1,0.8-0.4,1.1c-0.2,0.3-0.6,0.6-1,0.8c-0.4,0.2-0.9,0.3-1.5,0.3c-0.8,0-1.4-0.2-1.9-0.5
		c-0.5-0.3-0.8-0.8-0.9-1.5l1.3-0.2c0.1,0.3,0.3,0.6,0.5,0.8c0.3,0.2,0.6,0.3,1,0.3c0.5,0,0.8-0.1,1.1-0.3c0.3-0.2,0.4-0.4,0.4-0.7
		c0-0.2-0.1-0.4-0.2-0.6s-0.4-0.3-0.8-0.3l-1.2-0.3c-0.7-0.2-1.2-0.4-1.5-0.7c-0.3-0.3-0.5-0.7-0.5-1.3c0-0.4,0.1-0.8,0.4-1.1
		s0.6-0.6,1-0.7c0.4-0.2,0.9-0.3,1.4-0.3c0.8,0,1.4,0.2,1.8,0.5C63.4,321.6,63.7,322,63.8,322.6z"/>
	<path d="M67,327.9l-2.1-7.1h1.4l1.4,5.2h0.1l1.4-5.2h1.4L72,326h0.1l1.4-5.2h1.4l-2.1,7.1h-1.4l-1.4-5.1h-0.1l-1.4,5.1H67z"/>
	<path d="M79.2,328.1c-0.7,0-1.2-0.2-1.7-0.5s-0.9-0.7-1.2-1.3s-0.4-1.2-0.4-1.9c0-0.7,0.1-1.4,0.4-1.9s0.7-1,1.2-1.3
		s1.1-0.5,1.7-0.5c0.7,0,1.2,0.2,1.7,0.5s0.9,0.7,1.2,1.3s0.4,1.2,0.4,1.9c0,0.7-0.1,1.4-0.4,1.9s-0.7,1-1.2,1.3
		S79.9,328.1,79.2,328.1z M79.2,326.9c0.4,0,0.8-0.1,1.1-0.3c0.3-0.2,0.5-0.5,0.6-0.9c0.1-0.4,0.2-0.8,0.2-1.3
		c0-0.5-0.1-0.9-0.2-1.2c-0.1-0.4-0.3-0.7-0.6-0.9c-0.3-0.2-0.6-0.3-1.1-0.3c-0.4,0-0.8,0.1-1.1,0.3c-0.3,0.2-0.5,0.5-0.6,0.9
		c-0.1,0.4-0.2,0.8-0.2,1.2c0,0.5,0.1,0.9,0.2,1.3c0.1,0.4,0.3,0.7,0.6,0.9C78.4,326.8,78.8,326.9,79.2,326.9z"/>
	<path d="M84.1,327.9v-7.1h1.3v1.1h0.1c0.1-0.4,0.4-0.7,0.7-0.9c0.3-0.2,0.7-0.3,1.1-0.3c0.1,0,0.2,0,0.3,0c0.1,0,0.2,0,0.3,0v1.3
		c-0.1,0-0.2,0-0.3-0.1s-0.3,0-0.4,0c-0.3,0-0.6,0.1-0.9,0.2c-0.3,0.1-0.5,0.3-0.6,0.6c-0.1,0.2-0.2,0.5-0.2,0.8v4.3H84.1z"/>
	<path d="M91.7,328c-0.6,0-1.1-0.1-1.5-0.4c-0.4-0.3-0.8-0.7-1.1-1.3s-0.4-1.2-0.4-2c0-0.8,0.1-1.4,0.4-2c0.3-0.5,0.6-1,1.1-1.3
		c0.4-0.3,1-0.4,1.5-0.4c0.4,0,0.8,0.1,1.1,0.2c0.3,0.1,0.5,0.3,0.6,0.5c0.1,0.2,0.3,0.4,0.3,0.5h0.1v-3.5h1.4v9.5h-1.3v-1.1h-0.1
		c-0.1,0.2-0.2,0.3-0.4,0.5c-0.2,0.2-0.4,0.4-0.6,0.5C92.5,328,92.1,328,91.7,328z M92,326.9c0.4,0,0.7-0.1,1-0.3
		c0.3-0.2,0.5-0.5,0.6-0.9s0.2-0.8,0.2-1.3c0-0.5-0.1-0.9-0.2-1.3c-0.1-0.4-0.3-0.7-0.6-0.9c-0.3-0.2-0.6-0.3-1-0.3
		c-0.4,0-0.8,0.1-1,0.3c-0.3,0.2-0.5,0.5-0.6,0.9s-0.2,0.8-0.2,1.3c0,0.5,0.1,0.9,0.2,1.3s0.4,0.7,0.6,0.9
		C91.3,326.8,91.6,326.9,92,326.9z"/>
</g>
<g>
	<path d="M41,406.9h-1.5l3.4-9.5h1.6l3.4,9.5h-1.5l-2.7-7.7h-0.1L41,406.9z M41.2,403.2h4.9v1.2h-4.9V403.2z"/>
	<path d="M52.2,407.1c-0.7,0-1.3-0.2-1.8-0.5c-0.5-0.3-0.9-0.7-1.1-1.3c-0.3-0.6-0.4-1.2-0.4-1.9c0-0.7,0.1-1.4,0.4-1.9
		c0.3-0.6,0.7-1,1.1-1.3c0.5-0.3,1.1-0.5,1.7-0.5c0.5,0,1,0.1,1.4,0.3c0.4,0.2,0.8,0.5,1,0.8s0.4,0.8,0.5,1.3h-1.3
		c-0.1-0.3-0.2-0.6-0.5-0.9c-0.3-0.2-0.6-0.4-1.1-0.4c-0.4,0-0.7,0.1-1,0.3c-0.3,0.2-0.5,0.5-0.7,0.9c-0.2,0.4-0.2,0.8-0.2,1.3
		c0,0.5,0.1,1,0.2,1.3c0.2,0.4,0.4,0.7,0.7,0.9c0.3,0.2,0.6,0.3,1,0.3c0.3,0,0.5,0,0.7-0.1c0.2-0.1,0.4-0.2,0.5-0.4
		c0.1-0.2,0.2-0.4,0.3-0.7h1.3c0,0.5-0.2,0.9-0.4,1.2c-0.2,0.4-0.6,0.6-1,0.8C53.2,407,52.7,407.1,52.2,407.1z"/>
	<path d="M59.5,407.1c-0.7,0-1.3-0.2-1.8-0.5c-0.5-0.3-0.9-0.7-1.1-1.3c-0.3-0.6-0.4-1.2-0.4-1.9c0-0.7,0.1-1.4,0.4-1.9
		c0.3-0.6,0.7-1,1.1-1.3c0.5-0.3,1.1-0.5,1.7-0.5c0.5,0,1,0.1,1.4,0.3c0.4,0.2,0.8,0.5,1,0.8s0.4,0.8,0.5,1.3h-1.3
		c-0.1-0.3-0.2-0.6-0.5-0.9c-0.3-0.2-0.6-0.4-1.1-0.4c-0.4,0-0.7,0.1-1,0.3c-0.3,0.2-0.5,0.5-0.7,0.9c-0.2,0.4-0.2,0.8-0.2,1.3
		c0,0.5,0.1,1,0.2,1.3c0.2,0.4,0.4,0.7,0.7,0.9c0.3,0.2,0.6,0.3,1,0.3c0.3,0,0.5,0,0.7-0.1c0.2-0.1,0.4-0.2,0.5-0.4
		c0.1-0.2,0.2-0.4,0.3-0.7h1.3c0,0.5-0.2,0.9-0.4,1.2c-0.2,0.4-0.6,0.6-1,0.8C60.6,407,60.1,407.1,59.5,407.1z"/>
	<path d="M66.9,407.1c-0.7,0-1.2-0.2-1.7-0.5s-0.9-0.7-1.2-1.3s-0.4-1.2-0.4-1.9c0-0.7,0.1-1.4,0.4-1.9s0.7-1,1.2-1.3
		s1.1-0.5,1.7-0.5c0.7,0,1.2,0.2,1.7,0.5s0.9,0.7,1.2,1.3s0.4,1.2,0.4,1.9c0,0.7-0.1,1.4-0.4,1.9s-0.7,1-1.2,1.3
		S67.6,407.1,66.9,407.1z M66.9,405.9c0.4,0,0.8-0.1,1.1-0.3c0.3-0.2,0.5-0.5,0.6-0.9c0.1-0.4,0.2-0.8,0.2-1.3
		c0-0.5-0.1-0.9-0.2-1.2c-0.1-0.4-0.3-0.7-0.6-0.9c-0.3-0.2-0.6-0.3-1.1-0.3c-0.4,0-0.8,0.1-1.1,0.3c-0.3,0.2-0.5,0.5-0.6,0.9
		c-0.1,0.4-0.2,0.8-0.2,1.2c0,0.5,0.1,0.9,0.2,1.3c0.1,0.4,0.3,0.7,0.6,0.9C66.1,405.8,66.5,405.9,66.9,405.9z"/>
	<path d="M76.3,404v-4.1h1.4v7.1h-1.4v-1.2h-0.1c-0.2,0.4-0.4,0.7-0.8,0.9c-0.4,0.3-0.8,0.4-1.3,0.4c-0.5,0-0.9-0.1-1.2-0.3
		s-0.6-0.5-0.8-0.9c-0.2-0.4-0.3-0.9-0.3-1.5v-4.5h1.4v4.3c0,0.5,0.1,0.9,0.4,1.2c0.3,0.3,0.6,0.4,1,0.4c0.3,0,0.5-0.1,0.8-0.2
		c0.3-0.1,0.5-0.3,0.6-0.6C76.2,404.7,76.3,404.4,76.3,404z"/>
	<path d="M80.9,402.7v4.2h-1.4v-7.1h1.3v1.2h0.1c0.2-0.4,0.4-0.7,0.8-0.9c0.3-0.2,0.8-0.3,1.3-0.3c0.5,0,0.9,0.1,1.3,0.3
		c0.4,0.2,0.6,0.5,0.8,0.9c0.2,0.4,0.3,0.9,0.3,1.5v4.5H84v-4.3c0-0.5-0.1-0.9-0.4-1.2c-0.3-0.3-0.6-0.4-1.1-0.4
		c-0.3,0-0.6,0.1-0.9,0.2c-0.2,0.1-0.4,0.3-0.6,0.6S80.9,402.4,80.9,402.7z"/>
	<path d="M90.6,399.8v1.1h-3.9v-1.1H90.6z M87.7,398.1h1.4v6.7c0,0.3,0,0.5,0.1,0.6s0.2,0.2,0.3,0.3c0.1,0,0.3,0.1,0.4,0.1
		c0.1,0,0.2,0,0.3,0c0.1,0,0.1,0,0.2,0l0.2,1.1c-0.1,0-0.2,0.1-0.3,0.1c-0.1,0-0.3,0.1-0.6,0.1c-0.4,0-0.7-0.1-1-0.2
		s-0.6-0.3-0.8-0.6s-0.3-0.6-0.3-1.1V398.1z"/>
	<path d="M41.8,416.2h-1.4c-0.1-0.3-0.2-0.6-0.3-0.8s-0.3-0.4-0.6-0.6c-0.2-0.2-0.5-0.3-0.7-0.4s-0.6-0.1-0.9-0.1
		c-0.5,0-1,0.1-1.5,0.4s-0.8,0.7-1,1.2c-0.2,0.5-0.4,1.2-0.4,1.9c0,0.8,0.1,1.4,0.4,1.9c0.2,0.5,0.6,0.9,1,1.2
		c0.4,0.3,0.9,0.4,1.5,0.4c0.3,0,0.6,0,0.9-0.1c0.3-0.1,0.5-0.2,0.7-0.4c0.2-0.2,0.4-0.4,0.6-0.6c0.2-0.2,0.3-0.5,0.3-0.8l1.4,0
		c-0.1,0.5-0.2,0.9-0.4,1.3c-0.2,0.4-0.5,0.7-0.8,1s-0.7,0.5-1.2,0.7c-0.4,0.2-0.9,0.2-1.4,0.2c-0.8,0-1.5-0.2-2.2-0.6
		c-0.6-0.4-1.1-0.9-1.5-1.7c-0.4-0.7-0.6-1.6-0.6-2.6c0-1,0.2-1.9,0.6-2.6c0.4-0.7,0.9-1.3,1.5-1.7c0.6-0.4,1.4-0.6,2.2-0.6
		c0.5,0,1,0.1,1.4,0.2s0.8,0.4,1.2,0.6s0.6,0.6,0.9,1C41.6,415.2,41.8,415.7,41.8,416.2z"/>
	<path d="M43.4,422.5v-7.1h1.3v1.1h0.1c0.1-0.4,0.4-0.7,0.7-0.9c0.3-0.2,0.7-0.3,1.1-0.3c0.1,0,0.2,0,0.3,0c0.1,0,0.2,0,0.3,0v1.3
		c-0.1,0-0.2,0-0.3-0.1s-0.3,0-0.4,0c-0.3,0-0.6,0.1-0.9,0.2c-0.3,0.1-0.5,0.3-0.6,0.6c-0.1,0.2-0.2,0.5-0.2,0.8v4.3H43.4z"/>
	<path d="M51.5,422.7c-0.7,0-1.3-0.1-1.8-0.5c-0.5-0.3-0.9-0.7-1.2-1.3c-0.3-0.5-0.4-1.2-0.4-1.9c0-0.7,0.1-1.4,0.4-1.9
		c0.3-0.6,0.7-1,1.1-1.3c0.5-0.3,1.1-0.5,1.7-0.5c0.4,0,0.8,0.1,1.2,0.2s0.7,0.3,1,0.6c0.3,0.3,0.5,0.6,0.7,1.1
		c0.2,0.5,0.3,1,0.3,1.6v0.5h-5.6v-1h4.3c0-0.4-0.1-0.7-0.2-1c-0.1-0.3-0.4-0.5-0.6-0.7s-0.6-0.2-0.9-0.2c-0.4,0-0.7,0.1-1,0.3
		c-0.3,0.2-0.5,0.4-0.7,0.7s-0.2,0.6-0.2,1v0.8c0,0.5,0.1,0.9,0.3,1.2c0.2,0.3,0.4,0.6,0.7,0.8c0.3,0.2,0.7,0.3,1.1,0.3
		c0.3,0,0.5,0,0.7-0.1c0.2-0.1,0.4-0.2,0.6-0.3c0.2-0.2,0.3-0.3,0.4-0.6l1.3,0.2c-0.1,0.4-0.3,0.7-0.6,1c-0.3,0.3-0.6,0.5-1,0.7
		C52.5,422.6,52,422.7,51.5,422.7z"/>
	<path d="M58.7,422.7c-0.6,0-1.1-0.1-1.5-0.4c-0.4-0.3-0.8-0.7-1.1-1.3s-0.4-1.2-0.4-2c0-0.8,0.1-1.4,0.4-2c0.3-0.5,0.6-1,1.1-1.3
		c0.4-0.3,1-0.4,1.5-0.4c0.4,0,0.8,0.1,1.1,0.2c0.3,0.1,0.5,0.3,0.6,0.5c0.1,0.2,0.3,0.4,0.3,0.5h0.1v-3.5h1.4v9.5h-1.3v-1.1h-0.1
		c-0.1,0.2-0.2,0.3-0.4,0.5c-0.2,0.2-0.4,0.4-0.6,0.5C59.5,422.6,59.1,422.7,58.7,422.7z M59,421.5c0.4,0,0.7-0.1,1-0.3
		c0.3-0.2,0.5-0.5,0.6-0.9s0.2-0.8,0.2-1.3c0-0.5-0.1-0.9-0.2-1.3c-0.1-0.4-0.3-0.7-0.6-0.9c-0.3-0.2-0.6-0.3-1-0.3
		c-0.4,0-0.8,0.1-1,0.3c-0.3,0.2-0.5,0.5-0.6,0.9s-0.2,0.8-0.2,1.3c0,0.5,0.1,0.9,0.2,1.3s0.4,0.7,0.6,0.9
		C58.3,421.4,58.6,421.5,59,421.5z"/>
	<path d="M67.3,422.7c-0.7,0-1.3-0.1-1.8-0.5c-0.5-0.3-0.9-0.7-1.2-1.3c-0.3-0.5-0.4-1.2-0.4-1.9c0-0.7,0.1-1.4,0.4-1.9
		c0.3-0.6,0.7-1,1.1-1.3c0.5-0.3,1.1-0.5,1.7-0.5c0.4,0,0.8,0.1,1.2,0.2s0.7,0.3,1,0.6c0.3,0.3,0.5,0.6,0.7,1.1
		c0.2,0.5,0.3,1,0.3,1.6v0.5h-5.6v-1h4.3c0-0.4-0.1-0.7-0.2-1c-0.1-0.3-0.4-0.5-0.6-0.7s-0.6-0.2-0.9-0.2c-0.4,0-0.7,0.1-1,0.3
		c-0.3,0.2-0.5,0.4-0.7,0.7s-0.2,0.6-0.2,1v0.8c0,0.5,0.1,0.9,0.3,1.2c0.2,0.3,0.4,0.6,0.7,0.8c0.3,0.2,0.7,0.3,1.1,0.3
		c0.3,0,0.5,0,0.7-0.1c0.2-0.1,0.4-0.2,0.6-0.3c0.2-0.2,0.3-0.3,0.4-0.6l1.3,0.2c-0.1,0.4-0.3,0.7-0.6,1c-0.3,0.3-0.6,0.5-1,0.7
		C68.2,422.6,67.8,422.7,67.3,422.7z"/>
	<path d="M73.2,418.3v4.2h-1.4v-7.1h1.3v1.2h0.1c0.2-0.4,0.4-0.7,0.8-0.9c0.3-0.2,0.8-0.3,1.3-0.3c0.5,0,0.9,0.1,1.3,0.3
		c0.4,0.2,0.6,0.5,0.8,0.9c0.2,0.4,0.3,0.9,0.3,1.5v4.5h-1.4v-4.3c0-0.5-0.1-0.9-0.4-1.2c-0.3-0.3-0.6-0.4-1.1-0.4
		c-0.3,0-0.6,0.1-0.9,0.2c-0.2,0.1-0.4,0.3-0.6,0.6S73.2,418,73.2,418.3z"/>
	<path d="M82.9,415.4v1.1H79v-1.1H82.9z M80.1,413.7h1.4v6.7c0,0.3,0,0.5,0.1,0.6s0.2,0.2,0.3,0.3c0.1,0,0.3,0.1,0.4,0.1
		c0.1,0,0.2,0,0.3,0c0.1,0,0.1,0,0.2,0l0.2,1.1c-0.1,0-0.2,0.1-0.3,0.1c-0.1,0-0.3,0.1-0.6,0.1c-0.4,0-0.7-0.1-1-0.2
		s-0.6-0.3-0.8-0.6s-0.3-0.6-0.3-1.1V413.7z"/>
	<path d="M85.1,414.4c-0.2,0-0.4-0.1-0.6-0.2s-0.3-0.4-0.3-0.6c0-0.2,0.1-0.4,0.3-0.6s0.4-0.2,0.6-0.2s0.4,0.1,0.6,0.2
		s0.3,0.4,0.3,0.6c0,0.2-0.1,0.4-0.3,0.6S85.4,414.4,85.1,414.4z M84.4,422.5v-7.1h1.4v7.1H84.4z"/>
	<path d="M89.7,422.7c-0.4,0-0.9-0.1-1.2-0.3c-0.4-0.2-0.7-0.4-0.9-0.7c-0.2-0.3-0.3-0.7-0.3-1.2c0-0.4,0.1-0.7,0.2-1
		c0.2-0.3,0.4-0.5,0.6-0.6c0.3-0.2,0.6-0.3,0.9-0.3c0.3-0.1,0.7-0.1,1-0.2c0.4,0,0.8-0.1,1-0.1c0.3,0,0.5-0.1,0.6-0.2
		c0.1-0.1,0.2-0.2,0.2-0.4v0c0-0.4-0.1-0.7-0.3-0.9c-0.2-0.2-0.6-0.3-1-0.3c-0.5,0-0.8,0.1-1.1,0.3c-0.3,0.2-0.5,0.4-0.6,0.7
		l-1.3-0.3c0.2-0.4,0.4-0.8,0.7-1c0.3-0.3,0.6-0.5,1-0.6s0.8-0.2,1.2-0.2c0.3,0,0.6,0,0.9,0.1c0.3,0.1,0.6,0.2,0.9,0.4
		c0.3,0.2,0.5,0.4,0.7,0.8c0.2,0.3,0.3,0.7,0.3,1.3v4.7h-1.3v-1h-0.1c-0.1,0.2-0.2,0.4-0.4,0.5c-0.2,0.2-0.4,0.3-0.7,0.4
		C90.5,422.6,90.1,422.7,89.7,422.7z M90,421.6c0.4,0,0.7-0.1,1-0.2s0.5-0.3,0.6-0.6c0.1-0.2,0.2-0.5,0.2-0.8v-0.9
		c0,0-0.1,0.1-0.3,0.1c-0.1,0-0.3,0.1-0.5,0.1c-0.2,0-0.4,0.1-0.5,0.1c-0.2,0-0.3,0-0.4,0.1c-0.3,0-0.5,0.1-0.7,0.2
		c-0.2,0.1-0.4,0.2-0.5,0.3c-0.1,0.1-0.2,0.3-0.2,0.6c0,0.3,0.1,0.6,0.4,0.8S89.6,421.6,90,421.6z"/>
	<path d="M96.4,413.1v9.5h-1.4v-9.5H96.4z"/>
	<path d="M35,433.9v4.2h-1.4v-9.5H35v3.5h0.1c0.2-0.4,0.4-0.7,0.8-0.9s0.8-0.3,1.3-0.3c0.5,0,0.9,0.1,1.3,0.3
		c0.4,0.2,0.6,0.5,0.8,0.9c0.2,0.4,0.3,0.9,0.3,1.5v4.5h-1.4v-4.3c0-0.5-0.1-0.9-0.4-1.2c-0.3-0.3-0.6-0.4-1.1-0.4
		c-0.3,0-0.6,0.1-0.9,0.2s-0.5,0.3-0.6,0.6C35.1,433.2,35,433.6,35,433.9z"/>
	<path d="M43.6,438.3c-0.4,0-0.9-0.1-1.2-0.3c-0.4-0.2-0.7-0.4-0.9-0.7c-0.2-0.3-0.3-0.7-0.3-1.2c0-0.4,0.1-0.7,0.2-1
		c0.2-0.3,0.4-0.5,0.6-0.6c0.3-0.2,0.6-0.3,0.9-0.3c0.3-0.1,0.7-0.1,1-0.2c0.4,0,0.8-0.1,1-0.1c0.3,0,0.5-0.1,0.6-0.2
		c0.1-0.1,0.2-0.2,0.2-0.4v0c0-0.4-0.1-0.7-0.3-0.9c-0.2-0.2-0.6-0.3-1-0.3c-0.5,0-0.8,0.1-1.1,0.3c-0.3,0.2-0.5,0.4-0.6,0.7
		l-1.3-0.3c0.2-0.4,0.4-0.8,0.7-1c0.3-0.3,0.6-0.5,1-0.6s0.8-0.2,1.2-0.2c0.3,0,0.6,0,0.9,0.1c0.3,0.1,0.6,0.2,0.9,0.4
		c0.3,0.2,0.5,0.4,0.7,0.8c0.2,0.3,0.3,0.7,0.3,1.3v4.7h-1.3v-1h-0.1c-0.1,0.2-0.2,0.4-0.4,0.5c-0.2,0.2-0.4,0.3-0.7,0.4
		C44.3,438.2,43.9,438.3,43.6,438.3z M43.9,437.2c0.4,0,0.7-0.1,1-0.2s0.5-0.3,0.6-0.6c0.1-0.2,0.2-0.5,0.2-0.8v-0.9
		c0,0-0.1,0.1-0.3,0.1c-0.1,0-0.3,0.1-0.5,0.1c-0.2,0-0.4,0.1-0.5,0.1c-0.2,0-0.3,0-0.4,0.1c-0.3,0-0.5,0.1-0.7,0.2
		c-0.2,0.1-0.4,0.2-0.5,0.3c-0.1,0.1-0.2,0.3-0.2,0.6c0,0.3,0.1,0.6,0.4,0.8S43.5,437.2,43.9,437.2z"/>
	<path d="M55,431l-2.6,7.1h-1.5l-2.6-7.1h1.5l1.8,5.5h0.1l1.8-5.5H55z"/>
	<path d="M59.3,438.3c-0.7,0-1.3-0.1-1.8-0.5c-0.5-0.3-0.9-0.7-1.2-1.3c-0.3-0.5-0.4-1.2-0.4-1.9c0-0.7,0.1-1.4,0.4-1.9
		c0.3-0.6,0.7-1,1.1-1.3c0.5-0.3,1.1-0.5,1.7-0.5c0.4,0,0.8,0.1,1.2,0.2s0.7,0.3,1,0.6c0.3,0.3,0.5,0.6,0.7,1.1
		c0.2,0.5,0.3,1,0.3,1.6v0.5h-5.6v-1H61c0-0.4-0.1-0.7-0.2-1c-0.1-0.3-0.4-0.5-0.6-0.7s-0.6-0.2-0.9-0.2c-0.4,0-0.7,0.1-1,0.3
		c-0.3,0.2-0.5,0.4-0.7,0.7s-0.2,0.6-0.2,1v0.8c0,0.5,0.1,0.9,0.3,1.2c0.2,0.3,0.4,0.6,0.7,0.8c0.3,0.2,0.7,0.3,1.1,0.3
		c0.3,0,0.5,0,0.7-0.1c0.2-0.1,0.4-0.2,0.6-0.3c0.2-0.2,0.3-0.3,0.4-0.6l1.3,0.2c-0.1,0.4-0.3,0.7-0.6,1c-0.3,0.3-0.6,0.5-1,0.7
		C60.3,438.2,59.8,438.3,59.3,438.3z"/>
	<path d="M67.4,438.1v-9.5h1.4v3.5h0.1c0.1-0.1,0.2-0.3,0.3-0.5c0.2-0.2,0.4-0.4,0.6-0.5c0.3-0.1,0.6-0.2,1.1-0.2
		c0.6,0,1.1,0.1,1.5,0.4c0.4,0.3,0.8,0.7,1.1,1.3c0.3,0.5,0.4,1.2,0.4,2c0,0.8-0.1,1.4-0.4,2s-0.6,1-1.1,1.3c-0.4,0.3-1,0.4-1.5,0.4
		c-0.4,0-0.8-0.1-1.1-0.2s-0.5-0.3-0.6-0.5s-0.3-0.4-0.4-0.5h-0.1v1.1H67.4z M68.8,434.6c0,0.5,0.1,0.9,0.2,1.3
		c0.1,0.4,0.4,0.7,0.6,0.9s0.6,0.3,1,0.3c0.4,0,0.8-0.1,1-0.3c0.3-0.2,0.5-0.5,0.6-0.9s0.2-0.8,0.2-1.3c0-0.5-0.1-0.9-0.2-1.3
		c-0.1-0.4-0.3-0.7-0.6-0.9c-0.3-0.2-0.6-0.3-1-0.3c-0.4,0-0.7,0.1-1,0.3c-0.3,0.2-0.5,0.5-0.6,0.9
		C68.9,433.7,68.8,434.1,68.8,434.6z"/>
	<path d="M78.5,438.3c-0.7,0-1.3-0.1-1.8-0.5c-0.5-0.3-0.9-0.7-1.2-1.3c-0.3-0.5-0.4-1.2-0.4-1.9c0-0.7,0.1-1.4,0.4-1.9
		c0.3-0.6,0.7-1,1.1-1.3c0.5-0.3,1.1-0.5,1.7-0.5c0.4,0,0.8,0.1,1.2,0.2s0.7,0.3,1,0.6c0.3,0.3,0.5,0.6,0.7,1.1
		c0.2,0.5,0.3,1,0.3,1.6v0.5h-5.6v-1h4.3c0-0.4-0.1-0.7-0.2-1c-0.1-0.3-0.4-0.5-0.6-0.7s-0.6-0.2-0.9-0.2c-0.4,0-0.7,0.1-1,0.3
		c-0.3,0.2-0.5,0.4-0.7,0.7s-0.2,0.6-0.2,1v0.8c0,0.5,0.1,0.9,0.3,1.2c0.2,0.3,0.4,0.6,0.7,0.8c0.3,0.2,0.7,0.3,1.1,0.3
		c0.3,0,0.5,0,0.7-0.1c0.2-0.1,0.4-0.2,0.6-0.3c0.2-0.2,0.3-0.3,0.4-0.6l1.3,0.2c-0.1,0.4-0.3,0.7-0.6,1c-0.3,0.3-0.6,0.5-1,0.7
		C79.5,438.2,79,438.3,78.5,438.3z"/>
	<path d="M86.2,438.3c-0.7,0-1.3-0.1-1.8-0.5c-0.5-0.3-0.9-0.7-1.2-1.3c-0.3-0.5-0.4-1.2-0.4-1.9c0-0.7,0.1-1.4,0.4-1.9
		c0.3-0.6,0.7-1,1.1-1.3c0.5-0.3,1.1-0.5,1.7-0.5c0.4,0,0.8,0.1,1.2,0.2s0.7,0.3,1,0.6c0.3,0.3,0.5,0.6,0.7,1.1
		c0.2,0.5,0.3,1,0.3,1.6v0.5h-5.6v-1h4.3c0-0.4-0.1-0.7-0.2-1c-0.1-0.3-0.4-0.5-0.6-0.7s-0.6-0.2-0.9-0.2c-0.4,0-0.7,0.1-1,0.3
		c-0.3,0.2-0.5,0.4-0.7,0.7s-0.2,0.6-0.2,1v0.8c0,0.5,0.1,0.9,0.3,1.2c0.2,0.3,0.4,0.6,0.7,0.8c0.3,0.2,0.7,0.3,1.1,0.3
		c0.3,0,0.5,0,0.7-0.1c0.2-0.1,0.4-0.2,0.6-0.3c0.2-0.2,0.3-0.3,0.4-0.6l1.3,0.2c-0.1,0.4-0.3,0.7-0.6,1c-0.3,0.3-0.6,0.5-1,0.7
		C87.1,438.2,86.7,438.3,86.2,438.3z"/>
	<path d="M92.1,433.9v4.2h-1.4V431h1.3v1.2h0.1c0.2-0.4,0.4-0.7,0.8-0.9c0.3-0.2,0.8-0.3,1.3-0.3c0.5,0,0.9,0.1,1.3,0.3
		c0.4,0.2,0.6,0.5,0.8,0.9c0.2,0.4,0.3,0.9,0.3,1.5v4.5h-1.4v-4.3c0-0.5-0.1-0.9-0.4-1.2c-0.3-0.3-0.6-0.4-1.1-0.4
		c-0.3,0-0.6,0.1-0.9,0.2c-0.2,0.1-0.4,0.3-0.6,0.6S92.1,433.6,92.1,433.9z"/>
	<path d="M31.4,448.4l-1.3,0.2c-0.1-0.2-0.1-0.3-0.2-0.5c-0.1-0.1-0.3-0.3-0.5-0.4s-0.4-0.1-0.7-0.1c-0.4,0-0.7,0.1-1,0.3
		c-0.3,0.2-0.4,0.4-0.4,0.7c0,0.2,0.1,0.4,0.3,0.6c0.2,0.1,0.5,0.3,0.8,0.4l1.1,0.3c0.7,0.2,1.1,0.4,1.5,0.7
		c0.3,0.3,0.5,0.7,0.5,1.2c0,0.4-0.1,0.8-0.4,1.1c-0.2,0.3-0.6,0.6-1,0.8c-0.4,0.2-0.9,0.3-1.5,0.3c-0.8,0-1.4-0.2-1.9-0.5
		c-0.5-0.3-0.8-0.8-0.9-1.5l1.3-0.2c0.1,0.3,0.3,0.6,0.5,0.8c0.3,0.2,0.6,0.3,1,0.3c0.5,0,0.8-0.1,1.1-0.3c0.3-0.2,0.4-0.4,0.4-0.7
		c0-0.2-0.1-0.4-0.2-0.6s-0.4-0.3-0.8-0.3l-1.2-0.3c-0.7-0.2-1.2-0.4-1.5-0.7c-0.3-0.3-0.5-0.7-0.5-1.3c0-0.4,0.1-0.8,0.4-1.1
		s0.6-0.6,1-0.7c0.4-0.2,0.9-0.3,1.4-0.3c0.8,0,1.4,0.2,1.8,0.5C31,447.4,31.3,447.8,31.4,448.4z"/>
	<path d="M36.1,453.9c-0.7,0-1.3-0.1-1.8-0.5c-0.5-0.3-0.9-0.7-1.2-1.3c-0.3-0.5-0.4-1.2-0.4-1.9c0-0.7,0.1-1.4,0.4-1.9
		c0.3-0.6,0.7-1,1.1-1.3c0.5-0.3,1.1-0.5,1.7-0.5c0.4,0,0.8,0.1,1.2,0.2s0.7,0.3,1,0.6c0.3,0.3,0.5,0.6,0.7,1.1
		c0.2,0.5,0.3,1,0.3,1.6v0.5h-5.6v-1h4.3c0-0.4-0.1-0.7-0.2-1c-0.1-0.3-0.4-0.5-0.6-0.7s-0.6-0.2-0.9-0.2c-0.4,0-0.7,0.1-1,0.3
		c-0.3,0.2-0.5,0.4-0.7,0.7s-0.2,0.6-0.2,1v0.8c0,0.5,0.1,0.9,0.3,1.2c0.2,0.3,0.4,0.6,0.7,0.8c0.3,0.2,0.7,0.3,1.1,0.3
		c0.3,0,0.5,0,0.7-0.1c0.2-0.1,0.4-0.2,0.6-0.3c0.2-0.2,0.3-0.3,0.4-0.6l1.3,0.2c-0.1,0.4-0.3,0.7-0.6,1c-0.3,0.3-0.6,0.5-1,0.7
		C37.1,453.8,36.7,453.9,36.1,453.9z"/>
	<path d="M42.1,449.5v4.2h-1.4v-7.1H42v1.2h0.1c0.2-0.4,0.4-0.7,0.8-0.9c0.3-0.2,0.8-0.3,1.3-0.3c0.5,0,0.9,0.1,1.3,0.3
		c0.4,0.2,0.6,0.5,0.8,0.9c0.2,0.4,0.3,0.9,0.3,1.5v4.5h-1.4v-4.3c0-0.5-0.1-0.9-0.4-1.2c-0.3-0.3-0.6-0.4-1.1-0.4
		c-0.3,0-0.6,0.1-0.9,0.2c-0.2,0.1-0.4,0.3-0.6,0.6S42.1,449.2,42.1,449.5z"/>
	<path d="M51.8,446.6v1.1h-3.9v-1.1H51.8z M49,444.9h1.4v6.7c0,0.3,0,0.5,0.1,0.6s0.2,0.2,0.3,0.3c0.1,0,0.3,0.1,0.4,0.1
		c0.1,0,0.2,0,0.3,0c0.1,0,0.1,0,0.2,0l0.2,1.1c-0.1,0-0.2,0.1-0.3,0.1c-0.1,0-0.3,0.1-0.6,0.1c-0.4,0-0.7-0.1-1-0.2
		s-0.6-0.3-0.8-0.6s-0.3-0.6-0.3-1.1V444.9z"/>
	<path d="M60.1,446.6v1.1h-3.9v-1.1H60.1z M57.2,444.9h1.4v6.7c0,0.3,0,0.5,0.1,0.6s0.2,0.2,0.3,0.3c0.1,0,0.3,0.1,0.4,0.1
		c0.1,0,0.2,0,0.3,0c0.1,0,0.1,0,0.2,0l0.2,1.1c-0.1,0-0.2,0.1-0.3,0.1c-0.1,0-0.3,0.1-0.6,0.1c-0.4,0-0.7-0.1-1-0.2
		s-0.6-0.3-0.8-0.6s-0.3-0.6-0.3-1.1V444.9z"/>
	<path d="M64.6,453.9c-0.7,0-1.2-0.2-1.7-0.5s-0.9-0.7-1.2-1.3s-0.4-1.2-0.4-1.9c0-0.7,0.1-1.4,0.4-1.9s0.7-1,1.2-1.3
		s1.1-0.5,1.7-0.5c0.7,0,1.2,0.2,1.7,0.5s0.9,0.7,1.2,1.3s0.4,1.2,0.4,1.9c0,0.7-0.1,1.4-0.4,1.9s-0.7,1-1.2,1.3
		S65.2,453.9,64.6,453.9z M64.6,452.7c0.4,0,0.8-0.1,1.1-0.3c0.3-0.2,0.5-0.5,0.6-0.9c0.1-0.4,0.2-0.8,0.2-1.3
		c0-0.5-0.1-0.9-0.2-1.2c-0.1-0.4-0.3-0.7-0.6-0.9c-0.3-0.2-0.6-0.3-1.1-0.3c-0.4,0-0.8,0.1-1.1,0.3c-0.3,0.2-0.5,0.5-0.6,0.9
		c-0.1,0.4-0.2,0.8-0.2,1.2c0,0.5,0.1,0.9,0.2,1.3c0.1,0.4,0.3,0.7,0.6,0.9C63.8,452.6,64.1,452.7,64.6,452.7z"/>
	<path d="M73,453.7v-9.5h5.9v1.2h-4.5v2.9h4.2v1.2h-4.2v2.9H79v1.2H73z"/>
	<path d="M80.7,453.7v-7.1H82v1.2h0.1c0.1-0.4,0.4-0.7,0.7-0.9c0.3-0.2,0.7-0.3,1.2-0.3c0.5,0,0.9,0.1,1.2,0.3
		c0.3,0.2,0.6,0.5,0.7,0.9H86c0.2-0.4,0.4-0.7,0.8-0.9c0.4-0.2,0.8-0.3,1.3-0.3c0.6,0,1.2,0.2,1.6,0.6c0.4,0.4,0.6,1,0.6,1.8v4.8H89
		v-4.6c0-0.5-0.1-0.8-0.4-1s-0.6-0.3-0.9-0.3c-0.4,0-0.8,0.1-1,0.4c-0.2,0.3-0.4,0.6-0.4,1.1v4.5h-1.4V449c0-0.4-0.1-0.7-0.4-0.9
		c-0.2-0.2-0.6-0.4-0.9-0.4c-0.3,0-0.5,0.1-0.7,0.2c-0.2,0.1-0.4,0.3-0.5,0.6c-0.1,0.2-0.2,0.5-0.2,0.8v4.4H80.7z"/>
	<path d="M94.2,453.9c-0.4,0-0.9-0.1-1.2-0.3c-0.4-0.2-0.7-0.4-0.9-0.7c-0.2-0.3-0.3-0.7-0.3-1.2c0-0.4,0.1-0.7,0.2-1
		c0.2-0.3,0.4-0.5,0.6-0.6c0.3-0.2,0.6-0.3,0.9-0.3c0.3-0.1,0.7-0.1,1-0.2c0.4,0,0.8-0.1,1-0.1c0.3,0,0.5-0.1,0.6-0.2
		c0.1-0.1,0.2-0.2,0.2-0.4v0c0-0.4-0.1-0.7-0.3-0.9c-0.2-0.2-0.6-0.3-1-0.3c-0.5,0-0.8,0.1-1.1,0.3c-0.3,0.2-0.5,0.4-0.6,0.7
		l-1.3-0.3c0.2-0.4,0.4-0.8,0.7-1c0.3-0.3,0.6-0.5,1-0.6s0.8-0.2,1.2-0.2c0.3,0,0.6,0,0.9,0.1c0.3,0.1,0.6,0.2,0.9,0.4
		c0.3,0.2,0.5,0.4,0.7,0.8c0.2,0.3,0.3,0.7,0.3,1.3v4.7h-1.3v-1h-0.1c-0.1,0.2-0.2,0.4-0.4,0.5c-0.2,0.2-0.4,0.3-0.7,0.4
		C95,453.8,94.6,453.9,94.2,453.9z M94.5,452.8c0.4,0,0.7-0.1,1-0.2s0.5-0.3,0.6-0.6c0.1-0.2,0.2-0.5,0.2-0.8v-0.9
		c0,0-0.1,0.1-0.3,0.1c-0.1,0-0.3,0.1-0.5,0.1c-0.2,0-0.4,0.1-0.5,0.1c-0.2,0-0.3,0-0.4,0.1c-0.3,0-0.5,0.1-0.7,0.2
		c-0.2,0.1-0.4,0.2-0.5,0.3c-0.1,0.1-0.2,0.3-0.2,0.6c0,0.3,0.1,0.6,0.4,0.8S94.2,452.8,94.5,452.8z"/>
	<path d="M100.3,445.6c-0.2,0-0.4-0.1-0.6-0.2s-0.3-0.4-0.3-0.6c0-0.2,0.1-0.4,0.3-0.6s0.4-0.2,0.6-0.2s0.4,0.1,0.6,0.2
		s0.3,0.4,0.3,0.6c0,0.2-0.1,0.4-0.3,0.6S100.5,445.6,100.3,445.6z M99.6,453.7v-7.1h1.4v7.1H99.6z"/>
	<path d="M104.2,444.3v9.5h-1.4v-9.5H104.2z"/>
</g>
<g>
	<path d="M34,535.8v-9.5h1.4v8.2h4.3v1.2H34z"/>
	<path d="M44.2,535.9c-0.7,0-1.2-0.2-1.7-0.5s-0.9-0.7-1.2-1.3s-0.4-1.2-0.4-1.9c0-0.7,0.1-1.4,0.4-1.9s0.7-1,1.2-1.3
		s1.1-0.5,1.7-0.5c0.7,0,1.2,0.2,1.7,0.5s0.9,0.7,1.2,1.3s0.4,1.2,0.4,1.9c0,0.7-0.1,1.4-0.4,1.9s-0.7,1-1.2,1.3
		S44.9,535.9,44.2,535.9z M44.2,534.8c0.4,0,0.8-0.1,1.1-0.3c0.3-0.2,0.5-0.5,0.6-0.9c0.1-0.4,0.2-0.8,0.2-1.3
		c0-0.5-0.1-0.9-0.2-1.2c-0.1-0.4-0.3-0.7-0.6-0.9c-0.3-0.2-0.6-0.3-1.1-0.3c-0.4,0-0.8,0.1-1.1,0.3c-0.3,0.2-0.5,0.5-0.6,0.9
		c-0.1,0.4-0.2,0.8-0.2,1.2c0,0.5,0.1,0.9,0.2,1.3c0.1,0.4,0.3,0.7,0.6,0.9C43.4,534.7,43.8,534.8,44.2,534.8z"/>
	<path d="M50.4,531.6v4.2H49v-7.1h1.3v1.2h0.1c0.2-0.4,0.4-0.7,0.8-0.9c0.3-0.2,0.8-0.3,1.3-0.3c0.5,0,0.9,0.1,1.3,0.3
		c0.4,0.2,0.6,0.5,0.8,0.9c0.2,0.4,0.3,0.9,0.3,1.5v4.5h-1.4v-4.3c0-0.5-0.1-0.9-0.4-1.2c-0.3-0.3-0.6-0.4-1.1-0.4
		c-0.3,0-0.6,0.1-0.9,0.2c-0.2,0.1-0.4,0.3-0.6,0.6S50.4,531.2,50.4,531.6z"/>
	<path d="M57.5,527.6c-0.2,0-0.4-0.1-0.6-0.2s-0.3-0.4-0.3-0.6c0-0.2,0.1-0.4,0.3-0.6s0.4-0.2,0.6-0.2s0.4,0.1,0.6,0.2
		s0.3,0.4,0.3,0.6c0,0.2-0.1,0.4-0.3,0.6S57.7,527.6,57.5,527.6z M56.8,535.8v-7.1h1.4v7.1H56.8z"/>
	<path d="M61.4,531.6v4.2H60v-7.1h1.3v1.2h0.1c0.2-0.4,0.4-0.7,0.8-0.9c0.3-0.2,0.8-0.3,1.3-0.3c0.5,0,0.9,0.1,1.3,0.3
		c0.4,0.2,0.6,0.5,0.8,0.9c0.2,0.4,0.3,0.9,0.3,1.5v4.5h-1.4v-4.3c0-0.5-0.1-0.9-0.4-1.2c-0.3-0.3-0.6-0.4-1.1-0.4
		c-0.3,0-0.6,0.1-0.9,0.2c-0.2,0.1-0.4,0.3-0.6,0.6S61.4,531.2,61.4,531.6z"/>
	<path d="M72.8,535.8l-2.1-7.1h1.4l1.4,5.2h0.1l1.4-5.2h1.4l1.4,5.2h0.1l1.4-5.2h1.4l-2.1,7.1h-1.4l-1.4-5.1h-0.1l-1.4,5.1H72.8z"/>
	<path d="M82.7,527.6c-0.2,0-0.4-0.1-0.6-0.2s-0.3-0.4-0.3-0.6c0-0.2,0.1-0.4,0.3-0.6s0.4-0.2,0.6-0.2s0.4,0.1,0.6,0.2
		s0.3,0.4,0.3,0.6c0,0.2-0.1,0.4-0.3,0.6S82.9,527.6,82.7,527.6z M82,535.8v-7.1h1.4v7.1H82z"/>
	<path d="M88.5,528.7v1.1h-3.9v-1.1H88.5z M85.7,527h1.4v6.7c0,0.3,0,0.5,0.1,0.6s0.2,0.2,0.3,0.3c0.1,0,0.3,0.1,0.4,0.1
		c0.1,0,0.2,0,0.3,0c0.1,0,0.1,0,0.2,0l0.2,1.1c-0.1,0-0.2,0.1-0.3,0.1c-0.1,0-0.3,0.1-0.6,0.1c-0.4,0-0.7-0.1-1-0.2
		s-0.6-0.3-0.8-0.6s-0.3-0.6-0.3-1.1V527z"/>
	<path d="M91.4,531.6v4.2H90v-9.5h1.4v3.5h0.1c0.2-0.4,0.4-0.7,0.8-0.9s0.8-0.3,1.3-0.3c0.5,0,0.9,0.1,1.3,0.3
		c0.4,0.2,0.6,0.5,0.8,0.9c0.2,0.4,0.3,0.9,0.3,1.5v4.5h-1.4v-4.3c0-0.5-0.1-0.9-0.4-1.2c-0.3-0.3-0.6-0.4-1.1-0.4
		c-0.3,0-0.6,0.1-0.9,0.2s-0.5,0.3-0.6,0.6C91.5,530.9,91.4,531.2,91.4,531.6z"/>
	<path d="M54.2,547.2v4.2h-1.4v-7.1h1.3v1.2h0.1c0.2-0.4,0.4-0.7,0.8-0.9c0.3-0.2,0.8-0.3,1.3-0.3c0.5,0,0.9,0.1,1.3,0.3
		c0.4,0.2,0.6,0.5,0.8,0.9c0.2,0.4,0.3,0.9,0.3,1.5v4.5h-1.4v-4.3c0-0.5-0.1-0.9-0.4-1.2c-0.3-0.3-0.6-0.4-1.1-0.4
		c-0.3,0-0.6,0.1-0.9,0.2c-0.2,0.1-0.4,0.3-0.6,0.6S54.2,546.8,54.2,547.2z"/>
	<path d="M63.6,551.5c-0.7,0-1.3-0.1-1.8-0.5c-0.5-0.3-0.9-0.7-1.2-1.3c-0.3-0.5-0.4-1.2-0.4-1.9c0-0.7,0.1-1.4,0.4-1.9
		c0.3-0.6,0.7-1,1.1-1.3c0.5-0.3,1.1-0.5,1.7-0.5c0.4,0,0.8,0.1,1.2,0.2s0.7,0.3,1,0.6c0.3,0.3,0.5,0.6,0.7,1.1
		c0.2,0.5,0.3,1,0.3,1.6v0.5H61v-1h4.3c0-0.4-0.1-0.7-0.2-1c-0.1-0.3-0.4-0.5-0.6-0.7s-0.6-0.2-0.9-0.2c-0.4,0-0.7,0.1-1,0.3
		c-0.3,0.2-0.5,0.4-0.7,0.7s-0.2,0.6-0.2,1v0.8c0,0.5,0.1,0.9,0.3,1.2c0.2,0.3,0.4,0.6,0.7,0.8c0.3,0.2,0.7,0.3,1.1,0.3
		c0.3,0,0.5,0,0.7-0.1c0.2-0.1,0.4-0.2,0.6-0.3c0.2-0.2,0.3-0.3,0.4-0.6l1.3,0.2c-0.1,0.4-0.3,0.7-0.6,1c-0.3,0.3-0.6,0.5-1,0.7
		C64.6,551.5,64.1,551.5,63.6,551.5z"/>
	<path d="M69.7,551.4l-2.1-7.1h1.4l1.4,5.2h0.1l1.4-5.2h1.4l1.4,5.2h0.1l1.4-5.2h1.4l-2.1,7.1h-1.4l-1.4-5.1h-0.1l-1.4,5.1H69.7z"/>
	<path d="M37.7,567.1c-0.7,0-1.3-0.2-1.8-0.5c-0.5-0.3-0.9-0.7-1.1-1.3c-0.3-0.6-0.4-1.2-0.4-1.9c0-0.7,0.1-1.4,0.4-1.9
		c0.3-0.6,0.7-1,1.1-1.3c0.5-0.3,1.1-0.5,1.7-0.5c0.5,0,1,0.1,1.4,0.3c0.4,0.2,0.8,0.5,1,0.8s0.4,0.8,0.5,1.3h-1.3
		c-0.1-0.3-0.2-0.6-0.5-0.9c-0.3-0.2-0.6-0.4-1.1-0.4c-0.4,0-0.7,0.1-1,0.3c-0.3,0.2-0.5,0.5-0.7,0.9c-0.2,0.4-0.2,0.8-0.2,1.3
		c0,0.5,0.1,1,0.2,1.3c0.2,0.4,0.4,0.7,0.7,0.9c0.3,0.2,0.6,0.3,1,0.3c0.3,0,0.5,0,0.7-0.1c0.2-0.1,0.4-0.2,0.5-0.4
		c0.1-0.2,0.2-0.4,0.3-0.7h1.3c0,0.5-0.2,0.9-0.4,1.2c-0.2,0.4-0.6,0.6-1,0.8C38.8,567,38.3,567.1,37.7,567.1z"/>
	<path d="M42.1,567v-7.1h1.3v1.1h0.1c0.1-0.4,0.4-0.7,0.7-0.9c0.3-0.2,0.7-0.3,1.1-0.3c0.1,0,0.2,0,0.3,0c0.1,0,0.2,0,0.3,0v1.3
		c-0.1,0-0.2,0-0.3-0.1s-0.3,0-0.4,0c-0.3,0-0.6,0.1-0.9,0.2c-0.3,0.1-0.5,0.3-0.6,0.6c-0.1,0.2-0.2,0.5-0.2,0.8v4.3H42.1z"/>
	<path d="M50.2,567.1c-0.7,0-1.3-0.1-1.8-0.5c-0.5-0.3-0.9-0.7-1.2-1.3c-0.3-0.5-0.4-1.2-0.4-1.9c0-0.7,0.1-1.4,0.4-1.9
		c0.3-0.6,0.7-1,1.1-1.3c0.5-0.3,1.1-0.5,1.7-0.5c0.4,0,0.8,0.1,1.2,0.2s0.7,0.3,1,0.6c0.3,0.3,0.5,0.6,0.7,1.1
		c0.2,0.5,0.3,1,0.3,1.6v0.5h-5.6v-1h4.3c0-0.4-0.1-0.7-0.2-1c-0.1-0.3-0.4-0.5-0.6-0.7s-0.6-0.2-0.9-0.2c-0.4,0-0.7,0.1-1,0.3
		c-0.3,0.2-0.5,0.4-0.7,0.7s-0.2,0.6-0.2,1v0.8c0,0.5,0.1,0.9,0.3,1.2c0.2,0.3,0.4,0.6,0.7,0.8c0.3,0.2,0.7,0.3,1.1,0.3
		c0.3,0,0.5,0,0.7-0.1c0.2-0.1,0.4-0.2,0.6-0.3c0.2-0.2,0.3-0.3,0.4-0.6l1.3,0.2c-0.1,0.4-0.3,0.7-0.6,1c-0.3,0.3-0.6,0.5-1,0.7
		C51.2,567.1,50.7,567.1,50.2,567.1z"/>
	<path d="M57.4,567.1c-0.6,0-1.1-0.1-1.5-0.4c-0.4-0.3-0.8-0.7-1.1-1.3s-0.4-1.2-0.4-2c0-0.8,0.1-1.4,0.4-2c0.3-0.5,0.6-1,1.1-1.3
		c0.4-0.3,1-0.4,1.5-0.4c0.4,0,0.8,0.1,1.1,0.2c0.3,0.1,0.5,0.3,0.6,0.5c0.1,0.2,0.3,0.4,0.3,0.5h0.1v-3.5h1.4v9.5h-1.3v-1.1h-0.1
		c-0.1,0.2-0.2,0.3-0.4,0.5c-0.2,0.2-0.4,0.4-0.6,0.5C58.2,567.1,57.8,567.1,57.4,567.1z M57.7,566c0.4,0,0.7-0.1,1-0.3
		c0.3-0.2,0.5-0.5,0.6-0.9s0.2-0.8,0.2-1.3c0-0.5-0.1-0.9-0.2-1.3c-0.1-0.4-0.3-0.7-0.6-0.9c-0.3-0.2-0.6-0.3-1-0.3
		c-0.4,0-0.8,0.1-1,0.3c-0.3,0.2-0.5,0.5-0.6,0.9s-0.2,0.8-0.2,1.3c0,0.5,0.1,0.9,0.2,1.3s0.4,0.7,0.6,0.9
		C57,565.9,57.3,566,57.7,566z"/>
	<path d="M65.9,567.1c-0.7,0-1.3-0.1-1.8-0.5c-0.5-0.3-0.9-0.7-1.2-1.3c-0.3-0.5-0.4-1.2-0.4-1.9c0-0.7,0.1-1.4,0.4-1.9
		c0.3-0.6,0.7-1,1.1-1.3c0.5-0.3,1.1-0.5,1.7-0.5c0.4,0,0.8,0.1,1.2,0.2s0.7,0.3,1,0.6c0.3,0.3,0.5,0.6,0.7,1.1
		c0.2,0.5,0.3,1,0.3,1.6v0.5h-5.6v-1h4.3c0-0.4-0.1-0.7-0.2-1c-0.1-0.3-0.4-0.5-0.6-0.7s-0.6-0.2-0.9-0.2c-0.4,0-0.7,0.1-1,0.3
		c-0.3,0.2-0.5,0.4-0.7,0.7s-0.2,0.6-0.2,1v0.8c0,0.5,0.1,0.9,0.3,1.2c0.2,0.3,0.4,0.6,0.7,0.8c0.3,0.2,0.7,0.3,1.1,0.3
		c0.3,0,0.5,0,0.7-0.1c0.2-0.1,0.4-0.2,0.6-0.3c0.2-0.2,0.3-0.3,0.4-0.6l1.3,0.2c-0.1,0.4-0.3,0.7-0.6,1c-0.3,0.3-0.6,0.5-1,0.7
		C66.9,567.1,66.5,567.1,65.9,567.1z"/>
	<path d="M71.9,562.8v4.2h-1.4v-7.1h1.3v1.2h0.1c0.2-0.4,0.4-0.7,0.8-0.9c0.3-0.2,0.8-0.3,1.3-0.3c0.5,0,0.9,0.1,1.3,0.3
		c0.4,0.2,0.6,0.5,0.8,0.9c0.2,0.4,0.3,0.9,0.3,1.5v4.5h-1.4v-4.3c0-0.5-0.1-0.9-0.4-1.2c-0.3-0.3-0.6-0.4-1.1-0.4
		c-0.3,0-0.6,0.1-0.9,0.2c-0.2,0.1-0.4,0.3-0.6,0.6S71.9,562.4,71.9,562.8z"/>
	<path d="M81.6,559.9v1.1h-3.9v-1.1H81.6z M78.8,558.2h1.4v6.7c0,0.3,0,0.5,0.1,0.6s0.2,0.2,0.3,0.3c0.1,0,0.3,0.1,0.4,0.1
		c0.1,0,0.2,0,0.3,0c0.1,0,0.1,0,0.2,0l0.2,1.1c-0.1,0-0.2,0.1-0.3,0.1c-0.1,0-0.3,0.1-0.6,0.1c-0.4,0-0.7-0.1-1-0.2
		s-0.6-0.3-0.8-0.6s-0.3-0.6-0.3-1.1V558.2z"/>
	<path d="M83.8,558.8c-0.2,0-0.4-0.1-0.6-0.2s-0.3-0.4-0.3-0.6c0-0.2,0.1-0.4,0.3-0.6s0.4-0.2,0.6-0.2s0.4,0.1,0.6,0.2
		s0.3,0.4,0.3,0.6c0,0.2-0.1,0.4-0.3,0.6S84.1,558.8,83.8,558.8z M83.1,567v-7.1h1.4v7.1H83.1z"/>
	<path d="M88.4,567.2c-0.4,0-0.9-0.1-1.2-0.3c-0.4-0.2-0.7-0.4-0.9-0.7c-0.2-0.3-0.3-0.7-0.3-1.2c0-0.4,0.1-0.7,0.2-1
		c0.2-0.3,0.4-0.5,0.6-0.6c0.3-0.2,0.6-0.3,0.9-0.3c0.3-0.1,0.7-0.1,1-0.2c0.4,0,0.8-0.1,1-0.1c0.3,0,0.5-0.1,0.6-0.2
		c0.1-0.1,0.2-0.2,0.2-0.4v0c0-0.4-0.1-0.7-0.3-0.9c-0.2-0.2-0.6-0.3-1-0.3c-0.5,0-0.8,0.1-1.1,0.3c-0.3,0.2-0.5,0.4-0.6,0.7
		l-1.3-0.3c0.2-0.4,0.4-0.8,0.7-1c0.3-0.3,0.6-0.5,1-0.6s0.8-0.2,1.2-0.2c0.3,0,0.6,0,0.9,0.1c0.3,0.1,0.6,0.2,0.9,0.4
		c0.3,0.2,0.5,0.4,0.7,0.8c0.2,0.3,0.3,0.7,0.3,1.3v4.7h-1.3v-1h-0.1c-0.1,0.2-0.2,0.4-0.4,0.5c-0.2,0.2-0.4,0.3-0.7,0.4
		C89.1,567.1,88.8,567.2,88.4,567.2z M88.7,566.1c0.4,0,0.7-0.1,1-0.2s0.5-0.3,0.6-0.6c0.1-0.2,0.2-0.5,0.2-0.8v-0.9
		c0,0-0.1,0.1-0.3,0.1c-0.1,0-0.3,0.1-0.5,0.1c-0.2,0-0.4,0.1-0.5,0.1c-0.2,0-0.3,0-0.4,0.1c-0.3,0-0.5,0.1-0.7,0.2
		c-0.2,0.1-0.4,0.2-0.5,0.3c-0.1,0.1-0.2,0.3-0.2,0.6c0,0.3,0.1,0.6,0.4,0.8S88.3,566.1,88.7,566.1z"/>
	<path d="M95.1,557.5v9.5h-1.4v-9.5H95.1z"/>
</g>
</svg>
