<svg xmlns="http://www.w3.org/2000/svg" viewBox="0 0 492.66 378.29"><defs><style>.cls-1{fill:#03964a;}.cls-2{fill:#d52027;}.cls-3{fill:#1b449c;}.cls-4{fill:#c22126;}.cls-5{fill:#231f20;}</style></defs><g id="Layer_2" data-name="Layer 2"><g id="Layer_1-2" data-name="Layer 1"><path class="cls-1" d="M256.15,172.66l-1.31.91.5,4.8-1.47-.76,0-3.69-1.66,0,.41-2.94-.7-2.41-.72-2.22-.13-4.24-.93-.94-.14-2.76-.54-1.49a4.81,4.81,0,0,0-4.22-1.71c-2.95.14-10-.11-10-.11L234,160.39l.52,2-1.29-.38.17,2.21-1.09-.93-.59,2-1.1-.4,0,2.22-1.64-2.05-1.44-1.68-1.49.72-.77,2.2-1.49.35-.2.93-1.46.16-.75-.74-1.83-.21-2.06,1.63-.95,1.65-2.93-1.32.23-3.87-.7-3.34-.14-3.13-.35-1.3-1.21-7.39-.64-7-2,.16-.35-1.83,1.3-1.11-.11-4.6s-2.15-5.76-3.63-5.78a13.1,13.1,0,0,1-3-.41l-.91-1.66.2-1.47,1.5-1.45,1.3-.36.94-1.09v-.75l2.77,0,2.22-.34.4-2-1.65-.4-.39-.56-1.65-.38-1.25-1.87-.72-2-1.48-.4.22-2.2,1.66-.54.21-1.65,1.12-.73.76-1.85,0-1.46,2.21.21.53,1.48.54,2.23,1.1-.37.39-1.46,1.29.37,0-1.28h1.29l.16,2.4,1.3,0,.91.75.34,1.11,1.86,0,.93-.17,1.48-1.08.72,1.66.34,2.21.17,1.85.71,1.67.72,1.3.91,1.31.17,1.1,16.79,1.14,8.31.1,2,0-.19,1.1,2.4-.15,0,2.39-2.41.16-.38,1.66-.21,1.47h-1.09l.34,1.3-5.4,3.25.73,1.3-3,.33-.76,1.46-1.47.36-1.49.53.31,4.06.71,2.23.91,2.41,1.08,1.67,2.4.58,0,1.65.9,1.31,1.68-.54,0-2.57.22-3.12,1.13-.55,1.67-.91-.17-2,1.12-.54.91,0,.37,1.29h1.29l.15,2.22.92.39.16,2.57.34,2,.89,1.31.87,6.1.89,2.22.31,5.54-.06,4.61-.4,2.58-2.05-.21-.55,1.09"/><path class="cls-1" d="M435.91,127.29s62,30.89,49.91,68.4c-4.2,9.5-20.43,32.76-63.51,45.55l-.07,6.65s60.84-18.95,69.69-55.31c8-40.17-53.08-69.3-53.08-69.3l-1.14-1.17Z"/><path class="cls-2" d="M99.09,212.35s22-39.49,53.66-64.95l3.64,3.74s-34.06,28-51.68,63.23Z"/><path class="cls-1" d="M268,237.72l24.43,14.68-25.58,14.23.14-11.41s-68.69-1.81-137.46-24.29-143.95-81.36-98-122.57C79.43,66.7,170.31,52.94,306.82,72.87c0,0,81.6,16,126.34,46.74l-1.85,4.47S338.16,65.71,198.19,70.29C55,70.2,12.9,120.37,24.37,149.3c17.56,39.42,108,95.07,242,99.88h1Z"/><path class="cls-2" d="M433.74,119.08s17.54-37.54.49-69.94c0,0-20.59-41.65-96.12-32.8l.27,10.92-26.19-9.7L334.29,0l2,11.52s51.53-8.18,83.87,14.25,28.21,61.68,25.19,73.9c-2.9,15.87-16.35,49.63-35.05,71.82,0,0-34.07,40.2-69.72,68.52-35.86,30-91.31,60.19-126.38,71.45-33.53,11.65-121.71,37.41-134.84-20-7.91-26.17,14.11-70,17.62-73.56l4.76,2S77.33,266.67,85.09,290.9c5.13,20.76,25.26,38.26,84.3,27.1,0,0,58.08-11.73,110.26-42.15,60.89-35.84,94-72.42,105.05-84.17,0,0,29.66-25.31,49.05-73"/><path class="cls-3" d="M175.39,149.82s2.06,37.25,45.64,46.24l.08-6.38s-31.25-6.79-38-37.49Z"/><path class="cls-4" d="M285.29,133.83s-2.06-37.08-45.66-46.06l-.07,6.4s31.36,7.56,38.07,38.27"/><path class="cls-3" d="M223.44,94.66l.08-7.09S171.76,92,174.74,147.29c0,0,2.48,2.32,8,1.48C182.72,148.77,176.19,103,223.44,94.66Z"/><path class="cls-5" d="M277.5,153.88s-81.66,7.38-114.45-4.91c-5.22-3.5-14.3-9.52,12.07-14.67l-.3,4.3s-18.54,2.75-11,5.82,40.35,10,114.3,5.42Z"/><path class="cls-5" d="M182.71,137.83s46.8-8.1,109,1.31c6.16,1.68,12.05,5.54-5.83,9.43l-.42,4.29s20.56-5.1,16.28-11.54c-2.4-7.8-46.28-14.65-118.41-8.4Z"/><path class="cls-2" d="M278.07,137.1s6.53,45.77-40.68,54.11l-.1,7.08s51.65-4.7,48.68-60"/><path class="cls-3" d="M16,73.16l5.31,8.29-.66.39a11,11,0,0,0-6-3.27A8.31,8.31,0,0,0,9,79.64a7.64,7.64,0,0,0-3.14,3.68,8.49,8.49,0,0,0-.47,4.94,18.64,18.64,0,0,0,2.72,6.57,24.83,24.83,0,0,0,4.5,5.35,9.38,9.38,0,0,0,5,2.48,7.76,7.76,0,0,0,5.15-1.27A9.3,9.3,0,0,0,26.14,98a16.4,16.4,0,0,0,1.64-5.71l1.31,2a14,14,0,0,1-2.1,5.5,13.75,13.75,0,0,1-4.31,3.92,16,16,0,0,1-7.52,2.44,13,13,0,0,1-7.25-1.72,15.3,15.3,0,0,1-5.47-5.16A14.94,14.94,0,0,1,0,91.82a14.18,14.18,0,0,1,6.76-13,16.12,16.12,0,0,1,5.84-2A8.7,8.7,0,0,0,15,76.17a1.42,1.42,0,0,0,.67-1,2.66,2.66,0,0,0-.33-1.65Z"/><path class="cls-3" d="M43.26,75.71l-9.07,4.7a10.57,10.57,0,0,0,4.74,4.45,4.22,4.22,0,0,0,3.78,0,3.47,3.47,0,0,0,1.59-1.62,8.08,8.08,0,0,0,.64-3.15l.83.1A11.16,11.16,0,0,1,45,85.75a6.94,6.94,0,0,1-3.12,3.15,7.26,7.26,0,0,1-7.23,0,12.51,12.51,0,0,1-4.77-5.05,11.14,11.14,0,0,1-1.53-7.95,7.48,7.48,0,0,1,3.88-5.25,6.53,6.53,0,0,1,5.55-.16C39.8,71.22,41.64,73,43.26,75.71Zm-5,1.05a20.11,20.11,0,0,0-2.55-3.86,3.63,3.63,0,0,0-1.87-1.15,1.62,1.62,0,0,0-1.16.17,1.84,1.84,0,0,0-1,1.7,9.32,9.32,0,0,0,1.41,5l.35.63Z"/><path class="cls-3" d="M53,60.94l1,2.34a10.42,10.42,0,0,1,1.64-3.21A5.62,5.62,0,0,1,58,58.34a4.58,4.58,0,0,1,3.24-.19,5.38,5.38,0,0,1,2.51,1.77A22.81,22.81,0,0,1,65.81,64l3,7a6,6,0,0,0,1.46,2.41,2.49,2.49,0,0,0,1.82,0l.28.68L63.5,77.64,63.21,77a1.91,1.91,0,0,0,1-1.39,6.06,6.06,0,0,0-.7-2.5l-3.39-7.94a14.1,14.1,0,0,0-1.37-2.7,2,2,0,0,0-.95-.67,1.46,1.46,0,0,0-1,0c-1.07.42-1.71,1.6-2,3.54L59,74.91a6,6,0,0,0,1.43,2.38,2,2,0,0,0,1.64.13l.3.7-8.84,3.56L53.21,81a2.36,2.36,0,0,0,1.25-1.37,5.94,5.94,0,0,0-.74-2.6l-4.3-10.08A5.49,5.49,0,0,0,48,64.58a2.58,2.58,0,0,0-1.81-.06l-.3-.7Z"/><path class="cls-3" d="M81.61,45.3l1.74,6.76,4.36-1.13.51,2-4.39,1.14,2.94,11.52a10,10,0,0,0,.69,2,1.46,1.46,0,0,0,.73.62,1.18,1.18,0,0,0,.75.11c.86-.22,1.49-1.09,1.91-2.6l.7.29c-.41,2.81-1.81,4.52-4.2,5.15a4.7,4.7,0,0,1-3.2-.21A4.37,4.37,0,0,1,82,69.17a18.72,18.72,0,0,1-1.14-3.61L78.33,55.48,76,56.1l-.19-.7A26.88,26.88,0,0,0,79,50.59a22.78,22.78,0,0,0,2-5.13Z"/><path class="cls-3" d="M104.7,47.1l.88,4.26A14.32,14.32,0,0,1,108,46.82a4.88,4.88,0,0,1,2.5-1.51,2.41,2.41,0,0,1,1.92.32,2.75,2.75,0,0,1,1.07,1.82,3.25,3.25,0,0,1-.22,2.23,2,2,0,0,1-1.41,1.08,2.7,2.7,0,0,1-2-.3,6.86,6.86,0,0,0-1.08-.57.79.79,0,0,0-.46,0,1.76,1.76,0,0,0-1,.65,4.48,4.48,0,0,0-.81,2.25,14,14,0,0,0,.23,4.42l.89,4.34.26,1.12a5.45,5.45,0,0,0,.42,1.44,1.71,1.71,0,0,0,.89.64,4,4,0,0,0,1.62,0l.16.74-10.09,2.11-.14-.72a2.28,2.28,0,0,0,1.5-1,6.5,6.5,0,0,0-.2-3.11L100,52.28a7.75,7.75,0,0,0-.57-2,1.58,1.58,0,0,0-.75-.71,2.87,2.87,0,0,0-1.42-.07l-.15-.76Z"/><path class="cls-3" d="M135.38,58.2c-2,2.41-3.87,3.74-5.66,4a3.63,3.63,0,0,1-4.32-3.14,5.36,5.36,0,0,1,1.28-4.19q1.56-2,7.35-5.89l-.29-1.9a9,9,0,0,0-.66-2.7,2.09,2.09,0,0,0-1-.85,2.61,2.61,0,0,0-1.49-.21,3.76,3.76,0,0,0-2.07.93,1.15,1.15,0,0,0-.4.94,1.84,1.84,0,0,0,.71,1,2.68,2.68,0,0,1,1,1.57,2.38,2.38,0,0,1-.49,1.8,2.72,2.72,0,0,1-1.82,1,3,3,0,0,1-2.22-.45,2.37,2.37,0,0,1-1.14-1.67,4.4,4.4,0,0,1,.74-3,7.59,7.59,0,0,1,2.9-2.54A13.14,13.14,0,0,1,132,41.56a7,7,0,0,1,4.41.49,5.29,5.29,0,0,1,2.37,2.18,14.35,14.35,0,0,1,.88,3.88l1.1,7.39a10.69,10.69,0,0,0,.34,1.63.86.86,0,0,0,.39.44.72.72,0,0,0,.46.09c.35,0,.68-.36,1-.91l.67.4a7.15,7.15,0,0,1-1.74,2.51,4.69,4.69,0,0,1-2.35,1.05,3.75,3.75,0,0,1-2.63-.37A3.44,3.44,0,0,1,135.38,58.2Zm-.22-1.47-.94-6.37A12.05,12.05,0,0,0,131.07,54a3.7,3.7,0,0,0-.46,2.3,2.43,2.43,0,0,0,.9,1.55,1.89,1.89,0,0,0,1.51.33A3.91,3.91,0,0,0,135.16,56.73Z"/><path class="cls-3" d="M157.25,30.16l2.39,23.78a4.49,4.49,0,0,0,.74,2.54,2.39,2.39,0,0,0,1.86.44l.07.73-10.17,1.11-.08-.73a2.63,2.63,0,0,0,1.78-.94,4.78,4.78,0,0,0,.15-2.53l-2-19.8a4.64,4.64,0,0,0-.73-2.53,2.39,2.39,0,0,0-1.86-.45l-.08-.76Z"/><path class="cls-3" d="M187.12,55.69v-.76l.89,0a3.62,3.62,0,0,0,1.83-.41,2.28,2.28,0,0,0,.93-1,9.74,9.74,0,0,0,.16-2.61l-.1-18.34a10,10,0,0,0-.22-2.68,2,2,0,0,0-.89-.92,3.53,3.53,0,0,0-1.84-.36H187v-.76l12.29-.2a18.9,18.9,0,0,1,7.94,1.26,11.55,11.55,0,0,1,5.6,4.95,15.05,15.05,0,0,1,1.93,7.59,15.94,15.94,0,0,1-.89,5.45A13.19,13.19,0,0,1,211.45,51,12,12,0,0,1,208,53.6a17.65,17.65,0,0,1-4.74,1.59,21.69,21.69,0,0,1-3.89.31ZM197.41,29.2,197.53,51a7.43,7.43,0,0,0,.17,2.12,1.13,1.13,0,0,0,.54.58,3.38,3.38,0,0,0,1.6.28A6.13,6.13,0,0,0,205,51.55c1.62-2.13,2.42-5.43,2.4-9.87a18.77,18.77,0,0,0-1.71-8.57,7.08,7.08,0,0,0-3.42-3.35A13.35,13.35,0,0,0,197.41,29.2Z"/><path class="cls-3" d="M241.24,46l-10.37-.49a9.85,9.85,0,0,0,1.66,6.13,4.09,4.09,0,0,0,3.23,1.88A3.87,3.87,0,0,0,238,53a9.09,9.09,0,0,0,2.25-2.37l.66.49a12.12,12.12,0,0,1-3.67,4.35,7.33,7.33,0,0,1-4.41,1.12,7.08,7.08,0,0,1-6.19-3.6,11.84,11.84,0,0,1-1.33-6.66,11,11,0,0,1,3-7.51,7.91,7.91,0,0,1,6.17-2.55,6.49,6.49,0,0,1,4.88,2.62C240.7,40.49,241.32,42.87,241.24,46Zm-4.91-1.6a17.85,17.85,0,0,0-.09-4.54,3.58,3.58,0,0,0-1-1.91,1.65,1.65,0,0,0-1.11-.43,2,2,0,0,0-1.75.95,9.14,9.14,0,0,0-1.5,5l0,.71Z"/><path class="cls-3" d="M257.12,54.53l-.85,7.17a6.06,6.06,0,0,0,0,2,1.61,1.61,0,0,0,.61.86,4.9,4.9,0,0,0,1.89.45l-.11.77L247.9,64.66l.09-.76a2.58,2.58,0,0,0,1.93-.51,4.42,4.42,0,0,0,.71-2.4L253,40.75a4.91,4.91,0,0,0-.15-2.64,2.44,2.44,0,0,0-1.74-.84l.09-.77,7.92.83-.32,2.54A7.34,7.34,0,0,1,261.11,38a5.93,5.93,0,0,1,3.3-.63A6,6,0,0,1,268,39.06,8,8,0,0,1,270.19,43a14.1,14.1,0,0,1,.3,5.13,14.82,14.82,0,0,1-1.55,5.2,7.85,7.85,0,0,1-3.07,3.41,6.66,6.66,0,0,1-4.05.84,6.44,6.44,0,0,1-2.83-1A7.65,7.65,0,0,1,257.12,54.53Zm.25-2.08c.94,1.78,2.07,2.73,3.4,2.87a2.13,2.13,0,0,0,1.93-.94c.84-1.08,1.44-3.23,1.82-6.43s.27-5.61-.36-6.91a2.26,2.26,0,0,0-1.9-1.4q-2-.22-3.69,2.64Z"/><path class="cls-3" d="M291.38,42.32a8.63,8.63,0,0,1,4.3,2,8,8,0,0,1,2.52,4.14,12.07,12.07,0,0,1,.16,5.33,11.13,11.13,0,0,1-3.22,6.42,8.11,8.11,0,0,1-7.3,2.18,7.62,7.62,0,0,1-5.94-4.07,11.22,11.22,0,0,1-1-7.34,11.6,11.6,0,0,1,3.58-6.73A7.82,7.82,0,0,1,291.38,42.32Zm-.14,1.45a2.38,2.38,0,0,0-1.86.5,5.52,5.52,0,0,0-1.52,2.94c-.44,1.5-.89,3.61-1.39,6.33a27.83,27.83,0,0,0-.42,4.1,4,4,0,0,0,.53,2.34,2.23,2.23,0,0,0,3,.77A3.78,3.78,0,0,0,291,59a49.16,49.16,0,0,0,1.79-7.7,19.79,19.79,0,0,0,.46-4.8,3.7,3.7,0,0,0-.74-2A2.11,2.11,0,0,0,291.24,43.77Z"/><path class="cls-3" d="M322.2,48.4,321,54.89l-.65-.15a10.11,10.11,0,0,0-1.57-4.44,4.19,4.19,0,0,0-2.32-1.6,2,2,0,0,0-1.49.24,1.92,1.92,0,0,0-.88,1.15,1.81,1.81,0,0,0,.18,1.14,18.21,18.21,0,0,0,2.85,3.58,14.54,14.54,0,0,1,3,4.23,5.9,5.9,0,0,1,.21,3.34,7.39,7.39,0,0,1-1.5,2.88,5.78,5.78,0,0,1-2.71,1.84,6.25,6.25,0,0,1-3.3.13,10.84,10.84,0,0,1-3.33-1.62,3.52,3.52,0,0,0-.76-.4c-.42-.1-.87.15-1.32.77l-.63-.15L308,59l.65.14a8.69,8.69,0,0,0,1.53,4.52,4.53,4.53,0,0,0,2.6,1.94,2.15,2.15,0,0,0,1.68-.25,2,2,0,0,0,.94-1.29,2.48,2.48,0,0,0-.21-1.8,17.56,17.56,0,0,0-2.14-2.7,22.14,22.14,0,0,1-3.16-4.12,5.89,5.89,0,0,1-.44-3.9A6.33,6.33,0,0,1,311.87,48a5.47,5.47,0,0,1,4.67-.82,6.06,6.06,0,0,1,2.7,1.38A1.78,1.78,0,0,0,320,49a.92.92,0,0,0,.62,0,4.07,4.07,0,0,0,.88-.72Z"/><path class="cls-3" d="M340.41,43.89a2.88,2.88,0,0,1,1.88,1.45,3.07,3.07,0,0,1,.27,2.39,3,3,0,0,1-1.49,1.93,2.93,2.93,0,0,1-2.36.32,3,3,0,0,1-2.15-3.83A3,3,0,0,1,338,44.23,2.93,2.93,0,0,1,340.41,43.89Zm.25,9.67-4.13,14.77a4.73,4.73,0,0,0-.25,2.65,2.49,2.49,0,0,0,1.59,1.07l-.2.72-9.87-2.59.21-.72a2.55,2.55,0,0,0,2-.24,4.87,4.87,0,0,0,1.07-2.33l3-10.88a4.54,4.54,0,0,0,.24-2.63,2.39,2.39,0,0,0-1.55-1.09l.2-.74Z"/><path class="cls-3" d="M361.22,52.2l-2.14,6.68,4.3,1.31-.62,2-4.31-1.31-3.66,11.39a10.42,10.42,0,0,0-.51,2.1,1.42,1.42,0,0,0,.28.9,1.18,1.18,0,0,0,.59.49c.84.25,1.84-.15,3-1.22l.43.62c-1.84,2.18-3.93,2.92-6.3,2.21a4.64,4.64,0,0,1-2.59-1.87,4.45,4.45,0,0,1-.83-2.62,18.8,18.8,0,0,1,1-3.68l3.19-10-2.34-.73.22-.7a27.67,27.67,0,0,0,5.31-2.41A23.1,23.1,0,0,0,360.6,52Z"/><path class="cls-3" d="M380.94,65.57a8.55,8.55,0,0,1,3.85,2.76,8.1,8.1,0,0,1,1.73,4.53,12.39,12.39,0,0,1-.79,5.28,11.43,11.43,0,0,1-4.33,5.76,8.1,8.1,0,0,1-7.57.87,7.54,7.54,0,0,1-5.09-5.08,11.36,11.36,0,0,1,.31-7.4,11.79,11.79,0,0,1,4.74-6A7.77,7.77,0,0,1,380.94,65.57ZM380.52,67a2.28,2.28,0,0,0-1.93.17,5.6,5.6,0,0,0-2,2.61c-.69,1.41-1.54,3.42-2.49,6a28.78,28.78,0,0,0-1.18,4,4.2,4.2,0,0,0,.11,2.4,2.25,2.25,0,0,0,1.27,1.28,2.32,2.32,0,0,0,1.6,0,3.8,3.8,0,0,0,1.66-1.5,49.91,49.91,0,0,0,3.14-7.29A19.69,19.69,0,0,0,382,70a3.66,3.66,0,0,0-.36-2.15A2.1,2.1,0,0,0,380.52,67Z"/><path class="cls-3" d="M406.19,75.88l-1.74,4a14.51,14.51,0,0,1,4.6-2.39,4.8,4.8,0,0,1,2.92.15A2.33,2.33,0,0,1,413.35,79a2.79,2.79,0,0,1-.17,2.11,3.27,3.27,0,0,1-1.47,1.73,2,2,0,0,1-1.77.1,2.63,2.63,0,0,1-1.42-1.34,6.42,6.42,0,0,0-.57-1.09.87.87,0,0,0-.36-.29,1.65,1.65,0,0,0-1.2,0,4.66,4.66,0,0,0-1.94,1.38,14,14,0,0,0-2.35,3.83l-1.77,4.08-.44,1.08A6.68,6.68,0,0,0,399.4,92a1.77,1.77,0,0,0,.36,1,3.6,3.6,0,0,0,1.36.91l-.29.68-9.46-3.9.29-.69a2.16,2.16,0,0,0,1.8,0c.44-.24,1-1.15,1.65-2.69l4.25-9.83a9.12,9.12,0,0,0,.68-2,1.65,1.65,0,0,0-.21-1,3,3,0,0,0-1.12-.86l.34-.72Z"/><path class="cls-3" d="M107.81,362.72a11.78,11.78,0,0,1,5.11,1.46,5.63,5.63,0,0,1,2.57,4.23,6.11,6.11,0,0,1-1.63,5.07c-1.62,1.75-4.14,2.83-7.58,3.26L94,378.29l-.08-.71a5.14,5.14,0,0,0,2.23-.63,1.78,1.78,0,0,0,.74-.95,8.58,8.58,0,0,0-.09-2.67l-2-16.69a8.11,8.11,0,0,0-.57-2.6,1.87,1.87,0,0,0-1-.75,5.47,5.47,0,0,0-2.31-.05l-.07-.71,11.61-1.45a15.66,15.66,0,0,1,6,.05,6.36,6.36,0,0,1,3,2,6.25,6.25,0,0,1,1.41,3.23,4.94,4.94,0,0,1-.88,3.49A9,9,0,0,1,107.81,362.72Zm-6.58.3a8.35,8.35,0,0,0,3.61-1.07,4.35,4.35,0,0,0,1.61-1.93,5.7,5.7,0,0,0,.29-2.9,5.83,5.83,0,0,0-.95-2.73,4.18,4.18,0,0,0-2-1.45,8.66,8.66,0,0,0-3.8-.07Zm.2,1.48,1,8.23.11,1a2.15,2.15,0,0,0,.69,1.46,2,2,0,0,0,1.51.34,5.42,5.42,0,0,0,2.57-1,4.68,4.68,0,0,0,1.62-2.17,6.06,6.06,0,0,0,.3-2.93,6.37,6.37,0,0,0-1.2-3.13,4.41,4.41,0,0,0-2.38-1.75A11.54,11.54,0,0,0,101.43,364.5Z"/><path class="cls-3" d="M135.8,369.32q-2.52,3.4-4.94,3.86a3.14,3.14,0,0,1-2.57-.53,3.43,3.43,0,0,1-1.39-2.28,5,5,0,0,1,1-3.91c.89-1.29,3-3.16,6.33-5.66l-.31-1.73a10,10,0,0,0-.68-2.5,2.24,2.24,0,0,0-.95-.72,2.36,2.36,0,0,0-1.37-.15,3.34,3.34,0,0,0-1.83.91,1,1,0,0,0-.31.89,1.66,1.66,0,0,0,.67.87,2.51,2.51,0,0,1,1,1.45,2.1,2.1,0,0,1-.37,1.67,2.23,2.23,0,0,1-1.56,1,2.64,2.64,0,0,1-2-.34,2.34,2.34,0,0,1-1.06-1.53,4.06,4.06,0,0,1,.54-2.78,6.37,6.37,0,0,1,2.48-2.43,11.43,11.43,0,0,1,3.65-1.38,6.09,6.09,0,0,1,3.94.36,4.88,4.88,0,0,1,2.21,1.95,15,15,0,0,1,.93,3.56l1.26,6.81a8.25,8.25,0,0,0,.37,1.51.82.82,0,0,0,.34.4.62.62,0,0,0,.44.06c.29-.06.59-.33.81-.85l.6.34a6.71,6.71,0,0,1-1.43,2.37,4,4,0,0,1-2.06,1,3.23,3.23,0,0,1-2.35-.29A3.15,3.15,0,0,1,135.8,369.32Zm-.26-1.37-1.09-5.89a10.7,10.7,0,0,0-2.61,3.48,3.43,3.43,0,0,0-.3,2.14,2.14,2.14,0,0,0,.84,1.42,1.51,1.51,0,0,0,1.33.28A3.25,3.25,0,0,0,135.54,368Z"/><path class="cls-3" d="M155.25,349.53l.53,2.28a10.26,10.26,0,0,1,1.92-2.7,5.11,5.11,0,0,1,2.33-1.26,3.86,3.86,0,0,1,2.88.29,4.64,4.64,0,0,1,1.94,2,18.67,18.67,0,0,1,1.26,4l1.6,6.76a5.52,5.52,0,0,0,.92,2.41,2.13,2.13,0,0,0,1.58.27l.17.66-8.29,2-.17-.67a1.87,1.87,0,0,0,1.15-1.13,5.88,5.88,0,0,0-.26-2.39L161,354.35a13.85,13.85,0,0,0-.79-2.66,1.85,1.85,0,0,0-.74-.73,1.38,1.38,0,0,0-.91-.11c-1,.24-1.75,1.23-2.28,3l2.19,9.3a5.69,5.69,0,0,0,.93,2.38,1.71,1.71,0,0,0,1.42.35l.16.67-8.28,2-.16-.67a2,2,0,0,0,1.31-1.07,5.56,5.56,0,0,0-.27-2.47l-2.3-9.83a5.47,5.47,0,0,0-.94-2.36,2.17,2.17,0,0,0-1.59-.29l-.16-.69Z"/><path class="cls-3" d="M185.47,341.62l5.42-1.6.59,2-3.1.91a6.48,6.48,0,0,1,1.64,1.27,5.42,5.42,0,0,1,1,1.95,5.66,5.66,0,0,1-.05,3.46,7,7,0,0,1-2,2.88,7.56,7.56,0,0,1-2.74,1.62c-.05,0-.76.2-2.09.52a2,2,0,0,0-1.33,2.42,1.37,1.37,0,0,0,.79.94,2.35,2.35,0,0,0,1.7,0l3-.91c2.43-.69,4.17-.92,5.26-.63a4,4,0,0,1,3,3,4.91,4.91,0,0,1-.11,3.1,5.33,5.33,0,0,1-1.85,2.58,14.42,14.42,0,0,1-4.87,2.42,17,17,0,0,1-4.12.71,5.47,5.47,0,0,1-2.92-.49,2.41,2.41,0,0,1-1.24-1.42,2.31,2.31,0,0,1,.16-1.7,5,5,0,0,1,1.86-1.76,3.76,3.76,0,0,1-3.18-2.65,4.23,4.23,0,0,1,.21-2.73,7.45,7.45,0,0,1,2.32-2.94,7.38,7.38,0,0,1-4-1.4,5.87,5.87,0,0,1-2-3.06,6.12,6.12,0,0,1,.7-4.92,7.35,7.35,0,0,1,4.45-3.32A9.6,9.6,0,0,1,185.47,341.62ZM182.56,343a2.1,2.1,0,0,0-1.38,1.57c-.27.85-.09,2.41.56,4.64a7.18,7.18,0,0,0,1.75,3.53,2,2,0,0,0,1.92.55,2.21,2.21,0,0,0,1.46-1.53c.28-.79.13-2.17-.42-4.12-.63-2.16-1.31-3.58-2.07-4.25A1.83,1.83,0,0,0,182.56,343Zm4.44,19.4a5.61,5.61,0,0,0-2.26,1,1.81,1.81,0,0,0-.55,1.79,2.22,2.22,0,0,0,1.53,1.39,7.24,7.24,0,0,0,4.06-.38,9.76,9.76,0,0,0,3.62-1.78,2.23,2.23,0,0,0,.84-2.31,1.26,1.26,0,0,0-.49-.69,2.58,2.58,0,0,0-1.62-.34A37,37,0,0,0,187,362.35Z"/><path class="cls-3" d="M202.55,327.41l6.91,21.11a4.58,4.58,0,0,0,1.14,2.18,2.25,2.25,0,0,0,1.73,0l.22.66-8.63,2.9-.21-.66a2.23,2.23,0,0,0,1.36-1.18,4.54,4.54,0,0,0-.38-2.32l-5.76-17.57a4.36,4.36,0,0,0-1.14-2.16,2.11,2.11,0,0,0-1.7-.07l-.23-.68Z"/><path class="cls-3" d="M228.58,342.75c-1.27,2.53-2.69,4.08-4.21,4.67a3.26,3.26,0,0,1-2.62-.08,3.39,3.39,0,0,1-1.76-2,5,5,0,0,1,.3-4c.64-1.42,2.41-3.62,5.28-6.66L225,333a8.79,8.79,0,0,0-1.1-2.32,2,2,0,0,0-1.07-.58,2.36,2.36,0,0,0-1.36.11,3.43,3.43,0,0,0-1.65,1.2,1,1,0,0,0-.15.93c.09.26.35.49.81.75a2.44,2.44,0,0,1,1.18,1.24,2.13,2.13,0,0,1-.06,1.73,2.35,2.35,0,0,1-1.39,1.24,2.64,2.64,0,0,1-2,0,2.36,2.36,0,0,1-1.32-1.33,4,4,0,0,1,.09-2.83,6.36,6.36,0,0,1,2-2.82,11.16,11.16,0,0,1,3.38-2,6.1,6.1,0,0,1,3.94-.35,4.73,4.73,0,0,1,2.49,1.55,14.35,14.35,0,0,1,1.53,3.35l2.39,6.48a6.4,6.4,0,0,0,.63,1.42.8.8,0,0,0,.41.35.61.61,0,0,0,.42,0c.28-.1.51-.44.66-1l.67.25a6.58,6.58,0,0,1-1,2.58,3.84,3.84,0,0,1-1.84,1.37,3.16,3.16,0,0,1-2.34.13A3.22,3.22,0,0,1,228.58,342.75Zm-.49-1.32-2.06-5.6a10.82,10.82,0,0,0-2,3.88,3.73,3.73,0,0,0,.06,2.18,2.19,2.19,0,0,0,1.08,1.23,1.58,1.58,0,0,0,1.35.05A3.28,3.28,0,0,0,228.09,341.43Z"/><path class="cls-3" d="M249.63,308.81l8,18.9a15.11,15.11,0,0,0,1.06,2.22,1.6,1.6,0,0,0,.87.63,2.57,2.57,0,0,0,1.45-.2l.25.6-6,4.19-1.11-2.63a9,9,0,0,1-1.22,3A4.48,4.48,0,0,1,251.1,337a5.73,5.73,0,0,1-5.87-.76,11.71,11.71,0,0,1-3.73-5,13.65,13.65,0,0,1-1.14-5.11,7.67,7.67,0,0,1,1-4.16,6,6,0,0,1,2.77-2.49,4.58,4.58,0,0,1,2.15-.4,7.67,7.67,0,0,1,2.54.8l-2.12-5a11.54,11.54,0,0,0-1.11-2.21,1.61,1.61,0,0,0-.92-.49,3.14,3.14,0,0,0-1.61.39l-.31-.76Zm.1,13.22c-1.51-1.31-2.86-1.71-4-1.2a1.39,1.39,0,0,0-.84.8,4.37,4.37,0,0,0-.21,2.34,17.58,17.58,0,0,0,1.38,4.35,20.11,20.11,0,0,0,2.37,4.37,4.63,4.63,0,0,0,2.1,1.64,1.62,1.62,0,0,0,1.16-.11c1-.42,1.53-1.63,1.7-3.61Z"/><path class="cls-3" d="M279,312.84l-8.24,4.07a9.29,9.29,0,0,0,4,4.2,3.56,3.56,0,0,0,3.32.11,3.41,3.41,0,0,0,1.5-1.46,7.71,7.71,0,0,0,.69-2.89l.72.11a10.58,10.58,0,0,1-.91,5.12,6.32,6.32,0,0,1-2.91,2.82,6.22,6.22,0,0,1-6.4-.24,11.15,11.15,0,0,1-4-4.81,10.55,10.55,0,0,1-1-7.37,7.09,7.09,0,0,1,3.63-4.74,5.7,5.7,0,0,1,5,0C276.08,308.56,277.65,310.25,279,312.84Zm-4.59.8a17.84,17.84,0,0,0-2.08-3.64,3.49,3.49,0,0,0-1.6-1.13,1.43,1.43,0,0,0-1.05.13,1.69,1.69,0,0,0-.9,1.52,8.72,8.72,0,0,0,1,4.64l.28.6Z"/><path class="cls-3" d="M292.33,295.72l3.09,5.24-.53.29a9.16,9.16,0,0,0-3.75-2.14,3.68,3.68,0,0,0-2.55.26,1.69,1.69,0,0,0-.87,1.05,1.66,1.66,0,0,0,.1,1.33,1.43,1.43,0,0,0,.79.69,15.82,15.82,0,0,0,4.09.79,13,13,0,0,1,4.6,1.14,5.29,5.29,0,0,1,2.13,2.21,6.59,6.59,0,0,1,.74,2.9,5.25,5.25,0,0,1-.72,2.87,5.65,5.65,0,0,1-2.14,2.06,9.53,9.53,0,0,1-3.21.85,3,3,0,0,0-.77.16c-.34.21-.47.63-.42,1.32l-.5.27-3.27-5.48.53-.29a8.36,8.36,0,0,0,3.74,2.24,4.14,4.14,0,0,0,2.93-.19,1.94,1.94,0,0,0,1-1.17,1.84,1.84,0,0,0-.14-1.45,2.4,2.4,0,0,0-1.22-1.14,16.44,16.44,0,0,0-3.06-.61,20.53,20.53,0,0,1-4.61-1,5.46,5.46,0,0,1-2.64-2.44,5.71,5.71,0,0,1-.55-3.93,4.76,4.76,0,0,1,2.63-3.34,5.59,5.59,0,0,1,2.67-.66,1.73,1.73,0,0,0,.84-.12.84.84,0,0,0,.39-.38,3.55,3.55,0,0,0,.16-1Z"/><path class="cls-3" d="M303.32,280.52l5.34,8.91a10.17,10.17,0,0,1,1-3.2,5.16,5.16,0,0,1,1.73-1.8,4,4,0,0,1,2.79-.61,4.51,4.51,0,0,1,2.43,1.13,17,17,0,0,1,2.52,3.54l3.56,6a5.29,5.29,0,0,0,1.6,2,2.07,2.07,0,0,0,1.57-.23l.33.59-7.29,4.48-.34-.6a1.94,1.94,0,0,0,.76-1.34,5.24,5.24,0,0,0-.93-2.26l-4.08-6.82A12,12,0,0,0,312.8,288a1.83,1.83,0,0,0-.92-.48,1.24,1.24,0,0,0-.91.18,2.55,2.55,0,0,0-1,1.2,7,7,0,0,0-.32,2.34l4.89,8.2a6,6,0,0,0,1.43,1.9,1.74,1.74,0,0,0,1.63-.05l.33.58-7.31,4.48-.35-.6a2.15,2.15,0,0,0,.94-1.43,5.93,5.93,0,0,0-1-2.25L301,286.49a5.6,5.6,0,0,0-1.6-2,2.2,2.2,0,0,0-1.59.22l-.37-.61Z"/><path class="cls-3" d="M360.78,261.36l4.57,7.89-17.45,13-.41-.58.64-.49a3.45,3.45,0,0,0,1.15-1.34,1.78,1.78,0,0,0,0-1.15,9,9,0,0,0-1.25-2.08l-10-13.74a9.21,9.21,0,0,0-1.63-1.88,1.81,1.81,0,0,0-1.14-.23,3,3,0,0,0-1.54.69l-.65.48-.41-.58,10.45-7.81.4.58-.87.64a3.34,3.34,0,0,0-1.11,1.35,1.82,1.82,0,0,0-.06,1.19,8,8,0,0,0,1.25,2.06l9.66,13.31a8.81,8.81,0,0,0,1.66,1.91,1.46,1.46,0,0,0,1.14.16,8.45,8.45,0,0,0,1.86-1.2l1.66-1.23a6.66,6.66,0,0,0,2.2-2.52,6.47,6.47,0,0,0,.46-3.2,19.44,19.44,0,0,0-1.26-4.8Z"/><path class="cls-3" d="M360.5,239.16a2.56,2.56,0,0,1,2.07-.59,2.81,2.81,0,0,1,1.89,1.07,2.85,2.85,0,0,1,.66,2.14,2.54,2.54,0,0,1-1,1.91,2.6,2.6,0,0,1-2,.61,2.84,2.84,0,0,1-1.92-1.1,3,3,0,0,1-.65-2.12A2.58,2.58,0,0,1,360.5,239.16Zm7.35,5.08,8.82,11a4.59,4.59,0,0,0,1.85,1.61,2.19,2.19,0,0,0,1.63-.58l.43.52-7.05,5.84-.41-.54a2.14,2.14,0,0,0,.84-1.59c0-.37-.39-1.06-1.17-2l-6.53-8.09a4.52,4.52,0,0,0-1.8-1.59,2.22,2.22,0,0,0-1.63.55l-.44-.55Z"/><path class="cls-3" d="M381.08,232.77l1.6,1.75a9.68,9.68,0,0,1,.41-3.41,5.56,5.56,0,0,1,1.48-2.26,4.5,4.5,0,0,1,2.57-1.3,4.62,4.62,0,0,1,2.86.65,11.05,11.05,0,0,1,.38-3.73,5.75,5.75,0,0,1,1.5-2.44,4,4,0,0,1,5.11-.69,15.55,15.55,0,0,1,3.07,2.79l4.88,5.4a5.54,5.54,0,0,0,2,1.63,2,2,0,0,0,1.52-.54l.46.52-6.41,6-.46-.5a1.92,1.92,0,0,0,.56-1.64,5.22,5.22,0,0,0-1.35-2l-5.12-5.66a14.42,14.42,0,0,0-2.15-2.09,1.67,1.67,0,0,0-1.06-.33,1.28,1.28,0,0,0-.87.4,2.82,2.82,0,0,0-.76,1.49,8.09,8.09,0,0,0,.06,2.43l6.36,7a5.69,5.69,0,0,0,1.87,1.58,1.81,1.81,0,0,0,1.69-.52l.46.5-6.43,6-.46-.51a1.84,1.84,0,0,0,.56-1.06,1.33,1.33,0,0,0-.13-.94,8.43,8.43,0,0,0-1.25-1.58l-5.11-5.66a16.17,16.17,0,0,0-2.16-2.12,2,2,0,0,0-1.09-.28,1.57,1.57,0,0,0-.92.38,2.52,2.52,0,0,0-.71,1.22,7.84,7.84,0,0,0,0,2.74l6.38,7.06a5.53,5.53,0,0,0,1.92,1.59,1.8,1.8,0,0,0,1.57-.48l.45.51L388,250.63l-.47-.52a2.07,2.07,0,0,0,.63-1.57,6,6,0,0,0-1.42-2L380,239.08a5.2,5.2,0,0,0-1.94-1.6,2.11,2.11,0,0,0-1.51.5l-.49-.52Z"/><path class="cls-3" d="M399.76,202.52a2.6,2.6,0,0,1,2-.83,3,3,0,0,1,2.93,2.91,2.73,2.73,0,0,1-2.73,2.84,2.86,2.86,0,0,1-2-.85,3.06,3.06,0,0,1-.9-2A2.7,2.7,0,0,1,399.76,202.52Zm7.87,4.19,10,9.86a4.45,4.45,0,0,0,2,1.38,2.1,2.1,0,0,0,1.55-.76l.5.47-6.33,6.62-.49-.47a2.23,2.23,0,0,0,.65-1.7c0-.36-.49-1-1.39-1.86L406.78,213a4.42,4.42,0,0,0-2-1.37,2.11,2.11,0,0,0-1.54.75l-.51-.5Z"/><path class="cls-3" d="M414.39,189.67l4.77,4.34,2.67-3,1.39,1.27-2.64,3,8.12,7.38a9,9,0,0,0,1.53,1.25,1.4,1.4,0,0,0,.85.11,1,1,0,0,0,.62-.3c.51-.58.55-1.55.08-2.93l.68-.11c1.14,2.35,1,4.36-.49,6a4.07,4.07,0,0,1-2.48,1.43,4.18,4.18,0,0,1-2.48-.34,18.63,18.63,0,0,1-2.7-2.21l-7.1-6.47-1.46,1.66-.48-.43a30.16,30.16,0,0,0,0-5.31A22.47,22.47,0,0,0,414,190.1Z"/><path class="cls-3" d="M442.59,178.74,436.78,186a8.94,8.94,0,0,0,5.36,2.11,3.61,3.61,0,0,0,3.06-1.31,3.3,3.3,0,0,0,.77-2,8.46,8.46,0,0,0-.57-2.92l.71-.21a11.3,11.3,0,0,1,1.3,5,6.52,6.52,0,0,1-1.5,3.8A6.22,6.22,0,0,1,440,193a11,11,0,0,1-5.62-2.65,10.26,10.26,0,0,1-3.95-6.26,6.92,6.92,0,0,1,1.34-5.86,5.71,5.71,0,0,1,4.5-2.09C438.19,176.1,440.29,177,442.59,178.74Zm-3.84,2.67a18.35,18.35,0,0,0-3.39-2.39,3.26,3.26,0,0,0-1.94-.35,1.42,1.42,0,0,0-.87.56,1.74,1.74,0,0,0-.22,1.76,8.82,8.82,0,0,0,2.88,3.77l.5.43Z"/><path class="cls-3" d="M444.92,148.28l16.35,12.15a13.39,13.39,0,0,0,2,1.35,1.47,1.47,0,0,0,1.09.1,2.81,2.81,0,0,0,1.15-.92l.5.38L463,168l-2.26-1.69a8.85,8.85,0,0,1,.44,3.2,4.49,4.49,0,0,1-.86,2.2,5.7,5.7,0,0,1-5.43,2.37,11.16,11.16,0,0,1-5.71-2.37,13.38,13.38,0,0,1-3.56-3.8,7.71,7.71,0,0,1-1.21-4.12,6.22,6.22,0,0,1,1.14-3.57,4.5,4.5,0,0,1,1.67-1.43,7.13,7.13,0,0,1,2.56-.63L445.43,155a10.52,10.52,0,0,0-2.07-1.34,1.56,1.56,0,0,0-1,.05,3.27,3.27,0,0,0-1.19,1.16l-.65-.48Zm6.71,11.32q-3-.53-4.1,1.05a1.67,1.67,0,0,0-.32,1.13,4.23,4.23,0,0,0,1,2.1,16.5,16.5,0,0,0,3.35,3,18.69,18.69,0,0,0,4.25,2.56,4.79,4.79,0,0,0,2.61.33,1.53,1.53,0,0,0,.94-.7c.63-.86.51-2.2-.33-4Z"/><path class="cls-3" d="M420.18,81.88l4.76,1.73-1.35,11.22,9.34-8.34,4.63,1.68L424.28,99.25l-2.38,2a12,12,0,0,1-2.15,1.42,6,6,0,0,1-1.79.59,7.31,7.31,0,0,1-2,0,11.28,11.28,0,0,1-2.4-.61,13.74,13.74,0,0,1-2.42-1.13l1.18-3a11.15,11.15,0,0,0,1.8.86,3.73,3.73,0,0,0,2.72.09A7,7,0,0,0,419,98Z"/><path class="cls-1" d="M256.2,172.12l-1.31.91.51,4.81-1.48-.77.05-3.68-1.65,0,.4-2.94L252,168l-.71-2.23-.14-4.23-.92-.94-.14-2.77-.55-1.48a4.78,4.78,0,0,0-4.21-1.71c-3,.14-10-.12-10-.12L234,159.86l.51,2-1.28-.38.16,2.21-1.09-.93-.59,2-1.1-.39,0,2.22L229,164.6l-1.45-1.68-1.49.72-.77,2.2-1.48.35-.21.92-1.46.17-.75-.74-1.83-.21L217.47,168l-.95,1.65-2.92-1.33.23-3.86-.71-3.34L213,158l-.35-1.3-1.21-7.39-.64-7-2,.16-.34-1.84,1.29-1.11-.1-4.6s-2.16-5.75-3.64-5.77a13.92,13.92,0,0,1-2.95-.41l-.9-1.66.2-1.47,1.49-1.45,1.3-.36.94-1.1v-.74l2.76,0,2.23-.34.39-2-1.65-.4-.38-.56-1.65-.38-1.26-1.87-.72-2-1.48-.39.22-2.21,1.67-.54.2-1.65,1.12-.73.76-1.84,0-1.47,2.22.21.53,1.48.53,2.23,1.1-.36.39-1.47,1.29.38,0-1.28h1.29l.16,2.39,1.29,0,.91.75.35,1.12,1.85,0,.93-.17,1.49-1.09.71,1.67.34,2.21.17,1.85.71,1.67.72,1.3.91,1.3.18,1.1L243.15,122l8.32.1,2,0-.19,1.1,2.4-.15,0,2.39-2.41.16-.38,1.65-.2,1.47h-1.1l.35,1.3-5.41,3.25.73,1.31-3,.32-.75,1.47-1.48.35-1.49.54.32,4.05.7,2.24.91,2.4,1.09,1.68,2.39.58,0,1.65.9,1.31,1.68-.54,0-2.57.21-3.13,1.13-.55,1.67-.9-.17-2,1.12-.54.91,0,.37,1.29h1.29l.15,2.22.93.38.16,2.58.34,2,.88,1.3.87,6.11.89,2.22.31,5.53-.06,4.62-.4,2.58-2.05-.21-.55,1.09"/><path class="cls-5" d="M183.73,137.83s46.8-8.1,109,1.31c6.15,1.68,12,5.54-5.84,9.43l-.41,4.29s20.56-5.1,16.28-11.54c-2.41-7.8-46.29-14.65-118.41-8.4Z"/><path class="cls-1" d="M256.23,172.12l-1.31.91.5,4.81-1.47-.77.05-3.68-1.66,0,.4-2.94L252,168l-.71-2.23-.14-4.23-.92-.94-.14-2.77-.54-1.48a4.81,4.81,0,0,0-4.22-1.71c-3,.14-10-.12-10-.12L234,159.86l.52,2-1.29-.38.16,2.21-1.09-.93-.58,2-1.11-.39,0,2.22L229,164.6l-1.45-1.68-1.49.72-.76,2.2-1.49.35-.2.92-1.47.17-.75-.74-1.83-.21L217.49,168l-.94,1.65-2.93-1.33.23-3.86-.71-3.34L213,158l-.35-1.3-1.2-7.39-.65-7-2,.16-.34-1.84,1.3-1.11-.11-4.6s-2.15-5.75-3.63-5.77a13.79,13.79,0,0,1-2.95-.41l-.91-1.66.2-1.47,1.5-1.45,1.3-.36.93-1.1v-.74l2.76,0,2.23-.34.4-2-1.66-.4-.38-.56-1.65-.38-1.26-1.87-.72-2-1.47-.39.22-2.21,1.66-.54.21-1.65,1.11-.73.76-1.84,0-1.47,2.22.21.53,1.48.53,2.23,1.11-.36.39-1.47,1.29.38,0-1.28h1.29l.16,2.39,1.29,0,.91.75.35,1.12,1.86,0,.92-.17,1.49-1.09.72,1.67.34,2.21.16,1.85.71,1.67.73,1.3.91,1.3.17,1.1L243.18,122l8.31.1,2,0-.2,1.1,2.4-.15,0,2.39-2.41.16-.39,1.65-.2,1.47h-1.09L252,130l-5.4,3.25.72,1.31-3,.32-.75,1.47-1.47.35-1.49.54.31,4.05.71,2.24.9,2.4,1.09,1.68,2.39.58,0,1.65.9,1.31,1.68-.54,0-2.57.22-3.13,1.13-.55,1.67-.9-.18-2,1.12-.54.92,0,.36,1.29h1.3l.15,2.22.92.38.16,2.58.34,2,.89,1.3.87,6.11.88,2.22.31,5.53,0,4.62-.41,2.58-2-.21-.55,1.09"/><path class="cls-5" d="M278.53,153.88s-81.67,7.38-114.45-4.91c-5.22-3.5-14.3-9.52,12.06-14.67l-.3,4.3s-18.54,2.75-11,5.82,40.35,10,114.31,5.42Z"/></g></g></svg>