<?xml version="1.0" encoding="utf-8"?>
<!-- Generator: Adobe Illustrator 26.0.1, SVG Export Plug-In . SVG Version: 6.00 Build 0)  -->
<svg version="1.1" id="Layer_1" xmlns="http://www.w3.org/2000/svg" xmlns:xlink="http://www.w3.org/1999/xlink" x="0px" y="0px"
	 viewBox="0 0 235.9 491.1" style="enable-background:new 0 0 235.9 491.1;" xml:space="preserve">
<style type="text/css">
	.st0{fill:#231F20;}
	.st1{fill:#FFFFFF;}
	.st2{fill:#F68832;}
	.st3{fill:#078241;}
	.st4{fill:#115D33;}
	.st5{fill:#F6FBFD;}
	.st6{fill:#0E4525;}
	.st7{fill:#186A60;}
	.st8{fill:#8F9393;}
	.st9{fill:#F6852B;}
	.st10{fill:#A33123;}
	.st11{fill:#B8342A;}
	.st12{fill:none;}
	.st13{fill:#669A9D;}
	.st14{fill:#F3D1B6;}
	.st15{fill:#E1C1A9;}
	.st16{fill:#C1DAEA;}
	.st17{fill:#8CD0DE;}
	.st18{fill:#E4E4E4;}
	.st19{fill:#FED8B7;}
	.st20{fill:#8D643D;}
	.st21{fill:#F2CFB5;}
	.st22{fill:#A2C1E6;}
	.st23{fill:#F7F8F9;}
	.st24{fill:#BEBDBF;}
	.st25{fill:#F2F4F5;}
	.st26{fill:#BCBDBF;}
	.st27{fill:#221F1F;}
	.st28{fill:#16695F;}
	.st29{fill:#2175BB;}
	.st30{fill:#FBED1D;}
	.st31{fill:#0F735F;}
	.st32{fill:#4FB862;}
	.st33{fill:#088443;}
	.st34{fill:#347F77;}
	.st35{fill:#8F9293;}
	.st36{fill:#F6852C;}
	.st37{fill:#028141;}
	.st38{fill:#010101;stroke:#010101;stroke-width:8.561698e-03;stroke-miterlimit:10;}
	.st39{fill:#CFD1D2;}
	.st40{fill:#A22F23;}
	.st41{fill:#B7332A;}
	.st42{fill:#8BD1DF;}
	.st43{fill:#FED8B6;}
	.st44{fill:#8C633C;}
	.st45{fill:#F2CFB4;}
	.st46{fill:#A1C1E5;}
	.st47{fill:#E9E8E9;stroke:#186A60;stroke-width:0.1361;stroke-miterlimit:10;}
	.st48{fill:#E9ECED;}
</style>
<g>
	<g>
		<path class="st4" d="M203.4,1.6c17,0,30.9,13.9,30.9,31.1v425.7c0,17.1-13.9,31.1-30.9,31.1H32.5c-17,0-30.9-13.9-30.9-31.1V32.7
			c0-17.1,13.9-31.1,30.9-31.1H203.4 M203.4,0H32.5C14.6,0,0,14.7,0,32.7v425.7c0,18,14.6,32.7,32.5,32.7h170.9
			c17.9,0,32.5-14.7,32.5-32.7V32.7C235.9,14.7,221.3,0,203.4,0L203.4,0z"/>
	</g>
	<g>
		<path class="st4" d="M203.3,484.3H32.5c-14.3,0-25.8-11.6-25.8-25.8V32.6c0-14.3,11.6-25.8,25.8-25.8h170.8
			c14.3,0,25.8,11.6,25.8,25.8v425.8C229.1,472.7,217.6,484.3,203.3,484.3z"/>
	</g>
	<g>
		<g>
			<path class="st5" d="M204.5,483.8H31.4c-13.6,0-24.7-11-24.7-24.7V94.4h222.4v364.7C229.1,472.7,218.1,483.8,204.5,483.8z"/>
		</g>
		<g>
			<path class="st6" d="M228.6,95v364.6c0,13.3-10.8,24.2-24.1,24.2H31.3C18,483.9,7.2,473,7.2,459.6V95H228.6 M229.1,94.4H6.7
				v365.1c0,13.7,11,24.7,24.6,24.7h173.2c13.6,0,24.6-11.1,24.6-24.7L229.1,94.4L229.1,94.4z"/>
		</g>
	</g>
	<g>
		<rect x="6.7" y="32.5" class="st6" width="222.4" height="24.5"/>
	</g>
	<g>
		<rect x="6.7" y="57.1" class="st7" width="222.4" height="37.8"/>
	</g>
	<g>
		<g>
			<g id="XMLID_00000151504254733291610880000002823311317241441458_">
				<g id="XMLID_00000173868961388025140010000017036191675428848556_">
					<path class="st8" d="M27.8,83.3h4.3c1.6,0,2.7-0.4,3.1-1.1c0.1-0.1,0.1-0.2,0.2-0.3l-3.9-1.3L27.8,83.3z"/>
				</g>
				<g id="XMLID_00000138555234906914349490000005478220919834174082_">
					<path class="st8" d="M30.4,80.6H30v-2.2h1.5c0.5,0,0.8,0.1,1,0.4c0.2,0.2,0.3,0.5,0.3,0.8s-0.1,0.5-0.3,0.8l0,0l3.2,1
						c0.2-0.5,0.3-1,0.3-1.5c0-1.5-0.7-2.5-2.1-2.9c0.6-0.2,1-0.5,1.4-1c0.3-0.5,0.5-1,0.5-1.7c0-0.8-0.3-1.6-0.8-2.2
						c-0.5-0.7-1.3-1-2.5-1H27v12.3l0.4-0.6L30.4,80.6z M30.1,73.6h1.5c0.7,0,1.1,0.3,1.1,1c0,0.3-0.1,0.5-0.2,0.7
						c-0.2,0.2-0.4,0.3-0.8,0.3h-1.5v-2H30.1z"/>
				</g>
				<g id="XMLID_00000040556770497578666160000015913144066737020081_">
					<path class="st8" d="M41.8,77.1c0.2,0,0.4,0,0.6,0.1V74c-0.2,0-0.3,0-0.5,0c-1.1,0-1.8,0.7-2.1,2.1v-1.9h-2.6v6.5l3-2
						C40.4,77.6,40.9,77.1,41.8,77.1z"/>
				</g>
				<g id="XMLID_00000106107114002692798220000013343107825883883935_">
					<polygon class="st8" points="37.3,83.3 40.3,83.3 40.3,79.6 37.3,81.5 					"/>
				</g>
				<g id="XMLID_00000176016395445293749460000004586351012372759210_">
					<path class="st9" d="M48.4,78.3c0,0.1,0,0.2,0,0.4c0,0.6-0.1,1.2-0.2,1.8c-0.1,0.6-0.4,0.9-0.9,0.9c-0.3,0-0.6-0.2-0.8-0.5
						c-0.1-0.3-0.2-0.8-0.3-1.6l-0.5,0.2l-2.8-1.6c0,0.3-0.1,0.6-0.1,0.9c0,1.3,0.4,2.4,1.2,3.3c0.8,0.9,1.8,1.4,3.2,1.4
						c1.3,0,2.4-0.5,3.2-1.4c0.8-0.9,1.2-2.1,1.2-3.4c0-0.5-0.1-1.1-0.2-1.5L51.2,77L48.4,78.3z"/>
				</g>
				<g id="XMLID_00000019657517067380590240000005916062540126778796_">
					<path class="st9" d="M46.3,78.4c0-0.7,0.1-1.3,0.2-1.6c0.2-0.4,0.4-0.6,0.8-0.6s0.7,0.2,0.8,0.6c0.1,0.2,0.1,0.4,0.2,0.7
						l2.8-1.2c-0.2-0.3-0.4-0.7-0.6-0.9c-0.8-0.9-1.9-1.3-3.2-1.3c-1.3,0-2.4,0.5-3.2,1.4c-0.5,0.5-0.8,1.1-1,1.8l2.6,1.5L46.3,78.4
						z"/>
				</g>
				<g id="XMLID_00000003062794719769837340000002947532793429580689_">
					<polygon class="st3" points="53,78.4 53,83.3 55.9,83.3 55.9,80.8 56.8,79.6 58.3,83.3 61.5,83.3 58.8,77.3 59,77.1 54.3,79.7 
											"/>
				</g>
				<g id="XMLID_00000152225936452328052700000008926642580165360305_">
					<path class="st3" d="M59.6,76l0.2,0.1l1.5-1.9h-2.8l-2,2.6c-0.2,0.3-0.4,0.5-0.6,0.8c0-1,0-1.5,0-1.7v-5H53v6.5l1.4,1.3
						L59.6,76z"/>
				</g>
				<g id="XMLID_00000018230253328017336370000013457819953451800739_">
					<path class="st8" d="M76.2,74c-1.1,0-1.8,0.7-2.1,2.1v-1.9h-2.6v9.1h3v-4.2c0-1.3,0.5-2,1.6-2c0.2,0,0.4,0,0.6,0.1V74
						C76.4,74,76.3,74,76.2,74z"/>
				</g>
				<g>
					<g>
						<path class="st8" d="M67.1,77.6h-1.9l-1.5,1l-2-0.9c-0.1,0.4-0.1,0.7-0.1,1.1c0,1.3,0.4,2.4,1.2,3.3c0.8,0.9,1.9,1.3,3.2,1.3
							c1.2,0,2.2-0.3,2.9-0.9c0.7-0.6,1.2-1.4,1.3-2.3L67.3,80c-0.1,0.7-0.5,1.1-1.2,1.1c-0.5,0-0.8-0.1-1-0.4s-0.3-0.7-0.3-1.3h5.4
							c0-0.2,0-0.4,0-0.5c0-1.5-0.4-2.7-1.2-3.6l-0.1-0.1l-2.1,1.4C67,76.8,67.1,77.1,67.1,77.6z"/>
					</g>
					<g>
						<path class="st8" d="M62.8,75.4c-0.4,0.5-0.7,1-0.9,1.6l1.8,0.8l1.3-0.9c0.1-0.6,0.5-0.9,1-0.9c0.1,0,0.2,0,0.3,0l2.2-1.4
							c-0.7-0.5-1.5-0.7-2.4-0.7C64.6,73.9,63.6,74.4,62.8,75.4z"/>
					</g>
					<g>
						<path class="st8" d="M76,71.5l2.3-3l-3.6,0.8l0.5,0.8l-6.8,4.5c0.2,0.1,0.4,0.3,0.6,0.5l6.6-4.4L76,71.5z"/>
					</g>
				</g>
				<g id="XMLID_00000035499608246903996380000005533865045078424231_">
					<g id="XMLID_00000138571161899901299330000002377327729081987511_">
						<path class="st1" d="M23.6,83.3c-0.4,0.1-0.8,0.1-1.1,0.1c-0.4,0-0.7,0-1-0.2c-0.3-0.1-0.5-0.4-0.7-0.7
							c-0.2-0.4-0.3-0.9-0.3-1.5l0.1-3.5c0-0.5-0.1-0.9-0.2-1.1c-0.2-0.2-0.5-0.2-0.9-0.1l1.5-3.1c0.4-0.1,0.8-0.1,1.1-0.1
							c0.4,0,0.7,0,1,0.2c0.3,0.1,0.5,0.4,0.7,0.8s0.3,0.9,0.2,1.6l-0.1,3.5c0,0.5,0.1,0.9,0.2,1.1c0.2,0.2,0.5,0.2,0.9,0.1
							L23.6,83.3z M24.4,70c0.1,0.3,0,0.5,0,0.8c-0.1,0.2-0.2,0.5-0.3,0.6c-0.2,0.2-0.4,0.4-0.6,0.5s-0.5,0.2-0.7,0.3
							c-0.2,0.1-0.5,0.1-0.8,0c-0.3,0-0.5-0.1-0.7-0.2s-0.4-0.3-0.6-0.5s-0.3-0.4-0.3-0.7c-0.1-0.3,0-0.5,0-0.8
							c0.1-0.2,0.2-0.4,0.4-0.6c0.2-0.2,0.4-0.3,0.6-0.5c0.2-0.1,0.5-0.2,0.7-0.3c0.2-0.1,0.5-0.1,0.8,0c0.3,0,0.5,0.1,0.7,0.2
							s0.4,0.3,0.6,0.4C24.3,69.5,24.4,69.7,24.4,70z"/>
					</g>
				</g>
			</g>
		</g>
	</g>
	<g>
		<g>
			<g>
				<rect x="208.3" y="72.5" class="st1" width="6.2" height="1.2"/>
			</g>
			<g>
				<rect x="208.3" y="75.4" class="st1" width="6.2" height="1.2"/>
			</g>
			<g>
				<rect x="208.3" y="78.3" class="st1" width="6.2" height="1.2"/>
			</g>
		</g>
		<g>
			<polygon class="st1" points="206.3,73.6 207.6,73.6 205.9,71.9 204.2,73.6 205.5,73.6 205.5,78.5 204.2,78.5 205.9,80.2 
				207.6,78.5 206.3,78.5 			"/>
		</g>
	</g>
	<g>
		<g>
			<g>
				<ellipse class="st10" cx="178.8" cy="76" rx="9.1" ry="9.1"/>
			</g>
			<g>
				<path class="st11" d="M178.8,85.1c-5,0-9.1-4.1-9.1-9.1s4.1-9.1,9.1-9.1V85.1z"/>
			</g>
		</g>
		<g>
			<g>
				<g>
					<path class="st14" d="M177.3,78.4l-0.5,1.3l3.8,0.3l-0.5-1.4C178.8,79.4,177.8,78.8,177.3,78.4z"/>
				</g>
				<g>
					<path class="st15" d="M180.2,78.6l-0.4-1h-2.2l-0.3,0.8C177.8,78.8,178.8,79.4,180.2,78.6z"/>
				</g>
			</g>
			<g>
				<g>
					<path class="st16" d="M172.4,82.4L172.4,82.4c1.4,1.6,3.4,2.5,5.6,2.7c-0.4-1.4-1.2-4.6-1.5-5.6
						C175.2,80.6,172.9,81.5,172.4,82.4z"/>
				</g>
				<g>
					<path class="st16" d="M185.1,82.4c-0.5-0.8-2.7-1.7-4.1-2.9c-0.3,1-1.1,4.2-1.5,5.6C181.7,84.9,183.7,83.9,185.1,82.4
						L185.1,82.4z"/>
				</g>
			</g>
			<g>
				<g>
					<path class="st18" d="M180.4,78.8l-1.6,1l0,0V85l0,0h0.5c0.1,0,0.1,0,0.2,0c0.4-1.4,1.2-4.6,1.5-5.6
						C180.8,79.2,180.5,79,180.4,78.8z"/>
				</g>
				<g>
					<path class="st18" d="M178.8,85.1v-5.2l0,0l-1.6-1c-0.2,0.2-0.4,0.5-0.6,0.7c0.3,1,1.1,4.2,1.5,5.6c0.1,0,0.1,0,0.2,0
						L178.8,85.1L178.8,85.1z"/>
				</g>
			</g>
			<g>
				<g>
					<path class="st19" d="M178.8,70.8c-1.9,0-3.4,0.6-3.4,2.8c0,2.2,1.5,5.1,3.4,5.1l0,0V70.8L178.8,70.8z"/>
				</g>
				<g>
					<path class="st19" d="M182.2,73.5c0-2.2-1.5-2.8-3.4-2.8v7.9C180.7,78.6,182.2,75.7,182.2,73.5z"/>
				</g>
				<g>
					<path class="st20" d="M175.4,74.7h0.6c0,0,0.1-2.2,0.6-2.5s1.4,0.2,2.2,0v-2.5c0,0-2.1-0.1-2.9,0.8
						C175.4,71.1,175,72,175.4,74.7z"/>
				</g>
				<g>
					<path class="st20" d="M182.2,74.7h-0.6c0,0-0.1-2.2-0.6-2.5s-1.4,0.2-2.2,0v-2.5c0,0,2.1-0.1,2.9,0.8
						C182.2,71.1,182.6,72,182.2,74.7z"/>
				</g>
				<g>
					
						<ellipse transform="matrix(0.982 -0.189 0.189 0.982 -10.9527 34.5546)" class="st19" cx="175.7" cy="74.7" rx="0.5" ry="0.9"/>
				</g>
				<g>
					<path class="st21" d="M181.4,74.7c-0.1,0.5,0,0.9,0.3,1c0.3,0,0.5-0.3,0.6-0.8s0-0.9-0.3-1C181.8,73.8,181.5,74.2,181.4,74.7z"
						/>
				</g>
			</g>
			<g>
				<polygon class="st22" points="178.8,79.8 178.1,80 178.5,80.8 178.8,80.8 				"/>
			</g>
			<g>
				<polygon class="st1" points="178.8,79.8 177.7,80.8 176.7,79.3 177.2,78.8 				"/>
			</g>
			<g>
				<g>
					<path class="st1" d="M175.3,80.3l0.9,2.6l0.7-0.3l-0.4,1l0.7,1.4c0.3,0,0.6,0.1,0.8,0.1l-1.4-5.7L175.3,80.3z"/>
				</g>
				<g>
					<path class="st1" d="M180.7,82.5l0.7,0.3l0.9-2.6l-1.4-1l-1.4,5.7c0.3,0,0.6-0.1,0.8-0.1l0.7-1.4L180.7,82.5z"/>
				</g>
			</g>
			<g>
				<polygon class="st22" points="178.8,79.8 179.4,80 179.1,80.8 178.8,80.8 				"/>
			</g>
			<g>
				<polygon class="st1" points="178.8,79.8 179.9,80.8 180.8,79.3 180.4,78.8 				"/>
			</g>
			<g>
				<g>
					<path class="st22" d="M178.8,80.8v4.3c0.2,0,0.4,0,0.7,0l-0.4-4.2h-0.3V80.8z"/>
				</g>
				<g>
					<path class="st22" d="M178.8,80.8h-0.3l-0.4,4.2c0.2,0,0.4,0,0.7,0l0,0l0,0V80.8L178.8,80.8z"/>
				</g>
			</g>
		</g>
	</g>
	<g>
		<g>
			<polyline class="st1" points="125.8,71.2 123.6,71.2 121.9,80.4 121.1,80.4 122.8,71.2 120.5,71.2 120.7,70.4 126,70.4 
				125.8,71.2 			"/>
		</g>
		<g>
			<path class="st1" d="M127.5,73.7c-0.2,0-0.3,0-0.4,0c-0.4,0-0.8,0.2-1.1,0.5c-0.4,0.4-0.6,0.9-0.7,1.6l-0.8,4.7h-0.7l1.4-7.5h0.7
				l-0.2,1.2l0,0c0.5-0.9,1.1-1.4,1.8-1.4c0,0,0.1,0,0.2,0c0.1,0,0.1,0,0.1,0L127.5,73.7"/>
		</g>
		<g>
			<path class="st1" d="M131.1,80.5c-0.1,0-0.1,0-0.2,0c-0.1,0-0.2,0-0.3,0c-0.4,0-0.6-0.2-0.6-0.6c0-0.1,0-0.2,0-0.3v-0.2l0,0
				c-0.2,0.4-0.5,0.7-0.9,0.9c-0.4,0.2-0.7,0.3-1,0.3c-0.9,0-1.4-0.5-1.4-1.5c0-0.2,0-0.4,0.1-0.7c0.1-0.7,0.4-1.2,0.7-1.5
				s0.7-0.5,1.3-0.6c0.3-0.1,0.8-0.2,1.4-0.4c0.3-0.1,0.4-0.4,0.5-0.9c0-0.2,0-0.4,0-0.5c0-0.6-0.3-0.9-0.9-0.9
				c-0.8,0-1.4,0.6-1.6,1.7h-0.7c0.3-1.6,1.1-2.4,2.4-2.4c1.1,0,1.6,0.5,1.6,1.4c0,0.2,0,0.4-0.1,0.7l-0.8,4.6
				c-0.1,0.3,0,0.5,0.2,0.5c0,0,0.1,0,0.2,0L131.1,80.5 M130.2,78.1l0.3-1.8c-0.2,0.2-0.4,0.3-0.8,0.4c-0.3,0.1-0.6,0.2-0.9,0.3
				c-0.4,0.1-0.6,0.3-0.8,0.5s-0.4,0.6-0.4,1c0,0.2,0,0.3,0,0.5c0,0.7,0.3,1,0.8,1c0.4,0,0.8-0.2,1.1-0.5
				C129.8,79.2,130.1,78.7,130.2,78.1z"/>
		</g>
		<g>
			<path class="st1" d="M135.4,80.4h-0.7l0.2-1.2l0,0c-0.4,0.9-1,1.4-1.8,1.4c-1,0-1.5-0.7-1.5-2.2c0-0.5,0.1-1.1,0.2-1.7
				c0.5-2.6,1.4-3.9,2.7-3.9c0.3,0,0.6,0.1,0.9,0.3c0.2,0.2,0.4,0.5,0.4,1l0,0l0.7-3.7h0.7L135.4,80.4 M135.4,76.7
				c0.1-0.6,0.2-1.1,0.2-1.5c0-1.1-0.3-1.7-1-1.7c-0.9,0-1.6,1.1-2,3.2c-0.1,0.7-0.2,1.2-0.2,1.7c0,1,0.3,1.5,1,1.5
				C134.3,79.9,135,78.8,135.4,76.7z"/>
		</g>
		<g>
			<path class="st1" d="M140.8,76.8h-3.5c-0.1,0.7-0.2,1.3-0.2,1.7c0,1,0.3,1.5,1,1.5c0.4,0,0.7-0.2,1-0.5s0.5-0.8,0.6-1.4h0.7
				c-0.1,0.7-0.4,1.4-0.9,1.8c-0.5,0.5-1,0.8-1.7,0.8c-1.1,0-1.6-0.7-1.6-2.1c0-0.5,0.1-1.1,0.2-1.8c0.5-2.6,1.4-3.8,2.9-3.8
				c1.1,0,1.6,0.6,1.6,1.9C141.1,75.3,141,75.9,140.8,76.8 M140.2,76.1c0.1-0.5,0.1-0.9,0.1-1.3c0-0.9-0.3-1.3-1-1.3
				c-0.9,0-1.6,0.9-1.9,2.6C137.4,76.1,140.2,76.1,140.2,76.1z"/>
		</g>
		<g>
			<path class="st1" d="M152,75.9c-0.1,0.7-0.4,1.3-0.7,1.7c-0.4,0.4-0.7,0.6-1.2,0.6c-0.3,0-0.5-0.1-0.7-0.2
				c-0.1-0.1-0.2-0.2-0.2-0.4l-0.4,2.1h-0.9L149,74h0.9l-0.1,0.6c0.1-0.2,0.3-0.3,0.4-0.4c0.2-0.2,0.5-0.3,0.8-0.3
				c0.4,0,0.7,0.2,1,0.5C152.1,74.7,152.2,75.2,152,75.9 M150.5,74.7c-0.3,0-0.6,0.2-0.8,0.6c-0.1,0.2-0.2,0.4-0.2,0.7
				c-0.1,0.5,0,0.8,0.1,1c0.1,0.1,0.3,0.2,0.4,0.2c0.3,0,0.5-0.1,0.7-0.3c0.2-0.2,0.3-0.5,0.4-0.9c0.1-0.3,0-0.6,0-0.8
				C150.9,74.8,150.8,74.7,150.5,74.7z"/>
		</g>
		<g>
			<path class="st1" d="M154.7,73.8l-0.2,1.1c-0.1,0-0.1,0-0.2,0h-0.1c-0.4,0-0.7,0.1-0.8,0.4c-0.1,0.2-0.2,0.4-0.2,0.7l-0.4,2h-0.9
				l0.8-4.1h0.9l-0.1,0.7c0.2-0.3,0.4-0.5,0.5-0.6c0.2-0.2,0.4-0.3,0.7-0.3V73.8C154.6,73.8,154.7,73.8,154.7,73.8"/>
		</g>
		<g>
			<path class="st1" d="M157.7,74.5c0.1,0.2,0.1,0.5,0.1,0.9c0,0.2,0,0.5-0.1,0.8h-2.5c-0.1,0.4,0,0.7,0.2,0.9
				c0.1,0.1,0.3,0.2,0.4,0.2c0.2,0,0.4-0.1,0.5-0.2s0.2-0.2,0.2-0.3h0.9c-0.1,0.2-0.2,0.5-0.5,0.7c-0.4,0.4-0.8,0.6-1.4,0.6
				c-0.5,0-0.8-0.2-1.1-0.5s-0.4-0.9-0.2-1.6c0.1-0.7,0.4-1.3,0.8-1.6c0.4-0.4,0.8-0.6,1.3-0.6c0.3,0,0.5,0.1,0.8,0.2
				S157.6,74.3,157.7,74.5 M155.4,75.5h1.4c0-0.3,0-0.5-0.1-0.6s-0.3-0.2-0.5-0.2s-0.4,0.1-0.5,0.2C155.6,75,155.5,75.2,155.4,75.5z
				"/>
		</g>
		<g>
			<path class="st1" d="M158.6,76.7c0,0.2,0,0.3,0.1,0.4s0.3,0.2,0.6,0.2c0.2,0,0.3,0,0.5-0.1c0.1-0.1,0.2-0.2,0.2-0.3
				c0-0.1,0-0.2-0.1-0.3c-0.1-0.1-0.4-0.2-0.9-0.3c-0.4-0.1-0.6-0.3-0.8-0.4c-0.1-0.2-0.2-0.4-0.1-0.7c0.1-0.4,0.3-0.7,0.6-1
				s0.7-0.4,1.2-0.4c0.4,0,0.8,0.1,1,0.3c0.2,0.2,0.3,0.6,0.3,1.1h-1c0-0.1,0-0.2,0-0.3c-0.1-0.1-0.2-0.2-0.5-0.2
				c-0.2,0-0.4,0-0.5,0.1S159,75,159,75.1c0,0.1,0,0.2,0.1,0.3c0.1,0.1,0.4,0.2,0.9,0.3c0.4,0.1,0.6,0.3,0.7,0.5
				c0.1,0.2,0.2,0.5,0.1,0.8c-0.1,0.4-0.3,0.7-0.6,1s-0.7,0.4-1.3,0.4s-0.9-0.1-1.2-0.4c-0.2-0.3-0.3-0.6-0.2-1h1.1"/>
		</g>
		<g>
			<path class="st1" d="M162,76.7c0,0.2,0,0.3,0.1,0.4s0.3,0.2,0.6,0.2c0.2,0,0.3,0,0.5-0.1c0.1-0.1,0.2-0.2,0.2-0.3
				c0-0.1,0-0.2-0.1-0.3c-0.1-0.1-0.4-0.2-0.9-0.3c-0.4-0.1-0.6-0.3-0.8-0.4c-0.1-0.2-0.2-0.4-0.1-0.7c0.1-0.4,0.3-0.7,0.6-1
				s0.7-0.4,1.2-0.4c0.4,0,0.8,0.1,1,0.3c0.2,0.2,0.3,0.6,0.3,1.1h-0.9c0-0.1,0-0.2,0-0.3c-0.1-0.1-0.2-0.2-0.5-0.2
				c-0.2,0-0.4,0-0.5,0.1s-0.2,0.2-0.2,0.3c0,0.1,0,0.2,0.1,0.3c0.1,0.1,0.4,0.2,0.9,0.3c0.4,0.1,0.6,0.3,0.7,0.5
				c0.1,0.2,0.2,0.5,0.1,0.8c-0.1,0.4-0.3,0.7-0.6,1s-0.7,0.4-1.3,0.4s-0.9-0.1-1.2-0.4c-0.2-0.3-0.3-0.6-0.2-1h1"/>
		</g>
		<g>
			<g>
				<polyline class="st1" points="144.1,76.1 139.4,68.7 138.5,68.7 143.8,76.2 140.8,80.9 140.9,80.9 144.1,76.1 				"/>
			</g>
			<g>
				<polyline class="st2" points="145.9,74.7 141.9,80.9 142,80.9 146.2,74.6 142.4,68.6 139.3,68.6 139.4,68.7 141.7,68.7 
					145.9,74.7 				"/>
			</g>
			<g>
				<polyline class="st2" points="140.9,80.9 141.9,80.9 145.9,74.7 141.7,68.7 139.4,68.7 144.1,76.1 140.9,80.9 				"/>
			</g>
			<g>
				<polyline class="st1" points="149.2,79.6 149.1,80.1 147.4,80.1 147.9,77.6 146.7,75.9 151.1,69 150,69 144.6,77.4 148.7,83.4 
					151.7,83.4 149.2,79.6 				"/>
			</g>
			<g>
				<polyline class="st3" points="149.1,80.1 147.4,80.1 147.9,77.3 147,75.8 151.8,68.8 150.7,68.8 144.9,77.3 148.7,83.4 
					151.8,83.4 149.3,79.4 149.1,80.1 				"/>
			</g>
		</g>
	</g>
	<g>
		<g>
			<path class="st23" d="M17.6,474.5c-1.1,0-2-0.9-2-2V104.1c0-1.1,0.9-2,2-2h200.6c1.1,0,2,0.9,2,2v368.4c0,1.1-0.9,2-2,2H17.6z"/>
			<path class="st24" d="M218.3,102.2c1.1,0,1.9,0.9,1.9,1.9v368.4c0,1.1-0.9,1.9-1.9,1.9H17.6c-1.1,0-1.9-0.9-1.9-1.9V104.1
				c0-1.1,0.9-1.9,1.9-1.9H218.3 M218.3,102H17.6c-1.2,0-2.1,1-2.1,2.1v368.4c0,1.2,1,2.1,2.1,2.1h200.6c1.2,0,2.1-1,2.1-2.1V104.1
				C220.4,102.9,219.5,102,218.3,102L218.3,102z"/>
		</g>
		<path class="st25" d="M219.8,138.3H16.1v-34.5c0-1,0.8-1.7,1.7-1.7h200.2c1,0,1.7,0.8,1.7,1.7V138.3z"/>
		<rect x="15.5" y="137.8" class="st26" width="204.9" height="0.5"/>
		<g>
			<polygon class="st1" points="21.7,469.4 21.8,160.3 214.2,160.3 214.1,469.4 			"/>
			<path class="st27" d="M214.1,160.4v309H21.8v-309H214.1 M214.2,160.3H21.7v309.2h192.5V160.3L214.2,160.3z"/>
		</g>
		<g>
			<g>
				<path class="st28" d="M21.7,163.2l0-15.8c0-1.4,1.1-2.5,2.5-2.5h34.5c1.4,0,2.5,1.1,2.5,2.5v15.8H21.7z"/>
				<path class="st27" d="M58.8,144.9c1.4,0,2.5,1.1,2.5,2.5v15.7H21.8v-15.7c0-1.4,1.1-2.5,2.5-2.5H58.8 M58.8,144.8H24.3
					c-1.4,0-2.6,1.2-2.6,2.6v15.8h39.7v-15.8C61.4,146,60.2,144.8,58.8,144.8L58.8,144.8z"/>
			</g>
			<g>
				<path class="st1" d="M24.4,156.6v-6.9h3c0.6,0,1.1,0.1,1.4,0.2c0.3,0.1,0.6,0.3,0.8,0.7c0.2,0.3,0.3,0.7,0.3,1
					c0,0.5-0.2,0.9-0.5,1.2c-0.3,0.3-0.8,0.5-1.5,0.6c0.2,0.1,0.4,0.2,0.5,0.3c0.3,0.2,0.5,0.5,0.8,0.9l1.2,1.9h-1.1l-0.9-1.4
					c-0.3-0.4-0.5-0.7-0.7-0.9c-0.2-0.2-0.3-0.4-0.5-0.5c-0.1-0.1-0.3-0.1-0.4-0.2c-0.1,0-0.3,0-0.5,0h-1.1v3.1H24.4z M25.3,152.8h2
					c0.4,0,0.7,0,1-0.1c0.2-0.1,0.4-0.2,0.5-0.4c0.1-0.2,0.2-0.4,0.2-0.6c0-0.3-0.1-0.6-0.4-0.8c-0.2-0.2-0.6-0.3-1.1-0.3h-2.2
					V152.8z"/>
				<path class="st1" d="M34.7,155l0.9,0.1c-0.1,0.5-0.4,0.9-0.8,1.2c-0.4,0.3-0.8,0.4-1.4,0.4c-0.7,0-1.3-0.2-1.7-0.7
					c-0.4-0.4-0.6-1.1-0.6-1.9c0-0.8,0.2-1.5,0.6-2c0.4-0.5,1-0.7,1.7-0.7c0.7,0,1.2,0.2,1.6,0.7c0.4,0.5,0.6,1.1,0.6,1.9
					c0,0,0,0.1,0,0.2h-3.7c0,0.5,0.2,1,0.5,1.3c0.3,0.3,0.6,0.4,1,0.4c0.3,0,0.6-0.1,0.8-0.2C34.4,155.6,34.5,155.3,34.7,155z
					 M31.9,153.6h2.8c0-0.4-0.1-0.7-0.3-0.9c-0.3-0.3-0.6-0.5-1-0.5c-0.4,0-0.7,0.1-1,0.4C32.1,152.8,31.9,153.2,31.9,153.6z"/>
				<path class="st1" d="M39.8,158.5v-2.4c-0.1,0.2-0.3,0.3-0.6,0.5c-0.2,0.1-0.5,0.2-0.8,0.2c-0.6,0-1.1-0.2-1.5-0.7
					c-0.4-0.5-0.6-1.1-0.6-1.9c0-0.5,0.1-0.9,0.3-1.3c0.2-0.4,0.4-0.7,0.8-0.9c0.3-0.2,0.7-0.3,1.1-0.3c0.6,0,1.1,0.3,1.5,0.8v-0.7
					h0.8v6.9H39.8z M37.2,154.1c0,0.6,0.1,1.1,0.4,1.4c0.3,0.3,0.6,0.5,1,0.5c0.4,0,0.7-0.2,0.9-0.5c0.3-0.3,0.4-0.8,0.4-1.4
					c0-0.7-0.1-1.2-0.4-1.5c-0.3-0.3-0.6-0.5-1-0.5c-0.4,0-0.7,0.2-0.9,0.5C37.3,152.9,37.2,153.4,37.2,154.1z"/>
				<path class="st1" d="M45.2,156.6v-0.7c-0.4,0.6-0.9,0.8-1.6,0.8c-0.3,0-0.6-0.1-0.8-0.2c-0.3-0.1-0.4-0.3-0.6-0.4
					c-0.1-0.2-0.2-0.4-0.3-0.6c0-0.2-0.1-0.4-0.1-0.8v-3.1h0.8v2.8c0,0.4,0,0.7,0.1,0.9c0.1,0.2,0.2,0.4,0.3,0.5
					c0.2,0.1,0.4,0.2,0.6,0.2c0.3,0,0.5-0.1,0.7-0.2c0.2-0.1,0.4-0.3,0.5-0.5c0.1-0.2,0.1-0.5,0.1-1v-2.7h0.8v5H45.2z"/>
				<path class="st1" d="M50.7,155l0.9,0.1c-0.1,0.5-0.4,0.9-0.8,1.2c-0.4,0.3-0.8,0.4-1.4,0.4c-0.7,0-1.3-0.2-1.7-0.7
					c-0.4-0.4-0.6-1.1-0.6-1.9c0-0.8,0.2-1.5,0.6-2c0.4-0.5,1-0.7,1.7-0.7c0.7,0,1.2,0.2,1.6,0.7c0.4,0.5,0.6,1.1,0.6,1.9
					c0,0,0,0.1,0,0.2h-3.7c0,0.5,0.2,1,0.5,1.3c0.3,0.3,0.6,0.4,1,0.4c0.3,0,0.6-0.1,0.8-0.2C50.4,155.6,50.5,155.3,50.7,155z
					 M47.9,153.6h2.8c0-0.4-0.1-0.7-0.3-0.9c-0.3-0.3-0.6-0.5-1-0.5c-0.4,0-0.7,0.1-1,0.4C48.1,152.8,47.9,153.2,47.9,153.6z"/>
				<path class="st1" d="M52.3,155.1l0.8-0.1c0,0.3,0.2,0.6,0.4,0.8c0.2,0.2,0.5,0.3,0.9,0.3c0.4,0,0.7-0.1,0.9-0.2
					c0.2-0.2,0.3-0.3,0.3-0.6c0-0.2-0.1-0.3-0.2-0.4c-0.1-0.1-0.4-0.2-0.9-0.3c-0.6-0.2-1-0.3-1.3-0.4c-0.2-0.1-0.4-0.3-0.5-0.5
					c-0.1-0.2-0.2-0.4-0.2-0.7c0-0.2,0.1-0.4,0.2-0.6c0.1-0.2,0.2-0.3,0.4-0.5c0.1-0.1,0.3-0.2,0.5-0.2c0.2-0.1,0.5-0.1,0.7-0.1
					c0.4,0,0.7,0.1,1,0.2c0.3,0.1,0.5,0.3,0.7,0.5c0.1,0.2,0.2,0.4,0.3,0.8l-0.8,0.1c0-0.3-0.1-0.5-0.3-0.6
					c-0.2-0.1-0.4-0.2-0.8-0.2c-0.4,0-0.7,0.1-0.8,0.2c-0.2,0.1-0.2,0.3-0.2,0.5c0,0.1,0,0.2,0.1,0.3c0.1,0.1,0.2,0.2,0.3,0.2
					c0.1,0,0.3,0.1,0.7,0.2c0.6,0.2,1,0.3,1.2,0.4c0.2,0.1,0.4,0.2,0.6,0.4c0.1,0.2,0.2,0.4,0.2,0.7c0,0.3-0.1,0.5-0.2,0.8
					c-0.2,0.2-0.4,0.4-0.7,0.6c-0.3,0.1-0.7,0.2-1.1,0.2c-0.6,0-1.1-0.1-1.5-0.4C52.6,156,52.4,155.6,52.3,155.1z"/>
				<path class="st1" d="M59.2,155.8l0.1,0.7c-0.2,0-0.4,0.1-0.6,0.1c-0.3,0-0.5,0-0.7-0.1c-0.2-0.1-0.3-0.2-0.4-0.4
					c-0.1-0.2-0.1-0.5-0.1-1v-2.9h-0.6v-0.7h0.6v-1.2l0.8-0.5v1.7h0.8v0.7h-0.8v2.9c0,0.2,0,0.4,0,0.5s0.1,0.1,0.1,0.2
					c0.1,0,0.2,0.1,0.3,0.1C59,155.9,59.1,155.9,59.2,155.8z"/>
			</g>
		</g>
		<g>
			<g>
				<path class="st1" d="M63,163.2l0-15.8c0-1.4,1.1-2.5,2.5-2.5h34.5c1.4,0,2.5,1.1,2.5,2.5v15.8H63z"/>
				<path class="st27" d="M100.1,144.9c1.4,0,2.5,1.1,2.5,2.5v15.7H63.1v-15.7c0-1.4,1.1-2.5,2.5-2.5H100.1 M100.1,144.8H65.6
					c-1.4,0-2.6,1.2-2.6,2.6v15.8h39.7v-15.8C102.7,146,101.5,144.8,100.1,144.8L100.1,144.8z"/>
			</g>
			<g>
				<path class="st29" d="M68.8,156.6v-6.9h0.9v2.8h3.6v-2.8h0.9v6.9h-0.9v-3.2h-3.6v3.2H68.8z"/>
				<path class="st29" d="M75.6,150.7v-1h0.8v1H75.6z M75.6,156.6v-5h0.8v5H75.6z"/>
				<path class="st29" d="M77.4,155.1l0.8-0.1c0,0.3,0.2,0.6,0.4,0.8c0.2,0.2,0.5,0.3,0.9,0.3c0.4,0,0.7-0.1,0.9-0.2
					c0.2-0.2,0.3-0.3,0.3-0.6c0-0.2-0.1-0.3-0.2-0.4c-0.1-0.1-0.4-0.2-0.9-0.3c-0.6-0.2-1-0.3-1.3-0.4c-0.2-0.1-0.4-0.3-0.5-0.5
					c-0.1-0.2-0.2-0.4-0.2-0.7c0-0.2,0.1-0.4,0.2-0.6s0.2-0.3,0.4-0.5c0.1-0.1,0.3-0.2,0.5-0.2c0.2-0.1,0.5-0.1,0.7-0.1
					c0.4,0,0.7,0.1,1,0.2c0.3,0.1,0.5,0.3,0.7,0.5c0.1,0.2,0.2,0.4,0.3,0.8l-0.8,0.1c0-0.3-0.1-0.5-0.3-0.6
					c-0.2-0.1-0.4-0.2-0.8-0.2c-0.4,0-0.7,0.1-0.8,0.2c-0.2,0.1-0.2,0.3-0.2,0.5c0,0.1,0,0.2,0.1,0.3c0.1,0.1,0.2,0.2,0.3,0.2
					c0.1,0,0.3,0.1,0.7,0.2c0.6,0.2,1,0.3,1.2,0.4c0.2,0.1,0.4,0.2,0.6,0.4c0.1,0.2,0.2,0.4,0.2,0.7c0,0.3-0.1,0.5-0.2,0.8
					c-0.2,0.2-0.4,0.4-0.7,0.6c-0.3,0.1-0.7,0.2-1.1,0.2c-0.6,0-1.1-0.1-1.5-0.4C77.7,156,77.5,155.6,77.4,155.1z"/>
				<path class="st29" d="M84.4,155.8l0.1,0.7c-0.2,0-0.4,0.1-0.6,0.1c-0.3,0-0.5,0-0.7-0.1c-0.2-0.1-0.3-0.2-0.4-0.4
					c-0.1-0.2-0.1-0.5-0.1-1v-2.9h-0.6v-0.7h0.6v-1.2l0.8-0.5v1.7h0.8v0.7h-0.8v2.9c0,0.2,0,0.4,0,0.5c0,0.1,0.1,0.1,0.1,0.2
					c0.1,0,0.2,0.1,0.3,0.1C84.1,155.9,84.2,155.9,84.4,155.8z"/>
				<path class="st29" d="M84.9,154.1c0-0.9,0.3-1.6,0.8-2c0.4-0.4,0.9-0.6,1.6-0.6c0.7,0,1.2,0.2,1.7,0.7c0.4,0.4,0.7,1.1,0.7,1.9
					c0,0.6-0.1,1.1-0.3,1.5c-0.2,0.4-0.5,0.7-0.8,0.9c-0.4,0.2-0.8,0.3-1.2,0.3c-0.7,0-1.3-0.2-1.7-0.7
					C85.1,155.6,84.9,154.9,84.9,154.1z M85.8,154.1c0,0.6,0.1,1.1,0.4,1.4c0.3,0.3,0.6,0.5,1.1,0.5c0.4,0,0.8-0.2,1-0.5
					c0.3-0.3,0.4-0.8,0.4-1.5c0-0.6-0.1-1.1-0.4-1.4c-0.3-0.3-0.6-0.5-1-0.5c-0.4,0-0.8,0.2-1.1,0.5C85.9,153,85.8,153.5,85.8,154.1
					z"/>
				<path class="st29" d="M90.5,156.6v-5h0.8v0.8c0.2-0.4,0.4-0.6,0.5-0.7c0.2-0.1,0.3-0.2,0.5-0.2c0.3,0,0.6,0.1,0.9,0.3l-0.3,0.8
					c-0.2-0.1-0.4-0.2-0.6-0.2c-0.2,0-0.4,0.1-0.5,0.2c-0.1,0.1-0.3,0.3-0.3,0.5c-0.1,0.3-0.1,0.6-0.1,1v2.6H90.5z"/>
				<path class="st29" d="M93.7,158.5l-0.1-0.8c0.2,0,0.3,0.1,0.5,0.1c0.2,0,0.3,0,0.5-0.1c0.1-0.1,0.2-0.2,0.3-0.3
					c0.1-0.1,0.1-0.3,0.3-0.6c0,0,0-0.1,0.1-0.2l-1.9-5h0.9l1,2.9c0.1,0.4,0.3,0.8,0.4,1.2c0.1-0.4,0.2-0.8,0.3-1.1l1.1-2.9h0.8
					l-1.9,5.1c-0.2,0.5-0.4,0.9-0.5,1.1c-0.2,0.3-0.3,0.5-0.5,0.6c-0.2,0.1-0.4,0.2-0.7,0.2C94.1,158.6,93.9,158.6,93.7,158.5z"/>
			</g>
		</g>
		<rect x="21.9" y="160.3" class="st28" width="192.2" height="3"/>
		<g>
			<path class="st28" d="M207.3,221H28.6c-1.5,0-2.7-1.2-2.7-2.7v-37.9c0-1.5,1.2-2.7,2.7-2.7h178.7c1.5,0,2.7,1.2,2.7,2.7v37.9
				C210,219.8,208.8,221,207.3,221z"/>
			<g>
				<g>
					<path class="st30" d="M32.2,189.1c0-1.1,0.1-1.9,0.3-2.6c0.2-0.7,0.5-1.2,1-1.5c0.4-0.4,1-0.5,1.6-0.5c0.5,0,0.9,0.1,1.3,0.3
						c0.4,0.2,0.7,0.5,0.9,0.8c0.2,0.4,0.4,0.8,0.6,1.3c0.1,0.5,0.2,1.2,0.2,2.1c0,1.1-0.1,1.9-0.3,2.6c-0.2,0.7-0.5,1.2-1,1.5
						c-0.4,0.4-1,0.5-1.6,0.5c-0.9,0-1.6-0.3-2.1-0.9C32.5,192,32.2,190.8,32.2,189.1z M33.3,189.1c0,1.5,0.2,2.5,0.5,3
						c0.3,0.5,0.8,0.7,1.3,0.7c0.5,0,0.9-0.2,1.3-0.7c0.3-0.5,0.5-1.5,0.5-3c0-1.5-0.2-2.5-0.5-3s-0.8-0.7-1.3-0.7
						c-0.5,0-0.9,0.2-1.2,0.6C33.5,186.6,33.3,187.6,33.3,189.1z"/>
					<path class="st30" d="M39.9,193.6v-1.3h1.3v1.3H39.9z"/>
					<path class="st30" d="M42.8,189.1c0-1.1,0.1-1.9,0.3-2.6c0.2-0.7,0.5-1.2,1-1.5c0.4-0.4,1-0.5,1.6-0.5c0.5,0,0.9,0.1,1.3,0.3
						c0.4,0.2,0.7,0.5,0.9,0.8c0.2,0.4,0.4,0.8,0.6,1.3c0.1,0.5,0.2,1.2,0.2,2.1c0,1.1-0.1,1.9-0.3,2.6c-0.2,0.7-0.5,1.2-1,1.5
						c-0.4,0.4-1,0.5-1.6,0.5c-0.9,0-1.6-0.3-2.1-0.9C43.1,192,42.8,190.8,42.8,189.1z M43.9,189.1c0,1.5,0.2,2.5,0.5,3
						s0.8,0.7,1.3,0.7c0.5,0,0.9-0.2,1.3-0.7c0.3-0.5,0.5-1.5,0.5-3c0-1.5-0.2-2.5-0.5-3c-0.3-0.5-0.8-0.7-1.3-0.7
						c-0.5,0-0.9,0.2-1.2,0.6C44.1,186.6,43.9,187.6,43.9,189.1z"/>
					<path class="st30" d="M49.8,189.1c0-1.1,0.1-1.9,0.3-2.6c0.2-0.7,0.5-1.2,1-1.5c0.4-0.4,1-0.5,1.6-0.5c0.5,0,0.9,0.1,1.3,0.3
						c0.4,0.2,0.7,0.5,0.9,0.8c0.2,0.4,0.4,0.8,0.6,1.3c0.1,0.5,0.2,1.2,0.2,2.1c0,1.1-0.1,1.9-0.3,2.6c-0.2,0.7-0.5,1.2-1,1.5
						c-0.4,0.4-1,0.5-1.6,0.5c-0.9,0-1.6-0.3-2.1-0.9C50.1,192,49.8,190.8,49.8,189.1z M51,189.1c0,1.5,0.2,2.5,0.5,3
						c0.3,0.5,0.8,0.7,1.3,0.7s0.9-0.2,1.3-0.7c0.3-0.5,0.5-1.5,0.5-3c0-1.5-0.2-2.5-0.5-3c-0.3-0.5-0.8-0.7-1.3-0.7
						c-0.5,0-0.9,0.2-1.2,0.6C51.1,186.6,51,187.6,51,189.1z"/>
				</g>
				<g>
					<path class="st1" d="M32.3,207.3v-6.1h0.8v5.4h3v0.7H32.3z"/>
					<path class="st1" d="M40,205.9l0.8,0.1c-0.1,0.5-0.3,0.8-0.7,1.1c-0.3,0.2-0.8,0.4-1.3,0.4c-0.6,0-1.2-0.2-1.5-0.6
						c-0.4-0.4-0.6-1-0.6-1.7c0-0.7,0.2-1.3,0.6-1.7c0.4-0.4,0.9-0.6,1.5-0.6c0.6,0,1.1,0.2,1.4,0.6c0.4,0.4,0.6,1,0.6,1.7
						c0,0,0,0.1,0,0.2h-3.3c0,0.5,0.2,0.9,0.4,1.1c0.2,0.3,0.6,0.4,0.9,0.4c0.3,0,0.5-0.1,0.7-0.2C39.7,206.5,39.9,206.2,40,205.9z
						 M37.5,204.7H40c0-0.4-0.1-0.7-0.3-0.8c-0.2-0.3-0.5-0.4-0.9-0.4c-0.3,0-0.6,0.1-0.9,0.3C37.7,204,37.6,204.3,37.5,204.7z"/>
					<path class="st1" d="M44.6,207.3v-0.6c-0.3,0.4-0.7,0.7-1.2,0.7c-0.4,0-0.7-0.1-1-0.3c-0.3-0.2-0.5-0.5-0.7-0.8
						c-0.2-0.3-0.2-0.7-0.2-1.2c0-0.4,0.1-0.8,0.2-1.2c0.1-0.4,0.4-0.6,0.7-0.8c0.3-0.2,0.6-0.3,1-0.3c0.3,0,0.5,0.1,0.7,0.2
						c0.2,0.1,0.4,0.3,0.5,0.4v-2.2h0.7v6.1H44.6z M42.2,205.1c0,0.6,0.1,1,0.4,1.3c0.2,0.3,0.5,0.4,0.8,0.4c0.3,0,0.6-0.1,0.8-0.4
						c0.2-0.3,0.3-0.7,0.3-1.2c0-0.6-0.1-1-0.4-1.3c-0.2-0.3-0.5-0.4-0.9-0.4c-0.3,0-0.6,0.1-0.8,0.4
						C42.3,204.1,42.2,204.5,42.2,205.1z"/>
					<path class="st1" d="M46.3,207.7l0.7,0.1c0,0.2,0.1,0.4,0.3,0.5c0.2,0.1,0.4,0.2,0.8,0.2c0.3,0,0.6-0.1,0.8-0.2
						c0.2-0.1,0.3-0.3,0.4-0.6c0-0.2,0.1-0.5,0.1-1c-0.3,0.4-0.7,0.6-1.2,0.6c-0.6,0-1.1-0.2-1.4-0.7c-0.3-0.4-0.5-1-0.5-1.6
						c0-0.4,0.1-0.8,0.2-1.2c0.2-0.4,0.4-0.6,0.7-0.8c0.3-0.2,0.6-0.3,1-0.3c0.5,0,1,0.2,1.3,0.6v-0.5h0.7v3.8
						c0,0.7-0.1,1.2-0.2,1.5c-0.1,0.3-0.4,0.5-0.7,0.7c-0.3,0.2-0.7,0.2-1.1,0.2c-0.5,0-1-0.1-1.3-0.4
						C46.5,208.5,46.3,208.2,46.3,207.7z M46.9,205c0,0.6,0.1,1,0.3,1.3c0.2,0.3,0.5,0.4,0.9,0.4c0.3,0,0.6-0.1,0.9-0.4
						c0.2-0.3,0.3-0.7,0.3-1.2c0-0.5-0.1-0.9-0.4-1.2c-0.2-0.3-0.5-0.4-0.9-0.4c-0.3,0-0.6,0.1-0.8,0.4
						C47,204.1,46.9,204.5,46.9,205z"/>
					<path class="st1" d="M54.2,205.9L55,206c-0.1,0.5-0.3,0.8-0.7,1.1c-0.3,0.2-0.8,0.4-1.3,0.4c-0.6,0-1.2-0.2-1.5-0.6
						c-0.4-0.4-0.6-1-0.6-1.7c0-0.7,0.2-1.3,0.6-1.7c0.4-0.4,0.9-0.6,1.5-0.6c0.6,0,1.1,0.2,1.4,0.6c0.4,0.4,0.6,1,0.6,1.7
						c0,0,0,0.1,0,0.2h-3.3c0,0.5,0.2,0.9,0.4,1.1c0.2,0.3,0.6,0.4,0.9,0.4c0.3,0,0.5-0.1,0.7-0.2C53.9,206.5,54.1,206.2,54.2,205.9
						z M51.8,204.7h2.5c0-0.4-0.1-0.7-0.3-0.8c-0.2-0.3-0.5-0.4-0.9-0.4c-0.3,0-0.6,0.1-0.9,0.3C51.9,204,51.8,204.3,51.8,204.7z"/>
					<path class="st1" d="M55.9,207.3v-4.4h0.7v0.7c0.2-0.3,0.3-0.5,0.5-0.6c0.1-0.1,0.3-0.1,0.5-0.1c0.3,0,0.5,0.1,0.8,0.2
						l-0.3,0.7c-0.2-0.1-0.4-0.2-0.5-0.2c-0.2,0-0.3,0-0.4,0.1c-0.1,0.1-0.2,0.2-0.3,0.4c-0.1,0.3-0.1,0.6-0.1,0.9v2.3H55.9z"/>
					<path class="st1" d="M61.2,207.3v-6.1h2.3c0.5,0,0.8,0.1,1.1,0.2c0.3,0.1,0.5,0.3,0.7,0.6c0.2,0.3,0.2,0.5,0.2,0.8
						c0,0.3-0.1,0.5-0.2,0.7c-0.1,0.2-0.4,0.4-0.6,0.6c0.4,0.1,0.7,0.3,0.9,0.6c0.2,0.3,0.3,0.6,0.3,0.9c0,0.3-0.1,0.6-0.2,0.8
						c-0.1,0.2-0.3,0.4-0.4,0.6c-0.2,0.1-0.4,0.2-0.7,0.3c-0.3,0.1-0.6,0.1-1,0.1H61.2z M62,203.8h1.3c0.4,0,0.6,0,0.8-0.1
						c0.2-0.1,0.4-0.2,0.5-0.3c0.1-0.1,0.2-0.3,0.2-0.5c0-0.2,0-0.4-0.1-0.5c-0.1-0.2-0.2-0.3-0.4-0.3c-0.2-0.1-0.5-0.1-0.9-0.1H62
						V203.8z M62,206.6h1.5c0.3,0,0.4,0,0.5,0c0.2,0,0.3-0.1,0.5-0.2c0.1-0.1,0.2-0.2,0.3-0.3c0.1-0.1,0.1-0.3,0.1-0.5
						c0-0.2-0.1-0.4-0.2-0.6c-0.1-0.2-0.3-0.3-0.5-0.4c-0.2-0.1-0.5-0.1-0.9-0.1H62V206.6z"/>
					<path class="st1" d="M69.7,206.8c-0.3,0.2-0.5,0.4-0.8,0.5c-0.3,0.1-0.5,0.1-0.8,0.1c-0.5,0-0.9-0.1-1.1-0.4
						c-0.3-0.2-0.4-0.5-0.4-0.9c0-0.2,0-0.4,0.1-0.6c0.1-0.2,0.2-0.3,0.4-0.4c0.2-0.1,0.3-0.2,0.5-0.2c0.1,0,0.4-0.1,0.7-0.1
						c0.6-0.1,1-0.2,1.3-0.3c0-0.1,0-0.2,0-0.2c0-0.3-0.1-0.5-0.2-0.6c-0.2-0.2-0.5-0.3-0.9-0.3c-0.4,0-0.6,0.1-0.8,0.2
						c-0.2,0.1-0.3,0.3-0.4,0.7l-0.7-0.1c0.1-0.3,0.2-0.6,0.3-0.8c0.2-0.2,0.4-0.3,0.7-0.4c0.3-0.1,0.6-0.2,1-0.2
						c0.4,0,0.7,0,0.9,0.1s0.4,0.2,0.5,0.3c0.1,0.1,0.2,0.3,0.2,0.5c0,0.1,0,0.4,0,0.7v1c0,0.7,0,1.1,0,1.3c0,0.2,0.1,0.4,0.2,0.5
						h-0.8C69.8,207.2,69.7,207,69.7,206.8z M69.6,205.1c-0.3,0.1-0.7,0.2-1.2,0.3c-0.3,0-0.5,0.1-0.7,0.1c-0.1,0.1-0.2,0.1-0.3,0.2
						c-0.1,0.1-0.1,0.2-0.1,0.4c0,0.2,0.1,0.4,0.2,0.5c0.2,0.1,0.4,0.2,0.7,0.2c0.3,0,0.5-0.1,0.8-0.2c0.2-0.1,0.4-0.3,0.5-0.5
						c0.1-0.2,0.1-0.4,0.1-0.7V205.1z"/>
					<path class="st1" d="M71.5,207.3v-6.1h0.7v6.1H71.5z"/>
					<path class="st1" d="M76.3,206.8c-0.3,0.2-0.5,0.4-0.8,0.5c-0.3,0.1-0.5,0.1-0.8,0.1c-0.5,0-0.9-0.1-1.1-0.4
						c-0.3-0.2-0.4-0.5-0.4-0.9c0-0.2,0-0.4,0.1-0.6c0.1-0.2,0.2-0.3,0.4-0.4c0.2-0.1,0.3-0.2,0.5-0.2c0.1,0,0.4-0.1,0.7-0.1
						c0.6-0.1,1-0.2,1.3-0.3c0-0.1,0-0.2,0-0.2c0-0.3-0.1-0.5-0.2-0.6c-0.2-0.2-0.5-0.3-0.9-0.3c-0.4,0-0.6,0.1-0.8,0.2
						c-0.2,0.1-0.3,0.3-0.4,0.7l-0.7-0.1c0.1-0.3,0.2-0.6,0.3-0.8c0.2-0.2,0.4-0.3,0.7-0.4c0.3-0.1,0.6-0.2,1-0.2
						c0.4,0,0.7,0,0.9,0.1s0.4,0.2,0.5,0.3c0.1,0.1,0.2,0.3,0.2,0.5c0,0.1,0,0.4,0,0.7v1c0,0.7,0,1.1,0,1.3c0,0.2,0.1,0.4,0.2,0.5
						h-0.8C76.4,207.2,76.3,207,76.3,206.8z M76.3,205.1c-0.3,0.1-0.7,0.2-1.2,0.3c-0.3,0-0.5,0.1-0.7,0.1c-0.1,0.1-0.2,0.1-0.3,0.2
						c-0.1,0.1-0.1,0.2-0.1,0.4c0,0.2,0.1,0.4,0.2,0.5c0.2,0.1,0.4,0.2,0.7,0.2c0.3,0,0.5-0.1,0.8-0.2c0.2-0.1,0.4-0.3,0.5-0.5
						c0.1-0.2,0.1-0.4,0.1-0.7V205.1z"/>
					<path class="st1" d="M78.2,207.3v-4.4h0.7v0.6c0.3-0.5,0.8-0.7,1.4-0.7c0.3,0,0.5,0,0.7,0.1c0.2,0.1,0.4,0.2,0.5,0.4
						c0.1,0.2,0.2,0.3,0.2,0.6c0,0.1,0,0.4,0,0.7v2.7H81v-2.7c0-0.3,0-0.5-0.1-0.7c-0.1-0.2-0.2-0.3-0.3-0.4
						c-0.1-0.1-0.3-0.1-0.5-0.1c-0.3,0-0.6,0.1-0.8,0.3c-0.2,0.2-0.3,0.6-0.3,1.2v2.4H78.2z"/>
					<path class="st1" d="M85.8,205.7l0.7,0.1c-0.1,0.5-0.3,0.9-0.6,1.2c-0.3,0.3-0.7,0.4-1.2,0.4c-0.6,0-1.1-0.2-1.5-0.6
						c-0.4-0.4-0.6-1-0.6-1.7c0-0.5,0.1-0.9,0.2-1.3c0.2-0.4,0.4-0.6,0.7-0.8c0.3-0.2,0.7-0.3,1.1-0.3c0.5,0,0.9,0.1,1.2,0.4
						c0.3,0.2,0.5,0.6,0.6,1l-0.7,0.1c-0.1-0.3-0.2-0.5-0.4-0.7c-0.2-0.1-0.4-0.2-0.6-0.2c-0.4,0-0.7,0.1-0.9,0.4s-0.4,0.7-0.4,1.3
						c0,0.6,0.1,1,0.3,1.3c0.2,0.3,0.5,0.4,0.9,0.4c0.3,0,0.5-0.1,0.7-0.3C85.6,206.4,85.7,206.1,85.8,205.7z"/>
					<path class="st1" d="M90.2,205.9L91,206c-0.1,0.5-0.3,0.8-0.7,1.1c-0.3,0.2-0.8,0.4-1.3,0.4c-0.6,0-1.2-0.2-1.5-0.6
						c-0.4-0.4-0.6-1-0.6-1.7c0-0.7,0.2-1.3,0.6-1.7c0.4-0.4,0.9-0.6,1.5-0.6c0.6,0,1.1,0.2,1.4,0.6c0.4,0.4,0.6,1,0.6,1.7
						c0,0,0,0.1,0,0.2h-3.3c0,0.5,0.2,0.9,0.4,1.1c0.2,0.3,0.6,0.4,0.9,0.4c0.3,0,0.5-0.1,0.7-0.2C89.9,206.5,90.1,206.2,90.2,205.9
						z M87.7,204.7h2.5c0-0.4-0.1-0.7-0.3-0.8c-0.2-0.3-0.5-0.4-0.9-0.4c-0.3,0-0.6,0.1-0.9,0.3C87.9,204,87.8,204.3,87.7,204.7z"/>
				</g>
				<g>
					<path class="st31" d="M196.2,200.2h-14c-1.3,0-2.3-1-2.3-2.3v-14c0-1.3,1-2.3,2.3-2.3h14c1.3,0,2.3,1,2.3,2.3v14
						C198.5,199.2,197.5,200.2,196.2,200.2z"/>
					<g>
						<path class="st32" d="M189.3,195.4c-0.2,0-0.4,0-0.6-0.1c-0.2-0.1-0.4-0.2-0.6-0.3c-0.2-0.1-0.3-0.3-0.4-0.4
							c-0.1-0.2-0.2-0.4-0.2-0.6v-3.5h-0.7l-0.6-0.8h1.4v-1.5c0-0.2-0.1-0.4-0.3-0.4c-0.2-0.1-0.5,0-0.7,0.1
							c-0.2-0.2-0.3-0.4-0.3-0.6c0-0.2,0-0.3,0.1-0.5c0.1-0.1,0.2-0.2,0.4-0.3c0.2-0.1,0.3-0.1,0.5-0.1c0.2,0,0.4,0,0.5,0.1
							c0.1,0.1,0.3,0.2,0.4,0.3c0.1,0.1,0.2,0.3,0.2,0.4c0.1,0.2,0.1,0.3,0.1,0.5s0,0.4,0,0.5c0,0.2,0,0.4,0,0.5c0,0.1,0,0.3,0,0.4
							c0,0.1,0,0.3,0,0.4h0.5l0.7,0.8h-1.2v3.2c0,0.2,0,0.4,0.1,0.5c0.1,0.1,0.1,0.2,0.3,0.3c0.1,0,0.2,0,0.4,0
							c0.1,0,0.3-0.1,0.5-0.2c0.2-0.1,0.3-0.2,0.5-0.3c0.2-0.1,0.3-0.3,0.4-0.4c0.1-0.1,0.2-0.3,0.3-0.4c0.1-0.1,0.1-0.3,0.1-0.4
							c0-0.1,0-0.1-0.1-0.3c-0.2,0.1-0.4,0.1-0.5,0.1c-0.2,0-0.3-0.1-0.4-0.1c-0.1-0.1-0.2-0.2-0.3-0.3c-0.1-0.1-0.1-0.3-0.1-0.4
							c0-0.2,0-0.3,0-0.5c0-0.2,0.1-0.3,0.2-0.4c0.1-0.1,0.2-0.2,0.4-0.3s0.4-0.1,0.6-0.1c0.3,0,0.6,0.1,0.8,0.2
							c0.2,0.2,0.3,0.4,0.4,0.6c0.1,0.2,0.1,0.5,0.1,0.8c0,0.3-0.1,0.6-0.1,0.9c-0.1,0.3-0.2,0.6-0.4,0.9c-0.2,0.3-0.4,0.6-0.6,0.8
							c-0.2,0.2-0.5,0.4-0.8,0.6C190,195.4,189.6,195.4,189.3,195.4z"/>
					</g>
				</g>
			</g>
		</g>
		<g>
			<path class="st28" d="M207.3,270.1H28.6c-1.5,0-2.7-1.2-2.7-2.7v-37.9c0-1.5,1.2-2.7,2.7-2.7h178.7c1.5,0,2.7,1.2,2.7,2.7v37.9
				C210,268.9,208.8,270.1,207.3,270.1z"/>
			<g>
				<g>
					<path class="st30" d="M32.2,238.2c0-1.1,0.1-1.9,0.3-2.6c0.2-0.7,0.5-1.2,1-1.5c0.4-0.4,1-0.5,1.6-0.5c0.5,0,0.9,0.1,1.3,0.3
						c0.4,0.2,0.7,0.5,0.9,0.8c0.2,0.4,0.4,0.8,0.6,1.3c0.1,0.5,0.2,1.2,0.2,2.1c0,1.1-0.1,1.9-0.3,2.6c-0.2,0.7-0.5,1.2-1,1.5
						c-0.4,0.4-1,0.5-1.6,0.5c-0.9,0-1.6-0.3-2.1-0.9C32.5,241.1,32.2,239.9,32.2,238.2z M33.3,238.2c0,1.5,0.2,2.5,0.5,3
						c0.3,0.5,0.8,0.7,1.3,0.7c0.5,0,0.9-0.2,1.3-0.7c0.3-0.5,0.5-1.5,0.5-3c0-1.5-0.2-2.5-0.5-3c-0.3-0.5-0.8-0.7-1.3-0.7
						c-0.5,0-0.9,0.2-1.2,0.6C33.5,235.7,33.3,236.7,33.3,238.2z"/>
					<path class="st30" d="M39.9,242.7v-1.3h1.3v1.3H39.9z"/>
					<path class="st30" d="M42.8,238.2c0-1.1,0.1-1.9,0.3-2.6c0.2-0.7,0.5-1.2,1-1.5c0.4-0.4,1-0.5,1.6-0.5c0.5,0,0.9,0.1,1.3,0.3
						c0.4,0.2,0.7,0.5,0.9,0.8c0.2,0.4,0.4,0.8,0.6,1.3c0.1,0.5,0.2,1.2,0.2,2.1c0,1.1-0.1,1.9-0.3,2.6c-0.2,0.7-0.5,1.2-1,1.5
						c-0.4,0.4-1,0.5-1.6,0.5c-0.9,0-1.6-0.3-2.1-0.9C43.1,241.1,42.8,239.9,42.8,238.2z M43.9,238.2c0,1.5,0.2,2.5,0.5,3
						c0.3,0.5,0.8,0.7,1.3,0.7c0.5,0,0.9-0.2,1.3-0.7c0.3-0.5,0.5-1.5,0.5-3c0-1.5-0.2-2.5-0.5-3c-0.3-0.5-0.8-0.7-1.3-0.7
						c-0.5,0-0.9,0.2-1.2,0.6C44.1,235.7,43.9,236.7,43.9,238.2z"/>
					<path class="st30" d="M49.8,238.2c0-1.1,0.1-1.9,0.3-2.6c0.2-0.7,0.5-1.2,1-1.5c0.4-0.4,1-0.5,1.6-0.5c0.5,0,0.9,0.1,1.3,0.3
						c0.4,0.2,0.7,0.5,0.9,0.8c0.2,0.4,0.4,0.8,0.6,1.3c0.1,0.5,0.2,1.2,0.2,2.1c0,1.1-0.1,1.9-0.3,2.6c-0.2,0.7-0.5,1.2-1,1.5
						c-0.4,0.4-1,0.5-1.6,0.5c-0.9,0-1.6-0.3-2.1-0.9C50.1,241.1,49.8,239.9,49.8,238.2z M51,238.2c0,1.5,0.2,2.5,0.5,3
						c0.3,0.5,0.8,0.7,1.3,0.7s0.9-0.2,1.3-0.7c0.3-0.5,0.5-1.5,0.5-3c0-1.5-0.2-2.5-0.5-3c-0.3-0.5-0.8-0.7-1.3-0.7
						c-0.5,0-0.9,0.2-1.2,0.6C51.1,235.7,51,236.7,51,238.2z"/>
				</g>
				<g>
					<path class="st1" d="M32.3,256.4v-6.1h2.3c0.4,0,0.7,0,0.9,0.1c0.3,0,0.6,0.1,0.8,0.3c0.2,0.1,0.4,0.3,0.5,0.6
						c0.1,0.3,0.2,0.5,0.2,0.8c0,0.5-0.2,1-0.5,1.3c-0.3,0.4-0.9,0.5-1.8,0.5h-1.6v2.5H32.3z M33.1,253.2h1.6c0.5,0,0.9-0.1,1.1-0.3
						c0.2-0.2,0.3-0.5,0.3-0.8c0-0.3-0.1-0.5-0.2-0.7c-0.1-0.2-0.3-0.3-0.5-0.4c-0.1,0-0.4-0.1-0.8-0.1h-1.6V253.2z"/>
					<path class="st1" d="M40.8,256.4v-0.6c-0.3,0.5-0.8,0.7-1.4,0.7c-0.3,0-0.5,0-0.7-0.1c-0.2-0.1-0.4-0.2-0.5-0.4
						c-0.1-0.2-0.2-0.3-0.2-0.6c0-0.1,0-0.4,0-0.7V252h0.7v2.4c0,0.4,0,0.7,0,0.8c0,0.2,0.1,0.4,0.3,0.5c0.2,0.1,0.3,0.2,0.6,0.2
						s0.4-0.1,0.6-0.2c0.2-0.1,0.3-0.3,0.4-0.5c0.1-0.2,0.1-0.5,0.1-0.9V252h0.7v4.4H40.8z"/>
					<path class="st1" d="M42.7,256.4V252h0.7v0.7c0.2-0.3,0.3-0.5,0.5-0.6c0.1-0.1,0.3-0.1,0.5-0.1c0.3,0,0.5,0.1,0.8,0.2l-0.3,0.7
						c-0.2-0.1-0.4-0.2-0.5-0.2c-0.2,0-0.3,0-0.4,0.1c-0.1,0.1-0.2,0.2-0.3,0.4c-0.1,0.3-0.1,0.6-0.1,0.9v2.3H42.7z"/>
					<path class="st1" d="M48.4,254.8l0.7,0.1c-0.1,0.5-0.3,0.9-0.6,1.2c-0.3,0.3-0.7,0.4-1.2,0.4c-0.6,0-1.1-0.2-1.5-0.6
						c-0.4-0.4-0.6-1-0.6-1.7c0-0.5,0.1-0.9,0.2-1.3s0.4-0.6,0.7-0.8s0.7-0.3,1.1-0.3c0.5,0,0.9,0.1,1.2,0.4c0.3,0.2,0.5,0.6,0.6,1
						l-0.7,0.1c-0.1-0.3-0.2-0.5-0.4-0.7c-0.2-0.1-0.4-0.2-0.6-0.2c-0.4,0-0.7,0.1-0.9,0.4c-0.2,0.3-0.4,0.7-0.4,1.3
						c0,0.6,0.1,1,0.3,1.3c0.2,0.3,0.5,0.4,0.9,0.4c0.3,0,0.5-0.1,0.7-0.3C48.2,255.5,48.3,255.2,48.4,254.8z"/>
					<path class="st1" d="M49.8,256.4v-6.1h0.7v2.2c0.3-0.4,0.8-0.6,1.3-0.6c0.3,0,0.6,0.1,0.9,0.2c0.2,0.1,0.4,0.3,0.5,0.5
						c0.1,0.2,0.2,0.6,0.2,1v2.8h-0.7v-2.8c0-0.4-0.1-0.6-0.2-0.8c-0.2-0.2-0.4-0.3-0.7-0.3c-0.2,0-0.4,0.1-0.6,0.2
						c-0.2,0.1-0.3,0.3-0.4,0.5c-0.1,0.2-0.1,0.5-0.1,0.8v2.4H49.8z"/>
					<path class="st1" d="M57.4,255.9c-0.3,0.2-0.5,0.4-0.8,0.5c-0.3,0.1-0.5,0.1-0.8,0.1c-0.5,0-0.9-0.1-1.1-0.4
						c-0.3-0.2-0.4-0.5-0.4-0.9c0-0.2,0-0.4,0.1-0.6c0.1-0.2,0.2-0.3,0.4-0.4c0.2-0.1,0.3-0.2,0.5-0.2c0.1,0,0.4-0.1,0.7-0.1
						c0.6-0.1,1-0.2,1.3-0.3c0-0.1,0-0.2,0-0.2c0-0.3-0.1-0.5-0.2-0.6c-0.2-0.2-0.5-0.3-0.9-0.3c-0.4,0-0.6,0.1-0.8,0.2
						c-0.2,0.1-0.3,0.3-0.4,0.7l-0.7-0.1c0.1-0.3,0.2-0.6,0.3-0.8s0.4-0.3,0.7-0.4c0.3-0.1,0.6-0.2,1-0.2c0.4,0,0.7,0,0.9,0.1
						c0.2,0.1,0.4,0.2,0.5,0.3c0.1,0.1,0.2,0.3,0.2,0.5c0,0.1,0,0.4,0,0.7v1c0,0.7,0,1.1,0,1.3c0,0.2,0.1,0.4,0.2,0.5h-0.8
						C57.4,256.3,57.4,256.1,57.4,255.9z M57.3,254.2c-0.3,0.1-0.7,0.2-1.2,0.3c-0.3,0-0.5,0.1-0.7,0.1c-0.1,0.1-0.2,0.1-0.3,0.2
						c-0.1,0.1-0.1,0.2-0.1,0.4c0,0.2,0.1,0.4,0.2,0.5c0.2,0.1,0.4,0.2,0.7,0.2c0.3,0,0.5-0.1,0.8-0.2c0.2-0.1,0.4-0.3,0.5-0.5
						c0.1-0.2,0.1-0.4,0.1-0.7V254.2z"/>
					<path class="st1" d="M58.9,255.1l0.7-0.1c0,0.3,0.2,0.5,0.3,0.7c0.2,0.2,0.5,0.2,0.8,0.2c0.3,0,0.6-0.1,0.8-0.2
						c0.2-0.1,0.2-0.3,0.2-0.5c0-0.2-0.1-0.3-0.2-0.4c-0.1-0.1-0.4-0.2-0.8-0.3c-0.5-0.1-0.9-0.3-1.1-0.4c-0.2-0.1-0.4-0.2-0.5-0.4
						c-0.1-0.2-0.2-0.4-0.2-0.6c0-0.2,0-0.4,0.1-0.5c0.1-0.2,0.2-0.3,0.4-0.4c0.1-0.1,0.3-0.2,0.5-0.2c0.2-0.1,0.4-0.1,0.6-0.1
						c0.3,0,0.7,0,0.9,0.1c0.3,0.1,0.5,0.2,0.6,0.4c0.1,0.2,0.2,0.4,0.3,0.7l-0.7,0.1c0-0.2-0.1-0.4-0.3-0.5
						c-0.2-0.1-0.4-0.2-0.7-0.2c-0.3,0-0.6,0.1-0.7,0.2c-0.1,0.1-0.2,0.2-0.2,0.4c0,0.1,0,0.2,0.1,0.3c0.1,0.1,0.2,0.1,0.3,0.2
						c0.1,0,0.3,0.1,0.7,0.2c0.5,0.1,0.9,0.3,1.1,0.3c0.2,0.1,0.4,0.2,0.5,0.4c0.1,0.2,0.2,0.4,0.2,0.6c0,0.2-0.1,0.5-0.2,0.7
						c-0.1,0.2-0.4,0.4-0.6,0.5c-0.3,0.1-0.6,0.2-0.9,0.2c-0.6,0-1-0.1-1.3-0.4C59.2,255.9,59,255.6,58.9,255.1z"/>
					<path class="st1" d="M66.5,255l0.8,0.1c-0.1,0.5-0.3,0.8-0.7,1.1c-0.3,0.2-0.8,0.4-1.3,0.4c-0.6,0-1.2-0.2-1.5-0.6
						c-0.4-0.4-0.6-1-0.6-1.7c0-0.7,0.2-1.3,0.6-1.7c0.4-0.4,0.9-0.6,1.5-0.6c0.6,0,1.1,0.2,1.4,0.6c0.4,0.4,0.6,1,0.6,1.7
						c0,0,0,0.1,0,0.2H64c0,0.5,0.2,0.9,0.4,1.1c0.2,0.3,0.6,0.4,0.9,0.4c0.3,0,0.5-0.1,0.7-0.2C66.2,255.5,66.4,255.3,66.5,255z
						 M64.1,253.8h2.5c0-0.4-0.1-0.7-0.3-0.8c-0.2-0.3-0.5-0.4-0.9-0.4c-0.3,0-0.6,0.1-0.9,0.3C64.2,253.1,64.1,253.4,64.1,253.8z"
						/>
					<path class="st1" d="M70.7,256.4v-6.1H73c0.4,0,0.7,0,0.9,0.1c0.3,0,0.6,0.1,0.8,0.3c0.2,0.1,0.4,0.3,0.5,0.6
						c0.1,0.3,0.2,0.5,0.2,0.8c0,0.5-0.2,1-0.5,1.3c-0.3,0.4-0.9,0.5-1.8,0.5h-1.6v2.5H70.7z M71.5,253.2h1.6c0.5,0,0.9-0.1,1.1-0.3
						c0.2-0.2,0.3-0.5,0.3-0.8c0-0.3-0.1-0.5-0.2-0.7c-0.1-0.2-0.3-0.3-0.5-0.4c-0.1,0-0.4-0.1-0.8-0.1h-1.6V253.2z"/>
					<path class="st1" d="M76,254.2c0-0.8,0.2-1.4,0.7-1.8c0.4-0.3,0.8-0.5,1.4-0.5c0.6,0,1.1,0.2,1.5,0.6c0.4,0.4,0.6,0.9,0.6,1.6
						c0,0.6-0.1,1-0.3,1.3c-0.2,0.3-0.4,0.6-0.7,0.8c-0.3,0.2-0.7,0.3-1.1,0.3c-0.6,0-1.1-0.2-1.5-0.6C76.2,255.5,76,255,76,254.2z
						 M76.8,254.2c0,0.6,0.1,1,0.4,1.3c0.2,0.3,0.6,0.4,0.9,0.4c0.4,0,0.7-0.1,0.9-0.4c0.2-0.3,0.4-0.7,0.4-1.3c0-0.5-0.1-1-0.4-1.2
						c-0.2-0.3-0.6-0.4-0.9-0.4c-0.4,0-0.7,0.1-0.9,0.4C76.9,253.2,76.8,253.7,76.8,254.2z"/>
					<path class="st1" d="M81.8,256.4l-1.4-4.4h0.8l0.7,2.5l0.3,0.9c0,0,0.1-0.4,0.2-0.9l0.7-2.6h0.8l0.7,2.6l0.2,0.8l0.3-0.9
						l0.8-2.6h0.7l-1.4,4.4h-0.8l-0.7-2.6l-0.2-0.8l-0.9,3.4H81.8z"/>
					<path class="st1" d="M90.2,255l0.8,0.1c-0.1,0.5-0.3,0.8-0.7,1.1c-0.3,0.2-0.8,0.4-1.3,0.4c-0.6,0-1.2-0.2-1.5-0.6
						c-0.4-0.4-0.6-1-0.6-1.7c0-0.7,0.2-1.3,0.6-1.7c0.4-0.4,0.9-0.6,1.5-0.6c0.6,0,1.1,0.2,1.4,0.6c0.4,0.4,0.6,1,0.6,1.7
						c0,0,0,0.1,0,0.2h-3.3c0,0.5,0.2,0.9,0.4,1.1c0.2,0.3,0.6,0.4,0.9,0.4c0.3,0,0.5-0.1,0.7-0.2C89.9,255.5,90.1,255.3,90.2,255z
						 M87.7,253.8h2.5c0-0.4-0.1-0.7-0.3-0.8c-0.2-0.3-0.5-0.4-0.9-0.4c-0.3,0-0.6,0.1-0.9,0.3C87.9,253.1,87.7,253.4,87.7,253.8z"
						/>
					<path class="st1" d="M91.9,256.4V252h0.7v0.7c0.2-0.3,0.3-0.5,0.5-0.6c0.1-0.1,0.3-0.1,0.5-0.1c0.3,0,0.5,0.1,0.8,0.2l-0.3,0.7
						c-0.2-0.1-0.4-0.2-0.5-0.2c-0.2,0-0.3,0-0.4,0.1c-0.1,0.1-0.2,0.2-0.3,0.4c-0.1,0.3-0.1,0.6-0.1,0.9v2.3H91.9z"/>
				</g>
				<g>
					<path class="st31" d="M196.2,249.3h-14c-1.3,0-2.3-1-2.3-2.3v-14c0-1.3,1-2.3,2.3-2.3h14c1.3,0,2.3,1,2.3,2.3v14
						C198.5,248.3,197.5,249.3,196.2,249.3z"/>
					<g>
						<path class="st32" d="M189.3,244.5c-0.2,0-0.4,0-0.6-0.1c-0.2-0.1-0.4-0.2-0.6-0.3c-0.2-0.1-0.3-0.3-0.4-0.4
							c-0.1-0.2-0.2-0.4-0.2-0.6v-3.5h-0.7l-0.6-0.8h1.4v-1.5c0-0.2-0.1-0.4-0.3-0.4c-0.2-0.1-0.5,0-0.7,0.1
							c-0.2-0.2-0.3-0.4-0.3-0.6c0-0.2,0-0.3,0.1-0.5c0.1-0.1,0.2-0.2,0.4-0.3c0.2-0.1,0.3-0.1,0.5-0.1c0.2,0,0.4,0,0.5,0.1
							c0.1,0.1,0.3,0.2,0.4,0.3c0.1,0.1,0.2,0.3,0.2,0.4c0.1,0.2,0.1,0.3,0.1,0.5s0,0.4,0,0.5c0,0.2,0,0.4,0,0.5c0,0.1,0,0.3,0,0.4
							c0,0.1,0,0.3,0,0.4h0.5l0.7,0.8h-1.2v3.2c0,0.2,0,0.4,0.1,0.5c0.1,0.1,0.1,0.2,0.3,0.3c0.1,0,0.2,0,0.4,0
							c0.1,0,0.3-0.1,0.5-0.2c0.2-0.1,0.3-0.2,0.5-0.3c0.2-0.1,0.3-0.3,0.4-0.4c0.1-0.1,0.2-0.3,0.3-0.4c0.1-0.1,0.1-0.3,0.1-0.4
							c0-0.1,0-0.1-0.1-0.3c-0.2,0.1-0.4,0.1-0.5,0.1c-0.2,0-0.3-0.1-0.4-0.1c-0.1-0.1-0.2-0.2-0.3-0.3c-0.1-0.1-0.1-0.3-0.1-0.4
							c0-0.2,0-0.3,0-0.5c0-0.2,0.1-0.3,0.2-0.4c0.1-0.1,0.2-0.2,0.4-0.3c0.2-0.1,0.4-0.1,0.6-0.1c0.3,0,0.6,0.1,0.8,0.2
							c0.2,0.2,0.3,0.4,0.4,0.6c0.1,0.2,0.1,0.5,0.1,0.8c0,0.3-0.1,0.6-0.1,0.9c-0.1,0.3-0.2,0.6-0.4,0.9c-0.2,0.3-0.4,0.6-0.6,0.8
							c-0.2,0.2-0.5,0.4-0.8,0.6C190,244.5,189.6,244.5,189.3,244.5z"/>
					</g>
				</g>
			</g>
		</g>
		<g>
			<path class="st28" d="M207.3,319.2H28.6c-1.5,0-2.7-1.2-2.7-2.7v-37.9c0-1.5,1.2-2.7,2.7-2.7h178.7c1.5,0,2.7,1.2,2.7,2.7v37.9
				C210,318,208.8,319.2,207.3,319.2z"/>
			<g>
				<g>
					<path class="st30" d="M32.2,287.3c0-1.1,0.1-1.9,0.3-2.6c0.2-0.7,0.5-1.2,1-1.5c0.4-0.4,1-0.5,1.6-0.5c0.5,0,0.9,0.1,1.3,0.3
						c0.4,0.2,0.7,0.5,0.9,0.8c0.2,0.4,0.4,0.8,0.6,1.3c0.1,0.5,0.2,1.2,0.2,2.1c0,1.1-0.1,1.9-0.3,2.6c-0.2,0.7-0.5,1.2-1,1.5
						c-0.4,0.4-1,0.5-1.6,0.5c-0.9,0-1.6-0.3-2.1-0.9C32.5,290.2,32.2,289,32.2,287.3z M33.3,287.3c0,1.5,0.2,2.5,0.5,3
						c0.3,0.5,0.8,0.7,1.3,0.7c0.5,0,0.9-0.2,1.3-0.7s0.5-1.5,0.5-3c0-1.5-0.2-2.5-0.5-3c-0.3-0.5-0.8-0.7-1.3-0.7
						c-0.5,0-0.9,0.2-1.2,0.6C33.5,284.8,33.3,285.8,33.3,287.3z"/>
					<path class="st30" d="M39.9,291.8v-1.3h1.3v1.3H39.9z"/>
					<path class="st30" d="M42.8,287.3c0-1.1,0.1-1.9,0.3-2.6s0.5-1.2,1-1.5c0.4-0.4,1-0.5,1.6-0.5c0.5,0,0.9,0.1,1.3,0.3
						c0.4,0.2,0.7,0.5,0.9,0.8c0.2,0.4,0.4,0.8,0.6,1.3c0.1,0.5,0.2,1.2,0.2,2.1c0,1.1-0.1,1.9-0.3,2.6c-0.2,0.7-0.5,1.2-1,1.5
						c-0.4,0.4-1,0.5-1.6,0.5c-0.9,0-1.6-0.3-2.1-0.9C43.1,290.2,42.8,289,42.8,287.3z M43.9,287.3c0,1.5,0.2,2.5,0.5,3
						c0.3,0.5,0.8,0.7,1.3,0.7c0.5,0,0.9-0.2,1.3-0.7c0.3-0.5,0.5-1.5,0.5-3c0-1.5-0.2-2.5-0.5-3c-0.3-0.5-0.8-0.7-1.3-0.7
						c-0.5,0-0.9,0.2-1.2,0.6C44.1,284.8,43.9,285.8,43.9,287.3z"/>
					<path class="st30" d="M49.8,287.3c0-1.1,0.1-1.9,0.3-2.6c0.2-0.7,0.5-1.2,1-1.5c0.4-0.4,1-0.5,1.6-0.5c0.5,0,0.9,0.1,1.3,0.3
						c0.4,0.2,0.7,0.5,0.9,0.8c0.2,0.4,0.4,0.8,0.6,1.3c0.1,0.5,0.2,1.2,0.2,2.1c0,1.1-0.1,1.9-0.3,2.6c-0.2,0.7-0.5,1.2-1,1.5
						c-0.4,0.4-1,0.5-1.6,0.5c-0.9,0-1.6-0.3-2.1-0.9C50.1,290.2,49.8,289,49.8,287.3z M51,287.3c0,1.5,0.2,2.5,0.5,3
						c0.3,0.5,0.8,0.7,1.3,0.7s0.9-0.2,1.3-0.7c0.3-0.5,0.5-1.5,0.5-3c0-1.5-0.2-2.5-0.5-3c-0.3-0.5-0.8-0.7-1.3-0.7
						c-0.5,0-0.9,0.2-1.2,0.6C51.1,284.8,51,285.8,51,287.3z"/>
				</g>
				<g>
					<path class="st1" d="M32.3,305.5v-6.1h2.3c0.4,0,0.7,0,0.9,0.1c0.3,0,0.6,0.1,0.8,0.3c0.2,0.1,0.4,0.3,0.5,0.6
						c0.1,0.3,0.2,0.5,0.2,0.8c0,0.5-0.2,1-0.5,1.3c-0.3,0.4-0.9,0.5-1.8,0.5h-1.6v2.5H32.3z M33.1,302.3h1.6c0.5,0,0.9-0.1,1.1-0.3
						c0.2-0.2,0.3-0.5,0.3-0.8c0-0.3-0.1-0.5-0.2-0.7c-0.1-0.2-0.3-0.3-0.5-0.4c-0.1,0-0.4-0.1-0.8-0.1h-1.6V302.3z"/>
					<path class="st1" d="M37.6,303.3c0-0.8,0.2-1.4,0.7-1.8c0.4-0.3,0.8-0.5,1.4-0.5c0.6,0,1.1,0.2,1.5,0.6
						c0.4,0.4,0.6,0.9,0.6,1.6c0,0.6-0.1,1-0.3,1.3c-0.2,0.3-0.4,0.6-0.7,0.8c-0.3,0.2-0.7,0.3-1.1,0.3c-0.6,0-1.1-0.2-1.5-0.6
						C37.8,304.6,37.6,304.1,37.6,303.3z M38.4,303.3c0,0.6,0.1,1,0.4,1.3c0.2,0.3,0.6,0.4,0.9,0.4c0.4,0,0.7-0.1,0.9-0.4
						c0.2-0.3,0.4-0.7,0.4-1.3c0-0.5-0.1-1-0.4-1.2c-0.2-0.3-0.6-0.4-0.9-0.4c-0.4,0-0.7,0.1-0.9,0.4
						C38.5,302.3,38.4,302.7,38.4,303.3z"/>
					<path class="st1" d="M42.7,305.5v-4.4h0.7v0.7c0.2-0.3,0.3-0.5,0.5-0.6c0.1-0.1,0.3-0.1,0.5-0.1c0.3,0,0.5,0.1,0.8,0.2
						l-0.3,0.7c-0.2-0.1-0.4-0.2-0.5-0.2c-0.2,0-0.3,0-0.4,0.1c-0.1,0.1-0.2,0.2-0.3,0.4c-0.1,0.3-0.1,0.6-0.1,0.9v2.3H42.7z"/>
					<path class="st1" d="M47.1,304.9l0.1,0.7c-0.2,0-0.4,0.1-0.6,0.1c-0.3,0-0.5,0-0.6-0.1c-0.1-0.1-0.3-0.2-0.3-0.3
						c-0.1-0.1-0.1-0.4-0.1-0.9v-2.5h-0.5v-0.6h0.5V300l0.7-0.4v1.5h0.8v0.6h-0.8v2.6c0,0.2,0,0.4,0,0.4c0,0.1,0.1,0.1,0.1,0.1
						c0.1,0,0.1,0.1,0.3,0.1C46.9,304.9,47,304.9,47.1,304.9z"/>
					<path class="st1" d="M48,305.5v-3.8h-0.7v-0.6H48v-0.5c0-0.3,0-0.5,0.1-0.7c0.1-0.2,0.2-0.4,0.4-0.5c0.2-0.1,0.4-0.2,0.8-0.2
						c0.2,0,0.4,0,0.7,0.1l-0.1,0.7c-0.2,0-0.3,0-0.4,0c-0.2,0-0.4,0-0.5,0.1c-0.1,0.1-0.1,0.3-0.1,0.5v0.4h0.9v0.6h-0.9v3.8H48z"/>
					<path class="st1" d="M49.9,303.3c0-0.8,0.2-1.4,0.7-1.8c0.4-0.3,0.8-0.5,1.4-0.5c0.6,0,1.1,0.2,1.5,0.6
						c0.4,0.4,0.6,0.9,0.6,1.6c0,0.6-0.1,1-0.3,1.3c-0.2,0.3-0.4,0.6-0.7,0.8c-0.3,0.2-0.7,0.3-1.1,0.3c-0.6,0-1.1-0.2-1.5-0.6
						C50.1,304.6,49.9,304.1,49.9,303.3z M50.7,303.3c0,0.6,0.1,1,0.4,1.3c0.2,0.3,0.6,0.4,0.9,0.4c0.4,0,0.7-0.1,0.9-0.4
						c0.2-0.3,0.4-0.7,0.4-1.3c0-0.5-0.1-1-0.4-1.2c-0.2-0.3-0.6-0.4-0.9-0.4c-0.4,0-0.7,0.1-0.9,0.4S50.7,302.7,50.7,303.3z"/>
					<path class="st1" d="M54.9,305.5v-6.1h0.7v6.1H54.9z"/>
					<path class="st1" d="M56.9,300.3v-0.9h0.7v0.9H56.9z M56.9,305.5v-4.4h0.7v4.4H56.9z"/>
					<path class="st1" d="M58.5,303.3c0-0.8,0.2-1.4,0.7-1.8c0.4-0.3,0.8-0.5,1.4-0.5c0.6,0,1.1,0.2,1.5,0.6
						c0.4,0.4,0.6,0.9,0.6,1.6c0,0.6-0.1,1-0.3,1.3c-0.2,0.3-0.4,0.6-0.7,0.8c-0.3,0.2-0.7,0.3-1.1,0.3c-0.6,0-1.1-0.2-1.5-0.6
						C58.7,304.6,58.5,304.1,58.5,303.3z M59.2,303.3c0,0.6,0.1,1,0.4,1.3c0.2,0.3,0.6,0.4,0.9,0.4c0.4,0,0.7-0.1,0.9-0.4
						c0.2-0.3,0.4-0.7,0.4-1.3c0-0.5-0.1-1-0.4-1.2c-0.2-0.3-0.6-0.4-0.9-0.4c-0.4,0-0.7,0.1-0.9,0.4
						C59.4,302.3,59.2,302.7,59.2,303.3z"/>
					<path class="st1" d="M67.7,305.5l-2.4-6.1h0.9l1.6,4.4c0.1,0.4,0.2,0.7,0.3,1c0.1-0.3,0.2-0.7,0.3-1l1.6-4.4h0.8l-2.4,6.1H67.7
						z"/>
					<path class="st1" d="M73.8,305c-0.3,0.2-0.5,0.4-0.8,0.5c-0.3,0.1-0.5,0.1-0.8,0.1c-0.5,0-0.9-0.1-1.1-0.4
						c-0.3-0.2-0.4-0.5-0.4-0.9c0-0.2,0-0.4,0.1-0.6c0.1-0.2,0.2-0.3,0.4-0.4c0.2-0.1,0.3-0.2,0.5-0.2c0.1,0,0.4-0.1,0.7-0.1
						c0.6-0.1,1-0.2,1.3-0.3c0-0.1,0-0.2,0-0.2c0-0.3-0.1-0.5-0.2-0.6c-0.2-0.2-0.5-0.3-0.9-0.3c-0.4,0-0.6,0.1-0.8,0.2
						c-0.2,0.1-0.3,0.3-0.4,0.7l-0.7-0.1c0.1-0.3,0.2-0.6,0.3-0.8c0.2-0.2,0.4-0.3,0.7-0.4s0.6-0.2,1-0.2c0.4,0,0.7,0,0.9,0.1
						c0.2,0.1,0.4,0.2,0.5,0.3c0.1,0.1,0.2,0.3,0.2,0.5c0,0.1,0,0.4,0,0.7v1c0,0.7,0,1.1,0,1.3c0,0.2,0.1,0.4,0.2,0.5h-0.8
						C73.9,305.4,73.8,305.2,73.8,305z M73.7,303.3c-0.3,0.1-0.7,0.2-1.2,0.3c-0.3,0-0.5,0.1-0.7,0.1c-0.1,0.1-0.2,0.1-0.3,0.2
						c-0.1,0.1-0.1,0.2-0.1,0.4c0,0.2,0.1,0.4,0.2,0.5c0.2,0.1,0.4,0.2,0.7,0.2c0.3,0,0.5-0.1,0.8-0.2c0.2-0.1,0.4-0.3,0.5-0.5
						c0.1-0.2,0.1-0.4,0.1-0.7V303.3z"/>
					<path class="st1" d="M75.6,305.5v-6.1h0.7v6.1H75.6z"/>
					<path class="st1" d="M80.4,305.5v-0.6c-0.3,0.5-0.8,0.7-1.4,0.7c-0.3,0-0.5,0-0.7-0.1c-0.2-0.1-0.4-0.2-0.5-0.4
						c-0.1-0.2-0.2-0.3-0.2-0.6c0-0.1,0-0.4,0-0.7v-2.7h0.7v2.4c0,0.4,0,0.7,0,0.8c0,0.2,0.1,0.4,0.3,0.5c0.2,0.1,0.3,0.2,0.6,0.2
						c0.2,0,0.4-0.1,0.6-0.2c0.2-0.1,0.3-0.3,0.4-0.5s0.1-0.5,0.1-0.9v-2.4h0.7v4.4H80.4z"/>
					<path class="st1" d="M85.3,304.1l0.8,0.1c-0.1,0.5-0.3,0.8-0.7,1.1c-0.3,0.2-0.8,0.4-1.3,0.4c-0.6,0-1.2-0.2-1.5-0.6
						c-0.4-0.4-0.6-1-0.6-1.7c0-0.7,0.2-1.3,0.6-1.7c0.4-0.4,0.9-0.6,1.5-0.6c0.6,0,1.1,0.2,1.4,0.6s0.6,1,0.6,1.7c0,0,0,0.1,0,0.2
						h-3.3c0,0.5,0.2,0.9,0.4,1.1c0.2,0.3,0.6,0.4,0.9,0.4c0.3,0,0.5-0.1,0.7-0.2C85,304.6,85.2,304.4,85.3,304.1z M82.8,302.9h2.5
						c0-0.4-0.1-0.6-0.3-0.8c-0.2-0.3-0.5-0.4-0.9-0.4c-0.3,0-0.6,0.1-0.9,0.3C83,302.2,82.9,302.5,82.8,302.9z"/>
				</g>
				<g>
					<path class="st31" d="M196.2,298.4h-14c-1.3,0-2.3-1-2.3-2.3v-14c0-1.3,1-2.3,2.3-2.3h14c1.3,0,2.3,1,2.3,2.3v14
						C198.5,297.4,197.5,298.4,196.2,298.4z"/>
					<g>
						<path class="st32" d="M189.3,293.6c-0.2,0-0.4,0-0.6-0.1c-0.2-0.1-0.4-0.2-0.6-0.3c-0.2-0.1-0.3-0.3-0.4-0.4
							c-0.1-0.2-0.2-0.4-0.2-0.6v-3.5h-0.7l-0.6-0.8h1.4v-1.5c0-0.2-0.1-0.4-0.3-0.4c-0.2-0.1-0.5,0-0.7,0.1
							c-0.2-0.2-0.3-0.4-0.3-0.6c0-0.2,0-0.3,0.1-0.5c0.1-0.1,0.2-0.2,0.4-0.3c0.2-0.1,0.3-0.1,0.5-0.1c0.2,0,0.4,0,0.5,0.1
							c0.1,0.1,0.3,0.2,0.4,0.3c0.1,0.1,0.2,0.3,0.2,0.4c0.1,0.2,0.1,0.3,0.1,0.5c0,0.2,0,0.4,0,0.5c0,0.2,0,0.4,0,0.5
							c0,0.1,0,0.3,0,0.4c0,0.1,0,0.3,0,0.4h0.5l0.7,0.8h-1.2v3.2c0,0.2,0,0.4,0.1,0.5c0.1,0.1,0.1,0.2,0.3,0.3c0.1,0,0.2,0,0.4,0
							c0.1,0,0.3-0.1,0.5-0.2c0.2-0.1,0.3-0.2,0.5-0.3c0.2-0.1,0.3-0.3,0.4-0.4c0.1-0.1,0.2-0.3,0.3-0.4c0.1-0.1,0.1-0.3,0.1-0.4
							c0-0.1,0-0.1-0.1-0.3c-0.2,0.1-0.4,0.1-0.5,0.1c-0.2,0-0.3-0.1-0.4-0.1c-0.1-0.1-0.2-0.2-0.3-0.3c-0.1-0.1-0.1-0.3-0.1-0.4
							c0-0.2,0-0.3,0-0.5c0-0.2,0.1-0.3,0.2-0.4c0.1-0.1,0.2-0.2,0.4-0.3c0.2-0.1,0.4-0.1,0.6-0.1c0.3,0,0.6,0.1,0.8,0.2
							c0.2,0.2,0.3,0.4,0.4,0.6c0.1,0.2,0.1,0.5,0.1,0.8c0,0.3-0.1,0.6-0.1,0.9c-0.1,0.3-0.2,0.6-0.4,0.9c-0.2,0.3-0.4,0.6-0.6,0.8
							c-0.2,0.2-0.5,0.4-0.8,0.6C190,293.6,189.6,293.6,189.3,293.6z"/>
					</g>
				</g>
			</g>
		</g>
		<g>
			<path class="st28" d="M207.3,368.3H28.6c-1.5,0-2.7-1.2-2.7-2.7v-37.9c0-1.5,1.2-2.7,2.7-2.7h178.7c1.5,0,2.7,1.2,2.7,2.7v37.9
				C210,367.1,208.8,368.3,207.3,368.3z"/>
			<g>
				<g>
					<path class="st30" d="M32.2,336.4c0-1.1,0.1-1.9,0.3-2.6c0.2-0.7,0.5-1.2,1-1.5c0.4-0.4,1-0.5,1.6-0.5c0.5,0,0.9,0.1,1.3,0.3
						c0.4,0.2,0.7,0.5,0.9,0.8c0.2,0.4,0.4,0.8,0.6,1.3c0.1,0.5,0.2,1.2,0.2,2.1c0,1.1-0.1,1.9-0.3,2.6c-0.2,0.7-0.5,1.2-1,1.5
						c-0.4,0.4-1,0.5-1.6,0.5c-0.9,0-1.6-0.3-2.1-0.9C32.5,339.3,32.2,338.1,32.2,336.4z M33.3,336.4c0,1.5,0.2,2.5,0.5,3
						c0.3,0.5,0.8,0.7,1.3,0.7c0.5,0,0.9-0.2,1.3-0.7c0.3-0.5,0.5-1.5,0.5-3c0-1.5-0.2-2.5-0.5-3s-0.8-0.7-1.3-0.7
						c-0.5,0-0.9,0.2-1.2,0.6C33.5,333.9,33.3,334.9,33.3,336.4z"/>
					<path class="st30" d="M39.9,340.9v-1.3h1.3v1.3H39.9z"/>
					<path class="st30" d="M42.8,336.4c0-1.1,0.1-1.9,0.3-2.6c0.2-0.7,0.5-1.2,1-1.5c0.4-0.4,1-0.5,1.6-0.5c0.5,0,0.9,0.1,1.3,0.3
						c0.4,0.2,0.7,0.5,0.9,0.8c0.2,0.4,0.4,0.8,0.6,1.3c0.1,0.5,0.2,1.2,0.2,2.1c0,1.1-0.1,1.9-0.3,2.6c-0.2,0.7-0.5,1.2-1,1.5
						c-0.4,0.4-1,0.5-1.6,0.5c-0.9,0-1.6-0.3-2.1-0.9C43.1,339.3,42.8,338.1,42.8,336.4z M43.9,336.4c0,1.5,0.2,2.5,0.5,3
						c0.3,0.5,0.8,0.7,1.3,0.7c0.5,0,0.9-0.2,1.3-0.7c0.3-0.5,0.5-1.5,0.5-3c0-1.5-0.2-2.5-0.5-3c-0.3-0.5-0.8-0.7-1.3-0.7
						c-0.5,0-0.9,0.2-1.2,0.6C44.1,333.9,43.9,334.9,43.9,336.4z"/>
					<path class="st30" d="M49.8,336.4c0-1.1,0.1-1.9,0.3-2.6c0.2-0.7,0.5-1.2,1-1.5c0.4-0.4,1-0.5,1.6-0.5c0.5,0,0.9,0.1,1.3,0.3
						c0.4,0.2,0.7,0.5,0.9,0.8c0.2,0.4,0.4,0.8,0.6,1.3c0.1,0.5,0.2,1.2,0.2,2.1c0,1.1-0.1,1.9-0.3,2.6c-0.2,0.7-0.5,1.2-1,1.5
						c-0.4,0.4-1,0.5-1.6,0.5c-0.9,0-1.6-0.3-2.1-0.9C50.1,339.3,49.8,338.1,49.8,336.4z M51,336.4c0,1.5,0.2,2.5,0.5,3
						c0.3,0.5,0.8,0.7,1.3,0.7s0.9-0.2,1.3-0.7c0.3-0.5,0.5-1.5,0.5-3c0-1.5-0.2-2.5-0.5-3c-0.3-0.5-0.8-0.7-1.3-0.7
						c-0.5,0-0.9,0.2-1.2,0.6C51.1,333.9,51,334.9,51,336.4z"/>
				</g>
				<g>
					<path class="st1" d="M32.4,354.6v-6.1h4.4v0.7h-3.6v1.9h3.4v0.7h-3.4v2.1h3.7v0.7H32.4z"/>
					<path class="st1" d="M40.7,356.3v-2.2c-0.1,0.2-0.3,0.3-0.5,0.4c-0.2,0.1-0.4,0.2-0.7,0.2c-0.5,0-1-0.2-1.4-0.6
						c-0.4-0.4-0.6-1-0.6-1.7c0-0.4,0.1-0.8,0.2-1.2c0.2-0.4,0.4-0.6,0.7-0.8c0.3-0.2,0.6-0.3,1-0.3c0.5,0,1,0.2,1.3,0.7v-0.6h0.7
						v6.1H40.7z M38.4,352.4c0,0.6,0.1,1,0.4,1.3c0.2,0.3,0.5,0.4,0.9,0.4c0.3,0,0.6-0.1,0.8-0.4c0.2-0.3,0.3-0.7,0.3-1.2
						c0-0.6-0.1-1-0.4-1.3c-0.2-0.3-0.5-0.4-0.9-0.4c-0.3,0-0.6,0.1-0.8,0.4C38.5,351.4,38.4,351.8,38.4,352.4z"/>
					<path class="st1" d="M45.6,354.6V354c-0.3,0.5-0.8,0.7-1.4,0.7c-0.3,0-0.5,0-0.7-0.1c-0.2-0.1-0.4-0.2-0.5-0.4
						c-0.1-0.2-0.2-0.3-0.2-0.6c0-0.1,0-0.4,0-0.7v-2.7h0.7v2.4c0,0.4,0,0.7,0,0.8c0,0.2,0.1,0.4,0.3,0.5c0.2,0.1,0.3,0.2,0.6,0.2
						s0.4-0.1,0.6-0.2c0.2-0.1,0.3-0.3,0.4-0.5c0.1-0.2,0.1-0.5,0.1-0.9v-2.4h0.7v4.4H45.6z"/>
					<path class="st1" d="M47.4,349.4v-0.9h0.7v0.9H47.4z M47.4,354.6v-4.4h0.7v4.4H47.4z"/>
					<path class="st1" d="M50.9,354l0.1,0.7c-0.2,0-0.4,0.1-0.6,0.1c-0.3,0-0.5,0-0.6-0.1s-0.3-0.2-0.3-0.3
						c-0.1-0.1-0.1-0.4-0.1-0.9v-2.5h-0.5v-0.6h0.5v-1.1l0.7-0.4v1.5h0.8v0.6h-0.8v2.6c0,0.2,0,0.4,0,0.4c0,0.1,0.1,0.1,0.1,0.1
						s0.1,0.1,0.3,0.1C50.7,354,50.8,354,50.9,354z"/>
					<path class="st1" d="M51.6,356.3l-0.1-0.7c0.2,0,0.3,0.1,0.4,0.1c0.2,0,0.3,0,0.4-0.1c0.1-0.1,0.2-0.1,0.2-0.2
						c0-0.1,0.1-0.3,0.2-0.6c0,0,0-0.1,0.1-0.2l-1.7-4.4H52l0.9,2.6c0.1,0.3,0.2,0.7,0.3,1c0.1-0.3,0.2-0.7,0.3-1l0.9-2.6h0.7
						l-1.7,4.5c-0.2,0.5-0.3,0.8-0.4,1c-0.1,0.2-0.3,0.4-0.5,0.5c-0.2,0.1-0.4,0.2-0.6,0.2C52,356.4,51.8,356.4,51.6,356.3z"/>
				</g>
				<g>
					<path class="st31" d="M196.2,347.5h-14c-1.3,0-2.3-1-2.3-2.3v-14c0-1.3,1-2.3,2.3-2.3h14c1.3,0,2.3,1,2.3,2.3v14
						C198.5,346.5,197.5,347.5,196.2,347.5z"/>
					<g>
						<path class="st32" d="M189.3,342.7c-0.2,0-0.4,0-0.6-0.1c-0.2-0.1-0.4-0.2-0.6-0.3c-0.2-0.1-0.3-0.3-0.4-0.4
							c-0.1-0.2-0.2-0.4-0.2-0.6v-3.5h-0.7l-0.6-0.8h1.4v-1.5c0-0.2-0.1-0.4-0.3-0.4c-0.2-0.1-0.5,0-0.7,0.1
							c-0.2-0.2-0.3-0.4-0.3-0.6c0-0.2,0-0.3,0.1-0.5c0.1-0.1,0.2-0.2,0.4-0.3c0.2-0.1,0.3-0.1,0.5-0.1c0.2,0,0.4,0,0.5,0.1
							c0.1,0.1,0.3,0.2,0.4,0.3c0.1,0.1,0.2,0.3,0.2,0.4c0.1,0.2,0.1,0.3,0.1,0.5c0,0.2,0,0.4,0,0.5c0,0.2,0,0.4,0,0.5
							c0,0.1,0,0.3,0,0.4c0,0.1,0,0.3,0,0.4h0.5l0.7,0.8h-1.2v3.2c0,0.2,0,0.4,0.1,0.5c0.1,0.1,0.1,0.2,0.3,0.3c0.1,0,0.2,0,0.4,0
							c0.1,0,0.3-0.1,0.5-0.2c0.2-0.1,0.3-0.2,0.5-0.3c0.2-0.1,0.3-0.3,0.4-0.4c0.1-0.1,0.2-0.3,0.3-0.4c0.1-0.1,0.1-0.3,0.1-0.4
							c0-0.1,0-0.1-0.1-0.3c-0.2,0.1-0.4,0.1-0.5,0.1c-0.2,0-0.3-0.1-0.4-0.1c-0.1-0.1-0.2-0.2-0.3-0.3c-0.1-0.1-0.1-0.3-0.1-0.4
							c0-0.2,0-0.3,0-0.5c0-0.2,0.1-0.3,0.2-0.4c0.1-0.1,0.2-0.2,0.4-0.3s0.4-0.1,0.6-0.1c0.3,0,0.6,0.1,0.8,0.2
							c0.2,0.2,0.3,0.4,0.4,0.6c0.1,0.2,0.1,0.5,0.1,0.8c0,0.3-0.1,0.6-0.1,0.9c-0.1,0.3-0.2,0.6-0.4,0.9c-0.2,0.3-0.4,0.6-0.6,0.8
							c-0.2,0.2-0.5,0.4-0.8,0.6C190,342.7,189.6,342.7,189.3,342.7z"/>
					</g>
				</g>
			</g>
		</g>
		<g>
			<path class="st28" d="M207.3,417.4H28.6c-1.5,0-2.7-1.2-2.7-2.7v-37.9c0-1.5,1.2-2.7,2.7-2.7h178.7c1.5,0,2.7,1.2,2.7,2.7v37.9
				C210,416.2,208.8,417.4,207.3,417.4z"/>
			<g>
				<g>
					<path class="st30" d="M32.2,385.5c0-1.1,0.1-1.9,0.3-2.6c0.2-0.7,0.5-1.2,1-1.5c0.4-0.4,1-0.5,1.6-0.5c0.5,0,0.9,0.1,1.3,0.3
						c0.4,0.2,0.7,0.5,0.9,0.8c0.2,0.4,0.4,0.8,0.6,1.3s0.2,1.2,0.2,2.1c0,1.1-0.1,1.9-0.3,2.6c-0.2,0.7-0.5,1.2-1,1.5
						c-0.4,0.4-1,0.5-1.6,0.5c-0.9,0-1.6-0.3-2.1-0.9C32.5,388.4,32.2,387.2,32.2,385.5z M33.3,385.5c0,1.5,0.2,2.5,0.5,3
						c0.3,0.5,0.8,0.7,1.3,0.7c0.5,0,0.9-0.2,1.3-0.7s0.5-1.5,0.5-3c0-1.5-0.2-2.5-0.5-3s-0.8-0.7-1.3-0.7c-0.5,0-0.9,0.2-1.2,0.6
						C33.5,383,33.3,384,33.3,385.5z"/>
					<path class="st30" d="M39.9,390v-1.3h1.3v1.3H39.9z"/>
					<path class="st30" d="M42.8,385.5c0-1.1,0.1-1.9,0.3-2.6c0.2-0.7,0.5-1.2,1-1.5c0.4-0.4,1-0.5,1.6-0.5c0.5,0,0.9,0.1,1.3,0.3
						c0.4,0.2,0.7,0.5,0.9,0.8c0.2,0.4,0.4,0.8,0.6,1.3s0.2,1.2,0.2,2.1c0,1.1-0.1,1.9-0.3,2.6c-0.2,0.7-0.5,1.2-1,1.5
						c-0.4,0.4-1,0.5-1.6,0.5c-0.9,0-1.6-0.3-2.1-0.9C43.1,388.4,42.8,387.2,42.8,385.5z M43.9,385.5c0,1.5,0.2,2.5,0.5,3
						c0.3,0.5,0.8,0.7,1.3,0.7c0.5,0,0.9-0.2,1.3-0.7c0.3-0.5,0.5-1.5,0.5-3c0-1.5-0.2-2.5-0.5-3c-0.3-0.5-0.8-0.7-1.3-0.7
						c-0.5,0-0.9,0.2-1.2,0.6C44.1,383,43.9,384,43.9,385.5z"/>
					<path class="st30" d="M49.8,385.5c0-1.1,0.1-1.9,0.3-2.6c0.2-0.7,0.5-1.2,1-1.5c0.4-0.4,1-0.5,1.6-0.5c0.5,0,0.9,0.1,1.3,0.3
						c0.4,0.2,0.7,0.5,0.9,0.8c0.2,0.4,0.4,0.8,0.6,1.3s0.2,1.2,0.2,2.1c0,1.1-0.1,1.9-0.3,2.6c-0.2,0.7-0.5,1.2-1,1.5
						c-0.4,0.4-1,0.5-1.6,0.5c-0.9,0-1.6-0.3-2.1-0.9C50.1,388.4,49.8,387.2,49.8,385.5z M51,385.5c0,1.5,0.2,2.5,0.5,3
						c0.3,0.5,0.8,0.7,1.3,0.7s0.9-0.2,1.3-0.7c0.3-0.5,0.5-1.5,0.5-3c0-1.5-0.2-2.5-0.5-3c-0.3-0.5-0.8-0.7-1.3-0.7
						c-0.5,0-0.9,0.2-1.2,0.6C51.1,383,51,384,51,385.5z"/>
				</g>
				<g>
					<path class="st1" d="M31.7,403.7l2.3-6.1h0.9l2.5,6.1h-0.9l-0.7-1.8h-2.5l-0.7,1.8H31.7z M33.4,401.2h2.1l-0.6-1.7
						c-0.2-0.5-0.3-0.9-0.4-1.3c-0.1,0.4-0.2,0.8-0.3,1.2L33.4,401.2z"/>
					<path class="st1" d="M40.8,402.1l0.7,0.1c-0.1,0.5-0.3,0.9-0.6,1.2c-0.3,0.3-0.7,0.4-1.2,0.4c-0.6,0-1.1-0.2-1.5-0.6
						c-0.4-0.4-0.6-1-0.6-1.7c0-0.5,0.1-0.9,0.2-1.3c0.2-0.4,0.4-0.6,0.7-0.8c0.3-0.2,0.7-0.3,1.1-0.3c0.5,0,0.9,0.1,1.2,0.4
						c0.3,0.2,0.5,0.6,0.6,1l-0.7,0.1c-0.1-0.3-0.2-0.5-0.4-0.7c-0.2-0.1-0.4-0.2-0.6-0.2c-0.4,0-0.7,0.1-0.9,0.4
						c-0.2,0.3-0.4,0.7-0.4,1.3c0,0.6,0.1,1,0.3,1.3c0.2,0.3,0.5,0.4,0.9,0.4c0.3,0,0.5-0.1,0.7-0.3
						C40.6,402.7,40.8,402.5,40.8,402.1z"/>
					<path class="st1" d="M45.1,402.1l0.7,0.1c-0.1,0.5-0.3,0.9-0.6,1.2c-0.3,0.3-0.7,0.4-1.2,0.4c-0.6,0-1.1-0.2-1.5-0.6
						c-0.4-0.4-0.6-1-0.6-1.7c0-0.5,0.1-0.9,0.2-1.3c0.2-0.4,0.4-0.6,0.7-0.8c0.3-0.2,0.7-0.3,1.1-0.3c0.5,0,0.9,0.1,1.2,0.4
						c0.3,0.2,0.5,0.6,0.6,1l-0.7,0.1c-0.1-0.3-0.2-0.5-0.4-0.7c-0.2-0.1-0.4-0.2-0.6-0.2c-0.4,0-0.7,0.1-0.9,0.4
						c-0.2,0.3-0.4,0.7-0.4,1.3c0,0.6,0.1,1,0.3,1.3c0.2,0.3,0.5,0.4,0.9,0.4c0.3,0,0.5-0.1,0.7-0.3C44.9,402.7,45,402.5,45.1,402.1
						z"/>
					<path class="st1" d="M46.4,403.7v-4.4h0.7v0.7c0.2-0.3,0.3-0.5,0.5-0.6c0.1-0.1,0.3-0.1,0.5-0.1c0.3,0,0.5,0.1,0.8,0.2
						l-0.3,0.7c-0.2-0.1-0.4-0.2-0.5-0.2c-0.2,0-0.3,0-0.4,0.1c-0.1,0.1-0.2,0.2-0.3,0.4c-0.1,0.3-0.1,0.6-0.1,0.9v2.3H46.4z"/>
					<path class="st1" d="M52.2,403.7v-0.6c-0.3,0.5-0.8,0.7-1.4,0.7c-0.3,0-0.5,0-0.7-0.1c-0.2-0.1-0.4-0.2-0.5-0.4
						c-0.1-0.2-0.2-0.3-0.2-0.6c0-0.1,0-0.4,0-0.7v-2.7H50v2.4c0,0.4,0,0.7,0,0.8c0,0.2,0.1,0.4,0.3,0.5c0.2,0.1,0.3,0.2,0.6,0.2
						c0.2,0,0.4-0.1,0.6-0.2c0.2-0.1,0.3-0.3,0.4-0.5c0.1-0.2,0.1-0.5,0.1-0.9v-2.4h0.7v4.4H52.2z"/>
					<path class="st1" d="M57,402.3l0.8,0.1c-0.1,0.5-0.3,0.8-0.7,1.1c-0.3,0.2-0.8,0.4-1.3,0.4c-0.6,0-1.2-0.2-1.5-0.6
						c-0.4-0.4-0.6-1-0.6-1.7c0-0.7,0.2-1.3,0.6-1.7c0.4-0.4,0.9-0.6,1.5-0.6c0.6,0,1.1,0.2,1.4,0.6c0.4,0.4,0.6,1,0.6,1.7
						c0,0,0,0.1,0,0.2h-3.3c0,0.5,0.2,0.9,0.4,1.1c0.2,0.3,0.6,0.4,0.9,0.4c0.3,0,0.5-0.1,0.7-0.2C56.8,402.8,56.9,402.6,57,402.3z
						 M54.6,401.1H57c0-0.4-0.1-0.6-0.3-0.8c-0.2-0.3-0.5-0.4-0.9-0.4c-0.3,0-0.6,0.1-0.9,0.3C54.7,400.4,54.6,400.7,54.6,401.1z"/>
					<path class="st1" d="M61.6,403.7v-0.6c-0.3,0.4-0.7,0.7-1.2,0.7c-0.4,0-0.7-0.1-1-0.3c-0.3-0.2-0.5-0.5-0.7-0.8
						c-0.2-0.3-0.2-0.7-0.2-1.2c0-0.4,0.1-0.8,0.2-1.2c0.1-0.4,0.4-0.6,0.7-0.8c0.3-0.2,0.6-0.3,1-0.3c0.3,0,0.5,0.1,0.7,0.2
						c0.2,0.1,0.4,0.3,0.5,0.4v-2.2h0.7v6.1H61.6z M59.2,401.5c0,0.6,0.1,1,0.4,1.3c0.2,0.3,0.5,0.4,0.8,0.4c0.3,0,0.6-0.1,0.8-0.4
						c0.2-0.3,0.3-0.7,0.3-1.2c0-0.6-0.1-1-0.4-1.3c-0.2-0.3-0.5-0.4-0.9-0.4c-0.3,0-0.6,0.1-0.8,0.4
						C59.4,400.5,59.2,400.9,59.2,401.5z"/>
					<path class="st1" d="M66.1,403.7v-6.1h0.8v6.1H66.1z"/>
					<path class="st1" d="M68.2,403.7v-4.4h0.7v0.6c0.3-0.5,0.8-0.7,1.4-0.7c0.3,0,0.5,0,0.7,0.1c0.2,0.1,0.4,0.2,0.5,0.4
						c0.1,0.2,0.2,0.3,0.2,0.6c0,0.1,0,0.4,0,0.7v2.7h-0.7V401c0-0.3,0-0.5-0.1-0.7c-0.1-0.2-0.2-0.3-0.3-0.4
						c-0.1-0.1-0.3-0.1-0.5-0.1c-0.3,0-0.6,0.1-0.8,0.3c-0.2,0.2-0.3,0.6-0.3,1.2v2.4H68.2z"/>
					<path class="st1" d="M74.6,403l0.1,0.7c-0.2,0-0.4,0.1-0.6,0.1c-0.3,0-0.5,0-0.6-0.1c-0.1-0.1-0.3-0.2-0.3-0.3
						c-0.1-0.1-0.1-0.4-0.1-0.9v-2.5h-0.5v-0.6h0.5v-1.1l0.7-0.4v1.5h0.8v0.6h-0.8v2.6c0,0.2,0,0.4,0,0.4c0,0.1,0.1,0.1,0.1,0.1
						s0.1,0.1,0.3,0.1C74.3,403.1,74.5,403.1,74.6,403z"/>
					<path class="st1" d="M78.3,402.3l0.8,0.1c-0.1,0.5-0.3,0.8-0.7,1.1c-0.3,0.2-0.8,0.4-1.3,0.4c-0.6,0-1.2-0.2-1.5-0.6
						c-0.4-0.4-0.6-1-0.6-1.7c0-0.7,0.2-1.3,0.6-1.7c0.4-0.4,0.9-0.6,1.5-0.6c0.6,0,1.1,0.2,1.4,0.6s0.6,1,0.6,1.7c0,0,0,0.1,0,0.2
						h-3.3c0,0.5,0.2,0.9,0.4,1.1c0.2,0.3,0.6,0.4,0.9,0.4c0.3,0,0.5-0.1,0.7-0.2C78.1,402.8,78.2,402.6,78.3,402.3z M75.9,401.1
						h2.5c0-0.4-0.1-0.6-0.3-0.8c-0.2-0.3-0.5-0.4-0.9-0.4c-0.3,0-0.6,0.1-0.9,0.3C76,400.4,75.9,400.7,75.9,401.1z"/>
					<path class="st1" d="M80.1,403.7v-4.4h0.7v0.7c0.2-0.3,0.3-0.5,0.5-0.6c0.1-0.1,0.3-0.1,0.5-0.1c0.3,0,0.5,0.1,0.8,0.2
						l-0.3,0.7c-0.2-0.1-0.4-0.2-0.5-0.2c-0.2,0-0.3,0-0.4,0.1c-0.1,0.1-0.2,0.2-0.3,0.4c-0.1,0.3-0.1,0.6-0.1,0.9v2.3H80.1z"/>
					<path class="st1" d="M85.9,402.3l0.8,0.1c-0.1,0.5-0.3,0.8-0.7,1.1c-0.3,0.2-0.8,0.4-1.3,0.4c-0.6,0-1.2-0.2-1.5-0.6
						c-0.4-0.4-0.6-1-0.6-1.7c0-0.7,0.2-1.3,0.6-1.7c0.4-0.4,0.9-0.6,1.5-0.6c0.6,0,1.1,0.2,1.4,0.6c0.4,0.4,0.6,1,0.6,1.7
						c0,0,0,0.1,0,0.2h-3.3c0,0.5,0.2,0.9,0.4,1.1c0.2,0.3,0.6,0.4,0.9,0.4c0.3,0,0.5-0.1,0.7-0.2C85.7,402.8,85.8,402.6,85.9,402.3
						z M83.5,401.1h2.5c0-0.4-0.1-0.6-0.3-0.8c-0.2-0.3-0.5-0.4-0.9-0.4c-0.3,0-0.6,0.1-0.9,0.3C83.6,400.4,83.5,400.7,83.5,401.1z"
						/>
					<path class="st1" d="M87.3,402.4l0.7-0.1c0,0.3,0.2,0.5,0.3,0.7c0.2,0.2,0.5,0.2,0.8,0.2c0.3,0,0.6-0.1,0.8-0.2
						c0.2-0.1,0.2-0.3,0.2-0.5c0-0.2-0.1-0.3-0.2-0.4c-0.1-0.1-0.4-0.2-0.8-0.3c-0.5-0.1-0.9-0.3-1.1-0.4c-0.2-0.1-0.4-0.2-0.5-0.4
						c-0.1-0.2-0.2-0.4-0.2-0.6c0-0.2,0-0.4,0.1-0.5c0.1-0.2,0.2-0.3,0.4-0.4c0.1-0.1,0.3-0.2,0.5-0.2c0.2-0.1,0.4-0.1,0.6-0.1
						c0.3,0,0.7,0,0.9,0.1c0.3,0.1,0.5,0.2,0.6,0.4c0.1,0.2,0.2,0.4,0.3,0.7l-0.7,0.1c0-0.2-0.1-0.4-0.3-0.5
						c-0.2-0.1-0.4-0.2-0.7-0.2c-0.3,0-0.6,0.1-0.7,0.2c-0.1,0.1-0.2,0.2-0.2,0.4c0,0.1,0,0.2,0.1,0.3c0.1,0.1,0.2,0.1,0.3,0.2
						c0.1,0,0.3,0.1,0.7,0.2c0.5,0.1,0.9,0.3,1.1,0.3c0.2,0.1,0.4,0.2,0.5,0.4c0.1,0.2,0.2,0.4,0.2,0.6c0,0.2-0.1,0.5-0.2,0.7
						c-0.1,0.2-0.4,0.4-0.6,0.5c-0.3,0.1-0.6,0.2-0.9,0.2c-0.6,0-1-0.1-1.3-0.4C87.6,403.2,87.4,402.9,87.3,402.4z"/>
					<path class="st1" d="M93.5,403l0.1,0.7c-0.2,0-0.4,0.1-0.6,0.1c-0.3,0-0.5,0-0.6-0.1c-0.1-0.1-0.3-0.2-0.3-0.3
						c-0.1-0.1-0.1-0.4-0.1-0.9v-2.5h-0.5v-0.6H92v-1.1l0.7-0.4v1.5h0.8v0.6h-0.8v2.6c0,0.2,0,0.4,0,0.4c0,0.1,0.1,0.1,0.1,0.1
						s0.1,0.1,0.3,0.1C93.3,403.1,93.4,403.1,93.5,403z"/>
				</g>
				<g>
					<path class="st31" d="M196.2,396.6h-14c-1.3,0-2.3-1-2.3-2.3v-14c0-1.3,1-2.3,2.3-2.3h14c1.3,0,2.3,1,2.3,2.3v14
						C198.5,395.6,197.5,396.6,196.2,396.6z"/>
					<g>
						<path class="st32" d="M189.3,391.8c-0.2,0-0.4,0-0.6-0.1c-0.2-0.1-0.4-0.2-0.6-0.3c-0.2-0.1-0.3-0.3-0.4-0.4
							c-0.1-0.2-0.2-0.4-0.2-0.6v-3.5h-0.7l-0.6-0.8h1.4v-1.5c0-0.2-0.1-0.4-0.3-0.4c-0.2-0.1-0.5,0-0.7,0.1
							c-0.2-0.2-0.3-0.4-0.3-0.6c0-0.2,0-0.3,0.1-0.5c0.1-0.1,0.2-0.2,0.4-0.3c0.2-0.1,0.3-0.1,0.5-0.1c0.2,0,0.4,0,0.5,0.1
							c0.1,0.1,0.3,0.2,0.4,0.3c0.1,0.1,0.2,0.3,0.2,0.4c0.1,0.2,0.1,0.3,0.1,0.5c0,0.2,0,0.4,0,0.5c0,0.2,0,0.4,0,0.5
							c0,0.1,0,0.3,0,0.4c0,0.1,0,0.3,0,0.4h0.5l0.7,0.8h-1.2v3.2c0,0.2,0,0.4,0.1,0.5c0.1,0.1,0.1,0.2,0.3,0.3c0.1,0,0.2,0,0.4,0
							c0.1,0,0.3-0.1,0.5-0.2c0.2-0.1,0.3-0.2,0.5-0.3c0.2-0.1,0.3-0.3,0.4-0.4c0.1-0.1,0.2-0.3,0.3-0.4c0.1-0.1,0.1-0.3,0.1-0.4
							c0-0.1,0-0.1-0.1-0.3c-0.2,0.1-0.4,0.1-0.5,0.1c-0.2,0-0.3-0.1-0.4-0.1c-0.1-0.1-0.2-0.2-0.3-0.3c-0.1-0.1-0.1-0.3-0.1-0.4
							c0-0.2,0-0.3,0-0.5c0-0.2,0.1-0.3,0.2-0.4c0.1-0.1,0.2-0.2,0.4-0.3s0.4-0.1,0.6-0.1c0.3,0,0.6,0.1,0.8,0.2
							c0.2,0.2,0.3,0.4,0.4,0.6c0.1,0.2,0.1,0.5,0.1,0.8c0,0.3-0.1,0.6-0.1,0.9c-0.1,0.3-0.2,0.6-0.4,0.9c-0.2,0.3-0.4,0.6-0.6,0.8
							c-0.2,0.2-0.5,0.4-0.8,0.6C190,391.8,189.6,391.8,189.3,391.8z"/>
					</g>
				</g>
			</g>
		</g>
		<g>
			<path class="st28" d="M207.3,466.5H28.6c-1.5,0-2.7-1.2-2.7-2.7v-37.9c0-1.5,1.2-2.7,2.7-2.7h178.7c1.5,0,2.7,1.2,2.7,2.7v37.9
				C210,465.3,208.8,466.5,207.3,466.5z"/>
			<g>
				<g>
					<path class="st30" d="M32.2,434.6c0-1.1,0.1-1.9,0.3-2.6c0.2-0.7,0.5-1.2,1-1.5c0.4-0.4,1-0.5,1.6-0.5c0.5,0,0.9,0.1,1.3,0.3
						c0.4,0.2,0.7,0.5,0.9,0.8c0.2,0.4,0.4,0.8,0.6,1.3c0.1,0.5,0.2,1.2,0.2,2.1c0,1.1-0.1,1.9-0.3,2.6c-0.2,0.7-0.5,1.2-1,1.5
						c-0.4,0.4-1,0.5-1.6,0.5c-0.9,0-1.6-0.3-2.1-0.9C32.5,437.5,32.2,436.3,32.2,434.6z M33.3,434.6c0,1.5,0.2,2.5,0.5,3
						c0.3,0.5,0.8,0.7,1.3,0.7c0.5,0,0.9-0.2,1.3-0.7s0.5-1.5,0.5-3c0-1.5-0.2-2.5-0.5-3c-0.3-0.5-0.8-0.7-1.3-0.7
						c-0.5,0-0.9,0.2-1.2,0.6C33.5,432.1,33.3,433.1,33.3,434.6z"/>
					<path class="st30" d="M39.9,439.1v-1.3h1.3v1.3H39.9z"/>
					<path class="st30" d="M42.8,434.6c0-1.1,0.1-1.9,0.3-2.6s0.5-1.2,1-1.5c0.4-0.4,1-0.5,1.6-0.5c0.5,0,0.9,0.1,1.3,0.3
						c0.4,0.2,0.7,0.5,0.9,0.8c0.2,0.4,0.4,0.8,0.6,1.3c0.1,0.5,0.2,1.2,0.2,2.1c0,1.1-0.1,1.9-0.3,2.6c-0.2,0.7-0.5,1.2-1,1.5
						c-0.4,0.4-1,0.5-1.6,0.5c-0.9,0-1.6-0.3-2.1-0.9C43.1,437.5,42.8,436.3,42.8,434.6z M43.9,434.6c0,1.5,0.2,2.5,0.5,3
						c0.3,0.5,0.8,0.7,1.3,0.7c0.5,0,0.9-0.2,1.3-0.7c0.3-0.5,0.5-1.5,0.5-3c0-1.5-0.2-2.5-0.5-3c-0.3-0.5-0.8-0.7-1.3-0.7
						c-0.5,0-0.9,0.2-1.2,0.6C44.1,432.1,43.9,433.1,43.9,434.6z"/>
					<path class="st30" d="M49.8,434.6c0-1.1,0.1-1.9,0.3-2.6c0.2-0.7,0.5-1.2,1-1.5c0.4-0.4,1-0.5,1.6-0.5c0.5,0,0.9,0.1,1.3,0.3
						c0.4,0.2,0.7,0.5,0.9,0.8c0.2,0.4,0.4,0.8,0.6,1.3c0.1,0.5,0.2,1.2,0.2,2.1c0,1.1-0.1,1.9-0.3,2.6c-0.2,0.7-0.5,1.2-1,1.5
						c-0.4,0.4-1,0.5-1.6,0.5c-0.9,0-1.6-0.3-2.1-0.9C50.1,437.5,49.8,436.3,49.8,434.6z M51,434.6c0,1.5,0.2,2.5,0.5,3
						c0.3,0.5,0.8,0.7,1.3,0.7s0.9-0.2,1.3-0.7c0.3-0.5,0.5-1.5,0.5-3c0-1.5-0.2-2.5-0.5-3c-0.3-0.5-0.8-0.7-1.3-0.7
						c-0.5,0-0.9,0.2-1.2,0.6C51.1,432.1,51,433.1,51,434.6z"/>
				</g>
				<g>
					<path class="st1" d="M32.3,452.8v-6.1h1.2L35,451c0.1,0.4,0.2,0.7,0.3,0.9c0.1-0.2,0.2-0.5,0.3-1l1.5-4.2h1.1v6.1h-0.8v-5.1
						l-1.8,5.1h-0.7l-1.8-5.2v5.2H32.3z"/>
					<path class="st1" d="M42.2,452.3c-0.3,0.2-0.5,0.4-0.8,0.5c-0.3,0.1-0.5,0.1-0.8,0.1c-0.5,0-0.9-0.1-1.1-0.4
						c-0.3-0.2-0.4-0.5-0.4-0.9c0-0.2,0-0.4,0.1-0.6c0.1-0.2,0.2-0.3,0.4-0.4c0.2-0.1,0.3-0.2,0.5-0.2c0.1,0,0.4-0.1,0.7-0.1
						c0.6-0.1,1-0.2,1.3-0.3c0-0.1,0-0.2,0-0.2c0-0.3-0.1-0.5-0.2-0.6c-0.2-0.2-0.5-0.3-0.9-0.3c-0.4,0-0.6,0.1-0.8,0.2
						c-0.2,0.1-0.3,0.3-0.4,0.7l-0.7-0.1c0.1-0.3,0.2-0.6,0.3-0.8s0.4-0.3,0.7-0.4s0.6-0.2,1-0.2c0.4,0,0.7,0,0.9,0.1
						c0.2,0.1,0.4,0.2,0.5,0.3c0.1,0.1,0.2,0.3,0.2,0.5c0,0.1,0,0.4,0,0.7v1c0,0.7,0,1.1,0,1.3c0,0.2,0.1,0.4,0.2,0.5h-0.8
						C42.3,452.7,42.2,452.5,42.2,452.3z M42.2,450.6c-0.3,0.1-0.7,0.2-1.2,0.3c-0.3,0-0.5,0.1-0.7,0.1c-0.1,0.1-0.2,0.1-0.3,0.2
						c-0.1,0.1-0.1,0.2-0.1,0.4c0,0.2,0.1,0.4,0.2,0.5c0.2,0.1,0.4,0.2,0.7,0.2c0.3,0,0.5-0.1,0.8-0.2c0.2-0.1,0.4-0.3,0.5-0.5
						c0.1-0.2,0.1-0.4,0.1-0.7V450.6z"/>
					<path class="st1" d="M43.6,452.8l1.6-2.3l-1.5-2.1h0.9l0.7,1c0.1,0.2,0.2,0.4,0.3,0.5c0.1-0.2,0.2-0.3,0.3-0.5l0.7-1h0.9
						l-1.5,2.1l1.6,2.3h-0.9l-0.9-1.4l-0.2-0.4l-1.2,1.7H43.6z"/>
					<path class="st1" d="M51.9,452.8l-1.6-6.1h0.8l0.9,4c0.1,0.4,0.2,0.8,0.3,1.2c0.2-0.7,0.2-1,0.3-1.1l1.2-4.1h1l0.9,3.1
						c0.2,0.8,0.4,1.5,0.5,2.2c0.1-0.4,0.2-0.8,0.3-1.3l1-3.9h0.8l-1.7,6.1h-0.8l-1.3-4.6c-0.1-0.4-0.2-0.6-0.2-0.7
						c-0.1,0.3-0.1,0.5-0.2,0.7l-1.3,4.6H51.9z"/>
					<path class="st1" d="M58.7,447.6v-0.9h0.7v0.9H58.7z M58.7,452.8v-4.4h0.7v4.4H58.7z"/>
					<path class="st1" d="M62.3,452.1l0.1,0.7c-0.2,0-0.4,0.1-0.6,0.1c-0.3,0-0.5,0-0.6-0.1c-0.1-0.1-0.3-0.2-0.3-0.3
						c-0.1-0.1-0.1-0.4-0.1-0.9V449h-0.5v-0.6h0.5v-1.1l0.7-0.4v1.5h0.8v0.6h-0.8v2.6c0,0.2,0,0.4,0,0.4c0,0.1,0.1,0.1,0.1,0.1
						c0.1,0,0.1,0.1,0.3,0.1C62,452.2,62.1,452.2,62.3,452.1z"/>
					<path class="st1" d="M63,452.8v-6.1h0.7v2.2c0.3-0.4,0.8-0.6,1.3-0.6c0.3,0,0.6,0.1,0.9,0.2c0.2,0.1,0.4,0.3,0.5,0.5
						s0.2,0.6,0.2,1v2.8h-0.7V450c0-0.4-0.1-0.6-0.2-0.8c-0.2-0.2-0.4-0.3-0.7-0.3c-0.2,0-0.4,0.1-0.6,0.2c-0.2,0.1-0.3,0.3-0.4,0.5
						c-0.1,0.2-0.1,0.5-0.1,0.8v2.4H63z"/>
					<path class="st1" d="M70.6,452.8v-0.6c-0.3,0.4-0.7,0.7-1.2,0.7c-0.4,0-0.7-0.1-1-0.3c-0.3-0.2-0.5-0.5-0.7-0.8
						c-0.2-0.3-0.2-0.7-0.2-1.2c0-0.4,0.1-0.8,0.2-1.2c0.1-0.4,0.4-0.6,0.7-0.8c0.3-0.2,0.6-0.3,1-0.3c0.3,0,0.5,0.1,0.7,0.2
						c0.2,0.1,0.4,0.3,0.5,0.4v-2.2h0.7v6.1H70.6z M68.2,450.6c0,0.6,0.1,1,0.4,1.3c0.2,0.3,0.5,0.4,0.8,0.4c0.3,0,0.6-0.1,0.8-0.4
						c0.2-0.3,0.3-0.7,0.3-1.2c0-0.6-0.1-1-0.4-1.3c-0.2-0.3-0.5-0.4-0.9-0.4c-0.3,0-0.6,0.1-0.8,0.4
						C68.3,449.6,68.2,450,68.2,450.6z"/>
					<path class="st1" d="M72.5,452.8v-4.4h0.7v0.7c0.2-0.3,0.3-0.5,0.5-0.6c0.1-0.1,0.3-0.1,0.5-0.1c0.3,0,0.5,0.1,0.8,0.2
						l-0.3,0.7c-0.2-0.1-0.4-0.2-0.5-0.2c-0.2,0-0.3,0-0.4,0.1s-0.2,0.2-0.3,0.4c-0.1,0.3-0.1,0.6-0.1,0.9v2.3H72.5z"/>
					<path class="st1" d="M78.2,452.3c-0.3,0.2-0.5,0.4-0.8,0.5c-0.3,0.1-0.5,0.1-0.8,0.1c-0.5,0-0.9-0.1-1.1-0.4
						c-0.3-0.2-0.4-0.5-0.4-0.9c0-0.2,0-0.4,0.1-0.6c0.1-0.2,0.2-0.3,0.4-0.4c0.2-0.1,0.3-0.2,0.5-0.2c0.1,0,0.4-0.1,0.7-0.1
						c0.6-0.1,1-0.2,1.3-0.3c0-0.1,0-0.2,0-0.2c0-0.3-0.1-0.5-0.2-0.6c-0.2-0.2-0.5-0.3-0.9-0.3c-0.4,0-0.6,0.1-0.8,0.2
						c-0.2,0.1-0.3,0.3-0.4,0.7l-0.7-0.1c0.1-0.3,0.2-0.6,0.3-0.8s0.4-0.3,0.7-0.4s0.6-0.2,1-0.2c0.4,0,0.7,0,0.9,0.1
						c0.2,0.1,0.4,0.2,0.5,0.3c0.1,0.1,0.2,0.3,0.2,0.5c0,0.1,0,0.4,0,0.7v1c0,0.7,0,1.1,0,1.3c0,0.2,0.1,0.4,0.2,0.5h-0.8
						C78.3,452.7,78.2,452.5,78.2,452.3z M78.1,450.6c-0.3,0.1-0.7,0.2-1.2,0.3c-0.3,0-0.5,0.1-0.7,0.1c-0.1,0.1-0.2,0.1-0.3,0.2
						c-0.1,0.1-0.1,0.2-0.1,0.4c0,0.2,0.1,0.4,0.2,0.5c0.2,0.1,0.4,0.2,0.7,0.2c0.3,0,0.5-0.1,0.8-0.2c0.2-0.1,0.4-0.3,0.5-0.5
						c0.1-0.2,0.1-0.4,0.1-0.7V450.6z"/>
					<path class="st1" d="M80.9,452.8l-1.4-4.4h0.8l0.7,2.5l0.3,0.9c0,0,0.1-0.4,0.2-0.9l0.7-2.6h0.8l0.7,2.6l0.2,0.8l0.3-0.9
						l0.8-2.6h0.7l-1.4,4.4h-0.8l-0.7-2.6l-0.2-0.8l-0.9,3.4H80.9z"/>
					<path class="st1" d="M89.1,452.3c-0.3,0.2-0.5,0.4-0.8,0.5c-0.3,0.1-0.5,0.1-0.8,0.1c-0.5,0-0.9-0.1-1.1-0.4
						c-0.3-0.2-0.4-0.5-0.4-0.9c0-0.2,0-0.4,0.1-0.6c0.1-0.2,0.2-0.3,0.4-0.4c0.2-0.1,0.3-0.2,0.5-0.2c0.1,0,0.4-0.1,0.7-0.1
						c0.6-0.1,1-0.2,1.3-0.3c0-0.1,0-0.2,0-0.2c0-0.3-0.1-0.5-0.2-0.6c-0.2-0.2-0.5-0.3-0.9-0.3c-0.4,0-0.6,0.1-0.8,0.2
						c-0.2,0.1-0.3,0.3-0.4,0.7l-0.7-0.1c0.1-0.3,0.2-0.6,0.3-0.8s0.4-0.3,0.7-0.4s0.6-0.2,1-0.2c0.4,0,0.7,0,0.9,0.1
						c0.2,0.1,0.4,0.2,0.5,0.3c0.1,0.1,0.2,0.3,0.2,0.5c0,0.1,0,0.4,0,0.7v1c0,0.7,0,1.1,0,1.3c0,0.2,0.1,0.4,0.2,0.5h-0.8
						C89.1,452.7,89.1,452.5,89.1,452.3z M89,450.6c-0.3,0.1-0.7,0.2-1.2,0.3c-0.3,0-0.5,0.1-0.7,0.1c-0.1,0.1-0.2,0.1-0.3,0.2
						c-0.1,0.1-0.1,0.2-0.1,0.4c0,0.2,0.1,0.4,0.2,0.5c0.2,0.1,0.4,0.2,0.7,0.2c0.3,0,0.5-0.1,0.8-0.2c0.2-0.1,0.4-0.3,0.5-0.5
						c0.1-0.2,0.1-0.4,0.1-0.7V450.6z"/>
					<path class="st1" d="M90.9,452.8v-6.1h0.7v6.1H90.9z"/>
					<path class="st1" d="M95.3,452.8v-6.1h0.8v5.4h3v0.7H95.3z"/>
					<path class="st1" d="M99.9,447.6v-0.9h0.7v0.9H99.9z M99.9,452.8v-4.4h0.7v4.4H99.9z"/>
					<path class="st1" d="M101.8,452.8v-4.4h0.7v0.6c0.1-0.2,0.3-0.4,0.6-0.5c0.2-0.1,0.5-0.2,0.8-0.2c0.3,0,0.6,0.1,0.8,0.2
						c0.2,0.1,0.4,0.3,0.4,0.6c0.3-0.5,0.8-0.8,1.4-0.8c0.4,0,0.8,0.1,1,0.4c0.2,0.2,0.4,0.6,0.4,1.1v3h-0.7V450
						c0-0.3,0-0.5-0.1-0.6c0-0.1-0.1-0.2-0.3-0.3c-0.1-0.1-0.3-0.1-0.4-0.1c-0.3,0-0.6,0.1-0.8,0.3c-0.2,0.2-0.3,0.5-0.3,1v2.6h-0.7
						v-2.9c0-0.3-0.1-0.6-0.2-0.7c-0.1-0.2-0.3-0.2-0.6-0.2c-0.2,0-0.4,0.1-0.6,0.2c-0.2,0.1-0.3,0.3-0.4,0.5
						c-0.1,0.2-0.1,0.5-0.1,0.9v2.3H101.8z"/>
					<path class="st1" d="M108.9,447.6v-0.9h0.7v0.9H108.9z M108.9,452.8v-4.4h0.7v4.4H108.9z"/>
					<path class="st1" d="M112.4,452.1l0.1,0.7c-0.2,0-0.4,0.1-0.6,0.1c-0.3,0-0.5,0-0.6-0.1c-0.1-0.1-0.3-0.2-0.3-0.3
						c-0.1-0.1-0.1-0.4-0.1-0.9V449h-0.5v-0.6h0.5v-1.1l0.7-0.4v1.5h0.8v0.6h-0.8v2.6c0,0.2,0,0.4,0,0.4c0,0.1,0.1,0.1,0.1,0.1
						c0.1,0,0.1,0.1,0.3,0.1C112.2,452.2,112.3,452.2,112.4,452.1z"/>
				</g>
				<g>
					<path class="st31" d="M196.2,445.7h-14c-1.3,0-2.3-1-2.3-2.3v-14c0-1.3,1-2.3,2.3-2.3h14c1.3,0,2.3,1,2.3,2.3v14
						C198.5,444.7,197.5,445.7,196.2,445.7z"/>
					<g>
						<path class="st32" d="M189.3,440.9c-0.2,0-0.4,0-0.6-0.1c-0.2-0.1-0.4-0.2-0.6-0.3c-0.2-0.1-0.3-0.3-0.4-0.4
							c-0.1-0.2-0.2-0.4-0.2-0.6V436h-0.7l-0.6-0.8h1.4v-1.5c0-0.2-0.1-0.4-0.3-0.4c-0.2-0.1-0.5,0-0.7,0.1
							c-0.2-0.2-0.3-0.4-0.3-0.6c0-0.2,0-0.3,0.1-0.5c0.1-0.1,0.2-0.2,0.4-0.3c0.2-0.1,0.3-0.1,0.5-0.1c0.2,0,0.4,0,0.5,0.1
							c0.1,0.1,0.3,0.2,0.4,0.3c0.1,0.1,0.2,0.3,0.2,0.4c0.1,0.2,0.1,0.3,0.1,0.5c0,0.2,0,0.4,0,0.5c0,0.2,0,0.4,0,0.5
							c0,0.1,0,0.3,0,0.4c0,0.1,0,0.3,0,0.4h0.5l0.7,0.8h-1.2v3.2c0,0.2,0,0.4,0.1,0.5c0.1,0.1,0.1,0.2,0.3,0.3c0.1,0,0.2,0,0.4,0
							c0.1,0,0.3-0.1,0.5-0.2c0.2-0.1,0.3-0.2,0.5-0.3c0.2-0.1,0.3-0.3,0.4-0.4c0.1-0.1,0.2-0.3,0.3-0.4c0.1-0.1,0.1-0.3,0.1-0.4
							c0-0.1,0-0.1-0.1-0.3c-0.2,0.1-0.4,0.1-0.5,0.1c-0.2,0-0.3-0.1-0.4-0.1c-0.1-0.1-0.2-0.2-0.3-0.3c-0.1-0.1-0.1-0.3-0.1-0.4
							c0-0.2,0-0.3,0-0.5c0-0.2,0.1-0.3,0.2-0.4c0.1-0.1,0.2-0.2,0.4-0.3c0.2-0.1,0.4-0.1,0.6-0.1c0.3,0,0.6,0.1,0.8,0.2
							c0.2,0.2,0.3,0.4,0.4,0.6c0.1,0.2,0.1,0.5,0.1,0.8c0,0.3-0.1,0.6-0.1,0.9c-0.1,0.3-0.2,0.6-0.4,0.9c-0.2,0.3-0.4,0.6-0.6,0.8
							c-0.2,0.2-0.5,0.4-0.8,0.6C190,440.9,189.6,440.9,189.3,440.9z"/>
					</g>
				</g>
			</g>
		</g>
		<g>
			<path class="st28" d="M29.7,124.9v-13.6h9.2v1.6h-7.4v4.2h6.4v1.6h-6.4v6.2H29.7z"/>
			<path class="st28" d="M47.5,124.9v-1.5c-0.8,1.1-1.8,1.7-3.1,1.7c-0.6,0-1.1-0.1-1.6-0.3c-0.5-0.2-0.9-0.5-1.1-0.8
				c-0.2-0.3-0.4-0.8-0.5-1.2c-0.1-0.3-0.1-0.8-0.1-1.6V115h1.7v5.5c0,0.9,0,1.5,0.1,1.8c0.1,0.4,0.3,0.8,0.7,1
				c0.3,0.3,0.8,0.4,1.3,0.4c0.5,0,1-0.1,1.4-0.4c0.4-0.3,0.8-0.6,0.9-1.1c0.2-0.4,0.3-1.1,0.3-1.9V115H49v9.9H47.5z"/>
			<path class="st28" d="M51.6,124.9V115h1.5v1.4c0.7-1.1,1.8-1.6,3.1-1.6c0.6,0,1.1,0.1,1.6,0.3c0.5,0.2,0.9,0.5,1.1,0.8
				c0.3,0.3,0.4,0.8,0.5,1.2c0.1,0.3,0.1,0.9,0.1,1.6v6.1H58v-6c0-0.7-0.1-1.2-0.2-1.5c-0.1-0.3-0.4-0.6-0.7-0.8
				c-0.3-0.2-0.7-0.3-1.2-0.3c-0.7,0-1.3,0.2-1.8,0.7c-0.5,0.5-0.8,1.3-0.8,2.6v5.4H51.6z"/>
			<path class="st28" d="M68.7,124.9v-1.2c-0.6,1-1.5,1.5-2.8,1.5c-0.8,0-1.5-0.2-2.2-0.6c-0.7-0.4-1.2-1-1.5-1.8
				c-0.4-0.8-0.5-1.7-0.5-2.7c0-1,0.2-1.9,0.5-2.7s0.8-1.4,1.5-1.8c0.7-0.4,1.4-0.6,2.2-0.6c0.6,0,1.1,0.1,1.6,0.4
				c0.5,0.3,0.8,0.6,1.1,1v-4.9h1.7v13.6H68.7z M63.4,120c0,1.3,0.3,2.2,0.8,2.8c0.5,0.6,1.2,0.9,1.9,0.9c0.7,0,1.4-0.3,1.9-0.9
				c0.5-0.6,0.8-1.5,0.8-2.7c0-1.4-0.3-2.3-0.8-3c-0.5-0.6-1.2-1-1.9-1c-0.7,0-1.4,0.3-1.9,0.9C63.6,117.7,63.4,118.7,63.4,120z"/>
			<path class="st28" d="M80.7,124.9l-3.6-13.6H79l2.1,8.9c0.2,0.9,0.4,1.9,0.6,2.8c0.3-1.5,0.6-2.3,0.6-2.5l2.6-9.2H87l2,6.9
				c0.5,1.7,0.8,3.3,1.1,4.8c0.2-0.9,0.4-1.9,0.7-3l2.1-8.8h1.8l-3.7,13.6h-1.7l-2.9-10.4c-0.2-0.9-0.4-1.4-0.4-1.6
				c-0.1,0.6-0.3,1.2-0.4,1.6l-2.9,10.4H80.7z"/>
			<path class="st28" d="M96.1,113.2v-1.9h1.7v1.9H96.1z M96.1,124.9V115h1.7v9.9H96.1z"/>
			<path class="st28" d="M104,123.4l0.2,1.5c-0.5,0.1-0.9,0.1-1.3,0.1c-0.6,0-1.1-0.1-1.4-0.3c-0.3-0.2-0.6-0.4-0.7-0.8
				c-0.1-0.3-0.2-1-0.2-2v-5.7h-1.2V115h1.2v-2.4l1.7-1v3.5h1.7v1.3h-1.7v5.8c0,0.5,0,0.8,0.1,0.9c0.1,0.1,0.2,0.2,0.3,0.3
				c0.1,0.1,0.3,0.1,0.6,0.1C103.5,123.5,103.7,123.4,104,123.4z"/>
			<path class="st28" d="M105.7,124.9v-13.6h1.7v4.9c0.8-0.9,1.8-1.4,3-1.4c0.7,0,1.4,0.1,1.9,0.4c0.5,0.3,0.9,0.7,1.2,1.2
				c0.2,0.5,0.4,1.2,0.4,2.2v6.3H112v-6.3c0-0.8-0.2-1.4-0.5-1.8c-0.4-0.4-0.9-0.6-1.5-0.6c-0.5,0-1,0.1-1.4,0.4
				c-0.4,0.3-0.7,0.6-0.9,1c-0.2,0.4-0.3,1-0.3,1.8v5.4H105.7z"/>
			<path class="st28" d="M122.7,124.9v-1.2c-0.6,1-1.5,1.5-2.8,1.5c-0.8,0-1.5-0.2-2.2-0.6c-0.7-0.4-1.2-1-1.5-1.8
				c-0.4-0.8-0.5-1.7-0.5-2.7c0-1,0.2-1.9,0.5-2.7c0.3-0.8,0.8-1.4,1.5-1.8c0.7-0.4,1.4-0.6,2.2-0.6c0.6,0,1.1,0.1,1.6,0.4
				c0.5,0.3,0.8,0.6,1.1,1v-4.9h1.7v13.6H122.7z M117.4,120c0,1.3,0.3,2.2,0.8,2.8c0.5,0.6,1.2,0.9,1.9,0.9c0.7,0,1.4-0.3,1.9-0.9
				c0.5-0.6,0.8-1.5,0.8-2.7c0-1.4-0.3-2.3-0.8-3s-1.2-1-1.9-1c-0.7,0-1.4,0.3-1.9,0.9C117.6,117.7,117.4,118.7,117.4,120z"/>
			<path class="st28" d="M126.9,124.9V115h1.5v1.5c0.4-0.7,0.7-1.2,1.1-1.4c0.3-0.2,0.7-0.3,1.1-0.3c0.6,0,1.1,0.2,1.7,0.5l-0.6,1.6
				c-0.4-0.2-0.8-0.4-1.2-0.4c-0.4,0-0.7,0.1-1,0.3c-0.3,0.2-0.5,0.5-0.6,0.9c-0.2,0.6-0.3,1.2-0.3,2v5.2H126.9z"/>
			<path class="st28" d="M139.7,123.7c-0.6,0.5-1.2,0.9-1.8,1.1c-0.6,0.2-1.2,0.3-1.8,0.3c-1.1,0-1.9-0.3-2.5-0.8
				c-0.6-0.5-0.9-1.2-0.9-2c0-0.5,0.1-0.9,0.3-1.3c0.2-0.4,0.5-0.7,0.9-1c0.4-0.2,0.8-0.4,1.2-0.5c0.3-0.1,0.8-0.2,1.5-0.3
				c1.4-0.2,2.3-0.4,3-0.6c0-0.2,0-0.4,0-0.4c0-0.7-0.2-1.2-0.5-1.4c-0.4-0.4-1.1-0.6-1.9-0.6c-0.8,0-1.4,0.1-1.7,0.4
				c-0.4,0.3-0.7,0.8-0.8,1.5l-1.6-0.2c0.1-0.7,0.4-1.3,0.7-1.7s0.8-0.8,1.5-1c0.6-0.2,1.4-0.3,2.2-0.3c0.8,0,1.5,0.1,2.1,0.3
				c0.5,0.2,0.9,0.4,1.2,0.7c0.2,0.3,0.4,0.7,0.5,1.1c0.1,0.3,0.1,0.8,0.1,1.5v2.2c0,1.6,0,2.5,0.1,3c0.1,0.4,0.2,0.8,0.4,1.2H140
				C139.8,124.6,139.7,124.1,139.7,123.7z M139.5,119.9c-0.6,0.2-1.5,0.5-2.7,0.6c-0.7,0.1-1.2,0.2-1.5,0.3
				c-0.3,0.1-0.5,0.3-0.7,0.5c-0.2,0.2-0.2,0.5-0.2,0.8c0,0.4,0.2,0.8,0.5,1.1c0.3,0.3,0.8,0.4,1.5,0.4c0.6,0,1.2-0.1,1.7-0.4
				c0.5-0.3,0.9-0.7,1.1-1.2c0.2-0.4,0.3-0.9,0.3-1.7V119.9z"/>
			<path class="st28" d="M145.6,124.9l-3-9.9h1.7l1.6,5.7l0.6,2.1c0-0.1,0.2-0.8,0.5-2l1.6-5.8h1.7l1.5,5.7l0.5,1.9l0.6-1.9l1.7-5.7
				h1.6l-3.1,9.9h-1.7l-1.6-5.9l-0.4-1.7l-2,7.6H145.6z"/>
			<path class="st28" d="M164,123.7c-0.6,0.5-1.2,0.9-1.8,1.1c-0.6,0.2-1.2,0.3-1.8,0.3c-1.1,0-1.9-0.3-2.5-0.8
				c-0.6-0.5-0.9-1.2-0.9-2c0-0.5,0.1-0.9,0.3-1.3c0.2-0.4,0.5-0.7,0.9-1c0.4-0.2,0.8-0.4,1.2-0.5c0.3-0.1,0.8-0.2,1.5-0.3
				c1.4-0.2,2.3-0.4,3-0.6c0-0.2,0-0.4,0-0.4c0-0.7-0.2-1.2-0.5-1.4c-0.4-0.4-1.1-0.6-1.9-0.6c-0.8,0-1.4,0.1-1.7,0.4
				c-0.4,0.3-0.7,0.8-0.8,1.5l-1.6-0.2c0.1-0.7,0.4-1.3,0.7-1.7s0.8-0.8,1.5-1c0.6-0.2,1.4-0.3,2.2-0.3c0.8,0,1.5,0.1,2.1,0.3
				c0.5,0.2,0.9,0.4,1.2,0.7s0.4,0.7,0.5,1.1c0.1,0.3,0.1,0.8,0.1,1.5v2.2c0,1.6,0,2.5,0.1,3c0.1,0.4,0.2,0.8,0.4,1.2h-1.8
				C164.2,124.6,164.1,124.1,164,123.7z M163.9,119.9c-0.6,0.2-1.5,0.5-2.7,0.6c-0.7,0.1-1.2,0.2-1.5,0.3c-0.3,0.1-0.5,0.3-0.7,0.5
				c-0.2,0.2-0.2,0.5-0.2,0.8c0,0.4,0.2,0.8,0.5,1.1c0.3,0.3,0.8,0.4,1.5,0.4c0.6,0,1.2-0.1,1.7-0.4c0.5-0.3,0.9-0.7,1.1-1.2
				c0.2-0.4,0.3-0.9,0.3-1.7V119.9z"/>
			<path class="st28" d="M168.2,124.9v-13.6h1.7v13.6H168.2z"/>
		</g>
	</g>
</g>
</svg>
