<?xml version="1.0" encoding="utf-8"?>
<!-- Generator: Adobe Illustrator 26.0.1, SVG Export Plug-In . SVG Version: 6.00 Build 0)  -->
<svg version="1.1" id="Layer_1" xmlns="http://www.w3.org/2000/svg" xmlns:xlink="http://www.w3.org/1999/xlink" x="0px" y="0px"
	 viewBox="0 0 235.9 491.1" style="enable-background:new 0 0 235.9 491.1;" xml:space="preserve">
<style type="text/css">
	.st0{fill:#115D33;}
	.st1{fill:#231F20;}
	.st2{fill:#FFFFFF;}
	.st3{fill:#F68832;}
	.st4{fill:#078241;}
	.st5{fill:#0E4525;}
	.st6{fill:#186A60;}
	.st7{fill:#8F9393;}
	.st8{fill:#F6852B;}
	.st9{fill:#A33123;}
	.st10{fill:#B8342A;}
	.st11{fill:none;}
	.st12{fill:#669A9D;}
	.st13{fill:#F3D1B6;}
	.st14{fill:#E1C1A9;}
	.st15{fill:#C1DAEA;}
	.st16{fill:#8CD0DE;}
	.st17{fill:#E4E4E4;}
	.st18{fill:#FED8B7;}
	.st19{fill:#8D643D;}
	.st20{fill:#F2CFB5;}
	.st21{fill:#A2C1E6;}
	.st22{fill:#F6FBFD;}
	.st23{fill:#F7F8F9;}
	.st24{fill:#BEBDBF;}
	.st25{fill:#F2F4F5;}
	.st26{fill:#BCBDBF;}
	.st27{fill:#221F1F;}
	.st28{fill:#16695F;}
	.st29{fill:#2175BB;}
	.st30{fill:#FBED1D;}
	.st31{fill:#0F735F;}
	.st32{fill:#4FB862;}
	.st33{fill:#CFD1D2;}
	.st34{fill:#E9E8E9;}
	.st35{fill:#E9ECED;}
</style>
<path class="st0" d="M203.6,484.3H32.3c-14.1,0-25.6-11.4-25.6-25.6V32.4c0-14.1,11.4-25.6,25.6-25.6h171.3
	c14.1,0,25.6,11.4,25.6,25.6v426.3C229.2,472.8,217.7,484.3,203.6,484.3z"/>
<g>
	<path class="st0" d="M203.4,1.6c17,0,30.9,13.9,30.9,31.1v425.7c0,17.1-13.9,31.1-30.9,31.1H32.5c-17,0-30.9-13.9-30.9-31.1V32.7
		c0-17.1,13.9-31.1,30.9-31.1H203.4 M203.4,0H32.5C14.6,0,0,14.7,0,32.7v425.7c0,18,14.6,32.7,32.5,32.7h170.9
		c17.9,0,32.5-14.7,32.5-32.7V32.7C235.9,14.7,221.3,0,203.4,0L203.4,0z"/>
</g>
<g>
	<rect x="6.7" y="32.5" class="st5" width="222.4" height="24.5"/>
</g>
<g>
	<rect x="6.7" y="57" class="st6" width="222.4" height="37.9"/>
</g>
<g>
	<g>
		<g id="XMLID_00000151504254733291610880000002823311317241441458_">
			<g id="XMLID_00000173868961388025140010000017036191675428848556_">
				<path class="st7" d="M27.8,83.3h4.3c1.6,0,2.7-0.4,3.1-1.1c0.1-0.1,0.1-0.2,0.2-0.3l-3.9-1.3L27.8,83.3z"/>
			</g>
			<g id="XMLID_00000138555234906914349490000005478220919834174082_">
				<path class="st7" d="M30.4,80.6H30v-2.2h1.5c0.5,0,0.8,0.1,1,0.4c0.2,0.2,0.3,0.5,0.3,0.8s-0.1,0.5-0.3,0.8l0,0l3.2,1
					c0.2-0.5,0.3-1,0.3-1.5c0-1.5-0.7-2.5-2.1-2.9c0.6-0.2,1-0.5,1.4-1c0.3-0.5,0.5-1,0.5-1.7c0-0.8-0.3-1.6-0.8-2.2
					c-0.5-0.7-1.3-1-2.5-1H27v12.3l0.4-0.6L30.4,80.6z M30.1,73.6h1.5c0.7,0,1.1,0.3,1.1,1c0,0.3-0.1,0.5-0.2,0.7
					c-0.2,0.2-0.4,0.3-0.8,0.3h-1.5v-2H30.1z"/>
			</g>
			<g id="XMLID_00000040556770497578666160000015913144066737020081_">
				<path class="st7" d="M41.8,77.1c0.2,0,0.4,0,0.6,0.1V74c-0.2,0-0.3,0-0.5,0c-1.1,0-1.8,0.7-2.1,2.1v-1.9h-2.6v6.5l3-2
					C40.4,77.6,40.9,77.1,41.8,77.1z"/>
			</g>
			<g id="XMLID_00000106107114002692798220000013343107825883883935_">
				<polygon class="st7" points="37.3,83.3 40.3,83.3 40.3,79.6 37.3,81.5 				"/>
			</g>
			<g id="XMLID_00000176016395445293749460000004586351012372759210_">
				<path class="st8" d="M48.4,78.3c0,0.1,0,0.2,0,0.4c0,0.6-0.1,1.2-0.2,1.8c-0.1,0.6-0.4,0.9-0.9,0.9c-0.3,0-0.6-0.2-0.8-0.5
					c-0.1-0.3-0.2-0.8-0.3-1.6l-0.5,0.2l-2.8-1.6c0,0.3-0.1,0.6-0.1,0.9c0,1.3,0.4,2.4,1.2,3.3c0.8,0.9,1.8,1.4,3.2,1.4
					c1.3,0,2.4-0.5,3.2-1.4c0.8-0.9,1.2-2.1,1.2-3.4c0-0.5-0.1-1.1-0.2-1.5L51.2,77L48.4,78.3z"/>
			</g>
			<g id="XMLID_00000019657517067380590240000005916062540126778796_">
				<path class="st8" d="M46.3,78.4c0-0.7,0.1-1.3,0.2-1.6c0.2-0.4,0.4-0.6,0.8-0.6s0.7,0.2,0.8,0.6c0.1,0.2,0.1,0.4,0.2,0.7
					l2.8-1.2c-0.2-0.3-0.4-0.7-0.6-0.9c-0.8-0.9-1.9-1.3-3.2-1.3c-1.3,0-2.4,0.5-3.2,1.4c-0.5,0.5-0.8,1.1-1,1.8l2.6,1.5L46.3,78.4z
					"/>
			</g>
			<g id="XMLID_00000003062794719769837340000002947532793429580689_">
				<polygon class="st4" points="53,78.4 53,83.3 55.9,83.3 55.9,80.8 56.8,79.6 58.3,83.3 61.5,83.3 58.8,77.3 59,77.1 54.3,79.7 
									"/>
			</g>
			<g id="XMLID_00000152225936452328052700000008926642580165360305_">
				<path class="st4" d="M59.6,76l0.2,0.1l1.5-1.9h-2.8l-2,2.6c-0.2,0.3-0.4,0.5-0.6,0.8c0-1,0-1.5,0-1.7v-5H53v6.5l1.4,1.3L59.6,76
					z"/>
			</g>
			<g id="XMLID_00000018230253328017336370000013457819953451800739_">
				<path class="st7" d="M76.2,74c-1.1,0-1.8,0.7-2.1,2.1v-1.9h-2.6v9.1h3v-4.2c0-1.3,0.5-2,1.6-2c0.2,0,0.4,0,0.6,0.1V74
					C76.4,74,76.3,74,76.2,74z"/>
			</g>
			<g>
				<g>
					<path class="st7" d="M67.1,77.6h-1.9l-1.5,1l-2-0.9c-0.1,0.4-0.1,0.7-0.1,1.1c0,1.3,0.4,2.4,1.2,3.3c0.8,0.9,1.9,1.3,3.2,1.3
						c1.2,0,2.2-0.3,2.9-0.9c0.7-0.6,1.2-1.4,1.3-2.3L67.3,80c-0.1,0.7-0.5,1.1-1.2,1.1c-0.5,0-0.8-0.1-1-0.4s-0.3-0.7-0.3-1.3h5.4
						c0-0.2,0-0.4,0-0.5c0-1.5-0.4-2.7-1.2-3.6l-0.1-0.1l-2.1,1.4C67,76.8,67.1,77.1,67.1,77.6z"/>
				</g>
				<g>
					<path class="st7" d="M62.8,75.4c-0.4,0.5-0.7,1-0.9,1.6l1.8,0.8l1.3-0.9c0.1-0.6,0.5-0.9,1-0.9c0.1,0,0.2,0,0.3,0l2.2-1.4
						c-0.7-0.5-1.5-0.7-2.4-0.7C64.6,73.9,63.6,74.4,62.8,75.4z"/>
				</g>
				<g>
					<path class="st7" d="M76,71.5l2.3-3l-3.6,0.8l0.5,0.8l-6.8,4.5c0.2,0.1,0.4,0.3,0.6,0.5l6.6-4.4L76,71.5z"/>
				</g>
			</g>
			<g id="XMLID_00000035499608246903996380000005533865045078424231_">
				<g id="XMLID_00000138571161899901299330000002377327729081987511_">
					<path class="st2" d="M23.6,83.3c-0.4,0.1-0.8,0.1-1.1,0.1c-0.4,0-0.7,0-1-0.2c-0.3-0.1-0.5-0.4-0.7-0.7
						c-0.2-0.4-0.3-0.9-0.3-1.5l0.1-3.5c0-0.5-0.1-0.9-0.2-1.1c-0.2-0.2-0.5-0.2-0.9-0.1l1.5-3.1c0.4-0.1,0.8-0.1,1.1-0.1
						c0.4,0,0.7,0,1,0.2c0.3,0.1,0.5,0.4,0.7,0.8s0.3,0.9,0.2,1.6l-0.1,3.5c0,0.5,0.1,0.9,0.2,1.1c0.2,0.2,0.5,0.2,0.9,0.1
						L23.6,83.3z M24.4,70c0.1,0.3,0,0.5,0,0.8c-0.1,0.2-0.2,0.5-0.3,0.6c-0.2,0.2-0.4,0.4-0.6,0.5s-0.5,0.2-0.7,0.3
						c-0.2,0.1-0.5,0.1-0.8,0c-0.3,0-0.5-0.1-0.7-0.2s-0.4-0.3-0.6-0.5s-0.3-0.4-0.3-0.7c-0.1-0.3,0-0.5,0-0.8
						c0.1-0.2,0.2-0.4,0.4-0.6c0.2-0.2,0.4-0.3,0.6-0.5c0.2-0.1,0.5-0.2,0.7-0.3c0.2-0.1,0.5-0.1,0.8,0c0.3,0,0.5,0.1,0.7,0.2
						s0.4,0.3,0.6,0.4C24.3,69.5,24.4,69.7,24.4,70z"/>
				</g>
			</g>
		</g>
	</g>
</g>
<g>
	<g>
		<g>
			<rect x="208.3" y="72.5" class="st2" width="6.2" height="1.2"/>
		</g>
		<g>
			<rect x="208.3" y="75.4" class="st2" width="6.2" height="1.2"/>
		</g>
		<g>
			<rect x="208.3" y="78.3" class="st2" width="6.2" height="1.2"/>
		</g>
	</g>
	<g>
		<polygon class="st2" points="206.3,73.6 207.6,73.6 205.9,71.9 204.2,73.6 205.5,73.6 205.5,78.5 204.2,78.5 205.9,80.2 
			207.6,78.5 206.3,78.5 		"/>
	</g>
</g>
<g>
	<g>
		<g>
			<ellipse class="st9" cx="178.8" cy="76" rx="9.1" ry="9.1"/>
		</g>
		<g>
			<path class="st10" d="M178.8,85.1c-5,0-9.1-4.1-9.1-9.1s4.1-9.1,9.1-9.1V85.1z"/>
		</g>
	</g>
	<g>
		<g>
			<g>
				<path class="st13" d="M177.3,78.4l-0.5,1.3l3.8,0.3l-0.5-1.4C178.8,79.4,177.8,78.8,177.3,78.4z"/>
			</g>
			<g>
				<path class="st14" d="M180.2,78.6l-0.4-1h-2.2l-0.3,0.8C177.8,78.8,178.8,79.4,180.2,78.6z"/>
			</g>
		</g>
		<g>
			<g>
				<path class="st15" d="M172.4,82.4L172.4,82.4c1.4,1.6,3.4,2.5,5.6,2.7c-0.4-1.4-1.2-4.6-1.5-5.6
					C175.2,80.6,172.9,81.5,172.4,82.4z"/>
			</g>
			<g>
				<path class="st15" d="M185.1,82.4c-0.5-0.8-2.7-1.7-4.1-2.9c-0.3,1-1.1,4.2-1.5,5.6C181.7,84.9,183.7,83.9,185.1,82.4
					L185.1,82.4z"/>
			</g>
		</g>
		<g>
			<g>
				<path class="st17" d="M180.4,78.8l-1.6,1l0,0V85l0,0h0.5c0.1,0,0.1,0,0.2,0c0.4-1.4,1.2-4.6,1.5-5.6
					C180.8,79.2,180.5,79,180.4,78.8z"/>
			</g>
			<g>
				<path class="st17" d="M178.8,85.1v-5.2l0,0l-1.6-1c-0.2,0.2-0.4,0.5-0.6,0.7c0.3,1,1.1,4.2,1.5,5.6c0.1,0,0.1,0,0.2,0
					L178.8,85.1L178.8,85.1z"/>
			</g>
		</g>
		<g>
			<g>
				<path class="st18" d="M178.8,70.8c-1.9,0-3.4,0.6-3.4,2.8c0,2.2,1.5,5.1,3.4,5.1l0,0V70.8L178.8,70.8z"/>
			</g>
			<g>
				<path class="st18" d="M182.2,73.5c0-2.2-1.5-2.8-3.4-2.8v7.9C180.7,78.6,182.2,75.7,182.2,73.5z"/>
			</g>
			<g>
				<path class="st19" d="M175.4,74.7h0.6c0,0,0.1-2.2,0.6-2.5s1.4,0.2,2.2,0v-2.5c0,0-2.1-0.1-2.9,0.8
					C175.4,71.1,175,72,175.4,74.7z"/>
			</g>
			<g>
				<path class="st19" d="M182.2,74.7h-0.6c0,0-0.1-2.2-0.6-2.5s-1.4,0.2-2.2,0v-2.5c0,0,2.1-0.1,2.9,0.8
					C182.2,71.1,182.6,72,182.2,74.7z"/>
			</g>
			<g>
				<ellipse transform="matrix(0.982 -0.189 0.189 0.982 -10.9527 34.5546)" class="st18" cx="175.7" cy="74.7" rx="0.5" ry="0.9"/>
			</g>
			<g>
				<path class="st20" d="M181.4,74.7c-0.1,0.5,0,0.9,0.3,1c0.3,0,0.5-0.3,0.6-0.8s0-0.9-0.3-1C181.8,73.8,181.5,74.2,181.4,74.7z"
					/>
			</g>
		</g>
		<g>
			<polygon class="st21" points="178.8,79.8 178.1,80 178.5,80.8 178.8,80.8 			"/>
		</g>
		<g>
			<polygon class="st2" points="178.8,79.8 177.7,80.8 176.7,79.3 177.2,78.8 			"/>
		</g>
		<g>
			<g>
				<path class="st2" d="M175.3,80.3l0.9,2.6l0.7-0.3l-0.4,1l0.7,1.4c0.3,0,0.6,0.1,0.8,0.1l-1.4-5.7L175.3,80.3z"/>
			</g>
			<g>
				<path class="st2" d="M180.7,82.5l0.7,0.3l0.9-2.6l-1.4-1l-1.4,5.7c0.3,0,0.6-0.1,0.8-0.1l0.7-1.4L180.7,82.5z"/>
			</g>
		</g>
		<g>
			<polygon class="st21" points="178.8,79.8 179.4,80 179.1,80.8 178.8,80.8 			"/>
		</g>
		<g>
			<polygon class="st2" points="178.8,79.8 179.9,80.8 180.8,79.3 180.4,78.8 			"/>
		</g>
		<g>
			<g>
				<path class="st21" d="M178.8,80.8v4.3c0.2,0,0.4,0,0.7,0l-0.4-4.2h-0.3V80.8z"/>
			</g>
			<g>
				<path class="st21" d="M178.8,80.8h-0.3l-0.4,4.2c0.2,0,0.4,0,0.7,0l0,0l0,0V80.8L178.8,80.8z"/>
			</g>
		</g>
	</g>
</g>
<g>
	<g>
		<polyline class="st2" points="125.8,71.2 123.6,71.2 121.9,80.4 121.1,80.4 122.8,71.2 120.5,71.2 120.7,70.4 126,70.4 
			125.8,71.2 		"/>
	</g>
	<g>
		<path class="st2" d="M127.5,73.7c-0.2,0-0.3,0-0.4,0c-0.4,0-0.8,0.2-1.1,0.5c-0.4,0.4-0.6,0.9-0.7,1.6l-0.8,4.7h-0.7l1.4-7.5h0.7
			l-0.2,1.2l0,0c0.5-0.9,1.1-1.4,1.8-1.4c0,0,0.1,0,0.2,0c0.1,0,0.1,0,0.1,0L127.5,73.7"/>
	</g>
	<g>
		<path class="st2" d="M131.1,80.5c-0.1,0-0.1,0-0.2,0c-0.1,0-0.2,0-0.3,0c-0.4,0-0.6-0.2-0.6-0.6c0-0.1,0-0.2,0-0.3v-0.2l0,0
			c-0.2,0.4-0.5,0.7-0.9,0.9c-0.4,0.2-0.7,0.3-1,0.3c-0.9,0-1.4-0.5-1.4-1.5c0-0.2,0-0.4,0.1-0.7c0.1-0.7,0.4-1.2,0.7-1.5
			s0.7-0.5,1.3-0.6c0.3-0.1,0.8-0.2,1.4-0.4c0.3-0.1,0.4-0.4,0.5-0.9c0-0.2,0-0.4,0-0.5c0-0.6-0.3-0.9-0.9-0.9
			c-0.8,0-1.4,0.6-1.6,1.7h-0.7c0.3-1.6,1.1-2.4,2.4-2.4c1.1,0,1.6,0.5,1.6,1.4c0,0.2,0,0.4-0.1,0.7l-0.8,4.6
			c-0.1,0.3,0,0.5,0.2,0.5c0,0,0.1,0,0.2,0L131.1,80.5 M130.2,78.1l0.3-1.8c-0.2,0.2-0.4,0.3-0.8,0.4c-0.3,0.1-0.6,0.2-0.9,0.3
			c-0.4,0.1-0.6,0.3-0.8,0.5s-0.4,0.6-0.4,1c0,0.2,0,0.3,0,0.5c0,0.7,0.3,1,0.8,1c0.4,0,0.8-0.2,1.1-0.5
			C129.8,79.2,130.1,78.7,130.2,78.1z"/>
	</g>
	<g>
		<path class="st2" d="M135.4,80.4h-0.7l0.2-1.2l0,0c-0.4,0.9-1,1.4-1.8,1.4c-1,0-1.5-0.7-1.5-2.2c0-0.5,0.1-1.1,0.2-1.7
			c0.5-2.6,1.4-3.9,2.7-3.9c0.3,0,0.6,0.1,0.9,0.3c0.2,0.2,0.4,0.5,0.4,1l0,0l0.7-3.7h0.7L135.4,80.4 M135.4,76.7
			c0.1-0.6,0.2-1.1,0.2-1.5c0-1.1-0.3-1.7-1-1.7c-0.9,0-1.6,1.1-2,3.2c-0.1,0.7-0.2,1.2-0.2,1.7c0,1,0.3,1.5,1,1.5
			C134.3,79.9,135,78.8,135.4,76.7z"/>
	</g>
	<g>
		<path class="st2" d="M140.8,76.8h-3.5c-0.1,0.7-0.2,1.3-0.2,1.7c0,1,0.3,1.5,1,1.5c0.4,0,0.7-0.2,1-0.5s0.5-0.8,0.6-1.4h0.7
			c-0.1,0.7-0.4,1.4-0.9,1.8c-0.5,0.5-1,0.8-1.7,0.8c-1.1,0-1.6-0.7-1.6-2.1c0-0.5,0.1-1.1,0.2-1.8c0.5-2.6,1.4-3.8,2.9-3.8
			c1.1,0,1.6,0.6,1.6,1.9C141.1,75.3,141,75.9,140.8,76.8 M140.2,76.1c0.1-0.5,0.1-0.9,0.1-1.3c0-0.9-0.3-1.3-1-1.3
			c-0.9,0-1.6,0.9-1.9,2.6C137.4,76.1,140.2,76.1,140.2,76.1z"/>
	</g>
	<g>
		<path class="st2" d="M152,75.9c-0.1,0.7-0.4,1.3-0.7,1.7c-0.4,0.4-0.7,0.6-1.2,0.6c-0.3,0-0.5-0.1-0.7-0.2
			c-0.1-0.1-0.2-0.2-0.2-0.4l-0.4,2.1h-0.9L149,74h0.9l-0.1,0.6c0.1-0.2,0.3-0.3,0.4-0.4c0.2-0.2,0.5-0.3,0.8-0.3
			c0.4,0,0.7,0.2,1,0.5C152.1,74.7,152.2,75.2,152,75.9 M150.5,74.7c-0.3,0-0.6,0.2-0.8,0.6c-0.1,0.2-0.2,0.4-0.2,0.7
			c-0.1,0.5,0,0.8,0.1,1c0.1,0.1,0.3,0.2,0.4,0.2c0.3,0,0.5-0.1,0.7-0.3c0.2-0.2,0.3-0.5,0.4-0.9c0.1-0.3,0-0.6,0-0.8
			C150.9,74.8,150.8,74.7,150.5,74.7z"/>
	</g>
	<g>
		<path class="st2" d="M154.7,73.8l-0.2,1.1c-0.1,0-0.1,0-0.2,0h-0.1c-0.4,0-0.7,0.1-0.8,0.4c-0.1,0.2-0.2,0.4-0.2,0.7l-0.4,2h-0.9
			l0.8-4.1h0.9l-0.1,0.7c0.2-0.3,0.4-0.5,0.5-0.6c0.2-0.2,0.4-0.3,0.7-0.3V73.8C154.6,73.8,154.7,73.8,154.7,73.8"/>
	</g>
	<g>
		<path class="st2" d="M157.7,74.5c0.1,0.2,0.1,0.5,0.1,0.9c0,0.2,0,0.5-0.1,0.8h-2.5c-0.1,0.4,0,0.7,0.2,0.9
			c0.1,0.1,0.3,0.2,0.4,0.2c0.2,0,0.4-0.1,0.5-0.2s0.2-0.2,0.2-0.3h0.9c-0.1,0.2-0.2,0.5-0.5,0.7c-0.4,0.4-0.8,0.6-1.4,0.6
			c-0.5,0-0.8-0.2-1.1-0.5s-0.4-0.9-0.2-1.6c0.1-0.7,0.4-1.3,0.8-1.6c0.4-0.4,0.8-0.6,1.3-0.6c0.3,0,0.5,0.1,0.8,0.2
			S157.6,74.3,157.7,74.5 M155.4,75.5h1.4c0-0.3,0-0.5-0.1-0.6s-0.3-0.2-0.5-0.2s-0.4,0.1-0.5,0.2C155.6,75,155.5,75.2,155.4,75.5z"
			/>
	</g>
	<g>
		<path class="st2" d="M158.6,76.7c0,0.2,0,0.3,0.1,0.4s0.3,0.2,0.6,0.2c0.2,0,0.3,0,0.5-0.1c0.1-0.1,0.2-0.2,0.2-0.3
			c0-0.1,0-0.2-0.1-0.3c-0.1-0.1-0.4-0.2-0.9-0.3c-0.4-0.1-0.6-0.3-0.8-0.4c-0.1-0.2-0.2-0.4-0.1-0.7c0.1-0.4,0.3-0.7,0.6-1
			s0.7-0.4,1.2-0.4c0.4,0,0.8,0.1,1,0.3c0.2,0.2,0.3,0.6,0.3,1.1h-1c0-0.1,0-0.2,0-0.3c-0.1-0.1-0.2-0.2-0.5-0.2
			c-0.2,0-0.4,0-0.5,0.1S159,75,159,75.1c0,0.1,0,0.2,0.1,0.3c0.1,0.1,0.4,0.2,0.9,0.3c0.4,0.1,0.6,0.3,0.7,0.5
			c0.1,0.2,0.2,0.5,0.1,0.8c-0.1,0.4-0.3,0.7-0.6,1s-0.7,0.4-1.3,0.4s-0.9-0.1-1.2-0.4c-0.2-0.3-0.3-0.6-0.2-1h1.1"/>
	</g>
	<g>
		<path class="st2" d="M162,76.7c0,0.2,0,0.3,0.1,0.4s0.3,0.2,0.6,0.2c0.2,0,0.3,0,0.5-0.1c0.1-0.1,0.2-0.2,0.2-0.3
			c0-0.1,0-0.2-0.1-0.3c-0.1-0.1-0.4-0.2-0.9-0.3c-0.4-0.1-0.6-0.3-0.8-0.4c-0.1-0.2-0.2-0.4-0.1-0.7c0.1-0.4,0.3-0.7,0.6-1
			s0.7-0.4,1.2-0.4c0.4,0,0.8,0.1,1,0.3c0.2,0.2,0.3,0.6,0.3,1.1h-0.9c0-0.1,0-0.2,0-0.3c-0.1-0.1-0.2-0.2-0.5-0.2
			c-0.2,0-0.4,0-0.5,0.1s-0.2,0.2-0.2,0.3c0,0.1,0,0.2,0.1,0.3c0.1,0.1,0.4,0.2,0.9,0.3c0.4,0.1,0.6,0.3,0.7,0.5
			c0.1,0.2,0.2,0.5,0.1,0.8c-0.1,0.4-0.3,0.7-0.6,1s-0.7,0.4-1.3,0.4s-0.9-0.1-1.2-0.4c-0.2-0.3-0.3-0.6-0.2-1h1"/>
	</g>
	<g>
		<g>
			<polyline class="st2" points="144.1,76.1 139.4,68.7 138.5,68.7 143.8,76.2 140.8,80.9 140.9,80.9 144.1,76.1 			"/>
		</g>
		<g>
			<polyline class="st3" points="145.9,74.7 141.9,80.9 142,80.9 146.2,74.6 142.4,68.6 139.3,68.6 139.4,68.7 141.7,68.7 
				145.9,74.7 			"/>
		</g>
		<g>
			<polyline class="st3" points="140.9,80.9 141.9,80.9 145.9,74.7 141.7,68.7 139.4,68.7 144.1,76.1 140.9,80.9 			"/>
		</g>
		<g>
			<polyline class="st2" points="149.2,79.6 149.1,80.1 147.4,80.1 147.9,77.6 146.7,75.9 151.1,69 150,69 144.6,77.4 148.7,83.4 
				151.7,83.4 149.2,79.6 			"/>
		</g>
		<g>
			<polyline class="st4" points="149.1,80.1 147.4,80.1 147.9,77.3 147,75.8 151.8,68.8 150.7,68.8 144.9,77.3 148.7,83.4 
				151.8,83.4 149.3,79.4 149.1,80.1 			"/>
		</g>
	</g>
</g>
<g>
	<path class="st2" d="M32.1,484.1c-13.9,0-25.3-11.3-25.3-25.3V95H229v363.8c0,13.9-11.3,25.3-25.3,25.3H32.1z"/>
	<path class="st0" d="M228.8,95.2v363.7c0,13.9-11.3,25.1-25.1,25.1H32.1c-13.9,0-25.1-11.3-25.1-25.1V95.2H228.8 M229.1,94.9H6.7
		v363.9c0,14,11.4,25.4,25.4,25.4h171.6c14,0,25.4-11.4,25.4-25.4V94.9L229.1,94.9z"/>
</g>
<g>
	<g>
		<g>
			<path class="st23" d="M17.6,471.3c-1.1,0-2-0.9-2-2V100.9c0-1.1,0.9-2,2-2h200.6c1.1,0,2,0.9,2,2v368.3c0,1.1-0.9,2-2,2H17.6z"/>
		</g>
		<g>
			<path class="st24" d="M218.3,99c1.1,0,1.9,0.9,1.9,1.9v368.3c0,1.1-0.9,1.9-1.9,1.9H17.6c-1.1,0-1.9-0.9-1.9-1.9V100.9
				c0-1.1,0.9-1.9,1.9-1.9H218.3 M218.3,98.8H17.6c-1.2,0-2.1,1-2.1,2.1v368.3c0,1.2,1,2.1,2.1,2.1h200.6c1.2,0,2.1-1,2.1-2.1V100.9
				C220.4,99.7,219.4,98.8,218.3,98.8L218.3,98.8z"/>
		</g>
	</g>
	<g>
		<path class="st27" d="M214.1,104.3v361.5H21.8V104.3H214.1 M214.2,104.2H21.7v361.7h192.4V104.2L214.2,104.2z"/>
	</g>
	<g>
		<g>
			<path class="st2" d="M27.4,461.2c-0.8,0-1.4-0.6-1.4-1.4V110.3c0-0.8,0.6-1.4,1.4-1.4h181.1c0.8,0,1.4,0.6,1.4,1.4v349.4
				c0,0.8-0.6,1.4-1.4,1.4H27.4z"/>
		</g>
		<g>
			<path class="st33" d="M208.5,109c0.7,0,1.3,0.6,1.3,1.3v349.4c0,0.7-0.6,1.3-1.3,1.3H27.4c-0.7,0-1.3-0.6-1.3-1.3V110.3
				c0-0.7,0.6-1.3,1.3-1.3H208.5 M208.5,108.9H27.4c-0.8,0-1.5,0.7-1.5,1.5v349.4c0,0.8,0.7,1.5,1.5,1.5h181.1
				c0.8,0,1.5-0.7,1.5-1.5V110.3C210,109.5,209.3,108.9,208.5,108.9L208.5,108.9z"/>
		</g>
	</g>
	<g>
		<g>
			<path class="st34" d="M200.7,166.5H35.2c-1,0-1.9-0.8-1.9-1.9v-17.5c0-1,0.8-1.9,1.9-1.9h165.6c1,0,1.9,0.8,1.9,1.9v17.5
				C202.6,165.7,201.8,166.5,200.7,166.5z"/>
			<path class="st6" d="M200.7,166.6H35.2c-1.1,0-1.9-0.9-1.9-1.9v-17.5c0-1.1,0.9-1.9,1.9-1.9h165.6c1.1,0,1.9,0.9,1.9,1.9v17.5
				C202.7,165.7,201.8,166.6,200.7,166.6z M35.2,145.4c-1,0-1.8,0.8-1.8,1.8v17.5c0,1,0.8,1.8,1.8,1.8h165.6c1,0,1.8-0.8,1.8-1.8
				v-17.5c0-1-0.8-1.8-1.8-1.8H35.2z"/>
		</g>
		<g>
			<g>
				<g>
					<path class="st29" d="M191.6,155c0-0.1,0-0.2,0.1-0.3l3.1-3.1c0.2-0.2,0.4-0.2,0.6,0l3.2,3.1c0.2,0.2,0.2,0.4,0,0.6
						c-0.2,0.2-0.4,0.2-0.6,0l-2.9-2.8l-2.8,2.8c-0.2,0.2-0.4,0.2-0.6,0C191.6,155.2,191.6,155.1,191.6,155z"/>
				</g>
				<g>
					<path class="st29" d="M198.6,156.8c0,0.1,0,0.2-0.1,0.3l-3.1,3.1c-0.2,0.2-0.4,0.2-0.6,0l-3.2-3.1c-0.2-0.2-0.2-0.4,0-0.6
						c0.2-0.2,0.4-0.2,0.6,0l2.9,2.8l2.8-2.8c0.2-0.2,0.4-0.2,0.6,0C198.6,156.6,198.6,156.7,198.6,156.8z"/>
				</g>
			</g>
			<g>
				<g>
					<path class="st29" d="M37.3,160v-8.1h5.9v1h-4.8v2.5h4.5v1h-4.5v2.8h5v1H37.3z"/>
				</g>
				<g>
					<path class="st29" d="M44.3,153.4l0.3-0.8c0.6,0.2,1,0.4,1.3,0.5c-0.1-0.7-0.1-1.1-0.1-1.4h0.8c0,0.4-0.1,0.8-0.1,1.4
						c0.4-0.2,0.8-0.4,1.3-0.5l0.3,0.8c-0.5,0.2-0.9,0.3-1.4,0.3c0.2,0.2,0.5,0.5,1,1l-0.7,0.5c-0.2-0.3-0.5-0.7-0.8-1.2
						c-0.3,0.5-0.5,0.9-0.7,1.2l-0.7-0.5c0.4-0.5,0.7-0.9,0.9-1C45.2,153.6,44.7,153.5,44.3,153.4z"/>
				</g>
				<g>
					<path class="st29" d="M48.7,153.4l0.3-0.8c0.6,0.2,1,0.4,1.3,0.5c-0.1-0.7-0.1-1.1-0.1-1.4H51c0,0.4-0.1,0.8-0.1,1.4
						c0.4-0.2,0.8-0.4,1.3-0.5l0.3,0.8c-0.5,0.2-0.9,0.3-1.4,0.3c0.2,0.2,0.5,0.5,1,1l-0.7,0.5c-0.2-0.3-0.5-0.7-0.8-1.2
						c-0.3,0.5-0.5,0.9-0.7,1.2l-0.7-0.5c0.4-0.5,0.7-0.9,0.9-1C49.6,153.6,49.2,153.5,48.7,153.4z"/>
				</g>
				<g>
					<path class="st29" d="M53.1,153.4l0.3-0.8c0.6,0.2,1,0.4,1.3,0.5c-0.1-0.7-0.1-1.1-0.1-1.4h0.8c0,0.4-0.1,0.8-0.1,1.4
						c0.4-0.2,0.8-0.4,1.3-0.5l0.3,0.8c-0.5,0.2-0.9,0.3-1.4,0.3c0.2,0.2,0.5,0.5,1,1l-0.7,0.5c-0.2-0.3-0.5-0.7-0.8-1.2
						c-0.3,0.5-0.5,0.9-0.7,1.2l-0.7-0.5c0.4-0.5,0.7-0.9,0.9-1C54,153.6,53.6,153.5,53.1,153.4z"/>
				</g>
				<g>
					<path class="st29" d="M57.6,153.4l0.3-0.8c0.6,0.2,1,0.4,1.3,0.5c-0.1-0.7-0.1-1.1-0.1-1.4h0.8c0,0.4-0.1,0.8-0.1,1.4
						c0.4-0.2,0.8-0.4,1.3-0.5l0.3,0.8c-0.5,0.2-0.9,0.3-1.4,0.3c0.2,0.2,0.5,0.5,1,1l-0.7,0.5c-0.2-0.3-0.5-0.7-0.8-1.2
						c-0.3,0.5-0.5,0.9-0.7,1.2l-0.7-0.5c0.4-0.5,0.7-0.9,0.9-1C58.4,153.6,58,153.5,57.6,153.4z"/>
				</g>
				<g>
					<path class="st29" d="M62,153.4l0.3-0.8c0.6,0.2,1,0.4,1.3,0.5c-0.1-0.7-0.1-1.1-0.1-1.4h0.8c0,0.4-0.1,0.8-0.1,1.4
						c0.4-0.2,0.8-0.4,1.3-0.5l0.3,0.8c-0.5,0.2-0.9,0.3-1.4,0.3c0.2,0.2,0.5,0.5,1,1l-0.7,0.5c-0.2-0.3-0.5-0.7-0.8-1.2
						c-0.3,0.5-0.5,0.9-0.7,1.2l-0.7-0.5c0.4-0.5,0.7-0.9,0.9-1C62.9,153.6,62.4,153.5,62,153.4z"/>
				</g>
			</g>
		</g>
		<g>
			<path class="st1" d="M38.2,140.8L39,141c-0.2,0.7-0.5,1.2-0.9,1.5c-0.4,0.3-1,0.5-1.6,0.5c-0.6,0-1.2-0.1-1.6-0.4
				c-0.4-0.3-0.7-0.6-0.9-1.1c-0.2-0.5-0.3-1-0.3-1.6c0-0.6,0.1-1.2,0.4-1.6c0.2-0.5,0.6-0.8,1-1.1c0.4-0.2,0.9-0.4,1.5-0.4
				c0.6,0,1.1,0.2,1.5,0.5c0.4,0.3,0.7,0.7,0.9,1.3l-0.8,0.2c-0.1-0.4-0.3-0.8-0.6-1c-0.3-0.2-0.6-0.3-1-0.3c-0.5,0-0.8,0.1-1.2,0.3
				c-0.3,0.2-0.5,0.5-0.7,0.9c-0.1,0.4-0.2,0.8-0.2,1.2c0,0.5,0.1,1,0.2,1.3c0.1,0.4,0.4,0.7,0.7,0.9c0.3,0.2,0.7,0.3,1,0.3
				c0.4,0,0.8-0.1,1.1-0.4C37.9,141.7,38.1,141.3,38.2,140.8z"/>
			<path class="st1" d="M39.9,142.9v-6h0.7v6H39.9z"/>
			<path class="st1" d="M41.8,137.8v-0.8h0.7v0.8H41.8z M41.8,142.9v-4.4h0.7v4.4H41.8z"/>
			<path class="st1" d="M46.6,141.5l0.8,0.1c-0.1,0.4-0.3,0.8-0.7,1c-0.3,0.2-0.7,0.4-1.2,0.4c-0.6,0-1.1-0.2-1.5-0.6
				c-0.4-0.4-0.6-0.9-0.6-1.7c0-0.7,0.2-1.3,0.6-1.7c0.4-0.4,0.9-0.6,1.5-0.6c0.6,0,1.1,0.2,1.4,0.6c0.4,0.4,0.6,1,0.6,1.7
				c0,0,0,0.1,0,0.2h-3.2c0,0.5,0.2,0.8,0.4,1.1c0.2,0.3,0.5,0.4,0.9,0.4c0.3,0,0.5-0.1,0.7-0.2C46.4,142.1,46.5,141.8,46.6,141.5z
				 M44.2,140.3h2.4c0-0.4-0.1-0.6-0.3-0.8c-0.2-0.3-0.5-0.4-0.9-0.4c-0.3,0-0.6,0.1-0.9,0.3C44.4,139.6,44.2,140,44.2,140.3z"/>
			<path class="st1" d="M48.3,142.9v-4.4H49v0.6c0.3-0.5,0.8-0.7,1.4-0.7c0.3,0,0.5,0,0.7,0.1c0.2,0.1,0.4,0.2,0.5,0.4
				c0.1,0.2,0.2,0.3,0.2,0.5c0,0.1,0,0.4,0,0.7v2.7h-0.7v-2.6c0-0.3,0-0.5-0.1-0.7c-0.1-0.1-0.2-0.3-0.3-0.4
				c-0.1-0.1-0.3-0.1-0.5-0.1c-0.3,0-0.6,0.1-0.8,0.3c-0.2,0.2-0.3,0.6-0.3,1.1v2.4H48.3z"/>
			<path class="st1" d="M54.6,142.3l0.1,0.7c-0.2,0-0.4,0.1-0.6,0.1c-0.3,0-0.5,0-0.6-0.1c-0.1-0.1-0.3-0.2-0.3-0.3
				c-0.1-0.1-0.1-0.4-0.1-0.9v-2.5h-0.5v-0.6h0.5v-1.1l0.7-0.4v1.5h0.7v0.6h-0.7v2.5c0,0.2,0,0.3,0,0.4c0,0.1,0.1,0.1,0.1,0.1
				c0.1,0,0.1,0.1,0.3,0.1C54.4,142.3,54.5,142.3,54.6,142.3z"/>
			<path class="st1" d="M62,140.8l0.8,0.2c-0.2,0.7-0.5,1.2-0.9,1.5c-0.4,0.3-1,0.5-1.6,0.5c-0.6,0-1.2-0.1-1.6-0.4
				c-0.4-0.3-0.7-0.6-0.9-1.1c-0.2-0.5-0.3-1-0.3-1.6c0-0.6,0.1-1.2,0.4-1.6c0.2-0.5,0.6-0.8,1-1.1c0.4-0.2,0.9-0.4,1.5-0.4
				c0.6,0,1.1,0.2,1.5,0.5c0.4,0.3,0.7,0.7,0.9,1.3l-0.8,0.2c-0.1-0.4-0.3-0.8-0.6-1c-0.3-0.2-0.6-0.3-1-0.3c-0.5,0-0.8,0.1-1.2,0.3
				c-0.3,0.2-0.5,0.5-0.7,0.9c-0.1,0.4-0.2,0.8-0.2,1.2c0,0.5,0.1,1,0.2,1.3c0.1,0.4,0.4,0.7,0.7,0.9c0.3,0.2,0.7,0.3,1,0.3
				c0.4,0,0.8-0.1,1.1-0.4C61.7,141.7,61.9,141.3,62,140.8z"/>
			<path class="st1" d="M63.4,140.8c0-0.8,0.2-1.4,0.7-1.8c0.4-0.3,0.8-0.5,1.4-0.5c0.6,0,1.1,0.2,1.5,0.6c0.4,0.4,0.6,0.9,0.6,1.6
				c0,0.6-0.1,1-0.3,1.3c-0.2,0.3-0.4,0.6-0.7,0.7c-0.3,0.2-0.7,0.3-1.1,0.3c-0.6,0-1.1-0.2-1.5-0.6C63.6,142,63.4,141.5,63.4,140.8
				z M64.2,140.8c0,0.6,0.1,1,0.4,1.3c0.2,0.3,0.5,0.4,0.9,0.4c0.4,0,0.7-0.1,0.9-0.4s0.4-0.7,0.4-1.3c0-0.5-0.1-0.9-0.4-1.2
				c-0.2-0.3-0.5-0.4-0.9-0.4c-0.4,0-0.7,0.1-0.9,0.4C64.3,139.8,64.2,140.2,64.2,140.8z"/>
			<path class="st1" d="M71.2,142.9v-0.5c-0.3,0.4-0.7,0.6-1.2,0.6c-0.3,0-0.7-0.1-1-0.3c-0.3-0.2-0.5-0.5-0.7-0.8
				c-0.2-0.3-0.2-0.7-0.2-1.2c0-0.4,0.1-0.8,0.2-1.2c0.1-0.4,0.4-0.6,0.7-0.8c0.3-0.2,0.6-0.3,1-0.3c0.3,0,0.5,0.1,0.7,0.2
				c0.2,0.1,0.4,0.3,0.5,0.4v-2.2h0.7v6H71.2z M68.9,140.8c0,0.6,0.1,1,0.4,1.3c0.2,0.3,0.5,0.4,0.8,0.4c0.3,0,0.6-0.1,0.8-0.4
				c0.2-0.3,0.3-0.7,0.3-1.2c0-0.6-0.1-1-0.3-1.3c-0.2-0.3-0.5-0.4-0.8-0.4c-0.3,0-0.6,0.1-0.8,0.4C69,139.8,68.9,140.2,68.9,140.8z
				"/>
			<path class="st1" d="M76,141.5l0.8,0.1c-0.1,0.4-0.3,0.8-0.7,1c-0.3,0.2-0.7,0.4-1.2,0.4c-0.6,0-1.1-0.2-1.5-0.6
				c-0.4-0.4-0.6-0.9-0.6-1.7c0-0.7,0.2-1.3,0.6-1.7c0.4-0.4,0.9-0.6,1.5-0.6c0.6,0,1.1,0.2,1.4,0.6c0.4,0.4,0.6,1,0.6,1.7
				c0,0,0,0.1,0,0.2h-3.2c0,0.5,0.2,0.8,0.4,1.1c0.2,0.3,0.5,0.4,0.9,0.4c0.3,0,0.5-0.1,0.7-0.2C75.8,142.1,75.9,141.8,76,141.5z
				 M73.6,140.3h2.4c0-0.4-0.1-0.6-0.3-0.8c-0.2-0.3-0.5-0.4-0.9-0.4c-0.3,0-0.6,0.1-0.9,0.3C73.8,139.6,73.6,140,73.6,140.3z"/>
		</g>
	</g>
	<g>
		<path class="st28" d="M34,123.1v-6.5h4.4v0.8h-3.5v2H38v0.8h-3.1v3H34z"/>
		<path class="st28" d="M42.6,123.1v-0.7c-0.4,0.5-0.9,0.8-1.5,0.8c-0.3,0-0.5-0.1-0.8-0.2c-0.2-0.1-0.4-0.2-0.5-0.4
			s-0.2-0.4-0.2-0.6c0-0.2,0-0.4,0-0.7v-2.9h0.8v2.6c0,0.4,0,0.7,0,0.8c0.1,0.2,0.2,0.4,0.3,0.5c0.2,0.1,0.4,0.2,0.6,0.2
			c0.2,0,0.5-0.1,0.7-0.2s0.4-0.3,0.4-0.5c0.1-0.2,0.1-0.5,0.1-0.9v-2.5h0.8v4.7H42.6z"/>
		<path class="st28" d="M44.6,123.1v-4.7h0.7v0.7c0.3-0.5,0.9-0.8,1.5-0.8c0.3,0,0.5,0.1,0.8,0.2c0.2,0.1,0.4,0.2,0.5,0.4
			c0.1,0.2,0.2,0.4,0.2,0.6c0,0.1,0,0.4,0,0.8v2.9h-0.8v-2.9c0-0.3,0-0.6-0.1-0.7c-0.1-0.2-0.2-0.3-0.3-0.4
			c-0.2-0.1-0.3-0.1-0.6-0.1c-0.3,0-0.6,0.1-0.9,0.3c-0.2,0.2-0.4,0.6-0.4,1.2v2.6H44.6z"/>
		<path class="st28" d="M52.7,123.1v-0.6c-0.3,0.5-0.7,0.7-1.3,0.7c-0.4,0-0.7-0.1-1-0.3c-0.3-0.2-0.6-0.5-0.7-0.9
			c-0.2-0.4-0.3-0.8-0.3-1.3c0-0.5,0.1-0.9,0.2-1.3c0.2-0.4,0.4-0.7,0.7-0.9c0.3-0.2,0.7-0.3,1.1-0.3c0.3,0,0.5,0.1,0.8,0.2
			c0.2,0.1,0.4,0.3,0.5,0.5v-2.3h0.8v6.5H52.7z M50.2,120.7c0,0.6,0.1,1.1,0.4,1.4c0.3,0.3,0.6,0.5,0.9,0.5c0.4,0,0.6-0.1,0.9-0.4
			c0.2-0.3,0.4-0.7,0.4-1.3c0-0.6-0.1-1.1-0.4-1.4c-0.2-0.3-0.6-0.5-0.9-0.5c-0.4,0-0.7,0.1-0.9,0.4
			C50.3,119.6,50.2,120.1,50.2,120.7z"/>
		<path class="st28" d="M58.5,123.1l-1.7-6.5h0.9l1,4.3c0.1,0.4,0.2,0.9,0.3,1.3c0.2-0.7,0.3-1.1,0.3-1.2l1.2-4.4h1l0.9,3.3
			c0.2,0.8,0.4,1.6,0.5,2.3c0.1-0.4,0.2-0.9,0.3-1.4l1-4.2h0.9l-1.8,6.5h-0.8l-1.4-5c-0.1-0.4-0.2-0.7-0.2-0.8
			c-0.1,0.3-0.1,0.6-0.2,0.8l-1.4,5H58.5z"/>
		<path class="st28" d="M65.9,117.4v-0.9h0.8v0.9H65.9z M65.9,123.1v-4.7h0.8v4.7H65.9z"/>
		<path class="st28" d="M69.7,122.3l0.1,0.7c-0.2,0-0.4,0.1-0.6,0.1c-0.3,0-0.5,0-0.7-0.1c-0.2-0.1-0.3-0.2-0.3-0.4
			c-0.1-0.2-0.1-0.5-0.1-0.9v-2.7h-0.6v-0.6h0.6v-1.2l0.8-0.5v1.7h0.8v0.6h-0.8v2.8c0,0.2,0,0.4,0,0.4c0,0.1,0.1,0.1,0.1,0.2
			c0.1,0,0.2,0.1,0.3,0.1C69.4,122.4,69.5,122.4,69.7,122.3z"/>
		<path class="st28" d="M70.5,123.1v-6.5h0.8v2.3c0.4-0.4,0.8-0.7,1.4-0.7c0.4,0,0.7,0.1,0.9,0.2c0.3,0.1,0.4,0.3,0.6,0.6
			c0.1,0.2,0.2,0.6,0.2,1.1v3h-0.8v-3c0-0.4-0.1-0.7-0.3-0.9c-0.2-0.2-0.4-0.3-0.7-0.3c-0.2,0-0.5,0.1-0.7,0.2
			c-0.2,0.1-0.4,0.3-0.4,0.5c-0.1,0.2-0.1,0.5-0.1,0.9v2.6H70.5z"/>
		<path class="st28" d="M78.6,123.1v-0.6c-0.3,0.5-0.7,0.7-1.3,0.7c-0.4,0-0.7-0.1-1-0.3c-0.3-0.2-0.6-0.5-0.7-0.9
			c-0.2-0.4-0.3-0.8-0.3-1.3c0-0.5,0.1-0.9,0.2-1.3c0.2-0.4,0.4-0.7,0.7-0.9c0.3-0.2,0.7-0.3,1.1-0.3c0.3,0,0.5,0.1,0.8,0.2
			c0.2,0.1,0.4,0.3,0.5,0.5v-2.3h0.8v6.5H78.6z M76.1,120.7c0,0.6,0.1,1.1,0.4,1.4c0.3,0.3,0.6,0.5,0.9,0.5c0.4,0,0.6-0.1,0.9-0.4
			c0.2-0.3,0.4-0.7,0.4-1.3c0-0.6-0.1-1.1-0.4-1.4c-0.2-0.3-0.6-0.5-0.9-0.5c-0.4,0-0.7,0.1-0.9,0.4
			C76.2,119.6,76.1,120.1,76.1,120.7z"/>
		<path class="st28" d="M80.6,123.1v-4.7h0.7v0.7c0.2-0.3,0.4-0.6,0.5-0.7c0.2-0.1,0.3-0.2,0.5-0.2c0.3,0,0.5,0.1,0.8,0.3l-0.3,0.7
			c-0.2-0.1-0.4-0.2-0.6-0.2c-0.2,0-0.3,0.1-0.5,0.2s-0.2,0.3-0.3,0.4c-0.1,0.3-0.1,0.6-0.1,0.9v2.5H80.6z"/>
		<path class="st28" d="M86.8,122.5c-0.3,0.3-0.6,0.4-0.9,0.5c-0.3,0.1-0.6,0.2-0.9,0.2c-0.5,0-0.9-0.1-1.2-0.4
			c-0.3-0.3-0.4-0.6-0.4-1c0-0.2,0.1-0.4,0.2-0.6c0.1-0.2,0.2-0.3,0.4-0.5c0.2-0.1,0.4-0.2,0.6-0.3c0.2,0,0.4-0.1,0.7-0.1
			c0.6-0.1,1.1-0.2,1.4-0.3c0-0.1,0-0.2,0-0.2c0-0.3-0.1-0.6-0.2-0.7c-0.2-0.2-0.5-0.3-0.9-0.3c-0.4,0-0.7,0.1-0.8,0.2
			c-0.2,0.1-0.3,0.4-0.4,0.7l-0.8-0.1c0.1-0.3,0.2-0.6,0.4-0.8c0.2-0.2,0.4-0.4,0.7-0.5c0.3-0.1,0.7-0.2,1.1-0.2c0.4,0,0.7,0,1,0.1
			c0.3,0.1,0.4,0.2,0.6,0.4c0.1,0.1,0.2,0.3,0.3,0.5c0,0.1,0,0.4,0,0.7v1.1c0,0.7,0,1.2,0.1,1.4c0,0.2,0.1,0.4,0.2,0.6h-0.8
			C86.8,122.9,86.8,122.7,86.8,122.5z M86.7,120.7c-0.3,0.1-0.7,0.2-1.3,0.3c-0.3,0-0.6,0.1-0.7,0.2c-0.1,0.1-0.2,0.1-0.3,0.3
			c-0.1,0.1-0.1,0.2-0.1,0.4c0,0.2,0.1,0.4,0.2,0.5s0.4,0.2,0.7,0.2c0.3,0,0.6-0.1,0.8-0.2c0.2-0.1,0.4-0.3,0.5-0.6
			c0.1-0.2,0.1-0.4,0.1-0.8V120.7z"/>
		<path class="st28" d="M89.6,123.1l-1.5-4.7H89l0.8,2.7l0.3,1c0-0.1,0.1-0.4,0.2-1l0.8-2.8h0.8l0.7,2.7l0.2,0.9l0.3-0.9l0.8-2.7
			h0.8l-1.5,4.7h-0.8l-0.8-2.8l-0.2-0.8l-1,3.6H89.6z"/>
		<path class="st28" d="M98.5,122.5c-0.3,0.3-0.6,0.4-0.9,0.5c-0.3,0.1-0.6,0.2-0.9,0.2c-0.5,0-0.9-0.1-1.2-0.4
			c-0.3-0.3-0.4-0.6-0.4-1c0-0.2,0.1-0.4,0.2-0.6s0.2-0.3,0.4-0.5c0.2-0.1,0.4-0.2,0.6-0.3c0.2,0,0.4-0.1,0.7-0.1
			c0.6-0.1,1.1-0.2,1.4-0.3c0-0.1,0-0.2,0-0.2c0-0.3-0.1-0.6-0.2-0.7c-0.2-0.2-0.5-0.3-0.9-0.3c-0.4,0-0.7,0.1-0.8,0.2
			c-0.2,0.1-0.3,0.4-0.4,0.7l-0.8-0.1c0.1-0.3,0.2-0.6,0.4-0.8c0.2-0.2,0.4-0.4,0.7-0.5c0.3-0.1,0.7-0.2,1.1-0.2c0.4,0,0.7,0,1,0.1
			c0.3,0.1,0.4,0.2,0.6,0.4c0.1,0.1,0.2,0.3,0.3,0.5c0,0.1,0,0.4,0,0.7v1.1c0,0.7,0,1.2,0.1,1.4c0,0.2,0.1,0.4,0.2,0.6h-0.8
			C98.5,122.9,98.5,122.7,98.5,122.5z M98.4,120.7c-0.3,0.1-0.7,0.2-1.3,0.3c-0.3,0-0.6,0.1-0.7,0.2c-0.1,0.1-0.2,0.1-0.3,0.3
			c-0.1,0.1-0.1,0.2-0.1,0.4c0,0.2,0.1,0.4,0.2,0.5s0.4,0.2,0.7,0.2c0.3,0,0.6-0.1,0.8-0.2c0.2-0.1,0.4-0.3,0.5-0.6
			c0.1-0.2,0.1-0.4,0.1-0.8V120.7z"/>
		<path class="st28" d="M100.4,123.1v-6.5h0.8v6.5H100.4z"/>
		<path class="st28" d="M105.1,123.1v-6.5h2.9c0.6,0,1,0.1,1.3,0.2c0.3,0.1,0.5,0.3,0.7,0.6c0.2,0.3,0.3,0.6,0.3,1
			c0,0.5-0.2,0.9-0.5,1.2s-0.8,0.5-1.4,0.6c0.2,0.1,0.4,0.2,0.5,0.3c0.3,0.2,0.5,0.5,0.7,0.9l1.1,1.8h-1.1l-0.9-1.4
			c-0.3-0.4-0.5-0.7-0.6-0.9c-0.2-0.2-0.3-0.4-0.4-0.4c-0.1-0.1-0.3-0.1-0.4-0.2c-0.1,0-0.3,0-0.5,0h-1v2.9H105.1z M106,119.4h1.9
			c0.4,0,0.7,0,0.9-0.1c0.2-0.1,0.4-0.2,0.5-0.4c0.1-0.2,0.2-0.4,0.2-0.6c0-0.3-0.1-0.6-0.3-0.8c-0.2-0.2-0.6-0.3-1.1-0.3H106V119.4
			z"/>
		<path class="st28" d="M114.9,121.5l0.8,0.1c-0.1,0.5-0.4,0.9-0.7,1.1c-0.4,0.3-0.8,0.4-1.4,0.4c-0.7,0-1.2-0.2-1.6-0.6
			c-0.4-0.4-0.6-1-0.6-1.8c0-0.8,0.2-1.4,0.6-1.9c0.4-0.4,0.9-0.7,1.6-0.7c0.6,0,1.2,0.2,1.6,0.6c0.4,0.4,0.6,1,0.6,1.8
			c0,0,0,0.1,0,0.2h-3.5c0,0.5,0.2,0.9,0.4,1.2c0.3,0.3,0.6,0.4,1,0.4c0.3,0,0.5-0.1,0.8-0.2C114.6,122.1,114.7,121.9,114.9,121.5z
			 M112.2,120.2h2.6c0-0.4-0.1-0.7-0.3-0.9c-0.3-0.3-0.6-0.5-1-0.5c-0.4,0-0.7,0.1-0.9,0.4C112.4,119.5,112.3,119.8,112.2,120.2z"/>
		<path class="st28" d="M119.7,124.9v-2.3c-0.1,0.2-0.3,0.3-0.5,0.4c-0.2,0.1-0.5,0.2-0.7,0.2c-0.6,0-1-0.2-1.5-0.7
			s-0.6-1.1-0.6-1.8c0-0.5,0.1-0.9,0.2-1.3c0.2-0.4,0.4-0.7,0.7-0.9c0.3-0.2,0.7-0.3,1-0.3c0.6,0,1,0.2,1.4,0.7v-0.6h0.7v6.6H119.7z
			 M117.2,120.7c0,0.6,0.1,1.1,0.4,1.4c0.3,0.3,0.6,0.5,0.9,0.5c0.3,0,0.6-0.1,0.9-0.4c0.2-0.3,0.4-0.7,0.4-1.3
			c0-0.6-0.1-1.1-0.4-1.4s-0.6-0.5-0.9-0.5c-0.3,0-0.6,0.1-0.9,0.4C117.4,119.6,117.2,120,117.2,120.7z"/>
		<path class="st28" d="M124.9,123.1v-0.7c-0.4,0.5-0.9,0.8-1.5,0.8c-0.3,0-0.5-0.1-0.8-0.2c-0.2-0.1-0.4-0.2-0.5-0.4
			s-0.2-0.4-0.2-0.6c0-0.2,0-0.4,0-0.7v-2.9h0.8v2.6c0,0.4,0,0.7,0,0.8c0.1,0.2,0.2,0.4,0.3,0.5c0.2,0.1,0.4,0.2,0.6,0.2
			c0.2,0,0.5-0.1,0.7-0.2c0.2-0.1,0.4-0.3,0.4-0.5c0.1-0.2,0.1-0.5,0.1-0.9v-2.5h0.8v4.7H124.9z"/>
		<path class="st28" d="M130.1,121.5l0.8,0.1c-0.1,0.5-0.4,0.9-0.7,1.1c-0.4,0.3-0.8,0.4-1.4,0.4c-0.7,0-1.2-0.2-1.6-0.6
			c-0.4-0.4-0.6-1-0.6-1.8c0-0.8,0.2-1.4,0.6-1.9c0.4-0.4,0.9-0.7,1.6-0.7c0.6,0,1.2,0.2,1.6,0.6c0.4,0.4,0.6,1,0.6,1.8
			c0,0,0,0.1,0,0.2h-3.5c0,0.5,0.2,0.9,0.4,1.2c0.3,0.3,0.6,0.4,1,0.4c0.3,0,0.5-0.1,0.8-0.2C129.8,122.1,130,121.9,130.1,121.5z
			 M127.5,120.2h2.6c0-0.4-0.1-0.7-0.3-0.9c-0.3-0.3-0.6-0.5-1-0.5c-0.4,0-0.7,0.1-0.9,0.4C127.6,119.5,127.5,119.8,127.5,120.2z"/>
		<path class="st28" d="M131.6,121.6l0.8-0.1c0,0.3,0.2,0.6,0.4,0.7c0.2,0.2,0.5,0.3,0.9,0.3c0.4,0,0.6-0.1,0.8-0.2
			c0.2-0.2,0.3-0.3,0.3-0.5c0-0.2-0.1-0.3-0.2-0.4c-0.1-0.1-0.4-0.2-0.8-0.3c-0.6-0.1-1-0.3-1.2-0.4c-0.2-0.1-0.4-0.3-0.5-0.5
			s-0.2-0.4-0.2-0.6c0-0.2,0-0.4,0.1-0.6c0.1-0.2,0.2-0.3,0.4-0.4c0.1-0.1,0.3-0.2,0.5-0.2c0.2-0.1,0.4-0.1,0.7-0.1
			c0.4,0,0.7,0.1,1,0.2c0.3,0.1,0.5,0.3,0.6,0.4c0.1,0.2,0.2,0.4,0.3,0.7l-0.8,0.1c0-0.2-0.1-0.4-0.3-0.6c-0.2-0.1-0.4-0.2-0.7-0.2
			c-0.4,0-0.6,0.1-0.8,0.2c-0.2,0.1-0.2,0.3-0.2,0.4c0,0.1,0,0.2,0.1,0.3c0.1,0.1,0.2,0.2,0.3,0.2c0.1,0,0.3,0.1,0.7,0.2
			c0.6,0.2,1,0.3,1.2,0.4c0.2,0.1,0.4,0.2,0.5,0.4c0.1,0.2,0.2,0.4,0.2,0.7c0,0.3-0.1,0.5-0.2,0.8c-0.2,0.2-0.4,0.4-0.7,0.5
			c-0.3,0.1-0.6,0.2-1,0.2c-0.6,0-1.1-0.1-1.4-0.4C131.9,122.5,131.7,122.1,131.6,121.6z"/>
		<path class="st28" d="M138.3,122.3l0.1,0.7c-0.2,0-0.4,0.1-0.6,0.1c-0.3,0-0.5,0-0.7-0.1c-0.2-0.1-0.3-0.2-0.3-0.4
			c-0.1-0.2-0.1-0.5-0.1-0.9v-2.7h-0.6v-0.6h0.6v-1.2l0.8-0.5v1.7h0.8v0.6h-0.8v2.8c0,0.2,0,0.4,0,0.4c0,0.1,0.1,0.1,0.1,0.2
			c0.1,0,0.2,0.1,0.3,0.1C138,122.4,138.1,122.4,138.3,122.3z"/>
	</g>
	<g>
		<g>
			<path class="st35" d="M200.7,201.8H35.2c-1,0-1.9-0.8-1.9-1.9v-17.5c0-1,0.8-1.9,1.9-1.9h165.6c1,0,1.9,0.8,1.9,1.9v17.5
				C202.6,201,201.8,201.8,200.7,201.8z"/>
		</g>
		<g>
			<path class="st1" d="M33.9,178.2v-6h2.3c0.5,0,0.8,0.1,1.1,0.2c0.3,0.1,0.5,0.3,0.7,0.6c0.2,0.3,0.2,0.5,0.2,0.8
				c0,0.3-0.1,0.5-0.2,0.7c-0.1,0.2-0.4,0.4-0.6,0.5c0.4,0.1,0.6,0.3,0.8,0.5c0.2,0.3,0.3,0.6,0.3,0.9c0,0.3-0.1,0.5-0.2,0.8
				c-0.1,0.2-0.3,0.4-0.4,0.6c-0.2,0.1-0.4,0.2-0.7,0.3c-0.3,0.1-0.6,0.1-1,0.1H33.9z M34.7,174.7H36c0.4,0,0.6,0,0.8-0.1
				c0.2-0.1,0.4-0.2,0.5-0.3c0.1-0.1,0.2-0.3,0.2-0.5c0-0.2,0-0.4-0.1-0.5c-0.1-0.2-0.2-0.3-0.4-0.3c-0.2-0.1-0.5-0.1-0.9-0.1h-1.2
				V174.7z M34.7,177.5h1.5c0.3,0,0.4,0,0.5,0c0.2,0,0.3-0.1,0.5-0.2c0.1-0.1,0.2-0.2,0.3-0.3c0.1-0.1,0.1-0.3,0.1-0.5
				c0-0.2-0.1-0.4-0.2-0.6c-0.1-0.2-0.3-0.3-0.5-0.3c-0.2-0.1-0.5-0.1-0.9-0.1h-1.4V177.5z"/>
			<path class="st1" d="M39.3,175.3c0-1,0.3-1.8,0.8-2.3c0.5-0.6,1.2-0.8,2.1-0.8c0.6,0,1.1,0.1,1.5,0.4c0.4,0.3,0.8,0.6,1,1.1
				s0.4,1,0.4,1.6c0,0.6-0.1,1.2-0.4,1.6c-0.2,0.5-0.6,0.8-1,1.1c-0.5,0.2-0.9,0.4-1.5,0.4c-0.6,0-1.1-0.1-1.5-0.4
				c-0.4-0.3-0.8-0.6-1-1.1C39.4,176.3,39.3,175.8,39.3,175.3z M40.1,175.3c0,0.7,0.2,1.3,0.6,1.7c0.4,0.4,0.9,0.6,1.5,0.6
				c0.6,0,1.1-0.2,1.5-0.6c0.4-0.4,0.6-1,0.6-1.8c0-0.5-0.1-0.9-0.2-1.3c-0.2-0.4-0.4-0.6-0.7-0.8c-0.3-0.2-0.7-0.3-1.1-0.3
				c-0.6,0-1,0.2-1.5,0.6S40.1,174.4,40.1,175.3z"/>
			<path class="st1" d="M52.7,176.1l0.8,0.2c-0.2,0.7-0.5,1.2-0.9,1.5c-0.4,0.3-1,0.5-1.6,0.5c-0.6,0-1.2-0.1-1.6-0.4
				c-0.4-0.3-0.7-0.6-0.9-1.1c-0.2-0.5-0.3-1-0.3-1.6c0-0.6,0.1-1.2,0.4-1.6c0.2-0.5,0.6-0.8,1-1.1c0.4-0.2,0.9-0.4,1.5-0.4
				c0.6,0,1.1,0.2,1.5,0.5c0.4,0.3,0.7,0.7,0.9,1.3l-0.8,0.2c-0.1-0.4-0.3-0.8-0.6-1c-0.3-0.2-0.6-0.3-1-0.3c-0.5,0-0.8,0.1-1.2,0.3
				c-0.3,0.2-0.5,0.5-0.7,0.9c-0.1,0.4-0.2,0.8-0.2,1.2c0,0.5,0.1,1,0.2,1.3c0.1,0.4,0.4,0.7,0.7,0.9c0.3,0.2,0.7,0.3,1,0.3
				c0.4,0,0.8-0.1,1.1-0.4C52.4,177,52.6,176.6,52.7,176.1z"/>
			<path class="st1" d="M54.1,176c0-0.8,0.2-1.4,0.7-1.8c0.4-0.3,0.8-0.5,1.4-0.5c0.6,0,1.1,0.2,1.5,0.6c0.4,0.4,0.6,0.9,0.6,1.6
				c0,0.6-0.1,1-0.3,1.3c-0.2,0.3-0.4,0.6-0.7,0.7c-0.3,0.2-0.7,0.3-1.1,0.3c-0.6,0-1.1-0.2-1.5-0.6C54.3,177.3,54.1,176.8,54.1,176
				z M54.9,176c0,0.6,0.1,1,0.4,1.3c0.2,0.3,0.5,0.4,0.9,0.4c0.4,0,0.7-0.1,0.9-0.4c0.2-0.3,0.4-0.7,0.4-1.3c0-0.5-0.1-0.9-0.4-1.2
				c-0.2-0.3-0.5-0.4-0.9-0.4c-0.4,0-0.7,0.1-0.9,0.4C55,175.1,54.9,175.5,54.9,176z"/>
			<path class="st1" d="M61.9,178.2v-0.5c-0.3,0.4-0.7,0.6-1.2,0.6c-0.3,0-0.7-0.1-1-0.3c-0.3-0.2-0.5-0.5-0.7-0.8
				c-0.2-0.3-0.2-0.7-0.2-1.2c0-0.4,0.1-0.8,0.2-1.2c0.1-0.4,0.4-0.6,0.7-0.8c0.3-0.2,0.6-0.3,1-0.3c0.3,0,0.5,0.1,0.7,0.2
				c0.2,0.1,0.4,0.3,0.5,0.4v-2.2h0.7v6H61.9z M59.5,176c0,0.6,0.1,1,0.4,1.3c0.2,0.3,0.5,0.4,0.8,0.4c0.3,0,0.6-0.1,0.8-0.4
				c0.2-0.3,0.3-0.7,0.3-1.2c0-0.6-0.1-1-0.3-1.3c-0.2-0.3-0.5-0.4-0.8-0.4c-0.3,0-0.6,0.1-0.8,0.4C59.7,175,59.5,175.5,59.5,176z"
				/>
			<path class="st1" d="M66.7,176.8l0.8,0.1c-0.1,0.4-0.3,0.8-0.7,1c-0.3,0.2-0.7,0.4-1.2,0.4c-0.6,0-1.1-0.2-1.5-0.6
				c-0.4-0.4-0.6-0.9-0.6-1.7c0-0.7,0.2-1.3,0.6-1.7c0.4-0.4,0.9-0.6,1.5-0.6c0.6,0,1.1,0.2,1.4,0.6c0.4,0.4,0.6,1,0.6,1.7
				c0,0,0,0.1,0,0.2h-3.2c0,0.5,0.2,0.8,0.4,1.1c0.2,0.3,0.5,0.4,0.9,0.4c0.3,0,0.5-0.1,0.7-0.2C66.4,177.3,66.6,177.1,66.7,176.8z
				 M64.3,175.6h2.4c0-0.4-0.1-0.6-0.3-0.8c-0.2-0.3-0.5-0.4-0.9-0.4c-0.3,0-0.6,0.1-0.9,0.3C64.4,174.9,64.3,175.2,64.3,175.6z"/>
		</g>
		<g>
			<g>
				<path class="st1" d="M37.3,194l2.2-2.9l-1.9-2.7h0.9l1,1.4c0.2,0.3,0.4,0.5,0.4,0.7c0.1-0.2,0.3-0.4,0.4-0.6l1.1-1.5h0.8l-2,2.6
					l2.1,2.9h-0.9l-1.4-2c-0.1-0.1-0.2-0.2-0.2-0.4c-0.1,0.2-0.2,0.3-0.3,0.4l-1.4,1.9H37.3z"/>
			</g>
			<g>
				<path class="st1" d="M42.5,194l2.2-2.9l-1.9-2.7h0.9l1,1.4c0.2,0.3,0.4,0.5,0.4,0.7c0.1-0.2,0.3-0.4,0.4-0.6l1.1-1.5h0.8l-2,2.6
					l2.1,2.9h-0.9l-1.4-2c-0.1-0.1-0.2-0.2-0.2-0.4c-0.1,0.2-0.2,0.3-0.3,0.4l-1.4,1.9H42.5z"/>
			</g>
			<g>
				<path class="st1" d="M47.6,194l2.2-2.9l-1.9-2.7h0.9l1,1.4c0.2,0.3,0.4,0.5,0.4,0.7c0.1-0.2,0.3-0.4,0.4-0.6l1.1-1.5h0.8l-2,2.6
					l2.1,2.9h-0.9l-1.4-2c-0.1-0.1-0.2-0.2-0.2-0.4c-0.1,0.2-0.2,0.3-0.3,0.4l-1.4,1.9H47.6z"/>
			</g>
			<g>
				<path class="st1" d="M52.8,194l2.2-2.9l-1.9-2.7H54l1,1.4c0.2,0.3,0.4,0.5,0.4,0.7c0.1-0.2,0.3-0.4,0.4-0.6l1.1-1.5h0.8l-2,2.6
					l2.1,2.9H57l-1.4-2c-0.1-0.1-0.2-0.2-0.2-0.4c-0.1,0.2-0.2,0.3-0.3,0.4l-1.4,1.9H52.8z"/>
			</g>
			<g>
				<path class="st1" d="M58,194l2.2-2.9l-1.9-2.7h0.9l1,1.4c0.2,0.3,0.4,0.5,0.4,0.7c0.1-0.2,0.3-0.4,0.4-0.6l1.1-1.5H63l-2,2.6
					l2.1,2.9h-0.9l-1.4-2c-0.1-0.1-0.2-0.2-0.2-0.4c-0.1,0.2-0.2,0.3-0.3,0.4l-1.4,1.9H58z"/>
			</g>
		</g>
	</g>
	<g>
		<g>
			<path class="st35" d="M200.4,237.1H34.9c-1,0-1.9-0.8-1.9-1.9v-17.5c0-1,0.8-1.9,1.9-1.9h165.6c1,0,1.9,0.8,1.9,1.9v17.5
				C202.3,236.3,201.5,237.1,200.4,237.1z"/>
		</g>
		<g>
			<path class="st1" d="M37.9,211.4l0.8,0.2c-0.2,0.7-0.5,1.2-0.9,1.5c-0.4,0.3-1,0.5-1.6,0.5c-0.6,0-1.2-0.1-1.6-0.4
				c-0.4-0.3-0.7-0.6-0.9-1.1c-0.2-0.5-0.3-1-0.3-1.6c0-0.6,0.1-1.2,0.4-1.6c0.2-0.5,0.6-0.8,1-1.1c0.4-0.2,0.9-0.4,1.5-0.4
				c0.6,0,1.1,0.2,1.5,0.5c0.4,0.3,0.7,0.7,0.9,1.3l-0.8,0.2c-0.1-0.4-0.3-0.8-0.6-1c-0.3-0.2-0.6-0.3-1-0.3c-0.5,0-0.8,0.1-1.2,0.3
				c-0.3,0.2-0.5,0.5-0.7,0.9c-0.1,0.4-0.2,0.8-0.2,1.2c0,0.5,0.1,1,0.2,1.3c0.1,0.4,0.4,0.7,0.7,0.9c0.3,0.2,0.7,0.3,1,0.3
				c0.4,0,0.8-0.1,1.1-0.4C37.6,212.3,37.8,211.9,37.9,211.4z"/>
			<path class="st1" d="M39.6,213.5v-6h0.7v6H39.6z"/>
			<path class="st1" d="M41.5,208.3v-0.8h0.7v0.8H41.5z M41.5,213.5v-4.4h0.7v4.4H41.5z"/>
			<path class="st1" d="M46.3,212.1l0.8,0.1c-0.1,0.4-0.3,0.8-0.7,1c-0.3,0.2-0.7,0.4-1.2,0.4c-0.6,0-1.1-0.2-1.5-0.6
				c-0.4-0.4-0.6-0.9-0.6-1.7c0-0.7,0.2-1.3,0.6-1.7c0.4-0.4,0.9-0.6,1.5-0.6c0.6,0,1.1,0.2,1.4,0.6c0.4,0.4,0.6,1,0.6,1.7
				c0,0,0,0.1,0,0.2h-3.2c0,0.5,0.2,0.8,0.4,1.1c0.2,0.3,0.5,0.4,0.9,0.4c0.3,0,0.5-0.1,0.7-0.2C46.1,212.6,46.2,212.4,46.3,212.1z
				 M43.9,210.9h2.4c0-0.4-0.1-0.6-0.3-0.8c-0.2-0.3-0.5-0.4-0.9-0.4c-0.3,0-0.6,0.1-0.9,0.3C44,210.2,43.9,210.5,43.9,210.9z"/>
			<path class="st1" d="M48,213.5v-4.4h0.7v0.6c0.3-0.5,0.8-0.7,1.4-0.7c0.3,0,0.5,0,0.7,0.1c0.2,0.1,0.4,0.2,0.5,0.4
				c0.1,0.2,0.2,0.3,0.2,0.5c0,0.1,0,0.4,0,0.7v2.7h-0.7v-2.6c0-0.3,0-0.5-0.1-0.7c-0.1-0.1-0.2-0.3-0.3-0.4
				c-0.1-0.1-0.3-0.1-0.5-0.1c-0.3,0-0.6,0.1-0.8,0.3c-0.2,0.2-0.3,0.6-0.3,1.1v2.4H48z"/>
			<path class="st1" d="M54.3,212.8l0.1,0.7c-0.2,0-0.4,0.1-0.6,0.1c-0.3,0-0.5,0-0.6-0.1c-0.1-0.1-0.3-0.2-0.3-0.3
				c-0.1-0.1-0.1-0.4-0.1-0.9v-2.5h-0.5v-0.6h0.5v-1.1l0.7-0.4v1.5h0.7v0.6h-0.7v2.5c0,0.2,0,0.3,0,0.4c0,0.1,0.1,0.1,0.1,0.1
				c0.1,0,0.1,0.1,0.3,0.1C54,212.9,54.2,212.9,54.3,212.8z"/>
			<path class="st1" d="M57.4,213.5v-6h0.8l3.2,4.7v-4.7h0.8v6h-0.8l-3.2-4.7v4.7H57.4z"/>
			<path class="st1" d="M66.3,213c-0.3,0.2-0.5,0.4-0.8,0.5c-0.3,0.1-0.5,0.1-0.8,0.1c-0.5,0-0.8-0.1-1.1-0.4
				c-0.3-0.2-0.4-0.5-0.4-0.9c0-0.2,0-0.4,0.1-0.6c0.1-0.2,0.2-0.3,0.4-0.4s0.3-0.2,0.5-0.2c0.1,0,0.4-0.1,0.7-0.1
				c0.6-0.1,1-0.2,1.3-0.3c0-0.1,0-0.2,0-0.2c0-0.3-0.1-0.5-0.2-0.6c-0.2-0.2-0.5-0.3-0.8-0.3c-0.3,0-0.6,0.1-0.8,0.2
				c-0.2,0.1-0.3,0.3-0.4,0.6l-0.7-0.1c0.1-0.3,0.2-0.6,0.3-0.7s0.4-0.3,0.7-0.4c0.3-0.1,0.6-0.2,1-0.2c0.4,0,0.7,0,0.9,0.1
				s0.4,0.2,0.5,0.3c0.1,0.1,0.2,0.3,0.2,0.5c0,0.1,0,0.4,0,0.7v1c0,0.7,0,1.1,0,1.3c0,0.2,0.1,0.4,0.2,0.5h-0.8
				C66.3,213.3,66.3,213.2,66.3,213z M66.2,211.3c-0.3,0.1-0.7,0.2-1.2,0.3c-0.3,0-0.5,0.1-0.6,0.1c-0.1,0.1-0.2,0.1-0.3,0.2
				c-0.1,0.1-0.1,0.2-0.1,0.4c0,0.2,0.1,0.4,0.2,0.5s0.4,0.2,0.7,0.2c0.3,0,0.5-0.1,0.8-0.2c0.2-0.1,0.4-0.3,0.5-0.5
				c0.1-0.2,0.1-0.4,0.1-0.7V211.3z"/>
			<path class="st1" d="M68.1,213.5v-4.4h0.7v0.6c0.1-0.2,0.3-0.4,0.5-0.5c0.2-0.1,0.5-0.2,0.8-0.2c0.3,0,0.6,0.1,0.8,0.2
				c0.2,0.1,0.4,0.3,0.4,0.6c0.3-0.5,0.8-0.8,1.3-0.8c0.4,0,0.8,0.1,1,0.4c0.2,0.2,0.3,0.6,0.3,1.1v3h-0.7v-2.7c0-0.3,0-0.5-0.1-0.6
				s-0.1-0.2-0.3-0.3c-0.1-0.1-0.3-0.1-0.4-0.1c-0.3,0-0.6,0.1-0.8,0.3c-0.2,0.2-0.3,0.5-0.3,1v2.5h-0.7v-2.8c0-0.3-0.1-0.6-0.2-0.7
				c-0.1-0.2-0.3-0.2-0.6-0.2c-0.2,0-0.4,0.1-0.6,0.2c-0.2,0.1-0.3,0.3-0.4,0.5c-0.1,0.2-0.1,0.5-0.1,0.9v2.3H68.1z"/>
			<path class="st1" d="M78.1,212.1l0.8,0.1c-0.1,0.4-0.3,0.8-0.7,1s-0.7,0.4-1.2,0.4c-0.6,0-1.1-0.2-1.5-0.6
				c-0.4-0.4-0.6-0.9-0.6-1.7c0-0.7,0.2-1.3,0.6-1.7c0.4-0.4,0.9-0.6,1.5-0.6c0.6,0,1.1,0.2,1.4,0.6c0.4,0.4,0.6,1,0.6,1.7
				c0,0,0,0.1,0,0.2h-3.2c0,0.5,0.2,0.8,0.4,1.1c0.2,0.3,0.5,0.4,0.9,0.4c0.3,0,0.5-0.1,0.7-0.2C77.8,212.6,77.9,212.4,78.1,212.1z
				 M75.6,210.9h2.4c0-0.4-0.1-0.6-0.3-0.8c-0.2-0.3-0.5-0.4-0.9-0.4c-0.3,0-0.6,0.1-0.9,0.3C75.8,210.2,75.7,210.5,75.6,210.9z"/>
		</g>
		<g>
			<g>
				<path class="st1" d="M37.3,229.3l2.2-2.9l-1.9-2.7h0.9l1,1.4c0.2,0.3,0.4,0.5,0.4,0.7c0.1-0.2,0.3-0.4,0.4-0.6l1.1-1.5h0.8
					l-2,2.6l2.1,2.9h-0.9l-1.4-2c-0.1-0.1-0.2-0.2-0.2-0.4c-0.1,0.2-0.2,0.3-0.3,0.4l-1.4,1.9H37.3z"/>
			</g>
			<g>
				<path class="st1" d="M42.5,229.3l2.2-2.9l-1.9-2.7h0.9l1,1.4c0.2,0.3,0.4,0.5,0.4,0.7c0.1-0.2,0.3-0.4,0.4-0.6l1.1-1.5h0.8
					l-2,2.6l2.1,2.9h-0.9l-1.4-2c-0.1-0.1-0.2-0.2-0.2-0.4c-0.1,0.2-0.2,0.3-0.3,0.4l-1.4,1.9H42.5z"/>
			</g>
			<g>
				<path class="st1" d="M47.6,229.3l2.2-2.9l-1.9-2.7h0.9l1,1.4c0.2,0.3,0.4,0.5,0.4,0.7c0.1-0.2,0.3-0.4,0.4-0.6l1.1-1.5h0.8
					l-2,2.6l2.1,2.9h-0.9l-1.4-2c-0.1-0.1-0.2-0.2-0.2-0.4c-0.1,0.2-0.2,0.3-0.3,0.4l-1.4,1.9H47.6z"/>
			</g>
			<g>
				<path class="st1" d="M52.8,229.3l2.2-2.9l-1.9-2.7H54l1,1.4c0.2,0.3,0.4,0.5,0.4,0.7c0.1-0.2,0.3-0.4,0.4-0.6l1.1-1.5h0.8
					l-2,2.6l2.1,2.9H57l-1.4-2c-0.1-0.1-0.2-0.2-0.2-0.4c-0.1,0.2-0.2,0.3-0.3,0.4l-1.4,1.9H52.8z"/>
			</g>
			<g>
				<path class="st1" d="M58,229.3l2.2-2.9l-1.9-2.7h0.9l1,1.4c0.2,0.3,0.4,0.5,0.4,0.7c0.1-0.2,0.3-0.4,0.4-0.6l1.1-1.5H63l-2,2.6
					l2.1,2.9h-0.9l-1.4-2c-0.1-0.1-0.2-0.2-0.2-0.4c-0.1,0.2-0.2,0.3-0.3,0.4l-1.4,1.9H58z"/>
			</g>
		</g>
	</g>
	<g>
		<g>
			<path class="st35" d="M200.7,272.4H35.2c-1,0-1.9-0.8-1.9-1.9V253c0-1,0.8-1.9,1.9-1.9h165.6c1,0,1.9,0.8,1.9,1.9v17.5
				C202.6,271.5,201.8,272.4,200.7,272.4z"/>
		</g>
		<g>
			<path class="st1" d="M38.2,246.7l0.8,0.2c-0.2,0.7-0.5,1.2-0.9,1.5c-0.4,0.3-1,0.5-1.6,0.5c-0.6,0-1.2-0.1-1.6-0.4
				c-0.4-0.3-0.7-0.6-0.9-1.1c-0.2-0.5-0.3-1-0.3-1.6c0-0.6,0.1-1.2,0.4-1.6c0.2-0.5,0.6-0.8,1-1.1c0.4-0.2,0.9-0.4,1.5-0.4
				c0.6,0,1.1,0.2,1.5,0.5c0.4,0.3,0.7,0.7,0.9,1.3l-0.8,0.2c-0.1-0.4-0.3-0.8-0.6-1c-0.3-0.2-0.6-0.3-1-0.3c-0.5,0-0.8,0.1-1.2,0.3
				c-0.3,0.2-0.5,0.5-0.7,0.9c-0.1,0.4-0.2,0.8-0.2,1.2c0,0.5,0.1,1,0.2,1.3c0.1,0.4,0.4,0.7,0.7,0.9c0.3,0.2,0.7,0.3,1,0.3
				c0.4,0,0.8-0.1,1.1-0.4C37.9,247.6,38.1,247.2,38.2,246.7z"/>
			<path class="st1" d="M39.9,248.8v-6h0.7v6H39.9z"/>
			<path class="st1" d="M41.8,243.6v-0.8h0.7v0.8H41.8z M41.8,248.8v-4.4h0.7v4.4H41.8z"/>
			<path class="st1" d="M46.6,247.4l0.8,0.1c-0.1,0.4-0.3,0.8-0.7,1c-0.3,0.2-0.7,0.4-1.2,0.4c-0.6,0-1.1-0.2-1.5-0.6
				c-0.4-0.4-0.6-0.9-0.6-1.7c0-0.7,0.2-1.3,0.6-1.7c0.4-0.4,0.9-0.6,1.5-0.6c0.6,0,1.1,0.2,1.4,0.6c0.4,0.4,0.6,1,0.6,1.7
				c0,0,0,0.1,0,0.2h-3.2c0,0.5,0.2,0.8,0.4,1.1c0.2,0.3,0.5,0.4,0.9,0.4c0.3,0,0.5-0.1,0.7-0.2C46.4,247.9,46.5,247.7,46.6,247.4z
				 M44.2,246.2h2.4c0-0.4-0.1-0.6-0.3-0.8c-0.2-0.3-0.5-0.4-0.9-0.4c-0.3,0-0.6,0.1-0.9,0.3C44.4,245.5,44.2,245.8,44.2,246.2z"/>
			<path class="st1" d="M48.3,248.8v-4.4H49v0.6c0.3-0.5,0.8-0.7,1.4-0.7c0.3,0,0.5,0,0.7,0.1c0.2,0.1,0.4,0.2,0.5,0.4
				c0.1,0.2,0.2,0.3,0.2,0.5c0,0.1,0,0.4,0,0.7v2.7h-0.7v-2.6c0-0.3,0-0.5-0.1-0.7c-0.1-0.1-0.2-0.3-0.3-0.4
				c-0.1-0.1-0.3-0.1-0.5-0.1c-0.3,0-0.6,0.1-0.8,0.3c-0.2,0.2-0.3,0.6-0.3,1.1v2.4H48.3z"/>
			<path class="st1" d="M54.6,248.1l0.1,0.7c-0.2,0-0.4,0.1-0.6,0.1c-0.3,0-0.5,0-0.6-0.1c-0.1-0.1-0.3-0.2-0.3-0.3
				c-0.1-0.1-0.1-0.4-0.1-0.9V245h-0.5v-0.6h0.5v-1.1l0.7-0.4v1.5h0.7v0.6h-0.7v2.5c0,0.2,0,0.3,0,0.4c0,0.1,0.1,0.1,0.1,0.1
				c0.1,0,0.1,0.1,0.3,0.1C54.4,248.1,54.5,248.1,54.6,248.1z"/>
			<path class="st1" d="M57.7,248.8v-6H60c0.5,0,0.8,0.1,1.1,0.2c0.3,0.1,0.5,0.3,0.7,0.6c0.2,0.3,0.2,0.5,0.2,0.8
				c0,0.3-0.1,0.5-0.2,0.7c-0.1,0.2-0.4,0.4-0.6,0.5c0.4,0.1,0.6,0.3,0.8,0.5c0.2,0.3,0.3,0.6,0.3,0.9c0,0.3-0.1,0.5-0.2,0.8
				c-0.1,0.2-0.3,0.4-0.4,0.6c-0.2,0.1-0.4,0.2-0.7,0.3c-0.3,0.1-0.6,0.1-1,0.1H57.7z M58.5,245.3h1.3c0.4,0,0.6,0,0.8-0.1
				c0.2-0.1,0.4-0.2,0.5-0.3c0.1-0.1,0.2-0.3,0.2-0.5c0-0.2,0-0.4-0.1-0.5c-0.1-0.2-0.2-0.3-0.4-0.3c-0.2-0.1-0.5-0.1-0.9-0.1h-1.2
				V245.3z M58.5,248.1H60c0.3,0,0.4,0,0.5,0c0.2,0,0.3-0.1,0.5-0.2c0.1-0.1,0.2-0.2,0.3-0.3c0.1-0.1,0.1-0.3,0.1-0.5
				c0-0.2-0.1-0.4-0.2-0.6c-0.1-0.2-0.3-0.3-0.5-0.3c-0.2-0.1-0.5-0.1-0.9-0.1h-1.4V248.1z"/>
			<path class="st1" d="M63.2,248.8v-4.4h0.7v0.7c0.2-0.3,0.3-0.5,0.5-0.6c0.1-0.1,0.3-0.1,0.5-0.1c0.2,0,0.5,0.1,0.8,0.2l-0.3,0.7
				c-0.2-0.1-0.4-0.2-0.5-0.2c-0.2,0-0.3,0-0.4,0.1c-0.1,0.1-0.2,0.2-0.3,0.4c-0.1,0.3-0.1,0.5-0.1,0.9v2.3H63.2z"/>
			<path class="st1" d="M68.9,248.2c-0.3,0.2-0.5,0.4-0.8,0.5c-0.3,0.1-0.5,0.1-0.8,0.1c-0.5,0-0.8-0.1-1.1-0.4
				c-0.3-0.2-0.4-0.5-0.4-0.9c0-0.2,0-0.4,0.1-0.6c0.1-0.2,0.2-0.3,0.4-0.4c0.2-0.1,0.3-0.2,0.5-0.2c0.1,0,0.4-0.1,0.7-0.1
				c0.6-0.1,1-0.2,1.3-0.3c0-0.1,0-0.2,0-0.2c0-0.3-0.1-0.5-0.2-0.6c-0.2-0.2-0.5-0.3-0.8-0.3c-0.3,0-0.6,0.1-0.8,0.2
				c-0.2,0.1-0.3,0.3-0.4,0.6l-0.7-0.1c0.1-0.3,0.2-0.6,0.3-0.7c0.2-0.2,0.4-0.3,0.7-0.4c0.3-0.1,0.6-0.2,1-0.2c0.4,0,0.7,0,0.9,0.1
				s0.4,0.2,0.5,0.3c0.1,0.1,0.2,0.3,0.2,0.5c0,0.1,0,0.4,0,0.7v1c0,0.7,0,1.1,0,1.3c0,0.2,0.1,0.4,0.2,0.5H69
				C69,248.6,68.9,248.4,68.9,248.2z M68.8,246.6c-0.3,0.1-0.7,0.2-1.2,0.3c-0.3,0-0.5,0.1-0.6,0.1c-0.1,0.1-0.2,0.1-0.3,0.2
				c-0.1,0.1-0.1,0.2-0.1,0.4c0,0.2,0.1,0.4,0.2,0.5c0.1,0.1,0.4,0.2,0.7,0.2c0.3,0,0.5-0.1,0.8-0.2c0.2-0.1,0.4-0.3,0.5-0.5
				c0.1-0.2,0.1-0.4,0.1-0.7V246.6z"/>
			<path class="st1" d="M70.7,248.8v-4.4h0.7v0.6c0.3-0.5,0.8-0.7,1.4-0.7c0.3,0,0.5,0,0.7,0.1c0.2,0.1,0.4,0.2,0.5,0.4
				c0.1,0.2,0.2,0.3,0.2,0.5c0,0.1,0,0.4,0,0.7v2.7h-0.7v-2.6c0-0.3,0-0.5-0.1-0.7c-0.1-0.1-0.2-0.3-0.3-0.4
				c-0.1-0.1-0.3-0.1-0.5-0.1c-0.3,0-0.6,0.1-0.8,0.3c-0.2,0.2-0.3,0.6-0.3,1.1v2.4H70.7z"/>
			<path class="st1" d="M78.2,247.2l0.7,0.1c-0.1,0.5-0.3,0.9-0.6,1.2c-0.3,0.3-0.7,0.4-1.2,0.4c-0.6,0-1.1-0.2-1.4-0.6
				c-0.4-0.4-0.5-0.9-0.5-1.7c0-0.5,0.1-0.9,0.2-1.2c0.2-0.4,0.4-0.6,0.7-0.8c0.3-0.2,0.7-0.3,1-0.3c0.5,0,0.9,0.1,1.2,0.4
				c0.3,0.2,0.5,0.6,0.6,1l-0.7,0.1c-0.1-0.3-0.2-0.5-0.4-0.7c-0.2-0.1-0.4-0.2-0.6-0.2c-0.4,0-0.7,0.1-0.9,0.4
				c-0.2,0.3-0.3,0.7-0.3,1.3c0,0.6,0.1,1,0.3,1.3c0.2,0.3,0.5,0.4,0.9,0.4c0.3,0,0.5-0.1,0.7-0.3C78.1,247.8,78.2,247.5,78.2,247.2
				z"/>
			<path class="st1" d="M79.6,248.8v-6h0.7v2.2c0.3-0.4,0.8-0.6,1.3-0.6c0.3,0,0.6,0.1,0.8,0.2s0.4,0.3,0.5,0.5
				c0.1,0.2,0.2,0.5,0.2,1v2.8h-0.7V246c0-0.4-0.1-0.6-0.2-0.8c-0.2-0.2-0.4-0.3-0.7-0.3c-0.2,0-0.4,0.1-0.6,0.2
				c-0.2,0.1-0.3,0.3-0.4,0.5c-0.1,0.2-0.1,0.5-0.1,0.8v2.4H79.6z"/>
		</g>
		<g>
			<g>
				<path class="st1" d="M37.3,264.5l2.2-2.9l-1.9-2.7h0.9l1,1.4c0.2,0.3,0.4,0.5,0.4,0.7c0.1-0.2,0.3-0.4,0.4-0.6l1.1-1.5h0.8
					l-2,2.6l2.1,2.9h-0.9l-1.4-2c-0.1-0.1-0.2-0.2-0.2-0.4c-0.1,0.2-0.2,0.3-0.3,0.4l-1.4,1.9H37.3z"/>
			</g>
			<g>
				<path class="st1" d="M42.5,264.5l2.2-2.9l-1.9-2.7h0.9l1,1.4c0.2,0.3,0.4,0.5,0.4,0.7c0.1-0.2,0.3-0.4,0.4-0.6l1.1-1.5h0.8
					l-2,2.6l2.1,2.9h-0.9l-1.4-2c-0.1-0.1-0.2-0.2-0.2-0.4c-0.1,0.2-0.2,0.3-0.3,0.4l-1.4,1.9H42.5z"/>
			</g>
			<g>
				<path class="st1" d="M47.6,264.5l2.2-2.9l-1.9-2.7h0.9l1,1.4c0.2,0.3,0.4,0.5,0.4,0.7c0.1-0.2,0.3-0.4,0.4-0.6l1.1-1.5h0.8
					l-2,2.6l2.1,2.9h-0.9l-1.4-2c-0.1-0.1-0.2-0.2-0.2-0.4c-0.1,0.2-0.2,0.3-0.3,0.4l-1.4,1.9H47.6z"/>
			</g>
			<g>
				<path class="st1" d="M52.8,264.5l2.2-2.9l-1.9-2.7H54l1,1.4c0.2,0.3,0.4,0.5,0.4,0.7c0.1-0.2,0.3-0.4,0.4-0.6L57,259h0.8l-2,2.6
					l2.1,2.9H57l-1.4-2c-0.1-0.1-0.2-0.2-0.2-0.4c-0.1,0.2-0.2,0.3-0.3,0.4l-1.4,1.9H52.8z"/>
			</g>
			<g>
				<path class="st1" d="M58,264.5l2.2-2.9l-1.9-2.7h0.9l1,1.4c0.2,0.3,0.4,0.5,0.4,0.7c0.1-0.2,0.3-0.4,0.4-0.6l1.1-1.5H63l-2,2.6
					l2.1,2.9h-0.9l-1.4-2c-0.1-0.1-0.2-0.2-0.2-0.4c-0.1,0.2-0.2,0.3-0.3,0.4l-1.4,1.9H58z"/>
			</g>
		</g>
	</g>
	<g>
		<g>
			<path class="st35" d="M200.7,307.7H35.2c-1,0-1.9-0.8-1.9-1.9v-17.5c0-1,0.8-1.9,1.9-1.9h165.6c1,0,1.9,0.8,1.9,1.9v17.5
				C202.6,306.8,201.8,307.7,200.7,307.7z"/>
		</g>
		<g>
			<path class="st1" d="M38.2,282l0.8,0.2c-0.2,0.7-0.5,1.2-0.9,1.5c-0.4,0.3-1,0.5-1.6,0.5c-0.6,0-1.2-0.1-1.6-0.4
				c-0.4-0.3-0.7-0.6-0.9-1.1c-0.2-0.5-0.3-1-0.3-1.6c0-0.6,0.1-1.2,0.4-1.6c0.2-0.5,0.6-0.8,1-1.1c0.4-0.2,0.9-0.4,1.5-0.4
				c0.6,0,1.1,0.2,1.5,0.5c0.4,0.3,0.7,0.7,0.9,1.3l-0.8,0.2c-0.1-0.4-0.3-0.8-0.6-1c-0.3-0.2-0.6-0.3-1-0.3c-0.5,0-0.8,0.1-1.2,0.3
				c-0.3,0.2-0.5,0.5-0.7,0.9c-0.1,0.4-0.2,0.8-0.2,1.2c0,0.5,0.1,1,0.2,1.3c0.1,0.4,0.4,0.7,0.7,0.9c0.3,0.2,0.7,0.3,1,0.3
				c0.4,0,0.8-0.1,1.1-0.4C37.9,282.8,38.1,282.5,38.2,282z"/>
			<path class="st1" d="M39.9,284.1v-6h0.7v6H39.9z"/>
			<path class="st1" d="M41.8,278.9V278h0.7v0.8H41.8z M41.8,284.1v-4.4h0.7v4.4H41.8z"/>
			<path class="st1" d="M46.6,282.7l0.8,0.1c-0.1,0.4-0.3,0.8-0.7,1c-0.3,0.2-0.7,0.4-1.2,0.4c-0.6,0-1.1-0.2-1.5-0.6
				c-0.4-0.4-0.6-0.9-0.6-1.7c0-0.7,0.2-1.3,0.6-1.7c0.4-0.4,0.9-0.6,1.5-0.6c0.6,0,1.1,0.2,1.4,0.6c0.4,0.4,0.6,1,0.6,1.7
				c0,0,0,0.1,0,0.2h-3.2c0,0.5,0.2,0.8,0.4,1.1c0.2,0.3,0.5,0.4,0.9,0.4c0.3,0,0.5-0.1,0.7-0.2C46.4,283.2,46.5,283,46.6,282.7z
				 M44.2,281.5h2.4c0-0.4-0.1-0.6-0.3-0.8c-0.2-0.3-0.5-0.4-0.9-0.4c-0.3,0-0.6,0.1-0.9,0.3C44.4,280.8,44.2,281.1,44.2,281.5z"/>
			<path class="st1" d="M48.3,284.1v-4.4H49v0.6c0.3-0.5,0.8-0.7,1.4-0.7c0.3,0,0.5,0,0.7,0.1c0.2,0.1,0.4,0.2,0.5,0.4
				c0.1,0.2,0.2,0.3,0.2,0.5c0,0.1,0,0.4,0,0.7v2.7h-0.7v-2.6c0-0.3,0-0.5-0.1-0.7c-0.1-0.1-0.2-0.3-0.3-0.4
				c-0.1-0.1-0.3-0.1-0.5-0.1c-0.3,0-0.6,0.1-0.8,0.3c-0.2,0.2-0.3,0.6-0.3,1.1v2.4H48.3z"/>
			<path class="st1" d="M54.6,283.4l0.1,0.7c-0.2,0-0.4,0.1-0.6,0.1c-0.3,0-0.5,0-0.6-0.1c-0.1-0.1-0.3-0.2-0.3-0.3
				c-0.1-0.1-0.1-0.4-0.1-0.9v-2.5h-0.5v-0.6h0.5v-1.1l0.7-0.4v1.5h0.7v0.6h-0.7v2.5c0,0.2,0,0.3,0,0.4c0,0.1,0.1,0.1,0.1,0.1
				c0.1,0,0.1,0.1,0.3,0.1C54.4,283.4,54.5,283.4,54.6,283.4z"/>
			<path class="st1" d="M57.7,284.1v-6H60c0.5,0,0.8,0.1,1.1,0.2c0.3,0.1,0.5,0.3,0.7,0.6c0.2,0.3,0.2,0.5,0.2,0.8
				c0,0.3-0.1,0.5-0.2,0.7s-0.4,0.4-0.6,0.5c0.4,0.1,0.6,0.3,0.8,0.5c0.2,0.3,0.3,0.6,0.3,0.9c0,0.3-0.1,0.5-0.2,0.8
				c-0.1,0.2-0.3,0.4-0.4,0.6c-0.2,0.1-0.4,0.2-0.7,0.3c-0.3,0.1-0.6,0.1-1,0.1H57.7z M58.5,280.6h1.3c0.4,0,0.6,0,0.8-0.1
				c0.2-0.1,0.4-0.2,0.5-0.3c0.1-0.1,0.2-0.3,0.2-0.5c0-0.2,0-0.4-0.1-0.5c-0.1-0.2-0.2-0.3-0.4-0.3c-0.2-0.1-0.5-0.1-0.9-0.1h-1.2
				V280.6z M58.5,283.3H60c0.3,0,0.4,0,0.5,0c0.2,0,0.3-0.1,0.5-0.2c0.1-0.1,0.2-0.2,0.3-0.3c0.1-0.1,0.1-0.3,0.1-0.5
				c0-0.2-0.1-0.4-0.2-0.6c-0.1-0.2-0.3-0.3-0.5-0.3s-0.5-0.1-0.9-0.1h-1.4V283.3z"/>
			<path class="st1" d="M66.1,283.5c-0.3,0.2-0.5,0.4-0.8,0.5c-0.3,0.1-0.5,0.1-0.8,0.1c-0.5,0-0.8-0.1-1.1-0.4
				c-0.3-0.2-0.4-0.5-0.4-0.9c0-0.2,0-0.4,0.1-0.6c0.1-0.2,0.2-0.3,0.4-0.4c0.2-0.1,0.3-0.2,0.5-0.2c0.1,0,0.4-0.1,0.7-0.1
				c0.6-0.1,1-0.2,1.3-0.3c0-0.1,0-0.2,0-0.2c0-0.3-0.1-0.5-0.2-0.6c-0.2-0.2-0.5-0.3-0.8-0.3c-0.3,0-0.6,0.1-0.8,0.2
				c-0.2,0.1-0.3,0.3-0.4,0.6l-0.7-0.1c0.1-0.3,0.2-0.6,0.3-0.7s0.4-0.3,0.7-0.4c0.3-0.1,0.6-0.2,1-0.2c0.4,0,0.7,0,0.9,0.1
				c0.2,0.1,0.4,0.2,0.5,0.3c0.1,0.1,0.2,0.3,0.2,0.5c0,0.1,0,0.4,0,0.7v1c0,0.7,0,1.1,0,1.3c0,0.2,0.1,0.4,0.2,0.5h-0.8
				C66.2,283.9,66.1,283.7,66.1,283.5z M66,281.9c-0.3,0.1-0.7,0.2-1.2,0.3c-0.3,0-0.5,0.1-0.6,0.1c-0.1,0.1-0.2,0.1-0.3,0.2
				c-0.1,0.1-0.1,0.2-0.1,0.4c0,0.2,0.1,0.4,0.2,0.5c0.1,0.1,0.4,0.2,0.7,0.2c0.3,0,0.5-0.1,0.8-0.2c0.2-0.1,0.4-0.3,0.5-0.5
				c0.1-0.2,0.1-0.4,0.1-0.7V281.9z"/>
			<path class="st1" d="M67.9,284.1v-4.4h0.7v0.6c0.3-0.5,0.8-0.7,1.4-0.7c0.3,0,0.5,0,0.7,0.1c0.2,0.1,0.4,0.2,0.5,0.4
				c0.1,0.2,0.2,0.3,0.2,0.5c0,0.1,0,0.4,0,0.7v2.7h-0.7v-2.6c0-0.3,0-0.5-0.1-0.7c-0.1-0.1-0.2-0.3-0.3-0.4
				c-0.1-0.1-0.3-0.1-0.5-0.1c-0.3,0-0.6,0.1-0.8,0.3c-0.2,0.2-0.3,0.6-0.3,1.1v2.4H67.9z"/>
			<path class="st1" d="M72.6,284.1v-6h0.7v3.4l1.7-1.8h1l-1.7,1.6l1.8,2.7h-0.9l-1.4-2.2l-0.5,0.5v1.7H72.6z"/>
		</g>
		<g>
			<g>
				<path class="st1" d="M37.3,299.8l2.2-2.9l-1.9-2.7h0.9l1,1.4c0.2,0.3,0.4,0.5,0.4,0.7c0.1-0.2,0.3-0.4,0.4-0.6l1.1-1.5h0.8
					l-2,2.6l2.1,2.9h-0.9l-1.4-2c-0.1-0.1-0.2-0.2-0.2-0.4c-0.1,0.2-0.2,0.3-0.3,0.4l-1.4,1.9H37.3z"/>
			</g>
			<g>
				<path class="st1" d="M42.5,299.8l2.2-2.9l-1.9-2.7h0.9l1,1.4c0.2,0.3,0.4,0.5,0.4,0.7c0.1-0.2,0.3-0.4,0.4-0.6l1.1-1.5h0.8
					l-2,2.6l2.1,2.9h-0.9l-1.4-2c-0.1-0.1-0.2-0.2-0.2-0.4c-0.1,0.2-0.2,0.3-0.3,0.4l-1.4,1.9H42.5z"/>
			</g>
			<g>
				<path class="st1" d="M47.6,299.8l2.2-2.9l-1.9-2.7h0.9l1,1.4c0.2,0.3,0.4,0.5,0.4,0.7c0.1-0.2,0.3-0.4,0.4-0.6l1.1-1.5h0.8
					l-2,2.6l2.1,2.9h-0.9l-1.4-2c-0.1-0.1-0.2-0.2-0.2-0.4c-0.1,0.2-0.2,0.3-0.3,0.4l-1.4,1.9H47.6z"/>
			</g>
			<g>
				<path class="st1" d="M52.8,299.8l2.2-2.9l-1.9-2.7H54l1,1.4c0.2,0.3,0.4,0.5,0.4,0.7c0.1-0.2,0.3-0.4,0.4-0.6l1.1-1.5h0.8
					l-2,2.6l2.1,2.9H57l-1.4-2c-0.1-0.1-0.2-0.2-0.2-0.4c-0.1,0.2-0.2,0.3-0.3,0.4l-1.4,1.9H52.8z"/>
			</g>
			<g>
				<path class="st1" d="M58,299.8l2.2-2.9l-1.9-2.7h0.9l1,1.4c0.2,0.3,0.4,0.5,0.4,0.7c0.1-0.2,0.3-0.4,0.4-0.6l1.1-1.5H63l-2,2.6
					l2.1,2.9h-0.9l-1.4-2c-0.1-0.1-0.2-0.2-0.2-0.4c-0.1,0.2-0.2,0.3-0.3,0.4l-1.4,1.9H58z"/>
			</g>
		</g>
	</g>
	<g>
		<g>
			<path class="st35" d="M200.7,342.9H35.2c-1,0-1.9-0.8-1.9-1.9v-17.5c0-1,0.8-1.9,1.9-1.9h165.6c1,0,1.9,0.8,1.9,1.9v17.5
				C202.6,342.1,201.8,342.9,200.7,342.9z"/>
		</g>
		<g>
			<path class="st1" d="M33.9,319.3v-6h2.3c0.5,0,0.8,0.1,1.1,0.2c0.3,0.1,0.5,0.3,0.7,0.6c0.2,0.3,0.2,0.5,0.2,0.8
				c0,0.3-0.1,0.5-0.2,0.7c-0.1,0.2-0.4,0.4-0.6,0.5c0.4,0.1,0.6,0.3,0.8,0.5c0.2,0.3,0.3,0.6,0.3,0.9c0,0.3-0.1,0.5-0.2,0.8
				c-0.1,0.2-0.3,0.4-0.4,0.6c-0.2,0.1-0.4,0.2-0.7,0.3c-0.3,0.1-0.6,0.1-1,0.1H33.9z M34.7,315.9H36c0.4,0,0.6,0,0.8-0.1
				c0.2-0.1,0.4-0.2,0.5-0.3c0.1-0.1,0.2-0.3,0.2-0.5c0-0.2,0-0.4-0.1-0.5c-0.1-0.2-0.2-0.3-0.4-0.3c-0.2-0.1-0.5-0.1-0.9-0.1h-1.2
				V315.9z M34.7,318.6h1.5c0.3,0,0.4,0,0.5,0c0.2,0,0.3-0.1,0.5-0.2c0.1-0.1,0.2-0.2,0.3-0.3c0.1-0.1,0.1-0.3,0.1-0.5
				c0-0.2-0.1-0.4-0.2-0.6c-0.1-0.2-0.3-0.3-0.5-0.3s-0.5-0.1-0.9-0.1h-1.4V318.6z"/>
			<path class="st1" d="M42.3,318.8c-0.3,0.2-0.5,0.4-0.8,0.5c-0.3,0.1-0.5,0.1-0.8,0.1c-0.5,0-0.8-0.1-1.1-0.4
				c-0.3-0.2-0.4-0.5-0.4-0.9c0-0.2,0-0.4,0.1-0.6c0.1-0.2,0.2-0.3,0.4-0.4s0.3-0.2,0.5-0.2c0.1,0,0.4-0.1,0.7-0.1
				c0.6-0.1,1-0.2,1.3-0.3c0-0.1,0-0.2,0-0.2c0-0.3-0.1-0.5-0.2-0.6c-0.2-0.2-0.5-0.3-0.8-0.3c-0.3,0-0.6,0.1-0.8,0.2
				c-0.2,0.1-0.3,0.3-0.4,0.6l-0.7-0.1c0.1-0.3,0.2-0.6,0.3-0.7c0.2-0.2,0.4-0.3,0.7-0.4c0.3-0.1,0.6-0.2,1-0.2c0.4,0,0.7,0,0.9,0.1
				c0.2,0.1,0.4,0.2,0.5,0.3c0.1,0.1,0.2,0.3,0.2,0.5c0,0.1,0,0.4,0,0.7v1c0,0.7,0,1.1,0,1.3c0,0.2,0.1,0.4,0.2,0.5h-0.8
				C42.4,319.2,42.3,319,42.3,318.8z M42.2,317.2c-0.3,0.1-0.7,0.2-1.2,0.3c-0.3,0-0.5,0.1-0.6,0.1c-0.1,0.1-0.2,0.1-0.3,0.2
				c-0.1,0.1-0.1,0.2-0.1,0.4c0,0.2,0.1,0.4,0.2,0.5s0.4,0.2,0.7,0.2c0.3,0,0.5-0.1,0.8-0.2s0.4-0.3,0.5-0.5
				c0.1-0.2,0.1-0.4,0.1-0.7V317.2z"/>
			<path class="st1" d="M44.1,319.3V315h0.7v0.6c0.3-0.5,0.8-0.7,1.4-0.7c0.3,0,0.5,0,0.7,0.1c0.2,0.1,0.4,0.2,0.5,0.4
				c0.1,0.2,0.2,0.3,0.2,0.5c0,0.1,0,0.4,0,0.7v2.7h-0.7v-2.6c0-0.3,0-0.5-0.1-0.7c-0.1-0.1-0.2-0.3-0.3-0.4
				c-0.1-0.1-0.3-0.1-0.5-0.1c-0.3,0-0.6,0.1-0.8,0.3c-0.2,0.2-0.3,0.6-0.3,1.1v2.4H44.1z"/>
			<path class="st1" d="M48.8,319.3v-6h0.7v3.4l1.7-1.8h1l-1.7,1.6l1.8,2.7h-0.9l-1.4-2.2l-0.5,0.5v1.7H48.8z"/>
			<path class="st1" d="M55.4,319.3v-6h2.3c0.5,0,0.8,0.1,1.1,0.2c0.3,0.1,0.5,0.3,0.7,0.6c0.2,0.3,0.2,0.5,0.2,0.8
				c0,0.3-0.1,0.5-0.2,0.7s-0.4,0.4-0.6,0.5c0.4,0.1,0.6,0.3,0.8,0.5c0.2,0.3,0.3,0.6,0.3,0.9c0,0.3-0.1,0.5-0.2,0.8
				c-0.1,0.2-0.3,0.4-0.4,0.6c-0.2,0.1-0.4,0.2-0.7,0.3c-0.3,0.1-0.6,0.1-1,0.1H55.4z M56.2,315.9h1.3c0.4,0,0.6,0,0.8-0.1
				c0.2-0.1,0.4-0.2,0.5-0.3c0.1-0.1,0.2-0.3,0.2-0.5c0-0.2,0-0.4-0.1-0.5c-0.1-0.2-0.2-0.3-0.4-0.3c-0.2-0.1-0.5-0.1-0.9-0.1h-1.2
				V315.9z M56.2,318.6h1.5c0.3,0,0.4,0,0.5,0c0.2,0,0.3-0.1,0.5-0.2c0.1-0.1,0.2-0.2,0.3-0.3c0.1-0.1,0.1-0.3,0.1-0.5
				c0-0.2-0.1-0.4-0.2-0.6c-0.1-0.2-0.3-0.3-0.5-0.3s-0.5-0.1-0.9-0.1h-1.4V318.6z"/>
			<path class="st1" d="M60.9,319.3V315h0.7v0.7c0.2-0.3,0.3-0.5,0.5-0.6s0.3-0.1,0.5-0.1c0.2,0,0.5,0.1,0.8,0.2l-0.3,0.7
				c-0.2-0.1-0.4-0.2-0.5-0.2c-0.2,0-0.3,0-0.4,0.1c-0.1,0.1-0.2,0.2-0.3,0.4c-0.1,0.3-0.1,0.5-0.1,0.9v2.3H60.9z"/>
			<path class="st1" d="M66.6,318.8c-0.3,0.2-0.5,0.4-0.8,0.5c-0.3,0.1-0.5,0.1-0.8,0.1c-0.5,0-0.8-0.1-1.1-0.4
				c-0.3-0.2-0.4-0.5-0.4-0.9c0-0.2,0-0.4,0.1-0.6c0.1-0.2,0.2-0.3,0.4-0.4c0.2-0.1,0.3-0.2,0.5-0.2c0.1,0,0.4-0.1,0.7-0.1
				c0.6-0.1,1-0.2,1.3-0.3c0-0.1,0-0.2,0-0.2c0-0.3-0.1-0.5-0.2-0.6c-0.2-0.2-0.5-0.3-0.8-0.3c-0.3,0-0.6,0.1-0.8,0.2
				c-0.2,0.1-0.3,0.3-0.4,0.6l-0.7-0.1c0.1-0.3,0.2-0.6,0.3-0.7c0.2-0.2,0.4-0.3,0.7-0.4c0.3-0.1,0.6-0.2,1-0.2c0.4,0,0.7,0,0.9,0.1
				c0.2,0.1,0.4,0.2,0.5,0.3c0.1,0.1,0.2,0.3,0.2,0.5c0,0.1,0,0.4,0,0.7v1c0,0.7,0,1.1,0,1.3c0,0.2,0.1,0.4,0.2,0.5h-0.8
				C66.6,319.2,66.6,319,66.6,318.8z M66.5,317.2c-0.3,0.1-0.7,0.2-1.2,0.3c-0.3,0-0.5,0.1-0.6,0.1c-0.1,0.1-0.2,0.1-0.3,0.2
				c-0.1,0.1-0.1,0.2-0.1,0.4c0,0.2,0.1,0.4,0.2,0.5s0.4,0.2,0.7,0.2c0.3,0,0.5-0.1,0.8-0.2s0.4-0.3,0.5-0.5
				c0.1-0.2,0.1-0.4,0.1-0.7V317.2z"/>
			<path class="st1" d="M68.4,319.3V315h0.7v0.6c0.3-0.5,0.8-0.7,1.4-0.7c0.3,0,0.5,0,0.7,0.1c0.2,0.1,0.4,0.2,0.5,0.4
				s0.2,0.3,0.2,0.5c0,0.1,0,0.4,0,0.7v2.7h-0.7v-2.6c0-0.3,0-0.5-0.1-0.7c-0.1-0.1-0.2-0.3-0.3-0.4c-0.1-0.1-0.3-0.1-0.5-0.1
				c-0.3,0-0.6,0.1-0.8,0.3c-0.2,0.2-0.3,0.6-0.3,1.1v2.4H68.4z"/>
			<path class="st1" d="M75.9,317.7l0.7,0.1c-0.1,0.5-0.3,0.9-0.6,1.2c-0.3,0.3-0.7,0.4-1.2,0.4c-0.6,0-1.1-0.2-1.4-0.6
				c-0.4-0.4-0.5-0.9-0.5-1.7c0-0.5,0.1-0.9,0.2-1.2c0.2-0.4,0.4-0.6,0.7-0.8c0.3-0.2,0.7-0.3,1-0.3c0.5,0,0.9,0.1,1.2,0.4
				c0.3,0.2,0.5,0.6,0.6,1l-0.7,0.1c-0.1-0.3-0.2-0.5-0.4-0.7c-0.2-0.1-0.4-0.2-0.6-0.2c-0.4,0-0.7,0.1-0.9,0.4
				c-0.2,0.3-0.3,0.7-0.3,1.3c0,0.6,0.1,1,0.3,1.3c0.2,0.3,0.5,0.4,0.9,0.4c0.3,0,0.5-0.1,0.7-0.3C75.7,318.4,75.9,318.1,75.9,317.7
				z"/>
			<path class="st1" d="M77.3,319.3v-6H78v2.2c0.3-0.4,0.8-0.6,1.3-0.6c0.3,0,0.6,0.1,0.8,0.2c0.2,0.1,0.4,0.3,0.5,0.5
				c0.1,0.2,0.2,0.5,0.2,1v2.8h-0.7v-2.8c0-0.4-0.1-0.6-0.2-0.8c-0.2-0.2-0.4-0.3-0.7-0.3c-0.2,0-0.4,0.1-0.6,0.2
				c-0.2,0.1-0.3,0.3-0.4,0.5c-0.1,0.2-0.1,0.5-0.1,0.8v2.4H77.3z"/>
		</g>
		<g>
			<g>
				<path class="st1" d="M37.3,335.1l2.2-2.9l-1.9-2.7h0.9l1,1.4c0.2,0.3,0.4,0.5,0.4,0.7c0.1-0.2,0.3-0.4,0.4-0.6l1.1-1.5h0.8
					l-2,2.6l2.1,2.9h-0.9l-1.4-2c-0.1-0.1-0.2-0.2-0.2-0.4c-0.1,0.2-0.2,0.3-0.3,0.4l-1.4,1.9H37.3z"/>
			</g>
			<g>
				<path class="st1" d="M42.5,335.1l2.2-2.9l-1.9-2.7h0.9l1,1.4c0.2,0.3,0.4,0.5,0.4,0.7c0.1-0.2,0.3-0.4,0.4-0.6l1.1-1.5h0.8
					l-2,2.6l2.1,2.9h-0.9l-1.4-2c-0.1-0.1-0.2-0.2-0.2-0.4c-0.1,0.2-0.2,0.3-0.3,0.4l-1.4,1.9H42.5z"/>
			</g>
			<g>
				<path class="st1" d="M47.6,335.1l2.2-2.9l-1.9-2.7h0.9l1,1.4c0.2,0.3,0.4,0.5,0.4,0.7c0.1-0.2,0.3-0.4,0.4-0.6l1.1-1.5h0.8
					l-2,2.6l2.1,2.9h-0.9l-1.4-2c-0.1-0.1-0.2-0.2-0.2-0.4c-0.1,0.2-0.2,0.3-0.3,0.4l-1.4,1.9H47.6z"/>
			</g>
			<g>
				<path class="st1" d="M52.8,335.1l2.2-2.9l-1.9-2.7H54l1,1.4c0.2,0.3,0.4,0.5,0.4,0.7c0.1-0.2,0.3-0.4,0.4-0.6l1.1-1.5h0.8
					l-2,2.6l2.1,2.9H57l-1.4-2c-0.1-0.1-0.2-0.2-0.2-0.4c-0.1,0.2-0.2,0.3-0.3,0.4l-1.4,1.9H52.8z"/>
			</g>
			<g>
				<path class="st1" d="M58,335.1l2.2-2.9l-1.9-2.7h0.9l1,1.4c0.2,0.3,0.4,0.5,0.4,0.7c0.1-0.2,0.3-0.4,0.4-0.6l1.1-1.5H63l-2,2.6
					l2.1,2.9h-0.9l-1.4-2c-0.1-0.1-0.2-0.2-0.2-0.4c-0.1,0.2-0.2,0.3-0.3,0.4l-1.4,1.9H58z"/>
			</g>
		</g>
	</g>
	<g>
		<g>
			<path class="st35" d="M200.4,378.2H34.9c-1,0-1.9-0.8-1.9-1.9v-17.5c0-1,0.8-1.9,1.9-1.9h165.6c1,0,1.9,0.8,1.9,1.9v17.5
				C202.3,377.4,201.5,378.2,200.4,378.2z"/>
		</g>
		<g>
			<path class="st1" d="M33.6,354.6v-6h2.3c0.5,0,0.8,0.1,1.1,0.2c0.3,0.1,0.5,0.3,0.7,0.6c0.2,0.3,0.2,0.5,0.2,0.8
				c0,0.3-0.1,0.5-0.2,0.7s-0.4,0.4-0.6,0.5c0.4,0.1,0.6,0.3,0.8,0.5c0.2,0.3,0.3,0.6,0.3,0.9c0,0.3-0.1,0.5-0.2,0.8
				c-0.1,0.2-0.3,0.4-0.4,0.6c-0.2,0.1-0.4,0.2-0.7,0.3c-0.3,0.1-0.6,0.1-1,0.1H33.6z M34.4,351.1h1.3c0.4,0,0.6,0,0.8-0.1
				c0.2-0.1,0.4-0.2,0.5-0.3c0.1-0.1,0.2-0.3,0.2-0.5c0-0.2,0-0.4-0.1-0.5c-0.1-0.2-0.2-0.3-0.4-0.3c-0.2-0.1-0.5-0.1-0.9-0.1h-1.2
				V351.1z M34.4,353.9h1.5c0.3,0,0.4,0,0.5,0c0.2,0,0.3-0.1,0.5-0.2c0.1-0.1,0.2-0.2,0.3-0.3c0.1-0.1,0.1-0.3,0.1-0.5
				c0-0.2-0.1-0.4-0.2-0.6c-0.1-0.2-0.3-0.3-0.5-0.3s-0.5-0.1-0.9-0.1h-1.4V353.9z"/>
			<path class="st1" d="M42,354.1c-0.3,0.2-0.5,0.4-0.8,0.5c-0.3,0.1-0.5,0.1-0.8,0.1c-0.5,0-0.8-0.1-1.1-0.4
				c-0.3-0.2-0.4-0.5-0.4-0.9c0-0.2,0-0.4,0.1-0.6c0.1-0.2,0.2-0.3,0.4-0.4c0.2-0.1,0.3-0.2,0.5-0.2c0.1,0,0.4-0.1,0.7-0.1
				c0.6-0.1,1-0.2,1.3-0.3c0-0.1,0-0.2,0-0.2c0-0.3-0.1-0.5-0.2-0.6c-0.2-0.2-0.5-0.3-0.8-0.3c-0.3,0-0.6,0.1-0.8,0.2
				c-0.2,0.1-0.3,0.3-0.4,0.6l-0.7-0.1c0.1-0.3,0.2-0.6,0.3-0.7c0.2-0.2,0.4-0.3,0.7-0.4c0.3-0.1,0.6-0.2,1-0.2c0.4,0,0.7,0,0.9,0.1
				c0.2,0.1,0.4,0.2,0.5,0.3c0.1,0.1,0.2,0.3,0.2,0.5c0,0.1,0,0.4,0,0.7v1c0,0.7,0,1.1,0,1.3c0,0.2,0.1,0.4,0.2,0.5h-0.8
				C42.1,354.5,42,354.3,42,354.1z M41.9,352.4c-0.3,0.1-0.7,0.2-1.2,0.3c-0.3,0-0.5,0.1-0.6,0.1c-0.1,0.1-0.2,0.1-0.3,0.2
				c-0.1,0.1-0.1,0.2-0.1,0.4c0,0.2,0.1,0.4,0.2,0.5c0.1,0.1,0.4,0.2,0.7,0.2c0.3,0,0.5-0.1,0.8-0.2c0.2-0.1,0.4-0.3,0.5-0.5
				c0.1-0.2,0.1-0.4,0.1-0.7V352.4z"/>
			<path class="st1" d="M43.8,354.6v-4.4h0.7v0.6c0.3-0.5,0.8-0.7,1.4-0.7c0.3,0,0.5,0,0.7,0.1c0.2,0.1,0.4,0.2,0.5,0.4
				c0.1,0.2,0.2,0.3,0.2,0.5c0,0.1,0,0.4,0,0.7v2.7h-0.7V352c0-0.3,0-0.5-0.1-0.7c-0.1-0.1-0.2-0.3-0.3-0.4s-0.3-0.1-0.5-0.1
				c-0.3,0-0.6,0.1-0.8,0.3s-0.3,0.6-0.3,1.1v2.4H43.8z"/>
			<path class="st1" d="M48.5,354.6v-6h0.7v3.4l1.7-1.8h1l-1.7,1.6l1.8,2.7h-0.9l-1.4-2.2l-0.5,0.5v1.7H48.5z"/>
			<path class="st1" d="M54,354.6l2.3-6h0.9l2.5,6h-0.9l-0.7-1.8h-2.5l-0.7,1.8H54z M55.7,352.2h2l-0.6-1.7
				c-0.2-0.5-0.3-0.9-0.4-1.2c-0.1,0.4-0.2,0.8-0.3,1.1L55.7,352.2z"/>
			<path class="st1" d="M63,353l0.7,0.1c-0.1,0.5-0.3,0.9-0.6,1.2c-0.3,0.3-0.7,0.4-1.2,0.4c-0.6,0-1.1-0.2-1.4-0.6
				c-0.4-0.4-0.5-0.9-0.5-1.7c0-0.5,0.1-0.9,0.2-1.2c0.2-0.4,0.4-0.6,0.7-0.8c0.3-0.2,0.7-0.3,1-0.3c0.5,0,0.9,0.1,1.2,0.4
				c0.3,0.2,0.5,0.6,0.6,1l-0.7,0.1c-0.1-0.3-0.2-0.5-0.4-0.7c-0.2-0.1-0.4-0.2-0.6-0.2c-0.4,0-0.7,0.1-0.9,0.4
				c-0.2,0.3-0.3,0.7-0.3,1.3c0,0.6,0.1,1,0.3,1.3c0.2,0.3,0.5,0.4,0.9,0.4c0.3,0,0.5-0.1,0.7-0.3C62.8,353.7,62.9,353.4,63,353z"/>
			<path class="st1" d="M67.2,353l0.7,0.1c-0.1,0.5-0.3,0.9-0.6,1.2c-0.3,0.3-0.7,0.4-1.2,0.4c-0.6,0-1.1-0.2-1.4-0.6
				c-0.4-0.4-0.5-0.9-0.5-1.7c0-0.5,0.1-0.9,0.2-1.2c0.2-0.4,0.4-0.6,0.7-0.8c0.3-0.2,0.7-0.3,1-0.3c0.5,0,0.9,0.1,1.2,0.4
				c0.3,0.2,0.5,0.6,0.6,1l-0.7,0.1c-0.1-0.3-0.2-0.5-0.4-0.7c-0.2-0.1-0.4-0.2-0.6-0.2c-0.4,0-0.7,0.1-0.9,0.4
				c-0.2,0.3-0.3,0.7-0.3,1.3c0,0.6,0.1,1,0.3,1.3c0.2,0.3,0.5,0.4,0.9,0.4c0.3,0,0.5-0.1,0.7-0.3C67,353.7,67.1,353.4,67.2,353z"/>
			<path class="st1" d="M71,354.6v-6h0.8l3.2,4.7v-4.7h0.8v6h-0.8l-3.2-4.7v4.7H71z"/>
			<path class="st1" d="M76.7,352.4c0-0.8,0.2-1.4,0.7-1.8c0.4-0.3,0.8-0.5,1.4-0.5c0.6,0,1.1,0.2,1.5,0.6c0.4,0.4,0.6,0.9,0.6,1.6
				c0,0.6-0.1,1-0.3,1.3c-0.2,0.3-0.4,0.6-0.7,0.7c-0.3,0.2-0.7,0.3-1.1,0.3c-0.6,0-1.1-0.2-1.5-0.6
				C76.9,353.7,76.7,353.2,76.7,352.4z M77.4,352.4c0,0.6,0.1,1,0.4,1.3c0.2,0.3,0.5,0.4,0.9,0.4c0.4,0,0.7-0.1,0.9-0.4
				c0.2-0.3,0.4-0.7,0.4-1.3c0-0.5-0.1-0.9-0.4-1.2c-0.2-0.3-0.5-0.4-0.9-0.4c-0.4,0-0.7,0.1-0.9,0.4
				C77.6,351.5,77.4,351.9,77.4,352.4z"/>
			<path class="st1" d="M81.5,354.7l0.4-1.7h-0.7v-0.6H82l0.3-1.5h-1.1v-0.6h1.2l0.4-1.8h0.6l-0.4,1.8h1.3l0.4-1.8h0.6l-0.4,1.8h0.7
				v0.6h-0.8l-0.3,1.5h1.1v0.6h-1.3l-0.4,1.7h-0.6l0.4-1.7h-1.3l-0.4,1.7H81.5z M82.6,352.4h1.3l0.3-1.5h-1.3L82.6,352.4z"/>
		</g>
		<g>
			<g>
				<path class="st1" d="M37.3,370.4l2.2-2.9l-1.9-2.7h0.9l1,1.4c0.2,0.3,0.4,0.5,0.4,0.7c0.1-0.2,0.3-0.4,0.4-0.6l1.1-1.5h0.8
					l-2,2.6l2.1,2.9h-0.9l-1.4-2c-0.1-0.1-0.2-0.2-0.2-0.4c-0.1,0.2-0.2,0.3-0.3,0.4l-1.4,1.9H37.3z"/>
			</g>
			<g>
				<path class="st1" d="M42.5,370.4l2.2-2.9l-1.9-2.7h0.9l1,1.4c0.2,0.3,0.4,0.5,0.4,0.7c0.1-0.2,0.3-0.4,0.4-0.6l1.1-1.5h0.8
					l-2,2.6l2.1,2.9h-0.9l-1.4-2c-0.1-0.1-0.2-0.2-0.2-0.4c-0.1,0.2-0.2,0.3-0.3,0.4l-1.4,1.9H42.5z"/>
			</g>
			<g>
				<path class="st1" d="M47.6,370.4l2.2-2.9l-1.9-2.7h0.9l1,1.4c0.2,0.3,0.4,0.5,0.4,0.7c0.1-0.2,0.3-0.4,0.4-0.6l1.1-1.5h0.8
					l-2,2.6l2.1,2.9h-0.9l-1.4-2c-0.1-0.1-0.2-0.2-0.2-0.4c-0.1,0.2-0.2,0.3-0.3,0.4l-1.4,1.9H47.6z"/>
			</g>
			<g>
				<path class="st1" d="M52.8,370.4l2.2-2.9l-1.9-2.7H54l1,1.4c0.2,0.3,0.4,0.5,0.4,0.7c0.1-0.2,0.3-0.4,0.4-0.6l1.1-1.5h0.8
					l-2,2.6l2.1,2.9H57l-1.4-2c-0.1-0.1-0.2-0.2-0.2-0.4c-0.1,0.2-0.2,0.3-0.3,0.4l-1.4,1.9H52.8z"/>
			</g>
			<g>
				<path class="st1" d="M58,370.4l2.2-2.9l-1.9-2.7h0.9l1,1.4c0.2,0.3,0.4,0.5,0.4,0.7c0.1-0.2,0.3-0.4,0.4-0.6l1.1-1.5H63l-2,2.6
					l2.1,2.9h-0.9l-1.4-2c-0.1-0.1-0.2-0.2-0.2-0.4c-0.1,0.2-0.2,0.3-0.3,0.4l-1.4,1.9H58z"/>
			</g>
		</g>
	</g>
	<g>
		<g>
			<path class="st35" d="M200.7,413.5H35.2c-1,0-1.9-0.8-1.9-1.9v-17.5c0-1,0.8-1.9,1.9-1.9h165.6c1,0,1.9,0.8,1.9,1.9v17.5
				C202.6,412.7,201.8,413.5,200.7,413.5z"/>
		</g>
		<g>
			<path class="st1" d="M34,389.9v-6h2.7c0.5,0,0.9,0.1,1.2,0.2c0.3,0.1,0.5,0.3,0.7,0.6c0.2,0.3,0.3,0.6,0.3,0.9
				c0,0.4-0.1,0.8-0.4,1.1c-0.3,0.3-0.7,0.5-1.3,0.6c0.2,0.1,0.4,0.2,0.5,0.3c0.2,0.2,0.5,0.5,0.7,0.8l1,1.6h-1l-0.8-1.3
				c-0.2-0.4-0.4-0.6-0.6-0.8c-0.2-0.2-0.3-0.3-0.4-0.4c-0.1-0.1-0.2-0.1-0.4-0.2c-0.1,0-0.2,0-0.4,0h-0.9v2.7H34z M34.7,386.5h1.7
				c0.4,0,0.6,0,0.9-0.1c0.2-0.1,0.4-0.2,0.5-0.4c0.1-0.2,0.2-0.3,0.2-0.5c0-0.3-0.1-0.5-0.3-0.7c-0.2-0.2-0.5-0.3-1-0.3h-1.9V386.5
				z"/>
			<path class="st1" d="M39.6,387.7c0-0.8,0.2-1.4,0.7-1.8c0.4-0.3,0.8-0.5,1.4-0.5c0.6,0,1.1,0.2,1.5,0.6c0.4,0.4,0.6,0.9,0.6,1.6
				c0,0.6-0.1,1-0.3,1.3c-0.2,0.3-0.4,0.6-0.7,0.7c-0.3,0.2-0.7,0.3-1.1,0.3c-0.6,0-1.1-0.2-1.5-0.6C39.8,389,39.6,388.5,39.6,387.7
				z M40.4,387.7c0,0.6,0.1,1,0.4,1.3c0.2,0.3,0.5,0.4,0.9,0.4c0.4,0,0.7-0.1,0.9-0.4c0.2-0.3,0.4-0.7,0.4-1.3
				c0-0.5-0.1-0.9-0.4-1.2c-0.2-0.3-0.5-0.4-0.9-0.4c-0.4,0-0.7,0.1-0.9,0.4C40.5,386.8,40.4,387.2,40.4,387.7z"/>
			<path class="st1" d="M47.4,389.9v-0.6c-0.3,0.5-0.8,0.7-1.4,0.7c-0.3,0-0.5,0-0.7-0.1c-0.2-0.1-0.4-0.2-0.5-0.4
				c-0.1-0.1-0.2-0.3-0.2-0.5c0-0.1,0-0.4,0-0.7v-2.7h0.7v2.4c0,0.4,0,0.6,0,0.8c0,0.2,0.1,0.3,0.3,0.5c0.2,0.1,0.3,0.2,0.6,0.2
				s0.4-0.1,0.6-0.2c0.2-0.1,0.3-0.3,0.4-0.5c0.1-0.2,0.1-0.5,0.1-0.9v-2.3h0.7v4.4H47.4z"/>
			<path class="st1" d="M50.9,389.2l0.1,0.7c-0.2,0-0.4,0.1-0.6,0.1c-0.3,0-0.5,0-0.6-0.1c-0.1-0.1-0.3-0.2-0.3-0.3
				s-0.1-0.4-0.1-0.9v-2.5h-0.5v-0.6h0.5v-1.1l0.7-0.4v1.5h0.7v0.6h-0.7v2.5c0,0.2,0,0.3,0,0.4c0,0.1,0.1,0.1,0.1,0.1
				c0.1,0,0.1,0.1,0.3,0.1C50.6,389.3,50.7,389.3,50.9,389.2z"/>
			<path class="st1" d="M51.6,384.7v-0.8h0.7v0.8H51.6z M51.6,389.9v-4.4h0.7v4.4H51.6z"/>
			<path class="st1" d="M53.5,389.9v-4.4h0.7v0.6c0.3-0.5,0.8-0.7,1.4-0.7c0.3,0,0.5,0,0.7,0.1c0.2,0.1,0.4,0.2,0.5,0.4
				c0.1,0.2,0.2,0.3,0.2,0.5c0,0.1,0,0.4,0,0.7v2.7h-0.7v-2.6c0-0.3,0-0.5-0.1-0.7c-0.1-0.1-0.2-0.3-0.3-0.4
				c-0.1-0.1-0.3-0.1-0.5-0.1c-0.3,0-0.6,0.1-0.8,0.3c-0.2,0.2-0.3,0.6-0.3,1.1v2.4H53.5z"/>
			<path class="st1" d="M58,390.3l0.7,0.1c0,0.2,0.1,0.4,0.3,0.5c0.2,0.1,0.4,0.2,0.7,0.2c0.3,0,0.6-0.1,0.8-0.2
				c0.2-0.1,0.3-0.3,0.4-0.6c0-0.2,0.1-0.5,0.1-0.9c-0.3,0.4-0.7,0.6-1.2,0.6c-0.6,0-1.1-0.2-1.4-0.6c-0.3-0.4-0.5-1-0.5-1.6
				c0-0.4,0.1-0.8,0.2-1.2c0.2-0.4,0.4-0.6,0.7-0.8c0.3-0.2,0.6-0.3,1-0.3c0.5,0,0.9,0.2,1.3,0.6v-0.5h0.7v3.8
				c0,0.7-0.1,1.2-0.2,1.4c-0.1,0.3-0.4,0.5-0.7,0.7c-0.3,0.2-0.7,0.2-1.1,0.2c-0.5,0-0.9-0.1-1.3-0.4S58,390.7,58,390.3z
				 M58.6,387.6c0,0.6,0.1,1,0.3,1.3c0.2,0.3,0.5,0.4,0.9,0.4c0.3,0,0.6-0.1,0.9-0.4c0.2-0.3,0.3-0.7,0.3-1.2c0-0.5-0.1-0.9-0.4-1.2
				c-0.2-0.3-0.5-0.4-0.9-0.4c-0.3,0-0.6,0.1-0.8,0.4C58.7,386.7,58.6,387.1,58.6,387.6z"/>
			<path class="st1" d="M65.2,389.9v-6H66l3.2,4.7v-4.7H70v6h-0.8l-3.2-4.7v4.7H65.2z"/>
			<path class="st1" d="M70.9,387.7c0-0.8,0.2-1.4,0.7-1.8c0.4-0.3,0.8-0.5,1.4-0.5c0.6,0,1.1,0.2,1.5,0.6c0.4,0.4,0.6,0.9,0.6,1.6
				c0,0.6-0.1,1-0.3,1.3c-0.2,0.3-0.4,0.6-0.7,0.7c-0.3,0.2-0.7,0.3-1.1,0.3c-0.6,0-1.1-0.2-1.5-0.6C71.1,389,70.9,388.5,70.9,387.7
				z M71.7,387.7c0,0.6,0.1,1,0.4,1.3c0.2,0.3,0.5,0.4,0.9,0.4c0.4,0,0.7-0.1,0.9-0.4c0.2-0.3,0.4-0.7,0.4-1.3
				c0-0.5-0.1-0.9-0.4-1.2c-0.2-0.3-0.5-0.4-0.9-0.4c-0.4,0-0.7,0.1-0.9,0.4C71.8,386.8,71.7,387.2,71.7,387.7z"/>
			<path class="st1" d="M75.7,390l0.4-1.7h-0.7v-0.6h0.8l0.3-1.5h-1.1v-0.6h1.2l0.4-1.8h0.6l-0.4,1.8h1.3l0.4-1.8h0.6l-0.4,1.8h0.7
				v0.6H79l-0.3,1.5h1.1v0.6h-1.3l-0.4,1.7h-0.6l0.4-1.7h-1.3l-0.4,1.7H75.7z M76.8,387.6h1.3l0.3-1.5h-1.3L76.8,387.6z"/>
		</g>
		<g>
			<g>
				<path class="st1" d="M37.3,405.7l2.2-2.9l-1.9-2.7h0.9l1,1.4c0.2,0.3,0.4,0.5,0.4,0.7c0.1-0.2,0.3-0.4,0.4-0.6l1.1-1.5h0.8
					l-2,2.6l2.1,2.9h-0.9l-1.4-2c-0.1-0.1-0.2-0.2-0.2-0.4c-0.1,0.2-0.2,0.3-0.3,0.4l-1.4,1.9H37.3z"/>
			</g>
			<g>
				<path class="st1" d="M42.5,405.7l2.2-2.9l-1.9-2.7h0.9l1,1.4c0.2,0.3,0.4,0.5,0.4,0.7c0.1-0.2,0.3-0.4,0.4-0.6l1.1-1.5h0.8
					l-2,2.6l2.1,2.9h-0.9l-1.4-2c-0.1-0.1-0.2-0.2-0.2-0.4c-0.1,0.2-0.2,0.3-0.3,0.4l-1.4,1.9H42.5z"/>
			</g>
			<g>
				<path class="st1" d="M47.6,405.7l2.2-2.9l-1.9-2.7h0.9l1,1.4c0.2,0.3,0.4,0.5,0.4,0.7c0.1-0.2,0.3-0.4,0.4-0.6l1.1-1.5h0.8
					l-2,2.6l2.1,2.9h-0.9l-1.4-2c-0.1-0.1-0.2-0.2-0.2-0.4c-0.1,0.2-0.2,0.3-0.3,0.4l-1.4,1.9H47.6z"/>
			</g>
			<g>
				<path class="st1" d="M52.8,405.7l2.2-2.9l-1.9-2.7H54l1,1.4c0.2,0.3,0.4,0.5,0.4,0.7c0.1-0.2,0.3-0.4,0.4-0.6l1.1-1.5h0.8
					l-2,2.6l2.1,2.9H57l-1.4-2c-0.1-0.1-0.2-0.2-0.2-0.4c-0.1,0.2-0.2,0.3-0.3,0.4l-1.4,1.9H52.8z"/>
			</g>
			<g>
				<path class="st1" d="M58,405.7l2.2-2.9l-1.9-2.7h0.9l1,1.4c0.2,0.3,0.4,0.5,0.4,0.7c0.1-0.2,0.3-0.4,0.4-0.6l1.1-1.5H63l-2,2.6
					l2.1,2.9h-0.9l-1.4-2c-0.1-0.1-0.2-0.2-0.2-0.4c-0.1,0.2-0.2,0.3-0.3,0.4l-1.4,1.9H58z"/>
			</g>
		</g>
	</g>
	<g>
		<g>
			<path class="st35" d="M200.4,448.8H34.9c-1,0-1.9-0.8-1.9-1.9v-17.5c0-1,0.8-1.9,1.9-1.9h165.6c1,0,1.9,0.8,1.9,1.9v17.5
				C202.3,447.9,201.5,448.8,200.4,448.8z"/>
		</g>
		<g>
			<path class="st1" d="M33.6,425.2v-6h1.2l1.4,4.3c0.1,0.4,0.2,0.7,0.3,0.9c0.1-0.2,0.2-0.5,0.3-1l1.4-4.2h1.1v6h-0.8v-5l-1.7,5
				h-0.7l-1.7-5.1v5.1H33.6z"/>
			<path class="st1" d="M40.3,423c0-0.8,0.2-1.4,0.7-1.8c0.4-0.3,0.8-0.5,1.4-0.5c0.6,0,1.1,0.2,1.5,0.6c0.4,0.4,0.6,0.9,0.6,1.6
				c0,0.6-0.1,1-0.3,1.3c-0.2,0.3-0.4,0.6-0.7,0.7c-0.3,0.2-0.7,0.3-1.1,0.3c-0.6,0-1.1-0.2-1.5-0.6C40.4,424.3,40.3,423.7,40.3,423
				z M41,423c0,0.6,0.1,1,0.4,1.3c0.2,0.3,0.5,0.4,0.9,0.4c0.4,0,0.7-0.1,0.9-0.4s0.4-0.7,0.4-1.3c0-0.5-0.1-0.9-0.4-1.2
				c-0.2-0.3-0.5-0.4-0.9-0.4c-0.4,0-0.7,0.1-0.9,0.4C41.1,422,41,422.5,41,423z"/>
			<path class="st1" d="M45.9,425.2h-0.7v-6h0.7v2.1c0.3-0.4,0.7-0.6,1.2-0.6c0.3,0,0.5,0.1,0.8,0.2c0.2,0.1,0.4,0.3,0.6,0.5
				c0.2,0.2,0.3,0.4,0.4,0.7c0.1,0.3,0.1,0.6,0.1,0.9c0,0.7-0.2,1.3-0.6,1.7c-0.4,0.4-0.8,0.6-1.3,0.6c-0.5,0-0.9-0.2-1.2-0.6V425.2
				z M45.9,423c0,0.5,0.1,0.9,0.2,1.1c0.2,0.4,0.5,0.6,0.9,0.6c0.3,0,0.6-0.1,0.8-0.4c0.2-0.3,0.4-0.7,0.4-1.3c0-0.6-0.1-1-0.3-1.3
				c-0.2-0.3-0.5-0.4-0.8-0.4c-0.3,0-0.6,0.1-0.8,0.4C46,422,45.9,422.4,45.9,423z"/>
			<path class="st1" d="M49.9,420v-0.8h0.7v0.8H49.9z M49.9,425.2v-4.4h0.7v4.4H49.9z"/>
			<path class="st1" d="M51.7,425.2v-6h0.7v6H51.7z"/>
			<path class="st1" d="M56.6,423.8l0.8,0.1c-0.1,0.4-0.3,0.8-0.7,1c-0.3,0.2-0.7,0.4-1.2,0.4c-0.6,0-1.1-0.2-1.5-0.6
				c-0.4-0.4-0.6-0.9-0.6-1.7c0-0.7,0.2-1.3,0.6-1.7c0.4-0.4,0.9-0.6,1.5-0.6c0.6,0,1.1,0.2,1.4,0.6c0.4,0.4,0.6,1,0.6,1.7
				c0,0,0,0.1,0,0.2h-3.2c0,0.5,0.2,0.8,0.4,1.1c0.2,0.3,0.5,0.4,0.9,0.4c0.3,0,0.5-0.1,0.7-0.2C56.3,424.3,56.5,424.1,56.6,423.8z
				 M54.2,422.6h2.4c0-0.4-0.1-0.6-0.3-0.8c-0.2-0.3-0.5-0.4-0.9-0.4c-0.3,0-0.6,0.1-0.9,0.3C54.3,421.9,54.2,422.2,54.2,422.6z"/>
		</g>
		<g>
			<g>
				<path class="st1" d="M37.3,440.9l2.2-2.9l-1.9-2.7h0.9l1,1.4c0.2,0.3,0.4,0.5,0.4,0.7c0.1-0.2,0.3-0.4,0.4-0.6l1.1-1.5h0.8
					l-2,2.6l2.1,2.9h-0.9l-1.4-2c-0.1-0.1-0.2-0.2-0.2-0.4c-0.1,0.2-0.2,0.3-0.3,0.4l-1.4,1.9H37.3z"/>
			</g>
			<g>
				<path class="st1" d="M42.5,440.9l2.2-2.9l-1.9-2.7h0.9l1,1.4c0.2,0.3,0.4,0.5,0.4,0.7c0.1-0.2,0.3-0.4,0.4-0.6l1.1-1.5h0.8
					l-2,2.6l2.1,2.9h-0.9l-1.4-2c-0.1-0.1-0.2-0.2-0.2-0.4c-0.1,0.2-0.2,0.3-0.3,0.4l-1.4,1.9H42.5z"/>
			</g>
			<g>
				<path class="st1" d="M47.6,440.9l2.2-2.9l-1.9-2.7h0.9l1,1.4c0.2,0.3,0.4,0.5,0.4,0.7c0.1-0.2,0.3-0.4,0.4-0.6l1.1-1.5h0.8
					l-2,2.6l2.1,2.9h-0.9l-1.4-2c-0.1-0.1-0.2-0.2-0.2-0.4c-0.1,0.2-0.2,0.3-0.3,0.4l-1.4,1.9H47.6z"/>
			</g>
			<g>
				<path class="st1" d="M52.8,440.9L55,438l-1.9-2.7H54l1,1.4c0.2,0.3,0.4,0.5,0.4,0.7c0.1-0.2,0.3-0.4,0.4-0.6l1.1-1.5h0.8l-2,2.6
					l2.1,2.9H57l-1.4-2c-0.1-0.1-0.2-0.2-0.2-0.4c-0.1,0.2-0.2,0.3-0.3,0.4l-1.4,1.9H52.8z"/>
			</g>
			<g>
				<path class="st1" d="M58,440.9l2.2-2.9l-1.9-2.7h0.9l1,1.4c0.2,0.3,0.4,0.5,0.4,0.7c0.1-0.2,0.3-0.4,0.4-0.6l1.1-1.5H63l-2,2.6
					l2.1,2.9h-0.9l-1.4-2c-0.1-0.1-0.2-0.2-0.2-0.4c-0.1,0.2-0.2,0.3-0.3,0.4l-1.4,1.9H58z"/>
			</g>
		</g>
	</g>
</g>
</svg>
