<?xml version="1.0" encoding="utf-8"?>
<!-- Generator: Adobe Illustrator 26.0.1, SVG Export Plug-In . SVG Version: 6.00 Build 0)  -->
<svg version="1.1" id="Layer_1" xmlns="http://www.w3.org/2000/svg" xmlns:xlink="http://www.w3.org/1999/xlink" x="0px" y="0px"
	 viewBox="0 0 473.5 498.5" style="enable-background:new 0 0 473.5 498.5;" xml:space="preserve">
<style type="text/css">
	.st0{fill:none;stroke:#038643;stroke-width:0.5;stroke-miterlimit:10;}
	.st1{fill:#038643;}
	.st2{fill:#929497;}
	.st3{fill:#F68831;}
	.st4{fill:#028141;}
	.st5{fill:#1B66A2;}
</style>
<g>
	<g>
		<g>
			<path class="st1" d="M276.44,347.75L276.44,347.75c2.12,0,4.11,1.15,5.19,2.99l11.96,20.73l1.12,1.95l0.26,0.45l0.52,0
				l26.17,0.03l-13.09,22.59l-0.26,0.45l0.26,0.45l0.99,1.71l11.75,20.35c1.07,1.85,1.07,4.14,0,5.99l-39.67,68.73
				c-1.07,1.85-3.06,3-5.19,3l-79.37,0c-2.15,0-4.13-1.15-5.19-2.99l-39.68-68.72c-1.06-1.85-1.07-4.14,0-5.99l11.32-19.61l24.65,0
				c1.28,0,2.47-0.69,3.12-1.8c0.66-1.12,0.66-2.5,0-3.61l-12.33-21.34l12.91-22.36c1.06-1.85,3.05-2.99,5.19-2.99L276.44,347.75
				 M276.44,346.84C276.44,346.84,276.44,346.84,276.44,346.84l-79.37,0c-2.45,0-4.75,1.32-5.97,3.45l-13.17,22.81l12.6,21.8
				c0.49,0.83,0.49,1.88,0,2.71c-0.49,0.83-1.37,1.35-2.35,1.35l-25.17,0l-11.58,20.06c-1.23,2.13-1.23,4.76,0,6.89l39.68,68.72
				c1.23,2.15,3.52,3.45,5.97,3.45c0,0,0,0,0,0l79.37,0c2.45,0,4.73-1.3,5.97-3.45l39.67-68.73c1.23-2.13,1.23-4.76,0-6.89
				l-11.75-20.35l-0.99-1.71l13.09-22.59c0.35-0.6-0.08-1.35-0.78-1.35l-26.17-0.03l-1.12-1.95l-11.96-20.73
				C281.17,348.16,278.89,346.84,276.44,346.84L276.44,346.84z"/>
		</g>
		<g>
			<path class="st1" d="M100.6,261.14l25.82,0c2.13,0,4.12,1.15,5.18,3l39.69,68.74c1.06,1.84,1.06,4.14,0,5.99l-11.97,20.72
				l-1.13,1.94l-0.26,0.45l0.26,0.45l13.06,22.68l-26.11-0.04l-0.52,0l-0.26,0.45l-0.99,1.72l-11.75,20.35
				c-1.07,1.85-3.06,2.99-5.19,3l-79.36,0.01c-2.14,0-4.13-1.15-5.19-3L2.2,338.86c-1.07-1.86-1.07-4.15,0-5.99l39.68-68.73
				c1.07-1.85,3.06-2.99,5.19-3l22.65,0l12.33,21.35c0.64,1.1,1.83,1.8,3.14,1.81c1.28,0,2.48-0.69,3.11-1.8L100.6,261.14
				 M100.08,260.23L87.5,282.04c-0.47,0.83-1.37,1.35-2.33,1.35c-0.01,0-0.01,0-0.02,0c-0.96-0.01-1.86-0.51-2.34-1.35l-12.59-21.8
				l-23.17,0c-2.46,0-4.74,1.32-5.97,3.45L1.41,332.41c-1.25,2.14-1.23,4.77,0,6.9l39.69,68.74c1.23,2.13,3.49,3.44,5.97,3.45
				l79.36-0.01c2.46,0,4.74-1.32,5.97-3.45l11.75-20.35l0.99-1.72l26.11,0.04c0,0,0,0,0,0c0.69,0,1.13-0.75,0.78-1.35l-13.06-22.68
				l1.13-1.94l11.97-20.73c1.22-2.14,1.23-4.77,0-6.9l-39.69-68.74c-1.23-2.12-3.51-3.45-5.97-3.45c0,0,0,0-0.01,0L100.08,260.23
				L100.08,260.23z"/>
		</g>
		<g>
			<path class="st1" d="M126.42,87.92L126.42,87.92c2.13,0,4.12,1.15,5.19,2.99l11.32,19.61l-12.32,21.35c-0.64,1.1-0.64,2.49,0,3.6
				c0.63,1.12,1.83,1.81,3.13,1.81l24.65-0.01l12.91,22.36c1.07,1.85,1.07,4.14,0,5.99l-39.68,68.74c-1.06,1.84-3.05,2.99-5.19,3
				l-23.93,0l-2.25-0.01l-0.52,0l-0.26,0.45l-13.11,22.65l-13.02-22.63l-0.26-0.45l-0.52,0l-1.98,0l-23.5,0
				c-2.13,0-4.12-1.15-5.19-2.99L2.19,165.66c-1.07-1.85-1.06-4.15,0-5.99l39.68-68.74c1.07-1.85,3.04-3,5.19-3L126.42,87.92
				 M126.42,87.02l-79.36,0c-0.01,0-0.02,0-0.03,0c-2.46,0-4.72,1.33-5.94,3.45L1.4,159.21c-1.23,2.13-1.24,4.74,0,6.9l39.68,68.72
				c1.23,2.13,3.51,3.44,5.97,3.45l23.5,0l1.98,0l13.02,22.63c0.17,0.3,0.48,0.45,0.78,0.45c0.3,0,0.61-0.15,0.78-0.45l13.11-22.65
				l2.25,0.01l23.94,0c2.47-0.01,4.74-1.32,5.97-3.45l39.68-68.74c1.23-2.13,1.23-4.77,0-6.9l-13.17-22.81l-25.17,0.01
				c-0.01,0-0.01,0-0.02,0c-0.96,0-1.85-0.52-2.32-1.35c-0.48-0.84-0.49-1.86,0-2.71l12.58-21.8l-11.59-20.06
				C131.15,88.34,128.87,87.02,126.42,87.02L126.42,87.02z"/>
		</g>
		<g>
			<path class="st1" d="M276.42,1.32L276.42,1.32c2.15,0,4.13,1.15,5.19,3l39.68,68.72c1.07,1.85,1.07,4.14,0,5.99l-11.32,19.61
				l-24.65,0c-1.28,0-2.47,0.69-3.12,1.8c-0.66,1.12-0.66,2.5,0,3.61l12.33,21.34l-12.91,22.36c-1.06,1.85-3.05,2.99-5.19,2.99
				l-79.37,0c-2.12,0-4.11-1.15-5.19-2.99l-11.96-20.73l-1.12-1.95l-0.26-0.45l-0.52,0l-26.17-0.03L164.93,102l0.26-0.45l-0.26-0.45
				l-0.99-1.71l-11.75-20.35c-1.06-1.85-1.07-4.14,0-5.99l39.67-68.73c1.07-1.85,3.06-3,5.19-3L276.42,1.32 M276.42,0.41
				C276.42,0.41,276.42,0.41,276.42,0.41l-79.37,0c-2.45,0-4.73,1.3-5.97,3.45l-39.67,68.73c-1.23,2.13-1.23,4.76,0,6.89
				l11.75,20.35l0.99,1.71l-13.09,22.59c-0.35,0.6,0.08,1.35,0.78,1.35l26.17,0.03l1.12,1.95l11.96,20.73
				c1.25,2.13,3.52,3.45,5.97,3.45c0,0,0,0,0,0l79.37,0c2.45,0,4.75-1.32,5.97-3.45l13.17-22.81l-12.6-21.8
				c-0.49-0.83-0.49-1.88,0-2.71c0.49-0.83,1.37-1.35,2.35-1.35l25.17,0l11.58-20.06c1.23-2.13,1.23-4.76,0-6.89L282.4,3.86
				C281.17,1.71,278.88,0.41,276.42,0.41L276.42,0.41z"/>
		</g>
		<g>
			<path class="st1" d="M426.43,87.91L426.43,87.91c2.13,0,4.12,1.15,5.19,3l39.69,68.74c1.07,1.86,1.07,4.15,0,5.99l-39.68,68.73
				c-1.07,1.85-3.06,2.99-5.19,3l-22.65,0l-12.33-21.35c-0.64-1.1-1.83-1.8-3.14-1.81c-1.28,0-2.48,0.69-3.11,1.8l-12.32,21.35
				l-25.82,0c-2.13,0-4.12-1.15-5.18-3l-39.69-68.74c-1.06-1.84-1.06-4.14,0-5.99l11.97-20.72l1.13-1.94l0.26-0.45l-0.26-0.45
				l-13.06-22.68l26.11,0.04l0.52,0l0.26-0.45l0.99-1.72l11.75-20.35c1.07-1.85,3.06-2.99,5.19-3L426.43,87.91 M426.43,87.01
				l-79.36,0.01c-2.46,0-4.74,1.32-5.97,3.45l-11.75,20.35l-0.99,1.72l-26.11-0.04c0,0,0,0,0,0c-0.69,0-1.13,0.75-0.78,1.35
				l13.06,22.68l-1.13,1.94l-11.97,20.73c-1.22,2.14-1.23,4.77,0,6.9l39.69,68.74c1.23,2.12,3.51,3.45,5.96,3.45c0,0,0,0,0.01,0
				l26.34,0L386,216.46c0.47-0.83,1.37-1.35,2.33-1.35c0.01,0,0.01,0,0.02,0c0.96,0.01,1.86,0.51,2.34,1.35l12.59,21.8l23.17,0
				c2.46,0,4.74-1.32,5.97-3.45l39.68-68.73c1.25-2.14,1.23-4.77,0-6.9L432.4,90.45C431.17,88.33,428.91,87.01,426.43,87.01
				L426.43,87.01z"/>
		</g>
		<g>
			<path class="st1" d="M387.16,238.04l13.02,22.63l0.26,0.45l0.52,0l1.98,0l23.5,0c2.13,0,4.12,1.15,5.19,2.99l39.68,68.72
				c1.06,1.85,1.06,4.15,0,5.99l-39.68,68.74c-1.07,1.85-3.04,3-5.19,3l-79.36,0c-2.13,0-4.12-1.15-5.19-2.99l-11.32-19.61
				l12.32-21.35c0.64-1.1,0.64-2.49,0-3.6c-0.63-1.12-1.83-1.81-3.13-1.81l-24.65,0.01l-12.91-22.36c-1.07-1.85-1.07-4.14,0-5.99
				l39.68-68.74c1.06-1.84,3.05-2.99,5.19-3l23.93,0l2.25,0.01l0.52,0l0.26-0.45L387.16,238.04
				C387.16,238.04,387.16,238.04,387.16,238.04L387.16,238.04 M387.16,237.14c-0.3,0-0.61,0.15-0.78,0.45l-13.11,22.65l-2.25-0.01
				l-23.94,0c-2.47,0.01-4.74,1.32-5.97,3.45l-39.68,68.74c-1.23,2.13-1.23,4.77,0,6.9l13.17,22.81l25.17-0.01c0.01,0,0.01,0,0.02,0
				c0.96,0,1.85,0.52,2.32,1.35c0.48,0.84,0.49,1.86,0,2.71l-12.58,21.8l11.59,20.06c1.23,2.13,3.51,3.44,5.97,3.45l79.36,0
				c0.01,0,0.02,0,0.03,0c2.46,0,4.72-1.33,5.94-3.45l39.68-68.74c1.23-2.13,1.24-4.74,0-6.9l-39.68-68.72
				c-1.23-2.13-3.51-3.44-5.97-3.45l-23.5,0l-1.98,0l-13.02-22.63C387.77,237.29,387.47,237.14,387.16,237.14L387.16,237.14z"/>
		</g>
	</g>
	<g>
		<path d="M216.46,52.42h8.46v1.49h-6.81v3.7h5.98v1.45h-5.98v5.54h-1.65V52.42z"/>
		<path d="M227.98,55.72v5.9c0,0.45,0.07,0.82,0.22,1.11c0.27,0.53,0.76,0.8,1.49,0.8c1.04,0,1.75-0.46,2.12-1.39
			c0.2-0.5,0.31-1.18,0.31-2.05v-4.37h1.49v8.89h-1.41l0.02-1.31c-0.19,0.34-0.43,0.62-0.72,0.85c-0.57,0.46-1.26,0.7-2.08,0.7
			c-1.27,0-2.13-0.42-2.59-1.27c-0.25-0.45-0.37-1.06-0.37-1.82v-6.04H227.98z"/>
		<path d="M235.94,55.72h1.42v1.26c0.42-0.52,0.87-0.89,1.34-1.12s0.99-0.34,1.57-0.34c1.26,0,2.11,0.44,2.56,1.32
			c0.24,0.48,0.37,1.17,0.37,2.07v5.7h-1.52v-5.6c0-0.54-0.08-0.98-0.24-1.31c-0.27-0.55-0.75-0.83-1.44-0.83
			c-0.35,0-0.65,0.04-0.87,0.11c-0.41,0.12-0.77,0.37-1.08,0.73c-0.25,0.29-0.41,0.6-0.49,0.91c-0.08,0.31-0.11,0.76-0.11,1.34v4.66
			h-1.49V55.72z"/>
		<path d="M250.3,56c0.27,0.17,0.57,0.46,0.9,0.87v-4.49h1.44v12.24h-1.34v-1.24c-0.35,0.55-0.76,0.94-1.24,1.19
			s-1.02,0.37-1.64,0.37c-0.99,0-1.85-0.42-2.57-1.25c-0.73-0.83-1.09-1.94-1.09-3.32c0-1.29,0.33-2.42,0.99-3.37
			c0.66-0.95,1.61-1.42,2.83-1.42C249.27,55.57,249.84,55.71,250.3,56z M246.95,62.66c0.4,0.64,1.05,0.96,1.94,0.96
			c0.69,0,1.26-0.3,1.71-0.89c0.45-0.6,0.67-1.45,0.67-2.56c0-1.12-0.23-1.95-0.69-2.49c-0.46-0.54-1.03-0.81-1.7-0.81
			c-0.75,0-1.36,0.29-1.83,0.86s-0.7,1.42-0.7,2.54C246.34,61.22,246.54,62.02,246.95,62.66z"/>
		<path d="M215.57,72.82v1.45h-4.11v10.74h-1.68V74.27h-4.11v-1.45H215.57z"/>
		<path d="M216.31,76.12h1.42v1.54c0.12-0.3,0.4-0.66,0.85-1.09c0.45-0.43,0.98-0.64,1.57-0.64c0.03,0,0.07,0,0.14,0.01
			s0.18,0.02,0.34,0.03v1.58c-0.09-0.02-0.17-0.03-0.25-0.03c-0.07-0.01-0.16-0.01-0.24-0.01c-0.75,0-1.33,0.24-1.73,0.73
			c-0.4,0.48-0.61,1.04-0.61,1.67v5.11h-1.49V76.12z"/>
		<path d="M226.69,79.63c0.34-0.04,0.57-0.19,0.69-0.43c0.07-0.13,0.1-0.32,0.1-0.57c0-0.51-0.18-0.88-0.54-1.11
			c-0.36-0.23-0.88-0.34-1.56-0.34c-0.78,0-1.33,0.21-1.66,0.63c-0.18,0.23-0.3,0.58-0.36,1.04h-1.39c0.03-1.1,0.38-1.86,1.07-2.29
			c0.68-0.43,1.48-0.64,2.38-0.64c1.05,0,1.9,0.2,2.55,0.6c0.65,0.4,0.97,1.02,0.97,1.86v5.12c0,0.15,0.03,0.28,0.1,0.37
			c0.06,0.09,0.2,0.14,0.4,0.14c0.07,0,0.14,0,0.22-0.01c0.08-0.01,0.17-0.02,0.27-0.04v1.1c-0.23,0.07-0.41,0.11-0.53,0.12
			s-0.29,0.02-0.5,0.02c-0.51,0-0.89-0.18-1.12-0.55c-0.12-0.19-0.21-0.47-0.26-0.82c-0.3,0.4-0.74,0.74-1.31,1.04
			s-1.2,0.44-1.88,0.44c-0.82,0-1.5-0.25-2.02-0.75c-0.52-0.5-0.78-1.13-0.78-1.88c0-0.82,0.26-1.46,0.77-1.92s1.19-0.73,2.03-0.84
			L226.69,79.63z M223.54,83.67c0.32,0.25,0.69,0.37,1.12,0.37c0.53,0,1.03-0.12,1.53-0.37c0.83-0.4,1.25-1.07,1.25-1.98v-1.2
			c-0.18,0.12-0.42,0.21-0.71,0.29s-0.57,0.13-0.85,0.17l-0.9,0.12c-0.54,0.07-0.95,0.19-1.22,0.34c-0.46,0.26-0.69,0.68-0.69,1.25
			C223.07,83.08,223.23,83.42,223.54,83.67z"/>
		<path d="M231.38,76.12h1.42v1.26c0.42-0.52,0.87-0.89,1.34-1.12s0.99-0.34,1.57-0.34c1.26,0,2.11,0.44,2.56,1.32
			c0.24,0.48,0.37,1.17,0.37,2.07v5.7h-1.52v-5.6c0-0.54-0.08-0.98-0.24-1.31c-0.27-0.55-0.75-0.83-1.44-0.83
			c-0.35,0-0.64,0.04-0.87,0.11c-0.41,0.12-0.77,0.37-1.08,0.73c-0.25,0.29-0.41,0.6-0.49,0.91c-0.08,0.31-0.11,0.76-0.11,1.34v4.66
			h-1.49V76.12z"/>
		<path d="M241.72,82.22c0.04,0.5,0.17,0.88,0.37,1.15c0.38,0.48,1.03,0.72,1.96,0.72c0.55,0,1.04-0.12,1.46-0.36
			c0.42-0.24,0.63-0.61,0.63-1.12c0-0.38-0.17-0.67-0.51-0.87c-0.22-0.12-0.64-0.26-1.28-0.42l-1.19-0.3
			c-0.76-0.19-1.32-0.4-1.68-0.63c-0.64-0.4-0.96-0.96-0.96-1.68c0-0.84,0.3-1.52,0.91-2.04c0.61-0.52,1.42-0.78,2.44-0.78
			c1.34,0,2.3,0.39,2.9,1.18c0.37,0.5,0.55,1.03,0.54,1.61h-1.41c-0.03-0.34-0.15-0.64-0.36-0.92c-0.34-0.39-0.94-0.59-1.78-0.59
			c-0.56,0-0.99,0.11-1.28,0.32c-0.29,0.22-0.44,0.5-0.44,0.85c0,0.39,0.19,0.7,0.57,0.93c0.22,0.14,0.55,0.26,0.98,0.37l0.99,0.24
			c1.07,0.26,1.79,0.51,2.16,0.76c0.58,0.38,0.87,0.98,0.87,1.8c0,0.79-0.3,1.47-0.9,2.05s-1.51,0.86-2.74,0.86
			c-1.32,0-2.26-0.3-2.81-0.9c-0.55-0.6-0.84-1.34-0.88-2.23H241.72z"/>
		<path d="M250.03,73.41c0.35-0.51,1.02-0.76,2.02-0.76c0.09,0,0.19,0,0.29,0.01s0.21,0.01,0.34,0.02v1.36
			c-0.16-0.01-0.27-0.02-0.34-0.02c-0.07,0-0.13,0-0.19,0c-0.45,0-0.73,0.12-0.81,0.35c-0.09,0.23-0.13,0.83-0.13,1.8h1.48v1.18
			h-1.49v7.67h-1.48v-7.67h-1.24v-1.18h1.24v-1.39C249.73,74.15,249.84,73.7,250.03,73.41z"/>
		<path d="M259.59,76.37c0.59,0.3,1.04,0.68,1.35,1.15c0.3,0.45,0.5,0.97,0.6,1.57c0.09,0.41,0.13,1.06,0.13,1.96h-6.52
			c0.03,0.9,0.24,1.63,0.64,2.17c0.4,0.54,1.02,0.82,1.85,0.82c0.78,0,1.4-0.26,1.87-0.77c0.27-0.3,0.45-0.64,0.56-1.04h1.47
			c-0.04,0.33-0.17,0.69-0.39,1.09c-0.22,0.4-0.46,0.73-0.73,0.98c-0.45,0.44-1.02,0.74-1.69,0.9c-0.36,0.09-0.77,0.13-1.22,0.13
			c-1.11,0-2.04-0.4-2.81-1.21c-0.77-0.8-1.15-1.93-1.15-3.38c0-1.43,0.39-2.59,1.16-3.48s1.79-1.34,3.04-1.34
			C258.39,75.92,259,76.07,259.59,76.37z M260.14,79.86c-0.06-0.65-0.2-1.17-0.42-1.55c-0.41-0.72-1.09-1.08-2.05-1.08
			c-0.69,0-1.26,0.25-1.73,0.74c-0.46,0.5-0.71,1.12-0.74,1.89H260.14z"/>
		<path d="M263.55,76.12h1.42v1.54c0.12-0.3,0.4-0.66,0.86-1.09c0.45-0.43,0.98-0.64,1.57-0.64c0.03,0,0.07,0,0.14,0.01
			s0.18,0.02,0.34,0.03v1.58c-0.09-0.02-0.17-0.03-0.25-0.03c-0.07-0.01-0.16-0.01-0.24-0.01c-0.75,0-1.33,0.24-1.74,0.73
			c-0.4,0.48-0.61,1.04-0.61,1.67v5.11h-1.49V76.12z"/>
	</g>
	<g>
		<path d="M358.97,143.45v1.45h-4.11v10.74h-1.68v-10.74h-4.11v-1.45H358.97z"/>
		<path d="M359.7,146.76h1.42v1.54c0.12-0.3,0.4-0.66,0.86-1.09c0.45-0.43,0.98-0.64,1.57-0.64c0.03,0,0.08,0,0.14,0.01
			s0.18,0.02,0.34,0.03v1.58c-0.09-0.02-0.17-0.03-0.25-0.03c-0.07-0.01-0.16-0.01-0.24-0.01c-0.75,0-1.33,0.24-1.74,0.73
			c-0.4,0.48-0.61,1.04-0.61,1.67v5.11h-1.49V146.76z"/>
		<path d="M370.08,150.26c0.34-0.04,0.57-0.19,0.69-0.43c0.07-0.13,0.1-0.32,0.1-0.57c0-0.51-0.18-0.88-0.54-1.11
			c-0.36-0.23-0.88-0.34-1.56-0.34c-0.78,0-1.33,0.21-1.66,0.63c-0.18,0.23-0.3,0.58-0.36,1.04h-1.39c0.03-1.1,0.38-1.86,1.07-2.29
			c0.68-0.43,1.48-0.64,2.38-0.64c1.05,0,1.9,0.2,2.55,0.6c0.65,0.4,0.97,1.02,0.97,1.86v5.12c0,0.15,0.03,0.28,0.1,0.37
			s0.2,0.14,0.4,0.14c0.07,0,0.14,0,0.22-0.01c0.08-0.01,0.17-0.02,0.27-0.04v1.1c-0.23,0.07-0.41,0.11-0.53,0.12
			c-0.12,0.02-0.29,0.02-0.5,0.02c-0.51,0-0.89-0.18-1.12-0.55c-0.12-0.19-0.21-0.47-0.26-0.82c-0.3,0.4-0.74,0.74-1.31,1.04
			c-0.57,0.29-1.2,0.44-1.88,0.44c-0.82,0-1.5-0.25-2.02-0.75c-0.52-0.5-0.78-1.13-0.78-1.88c0-0.82,0.26-1.46,0.77-1.92
			s1.19-0.73,2.03-0.84L370.08,150.26z M366.94,154.3c0.32,0.25,0.69,0.37,1.12,0.37c0.53,0,1.04-0.12,1.53-0.37
			c0.83-0.4,1.25-1.07,1.25-1.98v-1.2c-0.18,0.12-0.42,0.21-0.71,0.29c-0.29,0.08-0.57,0.13-0.85,0.17l-0.91,0.12
			c-0.54,0.07-0.95,0.19-1.22,0.34c-0.46,0.26-0.69,0.68-0.69,1.25C366.46,153.71,366.62,154.05,366.94,154.3z"/>
		<path d="M379.68,147.03c0.27,0.17,0.57,0.46,0.91,0.87v-4.49h1.44v12.24h-1.34v-1.24c-0.35,0.55-0.76,0.94-1.24,1.19
			c-0.48,0.24-1.02,0.37-1.64,0.37c-0.99,0-1.85-0.42-2.57-1.25c-0.72-0.83-1.09-1.94-1.09-3.32c0-1.29,0.33-2.42,0.99-3.37
			c0.66-0.95,1.61-1.42,2.83-1.42C378.65,146.6,379.22,146.74,379.68,147.03z M376.33,153.7c0.4,0.64,1.05,0.96,1.94,0.96
			c0.69,0,1.26-0.3,1.71-0.89c0.45-0.6,0.67-1.45,0.67-2.56c0-1.12-0.23-1.95-0.69-2.49c-0.46-0.54-1.03-0.81-1.7-0.81
			c-0.75,0-1.36,0.29-1.83,0.86s-0.7,1.42-0.7,2.54C375.72,152.26,375.92,153.05,376.33,153.7z"/>
		<path d="M384.23,143.45h1.52v1.69h-1.52V143.45z M384.23,146.8h1.52v8.85h-1.52V146.8z"/>
		<path d="M388.01,146.76h1.42v1.26c0.42-0.52,0.87-0.89,1.34-1.12s0.99-0.34,1.57-0.34c1.26,0,2.11,0.44,2.56,1.32
			c0.24,0.48,0.37,1.17,0.37,2.07v5.7h-1.52v-5.6c0-0.54-0.08-0.98-0.24-1.31c-0.27-0.55-0.75-0.83-1.44-0.83
			c-0.35,0-0.65,0.04-0.87,0.11c-0.41,0.12-0.77,0.37-1.08,0.73c-0.25,0.29-0.41,0.6-0.49,0.91c-0.08,0.31-0.11,0.76-0.11,1.34v4.66
			h-1.49V146.76z"/>
		<path d="M402.42,147.11c0.28,0.19,0.57,0.48,0.86,0.85v-1.12h1.38v8.08c0,1.13-0.17,2.02-0.5,2.67c-0.62,1.21-1.79,1.81-3.51,1.81
			c-0.96,0-1.76-0.21-2.42-0.64c-0.65-0.43-1.02-1.1-1.1-2.01h1.52c0.07,0.4,0.22,0.71,0.43,0.92c0.34,0.33,0.87,0.5,1.59,0.5
			c1.15,0,1.9-0.4,2.25-1.21c0.21-0.48,0.31-1.33,0.29-2.55c-0.3,0.45-0.66,0.79-1.08,1.01c-0.42,0.22-0.98,0.33-1.67,0.33
			c-0.96,0-1.81-0.34-2.53-1.02c-0.72-0.68-1.08-1.81-1.08-3.39c0-1.49,0.36-2.65,1.09-3.49s1.61-1.25,2.64-1.25
			C401.29,146.6,401.9,146.77,402.42,147.11z M402.61,148.72c-0.45-0.53-1.03-0.8-1.73-0.8c-1.05,0-1.77,0.49-2.16,1.48
			c-0.21,0.53-0.31,1.21-0.31,2.07c0,1,0.2,1.76,0.61,2.29c0.41,0.52,0.95,0.78,1.64,0.78c1.07,0,1.83-0.48,2.27-1.45
			c0.24-0.55,0.37-1.19,0.37-1.92C403.29,150.06,403.06,149.25,402.61,148.72z"/>
		<path d="M416.4,150.26c0.34-0.04,0.57-0.19,0.69-0.43c0.07-0.13,0.1-0.32,0.1-0.57c0-0.51-0.18-0.88-0.54-1.11
			c-0.36-0.23-0.88-0.34-1.56-0.34c-0.78,0-1.33,0.21-1.66,0.63c-0.18,0.23-0.3,0.58-0.36,1.04h-1.39c0.03-1.1,0.38-1.86,1.07-2.29
			c0.68-0.43,1.48-0.64,2.38-0.64c1.05,0,1.9,0.2,2.55,0.6c0.65,0.4,0.97,1.02,0.97,1.86v5.12c0,0.15,0.03,0.28,0.1,0.37
			s0.2,0.14,0.4,0.14c0.07,0,0.14,0,0.22-0.01c0.08-0.01,0.17-0.02,0.27-0.04v1.1c-0.23,0.07-0.41,0.11-0.53,0.12
			c-0.12,0.02-0.29,0.02-0.5,0.02c-0.52,0-0.89-0.18-1.12-0.55c-0.12-0.19-0.21-0.47-0.26-0.82c-0.3,0.4-0.74,0.74-1.31,1.04
			c-0.57,0.29-1.2,0.44-1.88,0.44c-0.82,0-1.5-0.25-2.02-0.75c-0.52-0.5-0.78-1.13-0.78-1.88c0-0.82,0.26-1.46,0.77-1.92
			c0.51-0.45,1.19-0.73,2.03-0.84L416.4,150.26z M413.26,154.3c0.31,0.25,0.69,0.37,1.12,0.37c0.53,0,1.04-0.12,1.53-0.37
			c0.83-0.4,1.25-1.07,1.25-1.98v-1.2c-0.18,0.12-0.42,0.21-0.71,0.29c-0.29,0.08-0.57,0.13-0.85,0.17l-0.9,0.12
			c-0.54,0.07-0.95,0.19-1.22,0.34c-0.46,0.26-0.69,0.68-0.69,1.25C412.78,153.71,412.94,154.05,413.26,154.3z"/>
		<path d="M421.39,144.27h1.51v2.48h1.42v1.22h-1.42v5.8c0,0.31,0.11,0.52,0.32,0.62c0.12,0.06,0.31,0.09,0.58,0.09
			c0.07,0,0.15,0,0.23,0c0.08,0,0.18-0.01,0.29-0.02v1.18c-0.17,0.05-0.35,0.09-0.54,0.11s-0.39,0.03-0.6,0.03
			c-0.7,0-1.17-0.18-1.42-0.54c-0.25-0.36-0.37-0.82-0.37-1.39v-5.89h-1.2v-1.22h1.2V144.27z"/>
		<path d="M348.58,163.85v1.45h-4.11v10.74h-1.68v-10.74h-4.11v-1.45H348.58z"/>
		<path d="M349.31,167.16h1.42v1.54c0.12-0.3,0.4-0.66,0.85-1.09c0.45-0.43,0.98-0.64,1.57-0.64c0.03,0,0.07,0,0.14,0.01
			s0.18,0.02,0.34,0.03v1.58c-0.09-0.02-0.17-0.03-0.25-0.03c-0.07-0.01-0.16-0.01-0.25-0.01c-0.75,0-1.33,0.24-1.73,0.73
			c-0.4,0.48-0.61,1.04-0.61,1.67v5.11h-1.49V167.16z"/>
		<path d="M359.7,170.66c0.34-0.04,0.57-0.19,0.69-0.43c0.07-0.13,0.1-0.32,0.1-0.57c0-0.51-0.18-0.88-0.54-1.11
			c-0.36-0.23-0.88-0.34-1.56-0.34c-0.78,0-1.33,0.21-1.66,0.63c-0.18,0.23-0.3,0.58-0.36,1.04h-1.39c0.03-1.1,0.38-1.86,1.07-2.29
			c0.68-0.43,1.48-0.64,2.38-0.64c1.05,0,1.9,0.2,2.55,0.6c0.65,0.4,0.97,1.02,0.97,1.86v5.12c0,0.15,0.03,0.28,0.1,0.37
			c0.06,0.09,0.2,0.14,0.4,0.14c0.07,0,0.14,0,0.22-0.01c0.08-0.01,0.17-0.02,0.27-0.04v1.1c-0.23,0.07-0.41,0.11-0.53,0.12
			c-0.12,0.02-0.29,0.02-0.5,0.02c-0.51,0-0.89-0.18-1.12-0.55c-0.12-0.19-0.21-0.47-0.26-0.82c-0.3,0.4-0.74,0.74-1.31,1.04
			c-0.57,0.29-1.2,0.44-1.88,0.44c-0.83,0-1.5-0.25-2.02-0.75c-0.52-0.5-0.78-1.13-0.78-1.88c0-0.82,0.26-1.46,0.77-1.92
			s1.19-0.73,2.03-0.84L359.7,170.66z M356.55,174.7c0.32,0.25,0.69,0.37,1.12,0.37c0.53,0,1.03-0.12,1.53-0.37
			c0.83-0.4,1.25-1.07,1.25-1.98v-1.2c-0.18,0.12-0.42,0.21-0.71,0.29c-0.29,0.08-0.57,0.13-0.85,0.17l-0.9,0.12
			c-0.54,0.07-0.95,0.19-1.22,0.34c-0.46,0.26-0.69,0.68-0.69,1.25C356.08,174.11,356.23,174.45,356.55,174.7z"/>
		<path d="M369.29,167.43c0.27,0.17,0.57,0.46,0.9,0.87v-4.49h1.44v12.24h-1.34v-1.24c-0.35,0.55-0.76,0.94-1.24,1.19
			c-0.48,0.24-1.02,0.37-1.63,0.37c-0.99,0-1.85-0.42-2.57-1.25c-0.73-0.83-1.09-1.94-1.09-3.32c0-1.29,0.33-2.42,0.99-3.37
			c0.66-0.95,1.61-1.42,2.83-1.42C368.26,167,368.83,167.14,369.29,167.43z M365.94,174.1c0.4,0.64,1.05,0.96,1.94,0.96
			c0.69,0,1.26-0.3,1.71-0.89c0.45-0.6,0.67-1.45,0.67-2.56c0-1.12-0.23-1.95-0.69-2.49c-0.46-0.54-1.03-0.81-1.7-0.81
			c-0.75,0-1.36,0.29-1.83,0.86c-0.47,0.58-0.7,1.42-0.7,2.54C365.33,172.66,365.53,173.45,365.94,174.1z"/>
		<path d="M379.38,167.4c0.59,0.3,1.04,0.68,1.35,1.15c0.3,0.45,0.5,0.97,0.6,1.57c0.09,0.41,0.13,1.06,0.13,1.96h-6.52
			c0.03,0.9,0.24,1.63,0.64,2.17c0.4,0.54,1.02,0.82,1.85,0.82c0.78,0,1.4-0.26,1.87-0.77c0.27-0.3,0.45-0.64,0.56-1.04h1.47
			c-0.04,0.33-0.17,0.69-0.39,1.09c-0.22,0.4-0.46,0.73-0.73,0.98c-0.45,0.44-1.02,0.74-1.69,0.9c-0.36,0.09-0.77,0.13-1.22,0.13
			c-1.11,0-2.04-0.4-2.81-1.21c-0.77-0.8-1.15-1.93-1.15-3.38c0-1.43,0.39-2.59,1.16-3.48c0.77-0.89,1.79-1.34,3.04-1.34
			C378.17,166.96,378.79,167.11,379.38,167.4z M379.92,170.89c-0.06-0.65-0.2-1.17-0.42-1.55c-0.41-0.72-1.09-1.08-2.05-1.08
			c-0.69,0-1.26,0.25-1.73,0.74c-0.46,0.5-0.71,1.12-0.74,1.89H379.92z"/>
		<path d="M384.54,176.05h-1.99l4.37-6.25l-4.09-5.94h2.07l3.11,4.67l3.09-4.67h1.97l-4.09,5.94l4.29,6.25h-2.05l-3.29-5.01
			L384.54,176.05z"/>
		<path d="M394.52,167.2h1.45v1.18c0.3-0.4,0.63-0.72,0.98-0.94c0.5-0.33,1.1-0.5,1.78-0.5c1.01,0,1.86,0.39,2.57,1.16
			c0.7,0.77,1.05,1.88,1.05,3.31c0,1.94-0.51,3.32-1.52,4.15c-0.64,0.53-1.39,0.79-2.24,0.79c-0.67,0-1.23-0.15-1.69-0.44
			c-0.27-0.17-0.56-0.45-0.89-0.85v4.54h-1.49V167.2z M400.12,174.17c0.46-0.58,0.69-1.46,0.69-2.62c0-0.71-0.1-1.32-0.31-1.83
			c-0.39-0.98-1.1-1.47-2.12-1.47c-1.04,0-1.74,0.52-2.12,1.55c-0.21,0.55-0.31,1.26-0.31,2.11c0,0.69,0.1,1.27,0.31,1.75
			c0.39,0.92,1.1,1.38,2.12,1.38C399.08,175.04,399.66,174.75,400.12,174.17z"/>
		<path d="M404.13,167.16h1.42v1.54c0.12-0.3,0.4-0.66,0.86-1.09c0.45-0.43,0.98-0.64,1.57-0.64c0.03,0,0.07,0,0.14,0.01
			s0.18,0.02,0.34,0.03v1.58c-0.09-0.02-0.17-0.03-0.25-0.03c-0.07-0.01-0.16-0.01-0.24-0.01c-0.75,0-1.33,0.24-1.74,0.73
			c-0.4,0.48-0.61,1.04-0.61,1.67v5.11h-1.49V167.16z"/>
		<path d="M415.29,167.4c0.59,0.3,1.04,0.68,1.35,1.15c0.3,0.45,0.5,0.97,0.6,1.57c0.09,0.41,0.13,1.06,0.13,1.96h-6.52
			c0.03,0.9,0.24,1.63,0.64,2.17c0.4,0.54,1.02,0.82,1.85,0.82c0.78,0,1.4-0.26,1.87-0.77c0.27-0.3,0.45-0.64,0.56-1.04h1.47
			c-0.04,0.33-0.17,0.69-0.39,1.09c-0.22,0.4-0.46,0.73-0.73,0.98c-0.45,0.44-1.02,0.74-1.69,0.9c-0.36,0.09-0.77,0.13-1.22,0.13
			c-1.11,0-2.04-0.4-2.81-1.21c-0.77-0.8-1.15-1.93-1.15-3.38c0-1.43,0.39-2.59,1.16-3.48s1.79-1.34,3.04-1.34
			C414.08,166.96,414.69,167.11,415.29,167.4z M415.83,170.89c-0.06-0.65-0.2-1.17-0.42-1.55c-0.41-0.72-1.09-1.08-2.05-1.08
			c-0.69,0-1.26,0.25-1.73,0.74c-0.46,0.5-0.71,1.12-0.74,1.89H415.83z"/>
		<path d="M420.09,173.26c0.04,0.5,0.17,0.88,0.37,1.15c0.38,0.48,1.03,0.72,1.96,0.72c0.55,0,1.04-0.12,1.46-0.36
			c0.42-0.24,0.63-0.61,0.63-1.12c0-0.38-0.17-0.67-0.51-0.87c-0.22-0.12-0.64-0.26-1.28-0.42l-1.19-0.3
			c-0.76-0.19-1.32-0.4-1.68-0.63c-0.64-0.4-0.96-0.96-0.96-1.68c0-0.84,0.3-1.52,0.91-2.04c0.61-0.52,1.42-0.78,2.44-0.78
			c1.34,0,2.3,0.39,2.9,1.18c0.37,0.5,0.55,1.03,0.54,1.61h-1.41c-0.03-0.34-0.15-0.64-0.36-0.92c-0.34-0.39-0.94-0.59-1.78-0.59
			c-0.56,0-0.99,0.11-1.28,0.32c-0.29,0.22-0.44,0.5-0.44,0.85c0,0.39,0.19,0.7,0.57,0.93c0.22,0.14,0.55,0.26,0.98,0.37l0.99,0.24
			c1.07,0.26,1.79,0.51,2.16,0.76c0.58,0.38,0.87,0.98,0.87,1.8c0,0.79-0.3,1.47-0.9,2.05s-1.51,0.86-2.74,0.86
			c-1.32,0-2.26-0.3-2.81-0.9c-0.55-0.6-0.84-1.34-0.88-2.23H420.09z"/>
		<path d="M428.59,173.26c0.04,0.5,0.17,0.88,0.37,1.15c0.38,0.48,1.03,0.72,1.96,0.72c0.55,0,1.04-0.12,1.46-0.36
			c0.42-0.24,0.63-0.61,0.63-1.12c0-0.38-0.17-0.67-0.51-0.87c-0.22-0.12-0.64-0.26-1.28-0.42l-1.19-0.3
			c-0.76-0.19-1.32-0.4-1.68-0.63c-0.64-0.4-0.96-0.96-0.96-1.68c0-0.84,0.3-1.52,0.91-2.04c0.61-0.52,1.42-0.78,2.44-0.78
			c1.34,0,2.3,0.39,2.9,1.18c0.37,0.5,0.55,1.03,0.54,1.61h-1.41c-0.03-0.34-0.15-0.64-0.36-0.92c-0.34-0.39-0.94-0.59-1.78-0.59
			c-0.56,0-0.99,0.11-1.28,0.32c-0.29,0.22-0.44,0.5-0.44,0.85c0,0.39,0.19,0.7,0.57,0.93c0.22,0.14,0.55,0.26,0.98,0.37l0.99,0.24
			c1.07,0.26,1.79,0.51,2.16,0.76c0.58,0.38,0.87,0.98,0.87,1.8c0,0.79-0.3,1.47-0.9,2.05s-1.51,0.86-2.74,0.86
			c-1.32,0-2.26-0.3-2.81-0.9c-0.55-0.6-0.84-1.34-0.88-2.23H428.59z"/>
	</g>
	<g>
		<g>
			<path d="M346.86,305.12h1.67v12.19h-1.67V305.12z"/>
			<path d="M351.01,308.43h1.42v1.26c0.42-0.52,0.87-0.89,1.34-1.12c0.47-0.23,0.99-0.34,1.57-0.34c1.26,0,2.11,0.44,2.56,1.32
				c0.24,0.48,0.37,1.17,0.37,2.07v5.7h-1.52v-5.6c0-0.54-0.08-0.98-0.24-1.31c-0.27-0.55-0.75-0.83-1.44-0.83
				c-0.35,0-0.64,0.04-0.87,0.11c-0.41,0.12-0.77,0.37-1.08,0.73c-0.25,0.29-0.41,0.6-0.49,0.91c-0.07,0.31-0.11,0.76-0.11,1.34
				v4.66h-1.49V308.43z"/>
			<path d="M361.19,308.43l2.37,7.24l2.48-7.24h1.63l-3.35,8.89h-1.59l-3.28-8.89H361.19z"/>
			<path d="M374.5,308.67c0.59,0.3,1.04,0.68,1.35,1.15c0.3,0.45,0.5,0.97,0.6,1.57c0.09,0.41,0.13,1.06,0.13,1.96h-6.52
				c0.03,0.9,0.24,1.62,0.64,2.17c0.4,0.54,1.02,0.82,1.85,0.82c0.78,0,1.4-0.26,1.87-0.77c0.27-0.3,0.45-0.64,0.56-1.04h1.47
				c-0.04,0.33-0.17,0.69-0.39,1.09c-0.22,0.4-0.46,0.73-0.73,0.98c-0.45,0.44-1.02,0.74-1.68,0.9c-0.36,0.09-0.77,0.13-1.22,0.13
				c-1.11,0-2.04-0.4-2.81-1.21c-0.77-0.8-1.15-1.93-1.15-3.38c0-1.43,0.39-2.59,1.16-3.48c0.77-0.89,1.79-1.34,3.04-1.34
				C373.3,308.23,373.91,308.38,374.5,308.67z M375.05,312.16c-0.06-0.65-0.2-1.17-0.42-1.55c-0.41-0.72-1.09-1.08-2.05-1.08
				c-0.69,0-1.26,0.25-1.73,0.74c-0.46,0.5-0.71,1.12-0.74,1.89H375.05z"/>
			<path d="M379.31,314.53c0.04,0.5,0.17,0.88,0.37,1.15c0.38,0.48,1.03,0.72,1.96,0.72c0.55,0,1.04-0.12,1.46-0.36
				c0.42-0.24,0.63-0.61,0.63-1.12c0-0.38-0.17-0.67-0.51-0.87c-0.22-0.12-0.64-0.26-1.28-0.42l-1.19-0.3
				c-0.76-0.19-1.32-0.4-1.68-0.63c-0.64-0.4-0.96-0.96-0.96-1.68c0-0.84,0.3-1.52,0.91-2.04c0.61-0.52,1.42-0.78,2.44-0.78
				c1.34,0,2.3,0.39,2.9,1.18c0.37,0.5,0.55,1.04,0.54,1.61h-1.41c-0.03-0.34-0.15-0.64-0.36-0.92c-0.34-0.39-0.94-0.59-1.78-0.59
				c-0.56,0-0.99,0.11-1.28,0.32s-0.44,0.5-0.44,0.85c0,0.39,0.19,0.7,0.57,0.93c0.22,0.14,0.55,0.26,0.98,0.37l0.99,0.24
				c1.07,0.26,1.79,0.51,2.16,0.75c0.58,0.38,0.87,0.98,0.87,1.8c0,0.79-0.3,1.47-0.9,2.05c-0.6,0.58-1.52,0.86-2.74,0.86
				c-1.32,0-2.26-0.3-2.81-0.9c-0.55-0.6-0.84-1.34-0.88-2.23H379.31z"/>
			<path d="M387.22,305.95h1.51v2.48h1.42v1.22h-1.42v5.8c0,0.31,0.11,0.52,0.32,0.62c0.12,0.06,0.31,0.09,0.58,0.09
				c0.07,0,0.15,0,0.23,0c0.08,0,0.18-0.01,0.29-0.02v1.18c-0.17,0.05-0.35,0.09-0.54,0.11c-0.19,0.02-0.39,0.03-0.6,0.03
				c-0.7,0-1.17-0.18-1.42-0.54c-0.25-0.36-0.37-0.82-0.37-1.39v-5.88h-1.2v-1.22h1.2V305.95z"/>
			<path d="M391.64,308.43h1.48v1.26c0.35-0.44,0.67-0.75,0.96-0.95c0.49-0.34,1.05-0.51,1.68-0.51c0.71,0,1.28,0.17,1.71,0.52
				c0.24,0.2,0.46,0.49,0.66,0.88c0.33-0.48,0.72-0.83,1.17-1.06c0.45-0.23,0.95-0.34,1.51-0.34c1.2,0,2.01,0.43,2.44,1.29
				c0.23,0.46,0.35,1.09,0.35,1.88v5.92h-1.55v-6.18c0-0.59-0.15-1-0.44-1.22c-0.3-0.22-0.66-0.33-1.08-0.33
				c-0.59,0-1.09,0.2-1.51,0.59c-0.42,0.39-0.63,1.05-0.63,1.97v5.17h-1.52v-5.8c0-0.6-0.07-1.04-0.22-1.32
				c-0.23-0.42-0.65-0.62-1.27-0.62c-0.56,0-1.08,0.22-1.54,0.66c-0.46,0.44-0.69,1.23-0.69,2.37v4.71h-1.49V308.43z"/>
			<path d="M411.34,308.67c0.59,0.3,1.04,0.68,1.35,1.15c0.3,0.45,0.5,0.97,0.6,1.57c0.09,0.41,0.13,1.06,0.13,1.96h-6.52
				c0.03,0.9,0.24,1.62,0.64,2.17c0.4,0.54,1.02,0.82,1.85,0.82c0.78,0,1.4-0.26,1.87-0.77c0.27-0.3,0.45-0.64,0.56-1.04h1.47
				c-0.04,0.33-0.17,0.69-0.39,1.09c-0.22,0.4-0.46,0.73-0.73,0.98c-0.45,0.44-1.02,0.74-1.69,0.9c-0.36,0.09-0.77,0.13-1.22,0.13
				c-1.11,0-2.04-0.4-2.81-1.21c-0.77-0.8-1.15-1.93-1.15-3.38c0-1.43,0.39-2.59,1.16-3.48c0.77-0.89,1.79-1.34,3.04-1.34
				C410.14,308.23,410.75,308.38,411.34,308.67z M411.89,312.16c-0.06-0.65-0.2-1.17-0.42-1.55c-0.41-0.72-1.09-1.08-2.05-1.08
				c-0.69,0-1.26,0.25-1.73,0.74c-0.46,0.5-0.71,1.12-0.74,1.89H411.89z"/>
			<path d="M415.26,308.43h1.42v1.26c0.42-0.52,0.87-0.89,1.34-1.12c0.47-0.23,0.99-0.34,1.57-0.34c1.26,0,2.11,0.44,2.56,1.32
				c0.24,0.48,0.37,1.17,0.37,2.07v5.7h-1.52v-5.6c0-0.54-0.08-0.98-0.24-1.31c-0.27-0.55-0.75-0.83-1.44-0.83
				c-0.35,0-0.65,0.04-0.87,0.11c-0.41,0.12-0.77,0.37-1.08,0.73c-0.25,0.29-0.41,0.6-0.49,0.91c-0.08,0.31-0.11,0.76-0.11,1.34
				v4.66h-1.49V308.43z"/>
			<path d="M425.01,305.95h1.51v2.48h1.42v1.22h-1.42v5.8c0,0.31,0.11,0.52,0.32,0.62c0.12,0.06,0.31,0.09,0.58,0.09
				c0.07,0,0.15,0,0.23,0s0.18-0.01,0.29-0.02v1.18c-0.17,0.05-0.35,0.09-0.54,0.11c-0.19,0.02-0.39,0.03-0.6,0.03
				c-0.7,0-1.17-0.18-1.42-0.54c-0.25-0.36-0.37-0.82-0.37-1.39v-5.88h-1.2v-1.22h1.2V305.95z"/>
			<path d="M358.53,326.41c0.85,0.81,1.33,1.74,1.42,2.77h-1.61c-0.18-0.79-0.55-1.41-1.09-1.87c-0.55-0.46-1.31-0.69-2.3-0.69
				c-1.2,0-2.17,0.42-2.91,1.27c-0.74,0.84-1.11,2.14-1.11,3.88c0,1.43,0.33,2.59,1,3.47c0.67,0.89,1.66,1.33,2.98,1.33
				c1.22,0,2.14-0.47,2.78-1.4c0.34-0.49,0.59-1.14,0.76-1.94h1.61c-0.14,1.28-0.62,2.36-1.43,3.23c-0.97,1.05-2.27,1.57-3.92,1.57
				c-1.42,0-2.61-0.43-3.57-1.29c-1.27-1.13-1.9-2.89-1.9-5.25c0-1.8,0.48-3.27,1.43-4.42c1.03-1.25,2.45-1.88,4.26-1.88
				C356.48,325.19,357.68,325.6,358.53,326.41z"/>
			<path d="M367.41,329.07c0.59,0.3,1.04,0.68,1.35,1.15c0.3,0.45,0.5,0.97,0.6,1.57c0.09,0.41,0.13,1.06,0.13,1.96h-6.52
				c0.03,0.9,0.24,1.63,0.64,2.17s1.02,0.82,1.85,0.82c0.78,0,1.4-0.26,1.87-0.77c0.27-0.3,0.45-0.64,0.56-1.04h1.47
				c-0.04,0.33-0.17,0.69-0.39,1.09s-0.46,0.73-0.73,0.98c-0.45,0.44-1.02,0.74-1.69,0.9c-0.36,0.09-0.77,0.13-1.22,0.13
				c-1.11,0-2.04-0.4-2.81-1.21c-0.77-0.8-1.15-1.93-1.15-3.38c0-1.43,0.39-2.59,1.16-3.48c0.77-0.89,1.79-1.34,3.04-1.34
				C366.21,328.63,366.82,328.78,367.41,329.07z M367.96,332.56c-0.06-0.65-0.2-1.17-0.42-1.55c-0.41-0.72-1.09-1.08-2.05-1.08
				c-0.69,0-1.26,0.25-1.73,0.74s-0.71,1.12-0.74,1.89H367.96z"/>
			<path d="M371.37,328.83h1.42v1.54c0.12-0.3,0.4-0.66,0.85-1.09c0.45-0.43,0.98-0.64,1.57-0.64c0.03,0,0.08,0,0.14,0.01
				c0.07,0.01,0.18,0.02,0.34,0.03v1.58c-0.09-0.02-0.17-0.03-0.25-0.03c-0.07,0-0.16-0.01-0.25-0.01c-0.75,0-1.33,0.24-1.73,0.73
				c-0.4,0.48-0.61,1.04-0.61,1.67v5.11h-1.49V328.83z"/>
			<path d="M377.29,326.35h1.51v2.48h1.42v1.22h-1.42v5.8c0,0.31,0.1,0.52,0.32,0.62c0.12,0.06,0.31,0.09,0.58,0.09
				c0.07,0,0.15,0,0.23,0c0.08,0,0.18-0.01,0.29-0.02v1.18c-0.17,0.05-0.35,0.09-0.54,0.11c-0.19,0.02-0.39,0.03-0.6,0.03
				c-0.7,0-1.17-0.18-1.42-0.54c-0.25-0.36-0.37-0.82-0.37-1.39v-5.89h-1.2v-1.22h1.2V326.35z"/>
			<path d="M381.71,325.52h1.52v1.69h-1.52V325.52z M381.71,328.87h1.52v8.85h-1.52V328.87z"/>
			<path d="M386.19,326.11c0.35-0.51,1.02-0.76,2.02-0.76c0.09,0,0.19,0,0.29,0.01c0.1,0,0.21,0.01,0.34,0.02v1.36
				c-0.16-0.01-0.27-0.02-0.34-0.02s-0.13,0-0.19,0c-0.45,0-0.73,0.12-0.81,0.35c-0.09,0.24-0.13,0.83-0.13,1.8h1.48v1.18h-1.49
				v7.67h-1.48v-7.67h-1.24v-1.18h1.24v-1.39C385.89,326.86,385.99,326.4,386.19,326.11z M390.27,327.22v-1.69h1.49v1.69H390.27z
				 M390.27,328.87h1.49v8.85h-1.49V328.87z"/>
			<path d="M399.86,329.3c0.63,0.49,1.01,1.33,1.13,2.52h-1.45c-0.09-0.55-0.29-1-0.61-1.37c-0.32-0.36-0.82-0.54-1.52-0.54
				c-0.95,0-1.63,0.46-2.04,1.39c-0.27,0.6-0.4,1.35-0.4,2.23c0,0.89,0.19,1.64,0.56,2.25c0.38,0.61,0.97,0.91,1.78,0.91
				c0.62,0,1.11-0.19,1.47-0.57c0.36-0.38,0.61-0.9,0.75-1.56H401c-0.17,1.18-0.58,2.04-1.25,2.58c-0.66,0.55-1.51,0.82-2.55,0.82
				c-1.16,0-2.09-0.42-2.78-1.27s-1.04-1.91-1.04-3.18c0-1.56,0.38-2.78,1.14-3.64c0.76-0.87,1.72-1.3,2.9-1.3
				C398.42,328.57,399.24,328.81,399.86,329.3z"/>
			<path d="M407.25,332.33c0.34-0.04,0.57-0.19,0.69-0.43c0.07-0.13,0.1-0.32,0.1-0.57c0-0.51-0.18-0.88-0.54-1.11
				c-0.36-0.23-0.88-0.34-1.56-0.34c-0.78,0-1.33,0.21-1.66,0.63c-0.18,0.23-0.3,0.58-0.36,1.04h-1.39c0.03-1.1,0.38-1.86,1.07-2.29
				c0.68-0.43,1.48-0.64,2.38-0.64c1.05,0,1.9,0.2,2.55,0.6c0.65,0.4,0.97,1.02,0.97,1.86v5.12c0,0.16,0.03,0.28,0.1,0.37
				c0.06,0.09,0.2,0.14,0.4,0.14c0.07,0,0.14,0,0.22-0.01c0.08-0.01,0.17-0.02,0.27-0.04v1.1c-0.23,0.07-0.41,0.11-0.53,0.12
				c-0.12,0.02-0.29,0.03-0.5,0.03c-0.52,0-0.89-0.18-1.12-0.55c-0.12-0.19-0.21-0.47-0.26-0.82c-0.3,0.4-0.74,0.74-1.31,1.04
				c-0.57,0.29-1.2,0.44-1.88,0.44c-0.82,0-1.5-0.25-2.02-0.75c-0.52-0.5-0.78-1.13-0.78-1.88c0-0.83,0.26-1.46,0.77-1.92
				c0.51-0.45,1.19-0.73,2.03-0.84L407.25,332.33z M404.11,336.37c0.31,0.25,0.69,0.37,1.12,0.37c0.53,0,1.04-0.12,1.53-0.37
				c0.83-0.4,1.25-1.07,1.25-1.98v-1.2c-0.18,0.12-0.42,0.21-0.71,0.29c-0.29,0.08-0.57,0.13-0.85,0.17l-0.9,0.12
				c-0.54,0.07-0.95,0.19-1.22,0.34c-0.46,0.26-0.69,0.67-0.69,1.25C403.64,335.78,403.79,336.12,404.11,336.37z"/>
			<path d="M412.24,326.35h1.51v2.48h1.42v1.22h-1.42v5.8c0,0.31,0.11,0.52,0.32,0.62c0.12,0.06,0.31,0.09,0.58,0.09
				c0.07,0,0.15,0,0.23,0c0.08,0,0.18-0.01,0.29-0.02v1.18c-0.17,0.05-0.35,0.09-0.54,0.11c-0.19,0.02-0.39,0.03-0.6,0.03
				c-0.7,0-1.17-0.18-1.42-0.54c-0.25-0.36-0.37-0.82-0.37-1.39v-5.89h-1.2v-1.22h1.2V326.35z"/>
			<path d="M422.21,329.07c0.59,0.3,1.04,0.68,1.35,1.15c0.3,0.45,0.5,0.97,0.6,1.57c0.09,0.41,0.13,1.06,0.13,1.96h-6.52
				c0.03,0.9,0.24,1.63,0.64,2.17s1.02,0.82,1.85,0.82c0.78,0,1.4-0.26,1.87-0.77c0.27-0.3,0.45-0.64,0.56-1.04h1.47
				c-0.04,0.33-0.17,0.69-0.39,1.09s-0.46,0.73-0.73,0.98c-0.45,0.44-1.02,0.74-1.69,0.9c-0.36,0.09-0.77,0.13-1.22,0.13
				c-1.11,0-2.04-0.4-2.81-1.21c-0.77-0.8-1.15-1.93-1.15-3.38c0-1.43,0.39-2.59,1.16-3.48c0.77-0.89,1.79-1.34,3.04-1.34
				C421,328.63,421.61,328.78,422.21,329.07z M422.75,332.56c-0.06-0.65-0.2-1.17-0.42-1.55c-0.41-0.72-1.09-1.08-2.05-1.08
				c-0.69,0-1.26,0.25-1.73,0.74s-0.71,1.12-0.74,1.89H422.75z"/>
		</g>
	</g>
	<g>
		<g>
			<path d="M175.84,413.4h5.49c1.08,0,1.96,0.31,2.62,0.92c0.66,0.61,1,1.47,1,2.58c0,0.95-0.3,1.78-0.89,2.49
				c-0.59,0.71-1.5,1.06-2.73,1.06h-3.83v5.16h-1.65V413.4z M182.28,415.07c-0.37-0.17-0.87-0.26-1.5-0.26h-3.29v4.22h3.29
				c0.74,0,1.34-0.16,1.81-0.47c0.46-0.32,0.69-0.87,0.69-1.67C183.28,416,182.94,415.39,182.28,415.07z"/>
			<path d="M193.31,417.59c0.79,0.76,1.19,1.89,1.19,3.37c0,1.43-0.35,2.62-1.05,3.55c-0.7,0.93-1.78,1.4-3.25,1.4
				c-1.22,0-2.19-0.41-2.91-1.24c-0.72-0.83-1.08-1.94-1.08-3.33c0-1.49,0.38-2.68,1.14-3.57c0.76-0.89,1.78-1.33,3.05-1.33
				C191.55,416.44,192.52,416.82,193.31,417.59z M192.39,423.5c0.37-0.75,0.55-1.58,0.55-2.5c0-0.83-0.13-1.5-0.4-2.03
				c-0.42-0.82-1.15-1.23-2.17-1.23c-0.91,0-1.58,0.35-1.99,1.05s-0.62,1.54-0.62,2.52c0,0.95,0.21,1.74,0.62,2.37
				s1.07,0.95,1.98,0.95C191.34,424.63,192.02,424.25,192.39,423.5z"/>
			<path d="M196.32,416.7h1.42v1.54c0.12-0.3,0.4-0.66,0.85-1.09s0.98-0.64,1.57-0.64c0.03,0,0.07,0,0.14,0.01
				c0.07,0,0.18,0.02,0.34,0.03v1.58c-0.09-0.02-0.17-0.03-0.25-0.03c-0.07-0.01-0.16-0.01-0.24-0.01c-0.75,0-1.33,0.24-1.73,0.73
				s-0.61,1.04-0.61,1.67v5.11h-1.49V416.7z"/>
			<path d="M202.24,414.22h1.51v2.48h1.42v1.22h-1.42v5.8c0,0.31,0.1,0.52,0.32,0.62c0.12,0.06,0.31,0.09,0.58,0.09
				c0.07,0,0.15,0,0.23,0s0.18-0.01,0.29-0.02v1.18c-0.17,0.05-0.35,0.09-0.54,0.11c-0.19,0.02-0.39,0.03-0.6,0.03
				c-0.7,0-1.17-0.18-1.42-0.54c-0.25-0.36-0.37-0.82-0.37-1.39v-5.88h-1.2v-1.22h1.2V414.22z"/>
			<path d="M207.36,413.99c0.35-0.51,1.02-0.76,2.02-0.76c0.09,0,0.19,0,0.29,0.01c0.1,0.01,0.21,0.01,0.34,0.03v1.36
				c-0.15-0.01-0.27-0.02-0.34-0.02c-0.07,0-0.13,0-0.19,0c-0.45,0-0.73,0.12-0.81,0.35c-0.09,0.23-0.13,0.83-0.13,1.8H210v1.18
				h-1.49v7.67h-1.48v-7.67h-1.24v-1.18h1.24v-1.39C207.06,414.73,207.16,414.27,207.36,413.99z"/>
			<path d="M217.87,417.59c0.79,0.76,1.19,1.89,1.19,3.37c0,1.43-0.35,2.62-1.05,3.55c-0.7,0.93-1.78,1.4-3.25,1.4
				c-1.22,0-2.19-0.41-2.91-1.24c-0.72-0.83-1.08-1.94-1.08-3.33c0-1.49,0.38-2.68,1.14-3.57c0.76-0.89,1.78-1.33,3.05-1.33
				C216.11,416.44,217.08,416.82,217.87,417.59z M216.95,423.5c0.37-0.75,0.55-1.58,0.55-2.5c0-0.83-0.13-1.5-0.4-2.03
				c-0.42-0.82-1.15-1.23-2.17-1.23c-0.91,0-1.58,0.35-1.99,1.05s-0.62,1.54-0.62,2.52c0,0.95,0.21,1.74,0.62,2.37
				s1.07,0.95,1.98,0.95C215.9,424.63,216.58,424.25,216.95,423.5z"/>
			<path d="M220.88,413.4h1.49v12.19h-1.49V413.4z"/>
			<path d="M224.61,413.4h1.52v1.69h-1.52V413.4z M224.61,416.74h1.52v8.85h-1.52V416.74z"/>
			<path d="M234.88,417.59c0.79,0.76,1.19,1.89,1.19,3.37c0,1.43-0.35,2.62-1.05,3.55c-0.7,0.93-1.78,1.4-3.25,1.4
				c-1.22,0-2.19-0.41-2.91-1.24c-0.72-0.83-1.08-1.94-1.08-3.33c0-1.49,0.38-2.68,1.14-3.57c0.76-0.89,1.78-1.33,3.05-1.33
				C233.12,416.44,234.09,416.82,234.88,417.59z M233.96,423.5c0.37-0.75,0.55-1.58,0.55-2.5c0-0.83-0.13-1.5-0.4-2.03
				c-0.42-0.82-1.15-1.23-2.17-1.23c-0.91,0-1.58,0.35-1.99,1.05s-0.62,1.54-0.62,2.52c0,0.95,0.21,1.74,0.62,2.37
				s1.07,0.95,1.98,0.95C232.91,424.63,233.59,424.25,233.96,423.5z"/>
			<path d="M238.16,427.32c0.38-0.07,0.65-0.33,0.81-0.8c0.08-0.25,0.12-0.49,0.12-0.72c0-0.04,0-0.07,0-0.1s-0.01-0.07-0.02-0.1
				h-0.91v-1.81h1.78v1.68c0,0.66-0.13,1.24-0.4,1.73s-0.72,0.81-1.38,0.92V427.32z"/>
			<path d="M247.49,413.4h1.65v10.74h6.18v1.45h-7.83V413.4z"/>
			<path d="M262.28,416.94c0.59,0.3,1.04,0.68,1.35,1.15c0.3,0.45,0.5,0.97,0.6,1.57c0.09,0.41,0.13,1.06,0.13,1.96h-6.52
				c0.03,0.9,0.24,1.62,0.64,2.17c0.4,0.54,1.02,0.82,1.85,0.82c0.78,0,1.4-0.26,1.87-0.77c0.27-0.3,0.45-0.64,0.56-1.04h1.47
				c-0.04,0.33-0.17,0.69-0.39,1.09c-0.22,0.4-0.46,0.73-0.73,0.98c-0.45,0.44-1.02,0.74-1.69,0.9c-0.36,0.09-0.77,0.13-1.22,0.13
				c-1.11,0-2.04-0.4-2.81-1.21c-0.77-0.8-1.15-1.93-1.15-3.38c0-1.43,0.39-2.59,1.16-3.48c0.77-0.89,1.79-1.34,3.04-1.34
				C261.08,416.5,261.69,416.65,262.28,416.94z M262.83,420.43c-0.06-0.65-0.2-1.17-0.42-1.55c-0.41-0.72-1.09-1.08-2.05-1.08
				c-0.69,0-1.26,0.25-1.73,0.74c-0.46,0.5-0.71,1.12-0.74,1.89H262.83z"/>
			<path d="M271.11,416.97c0.27,0.17,0.57,0.46,0.9,0.87v-4.49h1.44v12.24h-1.34v-1.24c-0.35,0.55-0.76,0.94-1.24,1.19
				c-0.48,0.24-1.02,0.37-1.64,0.37c-0.99,0-1.85-0.42-2.57-1.25c-0.73-0.83-1.09-1.94-1.09-3.33c0-1.29,0.33-2.42,0.99-3.37
				c0.66-0.95,1.61-1.42,2.83-1.42C270.08,416.54,270.65,416.69,271.11,416.97z M267.75,423.64c0.4,0.64,1.05,0.96,1.94,0.96
				c0.69,0,1.26-0.3,1.71-0.89c0.45-0.6,0.67-1.45,0.67-2.56c0-1.12-0.23-1.95-0.69-2.49c-0.46-0.54-1.03-0.81-1.7-0.81
				c-0.75,0-1.36,0.29-1.83,0.86c-0.47,0.58-0.7,1.42-0.7,2.54C267.15,422.2,267.35,423,267.75,423.64z"/>
			<path d="M280.62,417.06c0.28,0.19,0.57,0.48,0.86,0.85v-1.12h1.38v8.08c0,1.13-0.17,2.02-0.5,2.67
				c-0.62,1.21-1.79,1.81-3.51,1.81c-0.96,0-1.76-0.21-2.42-0.64c-0.65-0.43-1.02-1.1-1.1-2.01h1.52c0.07,0.4,0.22,0.71,0.43,0.92
				c0.34,0.33,0.87,0.5,1.59,0.5c1.15,0,1.9-0.4,2.25-1.21c0.21-0.48,0.31-1.33,0.29-2.55c-0.3,0.45-0.66,0.79-1.08,1.01
				c-0.42,0.22-0.98,0.33-1.67,0.33c-0.96,0-1.81-0.34-2.53-1.02c-0.72-0.68-1.08-1.81-1.08-3.39c0-1.49,0.36-2.65,1.09-3.49
				c0.73-0.83,1.61-1.25,2.64-1.25C279.49,416.54,280.1,416.71,280.62,417.06z M280.8,418.66c-0.45-0.53-1.03-0.8-1.73-0.8
				c-1.05,0-1.77,0.49-2.16,1.48c-0.21,0.53-0.31,1.21-0.31,2.07c0,1,0.2,1.76,0.61,2.29c0.41,0.52,0.95,0.78,1.64,0.78
				c1.07,0,1.83-0.48,2.27-1.45c0.24-0.55,0.37-1.19,0.37-1.92C281.48,420.01,281.26,419.19,280.8,418.66z"/>
			<path d="M290.65,416.94c0.59,0.3,1.04,0.68,1.35,1.15c0.3,0.45,0.5,0.97,0.6,1.57c0.09,0.41,0.13,1.06,0.13,1.96h-6.52
				c0.03,0.9,0.24,1.62,0.64,2.17c0.4,0.54,1.02,0.82,1.85,0.82c0.78,0,1.4-0.26,1.87-0.77c0.27-0.3,0.45-0.64,0.56-1.04h1.47
				c-0.04,0.33-0.17,0.69-0.39,1.09c-0.22,0.4-0.46,0.73-0.73,0.98c-0.45,0.44-1.02,0.74-1.69,0.9c-0.36,0.09-0.77,0.13-1.22,0.13
				c-1.11,0-2.04-0.4-2.81-1.21c-0.77-0.8-1.15-1.93-1.15-3.38c0-1.43,0.39-2.59,1.16-3.48c0.77-0.89,1.79-1.34,3.04-1.34
				C289.44,416.5,290.05,416.65,290.65,416.94z M291.19,420.43c-0.06-0.65-0.2-1.17-0.42-1.55c-0.41-0.72-1.09-1.08-2.05-1.08
				c-0.69,0-1.26,0.25-1.73,0.74c-0.46,0.5-0.71,1.12-0.74,1.89H291.19z"/>
			<path d="M294.61,416.7h1.42v1.54c0.12-0.3,0.4-0.66,0.86-1.09c0.45-0.43,0.98-0.64,1.57-0.64c0.03,0,0.07,0,0.14,0.01
				c0.07,0,0.18,0.02,0.34,0.03v1.58c-0.09-0.02-0.17-0.03-0.25-0.03c-0.07-0.01-0.16-0.01-0.24-0.01c-0.75,0-1.33,0.24-1.74,0.73
				s-0.61,1.04-0.61,1.67v5.11h-1.49V416.7z"/>
			<path d="M182.02,433.8h5.64c0.93,0,1.7,0.14,2.3,0.41c1.15,0.52,1.72,1.48,1.72,2.88c0,0.73-0.15,1.33-0.45,1.79
				c-0.3,0.46-0.72,0.84-1.27,1.12c0.48,0.19,0.83,0.45,1.07,0.76c0.24,0.32,0.38,0.83,0.4,1.54l0.06,1.63
				c0.02,0.46,0.06,0.81,0.12,1.04c0.1,0.39,0.28,0.64,0.53,0.75v0.27h-2.03c-0.06-0.1-0.1-0.24-0.13-0.41s-0.06-0.49-0.08-0.96
				l-0.1-2.03c-0.04-0.8-0.33-1.33-0.89-1.6c-0.32-0.15-0.81-0.22-1.49-0.22h-3.76v5.23h-1.65V433.8z M187.49,439.38
				c0.77,0,1.39-0.15,1.84-0.46c0.45-0.31,0.68-0.87,0.68-1.68c0-0.87-0.32-1.46-0.95-1.78c-0.34-0.17-0.79-0.25-1.35-0.25h-4.03
				v4.17H187.49z"/>
			<path d="M199.44,437.34c0.59,0.3,1.04,0.68,1.35,1.15c0.3,0.45,0.5,0.97,0.6,1.57c0.09,0.41,0.13,1.06,0.13,1.96h-6.52
				c0.03,0.9,0.24,1.63,0.64,2.17s1.02,0.82,1.85,0.82c0.78,0,1.4-0.26,1.87-0.77c0.27-0.3,0.45-0.64,0.56-1.04h1.47
				c-0.04,0.33-0.17,0.69-0.39,1.09c-0.22,0.4-0.46,0.73-0.73,0.98c-0.45,0.44-1.02,0.74-1.69,0.9c-0.36,0.09-0.77,0.13-1.22,0.13
				c-1.11,0-2.04-0.4-2.81-1.21c-0.77-0.8-1.15-1.93-1.15-3.38c0-1.43,0.39-2.59,1.16-3.48c0.77-0.89,1.79-1.34,3.04-1.34
				C198.23,436.9,198.85,437.05,199.44,437.34z M199.99,440.83c-0.06-0.65-0.2-1.17-0.42-1.55c-0.41-0.72-1.09-1.08-2.05-1.08
				c-0.69,0-1.26,0.25-1.73,0.74s-0.71,1.12-0.74,1.89H199.99z"/>
			<path d="M203.24,437.14h1.45v1.18c0.3-0.4,0.63-0.72,0.98-0.94c0.5-0.33,1.1-0.5,1.78-0.5c1.01,0,1.86,0.39,2.56,1.16
				c0.7,0.77,1.05,1.88,1.05,3.31c0,1.94-0.51,3.32-1.52,4.15c-0.64,0.53-1.39,0.79-2.24,0.79c-0.67,0-1.23-0.15-1.69-0.44
				c-0.27-0.17-0.56-0.45-0.89-0.86v4.54h-1.49V437.14z M208.85,444.11c0.46-0.58,0.69-1.46,0.69-2.62c0-0.71-0.1-1.32-0.31-1.83
				c-0.39-0.98-1.1-1.47-2.12-1.47c-1.03,0-1.74,0.52-2.12,1.55c-0.2,0.55-0.31,1.26-0.31,2.11c0,0.69,0.1,1.27,0.31,1.75
				c0.39,0.92,1.1,1.38,2.12,1.38C207.81,444.99,208.38,444.69,208.85,444.11z"/>
			<path d="M219.3,437.99c0.79,0.76,1.19,1.89,1.19,3.37c0,1.43-0.35,2.62-1.05,3.55c-0.7,0.94-1.78,1.4-3.25,1.4
				c-1.22,0-2.19-0.41-2.91-1.24s-1.08-1.94-1.08-3.33c0-1.49,0.38-2.68,1.14-3.57c0.76-0.88,1.78-1.33,3.05-1.33
				C217.54,436.84,218.51,437.22,219.3,437.99z M218.38,443.9c0.37-0.75,0.55-1.58,0.55-2.5c0-0.83-0.13-1.51-0.4-2.03
				c-0.42-0.82-1.15-1.23-2.17-1.23c-0.91,0-1.58,0.35-1.99,1.05s-0.62,1.54-0.62,2.52c0,0.95,0.21,1.73,0.62,2.37
				s1.07,0.95,1.98,0.95C217.33,445.03,218.01,444.65,218.38,443.9z"/>
			<path d="M222.31,437.1h1.42v1.54c0.12-0.3,0.4-0.66,0.85-1.09c0.45-0.43,0.98-0.64,1.57-0.64c0.03,0,0.07,0,0.14,0.01
				c0.07,0.01,0.18,0.02,0.34,0.03v1.58c-0.09-0.02-0.17-0.03-0.25-0.03c-0.07,0-0.16-0.01-0.24-0.01c-0.75,0-1.33,0.24-1.73,0.73
				c-0.4,0.48-0.61,1.04-0.61,1.67v5.11h-1.49V437.1z"/>
			<path d="M228.23,434.62h1.51v2.48h1.42v1.22h-1.42v5.8c0,0.31,0.1,0.52,0.32,0.62c0.12,0.06,0.31,0.09,0.58,0.09
				c0.07,0,0.15,0,0.23,0c0.08,0,0.18-0.01,0.29-0.02v1.18c-0.17,0.05-0.35,0.09-0.54,0.11c-0.19,0.02-0.39,0.03-0.6,0.03
				c-0.7,0-1.17-0.18-1.42-0.54c-0.25-0.36-0.37-0.82-0.37-1.39v-5.89h-1.2v-1.22h1.2V434.62z"/>
			<path d="M233.54,443.2c0.04,0.5,0.17,0.88,0.37,1.15c0.38,0.48,1.03,0.72,1.96,0.72c0.55,0,1.04-0.12,1.46-0.36
				c0.42-0.24,0.63-0.61,0.63-1.12c0-0.38-0.17-0.67-0.51-0.87c-0.22-0.12-0.64-0.26-1.28-0.42l-1.19-0.3
				c-0.76-0.19-1.32-0.4-1.68-0.63c-0.64-0.4-0.96-0.96-0.96-1.68c0-0.84,0.3-1.52,0.91-2.04c0.61-0.52,1.42-0.78,2.44-0.78
				c1.34,0,2.3,0.39,2.9,1.18c0.37,0.5,0.55,1.03,0.54,1.61h-1.41c-0.03-0.34-0.15-0.64-0.36-0.92c-0.34-0.39-0.94-0.59-1.78-0.59
				c-0.56,0-0.99,0.11-1.28,0.32c-0.29,0.22-0.44,0.5-0.44,0.86c0,0.39,0.19,0.7,0.57,0.93c0.22,0.14,0.55,0.26,0.98,0.37l0.99,0.24
				c1.07,0.26,1.79,0.51,2.16,0.76c0.58,0.38,0.87,0.98,0.87,1.8c0,0.79-0.3,1.47-0.9,2.05c-0.6,0.58-1.52,0.86-2.74,0.86
				c-1.32,0-2.26-0.3-2.81-0.9c-0.55-0.6-0.85-1.34-0.88-2.23H233.54z"/>
			<path d="M241.46,447.72c0.38-0.07,0.65-0.33,0.81-0.81c0.08-0.25,0.12-0.49,0.12-0.72c0-0.04,0-0.07,0-0.1
				c0-0.03-0.01-0.06-0.02-0.1h-0.91v-1.81h1.78v1.68c0,0.66-0.13,1.24-0.4,1.74s-0.72,0.8-1.38,0.92V447.72z"/>
			<path d="M259.37,433.8v1.45h-4.11v10.74h-1.68v-10.74h-4.11v-1.45H259.37z"/>
			<path d="M260.1,437.1h1.42v1.54c0.12-0.3,0.4-0.66,0.86-1.09c0.45-0.43,0.98-0.64,1.57-0.64c0.03,0,0.07,0,0.14,0.01
				c0.07,0.01,0.18,0.02,0.34,0.03v1.58c-0.09-0.02-0.17-0.03-0.25-0.03c-0.07,0-0.16-0.01-0.24-0.01c-0.75,0-1.33,0.24-1.74,0.73
				c-0.4,0.48-0.61,1.04-0.61,1.67v5.11h-1.49V437.1z"/>
			<path d="M270.48,440.6c0.34-0.04,0.57-0.19,0.69-0.43c0.07-0.13,0.1-0.32,0.1-0.57c0-0.51-0.18-0.88-0.54-1.11
				c-0.36-0.23-0.88-0.34-1.56-0.34c-0.78,0-1.33,0.21-1.66,0.63c-0.18,0.23-0.3,0.58-0.36,1.04h-1.39c0.03-1.1,0.38-1.86,1.07-2.29
				c0.68-0.43,1.48-0.64,2.38-0.64c1.05,0,1.9,0.2,2.55,0.6c0.65,0.4,0.97,1.02,0.97,1.86v5.12c0,0.16,0.03,0.28,0.1,0.37
				c0.06,0.09,0.2,0.14,0.4,0.14c0.07,0,0.14,0,0.22-0.01c0.08-0.01,0.17-0.02,0.27-0.04v1.1c-0.23,0.07-0.41,0.11-0.53,0.12
				c-0.12,0.02-0.29,0.03-0.5,0.03c-0.52,0-0.89-0.18-1.12-0.55c-0.12-0.19-0.21-0.47-0.26-0.82c-0.3,0.4-0.74,0.74-1.31,1.04
				c-0.57,0.29-1.2,0.44-1.88,0.44c-0.82,0-1.5-0.25-2.02-0.75c-0.52-0.5-0.78-1.13-0.78-1.88c0-0.83,0.26-1.46,0.77-1.92
				c0.51-0.45,1.19-0.73,2.03-0.84L270.48,440.6z M267.34,444.64c0.31,0.25,0.69,0.37,1.12,0.37c0.53,0,1.04-0.12,1.53-0.37
				c0.83-0.4,1.25-1.07,1.25-1.98v-1.2c-0.18,0.12-0.42,0.21-0.71,0.29c-0.29,0.08-0.57,0.13-0.85,0.17l-0.9,0.12
				c-0.54,0.07-0.95,0.19-1.22,0.34c-0.46,0.26-0.69,0.67-0.69,1.25C266.87,444.06,267.02,444.4,267.34,444.64z"/>
			<path d="M280.08,437.37c0.27,0.17,0.57,0.46,0.9,0.87v-4.49h1.44v12.24h-1.34v-1.24c-0.35,0.55-0.76,0.94-1.24,1.19
				c-0.48,0.24-1.02,0.37-1.64,0.37c-0.99,0-1.85-0.42-2.57-1.25c-0.73-0.83-1.09-1.94-1.09-3.32c0-1.29,0.33-2.42,0.99-3.37
				s1.61-1.42,2.83-1.42C279.05,436.94,279.62,437.09,280.08,437.37z M276.73,444.04c0.4,0.64,1.05,0.96,1.94,0.96
				c0.69,0,1.26-0.3,1.71-0.89s0.67-1.45,0.67-2.56c0-1.12-0.23-1.96-0.69-2.5c-0.46-0.54-1.03-0.81-1.7-0.81
				c-0.75,0-1.36,0.29-1.83,0.86c-0.47,0.58-0.7,1.42-0.7,2.54C276.12,442.6,276.32,443.4,276.73,444.04z"/>
			<path d="M290.17,437.34c0.59,0.3,1.04,0.68,1.35,1.15c0.3,0.45,0.5,0.97,0.6,1.57c0.09,0.41,0.13,1.06,0.13,1.96h-6.52
				c0.03,0.9,0.24,1.63,0.64,2.17s1.02,0.82,1.85,0.82c0.78,0,1.4-0.26,1.87-0.77c0.27-0.3,0.45-0.64,0.56-1.04h1.47
				c-0.04,0.33-0.17,0.69-0.39,1.09s-0.46,0.73-0.73,0.98c-0.45,0.44-1.02,0.74-1.69,0.9c-0.36,0.09-0.77,0.13-1.22,0.13
				c-1.11,0-2.04-0.4-2.81-1.21c-0.77-0.8-1.15-1.93-1.15-3.38c0-1.43,0.39-2.59,1.16-3.48c0.77-0.89,1.79-1.34,3.04-1.34
				C288.96,436.9,289.57,437.05,290.17,437.34z M290.71,440.83c-0.06-0.65-0.2-1.17-0.42-1.55c-0.41-0.72-1.09-1.08-2.05-1.08
				c-0.69,0-1.26,0.25-1.73,0.74s-0.71,1.12-0.74,1.89H290.71z"/>
			<path d="M198.6,455.08c0.85,0.81,1.33,1.74,1.42,2.77h-1.61c-0.18-0.79-0.55-1.41-1.09-1.87c-0.55-0.46-1.31-0.69-2.3-0.69
				c-1.2,0-2.17,0.42-2.91,1.27c-0.74,0.84-1.11,2.14-1.11,3.88c0,1.43,0.33,2.59,1,3.47c0.67,0.89,1.66,1.33,2.98,1.33
				c1.22,0,2.14-0.47,2.78-1.4c0.34-0.49,0.59-1.14,0.76-1.94h1.61c-0.14,1.28-0.62,2.36-1.43,3.23c-0.97,1.05-2.27,1.57-3.92,1.57
				c-1.42,0-2.61-0.43-3.57-1.29c-1.27-1.13-1.9-2.89-1.9-5.25c0-1.8,0.48-3.27,1.43-4.42c1.03-1.25,2.45-1.88,4.26-1.88
				C196.55,453.86,197.75,454.27,198.6,455.08z"/>
			<path d="M208.44,458.39c0.79,0.76,1.19,1.89,1.19,3.37c0,1.43-0.35,2.62-1.05,3.55c-0.7,0.93-1.78,1.4-3.25,1.4
				c-1.22,0-2.19-0.41-2.91-1.24c-0.72-0.83-1.08-1.94-1.08-3.33c0-1.49,0.38-2.68,1.14-3.57c0.76-0.89,1.78-1.33,3.05-1.33
				C206.68,457.24,207.64,457.62,208.44,458.39z M207.51,464.3c0.37-0.75,0.55-1.58,0.55-2.5c0-0.83-0.13-1.5-0.4-2.03
				c-0.42-0.82-1.15-1.23-2.17-1.23c-0.91,0-1.58,0.35-1.99,1.05s-0.62,1.54-0.62,2.52c0,0.95,0.21,1.74,0.62,2.37
				s1.07,0.95,1.98,0.95C206.46,465.43,207.14,465.05,207.51,464.3z"/>
			<path d="M211.4,457.5h1.42v1.26c0.42-0.52,0.87-0.89,1.34-1.12c0.47-0.23,0.99-0.34,1.57-0.34c1.26,0,2.11,0.44,2.56,1.32
				c0.24,0.48,0.37,1.17,0.37,2.07v5.7h-1.52v-5.6c0-0.54-0.08-0.98-0.24-1.31c-0.27-0.55-0.75-0.83-1.44-0.83
				c-0.35,0-0.64,0.04-0.87,0.11c-0.41,0.12-0.77,0.37-1.08,0.73c-0.25,0.29-0.41,0.6-0.49,0.91c-0.08,0.31-0.11,0.76-0.11,1.34
				v4.66h-1.49V457.5z"/>
			<path d="M221.55,454.79c0.35-0.51,1.02-0.76,2.02-0.76c0.09,0,0.19,0,0.29,0.01c0.1,0.01,0.21,0.01,0.34,0.03v1.36
				c-0.15-0.01-0.27-0.02-0.34-0.02c-0.07,0-0.13,0-0.19,0c-0.45,0-0.73,0.12-0.81,0.35c-0.09,0.23-0.13,0.83-0.13,1.8h1.48v1.18
				h-1.49v7.67h-1.48v-7.67h-1.24v-1.18h1.24v-1.39C221.25,455.53,221.36,455.07,221.55,454.79z M225.64,455.89v-1.69h1.49v1.69
				H225.64z M225.64,457.54h1.49v8.85h-1.49V457.54z"/>
			<path d="M229.4,457.5h1.42v1.54c0.12-0.3,0.4-0.66,0.85-1.09s0.98-0.64,1.57-0.64c0.03,0,0.07,0,0.14,0.01
				c0.07,0,0.18,0.02,0.34,0.03v1.58c-0.09-0.02-0.17-0.03-0.25-0.03c-0.07-0.01-0.16-0.01-0.24-0.01c-0.75,0-1.33,0.24-1.73,0.73
				s-0.61,1.04-0.61,1.67v5.11h-1.49V457.5z"/>
			<path d="M235.02,457.5h1.48v1.26c0.35-0.44,0.67-0.75,0.96-0.95c0.49-0.34,1.05-0.51,1.68-0.51c0.71,0,1.28,0.17,1.71,0.52
				c0.24,0.2,0.46,0.49,0.66,0.88c0.33-0.48,0.72-0.83,1.17-1.06c0.45-0.23,0.95-0.34,1.51-0.34c1.2,0,2.01,0.43,2.44,1.29
				c0.23,0.46,0.35,1.09,0.35,1.88v5.92h-1.55v-6.18c0-0.59-0.15-1-0.44-1.22c-0.3-0.22-0.66-0.33-1.08-0.33
				c-0.59,0-1.09,0.2-1.51,0.59c-0.42,0.39-0.63,1.05-0.63,1.97v5.17h-1.52v-5.8c0-0.6-0.07-1.04-0.22-1.32
				c-0.23-0.42-0.65-0.62-1.27-0.62c-0.56,0-1.08,0.22-1.54,0.66c-0.46,0.44-0.69,1.23-0.69,2.37v4.71h-1.49V457.5z"/>
			<path d="M253.94,461c0.34-0.04,0.57-0.19,0.69-0.43c0.07-0.13,0.1-0.32,0.1-0.57c0-0.51-0.18-0.88-0.54-1.11
				s-0.88-0.34-1.56-0.34c-0.78,0-1.33,0.21-1.66,0.63c-0.18,0.23-0.3,0.58-0.36,1.04h-1.39c0.03-1.1,0.38-1.86,1.07-2.29
				s1.48-0.64,2.38-0.64c1.05,0,1.9,0.2,2.55,0.6c0.65,0.4,0.97,1.02,0.97,1.86v5.12c0,0.15,0.03,0.28,0.1,0.37
				c0.06,0.09,0.2,0.14,0.4,0.14c0.07,0,0.14,0,0.22-0.01c0.08-0.01,0.17-0.02,0.27-0.04v1.1c-0.23,0.07-0.41,0.11-0.53,0.12
				c-0.12,0.02-0.29,0.02-0.5,0.02c-0.52,0-0.89-0.18-1.12-0.55c-0.12-0.19-0.21-0.47-0.26-0.82c-0.3,0.4-0.74,0.74-1.31,1.04
				c-0.57,0.29-1.2,0.44-1.88,0.44c-0.82,0-1.5-0.25-2.02-0.75c-0.52-0.5-0.78-1.13-0.78-1.88c0-0.82,0.26-1.46,0.77-1.92
				c0.51-0.45,1.19-0.73,2.03-0.84L253.94,461z M250.8,465.04c0.31,0.25,0.69,0.37,1.12,0.37c0.53,0,1.04-0.12,1.53-0.37
				c0.83-0.4,1.25-1.07,1.25-1.98v-1.2c-0.18,0.12-0.42,0.21-0.71,0.29c-0.29,0.08-0.57,0.13-0.85,0.17l-0.9,0.12
				c-0.54,0.07-0.95,0.19-1.22,0.34c-0.46,0.26-0.69,0.68-0.69,1.25C250.32,464.46,250.48,464.8,250.8,465.04z"/>
			<path d="M258.93,455.02h1.51v2.48h1.42v1.22h-1.42v5.8c0,0.31,0.11,0.52,0.32,0.62c0.12,0.06,0.31,0.09,0.58,0.09
				c0.07,0,0.15,0,0.23,0s0.18-0.01,0.29-0.02v1.18c-0.17,0.05-0.35,0.09-0.54,0.11c-0.19,0.02-0.39,0.03-0.6,0.03
				c-0.7,0-1.17-0.18-1.42-0.54c-0.25-0.36-0.37-0.82-0.37-1.39v-5.88h-1.2v-1.22h1.2V455.02z"/>
			<path d="M263.35,454.2h1.52v1.69h-1.52V454.2z M263.35,457.54h1.52v8.85h-1.52V457.54z"/>
			<path d="M273.62,458.39c0.79,0.76,1.19,1.89,1.19,3.37c0,1.43-0.35,2.62-1.04,3.55c-0.7,0.93-1.78,1.4-3.25,1.4
				c-1.22,0-2.19-0.41-2.91-1.24c-0.72-0.83-1.08-1.94-1.08-3.33c0-1.49,0.38-2.68,1.14-3.57c0.76-0.89,1.78-1.33,3.05-1.33
				C271.86,457.24,272.83,457.62,273.62,458.39z M272.7,464.3c0.37-0.75,0.55-1.58,0.55-2.5c0-0.83-0.13-1.5-0.4-2.03
				c-0.42-0.82-1.14-1.23-2.17-1.23c-0.91,0-1.58,0.35-1.99,1.05c-0.42,0.7-0.62,1.54-0.62,2.52c0,0.95,0.21,1.74,0.62,2.37
				c0.41,0.63,1.07,0.95,1.97,0.95C271.65,465.43,272.33,465.05,272.7,464.3z"/>
			<path d="M276.59,457.5h1.42v1.26c0.42-0.52,0.87-0.89,1.34-1.12c0.47-0.23,0.99-0.34,1.57-0.34c1.26,0,2.11,0.44,2.56,1.32
				c0.24,0.48,0.37,1.17,0.37,2.07v5.7h-1.52v-5.6c0-0.54-0.08-0.98-0.24-1.31c-0.27-0.55-0.75-0.83-1.44-0.83
				c-0.35,0-0.65,0.04-0.87,0.11c-0.41,0.12-0.77,0.37-1.08,0.73c-0.25,0.29-0.41,0.6-0.49,0.91c-0.08,0.31-0.11,0.76-0.11,1.34
				v4.66h-1.49V457.5z"/>
		</g>
	</g>
	<g>
		<g>
			<path d="M30.29,326.88h1.67v12.19h-1.67V326.88z"/>
			<path d="M34.79,326.88h5.49c1.08,0,1.96,0.31,2.62,0.92s1,1.47,1,2.58c0,0.95-0.3,1.78-0.89,2.49c-0.59,0.71-1.5,1.06-2.73,1.06
				h-3.83v5.15h-1.65V326.88z M41.24,328.56c-0.37-0.17-0.87-0.26-1.5-0.26h-3.29v4.23h3.29c0.74,0,1.34-0.16,1.81-0.47
				c0.46-0.32,0.69-0.87,0.69-1.67C42.23,329.49,41.9,328.88,41.24,328.56z"/>
			<path d="M56.02,328.62c0.81,1.08,1.21,2.46,1.21,4.14c0,1.82-0.46,3.33-1.39,4.54c-1.08,1.42-2.63,2.12-4.64,2.12
				c-1.88,0-3.35-0.62-4.42-1.86c-0.96-1.2-1.44-2.71-1.44-4.53c0-1.65,0.41-3.06,1.23-4.23c1.05-1.51,2.61-2.26,4.67-2.26
				C53.39,326.55,54.99,327.24,56.02,328.62z M54.56,336.39c0.65-1.04,0.98-2.24,0.98-3.6c0-1.43-0.38-2.59-1.12-3.46
				c-0.75-0.87-1.77-1.31-3.08-1.31c-1.26,0-2.29,0.43-3.09,1.3c-0.8,0.87-1.2,2.14-1.2,3.83c0,1.35,0.34,2.49,1.03,3.42
				c0.68,0.93,1.79,1.39,3.32,1.39C52.86,337.95,53.91,337.43,54.56,336.39z"/>
			<path d="M66.54,326.88h1.87l4.42,12.19h-1.81l-1.24-3.65h-4.82l-1.32,3.65h-1.69L66.54,326.88z M69.25,334.08l-1.85-5.39
				l-1.97,5.39H69.25z"/>
			<path d="M74.02,330.23h1.45v1.18c0.3-0.4,0.63-0.72,0.98-0.94c0.5-0.33,1.1-0.5,1.78-0.5c1.01,0,1.86,0.39,2.56,1.16
				c0.7,0.77,1.05,1.88,1.05,3.31c0,1.94-0.51,3.32-1.52,4.15c-0.64,0.53-1.39,0.79-2.24,0.79c-0.67,0-1.23-0.15-1.69-0.44
				c-0.27-0.17-0.56-0.45-0.89-0.86v4.54h-1.49V330.23z M79.62,337.19c0.46-0.58,0.69-1.46,0.69-2.62c0-0.71-0.1-1.32-0.31-1.83
				c-0.39-0.98-1.1-1.47-2.12-1.47c-1.03,0-1.74,0.52-2.12,1.55c-0.2,0.55-0.31,1.26-0.31,2.11c0,0.69,0.1,1.27,0.31,1.75
				c0.39,0.92,1.1,1.38,2.12,1.38C78.58,338.07,79.16,337.78,79.62,337.19z"/>
			<path d="M83.47,330.23h1.45v1.18c0.3-0.4,0.63-0.72,0.98-0.94c0.5-0.33,1.1-0.5,1.78-0.5c1.01,0,1.86,0.39,2.57,1.16
				c0.7,0.77,1.05,1.88,1.05,3.31c0,1.94-0.51,3.32-1.52,4.15c-0.64,0.53-1.39,0.79-2.24,0.79c-0.67,0-1.23-0.15-1.69-0.44
				c-0.27-0.17-0.56-0.45-0.89-0.86v4.54h-1.49V330.23z M89.08,337.19c0.46-0.58,0.69-1.46,0.69-2.62c0-0.71-0.1-1.32-0.31-1.83
				c-0.39-0.98-1.1-1.47-2.12-1.47c-1.04,0-1.74,0.52-2.12,1.55c-0.2,0.55-0.31,1.26-0.31,2.11c0,0.69,0.1,1.27,0.31,1.75
				c0.39,0.92,1.1,1.38,2.12,1.38C88.04,338.07,88.62,337.78,89.08,337.19z"/>
			<path d="M93.08,326.88h1.49v12.19h-1.49V326.88z"/>
			<path d="M96.82,326.88h1.52v1.69h-1.52V326.88z M96.82,330.23h1.52v8.85h-1.52V330.23z"/>
			<path d="M106.47,330.66c0.63,0.49,1.01,1.33,1.13,2.52h-1.45c-0.09-0.55-0.29-1-0.61-1.37c-0.32-0.36-0.82-0.54-1.52-0.54
				c-0.95,0-1.63,0.46-2.04,1.39c-0.27,0.6-0.4,1.35-0.4,2.23c0,0.89,0.19,1.64,0.56,2.25c0.38,0.61,0.97,0.91,1.78,0.91
				c0.62,0,1.11-0.19,1.47-0.57c0.36-0.38,0.61-0.9,0.75-1.56h1.45c-0.17,1.18-0.58,2.04-1.25,2.58c-0.66,0.55-1.51,0.82-2.55,0.82
				c-1.16,0-2.09-0.42-2.78-1.27s-1.04-1.91-1.04-3.18c0-1.56,0.38-2.78,1.14-3.64c0.76-0.87,1.72-1.3,2.9-1.3
				C105.02,329.93,105.84,330.17,106.47,330.66z"/>
			<path d="M113.86,333.69c0.34-0.04,0.57-0.19,0.69-0.43c0.07-0.13,0.1-0.32,0.1-0.57c0-0.51-0.18-0.88-0.54-1.11
				c-0.36-0.23-0.88-0.34-1.56-0.34c-0.78,0-1.33,0.21-1.66,0.63c-0.18,0.23-0.3,0.58-0.36,1.04h-1.39c0.03-1.1,0.38-1.86,1.07-2.29
				c0.68-0.43,1.48-0.64,2.38-0.64c1.05,0,1.9,0.2,2.55,0.6c0.65,0.4,0.97,1.02,0.97,1.86v5.12c0,0.16,0.03,0.28,0.1,0.37
				c0.06,0.09,0.2,0.14,0.4,0.14c0.07,0,0.14,0,0.22-0.01c0.08-0.01,0.17-0.02,0.27-0.04v1.1c-0.23,0.07-0.41,0.11-0.53,0.12
				c-0.12,0.02-0.29,0.03-0.5,0.03c-0.52,0-0.89-0.18-1.12-0.55c-0.12-0.19-0.21-0.47-0.26-0.82c-0.3,0.4-0.74,0.74-1.31,1.04
				c-0.57,0.29-1.2,0.44-1.88,0.44c-0.82,0-1.5-0.25-2.02-0.75c-0.52-0.5-0.78-1.13-0.78-1.88c0-0.83,0.26-1.46,0.77-1.92
				c0.51-0.45,1.19-0.73,2.03-0.84L113.86,333.69z M110.71,337.73c0.31,0.25,0.69,0.37,1.12,0.37c0.53,0,1.04-0.12,1.53-0.37
				c0.83-0.4,1.25-1.07,1.25-1.98v-1.2c-0.18,0.12-0.42,0.21-0.71,0.29c-0.29,0.08-0.57,0.13-0.85,0.17l-0.9,0.12
				c-0.54,0.07-0.95,0.19-1.22,0.34c-0.46,0.26-0.69,0.67-0.69,1.25C110.24,337.14,110.4,337.48,110.71,337.73z"/>
			<path d="M118.85,327.7h1.51v2.48h1.42v1.22h-1.42v5.8c0,0.31,0.11,0.52,0.32,0.62c0.12,0.06,0.31,0.09,0.58,0.09
				c0.07,0,0.15,0,0.23,0c0.08,0,0.18-0.01,0.29-0.02v1.18c-0.17,0.05-0.35,0.09-0.54,0.11c-0.19,0.02-0.39,0.03-0.6,0.03
				c-0.7,0-1.17-0.18-1.42-0.54c-0.25-0.36-0.37-0.82-0.37-1.39v-5.89h-1.2v-1.22h1.2V327.7z"/>
			<path d="M123.27,326.88h1.52v1.69h-1.52V326.88z M123.27,330.23h1.52v8.85h-1.52V330.23z"/>
			<path d="M133.54,331.07c0.79,0.76,1.19,1.89,1.19,3.37c0,1.43-0.35,2.62-1.04,3.55c-0.7,0.94-1.78,1.4-3.25,1.4
				c-1.22,0-2.19-0.41-2.91-1.24c-0.72-0.83-1.08-1.94-1.08-3.33c0-1.49,0.38-2.68,1.14-3.57c0.76-0.88,1.78-1.33,3.05-1.33
				C131.78,329.93,132.75,330.31,133.54,331.07z M132.62,336.99c0.37-0.75,0.55-1.58,0.55-2.5c0-0.83-0.13-1.51-0.4-2.03
				c-0.42-0.82-1.14-1.23-2.17-1.23c-0.91,0-1.58,0.35-1.99,1.05c-0.42,0.7-0.62,1.54-0.62,2.52c0,0.95,0.21,1.73,0.62,2.37
				c0.41,0.63,1.07,0.95,1.97,0.95C131.57,338.11,132.25,337.74,132.62,336.99z"/>
			<path d="M136.5,330.18h1.42v1.26c0.42-0.52,0.87-0.89,1.34-1.12c0.47-0.23,0.99-0.34,1.57-0.34c1.26,0,2.11,0.44,2.56,1.32
				c0.24,0.48,0.37,1.17,0.37,2.07v5.7h-1.52v-5.6c0-0.54-0.08-0.98-0.24-1.31c-0.27-0.55-0.75-0.83-1.44-0.83
				c-0.35,0-0.65,0.04-0.87,0.11c-0.41,0.12-0.77,0.37-1.08,0.73c-0.25,0.29-0.41,0.6-0.49,0.91c-0.08,0.31-0.11,0.76-0.11,1.34
				v4.66h-1.49V330.18z"/>
		</g>
	</g>
	<g>
		<g>
			<path d="M73.5,156.75c0.81,1.08,1.21,2.46,1.21,4.14c0,1.82-0.46,3.33-1.39,4.54c-1.08,1.42-2.63,2.12-4.64,2.12
				c-1.88,0-3.35-0.62-4.42-1.86c-0.96-1.2-1.44-2.71-1.44-4.53c0-1.65,0.41-3.06,1.23-4.23c1.05-1.51,2.61-2.26,4.67-2.26
				C70.88,154.68,72.47,155.37,73.5,156.75z M72.05,164.52c0.65-1.04,0.98-2.24,0.98-3.6c0-1.43-0.38-2.59-1.12-3.46
				c-0.75-0.87-1.77-1.31-3.08-1.31c-1.26,0-2.29,0.43-3.09,1.3c-0.8,0.87-1.2,2.14-1.2,3.83c0,1.35,0.34,2.49,1.03,3.42
				c0.68,0.93,1.79,1.39,3.32,1.39C70.34,166.08,71.4,165.56,72.05,164.52z"/>
			<path d="M76.48,158.31h1.42v1.26c0.42-0.52,0.87-0.89,1.34-1.12s0.99-0.34,1.57-0.34c1.26,0,2.11,0.44,2.56,1.32
				c0.24,0.48,0.37,1.17,0.37,2.07v5.7h-1.52v-5.6c0-0.54-0.08-0.98-0.24-1.31c-0.27-0.55-0.75-0.83-1.44-0.83
				c-0.35,0-0.64,0.04-0.87,0.11c-0.41,0.12-0.77,0.37-1.08,0.73c-0.25,0.29-0.41,0.6-0.49,0.91c-0.08,0.31-0.11,0.76-0.11,1.34
				v4.66h-1.49V158.31z"/>
			<path d="M85.98,155.01h1.49v12.19h-1.49V155.01z"/>
			<path d="M89.72,155.01h1.52v1.69h-1.52V155.01z M89.72,158.35h1.52v8.85h-1.52V158.35z"/>
			<path d="M93.49,158.31h1.42v1.26c0.42-0.52,0.87-0.89,1.34-1.12s0.99-0.34,1.57-0.34c1.26,0,2.11,0.44,2.56,1.32
				c0.24,0.48,0.37,1.17,0.37,2.07v5.7h-1.52v-5.6c0-0.54-0.08-0.98-0.24-1.31c-0.27-0.55-0.75-0.83-1.44-0.83
				c-0.35,0-0.65,0.04-0.87,0.11c-0.41,0.12-0.77,0.37-1.08,0.73c-0.25,0.29-0.41,0.6-0.49,0.91c-0.08,0.31-0.11,0.76-0.11,1.34
				v4.66h-1.49V158.31z"/>
			<path d="M108.48,158.56c0.59,0.3,1.04,0.68,1.35,1.15c0.3,0.45,0.5,0.97,0.6,1.57c0.09,0.41,0.13,1.06,0.13,1.96h-6.52
				c0.03,0.9,0.24,1.63,0.64,2.17c0.4,0.54,1.02,0.82,1.85,0.82c0.78,0,1.4-0.26,1.87-0.77c0.27-0.3,0.45-0.64,0.56-1.04h1.47
				c-0.04,0.33-0.17,0.69-0.39,1.09c-0.22,0.4-0.46,0.73-0.73,0.98c-0.45,0.44-1.02,0.74-1.69,0.9c-0.36,0.09-0.77,0.13-1.22,0.13
				c-1.11,0-2.04-0.4-2.81-1.21c-0.77-0.8-1.15-1.93-1.15-3.38c0-1.43,0.39-2.59,1.16-3.48s1.79-1.34,3.04-1.34
				C107.28,158.11,107.89,158.26,108.48,158.56z M109.03,162.05c-0.06-0.65-0.2-1.17-0.42-1.55c-0.41-0.72-1.09-1.08-2.05-1.08
				c-0.69,0-1.26,0.25-1.73,0.74c-0.46,0.5-0.71,1.12-0.74,1.89H109.03z"/>
			<path d="M59.64,175.41h5.24c1.43,0,2.44,0.43,3.05,1.28c0.35,0.5,0.53,1.08,0.53,1.74c0,0.77-0.22,1.4-0.66,1.89
				c-0.23,0.26-0.55,0.5-0.98,0.71c0.63,0.24,1.09,0.51,1.4,0.81c0.55,0.53,0.82,1.26,0.82,2.2c0,0.79-0.25,1.5-0.74,2.13
				c-0.74,0.95-1.91,1.43-3.51,1.43h-5.15V175.41z M64.27,180.56c0.7,0,1.24-0.1,1.63-0.29c0.61-0.3,0.91-0.85,0.91-1.64
				c0-0.8-0.32-1.33-0.97-1.61c-0.37-0.15-0.91-0.23-1.63-0.23h-2.95v3.78H64.27z M64.82,186.19c1.01,0,1.73-0.29,2.17-0.88
				c0.27-0.37,0.41-0.82,0.41-1.34c0-0.89-0.4-1.49-1.19-1.81c-0.42-0.17-0.98-0.26-1.67-0.26h-3.28v4.29H64.82z"/>
			<path d="M81.07,177.15c0.81,1.08,1.21,2.46,1.21,4.14c0,1.82-0.46,3.33-1.39,4.54c-1.08,1.42-2.63,2.12-4.64,2.12
				c-1.88,0-3.35-0.62-4.42-1.86c-0.96-1.2-1.44-2.71-1.44-4.53c0-1.65,0.41-3.06,1.23-4.23c1.05-1.51,2.61-2.26,4.67-2.26
				C78.44,175.08,80.03,175.77,81.07,177.15z M79.61,184.92c0.65-1.04,0.98-2.24,0.98-3.6c0-1.43-0.38-2.59-1.12-3.46
				c-0.75-0.87-1.77-1.31-3.08-1.31c-1.26,0-2.29,0.43-3.09,1.3c-0.8,0.87-1.2,2.14-1.2,3.83c0,1.35,0.34,2.49,1.03,3.42
				c0.68,0.93,1.79,1.39,3.32,1.39C77.91,186.48,78.96,185.96,79.61,184.92z"/>
			<path d="M91.58,175.41h1.87l4.42,12.19h-1.81l-1.24-3.65H90l-1.32,3.65h-1.69L91.58,175.41z M94.3,182.61l-1.85-5.39l-1.97,5.39
				H94.3z"/>
			<path d="M101.95,175.41h1.26l-3.87,12.19h-1.26L101.95,175.41z"/>
			<path d="M112.83,176.3c0.85,0.81,1.33,1.74,1.42,2.77h-1.61c-0.18-0.79-0.55-1.41-1.09-1.87s-1.31-0.69-2.3-0.69
				c-1.2,0-2.17,0.42-2.91,1.27c-0.74,0.84-1.11,2.14-1.11,3.88c0,1.43,0.33,2.59,1,3.47c0.67,0.89,1.66,1.33,2.98,1.33
				c1.22,0,2.14-0.47,2.78-1.4c0.34-0.49,0.59-1.14,0.76-1.94h1.61c-0.14,1.28-0.62,2.36-1.43,3.23c-0.97,1.05-2.27,1.57-3.92,1.57
				c-1.42,0-2.61-0.43-3.57-1.29c-1.27-1.13-1.9-2.89-1.9-5.25c0-1.8,0.48-3.27,1.43-4.42c1.03-1.25,2.45-1.88,4.26-1.88
				C110.78,175.08,111.98,175.48,112.83,176.3z"/>
		</g>
	</g>
	<g id="XMLID_00000120526787219302751120000008804587766502594183_">
		<polygon id="XMLID_00000097459829690193275160000002815878488631825079_" class="st2" points="175.72,270.3 175.89,270.18 
			175.65,270.18 		"/>
		<path id="XMLID_00000021838172245785934780000001871187816967607956_" class="st2" d="M294.75,246.82l20.82-13.62l-1-1.81
			l-21.44,14.03C293.7,245.82,294.24,246.29,294.75,246.82z"/>
		<path id="XMLID_00000165921815465655676730000017895076835717607572_" class="st2" d="M175.89,270.18h12.45
			c4.64,0,7.67-1.03,9.09-3.09c0.19-0.27,0.36-0.55,0.52-0.82l-11.37-3.64L175.89,270.18z"/>
		<path id="XMLID_00000006666904371033799230000015062761125893806268_" class="st2" d="M183.45,262.32h-1.11v-6.41h4.32
			c1.4,0,2.36,0.34,2.88,1.02c0.52,0.68,0.79,1.43,0.79,2.24c0,0.81-0.27,1.54-0.81,2.18c0,0-0.01,0.01-0.01,0.01l9.33,2.99
			c0.48-1.33,0.73-2.76,0.73-4.28c0-4.38-2.01-7.12-6.03-8.22c1.73-0.53,3.03-1.51,3.9-2.94c0.87-1.42,1.31-3.01,1.31-4.77
			c0-2.41-0.75-4.56-2.25-6.44c-1.5-1.88-3.89-2.82-7.17-2.82h-15.77v35.3l1.12-1.65L183.45,262.32z M182.34,242.45h4.26
			c2.12,0,3.19,0.98,3.19,2.95c0,0.72-0.23,1.41-0.68,2.04c-0.46,0.64-1.24,0.96-2.34,0.96h-4.41V242.45z"/>
		<path id="XMLID_00000034812492634571925260000015558581021542334603_" class="st2" d="M216.38,252.41c0.5,0,1.07,0.09,1.71,0.26
			v-9.18c-0.56-0.07-1-0.1-1.32-0.1c-3.16,0-5.17,1.97-6.03,5.92v-5.43h-7.55v18.81l8.74-5.68
			C212.2,253.95,213.69,252.41,216.38,252.41z"/>
		<polygon id="XMLID_00000066475978389751774980000013107196813368848823_" class="st2" points="203.18,270.18 211.87,270.18 
			211.87,259.5 203.18,265.15 		"/>
		<path id="XMLID_00000121244746369806092920000005964469575792254141_" class="st3" d="M235.43,255.72
			c0.01,0.33,0.02,0.68,0.02,1.04c0,1.81-0.16,3.55-0.47,5.21c-0.31,1.66-1.17,2.5-2.58,2.5c-1,0-1.75-0.49-2.25-1.46
			c-0.42-0.82-0.67-2.38-0.73-4.66l-1.54,0.67l-7.96-4.54c-0.13,0.84-0.2,1.71-0.2,2.62c0,3.66,1.13,6.84,3.39,9.56
			c2.26,2.72,5.31,4.07,9.15,4.07c3.88,0,7-1.31,9.34-3.94c2.34-2.63,3.52-5.91,3.52-9.84c0-1.57-0.2-3.04-0.58-4.4l-0.59-0.54
			L235.43,255.72z"/>
		<path id="XMLID_00000103261236328225476120000006863477356862666643_" class="st3" d="M229.41,256.07
			c0.05-2.08,0.29-3.61,0.72-4.59c0.49-1.12,1.25-1.68,2.3-1.68c1.14,0,1.93,0.54,2.37,1.63c0.22,0.53,0.38,1.23,0.49,2.08
			l8.24-3.59c-0.5-0.97-1.12-1.87-1.86-2.71c-2.31-2.59-5.37-3.88-9.18-3.88c-3.78,0-6.85,1.31-9.2,3.93
			c-1.34,1.49-2.28,3.19-2.86,5.1l7.58,4.33L229.41,256.07z"/>
		<polygon id="XMLID_00000129913339842450846450000008987911453348106913_" class="st4" points="248.65,256.26 248.65,270.18 
			257.16,270.18 257.16,262.94 259.63,259.65 263.97,270.18 273.36,270.18 265.57,252.91 265.93,252.45 252.53,259.78 		"/>
		<path id="XMLID_00000147937317671205958080000016610531784709065904_" class="st4" d="M267.63,249.15l0.63,0.28l4.3-5.56h-8
			l-5.81,7.6c-0.56,0.72-1.12,1.53-1.66,2.4c0.05-2.78,0.07-4.36,0.07-4.76v-14.25h-8.51v18.64l4.15,3.76L267.63,249.15z"/>
		<path id="XMLID_00000173130798951302019530000014776499536030444420_" class="st2" d="M294.75,246.82l-5.99,3.92
			c0.41,0.67,0.62,1.73,0.64,3.18h-5.49l-4.31,2.82l-5.81-2.58c-0.18,1.02-0.29,2.08-0.29,3.19c0,3.79,1.16,6.97,3.48,9.53
			c2.32,2.56,5.43,3.84,9.33,3.84c3.5,0,6.28-0.91,8.34-2.73c2.06-1.82,3.33-4.02,3.83-6.61l-8.47-0.65
			c-0.35,2.16-1.51,3.23-3.48,3.23c-1.37,0-2.29-0.4-2.78-1.2c-0.49-0.8-0.74-2.03-0.77-3.69h15.5c0.02-0.64,0.02-1.14,0.02-1.5
			c0-4.4-1.14-7.87-3.43-10.42C294.97,247.04,294.86,246.93,294.75,246.82z"/>
		<path id="XMLID_00000133494215328059969620000013025549414776963769_" class="st2" d="M283.16,251.94
			c0.4-1.69,1.41-2.53,3.02-2.53c0.25,0,0.49,0.03,0.73,0.08l6.22-4.07c-1.96-1.39-4.3-2.08-7.03-2.08c-3.82,0-6.88,1.35-9.17,4.06
			c-1.19,1.41-2.06,2.98-2.63,4.71l5.13,2.28L283.16,251.94z"/>
		<path id="XMLID_00000040564477560706073030000007865867668259192454_" class="st2" d="M315.63,243.39c-3.16,0-5.17,1.97-6.03,5.92
			v-5.43h-7.55v26.3h8.69v-12.05c0-3.81,1.5-5.72,4.51-5.72c0.5,0,1.07,0.09,1.71,0.26v-9.18
			C316.39,243.42,315.95,243.39,315.63,243.39z"/>
		<polygon id="XMLID_00000093870004309381514380000012681030467634532798_" class="st2" points="311.48,230.15 315.19,236.37 
			321.98,227.78 		"/>
		<g id="XMLID_00000090290908667746842990000006479041867392025245_">
			<path id="XMLID_00000173840363393548542940000015775543553954474127_" class="st5" d="M163.62,270.3
				c-1.11,0.23-2.21,0.37-3.28,0.41c-1.07,0.05-2.04-0.13-2.9-0.54c-0.86-0.4-1.54-1.11-2.06-2.13c-0.52-1.02-0.76-2.49-0.74-4.43
				l0.23-10.2c0.04-1.52-0.18-2.53-0.65-3.03c-0.47-0.5-1.37-0.62-2.71-0.34l4.23-8.81c1.11-0.23,2.22-0.37,3.31-0.42
				c1.09-0.05,2.07,0.13,2.92,0.53c0.86,0.4,1.54,1.12,2.07,2.16c0.52,1.03,0.75,2.53,0.69,4.47l-0.24,10.14
				c-0.04,1.52,0.18,2.54,0.66,3.06c0.47,0.52,1.38,0.65,2.72,0.37L163.62,270.3z M166.09,231.97c0.16,0.78,0.14,1.51-0.07,2.19
				c-0.21,0.68-0.55,1.3-1.01,1.86c-0.47,0.56-1.03,1.02-1.69,1.39c-0.66,0.37-1.34,0.62-2.05,0.77c-0.71,0.14-1.43,0.18-2.18,0.1
				c-0.75-0.08-1.45-0.28-2.1-0.61c-0.65-0.33-1.2-0.77-1.66-1.31c-0.46-0.54-0.77-1.21-0.93-1.99c-0.16-0.78-0.14-1.51,0.07-2.19
				c0.21-0.68,0.55-1.29,1.02-1.83c0.47-0.54,1.03-1,1.69-1.39c0.66-0.39,1.34-0.65,2.04-0.8c0.71-0.14,1.44-0.17,2.19-0.07
				c0.75,0.1,1.45,0.3,2.1,0.61c0.64,0.31,1.2,0.74,1.66,1.28C165.62,230.53,165.93,231.19,166.09,231.97z"/>
		</g>
	</g>
</g>
</svg>
