<?xml version="1.0" encoding="utf-8"?>
<!-- Generator: Adobe Illustrator 26.0.1, SVG Export Plug-In . SVG Version: 6.00 Build 0)  -->
<svg version="1.1" id="Layer_1" xmlns="http://www.w3.org/2000/svg" xmlns:xlink="http://www.w3.org/1999/xlink" x="0px" y="0px"
	 viewBox="0 0 114.47 121.89" style="enable-background:new 0 0 114.47 121.89;" xml:space="preserve">
<style type="text/css">
	.st0{fill:none;}
	.st1{opacity:0.5;}
	.st2{fill-rule:evenodd;clip-rule:evenodd;fill:#038443;}
	.st3{fill-rule:evenodd;clip-rule:evenodd;fill:#F1F2F2;}
	.st4{fill:#F59120;}
	.st5{opacity:0.2;fill-rule:evenodd;clip-rule:evenodd;fill:#709259;}
	.st6{fill-rule:evenodd;clip-rule:evenodd;fill:none;}
	.st7{fill-rule:evenodd;clip-rule:evenodd;fill:#28391D;}
	.st8{fill:url(#SVGID_1_);}
	.st9{fill:url(#SVGID_00000081629443238784813120000017456395314860695193_);}
	.st10{opacity:0.6;}
	.st11{fill-rule:evenodd;clip-rule:evenodd;fill:#910F1F;}
	.st12{fill:url(#SVGID_00000064329330380850067820000011825383717602040468_);}
	.st13{opacity:0.5;fill-rule:evenodd;clip-rule:evenodd;fill:url(#SVGID_00000171720322544183043700000004102391793500039326_);}
	.st14{opacity:0.3;fill-rule:evenodd;clip-rule:evenodd;fill:url(#SVGID_00000010283706029672635340000006170486269789402018_);}
	.st15{fill:url(#SVGID_00000135658185372568670580000012595888551630743176_);}
	.st16{fill:url(#SVGID_00000005980291355688110650000010656275295155221133_);}
	.st17{opacity:0.2;fill:url(#SVGID_00000138550885128113686780000000040354540597769856_);}
	.st18{fill:url(#SVGID_00000044179277630426698060000013465387848702189205_);}
	.st19{filter:url(#Adobe_OpacityMaskFilter);}
	.st20{opacity:0.56;mask:url(#SVGID_00000065756938911716600960000001116608121123068834_);}
	.st21{fill:url(#SVGID_00000093148277071104754690000009721289386815633291_);}
	.st22{filter:url(#Adobe_OpacityMaskFilter_00000101098371856396036560000018012768304768876204_);}
	.st23{opacity:0.56;mask:url(#SVGID_00000163766810814676966200000013988784052507224499_);}
	.st24{opacity:0.28;fill:#F1F2F2;}
	.st25{fill:url(#SVGID_00000080180655072244769320000018106476508633627558_);}
	.st26{opacity:0.5;fill-rule:evenodd;clip-rule:evenodd;fill:url(#SVGID_00000181767114372512013180000015676128062772210088_);}
	.st27{opacity:0.3;fill-rule:evenodd;clip-rule:evenodd;fill:url(#SVGID_00000094612844194783001810000007271085723256195259_);}
	.st28{fill:url(#SVGID_00000029016335374741744100000000644958675673730480_);}
	.st29{fill:url(#SVGID_00000040554344999716073090000015900928879946583731_);}
	.st30{opacity:0.2;fill:url(#SVGID_00000172428112526230517280000016472417928632674239_);}
	.st31{fill:url(#SVGID_00000161632643173047320240000002473183202808347267_);}
	.st32{filter:url(#Adobe_OpacityMaskFilter_00000064322359837566051900000008540029557435655575_);}
	.st33{opacity:0.56;mask:url(#SVGID_00000016794641212483598830000011819646637572415421_);}
	.st34{fill:url(#SVGID_00000117641882806812425260000014081903866394227597_);}
	.st35{filter:url(#Adobe_OpacityMaskFilter_00000006667132144013695980000008186810409086778789_);}
	.st36{opacity:0.56;mask:url(#SVGID_00000119108939512655787650000016119960338590038924_);}
	.st37{fill:url(#SVGID_00000074440304912636201300000008005167646795071923_);}
	.st38{fill:url(#SVGID_00000015324669792554025870000017385178094078250683_);}
	.st39{fill:url(#SVGID_00000100341562124036812740000000076578433185919873_);}
	.st40{fill:#038443;}
	.st41{fill:url(#SVGID_00000070083456715267145150000006877399313850818718_);}
	.st42{fill:url(#SVGID_00000070103177728143712050000011751181634873011363_);}
	.st43{filter:url(#Adobe_OpacityMaskFilter_00000160192399638399685110000006656450774045321367_);}
	.st44{opacity:0.35;mask:url(#SVGID_00000158006027168069074560000014673426660111222449_);}
	.st45{fill:#1C1C1C;}
	.st46{filter:url(#Adobe_OpacityMaskFilter_00000057115592936912038410000007446224279515876243_);}
	.st47{opacity:0.09;mask:url(#SVGID_00000016038203389454997160000012923216777086226341_);}
	.st48{fill:#FFFFFF;}
	.st49{filter:url(#Adobe_OpacityMaskFilter_00000108274794398137560220000002822514386613281937_);}
	.st50{opacity:0.35;}
	.st51{fill:url(#SVGID_00000042006069774893445090000002570950750940251533_);}
	.st52{fill:url(#SVGID_00000151536571867272194040000011222768319387382409_);}
	.st53{fill:url(#SVGID_00000068671091405795926450000002723075295771694267_);}
	.st54{filter:url(#Adobe_OpacityMaskFilter_00000079482308237617664410000014091890764358485947_);}
	.st55{opacity:0.35;mask:url(#SVGID_00000026880755609573108840000000394369449679028907_);}
	.st56{filter:url(#Adobe_OpacityMaskFilter_00000168828026639051820270000007908978439540138423_);}
	.st57{opacity:0.09;mask:url(#SVGID_00000051358792305616525750000009252203609136147133_);}
	.st58{filter:url(#Adobe_OpacityMaskFilter_00000033339035208966546330000015372113649036812942_);}
	.st59{fill:url(#SVGID_00000106120696276287140940000011126274884222886825_);}
	.st60{fill:#B1B3B4;}
	.st61{fill:#231F20;}
	.st62{opacity:0.5;fill:#231F20;enable-background:new    ;}
	.st63{opacity:0.09;}
</style>
<g>
	<path class="st62" d="M59.04,6.62c21.06,0,39.69,14.79,43.19,34.3c1.15,6.37,0.6,13.01-1.59,19.14
		c-2.4,6.69-7.07,11.91-11.25,17.65c-3,4.12-6.16,8.14-9.23,12.22c-5.31,7.03-10.63,14.06-15.95,21.09
		c-0.69,0.91-1.37,1.81-2.05,2.72c-0.77,1.02-1.96,1.52-3.15,1.52c-1.18,0-2.36-0.51-3.13-1.51c-8.24-10.73-16.48-21.46-24.72-32.2
		c-3.27-4.26-6.48-8.33-9.15-12.57c-3.98-6.32-6.77-12.99-6.77-21.2v-0.23C15.4,24.96,35.05,6.62,59.04,6.62z M58.84,61.19
		c1,0,2.01-0.08,3.01-0.26c6.69-1.12,12.2-5.93,13.86-12.11c1.49-5.56-0.49-9.91-2.03-12.22c-3.14-4.73-8.68-7.68-14.47-7.68
		c-0.98,0-1.96,0.08-2.93,0.24c-6.68,1.09-12.2,5.88-13.88,12.05c-1.52,5.59,0.46,9.95,1.98,12.27
		C47.5,58.24,53.05,61.19,58.84,61.19z M59.04,0C31.19,0,8.38,21.31,8.19,47.51v0.02v0.02v0.23c0,8.38,2.46,16.19,7.74,24.57
		c2.54,4.02,5.52,7.9,8.41,11.65l1.09,1.42l24.72,32.2c2.04,2.66,5.35,4.25,8.84,4.25c3.52,0,6.85-1.61,8.89-4.31l0.66-0.88
		l1.39-1.85l7.97-10.54l7.97-10.54c1.01-1.35,2.04-2.69,3.07-4.03c2.06-2.69,4.19-5.47,6.24-8.29c0.83-1.13,1.71-2.29,2.55-3.41
		c3.59-4.73,7.31-9.63,9.55-15.86c2.56-7.15,3.21-14.88,1.87-22.36C105.09,17.12,83.54,0,59.04,0z M58.84,54.57
		c-3.37,0-6.62-1.75-8.47-4.56c-1-1.52-2.01-4-1.15-7.15c1-3.64,4.32-6.52,8.26-7.17c0.58-0.09,1.16-0.14,1.73-0.14
		c3.37,0,6.63,1.75,8.48,4.55c1,1.51,2.02,3.97,1.17,7.11c-0.98,3.64-4.3,6.54-8.26,7.21C60.02,54.52,59.42,54.57,58.84,54.57z"/>
	<g class="st50">
		<path class="st62" d="M59.04,6.62c21.06,0,39.69,14.79,43.19,34.3c1.15,6.37,0.6,13.01-1.59,19.14
			c-2.4,6.69-7.07,11.91-11.25,17.65c-3,4.12-6.16,8.14-9.23,12.22c-5.31,7.03-10.63,14.06-15.95,21.09
			c-0.69,0.91-1.37,1.81-2.05,2.72c-0.77,1.02-1.96,1.52-3.15,1.52c-1.18,0-2.36-0.51-3.13-1.51c-8.24-10.73-16.48-21.46-24.72-32.2
			c-3.27-4.26-6.48-8.33-9.15-12.57c-3.98-6.32-6.77-12.99-6.77-21.2v-0.23C15.4,24.96,35.05,6.62,59.04,6.62z M58.84,61.19
			c1,0,2.01-0.08,3.01-0.26c6.69-1.12,12.2-5.93,13.86-12.11c1.49-5.56-0.49-9.91-2.03-12.22c-3.14-4.73-8.68-7.68-14.47-7.68
			c-0.98,0-1.96,0.08-2.93,0.24c-6.68,1.09-12.2,5.88-13.88,12.05c-1.52,5.59,0.46,9.95,1.98,12.27
			C47.5,58.24,53.05,61.19,58.84,61.19z M59.04,0C31.19,0,8.38,21.31,8.19,47.51v0.02v0.02v0.23c0,8.38,2.46,16.19,7.74,24.57
			c2.54,4.02,5.52,7.9,8.41,11.65l1.09,1.42l24.72,32.2c2.04,2.66,5.35,4.25,8.84,4.25c3.52,0,6.85-1.61,8.89-4.31l0.66-0.88
			l1.39-1.85l7.97-10.54l7.97-10.54c1.01-1.35,2.04-2.69,3.07-4.03c2.06-2.69,4.19-5.47,6.24-8.29c0.83-1.13,1.71-2.29,2.55-3.41
			c3.59-4.73,7.31-9.63,9.55-15.86c2.56-7.15,3.21-14.88,1.87-22.36C105.09,17.12,83.54,0,59.04,0z M58.84,54.57
			c-3.37,0-6.62-1.75-8.47-4.56c-1-1.52-2.01-4-1.15-7.15c1-3.64,4.32-6.52,8.26-7.17c0.58-0.09,1.16-0.14,1.73-0.14
			c3.37,0,6.63,1.75,8.48,4.55c1,1.51,2.02,3.97,1.17,7.11c-0.98,3.64-4.3,6.54-8.26,7.21C60.02,54.52,59.42,54.57,58.84,54.57z"/>
	</g>
	<g class="st63">
		<path class="st61" d="M59.04,6.62c21.06,0,39.69,14.79,43.19,34.3c1.15,6.37,0.6,13.01-1.59,19.14
			c-2.4,6.69-7.07,11.91-11.25,17.65c-3,4.12-6.16,8.14-9.23,12.22c-5.31,7.03-10.63,14.06-15.95,21.09
			c-0.69,0.91-1.37,1.81-2.05,2.72c-0.77,1.02-1.96,1.52-3.15,1.52c-1.18,0-2.36-0.51-3.13-1.51c-8.24-10.73-16.48-21.46-24.72-32.2
			c-3.27-4.26-6.48-8.33-9.15-12.57c-3.98-6.32-6.77-12.99-6.77-21.2v-0.23C15.4,24.96,35.05,6.62,59.04,6.62z M58.84,61.19
			c1,0,2.01-0.08,3.01-0.26c6.69-1.12,12.2-5.93,13.86-12.11c1.49-5.56-0.49-9.91-2.03-12.22c-3.14-4.73-8.68-7.68-14.47-7.68
			c-0.98,0-1.96,0.08-2.93,0.24c-6.68,1.09-12.2,5.88-13.88,12.05c-1.52,5.59,0.46,9.95,1.98,12.27
			C47.5,58.24,53.05,61.19,58.84,61.19z M59.04,0C31.19,0,8.38,21.31,8.19,47.51v0.02v0.02v0.23c0,8.38,2.46,16.19,7.74,24.57
			c2.54,4.02,5.52,7.9,8.41,11.65l1.09,1.42l24.72,32.2c2.04,2.66,5.35,4.25,8.84,4.25c3.52,0,6.85-1.61,8.89-4.31l0.66-0.88
			l1.39-1.85l7.97-10.54l7.97-10.54c1.01-1.35,2.04-2.69,3.07-4.03c2.06-2.69,4.19-5.47,6.24-8.29c0.83-1.13,1.71-2.29,2.55-3.41
			c3.59-4.73,7.31-9.63,9.55-15.86c2.56-7.15,3.21-14.88,1.87-22.36C105.09,17.12,83.54,0,59.04,0z M58.84,54.57
			c-3.37,0-6.62-1.75-8.47-4.56c-1-1.52-2.01-4-1.15-7.15c1-3.64,4.32-6.52,8.26-7.17c0.58-0.09,1.16-0.14,1.73-0.14
			c3.37,0,6.63,1.75,8.48,4.55c1,1.51,2.02,3.97,1.17,7.11c-0.98,3.64-4.3,6.54-8.26,7.21C60.02,54.52,59.42,54.57,58.84,54.57z"/>
		<g class="st50">
			<path class="st61" d="M57.24,6.62c23.71,0,44.69,14.79,48.63,34.3c1.29,6.37,0.67,13.01-1.8,19.14
				c-2.7,6.69-7.95,11.91-12.67,17.65c-3.37,4.12-6.93,8.14-10.4,12.22c-5.98,7.03-11.97,14.06-17.95,21.09
				c-0.77,0.91-1.55,1.81-2.31,2.72c-0.86,1.02-2.2,1.52-3.54,1.52c-1.33,0-2.66-0.51-3.52-1.51c-9.27-10.73-18.56-21.46-27.83-32.2
				c-3.68-4.26-7.3-8.33-10.31-12.57c-4.48-6.32-7.62-12.99-7.62-21.2v-0.23C8.11,24.96,30.23,6.62,57.24,6.62z M57.03,61.19
				c1.13,0,2.26-0.08,3.39-0.26c7.53-1.12,13.74-5.93,15.6-12.11c1.68-5.56-0.56-9.91-2.28-12.22c-3.53-4.73-9.77-7.68-16.3-7.68
				c-1.1,0-2.2,0.08-3.3,0.24c-7.52,1.09-13.74,5.88-15.63,12.05c-1.72,5.59,0.52,9.95,2.23,12.27
				C44.26,58.24,50.5,61.19,57.03,61.19z M57.24,0C25.89,0,0.21,21.31,0,47.51v0.02v0.02v0.23c0,8.38,2.77,16.19,8.72,24.57
				c2.86,4.02,6.22,7.9,9.47,11.65l1.23,1.42l27.83,32.2c2.3,2.66,6.02,4.25,9.96,4.25c3.97,0,7.71-1.61,10.01-4.31l0.74-0.88
				l1.57-1.85l8.98-10.54l8.98-10.54c1.14-1.35,2.3-2.69,3.46-4.03c2.32-2.69,4.72-5.47,7.02-8.29c0.93-1.13,1.92-2.29,2.88-3.41
				c4.05-4.73,8.23-9.63,10.75-15.86c2.89-7.15,3.61-14.88,2.1-22.36C109.1,17.12,84.83,0,57.24,0z M57.03,54.57
				c-3.8,0-7.45-1.75-9.53-4.56c-1.13-1.52-2.26-4-1.3-7.15c1.12-3.64,4.86-6.52,9.3-7.17c0.65-0.09,1.31-0.14,1.94-0.14
				c3.8,0,7.47,1.75,9.55,4.55c1.12,1.51,2.27,3.97,1.32,7.11c-1.1,3.64-4.84,6.54-9.3,7.21C58.36,54.52,57.68,54.57,57.03,54.57z"
				/>
		</g>
	</g>
</g>
</svg>
