<?xml version="1.0" encoding="utf-8"?>
<!-- Generator: Adobe Illustrator 26.0.1, SVG Export Plug-In . SVG Version: 6.00 Build 0)  -->
<svg version="1.1" id="Layer_1" xmlns="http://www.w3.org/2000/svg" xmlns:xlink="http://www.w3.org/1999/xlink" x="0px" y="0px"
	 viewBox="0 0 130 248.2" style="enable-background:new 0 0 130 248.2;" xml:space="preserve">
<style type="text/css">
	.st0{fill:#EC7E30;}
	.st1{fill:#FFFFFF;}
	.st2{fill:#A5A4A4;}
</style>
<g>
	<circle class="st0" cx="65" cy="183.2" r="65"/>
	<circle class="st1" cx="65" cy="183.2" r="59.9"/>
	<path class="st2" d="M127.7,63.2c0.3,39.2-36.2,61.2-62.2,83.9c-1.6,1.5-25.8-22.6-28.8-25.2C19,106.3,1.9,87.2,2.4,62
		C2.8,39.2,16,17.9,36.1,7.2C45.1,2.5,55.2,0,65.5,0C102.1,0.1,127.5,30.8,127.7,63.2z"/>
	<circle class="st1" cx="65" cy="62.3" r="57"/>
	<g>
		<path d="M52.5,56.7c0.3-0.4,0.4-0.9,0.4-1.4c0-0.4-0.1-0.8-0.3-1.1c-0.2-0.3-0.4-0.6-0.7-0.8c-0.3-0.2-0.6-0.4-0.9-0.5
			c-0.3-0.1-0.6-0.2-0.9-0.3l-0.9-0.2c-0.2,0-0.4-0.1-0.6-0.2c-0.2-0.1-0.4-0.2-0.6-0.3c-0.2-0.1-0.3-0.2-0.4-0.4
			c-0.1-0.2-0.2-0.4-0.2-0.6c0-0.3,0.1-0.5,0.2-0.7c0.2-0.2,0.4-0.4,0.7-0.5s0.6-0.2,1-0.2c0.5,0,1,0.1,1.3,0.4s0.6,0.6,0.6,1h1.4
			c0-0.5-0.2-1-0.4-1.4c-0.3-0.4-0.7-0.7-1.2-0.9s-1.1-0.3-1.7-0.3c-0.6,0-1.2,0.1-1.7,0.3c-0.5,0.2-0.9,0.5-1.2,0.9
			s-0.4,0.9-0.4,1.4c0,0.7,0.2,1.2,0.7,1.6c0.4,0.4,1,0.7,1.8,0.9l1.1,0.3c0.3,0.1,0.6,0.2,0.9,0.3c0.3,0.1,0.5,0.3,0.6,0.4
			c0.2,0.2,0.2,0.4,0.2,0.7c0,0.3-0.1,0.6-0.3,0.8c-0.2,0.2-0.4,0.4-0.7,0.5s-0.7,0.2-1.1,0.2c-0.4,0-0.7-0.1-1-0.2
			c-0.3-0.1-0.6-0.3-0.8-0.5c-0.2-0.2-0.3-0.5-0.3-0.9h-1.4c0,0.6,0.2,1.1,0.5,1.5c0.3,0.4,0.7,0.7,1.2,1s1.1,0.3,1.8,0.3
			c0.7,0,1.4-0.1,1.9-0.4C51.9,57.5,52.3,57.2,52.5,56.7z"/>
		<path d="M55.8,57.6c0.5,0.3,1.1,0.5,1.8,0.5c0.5,0,1-0.1,1.4-0.2c0.4-0.2,0.7-0.4,1-0.7c0.3-0.3,0.5-0.6,0.6-1l-1.3-0.2
			c-0.1,0.2-0.2,0.4-0.4,0.6c-0.2,0.2-0.3,0.3-0.6,0.3c-0.2,0.1-0.5,0.1-0.7,0.1c-0.4,0-0.8-0.1-1.1-0.3c-0.3-0.2-0.5-0.4-0.7-0.8
			c-0.2-0.3-0.2-0.7-0.2-1.1h5v-0.5c0-0.6-0.1-1.2-0.3-1.6c-0.2-0.5-0.4-0.8-0.7-1.1c-0.3-0.3-0.6-0.5-1-0.6s-0.8-0.2-1.2-0.2
			c-0.7,0-1.2,0.2-1.7,0.5c-0.5,0.3-0.9,0.7-1.1,1.3c-0.3,0.6-0.4,1.2-0.4,1.9c0,0.7,0.1,1.4,0.4,1.9C54.9,56.9,55.3,57.3,55.8,57.6
			z M55.8,52.9c0.2-0.3,0.4-0.5,0.7-0.7c0.3-0.2,0.6-0.3,1-0.3c0.4,0,0.7,0.1,0.9,0.2s0.5,0.4,0.6,0.7c0.1,0.3,0.2,0.6,0.2,1h-3.7
			C55.6,53.5,55.7,53.2,55.8,52.9z"/>
		<rect x="62.2" y="48.5" width="1.4" height="9.5"/>
		<path d="M70.5,51.6c-0.3-0.3-0.6-0.5-1-0.6s-0.8-0.2-1.2-0.2c-0.7,0-1.2,0.2-1.7,0.5c-0.5,0.3-0.9,0.7-1.1,1.3
			c-0.3,0.6-0.4,1.2-0.4,1.9c0,0.7,0.1,1.4,0.4,1.9c0.3,0.5,0.7,1,1.2,1.3c0.5,0.3,1.1,0.5,1.8,0.5c0.5,0,1-0.1,1.4-0.2
			c0.4-0.2,0.7-0.4,1-0.7c0.3-0.3,0.5-0.6,0.6-1l-1.3-0.2c-0.1,0.2-0.2,0.4-0.4,0.6c-0.2,0.2-0.3,0.3-0.6,0.3
			c-0.2,0.1-0.5,0.1-0.7,0.1c-0.4,0-0.8-0.1-1.1-0.3c-0.3-0.2-0.5-0.4-0.7-0.8c-0.2-0.3-0.2-0.7-0.2-1.1h5v-0.5
			c0-0.6-0.1-1.2-0.3-1.6C71.1,52.2,70.8,51.8,70.5,51.6z M66.5,53.8c0-0.3,0.1-0.6,0.2-0.9c0.2-0.3,0.4-0.5,0.7-0.7
			c0.3-0.2,0.6-0.3,1-0.3c0.4,0,0.7,0.1,0.9,0.2s0.5,0.4,0.6,0.7c0.1,0.3,0.2,0.6,0.2,1H66.5z"/>
		<path d="M75,52.2c0.3-0.2,0.6-0.3,1-0.3c0.4,0,0.8,0.1,1.1,0.4c0.3,0.2,0.4,0.5,0.5,0.9h1.3c0-0.5-0.2-0.9-0.5-1.3s-0.6-0.6-1-0.8
			c-0.4-0.2-0.9-0.3-1.4-0.3c-0.7,0-1.2,0.2-1.7,0.5c-0.5,0.3-0.9,0.7-1.1,1.3c-0.3,0.6-0.4,1.2-0.4,1.9c0,0.7,0.1,1.3,0.4,1.9
			c0.3,0.6,0.6,1,1.1,1.3c0.5,0.3,1.1,0.5,1.8,0.5c0.6,0,1-0.1,1.5-0.3c0.4-0.2,0.8-0.5,1-0.8c0.2-0.4,0.4-0.8,0.4-1.2h-1.3
			c-0.1,0.3-0.2,0.5-0.3,0.7c-0.1,0.2-0.3,0.3-0.5,0.4c-0.2,0.1-0.5,0.1-0.7,0.1c-0.4,0-0.7-0.1-1-0.3c-0.3-0.2-0.5-0.5-0.7-0.9
			c-0.2-0.4-0.2-0.8-0.2-1.3c0-0.5,0.1-0.9,0.2-1.3C74.5,52.7,74.7,52.4,75,52.2z"/>
		<path d="M80.9,56.1c0,0.4,0.1,0.8,0.3,1.1s0.4,0.5,0.8,0.6s0.7,0.2,1,0.2c0.2,0,0.4,0,0.6-0.1c0.1,0,0.3-0.1,0.3-0.1l-0.2-1.1
			c0,0-0.1,0-0.2,0c-0.1,0-0.2,0-0.3,0c-0.2,0-0.3,0-0.4-0.1c-0.1,0-0.2-0.1-0.3-0.3s-0.1-0.3-0.1-0.6v-3.9h1.5v-1.1h-1.5v-1.7h-1.4
			v1.7h-1v1.1h1V56.1z"/>
		<polygon points="36.7,69.4 40.9,69.4 40.9,68.2 36.7,68.2 36.7,65.3 41.2,65.3 41.2,64.1 35.3,64.1 35.3,73.5 41.3,73.5 
			41.3,72.3 36.7,72.3 		"/>
		<polygon points="48.8,66.4 47.3,66.4 45.7,69.2 44.1,66.4 42.6,66.4 44.8,70 42.6,73.5 44.1,73.5 45.7,70.9 47.3,73.5 48.8,73.5 
			46.6,70 		"/>
		<path d="M52.2,67.8c0.3-0.2,0.6-0.3,1-0.3c0.4,0,0.8,0.1,1.1,0.4c0.3,0.2,0.4,0.5,0.5,0.9h1.3c0-0.5-0.2-0.9-0.5-1.3
			s-0.6-0.6-1-0.8c-0.4-0.2-0.9-0.3-1.4-0.3c-0.7,0-1.2,0.2-1.7,0.5c-0.5,0.3-0.9,0.7-1.1,1.3c-0.3,0.6-0.4,1.2-0.4,1.9
			c0,0.7,0.1,1.3,0.4,1.9c0.3,0.6,0.6,1,1.1,1.3c0.5,0.3,1.1,0.5,1.8,0.5c0.6,0,1-0.1,1.5-0.3c0.4-0.2,0.8-0.5,1-0.8
			c0.2-0.4,0.4-0.8,0.4-1.2h-1.3c-0.1,0.3-0.2,0.5-0.3,0.7c-0.1,0.2-0.3,0.3-0.5,0.4c-0.2,0.1-0.5,0.1-0.7,0.1c-0.4,0-0.7-0.1-1-0.3
			c-0.3-0.2-0.5-0.5-0.7-0.9c-0.2-0.4-0.2-0.8-0.2-1.3c0-0.5,0.1-0.9,0.2-1.3C51.7,68.3,51.9,68,52.2,67.8z"/>
		<path d="M62.4,66.6c-0.4-0.2-0.8-0.3-1.3-0.3c-0.6,0-1,0.1-1.3,0.3s-0.6,0.5-0.8,0.9h-0.1v-3.5h-1.4v9.5H59v-4.2
			c0-0.4,0.1-0.7,0.2-1c0.1-0.3,0.3-0.5,0.6-0.6s0.5-0.2,0.9-0.2c0.5,0,0.8,0.1,1.1,0.4c0.3,0.3,0.4,0.7,0.4,1.2v4.3h1.4V69
			c0-0.6-0.1-1.1-0.3-1.5C63.1,67.1,62.8,66.8,62.4,66.6z"/>
		<path d="M70,66.8c-0.3-0.2-0.6-0.3-0.9-0.4c-0.3-0.1-0.6-0.1-0.9-0.1c-0.4,0-0.8,0.1-1.2,0.2s-0.7,0.3-1,0.6
			c-0.3,0.3-0.5,0.6-0.7,1l1.3,0.3c0.1-0.2,0.3-0.5,0.6-0.7c0.3-0.2,0.6-0.3,1.1-0.3c0.4,0,0.8,0.1,1,0.3c0.2,0.2,0.3,0.5,0.3,0.9v0
			c0,0.2-0.1,0.3-0.2,0.4c-0.1,0.1-0.3,0.1-0.6,0.2c-0.3,0-0.6,0.1-1,0.1c-0.3,0-0.7,0.1-1,0.2c-0.3,0.1-0.6,0.2-0.9,0.3
			c-0.3,0.2-0.5,0.4-0.6,0.6c-0.2,0.3-0.2,0.6-0.2,1c0,0.5,0.1,0.9,0.3,1.2c0.2,0.3,0.5,0.6,0.9,0.7c0.4,0.2,0.8,0.3,1.2,0.3
			c0.4,0,0.7-0.1,1-0.2c0.3-0.1,0.5-0.3,0.7-0.4c0.2-0.2,0.3-0.3,0.4-0.5h0.1v1H71v-4.7c0-0.5-0.1-0.9-0.3-1.3
			C70.5,67.2,70.3,67,70,66.8z M69.6,71c0,0.3-0.1,0.5-0.2,0.8c-0.1,0.2-0.4,0.4-0.6,0.6s-0.6,0.2-1,0.2c-0.4,0-0.7-0.1-1-0.3
			s-0.4-0.4-0.4-0.8c0-0.2,0.1-0.4,0.2-0.6c0.1-0.1,0.3-0.3,0.5-0.3c0.2-0.1,0.5-0.1,0.7-0.2c0.1,0,0.3,0,0.4-0.1
			c0.2,0,0.3,0,0.5-0.1c0.2,0,0.3-0.1,0.5-0.1c0.1,0,0.2-0.1,0.3-0.1V71z"/>
		<path d="M77.6,66.6c-0.4-0.2-0.8-0.3-1.3-0.3c-0.5,0-1,0.1-1.3,0.3c-0.3,0.2-0.6,0.5-0.8,0.9h-0.1v-1.2h-1.3v7.1h1.4v-4.2
			c0-0.4,0.1-0.7,0.2-1s0.3-0.5,0.6-0.6c0.2-0.1,0.5-0.2,0.9-0.2c0.5,0,0.8,0.1,1.1,0.4c0.3,0.3,0.4,0.7,0.4,1.2v4.3h1.4V69
			c0-0.6-0.1-1.1-0.3-1.5C78.2,67.1,77.9,66.8,77.6,66.6z"/>
		<path d="M85.4,67.6h-0.1c-0.1-0.1-0.2-0.3-0.4-0.5c-0.2-0.2-0.4-0.4-0.6-0.5c-0.3-0.1-0.6-0.2-1.1-0.2c-0.6,0-1.1,0.1-1.5,0.4
			c-0.4,0.3-0.8,0.7-1.1,1.2c-0.3,0.5-0.4,1.2-0.4,1.9c0,0.8,0.1,1.4,0.4,1.9c0.3,0.5,0.6,0.9,1.1,1.2s1,0.4,1.5,0.4
			c0.4,0,0.8-0.1,1.1-0.2c0.3-0.1,0.5-0.3,0.6-0.5s0.3-0.4,0.4-0.5h0.1v1.4c0,0.6-0.2,1-0.5,1.2c-0.3,0.3-0.8,0.4-1.3,0.4
			c-0.4,0-0.7-0.1-0.9-0.2c-0.2-0.1-0.4-0.2-0.6-0.4c-0.1-0.2-0.3-0.3-0.3-0.4l-1.2,0.5c0.1,0.3,0.3,0.6,0.6,0.8
			c0.3,0.2,0.6,0.4,1,0.6c0.4,0.1,0.9,0.2,1.5,0.2c0.6,0,1.1-0.1,1.6-0.3c0.5-0.2,0.9-0.5,1.1-0.9c0.3-0.4,0.4-0.9,0.4-1.5v-7.2
			h-1.4V67.6z M85.2,71.2c-0.1,0.3-0.4,0.6-0.6,0.8c-0.3,0.2-0.6,0.3-1,0.3c-0.4,0-0.8-0.1-1-0.3c-0.3-0.2-0.5-0.5-0.6-0.8
			c-0.1-0.4-0.2-0.8-0.2-1.2c0-0.5,0.1-0.9,0.2-1.2c0.1-0.4,0.3-0.7,0.6-0.9c0.3-0.2,0.6-0.3,1-0.3c0.4,0,0.7,0.1,1,0.3
			s0.5,0.5,0.6,0.9c0.1,0.4,0.2,0.8,0.2,1.3C85.4,70.4,85.3,70.8,85.2,71.2z"/>
		<path d="M94.7,69.9c0-0.6-0.1-1.2-0.3-1.6c-0.2-0.5-0.4-0.8-0.7-1.1c-0.3-0.3-0.6-0.5-1-0.6s-0.8-0.2-1.2-0.2
			c-0.7,0-1.2,0.2-1.7,0.5c-0.5,0.3-0.9,0.7-1.1,1.3c-0.3,0.6-0.4,1.2-0.4,1.9c0,0.7,0.1,1.4,0.4,1.9c0.3,0.5,0.7,1,1.2,1.3
			c0.5,0.3,1.1,0.5,1.8,0.5c0.5,0,1-0.1,1.4-0.2c0.4-0.2,0.7-0.4,1-0.7c0.3-0.3,0.5-0.6,0.6-1l-1.3-0.2c-0.1,0.2-0.2,0.4-0.4,0.6
			c-0.2,0.2-0.3,0.3-0.6,0.3c-0.2,0.1-0.5,0.1-0.7,0.1c-0.4,0-0.8-0.1-1.1-0.3c-0.3-0.2-0.5-0.4-0.7-0.8c-0.2-0.3-0.2-0.7-0.2-1.1h5
			V69.9z M89.7,69.4c0-0.3,0.1-0.6,0.2-0.9c0.2-0.3,0.4-0.5,0.7-0.7c0.3-0.2,0.6-0.3,1-0.3c0.4,0,0.7,0.1,0.9,0.2s0.5,0.4,0.6,0.7
			c0.1,0.3,0.2,0.6,0.2,1H89.7z"/>
	</g>
	<g>
		<path d="M23.3,171.2c-0.3,0.1-0.7,0.2-1.1,0.2c-0.4,0-0.7-0.1-1-0.2c-0.3-0.1-0.6-0.3-0.8-0.5c-0.2-0.2-0.3-0.5-0.3-0.9h-1.4
			c0,0.6,0.2,1.1,0.5,1.5c0.3,0.4,0.7,0.7,1.2,1s1.1,0.3,1.8,0.3c0.7,0,1.4-0.1,1.9-0.4c0.5-0.2,0.9-0.6,1.2-1s0.4-0.9,0.4-1.4
			c0-0.4-0.1-0.8-0.3-1.1c-0.2-0.3-0.4-0.6-0.7-0.8c-0.3-0.2-0.6-0.4-0.9-0.5c-0.3-0.1-0.6-0.2-0.9-0.3l-0.9-0.2
			c-0.2,0-0.4-0.1-0.6-0.2c-0.2-0.1-0.4-0.2-0.6-0.3c-0.2-0.1-0.3-0.2-0.4-0.4c-0.1-0.2-0.2-0.4-0.2-0.6c0-0.3,0.1-0.5,0.2-0.7
			c0.2-0.2,0.4-0.4,0.7-0.5s0.6-0.2,1-0.2c0.5,0,1,0.1,1.3,0.4s0.6,0.6,0.6,1h1.4c0-0.5-0.2-1-0.4-1.4c-0.3-0.4-0.7-0.7-1.2-0.9
			s-1.1-0.3-1.7-0.3c-0.6,0-1.2,0.1-1.7,0.3c-0.5,0.2-0.9,0.5-1.2,0.9s-0.4,0.9-0.4,1.4c0,0.7,0.2,1.2,0.7,1.6
			c0.4,0.4,1,0.7,1.8,0.9l1.1,0.3c0.3,0.1,0.6,0.2,0.9,0.3c0.3,0.1,0.5,0.3,0.6,0.4c0.2,0.2,0.2,0.4,0.2,0.7c0,0.3-0.1,0.6-0.3,0.8
			C23.9,170.9,23.7,171.1,23.3,171.2z"/>
		<path d="M28.6,172.2c0.5,0.3,1.1,0.5,1.8,0.5c0.6,0,1-0.1,1.5-0.3c0.4-0.2,0.8-0.5,1-0.8c0.2-0.4,0.4-0.8,0.4-1.2h-1.3
			c-0.1,0.3-0.2,0.5-0.3,0.7c-0.1,0.2-0.3,0.3-0.5,0.4c-0.2,0.1-0.5,0.1-0.7,0.1c-0.4,0-0.7-0.1-1-0.3c-0.3-0.2-0.5-0.5-0.7-0.9
			c-0.2-0.4-0.2-0.8-0.2-1.3c0-0.5,0.1-0.9,0.2-1.3c0.2-0.4,0.4-0.7,0.7-0.9c0.3-0.2,0.6-0.3,1-0.3c0.4,0,0.8,0.1,1.1,0.4
			c0.3,0.2,0.4,0.5,0.5,0.9h1.3c0-0.5-0.2-0.9-0.5-1.3s-0.6-0.6-1-0.8c-0.4-0.2-0.9-0.3-1.4-0.3c-0.7,0-1.2,0.2-1.7,0.5
			c-0.5,0.3-0.9,0.7-1.1,1.3c-0.3,0.6-0.4,1.2-0.4,1.9c0,0.7,0.1,1.3,0.4,1.9C27.7,171.4,28.1,171.9,28.6,172.2z"/>
		<path d="M36.1,168.2c0-0.3,0.1-0.6,0.2-0.8c0.1-0.2,0.3-0.4,0.6-0.6c0.3-0.1,0.5-0.2,0.9-0.2c0.1,0,0.3,0,0.4,0s0.2,0,0.3,0.1
			v-1.3c-0.1,0-0.2,0-0.3,0c-0.1,0-0.2,0-0.3,0c-0.4,0-0.8,0.1-1.1,0.3c-0.3,0.2-0.6,0.5-0.7,0.9h-0.1v-1.1h-1.3v7.1h1.4V168.2z"/>
		<path d="M41,172.2c0.5,0.3,1.1,0.5,1.7,0.5c0.7,0,1.2-0.2,1.7-0.5s0.9-0.7,1.2-1.3s0.4-1.2,0.4-1.9c0-0.7-0.1-1.4-0.4-1.9
			s-0.7-1-1.2-1.3s-1.1-0.5-1.7-0.5c-0.7,0-1.2,0.2-1.7,0.5s-0.9,0.7-1.2,1.3s-0.4,1.2-0.4,1.9c0,0.7,0.1,1.4,0.4,1.9
			S40.5,171.9,41,172.2z M41,167.7c0.1-0.4,0.3-0.7,0.6-0.9c0.3-0.2,0.6-0.3,1.1-0.3c0.4,0,0.8,0.1,1.1,0.3c0.3,0.2,0.5,0.5,0.6,0.9
			c0.1,0.4,0.2,0.8,0.2,1.2c0,0.5-0.1,0.9-0.2,1.3c-0.1,0.4-0.3,0.7-0.6,0.9c-0.3,0.2-0.6,0.3-1.1,0.3c-0.4,0-0.8-0.1-1.1-0.3
			c-0.3-0.2-0.5-0.5-0.6-0.9c-0.1-0.4-0.2-0.8-0.2-1.3C40.8,168.5,40.9,168.1,41,167.7z"/>
		<rect x="47.6" y="163" width="1.4" height="9.5"/>
		<rect x="50.8" y="163" width="1.4" height="9.5"/>
		<path d="M61.2,172.4c0.3-0.1,0.5-0.3,0.6-0.5c0.2-0.2,0.3-0.4,0.4-0.5h0.1v1.1h1.3V163h-1.4v3.5h-0.1c-0.1-0.1-0.2-0.3-0.3-0.5
			c-0.1-0.2-0.4-0.4-0.6-0.5c-0.3-0.1-0.6-0.2-1.1-0.2c-0.6,0-1.1,0.1-1.5,0.4c-0.4,0.3-0.8,0.7-1.1,1.3c-0.3,0.5-0.4,1.2-0.4,2
			c0,0.8,0.1,1.4,0.4,2s0.6,1,1.1,1.3c0.4,0.3,1,0.4,1.5,0.4C60.6,172.6,60.9,172.6,61.2,172.4z M58.8,170.2
			c-0.1-0.4-0.2-0.8-0.2-1.3c0-0.5,0.1-0.9,0.2-1.3s0.3-0.7,0.6-0.9c0.3-0.2,0.6-0.3,1-0.3c0.4,0,0.7,0.1,1,0.3
			c0.3,0.2,0.5,0.5,0.6,0.9c0.1,0.4,0.2,0.8,0.2,1.3c0,0.5-0.1,0.9-0.2,1.3s-0.4,0.7-0.6,0.9c-0.3,0.2-0.6,0.3-1,0.3
			c-0.4,0-0.8-0.1-1-0.3C59.1,170.9,58.9,170.6,58.8,170.2z"/>
		<path d="M66.9,172.2c0.5,0.3,1.1,0.5,1.7,0.5c0.7,0,1.2-0.2,1.7-0.5s0.9-0.7,1.2-1.3s0.4-1.2,0.4-1.9c0-0.7-0.1-1.4-0.4-1.9
			s-0.7-1-1.2-1.3s-1.1-0.5-1.7-0.5c-0.7,0-1.2,0.2-1.7,0.5s-0.9,0.7-1.2,1.3s-0.4,1.2-0.4,1.9c0,0.7,0.1,1.4,0.4,1.9
			S66.4,171.9,66.9,172.2z M66.9,167.7c0.1-0.4,0.3-0.7,0.6-0.9c0.3-0.2,0.6-0.3,1.1-0.3c0.4,0,0.8,0.1,1.1,0.3
			c0.3,0.2,0.5,0.5,0.6,0.9c0.1,0.4,0.2,0.8,0.2,1.2c0,0.5-0.1,0.9-0.2,1.3c-0.1,0.4-0.3,0.7-0.6,0.9c-0.3,0.2-0.6,0.3-1.1,0.3
			c-0.4,0-0.8-0.1-1.1-0.3c-0.3-0.2-0.5-0.5-0.6-0.9c-0.1-0.4-0.2-0.8-0.2-1.3C66.7,168.5,66.8,168.1,66.9,167.7z"/>
		<polygon points="76.4,172.5 77.8,167.4 77.9,167.4 79.4,172.5 80.8,172.5 82.9,165.4 81.4,165.4 80.1,170.6 80,170.6 78.6,165.4 
			77.2,165.4 75.8,170.6 75.7,170.6 74.3,165.4 72.9,165.4 75,172.5 		"/>
		<path d="M85.6,168.3c0-0.4,0.1-0.7,0.2-1s0.3-0.5,0.6-0.6c0.2-0.1,0.5-0.2,0.9-0.2c0.5,0,0.8,0.1,1.1,0.4c0.3,0.3,0.4,0.7,0.4,1.2
			v4.3h1.4V168c0-0.6-0.1-1.1-0.3-1.5c-0.2-0.4-0.5-0.7-0.8-0.9c-0.4-0.2-0.8-0.3-1.3-0.3c-0.5,0-1,0.1-1.3,0.3
			c-0.3,0.2-0.6,0.5-0.8,0.9h-0.1v-1.2h-1.3v7.1h1.4V168.3z"/>
		<path d="M95.8,172.5h1.4v-6h1.5v-1.1h-1.5v-0.6c0-0.3,0.1-0.6,0.2-0.7c0.1-0.2,0.4-0.2,0.7-0.2c0.1,0,0.3,0,0.4,0
			c0.1,0,0.2,0,0.2,0.1l0.3-1.1c-0.1,0-0.2-0.1-0.4-0.1c-0.2,0-0.4-0.1-0.7-0.1c-0.4,0-0.7,0.1-1,0.2c-0.3,0.1-0.6,0.4-0.8,0.7
			s-0.3,0.7-0.3,1.1v0.8h-1.1v1.1h1.1V172.5z"/>
		<path d="M101.4,172.2c0.5,0.3,1.1,0.5,1.7,0.5c0.7,0,1.2-0.2,1.7-0.5s0.9-0.7,1.2-1.3s0.4-1.2,0.4-1.9c0-0.7-0.1-1.4-0.4-1.9
			s-0.7-1-1.2-1.3s-1.1-0.5-1.7-0.5c-0.7,0-1.2,0.2-1.7,0.5s-0.9,0.7-1.2,1.3s-0.4,1.2-0.4,1.9c0,0.7,0.1,1.4,0.4,1.9
			S100.9,171.9,101.4,172.2z M101.5,167.7c0.1-0.4,0.3-0.7,0.6-0.9c0.3-0.2,0.6-0.3,1.1-0.3c0.4,0,0.8,0.1,1.1,0.3
			c0.3,0.2,0.5,0.5,0.6,0.9c0.1,0.4,0.2,0.8,0.2,1.2c0,0.5-0.1,0.9-0.2,1.3c-0.1,0.4-0.3,0.7-0.6,0.9c-0.3,0.2-0.6,0.3-1.1,0.3
			c-0.4,0-0.8-0.1-1.1-0.3c-0.3-0.2-0.5-0.5-0.6-0.9c-0.1-0.4-0.2-0.8-0.2-1.3C101.3,168.5,101.3,168.1,101.5,167.7z"/>
		<path d="M109.4,168.2c0-0.3,0.1-0.6,0.2-0.8c0.1-0.2,0.3-0.4,0.6-0.6c0.3-0.1,0.5-0.2,0.9-0.2c0.1,0,0.3,0,0.4,0s0.2,0,0.3,0.1
			v-1.3c-0.1,0-0.2,0-0.3,0c-0.1,0-0.2,0-0.3,0c-0.4,0-0.8,0.1-1.1,0.3c-0.3,0.2-0.6,0.5-0.7,0.9h-0.1v-1.1H108v7.1h1.4V168.2z"/>
		<polygon points="48.9,185.6 48.8,185.6 44,178.6 42.6,178.6 42.6,188.1 44.1,188.1 44.1,181.2 44.2,181.2 49,188.1 50.3,188.1 
			50.3,178.6 48.9,178.6 		"/>
		<path d="M57.4,181.7c-0.3-0.3-0.6-0.5-1-0.6s-0.8-0.2-1.2-0.2c-0.7,0-1.2,0.2-1.7,0.5c-0.5,0.3-0.9,0.7-1.1,1.3
			c-0.3,0.6-0.4,1.2-0.4,1.9c0,0.7,0.1,1.4,0.4,1.9c0.3,0.5,0.7,1,1.2,1.3c0.5,0.3,1.1,0.5,1.8,0.5c0.5,0,1-0.1,1.4-0.2
			c0.4-0.2,0.7-0.4,1-0.7c0.3-0.3,0.5-0.6,0.6-1l-1.3-0.2c-0.1,0.2-0.2,0.4-0.4,0.6c-0.2,0.2-0.3,0.3-0.6,0.3
			c-0.2,0.1-0.5,0.1-0.7,0.1c-0.4,0-0.8-0.1-1.1-0.3c-0.3-0.2-0.5-0.4-0.7-0.8c-0.2-0.3-0.2-0.7-0.2-1.1h5v-0.5
			c0-0.6-0.1-1.2-0.3-1.6C57.9,182.4,57.7,182,57.4,181.7z M53.3,183.9c0-0.3,0.1-0.6,0.2-0.9c0.2-0.3,0.4-0.5,0.7-0.7
			c0.3-0.2,0.6-0.3,1-0.3c0.4,0,0.7,0.1,0.9,0.2s0.5,0.4,0.6,0.7c0.1,0.3,0.2,0.6,0.2,1H53.3z"/>
		<polygon points="69.3,181 67.9,181 66.5,186.2 66.4,186.2 65,181 63.6,181 62.2,186.2 62.1,186.2 60.8,181 59.3,181 61.4,188.1 
			62.8,188.1 64.3,183 64.4,183 65.8,188.1 67.2,188.1 		"/>
		<path d="M75.7,187.2c0.2-0.3,0.4-0.7,0.4-1.1c0-0.5-0.2-0.9-0.5-1.2c-0.3-0.3-0.8-0.5-1.5-0.7l-1.1-0.3c-0.4-0.1-0.7-0.2-0.8-0.4
			c-0.2-0.1-0.3-0.3-0.3-0.6c0-0.3,0.1-0.5,0.4-0.7c0.3-0.2,0.6-0.3,1-0.3c0.3,0,0.5,0,0.7,0.1s0.3,0.2,0.5,0.4
			c0.1,0.1,0.2,0.3,0.2,0.5l1.3-0.2c-0.1-0.6-0.4-1-0.9-1.3c-0.4-0.3-1-0.5-1.8-0.5c-0.5,0-1,0.1-1.4,0.3c-0.4,0.2-0.7,0.4-1,0.7
			s-0.4,0.7-0.4,1.1c0,0.5,0.2,0.9,0.5,1.3c0.3,0.3,0.8,0.6,1.5,0.7l1.2,0.3c0.3,0.1,0.6,0.2,0.8,0.3s0.2,0.3,0.2,0.6
			c0,0.3-0.1,0.5-0.4,0.7c-0.3,0.2-0.6,0.3-1.1,0.3c-0.4,0-0.8-0.1-1-0.3c-0.3-0.2-0.4-0.4-0.5-0.8l-1.3,0.2
			c0.1,0.6,0.4,1.1,0.9,1.5c0.5,0.3,1.1,0.5,1.9,0.5c0.6,0,1.1-0.1,1.5-0.3C75.1,187.8,75.4,187.5,75.7,187.2z"/>
		<path d="M83.8,188.2c0.4,0,0.9-0.1,1.3-0.2c0.4-0.1,0.8-0.4,1.1-0.7l0.6,0.8h1.6l-1.4-1.6c0,0,0.1-0.1,0.1-0.1
			c0.2-0.3,0.4-0.6,0.5-1c0.1-0.4,0.2-0.9,0.2-1.5h-1.2c0,0.5-0.1,0.9-0.2,1.3c0,0.1-0.1,0.2-0.2,0.3l-1.9-2.3l0.6-0.5
			c0.4-0.3,0.7-0.6,0.9-0.9c0.2-0.3,0.3-0.7,0.3-1.2c0-0.4-0.1-0.7-0.3-1c-0.2-0.3-0.5-0.6-0.8-0.8c-0.3-0.2-0.8-0.3-1.3-0.3
			c-0.5,0-0.9,0.1-1.3,0.3c-0.4,0.2-0.6,0.5-0.8,0.8c-0.2,0.3-0.3,0.7-0.3,1.2c0,0.4,0.1,0.7,0.2,1.1c0.2,0.3,0.4,0.7,0.6,1
			c0.1,0.1,0.1,0.1,0.2,0.2c-0.3,0.2-0.6,0.5-0.9,0.7c-0.3,0.3-0.5,0.5-0.7,0.8c-0.2,0.3-0.2,0.6-0.2,1c0,0.5,0.1,1,0.4,1.4
			c0.2,0.4,0.6,0.7,1.1,0.9S83.1,188.2,83.8,188.2z M82.9,180.3c0.1-0.2,0.2-0.3,0.4-0.4c0.2-0.1,0.4-0.2,0.6-0.2
			c0.3,0,0.6,0.1,0.8,0.3s0.3,0.4,0.3,0.6c0,0.3-0.1,0.5-0.2,0.7c-0.1,0.2-0.3,0.4-0.6,0.5l-0.6,0.4c0-0.1-0.1-0.1-0.1-0.2
			c-0.2-0.2-0.3-0.5-0.5-0.7c-0.1-0.2-0.2-0.4-0.2-0.7C82.8,180.6,82.8,180.4,82.9,180.3z M82.3,184.9c0.1-0.3,0.4-0.5,0.8-0.8
			l0.2-0.2l2.1,2.5c-0.2,0.2-0.4,0.3-0.6,0.4c-0.3,0.2-0.7,0.2-1,0.2c-0.3,0-0.6-0.1-0.9-0.2c-0.3-0.1-0.5-0.3-0.6-0.6
			s-0.2-0.5-0.2-0.8C82.1,185.4,82.1,185.2,82.3,184.9z"/>
		<path d="M21.5,194.2l-3.4,9.5h1.5l0.9-2.5h3.7l0.9,2.5h1.5l-3.4-9.5H21.5z M20.8,200l1.4-4h0.1l1.4,4H20.8z"/>
		<path d="M32.5,196.8c-0.4-0.2-0.8-0.3-1.3-0.3c-0.5,0-1,0.1-1.3,0.3c-0.3,0.2-0.6,0.5-0.8,0.9h-0.1v-1.2h-1.3v7.1h1.4v-4.2
			c0-0.4,0.1-0.7,0.2-1s0.3-0.5,0.6-0.6c0.2-0.1,0.5-0.2,0.9-0.2c0.5,0,0.8,0.1,1.1,0.4c0.3,0.3,0.4,0.7,0.4,1.2v4.3h1.4v-4.5
			c0-0.6-0.1-1.1-0.3-1.5C33.2,197.3,32.9,197,32.5,196.8z"/>
		<path d="M40.3,196.8c-0.4-0.2-0.8-0.3-1.3-0.3c-0.5,0-1,0.1-1.3,0.3c-0.3,0.2-0.6,0.5-0.8,0.9h-0.1v-1.2h-1.3v7.1h1.4v-4.2
			c0-0.4,0.1-0.7,0.2-1s0.3-0.5,0.6-0.6c0.2-0.1,0.5-0.2,0.9-0.2c0.5,0,0.8,0.1,1.1,0.4c0.3,0.3,0.4,0.7,0.4,1.2v4.3h1.4v-4.5
			c0-0.6-0.1-1.1-0.3-1.5C40.9,197.3,40.7,197,40.3,196.8z"/>
		<path d="M48,197c-0.5-0.3-1.1-0.5-1.7-0.5c-0.7,0-1.2,0.2-1.7,0.5s-0.9,0.7-1.2,1.3s-0.4,1.2-0.4,1.9c0,0.7,0.1,1.4,0.4,1.9
			s0.7,1,1.2,1.3s1.1,0.5,1.7,0.5c0.7,0,1.2-0.2,1.7-0.5s0.9-0.7,1.2-1.3s0.4-1.2,0.4-1.9c0-0.7-0.1-1.4-0.4-1.9S48.5,197.3,48,197z
			 M48,201.4c-0.1,0.4-0.3,0.7-0.6,0.9c-0.3,0.2-0.6,0.3-1.1,0.3c-0.4,0-0.8-0.1-1.1-0.3c-0.3-0.2-0.5-0.5-0.6-0.9
			c-0.1-0.4-0.2-0.8-0.2-1.3c0-0.5,0.1-0.9,0.2-1.2c0.1-0.4,0.3-0.7,0.6-0.9c0.3-0.2,0.6-0.3,1.1-0.3c0.4,0,0.8,0.1,1.1,0.3
			c0.3,0.2,0.5,0.5,0.6,0.9c0.1,0.4,0.2,0.8,0.2,1.2C48.2,200.6,48.1,201,48,201.4z"/>
		<path d="M55.6,200.8c0,0.4-0.1,0.7-0.3,1c-0.2,0.3-0.4,0.5-0.6,0.6c-0.3,0.1-0.5,0.2-0.8,0.2c-0.4,0-0.8-0.1-1-0.4
			c-0.3-0.3-0.4-0.7-0.4-1.2v-4.3h-1.4v4.5c0,0.6,0.1,1.1,0.3,1.5c0.2,0.4,0.5,0.7,0.8,0.9s0.8,0.3,1.2,0.3c0.5,0,1-0.1,1.3-0.4
			c0.4-0.3,0.6-0.6,0.8-0.9h0.1v1.2H57v-7.1h-1.4V200.8z"/>
		<path d="M63.6,196.8c-0.4-0.2-0.8-0.3-1.3-0.3c-0.5,0-1,0.1-1.3,0.3c-0.3,0.2-0.6,0.5-0.8,0.9h-0.1v-1.2h-1.3v7.1h1.4v-4.2
			c0-0.4,0.1-0.7,0.2-1s0.3-0.5,0.6-0.6c0.2-0.1,0.5-0.2,0.9-0.2c0.5,0,0.8,0.1,1.1,0.4c0.3,0.3,0.4,0.7,0.4,1.2v4.3h1.4v-4.5
			c0-0.6-0.1-1.1-0.3-1.5C64.3,197.3,64,197,63.6,196.8z"/>
		<path d="M68.6,198c0.3-0.2,0.6-0.3,1-0.3c0.4,0,0.8,0.1,1.1,0.4c0.3,0.2,0.4,0.5,0.5,0.9h1.3c0-0.5-0.2-0.9-0.5-1.3
			s-0.6-0.6-1-0.8c-0.4-0.2-0.9-0.3-1.4-0.3c-0.7,0-1.2,0.2-1.7,0.5c-0.5,0.3-0.9,0.7-1.1,1.3c-0.3,0.6-0.4,1.2-0.4,1.9
			c0,0.7,0.1,1.3,0.4,1.9c0.3,0.6,0.6,1,1.1,1.3c0.5,0.3,1.1,0.5,1.8,0.5c0.6,0,1-0.1,1.5-0.3c0.4-0.2,0.8-0.5,1-0.8
			c0.2-0.4,0.4-0.8,0.4-1.2h-1.3c-0.1,0.3-0.2,0.5-0.3,0.7c-0.1,0.2-0.3,0.3-0.5,0.4c-0.2,0.1-0.5,0.1-0.7,0.1c-0.4,0-0.7-0.1-1-0.3
			c-0.3-0.2-0.5-0.5-0.7-0.9c-0.2-0.4-0.2-0.8-0.2-1.3c0-0.5,0.1-0.9,0.2-1.3C68.1,198.5,68.3,198.2,68.6,198z"/>
		<path d="M79.1,197.3c-0.3-0.3-0.6-0.5-1-0.6s-0.8-0.2-1.2-0.2c-0.7,0-1.2,0.2-1.7,0.5c-0.5,0.3-0.9,0.7-1.1,1.3
			c-0.3,0.6-0.4,1.2-0.4,1.9c0,0.7,0.1,1.4,0.4,1.9c0.3,0.5,0.7,1,1.2,1.3c0.5,0.3,1.1,0.5,1.8,0.5c0.5,0,1-0.1,1.4-0.2
			c0.4-0.2,0.7-0.4,1-0.7c0.3-0.3,0.5-0.6,0.6-1l-1.3-0.2c-0.1,0.2-0.2,0.4-0.4,0.6c-0.2,0.2-0.3,0.3-0.6,0.3
			c-0.2,0.1-0.5,0.1-0.7,0.1c-0.4,0-0.8-0.1-1.1-0.3c-0.3-0.2-0.5-0.4-0.7-0.8c-0.2-0.3-0.2-0.7-0.2-1.1h5v-0.5
			c0-0.6-0.1-1.2-0.3-1.6C79.7,198,79.4,197.6,79.1,197.3z M75.1,199.5c0-0.3,0.1-0.6,0.2-0.9c0.2-0.3,0.4-0.5,0.7-0.7
			c0.3-0.2,0.6-0.3,1-0.3c0.4,0,0.7,0.1,0.9,0.2s0.5,0.4,0.6,0.7c0.1,0.3,0.2,0.6,0.2,1H75.1z"/>
		<path d="M89.1,196.5c-0.5,0-1,0.1-1.3,0.3c-0.4,0.2-0.6,0.5-0.8,0.9h-0.1c-0.2-0.4-0.4-0.7-0.7-0.9c-0.3-0.2-0.7-0.3-1.2-0.3
			c-0.5,0-0.9,0.1-1.2,0.3c-0.3,0.2-0.6,0.5-0.7,0.9h-0.1v-1.2h-1.3v7.1H83v-4.4c0-0.3,0.1-0.6,0.2-0.8c0.1-0.2,0.3-0.4,0.5-0.6
			c0.2-0.1,0.5-0.2,0.7-0.2c0.4,0,0.7,0.1,0.9,0.4c0.2,0.2,0.4,0.5,0.4,0.9v4.7h1.4v-4.5c0-0.4,0.1-0.8,0.4-1.1
			c0.2-0.3,0.6-0.4,1-0.4c0.4,0,0.7,0.1,0.9,0.3s0.4,0.6,0.4,1v4.6h1.4v-4.8c0-0.8-0.2-1.4-0.6-1.8
			C90.2,196.7,89.7,196.5,89.1,196.5z"/>
		<path d="M98.2,197.3c-0.3-0.3-0.6-0.5-1-0.6s-0.8-0.2-1.2-0.2c-0.7,0-1.2,0.2-1.7,0.5c-0.5,0.3-0.9,0.7-1.1,1.3
			c-0.3,0.6-0.4,1.2-0.4,1.9c0,0.7,0.1,1.4,0.4,1.9c0.3,0.5,0.7,1,1.2,1.3c0.5,0.3,1.1,0.5,1.8,0.5c0.5,0,1-0.1,1.4-0.2
			c0.4-0.2,0.7-0.4,1-0.7c0.3-0.3,0.5-0.6,0.6-1l-1.3-0.2c-0.1,0.2-0.2,0.4-0.4,0.6c-0.2,0.2-0.3,0.3-0.6,0.3
			c-0.2,0.1-0.5,0.1-0.7,0.1c-0.4,0-0.8-0.1-1.1-0.3c-0.3-0.2-0.5-0.4-0.7-0.8c-0.2-0.3-0.2-0.7-0.2-1.1h5v-0.5
			c0-0.6-0.1-1.2-0.3-1.6C98.8,198,98.5,197.6,98.2,197.3z M94.2,199.5c0-0.3,0.1-0.6,0.2-0.9c0.2-0.3,0.4-0.5,0.7-0.7
			c0.3-0.2,0.6-0.3,1-0.3c0.4,0,0.7,0.1,0.9,0.2s0.5,0.4,0.6,0.7c0.1,0.3,0.2,0.6,0.2,1H94.2z"/>
		<path d="M105.5,196.8c-0.4-0.2-0.8-0.3-1.3-0.3c-0.5,0-1,0.1-1.3,0.3c-0.3,0.2-0.6,0.5-0.8,0.9h-0.1v-1.2h-1.3v7.1h1.4v-4.2
			c0-0.4,0.1-0.7,0.2-1s0.3-0.5,0.6-0.6c0.2-0.1,0.5-0.2,0.9-0.2c0.5,0,0.8,0.1,1.1,0.4c0.3,0.3,0.4,0.7,0.4,1.2v4.3h1.4v-4.5
			c0-0.6-0.1-1.1-0.3-1.5C106.2,197.3,105.9,197,105.5,196.8z"/>
		<path d="M111.7,202.5c0,0-0.1,0-0.2,0c-0.1,0-0.2,0-0.3,0c-0.2,0-0.3,0-0.4-0.1c-0.1,0-0.2-0.1-0.3-0.3s-0.1-0.3-0.1-0.6v-3.9h1.5
			v-1.1h-1.5v-1.7H109v1.7h-1v1.1h1v4.2c0,0.4,0.1,0.8,0.3,1.1s0.4,0.5,0.8,0.6s0.7,0.2,1,0.2c0.2,0,0.4,0,0.6-0.1
			c0.1,0,0.3-0.1,0.3-0.1L111.7,202.5z"/>
	</g>
</g>
</svg>
