<?xml version="1.0" encoding="utf-8"?>
<!-- Generator: Adobe Illustrator 26.0.1, SVG Export Plug-In . SVG Version: 6.00 Build 0)  -->
<svg version="1.1" id="Layer_1" xmlns="http://www.w3.org/2000/svg" xmlns:xlink="http://www.w3.org/1999/xlink" x="0px" y="0px"
	 viewBox="0 0 133 341.9" style="enable-background:new 0 0 133 341.9;" xml:space="preserve">
<style type="text/css">
	.st0{fill:#EC7E30;}
	.st1{opacity:0.9;fill:#FFFFFF;enable-background:new    ;}
	.st2{fill:none;stroke:#EC7E30;stroke-miterlimit:10;}
	.st3{fill:#A5A4A4;}
	.st4{fill:#FDC015;}
	.st5{fill:#4A72B8;}
	.st6{fill:#038643;}
</style>
<g>
	<polygon class="st0" points="119.3,34.7 119.3,34.7 89.7,63.1 0,63.1 29.6,34.7 29.6,34.7 0,6.4 89.7,6.4 	"/>
	<g>
		<path class="st1" d="M129.6,67.8H49.5c-1.6,0-2.9-1.3-2.9-2.9V32.3c0-1.6,1.3-2.9,2.9-2.9h80.1c1.6,0,2.9,1.3,2.9,2.9v32.6
			C132.5,66.5,131.2,67.8,129.6,67.8z"/>
		<path class="st2" d="M129.6,67.8H49.5c-1.6,0-2.9-1.3-2.9-2.9V32.3c0-1.6,1.3-2.9,2.9-2.9h80.1c1.6,0,2.9,1.3,2.9,2.9v32.6
			C132.5,66.5,131.2,67.8,129.6,67.8z"/>
	</g>
	<polygon class="st3" points="119.3,123.8 119.3,123.8 89.7,152.1 0,152.1 29.6,123.8 29.6,123.8 0,95.4 89.7,95.4 	"/>
	<g>
		<path class="st1" d="M129.6,156.9H49.5c-1.6,0-2.9-1.3-2.9-2.9v-32.6c0-1.6,1.3-2.9,2.9-2.9h80.1c1.6,0,2.9,1.3,2.9,2.9V154
			C132.5,155.6,131.2,156.9,129.6,156.9z"/>
		<path class="st2" d="M129.6,156.9H49.5c-1.6,0-2.9-1.3-2.9-2.9v-32.6c0-1.6,1.3-2.9,2.9-2.9h80.1c1.6,0,2.9,1.3,2.9,2.9V154
			C132.5,155.6,131.2,156.9,129.6,156.9z"/>
	</g>
	<polygon class="st4" points="119.3,212.8 119.3,212.8 89.7,241.2 0,241.2 29.6,212.8 29.6,212.8 0,184.5 89.7,184.5 	"/>
	<g>
		<path class="st1" d="M129.6,245.9H49.5c-1.6,0-2.9-1.3-2.9-2.9v-32.6c0-1.6,1.3-2.9,2.9-2.9h80.1c1.6,0,2.9,1.3,2.9,2.9V243
			C132.5,244.6,131.2,245.9,129.6,245.9z"/>
		<path class="st2" d="M129.6,245.9H49.5c-1.6,0-2.9-1.3-2.9-2.9v-32.6c0-1.6,1.3-2.9,2.9-2.9h80.1c1.6,0,2.9,1.3,2.9,2.9V243
			C132.5,244.6,131.2,245.9,129.6,245.9z"/>
	</g>
	<polygon class="st5" points="119.3,301.9 119.3,301.9 89.7,330.2 0,330.2 29.6,301.9 29.6,301.9 0,273.5 89.7,273.5 	"/>
	<g>
		<path class="st1" d="M129.6,335H49.5c-1.6,0-2.9-1.3-2.9-2.9v-32.6c0-1.6,1.3-2.9,2.9-2.9h80.1c1.6,0,2.9,1.3,2.9,2.9v32.6
			C132.5,333.7,131.2,335,129.6,335z"/>
		<path class="st2" d="M129.6,335H49.5c-1.6,0-2.9-1.3-2.9-2.9v-32.6c0-1.6,1.3-2.9,2.9-2.9h80.1c1.6,0,2.9,1.3,2.9,2.9v32.6
			C132.5,333.7,131.2,335,129.6,335z"/>
	</g>
	<g>
		<path d="M69.9,41.1h-0.8c0-0.2-0.1-0.4-0.2-0.6c-0.1-0.2-0.3-0.3-0.4-0.4s-0.3-0.2-0.5-0.3c-0.2-0.1-0.4-0.1-0.6-0.1
			c-0.4,0-0.8,0.1-1.1,0.3c-0.3,0.2-0.6,0.5-0.8,0.9c-0.2,0.4-0.3,0.9-0.3,1.4c0,0.6,0.1,1,0.3,1.4c0.2,0.4,0.4,0.7,0.8,0.9
			c0.3,0.2,0.7,0.3,1.1,0.3c0.2,0,0.4,0,0.6-0.1c0.2-0.1,0.4-0.1,0.5-0.3s0.3-0.3,0.4-0.4c0.1-0.2,0.2-0.4,0.2-0.6h0.8
			c-0.1,0.3-0.2,0.6-0.3,0.9c-0.2,0.3-0.4,0.5-0.6,0.7s-0.5,0.3-0.8,0.4c-0.3,0.1-0.6,0.1-0.9,0.1c-0.6,0-1.1-0.1-1.5-0.4
			c-0.4-0.3-0.8-0.7-1-1.2c-0.2-0.5-0.4-1.1-0.4-1.8c0-0.7,0.1-1.3,0.4-1.8c0.2-0.5,0.6-0.9,1-1.2c0.4-0.3,0.9-0.4,1.5-0.4
			c0.3,0,0.6,0,0.9,0.1c0.3,0.1,0.6,0.2,0.8,0.4s0.4,0.4,0.6,0.7C69.8,40.5,69.9,40.8,69.9,41.1z"/>
		<path d="M71.9,39.1v6.5h-0.8v-6.5H71.9z"/>
		<path d="M73.6,39.9c-0.1,0-0.3-0.1-0.4-0.2s-0.2-0.2-0.2-0.4s0.1-0.3,0.2-0.4s0.2-0.2,0.4-0.2s0.3,0.1,0.4,0.2s0.2,0.2,0.2,0.4
			s-0.1,0.3-0.2,0.4S73.8,39.9,73.6,39.9z M73.2,45.6v-4.9H74v4.9H73.2z"/>
		<path d="M77.4,45.7c-0.5,0-0.9-0.1-1.2-0.3c-0.3-0.2-0.6-0.5-0.8-0.9c-0.2-0.4-0.3-0.8-0.3-1.3c0-0.5,0.1-0.9,0.3-1.3
			c0.2-0.4,0.4-0.7,0.8-0.9c0.3-0.2,0.7-0.3,1.2-0.3c0.3,0,0.7,0.1,0.9,0.2s0.5,0.3,0.7,0.5c0.2,0.2,0.3,0.5,0.3,0.8h-0.8
			c-0.1-0.2-0.2-0.4-0.4-0.6c-0.2-0.2-0.5-0.3-0.8-0.3c-0.3,0-0.6,0.1-0.8,0.2c-0.2,0.2-0.4,0.4-0.5,0.6c-0.1,0.3-0.2,0.6-0.2,1
			c0,0.4,0.1,0.7,0.2,1c0.1,0.3,0.3,0.5,0.5,0.7c0.2,0.2,0.5,0.2,0.8,0.2c0.2,0,0.4,0,0.5-0.1c0.2-0.1,0.3-0.2,0.4-0.3
			c0.1-0.1,0.2-0.3,0.2-0.5h0.8c0,0.3-0.1,0.6-0.3,0.8c-0.2,0.2-0.4,0.4-0.7,0.5S77.7,45.7,77.4,45.7z"/>
		<path d="M80.4,45.6v-6.5h0.8v6.5H80.4z M81.1,43.9l0-0.9h0.2l2.1-2.2h0.9L82,43.1H82L81.1,43.9z M83.5,45.6l-1.9-2.4l0.5-0.5
			l2.3,3H83.5z"/>
		<path d="M89.8,45.7c-0.4,0-0.8-0.1-1.2-0.3s-0.6-0.5-0.8-0.9c-0.2-0.4-0.3-0.8-0.3-1.3c0-0.5,0.1-1,0.3-1.3s0.4-0.7,0.8-0.9
			s0.7-0.3,1.2-0.3c0.4,0,0.8,0.1,1.2,0.3s0.6,0.5,0.8,0.9s0.3,0.8,0.3,1.3c0,0.5-0.1,1-0.3,1.3c-0.2,0.4-0.4,0.7-0.8,0.9
			S90.3,45.7,89.8,45.7z M89.8,45.1c0.3,0,0.6-0.1,0.8-0.3c0.2-0.2,0.4-0.4,0.5-0.7c0.1-0.3,0.2-0.6,0.2-0.9c0-0.3-0.1-0.6-0.2-0.9
			c-0.1-0.3-0.3-0.5-0.5-0.7c-0.2-0.2-0.5-0.3-0.8-0.3c-0.3,0-0.6,0.1-0.8,0.3c-0.2,0.2-0.4,0.4-0.5,0.7s-0.2,0.6-0.2,0.9
			c0,0.3,0.1,0.6,0.2,0.9s0.3,0.5,0.5,0.7C89.2,45,89.5,45.1,89.8,45.1z"/>
		<path d="M93.9,42.7v3h-0.8v-4.9h0.7v0.8H94c0.1-0.2,0.3-0.5,0.5-0.6c0.2-0.2,0.5-0.2,0.9-0.2c0.3,0,0.6,0.1,0.9,0.2
			c0.2,0.1,0.4,0.3,0.6,0.6c0.1,0.3,0.2,0.6,0.2,1v3.1h-0.8v-3.1c0-0.4-0.1-0.7-0.3-0.9s-0.5-0.3-0.8-0.3c-0.2,0-0.5,0.1-0.6,0.2
			c-0.2,0.1-0.3,0.3-0.4,0.5C94,42.2,93.9,42.4,93.9,42.7z"/>
		<path d="M101.9,39.1v6.5h-0.8v-6.5H101.9z"/>
		<path d="M103.5,45.6v-6.5h2.2c0.5,0,0.9,0.1,1.3,0.3c0.3,0.2,0.6,0.4,0.7,0.7c0.2,0.3,0.2,0.7,0.2,1c0,0.4-0.1,0.7-0.2,1.1
			c-0.2,0.3-0.4,0.6-0.7,0.8c-0.3,0.2-0.7,0.3-1.3,0.3h-1.6v-0.7h1.6c0.4,0,0.6-0.1,0.8-0.2c0.2-0.1,0.4-0.3,0.5-0.5
			c0.1-0.2,0.1-0.4,0.1-0.7c0-0.3,0-0.5-0.1-0.7c-0.1-0.2-0.3-0.4-0.5-0.5c-0.2-0.1-0.5-0.2-0.9-0.2h-1.4v5.8H103.5z"/>
		<path d="M114.7,42.4c0,0.7-0.1,1.3-0.4,1.8s-0.6,0.9-1,1.2c-0.4,0.3-0.9,0.4-1.5,0.4c-0.6,0-1.1-0.1-1.5-0.4
			c-0.4-0.3-0.8-0.7-1-1.2c-0.2-0.5-0.4-1.1-0.4-1.8c0-0.7,0.1-1.3,0.4-1.8c0.2-0.5,0.6-0.9,1-1.2c0.4-0.3,0.9-0.4,1.5-0.4
			c0.6,0,1.1,0.1,1.5,0.4c0.4,0.3,0.8,0.7,1,1.2S114.7,41.7,114.7,42.4z M113.9,42.4c0-0.6-0.1-1-0.3-1.4c-0.2-0.4-0.4-0.7-0.8-0.9
			c-0.3-0.2-0.7-0.3-1.1-0.3c-0.4,0-0.8,0.1-1.1,0.3c-0.3,0.2-0.6,0.5-0.8,0.9c-0.2,0.4-0.3,0.9-0.3,1.4c0,0.6,0.1,1,0.3,1.4
			c0.2,0.4,0.4,0.7,0.8,0.9c0.3,0.2,0.7,0.3,1.1,0.3c0.4,0,0.8-0.1,1.1-0.3c0.3-0.2,0.6-0.5,0.8-0.9
			C113.8,43.4,113.9,42.9,113.9,42.4z"/>
		<path class="st6" d="M66.6,56.4h-1l2.4-6.5H69l2.4,6.5h-1l-1.9-5.4h-0.1L66.6,56.4z M66.7,53.9h3.4v0.8h-3.4V53.9z"/>
		<path class="st6" d="M72.2,58.3v-6.8h0.9v0.8h0.1c0.1-0.1,0.1-0.2,0.2-0.4c0.1-0.1,0.2-0.3,0.4-0.4c0.2-0.1,0.4-0.2,0.7-0.2
			c0.4,0,0.8,0.1,1.1,0.3c0.3,0.2,0.6,0.5,0.7,0.9c0.2,0.4,0.3,0.8,0.3,1.4c0,0.5-0.1,1-0.3,1.4c-0.2,0.4-0.4,0.7-0.7,0.9
			c-0.3,0.2-0.7,0.3-1.1,0.3c-0.3,0-0.5,0-0.7-0.1s-0.3-0.2-0.4-0.4c-0.1-0.1-0.2-0.3-0.2-0.4h-0.1v2.6H72.2z M73.2,54
			c0,0.3,0.1,0.6,0.2,0.9s0.2,0.5,0.4,0.6c0.2,0.1,0.4,0.2,0.7,0.2c0.3,0,0.5-0.1,0.7-0.2c0.2-0.2,0.3-0.4,0.4-0.6s0.1-0.6,0.1-0.9
			c0-0.3,0-0.6-0.1-0.9c-0.1-0.3-0.2-0.5-0.4-0.6s-0.4-0.2-0.7-0.2c-0.3,0-0.5,0.1-0.7,0.2c-0.2,0.1-0.3,0.3-0.4,0.6
			C73.2,53.4,73.2,53.7,73.2,54z"/>
		<path class="st6" d="M77.8,58.3v-6.8h0.9v0.8h0.1c0.1-0.1,0.1-0.2,0.2-0.4c0.1-0.1,0.2-0.3,0.4-0.4c0.2-0.1,0.4-0.2,0.7-0.2
			c0.4,0,0.8,0.1,1.1,0.3c0.3,0.2,0.6,0.5,0.7,0.9c0.2,0.4,0.3,0.8,0.3,1.4c0,0.5-0.1,1-0.3,1.4c-0.2,0.4-0.4,0.7-0.7,0.9
			c-0.3,0.2-0.7,0.3-1.1,0.3c-0.3,0-0.5,0-0.7-0.1s-0.3-0.2-0.4-0.4c-0.1-0.1-0.2-0.3-0.2-0.4h-0.1v2.6H77.8z M78.7,54
			c0,0.3,0.1,0.6,0.2,0.9s0.2,0.5,0.4,0.6c0.2,0.1,0.4,0.2,0.7,0.2c0.3,0,0.5-0.1,0.7-0.2c0.2-0.2,0.3-0.4,0.4-0.6s0.1-0.6,0.1-0.9
			c0-0.3,0-0.6-0.1-0.9c-0.1-0.3-0.2-0.5-0.4-0.6s-0.4-0.2-0.7-0.2c-0.3,0-0.5,0.1-0.7,0.2c-0.2,0.1-0.3,0.3-0.4,0.6
			C78.8,53.4,78.7,53.7,78.7,54z"/>
		<path class="st6" d="M84.3,49.9v6.5h-1v-6.5H84.3z"/>
		<path class="st6" d="M86.1,50.8c-0.2,0-0.3-0.1-0.4-0.2s-0.2-0.2-0.2-0.4c0-0.2,0.1-0.3,0.2-0.4s0.3-0.2,0.4-0.2s0.3,0.1,0.4,0.2
			s0.2,0.2,0.2,0.4c0,0.2-0.1,0.3-0.2,0.4S86.2,50.8,86.1,50.8z M85.6,56.4v-4.9h1v4.9H85.6z"/>
		<path class="st6" d="M89.9,56.5c-0.5,0-0.9-0.1-1.2-0.3c-0.3-0.2-0.6-0.5-0.8-0.9c-0.2-0.4-0.3-0.8-0.3-1.3c0-0.5,0.1-0.9,0.3-1.3
			c0.2-0.4,0.5-0.7,0.8-0.9c0.3-0.2,0.7-0.3,1.2-0.3c0.4,0,0.7,0.1,1,0.2c0.3,0.1,0.5,0.3,0.7,0.6s0.3,0.5,0.3,0.9H91
			c-0.1-0.2-0.2-0.4-0.4-0.6c-0.2-0.2-0.4-0.2-0.7-0.2c-0.3,0-0.5,0.1-0.7,0.2c-0.2,0.1-0.4,0.3-0.5,0.6s-0.2,0.6-0.2,0.9
			c0,0.4,0.1,0.7,0.2,0.9c0.1,0.3,0.3,0.5,0.5,0.6c0.2,0.1,0.4,0.2,0.7,0.2c0.2,0,0.3,0,0.5-0.1c0.1-0.1,0.3-0.2,0.4-0.3
			c0.1-0.1,0.2-0.3,0.2-0.5h0.9c0,0.3-0.1,0.6-0.3,0.9c-0.2,0.2-0.4,0.4-0.7,0.6C90.6,56.5,90.3,56.5,89.9,56.5z"/>
		<path class="st6" d="M94.4,56.6c-0.3,0-0.6-0.1-0.8-0.2c-0.3-0.1-0.4-0.3-0.6-0.5c-0.1-0.2-0.2-0.5-0.2-0.8c0-0.3,0.1-0.5,0.2-0.7
			c0.1-0.2,0.2-0.3,0.4-0.4s0.4-0.2,0.6-0.2s0.5-0.1,0.7-0.1c0.3,0,0.5-0.1,0.7-0.1c0.2,0,0.3-0.1,0.4-0.1c0.1-0.1,0.1-0.1,0.1-0.2
			v0c0-0.3-0.1-0.5-0.2-0.6c-0.2-0.2-0.4-0.2-0.7-0.2c-0.3,0-0.6,0.1-0.8,0.2c-0.2,0.1-0.3,0.3-0.4,0.5l-0.9-0.2
			c0.1-0.3,0.3-0.5,0.5-0.7c0.2-0.2,0.4-0.3,0.7-0.4c0.3-0.1,0.6-0.1,0.8-0.1c0.2,0,0.4,0,0.6,0.1c0.2,0,0.4,0.1,0.6,0.3
			s0.4,0.3,0.5,0.5c0.1,0.2,0.2,0.5,0.2,0.9v3.3h-0.9v-0.7h0c-0.1,0.1-0.2,0.2-0.3,0.4c-0.1,0.1-0.3,0.2-0.5,0.3
			C94.9,56.5,94.6,56.6,94.4,56.6z M94.6,55.8c0.3,0,0.5-0.1,0.7-0.2s0.3-0.2,0.4-0.4c0.1-0.2,0.1-0.4,0.1-0.5V54
			c0,0-0.1,0.1-0.2,0.1c-0.1,0-0.2,0.1-0.3,0.1c-0.1,0-0.2,0-0.4,0.1c-0.1,0-0.2,0-0.3,0c-0.2,0-0.4,0.1-0.5,0.1
			c-0.2,0.1-0.3,0.1-0.4,0.2c-0.1,0.1-0.1,0.2-0.1,0.4c0,0.2,0.1,0.4,0.3,0.5C94.1,55.7,94.3,55.8,94.6,55.8z"/>
		<path class="st6" d="M100.4,51.5v0.8h-2.7v-0.8H100.4z M98.4,50.4h1V55c0,0.2,0,0.3,0.1,0.4c0.1,0.1,0.1,0.2,0.2,0.2
			c0.1,0,0.2,0,0.3,0c0.1,0,0.1,0,0.2,0s0.1,0,0.1,0l0.2,0.8c-0.1,0-0.1,0-0.2,0.1c-0.1,0-0.2,0-0.4,0c-0.3,0-0.5,0-0.7-0.1
			c-0.2-0.1-0.4-0.2-0.5-0.4c-0.1-0.2-0.2-0.4-0.2-0.7V50.4z"/>
		<path class="st6" d="M101.9,50.8c-0.2,0-0.3-0.1-0.4-0.2s-0.2-0.2-0.2-0.4c0-0.2,0.1-0.3,0.2-0.4s0.3-0.2,0.4-0.2s0.3,0.1,0.4,0.2
			s0.2,0.2,0.2,0.4c0,0.2-0.1,0.3-0.2,0.4S102.1,50.8,101.9,50.8z M101.4,56.4v-4.9h1v4.9H101.4z"/>
		<path class="st6" d="M105.7,56.5c-0.5,0-0.9-0.1-1.2-0.3c-0.3-0.2-0.6-0.5-0.8-0.9s-0.3-0.8-0.3-1.3c0-0.5,0.1-1,0.3-1.3
			s0.5-0.7,0.8-0.9c0.3-0.2,0.7-0.3,1.2-0.3c0.5,0,0.9,0.1,1.2,0.3s0.6,0.5,0.8,0.9s0.3,0.8,0.3,1.3c0,0.5-0.1,1-0.3,1.3
			s-0.5,0.7-0.8,0.9S106.2,56.5,105.7,56.5z M105.7,55.7c0.3,0,0.5-0.1,0.7-0.2s0.3-0.4,0.4-0.6c0.1-0.3,0.1-0.6,0.1-0.9
			c0-0.3,0-0.6-0.1-0.9c-0.1-0.3-0.2-0.5-0.4-0.6c-0.2-0.2-0.4-0.2-0.7-0.2c-0.3,0-0.5,0.1-0.7,0.2c-0.2,0.2-0.3,0.4-0.4,0.6
			s-0.1,0.6-0.1,0.9c0,0.3,0,0.6,0.1,0.9s0.2,0.5,0.4,0.6C105.2,55.7,105.4,55.7,105.7,55.7z"/>
		<path class="st6" d="M110,53.5v2.9h-1v-4.9h0.9v0.8h0.1c0.1-0.3,0.3-0.5,0.5-0.6c0.2-0.2,0.5-0.2,0.9-0.2c0.3,0,0.6,0.1,0.9,0.2
			c0.3,0.1,0.4,0.3,0.6,0.6s0.2,0.6,0.2,1v3.1h-1v-3c0-0.4-0.1-0.6-0.3-0.8s-0.4-0.3-0.8-0.3c-0.2,0-0.4,0-0.6,0.1
			c-0.2,0.1-0.3,0.2-0.4,0.4C110.1,53,110,53.3,110,53.5z"/>
	</g>
	<g>
		<path d="M58.6,135.2c0-0.3-0.2-0.6-0.5-0.8c-0.3-0.2-0.6-0.3-1-0.3c-0.3,0-0.5,0-0.8,0.1s-0.4,0.2-0.5,0.4
			c-0.1,0.2-0.2,0.4-0.2,0.6c0,0.2,0,0.3,0.1,0.4c0.1,0.1,0.2,0.2,0.3,0.3c0.1,0.1,0.3,0.1,0.4,0.2c0.1,0.1,0.3,0.1,0.4,0.1l0.7,0.2
			c0.2,0,0.4,0.1,0.6,0.2c0.2,0.1,0.4,0.2,0.6,0.3c0.2,0.1,0.4,0.3,0.5,0.5c0.1,0.2,0.2,0.5,0.2,0.8c0,0.4-0.1,0.7-0.3,1
			c-0.2,0.3-0.5,0.5-0.8,0.7c-0.4,0.2-0.8,0.3-1.3,0.3c-0.5,0-0.9-0.1-1.2-0.2c-0.3-0.2-0.6-0.4-0.8-0.6c-0.2-0.3-0.3-0.6-0.3-0.9
			h0.8c0,0.2,0.1,0.5,0.3,0.6c0.1,0.2,0.3,0.3,0.6,0.4c0.2,0.1,0.5,0.1,0.7,0.1c0.3,0,0.6,0,0.8-0.1s0.4-0.2,0.6-0.4
			c0.1-0.2,0.2-0.4,0.2-0.6c0-0.2-0.1-0.4-0.2-0.5c-0.1-0.1-0.3-0.2-0.5-0.3c-0.2-0.1-0.4-0.2-0.6-0.2l-0.8-0.2
			c-0.5-0.1-0.9-0.4-1.2-0.6c-0.3-0.3-0.4-0.6-0.4-1.1c0-0.4,0.1-0.7,0.3-1c0.2-0.3,0.5-0.5,0.8-0.6c0.3-0.2,0.7-0.2,1.1-0.2
			c0.4,0,0.8,0.1,1.1,0.2s0.6,0.4,0.8,0.6c0.2,0.3,0.3,0.6,0.3,0.9H58.6z"/>
		<path d="M62.7,140.2c-0.5,0-0.9-0.1-1.2-0.3c-0.3-0.2-0.6-0.5-0.8-0.9c-0.2-0.4-0.3-0.8-0.3-1.3s0.1-0.9,0.3-1.3
			c0.2-0.4,0.4-0.7,0.8-0.9c0.3-0.2,0.7-0.3,1.2-0.3c0.3,0,0.5,0,0.8,0.1c0.2,0.1,0.5,0.2,0.7,0.4c0.2,0.2,0.4,0.4,0.5,0.8
			c0.1,0.3,0.2,0.7,0.2,1.2v0.3H61v-0.7h3c0-0.3-0.1-0.5-0.2-0.7s-0.3-0.4-0.5-0.5c-0.2-0.1-0.4-0.2-0.7-0.2c-0.3,0-0.6,0.1-0.8,0.2
			s-0.4,0.3-0.5,0.6c-0.1,0.2-0.2,0.5-0.2,0.8v0.4c0,0.4,0.1,0.7,0.2,0.9s0.3,0.5,0.5,0.6c0.2,0.1,0.5,0.2,0.8,0.2
			c0.2,0,0.4,0,0.5-0.1c0.2-0.1,0.3-0.1,0.4-0.3c0.1-0.1,0.2-0.3,0.3-0.4l0.7,0.2c-0.1,0.2-0.2,0.5-0.4,0.7s-0.4,0.3-0.7,0.4
			C63.4,140.2,63.1,140.2,62.7,140.2z"/>
		<path d="M66.7,133.6v6.5h-0.8v-6.5H66.7z"/>
		<path d="M70.1,140.2c-0.5,0-0.9-0.1-1.2-0.3c-0.3-0.2-0.6-0.5-0.8-0.9c-0.2-0.4-0.3-0.8-0.3-1.3s0.1-0.9,0.3-1.3
			c0.2-0.4,0.4-0.7,0.8-0.9c0.3-0.2,0.7-0.3,1.2-0.3c0.3,0,0.5,0,0.8,0.1c0.2,0.1,0.5,0.2,0.7,0.4c0.2,0.2,0.4,0.4,0.5,0.8
			c0.1,0.3,0.2,0.7,0.2,1.2v0.3h-3.8v-0.7h3c0-0.3-0.1-0.5-0.2-0.7s-0.3-0.4-0.5-0.5c-0.2-0.1-0.4-0.2-0.7-0.2
			c-0.3,0-0.6,0.1-0.8,0.2s-0.4,0.3-0.5,0.6c-0.1,0.2-0.2,0.5-0.2,0.8v0.4c0,0.4,0.1,0.7,0.2,0.9s0.3,0.5,0.5,0.6
			c0.2,0.1,0.5,0.2,0.8,0.2c0.2,0,0.4,0,0.5-0.1c0.2-0.1,0.3-0.1,0.4-0.3c0.1-0.1,0.2-0.3,0.3-0.4l0.7,0.2c-0.1,0.2-0.2,0.5-0.4,0.7
			s-0.4,0.3-0.7,0.4C70.8,140.2,70.5,140.2,70.1,140.2z"/>
		<path d="M75.3,140.2c-0.5,0-0.9-0.1-1.2-0.3c-0.3-0.2-0.6-0.5-0.8-0.9c-0.2-0.4-0.3-0.8-0.3-1.3c0-0.5,0.1-0.9,0.3-1.3
			c0.2-0.4,0.4-0.7,0.8-0.9c0.3-0.2,0.7-0.3,1.2-0.3c0.3,0,0.7,0.1,0.9,0.2s0.5,0.3,0.7,0.5c0.2,0.2,0.3,0.5,0.3,0.8h-0.8
			c-0.1-0.2-0.2-0.4-0.4-0.6c-0.2-0.2-0.5-0.3-0.8-0.3c-0.3,0-0.6,0.1-0.8,0.2c-0.2,0.2-0.4,0.4-0.5,0.6c-0.1,0.3-0.2,0.6-0.2,1
			c0,0.4,0.1,0.7,0.2,1c0.1,0.3,0.3,0.5,0.5,0.7c0.2,0.2,0.5,0.2,0.8,0.2c0.2,0,0.4,0,0.5-0.1c0.2-0.1,0.3-0.2,0.4-0.3
			c0.1-0.1,0.2-0.3,0.2-0.5h0.8c0,0.3-0.1,0.6-0.3,0.8c-0.2,0.2-0.4,0.4-0.7,0.5S75.7,140.2,75.3,140.2z"/>
		<path d="M80.5,135.2v0.6h-2.5v-0.6H80.5z M78.7,134h0.8v4.7c0,0.2,0,0.4,0.1,0.5c0.1,0.1,0.1,0.2,0.2,0.2s0.2,0.1,0.3,0.1
			c0.1,0,0.2,0,0.2,0s0.1,0,0.1,0l0.2,0.7c-0.1,0-0.1,0-0.2,0.1c-0.1,0-0.2,0-0.3,0c-0.2,0-0.4,0-0.6-0.1c-0.2-0.1-0.4-0.2-0.5-0.4
			c-0.1-0.2-0.2-0.4-0.2-0.7V134z"/>
		<path class="st6" d="M89.6,135.7h-1c0-0.2-0.1-0.4-0.2-0.6c-0.1-0.2-0.2-0.3-0.4-0.4s-0.3-0.2-0.5-0.3s-0.4-0.1-0.6-0.1
			c-0.4,0-0.7,0.1-1,0.3s-0.5,0.5-0.7,0.8c-0.2,0.4-0.3,0.8-0.3,1.3c0,0.5,0.1,1,0.3,1.3c0.2,0.4,0.4,0.6,0.7,0.8
			c0.3,0.2,0.6,0.3,1,0.3c0.2,0,0.4,0,0.6-0.1s0.4-0.1,0.5-0.3s0.3-0.2,0.4-0.4c0.1-0.2,0.2-0.3,0.2-0.6l1,0
			c-0.1,0.3-0.2,0.6-0.3,0.9s-0.3,0.5-0.6,0.7s-0.5,0.3-0.8,0.5s-0.6,0.2-1,0.2c-0.6,0-1.1-0.1-1.5-0.4c-0.4-0.3-0.8-0.7-1-1.2
			c-0.3-0.5-0.4-1.1-0.4-1.8c0-0.7,0.1-1.3,0.4-1.8c0.3-0.5,0.6-0.9,1-1.2s0.9-0.4,1.5-0.4c0.3,0,0.7,0,1,0.1
			c0.3,0.1,0.6,0.2,0.8,0.4c0.2,0.2,0.4,0.4,0.6,0.7S89.5,135.3,89.6,135.7z"/>
		<path class="st6" d="M92.8,140.2c-0.5,0-0.9-0.1-1.2-0.3c-0.3-0.2-0.6-0.5-0.8-0.9c-0.2-0.4-0.3-0.8-0.3-1.3c0-0.5,0.1-1,0.3-1.3
			c0.2-0.4,0.5-0.7,0.8-0.9c0.3-0.2,0.7-0.3,1.2-0.3c0.5,0,0.9,0.1,1.2,0.3c0.3,0.2,0.6,0.5,0.8,0.9c0.2,0.4,0.3,0.8,0.3,1.3
			c0,0.5-0.1,1-0.3,1.3c-0.2,0.4-0.5,0.7-0.8,0.9C93.6,140.1,93.2,140.2,92.8,140.2z M92.8,139.4c0.3,0,0.5-0.1,0.7-0.2
			c0.2-0.2,0.3-0.4,0.4-0.6s0.1-0.6,0.1-0.9c0-0.3,0-0.6-0.1-0.9s-0.2-0.5-0.4-0.6c-0.2-0.2-0.4-0.2-0.7-0.2c-0.3,0-0.5,0.1-0.7,0.2
			c-0.2,0.2-0.3,0.4-0.4,0.6s-0.1,0.6-0.1,0.9c0,0.3,0,0.6,0.1,0.9s0.2,0.5,0.4,0.6C92.2,139.3,92.5,139.4,92.8,139.4z"/>
		<path class="st6" d="M96.1,140.1v-4.9H97v0.8h0.1c0.1-0.3,0.3-0.5,0.5-0.6c0.2-0.2,0.5-0.2,0.8-0.2c0.3,0,0.6,0.1,0.8,0.2
			c0.2,0.2,0.4,0.4,0.5,0.6h0.1c0.1-0.3,0.3-0.5,0.6-0.6c0.3-0.2,0.6-0.2,0.9-0.2c0.4,0,0.8,0.1,1.1,0.4c0.3,0.3,0.4,0.7,0.4,1.3
			v3.3h-1v-3.2c0-0.3-0.1-0.6-0.3-0.7c-0.2-0.1-0.4-0.2-0.6-0.2c-0.3,0-0.6,0.1-0.7,0.3c-0.2,0.2-0.3,0.4-0.3,0.7v3.1h-1v-3.3
			c0-0.3-0.1-0.5-0.2-0.6c-0.2-0.2-0.4-0.2-0.6-0.2c-0.2,0-0.3,0-0.5,0.1s-0.3,0.2-0.4,0.4c-0.1,0.2-0.1,0.4-0.1,0.6v3H96.1z"/>
		<path class="st6" d="M104.1,141.9v-6.8h0.9v0.8h0.1c0.1-0.1,0.1-0.2,0.2-0.4c0.1-0.1,0.2-0.3,0.4-0.4s0.4-0.2,0.7-0.2
			c0.4,0,0.8,0.1,1.1,0.3c0.3,0.2,0.6,0.5,0.7,0.9c0.2,0.4,0.3,0.8,0.3,1.4c0,0.5-0.1,1-0.3,1.4c-0.2,0.4-0.4,0.7-0.7,0.9
			c-0.3,0.2-0.7,0.3-1.1,0.3c-0.3,0-0.5,0-0.7-0.1c-0.2-0.1-0.3-0.2-0.4-0.4s-0.2-0.3-0.2-0.4H105v2.6H104.1z M105,137.6
			c0,0.3,0,0.6,0.2,0.9c0.1,0.3,0.2,0.5,0.4,0.6c0.2,0.1,0.4,0.2,0.7,0.2c0.3,0,0.5-0.1,0.7-0.2c0.2-0.2,0.3-0.4,0.4-0.6
			c0.1-0.3,0.1-0.6,0.1-0.9c0-0.3,0-0.6-0.1-0.9s-0.2-0.5-0.4-0.6c-0.2-0.1-0.4-0.2-0.7-0.2c-0.3,0-0.5,0.1-0.7,0.2
			c-0.2,0.1-0.3,0.3-0.4,0.6C105.1,137,105,137.3,105,137.6z"/>
		<path class="st6" d="M111.1,140.2c-0.3,0-0.6-0.1-0.8-0.2c-0.3-0.1-0.5-0.3-0.6-0.5c-0.1-0.2-0.2-0.5-0.2-0.8
			c0-0.3,0.1-0.5,0.2-0.7c0.1-0.2,0.2-0.3,0.4-0.4c0.2-0.1,0.4-0.2,0.6-0.2c0.2-0.1,0.5-0.1,0.7-0.1c0.3,0,0.5-0.1,0.7-0.1
			c0.2,0,0.3-0.1,0.4-0.1c0.1-0.1,0.1-0.1,0.1-0.2v0c0-0.3-0.1-0.5-0.2-0.6c-0.2-0.2-0.4-0.2-0.7-0.2c-0.3,0-0.6,0.1-0.8,0.2
			c-0.2,0.1-0.3,0.3-0.4,0.5l-0.9-0.2c0.1-0.3,0.3-0.5,0.5-0.7c0.2-0.2,0.4-0.3,0.7-0.4c0.3-0.1,0.6-0.1,0.8-0.1
			c0.2,0,0.4,0,0.6,0.1s0.4,0.1,0.6,0.3c0.2,0.1,0.4,0.3,0.5,0.5c0.1,0.2,0.2,0.5,0.2,0.9v3.3h-0.9v-0.7h0c-0.1,0.1-0.2,0.2-0.3,0.4
			c-0.1,0.1-0.3,0.2-0.5,0.3C111.6,140.2,111.3,140.2,111.1,140.2z M111.3,139.4c0.3,0,0.5-0.1,0.7-0.2s0.3-0.2,0.4-0.4
			c0.1-0.2,0.1-0.4,0.1-0.5v-0.6c0,0-0.1,0.1-0.2,0.1c-0.1,0-0.2,0.1-0.3,0.1c-0.1,0-0.2,0-0.4,0.1c-0.1,0-0.2,0-0.3,0
			c-0.2,0-0.4,0.1-0.5,0.1c-0.2,0.1-0.3,0.1-0.4,0.2c-0.1,0.1-0.1,0.2-0.1,0.4c0,0.2,0.1,0.4,0.3,0.5
			C110.8,139.4,111,139.4,111.3,139.4z"/>
		<path class="st6" d="M115.7,137.2v2.9h-1v-4.9h0.9v0.8h0.1c0.1-0.3,0.3-0.5,0.5-0.6c0.2-0.2,0.5-0.2,0.9-0.2
			c0.3,0,0.6,0.1,0.9,0.2c0.3,0.1,0.4,0.3,0.6,0.6s0.2,0.6,0.2,1v3.1h-1v-3c0-0.4-0.1-0.6-0.3-0.8s-0.4-0.3-0.8-0.3
			c-0.2,0-0.4,0-0.6,0.1c-0.2,0.1-0.3,0.2-0.4,0.4C115.8,136.7,115.7,136.9,115.7,137.2z"/>
		<path class="st6" d="M120.7,141.9c-0.1,0-0.3,0-0.4,0c-0.1,0-0.2,0-0.3-0.1l0.2-0.8c0.2,0,0.3,0.1,0.5,0.1c0.1,0,0.3-0.1,0.4-0.2
			c0.1-0.1,0.2-0.3,0.3-0.5l0.1-0.3l-1.8-5h1l1.2,3.8h0.1l1.2-3.8h1l-2,5.6c-0.1,0.3-0.2,0.5-0.4,0.7c-0.1,0.2-0.3,0.3-0.5,0.4
			C121.2,141.9,121,141.9,120.7,141.9z"/>
	</g>
	<g>
		<path d="M61.1,220.2h-0.8c0-0.2-0.1-0.4-0.2-0.6c-0.1-0.2-0.3-0.3-0.4-0.4s-0.3-0.2-0.5-0.3c-0.2-0.1-0.4-0.1-0.6-0.1
			c-0.4,0-0.8,0.1-1.1,0.3c-0.3,0.2-0.6,0.5-0.8,0.9c-0.2,0.4-0.3,0.9-0.3,1.4c0,0.6,0.1,1,0.3,1.4c0.2,0.4,0.4,0.7,0.8,0.9
			c0.3,0.2,0.7,0.3,1.1,0.3c0.2,0,0.4,0,0.6-0.1c0.2-0.1,0.4-0.1,0.5-0.3s0.3-0.3,0.4-0.4c0.1-0.2,0.2-0.4,0.2-0.6h0.8
			c-0.1,0.3-0.2,0.6-0.3,0.9c-0.2,0.3-0.4,0.5-0.6,0.7s-0.5,0.3-0.8,0.4c-0.3,0.1-0.6,0.1-0.9,0.1c-0.6,0-1.1-0.1-1.5-0.4
			c-0.4-0.3-0.8-0.7-1-1.2c-0.2-0.5-0.4-1.1-0.4-1.8c0-0.7,0.1-1.3,0.4-1.8c0.2-0.5,0.6-0.9,1-1.2c0.4-0.3,0.9-0.4,1.5-0.4
			c0.3,0,0.6,0,0.9,0.1c0.3,0.1,0.6,0.2,0.8,0.4s0.4,0.4,0.6,0.7C61,219.5,61.1,219.8,61.1,220.2z"/>
		<path d="M63.1,221.7v3h-0.8v-6.5h0.8v2.4h0.1c0.1-0.3,0.3-0.5,0.5-0.6c0.2-0.2,0.5-0.2,0.9-0.2c0.3,0,0.6,0.1,0.9,0.2
			c0.3,0.1,0.4,0.3,0.6,0.6c0.1,0.3,0.2,0.6,0.2,1v3.1h-0.8v-3.1c0-0.4-0.1-0.7-0.3-0.9c-0.2-0.2-0.5-0.3-0.8-0.3
			c-0.2,0-0.5,0.1-0.7,0.2c-0.2,0.1-0.3,0.3-0.5,0.5S63.1,221.4,63.1,221.7z"/>
		<path d="M69.7,224.8c-0.5,0-0.9-0.1-1.2-0.3c-0.3-0.2-0.6-0.5-0.8-0.9c-0.2-0.4-0.3-0.8-0.3-1.3s0.1-0.9,0.3-1.3
			c0.2-0.4,0.4-0.7,0.8-0.9c0.3-0.2,0.7-0.3,1.2-0.3c0.3,0,0.5,0,0.8,0.1c0.2,0.1,0.5,0.2,0.7,0.4c0.2,0.2,0.4,0.4,0.5,0.8
			c0.1,0.3,0.2,0.7,0.2,1.2v0.3h-3.8v-0.7h3c0-0.3-0.1-0.5-0.2-0.7s-0.3-0.4-0.5-0.5c-0.2-0.1-0.4-0.2-0.7-0.2
			c-0.3,0-0.6,0.1-0.8,0.2s-0.4,0.3-0.5,0.6c-0.1,0.2-0.2,0.5-0.2,0.8v0.4c0,0.4,0.1,0.7,0.2,0.9s0.3,0.5,0.5,0.6
			c0.2,0.1,0.5,0.2,0.8,0.2c0.2,0,0.4,0,0.5-0.1c0.2-0.1,0.3-0.1,0.4-0.3c0.1-0.1,0.2-0.3,0.3-0.4l0.7,0.2c-0.1,0.2-0.2,0.5-0.4,0.7
			s-0.4,0.3-0.7,0.4C70.3,224.7,70,224.8,69.7,224.8z"/>
		<path d="M74.9,224.8c-0.5,0-0.9-0.1-1.2-0.3c-0.3-0.2-0.6-0.5-0.8-0.9c-0.2-0.4-0.3-0.8-0.3-1.3c0-0.5,0.1-0.9,0.3-1.3
			c0.2-0.4,0.4-0.7,0.8-0.9c0.3-0.2,0.7-0.3,1.2-0.3c0.3,0,0.7,0.1,0.9,0.2s0.5,0.3,0.7,0.5c0.2,0.2,0.3,0.5,0.3,0.8H76
			c-0.1-0.2-0.2-0.4-0.4-0.6c-0.2-0.2-0.5-0.3-0.8-0.3c-0.3,0-0.6,0.1-0.8,0.2c-0.2,0.2-0.4,0.4-0.5,0.6c-0.1,0.3-0.2,0.6-0.2,1
			c0,0.4,0.1,0.7,0.2,1c0.1,0.3,0.3,0.5,0.5,0.7c0.2,0.2,0.5,0.2,0.8,0.2c0.2,0,0.4,0,0.5-0.1c0.2-0.1,0.3-0.2,0.4-0.3
			c0.1-0.1,0.2-0.3,0.2-0.5h0.8c0,0.3-0.1,0.6-0.3,0.8c-0.2,0.2-0.4,0.4-0.7,0.5S75.2,224.8,74.9,224.8z"/>
		<path d="M77.9,224.7v-6.5h0.8v6.5H77.9z M78.6,222.9l0-0.9h0.2l2.1-2.2h0.9l-2.3,2.3h-0.1L78.6,222.9z M81,224.7l-1.9-2.4l0.5-0.5
			l2.3,3H81z"/>
		<path class="st6" d="M85.9,224.7h-1l2.4-6.5h1.1l2.4,6.5h-1l-1.9-5.4h-0.1L85.9,224.7z M86.1,222.1h3.4v0.8h-3.4V222.1z"/>
		<path class="st6" d="M95.8,219.8l-1.8,4.9h-1l-1.8-4.9h1l1.2,3.8h0.1l1.2-3.8H95.8z"/>
		<path class="st6" d="M98.1,224.8c-0.3,0-0.6-0.1-0.8-0.2c-0.3-0.1-0.4-0.3-0.6-0.5c-0.1-0.2-0.2-0.5-0.2-0.8
			c0-0.3,0.1-0.5,0.2-0.7c0.1-0.2,0.2-0.3,0.4-0.4s0.4-0.2,0.6-0.2s0.5-0.1,0.7-0.1c0.3,0,0.5-0.1,0.7-0.1c0.2,0,0.3-0.1,0.4-0.1
			c0.1-0.1,0.1-0.1,0.1-0.2v0c0-0.3-0.1-0.5-0.2-0.6c-0.2-0.2-0.4-0.2-0.7-0.2c-0.3,0-0.6,0.1-0.8,0.2c-0.2,0.1-0.3,0.3-0.4,0.5
			l-0.9-0.2c0.1-0.3,0.3-0.5,0.5-0.7c0.2-0.2,0.4-0.3,0.7-0.4c0.3-0.1,0.6-0.1,0.8-0.1c0.2,0,0.4,0,0.6,0.1s0.4,0.1,0.6,0.3
			c0.2,0.1,0.3,0.3,0.5,0.5c0.1,0.2,0.2,0.5,0.2,0.9v3.3h-0.9V224h0c-0.1,0.1-0.2,0.2-0.3,0.4c-0.1,0.1-0.3,0.2-0.5,0.3
			C98.6,224.7,98.4,224.8,98.1,224.8z M98.3,224c0.3,0,0.5-0.1,0.7-0.2c0.2-0.1,0.3-0.2,0.4-0.4s0.1-0.4,0.1-0.5v-0.6
			c0,0-0.1,0.1-0.2,0.1c-0.1,0-0.2,0.1-0.3,0.1c-0.1,0-0.2,0-0.4,0.1c-0.1,0-0.2,0-0.3,0c-0.2,0-0.4,0.1-0.5,0.1
			c-0.2,0.1-0.3,0.1-0.4,0.2c-0.1,0.1-0.1,0.2-0.1,0.4c0,0.2,0.1,0.4,0.3,0.5C97.8,223.9,98,224,98.3,224z"/>
		<path class="st6" d="M102.3,219c-0.2,0-0.3-0.1-0.4-0.2s-0.2-0.2-0.2-0.4c0-0.2,0.1-0.3,0.2-0.4s0.3-0.2,0.4-0.2s0.3,0.1,0.4,0.2
			s0.2,0.2,0.2,0.4c0,0.2-0.1,0.3-0.2,0.4S102.4,219,102.3,219z M101.8,224.7v-4.9h1v4.9H101.8z"/>
		<path class="st6" d="M105,218.1v6.5h-1v-6.5H105z"/>
		<path class="st6" d="M107.7,224.8c-0.3,0-0.6-0.1-0.8-0.2c-0.3-0.1-0.5-0.3-0.6-0.5c-0.1-0.2-0.2-0.5-0.2-0.8
			c0-0.3,0.1-0.5,0.2-0.7c0.1-0.2,0.2-0.3,0.4-0.4c0.2-0.1,0.4-0.2,0.6-0.2c0.2-0.1,0.5-0.1,0.7-0.1c0.3,0,0.5-0.1,0.7-0.1
			c0.2,0,0.3-0.1,0.4-0.1c0.1-0.1,0.1-0.1,0.1-0.2v0c0-0.3-0.1-0.5-0.2-0.6c-0.2-0.2-0.4-0.2-0.7-0.2c-0.3,0-0.6,0.1-0.8,0.2
			c-0.2,0.1-0.3,0.3-0.4,0.5l-0.9-0.2c0.1-0.3,0.3-0.5,0.5-0.7c0.2-0.2,0.4-0.3,0.7-0.4c0.3-0.1,0.6-0.1,0.8-0.1
			c0.2,0,0.4,0,0.6,0.1s0.4,0.1,0.6,0.3c0.2,0.1,0.4,0.3,0.5,0.5c0.1,0.2,0.2,0.5,0.2,0.9v3.3h-0.9V224h0c-0.1,0.1-0.2,0.2-0.3,0.4
			c-0.1,0.1-0.3,0.2-0.5,0.3C108.2,224.7,108,224.8,107.7,224.8z M107.9,224c0.3,0,0.5-0.1,0.7-0.2s0.3-0.2,0.4-0.4
			c0.1-0.2,0.1-0.4,0.1-0.5v-0.6c0,0-0.1,0.1-0.2,0.1c-0.1,0-0.2,0.1-0.3,0.1c-0.1,0-0.2,0-0.4,0.1c-0.1,0-0.2,0-0.3,0
			c-0.2,0-0.4,0.1-0.5,0.1c-0.2,0.1-0.3,0.1-0.4,0.2c-0.1,0.1-0.1,0.2-0.1,0.4c0,0.2,0.1,0.4,0.3,0.5
			C107.4,223.9,107.6,224,107.9,224z"/>
		<path class="st6" d="M111.5,224.7v-6.5h1v2.4h0.1c0.1-0.1,0.1-0.2,0.2-0.4c0.1-0.1,0.2-0.3,0.4-0.4c0.2-0.1,0.4-0.2,0.7-0.2
			c0.4,0,0.8,0.1,1.1,0.3c0.3,0.2,0.6,0.5,0.7,0.9c0.2,0.4,0.3,0.8,0.3,1.4c0,0.5-0.1,1-0.3,1.4c-0.2,0.4-0.4,0.7-0.7,0.9
			c-0.3,0.2-0.7,0.3-1.1,0.3c-0.3,0-0.5,0-0.7-0.1s-0.3-0.2-0.4-0.4s-0.2-0.3-0.2-0.4h-0.1v0.8H111.5z M112.4,222.2
			c0,0.3,0.1,0.6,0.2,0.9c0.1,0.3,0.2,0.5,0.4,0.6s0.4,0.2,0.7,0.2c0.3,0,0.5-0.1,0.7-0.2c0.2-0.2,0.3-0.4,0.4-0.6
			c0.1-0.3,0.1-0.6,0.1-0.9c0-0.3,0-0.6-0.1-0.9c-0.1-0.3-0.2-0.5-0.4-0.6c-0.2-0.1-0.4-0.2-0.7-0.2c-0.3,0-0.5,0.1-0.7,0.2
			c-0.2,0.1-0.3,0.3-0.4,0.6C112.5,221.6,112.4,221.9,112.4,222.2z"/>
		<path class="st6" d="M118,218.1v6.5h-1v-6.5H118z"/>
		<path class="st6" d="M121.4,224.8c-0.5,0-0.9-0.1-1.2-0.3c-0.3-0.2-0.6-0.5-0.8-0.9c-0.2-0.4-0.3-0.8-0.3-1.3
			c0-0.5,0.1-0.9,0.3-1.3c0.2-0.4,0.5-0.7,0.8-0.9c0.3-0.2,0.7-0.3,1.2-0.3c0.3,0,0.5,0,0.8,0.1c0.3,0.1,0.5,0.2,0.7,0.4
			c0.2,0.2,0.4,0.5,0.5,0.8c0.1,0.3,0.2,0.7,0.2,1.1v0.3h-3.9v-0.7h3c0-0.3-0.1-0.5-0.2-0.7c-0.1-0.2-0.2-0.3-0.4-0.5
			s-0.4-0.2-0.6-0.2c-0.3,0-0.5,0.1-0.7,0.2c-0.2,0.1-0.4,0.3-0.5,0.5c-0.1,0.2-0.2,0.4-0.2,0.7v0.6c0,0.3,0.1,0.6,0.2,0.8
			c0.1,0.2,0.3,0.4,0.5,0.5c0.2,0.1,0.5,0.2,0.7,0.2c0.2,0,0.3,0,0.5-0.1c0.1-0.1,0.3-0.1,0.4-0.2c0.1-0.1,0.2-0.2,0.2-0.4l0.9,0.2
			c-0.1,0.3-0.2,0.5-0.4,0.7s-0.4,0.4-0.7,0.5C122.1,224.7,121.7,224.8,121.4,224.8z"/>
		<path class="st6" d="M73.1,235.5v-6.5h2.4c0.5,0,0.8,0.1,1.2,0.2s0.5,0.4,0.7,0.6c0.2,0.3,0.2,0.6,0.2,0.9c0,0.3,0,0.5-0.1,0.7
			c-0.1,0.2-0.2,0.3-0.4,0.4s-0.4,0.2-0.6,0.2v0.1c0.2,0,0.4,0.1,0.6,0.2c0.2,0.1,0.4,0.3,0.5,0.5c0.1,0.2,0.2,0.5,0.2,0.9
			c0,0.3-0.1,0.6-0.2,0.9c-0.2,0.3-0.4,0.5-0.7,0.6c-0.3,0.2-0.7,0.2-1.2,0.2H73.1z M74.1,231.8h1.3c0.2,0,0.4,0,0.6-0.1
			c0.2-0.1,0.3-0.2,0.4-0.4s0.2-0.3,0.2-0.5c0-0.3-0.1-0.5-0.3-0.7c-0.2-0.2-0.5-0.3-0.9-0.3h-1.3V231.8z M74.1,234.6h1.4
			c0.5,0,0.8-0.1,1-0.3c0.2-0.2,0.3-0.4,0.3-0.7c0-0.2-0.1-0.4-0.2-0.6c-0.1-0.2-0.3-0.3-0.4-0.4c-0.2-0.1-0.4-0.2-0.7-0.2h-1.5
			V234.6z"/>
		<path class="st6" d="M80.4,235.6c-0.3,0-0.6-0.1-0.8-0.2c-0.3-0.1-0.4-0.3-0.6-0.5c-0.1-0.2-0.2-0.5-0.2-0.8
			c0-0.3,0.1-0.5,0.2-0.7c0.1-0.2,0.2-0.3,0.4-0.4s0.4-0.2,0.6-0.2s0.5-0.1,0.7-0.1c0.3,0,0.5-0.1,0.7-0.1c0.2,0,0.3-0.1,0.4-0.1
			c0.1-0.1,0.1-0.1,0.1-0.2v0c0-0.3-0.1-0.5-0.2-0.6c-0.2-0.2-0.4-0.2-0.7-0.2c-0.3,0-0.6,0.1-0.8,0.2c-0.2,0.1-0.3,0.3-0.4,0.5
			l-0.9-0.2c0.1-0.3,0.3-0.5,0.5-0.7c0.2-0.2,0.4-0.3,0.7-0.4c0.3-0.1,0.6-0.1,0.8-0.1c0.2,0,0.4,0,0.6,0.1c0.2,0,0.4,0.1,0.6,0.3
			s0.4,0.3,0.5,0.5c0.1,0.2,0.2,0.5,0.2,0.9v3.3h-0.9v-0.7h0c-0.1,0.1-0.2,0.2-0.3,0.4c-0.1,0.1-0.3,0.2-0.5,0.3
			C80.9,235.5,80.6,235.6,80.4,235.6z M80.6,234.8c0.3,0,0.5-0.1,0.7-0.2s0.3-0.2,0.4-0.4c0.1-0.2,0.1-0.4,0.1-0.5v-0.6
			c0,0-0.1,0.1-0.2,0.1c-0.1,0-0.2,0.1-0.3,0.1c-0.1,0-0.2,0-0.4,0.1c-0.1,0-0.2,0-0.3,0c-0.2,0-0.4,0.1-0.5,0.1
			c-0.2,0.1-0.3,0.1-0.4,0.2c-0.1,0.1-0.1,0.2-0.1,0.4c0,0.2,0.1,0.4,0.3,0.5C80.1,234.7,80.3,234.8,80.6,234.8z"/>
		<path class="st6" d="M85,228.9v6.5h-1v-6.5H85z"/>
		<path class="st6" d="M87.7,235.6c-0.3,0-0.6-0.1-0.8-0.2c-0.3-0.1-0.4-0.3-0.6-0.5c-0.1-0.2-0.2-0.5-0.2-0.8
			c0-0.3,0.1-0.5,0.2-0.7c0.1-0.2,0.2-0.3,0.4-0.4s0.4-0.2,0.6-0.2s0.5-0.1,0.7-0.1c0.3,0,0.5-0.1,0.7-0.1c0.2,0,0.3-0.1,0.4-0.1
			c0.1-0.1,0.1-0.1,0.1-0.2v0c0-0.3-0.1-0.5-0.2-0.6c-0.2-0.2-0.4-0.2-0.7-0.2c-0.3,0-0.6,0.1-0.8,0.2c-0.2,0.1-0.3,0.3-0.4,0.5
			l-0.9-0.2c0.1-0.3,0.3-0.5,0.5-0.7c0.2-0.2,0.4-0.3,0.7-0.4c0.3-0.1,0.6-0.1,0.8-0.1c0.2,0,0.4,0,0.6,0.1c0.2,0,0.4,0.1,0.6,0.3
			s0.4,0.3,0.5,0.5c0.1,0.2,0.2,0.5,0.2,0.9v3.3h-0.9v-0.7h0c-0.1,0.1-0.2,0.2-0.3,0.4c-0.1,0.1-0.3,0.2-0.5,0.3
			C88.2,235.5,88,235.6,87.7,235.6z M87.9,234.8c0.3,0,0.5-0.1,0.7-0.2s0.3-0.2,0.4-0.4c0.1-0.2,0.1-0.4,0.1-0.5v-0.6
			c0,0-0.1,0.1-0.2,0.1c-0.1,0-0.2,0.1-0.3,0.1c-0.1,0-0.2,0-0.4,0.1c-0.1,0-0.2,0-0.3,0c-0.2,0-0.4,0.1-0.5,0.1
			c-0.2,0.1-0.3,0.1-0.4,0.2c-0.1,0.1-0.1,0.2-0.1,0.4c0,0.2,0.1,0.4,0.3,0.5C87.5,234.7,87.7,234.8,87.9,234.8z"/>
		<path class="st6" d="M92.4,232.6v2.9h-1v-4.9h0.9v0.8h0.1c0.1-0.3,0.3-0.5,0.5-0.6c0.2-0.2,0.5-0.2,0.9-0.2c0.3,0,0.6,0.1,0.9,0.2
			c0.3,0.1,0.4,0.3,0.6,0.6c0.1,0.3,0.2,0.6,0.2,1v3.1h-1v-3c0-0.4-0.1-0.6-0.3-0.8c-0.2-0.2-0.4-0.3-0.8-0.3c-0.2,0-0.4,0-0.6,0.1
			c-0.2,0.1-0.3,0.2-0.4,0.4C92.4,232.1,92.4,232.3,92.4,232.6z"/>
		<path class="st6" d="M98.9,235.6c-0.5,0-0.9-0.1-1.2-0.3c-0.3-0.2-0.6-0.5-0.8-0.9c-0.2-0.4-0.3-0.8-0.3-1.3
			c0-0.5,0.1-0.9,0.3-1.3c0.2-0.4,0.5-0.7,0.8-0.9c0.3-0.2,0.7-0.3,1.2-0.3c0.4,0,0.7,0.1,1,0.2c0.3,0.1,0.5,0.3,0.7,0.6
			c0.2,0.2,0.3,0.5,0.3,0.9H100c-0.1-0.2-0.2-0.4-0.3-0.6c-0.2-0.2-0.4-0.2-0.7-0.2c-0.3,0-0.5,0.1-0.7,0.2
			c-0.2,0.1-0.4,0.3-0.5,0.6s-0.2,0.6-0.2,0.9c0,0.4,0.1,0.7,0.2,0.9c0.1,0.3,0.3,0.5,0.5,0.6c0.2,0.1,0.4,0.2,0.7,0.2
			c0.2,0,0.3,0,0.5-0.1c0.1-0.1,0.3-0.2,0.4-0.3c0.1-0.1,0.2-0.3,0.2-0.5h0.9c0,0.3-0.1,0.6-0.3,0.9c-0.2,0.2-0.4,0.4-0.7,0.6
			C99.6,235.5,99.3,235.6,98.9,235.6z"/>
		<path class="st6" d="M104,235.6c-0.5,0-0.9-0.1-1.2-0.3c-0.3-0.2-0.6-0.5-0.8-0.9c-0.2-0.4-0.3-0.8-0.3-1.3c0-0.5,0.1-0.9,0.3-1.3
			c0.2-0.4,0.5-0.7,0.8-0.9c0.3-0.2,0.7-0.3,1.2-0.3c0.3,0,0.5,0,0.8,0.1c0.3,0.1,0.5,0.2,0.7,0.4c0.2,0.2,0.4,0.5,0.5,0.8
			c0.1,0.3,0.2,0.7,0.2,1.1v0.3h-3.9v-0.7h3c0-0.3-0.1-0.5-0.2-0.7c-0.1-0.2-0.2-0.3-0.4-0.5s-0.4-0.2-0.6-0.2
			c-0.3,0-0.5,0.1-0.7,0.2c-0.2,0.1-0.4,0.3-0.5,0.5c-0.1,0.2-0.2,0.4-0.2,0.7v0.6c0,0.3,0.1,0.6,0.2,0.8c0.1,0.2,0.3,0.4,0.5,0.5
			c0.2,0.1,0.5,0.2,0.7,0.2c0.2,0,0.3,0,0.5-0.1c0.1-0.1,0.3-0.1,0.4-0.2c0.1-0.1,0.2-0.2,0.2-0.4l0.9,0.2c-0.1,0.3-0.2,0.5-0.4,0.7
			s-0.4,0.4-0.7,0.5C104.7,235.5,104.4,235.6,104,235.6z"/>
	</g>
	<g>
		<path d="M64.9,313.8h-0.8c0-0.2-0.1-0.4-0.2-0.6c-0.1-0.2-0.3-0.3-0.4-0.4s-0.3-0.2-0.5-0.3c-0.2-0.1-0.4-0.1-0.6-0.1
			c-0.4,0-0.8,0.1-1.1,0.3c-0.3,0.2-0.6,0.5-0.8,0.9c-0.2,0.4-0.3,0.9-0.3,1.4c0,0.6,0.1,1,0.3,1.4c0.2,0.4,0.4,0.7,0.8,0.9
			c0.3,0.2,0.7,0.3,1.1,0.3c0.2,0,0.4,0,0.6-0.1c0.2-0.1,0.4-0.1,0.5-0.3s0.3-0.3,0.4-0.4c0.1-0.2,0.2-0.4,0.2-0.6h0.8
			c-0.1,0.3-0.2,0.6-0.3,0.9c-0.2,0.3-0.4,0.5-0.6,0.7c-0.2,0.2-0.5,0.3-0.8,0.4c-0.3,0.1-0.6,0.1-0.9,0.1c-0.6,0-1.1-0.1-1.5-0.4
			c-0.4-0.3-0.8-0.7-1-1.2c-0.2-0.5-0.4-1.1-0.4-1.8c0-0.7,0.1-1.3,0.4-1.8c0.2-0.5,0.6-0.9,1-1.2c0.4-0.3,0.9-0.4,1.5-0.4
			c0.3,0,0.6,0,0.9,0.1c0.3,0.1,0.6,0.2,0.8,0.4c0.2,0.2,0.4,0.4,0.6,0.7C64.7,313.1,64.8,313.4,64.9,313.8z"/>
		<path d="M66.8,311.7v6.5h-0.8v-6.5H66.8z"/>
		<path d="M68.6,312.6c-0.1,0-0.3-0.1-0.4-0.2S68,312.2,68,312s0.1-0.3,0.2-0.4s0.2-0.2,0.4-0.2s0.3,0.1,0.4,0.2s0.2,0.2,0.2,0.4
			s-0.1,0.3-0.2,0.4S68.7,312.6,68.6,312.6z M68.2,318.3v-4.9h0.8v4.9H68.2z"/>
		<path d="M72.3,318.4c-0.5,0-0.9-0.1-1.2-0.3c-0.3-0.2-0.6-0.5-0.8-0.9c-0.2-0.4-0.3-0.8-0.3-1.3c0-0.5,0.1-0.9,0.3-1.3
			c0.2-0.4,0.4-0.7,0.8-0.9c0.3-0.2,0.7-0.3,1.2-0.3c0.3,0,0.7,0.1,0.9,0.2s0.5,0.3,0.7,0.5c0.2,0.2,0.3,0.5,0.3,0.8h-0.8
			c-0.1-0.2-0.2-0.4-0.4-0.6c-0.2-0.2-0.5-0.3-0.8-0.3c-0.3,0-0.6,0.1-0.8,0.2c-0.2,0.2-0.4,0.4-0.5,0.6c-0.1,0.3-0.2,0.6-0.2,1
			c0,0.4,0.1,0.7,0.2,1c0.1,0.3,0.3,0.5,0.5,0.7c0.2,0.2,0.5,0.2,0.8,0.2c0.2,0,0.4,0,0.5-0.1c0.2-0.1,0.3-0.2,0.4-0.3
			c0.1-0.1,0.2-0.3,0.2-0.5h0.8c0,0.3-0.1,0.6-0.3,0.8c-0.2,0.2-0.4,0.4-0.7,0.5S72.7,318.4,72.3,318.4z"/>
		<path d="M75.3,318.3v-6.5h0.8v6.5H75.3z M76.1,316.5l0-0.9h0.2l2.1-2.2h0.9l-2.3,2.3h-0.1L76.1,316.5z M78.5,318.3l-1.9-2.4
			l0.5-0.5l2.3,3H78.5z"/>
		<path d="M84.8,318.4c-0.4,0-0.8-0.1-1.2-0.3s-0.6-0.5-0.8-0.9c-0.2-0.4-0.3-0.8-0.3-1.3c0-0.5,0.1-1,0.3-1.3s0.4-0.7,0.8-0.9
			s0.7-0.3,1.2-0.3c0.4,0,0.8,0.1,1.2,0.3s0.6,0.5,0.8,0.9s0.3,0.8,0.3,1.3c0,0.5-0.1,1-0.3,1.3c-0.2,0.4-0.4,0.7-0.8,0.9
			S85.2,318.4,84.8,318.4z M84.8,317.7c0.3,0,0.6-0.1,0.8-0.3c0.2-0.2,0.4-0.4,0.5-0.7c0.1-0.3,0.2-0.6,0.2-0.9
			c0-0.3-0.1-0.6-0.2-0.9c-0.1-0.3-0.3-0.5-0.5-0.7c-0.2-0.2-0.5-0.3-0.8-0.3c-0.3,0-0.6,0.1-0.8,0.3c-0.2,0.2-0.4,0.4-0.5,0.7
			s-0.2,0.6-0.2,0.9c0,0.3,0.1,0.6,0.2,0.9s0.3,0.5,0.5,0.7C84.2,317.6,84.4,317.7,84.8,317.7z"/>
		<path d="M88.9,315.3v3h-0.8v-4.9h0.7v0.8h0.1c0.1-0.2,0.3-0.5,0.5-0.6c0.2-0.2,0.5-0.2,0.9-0.2c0.3,0,0.6,0.1,0.9,0.2
			c0.2,0.1,0.4,0.3,0.6,0.6c0.1,0.3,0.2,0.6,0.2,1v3.1h-0.8v-3.1c0-0.4-0.1-0.7-0.3-0.9s-0.5-0.3-0.8-0.3c-0.2,0-0.5,0.1-0.6,0.2
			c-0.2,0.1-0.3,0.3-0.4,0.5C89,314.8,88.9,315,88.9,315.3z"/>
		<path class="st6" d="M96.5,318.3h-1l2.4-6.5H99l2.4,6.5h-1l-1.9-5.4h-0.1L96.5,318.3z M96.7,315.7h3.4v0.8h-3.4V315.7z"/>
		<path class="st6" d="M102.2,320.1v-6.8h0.9v0.8h0.1c0.1-0.1,0.1-0.2,0.2-0.4c0.1-0.1,0.2-0.3,0.4-0.4s0.4-0.2,0.7-0.2
			c0.4,0,0.8,0.1,1.1,0.3c0.3,0.2,0.6,0.5,0.7,0.9c0.2,0.4,0.3,0.8,0.3,1.4c0,0.5-0.1,1-0.3,1.4c-0.2,0.4-0.4,0.7-0.7,0.9
			c-0.3,0.2-0.7,0.3-1.1,0.3c-0.3,0-0.5,0-0.7-0.1c-0.2-0.1-0.3-0.2-0.4-0.4s-0.2-0.3-0.2-0.4h-0.1v2.6H102.2z M103.1,315.8
			c0,0.3,0,0.6,0.2,0.9c0.1,0.3,0.2,0.5,0.4,0.6c0.2,0.1,0.4,0.2,0.7,0.2c0.3,0,0.5-0.1,0.7-0.2c0.2-0.2,0.3-0.4,0.4-0.6
			c0.1-0.3,0.1-0.6,0.1-0.9c0-0.3,0-0.6-0.1-0.9s-0.2-0.5-0.4-0.6c-0.2-0.1-0.4-0.2-0.7-0.2c-0.3,0-0.5,0.1-0.7,0.2
			c-0.2,0.1-0.3,0.3-0.4,0.6C103.2,315.2,103.1,315.5,103.1,315.8z"/>
		<path class="st6" d="M107.7,320.1v-6.8h0.9v0.8h0.1c0.1-0.1,0.1-0.2,0.2-0.4c0.1-0.1,0.2-0.3,0.4-0.4s0.4-0.2,0.7-0.2
			c0.4,0,0.8,0.1,1.1,0.3c0.3,0.2,0.6,0.5,0.7,0.9c0.2,0.4,0.3,0.8,0.3,1.4c0,0.5-0.1,1-0.3,1.4c-0.2,0.4-0.4,0.7-0.7,0.9
			c-0.3,0.2-0.7,0.3-1.1,0.3c-0.3,0-0.5,0-0.7-0.1c-0.2-0.1-0.3-0.2-0.4-0.4s-0.2-0.3-0.2-0.4h-0.1v2.6H107.7z M108.7,315.8
			c0,0.3,0,0.6,0.2,0.9c0.1,0.3,0.2,0.5,0.4,0.6c0.2,0.1,0.4,0.2,0.7,0.2c0.3,0,0.5-0.1,0.7-0.2c0.2-0.2,0.3-0.4,0.4-0.6
			c0.1-0.3,0.1-0.6,0.1-0.9c0-0.3,0-0.6-0.1-0.9s-0.2-0.5-0.4-0.6c-0.2-0.1-0.4-0.2-0.7-0.2c-0.3,0-0.5,0.1-0.7,0.2
			c-0.2,0.1-0.3,0.3-0.4,0.6C108.7,315.2,108.7,315.5,108.7,315.8z"/>
		<path class="st6" d="M114.3,311.7v6.5h-1v-6.5H114.3z"/>
		<path class="st6" d="M116.1,320.1c-0.1,0-0.3,0-0.4,0s-0.2,0-0.3-0.1l0.2-0.8c0.2,0,0.3,0.1,0.5,0.1c0.1,0,0.3-0.1,0.4-0.2
			c0.1-0.1,0.2-0.3,0.3-0.5l0.1-0.3l-1.8-5h1l1.2,3.8h0.1l1.2-3.8h1l-2,5.6c-0.1,0.3-0.2,0.5-0.4,0.7s-0.3,0.3-0.5,0.4
			S116.4,320.1,116.1,320.1z"/>
	</g>
</g>
</svg>
