<?xml version="1.0" encoding="utf-8"?>
<!-- Generator: Adobe Illustrator 26.0.1, SVG Export Plug-In . SVG Version: 6.00 Build 0)  -->
<svg version="1.1" id="Layer_1" xmlns="http://www.w3.org/2000/svg" xmlns:xlink="http://www.w3.org/1999/xlink" x="0px" y="0px"
	 viewBox="0 0 576.6 62" style="enable-background:new 0 0 576.6 62;" xml:space="preserve">
<style type="text/css">
	.st0{fill:#EC7E30;}
	.st1{opacity:0.9;fill:#FFFFFF;enable-background:new    ;}
	.st2{fill:none;stroke:#EC7E30;stroke-miterlimit:10;}
	.st3{fill:#A5A4A4;}
	.st4{fill:#FDC015;}
	.st5{fill:#4A72B8;}
	.st6{fill:#038643;}
</style>
<g>
	<polygon class="st0" points="129.9,28.4 129.9,28.4 100.3,56.8 10.6,56.8 40.2,28.4 40.2,28.4 10.6,0.1 100.3,0.1 	"/>
	<g>
		<path class="st1" d="M140.2,61.5H60.1c-1.6,0-2.9-1.3-2.9-2.9V26c0-1.6,1.3-2.9,2.9-2.9h80.1c1.6,0,2.9,1.3,2.9,2.9v32.6
			C143.1,60.2,141.8,61.5,140.2,61.5z"/>
		<path class="st2" d="M140.2,61.5H60.1c-1.6,0-2.9-1.3-2.9-2.9V26c0-1.6,1.3-2.9,2.9-2.9h80.1c1.6,0,2.9,1.3,2.9,2.9v32.6
			C143.1,60.2,141.8,61.5,140.2,61.5z"/>
	</g>
	<polygon class="st3" points="270.7,28.4 270.7,28.4 241.1,56.7 151.4,56.7 181,28.4 181,28.4 151.4,0 241.1,0 	"/>
	<g>
		<path class="st1" d="M281,61.5h-80.1c-1.6,0-2.9-1.3-2.9-2.9V26c0-1.6,1.3-2.9,2.9-2.9H281c1.6,0,2.9,1.3,2.9,2.9v32.6
			C283.9,60.2,282.6,61.5,281,61.5z"/>
		<path class="st2" d="M281,61.5h-80.1c-1.6,0-2.9-1.3-2.9-2.9V26c0-1.6,1.3-2.9,2.9-2.9H281c1.6,0,2.9,1.3,2.9,2.9v32.6
			C283.9,60.2,282.6,61.5,281,61.5z"/>
	</g>
	<polygon class="st4" points="411.5,28.4 411.5,28.4 381.9,56.8 292.2,56.8 321.8,28.4 321.8,28.4 292.2,0.1 381.9,0.1 	"/>
	<g>
		<path class="st1" d="M421.8,61.5h-80.1c-1.6,0-2.9-1.3-2.9-2.9V26c0-1.6,1.3-2.9,2.9-2.9h80.1c1.6,0,2.9,1.3,2.9,2.9v32.6
			C424.7,60.2,423.4,61.5,421.8,61.5z"/>
		<path class="st2" d="M421.8,61.5h-80.1c-1.6,0-2.9-1.3-2.9-2.9V26c0-1.6,1.3-2.9,2.9-2.9h80.1c1.6,0,2.9,1.3,2.9,2.9v32.6
			C424.7,60.2,423.4,61.5,421.8,61.5z"/>
	</g>
	<polygon class="st5" points="552.4,28.4 552.4,28.4 522.8,56.7 433.1,56.7 462.7,28.4 462.7,28.4 433.1,0 522.8,0 	"/>
	<g>
		<path class="st1" d="M562.7,61.5h-80.1c-1.6,0-2.9-1.3-2.9-2.9V26c0-1.6,1.3-2.9,2.9-2.9h80.1c1.6,0,2.9,1.3,2.9,2.9v32.6
			C565.6,60.2,564.3,61.5,562.7,61.5z"/>
		<path class="st2" d="M562.7,61.5h-80.1c-1.6,0-2.9-1.3-2.9-2.9V26c0-1.6,1.3-2.9,2.9-2.9h80.1c1.6,0,2.9,1.3,2.9,2.9v32.6
			C565.6,60.2,564.3,61.5,562.7,61.5z"/>
	</g>
	<g>
		<path d="M80.5,34.9h-0.8c0-0.2-0.1-0.4-0.2-0.6c-0.1-0.2-0.3-0.3-0.4-0.4s-0.3-0.2-0.5-0.3c-0.2-0.1-0.4-0.1-0.6-0.1
			c-0.4,0-0.8,0.1-1.1,0.3c-0.3,0.2-0.6,0.5-0.8,0.9c-0.2,0.4-0.3,0.9-0.3,1.4c0,0.6,0.1,1,0.3,1.4c0.2,0.4,0.4,0.7,0.8,0.9
			c0.3,0.2,0.7,0.3,1.1,0.3c0.2,0,0.4,0,0.6-0.1c0.2-0.1,0.4-0.1,0.5-0.3s0.3-0.3,0.4-0.4c0.1-0.2,0.2-0.4,0.2-0.6h0.8
			c-0.1,0.3-0.2,0.6-0.3,0.9c-0.2,0.3-0.4,0.5-0.6,0.7s-0.5,0.3-0.8,0.4c-0.3,0.1-0.6,0.1-0.9,0.1c-0.6,0-1.1-0.1-1.5-0.4
			c-0.4-0.3-0.8-0.7-1-1.2c-0.2-0.5-0.4-1.1-0.4-1.8c0-0.7,0.1-1.3,0.4-1.8c0.2-0.5,0.6-0.9,1-1.2c0.4-0.3,0.9-0.4,1.5-0.4
			c0.3,0,0.6,0,0.9,0.1c0.3,0.1,0.6,0.2,0.8,0.4s0.4,0.4,0.6,0.7C80.3,34.2,80.4,34.5,80.5,34.9z"/>
		<path d="M82.4,32.8v6.5h-0.8v-6.5H82.4z"/>
		<path d="M84.2,33.6c-0.1,0-0.3-0.1-0.4-0.2s-0.2-0.2-0.2-0.4s0.1-0.3,0.2-0.4s0.2-0.2,0.4-0.2s0.3,0.1,0.4,0.2s0.2,0.2,0.2,0.4
			s-0.1,0.3-0.2,0.4S84.3,33.6,84.2,33.6z M83.8,39.4v-4.9h0.8v4.9H83.8z"/>
		<path d="M87.9,39.5c-0.5,0-0.9-0.1-1.2-0.3c-0.3-0.2-0.6-0.5-0.8-0.9c-0.2-0.4-0.3-0.8-0.3-1.3c0-0.5,0.1-0.9,0.3-1.3
			c0.2-0.4,0.4-0.7,0.8-0.9c0.3-0.2,0.7-0.3,1.2-0.3c0.3,0,0.7,0.1,0.9,0.2s0.5,0.3,0.7,0.5c0.2,0.2,0.3,0.5,0.3,0.8h-0.8
			c-0.1-0.2-0.2-0.4-0.4-0.6c-0.2-0.2-0.5-0.3-0.8-0.3c-0.3,0-0.6,0.1-0.8,0.2c-0.2,0.2-0.4,0.4-0.5,0.6c-0.1,0.3-0.2,0.6-0.2,1
			c0,0.4,0.1,0.7,0.2,1c0.1,0.3,0.3,0.5,0.5,0.7c0.2,0.2,0.5,0.2,0.8,0.2c0.2,0,0.4,0,0.5-0.1c0.2-0.1,0.3-0.2,0.4-0.3
			c0.1-0.1,0.2-0.3,0.2-0.5h0.8c0,0.3-0.1,0.6-0.3,0.8c-0.2,0.2-0.4,0.4-0.7,0.5S88.3,39.5,87.9,39.5z"/>
		<path d="M91,39.4v-6.5h0.8v6.5H91z M91.7,37.6l0-0.9h0.2l2.1-2.2h0.9l-2.3,2.3h-0.1L91.7,37.6z M94.1,39.4l-1.9-2.4l0.5-0.5l2.3,3
			H94.1z"/>
		<path d="M100.4,39.5c-0.4,0-0.8-0.1-1.2-0.3s-0.6-0.5-0.8-0.9c-0.2-0.4-0.3-0.8-0.3-1.3c0-0.5,0.1-1,0.3-1.3s0.4-0.7,0.8-0.9
			s0.7-0.3,1.2-0.3c0.4,0,0.8,0.1,1.2,0.3s0.6,0.5,0.8,0.9s0.3,0.8,0.3,1.3c0,0.5-0.1,1-0.3,1.3c-0.2,0.4-0.4,0.7-0.8,0.9
			S100.8,39.5,100.4,39.5z M100.4,38.8c0.3,0,0.6-0.1,0.8-0.3c0.2-0.2,0.4-0.4,0.5-0.7c0.1-0.3,0.2-0.6,0.2-0.9
			c0-0.3-0.1-0.6-0.2-0.9c-0.1-0.3-0.3-0.5-0.5-0.7c-0.2-0.2-0.5-0.3-0.8-0.3c-0.3,0-0.6,0.1-0.8,0.3c-0.2,0.2-0.4,0.4-0.5,0.7
			s-0.2,0.6-0.2,0.9c0,0.3,0.1,0.6,0.2,0.9s0.3,0.5,0.5,0.7C99.8,38.7,100,38.8,100.4,38.8z"/>
		<path d="M104.5,36.4v3h-0.8v-4.9h0.7v0.8h0.1c0.1-0.2,0.3-0.5,0.5-0.6c0.2-0.2,0.5-0.2,0.9-0.2c0.3,0,0.6,0.1,0.9,0.2
			c0.2,0.1,0.4,0.3,0.6,0.6c0.1,0.3,0.2,0.6,0.2,1v3.1h-0.8v-3.1c0-0.4-0.1-0.7-0.3-0.9s-0.5-0.3-0.8-0.3c-0.2,0-0.5,0.1-0.6,0.2
			c-0.2,0.1-0.3,0.3-0.4,0.5C104.6,35.9,104.5,36.1,104.5,36.4z"/>
		<path d="M112.4,32.8v6.5h-0.8v-6.5H112.4z"/>
		<path d="M114,39.4v-6.5h2.2c0.5,0,0.9,0.1,1.3,0.3c0.3,0.2,0.6,0.4,0.7,0.7c0.2,0.3,0.2,0.7,0.2,1c0,0.4-0.1,0.7-0.2,1.1
			c-0.2,0.3-0.4,0.6-0.7,0.8c-0.3,0.2-0.7,0.3-1.3,0.3h-1.6v-0.7h1.6c0.4,0,0.6-0.1,0.8-0.2c0.2-0.1,0.4-0.3,0.5-0.5
			c0.1-0.2,0.1-0.4,0.1-0.7c0-0.3,0-0.5-0.1-0.7c-0.1-0.2-0.3-0.4-0.5-0.5c-0.2-0.1-0.5-0.2-0.9-0.2h-1.4v5.8H114z"/>
		<path d="M125.3,36.1c0,0.7-0.1,1.3-0.4,1.8s-0.6,0.9-1,1.2c-0.4,0.3-0.9,0.4-1.5,0.4c-0.6,0-1.1-0.1-1.5-0.4
			c-0.4-0.3-0.8-0.7-1-1.2c-0.2-0.5-0.4-1.1-0.4-1.8c0-0.7,0.1-1.3,0.4-1.8c0.2-0.5,0.6-0.9,1-1.2c0.4-0.3,0.9-0.4,1.5-0.4
			c0.6,0,1.1,0.1,1.5,0.4c0.4,0.3,0.8,0.7,1,1.2S125.3,35.4,125.3,36.1z M124.5,36.1c0-0.6-0.1-1-0.3-1.4c-0.2-0.4-0.4-0.7-0.8-0.9
			c-0.3-0.2-0.7-0.3-1.1-0.3c-0.4,0-0.8,0.1-1.1,0.3c-0.3,0.2-0.6,0.5-0.8,0.9c-0.2,0.4-0.3,0.9-0.3,1.4c0,0.6,0.1,1,0.3,1.4
			c0.2,0.4,0.4,0.7,0.8,0.9c0.3,0.2,0.7,0.3,1.1,0.3c0.4,0,0.8-0.1,1.1-0.3c0.3-0.2,0.6-0.5,0.8-0.9
			C124.4,37.1,124.5,36.6,124.5,36.1z"/>
		<path class="st6" d="M77.1,50.2h-1l2.4-6.5h1.1l2.4,6.5h-1L79,44.8H79L77.1,50.2z M77.3,47.6h3.4v0.8h-3.4V47.6z"/>
		<path class="st6" d="M82.8,52v-6.8h0.9V46h0.1c0.1-0.1,0.1-0.2,0.2-0.4c0.1-0.1,0.2-0.3,0.4-0.4c0.2-0.1,0.4-0.2,0.7-0.2
			c0.4,0,0.8,0.1,1.1,0.3c0.3,0.2,0.6,0.5,0.7,0.9c0.2,0.4,0.3,0.8,0.3,1.4c0,0.5-0.1,1-0.3,1.4c-0.2,0.4-0.4,0.7-0.7,0.9
			c-0.3,0.2-0.7,0.3-1.1,0.3c-0.3,0-0.5,0-0.7-0.1s-0.3-0.2-0.4-0.4c-0.1-0.1-0.2-0.3-0.2-0.4h-0.1V52H82.8z M83.7,47.7
			c0,0.3,0.1,0.6,0.2,0.9s0.2,0.5,0.4,0.6c0.2,0.1,0.4,0.2,0.7,0.2c0.3,0,0.5-0.1,0.7-0.2c0.2-0.2,0.3-0.4,0.4-0.6s0.1-0.6,0.1-0.9
			c0-0.3,0-0.6-0.1-0.9c-0.1-0.3-0.2-0.5-0.4-0.6S85.3,46,85,46c-0.3,0-0.5,0.1-0.7,0.2c-0.2,0.1-0.3,0.3-0.4,0.6
			C83.8,47.1,83.7,47.4,83.7,47.7z"/>
		<path class="st6" d="M88.4,52v-6.8h0.9V46h0.1c0.1-0.1,0.1-0.2,0.2-0.4c0.1-0.1,0.2-0.3,0.4-0.4c0.2-0.1,0.4-0.2,0.7-0.2
			c0.4,0,0.8,0.1,1.1,0.3c0.3,0.2,0.6,0.5,0.7,0.9c0.2,0.4,0.3,0.8,0.3,1.4c0,0.5-0.1,1-0.3,1.4c-0.2,0.4-0.4,0.7-0.7,0.9
			c-0.3,0.2-0.7,0.3-1.1,0.3c-0.3,0-0.5,0-0.7-0.1s-0.3-0.2-0.4-0.4c-0.1-0.1-0.2-0.3-0.2-0.4h-0.1V52H88.4z M89.3,47.7
			c0,0.3,0.1,0.6,0.2,0.9s0.2,0.5,0.4,0.6c0.2,0.1,0.4,0.2,0.7,0.2c0.3,0,0.5-0.1,0.7-0.2c0.2-0.2,0.3-0.4,0.4-0.6s0.1-0.6,0.1-0.9
			c0-0.3,0-0.6-0.1-0.9c-0.1-0.3-0.2-0.5-0.4-0.6S90.9,46,90.6,46c-0.3,0-0.5,0.1-0.7,0.2c-0.2,0.1-0.3,0.3-0.4,0.6
			C89.3,47.1,89.3,47.4,89.3,47.7z"/>
		<path class="st6" d="M94.9,43.6v6.5h-1v-6.5H94.9z"/>
		<path class="st6" d="M96.6,44.5c-0.2,0-0.3-0.1-0.4-0.2S96,44.1,96,43.9c0-0.2,0.1-0.3,0.2-0.4s0.3-0.2,0.4-0.2s0.3,0.1,0.4,0.2
			s0.2,0.2,0.2,0.4c0,0.2-0.1,0.3-0.2,0.4S96.8,44.5,96.6,44.5z M96.2,50.2v-4.9h1v4.9H96.2z"/>
		<path class="st6" d="M100.5,50.3c-0.5,0-0.9-0.1-1.2-0.3c-0.3-0.2-0.6-0.5-0.8-0.9c-0.2-0.4-0.3-0.8-0.3-1.3
			c0-0.5,0.1-0.9,0.3-1.3c0.2-0.4,0.5-0.7,0.8-0.9c0.3-0.2,0.7-0.3,1.2-0.3c0.4,0,0.7,0.1,1,0.2c0.3,0.1,0.5,0.3,0.7,0.6
			s0.3,0.5,0.3,0.9h-0.9c-0.1-0.2-0.2-0.4-0.4-0.6c-0.2-0.2-0.4-0.2-0.7-0.2c-0.3,0-0.5,0.1-0.7,0.2c-0.2,0.1-0.4,0.3-0.5,0.6
			s-0.2,0.6-0.2,0.9c0,0.4,0.1,0.7,0.2,0.9c0.1,0.3,0.3,0.5,0.5,0.6c0.2,0.1,0.4,0.2,0.7,0.2c0.2,0,0.3,0,0.5-0.1
			c0.1-0.1,0.3-0.2,0.4-0.3c0.1-0.1,0.2-0.3,0.2-0.5h0.9c0,0.3-0.1,0.6-0.3,0.9c-0.2,0.2-0.4,0.4-0.7,0.6
			C101.2,50.2,100.9,50.3,100.5,50.3z"/>
		<path class="st6" d="M104.9,50.3c-0.3,0-0.6-0.1-0.8-0.2c-0.3-0.1-0.4-0.3-0.6-0.5c-0.1-0.2-0.2-0.5-0.2-0.8
			c0-0.3,0.1-0.5,0.2-0.7c0.1-0.2,0.2-0.3,0.4-0.4s0.4-0.2,0.6-0.2s0.5-0.1,0.7-0.1c0.3,0,0.5-0.1,0.7-0.1c0.2,0,0.3-0.1,0.4-0.1
			c0.1-0.1,0.1-0.1,0.1-0.2v0c0-0.3-0.1-0.5-0.2-0.6c-0.2-0.2-0.4-0.2-0.7-0.2c-0.3,0-0.6,0.1-0.8,0.2c-0.2,0.1-0.3,0.3-0.4,0.5
			l-0.9-0.2c0.1-0.3,0.3-0.5,0.5-0.7c0.2-0.2,0.4-0.3,0.7-0.4c0.3-0.1,0.6-0.1,0.8-0.1c0.2,0,0.4,0,0.6,0.1c0.2,0,0.4,0.1,0.6,0.3
			s0.4,0.3,0.5,0.5c0.1,0.2,0.2,0.5,0.2,0.9v3.3h-0.9v-0.7h0c-0.1,0.1-0.2,0.2-0.3,0.4c-0.1,0.1-0.3,0.2-0.5,0.3
			C105.4,50.2,105.2,50.3,104.9,50.3z M105.1,49.5c0.3,0,0.5-0.1,0.7-0.2s0.3-0.2,0.4-0.4c0.1-0.2,0.1-0.4,0.1-0.5v-0.6
			c0,0-0.1,0.1-0.2,0.1c-0.1,0-0.2,0.1-0.3,0.1c-0.1,0-0.2,0-0.4,0.1c-0.1,0-0.2,0-0.3,0c-0.2,0-0.4,0.1-0.5,0.1
			c-0.2,0.1-0.3,0.1-0.4,0.2c-0.1,0.1-0.1,0.2-0.1,0.4c0,0.2,0.1,0.4,0.3,0.5C104.6,49.4,104.9,49.5,105.1,49.5z"/>
		<path class="st6" d="M110.9,45.2V46h-2.7v-0.8H110.9z M109,44.1h1v4.6c0,0.2,0,0.3,0.1,0.4c0.1,0.1,0.1,0.2,0.2,0.2
			c0.1,0,0.2,0,0.3,0c0.1,0,0.1,0,0.2,0s0.1,0,0.1,0l0.2,0.8c-0.1,0-0.1,0-0.2,0.1c-0.1,0-0.2,0-0.4,0c-0.3,0-0.5,0-0.7-0.1
			c-0.2-0.1-0.4-0.2-0.5-0.4c-0.1-0.2-0.2-0.4-0.2-0.7V44.1z"/>
		<path class="st6" d="M112.5,44.5c-0.2,0-0.3-0.1-0.4-0.2s-0.2-0.2-0.2-0.4c0-0.2,0.1-0.3,0.2-0.4s0.3-0.2,0.4-0.2s0.3,0.1,0.4,0.2
			s0.2,0.2,0.2,0.4c0,0.2-0.1,0.3-0.2,0.4S112.6,44.5,112.5,44.5z M112,50.2v-4.9h1v4.9H112z"/>
		<path class="st6" d="M116.3,50.3c-0.5,0-0.9-0.1-1.2-0.3c-0.3-0.2-0.6-0.5-0.8-0.9s-0.3-0.8-0.3-1.3c0-0.5,0.1-1,0.3-1.3
			s0.5-0.7,0.8-0.9c0.3-0.2,0.7-0.3,1.2-0.3c0.5,0,0.9,0.1,1.2,0.3s0.6,0.5,0.8,0.9s0.3,0.8,0.3,1.3c0,0.5-0.1,1-0.3,1.3
			s-0.5,0.7-0.8,0.9S116.7,50.3,116.3,50.3z M116.3,49.5c0.3,0,0.5-0.1,0.7-0.2s0.3-0.4,0.4-0.6c0.1-0.3,0.1-0.6,0.1-0.9
			c0-0.3,0-0.6-0.1-0.9c-0.1-0.3-0.2-0.5-0.4-0.6c-0.2-0.2-0.4-0.2-0.7-0.2c-0.3,0-0.5,0.1-0.7,0.2c-0.2,0.2-0.3,0.4-0.4,0.6
			s-0.1,0.6-0.1,0.9c0,0.3,0,0.6,0.1,0.9s0.2,0.5,0.4,0.6C115.7,49.4,116,49.5,116.3,49.5z"/>
		<path class="st6" d="M120.6,47.2v2.9h-1v-4.9h0.9V46h0.1c0.1-0.3,0.3-0.5,0.5-0.6c0.2-0.2,0.5-0.2,0.9-0.2c0.3,0,0.6,0.1,0.9,0.2
			c0.3,0.1,0.4,0.3,0.6,0.6s0.2,0.6,0.2,1v3.1h-1v-3c0-0.4-0.1-0.6-0.3-0.8s-0.4-0.3-0.8-0.3c-0.2,0-0.4,0-0.6,0.1
			c-0.2,0.1-0.3,0.2-0.4,0.4C120.6,46.8,120.6,47,120.6,47.2z"/>
	</g>
	<g>
		<path d="M210,39.8c0-0.3-0.2-0.6-0.5-0.8c-0.3-0.2-0.6-0.3-1-0.3c-0.3,0-0.5,0-0.8,0.1s-0.4,0.2-0.5,0.4c-0.1,0.2-0.2,0.4-0.2,0.6
			c0,0.2,0,0.3,0.1,0.4c0.1,0.1,0.2,0.2,0.3,0.3c0.1,0.1,0.3,0.1,0.4,0.2c0.1,0.1,0.3,0.1,0.4,0.1l0.7,0.2c0.2,0,0.4,0.1,0.6,0.2
			c0.2,0.1,0.4,0.2,0.6,0.3c0.2,0.1,0.4,0.3,0.5,0.5c0.1,0.2,0.2,0.5,0.2,0.8c0,0.4-0.1,0.7-0.3,1c-0.2,0.3-0.5,0.5-0.8,0.7
			c-0.4,0.2-0.8,0.3-1.3,0.3c-0.5,0-0.9-0.1-1.2-0.2c-0.3-0.2-0.6-0.4-0.8-0.6c-0.2-0.3-0.3-0.6-0.3-0.9h0.8c0,0.2,0.1,0.5,0.3,0.6
			c0.1,0.2,0.3,0.3,0.6,0.4c0.2,0.1,0.5,0.1,0.7,0.1c0.3,0,0.6,0,0.8-0.1s0.4-0.2,0.6-0.4c0.1-0.2,0.2-0.4,0.2-0.6
			c0-0.2-0.1-0.4-0.2-0.5c-0.1-0.1-0.3-0.2-0.5-0.3c-0.2-0.1-0.4-0.2-0.6-0.2l-0.8-0.2c-0.5-0.1-0.9-0.4-1.2-0.6
			c-0.3-0.3-0.4-0.6-0.4-1.1c0-0.4,0.1-0.7,0.3-1c0.2-0.3,0.5-0.5,0.8-0.6c0.3-0.2,0.7-0.2,1.1-0.2c0.4,0,0.8,0.1,1.1,0.2
			s0.6,0.4,0.8,0.6c0.2,0.3,0.3,0.6,0.3,0.9H210z"/>
		<path d="M214.1,44.8c-0.5,0-0.9-0.1-1.2-0.3c-0.3-0.2-0.6-0.5-0.8-0.9c-0.2-0.4-0.3-0.8-0.3-1.3s0.1-0.9,0.3-1.3
			c0.2-0.4,0.4-0.7,0.8-0.9c0.3-0.2,0.7-0.3,1.2-0.3c0.3,0,0.5,0,0.8,0.1c0.2,0.1,0.5,0.2,0.7,0.4c0.2,0.2,0.4,0.4,0.5,0.8
			c0.1,0.3,0.2,0.7,0.2,1.2v0.3h-3.8v-0.7h3c0-0.3-0.1-0.5-0.2-0.7s-0.3-0.4-0.5-0.5c-0.2-0.1-0.4-0.2-0.7-0.2
			c-0.3,0-0.6,0.1-0.8,0.2s-0.4,0.3-0.5,0.6c-0.1,0.2-0.2,0.5-0.2,0.8v0.4c0,0.4,0.1,0.7,0.2,0.9s0.3,0.5,0.5,0.6
			c0.2,0.1,0.5,0.2,0.8,0.2c0.2,0,0.4,0,0.5-0.1c0.2-0.1,0.3-0.1,0.4-0.3c0.1-0.1,0.2-0.3,0.3-0.4l0.7,0.2c-0.1,0.2-0.2,0.5-0.4,0.7
			s-0.4,0.3-0.7,0.4C214.8,44.7,214.5,44.8,214.1,44.8z"/>
		<path d="M218.1,38.2v6.5h-0.8v-6.5H218.1z"/>
		<path d="M221.5,44.8c-0.5,0-0.9-0.1-1.2-0.3c-0.3-0.2-0.6-0.5-0.8-0.9c-0.2-0.4-0.3-0.8-0.3-1.3s0.1-0.9,0.3-1.3
			c0.2-0.4,0.4-0.7,0.8-0.9c0.3-0.2,0.7-0.3,1.2-0.3c0.3,0,0.5,0,0.8,0.1c0.2,0.1,0.5,0.2,0.7,0.4c0.2,0.2,0.4,0.4,0.5,0.8
			c0.1,0.3,0.2,0.7,0.2,1.2v0.3h-3.8v-0.7h3c0-0.3-0.1-0.5-0.2-0.7s-0.3-0.4-0.5-0.5c-0.2-0.1-0.4-0.2-0.7-0.2
			c-0.3,0-0.6,0.1-0.8,0.2s-0.4,0.3-0.5,0.6c-0.1,0.2-0.2,0.5-0.2,0.8v0.4c0,0.4,0.1,0.7,0.2,0.9s0.3,0.5,0.5,0.6
			c0.2,0.1,0.5,0.2,0.8,0.2c0.2,0,0.4,0,0.5-0.1c0.2-0.1,0.3-0.1,0.4-0.3c0.1-0.1,0.2-0.3,0.3-0.4l0.7,0.2c-0.1,0.2-0.2,0.5-0.4,0.7
			s-0.4,0.3-0.7,0.4C222.2,44.7,221.9,44.8,221.5,44.8z"/>
		<path d="M226.7,44.8c-0.5,0-0.9-0.1-1.2-0.3c-0.3-0.2-0.6-0.5-0.8-0.9c-0.2-0.4-0.3-0.8-0.3-1.3c0-0.5,0.1-0.9,0.3-1.3
			c0.2-0.4,0.4-0.7,0.8-0.9c0.3-0.2,0.7-0.3,1.2-0.3c0.3,0,0.7,0.1,0.9,0.2s0.5,0.3,0.7,0.5c0.2,0.2,0.3,0.5,0.3,0.8h-0.8
			c-0.1-0.2-0.2-0.4-0.4-0.6c-0.2-0.2-0.5-0.3-0.8-0.3c-0.3,0-0.6,0.1-0.8,0.2c-0.2,0.2-0.4,0.4-0.5,0.6c-0.1,0.3-0.2,0.6-0.2,1
			c0,0.4,0.1,0.7,0.2,1c0.1,0.3,0.3,0.5,0.5,0.7c0.2,0.2,0.5,0.2,0.8,0.2c0.2,0,0.4,0,0.5-0.1c0.2-0.1,0.3-0.2,0.4-0.3
			c0.1-0.1,0.2-0.3,0.2-0.5h0.8c0,0.3-0.1,0.6-0.3,0.8c-0.2,0.2-0.4,0.4-0.7,0.5S227.1,44.8,226.7,44.8z"/>
		<path d="M231.9,39.8v0.6h-2.5v-0.6H231.9z M230.1,38.6h0.8v4.7c0,0.2,0,0.4,0.1,0.5c0.1,0.1,0.1,0.2,0.2,0.2s0.2,0.1,0.3,0.1
			c0.1,0,0.2,0,0.2,0s0.1,0,0.1,0l0.2,0.7c-0.1,0-0.1,0-0.2,0.1c-0.1,0-0.2,0-0.3,0c-0.2,0-0.4,0-0.6-0.1c-0.2-0.1-0.4-0.2-0.5-0.4
			c-0.1-0.2-0.2-0.4-0.2-0.7V38.6z"/>
		<path class="st6" d="M241,40.3h-1c0-0.2-0.1-0.4-0.2-0.6c-0.1-0.2-0.2-0.3-0.4-0.4s-0.3-0.2-0.5-0.3s-0.4-0.1-0.6-0.1
			c-0.4,0-0.7,0.1-1,0.3s-0.5,0.5-0.7,0.8c-0.2,0.4-0.3,0.8-0.3,1.3c0,0.5,0.1,1,0.3,1.3c0.2,0.4,0.4,0.6,0.7,0.8
			c0.3,0.2,0.6,0.3,1,0.3c0.2,0,0.4,0,0.6-0.1s0.4-0.1,0.5-0.3s0.3-0.2,0.4-0.4c0.1-0.2,0.2-0.3,0.2-0.6l1,0
			c-0.1,0.3-0.2,0.6-0.3,0.9s-0.3,0.5-0.6,0.7s-0.5,0.3-0.8,0.5s-0.6,0.2-1,0.2c-0.6,0-1.1-0.1-1.5-0.4c-0.4-0.3-0.8-0.7-1-1.2
			c-0.3-0.5-0.4-1.1-0.4-1.8c0-0.7,0.1-1.3,0.4-1.8c0.3-0.5,0.6-0.9,1-1.2s0.9-0.4,1.5-0.4c0.3,0,0.7,0,1,0.1
			c0.3,0.1,0.6,0.2,0.8,0.4c0.2,0.2,0.4,0.4,0.6,0.7S240.9,39.9,241,40.3z"/>
		<path class="st6" d="M244.2,44.8c-0.5,0-0.9-0.1-1.2-0.3c-0.3-0.2-0.6-0.5-0.8-0.9c-0.2-0.4-0.3-0.8-0.3-1.3c0-0.5,0.1-1,0.3-1.3
			c0.2-0.4,0.5-0.7,0.8-0.9c0.3-0.2,0.7-0.3,1.2-0.3c0.5,0,0.9,0.1,1.2,0.3c0.3,0.2,0.6,0.5,0.8,0.9c0.2,0.4,0.3,0.8,0.3,1.3
			c0,0.5-0.1,1-0.3,1.3c-0.2,0.4-0.5,0.7-0.8,0.9C245,44.7,244.6,44.8,244.2,44.8z M244.2,44c0.3,0,0.5-0.1,0.7-0.2
			c0.2-0.2,0.3-0.4,0.4-0.6s0.1-0.6,0.1-0.9c0-0.3,0-0.6-0.1-0.9s-0.2-0.5-0.4-0.6c-0.2-0.2-0.4-0.2-0.7-0.2c-0.3,0-0.5,0.1-0.7,0.2
			c-0.2,0.2-0.3,0.4-0.4,0.6s-0.1,0.6-0.1,0.9c0,0.3,0,0.6,0.1,0.9s0.2,0.5,0.4,0.6C243.6,43.9,243.9,44,244.2,44z"/>
		<path class="st6" d="M247.5,44.7v-4.9h0.9v0.8h0.1c0.1-0.3,0.3-0.5,0.5-0.6c0.2-0.2,0.5-0.2,0.8-0.2c0.3,0,0.6,0.1,0.8,0.2
			c0.2,0.2,0.4,0.4,0.5,0.6h0.1c0.1-0.3,0.3-0.5,0.6-0.6c0.3-0.2,0.6-0.2,0.9-0.2c0.4,0,0.8,0.1,1.1,0.4c0.3,0.3,0.4,0.7,0.4,1.3
			v3.3h-1v-3.2c0-0.3-0.1-0.6-0.3-0.7c-0.2-0.1-0.4-0.2-0.6-0.2c-0.3,0-0.6,0.1-0.7,0.3c-0.2,0.2-0.3,0.4-0.3,0.7v3.1h-1v-3.3
			c0-0.3-0.1-0.5-0.2-0.6c-0.2-0.2-0.4-0.2-0.6-0.2c-0.2,0-0.3,0-0.5,0.1s-0.3,0.2-0.4,0.4c-0.1,0.2-0.1,0.4-0.1,0.6v3H247.5z"/>
		<path class="st6" d="M255.5,46.5v-6.8h0.9v0.8h0.1c0.1-0.1,0.1-0.2,0.2-0.4c0.1-0.1,0.2-0.3,0.4-0.4s0.4-0.2,0.7-0.2
			c0.4,0,0.8,0.1,1.1,0.3c0.3,0.2,0.6,0.5,0.7,0.9c0.2,0.4,0.3,0.8,0.3,1.4c0,0.5-0.1,1-0.3,1.4c-0.2,0.4-0.4,0.7-0.7,0.9
			c-0.3,0.2-0.7,0.3-1.1,0.3c-0.3,0-0.5,0-0.7-0.1c-0.2-0.1-0.3-0.2-0.4-0.4s-0.2-0.3-0.2-0.4h-0.1v2.6H255.5z M256.4,42.2
			c0,0.3,0,0.6,0.2,0.9c0.1,0.3,0.2,0.5,0.4,0.6c0.2,0.1,0.4,0.2,0.7,0.2c0.3,0,0.5-0.1,0.7-0.2c0.2-0.2,0.3-0.4,0.4-0.6
			c0.1-0.3,0.1-0.6,0.1-0.9c0-0.3,0-0.6-0.1-0.9s-0.2-0.5-0.4-0.6c-0.2-0.1-0.4-0.2-0.7-0.2c-0.3,0-0.5,0.1-0.7,0.2
			c-0.2,0.1-0.3,0.3-0.4,0.6C256.5,41.6,256.4,41.9,256.4,42.2z"/>
		<path class="st6" d="M262.5,44.8c-0.3,0-0.6-0.1-0.8-0.2c-0.3-0.1-0.5-0.3-0.6-0.5c-0.1-0.2-0.2-0.5-0.2-0.8
			c0-0.3,0.1-0.5,0.2-0.7c0.1-0.2,0.2-0.3,0.4-0.4c0.2-0.1,0.4-0.2,0.6-0.2c0.2-0.1,0.5-0.1,0.7-0.1c0.3,0,0.5-0.1,0.7-0.1
			c0.2,0,0.3-0.1,0.4-0.1c0.1-0.1,0.1-0.1,0.1-0.2v0c0-0.3-0.1-0.5-0.2-0.6c-0.2-0.2-0.4-0.2-0.7-0.2c-0.3,0-0.6,0.1-0.8,0.2
			c-0.2,0.1-0.3,0.3-0.4,0.5l-0.9-0.2c0.1-0.3,0.3-0.5,0.5-0.7c0.2-0.2,0.4-0.3,0.7-0.4c0.3-0.1,0.6-0.1,0.8-0.1
			c0.2,0,0.4,0,0.6,0.1s0.4,0.1,0.6,0.3c0.2,0.1,0.4,0.3,0.5,0.5c0.1,0.2,0.2,0.5,0.2,0.9v3.3h-0.9V44h0c-0.1,0.1-0.2,0.2-0.3,0.4
			c-0.1,0.1-0.3,0.2-0.5,0.3C263,44.8,262.7,44.8,262.5,44.8z M262.7,44c0.3,0,0.5-0.1,0.7-0.2s0.3-0.2,0.4-0.4
			c0.1-0.2,0.1-0.4,0.1-0.5v-0.6c0,0-0.1,0.1-0.2,0.1c-0.1,0-0.2,0.1-0.3,0.1c-0.1,0-0.2,0-0.4,0.1c-0.1,0-0.2,0-0.3,0
			c-0.2,0-0.4,0.1-0.5,0.1c-0.2,0.1-0.3,0.1-0.4,0.2c-0.1,0.1-0.1,0.2-0.1,0.4c0,0.2,0.1,0.4,0.3,0.5C262.2,44,262.4,44,262.7,44z"
			/>
		<path class="st6" d="M267.1,41.8v2.9h-1v-4.9h0.9v0.8h0.1c0.1-0.3,0.3-0.5,0.5-0.6c0.2-0.2,0.5-0.2,0.9-0.2c0.3,0,0.6,0.1,0.9,0.2
			c0.3,0.1,0.4,0.3,0.6,0.6s0.2,0.6,0.2,1v3.1h-1v-3c0-0.4-0.1-0.6-0.3-0.8s-0.4-0.3-0.8-0.3c-0.2,0-0.4,0-0.6,0.1
			c-0.2,0.1-0.3,0.2-0.4,0.4C267.2,41.3,267.1,41.5,267.1,41.8z"/>
		<path class="st6" d="M272.1,46.5c-0.1,0-0.3,0-0.4,0c-0.1,0-0.2,0-0.3-0.1l0.2-0.8c0.2,0,0.3,0.1,0.5,0.1c0.1,0,0.3-0.1,0.4-0.2
			c0.1-0.1,0.2-0.3,0.3-0.5l0.1-0.3l-1.8-5h1l1.2,3.8h0.1l1.2-3.8h1l-2,5.6c-0.1,0.3-0.2,0.5-0.4,0.7c-0.1,0.2-0.3,0.3-0.5,0.4
			C272.6,46.5,272.4,46.5,272.1,46.5z"/>
	</g>
	<g>
		<path d="M353.4,35.7h-0.8c0-0.2-0.1-0.4-0.2-0.6c-0.1-0.2-0.3-0.3-0.4-0.4s-0.3-0.2-0.5-0.3c-0.2-0.1-0.4-0.1-0.6-0.1
			c-0.4,0-0.8,0.1-1.1,0.3c-0.3,0.2-0.6,0.5-0.8,0.9c-0.2,0.4-0.3,0.9-0.3,1.4c0,0.6,0.1,1,0.3,1.4c0.2,0.4,0.4,0.7,0.8,0.9
			c0.3,0.2,0.7,0.3,1.1,0.3c0.2,0,0.4,0,0.6-0.1c0.2-0.1,0.4-0.1,0.5-0.3s0.3-0.3,0.4-0.4c0.1-0.2,0.2-0.4,0.2-0.6h0.8
			c-0.1,0.3-0.2,0.6-0.3,0.9c-0.2,0.3-0.4,0.5-0.6,0.7s-0.5,0.3-0.8,0.4c-0.3,0.1-0.6,0.1-0.9,0.1c-0.6,0-1.1-0.1-1.5-0.4
			c-0.4-0.3-0.8-0.7-1-1.2c-0.2-0.5-0.4-1.1-0.4-1.8c0-0.7,0.1-1.3,0.4-1.8c0.2-0.5,0.6-0.9,1-1.2c0.4-0.3,0.9-0.4,1.5-0.4
			c0.3,0,0.6,0,0.9,0.1c0.3,0.1,0.6,0.2,0.8,0.4s0.4,0.4,0.6,0.7C353.2,35.1,353.3,35.4,353.4,35.7z"/>
		<path d="M355.3,37.3v3h-0.8v-6.5h0.8v2.4h0.1c0.1-0.3,0.3-0.5,0.5-0.6c0.2-0.2,0.5-0.2,0.9-0.2c0.3,0,0.6,0.1,0.9,0.2
			c0.3,0.1,0.4,0.3,0.6,0.6c0.1,0.3,0.2,0.6,0.2,1v3.1h-0.8v-3.1c0-0.4-0.1-0.7-0.3-0.9c-0.2-0.2-0.5-0.3-0.8-0.3
			c-0.2,0-0.5,0.1-0.7,0.2c-0.2,0.1-0.3,0.3-0.5,0.5S355.3,37,355.3,37.3z"/>
		<path d="M361.9,40.4c-0.5,0-0.9-0.1-1.2-0.3c-0.3-0.2-0.6-0.5-0.8-0.9c-0.2-0.4-0.3-0.8-0.3-1.3s0.1-0.9,0.3-1.3
			c0.2-0.4,0.4-0.7,0.8-0.9c0.3-0.2,0.7-0.3,1.2-0.3c0.3,0,0.5,0,0.8,0.1c0.2,0.1,0.5,0.2,0.7,0.4c0.2,0.2,0.4,0.4,0.5,0.8
			c0.1,0.3,0.2,0.7,0.2,1.2v0.3h-3.8v-0.7h3c0-0.3-0.1-0.5-0.2-0.7s-0.3-0.4-0.5-0.5c-0.2-0.1-0.4-0.2-0.7-0.2
			c-0.3,0-0.6,0.1-0.8,0.2s-0.4,0.3-0.5,0.6c-0.1,0.2-0.2,0.5-0.2,0.8v0.4c0,0.4,0.1,0.7,0.2,0.9s0.3,0.5,0.5,0.6
			c0.2,0.1,0.5,0.2,0.8,0.2c0.2,0,0.4,0,0.5-0.1c0.2-0.1,0.3-0.1,0.4-0.3c0.1-0.1,0.2-0.3,0.3-0.4l0.7,0.2c-0.1,0.2-0.2,0.5-0.4,0.7
			s-0.4,0.3-0.7,0.4C362.5,40.3,362.2,40.4,361.9,40.4z"/>
		<path d="M367.1,40.4c-0.5,0-0.9-0.1-1.2-0.3c-0.3-0.2-0.6-0.5-0.8-0.9c-0.2-0.4-0.3-0.8-0.3-1.3c0-0.5,0.1-0.9,0.3-1.3
			c0.2-0.4,0.4-0.7,0.8-0.9c0.3-0.2,0.7-0.3,1.2-0.3c0.3,0,0.7,0.1,0.9,0.2s0.5,0.3,0.7,0.5c0.2,0.2,0.3,0.5,0.3,0.8h-0.8
			c-0.1-0.2-0.2-0.4-0.4-0.6c-0.2-0.2-0.5-0.3-0.8-0.3c-0.3,0-0.6,0.1-0.8,0.2c-0.2,0.2-0.4,0.4-0.5,0.6c-0.1,0.3-0.2,0.6-0.2,1
			c0,0.4,0.1,0.7,0.2,1c0.1,0.3,0.3,0.5,0.5,0.7c0.2,0.2,0.5,0.2,0.8,0.2c0.2,0,0.4,0,0.5-0.1c0.2-0.1,0.3-0.2,0.4-0.3
			c0.1-0.1,0.2-0.3,0.2-0.5h0.8c0,0.3-0.1,0.6-0.3,0.8c-0.2,0.2-0.4,0.4-0.7,0.5S367.5,40.4,367.1,40.4z"/>
		<path d="M370.1,40.2v-6.5h0.8v6.5H370.1z M370.8,38.5l0-0.9h0.2l2.1-2.2h0.9l-2.3,2.3h-0.1L370.8,38.5z M373.2,40.2l-1.9-2.4
			l0.5-0.5l2.3,3H373.2z"/>
		<path class="st6" d="M378.1,40.2h-1l2.4-6.5h1.1l2.4,6.5h-1l-1.9-5.4H380L378.1,40.2z M378.3,37.7h3.4v0.8h-3.4V37.7z"/>
		<path class="st6" d="M388,35.3l-1.8,4.9h-1l-1.8-4.9h1l1.2,3.8h0.1l1.2-3.8H388z"/>
		<path class="st6" d="M390.3,40.4c-0.3,0-0.6-0.1-0.8-0.2c-0.3-0.1-0.4-0.3-0.6-0.5c-0.1-0.2-0.2-0.5-0.2-0.8
			c0-0.3,0.1-0.5,0.2-0.7c0.1-0.2,0.2-0.3,0.4-0.4s0.4-0.2,0.6-0.2s0.5-0.1,0.7-0.1c0.3,0,0.5-0.1,0.7-0.1c0.2,0,0.3-0.1,0.4-0.1
			c0.1-0.1,0.1-0.1,0.1-0.2v0c0-0.3-0.1-0.5-0.2-0.6c-0.2-0.2-0.4-0.2-0.7-0.2c-0.3,0-0.6,0.1-0.8,0.2c-0.2,0.1-0.3,0.3-0.4,0.5
			l-0.9-0.2c0.1-0.3,0.3-0.5,0.5-0.7c0.2-0.2,0.4-0.3,0.7-0.4c0.3-0.1,0.6-0.1,0.8-0.1c0.2,0,0.4,0,0.6,0.1s0.4,0.1,0.6,0.3
			c0.2,0.1,0.3,0.3,0.5,0.5c0.1,0.2,0.2,0.5,0.2,0.9v3.3h-0.9v-0.7h0c-0.1,0.1-0.2,0.2-0.3,0.4c-0.1,0.1-0.3,0.2-0.5,0.3
			C390.8,40.3,390.6,40.4,390.3,40.4z M390.5,39.6c0.3,0,0.5-0.1,0.7-0.2c0.2-0.1,0.3-0.2,0.4-0.4s0.1-0.4,0.1-0.5v-0.6
			c0,0-0.1,0.1-0.2,0.1c-0.1,0-0.2,0.1-0.3,0.1c-0.1,0-0.2,0-0.4,0.1c-0.1,0-0.2,0-0.3,0c-0.2,0-0.4,0.1-0.5,0.1
			c-0.2,0.1-0.3,0.1-0.4,0.2c-0.1,0.1-0.1,0.2-0.1,0.4c0,0.2,0.1,0.4,0.3,0.5C390,39.5,390.3,39.6,390.5,39.6z"/>
		<path class="st6" d="M394.5,34.6c-0.2,0-0.3-0.1-0.4-0.2s-0.2-0.2-0.2-0.4c0-0.2,0.1-0.3,0.2-0.4s0.3-0.2,0.4-0.2s0.3,0.1,0.4,0.2
			s0.2,0.2,0.2,0.4c0,0.2-0.1,0.3-0.2,0.4S394.7,34.6,394.5,34.6z M394,40.2v-4.9h1v4.9H394z"/>
		<path class="st6" d="M397.2,33.7v6.5h-1v-6.5H397.2z"/>
		<path class="st6" d="M399.9,40.4c-0.3,0-0.6-0.1-0.8-0.2c-0.3-0.1-0.5-0.3-0.6-0.5c-0.1-0.2-0.2-0.5-0.2-0.8
			c0-0.3,0.1-0.5,0.2-0.7c0.1-0.2,0.2-0.3,0.4-0.4c0.2-0.1,0.4-0.2,0.6-0.2c0.2-0.1,0.5-0.1,0.7-0.1c0.3,0,0.5-0.1,0.7-0.1
			c0.2,0,0.3-0.1,0.4-0.1c0.1-0.1,0.1-0.1,0.1-0.2v0c0-0.3-0.1-0.5-0.2-0.6c-0.2-0.2-0.4-0.2-0.7-0.2c-0.3,0-0.6,0.1-0.8,0.2
			c-0.2,0.1-0.3,0.3-0.4,0.5l-0.9-0.2c0.1-0.3,0.3-0.5,0.5-0.7c0.2-0.2,0.4-0.3,0.7-0.4c0.3-0.1,0.6-0.1,0.8-0.1
			c0.2,0,0.4,0,0.6,0.1s0.4,0.1,0.6,0.3c0.2,0.1,0.4,0.3,0.5,0.5c0.1,0.2,0.2,0.5,0.2,0.9v3.3h-0.9v-0.7h0c-0.1,0.1-0.2,0.2-0.3,0.4
			c-0.1,0.1-0.3,0.2-0.5,0.3C400.4,40.3,400.2,40.4,399.9,40.4z M400.1,39.6c0.3,0,0.5-0.1,0.7-0.2s0.3-0.2,0.4-0.4
			c0.1-0.2,0.1-0.4,0.1-0.5v-0.6c0,0-0.1,0.1-0.2,0.1c-0.1,0-0.2,0.1-0.3,0.1c-0.1,0-0.2,0-0.4,0.1c-0.1,0-0.2,0-0.3,0
			c-0.2,0-0.4,0.1-0.5,0.1c-0.2,0.1-0.3,0.1-0.4,0.2c-0.1,0.1-0.1,0.2-0.1,0.4c0,0.2,0.1,0.4,0.3,0.5
			C399.6,39.5,399.9,39.6,400.1,39.6z"/>
		<path class="st6" d="M403.7,40.2v-6.5h1v2.4h0.1c0.1-0.1,0.1-0.2,0.2-0.4c0.1-0.1,0.2-0.3,0.4-0.4c0.2-0.1,0.4-0.2,0.7-0.2
			c0.4,0,0.8,0.1,1.1,0.3c0.3,0.2,0.6,0.5,0.7,0.9c0.2,0.4,0.3,0.8,0.3,1.4c0,0.5-0.1,1-0.3,1.4c-0.2,0.4-0.4,0.7-0.7,0.9
			c-0.3,0.2-0.7,0.3-1.1,0.3c-0.3,0-0.5,0-0.7-0.1s-0.3-0.2-0.4-0.4s-0.2-0.3-0.2-0.4h-0.1v0.8H403.7z M404.6,37.8
			c0,0.3,0.1,0.6,0.2,0.9c0.1,0.3,0.2,0.5,0.4,0.6s0.4,0.2,0.7,0.2c0.3,0,0.5-0.1,0.7-0.2c0.2-0.2,0.3-0.4,0.4-0.6
			c0.1-0.3,0.1-0.6,0.1-0.9c0-0.3,0-0.6-0.1-0.9c-0.1-0.3-0.2-0.5-0.4-0.6c-0.2-0.1-0.4-0.2-0.7-0.2c-0.3,0-0.5,0.1-0.7,0.2
			c-0.2,0.1-0.3,0.3-0.4,0.6C404.7,37.2,404.6,37.5,404.6,37.8z"/>
		<path class="st6" d="M410.2,33.7v6.5h-1v-6.5H410.2z"/>
		<path class="st6" d="M413.6,40.3c-0.5,0-0.9-0.1-1.2-0.3c-0.3-0.2-0.6-0.5-0.8-0.9c-0.2-0.4-0.3-0.8-0.3-1.3
			c0-0.5,0.1-0.9,0.3-1.3c0.2-0.4,0.5-0.7,0.8-0.9c0.3-0.2,0.7-0.3,1.2-0.3c0.3,0,0.5,0,0.8,0.1c0.3,0.1,0.5,0.2,0.7,0.4
			c0.2,0.2,0.4,0.5,0.5,0.8c0.1,0.3,0.2,0.7,0.2,1.1v0.3h-3.9v-0.7h3c0-0.3-0.1-0.5-0.2-0.7c-0.1-0.2-0.2-0.3-0.4-0.5
			s-0.4-0.2-0.6-0.2c-0.3,0-0.5,0.1-0.7,0.2c-0.2,0.1-0.4,0.3-0.5,0.5c-0.1,0.2-0.2,0.4-0.2,0.7V38c0,0.3,0.1,0.6,0.2,0.8
			c0.1,0.2,0.3,0.4,0.5,0.5c0.2,0.1,0.5,0.2,0.7,0.2c0.2,0,0.3,0,0.5-0.1c0.1-0.1,0.3-0.1,0.4-0.2c0.1-0.1,0.2-0.2,0.2-0.4l0.9,0.2
			c-0.1,0.3-0.2,0.5-0.4,0.7s-0.4,0.4-0.7,0.5C414.3,40.3,414,40.3,413.6,40.3z"/>
		<path class="st6" d="M365.4,51v-6.5h2.4c0.5,0,0.8,0.1,1.2,0.2s0.5,0.4,0.7,0.6c0.2,0.3,0.2,0.6,0.2,0.9c0,0.3,0,0.5-0.1,0.7
			c-0.1,0.2-0.2,0.3-0.4,0.4s-0.4,0.2-0.6,0.2v0.1c0.2,0,0.4,0.1,0.6,0.2c0.2,0.1,0.4,0.3,0.5,0.5c0.1,0.2,0.2,0.5,0.2,0.9
			c0,0.3-0.1,0.6-0.2,0.9c-0.2,0.3-0.4,0.5-0.7,0.6c-0.3,0.2-0.7,0.2-1.2,0.2H365.4z M366.4,47.3h1.3c0.2,0,0.4,0,0.6-0.1
			c0.2-0.1,0.3-0.2,0.4-0.4s0.2-0.3,0.2-0.5c0-0.3-0.1-0.5-0.3-0.7c-0.2-0.2-0.5-0.3-0.9-0.3h-1.3V47.3z M366.4,50.2h1.4
			c0.5,0,0.8-0.1,1-0.3c0.2-0.2,0.3-0.4,0.3-0.7c0-0.2-0.1-0.4-0.2-0.6c-0.1-0.2-0.3-0.3-0.4-0.4c-0.2-0.1-0.4-0.2-0.7-0.2h-1.5
			V50.2z"/>
		<path class="st6" d="M372.6,51.2c-0.3,0-0.6-0.1-0.8-0.2c-0.3-0.1-0.4-0.3-0.6-0.5c-0.1-0.2-0.2-0.5-0.2-0.8
			c0-0.3,0.1-0.5,0.2-0.7c0.1-0.2,0.2-0.3,0.4-0.4s0.4-0.2,0.6-0.2s0.5-0.1,0.7-0.1c0.3,0,0.5-0.1,0.7-0.1c0.2,0,0.3-0.1,0.4-0.1
			c0.1-0.1,0.1-0.1,0.1-0.2v0c0-0.3-0.1-0.5-0.2-0.6c-0.2-0.2-0.4-0.2-0.7-0.2c-0.3,0-0.6,0.1-0.8,0.2c-0.2,0.1-0.3,0.3-0.4,0.5
			l-0.9-0.2c0.1-0.3,0.3-0.5,0.5-0.7c0.2-0.2,0.4-0.3,0.7-0.4c0.3-0.1,0.6-0.1,0.8-0.1c0.2,0,0.4,0,0.6,0.1c0.2,0,0.4,0.1,0.6,0.3
			s0.4,0.3,0.5,0.5c0.1,0.2,0.2,0.5,0.2,0.9V51h-0.9v-0.7h0c-0.1,0.1-0.2,0.2-0.3,0.4c-0.1,0.1-0.3,0.2-0.5,0.3
			C373.1,51.1,372.9,51.2,372.6,51.2z M372.8,50.4c0.3,0,0.5-0.1,0.7-0.2s0.3-0.2,0.4-0.4c0.1-0.2,0.1-0.4,0.1-0.5v-0.6
			c0,0-0.1,0.1-0.2,0.1c-0.1,0-0.2,0.1-0.3,0.1c-0.1,0-0.2,0-0.4,0.1c-0.1,0-0.2,0-0.3,0c-0.2,0-0.4,0.1-0.5,0.1
			c-0.2,0.1-0.3,0.1-0.4,0.2c-0.1,0.1-0.1,0.2-0.1,0.4c0,0.2,0.1,0.4,0.3,0.5C372.3,50.3,372.5,50.4,372.8,50.4z"/>
		<path class="st6" d="M377.3,44.5V51h-1v-6.5H377.3z"/>
		<path class="st6" d="M380,51.2c-0.3,0-0.6-0.1-0.8-0.2c-0.3-0.1-0.4-0.3-0.6-0.5c-0.1-0.2-0.2-0.5-0.2-0.8c0-0.3,0.1-0.5,0.2-0.7
			c0.1-0.2,0.2-0.3,0.4-0.4s0.4-0.2,0.6-0.2s0.5-0.1,0.7-0.1c0.3,0,0.5-0.1,0.7-0.1c0.2,0,0.3-0.1,0.4-0.1c0.1-0.1,0.1-0.1,0.1-0.2
			v0c0-0.3-0.1-0.5-0.2-0.6c-0.2-0.2-0.4-0.2-0.7-0.2c-0.3,0-0.6,0.1-0.8,0.2c-0.2,0.1-0.3,0.3-0.4,0.5l-0.9-0.2
			c0.1-0.3,0.3-0.5,0.5-0.7c0.2-0.2,0.4-0.3,0.7-0.4c0.3-0.1,0.6-0.1,0.8-0.1c0.2,0,0.4,0,0.6,0.1c0.2,0,0.4,0.1,0.6,0.3
			s0.4,0.3,0.5,0.5c0.1,0.2,0.2,0.5,0.2,0.9V51h-0.9v-0.7h0c-0.1,0.1-0.2,0.2-0.3,0.4c-0.1,0.1-0.3,0.2-0.5,0.3
			C380.5,51.1,380.2,51.2,380,51.2z M380.2,50.4c0.3,0,0.5-0.1,0.7-0.2s0.3-0.2,0.4-0.4c0.1-0.2,0.1-0.4,0.1-0.5v-0.6
			c0,0-0.1,0.1-0.2,0.1c-0.1,0-0.2,0.1-0.3,0.1c-0.1,0-0.2,0-0.4,0.1c-0.1,0-0.2,0-0.3,0c-0.2,0-0.4,0.1-0.5,0.1
			c-0.2,0.1-0.3,0.1-0.4,0.2c-0.1,0.1-0.1,0.2-0.1,0.4c0,0.2,0.1,0.4,0.3,0.5C379.7,50.3,379.9,50.4,380.2,50.4z"/>
		<path class="st6" d="M384.6,48.1V51h-1v-4.9h0.9v0.8h0.1c0.1-0.3,0.3-0.5,0.5-0.6c0.2-0.2,0.5-0.2,0.9-0.2c0.3,0,0.6,0.1,0.9,0.2
			c0.3,0.1,0.4,0.3,0.6,0.6c0.1,0.3,0.2,0.6,0.2,1V51h-1v-3c0-0.4-0.1-0.6-0.3-0.8c-0.2-0.2-0.4-0.3-0.8-0.3c-0.2,0-0.4,0-0.6,0.1
			c-0.2,0.1-0.3,0.2-0.4,0.4C384.7,47.7,384.6,47.9,384.6,48.1z"/>
		<path class="st6" d="M391.1,51.1c-0.5,0-0.9-0.1-1.2-0.3c-0.3-0.2-0.6-0.5-0.8-0.9c-0.2-0.4-0.3-0.8-0.3-1.3
			c0-0.5,0.1-0.9,0.3-1.3c0.2-0.4,0.5-0.7,0.8-0.9c0.3-0.2,0.7-0.3,1.2-0.3c0.4,0,0.7,0.1,1,0.2c0.3,0.1,0.5,0.3,0.7,0.6
			c0.2,0.2,0.3,0.5,0.3,0.9h-0.9c-0.1-0.2-0.2-0.4-0.3-0.6c-0.2-0.2-0.4-0.2-0.7-0.2c-0.3,0-0.5,0.1-0.7,0.2
			c-0.2,0.1-0.4,0.3-0.5,0.6s-0.2,0.6-0.2,0.9c0,0.4,0.1,0.7,0.2,0.9c0.1,0.3,0.3,0.5,0.5,0.6c0.2,0.1,0.4,0.2,0.7,0.2
			c0.2,0,0.3,0,0.5-0.1c0.1-0.1,0.3-0.2,0.4-0.3c0.1-0.1,0.2-0.3,0.2-0.5h0.9c0,0.3-0.1,0.6-0.3,0.9c-0.2,0.2-0.4,0.4-0.7,0.6
			C391.8,51.1,391.5,51.1,391.1,51.1z"/>
		<path class="st6" d="M396.3,51.1c-0.5,0-0.9-0.1-1.2-0.3c-0.3-0.2-0.6-0.5-0.8-0.9c-0.2-0.4-0.3-0.8-0.3-1.3
			c0-0.5,0.1-0.9,0.3-1.3c0.2-0.4,0.5-0.7,0.8-0.9c0.3-0.2,0.7-0.3,1.2-0.3c0.3,0,0.5,0,0.8,0.1c0.3,0.1,0.5,0.2,0.7,0.4
			c0.2,0.2,0.4,0.5,0.5,0.8c0.1,0.3,0.2,0.7,0.2,1.1v0.3h-3.9v-0.7h3c0-0.3-0.1-0.5-0.2-0.7c-0.1-0.2-0.2-0.3-0.4-0.5
			s-0.4-0.2-0.6-0.2c-0.3,0-0.5,0.1-0.7,0.2c-0.2,0.1-0.4,0.3-0.5,0.5c-0.1,0.2-0.2,0.4-0.2,0.7v0.6c0,0.3,0.1,0.6,0.2,0.8
			c0.1,0.2,0.3,0.4,0.5,0.5c0.2,0.1,0.5,0.2,0.7,0.2c0.2,0,0.3,0,0.5-0.1c0.1-0.1,0.3-0.1,0.4-0.2c0.1-0.1,0.2-0.2,0.2-0.4l0.9,0.2
			c-0.1,0.3-0.2,0.5-0.4,0.7s-0.4,0.4-0.7,0.5C396.9,51.1,396.6,51.1,396.3,51.1z"/>
	</g>
	<g>
		<path d="M497.9,40.3h-0.8c0-0.2-0.1-0.4-0.2-0.6c-0.1-0.2-0.3-0.3-0.4-0.4s-0.3-0.2-0.5-0.3c-0.2-0.1-0.4-0.1-0.6-0.1
			c-0.4,0-0.8,0.1-1.1,0.3c-0.3,0.2-0.6,0.5-0.8,0.9c-0.2,0.4-0.3,0.9-0.3,1.4c0,0.6,0.1,1,0.3,1.4c0.2,0.4,0.4,0.7,0.8,0.9
			c0.3,0.2,0.7,0.3,1.1,0.3c0.2,0,0.4,0,0.6-0.1c0.2-0.1,0.4-0.1,0.5-0.3s0.3-0.3,0.4-0.4c0.1-0.2,0.2-0.4,0.2-0.6h0.8
			c-0.1,0.3-0.2,0.6-0.3,0.9c-0.2,0.3-0.4,0.5-0.6,0.7s-0.5,0.3-0.8,0.4c-0.3,0.1-0.6,0.1-0.9,0.1c-0.6,0-1.1-0.1-1.5-0.4
			c-0.4-0.3-0.8-0.7-1-1.2c-0.2-0.5-0.4-1.1-0.4-1.8c0-0.7,0.1-1.3,0.4-1.8c0.2-0.5,0.6-0.9,1-1.2c0.4-0.3,0.9-0.4,1.5-0.4
			c0.3,0,0.6,0,0.9,0.1c0.3,0.1,0.6,0.2,0.8,0.4s0.4,0.4,0.6,0.7C497.8,39.6,497.9,39.9,497.9,40.3z"/>
		<path d="M499.9,38.2v6.5h-0.8v-6.5H499.9z"/>
		<path d="M501.6,39c-0.1,0-0.3-0.1-0.4-0.2s-0.2-0.2-0.2-0.4s0.1-0.3,0.2-0.4s0.2-0.2,0.4-0.2s0.3,0.1,0.4,0.2s0.2,0.2,0.2,0.4
			s-0.1,0.3-0.2,0.4S501.8,39,501.6,39z M501.3,44.8v-4.9h0.8v4.9H501.3z"/>
		<path d="M505.4,44.9c-0.5,0-0.9-0.1-1.2-0.3c-0.3-0.2-0.6-0.5-0.8-0.9c-0.2-0.4-0.3-0.8-0.3-1.3c0-0.5,0.1-0.9,0.3-1.3
			c0.2-0.4,0.4-0.7,0.8-0.9c0.3-0.2,0.7-0.3,1.2-0.3c0.3,0,0.7,0.1,0.9,0.2s0.5,0.3,0.7,0.5c0.2,0.2,0.3,0.5,0.3,0.8h-0.8
			c-0.1-0.2-0.2-0.4-0.4-0.6c-0.2-0.2-0.5-0.3-0.8-0.3c-0.3,0-0.6,0.1-0.8,0.2c-0.2,0.2-0.4,0.4-0.5,0.6c-0.1,0.3-0.2,0.6-0.2,1
			c0,0.4,0.1,0.7,0.2,1c0.1,0.3,0.3,0.5,0.5,0.7c0.2,0.2,0.5,0.2,0.8,0.2c0.2,0,0.4,0,0.5-0.1c0.2-0.1,0.3-0.2,0.4-0.3
			c0.1-0.1,0.2-0.3,0.2-0.5h0.8c0,0.3-0.1,0.6-0.3,0.8c-0.2,0.2-0.4,0.4-0.7,0.5S505.7,44.9,505.4,44.9z"/>
		<path d="M508.4,44.8v-6.5h0.8v6.5H508.4z M509.1,43l0-0.9h0.2l2.1-2.2h0.9l-2.3,2.3H510L509.1,43z M511.5,44.8l-1.9-2.4l0.5-0.5
			l2.3,3H511.5z"/>
		<path d="M517.8,44.9c-0.4,0-0.8-0.1-1.2-0.3s-0.6-0.5-0.8-0.9c-0.2-0.4-0.3-0.8-0.3-1.3c0-0.5,0.1-1,0.3-1.3s0.4-0.7,0.8-0.9
			s0.7-0.3,1.2-0.3c0.4,0,0.8,0.1,1.2,0.3s0.6,0.5,0.8,0.9s0.3,0.8,0.3,1.3c0,0.5-0.1,1-0.3,1.3c-0.2,0.4-0.4,0.7-0.8,0.9
			S518.3,44.9,517.8,44.9z M517.8,44.2c0.3,0,0.6-0.1,0.8-0.3c0.2-0.2,0.4-0.4,0.5-0.7c0.1-0.3,0.2-0.6,0.2-0.9
			c0-0.3-0.1-0.6-0.2-0.9c-0.1-0.3-0.3-0.5-0.5-0.7c-0.2-0.2-0.5-0.3-0.8-0.3c-0.3,0-0.6,0.1-0.8,0.3c-0.2,0.2-0.4,0.4-0.5,0.7
			s-0.2,0.6-0.2,0.9c0,0.3,0.1,0.6,0.2,0.9s0.3,0.5,0.5,0.7C517.2,44.1,517.5,44.2,517.8,44.2z"/>
		<path d="M522,41.8v3h-0.8v-4.9h0.7v0.8h0.1c0.1-0.2,0.3-0.5,0.5-0.6c0.2-0.2,0.5-0.2,0.9-0.2c0.3,0,0.6,0.1,0.9,0.2
			c0.2,0.1,0.4,0.3,0.6,0.6c0.1,0.3,0.2,0.6,0.2,1v3.1h-0.8v-3.1c0-0.4-0.1-0.7-0.3-0.9s-0.5-0.3-0.8-0.3c-0.2,0-0.5,0.1-0.6,0.2
			c-0.2,0.1-0.3,0.3-0.4,0.5C522,41.3,522,41.5,522,41.8z"/>
		<path class="st6" d="M529.6,44.8h-1l2.4-6.5h1.1l2.4,6.5h-1l-1.9-5.4h-0.1L529.6,44.8z M529.8,42.2h3.4V43h-3.4V42.2z"/>
		<path class="st6" d="M535.3,46.6v-6.8h0.9v0.8h0.1c0.1-0.1,0.1-0.2,0.2-0.4c0.1-0.1,0.2-0.3,0.4-0.4s0.4-0.2,0.7-0.2
			c0.4,0,0.8,0.1,1.1,0.3c0.3,0.2,0.6,0.5,0.7,0.9c0.2,0.4,0.3,0.8,0.3,1.4c0,0.5-0.1,1-0.3,1.4c-0.2,0.4-0.4,0.7-0.7,0.9
			c-0.3,0.2-0.7,0.3-1.1,0.3c-0.3,0-0.5,0-0.7-0.1c-0.2-0.1-0.3-0.2-0.4-0.4s-0.2-0.3-0.2-0.4h-0.1v2.6H535.3z M536.2,42.3
			c0,0.3,0,0.6,0.2,0.9c0.1,0.3,0.2,0.5,0.4,0.6c0.2,0.1,0.4,0.2,0.7,0.2c0.3,0,0.5-0.1,0.7-0.2c0.2-0.2,0.3-0.4,0.4-0.6
			c0.1-0.3,0.1-0.6,0.1-0.9c0-0.3,0-0.6-0.1-0.9s-0.2-0.5-0.4-0.6c-0.2-0.1-0.4-0.2-0.7-0.2c-0.3,0-0.5,0.1-0.7,0.2
			c-0.2,0.1-0.3,0.3-0.4,0.6C536.2,41.7,536.2,42,536.2,42.3z"/>
		<path class="st6" d="M540.8,46.6v-6.8h0.9v0.8h0.1c0.1-0.1,0.1-0.2,0.2-0.4c0.1-0.1,0.2-0.3,0.4-0.4s0.4-0.2,0.7-0.2
			c0.4,0,0.8,0.1,1.1,0.3c0.3,0.2,0.6,0.5,0.7,0.9c0.2,0.4,0.3,0.8,0.3,1.4c0,0.5-0.1,1-0.3,1.4c-0.2,0.4-0.4,0.7-0.7,0.9
			c-0.3,0.2-0.7,0.3-1.1,0.3c-0.3,0-0.5,0-0.7-0.1c-0.2-0.1-0.3-0.2-0.4-0.4s-0.2-0.3-0.2-0.4h-0.1v2.6H540.8z M541.7,42.3
			c0,0.3,0,0.6,0.2,0.9c0.1,0.3,0.2,0.5,0.4,0.6c0.2,0.1,0.4,0.2,0.7,0.2c0.3,0,0.5-0.1,0.7-0.2c0.2-0.2,0.3-0.4,0.4-0.6
			c0.1-0.3,0.1-0.6,0.1-0.9c0-0.3,0-0.6-0.1-0.9s-0.2-0.5-0.4-0.6c-0.2-0.1-0.4-0.2-0.7-0.2c-0.3,0-0.5,0.1-0.7,0.2
			c-0.2,0.1-0.3,0.3-0.4,0.6C541.8,41.7,541.7,42,541.7,42.3z"/>
		<path class="st6" d="M547.3,38.2v6.5h-1v-6.5H547.3z"/>
		<path class="st6" d="M549.2,46.6c-0.1,0-0.3,0-0.4,0s-0.2,0-0.3-0.1l0.2-0.8c0.2,0,0.3,0.1,0.5,0.1c0.1,0,0.3-0.1,0.4-0.2
			c0.1-0.1,0.2-0.3,0.3-0.5l0.1-0.3l-1.8-5h1l1.2,3.8h0.1l1.2-3.8h1l-2,5.6c-0.1,0.3-0.2,0.5-0.4,0.7s-0.3,0.3-0.5,0.4
			S549.5,46.6,549.2,46.6z"/>
	</g>
</g>
</svg>
