<?xml version="1.0" encoding="utf-8"?>
<!-- Generator: Adobe Illustrator 26.0.1, SVG Export Plug-In . SVG Version: 6.00 Build 0)  -->
<svg version="1.0" id="Layer_1" xmlns="http://www.w3.org/2000/svg" xmlns:xlink="http://www.w3.org/1999/xlink" x="0px" y="0px"
	 viewBox="0 0 235.9 491.1" style="enable-background:new 0 0 235.9 491.1;" xml:space="preserve">
<style type="text/css">
	.st0{fill:#231F20;}
	.st1{fill:#FFFFFF;}
	.st2{fill:#F68832;}
	.st3{fill:#078241;}
	.st4{fill:#115D33;}
	.st5{fill:#0E4525;}
	.st6{fill:#186A60;}
	.st7{fill:#8F9393;}
	.st8{fill:#F6852B;}
	.st9{fill:#A33123;}
	.st10{fill:#B8342A;}
	.st11{fill:none;}
	.st12{fill:#669A9D;}
	.st13{fill:#F3D1B6;}
	.st14{fill:#E1C1A9;}
	.st15{fill:#C1DAEA;}
	.st16{fill:#8CD0DE;}
	.st17{fill:#E4E4E4;}
	.st18{fill:#FED8B7;}
	.st19{fill:#8D643D;}
	.st20{fill:#F2CFB5;}
	.st21{fill:#A2C1E6;}
	.st22{fill:#16695F;}
	.st23{fill:#4A4E5A;}
	.st24{fill:#F5EB10;}
	.st25{fill:#4FB862;}
	.st26{fill:#FBED1D;}
	.st27{fill:#FFFCFD;}
	.st28{fill:none;stroke:#FFFCFD;stroke-width:0.2565;stroke-linecap:round;stroke-miterlimit:10;}
	.st29{fill:#52A8DC;stroke:#FFFFFF;stroke-width:0.1539;stroke-miterlimit:10;}
	.st30{fill:#58B968;stroke:#FFFFFF;stroke-width:0.1539;stroke-miterlimit:10;}
	.st31{fill:#5859A6;}
	.st32{fill:#F16A39;}
	.st33{fill:#221F1F;}
	.st34{fill:#676868;}
	.st35{fill:#424345;}
	.st36{fill:#5CB948;}
	.st37{fill:#1B9282;}
	.st38{opacity:0.9;fill:#15534A;}
	.st39{fill:#3292D0;}
	.st40{fill:#21A64A;}
	.st41{opacity:0.9;fill:#104139;}
	.st42{fill:#4CB756;}
	.st43{fill:#7A6CAF;}
	.st44{fill:#E9262A;}
	.st45{fill:#F59526;}
	.st46{fill:#105049;}
	.st47{fill:#F7F8F9;}
	.st48{fill:#BEBDBF;}
	.st49{fill:#EDECED;}
	.st50{fill:none;stroke:#CFD1D2;stroke-width:0.1874;stroke-miterlimit:10;}
	.st51{fill:#FFFFFF;stroke:#BCBDBF;stroke-width:0.15;stroke-miterlimit:10;}
	.st52{fill:#434244;}
	.st53{fill:#328BCB;}
	.st54{fill:#F8FCFF;}
	.st55{fill:none;stroke:#A8A8AB;stroke-width:0.1159;stroke-miterlimit:10;}
	.st56{fill:none;stroke:#E9262A;stroke-width:0.1539;stroke-miterlimit:10;}
</style>
<path class="st4" d="M203.6,484.3H32.3c-14.1,0-25.6-11.4-25.6-25.6V32.4c0-14.1,11.4-25.6,25.6-25.6h171.3
	c14.1,0,25.6,11.4,25.6,25.6v426.3C229.2,472.8,217.7,484.3,203.6,484.3z"/>
<g>
	<path class="st4" d="M203.4,1.6c17,0,30.9,13.9,30.9,31.1v425.7c0,17.1-13.9,31.1-30.9,31.1H32.5c-17,0-30.9-13.9-30.9-31.1V32.7
		c0-17.1,13.9-31.1,30.9-31.1H203.4 M203.4,0H32.5C14.6,0,0,14.7,0,32.7v425.7c0,18,14.6,32.7,32.5,32.7h170.9
		c17.9,0,32.5-14.7,32.5-32.7V32.7C235.9,14.7,221.3,0,203.4,0L203.4,0z"/>
</g>
<g>
	<rect x="6.7" y="32.5" class="st5" width="222.4" height="24.5"/>
</g>
<g>
	<rect x="6.7" y="57" class="st6" width="222.4" height="37.9"/>
</g>
<g>
	<g>
		<g id="XMLID_00000151504254733291610880000002823311317241441458_">
			<g id="XMLID_00000173868961388025140010000017036191675428848556_">
				<path class="st7" d="M27.8,83.3h4.3c1.6,0,2.7-0.4,3.1-1.1c0.1-0.1,0.1-0.2,0.2-0.3l-3.9-1.3L27.8,83.3z"/>
			</g>
			<g id="XMLID_00000138555234906914349490000005478220919834174082_">
				<path class="st7" d="M30.4,80.6H30v-2.2h1.5c0.5,0,0.8,0.1,1,0.4c0.2,0.2,0.3,0.5,0.3,0.8s-0.1,0.5-0.3,0.8l0,0l3.2,1
					c0.2-0.5,0.3-1,0.3-1.5c0-1.5-0.7-2.5-2.1-2.9c0.6-0.2,1-0.5,1.4-1c0.3-0.5,0.5-1,0.5-1.7c0-0.8-0.3-1.6-0.8-2.2
					c-0.5-0.7-1.3-1-2.5-1H27v12.3l0.4-0.6L30.4,80.6z M30.1,73.6h1.5c0.7,0,1.1,0.3,1.1,1c0,0.3-0.1,0.5-0.2,0.7
					c-0.2,0.2-0.4,0.3-0.8,0.3h-1.5v-2H30.1z"/>
			</g>
			<g id="XMLID_00000040556770497578666160000015913144066737020081_">
				<path class="st7" d="M41.8,77.1c0.2,0,0.4,0,0.6,0.1V74c-0.2,0-0.3,0-0.5,0c-1.1,0-1.8,0.7-2.1,2.1v-1.9h-2.6v6.5l3-2
					C40.4,77.6,40.9,77.1,41.8,77.1z"/>
			</g>
			<g id="XMLID_00000106107114002692798220000013343107825883883935_">
				<polygon class="st7" points="37.3,83.3 40.3,83.3 40.3,79.6 37.3,81.5 				"/>
			</g>
			<g id="XMLID_00000176016395445293749460000004586351012372759210_">
				<path class="st8" d="M48.4,78.3c0,0.1,0,0.2,0,0.4c0,0.6-0.1,1.2-0.2,1.8c-0.1,0.6-0.4,0.9-0.9,0.9c-0.3,0-0.6-0.2-0.8-0.5
					c-0.1-0.3-0.2-0.8-0.3-1.6l-0.5,0.2l-2.8-1.6c0,0.3-0.1,0.6-0.1,0.9c0,1.3,0.4,2.4,1.2,3.3c0.8,0.9,1.8,1.4,3.2,1.4
					c1.3,0,2.4-0.5,3.2-1.4c0.8-0.9,1.2-2.1,1.2-3.4c0-0.5-0.1-1.1-0.2-1.5L51.2,77L48.4,78.3z"/>
			</g>
			<g id="XMLID_00000019657517067380590240000005916062540126778796_">
				<path class="st8" d="M46.3,78.4c0-0.7,0.1-1.3,0.2-1.6c0.2-0.4,0.4-0.6,0.8-0.6s0.7,0.2,0.8,0.6c0.1,0.2,0.1,0.4,0.2,0.7
					l2.8-1.2c-0.2-0.3-0.4-0.7-0.6-0.9c-0.8-0.9-1.9-1.3-3.2-1.3c-1.3,0-2.4,0.5-3.2,1.4c-0.5,0.5-0.8,1.1-1,1.8l2.6,1.5L46.3,78.4z
					"/>
			</g>
			<g id="XMLID_00000003062794719769837340000002947532793429580689_">
				<polygon class="st3" points="53,78.4 53,83.3 55.9,83.3 55.9,80.8 56.8,79.6 58.3,83.3 61.5,83.3 58.8,77.3 59,77.1 54.3,79.7 
									"/>
			</g>
			<g id="XMLID_00000152225936452328052700000008926642580165360305_">
				<path class="st3" d="M59.6,76l0.2,0.1l1.5-1.9h-2.8l-2,2.6c-0.2,0.3-0.4,0.5-0.6,0.8c0-1,0-1.5,0-1.7v-5H53v6.5l1.4,1.3L59.6,76
					z"/>
			</g>
			<g id="XMLID_00000018230253328017336370000013457819953451800739_">
				<path class="st7" d="M76.2,74c-1.1,0-1.8,0.7-2.1,2.1v-1.9h-2.6v9.1h3v-4.2c0-1.3,0.5-2,1.6-2c0.2,0,0.4,0,0.6,0.1V74
					C76.4,74,76.3,74,76.2,74z"/>
			</g>
			<g>
				<g>
					<path class="st7" d="M67.1,77.6h-1.9l-1.5,1l-2-0.9c-0.1,0.4-0.1,0.7-0.1,1.1c0,1.3,0.4,2.4,1.2,3.3c0.8,0.9,1.9,1.3,3.2,1.3
						c1.2,0,2.2-0.3,2.9-0.9c0.7-0.6,1.2-1.4,1.3-2.3L67.3,80c-0.1,0.7-0.5,1.1-1.2,1.1c-0.5,0-0.8-0.1-1-0.4s-0.3-0.7-0.3-1.3h5.4
						c0-0.2,0-0.4,0-0.5c0-1.5-0.4-2.7-1.2-3.6l-0.1-0.1l-2.1,1.4C67,76.8,67.1,77.1,67.1,77.6z"/>
				</g>
				<g>
					<path class="st7" d="M62.8,75.4c-0.4,0.5-0.7,1-0.9,1.6l1.8,0.8l1.3-0.9c0.1-0.6,0.5-0.9,1-0.9c0.1,0,0.2,0,0.3,0l2.2-1.4
						c-0.7-0.5-1.5-0.7-2.4-0.7C64.6,73.9,63.6,74.4,62.8,75.4z"/>
				</g>
				<g>
					<path class="st7" d="M76,71.5l2.3-3l-3.6,0.8l0.5,0.8l-6.8,4.5c0.2,0.1,0.4,0.3,0.6,0.5l6.6-4.4L76,71.5z"/>
				</g>
			</g>
			<g id="XMLID_00000035499608246903996380000005533865045078424231_">
				<g id="XMLID_00000138571161899901299330000002377327729081987511_">
					<path class="st1" d="M23.6,83.3c-0.4,0.1-0.8,0.1-1.1,0.1c-0.4,0-0.7,0-1-0.2c-0.3-0.1-0.5-0.4-0.7-0.7
						c-0.2-0.4-0.3-0.9-0.3-1.5l0.1-3.5c0-0.5-0.1-0.9-0.2-1.1c-0.2-0.2-0.5-0.2-0.9-0.1l1.5-3.1c0.4-0.1,0.8-0.1,1.1-0.1
						c0.4,0,0.7,0,1,0.2c0.3,0.1,0.5,0.4,0.7,0.8s0.3,0.9,0.2,1.6l-0.1,3.5c0,0.5,0.1,0.9,0.2,1.1c0.2,0.2,0.5,0.2,0.9,0.1
						L23.6,83.3z M24.4,70c0.1,0.3,0,0.5,0,0.8c-0.1,0.2-0.2,0.5-0.3,0.6c-0.2,0.2-0.4,0.4-0.6,0.5s-0.5,0.2-0.7,0.3
						c-0.2,0.1-0.5,0.1-0.8,0c-0.3,0-0.5-0.1-0.7-0.2s-0.4-0.3-0.6-0.5s-0.3-0.4-0.3-0.7c-0.1-0.3,0-0.5,0-0.8
						c0.1-0.2,0.2-0.4,0.4-0.6c0.2-0.2,0.4-0.3,0.6-0.5c0.2-0.1,0.5-0.2,0.7-0.3c0.2-0.1,0.5-0.1,0.8,0c0.3,0,0.5,0.1,0.7,0.2
						s0.4,0.3,0.6,0.4C24.3,69.5,24.4,69.7,24.4,70z"/>
				</g>
			</g>
		</g>
	</g>
</g>
<g>
	<g>
		<g>
			<rect x="208.3" y="72.5" class="st1" width="6.2" height="1.2"/>
		</g>
		<g>
			<rect x="208.3" y="75.4" class="st1" width="6.2" height="1.2"/>
		</g>
		<g>
			<rect x="208.3" y="78.3" class="st1" width="6.2" height="1.2"/>
		</g>
	</g>
	<g>
		<polygon class="st1" points="206.3,73.6 207.6,73.6 205.9,71.9 204.2,73.6 205.5,73.6 205.5,78.5 204.2,78.5 205.9,80.2 
			207.6,78.5 206.3,78.5 		"/>
	</g>
</g>
<g>
	<g>
		<g>
			<ellipse class="st9" cx="178.8" cy="76" rx="9.1" ry="9.1"/>
		</g>
		<g>
			<path class="st10" d="M178.8,85.1c-5,0-9.1-4.1-9.1-9.1s4.1-9.1,9.1-9.1V85.1z"/>
		</g>
	</g>
	<g>
		<g>
			<g>
				<path class="st13" d="M177.3,78.4l-0.5,1.3l3.8,0.3l-0.5-1.4C178.8,79.4,177.8,78.8,177.3,78.4z"/>
			</g>
			<g>
				<path class="st14" d="M180.2,78.6l-0.4-1h-2.2l-0.3,0.8C177.8,78.8,178.8,79.4,180.2,78.6z"/>
			</g>
		</g>
		<g>
			<g>
				<path class="st15" d="M172.4,82.4L172.4,82.4c1.4,1.6,3.4,2.5,5.6,2.7c-0.4-1.4-1.2-4.6-1.5-5.6
					C175.2,80.6,172.9,81.5,172.4,82.4z"/>
			</g>
			<g>
				<path class="st15" d="M185.1,82.4c-0.5-0.8-2.7-1.7-4.1-2.9c-0.3,1-1.1,4.2-1.5,5.6C181.7,84.9,183.7,83.9,185.1,82.4
					L185.1,82.4z"/>
			</g>
		</g>
		<g>
			<g>
				<path class="st17" d="M180.4,78.8l-1.6,1l0,0V85l0,0h0.5c0.1,0,0.1,0,0.2,0c0.4-1.4,1.2-4.6,1.5-5.6
					C180.8,79.2,180.5,79,180.4,78.8z"/>
			</g>
			<g>
				<path class="st17" d="M178.8,85.1v-5.2l0,0l-1.6-1c-0.2,0.2-0.4,0.5-0.6,0.7c0.3,1,1.1,4.2,1.5,5.6c0.1,0,0.1,0,0.2,0
					L178.8,85.1L178.8,85.1z"/>
			</g>
		</g>
		<g>
			<g>
				<path class="st18" d="M178.8,70.8c-1.9,0-3.4,0.6-3.4,2.8c0,2.2,1.5,5.1,3.4,5.1l0,0V70.8L178.8,70.8z"/>
			</g>
			<g>
				<path class="st18" d="M182.2,73.5c0-2.2-1.5-2.8-3.4-2.8v7.9C180.7,78.6,182.2,75.7,182.2,73.5z"/>
			</g>
			<g>
				<path class="st19" d="M175.4,74.7h0.6c0,0,0.1-2.2,0.6-2.5s1.4,0.2,2.2,0v-2.5c0,0-2.1-0.1-2.9,0.8
					C175.4,71.1,175,72,175.4,74.7z"/>
			</g>
			<g>
				<path class="st19" d="M182.2,74.7h-0.6c0,0-0.1-2.2-0.6-2.5s-1.4,0.2-2.2,0v-2.5c0,0,2.1-0.1,2.9,0.8
					C182.2,71.1,182.6,72,182.2,74.7z"/>
			</g>
			<g>
				<ellipse transform="matrix(0.982 -0.189 0.189 0.982 -10.9527 34.5546)" class="st18" cx="175.7" cy="74.7" rx="0.5" ry="0.9"/>
			</g>
			<g>
				<path class="st20" d="M181.4,74.7c-0.1,0.5,0,0.9,0.3,1c0.3,0,0.5-0.3,0.6-0.8s0-0.9-0.3-1C181.8,73.8,181.5,74.2,181.4,74.7z"
					/>
			</g>
		</g>
		<g>
			<polygon class="st21" points="178.8,79.8 178.1,80 178.5,80.8 178.8,80.8 			"/>
		</g>
		<g>
			<polygon class="st1" points="178.8,79.8 177.7,80.8 176.7,79.3 177.2,78.8 			"/>
		</g>
		<g>
			<g>
				<path class="st1" d="M175.3,80.3l0.9,2.6l0.7-0.3l-0.4,1l0.7,1.4c0.3,0,0.6,0.1,0.8,0.1l-1.4-5.7L175.3,80.3z"/>
			</g>
			<g>
				<path class="st1" d="M180.7,82.5l0.7,0.3l0.9-2.6l-1.4-1l-1.4,5.7c0.3,0,0.6-0.1,0.8-0.1l0.7-1.4L180.7,82.5z"/>
			</g>
		</g>
		<g>
			<polygon class="st21" points="178.8,79.8 179.4,80 179.1,80.8 178.8,80.8 			"/>
		</g>
		<g>
			<polygon class="st1" points="178.8,79.8 179.9,80.8 180.8,79.3 180.4,78.8 			"/>
		</g>
		<g>
			<g>
				<path class="st21" d="M178.8,80.8v4.3c0.2,0,0.4,0,0.7,0l-0.4-4.2h-0.3V80.8z"/>
			</g>
			<g>
				<path class="st21" d="M178.8,80.8h-0.3l-0.4,4.2c0.2,0,0.4,0,0.7,0l0,0l0,0V80.8L178.8,80.8z"/>
			</g>
		</g>
	</g>
</g>
<g>
	<g>
		<polyline class="st1" points="125.8,71.2 123.6,71.2 121.9,80.4 121.1,80.4 122.8,71.2 120.5,71.2 120.7,70.4 126,70.4 
			125.8,71.2 		"/>
	</g>
	<g>
		<path class="st1" d="M127.5,73.7c-0.2,0-0.3,0-0.4,0c-0.4,0-0.8,0.2-1.1,0.5c-0.4,0.4-0.6,0.9-0.7,1.6l-0.8,4.7h-0.7l1.4-7.5h0.7
			l-0.2,1.2l0,0c0.5-0.9,1.1-1.4,1.8-1.4c0,0,0.1,0,0.2,0c0.1,0,0.1,0,0.1,0L127.5,73.7"/>
	</g>
	<g>
		<path class="st1" d="M131.1,80.5c-0.1,0-0.1,0-0.2,0c-0.1,0-0.2,0-0.3,0c-0.4,0-0.6-0.2-0.6-0.6c0-0.1,0-0.2,0-0.3v-0.2l0,0
			c-0.2,0.4-0.5,0.7-0.9,0.9c-0.4,0.2-0.7,0.3-1,0.3c-0.9,0-1.4-0.5-1.4-1.5c0-0.2,0-0.4,0.1-0.7c0.1-0.7,0.4-1.2,0.7-1.5
			c0.3-0.3,0.7-0.5,1.3-0.6c0.3-0.1,0.8-0.2,1.4-0.4c0.3-0.1,0.4-0.4,0.5-0.9c0-0.2,0-0.4,0-0.5c0-0.6-0.3-0.9-0.9-0.9
			c-0.8,0-1.4,0.6-1.6,1.7h-0.7c0.3-1.6,1.1-2.4,2.4-2.4c1.1,0,1.6,0.5,1.6,1.4c0,0.2,0,0.4-0.1,0.7l-0.8,4.6
			c-0.1,0.3,0,0.5,0.2,0.5c0,0,0.1,0,0.2,0L131.1,80.5 M130.2,78.1l0.3-1.8c-0.2,0.2-0.4,0.3-0.8,0.4c-0.3,0.1-0.6,0.2-0.9,0.3
			c-0.4,0.1-0.6,0.3-0.8,0.5s-0.4,0.6-0.4,1c0,0.2,0,0.3,0,0.5c0,0.7,0.3,1,0.8,1c0.4,0,0.8-0.2,1.1-0.5
			C129.8,79.2,130.1,78.7,130.2,78.1z"/>
	</g>
	<g>
		<path class="st1" d="M135.4,80.4h-0.7l0.2-1.2l0,0c-0.4,0.9-1,1.4-1.8,1.4c-1,0-1.5-0.7-1.5-2.2c0-0.5,0.1-1.1,0.2-1.7
			c0.5-2.6,1.4-3.9,2.7-3.9c0.3,0,0.6,0.1,0.9,0.3c0.2,0.2,0.4,0.5,0.4,1l0,0l0.7-3.7h0.7L135.4,80.4 M135.4,76.7
			c0.1-0.6,0.2-1.1,0.2-1.5c0-1.1-0.3-1.7-1-1.7c-0.9,0-1.6,1.1-2,3.2c-0.1,0.7-0.2,1.2-0.2,1.7c0,1,0.3,1.5,1,1.5
			C134.3,79.9,135,78.8,135.4,76.7z"/>
	</g>
	<g>
		<path class="st1" d="M140.8,76.8h-3.5c-0.1,0.7-0.2,1.3-0.2,1.7c0,1,0.3,1.5,1,1.5c0.4,0,0.7-0.2,1-0.5s0.5-0.8,0.6-1.4h0.7
			c-0.1,0.7-0.4,1.4-0.9,1.8c-0.5,0.5-1,0.8-1.7,0.8c-1.1,0-1.6-0.7-1.6-2.1c0-0.5,0.1-1.1,0.2-1.8c0.5-2.6,1.4-3.8,2.9-3.8
			c1.1,0,1.6,0.6,1.6,1.9C141.1,75.3,141,75.9,140.8,76.8 M140.2,76.1c0.1-0.5,0.1-0.9,0.1-1.3c0-0.9-0.3-1.3-1-1.3
			c-0.9,0-1.6,0.9-1.9,2.6C137.4,76.1,140.2,76.1,140.2,76.1z"/>
	</g>
	<g>
		<path class="st1" d="M152,75.9c-0.1,0.7-0.4,1.3-0.7,1.7c-0.4,0.4-0.7,0.6-1.2,0.6c-0.3,0-0.5-0.1-0.7-0.2
			c-0.1-0.1-0.2-0.2-0.2-0.4l-0.4,2.1h-0.9L149,74h0.9l-0.1,0.6c0.1-0.2,0.3-0.3,0.4-0.4c0.2-0.2,0.5-0.3,0.8-0.3
			c0.4,0,0.7,0.2,1,0.5C152.1,74.7,152.2,75.2,152,75.9 M150.5,74.7c-0.3,0-0.6,0.2-0.8,0.6c-0.1,0.2-0.2,0.4-0.2,0.7
			c-0.1,0.5,0,0.8,0.1,1c0.1,0.1,0.3,0.2,0.4,0.2c0.3,0,0.5-0.1,0.7-0.3c0.2-0.2,0.3-0.5,0.4-0.9c0.1-0.3,0-0.6,0-0.8
			C150.9,74.8,150.8,74.7,150.5,74.7z"/>
	</g>
	<g>
		<path class="st1" d="M154.7,73.8l-0.2,1.1c-0.1,0-0.1,0-0.2,0h-0.1c-0.4,0-0.7,0.1-0.8,0.4c-0.1,0.2-0.2,0.4-0.2,0.7l-0.4,2h-0.9
			l0.8-4.1h0.9l-0.1,0.7c0.2-0.3,0.4-0.5,0.5-0.6c0.2-0.2,0.4-0.3,0.7-0.3V73.8C154.6,73.8,154.7,73.8,154.7,73.8"/>
	</g>
	<g>
		<path class="st1" d="M157.7,74.5c0.1,0.2,0.1,0.5,0.1,0.9c0,0.2,0,0.5-0.1,0.8h-2.5c-0.1,0.4,0,0.7,0.2,0.9
			c0.1,0.1,0.3,0.2,0.4,0.2c0.2,0,0.4-0.1,0.5-0.2s0.2-0.2,0.2-0.3h0.9c-0.1,0.2-0.2,0.5-0.5,0.7c-0.4,0.4-0.8,0.6-1.4,0.6
			c-0.5,0-0.8-0.2-1.1-0.5s-0.4-0.9-0.2-1.6c0.1-0.7,0.4-1.3,0.8-1.6c0.4-0.4,0.8-0.6,1.3-0.6c0.3,0,0.5,0.1,0.8,0.2
			S157.6,74.3,157.7,74.5 M155.4,75.5h1.4c0-0.3,0-0.5-0.1-0.6s-0.3-0.2-0.5-0.2s-0.4,0.1-0.5,0.2C155.6,75,155.5,75.2,155.4,75.5z"
			/>
	</g>
	<g>
		<path class="st1" d="M158.6,76.7c0,0.2,0,0.3,0.1,0.4s0.3,0.2,0.6,0.2c0.2,0,0.3,0,0.5-0.1c0.1-0.1,0.2-0.2,0.2-0.3
			c0-0.1,0-0.2-0.1-0.3c-0.1-0.1-0.4-0.2-0.9-0.3c-0.4-0.1-0.6-0.3-0.8-0.4c-0.1-0.2-0.2-0.4-0.1-0.7c0.1-0.4,0.3-0.7,0.6-1
			s0.7-0.4,1.2-0.4c0.4,0,0.8,0.1,1,0.3c0.2,0.2,0.3,0.6,0.3,1.1h-1c0-0.1,0-0.2,0-0.3c-0.1-0.1-0.2-0.2-0.5-0.2
			c-0.2,0-0.4,0-0.5,0.1S159,75,159,75.1c0,0.1,0,0.2,0.1,0.3c0.1,0.1,0.4,0.2,0.9,0.3c0.4,0.1,0.6,0.3,0.7,0.5
			c0.1,0.2,0.2,0.5,0.1,0.8c-0.1,0.4-0.3,0.7-0.6,1s-0.7,0.4-1.3,0.4s-0.9-0.1-1.2-0.4c-0.2-0.3-0.3-0.6-0.2-1h1.1"/>
	</g>
	<g>
		<path class="st1" d="M162,76.7c0,0.2,0,0.3,0.1,0.4s0.3,0.2,0.6,0.2c0.2,0,0.3,0,0.5-0.1c0.1-0.1,0.2-0.2,0.2-0.3
			c0-0.1,0-0.2-0.1-0.3c-0.1-0.1-0.4-0.2-0.9-0.3c-0.4-0.1-0.6-0.3-0.8-0.4c-0.1-0.2-0.2-0.4-0.1-0.7c0.1-0.4,0.3-0.7,0.6-1
			s0.7-0.4,1.2-0.4c0.4,0,0.8,0.1,1,0.3c0.2,0.2,0.3,0.6,0.3,1.1h-0.9c0-0.1,0-0.2,0-0.3c-0.1-0.1-0.2-0.2-0.5-0.2
			c-0.2,0-0.4,0-0.5,0.1s-0.2,0.2-0.2,0.3c0,0.1,0,0.2,0.1,0.3c0.1,0.1,0.4,0.2,0.9,0.3c0.4,0.1,0.6,0.3,0.7,0.5
			c0.1,0.2,0.2,0.5,0.1,0.8c-0.1,0.4-0.3,0.7-0.6,1s-0.7,0.4-1.3,0.4s-0.9-0.1-1.2-0.4c-0.2-0.3-0.3-0.6-0.2-1h1"/>
	</g>
	<g>
		<g>
			<polyline class="st1" points="144.1,76.1 139.4,68.7 138.5,68.7 143.8,76.2 140.8,80.9 140.9,80.9 144.1,76.1 			"/>
		</g>
		<g>
			<polyline class="st2" points="145.9,74.7 141.9,80.9 142,80.9 146.2,74.6 142.4,68.6 139.3,68.6 139.4,68.7 141.7,68.7 
				145.9,74.7 			"/>
		</g>
		<g>
			<polyline class="st2" points="140.9,80.9 141.9,80.9 145.9,74.7 141.7,68.7 139.4,68.7 144.1,76.1 140.9,80.9 			"/>
		</g>
		<g>
			<polyline class="st1" points="149.2,79.6 149.1,80.1 147.4,80.1 147.9,77.6 146.7,75.9 151.1,69 150,69 144.6,77.4 148.7,83.4 
				151.7,83.4 149.2,79.6 			"/>
		</g>
		<g>
			<polyline class="st3" points="149.1,80.1 147.4,80.1 147.9,77.3 147,75.8 151.8,68.8 150.7,68.8 144.9,77.3 148.7,83.4 
				151.8,83.4 149.3,79.4 149.1,80.1 			"/>
		</g>
	</g>
</g>
<g>
	<path class="st1" d="M32.1,484.1c-13.9,0-25.3-11.3-25.3-25.3V95H229v363.8c0,13.9-11.3,25.3-25.3,25.3H32.1z"/>
	<path class="st4" d="M228.8,95.2v363.7c0,13.9-11.3,25.1-25.1,25.1H32.1c-13.9,0-25.1-11.3-25.1-25.1V95.2H228.8 M229.1,94.9H6.7
		v363.9c0,14,11.4,25.4,25.4,25.4h171.6c14,0,25.4-11.4,25.4-25.4V94.9L229.1,94.9z"/>
</g>
<g>
	<g>
		<path class="st47" d="M18.1,464.9c-2,0-3.6-1.6-3.6-3.6v-356c0-2,1.6-3.6,3.6-3.6h199.7c2,0,3.6,1.6,3.6,3.6v356
			c0,2-1.6,3.6-3.6,3.6H18.1z"/>
		<path class="st48" d="M217.8,101.7c1.9,0,3.5,1.6,3.5,3.5v356c0,1.9-1.6,3.5-3.5,3.5H18.1c-1.9,0-3.5-1.6-3.5-3.5v-356
			c0-1.9,1.6-3.5,3.5-3.5H217.8 M217.8,101.5H18.1c-2.1,0-3.7,1.7-3.7,3.7v356c0,2.1,1.7,3.7,3.7,3.7h199.7c2.1,0,3.7-1.7,3.7-3.7
			v-356C221.5,103.2,219.9,101.5,217.8,101.5L217.8,101.5z"/>
	</g>
	<g>
		<path class="st49" d="M221.1,139.5H14.8V103c0-0.7,0.5-1.2,1.2-1.2h204c0.7,0,1.2,0.5,1.2,1.2V139.5z"/>
	</g>
	<line class="st50" x1="14.4" y1="139.5" x2="221.5" y2="139.5"/>
	<g>
		<path class="st22" d="M31.7,115.3h-3.6V114h8.8v1.3h-3.7v10.6h-1.6V115.3z"/>
		<path class="st22" d="M41.8,125.9l-0.1-1.1h-0.1c-0.5,0.7-1.4,1.3-2.6,1.3c-1.7,0-2.6-1.2-2.6-2.5c0-2.1,1.8-3.2,5.2-3.2v-0.2
			c0-0.7-0.2-2-2-2c-0.8,0-1.6,0.2-2.2,0.6l-0.4-1c0.7-0.5,1.7-0.8,2.8-0.8c2.6,0,3.3,1.8,3.3,3.5v3.2c0,0.7,0,1.5,0.1,2.1H41.8z
			 M41.6,121.5c-1.7,0-3.6,0.3-3.6,1.9c0,1,0.7,1.5,1.5,1.5c1.1,0,1.8-0.7,2.1-1.4c0.1-0.2,0.1-0.3,0.1-0.5V121.5z"/>
		<path class="st22" d="M46.3,117.3l1.2,1.8c0.3,0.5,0.6,0.9,0.9,1.4h0.1c0.3-0.5,0.6-1,0.9-1.4l1.2-1.8h1.7l-2.9,4.1l3,4.4h-1.8
			l-1.3-1.9c-0.3-0.5-0.6-1-0.9-1.5h0c-0.3,0.5-0.6,1-0.9,1.5l-1.2,1.9h-1.7l3-4.4l-2.9-4.2H46.3z"/>
		<path class="st22" d="M66,125.5c-0.6,0.3-1.7,0.6-3.2,0.6c-3.4,0-5.9-2.1-5.9-6c0-3.7,2.5-6.3,6.2-6.3c1.5,0,2.4,0.3,2.8,0.5
			l-0.4,1.3c-0.6-0.3-1.4-0.5-2.4-0.5c-2.8,0-4.7,1.8-4.7,4.9c0,2.9,1.7,4.8,4.6,4.8c0.9,0,1.9-0.2,2.5-0.5L66,125.5z"/>
		<path class="st22" d="M68.5,121.9c0,2.1,1.4,3,2.9,3c1.1,0,1.8-0.2,2.4-0.4l0.3,1.1c-0.5,0.2-1.5,0.5-2.9,0.5
			c-2.6,0-4.2-1.7-4.2-4.3s1.5-4.6,4-4.6c2.8,0,3.5,2.5,3.5,4c0,0.3,0,0.6-0.1,0.7H68.5z M73.1,120.8c0-1-0.4-2.5-2.2-2.5
			c-1.6,0-2.3,1.5-2.4,2.5H73.1z"/>
		<path class="st22" d="M76.6,120c0-1,0-1.9-0.1-2.7h1.4l0.1,1.7H78c0.4-1.2,1.3-1.9,2.4-1.9c0.2,0,0.3,0,0.4,0.1v1.5
			c-0.2,0-0.3-0.1-0.5-0.1c-1.1,0-1.9,0.8-2.1,2c0,0.2-0.1,0.5-0.1,0.7v4.6h-1.5V120z"/>
		<path class="st22" d="M84.7,114.9v2.5h2.2v1.2h-2.2v4.6c0,1.1,0.3,1.7,1.2,1.7c0.4,0,0.7-0.1,0.9-0.1l0.1,1.2
			c-0.3,0.1-0.8,0.2-1.4,0.2c-0.7,0-1.3-0.2-1.7-0.7c-0.4-0.5-0.6-1.2-0.6-2.2v-4.7h-1.3v-1.2h1.3v-2.1L84.7,114.9z"/>
		<path class="st22" d="M90.4,114.9c0,0.5-0.4,1-1,1c-0.5,0-0.9-0.4-0.9-1c0-0.5,0.4-1,1-1C90,113.9,90.4,114.4,90.4,114.9z
			 M88.7,125.9v-8.6h1.6v8.6H88.7z"/>
		<path class="st22" d="M93,125.9v-7.4h-1.2v-1.2H93v-0.5c0-2.3,1.3-3.7,3.7-3.7c0.8,0,1.7,0.2,2.2,0.6l-0.4,1.2
			c-0.4-0.3-1-0.5-1.8-0.5c-1.6,0-2.1,1.2-2.1,2.5v0.4h5v8.6h-1.5v-7.4h-3.4v7.4H93z"/>
		<path class="st22" d="M108.2,125.6c-0.4,0.2-1.3,0.5-2.5,0.5c-2.6,0-4.3-1.8-4.3-4.4c0-2.6,1.8-4.6,4.6-4.6c0.9,0,1.7,0.2,2.2,0.4
			l-0.4,1.2c-0.4-0.2-1-0.4-1.8-0.4c-2,0-3,1.5-3,3.2c0,2,1.3,3.2,3,3.2c0.9,0,1.5-0.2,1.9-0.4L108.2,125.6z"/>
		<path class="st22" d="M114.8,125.9l-0.1-1.1h-0.1c-0.5,0.7-1.4,1.3-2.6,1.3c-1.7,0-2.6-1.2-2.6-2.5c0-2.1,1.8-3.2,5.2-3.2v-0.2
			c0-0.7-0.2-2-2-2c-0.8,0-1.6,0.2-2.2,0.6l-0.4-1c0.7-0.5,1.7-0.8,2.8-0.8c2.6,0,3.3,1.8,3.3,3.5v3.2c0,0.7,0,1.5,0.1,2.1H114.8z
			 M114.5,121.5c-1.7,0-3.6,0.3-3.6,1.9c0,1,0.7,1.5,1.5,1.5c1.1,0,1.8-0.7,2.1-1.4c0.1-0.2,0.1-0.3,0.1-0.5V121.5z"/>
		<path class="st22" d="M120.4,114.9v2.5h2.2v1.2h-2.2v4.6c0,1.1,0.3,1.7,1.2,1.7c0.4,0,0.7-0.1,0.9-0.1l0.1,1.2
			c-0.3,0.1-0.8,0.2-1.4,0.2c-0.7,0-1.3-0.2-1.7-0.7c-0.4-0.5-0.6-1.2-0.6-2.2v-4.7h-1.3v-1.2h1.3v-2.1L120.4,114.9z"/>
		<path class="st22" d="M125.1,121.9c0,2.1,1.4,3,2.9,3c1.1,0,1.8-0.2,2.4-0.4l0.3,1.1c-0.5,0.2-1.5,0.5-2.9,0.5
			c-2.6,0-4.2-1.7-4.2-4.3s1.5-4.6,4-4.6c2.8,0,3.5,2.5,3.5,4c0,0.3,0,0.6-0.1,0.7H125.1z M129.7,120.8c0-1-0.4-2.5-2.2-2.5
			c-1.6,0-2.3,1.5-2.4,2.5H129.7z"/>
	</g>
	<g>
		<path class="st0" d="M22.5,160.9v-7.1h3.1c0.6,0,1.1,0.1,1.4,0.2s0.6,0.4,0.8,0.7c0.2,0.3,0.3,0.7,0.3,1.1c0,0.5-0.2,0.9-0.5,1.3
			c-0.3,0.3-0.8,0.6-1.5,0.7c0.2,0.1,0.4,0.2,0.6,0.4c0.3,0.3,0.5,0.6,0.8,0.9l1.2,1.9h-1.2l-0.9-1.5c-0.3-0.4-0.5-0.8-0.7-1
			c-0.2-0.2-0.3-0.4-0.5-0.5c-0.1-0.1-0.3-0.2-0.4-0.2c-0.1,0-0.3,0-0.5,0h-1.1v3.1H22.5z M23.4,157h2c0.4,0,0.8,0,1-0.1
			s0.4-0.2,0.6-0.4c0.1-0.2,0.2-0.4,0.2-0.6c0-0.3-0.1-0.6-0.4-0.8c-0.2-0.2-0.6-0.3-1.2-0.3h-2.2V157z"/>
		<path class="st0" d="M33.1,159.3l0.9,0.1c-0.1,0.5-0.4,0.9-0.8,1.2c-0.4,0.3-0.9,0.4-1.5,0.4c-0.8,0-1.3-0.2-1.8-0.7
			s-0.7-1.1-0.7-1.9c0-0.9,0.2-1.5,0.7-2c0.4-0.5,1-0.7,1.7-0.7c0.7,0,1.2,0.2,1.7,0.7c0.4,0.5,0.7,1.1,0.7,2c0,0.1,0,0.1,0,0.2
			h-3.8c0,0.6,0.2,1,0.5,1.3s0.6,0.4,1.1,0.4c0.3,0,0.6-0.1,0.8-0.3C32.7,159.9,32.9,159.7,33.1,159.3z M30.2,157.9h2.9
			c0-0.4-0.1-0.8-0.3-1c-0.3-0.3-0.6-0.5-1.1-0.5c-0.4,0-0.7,0.1-1,0.4S30.2,157.4,30.2,157.9z"/>
		<path class="st0" d="M35,162.9v-7.1h0.8v0.7c0.2-0.3,0.4-0.5,0.6-0.6c0.2-0.1,0.5-0.2,0.9-0.2c0.4,0,0.8,0.1,1.2,0.3
			c0.3,0.2,0.6,0.5,0.8,1c0.2,0.4,0.3,0.9,0.3,1.4c0,0.5-0.1,1-0.3,1.4c-0.2,0.4-0.5,0.7-0.8,1c-0.4,0.2-0.7,0.3-1.1,0.3
			c-0.3,0-0.6-0.1-0.8-0.2c-0.2-0.1-0.4-0.3-0.6-0.5v2.5H35z M35.8,158.4c0,0.7,0.1,1.1,0.4,1.5c0.3,0.3,0.6,0.5,1,0.5
			c0.4,0,0.7-0.2,1-0.5c0.3-0.3,0.4-0.8,0.4-1.5c0-0.7-0.1-1.1-0.4-1.5s-0.6-0.5-1-0.5c-0.4,0-0.7,0.2-1,0.5
			C36,157.2,35.8,157.7,35.8,158.4z"/>
		<path class="st0" d="M40.2,158.4c0-1,0.3-1.7,0.8-2.1c0.4-0.4,1-0.6,1.6-0.6c0.7,0,1.3,0.2,1.7,0.7s0.7,1.1,0.7,1.9
			c0,0.7-0.1,1.2-0.3,1.6c-0.2,0.4-0.5,0.7-0.9,0.9c-0.4,0.2-0.8,0.3-1.2,0.3c-0.7,0-1.3-0.2-1.7-0.7S40.2,159.2,40.2,158.4z
			 M41.1,158.4c0,0.7,0.1,1.2,0.4,1.5c0.3,0.3,0.6,0.5,1.1,0.5c0.4,0,0.8-0.2,1.1-0.5s0.4-0.8,0.4-1.5c0-0.6-0.1-1.1-0.4-1.4
			c-0.3-0.3-0.6-0.5-1.1-0.5c-0.4,0-0.8,0.2-1.1,0.5S41.1,157.7,41.1,158.4z"/>
		<path class="st0" d="M46.1,160.9v-5.1h0.8v0.8c0.2-0.4,0.4-0.6,0.6-0.7c0.2-0.1,0.4-0.2,0.6-0.2c0.3,0,0.6,0.1,0.9,0.3l-0.3,0.8
			c-0.2-0.1-0.4-0.2-0.6-0.2c-0.2,0-0.4,0.1-0.5,0.2c-0.2,0.1-0.3,0.3-0.3,0.5c-0.1,0.3-0.1,0.6-0.1,1v2.7H46.1z"/>
		<path class="st0" d="M51.3,160.2l0.1,0.8c-0.2,0.1-0.5,0.1-0.7,0.1c-0.3,0-0.6-0.1-0.7-0.1c-0.2-0.1-0.3-0.2-0.4-0.4
			c-0.1-0.2-0.1-0.5-0.1-1v-3h-0.6v-0.7h0.6v-1.3l0.9-0.5v1.8h0.9v0.7h-0.9v3c0,0.2,0,0.4,0,0.5c0,0.1,0.1,0.1,0.2,0.2
			c0.1,0,0.2,0.1,0.3,0.1C51,160.2,51.1,160.2,51.3,160.2z"/>
		<path class="st0" d="M54.7,157.5c0-1.2,0.3-2.1,0.9-2.8c0.6-0.7,1.4-1,2.4-1c0.7,0,1.2,0.2,1.8,0.5c0.5,0.3,0.9,0.7,1.2,1.3
			c0.3,0.6,0.4,1.2,0.4,1.9c0,0.7-0.1,1.4-0.4,1.9c-0.3,0.6-0.7,1-1.2,1.3s-1.1,0.4-1.7,0.4c-0.7,0-1.3-0.2-1.8-0.5
			c-0.5-0.3-0.9-0.8-1.2-1.3C54.8,158.7,54.7,158.1,54.7,157.5z M55.7,157.5c0,0.9,0.2,1.5,0.7,2c0.5,0.5,1,0.7,1.7,0.7
			c0.7,0,1.3-0.2,1.7-0.7s0.7-1.2,0.7-2.1c0-0.6-0.1-1.1-0.3-1.5c-0.2-0.4-0.5-0.8-0.9-1c-0.4-0.2-0.8-0.4-1.3-0.4
			c-0.7,0-1.2,0.2-1.7,0.7C55.9,155.7,55.7,156.4,55.7,157.5z"/>
		<path class="st0" d="M62.6,162.9v-7.1h0.8v0.7c0.2-0.3,0.4-0.5,0.6-0.6c0.2-0.1,0.5-0.2,0.9-0.2c0.4,0,0.8,0.1,1.2,0.3
			c0.3,0.2,0.6,0.5,0.8,1c0.2,0.4,0.3,0.9,0.3,1.4c0,0.5-0.1,1-0.3,1.4c-0.2,0.4-0.5,0.7-0.8,1c-0.4,0.2-0.7,0.3-1.1,0.3
			c-0.3,0-0.6-0.1-0.8-0.2c-0.2-0.1-0.4-0.3-0.6-0.5v2.5H62.6z M63.4,158.4c0,0.7,0.1,1.1,0.4,1.5c0.3,0.3,0.6,0.5,1,0.5
			c0.4,0,0.7-0.2,1-0.5c0.3-0.3,0.4-0.8,0.4-1.5c0-0.7-0.1-1.1-0.4-1.5s-0.6-0.5-1-0.5c-0.4,0-0.7,0.2-1,0.5
			C63.5,157.2,63.4,157.7,63.4,158.4z"/>
		<path class="st0" d="M70,160.2l0.1,0.8c-0.2,0.1-0.5,0.1-0.7,0.1c-0.3,0-0.6-0.1-0.7-0.1c-0.2-0.1-0.3-0.2-0.4-0.4
			c-0.1-0.2-0.1-0.5-0.1-1v-3h-0.6v-0.7h0.6v-1.3l0.9-0.5v1.8H70v0.7h-0.9v3c0,0.2,0,0.4,0,0.5c0,0.1,0.1,0.1,0.2,0.2
			c0.1,0,0.2,0.1,0.3,0.1C69.7,160.2,69.8,160.2,70,160.2z"/>
		<path class="st0" d="M70.8,154.9v-1h0.9v1H70.8z M70.8,160.9v-5.1h0.9v5.1H70.8z"/>
		<path class="st0" d="M72.7,158.4c0-1,0.3-1.7,0.8-2.1c0.4-0.4,1-0.6,1.6-0.6c0.7,0,1.3,0.2,1.7,0.7s0.7,1.1,0.7,1.9
			c0,0.7-0.1,1.2-0.3,1.6c-0.2,0.4-0.5,0.7-0.9,0.9c-0.4,0.2-0.8,0.3-1.2,0.3c-0.7,0-1.3-0.2-1.7-0.7S72.7,159.2,72.7,158.4z
			 M73.6,158.4c0,0.7,0.1,1.2,0.4,1.5c0.3,0.3,0.6,0.5,1.1,0.5c0.4,0,0.8-0.2,1.1-0.5s0.4-0.8,0.4-1.5c0-0.6-0.1-1.1-0.4-1.4
			c-0.3-0.3-0.6-0.5-1.1-0.5c-0.4,0-0.8,0.2-1.1,0.5S73.6,157.7,73.6,158.4z"/>
		<path class="st0" d="M78.6,160.9v-5.1h0.8v0.7c0.4-0.6,0.9-0.8,1.6-0.8c0.3,0,0.6,0.1,0.9,0.2s0.5,0.3,0.6,0.4
			c0.1,0.2,0.2,0.4,0.3,0.6c0,0.2,0,0.4,0,0.8v3.2h-0.9v-3.1c0-0.4,0-0.6-0.1-0.8c-0.1-0.2-0.2-0.3-0.4-0.4
			c-0.2-0.1-0.4-0.2-0.6-0.2c-0.4,0-0.7,0.1-1,0.4s-0.4,0.7-0.4,1.3v2.8H78.6z"/>
	</g>
	<g>
		<path class="st51" d="M212,192.5H23.9c-1.2,0-2.1-1-2.1-2.1v-19.9c0-1.2,1-2.1,2.1-2.1H212c1.2,0,2.1,1,2.1,2.1v19.9
			C214.2,191.6,213.2,192.5,212,192.5z"/>
	</g>
	<g>
		<path class="st52" d="M31.3,183.9v-6H29v-0.8h5.4v0.8h-2.2v6H31.3z"/>
		<path class="st52" d="M37.4,183.3c-0.3,0.3-0.6,0.4-0.9,0.6c-0.3,0.1-0.6,0.2-0.9,0.2c-0.5,0-1-0.1-1.2-0.4
			c-0.3-0.3-0.4-0.6-0.4-1c0-0.2,0.1-0.5,0.2-0.7c0.1-0.2,0.3-0.4,0.4-0.5c0.2-0.1,0.4-0.2,0.6-0.3c0.2,0,0.4-0.1,0.7-0.1
			c0.7-0.1,1.2-0.2,1.5-0.3c0-0.1,0-0.2,0-0.2c0-0.3-0.1-0.6-0.2-0.7c-0.2-0.2-0.5-0.3-0.9-0.3c-0.4,0-0.7,0.1-0.9,0.2
			c-0.2,0.1-0.3,0.4-0.4,0.7l-0.8-0.1c0.1-0.3,0.2-0.6,0.4-0.8c0.2-0.2,0.4-0.4,0.7-0.5c0.3-0.1,0.7-0.2,1.1-0.2c0.4,0,0.8,0,1,0.1
			s0.5,0.2,0.6,0.4s0.2,0.3,0.3,0.6c0,0.1,0,0.4,0,0.8v1.1c0,0.8,0,1.3,0.1,1.5s0.1,0.4,0.2,0.6h-0.9
			C37.5,183.7,37.4,183.5,37.4,183.3z M37.3,181.5c-0.3,0.1-0.8,0.2-1.4,0.3c-0.3,0-0.6,0.1-0.7,0.2c-0.1,0.1-0.3,0.2-0.3,0.3
			c-0.1,0.1-0.1,0.2-0.1,0.4c0,0.2,0.1,0.4,0.3,0.6c0.2,0.1,0.4,0.2,0.7,0.2c0.3,0,0.6-0.1,0.9-0.2s0.4-0.3,0.5-0.6
			c0.1-0.2,0.1-0.5,0.1-0.8V181.5z"/>
		<path class="st52" d="M38.9,183.9l1.8-2.5L39,179h1l0.8,1.1c0.1,0.2,0.3,0.4,0.3,0.5c0.1-0.2,0.3-0.4,0.4-0.5l0.8-1.2h1l-1.7,2.3
			l1.8,2.6h-1l-1-1.5l-0.3-0.4l-1.3,1.9H38.9z"/>
		<path class="st52" d="M51.7,181.5l0.9,0.2c-0.2,0.7-0.5,1.3-1,1.7c-0.5,0.4-1.1,0.6-1.8,0.6c-0.7,0-1.3-0.1-1.8-0.4
			c-0.5-0.3-0.8-0.7-1-1.3s-0.4-1.2-0.4-1.8c0-0.7,0.1-1.3,0.4-1.8s0.7-0.9,1.2-1.2s1-0.4,1.6-0.4c0.7,0,1.2,0.2,1.7,0.5
			s0.8,0.8,1,1.5l-0.9,0.2c-0.2-0.5-0.4-0.9-0.7-1.1s-0.7-0.3-1.1-0.3c-0.5,0-1,0.1-1.3,0.4c-0.3,0.2-0.6,0.6-0.7,1
			s-0.2,0.9-0.2,1.3c0,0.6,0.1,1.1,0.3,1.5c0.2,0.4,0.4,0.8,0.8,1c0.4,0.2,0.7,0.3,1.1,0.3c0.5,0,0.9-0.1,1.3-0.4
			C51.4,182.5,51.6,182.1,51.7,181.5z"/>
		<path class="st52" d="M57,182.3l0.9,0.1c-0.1,0.5-0.4,0.9-0.8,1.2c-0.4,0.3-0.8,0.4-1.4,0.4c-0.7,0-1.3-0.2-1.7-0.7
			c-0.4-0.4-0.6-1.1-0.6-1.9c0-0.8,0.2-1.5,0.6-1.9s1-0.7,1.7-0.7c0.7,0,1.2,0.2,1.6,0.7c0.4,0.4,0.6,1.1,0.6,1.9c0,0,0,0.1,0,0.2
			h-3.7c0,0.5,0.2,1,0.5,1.2c0.3,0.3,0.6,0.4,1,0.4c0.3,0,0.6-0.1,0.8-0.2C56.7,182.9,56.9,182.7,57,182.3z M54.3,181H57
			c0-0.4-0.1-0.7-0.3-0.9c-0.3-0.3-0.6-0.5-1-0.5c-0.4,0-0.7,0.1-1,0.4C54.4,180.2,54.3,180.6,54.3,181z"/>
		<path class="st52" d="M58.9,183.9V179h0.7v0.7c0.2-0.3,0.4-0.6,0.5-0.7c0.2-0.1,0.3-0.2,0.5-0.2c0.3,0,0.6,0.1,0.9,0.3l-0.3,0.8
			c-0.2-0.1-0.4-0.2-0.6-0.2c-0.2,0-0.3,0.1-0.5,0.2s-0.2,0.3-0.3,0.5c-0.1,0.3-0.1,0.6-0.1,1v2.6H58.9z"/>
		<path class="st52" d="M63.9,183.2l0.1,0.7c-0.2,0-0.4,0.1-0.6,0.1c-0.3,0-0.5,0-0.7-0.1c-0.2-0.1-0.3-0.2-0.4-0.4
			c-0.1-0.2-0.1-0.5-0.1-1v-2.8h-0.6V179h0.6v-1.2l0.8-0.5v1.7h0.8v0.6H63v2.9c0,0.2,0,0.4,0,0.5c0,0.1,0.1,0.1,0.1,0.2
			c0.1,0,0.2,0.1,0.3,0.1C63.6,183.2,63.7,183.2,63.9,183.2z"/>
		<path class="st52" d="M64.7,178.1v-1h0.8v1H64.7z M64.7,183.9V179h0.8v4.9H64.7z"/>
		<path class="st52" d="M67,183.9v-4.3h-0.7V179H67v-0.5c0-0.5,0.1-0.9,0.3-1.1s0.5-0.4,1-0.4c0.3,0,0.6,0,0.8,0.1l-0.1,0.7
			c-0.2,0-0.3,0-0.4,0c-0.3,0-0.5,0.1-0.6,0.2c-0.1,0.1-0.2,0.4-0.2,0.7v0.3h1v0.6h-1v4.3H67z M69.4,178.1v-1h0.8v1H69.4z
			 M69.4,183.9V179h0.8v4.9H69.4z"/>
		<path class="st52" d="M74.7,182.1l0.8,0.1c-0.1,0.6-0.3,1-0.7,1.3c-0.4,0.3-0.8,0.5-1.4,0.5c-0.7,0-1.2-0.2-1.6-0.7
			c-0.4-0.4-0.6-1.1-0.6-1.9c0-0.5,0.1-1,0.3-1.4c0.2-0.4,0.4-0.7,0.8-0.9c0.4-0.2,0.7-0.3,1.2-0.3c0.5,0,1,0.1,1.3,0.4
			c0.3,0.3,0.6,0.7,0.7,1.1l-0.8,0.1c-0.1-0.3-0.2-0.6-0.4-0.7c-0.2-0.2-0.4-0.2-0.7-0.2c-0.4,0-0.8,0.1-1,0.5s-0.4,0.8-0.4,1.4
			c0,0.7,0.1,1.1,0.4,1.4c0.3,0.3,0.6,0.4,1,0.4c0.3,0,0.6-0.1,0.8-0.3C74.5,182.8,74.6,182.5,74.7,182.1z"/>
		<path class="st52" d="M79.4,183.3c-0.3,0.3-0.6,0.4-0.9,0.6c-0.3,0.1-0.6,0.2-0.9,0.2c-0.5,0-1-0.1-1.2-0.4
			c-0.3-0.3-0.4-0.6-0.4-1c0-0.2,0.1-0.5,0.2-0.7c0.1-0.2,0.3-0.4,0.4-0.5c0.2-0.1,0.4-0.2,0.6-0.3c0.2,0,0.4-0.1,0.7-0.1
			c0.7-0.1,1.2-0.2,1.5-0.3c0-0.1,0-0.2,0-0.2c0-0.3-0.1-0.6-0.2-0.7c-0.2-0.2-0.5-0.3-0.9-0.3c-0.4,0-0.7,0.1-0.9,0.2
			c-0.2,0.1-0.3,0.4-0.4,0.7l-0.8-0.1c0.1-0.3,0.2-0.6,0.4-0.8c0.2-0.2,0.4-0.4,0.7-0.5c0.3-0.1,0.7-0.2,1.1-0.2c0.4,0,0.8,0,1,0.1
			s0.5,0.2,0.6,0.4s0.2,0.3,0.3,0.6c0,0.1,0,0.4,0,0.8v1.1c0,0.8,0,1.3,0.1,1.5s0.1,0.4,0.2,0.6h-0.9
			C79.5,183.7,79.4,183.5,79.4,183.3z M79.4,181.5c-0.3,0.1-0.8,0.2-1.4,0.3c-0.3,0-0.6,0.1-0.7,0.2c-0.1,0.1-0.3,0.2-0.3,0.3
			c-0.1,0.1-0.1,0.2-0.1,0.4c0,0.2,0.1,0.4,0.3,0.6c0.2,0.1,0.4,0.2,0.7,0.2c0.3,0,0.6-0.1,0.9-0.2s0.4-0.3,0.5-0.6
			c0.1-0.2,0.1-0.5,0.1-0.8V181.5z"/>
		<path class="st52" d="M83.3,183.2l0.1,0.7c-0.2,0-0.4,0.1-0.6,0.1c-0.3,0-0.5,0-0.7-0.1c-0.2-0.1-0.3-0.2-0.4-0.4
			c-0.1-0.2-0.1-0.5-0.1-1v-2.8H81V179h0.6v-1.2l0.8-0.5v1.7h0.8v0.6h-0.8v2.9c0,0.2,0,0.4,0,0.5c0,0.1,0.1,0.1,0.1,0.2
			c0.1,0,0.2,0.1,0.3,0.1C83,183.2,83.1,183.2,83.3,183.2z"/>
		<path class="st52" d="M87.5,182.3l0.9,0.1c-0.1,0.5-0.4,0.9-0.8,1.2c-0.4,0.3-0.8,0.4-1.4,0.4c-0.7,0-1.3-0.2-1.7-0.7
			c-0.4-0.4-0.6-1.1-0.6-1.9c0-0.8,0.2-1.5,0.6-1.9s1-0.7,1.7-0.7c0.7,0,1.2,0.2,1.6,0.7c0.4,0.4,0.6,1.1,0.6,1.9c0,0,0,0.1,0,0.2
			h-3.7c0,0.5,0.2,1,0.5,1.2c0.3,0.3,0.6,0.4,1,0.4c0.3,0,0.6-0.1,0.8-0.2C87.2,182.9,87.3,182.7,87.5,182.3z M84.7,181h2.7
			c0-0.4-0.1-0.7-0.3-0.9c-0.3-0.3-0.6-0.5-1-0.5c-0.4,0-0.7,0.1-1,0.4C84.9,180.2,84.8,180.6,84.7,181z"/>
	</g>
	<g>
		<path class="st0" d="M22.5,259.5v-7.1h4.8v0.8h-3.8v2.2h3.3v0.8h-3.3v3.2H22.5z"/>
		<path class="st0" d="M28.4,259.5v-5.1h0.8v0.8c0.2-0.4,0.4-0.6,0.6-0.7c0.2-0.1,0.4-0.2,0.6-0.2c0.3,0,0.6,0.1,0.9,0.3l-0.3,0.8
			c-0.2-0.1-0.4-0.2-0.6-0.2c-0.2,0-0.4,0.1-0.5,0.2c-0.2,0.1-0.3,0.3-0.3,0.5c-0.1,0.3-0.1,0.6-0.1,1v2.7H28.4z"/>
		<path class="st0" d="M31.4,256.9c0-1,0.3-1.7,0.8-2.1c0.4-0.4,1-0.6,1.6-0.6c0.7,0,1.3,0.2,1.7,0.7s0.7,1.1,0.7,1.9
			c0,0.7-0.1,1.2-0.3,1.6c-0.2,0.4-0.5,0.7-0.9,0.9s-0.8,0.3-1.2,0.3c-0.7,0-1.3-0.2-1.7-0.7C31.6,258.4,31.4,257.8,31.4,256.9z
			 M32.3,256.9c0,0.7,0.1,1.2,0.4,1.5s0.6,0.5,1.1,0.5c0.4,0,0.8-0.2,1.1-0.5c0.3-0.3,0.4-0.8,0.4-1.5c0-0.6-0.1-1.1-0.4-1.4
			c-0.3-0.3-0.6-0.5-1.1-0.5c-0.4,0-0.8,0.2-1.1,0.5C32.4,255.7,32.3,256.2,32.3,256.9z"/>
		<path class="st0" d="M37.2,259.5v-5.1H38v0.7c0.2-0.3,0.4-0.5,0.6-0.6s0.6-0.2,0.9-0.2c0.4,0,0.7,0.1,0.9,0.2s0.4,0.4,0.5,0.7
			c0.4-0.6,0.9-0.9,1.6-0.9c0.5,0,0.9,0.1,1.2,0.4c0.3,0.3,0.4,0.7,0.4,1.3v3.5h-0.9v-3.2c0-0.3,0-0.6-0.1-0.8
			c-0.1-0.2-0.2-0.3-0.3-0.4c-0.1-0.1-0.3-0.1-0.5-0.1c-0.4,0-0.7,0.1-0.9,0.4s-0.4,0.6-0.4,1.2v3h-0.9v-3.3c0-0.4-0.1-0.7-0.2-0.9
			c-0.1-0.2-0.4-0.3-0.7-0.3c-0.2,0-0.5,0.1-0.7,0.2s-0.4,0.3-0.5,0.6c-0.1,0.2-0.1,0.6-0.1,1.1v2.7H37.2z"/>
		<path class="st0" d="M48.4,259.5v-7.1h2.4c0.6,0,1,0,1.3,0.1c0.4,0.1,0.8,0.3,1,0.5c0.4,0.3,0.7,0.7,0.8,1.2
			c0.2,0.5,0.3,1.1,0.3,1.7c0,0.5-0.1,1-0.2,1.4c-0.1,0.4-0.3,0.8-0.5,1c-0.2,0.3-0.4,0.5-0.6,0.6c-0.2,0.2-0.5,0.3-0.8,0.4
			c-0.3,0.1-0.7,0.1-1.1,0.1H48.4z M49.3,258.6h1.5c0.5,0,0.8,0,1.1-0.1c0.3-0.1,0.5-0.2,0.6-0.4c0.2-0.2,0.4-0.5,0.5-0.9
			c0.1-0.4,0.2-0.8,0.2-1.4c0-0.7-0.1-1.3-0.4-1.7s-0.5-0.7-0.9-0.8c-0.3-0.1-0.7-0.1-1.2-0.1h-1.5V258.6z"/>
		<path class="st0" d="M58.8,258.8c-0.3,0.3-0.6,0.5-0.9,0.6c-0.3,0.1-0.6,0.2-1,0.2c-0.6,0-1-0.1-1.3-0.4c-0.3-0.3-0.5-0.6-0.5-1.1
			c0-0.3,0.1-0.5,0.2-0.7c0.1-0.2,0.3-0.4,0.5-0.5s0.4-0.2,0.6-0.3c0.2,0,0.4-0.1,0.8-0.1c0.7-0.1,1.2-0.2,1.6-0.3
			c0-0.1,0-0.2,0-0.2c0-0.4-0.1-0.6-0.2-0.8c-0.2-0.2-0.6-0.3-1-0.3c-0.4,0-0.7,0.1-0.9,0.2c-0.2,0.1-0.3,0.4-0.4,0.8l-0.9-0.1
			c0.1-0.4,0.2-0.7,0.4-0.9c0.2-0.2,0.4-0.4,0.8-0.5c0.3-0.1,0.7-0.2,1.2-0.2c0.4,0,0.8,0.1,1.1,0.2c0.3,0.1,0.5,0.2,0.6,0.4
			c0.1,0.2,0.2,0.4,0.3,0.6c0,0.1,0,0.4,0,0.8v1.2c0,0.8,0,1.3,0.1,1.5c0,0.2,0.1,0.4,0.2,0.6h-0.9
			C58.8,259.3,58.8,259.1,58.8,258.8z M58.7,256.9c-0.3,0.1-0.8,0.2-1.4,0.3c-0.4,0.1-0.6,0.1-0.8,0.2s-0.3,0.2-0.3,0.3
			c-0.1,0.1-0.1,0.3-0.1,0.4c0,0.2,0.1,0.4,0.3,0.6c0.2,0.2,0.4,0.2,0.8,0.2c0.3,0,0.6-0.1,0.9-0.2c0.3-0.1,0.5-0.3,0.6-0.6
			c0.1-0.2,0.1-0.5,0.1-0.9V256.9z"/>
		<path class="st0" d="M62.8,258.7l0.1,0.8c-0.2,0.1-0.5,0.1-0.7,0.1c-0.3,0-0.6,0-0.7-0.1c-0.2-0.1-0.3-0.2-0.4-0.4
			c-0.1-0.2-0.1-0.5-0.1-1v-3h-0.6v-0.7h0.6V253l0.9-0.5v1.8h0.9v0.7h-0.9v3c0,0.2,0,0.4,0,0.5c0,0.1,0.1,0.1,0.2,0.2
			s0.2,0.1,0.3,0.1C62.5,258.7,62.7,258.7,62.8,258.7z"/>
		<path class="st0" d="M67.2,257.8l0.9,0.1c-0.1,0.5-0.4,0.9-0.8,1.2s-0.9,0.4-1.5,0.4c-0.8,0-1.3-0.2-1.8-0.7
			c-0.4-0.5-0.7-1.1-0.7-1.9c0-0.9,0.2-1.5,0.7-2c0.4-0.5,1-0.7,1.7-0.7c0.7,0,1.2,0.2,1.7,0.7s0.7,1.1,0.7,2c0,0.1,0,0.1,0,0.2
			h-3.8c0,0.6,0.2,1,0.5,1.3s0.6,0.5,1.1,0.5c0.3,0,0.6-0.1,0.8-0.3C66.9,258.4,67.1,258.2,67.2,257.8z M64.3,256.4h2.9
			c0-0.4-0.1-0.8-0.3-1c-0.3-0.3-0.6-0.5-1.1-0.5c-0.4,0-0.7,0.1-1,0.4C64.5,255.6,64.4,255.9,64.3,256.4z"/>
	</g>
	<g>
		<path class="st51" d="M212,291H23.9c-1.2,0-2.1-1-2.1-2.1V269c0-1.2,1-2.1,2.1-2.1H212c1.2,0,2.1,1,2.1,2.1v19.9
			C214.2,290.1,213.2,291,212,291z"/>
	</g>
	<g>
		<g>
			<path class="st33" d="M98.4,277.1L98.4,277.1l-1.1,0.6l-0.2-0.6l1.3-0.7h0.7v6.1h-0.8V277.1z"/>
			<path class="st33" d="M103.1,276h0.8v4.3c0,1.7-0.8,2.2-1.9,2.2c-0.3,0-0.7-0.1-0.9-0.2l0.1-0.7c0.2,0.1,0.4,0.1,0.7,0.1
				c0.7,0,1.2-0.3,1.2-1.6V276z"/>
			<path class="st33" d="M109.1,281.2c0,0.5,0,0.9,0,1.2h-0.7l0-0.7h0c-0.2,0.4-0.7,0.9-1.5,0.9c-0.7,0-1.6-0.4-1.6-2v-2.7h0.8v2.5
				c0,0.9,0.3,1.5,1,1.5c0.6,0,0.9-0.4,1.1-0.8c0-0.1,0.1-0.3,0.1-0.4v-2.8h0.8V281.2z"/>
			<path class="st33" d="M110.4,275.7h0.8v6.7h-0.8V275.7z"/>
			<path class="st33" d="M112,283.6c0.2-0.6,0.5-1.6,0.6-2.3l0.9-0.1c-0.2,0.8-0.6,1.9-0.9,2.3L112,283.6z"/>
			<path class="st33" d="M116.3,282.4v-0.5l0.7-0.6c1.6-1.5,2.3-2.3,2.3-3.2c0-0.6-0.3-1.2-1.2-1.2c-0.6,0-1,0.3-1.3,0.5l-0.3-0.6
				c0.4-0.4,1-0.6,1.7-0.6c1.3,0,1.9,0.9,1.9,1.8c0,1.1-0.8,2.1-2.1,3.3l-0.5,0.5v0h2.8v0.7H116.3z"/>
			<path class="st33" d="M125.2,279.3c0,2.1-0.8,3.2-2.1,3.2c-1.2,0-2-1.1-2-3.2c0-2.1,0.9-3.2,2.1-3.2
				C124.5,276.2,125.2,277.3,125.2,279.3z M121.9,279.4c0,1.6,0.5,2.5,1.2,2.5c0.9,0,1.3-1,1.3-2.6c0-1.5-0.4-2.5-1.2-2.5
				C122.4,276.8,121.9,277.7,121.9,279.4z"/>
			<path class="st33" d="M126,282.4v-0.5l0.7-0.6c1.6-1.5,2.3-2.3,2.3-3.2c0-0.6-0.3-1.2-1.2-1.2c-0.6,0-1,0.3-1.3,0.5l-0.3-0.6
				c0.4-0.4,1-0.6,1.7-0.6c1.3,0,1.9,0.9,1.9,1.8c0,1.1-0.8,2.1-2.1,3.3l-0.5,0.5v0h2.8v0.7H126z"/>
			<path class="st33" d="M133.4,282.4v-1.7h-2.9v-0.5l2.7-3.9h0.9v3.8h0.9v0.7h-0.9v1.7H133.4z M133.4,280.1V278c0-0.3,0-0.6,0-1h0
				c-0.2,0.4-0.3,0.6-0.5,0.9l-1.5,2.1v0H133.4z"/>
		</g>
	</g>
	<g>
		<path class="st0" d="M22.7,210.2v-7.1h0.9v7.1H22.7z"/>
		<path class="st0" d="M25.1,210.2v-5.1h0.8v0.7c0.4-0.6,0.9-0.8,1.6-0.8c0.3,0,0.6,0.1,0.9,0.2s0.5,0.3,0.6,0.4
			c0.1,0.2,0.2,0.4,0.3,0.6c0,0.2,0,0.4,0,0.8v3.2h-0.9v-3.1c0-0.4,0-0.6-0.1-0.8c-0.1-0.2-0.2-0.3-0.4-0.4
			c-0.2-0.1-0.4-0.2-0.6-0.2c-0.4,0-0.7,0.1-1,0.4s-0.4,0.7-0.4,1.3v2.8H25.1z"/>
		<path class="st0" d="M32.1,210.2l-2-5.1H31l1.1,3.1c0.1,0.3,0.2,0.7,0.3,1c0.1-0.3,0.2-0.6,0.3-1l1.1-3.1h0.9l-1.9,5.1H32.1z"/>
		<path class="st0" d="M39.1,208.5l0.9,0.1c-0.1,0.5-0.4,0.9-0.8,1.2c-0.4,0.3-0.9,0.4-1.5,0.4c-0.8,0-1.3-0.2-1.8-0.7
			s-0.7-1.1-0.7-1.9c0-0.9,0.2-1.5,0.7-2c0.4-0.5,1-0.7,1.7-0.7c0.7,0,1.2,0.2,1.7,0.7c0.4,0.5,0.7,1.1,0.7,2c0,0.1,0,0.1,0,0.2
			h-3.8c0,0.6,0.2,1,0.5,1.3s0.6,0.4,1.1,0.4c0.3,0,0.6-0.1,0.8-0.3C38.8,209.2,39,208.9,39.1,208.5z M36.3,207.1h2.9
			c0-0.4-0.1-0.8-0.3-1c-0.3-0.3-0.6-0.5-1.1-0.5c-0.4,0-0.7,0.1-1,0.4S36.3,206.7,36.3,207.1z"/>
		<path class="st0" d="M40.8,208.7l0.9-0.1c0,0.3,0.2,0.6,0.4,0.8c0.2,0.2,0.5,0.3,0.9,0.3c0.4,0,0.7-0.1,0.9-0.2
			c0.2-0.2,0.3-0.4,0.3-0.6c0-0.2-0.1-0.4-0.3-0.5c-0.1-0.1-0.4-0.2-0.9-0.3c-0.6-0.2-1.1-0.3-1.3-0.4c-0.2-0.1-0.4-0.3-0.6-0.5
			c-0.1-0.2-0.2-0.4-0.2-0.7c0-0.2,0.1-0.4,0.2-0.6c0.1-0.2,0.2-0.4,0.4-0.5c0.1-0.1,0.3-0.2,0.6-0.3c0.2-0.1,0.5-0.1,0.8-0.1
			c0.4,0,0.8,0.1,1.1,0.2c0.3,0.1,0.5,0.3,0.7,0.5c0.1,0.2,0.2,0.5,0.3,0.8l-0.9,0.1c0-0.3-0.2-0.5-0.3-0.6s-0.4-0.2-0.8-0.2
			c-0.4,0-0.7,0.1-0.9,0.2c-0.2,0.1-0.3,0.3-0.3,0.5c0,0.1,0,0.2,0.1,0.3c0.1,0.1,0.2,0.2,0.3,0.2c0.1,0,0.3,0.1,0.8,0.2
			c0.6,0.2,1,0.3,1.3,0.4c0.2,0.1,0.4,0.3,0.6,0.5s0.2,0.4,0.2,0.7c0,0.3-0.1,0.6-0.3,0.8c-0.2,0.3-0.4,0.5-0.7,0.6
			c-0.3,0.1-0.7,0.2-1.1,0.2c-0.7,0-1.2-0.1-1.5-0.4C41.1,209.6,40.9,209.2,40.8,208.7z"/>
		<path class="st0" d="M47.9,209.4l0.1,0.8c-0.2,0.1-0.5,0.1-0.7,0.1c-0.3,0-0.6-0.1-0.7-0.1c-0.2-0.1-0.3-0.2-0.4-0.4
			c-0.1-0.2-0.1-0.5-0.1-1v-3h-0.6v-0.7h0.6v-1.3l0.9-0.5v1.8h0.9v0.7h-0.9v3c0,0.2,0,0.4,0,0.5c0,0.1,0.1,0.1,0.2,0.2
			c0.1,0,0.2,0.1,0.3,0.1C47.7,209.5,47.8,209.4,47.9,209.4z"/>
		<path class="st0" d="M48.5,207.6c0-1,0.3-1.7,0.8-2.1c0.4-0.4,1-0.6,1.6-0.6c0.7,0,1.3,0.2,1.7,0.7s0.7,1.1,0.7,1.9
			c0,0.7-0.1,1.2-0.3,1.6c-0.2,0.4-0.5,0.7-0.9,0.9c-0.4,0.2-0.8,0.3-1.2,0.3c-0.7,0-1.3-0.2-1.7-0.7S48.5,208.5,48.5,207.6z
			 M49.4,207.6c0,0.7,0.1,1.2,0.4,1.5c0.3,0.3,0.6,0.5,1.1,0.5c0.4,0,0.8-0.2,1.1-0.5s0.4-0.8,0.4-1.5c0-0.6-0.1-1.1-0.4-1.4
			c-0.3-0.3-0.6-0.5-1.1-0.5c-0.4,0-0.8,0.2-1.1,0.5S49.4,207,49.4,207.6z"/>
		<path class="st0" d="M54.3,210.2v-5.1h0.8v0.8c0.2-0.4,0.4-0.6,0.6-0.7c0.2-0.1,0.4-0.2,0.6-0.2c0.3,0,0.6,0.1,0.9,0.3l-0.3,0.8
			c-0.2-0.1-0.4-0.2-0.6-0.2c-0.2,0-0.4,0.1-0.5,0.2c-0.2,0.1-0.3,0.3-0.3,0.5c-0.1,0.3-0.1,0.6-0.1,1v2.7H54.3z"/>
		<path class="st0" d="M65.5,207.7l0.9,0.2c-0.2,0.8-0.6,1.4-1.1,1.8c-0.5,0.4-1.1,0.6-1.9,0.6c-0.8,0-1.4-0.2-1.9-0.5
			c-0.5-0.3-0.8-0.8-1.1-1.4c-0.2-0.6-0.4-1.2-0.4-1.9c0-0.7,0.1-1.4,0.4-1.9c0.3-0.5,0.7-1,1.2-1.3c0.5-0.3,1.1-0.4,1.7-0.4
			c0.7,0,1.3,0.2,1.8,0.5c0.5,0.4,0.8,0.9,1,1.5l-0.9,0.2c-0.2-0.5-0.4-0.9-0.7-1.1c-0.3-0.2-0.7-0.4-1.2-0.4c-0.5,0-1,0.1-1.4,0.4
			c-0.4,0.3-0.6,0.6-0.8,1.1c-0.1,0.4-0.2,0.9-0.2,1.4c0,0.6,0.1,1.1,0.3,1.6c0.2,0.4,0.4,0.8,0.8,1c0.4,0.2,0.8,0.3,1.2,0.3
			c0.5,0,1-0.2,1.3-0.5C65.2,208.8,65.4,208.3,65.5,207.7z"/>
		<path class="st0" d="M67.2,207.6c0-1,0.3-1.7,0.8-2.1c0.4-0.4,1-0.6,1.6-0.6c0.7,0,1.3,0.2,1.7,0.7s0.7,1.1,0.7,1.9
			c0,0.7-0.1,1.2-0.3,1.6c-0.2,0.4-0.5,0.7-0.9,0.9c-0.4,0.2-0.8,0.3-1.2,0.3c-0.7,0-1.3-0.2-1.7-0.7S67.2,208.5,67.2,207.6z
			 M68.1,207.6c0,0.7,0.1,1.2,0.4,1.5c0.3,0.3,0.6,0.5,1.1,0.5c0.4,0,0.8-0.2,1.1-0.5s0.4-0.8,0.4-1.5c0-0.6-0.1-1.1-0.4-1.4
			c-0.3-0.3-0.6-0.5-1.1-0.5c-0.4,0-0.8,0.2-1.1,0.5S68.1,207,68.1,207.6z"/>
		<path class="st0" d="M76.4,210.2v-0.6c-0.3,0.5-0.8,0.8-1.4,0.8c-0.4,0-0.8-0.1-1.1-0.3c-0.3-0.2-0.6-0.5-0.8-0.9
			c-0.2-0.4-0.3-0.9-0.3-1.4c0-0.5,0.1-1,0.3-1.4c0.2-0.4,0.4-0.7,0.8-1c0.3-0.2,0.7-0.3,1.1-0.3c0.3,0,0.6,0.1,0.8,0.2
			c0.2,0.1,0.4,0.3,0.6,0.5v-2.5h0.9v7.1H76.4z M73.6,207.6c0,0.7,0.1,1.1,0.4,1.5s0.6,0.5,1,0.5c0.4,0,0.7-0.2,1-0.5
			c0.3-0.3,0.4-0.8,0.4-1.4c0-0.7-0.1-1.2-0.4-1.5c-0.3-0.3-0.6-0.5-1-0.5c-0.4,0-0.7,0.2-1,0.5C73.7,206.5,73.6,207,73.6,207.6z"/>
		<path class="st0" d="M82.1,208.5l0.9,0.1c-0.1,0.5-0.4,0.9-0.8,1.2c-0.4,0.3-0.9,0.4-1.5,0.4c-0.8,0-1.3-0.2-1.8-0.7
			s-0.7-1.1-0.7-1.9c0-0.9,0.2-1.5,0.7-2c0.4-0.5,1-0.7,1.7-0.7c0.7,0,1.2,0.2,1.7,0.7c0.4,0.5,0.7,1.1,0.7,2c0,0.1,0,0.1,0,0.2
			h-3.8c0,0.6,0.2,1,0.5,1.3s0.6,0.4,1.1,0.4c0.3,0,0.6-0.1,0.8-0.3C81.7,209.2,81.9,208.9,82.1,208.5z M79.2,207.1h2.9
			c0-0.4-0.1-0.8-0.3-1c-0.3-0.3-0.6-0.5-1.1-0.5c-0.4,0-0.7,0.1-1,0.4S79.2,206.7,79.2,207.1z"/>
	</g>
	<g>
		<path class="st51" d="M212,241.8H23.9c-1.2,0-2.1-1-2.1-2.1v-19.9c0-1.2,1-2.1,2.1-2.1H212c1.2,0,2.1,1,2.1,2.1v19.9
			C214.2,240.8,213.2,241.8,212,241.8z"/>
	</g>
	<g>
		<g>
			<path class="st52" d="M29.6,233.2v-6.8h4.9v0.8h-4v2.1h3.7v0.8h-3.7v2.3h4.2v0.8H29.6z"/>
			<path class="st52" d="M35.4,227.6l0.2-0.7c0.5,0.2,0.8,0.3,1.1,0.4c-0.1-0.6-0.1-0.9-0.1-1.2h0.7c0,0.3,0,0.7-0.1,1.1
				c0.3-0.2,0.7-0.3,1.1-0.4l0.2,0.7c-0.4,0.1-0.8,0.2-1.2,0.3c0.2,0.2,0.5,0.5,0.8,0.9l-0.6,0.4c-0.2-0.2-0.4-0.6-0.6-1
				c-0.2,0.4-0.4,0.8-0.6,1l-0.5-0.4c0.4-0.4,0.6-0.7,0.8-0.9C36.2,227.8,35.8,227.7,35.4,227.6z"/>
			<path class="st52" d="M39.1,227.6l0.2-0.7c0.5,0.2,0.8,0.3,1.1,0.4c-0.1-0.6-0.1-0.9-0.1-1.2H41c0,0.3,0,0.7-0.1,1.1
				c0.3-0.2,0.7-0.3,1.1-0.4l0.2,0.7c-0.4,0.1-0.8,0.2-1.2,0.3c0.2,0.2,0.5,0.5,0.8,0.9l-0.6,0.4c-0.2-0.2-0.4-0.6-0.6-1
				c-0.2,0.4-0.4,0.8-0.6,1l-0.5-0.4c0.4-0.4,0.6-0.7,0.8-0.9C39.8,227.8,39.5,227.7,39.1,227.6z"/>
			<path class="st52" d="M42.8,227.6L43,227c0.5,0.2,0.8,0.3,1.1,0.4c-0.1-0.6-0.1-0.9-0.1-1.2h0.7c0,0.3,0,0.7-0.1,1.1
				c0.3-0.2,0.7-0.3,1.1-0.4l0.2,0.7c-0.4,0.1-0.8,0.2-1.2,0.3c0.2,0.2,0.5,0.5,0.8,0.9l-0.6,0.4c-0.2-0.2-0.4-0.6-0.6-1
				c-0.2,0.4-0.4,0.8-0.6,1l-0.5-0.4c0.4-0.4,0.6-0.7,0.8-0.9C43.5,227.8,43.1,227.7,42.8,227.6z"/>
			<path class="st52" d="M46.5,227.6l0.2-0.7c0.5,0.2,0.8,0.3,1.1,0.4c-0.1-0.6-0.1-0.9-0.1-1.2h0.7c0,0.3,0,0.7-0.1,1.1
				c0.3-0.2,0.7-0.3,1.1-0.4l0.2,0.7c-0.4,0.1-0.8,0.2-1.2,0.3c0.2,0.2,0.5,0.5,0.8,0.9l-0.6,0.4c-0.2-0.2-0.4-0.6-0.6-1
				c-0.2,0.4-0.4,0.8-0.6,1l-0.5-0.4c0.4-0.4,0.6-0.7,0.8-0.9C47.2,227.8,46.8,227.7,46.5,227.6z"/>
			<path class="st52" d="M50.2,227.6l0.2-0.7c0.5,0.2,0.8,0.3,1.1,0.4c-0.1-0.6-0.1-0.9-0.1-1.2H52c0,0.3,0,0.7-0.1,1.1
				c0.3-0.2,0.7-0.3,1.1-0.4l0.2,0.7c-0.4,0.1-0.8,0.2-1.2,0.3c0.2,0.2,0.5,0.5,0.8,0.9l-0.6,0.4c-0.2-0.2-0.4-0.6-0.6-1
				c-0.2,0.4-0.4,0.8-0.6,1l-0.5-0.4c0.4-0.4,0.6-0.7,0.8-0.9C50.9,227.8,50.5,227.7,50.2,227.6z"/>
		</g>
	</g>
	<g>
		<path class="st0" d="M24.3,308.7v-6.3H22v-0.8h5.6v0.8h-2.3v6.3H24.3z"/>
		<path class="st0" d="M27,306.1c0-1,0.3-1.7,0.8-2.1c0.4-0.4,1-0.6,1.6-0.6c0.7,0,1.3,0.2,1.7,0.7s0.7,1.1,0.7,1.9
			c0,0.7-0.1,1.2-0.3,1.6c-0.2,0.4-0.5,0.7-0.9,0.9s-0.8,0.3-1.2,0.3c-0.7,0-1.3-0.2-1.7-0.7C27.2,307.7,27,307,27,306.1z
			 M27.9,306.1c0,0.7,0.1,1.2,0.4,1.5s0.6,0.5,1.1,0.5c0.4,0,0.8-0.2,1.1-0.5c0.3-0.3,0.4-0.8,0.4-1.5c0-0.6-0.1-1.1-0.4-1.4
			c-0.3-0.3-0.6-0.5-1.1-0.5c-0.4,0-0.8,0.2-1.1,0.5C28.1,305,27.9,305.5,27.9,306.1z"/>
		<path class="st0" d="M35.7,308.7v-7.1h2.4c0.6,0,1,0,1.3,0.1c0.4,0.1,0.8,0.3,1,0.5c0.4,0.3,0.7,0.7,0.8,1.2
			c0.2,0.5,0.3,1.1,0.3,1.7c0,0.5-0.1,1-0.2,1.4c-0.1,0.4-0.3,0.8-0.5,1c-0.2,0.3-0.4,0.5-0.6,0.6c-0.2,0.2-0.5,0.3-0.8,0.4
			c-0.3,0.1-0.7,0.1-1.1,0.1H35.7z M36.6,307.9h1.5c0.5,0,0.8,0,1.1-0.1c0.3-0.1,0.5-0.2,0.6-0.4c0.2-0.2,0.4-0.5,0.5-0.9
			c0.1-0.4,0.2-0.8,0.2-1.4c0-0.7-0.1-1.3-0.4-1.7s-0.5-0.7-0.9-0.8c-0.3-0.1-0.7-0.1-1.2-0.1h-1.5V307.9z"/>
		<path class="st0" d="M46.1,308.1c-0.3,0.3-0.6,0.5-0.9,0.6c-0.3,0.1-0.6,0.2-1,0.2c-0.6,0-1-0.1-1.3-0.4c-0.3-0.3-0.5-0.6-0.5-1.1
			c0-0.3,0.1-0.5,0.2-0.7c0.1-0.2,0.3-0.4,0.5-0.5s0.4-0.2,0.6-0.3c0.2,0,0.4-0.1,0.8-0.1c0.7-0.1,1.2-0.2,1.6-0.3
			c0-0.1,0-0.2,0-0.2c0-0.4-0.1-0.6-0.2-0.8c-0.2-0.2-0.6-0.3-1-0.3c-0.4,0-0.7,0.1-0.9,0.2c-0.2,0.1-0.3,0.4-0.4,0.8l-0.9-0.1
			c0.1-0.4,0.2-0.7,0.4-0.9c0.2-0.2,0.4-0.4,0.8-0.5c0.3-0.1,0.7-0.2,1.2-0.2c0.4,0,0.8,0.1,1.1,0.2c0.3,0.1,0.5,0.2,0.6,0.4
			c0.1,0.2,0.2,0.4,0.3,0.6c0,0.1,0,0.4,0,0.8v1.2c0,0.8,0,1.3,0.1,1.5c0,0.2,0.1,0.4,0.2,0.6h-0.9
			C46.2,308.5,46.1,308.3,46.1,308.1z M46,306.1c-0.3,0.1-0.8,0.2-1.4,0.3c-0.4,0.1-0.6,0.1-0.8,0.2s-0.3,0.2-0.3,0.3
			c-0.1,0.1-0.1,0.3-0.1,0.4c0,0.2,0.1,0.4,0.3,0.6c0.2,0.2,0.4,0.2,0.8,0.2c0.3,0,0.6-0.1,0.9-0.2c0.3-0.1,0.5-0.3,0.6-0.6
			c0.1-0.2,0.1-0.5,0.1-0.9V306.1z"/>
		<path class="st0" d="M50.2,307.9l0.1,0.8c-0.2,0.1-0.5,0.1-0.7,0.1c-0.3,0-0.6,0-0.7-0.1c-0.2-0.1-0.3-0.2-0.4-0.4
			c-0.1-0.2-0.1-0.5-0.1-1v-3h-0.6v-0.7h0.6v-1.3l0.9-0.5v1.8h0.9v0.7h-0.9v3c0,0.2,0,0.4,0,0.5c0,0.1,0.1,0.1,0.2,0.2
			s0.2,0.1,0.3,0.1C49.9,308,50,307.9,50.2,307.9z"/>
		<path class="st0" d="M54.5,307.1l0.9,0.1c-0.1,0.5-0.4,0.9-0.8,1.2s-0.9,0.4-1.5,0.4c-0.8,0-1.3-0.2-1.8-0.7s-0.7-1.1-0.7-1.9
			c0-0.9,0.2-1.5,0.7-2s1-0.7,1.7-0.7c0.7,0,1.2,0.2,1.7,0.7s0.7,1.1,0.7,2c0,0.1,0,0.1,0,0.2h-3.8c0,0.6,0.2,1,0.5,1.3
			s0.6,0.5,1.1,0.5c0.3,0,0.6-0.1,0.8-0.3C54.2,307.7,54.4,307.4,54.5,307.1z M51.7,305.6h2.9c0-0.4-0.1-0.8-0.3-1
			c-0.3-0.3-0.6-0.5-1.1-0.5c-0.4,0-0.7,0.1-1,0.4C51.9,304.8,51.7,305.2,51.7,305.6z"/>
	</g>
	<g>
		<path class="st51" d="M212,340.3H23.9c-1.2,0-2.1-1-2.1-2.1v-19.9c0-1.2,1-2.1,2.1-2.1H212c1.2,0,2.1,1,2.1,2.1v19.9
			C214.2,339.3,213.2,340.3,212,340.3z"/>
	</g>
	<g>
		<path class="st33" d="M96.8,330.7c0.2,0.2,0.8,0.4,1.4,0.4c1.1,0,1.4-0.7,1.4-1.2c0-0.9-0.8-1.2-1.6-1.2h-0.5v-0.6H98
			c0.6,0,1.4-0.3,1.4-1c0-0.5-0.3-0.9-1.1-0.9c-0.5,0-1,0.2-1.2,0.4l-0.2-0.6c0.3-0.2,0.9-0.5,1.6-0.5c1.2,0,1.8,0.7,1.8,1.5
			c0,0.6-0.4,1.2-1.1,1.4v0c0.8,0.2,1.4,0.7,1.4,1.6c0,1-0.8,1.8-2.2,1.8c-0.7,0-1.3-0.2-1.6-0.4L96.8,330.7z"/>
		<path class="st33" d="M105.5,328.5c0,2.1-0.8,3.2-2.1,3.2c-1.2,0-2-1.1-2-3.2c0-2.1,0.9-3.2,2.1-3.2
			C104.8,325.4,105.5,326.6,105.5,328.5z M102.2,328.6c0,1.6,0.5,2.5,1.2,2.5c0.9,0,1.3-1,1.3-2.6c0-1.5-0.4-2.5-1.2-2.5
			C102.7,326.1,102.2,327,102.2,328.6z"/>
		<path class="st33" d="M109.9,325.3h0.8v4.3c0,1.7-0.8,2.2-1.9,2.2c-0.3,0-0.7-0.1-0.9-0.2l0.1-0.7c0.2,0.1,0.4,0.1,0.7,0.1
			c0.7,0,1.2-0.3,1.2-1.6V325.3z"/>
		<path class="st33" d="M115.9,330.4c0,0.5,0,0.9,0,1.2h-0.7l0-0.7h0c-0.2,0.4-0.7,0.9-1.5,0.9c-0.7,0-1.6-0.4-1.6-2v-2.7h0.8v2.5
			c0,0.9,0.3,1.5,1,1.5c0.6,0,0.9-0.4,1.1-0.8c0-0.1,0.1-0.3,0.1-0.4v-2.8h0.8V330.4z"/>
		<path class="st33" d="M117.3,328.3c0-0.5,0-0.9,0-1.2h0.7l0,0.8h0c0.2-0.4,0.8-0.9,1.5-0.9c0.6,0,1.6,0.4,1.6,1.9v2.7h-0.8V329
			c0-0.7-0.3-1.4-1.1-1.4c-0.5,0-1,0.4-1.1,0.9c0,0.1-0.1,0.2-0.1,0.4v2.8h-0.8V328.3z"/>
		<path class="st33" d="M122,332.8c0.2-0.6,0.5-1.6,0.6-2.3l0.9-0.1c-0.2,0.8-0.6,1.9-0.9,2.3L122,332.8z"/>
		<path class="st33" d="M126.2,331.7v-0.5l0.7-0.6c1.6-1.5,2.3-2.3,2.3-3.2c0-0.6-0.3-1.2-1.2-1.2c-0.6,0-1,0.3-1.3,0.5l-0.3-0.6
			c0.4-0.4,1-0.6,1.7-0.6c1.3,0,1.9,0.9,1.9,1.8c0,1.1-0.8,2.1-2.1,3.3l-0.5,0.5v0h2.8v0.7H126.2z"/>
		<path class="st33" d="M135.2,328.5c0,2.1-0.8,3.2-2.1,3.2c-1.2,0-2-1.1-2-3.2c0-2.1,0.9-3.2,2.1-3.2
			C134.4,325.4,135.2,326.6,135.2,328.5z M131.8,328.6c0,1.6,0.5,2.5,1.2,2.5c0.9,0,1.3-1,1.3-2.6c0-1.5-0.4-2.5-1.2-2.5
			C132.4,326.1,131.8,327,131.8,328.6z"/>
		<path class="st33" d="M135.9,331.7v-0.5l0.7-0.6c1.6-1.5,2.3-2.3,2.3-3.2c0-0.6-0.3-1.2-1.2-1.2c-0.6,0-1,0.3-1.3,0.5l-0.3-0.6
			c0.4-0.4,1-0.6,1.7-0.6c1.3,0,1.9,0.9,1.9,1.8c0,1.1-0.8,2.1-2.1,3.3l-0.5,0.5v0h2.8v0.7H135.9z"/>
		<path class="st33" d="M143.4,331.7V330h-2.9v-0.5l2.7-3.9h0.9v3.8h0.9v0.7h-0.9v1.7H143.4z M143.4,329.4v-2.1c0-0.3,0-0.6,0-1h0
			c-0.2,0.4-0.3,0.6-0.5,0.9l-1.5,2.1v0H143.4z"/>
	</g>
	<g>
		<path class="st0" d="M22.5,358v-7.1h2.7c0.5,0,0.8,0,1.1,0.1c0.3,0.1,0.6,0.2,0.9,0.3s0.4,0.4,0.6,0.7c0.1,0.3,0.2,0.6,0.2,1
			c0,0.6-0.2,1.1-0.6,1.5s-1.1,0.6-2.1,0.6h-1.8v2.9H22.5z M23.4,354.2h1.8c0.6,0,1-0.1,1.3-0.3c0.3-0.2,0.4-0.5,0.4-1
			c0-0.3-0.1-0.6-0.2-0.8c-0.2-0.2-0.3-0.4-0.6-0.4c-0.2,0-0.5-0.1-0.9-0.1h-1.8V354.2z"/>
		<path class="st0" d="M29,358v-5.1h0.8v0.8c0.2-0.4,0.4-0.6,0.6-0.7c0.2-0.1,0.4-0.2,0.6-0.2c0.3,0,0.6,0.1,0.9,0.3l-0.3,0.8
			c-0.2-0.1-0.4-0.2-0.6-0.2c-0.2,0-0.4,0.1-0.5,0.2c-0.2,0.1-0.3,0.3-0.3,0.5c-0.1,0.3-0.1,0.6-0.1,1v2.7H29z"/>
		<path class="st0" d="M32.3,351.9v-1h0.9v1H32.3z M32.3,358v-5.1h0.9v5.1H32.3z"/>
		<path class="st0" d="M34.5,358v-5.1h0.8v0.7c0.4-0.6,0.9-0.8,1.6-0.8c0.3,0,0.6,0.1,0.9,0.2s0.5,0.3,0.6,0.4s0.2,0.4,0.3,0.6
			c0,0.2,0,0.4,0,0.8v3.2h-0.9v-3.1c0-0.4,0-0.6-0.1-0.8c-0.1-0.2-0.2-0.3-0.4-0.4c-0.2-0.1-0.4-0.2-0.6-0.2c-0.4,0-0.7,0.1-1,0.4
			c-0.3,0.2-0.4,0.7-0.4,1.3v2.8H34.5z"/>
		<path class="st0" d="M41.9,357.2l0.1,0.8c-0.2,0.1-0.5,0.1-0.7,0.1c-0.3,0-0.6,0-0.7-0.1c-0.2-0.1-0.3-0.2-0.4-0.4
			c-0.1-0.2-0.1-0.5-0.1-1v-3h-0.6v-0.7h0.6v-1.3L41,351v1.8h0.9v0.7H41v3c0,0.2,0,0.4,0,0.5c0,0.1,0.1,0.1,0.2,0.2s0.2,0.1,0.3,0.1
			C41.6,357.2,41.7,357.2,41.9,357.2z"/>
		<path class="st0" d="M45.3,354.5c0-1.2,0.3-2.1,0.9-2.8c0.6-0.7,1.4-1,2.4-1c0.7,0,1.2,0.2,1.8,0.5c0.5,0.3,0.9,0.7,1.2,1.3
			c0.3,0.6,0.4,1.2,0.4,1.9c0,0.7-0.1,1.4-0.4,1.9c-0.3,0.6-0.7,1-1.2,1.3c-0.5,0.3-1.1,0.4-1.7,0.4c-0.7,0-1.3-0.2-1.8-0.5
			c-0.5-0.3-0.9-0.8-1.2-1.3C45.5,355.7,45.3,355.1,45.3,354.5z M46.3,354.5c0,0.9,0.2,1.5,0.7,2c0.5,0.5,1,0.7,1.7,0.7
			c0.7,0,1.3-0.2,1.7-0.7c0.5-0.5,0.7-1.2,0.7-2.1c0-0.6-0.1-1.1-0.3-1.5c-0.2-0.4-0.5-0.8-0.9-1c-0.4-0.2-0.8-0.4-1.3-0.4
			c-0.7,0-1.2,0.2-1.7,0.7C46.5,352.7,46.3,353.4,46.3,354.5z"/>
		<path class="st0" d="M53.2,359.9v-7.1H54v0.7c0.2-0.3,0.4-0.5,0.6-0.6c0.2-0.1,0.5-0.2,0.9-0.2c0.4,0,0.8,0.1,1.2,0.3
			c0.3,0.2,0.6,0.5,0.8,1s0.3,0.9,0.3,1.4c0,0.5-0.1,1-0.3,1.4c-0.2,0.4-0.5,0.7-0.8,1c-0.4,0.2-0.7,0.3-1.1,0.3
			c-0.3,0-0.6-0.1-0.8-0.2c-0.2-0.1-0.4-0.3-0.6-0.5v2.5H53.2z M54,355.4c0,0.7,0.1,1.2,0.4,1.5c0.3,0.3,0.6,0.5,1,0.5
			c0.4,0,0.7-0.2,1-0.5c0.3-0.3,0.4-0.8,0.4-1.5c0-0.7-0.1-1.1-0.4-1.5c-0.3-0.3-0.6-0.5-1-0.5c-0.4,0-0.7,0.2-1,0.5
			C54.1,354.3,54,354.8,54,355.4z"/>
		<path class="st0" d="M60.6,357.2l0.1,0.8c-0.2,0.1-0.5,0.1-0.7,0.1c-0.3,0-0.6,0-0.7-0.1c-0.2-0.1-0.3-0.2-0.4-0.4
			c-0.1-0.2-0.1-0.5-0.1-1v-3h-0.6v-0.7h0.6v-1.3l0.9-0.5v1.8h0.9v0.7h-0.9v3c0,0.2,0,0.4,0,0.5c0,0.1,0.1,0.1,0.2,0.2
			s0.2,0.1,0.3,0.1C60.3,357.2,60.5,357.2,60.6,357.2z"/>
		<path class="st0" d="M61.5,351.9v-1h0.9v1H61.5z M61.5,358v-5.1h0.9v5.1H61.5z"/>
		<path class="st0" d="M63.4,355.4c0-1,0.3-1.7,0.8-2.1c0.4-0.4,1-0.6,1.6-0.6c0.7,0,1.3,0.2,1.7,0.7s0.7,1.1,0.7,1.9
			c0,0.7-0.1,1.2-0.3,1.6c-0.2,0.4-0.5,0.7-0.9,0.9s-0.8,0.3-1.2,0.3c-0.7,0-1.3-0.2-1.7-0.7C63.6,356.9,63.4,356.3,63.4,355.4z
			 M64.2,355.4c0,0.7,0.1,1.2,0.4,1.5s0.6,0.5,1.1,0.5c0.4,0,0.8-0.2,1.1-0.5c0.3-0.3,0.4-0.8,0.4-1.5c0-0.6-0.1-1.1-0.4-1.4
			c-0.3-0.3-0.6-0.5-1.1-0.5c-0.4,0-0.8,0.2-1.1,0.5C64.4,354.2,64.2,354.7,64.2,355.4z"/>
		<path class="st0" d="M69.2,358v-5.1H70v0.7c0.4-0.6,0.9-0.8,1.6-0.8c0.3,0,0.6,0.1,0.9,0.2s0.5,0.3,0.6,0.4s0.2,0.4,0.3,0.6
			c0,0.2,0,0.4,0,0.8v3.2h-0.9v-3.1c0-0.4,0-0.6-0.1-0.8c-0.1-0.2-0.2-0.3-0.4-0.4c-0.2-0.1-0.4-0.2-0.6-0.2c-0.4,0-0.7,0.1-1,0.4
			c-0.3,0.2-0.4,0.7-0.4,1.3v2.8H69.2z"/>
	</g>
	<g>
		<path class="st51" d="M212,389.5H23.9c-1.2,0-2.1-1-2.1-2.1v-19.9c0-1.2,1-2.1,2.1-2.1H212c1.2,0,2.1,1,2.1,2.1v19.9
			C214.2,388.6,213.2,389.5,212,389.5z"/>
	</g>
	<g>
		<g>
			<path class="st52" d="M29.5,374.6c0.4-0.1,0.9-0.1,1.6-0.1c0.8,0,1.4,0.2,1.8,0.5c0.3,0.3,0.6,0.8,0.6,1.3c0,0.6-0.2,1-0.5,1.4
				c-0.4,0.5-1.1,0.7-1.9,0.7c-0.2,0-0.5,0-0.7-0.1v2.6h-0.8V374.6z M30.4,377.7c0.2,0,0.4,0.1,0.7,0.1c1,0,1.6-0.5,1.6-1.4
				c0-0.8-0.6-1.2-1.5-1.2c-0.4,0-0.6,0-0.8,0.1V377.7z"/>
			<path class="st52" d="M34.6,374.6c0.5-0.1,1.1-0.1,1.8-0.1c1.2,0,2,0.3,2.6,0.8c0.6,0.5,0.9,1.3,0.9,2.3c0,1-0.3,1.9-0.9,2.5
				c-0.6,0.6-1.6,0.9-2.8,0.9c-0.6,0-1.1,0-1.5-0.1V374.6z M35.4,380.3c0.2,0,0.5,0,0.8,0c1.8,0,2.7-1,2.7-2.7
				c0-1.5-0.8-2.5-2.6-2.5c-0.4,0-0.7,0-1,0.1V380.3z"/>
			<path class="st52" d="M40.9,374.6h3.4v0.7h-2.6v2.1h2.4v0.7h-2.4v2.9h-0.8V374.6z"/>
		</g>
	</g>
	<g>
		<path class="st53" d="M211.3,422.9h-40.1c-0.9,0-1.7-0.8-1.7-1.7v-15.3c0-0.9,0.8-1.7,1.7-1.7h40.1c0.9,0,1.7,0.8,1.7,1.7v15.3
			C213,422.2,212.2,422.9,211.3,422.9z"/>
		<g>
			<path class="st1" d="M175.1,417.4v-7.7h2.5c0.4,0,0.8,0,1,0.1c0.3,0.1,0.6,0.2,0.8,0.4c0.2,0.2,0.4,0.4,0.5,0.7
				c0.1,0.3,0.2,0.7,0.2,1.1c0,0.7-0.2,1.2-0.5,1.7c-0.4,0.5-1,0.7-2,0.7H176v3.1H175.1z M176,413.3h1.7c0.6,0,1-0.1,1.2-0.4
				c0.2-0.2,0.4-0.6,0.4-1c0-0.3-0.1-0.6-0.2-0.8c-0.1-0.2-0.3-0.4-0.6-0.5c-0.1,0-0.4-0.1-0.8-0.1H176V413.3z"/>
			<path class="st1" d="M181.2,417.4v-5.6h0.7v0.9c0.2-0.4,0.4-0.7,0.5-0.8c0.2-0.1,0.3-0.2,0.5-0.2c0.3,0,0.6,0.1,0.8,0.3l-0.3,0.9
				c-0.2-0.1-0.4-0.2-0.6-0.2c-0.2,0-0.3,0.1-0.5,0.2c-0.1,0.1-0.2,0.3-0.3,0.5c-0.1,0.3-0.1,0.7-0.1,1.1v2.9H181.2z"/>
			<path class="st1" d="M187.6,415.6l0.8,0.1c-0.1,0.6-0.4,1-0.7,1.3c-0.4,0.3-0.8,0.5-1.4,0.5c-0.7,0-1.3-0.3-1.7-0.8
				c-0.4-0.5-0.6-1.2-0.6-2.1c0-0.9,0.2-1.7,0.6-2.2c0.4-0.5,1-0.8,1.6-0.8c0.6,0,1.2,0.3,1.6,0.8c0.4,0.5,0.6,1.2,0.6,2.2
				c0,0.1,0,0.1,0,0.3h-3.6c0,0.6,0.2,1.1,0.4,1.4c0.3,0.3,0.6,0.5,1,0.5c0.3,0,0.6-0.1,0.8-0.3C187.3,416.3,187.5,416,187.6,415.6z
				 M184.9,414h2.7c0-0.5-0.1-0.8-0.3-1.1c-0.3-0.4-0.6-0.6-1-0.6c-0.4,0-0.7,0.1-0.9,0.4C185.1,413.1,185,413.5,184.9,414z"/>
			<path class="st1" d="M190.8,417.4l-1.8-5.6h0.9l1,3.4c0.1,0.4,0.2,0.7,0.3,1.1c0.1-0.3,0.2-0.7,0.3-1.1l1.1-3.4h0.8l-1.8,5.6
				H190.8z"/>
			<path class="st1" d="M194.1,410.7v-1.1h0.8v1.1H194.1z M194.1,417.4v-5.6h0.8v5.6H194.1z"/>
			<path class="st1" d="M199.5,415.6l0.8,0.1c-0.1,0.6-0.4,1-0.7,1.3c-0.4,0.3-0.8,0.5-1.4,0.5c-0.7,0-1.3-0.3-1.7-0.8
				c-0.4-0.5-0.6-1.2-0.6-2.1c0-0.9,0.2-1.7,0.6-2.2c0.4-0.5,1-0.8,1.6-0.8c0.6,0,1.2,0.3,1.6,0.8c0.4,0.5,0.6,1.2,0.6,2.2
				c0,0.1,0,0.1,0,0.3h-3.6c0,0.6,0.2,1.1,0.4,1.4c0.3,0.3,0.6,0.5,1,0.5c0.3,0,0.6-0.1,0.8-0.3C199.2,416.3,199.4,416,199.5,415.6z
				 M196.8,414h2.7c0-0.5-0.1-0.8-0.3-1.1c-0.3-0.4-0.6-0.6-1-0.6c-0.4,0-0.7,0.1-0.9,0.4C197,413.1,196.8,413.5,196.8,414z"/>
			<path class="st1" d="M202.2,417.4l-1.5-5.6h0.8l0.8,3.2l0.3,1.2c0-0.1,0.1-0.4,0.2-1.2l0.8-3.3h0.8l0.7,3.3l0.2,1.1l0.3-1.1
				l0.8-3.2h0.8l-1.5,5.6H205l-0.8-3.4l-0.2-1l-1,4.3H202.2z"/>
		</g>
	</g>
	<g>
		<g>
			<path class="st54" d="M160.8,228.6H26.2c-2.5,0-4.5-2-4.5-4.5V197c0-2.5,2-4.5,4.5-4.5h134.6c2.5,0,4.5,2,4.5,4.5v27.1
				C165.3,226.6,163.3,228.6,160.8,228.6z"/>
			<line class="st55" x1="21.7" y1="210.6" x2="165.3" y2="210.6"/>
		</g>
		<g>
			<g>
				<path class="st0" d="M35.1,200h-1.7v-0.8h4.3v0.8H36v4.7h-0.9V200z"/>
				<path class="st0" d="M37.8,201.8c0.3-0.8,0.8-1.2,1.8-1.2c0.7,0,1.2,0.2,1.4,0.6c0.1,0.2,0.1,0.5,0.1,0.9l0,1.4
					c0,0.5,0.1,0.9,0.2,1.1h-0.9c-0.1-0.2-0.1-0.3-0.1-0.5c-0.4,0.4-0.8,0.5-1.3,0.5c-0.9,0-1.4-0.4-1.4-1.1c0-0.5,0.3-0.9,0.8-1.1
					c0.2-0.1,0.4-0.1,0.7-0.2c0.5-0.1,0.9-0.2,1.1-0.2v-0.1c0-0.5-0.3-0.7-0.8-0.7c-0.5,0-0.8,0.2-0.9,0.6L37.8,201.8z M40.3,202.8
					c-0.1,0.1-0.3,0.1-0.4,0.1c-0.1,0-0.3,0.1-0.6,0.1c-0.5,0.1-0.8,0.3-0.8,0.6c0,0.4,0.2,0.6,0.7,0.6c0.4,0,0.7-0.2,0.9-0.5
					c0.1-0.1,0.1-0.4,0.1-0.7V202.8z"/>
				<path class="st0" d="M41.9,204.7l1.4-2.1l-1.4-1.9H43l0.7,1.1l0,0.1l0,0l0.9-1.2h1l-1.4,1.9l1.5,2.1h-1l-0.9-1.4l-0.9,1.4H41.9z
					"/>
				<path class="st0" d="M51.7,201c-0.2-0.7-0.6-1-1.3-1c-1.1,0-1.6,0.7-1.6,2c0,1.4,0.5,2.1,1.6,2.1c0.8,0,1.2-0.4,1.4-1.3l0.9,0.3
					c-0.3,1.2-1.1,1.8-2.3,1.8c-0.8,0-1.4-0.3-1.9-0.8c-0.4-0.5-0.7-1.2-0.7-2.1c0-0.9,0.2-1.6,0.7-2.1c0.5-0.5,1.1-0.8,1.9-0.8
					c0.9,0,1.5,0.3,1.9,1c0.1,0.1,0.2,0.3,0.2,0.6L51.7,201z"/>
				<path class="st0" d="M54.2,203c0,0.8,0.4,1.2,1,1.2c0.4,0,0.7-0.2,0.9-0.7l0.9,0.1c-0.2,0.8-0.8,1.2-1.8,1.2
					c-0.6,0-1.1-0.2-1.4-0.5c-0.3-0.4-0.5-0.9-0.5-1.5c0-0.6,0.2-1.1,0.5-1.5c0.3-0.4,0.8-0.6,1.3-0.6c0.6,0,1,0.2,1.4,0.6
					c0.3,0.4,0.5,0.9,0.5,1.6c0,0,0,0,0,0.1v0.1H54.2z M56.2,202.4c0-0.7-0.4-1-1-1c-0.6,0-0.9,0.3-1,1H56.2z"/>
				<path class="st0" d="M59.7,201.6c-0.2-0.1-0.3-0.2-0.5-0.2c-0.5,0-0.7,0.5-0.7,1.6v1.7h-0.8v-4h0.8v0.6c0.2-0.4,0.5-0.7,0.9-0.7
					c0.2,0,0.5,0.1,0.7,0.2L59.7,201.6z"/>
				<path class="st0" d="M61.6,200.8h0.7v0.7h-0.7v2c0,0.3,0,0.5,0,0.6c0,0.1,0.1,0.1,0.3,0.1c0.1,0,0.2,0,0.4-0.1l0.1,0.7
					c-0.2,0.1-0.4,0.1-0.6,0.1c-0.5,0-0.8-0.1-0.9-0.4c-0.1-0.2-0.1-0.5-0.1-1v-2h-0.5v-0.7h0.5v-0.9l0.8-0.5V200.8z"/>
				<path class="st0" d="M62.6,199.3h0.8v0.9h-0.8V199.3z M62.6,200.8h0.8v4h-0.8V200.8z"/>
				<path class="st0" d="M66.7,200.8v0.7h-0.8l0,3.3h-0.8v-3.3h-0.6v-0.7h0.6v-0.4c0-0.4,0.1-0.7,0.2-0.9c0.2-0.3,0.5-0.4,0.9-0.4
					c0.3,0,0.5,0,0.8,0.1l-0.1,0.6c-0.1,0-0.3,0-0.4,0c-0.3,0-0.5,0.2-0.5,0.6v0.3H66.7z M67.2,199.3h0.8v0.9h-0.8V199.3z
					 M67.2,200.8h0.8v4h-0.8V200.8z"/>
				<path class="st0" d="M71.5,202.2c-0.1-0.5-0.4-0.8-0.8-0.8c-0.7,0-1,0.4-1,1.3c0,0.9,0.3,1.4,1,1.4c0.5,0,0.8-0.3,0.9-0.9
					l0.8,0.1c-0.2,1-0.7,1.4-1.7,1.4c-0.6,0-1-0.2-1.4-0.6c-0.3-0.4-0.5-0.9-0.5-1.5c0-0.7,0.2-1.2,0.5-1.5c0.3-0.4,0.8-0.6,1.4-0.6
					c0.9,0,1.5,0.4,1.7,1.3L71.5,202.2z"/>
				<path class="st0" d="M72.9,201.8c0.3-0.8,0.8-1.2,1.8-1.2c0.7,0,1.2,0.2,1.4,0.6c0.1,0.2,0.1,0.5,0.1,0.9l0,1.4
					c0,0.5,0.1,0.9,0.2,1.1h-0.9c-0.1-0.2-0.1-0.3-0.1-0.5c-0.4,0.4-0.8,0.5-1.3,0.5c-0.9,0-1.4-0.4-1.4-1.1c0-0.5,0.3-0.9,0.8-1.1
					c0.2-0.1,0.4-0.1,0.7-0.2c0.5-0.1,0.9-0.2,1.1-0.2v-0.1c0-0.5-0.3-0.7-0.8-0.7c-0.5,0-0.8,0.2-0.9,0.6L72.9,201.8z M75.4,202.8
					c-0.1,0.1-0.3,0.1-0.4,0.1c-0.1,0-0.3,0.1-0.6,0.1c-0.5,0.1-0.8,0.3-0.8,0.6c0,0.4,0.2,0.6,0.7,0.6c0.4,0,0.7-0.2,0.9-0.5
					c0.1-0.1,0.1-0.4,0.1-0.7V202.8z"/>
				<path class="st0" d="M78.4,200.8h0.7v0.7h-0.7v2c0,0.3,0,0.5,0,0.6c0,0.1,0.1,0.1,0.3,0.1c0.1,0,0.2,0,0.4-0.1l0.1,0.7
					c-0.2,0.1-0.4,0.1-0.6,0.1c-0.5,0-0.8-0.1-0.9-0.4c-0.1-0.2-0.1-0.5-0.1-1v-2H77v-0.7h0.5v-0.9l0.8-0.5V200.8z"/>
				<path class="st0" d="M80.2,203c0,0.8,0.4,1.2,1,1.2c0.4,0,0.7-0.2,0.9-0.7l0.9,0.1c-0.2,0.8-0.8,1.2-1.8,1.2
					c-0.6,0-1.1-0.2-1.4-0.5c-0.3-0.4-0.5-0.9-0.5-1.5c0-0.6,0.2-1.1,0.5-1.5c0.3-0.4,0.8-0.6,1.3-0.6c0.6,0,1,0.2,1.4,0.6
					c0.3,0.4,0.5,0.9,0.5,1.6c0,0,0,0,0,0.1v0.1H80.2z M82.2,202.4c0-0.7-0.4-1-1-1c-0.6,0-0.9,0.3-1,1H82.2z"/>
			</g>
			<g>
				<path class="st0" d="M33.4,216.5h1.9c0.7,0,1.3,0.1,1.5,0.2c0.5,0.3,0.7,0.8,0.7,1.4c0,0.9-0.4,1.4-1.1,1.6
					c-0.3,0.1-0.6,0.1-1.1,0.1h-1.1v2.1h-0.9V216.5z M35.3,219c0.4,0,0.7-0.1,0.9-0.2c0.3-0.1,0.4-0.4,0.4-0.7
					c0-0.4-0.1-0.6-0.4-0.7c-0.2-0.1-0.5-0.1-1-0.1h-1v1.8H35.3z"/>
				<path class="st0" d="M38.8,218.5c0.4-0.4,0.8-0.6,1.4-0.6c0.6,0,1.1,0.2,1.4,0.6c0.4,0.4,0.5,0.9,0.5,1.5c0,0.6-0.2,1.1-0.5,1.5
					c-0.4,0.4-0.8,0.6-1.4,0.6c-0.6,0-1.1-0.2-1.4-0.6s-0.5-0.9-0.5-1.5C38.3,219.4,38.4,218.9,38.8,218.5z M40.2,221.4
					c0.3,0,0.6-0.1,0.8-0.4c0.2-0.2,0.3-0.6,0.3-1c0-0.9-0.4-1.4-1.1-1.4c-0.7,0-1.1,0.5-1.1,1.4C39.1,220.9,39.5,221.4,40.2,221.4z
					"/>
				<path class="st0" d="M44.8,218.9c-0.2-0.1-0.3-0.2-0.5-0.2c-0.5,0-0.7,0.5-0.7,1.6v1.7h-0.8v-4h0.8v0.6c0.2-0.4,0.5-0.7,0.9-0.7
					c0.2,0,0.5,0.1,0.7,0.2L44.8,218.9z"/>
				<path class="st0" d="M46.8,218h0.7v0.7h-0.7v2c0,0.3,0,0.5,0,0.6c0,0.1,0.1,0.1,0.3,0.1c0.1,0,0.2,0,0.4-0.1l0.1,0.7
					c-0.2,0.1-0.4,0.1-0.6,0.1c-0.5,0-0.8-0.1-0.9-0.4c-0.1-0.2-0.1-0.5-0.1-1v-2h-0.5V218h0.5v-0.9l0.8-0.5V218z"/>
				<path class="st0" d="M50,218v0.7l-0.8,0v3.3h-0.8v-3.3h-0.6V218h0.6v-0.4c0-0.4,0.1-0.6,0.2-0.8c0.2-0.3,0.5-0.5,1-0.5
					c0.2,0,0.5,0,0.7,0.1l-0.1,0.7c-0.2,0-0.3,0-0.5,0c-0.3,0-0.5,0.2-0.5,0.6v0.3H50z"/>
				<path class="st0" d="M50.6,218.5c0.4-0.4,0.8-0.6,1.4-0.6c0.6,0,1.1,0.2,1.4,0.6c0.4,0.4,0.5,0.9,0.5,1.5c0,0.6-0.2,1.1-0.5,1.5
					c-0.4,0.4-0.8,0.6-1.4,0.6c-0.6,0-1.1-0.2-1.4-0.6s-0.5-0.9-0.5-1.5C50.1,219.4,50.2,218.9,50.6,218.5z M52,221.4
					c0.3,0,0.6-0.1,0.8-0.4c0.2-0.2,0.3-0.6,0.3-1c0-0.9-0.4-1.4-1.1-1.4c-0.7,0-1.1,0.5-1.1,1.4C50.9,220.9,51.3,221.4,52,221.4z"
					/>
				<path class="st0" d="M54.5,216.5h0.9v5.5h-0.9V216.5z"/>
				<path class="st0" d="M56.4,216.5h0.8v0.9h-0.8V216.5z M56.4,218h0.8v4h-0.8V218z"/>
				<path class="st0" d="M58.9,218.5c0.4-0.4,0.8-0.6,1.4-0.6c0.6,0,1.1,0.2,1.4,0.6c0.4,0.4,0.5,0.9,0.5,1.5c0,0.6-0.2,1.1-0.5,1.5
					c-0.4,0.4-0.8,0.6-1.4,0.6c-0.6,0-1.1-0.2-1.4-0.6s-0.5-0.9-0.5-1.5C58.3,219.4,58.5,218.9,58.9,218.5z M60.3,221.4
					c0.3,0,0.6-0.1,0.8-0.4c0.2-0.2,0.3-0.6,0.3-1c0-0.9-0.4-1.4-1.1-1.4c-0.7,0-1.1,0.5-1.1,1.4C59.2,220.9,59.6,221.4,60.3,221.4z
					"/>
				<path class="st0" d="M66.9,218v0.7l-0.8,0v3.3h-0.8v-3.3h-0.6V218h0.6v-0.4c0-0.4,0.1-0.6,0.2-0.8c0.2-0.3,0.5-0.5,1-0.5
					c0.2,0,0.5,0,0.7,0.1l-0.1,0.7c-0.2,0-0.3,0-0.5,0c-0.3,0-0.5,0.2-0.5,0.6v0.3H66.9z"/>
				<path class="st0" d="M67.6,218.5c0.4-0.4,0.8-0.6,1.4-0.6c0.6,0,1.1,0.2,1.4,0.6c0.4,0.4,0.5,0.9,0.5,1.5c0,0.6-0.2,1.1-0.5,1.5
					c-0.4,0.4-0.8,0.6-1.4,0.6c-0.6,0-1.1-0.2-1.4-0.6S67,220.7,67,220C67,219.4,67.2,218.9,67.6,218.5z M69,221.4
					c0.3,0,0.6-0.1,0.8-0.4c0.2-0.2,0.3-0.6,0.3-1c0-0.9-0.4-1.4-1.1-1.4c-0.7,0-1.1,0.5-1.1,1.4C67.9,220.9,68.3,221.4,69,221.4z"
					/>
				<path class="st0" d="M73.6,218.9c-0.2-0.1-0.3-0.2-0.5-0.2c-0.5,0-0.7,0.5-0.7,1.6v1.7h-0.8v-4h0.8v0.6c0.2-0.4,0.5-0.7,0.9-0.7
					c0.2,0,0.5,0.1,0.7,0.2L73.6,218.9z"/>
				<path class="st0" d="M77.8,217.3h-1.7v-0.8h4.3v0.8h-1.7v4.7h-0.9V217.3z"/>
				<path class="st0" d="M80.5,219.1c0.3-0.8,0.8-1.2,1.8-1.2c0.7,0,1.2,0.2,1.4,0.6c0.1,0.2,0.1,0.5,0.1,0.9l0,1.4
					c0,0.5,0.1,0.9,0.2,1.1h-0.9c-0.1-0.2-0.1-0.3-0.1-0.5c-0.4,0.4-0.8,0.5-1.3,0.5c-0.9,0-1.4-0.4-1.4-1.1c0-0.5,0.3-0.9,0.8-1.1
					c0.2-0.1,0.4-0.1,0.7-0.2c0.5-0.1,0.9-0.2,1.1-0.2v-0.1c0-0.5-0.3-0.7-0.8-0.7c-0.5,0-0.8,0.2-0.9,0.6L80.5,219.1z M83,220
					c-0.1,0.1-0.3,0.1-0.4,0.1c-0.1,0-0.3,0.1-0.6,0.1c-0.5,0.1-0.8,0.3-0.8,0.6c0,0.4,0.2,0.6,0.7,0.6c0.4,0,0.7-0.2,0.9-0.5
					c0.1-0.1,0.1-0.4,0.1-0.7V220z"/>
				<path class="st0" d="M84.6,222l1.4-2.1l-1.4-1.9h1.1l0.7,1.1l0,0.1l0,0l0.9-1.2h1l-1.4,1.9l1.5,2.1h-1l-0.9-1.4l-0.9,1.4H84.6z"
					/>
			</g>
		</g>
	</g>
	<path class="st56" d="M140.1,209.3H29.6c-0.5,0-1-0.4-1-1v-12c0-0.5,0.4-1,1-1h110.5c0.5,0,1,0.4,1,1v12
		C141.1,208.9,140.6,209.3,140.1,209.3z"/>
</g>
</svg>
