<?xml version="1.0" encoding="utf-8"?>
<!-- Generator: Adobe Illustrator 26.0.1, SVG Export Plug-In . SVG Version: 6.00 Build 0)  -->
<svg version="1.1" id="Layer_1" xmlns="http://www.w3.org/2000/svg" xmlns:xlink="http://www.w3.org/1999/xlink" x="0px" y="0px"
	 viewBox="0 0 299.67 88.8" style="enable-background:new 0 0 299.67 88.8;" xml:space="preserve">
<style type="text/css">
	.st0{fill:#211E1F;}
	.st1{fill:#65C1ED;}
	.st2{fill:url(#SVGID_1_);}
	.st3{fill:url(#SVGID_00000065032958084808071410000014385301313951345547_);}
	.st4{fill:url(#SVGID_00000124875161562397390670000015327943015125965956_);}
</style>
<g>
	<g>
		<g id="XMLID_00000109740674355432884640000011907844899118951334_">
			<g id="XMLID_00000071561595908567176260000014725406762925193899_">
				<g id="XMLID_00000074416008571182127170000002992271759008591288_">
					<path id="XMLID_00000088833289716690033890000013055552501800825766_" class="st0" d="M62.29,42.72
						c-0.08-6.88,5.63-10.24,5.9-10.4c-3.24-4.71-8.24-5.36-10.01-5.4c-4.21-0.45-8.26,2.5-10.43,2.5c-2.16,0-5.48-2.46-9.02-2.38
						c-4.57,0.07-8.85,2.72-11.2,6.83c-4.84,8.38-1.22,20.71,3.41,27.49c2.33,3.28,5.01,7.02,8.59,6.88
						c3.47-0.15,4.74-2.21,8.94-2.21c4.17,0,5.38,2.21,9.01,2.11c3.7-0.05,6.04-3.32,8.32-6.66c2.69-3.81,3.74-7.58,3.79-7.75
						C69.51,53.7,62.35,51.01,62.29,42.72z"/>
					<path id="XMLID_00000124128766978306584650000009192370242382832024_" class="st0" d="M55.43,22.47
						c1.87-2.34,3.14-5.52,2.8-8.77c-2.7,0.16-6.1,1.9-8.03,4.19c-1.73,2.02-3.26,5.32-2.87,8.4
						C50.36,26.52,53.48,24.77,55.43,22.47z"/>
				</g>
			</g>
			<g>
				<path class="st0" d="M106.19,59.87H94.33l-2.8,8.39h-5.05l11.23-31.11h5.23l11.22,31.11h-5.1L106.19,59.87z M95.57,55.97h9.42
					l-4.65-13.64h-0.13L95.57,55.97z"/>
				<path class="st0" d="M138.4,56.92c0,7.05-3.76,11.57-9.46,11.57c-3.24,0-5.83-1.42-7.15-3.95h-0.11v11.25h-4.65v-30.2h4.5v3.77
					h0.09c1.3-2.44,4.06-4,7.22-4C134.62,45.35,138.4,49.88,138.4,56.92z M133.62,56.92c0-4.57-2.37-7.61-5.97-7.61
					c-3.57,0-5.96,3.11-5.96,7.61c0,4.59,2.39,7.63,5.96,7.63C131.24,64.54,133.62,61.56,133.62,56.92z"/>
				<path class="st0" d="M163.35,56.92c0,7.05-3.76,11.57-9.43,11.57c-3.27,0-5.83-1.42-7.15-3.95h-0.12v11.25H142v-30.2h4.5v3.77
					h0.09c1.3-2.44,4.06-4,7.22-4C159.55,45.35,163.35,49.88,163.35,56.92z M158.57,56.92c0-4.57-2.36-7.61-5.98-7.61
					c-3.58,0-5.96,3.11-5.96,7.61c0,4.59,2.37,7.63,5.96,7.63C156.21,64.54,158.57,61.56,158.57,56.92z"/>
				<path class="st0" d="M179.84,59.6c0.35,3.07,3.35,5.12,7.44,5.12c3.92,0,6.72-2.05,6.72-4.82c0-2.43-1.69-3.85-5.72-4.83
					l-4.01-0.99c-5.71-1.4-8.35-4.05-8.35-8.39c0-5.36,4.66-9.04,11.3-9.04c6.57,0,11.08,3.69,11.23,9.04h-4.71
					c-0.26-3.09-2.83-4.96-6.58-4.96c-3.75,0-6.31,1.89-6.31,4.65c0,2.18,1.64,3.48,5.64,4.48l3.43,0.82
					c6.37,1.53,9.02,4.08,9.02,8.65c0,5.81-4.62,9.44-12.01,9.44c-6.88,0-11.54-3.55-11.82-9.17H179.84z"/>
				<path class="st0" d="M209.01,40.2v5.38h4.31v3.69h-4.31v12.5c0,1.92,0.83,2.85,2.76,2.85c0.46,0,1.23-0.07,1.51-0.11v3.65
					c-0.53,0.14-1.56,0.23-2.59,0.23c-4.59,0-6.38-1.7-6.38-6.13V49.27h-3.29v-3.69h3.29V40.2H209.01z"/>
				<path class="st0" d="M215.8,56.92c0-7.13,4.2-11.59,10.75-11.59c6.59,0,10.76,4.45,10.76,11.59c0,7.17-4.16,11.61-10.76,11.61
					C219.96,68.53,215.8,64.09,215.8,56.92z M232.57,56.92c0-4.9-2.24-7.77-6.01-7.77c-3.78,0-6.02,2.9-6.02,7.77
					c0,4.9,2.24,7.8,6.02,7.8C230.33,64.72,232.57,61.82,232.57,56.92z"/>
				<path class="st0" d="M241.14,45.58h4.46v3.85h0.09c0.71-2.54,2.79-4.08,5.47-4.08c0.66,0,1.21,0.1,1.58,0.18v4.33
					c-0.37-0.16-1.19-0.25-2.07-0.25c-3,0-4.87,2.01-4.87,5.21v13.44h-4.67V45.58z"/>
				<path class="st0" d="M274.2,61.6c-0.62,4.13-4.63,6.93-9.77,6.93c-6.6,0-10.69-4.4-10.69-11.49c0-7.13,4.13-11.71,10.48-11.71
					c6.28,0,10.22,4.29,10.22,11.18v1.58h-16v0.27c0,3.91,2.42,6.46,6.11,6.46c2.57,0,4.6-1.26,5.22-3.21H274.2z M258.47,54.82
					h11.35c-0.12-3.48-2.35-5.76-5.59-5.76C261.03,49.06,258.71,51.41,258.47,54.82z"/>
			</g>
		</g>
		<g id="XMLID_00000052082130383788517240000001478501190143967412_">
			<g>
				<path class="st0" d="M94.98,13.74c4.45,0,7.04,2.73,7.04,7.44c0,4.77-2.59,7.49-7.04,7.49H89.6V13.74H94.98z M91.92,26.58h2.79
					c3.16,0,4.96-1.97,4.96-5.37c0-3.39-1.85-5.34-4.96-5.34h-2.79V26.58z"/>
				<path class="st0" d="M104.64,23.05c0-3.63,2.03-5.84,5.32-5.84c3.28,0,5.31,2.21,5.31,5.84c0,3.65-2.02,5.86-5.31,5.86
					C106.67,28.91,104.64,26.7,104.64,23.05z M112.99,23.05c0-2.44-1.1-3.87-3.03-3.87c-1.92,0-3.04,1.43-3.04,3.87
					c0,2.46,1.11,3.88,3.04,3.88C111.9,26.93,112.99,25.49,112.99,23.05z"/>
				<path class="st0" d="M129.41,28.67h-2.3l-2.33-8.28h-0.17l-2.33,8.28H120l-3.12-11.24h2.26l2.01,8.58h0.18l2.31-8.58h2.13
					l2.34,8.58h0.17l2.02-8.58h2.21L129.41,28.67z"/>
				<path class="st0" d="M135.13,17.43h2.14v1.78h0.17c0.53-1.27,1.68-2,3.37-2c2.52,0,3.9,1.5,3.9,4.2v7.26h-2.22v-6.72
					c0-1.82-0.8-2.72-2.45-2.72c-1.63,0-2.7,1.12-2.7,2.87v6.56h-2.21V17.43z"/>
				<path class="st0" d="M148.26,13.01h2.2v15.65h-2.2V13.01z"/>
				<path class="st0" d="M153.57,23.05c0-3.63,2.04-5.84,5.34-5.84c3.25,0,5.29,2.21,5.29,5.84c0,3.65-2.02,5.86-5.29,5.86
					C155.61,28.91,153.57,26.7,153.57,23.05z M161.92,23.05c0-2.44-1.11-3.87-3.01-3.87c-1.95,0-3.04,1.43-3.04,3.87
					c0,2.46,1.08,3.88,3.04,3.88C160.81,26.93,161.92,25.49,161.92,23.05z"/>
				<path class="st0" d="M166.56,25.49c0-1.99,1.52-3.18,4.2-3.35l3.03-0.19V21c0-1.21-0.78-1.88-2.3-1.88
					c-1.24,0-2.09,0.48-2.35,1.26H167c0.22-1.96,2.03-3.17,4.6-3.17c2.83,0,4.43,1.41,4.43,3.79v7.67h-2.16v-1.55h-0.18
					c-0.68,1.11-1.89,1.75-3.38,1.75C168.14,28.87,166.56,27.59,166.56,25.49z M173.78,24.55V23.6l-2.74,0.18
					c-1.55,0.12-2.26,0.63-2.26,1.62c0,1.04,0.9,1.63,2.1,1.63C172.56,27.02,173.78,25.95,173.78,24.55z"/>
				<path class="st0" d="M178.94,23.05c0-3.56,1.83-5.82,4.69-5.82c1.54,0,2.84,0.73,3.46,1.99h0.15v-6.2h2.22v15.65h-2.12v-1.76
					h-0.18c-0.66,1.25-1.99,1.96-3.53,1.96C180.75,28.87,178.94,26.64,178.94,23.05z M181.26,23.05c0,2.37,1.1,3.83,3,3.83
					c1.87,0,3.04-1.46,3.04-3.82c0-2.33-1.2-3.85-3.04-3.85C182.37,19.22,181.26,20.68,181.26,23.05z"/>
				<path class="st0" d="M198.69,23.05c0-3.63,2.03-5.84,5.33-5.84c3.27,0,5.3,2.21,5.3,5.84c0,3.65-2.01,5.86-5.3,5.86
					C200.71,28.91,198.69,26.7,198.69,23.05z M207.03,23.05c0-2.44-1.11-3.87-3.01-3.87c-1.95,0-3.02,1.43-3.02,3.87
					c0,2.46,1.07,3.88,3.02,3.88C205.93,26.93,207.03,25.49,207.03,23.05z"/>
				<path class="st0" d="M212.31,17.43h2.14v1.78h0.17c0.54-1.27,1.66-2,3.35-2c2.53,0,3.9,1.5,3.9,4.2v7.26h-2.2v-6.72
					c0-1.82-0.81-2.72-2.45-2.72c-1.66,0-2.7,1.12-2.7,2.87v6.56h-2.22V17.43z"/>
				<path class="st0" d="M234.46,14.61v2.87h2.42v1.86h-2.42v5.79c0,1.19,0.49,1.73,1.58,1.73c0.36,0,0.56-0.02,0.84-0.06v1.87
					c-0.33,0.01-0.76,0.09-1.2,0.09c-2.46,0-3.45-0.86-3.45-3.02v-6.39h-1.81v-1.86h1.81v-2.87H234.46z"/>
				<path class="st0" d="M239.94,13.01h2.19v6.2h0.2c0.56-1.25,1.74-2,3.44-2c2.4,0,3.86,1.52,3.86,4.21v7.25h-2.22v-6.71
					c0-1.79-0.83-2.7-2.4-2.7c-1.81,0-2.84,1.13-2.84,2.85v6.56h-2.22V13.01z"/>
				<path class="st0" d="M262.62,25.65c-0.52,2.03-2.32,3.25-4.9,3.25c-3.21,0-5.22-2.21-5.22-5.78c0-3.63,2.04-5.91,5.22-5.91
					c3.14,0,5.01,2.12,5.01,5.67v0.79h-7.96v0.1c0.08,2,1.22,3.25,3.01,3.25c1.37,0,2.29-0.51,2.68-1.37H262.62z M254.78,22h5.7
					c-0.06-1.76-1.12-2.91-2.76-2.91C256.06,19.09,254.9,20.25,254.78,22z"/>
			</g>
		</g>
	</g>
	<g>
		<g>
			<path class="st0" d="M288.57,1.78c5.14,0,9.33,4.18,9.33,9.32V77.7c0,5.15-4.19,9.32-9.33,9.32H11.12
				c-5.15,0-9.32-4.17-9.32-9.32V11.11c0-5.14,4.17-9.32,9.32-9.32H288.57 M288.57,0H11.12C5.01,0,0,5.03,0,11.11V77.7
				c0,6.12,5.01,11.1,11.12,11.1h277.45c6.11,0,11.1-4.98,11.1-11.1V11.11C299.67,5.03,294.68,0,288.57,0L288.57,0z"/>
		</g>
	</g>
</g>
</svg>
