<?xml version="1.0" encoding="utf-8"?>
<!-- Generator: Adobe Illustrator 26.0.1, SVG Export Plug-In . SVG Version: 6.00 Build 0)  -->
<svg version="1.1" id="Layer_1" xmlns="http://www.w3.org/2000/svg" xmlns:xlink="http://www.w3.org/1999/xlink" x="0px" y="0px"
	 viewBox="0 0 299.67 88.8" style="enable-background:new 0 0 299.67 88.8;" xml:space="preserve">
<style type="text/css">
	.st0{fill:#211E1F;}
	.st1{fill:#65C1ED;}
	.st2{fill:url(#SVGID_1_);}
	.st3{fill:url(#SVGID_00000043457522248354383860000008050707944480428708_);}
	.st4{fill:url(#SVGID_00000045587579559795730030000000402002521403064720_);}
</style>
<g>
	<g>
		<g>
			<g>
				<path class="st0" d="M288.57,1.78c5.14,0,9.33,4.18,9.33,9.32V77.7c0,5.15-4.19,9.32-9.33,9.32H11.12
					c-5.15,0-9.32-4.17-9.32-9.32V11.11c0-5.14,4.17-9.32,9.32-9.32H288.57 M288.57,0H11.12C5.01,0,0,5.03,0,11.11V77.7
					c0,6.12,5.01,11.1,11.12,11.1h277.45c6.11,0,11.1-4.98,11.1-11.1V11.11C299.67,5.03,294.68,0,288.57,0L288.57,0z"/>
			</g>
		</g>
		<g>
			<path class="st0" d="M105.27,22.75c0,1.86-0.57,3.33-1.66,4.45c-1.25,1.32-2.9,1.96-4.9,1.96c-1.91,0-3.55-0.66-4.9-2
				c-1.34-1.34-2.02-2.99-2.02-4.96c0-1.98,0.68-3.64,2.02-4.95c1.35-1.35,3-1.99,4.9-1.99c0.96,0,1.86,0.18,2.75,0.55
				c0.85,0.38,1.56,0.86,2.09,1.5l-1.19,1.17c-0.86-1.06-2.09-1.59-3.64-1.59c-1.42,0-2.62,0.5-3.63,1.49
				c-1.03,0.99-1.54,2.26-1.54,3.83c0,1.58,0.51,2.86,1.54,3.84c1.01,0.98,2.21,1.48,3.63,1.48c1.47,0,2.73-0.5,3.71-1.5
				c0.65-0.64,1.04-1.56,1.13-2.69h-4.84v-1.58h6.46C105.23,22.08,105.27,22.43,105.27,22.75z"/>
			<path class="st0" d="M115.49,17.19h-6.05v4.2h5.46v1.62h-5.46v4.22h6.05v1.63h-7.77V15.53h7.77V17.19z"/>
			<path class="st0" d="M122.71,28.86H121V17.19h-3.73v-1.66h9.16v1.66h-3.73V28.86z"/>
			<path class="st0" d="M133.05,28.86V15.53h1.72v13.34H133.05z"/>
			<path class="st0" d="M142.34,28.86h-1.72V17.19h-3.71v-1.66h9.18v1.66h-3.75V28.86z"/>
			<path class="st0" d="M163.4,27.16c-1.3,1.33-2.95,2-4.9,2c-1.93,0-3.57-0.67-4.9-2c-1.27-1.35-1.94-3-1.94-4.96
				c0-1.95,0.66-3.59,1.94-4.93c1.33-1.36,2.97-2.02,4.9-2.02c1.95,0,3.57,0.66,4.9,2.02c1.32,1.36,1.96,2.99,1.96,4.93
				C165.36,24.16,164.72,25.82,163.4,27.16z M154.89,26.03c1,1.01,2.2,1.51,3.62,1.51c1.45,0,2.67-0.5,3.64-1.51
				c0.96-0.99,1.46-2.27,1.46-3.82c0-1.55-0.5-2.81-1.46-3.83c-0.97-1-2.19-1.49-3.64-1.49c-1.42,0-2.62,0.5-3.62,1.49
				c-0.97,1.03-1.47,2.29-1.47,3.83C153.42,23.76,153.92,25.04,154.89,26.03z"/>
			<path class="st0" d="M167.78,28.86V15.53h2.08l6.45,10.38h0.09l-0.09-2.57v-7.82h1.75v13.34h-1.8l-6.78-10.86h-0.08l0.08,2.59
				v8.27H167.78z"/>
		</g>
		<path class="st0" d="M151.26,48.28c-5.22,0-9.48,3.97-9.48,9.45c0,5.42,4.26,9.42,9.48,9.42c5.21,0,9.46-4,9.46-9.42
			C160.72,52.26,156.46,48.28,151.26,48.28z M151.26,63.45c-2.87,0-5.32-2.36-5.32-5.72c0-3.4,2.45-5.71,5.32-5.71
			c2.86,0,5.32,2.31,5.32,5.71C156.58,61.1,154.12,63.45,151.26,63.45z M130.56,48.28c-5.21,0-9.46,3.97-9.46,9.45
			c0,5.42,4.26,9.42,9.46,9.42c5.24,0,9.5-4,9.5-9.42C140.06,52.26,135.8,48.28,130.56,48.28z M130.56,63.45
			c-2.83,0-5.3-2.36-5.3-5.72c0-3.4,2.47-5.71,5.3-5.71c2.88,0,5.34,2.31,5.34,5.71C135.9,61.1,133.44,63.45,130.56,63.45z
			 M105.99,51.19v4.02h9.55c-0.25,2.26-1,3.88-2.16,5.04c-1.4,1.39-3.57,2.91-7.39,2.91c-5.91,0-10.51-4.74-10.51-10.67
			c0-5.89,4.6-10.64,10.51-10.64c3.18,0,5.52,1.25,7.21,2.87l2.85-2.82c-2.41-2.3-5.59-4.05-10.06-4.05
			c-8.09,0-14.88,6.59-14.88,14.64c0,8.11,6.79,14.67,14.88,14.67c4.37,0,7.65-1.42,10.21-4.07c2.66-2.69,3.49-6.38,3.49-9.38
			c0-0.95-0.09-1.8-0.23-2.52H105.99z M206.53,54.3c-0.76-2.11-3.16-6.02-8.05-6.02c-4.87,0-8.9,3.85-8.9,9.45
			c0,5.28,4,9.42,9.36,9.42c4.31,0,6.83-2.64,7.85-4.18l-3.22-2.1c-1.07,1.53-2.52,2.58-4.63,2.58c-2.11,0-3.63-0.95-4.58-2.86
			l12.62-5.23L206.53,54.3z M193.69,57.47c-0.11-3.65,2.82-5.54,4.93-5.54c1.64,0,3.04,0.83,3.52,2.01L193.69,57.47z M183.43,66.59
			h4.13V38.85h-4.13V66.59z M176.61,50.39h-0.12c-0.91-1.09-2.73-2.11-4.97-2.11c-4.72,0-9.04,4.17-9.04,9.5
			c0,5.31,4.33,9.38,9.04,9.38c2.24,0,4.06-0.97,4.97-2.14h0.12v1.36c0,3.63-1.91,5.56-5.01,5.56c-2.56,0-4.12-1.83-4.77-3.35
			l-3.61,1.5c1.01,2.51,3.77,5.58,8.38,5.58c4.85,0,8.94-2.86,8.94-9.84V48.87h-3.93V50.39z M171.85,63.45
			c-2.84,0-5.23-2.39-5.23-5.68c0-3.32,2.4-5.76,5.23-5.76c2.85,0,5.06,2.43,5.06,5.76C176.91,61.06,174.7,63.45,171.85,63.45z
			 M226,38.85h-9.93v27.74h4.14v-10.5H226c4.6,0,9.09-3.33,9.09-8.62C235.09,42.17,230.6,38.85,226,38.85z M226.11,52.24h-5.9v-9.51
			h5.9c3.08,0,4.86,2.56,4.86,4.75C230.97,49.61,229.19,52.24,226.11,52.24z M251.7,48.24c-3.02,0-6.1,1.32-7.38,4.23l3.66,1.57
			c0.8-1.57,2.27-2.06,3.79-2.06c2.14,0,4.31,1.3,4.35,3.58v0.28c-0.73-0.42-2.37-1.07-4.31-1.07c-3.96,0-8,2.19-8,6.26
			c0,3.7,3.24,6.11,6.88,6.11c2.78,0,4.33-1.26,5.28-2.74h0.15v2.16h4.01V55.91C260.12,51,256.45,48.24,251.7,48.24z M251.18,63.45
			c-1.33,0-3.24-0.69-3.24-2.36c0-2.14,2.34-2.97,4.41-2.97c1.8,0,2.67,0.41,3.76,0.94C255.81,61.64,253.57,63.45,251.18,63.45z
			 M274.68,48.85l-4.75,12.05h-0.15l-4.93-12.05h-4.44l7.4,16.83l-4.21,9.34h4.3l11.4-26.17H274.68z M237.38,66.59h4.12V38.85h-4.12
			V66.59z"/>
	</g>
	<g>
		<g>
			<g>
				<path class="st1" d="M27.86,17.79c-0.62,0.67-0.99,1.68-0.99,3v47.25c0,1.31,0.38,2.33,0.99,3l0.15,0.15l26.47-26.47v-0.31
					v-0.32L28.02,17.64L27.86,17.79z"/>
				<linearGradient id="SVGID_1_" gradientUnits="userSpaceOnUse" x1="1464.562" y1="967.7201" x2="3002.2886" y2="1981.5022">
					<stop  offset="0" style="stop-color:#F8DB2B"/>
					<stop  offset="0.1623" style="stop-color:#F8CE2A"/>
					<stop  offset="0.5291" style="stop-color:#F7B328"/>
					<stop  offset="0.8212" style="stop-color:#F8A226"/>
					<stop  offset="1" style="stop-color:#F99C26"/>
				</linearGradient>
				<path class="st2" d="M63.3,53.54l-8.81-8.82v-0.31v-0.32l8.81-8.82l0.19,0.11l10.47,5.94c2.98,1.71,2.98,4.48,0,6.18
					l-10.47,5.93L63.3,53.54z"/>
				
					<linearGradient id="SVGID_00000008123581802380490500000008035250612379190144_" gradientUnits="userSpaceOnUse" x1="1451.0826" y1="987.278" x2="2988.3701" y2="2000.7708">
					<stop  offset="0" style="stop-color:#E84549"/>
					<stop  offset="1" style="stop-color:#C11D6D"/>
				</linearGradient>
				<path style="fill:url(#SVGID_00000008123581802380490500000008035250612379190144_);" d="M63.49,53.43l-9-9.01L27.86,71.04
					c0.99,1.03,2.61,1.16,4.46,0.12L63.49,53.43"/>
				
					<linearGradient id="SVGID_00000063593726547416300220000007145432089448895644_" gradientUnits="userSpaceOnUse" x1="1465.1321" y1="966.9249" x2="3002.9092" y2="1980.7404">
					<stop  offset="0" style="stop-color:#219A6F"/>
					<stop  offset="0.3521" style="stop-color:#4EA96D"/>
					<stop  offset="0.7532" style="stop-color:#6BBA6A"/>
					<stop  offset="1" style="stop-color:#75C269"/>
				</linearGradient>
				<path style="fill:url(#SVGID_00000063593726547416300220000007145432089448895644_);" d="M63.49,35.37L32.33,17.65
					c-1.85-1.05-3.48-0.92-4.46,0.14l26.62,26.62L63.49,35.37z"/>
			</g>
		</g>
	</g>
</g>
</svg>
