<?xml version="1.0" encoding="utf-8"?>
<!-- Generator: Adobe Illustrator 26.0.1, SVG Export Plug-In . SVG Version: 6.00 Build 0)  -->
<svg version="1.1" id="Layer_1" xmlns="http://www.w3.org/2000/svg" xmlns:xlink="http://www.w3.org/1999/xlink" x="0px" y="0px"
	 viewBox="0 0 837.2 62" style="enable-background:new 0 0 837.2 62;" xml:space="preserve">
<style type="text/css">
	.st0{fill:#115D33;}
	.st1{fill:#0E4525;}
	.st2{fill:#F6FBFD;}
	.st3{fill:#186A60;}
	.st4{fill:#8F9393;}
	.st5{fill:#F6852B;}
	.st6{fill:#078241;}
	.st7{fill:#FFFFFF;}
	.st8{fill:#F7F8F9;}
	.st9{fill:#BFBDBF;}
	.st10{fill:#F2F3F4;}
	.st11{fill:#BCBDBF;}
	.st12{fill:#221F1F;}
	.st13{fill:#4FB862;}
	.st14{fill:#F9ED1F;}
	.st15{fill:#CFD2D3;}
	.st16{fill:#231F20;}
	.st17{fill:#E9ECED;}
	.st18{fill:#A33123;}
	.st19{fill:#B8342A;}
	.st20{fill:none;}
	.st21{fill:#669A9D;}
	.st22{fill:#F3D1B6;}
	.st23{fill:#E1C1A9;}
	.st24{fill:#C1DAEA;}
	.st25{fill:#8CD0DE;}
	.st26{fill:#E4E4E4;}
	.st27{fill:#FED8B7;}
	.st28{fill:#8D643D;}
	.st29{fill:#F2CFB5;}
	.st30{fill:#A2C1E6;}
	.st31{fill:#F68832;}
	.st32{fill:#EC7E30;}
	.st33{fill:#A5A4A4;}
	.st34{fill:#FDC015;}
	.st35{fill:#4A72B8;}
	.st36{opacity:0.9;fill:#FFFFFF;enable-background:new    ;}
	.st37{fill:none;stroke:#EC7E30;stroke-miterlimit:10;}
	.st38{fill:#71AD44;}
</style>
<g>
	<g>
		<polygon class="st32" points="119.3,28.4 119.3,28.4 89.7,56.8 0,56.8 29.6,28.4 29.6,28.4 0,0.1 89.7,0.1 		"/>
		<g>
			<path class="st36" d="M129.6,61.5H49.5c-1.6,0-2.9-1.3-2.9-2.9V26c0-1.6,1.3-2.9,2.9-2.9h80.1c1.6,0,2.9,1.3,2.9,2.9v32.6
				C132.5,60.2,131.2,61.5,129.6,61.5z"/>
			<path class="st37" d="M129.6,61.5H49.5c-1.6,0-2.9-1.3-2.9-2.9V26c0-1.6,1.3-2.9,2.9-2.9h80.1c1.6,0,2.9,1.3,2.9,2.9v32.6
				C132.5,60.2,131.2,61.5,129.6,61.5z"/>
		</g>
		<g>
			<path d="M55.2,34v-6.5H56v5.8h3V34H55.2z"/>
			<path d="M62.1,34.1c-0.4,0-0.8-0.1-1.2-0.3s-0.6-0.5-0.8-0.9c-0.2-0.4-0.3-0.8-0.3-1.3c0-0.5,0.1-1,0.3-1.3s0.4-0.7,0.8-0.9
				s0.7-0.3,1.2-0.3c0.4,0,0.8,0.1,1.2,0.3s0.6,0.5,0.8,0.9c0.2,0.4,0.3,0.8,0.3,1.3c0,0.5-0.1,1-0.3,1.3c-0.2,0.4-0.4,0.7-0.8,0.9
				S62.6,34.1,62.1,34.1z M62.1,33.4c0.3,0,0.6-0.1,0.8-0.3c0.2-0.2,0.4-0.4,0.5-0.7c0.1-0.3,0.2-0.6,0.2-0.9c0-0.3-0.1-0.6-0.2-0.9
				c-0.1-0.3-0.3-0.5-0.5-0.7c-0.2-0.2-0.5-0.3-0.8-0.3c-0.3,0-0.6,0.1-0.8,0.3c-0.2,0.2-0.4,0.4-0.5,0.7s-0.2,0.6-0.2,0.9
				c0,0.3,0.1,0.6,0.2,0.9s0.3,0.5,0.5,0.7C61.5,33.3,61.8,33.4,62.1,33.4z"/>
			<path d="M67.5,35.9c-0.4,0-0.7,0-0.9-0.1c-0.3-0.1-0.5-0.2-0.7-0.4c-0.2-0.2-0.3-0.3-0.4-0.5l0.6-0.4c0.1,0.1,0.2,0.2,0.3,0.3
				s0.2,0.2,0.4,0.3c0.2,0.1,0.4,0.1,0.7,0.1c0.4,0,0.7-0.1,1-0.3s0.4-0.5,0.4-0.9v-1h-0.1c-0.1,0.1-0.1,0.2-0.2,0.3
				c-0.1,0.1-0.2,0.2-0.4,0.3s-0.4,0.2-0.8,0.2c-0.4,0-0.8-0.1-1.1-0.3c-0.3-0.2-0.6-0.5-0.7-0.8s-0.3-0.8-0.3-1.3
				c0-0.5,0.1-0.9,0.3-1.3s0.4-0.7,0.7-0.9S67,29,67.4,29c0.3,0,0.6,0.1,0.8,0.2c0.2,0.1,0.3,0.2,0.4,0.4c0.1,0.1,0.2,0.2,0.2,0.3
				h0.1V29h0.7v5c0,0.4-0.1,0.8-0.3,1s-0.4,0.5-0.8,0.6C68.2,35.8,67.9,35.9,67.5,35.9z M67.5,33.2c0.3,0,0.6-0.1,0.8-0.2
				s0.4-0.3,0.5-0.6c0.1-0.3,0.2-0.6,0.2-0.9c0-0.4-0.1-0.7-0.2-0.9s-0.3-0.5-0.5-0.6c-0.2-0.2-0.5-0.2-0.8-0.2
				c-0.3,0-0.6,0.1-0.8,0.2c-0.2,0.2-0.4,0.4-0.5,0.7c-0.1,0.3-0.2,0.6-0.2,0.9c0,0.3,0.1,0.6,0.2,0.9c0.1,0.3,0.3,0.5,0.5,0.6
				C66.9,33.1,67.1,33.2,67.5,33.2z"/>
			<path d="M73.9,28.2c-0.1,0-0.3-0.1-0.4-0.2s-0.2-0.2-0.2-0.4s0.1-0.3,0.2-0.4s0.2-0.2,0.4-0.2c0.1,0,0.3,0.1,0.4,0.2
				s0.2,0.2,0.2,0.4s-0.1,0.3-0.2,0.4S74.1,28.2,73.9,28.2z M73.5,34V29h0.8V34H73.5z"/>
			<path d="M76.4,31v3h-0.8V29h0.7v0.8h0.1c0.1-0.2,0.3-0.5,0.5-0.6c0.2-0.2,0.5-0.2,0.9-0.2c0.3,0,0.6,0.1,0.9,0.2
				c0.2,0.1,0.4,0.3,0.6,0.6c0.1,0.3,0.2,0.6,0.2,1V34h-0.8v-3.1c0-0.4-0.1-0.7-0.3-0.9s-0.5-0.3-0.8-0.3c-0.2,0-0.5,0.1-0.6,0.2
				c-0.2,0.1-0.3,0.3-0.4,0.5C76.5,30.5,76.4,30.7,76.4,31z"/>
			<path d="M85.6,29v0.6H83V29H85.6z M83.8,27.9h0.8v4.7c0,0.2,0,0.4,0.1,0.5c0.1,0.1,0.1,0.2,0.2,0.2c0.1,0,0.2,0.1,0.3,0.1
				c0.1,0,0.2,0,0.2,0c0.1,0,0.1,0,0.1,0l0.2,0.7c-0.1,0-0.1,0-0.2,0.1c-0.1,0-0.2,0-0.3,0c-0.2,0-0.4,0-0.6-0.1
				c-0.2-0.1-0.4-0.2-0.5-0.4s-0.2-0.4-0.2-0.7V27.9z"/>
			<path d="M88.7,34.1c-0.4,0-0.8-0.1-1.2-0.3c-0.3-0.2-0.6-0.5-0.8-0.9c-0.2-0.4-0.3-0.8-0.3-1.3c0-0.5,0.1-1,0.3-1.3
				s0.4-0.7,0.8-0.9c0.3-0.2,0.7-0.3,1.2-0.3s0.8,0.1,1.2,0.3c0.3,0.2,0.6,0.5,0.8,0.9s0.3,0.8,0.3,1.3c0,0.5-0.1,1-0.3,1.3
				c-0.2,0.4-0.4,0.7-0.8,0.9C89.6,34,89.2,34.1,88.7,34.1z M88.7,33.4c0.3,0,0.6-0.1,0.8-0.3c0.2-0.2,0.4-0.4,0.5-0.7
				s0.2-0.6,0.2-0.9c0-0.3-0.1-0.6-0.2-0.9s-0.3-0.5-0.5-0.7c-0.2-0.2-0.5-0.3-0.8-0.3s-0.6,0.1-0.8,0.3c-0.2,0.2-0.4,0.4-0.5,0.7
				s-0.2,0.6-0.2,0.9c0,0.3,0.1,0.6,0.2,0.9s0.3,0.5,0.5,0.7C88.1,33.3,88.4,33.4,88.7,33.4z"/>
			<path d="M95,28.2c-0.1,0-0.3-0.1-0.4-0.2s-0.2-0.2-0.2-0.4s0.1-0.3,0.2-0.4s0.2-0.2,0.4-0.2c0.1,0,0.3,0.1,0.4,0.2
				s0.2,0.2,0.2,0.4s-0.1,0.3-0.2,0.4S95.2,28.2,95,28.2z M94.6,34V29h0.8V34H94.6z"/>
			<path d="M96.9,34v-6.5h2.3c0.5,0,0.8,0.1,1.1,0.2s0.5,0.4,0.7,0.6c0.1,0.3,0.2,0.6,0.2,0.9c0,0.3,0,0.5-0.1,0.7
				c-0.1,0.2-0.2,0.3-0.4,0.4c-0.2,0.1-0.3,0.2-0.5,0.2v0.1c0.2,0,0.4,0.1,0.6,0.2s0.4,0.3,0.5,0.5c0.1,0.2,0.2,0.5,0.2,0.9
				c0,0.3-0.1,0.6-0.2,0.9c-0.1,0.3-0.4,0.5-0.7,0.6c-0.3,0.2-0.7,0.2-1.3,0.2H96.9z M97.7,30.3h1.5c0.2,0,0.5,0,0.6-0.1
				c0.2-0.1,0.3-0.2,0.5-0.4c0.1-0.2,0.2-0.4,0.2-0.6c0-0.3-0.1-0.5-0.3-0.7c-0.2-0.2-0.5-0.3-1-0.3h-1.5V30.3z M97.7,33.3h1.6
				c0.5,0,0.9-0.1,1.1-0.3c0.2-0.2,0.3-0.4,0.3-0.7c0-0.2-0.1-0.4-0.2-0.6c-0.1-0.2-0.3-0.3-0.5-0.5C99.8,31,99.6,31,99.3,31h-1.6
				V33.3z"/>
			<path d="M102.6,34V29h0.7v0.7h0.1c0.1-0.2,0.3-0.4,0.5-0.6s0.5-0.2,0.8-0.2c0.1,0,0.1,0,0.2,0c0.1,0,0.1,0,0.2,0v0.8
				c0,0-0.1,0-0.2,0s-0.2,0-0.3,0c-0.2,0-0.5,0-0.6,0.1s-0.3,0.2-0.4,0.4c-0.1,0.2-0.2,0.4-0.2,0.6V34H102.6z"/>
			<path d="M108,34.1c-0.4,0-0.8-0.1-1.2-0.3c-0.3-0.2-0.6-0.5-0.8-0.9c-0.2-0.4-0.3-0.8-0.3-1.3c0-0.5,0.1-1,0.3-1.3
				s0.4-0.7,0.8-0.9c0.3-0.2,0.7-0.3,1.2-0.3s0.8,0.1,1.2,0.3s0.6,0.5,0.8,0.9c0.2,0.4,0.3,0.8,0.3,1.3c0,0.5-0.1,1-0.3,1.3
				c-0.2,0.4-0.4,0.7-0.8,0.9S108.4,34.1,108,34.1z M108,33.4c0.3,0,0.6-0.1,0.8-0.3c0.2-0.2,0.4-0.4,0.5-0.7s0.2-0.6,0.2-0.9
				c0-0.3-0.1-0.6-0.2-0.9s-0.3-0.5-0.5-0.7c-0.2-0.2-0.5-0.3-0.8-0.3s-0.6,0.1-0.8,0.3c-0.2,0.2-0.4,0.4-0.5,0.7s-0.2,0.6-0.2,0.9
				c0,0.3,0.1,0.6,0.2,0.9s0.3,0.5,0.5,0.7C107.3,33.3,107.6,33.4,108,33.4z"/>
			<path d="M111.3,34v-6.5h0.8V34H111.3z M112,32.2l0-0.9h0.2l2.1-2.2h0.9l-2.3,2.3h-0.1L112,32.2z M114.5,34l-1.9-2.4l0.5-0.5
				l2.3,3H114.5z"/>
			<path d="M118.3,34.1c-0.5,0-0.9-0.1-1.2-0.3s-0.6-0.5-0.8-0.9c-0.2-0.4-0.3-0.8-0.3-1.3s0.1-0.9,0.3-1.3c0.2-0.4,0.4-0.7,0.8-0.9
				c0.3-0.2,0.7-0.3,1.2-0.3c0.3,0,0.5,0,0.8,0.1c0.2,0.1,0.5,0.2,0.7,0.4c0.2,0.2,0.4,0.4,0.5,0.8c0.1,0.3,0.2,0.7,0.2,1.2v0.3
				h-3.8v-0.7h3c0-0.3-0.1-0.5-0.2-0.7s-0.3-0.4-0.5-0.5c-0.2-0.1-0.4-0.2-0.7-0.2c-0.3,0-0.6,0.1-0.8,0.2s-0.4,0.3-0.5,0.6
				c-0.1,0.2-0.2,0.5-0.2,0.8v0.4c0,0.4,0.1,0.7,0.2,0.9s0.3,0.5,0.5,0.6c0.2,0.1,0.5,0.2,0.8,0.2c0.2,0,0.4,0,0.5-0.1
				c0.2-0.1,0.3-0.1,0.4-0.3c0.1-0.1,0.2-0.3,0.3-0.4l0.7,0.2c-0.1,0.2-0.2,0.5-0.4,0.7c-0.2,0.2-0.4,0.3-0.7,0.4
				S118.6,34.1,118.3,34.1z"/>
			<path d="M121.5,34V29h0.7v0.7h0.1c0.1-0.2,0.3-0.4,0.5-0.6s0.5-0.2,0.8-0.2c0.1,0,0.1,0,0.2,0c0.1,0,0.1,0,0.2,0v0.8
				c0,0-0.1,0-0.2,0s-0.2,0-0.3,0c-0.2,0-0.5,0-0.6,0.1s-0.3,0.2-0.4,0.4c-0.1,0.2-0.2,0.4-0.2,0.6V34H121.5z"/>
			<path d="M62.2,44.8c-0.4,0-0.8-0.1-1.1-0.2s-0.6-0.4-0.7-0.6c-0.2-0.3-0.3-0.6-0.3-0.9c0-0.3,0.1-0.5,0.2-0.7s0.3-0.4,0.5-0.6
				c0.2-0.2,0.4-0.4,0.7-0.5l0.9-0.7c0.2-0.1,0.3-0.3,0.4-0.4c0.1-0.1,0.2-0.3,0.2-0.5c0-0.2-0.1-0.3-0.2-0.5
				c-0.1-0.2-0.3-0.2-0.6-0.2c-0.2,0-0.3,0-0.4,0.1c-0.1,0.1-0.2,0.2-0.3,0.3s-0.1,0.3-0.1,0.4c0,0.2,0,0.3,0.1,0.5
				c0.1,0.2,0.2,0.3,0.3,0.5c0.1,0.2,0.3,0.3,0.4,0.5l3,3.7h-0.9l-2.5-3c-0.2-0.3-0.4-0.5-0.6-0.8c-0.2-0.2-0.3-0.4-0.4-0.7
				c-0.1-0.2-0.2-0.5-0.2-0.7c0-0.3,0.1-0.6,0.2-0.8c0.1-0.2,0.3-0.4,0.6-0.5c0.2-0.1,0.5-0.2,0.8-0.2c0.3,0,0.6,0.1,0.8,0.2
				c0.2,0.1,0.4,0.3,0.5,0.5c0.1,0.2,0.2,0.4,0.2,0.7c0,0.3-0.1,0.6-0.2,0.8c-0.2,0.2-0.4,0.4-0.6,0.6l-1.3,1
				c-0.3,0.2-0.5,0.4-0.6,0.6s-0.2,0.4-0.2,0.4c0,0.2,0.1,0.4,0.2,0.6c0.1,0.2,0.3,0.3,0.5,0.4s0.4,0.2,0.7,0.2
				c0.2,0,0.5-0.1,0.7-0.2s0.4-0.3,0.6-0.5c0.2-0.2,0.3-0.4,0.5-0.7c0.1-0.3,0.2-0.6,0.2-0.9h0.7c0,0.4,0,0.8-0.1,1.1
				s-0.2,0.5-0.3,0.6c-0.1,0.2-0.2,0.3-0.3,0.3c0,0,0,0.1-0.1,0.1c0,0,0,0.1-0.1,0.1c-0.2,0.2-0.5,0.4-0.8,0.5
				C62.8,44.8,62.5,44.8,62.2,44.8z"/>
			<path d="M70.8,39.8v0.6h-2.5v-0.6H70.8z M69,38.7h0.8v4.7c0,0.2,0,0.4,0.1,0.5S70,44,70.1,44c0.1,0,0.2,0.1,0.3,0.1
				c0.1,0,0.2,0,0.2,0c0.1,0,0.1,0,0.1,0l0.2,0.7c-0.1,0-0.1,0-0.2,0.1c-0.1,0-0.2,0-0.3,0c-0.2,0-0.4,0-0.6-0.1
				c-0.2-0.1-0.4-0.2-0.5-0.4C69,44.1,69,43.8,69,43.6V38.7z"/>
			<path d="M73.4,44.9c-0.3,0-0.6-0.1-0.8-0.2c-0.3-0.1-0.5-0.3-0.6-0.5c-0.1-0.2-0.2-0.5-0.2-0.8c0-0.3,0.1-0.5,0.2-0.7
				c0.1-0.2,0.3-0.3,0.4-0.4c0.2-0.1,0.4-0.2,0.6-0.2c0.2,0,0.5-0.1,0.7-0.1c0.3,0,0.5-0.1,0.7-0.1c0.2,0,0.3-0.1,0.4-0.1
				s0.1-0.1,0.1-0.3v0c0-0.3-0.1-0.6-0.3-0.7c-0.2-0.2-0.4-0.3-0.8-0.3c-0.4,0-0.6,0.1-0.8,0.2c-0.2,0.2-0.3,0.3-0.4,0.5l-0.7-0.3
				c0.1-0.3,0.3-0.5,0.5-0.7c0.2-0.2,0.4-0.3,0.7-0.4c0.3-0.1,0.5-0.1,0.8-0.1c0.2,0,0.3,0,0.5,0.1s0.4,0.1,0.6,0.2
				c0.2,0.1,0.4,0.3,0.5,0.5c0.1,0.2,0.2,0.5,0.2,0.9v3.2h-0.8v-0.7h0c-0.1,0.1-0.1,0.2-0.3,0.3c-0.1,0.1-0.3,0.2-0.5,0.3
				C73.9,44.8,73.6,44.9,73.4,44.9z M73.5,44.2c0.3,0,0.5-0.1,0.8-0.2c0.2-0.1,0.4-0.3,0.5-0.5c0.1-0.2,0.2-0.4,0.2-0.6v-0.7
				c0,0-0.1,0.1-0.2,0.1c-0.1,0-0.2,0.1-0.4,0.1c-0.1,0-0.3,0-0.4,0.1s-0.2,0-0.3,0c-0.2,0-0.4,0.1-0.5,0.1s-0.3,0.1-0.4,0.3
				s-0.2,0.3-0.2,0.5c0,0.3,0.1,0.5,0.3,0.6C72.9,44.1,73.2,44.2,73.5,44.2z"/>
			<path d="M77,46.6v-6.8h0.7v0.8h0.1c0.1-0.1,0.1-0.2,0.2-0.3c0.1-0.1,0.2-0.3,0.4-0.4s0.4-0.2,0.8-0.2c0.4,0,0.8,0.1,1.1,0.3
				s0.6,0.5,0.7,0.9c0.2,0.4,0.3,0.8,0.3,1.3c0,0.5-0.1,1-0.3,1.4s-0.4,0.7-0.7,0.9c-0.3,0.2-0.7,0.3-1.1,0.3
				c-0.3,0-0.6-0.1-0.8-0.2s-0.3-0.2-0.4-0.4c-0.1-0.1-0.2-0.2-0.2-0.3h-0.1v2.6H77z M77.7,42.3c0,0.4,0.1,0.7,0.2,1
				c0.1,0.3,0.3,0.5,0.5,0.7c0.2,0.2,0.5,0.2,0.8,0.2c0.3,0,0.6-0.1,0.8-0.3s0.4-0.4,0.5-0.7c0.1-0.3,0.2-0.6,0.2-1
				c0-0.3-0.1-0.7-0.2-0.9c-0.1-0.3-0.3-0.5-0.5-0.7c-0.2-0.2-0.5-0.2-0.8-0.2c-0.3,0-0.6,0.1-0.8,0.2c-0.2,0.2-0.4,0.4-0.5,0.6
				C77.8,41.6,77.7,41.9,77.7,42.3z"/>
			<path d="M87,44.9c-0.4,0-0.8-0.1-1.2-0.3c-0.3-0.2-0.6-0.5-0.8-0.9c-0.2-0.4-0.3-0.8-0.3-1.3c0-0.5,0.1-1,0.3-1.3
				s0.4-0.7,0.8-0.9c0.3-0.2,0.7-0.3,1.2-0.3s0.8,0.1,1.2,0.3c0.3,0.2,0.6,0.5,0.8,0.9s0.3,0.8,0.3,1.3c0,0.5-0.1,1-0.3,1.3
				c-0.2,0.4-0.4,0.7-0.8,0.9C87.8,44.8,87.4,44.9,87,44.9z M87,44.2c0.3,0,0.6-0.1,0.8-0.3c0.2-0.2,0.4-0.4,0.5-0.7
				s0.2-0.6,0.2-0.9c0-0.3-0.1-0.6-0.2-0.9s-0.3-0.5-0.5-0.7c-0.2-0.2-0.5-0.3-0.8-0.3s-0.6,0.1-0.8,0.3c-0.2,0.2-0.4,0.4-0.5,0.7
				s-0.2,0.6-0.2,0.9c0,0.3,0.1,0.6,0.2,0.9s0.3,0.5,0.5,0.7C86.4,44.1,86.7,44.2,87,44.2z"/>
			<path d="M91.1,41.8v3h-0.8v-4.9h0.7v0.8h0.1c0.1-0.2,0.3-0.5,0.5-0.6c0.2-0.2,0.5-0.2,0.9-0.2c0.3,0,0.6,0.1,0.9,0.2
				c0.2,0.1,0.4,0.3,0.6,0.6c0.1,0.3,0.2,0.6,0.2,1v3.1h-0.8v-3.1c0-0.4-0.1-0.7-0.3-0.9s-0.5-0.3-0.8-0.3c-0.2,0-0.5,0.1-0.6,0.2
				c-0.2,0.1-0.3,0.3-0.4,0.5C91.2,41.3,91.1,41.5,91.1,41.8z"/>
			<path d="M98.3,44.8v-6.5h3.9v0.7h-3.1v2.2h2.8v0.7h-2.8v2.9H98.3z"/>
			<path d="M106.5,42.7v-2.9h0.8v4.9h-0.8v-0.8h-0.1c-0.1,0.2-0.3,0.5-0.5,0.6c-0.2,0.2-0.5,0.3-0.9,0.3c-0.3,0-0.6-0.1-0.8-0.2
				c-0.2-0.1-0.4-0.3-0.6-0.6c-0.1-0.3-0.2-0.6-0.2-1v-3.1h0.8v3.1c0,0.4,0.1,0.6,0.3,0.9c0.2,0.2,0.5,0.3,0.8,0.3
				c0.2,0,0.4,0,0.6-0.1c0.2-0.1,0.4-0.2,0.5-0.4C106.5,43.3,106.5,43.1,106.5,42.7z"/>
			<path d="M109.4,41.8v3h-0.8v-4.9h0.7v0.8h0.1c0.1-0.2,0.3-0.5,0.5-0.6s0.5-0.2,0.9-0.2c0.3,0,0.6,0.1,0.9,0.2s0.4,0.3,0.6,0.6
				c0.1,0.3,0.2,0.6,0.2,1v3.1h-0.8v-3.1c0-0.4-0.1-0.7-0.3-0.9c-0.2-0.2-0.5-0.3-0.8-0.3c-0.2,0-0.5,0.1-0.6,0.2
				c-0.2,0.1-0.3,0.3-0.4,0.5S109.4,41.5,109.4,41.8z"/>
			<path d="M115.8,44.9c-0.4,0-0.8-0.1-1.1-0.3c-0.3-0.2-0.6-0.5-0.7-0.9s-0.3-0.8-0.3-1.4c0-0.5,0.1-1,0.3-1.3
				c0.2-0.4,0.4-0.7,0.7-0.9s0.7-0.3,1.1-0.3c0.3,0,0.6,0.1,0.8,0.2c0.2,0.1,0.3,0.2,0.4,0.4c0.1,0.1,0.2,0.2,0.2,0.3h0.1v-2.4h0.8
				v6.5h-0.7V44h-0.1c-0.1,0.1-0.1,0.2-0.2,0.3s-0.2,0.3-0.4,0.4S116.1,44.9,115.8,44.9z M115.9,44.2c0.3,0,0.6-0.1,0.8-0.2
				s0.4-0.4,0.5-0.7c0.1-0.3,0.2-0.6,0.2-1c0-0.4-0.1-0.7-0.2-1s-0.3-0.5-0.5-0.6c-0.2-0.2-0.5-0.2-0.8-0.2c-0.3,0-0.6,0.1-0.8,0.2
				c-0.2,0.2-0.4,0.4-0.5,0.7c-0.1,0.3-0.2,0.6-0.2,0.9c0,0.3,0.1,0.7,0.2,1c0.1,0.3,0.3,0.5,0.5,0.7S115.6,44.2,115.9,44.2z"/>
			<path d="M75.7,55.6h-2V49h2.1c0.6,0,1.2,0.1,1.6,0.4c0.5,0.3,0.8,0.6,1,1.1c0.2,0.5,0.4,1.1,0.4,1.7c0,0.7-0.1,1.3-0.4,1.8
				c-0.2,0.5-0.6,0.9-1.1,1.1C77,55.4,76.4,55.6,75.7,55.6z M74.5,54.9h1.2c0.5,0,1-0.1,1.3-0.3c0.4-0.2,0.6-0.5,0.8-0.9
				c0.2-0.4,0.3-0.8,0.3-1.4c0-0.5-0.1-1-0.3-1.4s-0.4-0.7-0.8-0.9c-0.3-0.2-0.8-0.3-1.3-0.3h-1.3V54.9z"/>
			<path d="M82.1,55.7c-0.5,0-0.9-0.1-1.2-0.3s-0.6-0.5-0.8-0.9c-0.2-0.4-0.3-0.8-0.3-1.3s0.1-0.9,0.3-1.3c0.2-0.4,0.4-0.7,0.8-0.9
				c0.3-0.2,0.7-0.3,1.2-0.3c0.3,0,0.5,0,0.8,0.1c0.2,0.1,0.5,0.2,0.7,0.4c0.2,0.2,0.4,0.4,0.5,0.8c0.1,0.3,0.2,0.7,0.2,1.2v0.3
				h-3.8v-0.7h3c0-0.3-0.1-0.5-0.2-0.7c-0.1-0.2-0.3-0.4-0.5-0.5c-0.2-0.1-0.4-0.2-0.7-0.2c-0.3,0-0.6,0.1-0.8,0.2
				c-0.2,0.1-0.4,0.3-0.5,0.6c-0.1,0.2-0.2,0.5-0.2,0.8v0.4c0,0.4,0.1,0.7,0.2,0.9s0.3,0.5,0.5,0.6c0.2,0.1,0.5,0.2,0.8,0.2
				c0.2,0,0.4,0,0.5-0.1c0.2-0.1,0.3-0.1,0.4-0.3c0.1-0.1,0.2-0.3,0.3-0.4l0.7,0.2c-0.1,0.2-0.2,0.5-0.4,0.7
				c-0.2,0.2-0.4,0.3-0.7,0.4C82.8,55.6,82.5,55.7,82.1,55.7z"/>
			<path d="M85.3,57.4v-6.8H86v0.8h0.1c0.1-0.1,0.1-0.2,0.2-0.3c0.1-0.1,0.2-0.3,0.4-0.4s0.4-0.2,0.8-0.2c0.4,0,0.8,0.1,1.1,0.3
				s0.6,0.5,0.7,0.9c0.2,0.4,0.3,0.8,0.3,1.3c0,0.5-0.1,1-0.3,1.4s-0.4,0.7-0.7,0.9c-0.3,0.2-0.7,0.3-1.1,0.3
				c-0.3,0-0.6-0.1-0.8-0.2c-0.2-0.1-0.3-0.2-0.4-0.4s-0.2-0.2-0.2-0.3h-0.1v2.6H85.3z M86.1,53.1c0,0.4,0.1,0.7,0.2,1
				c0.1,0.3,0.3,0.5,0.5,0.7s0.5,0.2,0.8,0.2c0.3,0,0.6-0.1,0.8-0.3c0.2-0.2,0.4-0.4,0.5-0.7c0.1-0.3,0.2-0.6,0.2-1
				c0-0.3-0.1-0.7-0.2-0.9c-0.1-0.3-0.3-0.5-0.5-0.7c-0.2-0.2-0.5-0.2-0.8-0.2c-0.3,0-0.6,0.1-0.8,0.2c-0.2,0.2-0.4,0.4-0.5,0.6
				S86.1,52.7,86.1,53.1z"/>
			<path d="M92.8,55.7c-0.4,0-0.8-0.1-1.2-0.3c-0.3-0.2-0.6-0.5-0.8-0.9c-0.2-0.4-0.3-0.8-0.3-1.3c0-0.5,0.1-1,0.3-1.3
				s0.4-0.7,0.8-0.9c0.3-0.2,0.7-0.3,1.2-0.3c0.4,0,0.8,0.1,1.2,0.3c0.3,0.2,0.6,0.5,0.8,0.9s0.3,0.8,0.3,1.3c0,0.5-0.1,1-0.3,1.3
				c-0.2,0.4-0.4,0.7-0.8,0.9C93.6,55.6,93.2,55.7,92.8,55.7z M92.8,55c0.3,0,0.6-0.1,0.8-0.3c0.2-0.2,0.4-0.4,0.5-0.7
				c0.1-0.3,0.2-0.6,0.2-0.9c0-0.3-0.1-0.6-0.2-0.9c-0.1-0.3-0.3-0.5-0.5-0.7c-0.2-0.2-0.5-0.3-0.8-0.3c-0.3,0-0.6,0.1-0.8,0.3
				c-0.2,0.2-0.4,0.4-0.5,0.7s-0.2,0.6-0.2,0.9c0,0.3,0.1,0.6,0.2,0.9s0.3,0.5,0.5,0.7C92.2,54.9,92.5,55,92.8,55z"/>
			<path d="M99.6,51.7L99,51.9c0-0.1-0.1-0.2-0.2-0.3s-0.2-0.2-0.3-0.3c-0.1-0.1-0.3-0.1-0.5-0.1c-0.3,0-0.5,0.1-0.7,0.2
				c-0.2,0.1-0.3,0.3-0.3,0.5c0,0.2,0.1,0.3,0.2,0.4c0.1,0.1,0.3,0.2,0.6,0.3l0.7,0.2c0.4,0.1,0.8,0.3,1,0.5
				c0.2,0.2,0.3,0.5,0.3,0.8c0,0.3-0.1,0.5-0.2,0.8c-0.2,0.2-0.4,0.4-0.7,0.5s-0.6,0.2-1,0.2c-0.5,0-0.9-0.1-1.2-0.3s-0.5-0.5-0.6-1
				l0.7-0.2c0.1,0.3,0.2,0.5,0.4,0.6c0.2,0.1,0.4,0.2,0.7,0.2c0.4,0,0.6-0.1,0.8-0.2c0.2-0.2,0.3-0.3,0.3-0.5c0-0.2-0.1-0.3-0.2-0.4
				s-0.3-0.2-0.5-0.3l-0.8-0.2c-0.4-0.1-0.8-0.3-1-0.5c-0.2-0.2-0.3-0.5-0.3-0.8c0-0.3,0.1-0.5,0.2-0.7c0.2-0.2,0.4-0.4,0.6-0.5
				c0.3-0.1,0.6-0.2,0.9-0.2c0.5,0,0.9,0.1,1.1,0.3C99.3,51.1,99.5,51.4,99.6,51.7z"/>
			<path d="M101.3,49.8c-0.1,0-0.3-0.1-0.4-0.2s-0.2-0.2-0.2-0.4s0.1-0.3,0.2-0.4s0.2-0.2,0.4-0.2c0.1,0,0.3,0.1,0.4,0.2
				s0.2,0.2,0.2,0.4s-0.1,0.3-0.2,0.4S101.4,49.8,101.3,49.8z M100.9,55.6v-4.9h0.8v4.9H100.9z"/>
			<path d="M105.1,50.6v0.6h-2.5v-0.6H105.1z M103.3,49.5h0.8v4.7c0,0.2,0,0.4,0.1,0.5c0.1,0.1,0.1,0.2,0.2,0.2
				c0.1,0,0.2,0.1,0.3,0.1c0.1,0,0.2,0,0.2,0c0.1,0,0.1,0,0.1,0l0.2,0.7c-0.1,0-0.1,0-0.2,0.1c-0.1,0-0.2,0-0.3,0
				c-0.2,0-0.4,0-0.6-0.1c-0.2-0.1-0.4-0.2-0.5-0.4c-0.1-0.2-0.2-0.4-0.2-0.7V49.5z"/>
		</g>
	</g>
	<g>
		<polygon class="st33" points="260.1,28.4 260.1,28.4 230.5,56.7 140.8,56.7 170.4,28.4 170.4,28.4 140.8,0 230.5,0 		"/>
		<g>
			<path class="st36" d="M270.4,61.5h-80.1c-1.6,0-2.9-1.3-2.9-2.9V26c0-1.6,1.3-2.9,2.9-2.9h80.1c1.6,0,2.9,1.3,2.9,2.9v32.6
				C273.3,60.2,272,61.5,270.4,61.5z"/>
			<path class="st37" d="M270.4,61.5h-80.1c-1.6,0-2.9-1.3-2.9-2.9V26c0-1.6,1.3-2.9,2.9-2.9h80.1c1.6,0,2.9,1.3,2.9,2.9v32.6
				C273.3,60.2,272,61.5,270.4,61.5z"/>
		</g>
		<g>
			<path d="M206.7,40.7c0-0.3-0.2-0.6-0.5-0.8c-0.3-0.2-0.6-0.3-1-0.3c-0.3,0-0.5,0-0.8,0.1s-0.4,0.2-0.5,0.4
				c-0.1,0.2-0.2,0.4-0.2,0.6c0,0.2,0,0.3,0.1,0.4c0.1,0.1,0.2,0.2,0.3,0.3c0.1,0.1,0.3,0.1,0.4,0.2c0.1,0.1,0.3,0.1,0.4,0.1
				l0.7,0.2c0.2,0,0.4,0.1,0.6,0.2c0.2,0.1,0.4,0.2,0.6,0.3c0.2,0.1,0.4,0.3,0.5,0.5c0.1,0.2,0.2,0.5,0.2,0.8c0,0.4-0.1,0.7-0.3,1
				c-0.2,0.3-0.5,0.5-0.8,0.7c-0.4,0.2-0.8,0.3-1.3,0.3c-0.5,0-0.9-0.1-1.2-0.2c-0.3-0.2-0.6-0.4-0.8-0.6c-0.2-0.3-0.3-0.6-0.3-0.9
				h0.8c0,0.2,0.1,0.5,0.3,0.6c0.1,0.2,0.3,0.3,0.6,0.4c0.2,0.1,0.5,0.1,0.7,0.1c0.3,0,0.6,0,0.8-0.1s0.4-0.2,0.6-0.4
				c0.1-0.2,0.2-0.4,0.2-0.6c0-0.2-0.1-0.4-0.2-0.5c-0.1-0.1-0.3-0.2-0.5-0.3c-0.2-0.1-0.4-0.2-0.6-0.2l-0.8-0.2
				c-0.5-0.1-0.9-0.4-1.2-0.6c-0.3-0.3-0.4-0.6-0.4-1.1c0-0.4,0.1-0.7,0.3-1c0.2-0.3,0.5-0.5,0.8-0.6c0.3-0.2,0.7-0.2,1.1-0.2
				c0.4,0,0.8,0.1,1.1,0.2s0.6,0.4,0.8,0.6c0.2,0.3,0.3,0.6,0.3,0.9H206.7z"/>
			<path d="M210.8,45.7c-0.5,0-0.9-0.1-1.2-0.3s-0.6-0.5-0.8-0.9c-0.2-0.4-0.3-0.8-0.3-1.3s0.1-0.9,0.3-1.3c0.2-0.4,0.4-0.7,0.8-0.9
				c0.3-0.2,0.7-0.3,1.2-0.3c0.3,0,0.5,0,0.8,0.1c0.2,0.1,0.5,0.2,0.7,0.4c0.2,0.2,0.4,0.4,0.5,0.8c0.1,0.3,0.2,0.7,0.2,1.2v0.3
				h-3.8v-0.7h3c0-0.3-0.1-0.5-0.2-0.7c-0.1-0.2-0.3-0.4-0.5-0.5c-0.2-0.1-0.4-0.2-0.7-0.2c-0.3,0-0.6,0.1-0.8,0.2
				c-0.2,0.1-0.4,0.3-0.5,0.6c-0.1,0.2-0.2,0.5-0.2,0.8v0.4c0,0.4,0.1,0.7,0.2,0.9s0.3,0.5,0.5,0.6c0.2,0.1,0.5,0.2,0.8,0.2
				c0.2,0,0.4,0,0.5-0.1c0.2-0.1,0.3-0.1,0.4-0.3c0.1-0.1,0.2-0.3,0.3-0.4l0.7,0.2c-0.1,0.2-0.2,0.5-0.4,0.7
				c-0.2,0.2-0.4,0.3-0.7,0.4C211.4,45.7,211.1,45.7,210.8,45.7z"/>
			<path d="M214.7,39.1v6.5H214v-6.5H214.7z"/>
			<path d="M218.2,45.7c-0.5,0-0.9-0.1-1.2-0.3c-0.3-0.2-0.6-0.5-0.8-0.9c-0.2-0.4-0.3-0.8-0.3-1.3s0.1-0.9,0.3-1.3
				c0.2-0.4,0.4-0.7,0.8-0.9s0.7-0.3,1.2-0.3c0.3,0,0.5,0,0.8,0.1c0.2,0.1,0.5,0.2,0.7,0.4c0.2,0.2,0.4,0.4,0.5,0.8
				c0.1,0.3,0.2,0.7,0.2,1.2v0.3h-3.8v-0.7h3c0-0.3-0.1-0.5-0.2-0.7c-0.1-0.2-0.3-0.4-0.5-0.5c-0.2-0.1-0.4-0.2-0.7-0.2
				c-0.3,0-0.6,0.1-0.8,0.2c-0.2,0.1-0.4,0.3-0.5,0.6c-0.1,0.2-0.2,0.5-0.2,0.8v0.4c0,0.4,0.1,0.7,0.2,0.9s0.3,0.5,0.5,0.6
				c0.2,0.1,0.5,0.2,0.8,0.2c0.2,0,0.4,0,0.5-0.1c0.2-0.1,0.3-0.1,0.4-0.3c0.1-0.1,0.2-0.3,0.3-0.4l0.7,0.2
				c-0.1,0.2-0.2,0.5-0.4,0.7c-0.2,0.2-0.4,0.3-0.7,0.4S218.5,45.7,218.2,45.7z"/>
			<path d="M223.4,45.7c-0.5,0-0.9-0.1-1.2-0.3s-0.6-0.5-0.8-0.9c-0.2-0.4-0.3-0.8-0.3-1.3c0-0.5,0.1-0.9,0.3-1.3
				c0.2-0.4,0.4-0.7,0.8-0.9c0.3-0.2,0.7-0.3,1.2-0.3c0.3,0,0.7,0.1,0.9,0.2c0.3,0.1,0.5,0.3,0.7,0.5c0.2,0.2,0.3,0.5,0.3,0.8h-0.8
				c-0.1-0.2-0.2-0.4-0.4-0.6c-0.2-0.2-0.5-0.3-0.8-0.3c-0.3,0-0.6,0.1-0.8,0.2s-0.4,0.4-0.5,0.6c-0.1,0.3-0.2,0.6-0.2,1
				c0,0.4,0.1,0.7,0.2,1s0.3,0.5,0.5,0.7c0.2,0.2,0.5,0.2,0.8,0.2c0.2,0,0.4,0,0.5-0.1c0.2-0.1,0.3-0.2,0.4-0.3
				c0.1-0.1,0.2-0.3,0.2-0.5h0.8c0,0.3-0.1,0.6-0.3,0.8c-0.2,0.2-0.4,0.4-0.7,0.5C224,45.7,223.7,45.7,223.4,45.7z"/>
			<path d="M228.5,40.7v0.6H226v-0.6H228.5z M226.7,39.5h0.8v4.7c0,0.2,0,0.4,0.1,0.5s0.1,0.2,0.2,0.2c0.1,0,0.2,0.1,0.3,0.1
				c0.1,0,0.2,0,0.2,0c0.1,0,0.1,0,0.1,0l0.2,0.7c-0.1,0-0.1,0-0.2,0.1c-0.1,0-0.2,0-0.3,0c-0.2,0-0.4,0-0.6-0.1
				c-0.2-0.1-0.4-0.2-0.5-0.4c-0.1-0.2-0.2-0.4-0.2-0.7V39.5z"/>
			<path d="M237.8,42.3c0,0.7-0.1,1.3-0.4,1.8c-0.2,0.5-0.6,0.9-1,1.2c-0.4,0.3-0.9,0.4-1.5,0.4s-1.1-0.1-1.5-0.4
				c-0.4-0.3-0.8-0.7-1-1.2c-0.2-0.5-0.4-1.1-0.4-1.8c0-0.7,0.1-1.3,0.4-1.8c0.2-0.5,0.6-0.9,1-1.2c0.4-0.3,0.9-0.4,1.5-0.4
				s1.1,0.1,1.5,0.4c0.4,0.3,0.8,0.7,1,1.2C237.7,41.1,237.8,41.7,237.8,42.3z M237,42.3c0-0.6-0.1-1-0.3-1.4
				c-0.2-0.4-0.4-0.7-0.8-0.9c-0.3-0.2-0.7-0.3-1.1-0.3s-0.8,0.1-1.1,0.3c-0.3,0.2-0.6,0.5-0.8,0.9c-0.2,0.4-0.3,0.9-0.3,1.4
				c0,0.6,0.1,1,0.3,1.4c0.2,0.4,0.4,0.7,0.8,0.9c0.3,0.2,0.7,0.3,1.1,0.3s0.8-0.1,1.1-0.3c0.3-0.2,0.6-0.5,0.8-0.9
				C237,43.4,237,42.9,237,42.3z"/>
			<path d="M239.8,42.7v3H239v-4.9h0.7v0.8h0.1c0.1-0.2,0.3-0.5,0.5-0.6s0.5-0.2,0.9-0.2c0.3,0,0.6,0.1,0.9,0.2
				c0.2,0.1,0.4,0.3,0.6,0.6c0.1,0.3,0.2,0.6,0.2,1v3.1h-0.8v-3.1c0-0.4-0.1-0.7-0.3-0.9s-0.5-0.3-0.8-0.3c-0.2,0-0.5,0.1-0.6,0.2
				c-0.2,0.1-0.3,0.3-0.4,0.5C239.9,42.1,239.8,42.4,239.8,42.7z"/>
			<path d="M245.1,39.1v6.5h-0.8v-6.5H245.1z"/>
			<path d="M246.8,39.9c-0.1,0-0.3-0.1-0.4-0.2s-0.2-0.2-0.2-0.4s0.1-0.3,0.2-0.4s0.2-0.2,0.4-0.2c0.1,0,0.3,0.1,0.4,0.2
				s0.2,0.2,0.2,0.4s-0.1,0.3-0.2,0.4S247,39.9,246.8,39.9z M246.4,45.6v-4.9h0.8v4.9H246.4z"/>
			<path d="M249.3,42.7v3h-0.8v-4.9h0.7v0.8h0.1c0.1-0.2,0.3-0.5,0.5-0.6s0.5-0.2,0.9-0.2c0.3,0,0.6,0.1,0.9,0.2s0.4,0.3,0.6,0.6
				c0.1,0.3,0.2,0.6,0.2,1v3.1h-0.8v-3.1c0-0.4-0.1-0.7-0.3-0.9c-0.2-0.2-0.5-0.3-0.8-0.3c-0.2,0-0.5,0.1-0.6,0.2
				c-0.2,0.1-0.3,0.3-0.4,0.5S249.3,42.4,249.3,42.7z"/>
			<path d="M255.9,45.7c-0.5,0-0.9-0.1-1.2-0.3s-0.6-0.5-0.8-0.9c-0.2-0.4-0.3-0.8-0.3-1.3s0.1-0.9,0.3-1.3c0.2-0.4,0.4-0.7,0.8-0.9
				c0.3-0.2,0.7-0.3,1.2-0.3c0.3,0,0.5,0,0.8,0.1c0.2,0.1,0.5,0.2,0.7,0.4c0.2,0.2,0.4,0.4,0.5,0.8c0.1,0.3,0.2,0.7,0.2,1.2v0.3
				h-3.8v-0.7h3c0-0.3-0.1-0.5-0.2-0.7s-0.3-0.4-0.5-0.5c-0.2-0.1-0.4-0.2-0.7-0.2c-0.3,0-0.6,0.1-0.8,0.2s-0.4,0.3-0.5,0.6
				c-0.1,0.2-0.2,0.5-0.2,0.8v0.4c0,0.4,0.1,0.7,0.2,0.9s0.3,0.5,0.5,0.6c0.2,0.1,0.5,0.2,0.8,0.2c0.2,0,0.4,0,0.5-0.1
				c0.2-0.1,0.3-0.1,0.4-0.3c0.1-0.1,0.2-0.3,0.3-0.4l0.7,0.2c-0.1,0.2-0.2,0.5-0.4,0.7c-0.2,0.2-0.4,0.3-0.7,0.4
				S256.2,45.7,255.9,45.7z"/>
		</g>
	</g>
	<g>
		<polygon class="st34" points="401,28.4 401,28.4 371.4,56.8 281.7,56.8 311.3,28.4 311.3,28.4 281.7,0.1 371.4,0.1 		"/>
		<g>
			<path class="st36" d="M411.3,61.5h-80.1c-1.6,0-2.9-1.3-2.9-2.9V26c0-1.6,1.3-2.9,2.9-2.9h80.1c1.6,0,2.9,1.3,2.9,2.9v32.6
				C414.2,60.2,412.9,61.5,411.3,61.5z"/>
			<path class="st37" d="M411.3,61.5h-80.1c-1.6,0-2.9-1.3-2.9-2.9V26c0-1.6,1.3-2.9,2.9-2.9h80.1c1.6,0,2.9,1.3,2.9,2.9v32.6
				C414.2,60.2,412.9,61.5,411.3,61.5z"/>
		</g>
		<g>
			<path d="M336.9,40.2v-6.5h2.2c0.5,0,0.9,0.1,1.3,0.3c0.3,0.2,0.6,0.4,0.7,0.7c0.2,0.3,0.2,0.7,0.2,1c0,0.4-0.1,0.7-0.2,1.1
				c-0.2,0.3-0.4,0.6-0.7,0.8c-0.3,0.2-0.7,0.3-1.3,0.3h-1.6v-0.7h1.6c0.4,0,0.6-0.1,0.8-0.2s0.4-0.3,0.5-0.5
				c0.1-0.2,0.1-0.4,0.1-0.7c0-0.3,0-0.5-0.1-0.7c-0.1-0.2-0.3-0.4-0.5-0.5c-0.2-0.1-0.5-0.2-0.9-0.2h-1.4v5.8H336.9z"/>
			<path d="M342.6,40.2v-4.9h0.7v0.7h0.1c0.1-0.2,0.3-0.4,0.5-0.6s0.5-0.2,0.8-0.2c0.1,0,0.1,0,0.2,0c0.1,0,0.1,0,0.2,0V36
				c0,0-0.1,0-0.2,0c-0.1,0-0.2,0-0.3,0c-0.2,0-0.5,0-0.6,0.1s-0.3,0.2-0.4,0.4c-0.1,0.2-0.2,0.4-0.2,0.6v3.1H342.6z"/>
			<path d="M347.9,40.3c-0.4,0-0.8-0.1-1.2-0.3s-0.6-0.5-0.8-0.9c-0.2-0.4-0.3-0.8-0.3-1.3c0-0.5,0.1-1,0.3-1.3s0.4-0.7,0.8-0.9
				s0.7-0.3,1.2-0.3c0.4,0,0.8,0.1,1.2,0.3c0.3,0.2,0.6,0.5,0.8,0.9s0.3,0.8,0.3,1.3c0,0.5-0.1,1-0.3,1.3c-0.2,0.4-0.4,0.7-0.8,0.9
				C348.7,40.2,348.3,40.3,347.9,40.3z M347.9,39.6c0.3,0,0.6-0.1,0.8-0.3c0.2-0.2,0.4-0.4,0.5-0.7c0.1-0.3,0.2-0.6,0.2-0.9
				c0-0.3-0.1-0.6-0.2-0.9c-0.1-0.3-0.3-0.5-0.5-0.7c-0.2-0.2-0.5-0.3-0.8-0.3c-0.3,0-0.6,0.1-0.8,0.3c-0.2,0.2-0.4,0.4-0.5,0.7
				s-0.2,0.6-0.2,0.9c0,0.3,0.1,0.6,0.2,0.9s0.3,0.5,0.5,0.7C347.3,39.6,347.6,39.6,347.9,39.6z"/>
			<path d="M355.3,35.3l-1.8,4.9h-0.8l-1.8-4.9h0.8l1.4,3.9h0.1l1.4-3.9H355.3z"/>
			<path d="M356.7,34.5c-0.1,0-0.3-0.1-0.4-0.2s-0.2-0.2-0.2-0.4s0.1-0.3,0.2-0.4s0.2-0.2,0.4-0.2c0.1,0,0.3,0.1,0.4,0.2
				s0.2,0.2,0.2,0.4s-0.1,0.3-0.2,0.4S356.8,34.5,356.7,34.5z M356.3,40.2v-4.9h0.8v4.9H356.3z"/>
			<path d="M360.3,40.3c-0.4,0-0.8-0.1-1.1-0.3c-0.3-0.2-0.6-0.5-0.7-0.9s-0.3-0.8-0.3-1.4c0-0.5,0.1-1,0.3-1.3
				c0.2-0.4,0.4-0.7,0.7-0.9s0.7-0.3,1.1-0.3c0.3,0,0.6,0.1,0.8,0.2s0.3,0.2,0.4,0.4c0.1,0.1,0.2,0.2,0.2,0.3h0.1v-2.4h0.8v6.5h-0.7
				v-0.8h-0.1c-0.1,0.1-0.1,0.2-0.2,0.3c-0.1,0.1-0.2,0.3-0.4,0.4S360.6,40.3,360.3,40.3z M360.4,39.6c0.3,0,0.6-0.1,0.8-0.2
				c0.2-0.2,0.4-0.4,0.5-0.7c0.1-0.3,0.2-0.6,0.2-1c0-0.4-0.1-0.7-0.2-1c-0.1-0.3-0.3-0.5-0.5-0.6c-0.2-0.2-0.5-0.2-0.8-0.2
				c-0.3,0-0.6,0.1-0.8,0.2c-0.2,0.2-0.4,0.4-0.5,0.7c-0.1,0.3-0.2,0.6-0.2,0.9c0,0.3,0.1,0.7,0.2,1c0.1,0.3,0.3,0.5,0.5,0.7
				S360.1,39.6,360.4,39.6z"/>
			<path d="M366.1,40.3c-0.5,0-0.9-0.1-1.2-0.3c-0.3-0.2-0.6-0.5-0.8-0.9c-0.2-0.4-0.3-0.8-0.3-1.3s0.1-0.9,0.3-1.3
				c0.2-0.4,0.4-0.7,0.8-0.9s0.7-0.3,1.2-0.3c0.3,0,0.5,0,0.8,0.1c0.2,0.1,0.5,0.2,0.7,0.4c0.2,0.2,0.4,0.4,0.5,0.8
				c0.1,0.3,0.2,0.7,0.2,1.2V38h-3.8v-0.7h3c0-0.3-0.1-0.5-0.2-0.7c-0.1-0.2-0.3-0.4-0.5-0.5c-0.2-0.1-0.4-0.2-0.7-0.2
				c-0.3,0-0.6,0.1-0.8,0.2c-0.2,0.1-0.4,0.3-0.5,0.6c-0.1,0.2-0.2,0.5-0.2,0.8v0.4c0,0.4,0.1,0.7,0.2,0.9s0.3,0.5,0.5,0.6
				c0.2,0.1,0.5,0.2,0.8,0.2c0.2,0,0.4,0,0.5-0.1c0.2-0.1,0.3-0.1,0.4-0.3c0.1-0.1,0.2-0.3,0.3-0.4l0.7,0.2
				c-0.1,0.2-0.2,0.5-0.4,0.7c-0.2,0.2-0.4,0.3-0.7,0.4S366.4,40.3,366.1,40.3z"/>
			<path d="M372.7,33.7v6.5h-0.8v-6.5H372.7z"/>
			<path d="M374.9,37.3v3h-0.8v-4.9h0.7v0.8h0.1c0.1-0.2,0.3-0.5,0.5-0.6c0.2-0.2,0.5-0.2,0.9-0.2c0.3,0,0.6,0.1,0.9,0.2
				c0.2,0.1,0.4,0.3,0.6,0.6c0.1,0.3,0.2,0.6,0.2,1v3.1h-0.8v-3.1c0-0.4-0.1-0.7-0.3-0.9s-0.5-0.3-0.8-0.3c-0.2,0-0.5,0.1-0.6,0.2
				c-0.2,0.1-0.3,0.3-0.4,0.5C375,36.7,374.9,37,374.9,37.3z"/>
			<path d="M383.4,35.3l-1.8,4.9h-0.8l-1.8-4.9h0.8l1.4,3.9h0.1l1.4-3.9H383.4z"/>
			<path d="M386.5,40.3c-0.5,0-0.9-0.1-1.2-0.3s-0.6-0.5-0.8-0.9c-0.2-0.4-0.3-0.8-0.3-1.3s0.1-0.9,0.3-1.3c0.2-0.4,0.4-0.7,0.8-0.9
				c0.3-0.2,0.7-0.3,1.2-0.3c0.3,0,0.5,0,0.8,0.1c0.2,0.1,0.5,0.2,0.7,0.4c0.2,0.2,0.4,0.4,0.5,0.8c0.1,0.3,0.2,0.7,0.2,1.2V38h-3.8
				v-0.7h3c0-0.3-0.1-0.5-0.2-0.7s-0.3-0.4-0.5-0.5c-0.2-0.1-0.4-0.2-0.7-0.2c-0.3,0-0.6,0.1-0.8,0.2s-0.4,0.3-0.5,0.6
				c-0.1,0.2-0.2,0.5-0.2,0.8v0.4c0,0.4,0.1,0.7,0.2,0.9s0.3,0.5,0.5,0.6c0.2,0.1,0.5,0.2,0.8,0.2c0.2,0,0.4,0,0.5-0.1
				c0.2-0.1,0.3-0.1,0.4-0.3c0.1-0.1,0.2-0.3,0.3-0.4l0.7,0.2c-0.1,0.2-0.2,0.5-0.4,0.7c-0.2,0.2-0.4,0.3-0.7,0.4
				S386.8,40.3,386.5,40.3z"/>
			<path d="M393.2,36.4l-0.7,0.2c0-0.1-0.1-0.2-0.2-0.3s-0.2-0.2-0.3-0.3s-0.3-0.1-0.5-0.1c-0.3,0-0.5,0.1-0.7,0.2
				c-0.2,0.1-0.3,0.3-0.3,0.5c0,0.2,0.1,0.3,0.2,0.4c0.1,0.1,0.3,0.2,0.6,0.3l0.7,0.2c0.4,0.1,0.8,0.3,1,0.5
				c0.2,0.2,0.3,0.5,0.3,0.8c0,0.3-0.1,0.5-0.2,0.8s-0.4,0.4-0.7,0.5c-0.3,0.1-0.6,0.2-1,0.2c-0.5,0-0.9-0.1-1.2-0.3s-0.5-0.5-0.6-1
				l0.7-0.2c0.1,0.3,0.2,0.5,0.4,0.6c0.2,0.1,0.4,0.2,0.8,0.2c0.4,0,0.6-0.1,0.8-0.2c0.2-0.2,0.3-0.3,0.3-0.5c0-0.2-0.1-0.3-0.2-0.4
				c-0.1-0.1-0.3-0.2-0.5-0.3l-0.8-0.2c-0.5-0.1-0.8-0.3-1-0.5c-0.2-0.2-0.3-0.5-0.3-0.8c0-0.3,0.1-0.5,0.2-0.7s0.4-0.4,0.6-0.5
				c0.3-0.1,0.6-0.2,0.9-0.2c0.5,0,0.9,0.1,1.1,0.3C392.8,35.8,393,36.1,393.2,36.4z"/>
			<path d="M396.5,35.3V36H394v-0.6H396.5z M394.7,34.1h0.8v4.7c0,0.2,0,0.4,0.1,0.5c0.1,0.1,0.1,0.2,0.2,0.2c0.1,0,0.2,0.1,0.3,0.1
				c0.1,0,0.2,0,0.2,0c0.1,0,0.1,0,0.1,0l0.2,0.7c-0.1,0-0.1,0-0.2,0.1c-0.1,0-0.2,0-0.3,0c-0.2,0-0.4,0-0.6-0.1
				c-0.2-0.1-0.4-0.2-0.5-0.4c-0.1-0.2-0.2-0.4-0.2-0.7V34.1z"/>
			<path d="M399.7,40.3c-0.4,0-0.8-0.1-1.2-0.3c-0.3-0.2-0.6-0.5-0.8-0.9c-0.2-0.4-0.3-0.8-0.3-1.3c0-0.5,0.1-1,0.3-1.3
				s0.4-0.7,0.8-0.9c0.3-0.2,0.7-0.3,1.2-0.3s0.8,0.1,1.2,0.3s0.6,0.5,0.8,0.9c0.2,0.4,0.3,0.8,0.3,1.3c0,0.5-0.1,1-0.3,1.3
				c-0.2,0.4-0.4,0.7-0.8,0.9S400.1,40.3,399.7,40.3z M399.7,39.6c0.3,0,0.6-0.1,0.8-0.3c0.2-0.2,0.4-0.4,0.5-0.7s0.2-0.6,0.2-0.9
				c0-0.3-0.1-0.6-0.2-0.9s-0.3-0.5-0.5-0.7c-0.2-0.2-0.5-0.3-0.8-0.3s-0.6,0.1-0.8,0.3c-0.2,0.2-0.4,0.4-0.5,0.7s-0.2,0.6-0.2,0.9
				c0,0.3,0.1,0.6,0.2,0.9s0.3,0.5,0.5,0.7C399,39.6,399.3,39.6,399.7,39.6z"/>
			<path d="M403,40.2v-4.9h0.7v0.7h0.1c0.1-0.2,0.3-0.4,0.5-0.6s0.5-0.2,0.8-0.2c0.1,0,0.1,0,0.2,0c0.1,0,0.1,0,0.2,0V36
				c0,0-0.1,0-0.2,0s-0.2,0-0.3,0c-0.2,0-0.5,0-0.6,0.1s-0.3,0.2-0.4,0.4c-0.1,0.2-0.2,0.4-0.2,0.6v3.1H403z"/>
			<path d="M365.6,46.5h-0.8c0-0.2-0.1-0.4-0.2-0.6c-0.1-0.2-0.3-0.3-0.4-0.4s-0.3-0.2-0.5-0.3c-0.2-0.1-0.4-0.1-0.6-0.1
				c-0.4,0-0.8,0.1-1.1,0.3c-0.3,0.2-0.6,0.5-0.8,0.9c-0.2,0.4-0.3,0.9-0.3,1.4c0,0.6,0.1,1,0.3,1.4c0.2,0.4,0.4,0.7,0.8,0.9
				c0.3,0.2,0.7,0.3,1.1,0.3c0.2,0,0.4,0,0.6-0.1c0.2-0.1,0.4-0.1,0.5-0.3s0.3-0.3,0.4-0.4c0.1-0.2,0.2-0.4,0.2-0.6h0.8
				c-0.1,0.3-0.2,0.6-0.3,0.9c-0.2,0.3-0.4,0.5-0.6,0.7s-0.5,0.3-0.8,0.4c-0.3,0.1-0.6,0.1-0.9,0.1c-0.6,0-1.1-0.1-1.5-0.4
				c-0.4-0.3-0.8-0.7-1-1.2s-0.4-1.1-0.4-1.8c0-0.7,0.1-1.3,0.4-1.8s0.6-0.9,1-1.2c0.4-0.3,0.9-0.4,1.5-0.4c0.3,0,0.6,0,0.9,0.1
				c0.3,0.1,0.6,0.2,0.8,0.4s0.4,0.4,0.6,0.7C365.4,45.9,365.5,46.2,365.6,46.5z"/>
			<path d="M368.8,51.1c-0.4,0-0.8-0.1-1.2-0.3c-0.3-0.2-0.6-0.5-0.8-0.9c-0.2-0.4-0.3-0.8-0.3-1.3c0-0.5,0.1-1,0.3-1.3
				s0.4-0.7,0.8-0.9c0.3-0.2,0.7-0.3,1.2-0.3s0.8,0.1,1.2,0.3c0.3,0.2,0.6,0.5,0.8,0.9s0.3,0.8,0.3,1.3c0,0.5-0.1,1-0.3,1.3
				c-0.2,0.4-0.4,0.7-0.8,0.9C369.6,51,369.2,51.1,368.8,51.1z M368.8,50.4c0.3,0,0.6-0.1,0.8-0.3c0.2-0.2,0.4-0.4,0.5-0.7
				s0.2-0.6,0.2-0.9c0-0.3-0.1-0.6-0.2-0.9s-0.3-0.5-0.5-0.7c-0.2-0.2-0.5-0.3-0.8-0.3s-0.6,0.1-0.8,0.3c-0.2,0.2-0.4,0.4-0.5,0.7
				s-0.2,0.6-0.2,0.9c0,0.3,0.1,0.6,0.2,0.9s0.3,0.5,0.5,0.7C368.2,50.4,368.4,50.4,368.8,50.4z"/>
			<path d="M374,51.1c-0.4,0-0.8-0.1-1.1-0.3c-0.3-0.2-0.6-0.5-0.7-0.9s-0.3-0.8-0.3-1.4c0-0.5,0.1-1,0.3-1.3
				c0.2-0.4,0.4-0.7,0.7-0.9s0.7-0.3,1.1-0.3c0.3,0,0.6,0.1,0.8,0.2s0.3,0.2,0.4,0.4c0.1,0.1,0.2,0.2,0.2,0.3h0.1v-2.4h0.8V51h-0.7
				v-0.8h-0.1c-0.1,0.1-0.1,0.2-0.2,0.3s-0.2,0.3-0.4,0.4C374.6,51.1,374.3,51.1,374,51.1z M374.1,50.4c0.3,0,0.6-0.1,0.8-0.2
				s0.4-0.4,0.5-0.7c0.1-0.3,0.2-0.6,0.2-1c0-0.4-0.1-0.7-0.2-1s-0.3-0.5-0.5-0.6c-0.2-0.2-0.5-0.2-0.8-0.2c-0.3,0-0.6,0.1-0.8,0.2
				c-0.2,0.2-0.4,0.4-0.5,0.7c-0.1,0.3-0.2,0.6-0.2,0.9c0,0.3,0.1,0.7,0.2,1c0.1,0.3,0.3,0.5,0.5,0.7
				C373.5,50.4,373.8,50.4,374.1,50.4z"/>
			<path d="M379.8,51.1c-0.5,0-0.9-0.1-1.2-0.3s-0.6-0.5-0.8-0.9c-0.2-0.4-0.3-0.8-0.3-1.3s0.1-0.9,0.3-1.3c0.2-0.4,0.4-0.7,0.8-0.9
				c0.3-0.2,0.7-0.3,1.2-0.3c0.3,0,0.5,0,0.8,0.1c0.2,0.1,0.5,0.2,0.7,0.4c0.2,0.2,0.4,0.4,0.5,0.8c0.1,0.3,0.2,0.7,0.2,1.2v0.3H378
				v-0.7h3c0-0.3-0.1-0.5-0.2-0.7s-0.3-0.4-0.5-0.5c-0.2-0.1-0.4-0.2-0.7-0.2c-0.3,0-0.6,0.1-0.8,0.2c-0.2,0.1-0.4,0.3-0.5,0.6
				c-0.1,0.2-0.2,0.5-0.2,0.8v0.4c0,0.4,0.1,0.7,0.2,0.9s0.3,0.5,0.5,0.6c0.2,0.1,0.5,0.2,0.8,0.2c0.2,0,0.4,0,0.5-0.1
				c0.2-0.1,0.3-0.1,0.4-0.3c0.1-0.1,0.2-0.3,0.3-0.4l0.7,0.2c-0.1,0.2-0.2,0.5-0.4,0.7c-0.2,0.2-0.4,0.3-0.7,0.4
				S380.1,51.1,379.8,51.1z"/>
		</g>
	</g>
	<g>
		<polygon class="st35" points="541.8,28.4 541.8,28.4 512.2,56.7 422.5,56.7 452.1,28.4 452.1,28.4 422.5,0 512.2,0 		"/>
		<g>
			<path class="st36" d="M552.1,61.5H472c-1.6,0-2.9-1.3-2.9-2.9V26c0-1.6,1.3-2.9,2.9-2.9h80.1c1.6,0,2.9,1.3,2.9,2.9v32.6
				C555,60.2,553.7,61.5,552.1,61.5z"/>
			<path class="st37" d="M552.1,61.5H472c-1.6,0-2.9-1.3-2.9-2.9V26c0-1.6,1.3-2.9,2.9-2.9h80.1c1.6,0,2.9,1.3,2.9,2.9v32.6
				C555,60.2,553.7,61.5,552.1,61.5z"/>
		</g>
		<g>
			<path d="M496.7,40.2v-6.5h2.2c0.5,0,0.9,0.1,1.3,0.3c0.3,0.2,0.6,0.4,0.7,0.7c0.2,0.3,0.2,0.7,0.2,1s-0.1,0.7-0.2,1.1
				s-0.4,0.6-0.7,0.8c-0.3,0.2-0.7,0.3-1.3,0.3h-1.6v-0.7h1.6c0.4,0,0.6-0.1,0.8-0.2c0.2-0.1,0.4-0.3,0.5-0.5
				c0.1-0.2,0.1-0.4,0.1-0.7s0-0.5-0.1-0.7s-0.3-0.4-0.5-0.5c-0.2-0.1-0.5-0.2-0.9-0.2h-1.4v5.8H496.7z"/>
			<path d="M502.3,40.2v-4.9h0.7v0.7h0.1c0.1-0.2,0.3-0.4,0.5-0.6s0.5-0.2,0.8-0.2c0.1,0,0.1,0,0.2,0c0.1,0,0.1,0,0.2,0V36
				c0,0-0.1,0-0.2,0c-0.1,0-0.2,0-0.3,0c-0.2,0-0.5,0-0.6,0.1c-0.2,0.1-0.3,0.2-0.4,0.4c-0.1,0.2-0.2,0.4-0.2,0.6v3.1H502.3z"/>
			<path d="M507.7,40.3c-0.4,0-0.8-0.1-1.2-0.3c-0.3-0.2-0.6-0.5-0.8-0.9s-0.3-0.8-0.3-1.3c0-0.5,0.1-1,0.3-1.3
				c0.2-0.4,0.4-0.7,0.8-0.9c0.3-0.2,0.7-0.3,1.2-0.3s0.8,0.1,1.2,0.3c0.3,0.2,0.6,0.5,0.8,0.9c0.2,0.4,0.3,0.8,0.3,1.3
				c0,0.5-0.1,1-0.3,1.3s-0.4,0.7-0.8,0.9C508.5,40.2,508.1,40.3,507.7,40.3z M507.7,39.6c0.3,0,0.6-0.1,0.8-0.3
				c0.2-0.2,0.4-0.4,0.5-0.7s0.2-0.6,0.2-0.9c0-0.3-0.1-0.6-0.2-0.9s-0.3-0.5-0.5-0.7c-0.2-0.2-0.5-0.3-0.8-0.3s-0.6,0.1-0.8,0.3
				c-0.2,0.2-0.4,0.4-0.5,0.7s-0.2,0.6-0.2,0.9c0,0.3,0.1,0.6,0.2,0.9s0.3,0.5,0.5,0.7C507,39.6,507.3,39.6,507.7,39.6z"/>
			<path d="M515,35.3l-1.8,4.9h-0.8l-1.8-4.9h0.8l1.4,3.9h0.1l1.4-3.9H515z"/>
			<path d="M516.4,34.5c-0.1,0-0.3,0-0.4-0.2c-0.1-0.1-0.2-0.2-0.2-0.4s0.1-0.3,0.2-0.4c0.1-0.1,0.2-0.2,0.4-0.2
				c0.1,0,0.3,0,0.4,0.2c0.1,0.1,0.2,0.2,0.2,0.4s-0.1,0.3-0.2,0.4C516.7,34.4,516.6,34.5,516.4,34.5z M516,40.2v-4.9h0.8v4.9H516z"
				/>
			<path d="M520,40.3c-0.4,0-0.8-0.1-1.1-0.3c-0.3-0.2-0.6-0.5-0.7-0.9c-0.2-0.4-0.3-0.8-0.3-1.4c0-0.5,0.1-1,0.3-1.3
				s0.4-0.7,0.7-0.9c0.3-0.2,0.7-0.3,1.1-0.3c0.3,0,0.6,0.1,0.8,0.2s0.3,0.2,0.4,0.4c0.1,0.1,0.2,0.2,0.2,0.3h0.1v-2.4h0.8v6.5h-0.7
				v-0.8h-0.1c-0.1,0.1-0.1,0.2-0.2,0.3c-0.1,0.1-0.2,0.3-0.4,0.4S520.3,40.3,520,40.3z M520.1,39.6c0.3,0,0.6-0.1,0.8-0.2
				c0.2-0.2,0.4-0.4,0.5-0.7c0.1-0.3,0.2-0.6,0.2-1c0-0.4-0.1-0.7-0.2-1c-0.1-0.3-0.3-0.5-0.5-0.6c-0.2-0.2-0.5-0.2-0.8-0.2
				c-0.3,0-0.6,0.1-0.8,0.2c-0.2,0.2-0.4,0.4-0.5,0.7s-0.2,0.6-0.2,0.9c0,0.3,0.1,0.7,0.2,1s0.3,0.5,0.5,0.7
				C519.6,39.6,519.8,39.6,520.1,39.6z"/>
			<path d="M525.8,40.3c-0.5,0-0.9-0.1-1.2-0.3s-0.6-0.5-0.8-0.9c-0.2-0.4-0.3-0.8-0.3-1.3s0.1-0.9,0.3-1.3c0.2-0.4,0.4-0.7,0.8-0.9
				c0.3-0.2,0.7-0.3,1.2-0.3c0.3,0,0.5,0,0.8,0.1c0.2,0.1,0.5,0.2,0.7,0.4c0.2,0.2,0.4,0.4,0.5,0.8c0.1,0.3,0.2,0.7,0.2,1.2V38h-3.8
				v-0.7h3c0-0.3-0.1-0.5-0.2-0.7c-0.1-0.2-0.3-0.4-0.5-0.5c-0.2-0.1-0.4-0.2-0.7-0.2c-0.3,0-0.6,0.1-0.8,0.2
				c-0.2,0.1-0.4,0.3-0.5,0.6c-0.1,0.2-0.2,0.5-0.2,0.8v0.4c0,0.4,0.1,0.7,0.2,0.9s0.3,0.5,0.5,0.6s0.5,0.2,0.8,0.2
				c0.2,0,0.4,0,0.5-0.1s0.3-0.1,0.4-0.3s0.2-0.3,0.3-0.4l0.7,0.2c-0.1,0.2-0.2,0.5-0.4,0.7c-0.2,0.2-0.4,0.3-0.7,0.4
				S526.2,40.3,525.8,40.3z"/>
			<path d="M496.6,51h-0.8l2.4-6.5h0.8l2.4,6.5h-0.8l-2-5.5h-0.1L496.6,51z M497,48.5h3.3v0.7H497V48.5z"/>
			<path d="M502.4,51v-4.9h0.7v0.8h0.1c0.1-0.3,0.3-0.5,0.5-0.6c0.2-0.1,0.5-0.2,0.8-0.2c0.3,0,0.6,0.1,0.8,0.2
				c0.2,0.1,0.4,0.3,0.5,0.6h0.1c0.1-0.3,0.3-0.5,0.6-0.6c0.3-0.2,0.6-0.2,0.9-0.2c0.4,0,0.8,0.1,1.1,0.4s0.4,0.7,0.4,1.3V51h-0.8
				v-3.3c0-0.4-0.1-0.6-0.3-0.8s-0.4-0.2-0.7-0.2c-0.3,0-0.6,0.1-0.8,0.3c-0.2,0.2-0.3,0.5-0.3,0.8V51h-0.8v-3.4
				c0-0.3-0.1-0.5-0.3-0.7c-0.2-0.2-0.4-0.3-0.7-0.3c-0.2,0-0.4,0.1-0.5,0.2c-0.2,0.1-0.3,0.2-0.4,0.4s-0.2,0.4-0.2,0.6V51H502.4z"
				/>
			<path d="M512.2,51.1c-0.4,0-0.8-0.1-1.2-0.3c-0.3-0.2-0.6-0.5-0.8-0.9s-0.3-0.8-0.3-1.3c0-0.5,0.1-1,0.3-1.3
				c0.2-0.4,0.4-0.7,0.8-0.9c0.3-0.2,0.7-0.3,1.2-0.3c0.4,0,0.8,0.1,1.2,0.3c0.3,0.2,0.6,0.5,0.8,0.9c0.2,0.4,0.3,0.8,0.3,1.3
				c0,0.5-0.1,1-0.3,1.3s-0.4,0.7-0.8,0.9C513,51,512.6,51.1,512.2,51.1z M512.2,50.4c0.3,0,0.6-0.1,0.8-0.3
				c0.2-0.2,0.4-0.4,0.5-0.7s0.2-0.6,0.2-0.9c0-0.3-0.1-0.6-0.2-0.9s-0.3-0.5-0.5-0.7c-0.2-0.2-0.5-0.3-0.8-0.3
				c-0.3,0-0.6,0.1-0.8,0.3c-0.2,0.2-0.4,0.4-0.5,0.7s-0.2,0.6-0.2,0.9c0,0.3,0.1,0.6,0.2,0.9s0.3,0.5,0.5,0.7
				C511.6,50.4,511.8,50.4,512.2,50.4z"/>
			<path d="M518.7,49v-2.9h0.8V51h-0.8v-0.8h-0.1c-0.1,0.2-0.3,0.5-0.5,0.6c-0.2,0.2-0.5,0.3-0.9,0.3c-0.3,0-0.6-0.1-0.8-0.2
				c-0.2-0.1-0.4-0.3-0.6-0.6s-0.2-0.6-0.2-1v-3.1h0.8v3.1c0,0.4,0.1,0.6,0.3,0.9s0.5,0.3,0.8,0.3c0.2,0,0.4,0,0.6-0.1
				s0.4-0.2,0.5-0.4S518.7,49.3,518.7,49z"/>
			<path d="M521.5,48.1v3h-0.8v-4.9h0.7v0.8h0.1c0.1-0.2,0.3-0.5,0.5-0.6s0.5-0.2,0.9-0.2c0.3,0,0.6,0.1,0.9,0.2
				c0.2,0.1,0.4,0.3,0.6,0.6c0.1,0.3,0.2,0.6,0.2,1V51h-0.8V48c0-0.4-0.1-0.7-0.3-0.9c-0.2-0.2-0.5-0.3-0.8-0.3
				c-0.2,0-0.5,0.1-0.6,0.2c-0.2,0.1-0.3,0.3-0.4,0.5S521.5,47.8,521.5,48.1z"/>
			<path d="M528.2,46.1v0.6h-2.5v-0.6H528.2z M526.4,44.9h0.8v4.7c0,0.2,0,0.4,0.1,0.5c0.1,0.1,0.1,0.2,0.2,0.2
				c0.1,0,0.2,0.1,0.3,0.1c0.1,0,0.2,0,0.2,0c0.1,0,0.1,0,0.1,0l0.2,0.7c-0.1,0-0.1,0-0.2,0.1c-0.1,0-0.2,0-0.3,0
				c-0.2,0-0.4,0-0.6-0.1c-0.2-0.1-0.4-0.2-0.5-0.4c-0.1-0.2-0.2-0.4-0.2-0.7V44.9z"/>
		</g>
	</g>
	<g>
		<polygon class="st38" points="682.6,28.4 682.6,28.4 653,56.8 563.3,56.8 592.9,28.4 592.9,28.4 563.3,0.1 653,0.1 		"/>
		<g>
			<path class="st36" d="M692.9,61.5h-80.1c-1.6,0-2.9-1.3-2.9-2.9V26c0-1.6,1.3-2.9,2.9-2.9h80.1c1.6,0,2.9,1.3,2.9,2.9v32.6
				C695.8,60.2,694.5,61.5,692.9,61.5z"/>
			<path class="st37" d="M692.9,61.5h-80.1c-1.6,0-2.9-1.3-2.9-2.9V26c0-1.6,1.3-2.9,2.9-2.9h80.1c1.6,0,2.9,1.3,2.9,2.9v32.6
				C695.8,60.2,694.5,61.5,692.9,61.5z"/>
		</g>
		<g>
			<path d="M630.2,39.3v-6.5h2.2c0.5,0,0.9,0.1,1.3,0.3s0.6,0.4,0.7,0.7c0.2,0.3,0.2,0.7,0.2,1c0,0.4-0.1,0.7-0.2,1.1
				s-0.4,0.6-0.7,0.8c-0.3,0.2-0.7,0.3-1.3,0.3h-1.6v-0.7h1.6c0.4,0,0.6-0.1,0.8-0.2c0.2-0.1,0.4-0.3,0.5-0.5s0.1-0.4,0.1-0.7
				c0-0.3,0-0.5-0.1-0.7c-0.1-0.2-0.3-0.4-0.5-0.5c-0.2-0.1-0.5-0.2-0.9-0.2h-1.4v5.8H630.2z"/>
			<path d="M635.8,39.3v-4.9h0.7v0.7h0.1c0.1-0.2,0.3-0.4,0.5-0.6s0.5-0.2,0.8-0.2c0.1,0,0.1,0,0.2,0s0.1,0,0.2,0V35
				c0,0-0.1,0-0.2,0c-0.1,0-0.2,0-0.3,0c-0.2,0-0.5,0-0.6,0.1c-0.2,0.1-0.3,0.2-0.4,0.4s-0.2,0.4-0.2,0.6v3.1H635.8z"/>
			<path d="M641.1,39.4c-0.4,0-0.8-0.1-1.2-0.3c-0.3-0.2-0.6-0.5-0.8-0.9c-0.2-0.4-0.3-0.8-0.3-1.3c0-0.5,0.1-1,0.3-1.3
				c0.2-0.4,0.4-0.7,0.8-0.9c0.3-0.2,0.7-0.3,1.2-0.3s0.8,0.1,1.2,0.3c0.3,0.2,0.6,0.5,0.8,0.9c0.2,0.4,0.3,0.8,0.3,1.3
				c0,0.5-0.1,1-0.3,1.3c-0.2,0.4-0.4,0.7-0.8,0.9C641.9,39.2,641.6,39.4,641.1,39.4z M641.1,38.7c0.3,0,0.6-0.1,0.8-0.3
				c0.2-0.2,0.4-0.4,0.5-0.7s0.2-0.6,0.2-0.9s-0.1-0.6-0.2-0.9s-0.3-0.5-0.5-0.7c-0.2-0.2-0.5-0.3-0.8-0.3s-0.6,0.1-0.8,0.3
				c-0.2,0.2-0.4,0.4-0.5,0.7s-0.2,0.6-0.2,0.9s0.1,0.6,0.2,0.9s0.3,0.5,0.5,0.7C640.5,38.6,640.8,38.7,641.1,38.7z"/>
			<path d="M646.5,39.4c-0.5,0-0.9-0.1-1.2-0.3c-0.3-0.2-0.6-0.5-0.8-0.9c-0.2-0.4-0.3-0.8-0.3-1.3c0-0.5,0.1-0.9,0.3-1.3
				c0.2-0.4,0.4-0.7,0.8-0.9c0.3-0.2,0.7-0.3,1.2-0.3c0.3,0,0.7,0.1,0.9,0.2c0.3,0.1,0.5,0.3,0.7,0.5c0.2,0.2,0.3,0.5,0.3,0.8h-0.8
				c-0.1-0.2-0.2-0.4-0.4-0.6c-0.2-0.2-0.5-0.3-0.8-0.3c-0.3,0-0.6,0.1-0.8,0.2c-0.2,0.2-0.4,0.4-0.5,0.6c-0.1,0.3-0.2,0.6-0.2,1
				c0,0.4,0.1,0.7,0.2,1c0.1,0.3,0.3,0.5,0.5,0.7c0.2,0.2,0.5,0.2,0.8,0.2c0.2,0,0.4,0,0.5-0.1c0.2-0.1,0.3-0.2,0.4-0.3
				s0.2-0.3,0.2-0.5h0.8c0,0.3-0.1,0.6-0.3,0.8c-0.2,0.2-0.4,0.4-0.7,0.5C647.2,39.3,646.8,39.4,646.5,39.4z"/>
			<path d="M651.6,39.4c-0.5,0-0.9-0.1-1.2-0.3s-0.6-0.5-0.8-0.9c-0.2-0.4-0.3-0.8-0.3-1.3s0.1-0.9,0.3-1.3c0.2-0.4,0.4-0.7,0.8-0.9
				c0.3-0.2,0.7-0.3,1.2-0.3c0.3,0,0.5,0,0.8,0.1s0.5,0.2,0.7,0.4c0.2,0.2,0.4,0.4,0.5,0.8c0.1,0.3,0.2,0.7,0.2,1.2v0.3h-3.8v-0.7h3
				c0-0.3-0.1-0.5-0.2-0.7c-0.1-0.2-0.3-0.4-0.5-0.5c-0.2-0.1-0.4-0.2-0.7-0.2c-0.3,0-0.6,0.1-0.8,0.2c-0.2,0.1-0.4,0.3-0.5,0.6
				s-0.2,0.5-0.2,0.8V37c0,0.4,0.1,0.7,0.2,0.9s0.3,0.5,0.5,0.6c0.2,0.1,0.5,0.2,0.8,0.2c0.2,0,0.4,0,0.5-0.1
				c0.2-0.1,0.3-0.1,0.4-0.3c0.1-0.1,0.2-0.3,0.3-0.4l0.7,0.2c-0.1,0.2-0.2,0.5-0.4,0.7c-0.2,0.2-0.4,0.3-0.7,0.4
				C652.2,39.3,651.9,39.4,651.6,39.4z"/>
			<path d="M656.8,39.4c-0.5,0-0.9-0.1-1.2-0.3c-0.3-0.2-0.6-0.5-0.8-0.9c-0.2-0.4-0.3-0.8-0.3-1.3s0.1-0.9,0.3-1.3s0.4-0.7,0.8-0.9
				c0.3-0.2,0.7-0.3,1.2-0.3c0.3,0,0.5,0,0.8,0.1c0.2,0.1,0.5,0.2,0.7,0.4c0.2,0.2,0.4,0.4,0.5,0.8c0.1,0.3,0.2,0.7,0.2,1.2v0.3
				h-3.8v-0.7h3c0-0.3-0.1-0.5-0.2-0.7c-0.1-0.2-0.3-0.4-0.5-0.5S657,35,656.7,35c-0.3,0-0.6,0.1-0.8,0.2c-0.2,0.1-0.4,0.3-0.5,0.6
				s-0.2,0.5-0.2,0.8V37c0,0.4,0.1,0.7,0.2,0.9s0.3,0.5,0.5,0.6c0.2,0.1,0.5,0.2,0.8,0.2c0.2,0,0.4,0,0.5-0.1
				c0.2-0.1,0.3-0.1,0.4-0.3c0.1-0.1,0.2-0.3,0.3-0.4l0.7,0.2c-0.1,0.2-0.2,0.5-0.4,0.7c-0.2,0.2-0.4,0.3-0.7,0.4
				S657.1,39.4,656.8,39.4z"/>
			<path d="M661.8,39.4c-0.4,0-0.8-0.1-1.1-0.3c-0.3-0.2-0.6-0.5-0.7-0.9c-0.2-0.4-0.3-0.8-0.3-1.4c0-0.5,0.1-1,0.3-1.3
				c0.2-0.4,0.4-0.7,0.7-0.9c0.3-0.2,0.7-0.3,1.1-0.3c0.3,0,0.6,0.1,0.8,0.2c0.2,0.1,0.3,0.2,0.4,0.4c0.1,0.1,0.2,0.2,0.2,0.3h0.1
				v-2.4h0.8v6.5h-0.7v-0.8h-0.1c-0.1,0.1-0.1,0.2-0.2,0.3c-0.1,0.1-0.2,0.3-0.4,0.4S662.2,39.4,661.8,39.4z M661.9,38.7
				c0.3,0,0.6-0.1,0.8-0.2c0.2-0.2,0.4-0.4,0.5-0.7s0.2-0.6,0.2-1c0-0.4-0.1-0.7-0.2-1c-0.1-0.3-0.3-0.5-0.5-0.6s-0.5-0.2-0.8-0.2
				c-0.3,0-0.6,0.1-0.8,0.2c-0.2,0.2-0.4,0.4-0.5,0.7c-0.1,0.3-0.2,0.6-0.2,0.9c0,0.3,0.1,0.7,0.2,1c0.1,0.3,0.3,0.5,0.5,0.7
				C661.4,38.6,661.6,38.7,661.9,38.7z"/>
			<path d="M670.2,34.3V35h-2.5v-0.6H670.2z M668.4,33.2h0.8v4.7c0,0.2,0,0.4,0.1,0.5c0.1,0.1,0.1,0.2,0.2,0.2
				c0.1,0,0.2,0.1,0.3,0.1c0.1,0,0.2,0,0.2,0c0.1,0,0.1,0,0.1,0l0.2,0.7c-0.1,0-0.1,0-0.2,0.1c-0.1,0-0.2,0-0.3,0
				c-0.2,0-0.4,0-0.6-0.1s-0.4-0.2-0.5-0.4c-0.1-0.2-0.2-0.4-0.2-0.7V33.2z"/>
			<path d="M673.4,39.4c-0.4,0-0.8-0.1-1.2-0.3c-0.3-0.2-0.6-0.5-0.8-0.9c-0.2-0.4-0.3-0.8-0.3-1.3c0-0.5,0.1-1,0.3-1.3
				c0.2-0.4,0.4-0.7,0.8-0.9c0.3-0.2,0.7-0.3,1.2-0.3s0.8,0.1,1.2,0.3s0.6,0.5,0.8,0.9c0.2,0.4,0.3,0.8,0.3,1.3c0,0.5-0.1,1-0.3,1.3
				c-0.2,0.4-0.4,0.7-0.8,0.9S673.8,39.4,673.4,39.4z M673.4,38.7c0.3,0,0.6-0.1,0.8-0.3s0.4-0.4,0.5-0.7s0.2-0.6,0.2-0.9
				s-0.1-0.6-0.2-0.9s-0.3-0.5-0.5-0.7s-0.5-0.3-0.8-0.3s-0.6,0.1-0.8,0.3c-0.2,0.2-0.4,0.4-0.5,0.7s-0.2,0.6-0.2,0.9
				s0.1,0.6,0.2,0.9s0.3,0.5,0.5,0.7C672.8,38.6,673,38.7,673.4,38.7z"/>
			<path d="M634.8,50.1v-6.5h2.2c0.5,0,0.9,0.1,1.3,0.3s0.6,0.4,0.7,0.7c0.2,0.3,0.2,0.7,0.2,1c0,0.4-0.1,0.7-0.2,1.1
				c-0.2,0.3-0.4,0.6-0.7,0.8s-0.7,0.3-1.3,0.3h-1.6V47h1.6c0.4,0,0.6-0.1,0.8-0.2c0.2-0.1,0.4-0.3,0.5-0.5c0.1-0.2,0.1-0.4,0.1-0.7
				c0-0.3,0-0.5-0.1-0.7c-0.1-0.2-0.3-0.4-0.5-0.5s-0.5-0.2-0.9-0.2h-1.4v5.8H634.8z"/>
			<path d="M641.9,50.2c-0.3,0-0.6-0.1-0.8-0.2c-0.3-0.1-0.5-0.3-0.6-0.5c-0.1-0.2-0.2-0.5-0.2-0.8c0-0.3,0.1-0.5,0.2-0.7
				c0.1-0.2,0.3-0.3,0.4-0.4c0.2-0.1,0.4-0.2,0.6-0.2c0.2,0,0.5-0.1,0.7-0.1c0.3,0,0.5-0.1,0.7-0.1s0.3-0.1,0.4-0.1
				c0.1,0,0.1-0.1,0.1-0.3v0c0-0.3-0.1-0.6-0.3-0.7c-0.2-0.2-0.4-0.3-0.8-0.3c-0.4,0-0.6,0.1-0.8,0.2c-0.2,0.2-0.3,0.3-0.4,0.5
				l-0.7-0.3c0.1-0.3,0.3-0.5,0.5-0.7s0.4-0.3,0.7-0.4c0.3-0.1,0.5-0.1,0.8-0.1c0.2,0,0.3,0,0.5,0.1c0.2,0,0.4,0.1,0.6,0.2
				c0.2,0.1,0.4,0.3,0.5,0.5c0.1,0.2,0.2,0.5,0.2,0.9v3.2h-0.8v-0.7h0c-0.1,0.1-0.1,0.2-0.3,0.3c-0.1,0.1-0.3,0.2-0.5,0.3
				S642.1,50.2,641.9,50.2z M642,49.5c0.3,0,0.6-0.1,0.8-0.2c0.2-0.1,0.4-0.3,0.5-0.5c0.1-0.2,0.2-0.4,0.2-0.6v-0.7
				c0,0-0.1,0.1-0.2,0.1s-0.2,0.1-0.4,0.1s-0.3,0-0.4,0.1c-0.1,0-0.2,0-0.3,0c-0.2,0-0.4,0.1-0.5,0.1c-0.2,0.1-0.3,0.1-0.4,0.3
				c-0.1,0.1-0.2,0.3-0.2,0.5c0,0.3,0.1,0.5,0.3,0.6C641.4,49.4,641.7,49.5,642,49.5z"/>
			<path d="M646,51.9c-0.1,0-0.2,0-0.3,0c-0.1,0-0.2,0-0.2-0.1l0.2-0.7c0.2,0,0.3,0.1,0.5,0.1s0.3-0.1,0.4-0.2
				c0.1-0.1,0.2-0.3,0.3-0.5l0.1-0.4l-1.8-4.9h0.8l1.4,3.9h0.1l1.4-3.9h0.8l-2.1,5.6c-0.1,0.3-0.2,0.5-0.3,0.6
				c-0.1,0.2-0.3,0.3-0.5,0.4C646.4,51.9,646.2,51.9,646,51.9z"/>
			<path d="M650.5,50.1v-4.9h0.7v0.8h0.1c0.1-0.3,0.3-0.5,0.5-0.6c0.2-0.1,0.5-0.2,0.8-0.2c0.3,0,0.6,0.1,0.8,0.2
				c0.2,0.1,0.4,0.3,0.5,0.6h0.1c0.1-0.3,0.3-0.5,0.6-0.6c0.3-0.2,0.6-0.2,0.9-0.2c0.4,0,0.8,0.1,1.1,0.4c0.3,0.3,0.4,0.7,0.4,1.3
				v3.3h-0.8v-3.3c0-0.4-0.1-0.6-0.3-0.8c-0.2-0.2-0.4-0.2-0.7-0.2c-0.3,0-0.6,0.1-0.8,0.3c-0.2,0.2-0.3,0.5-0.3,0.8v3.2h-0.8v-3.4
				c0-0.3-0.1-0.5-0.3-0.7c-0.2-0.2-0.4-0.3-0.7-0.3c-0.2,0-0.4,0.1-0.5,0.2c-0.2,0.1-0.3,0.2-0.4,0.4c-0.1,0.2-0.2,0.4-0.2,0.6v3.1
				H650.5z"/>
			<path d="M660.4,50.2c-0.5,0-0.9-0.1-1.2-0.3s-0.6-0.5-0.8-0.9c-0.2-0.4-0.3-0.8-0.3-1.3s0.1-0.9,0.3-1.3c0.2-0.4,0.4-0.7,0.8-0.9
				c0.3-0.2,0.7-0.3,1.2-0.3c0.3,0,0.5,0,0.8,0.1s0.5,0.2,0.7,0.4c0.2,0.2,0.4,0.4,0.5,0.8c0.1,0.3,0.2,0.7,0.2,1.2v0.3h-3.8v-0.7h3
				c0-0.3-0.1-0.5-0.2-0.7c-0.1-0.2-0.3-0.4-0.5-0.5c-0.2-0.1-0.4-0.2-0.7-0.2c-0.3,0-0.6,0.1-0.8,0.2c-0.2,0.1-0.4,0.3-0.5,0.6
				s-0.2,0.5-0.2,0.8v0.4c0,0.4,0.1,0.7,0.2,0.9s0.3,0.5,0.5,0.6c0.2,0.1,0.5,0.2,0.8,0.2c0.2,0,0.4,0,0.5-0.1
				c0.2-0.1,0.3-0.1,0.4-0.3c0.1-0.1,0.2-0.3,0.3-0.4l0.7,0.2c-0.1,0.2-0.2,0.5-0.4,0.7s-0.4,0.3-0.7,0.4
				C661,50.1,660.7,50.2,660.4,50.2z"/>
			<path d="M664.3,47.1v3h-0.8v-4.9h0.7v0.8h0.1c0.1-0.2,0.3-0.5,0.5-0.6s0.5-0.2,0.9-0.2c0.3,0,0.6,0.1,0.9,0.2
				c0.2,0.1,0.4,0.3,0.6,0.6s0.2,0.6,0.2,1v3.1h-0.8V47c0-0.4-0.1-0.7-0.3-0.9c-0.2-0.2-0.5-0.3-0.8-0.3c-0.2,0-0.5,0.1-0.6,0.2
				s-0.3,0.3-0.4,0.5S664.3,46.8,664.3,47.1z"/>
			<path d="M671,45.1v0.6h-2.5v-0.6H671z M669.2,44h0.8v4.7c0,0.2,0,0.4,0.1,0.5c0.1,0.1,0.1,0.2,0.2,0.2c0.1,0,0.2,0.1,0.3,0.1
				c0.1,0,0.2,0,0.2,0c0.1,0,0.1,0,0.1,0l0.2,0.7c-0.1,0-0.1,0-0.2,0.1c-0.1,0-0.2,0-0.3,0c-0.2,0-0.4,0-0.6-0.1s-0.4-0.2-0.5-0.4
				c-0.1-0.2-0.2-0.4-0.2-0.7V44z"/>
		</g>
	</g>
	<g>
		<polygon class="st32" points="823.5,28.4 823.5,28.4 793.9,56.7 704.2,56.7 733.8,28.4 733.8,28.4 704.2,0 793.9,0 		"/>
		<g>
			<path class="st36" d="M833.8,61.5h-80.1c-1.6,0-2.9-1.3-2.9-2.9V26c0-1.6,1.3-2.9,2.9-2.9h80.1c1.6,0,2.9,1.3,2.9,2.9v32.6
				C836.7,60.2,835.4,61.5,833.8,61.5z"/>
			<path class="st37" d="M833.8,61.5h-80.1c-1.6,0-2.9-1.3-2.9-2.9V26c0-1.6,1.3-2.9,2.9-2.9h80.1c1.6,0,2.9,1.3,2.9,2.9v32.6
				C836.7,60.2,835.4,61.5,833.8,61.5z"/>
		</g>
		<g>
			<path d="M764.7,29.9c0-0.3-0.2-0.6-0.5-0.8c-0.3-0.2-0.6-0.3-1-0.3c-0.3,0-0.5,0-0.8,0.1s-0.4,0.2-0.5,0.4
				c-0.1,0.2-0.2,0.4-0.2,0.6c0,0.2,0,0.3,0.1,0.4c0.1,0.1,0.2,0.2,0.3,0.3c0.1,0.1,0.3,0.1,0.4,0.2c0.1,0.1,0.3,0.1,0.4,0.1
				l0.7,0.2c0.2,0,0.4,0.1,0.6,0.2c0.2,0.1,0.4,0.2,0.6,0.3c0.2,0.1,0.4,0.3,0.5,0.5c0.1,0.2,0.2,0.5,0.2,0.8c0,0.4-0.1,0.7-0.3,1
				c-0.2,0.3-0.5,0.5-0.8,0.7c-0.4,0.2-0.8,0.3-1.3,0.3c-0.5,0-0.9-0.1-1.2-0.2c-0.3-0.2-0.6-0.4-0.8-0.6c-0.2-0.3-0.3-0.6-0.3-0.9
				h0.8c0,0.2,0.1,0.5,0.3,0.6s0.3,0.3,0.6,0.4c0.2,0.1,0.5,0.1,0.7,0.1c0.3,0,0.6,0,0.8-0.1c0.2-0.1,0.4-0.2,0.6-0.4
				c0.1-0.2,0.2-0.4,0.2-0.6c0-0.2-0.1-0.4-0.2-0.5c-0.1-0.1-0.3-0.2-0.5-0.3c-0.2-0.1-0.4-0.2-0.6-0.2l-0.8-0.2
				c-0.5-0.1-0.9-0.4-1.2-0.6c-0.3-0.3-0.4-0.6-0.4-1.1c0-0.4,0.1-0.7,0.3-1c0.2-0.3,0.5-0.5,0.8-0.6c0.3-0.2,0.7-0.2,1.1-0.2
				c0.4,0,0.8,0.1,1.1,0.2s0.6,0.4,0.8,0.6s0.3,0.6,0.3,0.9H764.7z"/>
			<path d="M768.8,34.9c-0.5,0-0.9-0.1-1.2-0.3c-0.3-0.2-0.6-0.5-0.8-0.9c-0.2-0.4-0.3-0.8-0.3-1.3s0.1-0.9,0.3-1.3
				c0.2-0.4,0.4-0.7,0.8-0.9c0.3-0.2,0.7-0.3,1.2-0.3c0.3,0,0.5,0,0.8,0.1c0.2,0.1,0.5,0.2,0.7,0.4c0.2,0.2,0.4,0.4,0.5,0.8
				c0.1,0.3,0.2,0.7,0.2,1.2v0.3h-3.8v-0.7h3c0-0.3-0.1-0.5-0.2-0.7c-0.1-0.2-0.3-0.4-0.5-0.5c-0.2-0.1-0.4-0.2-0.7-0.2
				c-0.3,0-0.6,0.1-0.8,0.2c-0.2,0.1-0.4,0.3-0.5,0.6s-0.2,0.5-0.2,0.8v0.4c0,0.4,0.1,0.7,0.2,0.9s0.3,0.5,0.5,0.6
				c0.2,0.1,0.5,0.2,0.8,0.2c0.2,0,0.4,0,0.5-0.1c0.2-0.1,0.3-0.1,0.4-0.3c0.1-0.1,0.2-0.3,0.3-0.4l0.7,0.2
				c-0.1,0.2-0.2,0.5-0.4,0.7s-0.4,0.3-0.7,0.4C769.5,34.8,769.2,34.9,768.8,34.9z"/>
			<path d="M772.8,28.2v6.5H772v-6.5H772.8z"/>
			<path d="M776.2,34.9c-0.5,0-0.9-0.1-1.2-0.3s-0.6-0.5-0.8-0.9c-0.2-0.4-0.3-0.8-0.3-1.3s0.1-0.9,0.3-1.3c0.2-0.4,0.4-0.7,0.8-0.9
				c0.3-0.2,0.7-0.3,1.2-0.3c0.3,0,0.5,0,0.8,0.1s0.5,0.2,0.7,0.4c0.2,0.2,0.4,0.4,0.5,0.8c0.1,0.3,0.2,0.7,0.2,1.2v0.3h-3.8v-0.7h3
				c0-0.3-0.1-0.5-0.2-0.7c-0.1-0.2-0.3-0.4-0.5-0.5c-0.2-0.1-0.4-0.2-0.7-0.2c-0.3,0-0.6,0.1-0.8,0.2c-0.2,0.1-0.4,0.3-0.5,0.6
				s-0.2,0.5-0.2,0.8v0.4c0,0.4,0.1,0.7,0.2,0.9s0.3,0.5,0.5,0.6c0.2,0.1,0.5,0.2,0.8,0.2c0.2,0,0.4,0,0.5-0.1
				c0.2-0.1,0.3-0.1,0.4-0.3c0.1-0.1,0.2-0.3,0.3-0.4l0.7,0.2c-0.1,0.2-0.2,0.5-0.4,0.7c-0.2,0.2-0.4,0.3-0.7,0.4
				C776.8,34.8,776.5,34.9,776.2,34.9z"/>
			<path d="M781.4,34.9c-0.5,0-0.9-0.1-1.2-0.3c-0.3-0.2-0.6-0.5-0.8-0.9c-0.2-0.4-0.3-0.8-0.3-1.3c0-0.5,0.1-0.9,0.3-1.3
				c0.2-0.4,0.4-0.7,0.8-0.9c0.3-0.2,0.7-0.3,1.2-0.3c0.3,0,0.7,0.1,0.9,0.2c0.3,0.1,0.5,0.3,0.7,0.5c0.2,0.2,0.3,0.5,0.3,0.8h-0.8
				c-0.1-0.2-0.2-0.4-0.4-0.6c-0.2-0.2-0.5-0.3-0.8-0.3c-0.3,0-0.6,0.1-0.8,0.2c-0.2,0.2-0.4,0.4-0.5,0.6c-0.1,0.3-0.2,0.6-0.2,1
				c0,0.4,0.1,0.7,0.2,1c0.1,0.3,0.3,0.5,0.5,0.7c0.2,0.2,0.5,0.2,0.8,0.2c0.2,0,0.4,0,0.5-0.1c0.2-0.1,0.3-0.2,0.4-0.3
				s0.2-0.3,0.2-0.5h0.8c0,0.3-0.1,0.6-0.3,0.8c-0.2,0.2-0.4,0.4-0.7,0.5C782.1,34.8,781.7,34.9,781.4,34.9z"/>
			<path d="M786.5,29.9v0.6H784v-0.6H786.5z M784.7,28.7h0.8v4.7c0,0.2,0,0.4,0.1,0.5c0.1,0.1,0.1,0.2,0.2,0.2
				c0.1,0,0.2,0.1,0.3,0.1c0.1,0,0.2,0,0.2,0c0.1,0,0.1,0,0.1,0l0.2,0.7c-0.1,0-0.1,0-0.2,0.1c-0.1,0-0.2,0-0.3,0
				c-0.2,0-0.4,0-0.6-0.1s-0.4-0.2-0.5-0.4s-0.2-0.4-0.2-0.7V28.7z"/>
			<path d="M790.3,34.8v-6.5h2.2c0.5,0,0.9,0.1,1.3,0.3s0.6,0.4,0.7,0.7c0.2,0.3,0.2,0.7,0.2,1c0,0.4-0.1,0.7-0.2,1.1
				s-0.4,0.6-0.7,0.8c-0.3,0.2-0.7,0.3-1.3,0.3H791v-0.7h1.6c0.4,0,0.6-0.1,0.8-0.2c0.2-0.1,0.4-0.3,0.5-0.5s0.1-0.4,0.1-0.7
				c0-0.3,0-0.5-0.1-0.7c-0.1-0.2-0.3-0.4-0.5-0.5c-0.2-0.1-0.5-0.2-0.9-0.2h-1.4v5.8H790.3z"/>
			<path d="M797.4,34.9c-0.3,0-0.6-0.1-0.8-0.2c-0.3-0.1-0.5-0.3-0.6-0.5c-0.1-0.2-0.2-0.5-0.2-0.8c0-0.3,0.1-0.5,0.2-0.7
				c0.1-0.2,0.3-0.3,0.4-0.4c0.2-0.1,0.4-0.2,0.6-0.2s0.5-0.1,0.7-0.1c0.3,0,0.5-0.1,0.7-0.1s0.3-0.1,0.4-0.1s0.1-0.1,0.1-0.3v0
				c0-0.3-0.1-0.6-0.3-0.7s-0.4-0.3-0.8-0.3c-0.4,0-0.6,0.1-0.8,0.2c-0.2,0.2-0.3,0.3-0.4,0.5l-0.7-0.3c0.1-0.3,0.3-0.5,0.5-0.7
				c0.2-0.2,0.4-0.3,0.7-0.4c0.3-0.1,0.5-0.1,0.8-0.1c0.2,0,0.3,0,0.5,0.1s0.4,0.1,0.6,0.2s0.4,0.3,0.5,0.5c0.1,0.2,0.2,0.5,0.2,0.9
				v3.2h-0.8v-0.7h0c-0.1,0.1-0.1,0.2-0.3,0.3c-0.1,0.1-0.3,0.2-0.5,0.3S797.7,34.9,797.4,34.9z M797.5,34.2c0.3,0,0.5-0.1,0.8-0.2
				c0.2-0.1,0.4-0.3,0.5-0.5c0.1-0.2,0.2-0.4,0.2-0.6v-0.7c0,0-0.1,0.1-0.2,0.1s-0.2,0.1-0.4,0.1c-0.1,0-0.3,0-0.4,0.1
				c-0.1,0-0.2,0-0.3,0c-0.2,0-0.4,0.1-0.5,0.1s-0.3,0.1-0.4,0.3c-0.1,0.1-0.2,0.3-0.2,0.5c0,0.3,0.1,0.5,0.3,0.6
				C796.9,34.1,797.2,34.2,797.5,34.2z"/>
			<path d="M801.5,36.6c-0.1,0-0.2,0-0.3,0c-0.1,0-0.2,0-0.2-0.1l0.2-0.7c0.2,0,0.3,0.1,0.5,0.1s0.3-0.1,0.4-0.2
				c0.1-0.1,0.2-0.3,0.3-0.5l0.1-0.4l-1.8-4.9h0.8l1.4,3.9h0.1l1.4-3.9h0.8l-2.1,5.6c-0.1,0.3-0.2,0.5-0.3,0.6
				c-0.1,0.2-0.3,0.3-0.5,0.4C801.9,36.6,801.7,36.6,801.5,36.6z"/>
			<path d="M806,34.8v-4.9h0.7v0.8h0.1c0.1-0.3,0.3-0.5,0.5-0.6c0.2-0.1,0.5-0.2,0.8-0.2c0.3,0,0.6,0.1,0.8,0.2
				c0.2,0.1,0.4,0.3,0.5,0.6h0.1c0.1-0.3,0.3-0.5,0.6-0.6c0.3-0.2,0.6-0.2,0.9-0.2c0.4,0,0.8,0.1,1.1,0.4c0.3,0.3,0.4,0.7,0.4,1.3
				v3.3h-0.8v-3.3c0-0.4-0.1-0.6-0.3-0.8c-0.2-0.2-0.4-0.2-0.7-0.2c-0.3,0-0.6,0.1-0.8,0.3s-0.3,0.5-0.3,0.8v3.2h-0.8v-3.4
				c0-0.3-0.1-0.5-0.3-0.7c-0.2-0.2-0.4-0.3-0.7-0.3c-0.2,0-0.4,0.1-0.5,0.2c-0.2,0.1-0.3,0.2-0.4,0.4c-0.1,0.2-0.2,0.4-0.2,0.6v3.1
				H806z"/>
			<path d="M815.9,34.9c-0.5,0-0.9-0.1-1.2-0.3s-0.6-0.5-0.8-0.9c-0.2-0.4-0.3-0.8-0.3-1.3s0.1-0.9,0.3-1.3c0.2-0.4,0.4-0.7,0.8-0.9
				c0.3-0.2,0.7-0.3,1.2-0.3c0.3,0,0.5,0,0.8,0.1c0.2,0.1,0.5,0.2,0.7,0.4c0.2,0.2,0.4,0.4,0.5,0.8c0.1,0.3,0.2,0.7,0.2,1.2v0.3
				h-3.8v-0.7h3c0-0.3-0.1-0.5-0.2-0.7c-0.1-0.2-0.3-0.4-0.5-0.5s-0.4-0.2-0.7-0.2c-0.3,0-0.6,0.1-0.8,0.2c-0.2,0.1-0.4,0.3-0.5,0.6
				s-0.2,0.5-0.2,0.8v0.4c0,0.4,0.1,0.7,0.2,0.9s0.3,0.5,0.5,0.6c0.2,0.1,0.5,0.2,0.8,0.2c0.2,0,0.4,0,0.5-0.1
				c0.2-0.1,0.3-0.1,0.4-0.3c0.1-0.1,0.2-0.3,0.3-0.4l0.7,0.2c-0.1,0.2-0.2,0.5-0.4,0.7c-0.2,0.2-0.4,0.3-0.7,0.4
				S816.2,34.9,815.9,34.9z"/>
			<path d="M819.8,31.8v3h-0.8v-4.9h0.7v0.8h0.1c0.1-0.2,0.3-0.5,0.5-0.6s0.5-0.2,0.9-0.2c0.3,0,0.6,0.1,0.9,0.2
				c0.2,0.1,0.4,0.3,0.6,0.6s0.2,0.6,0.2,1v3.1h-0.8v-3.1c0-0.4-0.1-0.7-0.3-0.9c-0.2-0.2-0.5-0.3-0.8-0.3c-0.2,0-0.5,0.1-0.6,0.2
				s-0.3,0.3-0.4,0.5S819.8,31.5,819.8,31.8z"/>
			<path d="M826.5,29.9v0.6h-2.5v-0.6H826.5z M824.7,28.7h0.8v4.7c0,0.2,0,0.4,0.1,0.5c0.1,0.1,0.1,0.2,0.2,0.2
				c0.1,0,0.2,0.1,0.3,0.1c0.1,0,0.2,0,0.2,0c0.1,0,0.1,0,0.1,0l0.2,0.7c-0.1,0-0.1,0-0.2,0.1c-0.1,0-0.2,0-0.3,0
				c-0.2,0-0.4,0-0.6-0.1s-0.4-0.2-0.5-0.4c-0.1-0.2-0.2-0.4-0.2-0.7V28.7z"/>
			<path d="M775.9,41.1c-0.1-0.2-0.2-0.4-0.3-0.6c-0.1-0.2-0.2-0.3-0.4-0.4c-0.2-0.1-0.3-0.2-0.5-0.3c-0.2-0.1-0.4-0.1-0.7-0.1
				c-0.4,0-0.7,0.1-1.1,0.3s-0.6,0.5-0.8,0.9c-0.2,0.4-0.3,0.9-0.3,1.4s0.1,1,0.3,1.4c0.2,0.4,0.4,0.7,0.8,0.9s0.7,0.3,1.1,0.3
				c0.4,0,0.7-0.1,1-0.2c0.3-0.2,0.5-0.4,0.7-0.7c0.2-0.3,0.2-0.6,0.2-1l0.2,0.1h-2v-0.7h2.5V43c0,0.5-0.1,1-0.3,1.4
				c-0.2,0.4-0.5,0.7-0.9,0.9c-0.4,0.2-0.9,0.3-1.4,0.3c-0.6,0-1.1-0.1-1.5-0.4c-0.4-0.3-0.8-0.7-1-1.2s-0.4-1.1-0.4-1.8
				c0-0.5,0.1-1,0.2-1.4c0.1-0.4,0.3-0.8,0.6-1.1s0.6-0.5,0.9-0.7c0.3-0.2,0.7-0.2,1.2-0.2c0.3,0,0.7,0.1,1,0.2
				c0.3,0.1,0.6,0.2,0.8,0.4s0.4,0.4,0.6,0.7c0.2,0.3,0.3,0.5,0.3,0.9H775.9z"/>
			<path d="M779.5,45.7c-0.3,0-0.6-0.1-0.8-0.2c-0.3-0.1-0.5-0.3-0.6-0.5c-0.1-0.2-0.2-0.5-0.2-0.8c0-0.3,0.1-0.5,0.2-0.7
				c0.1-0.2,0.3-0.3,0.4-0.4c0.2-0.1,0.4-0.2,0.6-0.2c0.2,0,0.5-0.1,0.7-0.1c0.3,0,0.5-0.1,0.7-0.1s0.3-0.1,0.4-0.1
				c0.1,0,0.1-0.1,0.1-0.3v0c0-0.3-0.1-0.6-0.3-0.7c-0.2-0.2-0.4-0.3-0.8-0.3c-0.4,0-0.6,0.1-0.8,0.2c-0.2,0.2-0.3,0.3-0.4,0.5
				l-0.7-0.3c0.1-0.3,0.3-0.5,0.5-0.7s0.4-0.3,0.7-0.4c0.3-0.1,0.5-0.1,0.8-0.1c0.2,0,0.3,0,0.5,0.1c0.2,0,0.4,0.1,0.6,0.2
				c0.2,0.1,0.4,0.3,0.5,0.5c0.1,0.2,0.2,0.5,0.2,0.9v3.2H781v-0.7h0c-0.1,0.1-0.1,0.2-0.3,0.3c-0.1,0.1-0.3,0.2-0.5,0.3
				S779.8,45.7,779.5,45.7z M779.6,45c0.3,0,0.6-0.1,0.8-0.2c0.2-0.1,0.4-0.3,0.5-0.5c0.1-0.2,0.2-0.4,0.2-0.6v-0.7
				c0,0-0.1,0.1-0.2,0.1s-0.2,0.1-0.4,0.1s-0.3,0-0.4,0.1c-0.1,0-0.2,0-0.3,0c-0.2,0-0.4,0.1-0.5,0.1c-0.2,0.1-0.3,0.1-0.4,0.3
				c-0.1,0.1-0.2,0.3-0.2,0.5c0,0.3,0.1,0.5,0.3,0.6C779,44.9,779.3,45,779.6,45z"/>
			<path d="M785.2,40.7v0.6h-2.5v-0.6H785.2z M783.4,39.5h0.8v4.7c0,0.2,0,0.4,0.1,0.5c0.1,0.1,0.1,0.2,0.2,0.2
				c0.1,0,0.2,0.1,0.3,0.1c0.1,0,0.2,0,0.2,0c0.1,0,0.1,0,0.1,0l0.2,0.7c-0.1,0-0.1,0-0.2,0.1c-0.1,0-0.2,0-0.3,0
				c-0.2,0-0.4,0-0.6-0.1s-0.4-0.2-0.5-0.4s-0.2-0.4-0.2-0.7V39.5z"/>
			<path d="M788.4,45.7c-0.5,0-0.9-0.1-1.2-0.3c-0.3-0.2-0.6-0.5-0.8-0.9c-0.2-0.4-0.3-0.8-0.3-1.3s0.1-0.9,0.3-1.3s0.4-0.7,0.8-0.9
				c0.3-0.2,0.7-0.3,1.2-0.3c0.3,0,0.5,0,0.8,0.1c0.2,0.1,0.5,0.2,0.7,0.4c0.2,0.2,0.4,0.4,0.5,0.8c0.1,0.3,0.2,0.7,0.2,1.2v0.3
				h-3.8v-0.7h3c0-0.3-0.1-0.5-0.2-0.7c-0.1-0.2-0.3-0.4-0.5-0.5s-0.4-0.2-0.7-0.2c-0.3,0-0.6,0.1-0.8,0.2c-0.2,0.1-0.4,0.3-0.5,0.6
				s-0.2,0.5-0.2,0.8v0.4c0,0.4,0.1,0.7,0.2,0.9s0.3,0.5,0.5,0.6c0.2,0.1,0.5,0.2,0.8,0.2c0.2,0,0.4,0,0.5-0.1
				c0.2-0.1,0.3-0.1,0.4-0.3c0.1-0.1,0.2-0.3,0.3-0.4l0.7,0.2c-0.1,0.2-0.2,0.5-0.4,0.7c-0.2,0.2-0.4,0.3-0.7,0.4
				S788.8,45.7,788.4,45.7z"/>
			<path d="M792.7,45.6l-1.5-4.9h0.8l1.1,3.8h0.1l1-3.8h0.8l1,3.7h0.1l1.1-3.7h0.8l-1.5,4.9h-0.7l-1.1-3.8h-0.1l-1.1,3.8H792.7z"/>
			<path d="M800.4,45.7c-0.3,0-0.6-0.1-0.8-0.2c-0.3-0.1-0.5-0.3-0.6-0.5c-0.1-0.2-0.2-0.5-0.2-0.8c0-0.3,0.1-0.5,0.2-0.7
				c0.1-0.2,0.3-0.3,0.4-0.4c0.2-0.1,0.4-0.2,0.6-0.2s0.5-0.1,0.7-0.1c0.3,0,0.5-0.1,0.7-0.1s0.3-0.1,0.4-0.1s0.1-0.1,0.1-0.3v0
				c0-0.3-0.1-0.6-0.3-0.7s-0.4-0.3-0.8-0.3c-0.4,0-0.6,0.1-0.8,0.2c-0.2,0.2-0.3,0.3-0.4,0.5l-0.7-0.3c0.1-0.3,0.3-0.5,0.5-0.7
				c0.2-0.2,0.4-0.3,0.7-0.4c0.3-0.1,0.5-0.1,0.8-0.1c0.2,0,0.3,0,0.5,0.1s0.4,0.1,0.6,0.2s0.4,0.3,0.5,0.5c0.1,0.2,0.2,0.5,0.2,0.9
				v3.2h-0.8v-0.7h0c-0.1,0.1-0.1,0.2-0.3,0.3c-0.1,0.1-0.3,0.2-0.5,0.3S800.7,45.7,800.4,45.7z M800.5,45c0.3,0,0.5-0.1,0.8-0.2
				c0.2-0.1,0.4-0.3,0.5-0.5c0.1-0.2,0.2-0.4,0.2-0.6v-0.7c0,0-0.1,0.1-0.2,0.1s-0.2,0.1-0.4,0.1c-0.1,0-0.3,0-0.4,0.1
				c-0.1,0-0.2,0-0.3,0c-0.2,0-0.4,0.1-0.5,0.1s-0.3,0.1-0.4,0.3c-0.1,0.1-0.2,0.3-0.2,0.5c0,0.3,0.1,0.5,0.3,0.6
				C799.9,44.9,800.2,45,800.5,45z"/>
			<path d="M804.5,47.4c-0.1,0-0.2,0-0.3,0c-0.1,0-0.2,0-0.2-0.1l0.2-0.7c0.2,0,0.3,0.1,0.5,0.1s0.3-0.1,0.4-0.2
				c0.1-0.1,0.2-0.3,0.3-0.5l0.1-0.4l-1.8-4.9h0.8l1.4,3.9h0.1l1.4-3.9h0.8l-2.1,5.6c-0.1,0.3-0.2,0.5-0.3,0.6
				c-0.1,0.2-0.3,0.3-0.5,0.4C804.9,47.4,804.7,47.4,804.5,47.4z"/>
			<path d="M813.4,45.6c-0.4,0-0.8-0.1-1.1-0.2c-0.3-0.2-0.6-0.4-0.7-0.6c-0.2-0.3-0.3-0.6-0.3-0.9c0-0.3,0.1-0.5,0.2-0.7
				s0.3-0.4,0.5-0.6c0.2-0.2,0.4-0.4,0.7-0.5l0.9-0.7c0.2-0.1,0.3-0.3,0.4-0.4c0.1-0.1,0.2-0.3,0.2-0.5c0-0.2-0.1-0.3-0.2-0.5
				c-0.1-0.2-0.3-0.2-0.6-0.2c-0.2,0-0.3,0-0.4,0.1c-0.1,0.1-0.2,0.2-0.3,0.3s-0.1,0.3-0.1,0.4c0,0.2,0,0.3,0.1,0.5s0.2,0.3,0.3,0.5
				s0.3,0.3,0.4,0.5l3,3.7h-0.9l-2.5-3c-0.2-0.3-0.4-0.5-0.6-0.8c-0.2-0.2-0.3-0.4-0.4-0.7c-0.1-0.2-0.2-0.5-0.2-0.7
				c0-0.3,0.1-0.6,0.2-0.8s0.3-0.4,0.6-0.5c0.2-0.1,0.5-0.2,0.8-0.2c0.3,0,0.6,0.1,0.8,0.2c0.2,0.1,0.4,0.3,0.5,0.5s0.2,0.4,0.2,0.7
				c0,0.3-0.1,0.6-0.2,0.8c-0.2,0.2-0.4,0.4-0.6,0.6l-1.3,1c-0.3,0.2-0.5,0.4-0.6,0.6c-0.1,0.2-0.2,0.4-0.2,0.4
				c0,0.2,0.1,0.4,0.2,0.6s0.3,0.3,0.5,0.4c0.2,0.1,0.4,0.2,0.7,0.2c0.2,0,0.5-0.1,0.7-0.2s0.4-0.3,0.6-0.5c0.2-0.2,0.3-0.4,0.5-0.7
				c0.1-0.3,0.2-0.6,0.2-0.9h0.7c0,0.4,0,0.8-0.2,1.1c-0.1,0.3-0.2,0.5-0.3,0.6c-0.1,0.2-0.2,0.3-0.3,0.3c0,0,0,0.1-0.1,0.1
				c0,0,0,0.1-0.1,0.1c-0.2,0.2-0.5,0.4-0.8,0.5C814,45.6,813.7,45.6,813.4,45.6z"/>
			<path d="M783.1,51.5c0-0.3-0.2-0.6-0.5-0.8c-0.3-0.2-0.6-0.3-1-0.3c-0.3,0-0.5,0-0.8,0.1c-0.2,0.1-0.4,0.2-0.5,0.4
				s-0.2,0.3-0.2,0.6c0,0.2,0,0.3,0.1,0.4c0.1,0.1,0.2,0.2,0.3,0.3c0.1,0.1,0.3,0.1,0.4,0.2c0.1,0.1,0.3,0.1,0.4,0.1l0.7,0.2
				c0.2,0,0.4,0.1,0.6,0.2s0.4,0.2,0.6,0.3c0.2,0.1,0.4,0.3,0.5,0.5s0.2,0.5,0.2,0.8c0,0.4-0.1,0.7-0.3,1s-0.5,0.5-0.8,0.7
				s-0.8,0.3-1.3,0.3c-0.5,0-0.9-0.1-1.2-0.2s-0.6-0.4-0.8-0.6s-0.3-0.6-0.3-0.9h0.8c0,0.2,0.1,0.5,0.3,0.6c0.1,0.2,0.3,0.3,0.6,0.4
				c0.2,0.1,0.5,0.1,0.7,0.1c0.3,0,0.6,0,0.8-0.1c0.2-0.1,0.4-0.2,0.6-0.4s0.2-0.4,0.2-0.6c0-0.2-0.1-0.4-0.2-0.5
				c-0.1-0.1-0.3-0.2-0.5-0.3c-0.2-0.1-0.4-0.2-0.6-0.2l-0.8-0.2c-0.5-0.1-0.9-0.4-1.2-0.6c-0.3-0.3-0.4-0.6-0.4-1.1
				c0-0.4,0.1-0.7,0.3-1s0.5-0.5,0.8-0.6c0.3-0.2,0.7-0.2,1.1-0.2c0.4,0,0.8,0.1,1.1,0.2s0.6,0.4,0.8,0.6c0.2,0.3,0.3,0.6,0.3,0.9
				H783.1z"/>
			<path d="M788.3,54.4v-2.9h0.8v4.9h-0.8v-0.8h-0.1c-0.1,0.2-0.3,0.5-0.5,0.6c-0.2,0.2-0.5,0.3-0.9,0.3c-0.3,0-0.6-0.1-0.8-0.2
				c-0.2-0.1-0.4-0.3-0.6-0.6c-0.1-0.3-0.2-0.6-0.2-1v-3.1h0.8v3.1c0,0.4,0.1,0.6,0.3,0.9s0.5,0.3,0.8,0.3c0.2,0,0.4,0,0.6-0.1
				c0.2-0.1,0.4-0.2,0.5-0.4C788.2,54.9,788.3,54.7,788.3,54.4z"/>
			<path d="M790.5,56.4v-6.5h0.8v2.4h0.1c0.1-0.1,0.1-0.2,0.2-0.3c0.1-0.1,0.2-0.3,0.4-0.4s0.4-0.2,0.8-0.2c0.4,0,0.8,0.1,1.1,0.3
				c0.3,0.2,0.6,0.5,0.7,0.9c0.2,0.4,0.3,0.8,0.3,1.3c0,0.5-0.1,1-0.3,1.4c-0.2,0.4-0.4,0.7-0.7,0.9c-0.3,0.2-0.7,0.3-1.1,0.3
				c-0.3,0-0.6-0.1-0.8-0.2s-0.3-0.2-0.4-0.4c-0.1-0.1-0.2-0.2-0.2-0.3h-0.1v0.8H790.5z M791.2,53.9c0,0.4,0.1,0.7,0.2,1
				c0.1,0.3,0.3,0.5,0.5,0.7c0.2,0.2,0.5,0.2,0.8,0.2c0.3,0,0.6-0.1,0.8-0.3c0.2-0.2,0.4-0.4,0.5-0.7c0.1-0.3,0.2-0.6,0.2-1
				c0-0.3-0.1-0.7-0.2-0.9s-0.3-0.5-0.5-0.7c-0.2-0.2-0.5-0.2-0.8-0.2c-0.3,0-0.6,0.1-0.8,0.2c-0.2,0.2-0.4,0.4-0.5,0.6
				C791.3,53.2,791.2,53.5,791.2,53.9z"/>
			<path d="M796,56.4v-4.9h0.7v0.8h0.1c0.1-0.3,0.3-0.5,0.5-0.6c0.2-0.1,0.5-0.2,0.8-0.2c0.3,0,0.6,0.1,0.8,0.2
				c0.2,0.1,0.4,0.3,0.5,0.6h0.1c0.1-0.3,0.3-0.5,0.6-0.6c0.3-0.2,0.6-0.2,0.9-0.2c0.4,0,0.8,0.1,1.1,0.4s0.4,0.7,0.4,1.3v3.3h-0.8
				v-3.3c0-0.4-0.1-0.6-0.3-0.8s-0.4-0.2-0.7-0.2c-0.3,0-0.6,0.1-0.8,0.3c-0.2,0.2-0.3,0.5-0.3,0.8v3.2h-0.8V53
				c0-0.3-0.1-0.5-0.3-0.7c-0.2-0.2-0.4-0.3-0.7-0.3c-0.2,0-0.4,0.1-0.5,0.2c-0.2,0.1-0.3,0.2-0.4,0.4s-0.2,0.4-0.2,0.6v3.1H796z"/>
			<path d="M804.2,50.6c-0.1,0-0.3,0-0.4-0.2c-0.1-0.1-0.2-0.2-0.2-0.4s0.1-0.3,0.2-0.4c0.1-0.1,0.2-0.2,0.4-0.2
				c0.1,0,0.3,0,0.4,0.2c0.1,0.1,0.2,0.2,0.2,0.4s-0.1,0.3-0.2,0.4C804.5,50.6,804.3,50.6,804.2,50.6z M803.8,56.4v-4.9h0.8v4.9
				H803.8z"/>
			<path d="M808.1,51.5v0.6h-2.5v-0.6H808.1z M806.3,50.3h0.8V55c0,0.2,0,0.4,0.1,0.5c0.1,0.1,0.1,0.2,0.2,0.2
				c0.1,0,0.2,0.1,0.3,0.1c0.1,0,0.2,0,0.2,0c0.1,0,0.1,0,0.1,0l0.2,0.7c-0.1,0-0.1,0-0.2,0.1c-0.1,0-0.2,0-0.3,0
				c-0.2,0-0.4,0-0.6-0.1c-0.2-0.1-0.4-0.2-0.5-0.4c-0.1-0.2-0.2-0.4-0.2-0.7V50.3z"/>
		</g>
	</g>
</g>
</svg>
