<?xml version="1.0" encoding="utf-8"?>
<!-- Generator: Adobe Illustrator 26.0.1, SVG Export Plug-In . SVG Version: 6.00 Build 0)  -->
<svg version="1.1" id="Layer_1" xmlns="http://www.w3.org/2000/svg" xmlns:xlink="http://www.w3.org/1999/xlink" x="0px" y="0px"
	 viewBox="0 0 102.7 382.4" style="enable-background:new 0 0 102.7 382.4;" xml:space="preserve">
<style type="text/css">
	.st0{fill:#0F5C32;}
	.st1{fill:#0C4424;}
	.st2{fill:#F6FBFD;}
	.st3{fill:#0D4424;}
	.st4{fill:#16695F;}
	.st5{fill:#8F9293;}
	.st6{fill:#F6852C;}
	.st7{fill:#028141;}
	.st8{fill:#FFFFFF;}
	.st9{fill:#F7F8F9;}
	.st10{fill:#BEBDBF;}
	.st11{fill:#F2F4F5;}
	.st12{fill:#BCBDBF;}
	.st13{fill:#221F1F;}
	.st14{fill:#4FB862;}
	.st15{fill:#FBED1D;}
	.st16{fill:#CFD1D2;}
	.st17{fill:#231F20;}
	.st18{fill:#E9ECED;}
	.st19{fill:#A22F23;}
	.st20{fill:#B7332A;}
	.st21{fill:none;}
	.st22{fill:#669A9D;}
	.st23{fill:#F3D1B6;}
	.st24{fill:#E1C1A9;}
	.st25{fill:#C1DAEA;}
	.st26{fill:#8BD1DF;}
	.st27{fill:#E4E4E4;}
	.st28{fill:#FED8B6;}
	.st29{fill:#8C633C;}
	.st30{fill:#F2CFB4;}
	.st31{fill:#A1C1E5;}
	.st32{fill:#F68831;}
	.st33{fill:#EC7D30;}
	.st34{fill:#A5A4A4;}
	.st35{fill:#FEC010;}
	.st36{fill:#4971B8;}
	.st37{fill-rule:evenodd;clip-rule:evenodd;fill:#EC7D30;}
	.st38{fill:none;stroke:#FFFFFF;stroke-miterlimit:8;}
	
		.st39{opacity:0.902;clip-path:url(#SVGID_00000139975191375127924990000004785118558321076916_);fill-rule:evenodd;clip-rule:evenodd;fill:#FFFFFF;}
	
		.st40{opacity:0.902;clip-path:url(#SVGID_00000139975191375127924990000004785118558321076916_);fill:none;stroke:#EC7D30;stroke-miterlimit:8;}
	.st41{clip-path:url(#SVGID_00000139975191375127924990000004785118558321076916_);}
	.st42{clip-path:url(#SVGID_00000078729654273779639570000016895735154705673403_);}
	
		.st43{clip-path:url(#SVGID_00000170277803235680363280000006454379849531591849_);fill-rule:evenodd;clip-rule:evenodd;fill:#A5A4A4;}
	.st44{clip-path:url(#SVGID_00000170277803235680363280000006454379849531591849_);fill:none;stroke:#FFFFFF;stroke-miterlimit:8;}
	.st45{clip-path:url(#SVGID_00000170277803235680363280000006454379849531591849_);}
	
		.st46{opacity:0.902;clip-path:url(#SVGID_00000062188788607589575210000008235823768712573594_);fill-rule:evenodd;clip-rule:evenodd;fill:#FFFFFF;}
	
		.st47{opacity:0.902;clip-path:url(#SVGID_00000062188788607589575210000008235823768712573594_);fill:none;stroke:#A5A4A4;stroke-miterlimit:8;}
	.st48{clip-path:url(#SVGID_00000062188788607589575210000008235823768712573594_);}
	.st49{clip-path:url(#SVGID_00000160911862110448563720000003908005261472978102_);}
	
		.st50{clip-path:url(#SVGID_00000166652733693519363920000017902970973463335821_);fill-rule:evenodd;clip-rule:evenodd;fill:#FEC010;}
	.st51{clip-path:url(#SVGID_00000166652733693519363920000017902970973463335821_);fill:none;stroke:#FFFFFF;stroke-miterlimit:8;}
	.st52{clip-path:url(#SVGID_00000166652733693519363920000017902970973463335821_);}
	
		.st53{opacity:0.902;clip-path:url(#SVGID_00000033370882769746317800000001320165790970206615_);fill-rule:evenodd;clip-rule:evenodd;fill:#FFFFFF;}
	
		.st54{opacity:0.902;clip-path:url(#SVGID_00000033370882769746317800000001320165790970206615_);fill:none;stroke:#FEC010;stroke-miterlimit:8;}
	.st55{clip-path:url(#SVGID_00000033370882769746317800000001320165790970206615_);}
	.st56{clip-path:url(#SVGID_00000016783708876444942140000017619311853629986456_);}
	
		.st57{clip-path:url(#SVGID_00000005227702311286246930000005725620784952714926_);fill-rule:evenodd;clip-rule:evenodd;fill:#4971B8;}
	.st58{clip-path:url(#SVGID_00000005227702311286246930000005725620784952714926_);fill:none;stroke:#FFFFFF;stroke-miterlimit:8;}
	.st59{clip-path:url(#SVGID_00000005227702311286246930000005725620784952714926_);}
	
		.st60{opacity:0.902;clip-path:url(#SVGID_00000057145681701046269340000018246964739400783517_);fill-rule:evenodd;clip-rule:evenodd;fill:#FFFFFF;}
	
		.st61{opacity:0.902;clip-path:url(#SVGID_00000057145681701046269340000018246964739400783517_);fill:none;stroke:#4971B8;stroke-miterlimit:8;}
	.st62{clip-path:url(#SVGID_00000057145681701046269340000018246964739400783517_);}
	.st63{clip-path:url(#SVGID_00000000214405819314242780000011921396886584104886_);}
</style>
<g>
	<g>
		<circle class="st33" cx="51.3" cy="331.1" r="51.3"/>
		<circle class="st8" cx="51.3" cy="331.1" r="47.3"/>
	</g>
	<g>
		<path class="st34" d="M100.8,236.3c0.2,30.9-28.6,48.3-49.1,66.2c-1.3,1.2-20.4-17.8-22.7-19.9c-14-12.3-27.5-27.4-27.1-47.3
			c0.3-18,10.7-34.8,26.6-43.2c7.1-3.7,15.1-5.7,23.2-5.7C80.7,186.5,100.7,210.7,100.8,236.3z"/>
		<circle class="st8" cx="51.3" cy="235.6" r="45"/>
	</g>
	<g>
		<path class="st35" d="M100.8,143.1c0.2,30.9-28.6,48.3-49.1,66.2c-1.3,1.2-20.4-17.8-22.7-19.9C15,177.1,1.5,162,1.9,142.1
			c0.3-18,10.7-34.8,26.6-43.2c7.1-3.7,15.1-5.7,23.2-5.7C80.7,93.2,100.7,117.5,100.8,143.1z"/>
		<circle class="st8" cx="51.3" cy="142.3" r="45"/>
	</g>
	<g>
		<path class="st36" d="M100.8,49.8C101,80.7,72.2,98.1,51.7,116c-1.3,1.2-20.4-17.8-22.7-19.9C15,83.8,1.5,68.7,1.9,48.9
			c0.3-18,10.7-34.8,26.6-43.2C35.6,2,43.6,0,51.7,0C80.7,0,100.7,24.2,100.8,49.8z"/>
		<circle class="st8" cx="51.3" cy="49.1" r="45"/>
	</g>
</g>
</svg>
