<?xml version="1.0" encoding="utf-8"?>
<!-- Generator: Adobe Illustrator 26.0.1, SVG Export Plug-In . SVG Version: 6.00 Build 0)  -->
<svg version="1.1" id="Layer_1" xmlns="http://www.w3.org/2000/svg" xmlns:xlink="http://www.w3.org/1999/xlink" x="0px" y="0px"
	 viewBox="0 0 521.9 130" style="enable-background:new 0 0 521.9 130;" xml:space="preserve">
<style type="text/css">
	.st0{fill:#115D33;}
	.st1{fill:#0E4525;}
	.st2{fill:#F6FBFD;}
	.st3{fill:#186A60;}
	.st4{fill:#8F9393;}
	.st5{fill:#F6852B;}
	.st6{fill:#078241;}
	.st7{fill:#FFFFFF;}
	.st8{fill:#F7F8F9;}
	.st9{fill:#BFBDBF;}
	.st10{fill:#F2F3F4;}
	.st11{fill:#BCBDBF;}
	.st12{fill:#221F1F;}
	.st13{fill:#4FB862;}
	.st14{fill:#F9ED1F;}
	.st15{fill:#CFD2D3;}
	.st16{fill:#231F20;}
	.st17{fill:#E9ECED;}
	.st18{fill:#A33123;}
	.st19{fill:#B8342A;}
	.st20{fill:none;}
	.st21{fill:#669A9D;}
	.st22{fill:#F3D1B6;}
	.st23{fill:#E1C1A9;}
	.st24{fill:#C1DAEA;}
	.st25{fill:#8CD0DE;}
	.st26{fill:#E4E4E4;}
	.st27{fill:#FED8B7;}
	.st28{fill:#8D643D;}
	.st29{fill:#F2CFB5;}
	.st30{fill:#A2C1E6;}
	.st31{fill:#F68832;}
	.st32{fill:#EC7E30;}
	.st33{opacity:0.9;fill:#FFFFFF;enable-background:new    ;}
	.st34{fill:none;stroke:#EC7E30;stroke-miterlimit:10;}
	.st35{fill:#A5A4A4;}
	.st36{fill:#FDC015;}
	.st37{fill:#4A72B8;}
	.st38{fill:#71AD44;}
</style>
<g>
	<circle class="st32" cx="456.9" cy="65" r="65"/>
	<circle class="st7" cx="456.9" cy="65" r="59.9"/>
	<path class="st35" d="M324.5,2.4c39.2-0.3,61.2,36.2,83.9,62.2c1.5,1.6-22.6,25.8-25.2,28.8c-15.6,17.7-34.7,34.8-59.9,34.3
		c-22.8-0.4-44.1-13.6-54.7-33.7c-4.7-9-7.2-19.1-7.2-29.4C261.4,28,292,2.6,324.5,2.4z"/>
	<circle class="st7" cx="323.6" cy="65" r="57"/>
	<path class="st36" d="M193.8,2.4C233,2.1,255,38.6,277.7,64.6c1.5,1.6-22.6,25.8-25.2,28.8c-15.6,17.7-34.7,34.8-59.9,34.3
		c-22.8-0.4-44.1-13.6-54.7-33.7c-4.7-9-7.2-19.1-7.2-29.4C130.7,28,161.4,2.6,193.8,2.4z"/>
	<circle class="st7" cx="193" cy="65" r="57"/>
	<path class="st37" d="M63.2,2.4c39.2-0.3,61.2,36.2,83.9,62.2c1.5,1.6-22.6,25.8-25.2,28.8c-15.6,17.7-34.7,34.8-59.9,34.3
		C39.2,127.3,17.9,114.1,7.2,94C2.5,85,0,74.8,0,64.6C0.1,28,30.8,2.6,63.2,2.4z"/>
	<circle class="st7" cx="62.3" cy="65" r="57"/>
	<g>
		<path d="M44.4,65.2c0,1.7-0.3,3.2-0.9,4.4s-1.5,2.2-2.6,2.8c-1.1,0.7-2.3,1-3.7,1c-1.4,0-2.6-0.3-3.7-1c-1.1-0.7-1.9-1.6-2.6-2.8
			c-0.6-1.2-0.9-2.7-0.9-4.4c0-1.7,0.3-3.2,0.9-4.4s1.5-2.2,2.6-2.8c1.1-0.7,2.3-1,3.7-1c1.4,0,2.6,0.3,3.7,1
			c1.1,0.7,1.9,1.6,2.6,2.8S44.4,63.5,44.4,65.2z M42,65.2c0-1.3-0.2-2.4-0.6-3.3c-0.4-0.9-1-1.6-1.7-2s-1.5-0.7-2.5-0.7
			c-0.9,0-1.7,0.2-2.5,0.7c-0.7,0.5-1.3,1.1-1.7,2c-0.4,0.9-0.6,2-0.6,3.3c0,1.3,0.2,2.4,0.6,3.3c0.4,0.9,1,1.6,1.7,2
			c0.7,0.5,1.5,0.7,2.5,0.7c0.9,0,1.7-0.2,2.5-0.7s1.3-1.1,1.7-2C41.8,67.6,42,66.5,42,65.2z"/>
		<path d="M49.5,66.1v7.1h-2.3v-12h2.2v2h0.1c0.3-0.6,0.7-1.1,1.3-1.5c0.6-0.4,1.3-0.6,2.2-0.6c0.8,0,1.5,0.2,2.1,0.5
			c0.6,0.3,1.1,0.8,1.4,1.5c0.3,0.7,0.5,1.5,0.5,2.5v7.6h-2.3v-7.4c0-0.9-0.2-1.6-0.7-2s-1.1-0.7-1.9-0.7c-0.5,0-1,0.1-1.4,0.4
			c-0.4,0.2-0.8,0.6-1,1C49.6,64.9,49.5,65.5,49.5,66.1z"/>
		<path d="M62.7,57.2v16h-2.3v-16H62.7z"/>
		<path d="M67,59.4c-0.4,0-0.8-0.1-1-0.4s-0.4-0.6-0.4-1c0-0.4,0.1-0.7,0.4-1s0.6-0.4,1-0.4s0.8,0.1,1,0.4s0.4,0.6,0.4,1
			c0,0.4-0.1,0.7-0.4,1S67.4,59.4,67,59.4z M65.8,73.2v-12h2.3v12H65.8z"/>
		<path d="M73.6,66.1v7.1h-2.3v-12h2.2v2h0.1c0.3-0.6,0.7-1.1,1.3-1.5c0.6-0.4,1.3-0.6,2.2-0.6c0.8,0,1.5,0.2,2.1,0.5
			c0.6,0.3,1.1,0.8,1.4,1.5c0.3,0.7,0.5,1.5,0.5,2.5v7.6h-2.3v-7.4c0-0.9-0.2-1.6-0.7-2s-1.1-0.7-1.9-0.7c-0.5,0-1,0.1-1.4,0.4
			c-0.4,0.2-0.8,0.6-1,1C73.7,64.9,73.6,65.5,73.6,66.1z"/>
		<path d="M89.6,73.5c-1.2,0-2.2-0.3-3.1-0.8s-1.5-1.2-2-2.1c-0.5-0.9-0.7-2-0.7-3.3c0-1.2,0.2-2.3,0.7-3.2s1.1-1.7,1.9-2.2
			c0.8-0.5,1.8-0.8,2.9-0.8c0.7,0,1.3,0.1,2,0.3c0.6,0.2,1.2,0.6,1.7,1.1c0.5,0.5,0.9,1.1,1.2,1.9c0.3,0.8,0.4,1.7,0.4,2.8v0.8h-9.5
			v-1.8h7.2c0-0.6-0.1-1.2-0.4-1.6s-0.6-0.9-1.1-1.1c-0.5-0.3-1-0.4-1.6-0.4c-0.7,0-1.2,0.2-1.7,0.5c-0.5,0.3-0.9,0.7-1.1,1.2
			c-0.3,0.5-0.4,1.1-0.4,1.7v1.4c0,0.8,0.1,1.5,0.4,2c0.3,0.6,0.7,1,1.2,1.3c0.5,0.3,1.1,0.4,1.8,0.4c0.4,0,0.8-0.1,1.2-0.2
			c0.4-0.1,0.7-0.3,0.9-0.6c0.3-0.3,0.5-0.6,0.6-0.9l2.2,0.4c-0.2,0.7-0.5,1.2-0.9,1.7c-0.5,0.5-1,0.9-1.7,1.1
			C91.2,73.3,90.5,73.5,89.6,73.5z"/>
	</g>
	<g>
		<path d="M177.8,57v16h-2.2l-8.1-11.7h-0.1V73h-2.4V57h2.2l8.1,11.8h0.1V57H177.8z"/>
		<path d="M181.3,73V57h5.7c1.2,0,2.3,0.2,3.1,0.7c0.8,0.5,1.4,1.1,1.8,1.9c0.4,0.8,0.6,1.7,0.6,2.6c0,1-0.2,1.9-0.6,2.7
			c-0.4,0.8-1,1.4-1.8,1.9c-0.8,0.5-1.9,0.7-3.1,0.7h-3.9v-2h3.7c0.8,0,1.4-0.1,1.9-0.4c0.5-0.3,0.8-0.6,1.1-1.1
			c0.2-0.5,0.3-1,0.3-1.6c0-0.6-0.1-1.1-0.3-1.6c-0.2-0.5-0.6-0.8-1.1-1.1s-1.1-0.4-1.9-0.4h-3V73H181.3z"/>
		<path d="M204.1,61.2c-0.1-0.7-0.4-1.3-1-1.7c-0.6-0.4-1.4-0.6-2.3-0.6c-0.7,0-1.2,0.1-1.7,0.3c-0.5,0.2-0.9,0.5-1.1,0.8
			c-0.3,0.4-0.4,0.8-0.4,1.2c0,0.4,0.1,0.7,0.3,1c0.2,0.3,0.4,0.5,0.7,0.7c0.3,0.2,0.6,0.3,0.9,0.5c0.3,0.1,0.7,0.2,1,0.3l1.6,0.4
			c0.5,0.1,1,0.3,1.6,0.5c0.5,0.2,1,0.5,1.5,0.8c0.5,0.3,0.8,0.8,1.1,1.3c0.3,0.5,0.4,1.1,0.4,1.9c0,0.9-0.2,1.7-0.7,2.4
			c-0.5,0.7-1.1,1.3-2,1.7s-1.9,0.6-3.2,0.6c-1.2,0-2.2-0.2-3.1-0.6s-1.6-0.9-2.1-1.6c-0.5-0.7-0.8-1.5-0.8-2.5h2.4
			c0,0.6,0.2,1.1,0.6,1.4c0.3,0.4,0.8,0.7,1.3,0.9c0.5,0.2,1.1,0.3,1.7,0.3c0.7,0,1.3-0.1,1.8-0.3c0.5-0.2,1-0.5,1.3-0.9
			c0.3-0.4,0.5-0.8,0.5-1.4c0-0.5-0.1-0.9-0.4-1.2c-0.3-0.3-0.6-0.6-1.1-0.8c-0.5-0.2-1-0.4-1.5-0.5l-1.9-0.5
			c-1.3-0.3-2.3-0.9-3-1.5c-0.7-0.7-1.1-1.6-1.1-2.7c0-0.9,0.2-1.7,0.8-2.4s1.2-1.2,2-1.6c0.9-0.4,1.8-0.6,2.9-0.6
			c1.1,0,2,0.2,2.9,0.6c0.8,0.4,1.5,0.9,2,1.6c0.5,0.7,0.7,1.4,0.8,2.3H204.1z"/>
		<path d="M209.5,73V57h5.9c1.1,0,2.1,0.2,2.8,0.6c0.7,0.4,1.3,0.9,1.7,1.5c0.4,0.6,0.6,1.3,0.6,2.1c0,0.7-0.1,1.2-0.4,1.7
			c-0.2,0.5-0.6,0.8-1,1.1c-0.4,0.3-0.9,0.5-1.3,0.6v0.2c0.5,0,1.1,0.2,1.6,0.5c0.5,0.3,0.9,0.8,1.3,1.3c0.3,0.6,0.5,1.3,0.5,2.1
			c0,0.8-0.2,1.6-0.6,2.2s-1,1.2-1.8,1.5c-0.8,0.4-1.8,0.6-3.1,0.6H209.5z M211.9,63.9h3.2c0.5,0,1-0.1,1.5-0.3
			c0.4-0.2,0.8-0.5,1-0.9c0.3-0.4,0.4-0.8,0.4-1.3c0-0.7-0.2-1.2-0.7-1.7c-0.5-0.4-1.2-0.7-2.1-0.7h-3.3V63.9z M211.9,70.9h3.5
			c1.2,0,2-0.2,2.5-0.7c0.5-0.4,0.8-1,0.8-1.7c0-0.5-0.1-1-0.4-1.4c-0.3-0.4-0.6-0.8-1.1-1c-0.5-0.2-1-0.4-1.7-0.4h-3.6V70.9z"/>
	</g>
	<g>
		<path d="M289.7,73V57h5.9c1.1,0,2.1,0.2,2.8,0.6c0.7,0.4,1.3,0.9,1.7,1.5c0.4,0.6,0.6,1.3,0.6,2.1c0,0.7-0.1,1.2-0.4,1.7
			c-0.2,0.5-0.6,0.8-1,1.1c-0.4,0.3-0.9,0.5-1.3,0.6v0.2c0.5,0,1.1,0.2,1.6,0.5c0.5,0.3,0.9,0.8,1.3,1.3c0.3,0.6,0.5,1.3,0.5,2.1
			c0,0.8-0.2,1.6-0.6,2.2s-1,1.2-1.8,1.5c-0.8,0.4-1.8,0.6-3.1,0.6H289.7z M292.1,64h3.2c0.5,0,1-0.1,1.5-0.3c0.4-0.2,0.8-0.5,1-0.9
			c0.3-0.4,0.4-0.8,0.4-1.3c0-0.7-0.2-1.2-0.7-1.7c-0.5-0.4-1.2-0.7-2.1-0.7h-3.3V64z M292.1,71h3.5c1.2,0,2-0.2,2.5-0.7
			c0.5-0.4,0.8-1,0.8-1.7c0-0.5-0.1-1-0.4-1.4c-0.3-0.4-0.6-0.8-1.1-1c-0.5-0.2-1-0.4-1.7-0.4h-3.6V71z"/>
		<path d="M304.1,73V57h10v2.1h-7.6V64h7.1v2.1h-7.1V71h7.7V73H304.1z"/>
		<path d="M317.3,73V57h9.9v2.1h-7.5V64h6.8v2.1h-6.8v7H317.3z"/>
		<path d="M329.4,59.1V57h12.4v2.1h-5V73h-2.4V59.1H329.4z"/>
		<path d="M357.5,57v16h-2.2l-8.1-11.7H347V73h-2.4V57h2.2l8.1,11.8h0.1V57H357.5z"/>
	</g>
	<g>
		<path d="M437.3,65.3c0,1.7-0.3,3.2-0.9,4.4s-1.5,2.2-2.6,2.8c-1.1,0.7-2.3,1-3.7,1c-1.4,0-2.6-0.3-3.7-1c-1.1-0.7-1.9-1.6-2.6-2.8
			c-0.6-1.2-0.9-2.7-0.9-4.4c0-1.7,0.3-3.2,0.9-4.4s1.5-2.2,2.6-2.8c1.1-0.7,2.3-1,3.7-1c1.4,0,2.6,0.3,3.7,1
			c1.1,0.7,1.9,1.6,2.6,2.8S437.3,63.6,437.3,65.3z M435,65.3c0-1.3-0.2-2.4-0.6-3.3c-0.4-0.9-1-1.6-1.7-2s-1.5-0.7-2.5-0.7
			c-0.9,0-1.7,0.2-2.5,0.7c-0.7,0.5-1.3,1.1-1.7,2c-0.4,0.9-0.6,2-0.6,3.3c0,1.3,0.2,2.4,0.6,3.3c0.4,0.9,1,1.6,1.7,2
			c0.7,0.5,1.5,0.7,2.5,0.7c0.9,0,1.7-0.2,2.5-0.7s1.3-1.1,1.7-2C434.7,67.7,435,66.6,435,65.3z"/>
		<path d="M445.9,61.3v1.9h-6.8v-1.9H445.9z M440.9,73.3V59.9c0-0.8,0.2-1.4,0.5-1.9c0.3-0.5,0.8-0.9,1.3-1.1
			c0.5-0.2,1.1-0.4,1.8-0.4c0.5,0,0.9,0,1.2,0.1c0.3,0.1,0.6,0.1,0.7,0.2l-0.5,1.9c-0.1,0-0.2-0.1-0.4-0.1c-0.2,0-0.4-0.1-0.6-0.1
			c-0.6,0-1,0.1-1.2,0.4s-0.4,0.7-0.4,1.2v13.1H440.9z"/>
		<path d="M454,61.3v1.9h-6.8v-1.9H454z M449.1,73.3V59.9c0-0.8,0.2-1.4,0.5-1.9c0.3-0.5,0.8-0.9,1.3-1.1c0.5-0.2,1.1-0.4,1.8-0.4
			c0.5,0,0.9,0,1.2,0.1c0.3,0.1,0.6,0.1,0.7,0.2l-0.5,1.9c-0.1,0-0.2-0.1-0.4-0.1c-0.2,0-0.4-0.1-0.6-0.1c-0.6,0-1,0.1-1.2,0.4
			s-0.4,0.7-0.4,1.2v13.1H449.1z"/>
		<path d="M458.7,57.3v16h-2.3v-16H458.7z"/>
		<path d="M463,59.4c-0.4,0-0.8-0.1-1-0.4s-0.4-0.6-0.4-1c0-0.4,0.1-0.7,0.4-1s0.6-0.4,1-0.4s0.8,0.1,1,0.4s0.4,0.6,0.4,1
			c0,0.4-0.1,0.7-0.4,1S463.4,59.4,463,59.4z M461.9,73.3v-12h2.3v12H461.9z"/>
		<path d="M469.7,66.2v7.1h-2.3v-12h2.2v2h0.1c0.3-0.6,0.7-1.1,1.3-1.5c0.6-0.4,1.3-0.6,2.2-0.6c0.8,0,1.5,0.2,2.1,0.5
			c0.6,0.3,1.1,0.8,1.4,1.5c0.3,0.7,0.5,1.5,0.5,2.5v7.6H475v-7.4c0-0.9-0.2-1.6-0.7-2s-1.1-0.7-1.9-0.7c-0.5,0-1,0.1-1.4,0.4
			c-0.4,0.2-0.8,0.6-1,1C469.8,65,469.7,65.5,469.7,66.2z"/>
		<path d="M485.7,73.5c-1.2,0-2.2-0.3-3.1-0.8s-1.5-1.2-2-2.1c-0.5-0.9-0.7-2-0.7-3.3c0-1.2,0.2-2.3,0.7-3.2s1.1-1.7,1.9-2.2
			c0.8-0.5,1.8-0.8,2.9-0.8c0.7,0,1.3,0.1,2,0.3c0.6,0.2,1.2,0.6,1.7,1.1c0.5,0.5,0.9,1.1,1.2,1.9c0.3,0.8,0.4,1.7,0.4,2.8V68h-9.5
			v-1.8h7.2c0-0.6-0.1-1.2-0.4-1.6s-0.6-0.9-1.1-1.1c-0.5-0.3-1-0.4-1.6-0.4c-0.7,0-1.2,0.2-1.7,0.5c-0.5,0.3-0.9,0.7-1.1,1.2
			c-0.3,0.5-0.4,1.1-0.4,1.7v1.4c0,0.8,0.1,1.5,0.4,2c0.3,0.6,0.7,1,1.2,1.3c0.5,0.3,1.1,0.4,1.8,0.4c0.4,0,0.8-0.1,1.2-0.2
			c0.4-0.1,0.7-0.3,0.9-0.6c0.3-0.3,0.5-0.6,0.6-0.9l2.2,0.4c-0.2,0.7-0.5,1.2-0.9,1.7c-0.5,0.5-1,0.9-1.7,1.1
			C487.3,73.4,486.5,73.5,485.7,73.5z"/>
	</g>
</g>
</svg>
