<?xml version="1.0" encoding="utf-8"?>
<!-- Generator: Adobe Illustrator 26.0.1, SVG Export Plug-In . SVG Version: 6.00 Build 0)  -->
<svg version="1.1" id="Layer_1" xmlns="http://www.w3.org/2000/svg" xmlns:xlink="http://www.w3.org/1999/xlink" x="0px" y="0px"
	 viewBox="0 0 130 484.5" style="enable-background:new 0 0 130 484.5;" xml:space="preserve">
<style type="text/css">
	.st0{fill:#115D33;}
	.st1{fill:#0E4525;}
	.st2{fill:#F6FBFD;}
	.st3{fill:#186A60;}
	.st4{fill:#8F9393;}
	.st5{fill:#F6852B;}
	.st6{fill:#078241;}
	.st7{fill:#FFFFFF;}
	.st8{fill:#F7F8F9;}
	.st9{fill:#BFBDBF;}
	.st10{fill:#F2F3F4;}
	.st11{fill:#BCBDBF;}
	.st12{fill:#221F1F;}
	.st13{fill:#4FB862;}
	.st14{fill:#F9ED1F;}
	.st15{fill:#CFD2D3;}
	.st16{fill:#231F20;}
	.st17{fill:#E9ECED;}
	.st18{fill:#A33123;}
	.st19{fill:#B8342A;}
	.st20{fill:none;}
	.st21{fill:#669A9D;}
	.st22{fill:#F3D1B6;}
	.st23{fill:#E1C1A9;}
	.st24{fill:#C1DAEA;}
	.st25{fill:#8CD0DE;}
	.st26{fill:#E4E4E4;}
	.st27{fill:#FED8B7;}
	.st28{fill:#8D643D;}
	.st29{fill:#F2CFB5;}
	.st30{fill:#A2C1E6;}
	.st31{fill:#F68832;}
	.st32{fill:#EC7E30;}
	.st33{fill:#A5A4A4;}
	.st34{fill:#FDC015;}
	.st35{fill:#4A72B8;}
	.st36{opacity:0.9;fill:#FFFFFF;enable-background:new    ;}
	.st37{fill:none;stroke:#EC7E30;stroke-miterlimit:10;}
	.st38{fill:#71AD44;}
</style>
<circle class="st32" cx="65" cy="419.5" r="65"/>
<circle class="st7" cx="65" cy="419.5" r="59.9"/>
<path class="st33" d="M127.7,299.5c0.3,39.2-36.2,61.2-62.2,83.9c-1.6,1.5-25.8-22.6-28.8-25.2C19,342.6,1.9,323.5,2.4,298.3
	c0.4-22.8,13.6-44.1,33.7-54.7c9-4.7,19.1-7.2,29.4-7.2C102.1,236.4,127.5,267.1,127.7,299.5z"/>
<circle class="st7" cx="65" cy="298.6" r="57"/>
<path class="st34" d="M127.7,181.3c0.3,39.2-36.2,61.2-62.2,83.9c-1.6,1.5-25.8-22.6-28.8-25.2C19,224.4,1.9,205.3,2.4,180
	C2.8,157.2,16,136,36.1,125.3c9-4.7,19.1-7.2,29.4-7.2C102.1,118.2,127.5,148.9,127.7,181.3z"/>
<circle class="st7" cx="65" cy="180.4" r="57"/>
<path class="st35" d="M127.7,63.2c0.3,39.2-36.2,61.2-62.2,83.9c-1.6,1.5-25.8-22.6-28.8-25.2C19,106.3,1.9,87.2,2.4,62
	C2.8,39.2,16,17.9,36.1,7.2C45.1,2.5,55.2,0,65.5,0C102.1,0.1,127.5,30.8,127.7,63.2z"/>
<circle class="st7" cx="65" cy="62.3" r="57"/>
<g>
	<path d="M47,62.5c0,1.7-0.3,3.2-0.9,4.4s-1.5,2.2-2.6,2.8c-1.1,0.7-2.3,1-3.7,1c-1.4,0-2.6-0.3-3.7-1c-1.1-0.7-1.9-1.6-2.6-2.8
		c-0.6-1.2-0.9-2.7-0.9-4.4c0-1.7,0.3-3.2,0.9-4.4s1.5-2.2,2.6-2.8c1.1-0.7,2.3-1,3.7-1c1.4,0,2.6,0.3,3.7,1
		c1.1,0.7,1.9,1.6,2.6,2.8S47,60.8,47,62.5z M44.6,62.5c0-1.3-0.2-2.4-0.6-3.3c-0.4-0.9-1-1.6-1.7-2s-1.5-0.7-2.5-0.7
		c-0.9,0-1.7,0.2-2.5,0.7c-0.7,0.5-1.3,1.1-1.7,2c-0.4,0.9-0.6,2-0.6,3.3c0,1.3,0.2,2.4,0.6,3.3c0.4,0.9,1,1.6,1.7,2
		c0.7,0.5,1.5,0.7,2.5,0.7c0.9,0,1.7-0.2,2.5-0.7s1.3-1.1,1.7-2C44.4,64.9,44.6,63.8,44.6,62.5z"/>
	<path d="M52.2,63.4v7.1h-2.3v-12h2.2v2h0.1c0.3-0.6,0.7-1.1,1.3-1.5c0.6-0.4,1.3-0.6,2.2-0.6c0.8,0,1.5,0.2,2.1,0.5
		c0.6,0.3,1.1,0.8,1.4,1.5c0.3,0.7,0.5,1.5,0.5,2.5v7.6h-2.3v-7.4c0-0.9-0.2-1.6-0.7-2s-1.1-0.7-1.9-0.7c-0.5,0-1,0.1-1.4,0.4
		c-0.4,0.2-0.8,0.6-1,1C52.3,62.2,52.2,62.8,52.2,63.4z"/>
	<path d="M65.3,54.5v16H63v-16H65.3z"/>
	<path d="M69.6,56.7c-0.4,0-0.8-0.1-1-0.4s-0.4-0.6-0.4-1c0-0.4,0.1-0.7,0.4-1s0.6-0.4,1-0.4s0.8,0.1,1,0.4s0.4,0.6,0.4,1
		c0,0.4-0.1,0.7-0.4,1S70,56.7,69.6,56.7z M68.5,70.5v-12h2.3v12H68.5z"/>
	<path d="M76.3,63.4v7.1h-2.3v-12h2.2v2h0.1c0.3-0.6,0.7-1.1,1.3-1.5c0.6-0.4,1.3-0.6,2.2-0.6c0.8,0,1.5,0.2,2.1,0.5
		c0.6,0.3,1.1,0.8,1.4,1.5c0.3,0.7,0.5,1.5,0.5,2.5v7.6h-2.3v-7.4c0-0.9-0.2-1.6-0.7-2s-1.1-0.7-1.9-0.7c-0.5,0-1,0.1-1.4,0.4
		c-0.4,0.2-0.8,0.6-1,1C76.4,62.2,76.3,62.8,76.3,63.4z"/>
	<path d="M92.2,70.8c-1.2,0-2.2-0.3-3.1-0.8s-1.5-1.2-2-2.1c-0.5-0.9-0.7-2-0.7-3.3c0-1.2,0.2-2.3,0.7-3.3s1.1-1.7,1.9-2.2
		c0.8-0.5,1.8-0.8,2.9-0.8c0.7,0,1.3,0.1,2,0.3c0.6,0.2,1.2,0.6,1.7,1.1c0.5,0.5,0.9,1.1,1.2,1.9c0.3,0.8,0.4,1.7,0.4,2.8v0.8h-9.5
		v-1.8h7.2c0-0.6-0.1-1.2-0.4-1.6s-0.6-0.9-1.1-1.1c-0.5-0.3-1-0.4-1.6-0.4c-0.7,0-1.2,0.2-1.7,0.5c-0.5,0.3-0.9,0.7-1.1,1.2
		c-0.3,0.5-0.4,1.1-0.4,1.7v1.4c0,0.8,0.1,1.5,0.4,2c0.3,0.6,0.7,1,1.2,1.3c0.5,0.3,1.1,0.4,1.8,0.4c0.4,0,0.8-0.1,1.2-0.2
		c0.4-0.1,0.7-0.3,0.9-0.6c0.3-0.3,0.5-0.6,0.6-0.9l2.2,0.4c-0.2,0.7-0.5,1.2-0.9,1.7c-0.5,0.5-1,0.9-1.7,1.1
		C93.9,70.6,93.1,70.8,92.2,70.8z"/>
</g>
<g>
	<path d="M49.8,180.7v16h-2.2L39.5,185h-0.1v11.7h-2.4v-16h2.2l8.1,11.8h0.1v-11.8H49.8z"/>
	<path d="M53.3,196.7v-16H59c1.2,0,2.3,0.2,3.1,0.7c0.8,0.5,1.4,1.1,1.8,1.9c0.4,0.8,0.6,1.7,0.6,2.6c0,1-0.2,1.9-0.6,2.7
		c-0.4,0.8-1,1.4-1.8,1.9c-0.8,0.5-1.9,0.7-3.1,0.7h-3.9v-2h3.7c0.8,0,1.4-0.1,1.9-0.4c0.5-0.3,0.8-0.6,1.1-1.1
		c0.2-0.5,0.3-1,0.3-1.6c0-0.6-0.1-1.1-0.3-1.6c-0.2-0.5-0.6-0.8-1.1-1.1s-1.1-0.4-1.9-0.4h-3v13.9H53.3z"/>
	<path d="M76.1,184.9c-0.1-0.7-0.4-1.3-1-1.7c-0.6-0.4-1.4-0.6-2.3-0.6c-0.7,0-1.2,0.1-1.7,0.3c-0.5,0.2-0.9,0.5-1.1,0.8
		c-0.3,0.4-0.4,0.8-0.4,1.2c0,0.4,0.1,0.7,0.3,1c0.2,0.3,0.4,0.5,0.7,0.7c0.3,0.2,0.6,0.3,0.9,0.5c0.3,0.1,0.7,0.2,1,0.3l1.6,0.4
		c0.5,0.1,1,0.3,1.6,0.5c0.5,0.2,1,0.5,1.5,0.8c0.5,0.3,0.8,0.8,1.1,1.3c0.3,0.5,0.4,1.1,0.4,1.9c0,0.9-0.2,1.7-0.7,2.4
		c-0.5,0.7-1.1,1.3-2,1.7S74,197,72.8,197c-1.2,0-2.2-0.2-3.1-0.6s-1.6-0.9-2.1-1.6c-0.5-0.7-0.8-1.5-0.8-2.5h2.4
		c0,0.6,0.2,1.1,0.6,1.4c0.3,0.4,0.8,0.7,1.3,0.9c0.5,0.2,1.1,0.3,1.7,0.3c0.7,0,1.3-0.1,1.8-0.3c0.5-0.2,1-0.5,1.3-0.9
		c0.3-0.4,0.5-0.8,0.5-1.4c0-0.5-0.1-0.9-0.4-1.2c-0.3-0.3-0.6-0.6-1.1-0.8c-0.5-0.2-1-0.4-1.5-0.5l-1.9-0.5c-1.3-0.3-2.3-0.9-3-1.5
		c-0.7-0.7-1.1-1.6-1.1-2.7c0-0.9,0.2-1.7,0.8-2.4s1.2-1.2,2-1.6c0.9-0.4,1.8-0.6,2.9-0.6c1.1,0,2,0.2,2.9,0.6
		c0.8,0.4,1.5,0.9,2,1.6c0.5,0.7,0.7,1.4,0.8,2.3H76.1z"/>
	<path d="M81.6,196.7v-16h5.9c1.1,0,2.1,0.2,2.8,0.6c0.7,0.4,1.3,0.9,1.7,1.5c0.4,0.6,0.6,1.3,0.6,2.1c0,0.7-0.1,1.2-0.4,1.7
		c-0.2,0.5-0.6,0.8-1,1.1c-0.4,0.3-0.9,0.5-1.3,0.6v0.2c0.5,0,1.1,0.2,1.6,0.5c0.5,0.3,0.9,0.8,1.3,1.3c0.3,0.6,0.5,1.3,0.5,2.1
		c0,0.8-0.2,1.6-0.6,2.2s-1,1.2-1.8,1.5c-0.8,0.4-1.8,0.6-3.1,0.6H81.6z M84,187.6h3.2c0.5,0,1-0.1,1.5-0.3c0.4-0.2,0.8-0.5,1-0.9
		c0.3-0.4,0.4-0.8,0.4-1.3c0-0.7-0.2-1.2-0.7-1.7c-0.5-0.4-1.2-0.7-2.1-0.7H84V187.6z M84,194.6h3.5c1.2,0,2-0.2,2.5-0.7
		c0.5-0.4,0.8-1,0.8-1.7c0-0.5-0.1-1-0.4-1.4c-0.3-0.4-0.6-0.8-1.1-1c-0.5-0.2-1-0.4-1.7-0.4H84V194.6z"/>
</g>
<g>
	<path d="M31.1,306.6v-16H37c1.1,0,2.1,0.2,2.8,0.6c0.7,0.4,1.3,0.9,1.7,1.5c0.4,0.6,0.6,1.3,0.6,2.1c0,0.7-0.1,1.2-0.4,1.7
		c-0.2,0.5-0.6,0.8-1,1.1c-0.4,0.3-0.9,0.5-1.3,0.6v0.2c0.5,0,1.1,0.2,1.6,0.5c0.5,0.3,0.9,0.8,1.3,1.3c0.3,0.6,0.5,1.3,0.5,2.1
		c0,0.8-0.2,1.6-0.6,2.2s-1,1.2-1.8,1.5c-0.8,0.4-1.8,0.6-3.1,0.6H31.1z M33.5,297.6h3.2c0.5,0,1-0.1,1.5-0.3c0.4-0.2,0.8-0.5,1-0.9
		c0.3-0.4,0.4-0.8,0.4-1.3c0-0.7-0.2-1.2-0.7-1.7c-0.5-0.4-1.2-0.7-2.1-0.7h-3.3V297.6z M33.5,304.6H37c1.2,0,2-0.2,2.5-0.7
		c0.5-0.4,0.8-1,0.8-1.7c0-0.5-0.1-1-0.4-1.4c-0.3-0.4-0.6-0.8-1.1-1c-0.5-0.2-1-0.4-1.7-0.4h-3.6V304.6z"/>
	<path d="M45.5,306.6v-16h10v2.1h-7.6v4.9H55v2.1h-7.1v4.9h7.7v2.1H45.5z"/>
	<path d="M58.8,306.6v-16h9.9v2.1h-7.5v4.9H68v2.1h-6.8v7H58.8z"/>
	<path d="M70.9,292.7v-2.1h12.4v2.1h-5v13.9h-2.4v-13.9H70.9z"/>
	<path d="M98.9,290.6v16h-2.2l-8.1-11.7h-0.1v11.7H86v-16h2.2l8.1,11.8h0.1v-11.8H98.9z"/>
</g>
<g>
	<path d="M45.5,419.8c0,1.7-0.3,3.2-0.9,4.4s-1.5,2.2-2.6,2.8c-1.1,0.7-2.3,1-3.7,1c-1.4,0-2.6-0.3-3.7-1c-1.1-0.7-1.9-1.6-2.6-2.8
		c-0.6-1.2-0.9-2.7-0.9-4.4c0-1.7,0.3-3.2,0.9-4.4s1.5-2.2,2.6-2.8c1.1-0.7,2.3-1,3.7-1c1.4,0,2.6,0.3,3.7,1
		c1.1,0.7,1.9,1.6,2.6,2.8S45.5,418.1,45.5,419.8z M43.1,419.8c0-1.3-0.2-2.4-0.6-3.3c-0.4-0.9-1-1.6-1.7-2s-1.5-0.7-2.5-0.7
		c-0.9,0-1.7,0.2-2.5,0.7c-0.7,0.5-1.3,1.1-1.7,2c-0.4,0.9-0.6,2-0.6,3.3c0,1.3,0.2,2.4,0.6,3.3c0.4,0.9,1,1.6,1.7,2
		c0.7,0.5,1.5,0.7,2.5,0.7c0.9,0,1.7-0.2,2.5-0.7s1.3-1.1,1.7-2C42.9,422.2,43.1,421.1,43.1,419.8z"/>
	<path d="M54,415.8v1.9h-6.8v-1.9H54z M49.1,427.8v-13.4c0-0.8,0.2-1.4,0.5-1.9c0.3-0.5,0.8-0.9,1.3-1.1c0.5-0.2,1.1-0.4,1.8-0.4
		c0.5,0,0.9,0,1.2,0.1c0.3,0.1,0.6,0.1,0.7,0.2l-0.5,1.9c-0.1,0-0.2-0.1-0.4-0.1c-0.2,0-0.4-0.1-0.6-0.1c-0.6,0-1,0.1-1.2,0.4
		s-0.4,0.7-0.4,1.2v13.1H49.1z"/>
	<path d="M62.1,415.8v1.9h-6.8v-1.9H62.1z M57.2,427.8v-13.4c0-0.8,0.2-1.4,0.5-1.9c0.3-0.5,0.8-0.9,1.3-1.1
		c0.5-0.2,1.1-0.4,1.8-0.4c0.5,0,0.9,0,1.2,0.1c0.3,0.1,0.6,0.1,0.7,0.2l-0.5,1.9c-0.1,0-0.2-0.1-0.4-0.1c-0.2,0-0.4-0.1-0.6-0.1
		c-0.6,0-1,0.1-1.2,0.4s-0.4,0.7-0.4,1.2v13.1H57.2z"/>
	<path d="M66.9,411.8v16h-2.3v-16H66.9z"/>
	<path d="M71.2,413.9c-0.4,0-0.8-0.1-1-0.4s-0.4-0.6-0.4-1c0-0.4,0.1-0.7,0.4-1s0.6-0.4,1-0.4s0.8,0.1,1,0.4s0.4,0.6,0.4,1
		c0,0.4-0.1,0.7-0.4,1S71.6,413.9,71.2,413.9z M70,427.8v-12h2.3v12H70z"/>
	<path d="M77.8,420.7v7.1h-2.3v-12h2.2v2h0.1c0.3-0.6,0.7-1.1,1.3-1.5c0.6-0.4,1.3-0.6,2.2-0.6c0.8,0,1.5,0.2,2.1,0.5
		c0.6,0.3,1.1,0.8,1.4,1.5c0.3,0.7,0.5,1.5,0.5,2.5v7.6h-2.3v-7.4c0-0.9-0.2-1.6-0.7-2s-1.1-0.7-1.9-0.7c-0.5,0-1,0.1-1.4,0.4
		c-0.4,0.2-0.8,0.6-1,1C77.9,419.5,77.8,420,77.8,420.7z"/>
	<path d="M93.8,428c-1.2,0-2.2-0.3-3.1-0.8s-1.5-1.2-2-2.1c-0.5-0.9-0.7-2-0.7-3.3c0-1.2,0.2-2.3,0.7-3.2s1.1-1.7,1.9-2.2
		c0.8-0.5,1.8-0.8,2.9-0.8c0.7,0,1.3,0.1,2,0.3c0.6,0.2,1.2,0.6,1.7,1.1c0.5,0.5,0.9,1.1,1.2,1.9c0.3,0.8,0.4,1.7,0.4,2.8v0.8h-9.5
		v-1.8h7.2c0-0.6-0.1-1.2-0.4-1.6s-0.6-0.9-1.1-1.1c-0.5-0.3-1-0.4-1.6-0.4c-0.7,0-1.2,0.2-1.7,0.5c-0.5,0.3-0.9,0.7-1.1,1.2
		c-0.3,0.5-0.4,1.1-0.4,1.7v1.4c0,0.8,0.1,1.5,0.4,2c0.3,0.6,0.7,1,1.2,1.3c0.5,0.3,1.1,0.4,1.8,0.4c0.4,0,0.8-0.1,1.2-0.2
		c0.4-0.1,0.7-0.3,0.9-0.6c0.3-0.3,0.5-0.6,0.6-0.9l2.2,0.4c-0.2,0.7-0.5,1.2-0.9,1.7c-0.5,0.5-1,0.9-1.7,1.1
		C95.4,427.9,94.7,428,93.8,428z"/>
</g>
</svg>
